<svg id="Layer_1" data-name="Layer 1" xmlns="http://www.w3.org/2000/svg" viewBox="0 0 80.68 61.72"><defs><style>.cls-1,.cls-4{fill:#737373;}.cls-2{fill:#448aff;}.cls-3{fill:#fff;}.cls-3,.cls-4{fill-rule:evenodd;}</style></defs><path id="Shape-Copy" class="cls-1" d="M66,29.5A16.1,16.1,0,1,1,49.5,45.6,16.31,16.31,0,0,1,66,29.5Zm0,3A13.3,13.3,0,0,0,52.5,45.6a13.51,13.51,0,0,0,27,0C79.6,38.4,73.5,32.5,66,32.5Z" transform="translate(-1.82 -12.11)"/><path id="Shape" class="cls-2" d="M18.18,31A10.12,10.12,0,1,0,28.36,41.11,10.12,10.12,0,0,0,18.18,31Z" transform="translate(-1.82 -12.11)"/><path id="A" class="cls-3" d="M14.85,45l1.87-8.11h3.12L21.64,45H20l-.34-1.46H16.78L16.52,45ZM18,38.19l-.8,3.86h2.2l-.8-3.86Z" transform="translate(-1.82 -12.11)"/><path id="B" class="cls-4" d="M62.4,39.8h4.8a4.77,4.77,0,0,1,2.9.8,3.07,3.07,0,0,1,1,2.5,3.51,3.51,0,0,1-.3,1.6,3.46,3.46,0,0,1-1,1.1,2.94,2.94,0,0,1,1.2,1,3,3,0,0,1,.4,1.8,3,3,0,0,1-1,2.6,4.37,4.37,0,0,1-2.9.9H62.6V39.8Zm4.7,7.1H64.8v3h2.3a2.13,2.13,0,0,0,1.2-.3c.3-.2.4-.6.4-1.2C68.7,47.4,68.2,46.9,67.1,46.9Zm-.1-5H64.8v2.9H67c.9,0,1.4-.5,1.4-1.5S68,41.9,67,41.9Z" transform="translate(-1.82 -12.11)"/><path id="Shape-Copy-2" data-name="Shape-Copy" class="cls-1" d="M18.32,25a16.31,16.31,0,0,1,16.5,16.1,16.31,16.31,0,0,1-16.5,16.1,16.31,16.31,0,0,1-16.5-16.1A16.31,16.31,0,0,1,18.32,25Zm0,3a13.3,13.3,0,0,0-13.5,13.1,13.36,13.36,0,0,0,13.5,13.1,13.3,13.3,0,0,0,13.5-13.1C31.92,33.86,25.82,28,18.32,28Z" transform="translate(-1.82 -12.11)"/><circle class="cls-1" cx="16.57" cy="49.25" r="1.98"/><circle class="cls-1" cx="18.43" cy="53.7" r="1.98"/><circle class="cls-1" cx="22.1" cy="57.75" r="1.98"/><circle class="cls-1" cx="28.02" cy="59.74" r="1.98"/><circle class="cls-1" cx="33.95" cy="57.75" r="1.98"/><circle class="cls-1" cx="37.9" cy="53.35" r="1.98"/><circle class="cls-1" cx="39.67" cy="48.56" r="1.98"/><circle class="cls-1" cx="39.97" cy="43.73" r="1.98"/><circle class="cls-1" cx="39.88" cy="38.98" r="1.98"/><circle class="cls-1" cx="39.97" cy="34.24" r="1.98"/><circle class="cls-1" cx="39.97" cy="29.16" r="1.98"/><circle class="cls-1" cx="39.97" cy="24.09" r="1.98"/><circle class="cls-1" cx="39.88" cy="19.16" r="1.98"/><circle class="cls-1" cx="39.97" cy="14.5" r="1.98"/><circle class="cls-1" cx="41.1" cy="9.75" r="1.98"/><circle class="cls-1" cx="43.71" cy="5.62" r="1.98"/><circle class="cls-1" cx="47.57" cy="2.79" r="1.98"/><circle class="cls-1" cx="53.12" cy="1.98" r="1.98"/><circle class="cls-1" cx="57.46" cy="3.64" r="1.98"/><circle class="cls-1" cx="60.73" cy="6.88" r="1.98"/><circle class="cls-1" cx="63.1" cy="12.26" r="1.98"/></svg>