<?xml version="1.0" encoding="utf-8"?>
<!-- Generator: Adobe Illustrator 24.1.1, SVG Export Plug-In . SVG Version: 6.00 Build 0)  -->
<svg version="1.1" id="Layer_1" xmlns="http://www.w3.org/2000/svg" xmlns:xlink="http://www.w3.org/1999/xlink" x="0px" y="0px"
	 viewBox="0 0 85 85" style="enable-background:new 0 0 85 85;" xml:space="preserve">
<style type="text/css">
	.st0{fill:#737373;}
	.st1{fill:#FFA500;}
	.st2{fill:#FFFFFF;}
	.st3{fill:none;stroke:#737373;stroke-miterlimit:10;}
	.st4{fill:url(#SVGID_1_);}
	.st5{fill:url(#SVGID_2_);}
</style>
<g>
	<path class="st0" d="M13.1,72.6c-0.5-0.9-8.4-9.9-10.7-14.8C0,52.8-0.3,48,2.9,43.3c3.6-5.4,10.5-7.3,16.4-4.6
		c5.9,2.7,8.9,9.2,7.2,15.6c-1.4,5.3-4.5,9.5-8.2,13.4C17.1,69,13.9,72.6,13.1,72.6z M14.1,40.1C8,40.1,3,44.9,3,50.9
		c0,6.2,4.9,11.2,11,11.2c6,0,11-4.9,11-10.9C25,45,20.2,40.1,14.1,40.1z"/>
	<path class="st0" d="M70.5,43.7c-0.4-0.9-7.6-9.6-10-14c-2.1-3.8-3.2-7.8-1.7-12.2c2.3-6.9,9.5-10.7,16.4-8.6
		C82.1,11,86,18.1,84,25.3c-1.2,4.6-3.8,8.3-6.9,11.8C75.8,38.7,71,43.7,70.5,43.7z M71.5,32.9c6.2,0,11-4.9,11-11.1
		c0-6-5-10.9-11-10.9c-6.1,0-11,5-11,11.2C60.6,28,65.5,32.9,71.5,32.9z"/>
	<path class="st1" d="M14.1,40.1c6.1,0,11,4.9,10.9,11.1c0,6-5,10.9-11,10.9c-6.1,0-11-5-11-11.2C3,44.9,8,40.1,14.1,40.1z"/>
	<path class="st2" d="M71.5,32.9c-6,0-11-4.8-11-10.8c0-6.2,4.9-11.2,11-11.2c6,0,11,4.9,11,10.9C82.6,28,77.7,32.8,71.5,32.9z"/>
	<path class="st3" d="M15.5,72c0,0,15,5,30-11.7s23.3-16.7,23.3-16.7"/>
	
		<radialGradient id="SVGID_1_" cx="13.3238" cy="85.6476" r="10.8266" gradientTransform="matrix(1 0 0 0.3846 0 39.8974)" gradientUnits="userSpaceOnUse">
		<stop  offset="0" style="stop-color:#5E5E5E"/>
		<stop  offset="1.859254e-02" style="stop-color:#565656;stop-opacity:0.9814"/>
		<stop  offset="8.894324e-02" style="stop-color:#3B3B3B;stop-opacity:0.9111"/>
		<stop  offset="0.1698" style="stop-color:#252525;stop-opacity:0.8302"/>
		<stop  offset="0.2643" style="stop-color:#141414;stop-opacity:0.7357"/>
		<stop  offset="0.3811" style="stop-color:#090909;stop-opacity:0.6189"/>
		<stop  offset="0.545" style="stop-color:#020202;stop-opacity:0.455"/>
		<stop  offset="1" style="stop-color:#000000;stop-opacity:0"/>
	</radialGradient>
	<ellipse class="st4" cx="13.3" cy="72.8" rx="10.8" ry="4.2"/>
	<g>
		<path class="st2" d="M11.6,53.5l-1.4,4.2H8.4L13,44.3H15l4.6,13.5h-1.9l-1.4-4.2H11.6z M16,52.2l-1.3-3.9
			c-0.3-0.9-0.5-1.7-0.7-2.5h0c-0.2,0.8-0.4,1.6-0.7,2.4l-1.3,3.9H16z"/>
	</g>
	<g>
		<path class="st0" d="M68.3,15.2c0.8-0.2,2-0.3,3.2-0.3c1.7,0,2.9,0.3,3.7,1c0.7,0.5,1.1,1.3,1.1,2.4c0,1.3-0.9,2.4-2.3,3v0
			c1.3,0.3,2.8,1.4,2.8,3.4c0,1.2-0.5,2-1.1,2.7c-0.9,0.9-2.5,1.3-4.7,1.3c-1.2,0-2.1-0.1-2.7-0.2V15.2z M70,20.8h1.6
			c1.8,0,2.9-1,2.9-2.3c0-1.6-1.2-2.2-3-2.2c-0.8,0-1.3,0.1-1.5,0.1V20.8z M70,27.2c0.3,0.1,0.8,0.1,1.5,0.1c1.8,0,3.5-0.7,3.5-2.6
			c0-1.8-1.6-2.6-3.5-2.6H70V27.2z"/>
	</g>
	
		<radialGradient id="SVGID_2_" cx="70.5319" cy="11.2199" r="10.8266" gradientTransform="matrix(1 0 0 0.3846 0 39.8974)" gradientUnits="userSpaceOnUse">
		<stop  offset="0" style="stop-color:#5E5E5E"/>
		<stop  offset="1.859254e-02" style="stop-color:#565656;stop-opacity:0.9814"/>
		<stop  offset="8.894324e-02" style="stop-color:#3B3B3B;stop-opacity:0.9111"/>
		<stop  offset="0.1698" style="stop-color:#252525;stop-opacity:0.8302"/>
		<stop  offset="0.2643" style="stop-color:#141414;stop-opacity:0.7357"/>
		<stop  offset="0.3811" style="stop-color:#090909;stop-opacity:0.6189"/>
		<stop  offset="0.545" style="stop-color:#020202;stop-opacity:0.455"/>
		<stop  offset="1" style="stop-color:#000000;stop-opacity:0"/>
	</radialGradient>
	<ellipse class="st5" cx="70.5" cy="44.2" rx="10.8" ry="4.2"/>
</g>
</svg>
