<svg id="Layer_1" data-name="Layer 1" xmlns="http://www.w3.org/2000/svg" viewBox="0 0 80.5 80.9"><defs><style>.cls-1,.cls-4{fill:#737373;}.cls-2{fill:#448aff;}.cls-3{fill:#fff;}.cls-3,.cls-4{fill-rule:evenodd;}</style></defs><path id="Shape-Copy" class="cls-1" d="M66,2.5A16.31,16.31,0,0,1,82.5,18.6a16.5,16.5,0,0,1-33,0A16.31,16.31,0,0,1,66,2.5Zm0,3A13.3,13.3,0,0,0,52.5,18.6a13.51,13.51,0,0,0,27,0C79.6,11.4,73.5,5.5,66,5.5Z" transform="translate(-2 -2.5)"/><path id="Shape" class="cls-2" d="M17.3,53A15.2,15.2,0,1,0,32.6,68.2,15.22,15.22,0,0,0,17.3,53Z" transform="translate(-2 -2.5)"/><path id="A" class="cls-3" d="M12.3,74l2.8-12.2h4.7L22.5,74H20l-.5-2.2H15.2L14.8,74ZM17,63.8l-1.2,5.8h3.3l-1.2-5.8Z" transform="translate(-2 -2.5)"/><path id="B" class="cls-4" d="M62.4,12.8h4.8a4.77,4.77,0,0,1,2.9.8,3.07,3.07,0,0,1,1,2.5,3.51,3.51,0,0,1-.3,1.6,3.46,3.46,0,0,1-1,1.1,2.94,2.94,0,0,1,1.2,1,3,3,0,0,1,.4,1.8,3,3,0,0,1-1,2.6,4.37,4.37,0,0,1-2.9.9H62.6V12.8Zm4.7,7.1H64.8v3h2.3a2.13,2.13,0,0,0,1.2-.3c.3-.2.4-.6.4-1.2C68.7,20.4,68.2,19.9,67.1,19.9Zm-.1-5H64.8v2.9H67c.9,0,1.4-.5,1.4-1.5S68,14.9,67,14.9Z" transform="translate(-2 -2.5)"/><circle class="cls-1" cx="33.94" cy="68.92" r="1.44"/><circle class="cls-1" cx="40.96" cy="67.69" r="1.44"/><circle class="cls-1" cx="46.96" cy="64.69" r="1.44"/><circle class="cls-1" cx="49.96" cy="58.69" r="1.44"/><circle class="cls-1" cx="47.96" cy="51.69" r="1.44"/><circle class="cls-1" cx="42.96" cy="46.69" r="1.44"/><circle class="cls-1" cx="38.96" cy="42.69" r="1.44"/><circle class="cls-1" cx="34.96" cy="38.69" r="1.44"/><circle class="cls-1" cx="30.88" cy="33.43" r="1.44"/><circle class="cls-1" cx="29.96" cy="26.69" r="1.44"/><circle class="cls-1" cx="31.96" cy="20.69" r="1.44"/><circle class="cls-1" cx="35.96" cy="15.69" r="1.44"/><circle class="cls-1" cx="42.96" cy="14.69" r="1.44"/></svg>