<svg id="Layer_1" data-name="Layer 1" xmlns="http://www.w3.org/2000/svg" viewBox="0 0 85 85"><defs><style>.cls-1,.cls-4{fill:#737373;}.cls-2{fill:orange;}.cls-3,.cls-4{isolation:isolate;font-family:Calibri-Bold, Calibri;font-weight:700;}.cls-3{font-size:30.03px;fill:#fff;}.cls-4{font-size:25.6px;}</style></defs><path id="Shape-Copy" class="cls-1" d="M67.29,28.48A16.91,16.91,0,1,1,50.07,45.39,17.07,17.07,0,0,1,67.29,28.48Zm0,3.15A13.76,13.76,0,1,0,81.38,45.39,13.92,13.92,0,0,0,67.29,31.63Z"/><path id="Shape" class="cls-2" d="M16.46,22.71a16,16,0,1,0,16,16A15.93,15.93,0,0,0,16.46,22.71Z"/><path id="Shape-2" data-name="Shape" class="cls-1" d="M29.61,74.58c7.83,0,14.19-7.46,14.19-16.59V26.8c0-7,4.6-12.81,10.55-12.81,5.42,0,9.81,5,10.43,11.34h3.55c-.73-8.4-6.78-14.91-14.09-14.91-7.72,0-14.09,7.35-14.09,16.49V58.09c0,7-4.8,13-10.64,13-5.43,0-9.81-5-10.44-11.34H15.52C16.25,68.07,22.3,74.58,29.61,74.58Z"/><text class="cls-3" transform="translate(9.68 49.2) scale(0.99 1)">?</text><text class="cls-4" transform="translate(60.63 52.93) scale(0.99 1)">B</text></svg>