<?xml version="1.0" encoding="utf-8"?>
<!-- Generator: Adobe Illustrator 24.1.1, SVG Export Plug-In . SVG Version: 6.00 Build 0)  -->
<svg version="1.1" id="Layer_1" xmlns="http://www.w3.org/2000/svg" xmlns:xlink="http://www.w3.org/1999/xlink" x="0px" y="0px"
	 viewBox="0 0 85 85" style="enable-background:new 0 0 85 85;" xml:space="preserve">
<style type="text/css">
	.st0{fill:#737373;}
	.st1{fill:#448AFF;}
	.st2{fill-rule:evenodd;clip-rule:evenodd;fill:#FFFFFF;}
	.st3{fill-rule:evenodd;clip-rule:evenodd;fill:#737373;}
</style>
<desc>Created with Sketch.</desc>
<g id="origin-icon-85x85">
	<g id="Group-Copy-2" transform="translate(2.000000, 12.000000)">
		<path id="Shape-Copy" class="st0" d="M64,17.5c9.1,0,16.5,7.2,16.5,16.1c0,8.9-7.4,16.1-16.5,16.1c-9.1,0-16.5-7.2-16.5-16.1
			S54.9,17.5,64,17.5z M64,20.5c-7.5,0-13.5,5.9-13.5,13.1S56.6,46.7,64,46.7c7.5,0,13.5-5.9,13.5-13.1C77.6,26.4,71.5,20.5,64,20.5
			z"/>
		<path id="Shape" class="st1" d="M15.3,12C6.8,12,0,18.8,0,27.2s6.8,15.2,15.3,15.2s15.3-6.8,15.3-15.2S23.7,12,15.3,12z"/>
		<path id="Shape_1_" class="st0" d="M27.9,61.4c7.5,0,13.6-7.1,13.6-15.8V15.9c0-6.7,4.4-12.2,10.1-12.2c5.2,0,9.4,4.8,10,10.8h3.4
			c-0.7-8-6.5-14.2-13.5-14.2c-7.4,0-13.5,7-13.5,15.7v29.7c0,6.7-4.6,12.4-10.2,12.4c-5.2,0-9.4-4.8-10-10.8h-3.4
			C15.1,55.2,20.9,61.4,27.9,61.4z"/>
		<path id="A" class="st2" d="M10.3,33l2.8-12.2h4.7L20.5,33H18l-0.5-2.2h-4.3L12.8,33H10.3z M15,22.8l-1.2,5.8h3.3l-1.2-5.8H15z"/>
		<path id="B" class="st3" d="M60.4,27.8h4.8c1.3,0,2.2,0.3,2.9,0.8c0.6,0.5,1,1.3,1,2.5c0,0.7-0.1,1.2-0.3,1.6
			c-0.2,0.4-0.6,0.8-1,1.1c0.5,0.2,0.9,0.6,1.2,1c0.3,0.4,0.4,1,0.4,1.8c0,1.2-0.3,2.1-1,2.6c-0.7,0.6-1.7,0.9-2.9,0.9h-4.9V27.8z
			 M65.1,34.9h-2.3v3h2.3c0.5,0,0.9-0.1,1.2-0.3c0.3-0.2,0.4-0.6,0.4-1.2C66.7,35.4,66.2,34.9,65.1,34.9z M65,29.9h-2.2v2.9H65
			c0.9,0,1.4-0.5,1.4-1.5C66.5,30.4,66,29.9,65,29.9z"/>
	</g>
</g>
</svg>
