<?xml version="1.0" encoding="utf-8"?>
<!-- Generator: Adobe Illustrator 24.1.1, SVG Export Plug-In . SVG Version: 6.00 Build 0)  -->
<svg version="1.1" id="Layer_1" xmlns="http://www.w3.org/2000/svg" xmlns:xlink="http://www.w3.org/1999/xlink" x="0px" y="0px"
	 viewBox="0 0 85 85" style="enable-background:new 0 0 85 85;" xml:space="preserve">
<style type="text/css">
	.st0{fill:#737373;}
	.st1{fill:#448AFF;}
	.st2{fill:#FFFFFF;}
	.st3{font-family:'MyriadPro-Regular';}
	.st4{font-size:28.5981px;}
</style>
<desc>Created with Sketch.</desc>
<g>
	<path id="Shape-Copy" class="st0" d="M66,29.5c9.1,0,16.5,7.2,16.5,16.1c0,8.9-7.4,16.1-16.5,16.1c-9.1,0-16.5-7.2-16.5-16.1
		S56.9,29.5,66,29.5z M66,32.5c-7.5,0-13.5,5.9-13.5,13.1S58.6,58.7,66,58.7c7.5,0,13.5-5.9,13.5-13.1C79.6,38.4,73.5,32.5,66,32.5z
		"/>
	<path id="Shape" class="st1" d="M17.3,24C8.8,24,2,30.8,2,39.2s6.8,15.2,15.3,15.2s15.3-6.8,15.3-15.2S25.7,24,17.3,24z"/>
	<path id="Shape_1_" class="st0" d="M29.9,73.4c7.5,0,13.6-7.1,13.6-15.8V27.9c0-6.7,4.4-12.2,10.1-12.2c5.2,0,9.4,4.8,10,10.8h3.4
		c-0.7-8-6.5-14.2-13.5-14.2c-7.4,0-13.5,7-13.5,15.7v29.7c0,6.7-4.6,12.4-10.2,12.4c-5.2,0-9.4-4.8-10-10.8h-3.4
		C17.1,67.2,22.9,73.4,29.9,73.4z"/>
	<path class="st0" d="M65.9,36.5c-4.1,0-7.5,3.4-7.5,7.5c0,1.8,0.7,3.5,1.8,4.8l5.7,6.7l5.7-6.7c1.1-1.3,1.8-3,1.8-4.8
		C73.4,39.9,70.1,36.5,65.9,36.5z M65.9,46.8c-1.7,0-3.1-1.4-3.1-3.1c0-1.7,1.4-3.1,3.1-3.1c1.7,0,3.1,1.4,3.1,3.1
		C69,45.4,67.6,46.8,65.9,46.8z"/>
	<text transform="matrix(1 0 0 1 11.8076 49.2324)" class="st2 st3 st4">?</text>
</g>
</svg>
