<?xml version="1.0" encoding="utf-8"?>
<!-- Generator: Adobe Illustrator 24.1.1, SVG Export Plug-In . SVG Version: 6.00 Build 0)  -->
<svg version="1.1" id="Layer_1" xmlns="http://www.w3.org/2000/svg" xmlns:xlink="http://www.w3.org/1999/xlink" x="0px" y="0px"
	 viewBox="0 0 85 85" style="enable-background:new 0 0 85 85;" xml:space="preserve">
<style type="text/css">
	.st0{fill:#448AFF;}
	.st1{fill:#737373;}
	.st2{fill-rule:evenodd;clip-rule:evenodd;fill:#737373;}
	.st3{fill-rule:evenodd;clip-rule:evenodd;fill:#FFFFFF;}
</style>
<desc>Created with Sketch.</desc>
<g id="destination-icon-85x85">
	<g id="Group-Copy" transform="translate(1.000000, 12.000000)">
		<path id="Shape-Copy" class="st0" d="M66,19c-8.3,0-15,6.5-15,14.6s6.7,14.6,15,14.6s15-6.5,15-14.6S74.4,19,66,19z"/>
		<path id="Shape" class="st1" d="M17.3,10.5C26.5,10.5,34,18,34,27.2C34,36.5,26.5,44,17.3,44C8,44,0.5,36.5,0.5,27.2
			S8,10.5,17.3,10.5z M17.3,13.5c-7.6,0-13.8,6.2-13.8,13.7S9.7,41,17.3,41C24.9,41,31,34.8,31,27.2C31,19.7,24.9,13.5,17.3,13.5z"
			/>
		<path id="Shape_1_" class="st1" d="M29.9,61.4c7.5,0,13.6-7.1,13.6-15.8V15.9c0-6.7,4.4-12.2,10.1-12.2c5.2,0,9.4,4.8,10,10.8h3.4
			c-0.7-8-6.5-14.2-13.5-14.2c-7.4,0-13.5,7-13.5,15.7v29.7c0,6.7-4.6,12.4-10.2,12.4c-5.2,0-9.4-4.8-10-10.8h-3.4
			C17.1,55.2,22.9,61.4,29.9,61.4z"/>
		<path id="A" class="st2" d="M12.3,33l2.8-12.2h4.7L22.5,33H20l-0.5-2.2h-4.3L14.8,33H12.3z M17,22.8l-1.2,5.8h3.3l-1.2-5.8H17z"/>
		<path id="B" class="st3" d="M62.4,27.8h4.8c1.3,0,2.2,0.3,2.9,0.8c0.6,0.5,1,1.3,1,2.5c0,0.7-0.1,1.2-0.3,1.6
			c-0.2,0.4-0.6,0.8-1,1.1c0.5,0.2,0.9,0.6,1.2,1c0.3,0.4,0.4,1,0.4,1.8c0,1.2-0.3,2.1-1,2.6c-0.7,0.6-1.7,0.9-2.9,0.9h-4.9V27.8z
			 M67.1,34.9h-2.3v3h2.3c0.5,0,0.9-0.1,1.2-0.3c0.3-0.2,0.4-0.6,0.4-1.2C68.7,35.4,68.2,34.9,67.1,34.9z M67,29.9h-2.2v2.9H67
			c0.9,0,1.4-0.5,1.4-1.5C68.5,30.4,68,29.9,67,29.9z"/>
	</g>
</g>
</svg>
