<?xml version="1.0" encoding="utf-8"?>
<!-- Generator: Adobe Illustrator 24.1.1, SVG Export Plug-In . SVG Version: 6.00 Build 0)  -->
<svg version="1.1" id="Layer_1" xmlns="http://www.w3.org/2000/svg" xmlns:xlink="http://www.w3.org/1999/xlink" x="0px" y="0px"
	 viewBox="0 0 85 85" style="enable-background:new 0 0 85 85;" xml:space="preserve">
<style type="text/css">
	.st0{fill:#737373;}
	.st1{fill:#FFFFFF;}
	.st2{fill:#FFA500;}
	.st3{fill:none;stroke:#737373;stroke-miterlimit:10;}
	.st4{fill:url(#SVGID_1_);}
	.st5{fill:url(#SVGID_2_);}
</style>
<g>
	<path class="st0" d="M12.3,73.2c-0.5-0.9-8.4-9.9-10.7-14.8c-2.4-4.9-2.7-9.7,0.5-14.4c3.6-5.4,10.5-7.3,16.4-4.6
		c5.9,2.7,8.9,9.2,7.2,15.6c-1.4,5.3-4.5,9.5-8.2,13.4C16.3,69.7,13.1,73.2,12.3,73.2z M13.2,40.7c-6.1,0-11,4.8-11.1,10.8
		c0,6.2,4.9,11.2,11,11.2c6,0,11-4.9,11-10.9C24.2,45.6,19.4,40.7,13.2,40.7z"/>
	<path class="st0" d="M69.6,44.3c-0.4-0.9-7.6-9.6-10-14c-2.1-3.8-3.2-7.8-1.7-12.2c2.3-6.9,9.5-10.7,16.4-8.6
		c6.9,2.1,10.8,9.2,8.9,16.4c-1.2,4.6-3.8,8.3-6.9,11.8C75,39.3,70.1,44.3,69.6,44.3z M70.7,33.5c6.2,0,11-4.9,11-11.1
		c0-6-5-10.9-11-10.9c-6.1,0-11,5-11,11.2C59.7,28.6,64.7,33.5,70.7,33.5z"/>
	<path class="st1" d="M13.2,40.7c6.1,0,11,4.9,10.9,11.1c0,6-5,10.9-11,10.9c-6.1,0-11-5-11-11.2C2.2,45.5,7.2,40.7,13.2,40.7z"/>
	<path class="st2" d="M70.7,33.5c-6,0-11-4.8-11-10.8c0-6.2,4.9-11.2,11-11.2c6,0,11,4.9,11,10.9C81.7,28.6,76.9,33.4,70.7,33.5z"/>
	<path class="st3" d="M14.7,72.6c0,0,15,5,30-11.7S68,44.3,68,44.3"/>
	
		<radialGradient id="SVGID_1_" cx="12.4849" cy="87.2242" r="10.8266" gradientTransform="matrix(1 0 0 0.3846 0 39.8974)" gradientUnits="userSpaceOnUse">
		<stop  offset="0" style="stop-color:#5E5E5E"/>
		<stop  offset="1.859254e-02" style="stop-color:#565656;stop-opacity:0.9814"/>
		<stop  offset="8.894324e-02" style="stop-color:#3B3B3B;stop-opacity:0.9111"/>
		<stop  offset="0.1698" style="stop-color:#252525;stop-opacity:0.8302"/>
		<stop  offset="0.2643" style="stop-color:#141414;stop-opacity:0.7357"/>
		<stop  offset="0.3811" style="stop-color:#090909;stop-opacity:0.6189"/>
		<stop  offset="0.545" style="stop-color:#020202;stop-opacity:0.455"/>
		<stop  offset="1" style="stop-color:#000000;stop-opacity:0"/>
	</radialGradient>
	<ellipse class="st4" cx="12.5" cy="73.4" rx="10.8" ry="4.2"/>
	<g>
		<path class="st0" d="M10.7,54.1l-1.4,4.2H7.5l4.6-13.5h2.1l4.6,13.5h-1.9l-1.4-4.2H10.7z M15.2,52.8l-1.3-3.9
			c-0.3-0.9-0.5-1.7-0.7-2.5h0c-0.2,0.8-0.4,1.6-0.7,2.4l-1.3,3.9H15.2z"/>
	</g>
	<g>
		<path class="st1" d="M67.5,15.9c0.8-0.2,2-0.3,3.2-0.3c1.7,0,2.9,0.3,3.7,1c0.7,0.5,1.1,1.3,1.1,2.4c0,1.3-0.9,2.4-2.3,3v0
			c1.3,0.3,2.8,1.4,2.8,3.4c0,1.2-0.5,2-1.1,2.7c-0.9,0.9-2.5,1.3-4.7,1.3c-1.2,0-2.1-0.1-2.7-0.2V15.9z M69.2,21.4h1.6
			c1.8,0,2.9-1,2.9-2.3c0-1.6-1.2-2.2-3-2.2c-0.8,0-1.3,0.1-1.5,0.1V21.4z M69.2,27.8c0.3,0.1,0.8,0.1,1.5,0.1
			c1.8,0,3.5-0.7,3.5-2.6c0-1.8-1.6-2.6-3.5-2.6h-1.4V27.8z"/>
	</g>
	
		<radialGradient id="SVGID_2_" cx="69.6931" cy="12.7965" r="10.8266" gradientTransform="matrix(1 0 0 0.3846 0 39.8974)" gradientUnits="userSpaceOnUse">
		<stop  offset="0" style="stop-color:#5E5E5E"/>
		<stop  offset="1.859254e-02" style="stop-color:#565656;stop-opacity:0.9814"/>
		<stop  offset="8.894324e-02" style="stop-color:#3B3B3B;stop-opacity:0.9111"/>
		<stop  offset="0.1698" style="stop-color:#252525;stop-opacity:0.8302"/>
		<stop  offset="0.2643" style="stop-color:#141414;stop-opacity:0.7357"/>
		<stop  offset="0.3811" style="stop-color:#090909;stop-opacity:0.6189"/>
		<stop  offset="0.545" style="stop-color:#020202;stop-opacity:0.455"/>
		<stop  offset="1" style="stop-color:#000000;stop-opacity:0"/>
	</radialGradient>
	<ellipse class="st5" cx="69.7" cy="44.8" rx="10.8" ry="4.2"/>
</g>
</svg>
