<svg id="Layer_1" data-name="Layer 1" xmlns="http://www.w3.org/2000/svg" viewBox="0 0 85 85"><defs><style>.cls-1{fill:orange;}.cls-2,.cls-4{fill:#737373;}.cls-3,.cls-4{isolation:isolate;font-family:Calibri-Bold, Calibri;font-weight:700;}.cls-3{font-size:30.05px;fill:#fff;}.cls-4{font-size:24.93px;}</style></defs><path id="Shape" class="cls-1" d="M68.92,29.72A16,16,0,1,0,85,45.69,16,16,0,0,0,68.92,29.72Z"/><path id="Shape-2" data-name="Shape" class="cls-2" d="M30.67,75.33C38.55,75.33,45,67.86,45,58.72V27.51c0-7,4.62-12.82,10.61-12.82,5.47,0,9.88,5,10.51,11.35h3.58c-.74-8.41-6.83-14.92-14.19-14.92-7.78,0-14.19,7.35-14.19,16.5V58.83c0,7-4.83,13-10.72,13-5.46,0-9.87-5-10.51-11.35H16.48C17.22,68.81,23.31,75.33,30.67,75.33Z"/><text class="cls-3" transform="translate(62.1 56.23)">?</text><path id="Shape-Copy" class="cls-2" d="M17.85,22.36A17.14,17.14,0,0,1,35.19,39.28,17.14,17.14,0,0,1,17.85,56.2C8.28,56.09.51,48.63.51,39.28A17.13,17.13,0,0,1,17.85,22.36Zm0,3.15A14,14,0,0,0,3.66,39.28,14,14,0,0,0,17.85,53.05,14,14,0,0,0,32,39.28C32.14,31.71,25.73,25.51,17.85,25.51Z"/><text class="cls-4" transform="translate(9.8 46.43)">A</text></svg>