<?xml version="1.0" encoding="utf-8"?>
<!-- Generator: Adobe Illustrator 24.1.1, SVG Export Plug-In . SVG Version: 6.00 Build 0)  -->
<svg version="1.1" id="Layer_1" xmlns="http://www.w3.org/2000/svg" xmlns:xlink="http://www.w3.org/1999/xlink" x="0px" y="0px"
	 viewBox="0 0 85 85" style="enable-background:new 0 0 85 85;" xml:space="preserve">
<style type="text/css">
	.st0{fill:#448AFF;}
	.st1{fill:#737373;}
	.st2{fill:#FFFFFF;}
	.st3{font-family:'MyriadPro-Regular';}
	.st4{font-size:28.5981px;}
</style>
<desc>Created with Sketch.</desc>
<g>
	<path id="Shape" class="st0" d="M67.3,30C58.8,30,52,36.8,52,45.2s6.8,15.2,15.3,15.2s15.3-6.8,15.3-15.2S75.7,30,67.3,30z"/>
	<path id="Shape_1_" class="st1" d="M30.9,73.4c7.5,0,13.6-7.1,13.6-15.8V27.9c0-6.7,4.4-12.2,10.1-12.2c5.2,0,9.4,4.8,10,10.8h3.4
		c-0.7-8-6.5-14.2-13.5-14.2c-7.4,0-13.5,7-13.5,15.7v29.7c0,6.7-4.6,12.4-10.2,12.4c-5.2,0-9.4-4.8-10-10.8h-3.4
		C18.1,67.2,23.9,73.4,30.9,73.4z"/>
	<text transform="matrix(1 0 0 1 61.8076 55.2324)" class="st2 st3 st4">?</text>
	<path id="Shape-Copy_1_" class="st1" d="M18.7,23c9.1,0,16.5,7.2,16.5,16.1c0,8.9-7.4,16.1-16.5,16.1C9.6,55.1,2.2,48,2.2,39.1
		S9.6,23,18.7,23z M18.7,26c-7.5,0-13.5,5.9-13.5,13.1s6.1,13.1,13.5,13.1c7.5,0,13.5-5.9,13.5-13.1C32.3,31.9,26.2,26,18.7,26z"/>
	<path class="st1" d="M18.6,30c-4.1,0-7.5,3.4-7.5,7.5c0,1.8,0.7,3.5,1.8,4.8l5.7,6.7l5.7-6.7c1.1-1.3,1.8-3,1.8-4.8
		C26.1,33.3,22.8,30,18.6,30z M18.6,40.3c-1.7,0-3.1-1.4-3.1-3.1c0-1.7,1.4-3.1,3.1-3.1c1.7,0,3.1,1.4,3.1,3.1
		C21.7,38.9,20.3,40.3,18.6,40.3z"/>
</g>
</svg>
