<?xml version="1.0" encoding="utf-8"?>
<!-- Generator: Adobe Illustrator 24.1.1, SVG Export Plug-In . SVG Version: 6.00 Build 0)  -->
<svg version="1.1" id="Layer_1" xmlns="http://www.w3.org/2000/svg" xmlns:xlink="http://www.w3.org/1999/xlink" x="0px" y="0px"
	 viewBox="0 0 85 85" style="enable-background:new 0 0 85 85;" xml:space="preserve">
<style type="text/css">
	.st0{fill:none;stroke:#737373;stroke-width:2;}
	.st1{fill-rule:evenodd;clip-rule:evenodd;fill:#737373;stroke:#F7F7F7;}
	.st2{fill:none;stroke:#448AFF;stroke-width:2;}
</style>
<desc>Created with Sketch.</desc>
<g id="carrier-selection-85x85">
	<g id="Group-21" transform="translate(6.000000, 6.000000)">
		<path id="Stroke-1" class="st0" d="M71.4,23.7c4.3,10.2,3.3,23.6-3.8,34c-11.4,16.9-34.5,21.4-51.5,10"/>
		<path id="Stroke-3" class="st0" d="M2.9,51.2c-4.7-11-3.8-24.2,3.4-34.9C17.8-0.6,40.8-5.1,57.9,6.3"/>
		<path id="Stroke-5" class="st0" d="M17.4,74l-1-4.8c-0.2-0.8,0.4-1.6,1.2-1.7l5.2-1"/>
		<path id="Stroke-7" class="st0" d="M56.6,0l1,4.9c0.2,0.8-0.4,1.6-1.1,1.7l-5.3,1"/>
		<path id="Fill-9" class="st1" d="M45.3,46.5c0.7-2.5,1.1-5,1.3-7.5c0-0.6,0.5-1.1,1.2-1.1h10.6c0.7,0,1.2,0.6,1.2,1.3
			c-0.5,4.1-2.1,8-4.6,11.3c-0.3,0.4-1,0.6-1.5,0.3c-2.4-1.2-4.8-2.1-7.4-2.9C45.5,47.8,45.2,47.2,45.3,46.5z M41.2,56.1
			c0.9-1.5,1.7-3.1,2.4-4.7c0.2-0.5,0.8-0.8,1.4-0.7c2,0.5,3.9,1.1,5.8,2c0.8,0.4,1,1.4,0.3,2c-2.8,2.2-5.9,3.7-9.4,4.5
			c-1,0.2-1.8-0.9-1.3-1.7L41.2,56.1z M28,50.7c0.5-0.1,1.1,0.2,1.3,0.7c0.7,1.6,1.5,3.2,2.4,4.7l0.8,1.3c0.5,0.9-0.3,2-1.3,1.7
			c-3.4-0.8-6.6-2.3-9.2-4.4c-0.7-0.5-0.5-1.6,0.3-2C24.2,51.9,26.1,51.2,28,50.7z M31.8,16.9c-0.9,1.5-1.7,3.1-2.4,4.7
			c-0.2,0.5-0.8,0.8-1.3,0.7c-2-0.5-3.9-1.1-5.8-2c-0.8-0.4-1-1.4-0.3-2c2.7-2.1,5.8-3.7,9.4-4.5c1-0.2,1.8,0.9,1.3,1.7L31.8,16.9z
			 M45,22.3c-0.6,0.1-1.1-0.1-1.4-0.7c-0.7-1.6-1.5-3.2-2.4-4.7l-0.8-1.3c-0.5-0.9,0.3-2,1.3-1.7c3.4,0.8,6.6,2.3,9.2,4.4
			c0.7,0.6,0.5,1.7-0.3,2C48.8,21.1,46.9,21.7,45,22.3z M32.6,21.5c0.5-1.1,1.1-2.1,1.8-3.1c0,0,0,0,0-0.1l1.2-2
			c0.5-0.8,1.6-0.8,2,0l1.2,2.1c0.6,1,1.2,2,1.7,3.1c0.4,0.8-0.1,1.6-1,1.7c-2,0.2-4,0.2-5.9,0C32.8,23.1,32.3,22.3,32.6,21.5z
			 M29.3,33.8c0.2-2.4,0.6-4.8,1.3-7.1c0.2-0.5,0.7-0.9,1.3-0.8c1.5,0.2,3,0.3,4.6,0.3c1.6,0,3-0.1,4.5-0.3c0.6-0.1,1.1,0.3,1.3,0.8
			c0.7,2.3,1.1,4.7,1.3,7.1c0.1,0.7-0.5,1.3-1.2,1.3h-12C29.8,35,29.2,34.4,29.3,33.8z M40.5,51.5c-0.5,1.1-1.1,2.1-1.8,3.1
			c0,0,0,0,0,0.1l-1.2,2c-0.5,0.8-1.6,0.8-2,0l-1.2-2.1c-0.6-1-1.2-2-1.7-3.1c-0.4-0.8,0.1-1.6,1-1.7c2-0.2,3.9-0.2,5.9,0
			C40.3,49.9,40.8,50.7,40.5,51.5z M30.6,46.3c-0.7-2.3-1.1-4.7-1.3-7.1c-0.1-0.7,0.5-1.3,1.2-1.3h12c0.7,0,1.2,0.6,1.2,1.2
			c-0.2,2.4-0.6,4.8-1.3,7.1c-0.2,0.5-0.7,0.9-1.3,0.8c-3-0.3-6-0.3-9.2,0C31.3,47.1,30.8,46.8,30.6,46.3z M58.4,35H47.8
			c-0.6,0-1.1-0.5-1.2-1.1c-0.2-2.5-0.6-5.1-1.3-7.6c-0.2-0.6,0.2-1.3,0.8-1.5c2.5-0.6,5-1.6,7.4-2.8c0.5-0.3,1.1-0.1,1.5,0.3
			c2.5,3.3,4.1,7.1,4.6,11.3C59.7,34.4,59.1,35,58.4,35z M19.5,22.1c2.4,1.2,4.9,2.1,7.4,2.8c0.6,0.2,1,0.8,0.8,1.5
			c-0.7,2.5-1.1,5.1-1.3,7.6c0,0.6-0.5,1.1-1.2,1.1H14.7c-0.7,0-1.2-0.6-1.2-1.3c0.5-4.2,2.1-8.1,4.6-11.3
			C18.4,22,19.1,21.9,19.5,22.1z M14.6,37.9h10.6c0.6,0,1.1,0.5,1.2,1.1c0.2,2.5,0.6,5,1.3,7.5c0.2,0.6-0.2,1.3-0.8,1.5
			c-2.5,0.6-5,1.6-7.4,2.8C19,51,18.3,50.9,18,50.4c-2.4-3.1-4-7-4.6-11.2C13.3,38.5,13.9,37.9,14.6,37.9z M55.8,54.1
			c4.4-4.8,6.8-11,6.8-17.5c0-6.7-2.5-12.8-6.6-17.4c-0.1-0.1-0.2-0.3-0.4-0.4c-4.8-5.1-11.5-8.4-19-8.4h-0.1h-0.1
			c-7.5,0-14.3,3.2-19,8.4c-0.1,0.1-0.2,0.2-0.3,0.4C13,23.8,10.4,30,10.4,36.7s2.5,12.8,6.7,17.5c0.1,0.1,0.1,0.2,0.3,0.3
			c4.7,5,11.5,8.2,19.1,8.2c7,0,13.5-2.7,18.5-7.7c0,0,0,0,0.1-0.1L55.8,54.1z"/>
		<g id="Group-15" transform="translate(61.666667, 10.435897)">
			<path id="Fill-11" class="st2" d="M4,0.3c2.4,0,4.3,2.2,3.7,4.7C7.4,6.4,6.3,7.5,4.9,7.8C2.4,8.4,0.2,6.5,0.2,4.1
				C0.2,2,1.9,0.3,4,0.3"/>
		</g>
		<g id="Group-20" transform="translate(3.794872, 55.025641)">
			<path id="Fill-16" class="st2" d="M7.6,3.2c0.4,2.6-1.8,4.7-4.4,4.4C1.6,7.3,0.3,6,0,4.4C-0.3,1.8,1.8-0.3,4.4,0
				C6,0.3,7.3,1.6,7.6,3.2z"/>
		</g>
	</g>
</g>
</svg>
