<svg id="Layer_1" data-name="Layer 1" xmlns="http://www.w3.org/2000/svg" viewBox="0 0 85 85"><defs><style>.cls-1{fill:#737373;}.cls-2{fill:#fff;}.cls-3{fill:orange;}</style></defs><path class="cls-1" d="M48,47.21V63.74a3.43,3.43,0,0,1-.75,2.49,2,2,0,0,1-1.5.8c-1.83.11-3.55.11-5.38.11-.32,0-.43-.23-.53-.57A10.27,10.27,0,0,0,38,62.27a9.32,9.32,0,0,0-6.44-3.85A9.72,9.72,0,0,0,21,66.12c0,.11-.11.34-.11.45-.11.34-.21.46-.54.46-1.61,0-3.22.11-4.83,0-1.83-.12-2.69-1.25-2.69-3.17V42.79a2.52,2.52,0,0,0-.75-1.92A17.92,17.92,0,0,1,7.6,29.54a18.29,18.29,0,0,1,4.51-13.13,16.65,16.65,0,0,1,11.71-6,15.57,15.57,0,0,1,11.93,4.07A18.21,18.21,0,0,1,42.08,26.6c.11.57.11.68.65.68H45a2.76,2.76,0,0,1,2.8,2.83v.79C48,36.34,48,41.77,48,47.21ZM11.36,28.64C11.25,36.34,17.48,43,24.9,43c7.19.11,13.75-6.12,13.75-14.38,0-7.93-6-14.38-13.65-14.38C17.16,14.26,11.25,21.16,11.36,28.64Z"/><path class="cls-1" d="M50.78,50V36.23a3.21,3.21,0,0,1,1-2.5,2.14,2.14,0,0,1,1.61-.68H65.93A2.68,2.68,0,0,1,68,34c.65.68,1.29,1.47,1.93,2.27,1.83,2.49,3.66,5.09,5.48,7.58a15.43,15.43,0,0,1,1.94,3.74,7,7,0,0,1,.43,2.6V64.08A2.74,2.74,0,0,1,76,66.8c-.43.11-1,.11-1.4.23h-1.4c-.64,0-.64-.12-.75-.68a10.48,10.48,0,0,0-2.68-5.21,9.19,9.19,0,0,0-10.64-2,9.37,9.37,0,0,0-5.37,7c-.21.79-.32.91-1.07.57A2.89,2.89,0,0,1,51,63.86V56.38A58.88,58.88,0,0,1,50.78,50ZM66,50H72.7c.53,0,.64-.11.43-.68a6,6,0,0,0-1-1.81c-1.83-2.72-3.65-5.44-5.48-8A2.05,2.05,0,0,0,65,38.6H59.59c-.75,0-.75,0-.75.8v9.85c0,.68.11.79.75.79Z"/><path class="cls-1" d="M62.81,75.07A6.52,6.52,0,1,1,69,68.61,6.33,6.33,0,0,1,62.81,75.07Z"/><path class="cls-1" d="M36.6,68.5a6.4,6.4,0,0,1-6.12,6.57,6.41,6.41,0,0,1-6.23-6.57A6.32,6.32,0,0,1,30.48,62,6.37,6.37,0,0,1,36.6,68.5Z"/><path class="cls-2" d="M11.36,28.64c-.11-7.48,5.8-14.38,13.64-14.38,7.63,0,13.75,6.56,13.65,14.38A14.13,14.13,0,0,1,24.9,43C17.48,43,11.25,36.45,11.36,28.64Zm11.17-.12a2.47,2.47,0,0,0,2,2.61,2.83,2.83,0,0,1,1.29.68c1.29,1.13,2.58,2.26,3.76,3.4a1,1,0,0,0,1.61-.12,1.17,1.17,0,0,0,0-1.7c-1.18-1.47-2.36-2.83-3.43-4.3a2.22,2.22,0,0,1-.43-.9,2.86,2.86,0,0,0-.86-1.59.81.81,0,0,1-.33-.68c-.1-1.13-.1-2.38-.21-3.51-.11-1.36-.11-2.6-.21-4a.83.83,0,0,0-1.29-.8c-.43.23-.43.68-.54,1.14-.11,2.37-.22,4.75-.32,7a1.5,1.5,0,0,1-.43,1.13A2.87,2.87,0,0,0,22.53,28.52Z"/><path class="cls-2" d="M66,50H59.59c-.64,0-.75-.11-.75-.79V39.4c0-.8,0-.8.75-.8H65a2.05,2.05,0,0,1,1.72.91c1.83,2.72,3.65,5.32,5.48,8a16.86,16.86,0,0,1,1,1.81c.21.45.1.68-.43.68Z"/><path class="cls-3" d="M22.53,28.52a2.25,2.25,0,0,1,.75-1.69,1.48,1.48,0,0,0,.43-1.14c.11-2.37.22-4.75.33-7,0-.45,0-.9.53-1.13s1.19.11,1.29.79c.11,1.36.11,2.61.22,4,.1,1.13.1,2.37.21,3.51a.85.85,0,0,0,.32.68,3.21,3.21,0,0,1,.86,1.58,2.48,2.48,0,0,0,.43.91c1.19,1.47,2.26,2.83,3.44,4.3a1.28,1.28,0,0,1,0,1.7,1,1,0,0,1-1.61.11C28.44,34,27.15,32.83,26,31.7A2.37,2.37,0,0,0,24.68,31,2.22,2.22,0,0,1,22.53,28.52Z"/></svg>