<?xml version="1.0" encoding="utf-8"?>
<!-- Generator: Adobe Illustrator 24.1.1, SVG Export Plug-In . SVG Version: 6.00 Build 0)  -->
<svg version="1.1" id="Layer_1" xmlns="http://www.w3.org/2000/svg" xmlns:xlink="http://www.w3.org/1999/xlink" x="0px" y="0px"
	 viewBox="0 0 85 85" style="enable-background:new 0 0 85 85;" xml:space="preserve">
<style type="text/css">
	.st0{fill:#737373;}
	.st1{fill:#FFFFFF;}
	.st2{fill:#448AFF;}
</style>
<g>
	<path class="st0" d="M47.2,46.9c0,4.9,0,9.7,0,14.6c0,0.8-0.1,1.6-0.7,2.2c-0.4,0.4-0.8,0.7-1.4,0.7c-1.7,0.1-3.3,0.1-5,0.1
		c-0.3,0-0.4-0.2-0.5-0.5c-0.3-1.4-0.8-2.7-1.7-3.8c-1.5-1.9-3.5-3.1-6-3.4c-4.5-0.6-8.8,2.5-9.8,6.8c0,0.1-0.1,0.3-0.1,0.4
		c-0.1,0.3-0.2,0.4-0.5,0.4c-1.5,0-3,0.1-4.5,0c-1.7-0.1-2.5-1.1-2.5-2.8c0-6.2,0-12.4,0-18.6c0-0.7-0.2-1.2-0.7-1.7
		c-2.6-2.8-4-6.1-4.2-10c-0.2-4.4,1.2-8.3,4.2-11.6c2.9-3.2,6.6-5,10.9-5.3c4.2-0.3,7.9,0.9,11.1,3.6c3.4,2.8,5.4,6.4,5.9,10.7
		c0.1,0.5,0.1,0.6,0.6,0.6c0.7,0,1.4,0,2.1,0c1.5,0,2.5,1,2.6,2.5c0,0.2,0,0.4,0,0.7C47.2,37.3,47.2,42.1,47.2,46.9z M13.1,30.5
		c-0.1,6.8,5.7,12.7,12.6,12.7c6.7,0.1,12.8-5.4,12.8-12.7c0-7-5.6-12.7-12.7-12.7C18.5,17.8,13,23.9,13.1,30.5z"/>
	<path class="st0" d="M49.8,49.4c0-4.1,0-8.1,0-12.2c0-0.8,0.2-1.6,0.9-2.2c0.4-0.4,0.9-0.6,1.5-0.6c3.9,0,7.8,0,11.7,0
		c0.8,0,1.4,0.3,1.9,0.8c0.6,0.6,1.2,1.3,1.8,2c1.7,2.2,3.4,4.5,5.1,6.7c0.8,1,1.3,2.1,1.8,3.3c0.3,0.7,0.4,1.5,0.4,2.3
		c0,4.1,0,8.2,0,12.3c0,1.1-0.6,2.1-1.6,2.4c-0.4,0.1-0.9,0.1-1.3,0.2c-0.4,0-0.9,0-1.3,0c-0.6,0-0.6-0.1-0.7-0.6
		c-0.4-1.8-1.2-3.3-2.5-4.6c-2.6-2.6-6.6-3.3-9.9-1.8c-2.7,1.2-4.4,3.3-5,6.2c-0.2,0.7-0.3,0.8-1,0.5c-1-0.4-1.6-1.3-1.6-2.5
		c0-2.2,0-4.4,0-6.6C49.8,53.3,49.8,51.3,49.8,49.4z M64,49.4c2.1,0,4.1,0,6.2,0c0.5,0,0.6-0.1,0.4-0.6c-0.2-0.6-0.5-1.1-0.9-1.6
		c-1.7-2.4-3.4-4.8-5.1-7.1c-0.4-0.5-0.9-0.8-1.6-0.8c-1.7,0-3.3,0-5,0c-0.7,0-0.7,0-0.7,0.7c0,2.9,0,5.8,0,8.7
		c0,0.6,0.1,0.7,0.7,0.7C60,49.4,62,49.4,64,49.4z"/>
	<path class="st0" d="M61,71.5c-3.2,0-5.7-2.6-5.7-5.8c0-3.2,2.6-5.7,5.8-5.7c3.2,0,5.7,2.6,5.7,5.8C66.8,68.9,64.3,71.5,61,71.5z"
		/>
	<path class="st0" d="M36.6,65.7c0,3.2-2.6,5.8-5.7,5.8c-3.2,0-5.8-2.6-5.8-5.8c0-3.2,2.6-5.7,5.8-5.7C34,60,36.6,62.6,36.6,65.7z"
		/>
	<path class="st1" d="M13.1,30.5c-0.1-6.6,5.4-12.7,12.7-12.7c7.1,0,12.8,5.8,12.7,12.7c0,7.3-6.1,12.7-12.8,12.7
		C18.8,43.2,13,37.4,13.1,30.5z M23.5,30.4c0,1.2,0.8,2.2,1.9,2.3c0.5,0.1,0.8,0.3,1.2,0.6c1.2,1,2.4,2,3.5,3
		c0.5,0.4,1.1,0.4,1.5-0.1c0.4-0.5,0.5-1,0-1.5c-1.1-1.3-2.2-2.5-3.2-3.8c-0.2-0.2-0.3-0.5-0.4-0.8c-0.1-0.6-0.4-1-0.8-1.4
		c-0.2-0.1-0.3-0.4-0.3-0.6c-0.1-1-0.1-2.1-0.2-3.1c-0.1-1.2-0.1-2.3-0.2-3.5c0-0.7-0.6-1-1.2-0.7c-0.4,0.2-0.4,0.6-0.5,1
		c-0.1,2.1-0.2,4.2-0.3,6.2c0,0.4-0.1,0.7-0.4,1C23.8,29.4,23.5,29.9,23.5,30.4z"/>
	<path class="st1" d="M64,49.4c-2,0-4,0-6,0c-0.6,0-0.7-0.1-0.7-0.7c0-2.9,0-5.8,0-8.7c0-0.7,0-0.7,0.7-0.7c1.7,0,3.4,0,5,0
		c0.7,0,1.2,0.3,1.6,0.8c1.7,2.4,3.4,4.7,5.1,7.1c0.4,0.5,0.6,1.1,0.9,1.6c0.2,0.4,0.1,0.6-0.4,0.6C68.2,49.4,66.1,49.4,64,49.4z"/>
	<g>
		<path class="st2" d="M23.5,30.4c0-0.5,0.2-1.1,0.7-1.5c0.3-0.3,0.4-0.6,0.4-1c0.1-2.1,0.2-4.2,0.3-6.2c0-0.4,0-0.8,0.5-1
			c0.6-0.3,1.1,0.1,1.2,0.7c0.1,1.2,0.1,2.3,0.2,3.5c0.1,1,0.1,2.1,0.2,3.1c0,0.2,0.1,0.5,0.3,0.6c0.4,0.4,0.7,0.9,0.8,1.4
			c0.1,0.3,0.2,0.6,0.4,0.8c1.1,1.3,2.1,2.5,3.2,3.8c0.4,0.5,0.4,1,0,1.5c-0.4,0.5-1,0.6-1.5,0.1c-1.2-1-2.4-2-3.5-3
			c-0.3-0.3-0.7-0.5-1.2-0.6C24.3,32.6,23.5,31.7,23.5,30.4z"/>
	</g>
</g>
</svg>
