<?xml version="1.0" encoding="utf-8"?>
<!-- Generator: Adobe Illustrator 24.1.1, SVG Export Plug-In . SVG Version: 6.00 Build 0)  -->
<svg version="1.1" id="Layer_1" xmlns="http://www.w3.org/2000/svg" xmlns:xlink="http://www.w3.org/1999/xlink" x="0px" y="0px"
	 viewBox="0 0 85 85" style="enable-background:new 0 0 85 85;" xml:space="preserve">
<style type="text/css">
	.st0{fill:#828282;}
	.st1{fill:#FFA500;}
</style>
<path class="st0" d="M24.7,9.1L24.7,9.1c7.3,1.1,9.2,5.5,9.2,11c-0.1,12.1,0,24.1-0.1,36.2c0,1.7,0.6,2.5,2.3,3.5
	c1.4,0.9,2.7,2.1,3.7,3.5c0.6,1,1.8,1.6,3,1.6h21.6c0.7-0.1,1.5,0,2.2,0.2c0.8,0.3,1.5,1,1.8,1.8c0.3,1-0.5,1.8-1.6,2.1
	c-1,0.2-2.1,0.3-3.1,0.3H42.8c-1.2-0.1-2.4,0.5-3,1.6c-2,3.2-5.6,4.9-9.4,4.4c-4.1-0.5-7.2-2.9-8-6.4c-0.9-3.5,0.8-7.2,4.1-8.7
	c2.3-1.1,2.6-2.5,2.6-4.6c-0.1-12,0-24,0-36c0-0.7,0-1.5-0.1-2.2c-0.5-2.4-2.9-3.9-5.4-3.4c-1.5,0.3-2.8,1.5-3.3,3
	c-0.1,0.3-0.1,0.6-0.2,0.9c-0.5,1.5-1.3,2.2-2.8,2c-1.2-0.1-2.1-1.2-2-2.5c0,0,0,0,0-0.1c0.1-3.4,3.7-7.4,7.7-8.2 M36.1,66.8
	c0-2.2-1.9-3.8-4.3-3.9s-4.4,1.6-4.4,3.7c0.2,2.3,2.1,4.1,4.4,4C33.9,70.7,35.8,69,36.1,66.8L36.1,66.8z"/>
<path class="st1" d="M53.9,34.1h11.4c2.5,0,3.1,0.6,3.1,2.9v19.9c0,2.4-0.8,3.2-3.6,3.2H42.7c-2.9,0-3.8-0.8-3.8-3.4V37.5
	c0-2.7,0.8-3.4,4-3.4H53.9z M63.6,46.9v-7c0-1.2-0.7-1.8-2-1.8H45.9c-1.4,0-2.2,0.6-2,1.9v13.7c0,1.3,0.6,1.9,2.2,1.9h15.4
	c1.6,0,2.2-0.6,2.2-2C63.6,51.4,63.6,49.3,63.6,46.9z"/>
</svg>
