<?xml version="1.0" encoding="utf-8"?>
<!-- Generator: Adobe Illustrator 24.1.1, SVG Export Plug-In . SVG Version: 6.00 Build 0)  -->
<svg version="1.1" id="Layer_1" xmlns="http://www.w3.org/2000/svg" xmlns:xlink="http://www.w3.org/1999/xlink" x="0px" y="0px"
	 viewBox="0 0 85 85" style="enable-background:new 0 0 85 85;" xml:space="preserve">
<style type="text/css">
	.st0{fill:#448AFF;}
	.st1{fill:#737373;}
</style>
<path class="st0" d="M59.6,47.5H45.1v4.6h14.5V47.5z"/>
<path class="st0" d="M78.9,47.5H64.2v4.6h14.7C78.9,52.1,78.9,47.5,78.9,47.5z"/>
<path class="st0" d="M40.5,47.5H25.9v4.6h14.5L40.5,47.5L40.5,47.5z"/>
<path class="st0" d="M21.4,47.5H6.7v4.6h14.7V47.5z"/>
<path class="st0" d="M78.9,61.6H64.2v4.6h14.7C78.9,66.2,78.9,61.6,78.9,61.6z"/>
<path class="st0" d="M59.6,61.6H45.1v4.6h14.5V61.6z"/>
<path class="st0" d="M40.5,61.6H25.9v4.6h14.5L40.5,61.6L40.5,61.6z"/>
<path class="st0" d="M21.4,61.6H6.7v4.6h14.7V61.6z"/>
<path class="st1" d="M36.4,9.4H24.9c-1.3,0-2.3,1-2.3,2.3v0c0,1.3,1,2.3,2.3,2.3h11.5c1.3,0,2.3-1,2.3-2.3v0
	C38.7,10.4,37.7,9.4,36.4,9.4z"/>
<path class="st1" d="M71.2,11.7L71.2,11.7c0,1.3,1,2.3,2.3,2.3h3.1c1.3,0,2.3,1,2.3,2.3v14.1c0,1.3-1,2.3-2.3,2.3H9
	c-1.3,0-2.3-1-2.3-2.3V16.3C6.7,15,7.7,14,9,14h3.2c1.3,0,2.3-1,2.3-2.3v0c0-1.3-1-2.3-2.3-2.3H4.4c-1.3,0-2.3,1-2.3,2.3V67
	c0,7.5,6,13.5,13.5,13.5h56.8c6.1,0,11.2-5,11.2-11.2V11.7c0-1.3-1-2.3-2.3-2.3h-7.8C72.2,9.4,71.2,10.4,71.2,11.7z M6.7,67v-0.8
	v-4.6v-9.5v-4.6v-7.9c0-1.3,1-2.3,2.3-2.3h10.1c1.3,0,2.3,1,2.3,2.3v7.9v4.6v9.5v4.6v7.4c0,1.3-1,2.3-2.3,2.3h-3.5
	C10.7,75.9,6.7,71.9,6.7,67z M25.9,66.2v-4.6v-9.5v-4.6v-7.9c0-1.3,1-2.3,2.3-2.3h10c1.3,0,2.3,1,2.3,2.3v7.9v4.6v9.5v4.6v7.4
	c0,1.3-1,2.3-2.3,2.3h-10c-1.3,0-2.3-1-2.3-2.3V66.2z M45.1,66.2v-4.6v-9.5v-4.6v-7.9c0-1.3,1-2.3,2.3-2.3h9.9c1.3,0,2.3,1,2.3,2.3
	v7.9v4.6v9.5v4.6v7.4c0,1.3-1,2.3-2.3,2.3h-9.9c-1.3,0-2.3-1-2.3-2.3V66.2z M78.9,67c0,4.9-4,8.9-8.9,8.9h-3.5c-1.3,0-2.3-1-2.3-2.3
	v-7.4v-4.6v-9.5v-4.6v-7.9c0-1.3,1-2.3,2.3-2.3h10.1c1.3,0,2.3,1,2.3,2.3v7.9v4.6v9.5v4.6V67z"/>
<path class="st1" d="M60.8,9.4H49.1c-1.3,0-2.3,1-2.3,2.3v0c0,1.3,1,2.3,2.3,2.3h11.7c1.3,0,2.3-1,2.3-2.3v0
	C63.1,10.4,62.1,9.4,60.8,9.4z"/>
<path class="st0" d="M18.5,19.1c1.3,0,2.3-1,2.3-2.3V14V9.4V6.6c0-1.3-1-2.3-2.3-2.3h0c-1.3,0-2.3,1-2.3,2.3v2.8V14v2.8
	C16.2,18.1,17.2,19.1,18.5,19.1L18.5,19.1z"/>
<path class="st0" d="M42.8,19.1c1.3,0,2.3-1,2.3-2.3V14V9.4V6.6c0-1.3-1-2.3-2.3-2.3h0c-1.3,0-2.3,1-2.3,2.3v2.8V14v2.8
	C40.5,18.1,41.5,19.1,42.8,19.1L42.8,19.1z"/>
<path class="st0" d="M67.2,19.1c1.3,0,2.3-1,2.3-2.3V14V9.4V6.6c0-1.3-1-2.3-2.3-2.3h0c-1.3,0-2.3,1-2.3,2.3v2.8V14v2.8
	C64.9,18.1,65.9,19.1,67.2,19.1L67.2,19.1z"/>
</svg>
