<svg id="Layer_1" data-name="Layer 1" xmlns="http://www.w3.org/2000/svg" viewBox="0 0 85 85"><defs><style>.cls-1{fill:orange;}.cls-2{fill:#737373;}</style></defs><path class="cls-1" d="M57.58,47.22H44.85v4H57.58Z"/><path class="cls-1" d="M74.52,47.22H61.61v4H74.52Z"/><path class="cls-1" d="M40.81,47.22H28v4H40.72l.09-4Z"/><path class="cls-1" d="M24,47.22H11.14v4H24Z"/><path class="cls-1" d="M74.52,59.6H61.61v4H74.52Z"/><path class="cls-1" d="M57.58,59.6H44.85v4H57.58Z"/><path class="cls-1" d="M40.81,59.6H28v4H40.72l.09-4Z"/><path class="cls-1" d="M24,59.6H11.14v4H24Z"/><path class="cls-2" d="M37.21,13.78H27.11a2,2,0,0,0-2,2h0a2,2,0,0,0,2,2h10.1a2,2,0,0,0,2-2h0A2,2,0,0,0,37.21,13.78Z"/><path class="cls-2" d="M67.76,15.8h0a2,2,0,0,0,2,2H72.5a2,2,0,0,1,2,2V32.21a2,2,0,0,1-2,2H13.16a2,2,0,0,1-2-2V19.83a2,2,0,0,1,2-2H16a2,2,0,0,0,2-2h0a2,2,0,0,0-2-2H9.12a2,2,0,0,0-2,2V64.34A11.8,11.8,0,0,0,19,76.19H68.81a9.87,9.87,0,0,0,9.83-9.83V15.8a2,2,0,0,0-2-2H69.78A2,2,0,0,0,67.76,15.8ZM11.14,64.34V40.29a2,2,0,0,1,2-2H22a2,2,0,0,1,2,2V70.13a2,2,0,0,1-2,2H19A7.83,7.83,0,0,1,11.14,64.34ZM28,63.64V40.29a2,2,0,0,1,2-2h8.78a2,2,0,0,1,2,2V70.13a2,2,0,0,1-2,2H30a2,2,0,0,1-2-2Zm16.86,0V40.29a2,2,0,0,1,2-2h8.69a2,2,0,0,1,2,2V70.13a2,2,0,0,1-2,2H46.87a2,2,0,0,1-2-2Zm29.67.7a7.83,7.83,0,0,1-7.81,7.81H63.63a2,2,0,0,1-2-2V40.29a2,2,0,0,1,2-2H72.5a2,2,0,0,1,2,2V64.34Z"/><path class="cls-2" d="M58.63,13.78H48.36a2,2,0,0,0-2,2h0a2,2,0,0,0,2,2H58.63a2,2,0,0,0,2-2h0A2,2,0,0,0,58.63,13.78Z"/><path class="cls-1" d="M21.5,22.29a2,2,0,0,0,2-2V11.32a2,2,0,0,0-2-2h0a2,2,0,0,0-2,2v9a2,2,0,0,0,2,2Z"/><path class="cls-1" d="M42.83,22.29a2,2,0,0,0,2-2V11.32a2,2,0,0,0-2-2h0a2,2,0,0,0-2,2v9a2,2,0,0,0,2,2Z"/><path class="cls-1" d="M64.25,22.29a2,2,0,0,0,2-2V11.32a2,2,0,0,0-2-2h0a2,2,0,0,0-2,2v9a2,2,0,0,0,2,2Z"/></svg>