<svg id="Layer_1" data-name="Layer 1" xmlns="http://www.w3.org/2000/svg" viewBox="0 0 480 480"><defs><style>.cls-1{opacity:0.5;isolation:isolate;}.cls-2{fill:#fff;}</style></defs><rect class="cls-1" width="480" height="480" rx="40"/><path class="cls-2" d="M88.7,252.19V144.44q0-8.4,3.94-12.6a13.35,13.35,0,0,1,10.18-4.2,13.85,13.85,0,0,1,10.43,4.15q4,4.16,4,12.65V252.19q0,8.49-4,12.69a13.76,13.76,0,0,1-10.43,4.19,13.26,13.26,0,0,1-10.13-4.24Q88.7,260.59,88.7,252.19Z"/><path class="cls-2" d="M186.32,144.25l54.87,80.6V143.5q0-7.92,3.51-11.89a12,12,0,0,1,9.46-4,12.38,12.38,0,0,1,9.71,4q3.56,4,3.55,11.89V251.07q0,18-15.37,18a21.12,21.12,0,0,1-6.92-1.07,17.68,17.68,0,0,1-5.76-3.41,33.57,33.57,0,0,1-5-5.45q-2.31-3.13-4.61-6.39l-53.52-79.67v80.13q0,7.84-3.75,11.85a12.57,12.57,0,0,1-9.61,4,12.41,12.41,0,0,1-9.71-4.06q-3.64-4-3.65-11.8V147.7a29,29,0,0,1,1.54-10.54,15.2,15.2,0,0,1,6.05-6.86,16.88,16.88,0,0,1,9.13-2.66,16.13,16.13,0,0,1,6.58,1.22,15.92,15.92,0,0,1,4.81,3.26,33.85,33.85,0,0,1,4.23,5.32Z"/><path class="cls-2" d="M390.13,152.83H359v99.36q0,8.58-3.94,12.73a13.4,13.4,0,0,1-10.19,4.15,13.62,13.62,0,0,1-10.33-4.19q-4-4.2-4-12.69V152.83H299.42q-7.31,0-10.86-3.12a11.38,11.38,0,0,1,.15-16.66c2.46-2.05,6-3.07,10.71-3.07h90.71q7.39,0,11,3.17a10.49,10.49,0,0,1,3.61,8.3,10.35,10.35,0,0,1-3.66,8.26Q397.43,152.83,390.13,152.83Z"/><path class="cls-2" d="M108.67,342.85a15.4,15.4,0,0,1-2.38,8.45,15.89,15.89,0,0,1-7,5.87,25.74,25.74,0,0,1-10.88,2.12q-7.55,0-12.45-2.9a16.54,16.54,0,0,1-5.65-5.57,12.77,12.77,0,0,1-2.18-6.77,4.52,4.52,0,0,1,1.31-3.26,4.37,4.37,0,0,1,3.32-1.36,3.83,3.83,0,0,1,2.76,1.06,8.3,8.3,0,0,1,1.93,3.14,21.52,21.52,0,0,0,2.11,4.14,8.55,8.55,0,0,0,3.18,2.73,11.5,11.5,0,0,0,5.39,1.08,12,12,0,0,0,7.46-2.17A6.57,6.57,0,0,0,98.48,344a5.78,5.78,0,0,0-1.55-4.18,10,10,0,0,0-4-2.46,67.49,67.49,0,0,0-6.55-1.8,47.31,47.31,0,0,1-9.2-3.06,14.78,14.78,0,0,1-5.88-4.77,12.48,12.48,0,0,1-2.17-7.51,13,13,0,0,1,2.29-7.59,14.46,14.46,0,0,1,6.64-5.11,26.7,26.7,0,0,1,10.23-1.79,24.86,24.86,0,0,1,8.12,1.19A17.29,17.29,0,0,1,102.1,310a13.18,13.18,0,0,1,3.3,4.12,9.62,9.62,0,0,1,1,4.21,5,5,0,0,1-1.3,3.37,4.13,4.13,0,0,1-3.25,1.5,3.71,3.71,0,0,1-2.7-.9,12.09,12.09,0,0,1-2-2.95,13.28,13.28,0,0,0-3.34-4.58c-1.29-1.09-3.37-1.63-6.26-1.64A10.75,10.75,0,0,0,81.14,315a5.2,5.2,0,0,0-2.45,4.29,4.43,4.43,0,0,0,.83,2.68,7.08,7.08,0,0,0,2.3,1.95,15.53,15.53,0,0,0,3,1.27c1,.31,2.64.75,4.93,1.34a78.3,78.3,0,0,1,7.81,2.26,23.74,23.74,0,0,1,6,3,12.33,12.33,0,0,1,3.83,4.47A14.65,14.65,0,0,1,108.67,342.85Z"/><path class="cls-2" d="M127.83,312.08v14.84h22.3V312.08a7,7,0,0,1,1.41-4.77,4.71,4.71,0,0,1,3.7-1.6,4.88,4.88,0,0,1,3.77,1.58,6.85,6.85,0,0,1,1.45,4.79v40.81a6.92,6.92,0,0,1-1.46,4.8,4.88,4.88,0,0,1-3.76,1.6,4.71,4.71,0,0,1-3.72-1.61,7.16,7.16,0,0,1-1.39-4.79V335.47h-22.3v17.42a6.82,6.82,0,0,1-1.46,4.8,4.87,4.87,0,0,1-3.75,1.6,4.65,4.65,0,0,1-3.72-1.61,7.11,7.11,0,0,1-1.4-4.79V312.08a7.09,7.09,0,0,1,1.38-4.77,4.68,4.68,0,0,1,3.74-1.6,4.88,4.88,0,0,1,3.77,1.58A6.89,6.89,0,0,1,127.83,312.08Z"/><path class="cls-2" d="M172,352.89V312.08a7,7,0,0,1,1.43-4.77,4.74,4.74,0,0,1,3.68-1.6,4.92,4.92,0,0,1,3.78,1.58,6.89,6.89,0,0,1,1.44,4.79v40.81a7,7,0,0,1-1.44,4.8,4.89,4.89,0,0,1-3.78,1.6,4.77,4.77,0,0,1-3.67-1.61A7,7,0,0,1,172,352.89Z"/><path class="cls-2" d="M213.64,338.22h-9.46v14.67a6.9,6.9,0,0,1-1.47,4.77,4.74,4.74,0,0,1-3.68,1.63,4.8,4.8,0,0,1-3.76-1.61,6.93,6.93,0,0,1-1.42-4.72V313q0-3.47,1.56-4.95c1.05-1,2.7-1.48,5-1.48h13.25a34.51,34.51,0,0,1,9,.92,13.11,13.11,0,0,1,8.87,8,17.73,17.73,0,0,1,1.18,6.68q0,7.9-4.8,12T213.64,338.22Zm-2.51-23.74h-6.95v15.83h6.95a20.39,20.39,0,0,0,6.11-.78A7.08,7.08,0,0,0,221,327a7.7,7.7,0,0,0,1.29-4.63,7.89,7.89,0,0,0-2-5.58C218.79,315.24,215.75,314.48,211.13,314.48Z"/><path class="cls-2" d="M261.15,338.22h-9.46v14.67a6.9,6.9,0,0,1-1.47,4.77,5.09,5.09,0,0,1-7.18.26l-.26-.26a6.93,6.93,0,0,1-1.42-4.72V313q0-3.47,1.56-4.95c1-1,2.71-1.49,5-1.48h13.26a34.51,34.51,0,0,1,9,.92,13.11,13.11,0,0,1,8.87,8,17.73,17.73,0,0,1,1.18,6.68q0,7.9-4.8,12T261.15,338.22Zm-2.51-23.74h-6.95v15.83h6.95a20.39,20.39,0,0,0,6.11-.78,7.08,7.08,0,0,0,3.73-2.54,7.7,7.7,0,0,0,1.29-4.63,7.89,7.89,0,0,0-2-5.58c-1.47-1.54-4.52-2.3-9.13-2.3Z"/><path class="cls-2" d="M289.28,352.89V312.08a7,7,0,0,1,1.43-4.77,4.72,4.72,0,0,1,3.69-1.6,4.88,4.88,0,0,1,3.77,1.58,6.89,6.89,0,0,1,1.44,4.79v40.81a7,7,0,0,1-1.44,4.8,4.86,4.86,0,0,1-3.77,1.6,4.69,4.69,0,0,1-3.67-1.61A7,7,0,0,1,289.28,352.89Z"/><path class="cls-2" d="M324.62,312l19.86,30.54V311.72a6.82,6.82,0,0,1,1.27-4.5,4.28,4.28,0,0,1,3.42-1.51,4.42,4.42,0,0,1,3.52,1.51,6.83,6.83,0,0,1,1.28,4.5v40.74q0,6.82-5.56,6.83a7.33,7.33,0,0,1-2.5-.41,6.26,6.26,0,0,1-2.09-1.29,12.73,12.73,0,0,1-1.81-2.07c-.56-.79-1.11-1.59-1.67-2.42L321,322.92v30.36a6.55,6.55,0,0,1-1.36,4.49,4.76,4.76,0,0,1-6.73.27l-.27-.27a6.69,6.69,0,0,1-1.32-4.47v-40a11.08,11.08,0,0,1,.56-4,5.61,5.61,0,0,1,2.19-2.6,6,6,0,0,1,3.3-1,5.71,5.71,0,0,1,2.38.46,5.77,5.77,0,0,1,1.74,1.24,11.91,11.91,0,0,1,1.53,2Z"/><path class="cls-2" d="M411.85,337.34v9.93a10.86,10.86,0,0,1-.38,3.16,5.14,5.14,0,0,1-1.41,2.14,13,13,0,0,1-2.63,1.84,41,41,0,0,1-8.9,3.71,35.34,35.34,0,0,1-9.32,1.17,30.12,30.12,0,0,1-10.72-1.84,22.59,22.59,0,0,1-8.24-5.34,23.51,23.51,0,0,1-5.23-8.48,32.18,32.18,0,0,1-1.83-11.13A33.06,33.06,0,0,1,365,321.44a22.19,22.19,0,0,1,13.6-13.87,31.67,31.67,0,0,1,11.2-1.86,27.42,27.42,0,0,1,9.12,1.4,19.89,19.89,0,0,1,6.43,3.52,15.73,15.73,0,0,1,3.72,4.48,9.2,9.2,0,0,1,1.25,4.21,4.52,4.52,0,0,1-1.44,3.37,4.77,4.77,0,0,1-3.46,1.4,4.55,4.55,0,0,1-2.14-.53,4.91,4.91,0,0,1-1.72-1.48,40.94,40.94,0,0,0-3.24-4.6,10.56,10.56,0,0,0-3.56-2.61,13.38,13.38,0,0,0-5.72-1.06,15.62,15.62,0,0,0-6.4,1.25,13.28,13.28,0,0,0-4.82,3.64,16.65,16.65,0,0,0-3.06,5.85,26.17,26.17,0,0,0-1.06,7.67q0,9.11,4.12,14t11.5,4.91a22.91,22.91,0,0,0,6.73-1,33.82,33.82,0,0,0,6.38-2.72V339h-8a8.67,8.67,0,0,1-4.37-.88,3.22,3.22,0,0,1-1.47-3,3.73,3.73,0,0,1,1.23-2.87,4.79,4.79,0,0,1,3.36-1.13H404.9a15,15,0,0,1,3.65.39,4.17,4.17,0,0,1,2.42,1.73A7.24,7.24,0,0,1,411.85,337.34Z"/></svg>