<?xml version="1.0" encoding="utf-8"?>
<!-- Generator: Adobe Illustrator 24.1.1, SVG Export Plug-In . SVG Version: 6.00 Build 0)  -->
<svg version="1.1" id="Layer_1" xmlns="http://www.w3.org/2000/svg" xmlns:xlink="http://www.w3.org/1999/xlink" x="0px" y="0px"
	 viewBox="0 0 100 100" style="enable-background:new 0 0 100 100;" xml:space="preserve">
<style type="text/css">
	.st0{fill-rule:evenodd;clip-rule:evenodd;fill:#737373;}
	.st1{fill-rule:evenodd;clip-rule:evenodd;fill:#448AFF;}
</style>
<path class="st0" d="M4.4,29.2L19,43.9c0.4,0.4,0.6,0.9,0.6,1.4V80c0,1.1,0.9,2,2,2h57.3c1.1,0,2-0.9,2-2V45.6c0-0.5,0.2-1,0.6-1.4
	l14.8-15c0.8-0.8,0.8-2,0-2.8l0,0c-0.8-0.8-2-0.8-2.8,0l-14.8,15c-0.4,0.4-0.9,0.6-1.4,0.6H61.7c-1.1,0-2,0.9-2,2v0c0,1.1,0.9,2,2,2
	h13.2c1.1,0,2,0.9,2,2v28c0,1.1-0.9,2-2,2H25.5c-1.1,0-2-0.9-2-2V47.9c0-1.1,0.9-2,2-2H39c1.1,0,2-0.9,2-2v0c0-1.1-0.9-2-2-2H23.4
	c-0.5,0-1-0.2-1.4-0.6L7.2,26.4c-0.8-0.8-2-0.8-2.8,0l0,0C3.6,27.2,3.6,28.4,4.4,29.2z"/>
<path class="st1" d="M54.3,23.9l10.4,1.3c1,0.1,1.8,1,1.8,2.1v0c0,1.1-0.9,2.1-2.1,2.1H54.1c-1.1,0-2.1-0.9-2.1-2.1v-1.3
	C52,24.7,53.1,23.7,54.3,23.9z M28.1,39.4c0-3.6,2.1-6.6,5.2-8c1.1-0.5,2.3-0.8,3.5-0.8c1.1,0,2.2,0.2,3.2,0.6c1.1,0.4,2.1,1.1,3,2
	c1.2,1.2,2,2.8,2.4,4.5c0.1,0.5,0.2,1.1,0.2,1.7l0,0h3.9c0-0.5,0-1-0.1-1.4c0-0.3-0.1-0.6-0.1-0.8c-0.2-1.1-0.6-2.2-1.1-3.3
	c-0.1-0.2-0.2-0.4-0.3-0.6h0.3h2h2h14.5h2h2h1.2v6v0.1h1.8c1.1,0,2.1-0.9,2.1-2.1v-6c0-1.1-0.9-2.1-2.1-2.1h-1
	c-1.1,0-2.1-0.9-2.1-2.1v-3.5c0-1-0.8-1.9-1.8-2.1l-18.3-2.3c-1.2-0.2-2.3,0.8-2.3,2.1v5.8c0,1.1-0.9,2.1-2.1,2.1h-1
	c-0.4,0-0.8-0.1-1.2-0.4c-2-1.4-4.5-2.2-7.1-2.2c-6.2,0-11.3,4.4-12.4,10.3c-0.2,1.3,0.8,2.4,2,2.4H28.1L28.1,39.4z"/>
<path class="st1" d="M47.7,45.6h4.7c1.7,0,3.1,1.4,3.1,3.1v5.7c0,2.2-2.2,3.7-4.2,2.9h0c-0.7-0.3-1.6-0.3-2.3,0l-0.1,0
	c-2,0.8-4.2-0.7-4.2-2.9v-5.8C44.6,47,46,45.6,47.7,45.6z M44.9,63.1l4-1.6c0.7-0.3,1.6-0.3,2.3,0l4,1.6c2,0.8,4.2-0.7,4.2-2.9V45.6
	v-0.9c0-1.7-1.4-3.1-3.1-3.1H43.8c-1.7,0-3.1,1.4-3.1,3.1v0.9v14.6C40.7,62.4,42.9,63.9,44.9,63.1z"/>
</svg>
