<?xml version="1.0" encoding="utf-8"?>
<!-- Generator: Adobe Illustrator 24.1.1, SVG Export Plug-In . SVG Version: 6.00 Build 0)  -->
<svg version="1.1" id="Layer_1" xmlns="http://www.w3.org/2000/svg" xmlns:xlink="http://www.w3.org/1999/xlink" x="0px" y="0px"
	 viewBox="0 0 85 85" style="enable-background:new 0 0 85 85;" xml:space="preserve">
<style type="text/css">
	.st0{fill:#737373;}
	.st1{fill:#448AFF;}
</style>
<g>
	<path class="st0" d="M10.2,26.5v30.8c0,0.4,0.2,0.8,0.6,1l29,13.6c0.7,0.3,1.6-0.2,1.6-1l0.3-32.6c0-0.5-0.3-0.9-0.7-1l-8.8-3.5
		c-0.7-0.3-1.5,0.2-1.5,1l0,6.4c0,2.3-2.9,3.4-4.4,1.6L26,42.6c-0.7-0.8-1.9-1.1-2.9-0.7h0c-1.7,0.7-3.5-0.5-3.5-2.3l-0.1-10.1
		c0-0.4-0.3-0.8-0.7-1l-7.1-3C11,25.2,10.2,25.7,10.2,26.5z"/>
	<path class="st0" d="M45.8,37.4L73,25.5c0.7-0.3,1.5,0.2,1.5,1v30.7c0,0.4-0.2,0.8-0.6,1L46.9,71.8c-0.7,0.4-1.6-0.2-1.6-1
		l-0.1-32.5C45.2,37.9,45.4,37.6,45.8,37.4z"/>
	<path class="st0" d="M43.6,34.5l26.8-11.7c0.4-0.2,0.4-0.7,0-0.8L62,19.1c-0.1,0-0.2,0-0.3,0L34.3,29.9c-0.4,0.1-0.4,0.7,0,0.8
		l8.9,3.8C43.3,34.6,43.4,34.6,43.6,34.5z"/>
	<path class="st1" d="M28.6,40.3l0.5-9.4c0-0.4,0.3-0.7,0.6-0.8l29.2-11.7L52.4,16L22.1,27.6c-0.4,0.1-0.6,0.5-0.6,0.9l0.1,10.4
		c0,0.7,0.7,1.1,1.3,0.9l1.6-0.6c0.4-0.1,0.7,0,1,0.2l1.5,1.5C27.5,41.5,28.5,41.2,28.6,40.3z"/>
	<path class="st0" d="M21.9,25.6l26.5-10c0.5-0.2,0.5-0.9,0-1.1l-5.7-2c-0.1,0-0.2,0-0.4,0l-27.4,9.1c-0.5,0.2-0.5,0.8,0,1l6.6,2.8
		C21.6,25.7,21.7,25.7,21.9,25.6z"/>
</g>
</svg>
