<svg id="Layer_1" data-name="Layer 1" xmlns="http://www.w3.org/2000/svg" viewBox="0 0 85 85"><defs><style>.cls-1{fill:#737373;}.cls-2{fill:orange;}</style></defs><path class="cls-1" d="M9.2,26V58a1.15,1.15,0,0,0,.62,1L39.9,73.12a1.2,1.2,0,0,0,1.66-1l.31-33.82a1,1,0,0,0-.72-1L32,33.59a1.12,1.12,0,0,0-1.56,1v6.64a2.58,2.58,0,0,1-4.56,1.66l-.31-.21a2.72,2.72,0,0,0-3-.72h0A2.6,2.6,0,0,1,19,39.61l-.1-10.48a1.23,1.23,0,0,0-.73-1L10.76,25A1.12,1.12,0,0,0,9.2,26Z"/><path class="cls-1" d="M46.13,37.33,74.34,25a1.12,1.12,0,0,1,1.56,1V57.87a1.13,1.13,0,0,1-.62,1L47.27,73a1.16,1.16,0,0,1-1.66-1l-.1-33.71A1,1,0,0,1,46.13,37.33Z"/><path class="cls-1" d="M43.85,34.32l27.8-12.14c.41-.2.41-.72,0-.83l-8.72-3h-.31L34.2,29.55a.43.43,0,0,0,0,.83l9.23,3.94C43.53,34.42,43.64,34.42,43.85,34.32Z"/><path class="cls-2" d="M28.29,40.34l.51-9.75a.9.9,0,0,1,.63-.83L59.72,17.62,53,15.13l-31.43,12a.92.92,0,0,0-.62.94L21,38.88a1,1,0,0,0,1.34.94L24,39.2a1.21,1.21,0,0,1,1,.2L26.63,41A1,1,0,0,0,28.29,40.34Z"/><path class="cls-1" d="M21.34,25.09,48.82,14.72a.62.62,0,0,0,0-1.15L42.91,11.5H42.5L14.08,20.94a.54.54,0,0,0,0,1l6.84,2.9C21,25.19,21.13,25.19,21.34,25.09Z"/></svg>