<svg id="Layer_1" data-name="Layer 1" xmlns="http://www.w3.org/2000/svg" viewBox="0 0 324.05 475.41"><defs><style>.cls-1{fill:#f9a003;}</style></defs><path class="cls-1" d="M306.5,92.85c-6.34-11.15-11.92-21-19.17-33.76L465.2,71.25c-20.56,56.25-40.11,109.7-61,166.91L381,207c-45.63,29.61-91.94,58-136,89.57-9.35,6.69-10.59,24.7-16.18,39-37.59-2.58-75.34-31.95-84.92-69.83-9.47-37.44,5.84-70.8,44.79-96.37S266.73,118.67,306.5,92.85Z" transform="translate(-141.15 -59.09)"/><path class="cls-1" d="M349,264.69c44.54,2.09,81.78,30.07,92.18,67.06,10.7,38-3.85,72.81-41.5,97.48q-70.32,46.09-141.11,91.49C222,544.16,182.26,537.15,160,503.89c-21.77-32.58-12.15-73.05,23.88-96.77q74.13-48.8,149-96.47C350.12,299.68,358.37,286.34,349,264.69Z" transform="translate(-141.15 -59.09)"/></svg>