<svg id="Layer_1" data-name="Layer 1" xmlns="http://www.w3.org/2000/svg" viewBox="0 0 324.02 475.41"><defs><style>.cls-1{fill:orange;}</style></defs><path class="cls-1" d="M165.35,33.76C159,22.61,153.43,12.76,146.18,0L324.05,12.16c-20.56,56.25-40.11,109.7-61,166.91l-23.2-31.16c-45.63,29.61-91.94,58-136,89.57-9.35,6.69-10.59,24.7-16.18,39-37.59-2.58-75.34-32-84.92-69.83-9.47-37.44,5.84-70.8,44.79-96.37S125.58,59.58,165.35,33.76Z" transform="translate(-0.03)"/><path class="cls-1" d="M207.85,205.6c44.54,2.09,81.78,30.07,92.18,67.06,10.7,38-3.85,72.81-41.5,97.48q-70.32,46.1-141.11,91.49c-36.57,23.44-76.31,16.43-98.57-16.83C-2.92,412.22,6.7,371.75,42.73,348q74.13-48.79,149-96.47C209,240.59,217.22,227.25,207.85,205.6Z" transform="translate(-0.03)"/></svg>