<?xml version="1.0" encoding="utf-8"?>
<!-- Generator: Adobe Illustrator 24.1.1, SVG Export Plug-In . SVG Version: 6.00 Build 0)  -->
<svg version="1.1" id="Capa_1" xmlns="http://www.w3.org/2000/svg" xmlns:xlink="http://www.w3.org/1999/xlink" x="0px" y="0px"
	 viewBox="0 0 473.9 473.9" style="enable-background:new 0 0 473.9 473.9;" xml:space="preserve">
<style type="text/css">
	.st0{fill:#448AFF;}
	.st1{fill:#931B1D;}
	.st2{fill:#F16622;}
	.st3{fill:#F7981D;}
	.st4{fill:#CB2026;}
	.st5{fill:#FFFFFF;}
</style>
<circle class="st0" cx="237" cy="237" r="237"/>
<path class="st1" d="M159.5,122c-59.8,0.4-108.2,49.1-108.2,109.1c0,60.2,48.8,109.1,108.9,109.1c28.2,0,53.9-10.8,73.3-28.4l0,0h0
	c4-3.6,7.7-7.5,11.1-11.7h-22.3c-3-3.6-5.7-7.4-8.1-11.2h38.5c2.4-3.7,4.5-7.6,6.4-11.7h-51.2c-1.7-3.7-3.3-7.6-4.6-11.5h60.3
	c3.6-10.9,5.6-22.5,5.6-34.6c0-8-0.9-15.8-2.5-23.4H200c0.8-3.9,1.9-7.7,3.1-11.5h60.3c-1.3-4-2.9-7.9-4.7-11.7h-51
	c1.8-3.9,3.9-7.8,6.2-11.5h38.5c-2.6-4.1-5.4-8-8.4-11.7h-21.4c3.3-3.9,7-7.6,10.9-11c-19.3-17.7-45.1-28.5-73.3-28.5
	C160,122,159.7,122,159.5,122z"/>
<path class="st2" d="M415.2,231.1c0,60.3-48.7,109.1-108.9,109.2c-60.1,0-108.9-48.8-108.9-109.1v0c0-60.3,48.7-109.2,108.9-109.2
	C366.4,121.9,415.2,170.8,415.2,231.1C415.2,231.1,415.2,231.1,415.2,231.1z"/>
<path class="st3" d="M415.2,232.3c0,60.3-48.7,109.2-108.9,109.2c-60.1,0-108.9-48.8-108.9-109.1v-0.1
	c0-60.3,48.7-109.2,108.9-109.2C366.4,123.1,415.2,172,415.2,232.3C415.2,232.3,415.2,232.3,415.2,232.3z"/>
<path class="st4" d="M159.5,123.2c-59.8,0.4-108.2,49.1-108.2,109.1c0,60.3,48.8,109.1,108.9,109.1c28.2,0,53.9-10.8,73.3-28.4l0,0
	h0c4-3.6,7.7-7.5,11.1-11.7h-22.3c-3-3.6-5.7-7.4-8.1-11.2h38.5c2.4-3.8,4.5-7.7,6.4-11.7h-51.2c-1.7-3.8-3.3-7.6-4.6-11.5h60.3
	c3.6-10.9,5.6-22.5,5.6-34.6c0-8-0.9-15.8-2.5-23.4H200c0.8-3.9,1.9-7.7,3.1-11.5h60.3c-1.3-4-2.9-7.9-4.7-11.7h-51
	c1.8-3.9,3.9-7.8,6.2-11.5h38.5c-2.6-4.1-5.4-8-8.4-11.7h-21.4c3.3-3.9,7-7.6,10.9-11c-19.3-17.7-45.1-28.4-73.3-28.4
	C160,123.2,159.7,123.2,159.5,123.2z"/>
<g>
	<path class="st5" d="M199.4,260.1l1.5-9.9c-0.8,0-2,0.3-3,0.3c-4,0-4.5-2.1-4.2-3.7l3.3-20.2h6.1l1.5-10.9h-5.8l1.2-6.8h-11.6
		c-0.3,0.3-6.8,38.2-6.8,42.8c0,6.8,3.8,9.9,9.2,9.8C194.9,261.6,198.2,260.4,199.4,260.1z"/>
	<path class="st5" d="M203,241.3c0,16.4,10.8,20.3,20,20.3c8.5,0,12.2-1.9,12.2-1.9l2-11.2c0,0-6.5,2.9-12.3,2.9
		c-12.4,0-10.3-9.3-10.3-9.3h23.6c0,0,1.5-7.5,1.5-10.6c0-7.7-3.8-17-16.5-17C211.7,214.5,203,227.1,203,241.3z M223.4,224.9
		c6.5,0,5.3,7.4,5.3,8h-12.9C215.8,232.1,217,224.9,223.4,224.9z"/>
	<path class="st5" d="M296.8,260.1l2.1-12.7c0,0-5.7,2.9-9.6,2.9c-8.2,0-11.5-6.3-11.5-13.1c0-13.7,7.1-21.3,15-21.3
		c5.9,0,10.6,3.3,10.6,3.3l1.9-12.3c0,0-7-2.9-13.1-2.9c-13.4,0-26.4,11.6-26.4,33.5c0,14.5,7,24.1,20.9,24.1
		C290.6,261.7,296.8,260.1,296.8,260.1z"/>
	<path class="st5" d="M135.6,214.7c-8,0-14,2.6-14,2.6l-1.7,10c0,0,5-2,12.6-2c4.3,0,7.5,0.5,7.5,4c0,2.1-0.4,2.9-0.4,2.9
		s-3.4-0.3-5-0.3c-10,0-20.6,4.3-20.6,17.2c0,10.2,6.9,12.5,11.2,12.5c8.2,0,11.7-5.3,11.9-5.3l-0.4,4.4H147l4.6-32
		C151.5,215.1,139.7,214.7,135.6,214.7z M138.1,240.7c0.2,2-1.2,11.1-8.2,11.1c-3.6,0-4.5-2.8-4.5-4.4c0-3.2,1.7-7,10.2-7
		C137.5,240.4,137.7,240.7,138.1,240.7z"/>
	<path class="st5" d="M162.4,261.3c2.6,0,17.5,0.7,17.5-14.8c0-14.4-13.8-11.6-13.8-17.4c0-2.9,2.3-3.8,6.4-3.8
		c1.6,0,7.9,0.5,7.9,0.5l1.5-10.3c0,0-4.1-0.9-10.7-0.9c-8.6,0-17.3,3.4-17.3,15.2c0,13.3,14.5,12,14.5,17.6c0,3.7-4.1,4-7.2,4
		c-5.4,0-10.3-1.9-10.3-1.8l-1.5,10.2C149.6,260,152.6,261.3,162.4,261.3z"/>
	<path class="st5" d="M392.8,205.4l-2.5,15.6c0,0-4.4-6-11.2-6c-10.6,0-19.5,12.8-19.5,27.6c0,9.5,4.7,18.8,14.4,18.8
		c6.9,0,10.8-4.9,10.8-4.9l-0.5,4.1h11.3l8.9-55.3L392.8,205.4z M387.5,235.8c0,6.1-3,14.3-9.3,14.3c-4.2,0-6.1-3.5-6.1-9
		c0-9,4-15,9.1-15C385.3,226.1,387.5,229,387.5,235.8z"/>
	<path class="st5" d="M72.8,260.7l7.1-41.7l1,41.7h8l14.9-41.7l-6.6,41.7H109l9.1-55.3H99.8l-11.4,33.9l-0.6-33.9H70.9l-9.3,55.3
		H72.8L72.8,260.7z"/>
	<path class="st5" d="M251.5,260.8c3.4-19.2,4-34.9,12.1-32c1.4-7.4,2.8-10.3,4.3-13.5c0,0-0.7-0.2-2.2-0.2c-5.2,0-9,7.1-9,7.1
		l1-6.5h-10.8l-7.2,45H251.5z"/>
	<path class="st5" d="M323.5,214.7c-8,0-14,2.6-14,2.6l-1.7,10c0,0,5-2,12.6-2c4.3,0,7.5,0.5,7.5,4c0,2.1-0.4,2.9-0.4,2.9
		s-3.4-0.3-5-0.3c-10,0-20.6,4.3-20.6,17.2c0,10.2,6.9,12.5,11.2,12.5c8.2,0,11.7-5.3,11.9-5.3l-0.4,4.4h10.2l4.6-32
		C339.5,215.1,327.7,214.7,323.5,214.7z M326,240.7c0.2,2-1.2,11.1-8.2,11.1c-3.6,0-4.5-2.8-4.5-4.4c0-3.2,1.7-7,10.2-7
		C325.5,240.4,325.7,240.7,326,240.7z"/>
	<path class="st5" d="M348.8,260.8c3.4-19.2,4-34.9,12.1-32c1.4-7.4,2.8-10.3,4.3-13.5c0,0-0.7-0.2-2.2-0.2c-5.2,0-9,7.1-9,7.1
		l1-6.5h-10.8l-7.2,45L348.8,260.8L348.8,260.8L348.8,260.8z"/>
</g>
</svg>
