<svg id="Layer_1" data-name="Layer 1" xmlns="http://www.w3.org/2000/svg" viewBox="0 0 480 480"><defs><style>.cls-1{opacity:0.5;isolation:isolate;}.cls-2{fill:#fff;}</style></defs><rect class="cls-1" width="480" height="480" rx="40"/><path class="cls-2" d="M106,327.5a15.37,15.37,0,0,1-2.38,8.44,15.89,15.89,0,0,1-7,5.87,25.78,25.78,0,0,1-10.89,2.12q-7.55,0-12.45-2.9a16.61,16.61,0,0,1-5.62-5.53,12.8,12.8,0,0,1-2.18-6.77,4.55,4.55,0,0,1,1.31-3.27,4.41,4.41,0,0,1,3.32-1.36,3.9,3.9,0,0,1,2.77,1.06,8.64,8.64,0,0,1,1.93,3.14,20.93,20.93,0,0,0,2.1,4.14,8.5,8.5,0,0,0,3.18,2.74,11.65,11.65,0,0,0,5.39,1.07A12,12,0,0,0,93,334.08a6.54,6.54,0,0,0,2.87-5.42,5.78,5.78,0,0,0-1.54-4.19,10.17,10.17,0,0,0-4-2.46q-2.46-.84-6.56-1.8a48.19,48.19,0,0,1-9.2-3,14.93,14.93,0,0,1-5.88-4.77,12.48,12.48,0,0,1-2.17-7.51,13,13,0,0,1,2.29-7.6,14.53,14.53,0,0,1,6.65-5.11,26.83,26.83,0,0,1,10.22-1.78,24.85,24.85,0,0,1,8.12,1.18,16.92,16.92,0,0,1,5.69,3.15,13,13,0,0,1,3.3,4.11,9.62,9.62,0,0,1,1,4.21,5,5,0,0,1-1.31,3.37,4.13,4.13,0,0,1-3.25,1.51,3.68,3.68,0,0,1-2.69-.91,11.64,11.64,0,0,1-2-3,13.33,13.33,0,0,0-3.34-4.57q-2-1.65-6.26-1.65a10.73,10.73,0,0,0-6.46,1.79A5.2,5.2,0,0,0,76,303.87a4.41,4.41,0,0,0,.84,2.69,7,7,0,0,0,2.29,1.94,14.93,14.93,0,0,0,3,1.27c1,.31,2.64.76,4.94,1.35a75.72,75.72,0,0,1,7.81,2.26,23.36,23.36,0,0,1,5.94,3,12.33,12.33,0,0,1,3.83,4.47A14.56,14.56,0,0,1,106,327.5Z"/><path class="cls-2" d="M125.21,296.71v14.84H147.5V296.71a7,7,0,0,1,1.41-4.77,4.7,4.7,0,0,1,3.7-1.59,4.87,4.87,0,0,1,3.78,1.57,6.94,6.94,0,0,1,1.44,4.79V337.5a6.94,6.94,0,0,1-1.46,4.81,4.83,4.83,0,0,1-3.76,1.59,4.71,4.71,0,0,1-3.72-1.61,7.16,7.16,0,0,1-1.39-4.79V320.1H125.21v17.4a6.94,6.94,0,0,1-1.46,4.81A4.9,4.9,0,0,1,120,343.9a4.71,4.71,0,0,1-3.72-1.61,7.16,7.16,0,0,1-1.39-4.79V296.71a7.14,7.14,0,0,1,1.37-4.77,4.68,4.68,0,0,1,3.74-1.59,4.89,4.89,0,0,1,3.77,1.57A6.85,6.85,0,0,1,125.21,296.71Z"/><path class="cls-2" d="M169.34,337.5V296.71a7,7,0,0,1,1.43-4.77,4.74,4.74,0,0,1,3.69-1.59,4.89,4.89,0,0,1,3.77,1.57,6.94,6.94,0,0,1,1.44,4.79V337.5a7,7,0,0,1-1.44,4.81,4.86,4.86,0,0,1-3.77,1.59,4.69,4.69,0,0,1-3.67-1.61A7,7,0,0,1,169.34,337.5Z"/><path class="cls-2" d="M211,322.86h-9.46V337.5a6.94,6.94,0,0,1-1.46,4.77,5.09,5.09,0,0,1-7.18.26,3.19,3.19,0,0,1-.26-.26,6.8,6.8,0,0,1-1.43-4.72V297.66q0-3.45,1.56-4.94t5-1.49H211a34.51,34.51,0,0,1,9,.92,13.48,13.48,0,0,1,5.41,2.93,13.25,13.25,0,0,1,3.46,5,17.73,17.73,0,0,1,1.18,6.68q0,7.92-4.8,12T211,322.86Zm-2.51-23.75h-7v15.83h7a20.6,20.6,0,0,0,6.1-.77,7.16,7.16,0,0,0,3.74-2.55,7.69,7.69,0,0,0,1.28-4.63,7.94,7.94,0,0,0-2-5.58C216.16,299.88,213.12,299.12,208.5,299.11Z"/><path class="cls-2" d="M258.5,322.86H249V337.5a6.94,6.94,0,0,1-1.46,4.77,5.09,5.09,0,0,1-7.18.26,3.19,3.19,0,0,1-.26-.26,6.8,6.8,0,0,1-1.43-4.72V297.66q0-3.45,1.56-4.94t5-1.49H258.5a34.51,34.51,0,0,1,9,.92,13.48,13.48,0,0,1,5.41,2.93,13.25,13.25,0,0,1,3.46,5,17.73,17.73,0,0,1,1.18,6.68q0,7.92-4.8,12T258.5,322.86ZM256,299.11h-7v15.83h7a20.71,20.71,0,0,0,6.11-.77,7.16,7.16,0,0,0,3.74-2.55,7.69,7.69,0,0,0,1.28-4.63,7.94,7.94,0,0,0-2-5.58c-1.45-1.53-4.49-2.29-9.11-2.3Z"/><path class="cls-2" d="M286.66,337.5V296.71a7,7,0,0,1,1.42-4.77,4.74,4.74,0,0,1,3.69-1.59,4.89,4.89,0,0,1,3.77,1.57,7,7,0,0,1,1.45,4.79V337.5a7,7,0,0,1-1.45,4.81,4.86,4.86,0,0,1-3.77,1.59,4.69,4.69,0,0,1-3.67-1.61A7,7,0,0,1,286.66,337.5Z"/><path class="cls-2" d="M322,296.64l19.86,30.53V296.36a6.85,6.85,0,0,1,1.27-4.51,4.29,4.29,0,0,1,3.43-1.5,4.39,4.39,0,0,1,3.51,1.5,6.79,6.79,0,0,1,1.29,4.51V337.1q0,6.82-5.57,6.82a7.33,7.33,0,0,1-2.5-.41,6.47,6.47,0,0,1-2.09-1.29,13.16,13.16,0,0,1-1.81-2.06c-.55-.79-1.11-1.6-1.67-2.43l-19.37-30.17v30.35A6.55,6.55,0,0,1,317,342.4a4.76,4.76,0,0,1-7,0,6.69,6.69,0,0,1-1.32-4.47v-40a11.53,11.53,0,0,1,.56-4,5.65,5.65,0,0,1,2.19-2.59,5.78,5.78,0,0,1,3.3-1,5.6,5.6,0,0,1,2.39.46,5.87,5.87,0,0,1,1.73,1.23,14.19,14.19,0,0,1,1.54,2C320.9,294.88,321.44,295.74,322,296.64Z"/><path class="cls-2" d="M409.22,322v9.93a10.93,10.93,0,0,1-.38,3.17,5.14,5.14,0,0,1-1.41,2.14A13.31,13.31,0,0,1,404.8,339a41,41,0,0,1-8.9,3.71,35.34,35.34,0,0,1-9.32,1.17,29.88,29.88,0,0,1-10.71-1.84,22.52,22.52,0,0,1-8.25-5.33,23.63,23.63,0,0,1-5.23-8.49,32.18,32.18,0,0,1-1.83-11.13,33,33,0,0,1,1.78-11.06,22.19,22.19,0,0,1,13.6-13.87,31.89,31.89,0,0,1,11.2-1.85,27.11,27.11,0,0,1,9.11,1.4,19.87,19.87,0,0,1,6.43,3.51,15.48,15.48,0,0,1,3.72,4.49,9.18,9.18,0,0,1,1.26,4.2,4.55,4.55,0,0,1-1.45,3.38,4.82,4.82,0,0,1-3.46,1.39,4.55,4.55,0,0,1-2.14-.53,4.91,4.91,0,0,1-1.72-1.48,40.74,40.74,0,0,0-3.23-4.59,10.49,10.49,0,0,0-3.57-2.62,13.38,13.38,0,0,0-5.72-1.06,15.46,15.46,0,0,0-6.4,1.26,13.45,13.45,0,0,0-4.82,3.63,16.74,16.74,0,0,0-3.06,5.85,26.21,26.21,0,0,0-1.06,7.67q0,9.12,4.12,14t11.5,4.91a23.24,23.24,0,0,0,6.73-1,34.49,34.49,0,0,0,6.38-2.72v-8.41h-8a8.64,8.64,0,0,1-4.36-.89,3.19,3.19,0,0,1-1.48-3,3.71,3.71,0,0,1,1.23-2.86,4.74,4.74,0,0,1,3.36-1.13h11.72a15.45,15.45,0,0,1,3.65.38,4.12,4.12,0,0,1,2.42,1.74A7.15,7.15,0,0,1,409.22,322Z"/><path class="cls-2" d="M112,202.5H86v38.71q0,8.31-4,12.6a14.42,14.42,0,0,1-20.39.1l-.1-.1q-4-4.23-4-12.44V136q0-9.15,4.31-13.06T75.5,119H112q16.17,0,24.89,2.43a37.17,37.17,0,0,1,14.89,7.74,34.92,34.92,0,0,1,9.53,13.25A45.67,45.67,0,0,1,164.56,160q0,20.89-13.22,31.67T112,202.5Zm-6.9-62.7H85.93v41.8h19.15a59.23,59.23,0,0,0,16.81-2,19.64,19.64,0,0,0,10.29-6.72q3.54-4.66,3.54-12.22,0-9-5.45-14.74-6.14-6.13-25.19-6.15Z"/><path class="cls-2" d="M260.88,240.25l-6.71-17.17H197.1l-6.7,17.54q-3.9,10.26-6.7,13.88t-9.1,3.59a13.53,13.53,0,0,1-9.48-3.83,11.61,11.61,0,0,1-4.12-8.67,19,19,0,0,1,1-5.79q1-3,3.16-8.3l35.91-88.81,3.68-9.19a45.83,45.83,0,0,1,4.6-8.91,18.53,18.53,0,0,1,6.42-5.74,23.29,23.29,0,0,1,19.72,0,18.91,18.91,0,0,1,6.42,5.64,39.86,39.86,0,0,1,4.12,7.42c1.11,2.65,2.53,6.17,4.26,10.59L287,230.75q4.31,10.08,4.31,14.65a12,12,0,0,1-4.07,8.72,13.51,13.51,0,0,1-9.81,4,13.09,13.09,0,0,1-5.75-1.17,11.65,11.65,0,0,1-4-3.17,29.06,29.06,0,0,1-3.5-6.16C262.84,244.81,261.77,242.36,260.88,240.25Zm-56.31-38H246.5l-21.16-56.44Z"/><path class="cls-2" d="M350.31,197.24h-10v43.94q0,8.69-3.92,12.78a13.51,13.51,0,0,1-10.25,4.11q-6.79,0-10.53-4.29t-3.73-12.6V136q0-9,4.11-13t13.31-4h46.25a146.89,146.89,0,0,1,16.38.79A42.31,42.31,0,0,1,404.18,123a35.82,35.82,0,0,1,11.69,7.74,33.71,33.71,0,0,1,7.7,11.71,38,38,0,0,1,2.64,14.14q0,15.3-8.86,24.44t-26.86,13A52.18,52.18,0,0,1,405,205.5a118,118,0,0,1,12.3,16.28,120.07,120.07,0,0,1,8.43,15.58q3,7,3,9.57a9.65,9.65,0,0,1-1.77,5.36,12.43,12.43,0,0,1-4.84,4.2A15.66,15.66,0,0,1,415,258a14.05,14.05,0,0,1-8-2.19,21.15,21.15,0,0,1-5.6-5.56q-2.35-3.36-6.37-9.88l-11.39-18.48a102.4,102.4,0,0,0-11-15.48,27.12,27.12,0,0,0-9.81-7.28A34.53,34.53,0,0,0,350.31,197.24Zm16.28-57.47H340.35v37.6h25.48a72.84,72.84,0,0,0,17.23-1.73q7-1.72,10.68-5.87t3.68-11.43a17.39,17.39,0,0,0-3-10,18,18,0,0,0-8.24-6.48q-4.94-2.09-19.59-2.09Z"/></svg>