<?xml version="1.0" encoding="utf-8"?>
<!-- Generator: Adobe Illustrator 24.1.1, SVG Export Plug-In . SVG Version: 6.00 Build 0)  -->
<svg version="1.1" id="Layer_1" xmlns="http://www.w3.org/2000/svg" xmlns:xlink="http://www.w3.org/1999/xlink" x="0px" y="0px"
	 viewBox="0 0 100 100" style="enable-background:new 0 0 100 100;" xml:space="preserve">
<style type="text/css">
	.st0{fill-rule:evenodd;clip-rule:evenodd;fill:#737373;}
	.st1{fill-rule:evenodd;clip-rule:evenodd;fill:#448AFF;}
</style>
<g id="icon_x2F_main_x2F_dimension">
	<g id="Group_12">
		<path id="Fill_1" class="st0" d="M31.3,74h-2.8h-3.8h-2.8v1.1v0.8c0,0.7,0.5,1.2,1.2,1.2h4.2c0.7,0,1.2,0.5,1.2,1.2v3.5
			c0,0.7,0.5,1.2,1.2,1.2h0.4c0.7,0,1.2-0.5,1.2-1.2v-3.5c0-0.7,0.5-1.2,1.2-1.2H38c0.7,0,1.2,0.5,1.2,1.2v0c0,0.7,0.5,1.2,1.2,1.2
			h0.4c0.7,0,1.2-0.5,1.2-1.2v0c0-0.7,0.5-1.2,1.2-1.2h5.7c0.7,0,1.2,0.5,1.2,1.2v0c0,0.7,0.5,1.2,1.2,1.2h0.4
			c0.7,0,1.2-0.5,1.2-1.2v0c0-0.7,0.5-1.2,1.2-1.2h6.5c0.7,0,1.2,0.5,1.2,1.2v0c0,0.7,0.5,1.2,1.2,1.2h0.4c0.7,0,1.2-0.5,1.2-1.2v0
			c0-0.7,0.5-1.2,1.2-1.2h4.7c0.7,0,1.2,0.5,1.2,1.2v3.5c0,0.7,0.5,1.2,1.2,1.2h0.4c0.7,0,1.2-0.5,1.2-1.2v-3.5
			c0-0.7,0.5-1.2,1.2-1.2h4c0.7,0,1.2,0.5,1.2,1.2v0c0,0.7,0.5,1.2,1.2,1.2h0.4c0.7,0,1.2-0.5,1.2-1.2v-3.1c0-0.7-0.5-1.2-1.2-1.2
			H31.3z"/>
		<path id="Fill_2" class="st1" d="M19.4,16.2v0.4c0,0.7,0.5,1.2,1.2,1.2h0c0.7,0,1.2,0.5,1.2,1.2v4c0,0.7-0.5,1.2-1.2,1.2h-3.5
			c-0.7,0-1.2,0.5-1.2,1.2v0.4c0,0.7,0.5,1.2,1.2,1.2h3.5c0.7,0,1.2,0.5,1.2,1.2v4.7c0,0.7-0.5,1.2-1.2,1.2h0
			c-0.7,0-1.2,0.5-1.2,1.2v0.4c0,0.7,0.5,1.2,1.2,1.2h0c0.7,0,1.2,0.5,1.2,1.2v6.5c0,0.7-0.5,1.2-1.2,1.2h0c-0.7,0-1.2,0.5-1.2,1.2
			v0.4c0,0.7,0.5,1.2,1.2,1.2h0c0.7,0,1.2,0.5,1.2,1.2v5.7c0,0.7-0.5,1.2-1.2,1.2h0c-0.7,0-1.2,0.5-1.2,1.2v0.4
			c0,0.7,0.5,1.2,1.2,1.2h0c0.7,0,1.2,0.5,1.2,1.2v5.5c0,0.7-0.5,1.2-1.2,1.2h-3.5c-0.7,0-1.2,0.5-1.2,1.2v0.2
			c0,0.7,0.5,1.2,1.2,1.2h3.5c0.7,0,1.2,0.5,1.2,1.2v3.1c0,1,1.2,1.6,2,0.9l0.7-0.6c0.3-0.2,0.4-0.6,0.4-0.9V70v-1.4V16.2
			c0-0.7-0.5-1.2-1.2-1.2h-3.1C19.9,15,19.4,15.5,19.4,16.2z"/>
		<g id="Group_11">
			<path id="Fill_3" class="st0" d="M74.1,63.2c-0.5,0.1-0.9,0.2-1.4,0.2s-0.9-0.1-1.4-0.2v2.5c0,0.8-0.6,1.4-1.4,1.4H32.2
				c-0.8,0-1.4-0.6-1.4-1.4V28.2c0-0.8,0.6-1.4,1.4-1.4h9.5c0.8,0,1.4-0.6,1.4-1.4v0c0-0.8-0.6-1.4-1.4-1.4H29.4
				c-0.8,0-1.4,0.6-1.4,1.4v43.2c0,0.8,0.6,1.4,1.4,1.4h43.3c0.8,0,1.4-0.6,1.4-1.4V63.2z"/>
			<path id="Fill_5" class="st0" d="M69.9,26.8c0.8,0,1.4,0.6,1.4,1.4v20.5c0.5-0.1,0.9-0.2,1.4-0.2s0.9,0.1,1.4,0.2V25.4
				c0-0.8-0.6-1.4-1.4-1.4h-12c-0.8,0-1.4,0.6-1.4,1.4v0c0,0.8,0.6,1.4,1.4,1.4H69.9z"/>
			<path id="Fill_7" class="st1" d="M48.8,26.8h4.9c1.5,0,2.8,1.3,2.8,2.8v5.1c0,2-2,3.3-3.8,2.6l-0.4-0.2c-0.7-0.3-1.4-0.3-2.1,0
				l-0.3,0.1C48,38,46,36.7,46,34.7v-5.1C46,28.1,47.3,26.8,48.8,26.8z M47,41.5l3.2-1.3c0.7-0.3,1.4-0.3,2.1,0l3.2,1.3
				c1.8,0.7,3.8-0.6,3.8-2.6V26.8v0c0-1.5-1.3-2.8-2.8-2.8H46c-1.5,0-2.8,1.3-2.8,2.8v0v12.1C43.2,40.9,45.2,42.2,47,41.5z"/>
			<path id="Fill_9" class="st1" d="M74.8,56c0,1.2-0.9,2.1-2.1,2.1c-1.1,0-2.1-0.9-2.1-2.1c0-1.2,0.9-2.1,2.1-2.1
				S74.8,54.9,74.8,56z M67.7,56c0,2.8,2.3,5,5,5c2.8,0,5-2.3,5-5c0-2.8-2.3-5-5-5C69.9,51,67.7,53.2,67.7,56z"/>
		</g>
	</g>
</g>
</svg>
