<?xml version="1.0" encoding="utf-8"?>
<!-- Generator: Adobe Illustrator 24.1.1, SVG Export Plug-In . SVG Version: 6.00 Build 0)  -->
<svg version="1.1" id="Layer_1" xmlns="http://www.w3.org/2000/svg" xmlns:xlink="http://www.w3.org/1999/xlink" x="0px" y="0px"
	 viewBox="0 0 85 85" style="enable-background:new 0 0 85 85;" xml:space="preserve">
<style type="text/css">
	.st0{fill:#FFA500;}
	.st1{fill:#051234;}
	.st2{fill:#0D1939;}
	.st3{fill:#0F1A3C;}
	.st4{fill:#081026;}
	.st5{fill:#0E1940;}
	.st6{fill:#737373;}
	.st7{fill:#FFFFFF;}
</style>
<g>
	<circle class="st0" cx="59.7" cy="26.7" r="13.4"/>
	<path class="st1" d="M45.6,41.1c-5.4,0-10.9,0-16.3,0c0.2-0.3,0.4-0.8,0.7-0.8c4.7,0,9.4,0,14.1,0.1C44.6,40.4,45.1,40.9,45.6,41.1
		z"/>
	<path class="st2" d="M45.6,60.2c-5.5,0-10.9,0-16.4,0.1c0.5-0.3,0.9-1,1.4-1c4.5,0,9,0.1,13.5,0.2C44.7,59.5,45.1,59.9,45.6,60.2z"
		/>
	<path class="st3" d="M28.9,55.5c5.7,0,11.3,0,17,0.1c0,0.4,0,0.8,0,1.3c-5.6-0.3-11.1-0.6-16.7-0.9C29,55.9,29,55.6,28.9,55.5z"/>
	<path class="st4" d="M29.3,46c5.4,0,10.9,0,16.3,0c-0.8,0.1-1.6,0.4-2.4,0.4c-3.9,0-7.8,0-11.7,0C30.8,46.4,30.1,46.1,29.3,46z"/>
	<path class="st5" d="M45.6,65.1c0.2-0.3,0.3-0.7,0.5-1c0.2,0.4,0.4,0.8,0.6,1.2C46.3,65.2,46,65.2,45.6,65.1z"/>
	<path class="st5" d="M29.4,65.1c0.5,0,0.9,0,1.4,0C30.3,66,29.8,66.3,29.4,65.1z"/>
	<path class="st6" d="M51.3,72.1H16.8c-2.3,0-4.2-1.9-4.2-4.2V34.5c0-2.3,1.9-4.2,4.2-4.2h34.5c2.3,0,4.2,1.9,4.2,4.2v33.4
		C55.5,70.2,53.6,72.1,51.3,72.1z"/>
	<g>
		<rect x="18.8" y="37.7" class="st7" width="4.9" height="4.9"/>
		<rect x="28.9" y="37.7" class="st7" width="20.6" height="4.9"/>
	</g>
	<g>
		<rect x="18.8" y="49.5" class="st7" width="4.9" height="4.9"/>
		<rect x="28.8" y="49.5" class="st7" width="20.6" height="4.9"/>
	</g>
	<g>
		<rect x="18.8" y="60.7" class="st7" width="4.9" height="4.9"/>
		<rect x="28.8" y="60.7" class="st7" width="20.6" height="4.9"/>
	</g>
	<g>
		<path class="st7" d="M58.6,27.8h-3.7V25h3.7v-3.9h3V25h3.7v2.9h-3.7v3.9h-3V27.8z"/>
	</g>
</g>
</svg>
