<svg id="Layer_1" data-name="Layer 1" xmlns="http://www.w3.org/2000/svg" viewBox="0 0 85 85"><defs><style>.cls-1{fill:#828282;}.cls-2{fill:orange;}</style></defs><path class="cls-1" d="M25.56,10.23h0c7.32,1.06,9.24,5.53,9.24,11-.12,12.11,0,24.12-.12,36.24,0,1.7.6,2.55,2.28,3.5a14.06,14.06,0,0,1,3.72,3.51,3.39,3.39,0,0,0,3,1.6h21.6a4.81,4.81,0,0,1,2.16.21,3.43,3.43,0,0,1,1.8,1.8c.35,1-.48,1.81-1.56,2.13a15.73,15.73,0,0,1-3.12.32H43.67a3,3,0,0,0-3,1.59,9.35,9.35,0,0,1-9.36,4.36c-4.08-.53-7.2-2.87-8-6.38a7.52,7.52,0,0,1,4.08-8.71C29.64,60.29,30,58.91,30,56.78c-.12-12,0-24,0-36a13.9,13.9,0,0,0-.12-2.23,4.49,4.49,0,0,0-8.64-.43,8.64,8.64,0,0,1-.24.85c-.48,1.49-1.32,2.24-2.76,2a2.26,2.26,0,0,1-2-2.55c.12-3.4,3.71-7.44,7.66-8.18m13,57.71c0-2.23-1.92-3.83-4.32-3.93s-4.44,1.59-4.44,3.72a4.36,4.36,0,0,0,4.44,4A4.15,4.15,0,0,0,36.84,67.94Z"/><path class="cls-2" d="M54.71,35.21h11.4c2.52,0,3.12.63,3.12,2.86V58c0,2.44-.84,3.19-3.6,3.19H43.55c-2.87,0-3.83-.75-3.83-3.4V38.61c0-2.66.84-3.4,4-3.4Zm9.72,12.85v-7c0-1.17-.72-1.81-2-1.81H46.79c-1.44,0-2.16.64-2,1.92V54.87c0,1.27.6,1.91,2.16,1.91H62.39c1.56,0,2.16-.64,2.16-2C64.43,52.53,64.43,50.4,64.43,48.06Z"/></svg>