<?xml version="1.0" encoding="utf-8"?>
<!-- Generator: Adobe Illustrator 24.1.1, SVG Export Plug-In . SVG Version: 6.00 Build 0)  -->
<svg version="1.1" id="Layer_1" xmlns="http://www.w3.org/2000/svg" xmlns:xlink="http://www.w3.org/1999/xlink" x="0px" y="0px"
	 viewBox="0 0 85 85" style="enable-background:new 0 0 85 85;" xml:space="preserve">
<style type="text/css">
	.st0{fill:#828282;}
	.st1{fill:#448AFF;}
</style>
<path class="st0" d="M27.1,11c0,0,0.1,0,0.1,0.1c6.4,1,8.2,5.5,8.2,10.9c-0.1,12.2,0,24.3-0.1,36.5c0,1.7,0.5,2.6,2,3.5
	c1.3,0.8,2.4,2.2,3.3,3.5c0.7,1.1,1.4,1.6,2.7,1.6c6.4,0,12.8,0,19.3,0c0.6,0,1.4-0.1,1.9,0.2c0.7,0.4,1.4,1.1,1.6,1.8
	c0.3,1-0.4,1.8-1.4,2.1c-0.9,0.2-1.9,0.3-2.8,0.3c-6.2,0-12.5,0-18.7,0c-1.3,0-2.1,0.4-2.7,1.6c-1.6,3.2-4.9,4.8-8.4,4.4
	c-3.6-0.5-6.4-2.9-7.2-6.4c-0.8-3.4,0.5-7.1,3.6-8.8c2-1.1,2.4-2.5,2.4-4.6c-0.1-12.1,0-24.2,0-36.3c0-0.7,0-1.5-0.1-2.2
	c-0.3-2-2-3.5-3.8-3.5c-1.8-0.1-3.5,1.3-4,3.1c-0.1,0.3-0.1,0.6-0.2,0.9c-0.4,1.5-1.2,2.2-2.5,2c-1.2-0.2-1.9-1.2-1.8-2.6
	c0.1-3.4,2.9-6.7,6.4-7.5c0.6-0.1,1.2-0.3,1.9-0.4C26.9,11,27,11,27.1,11z M37.1,69.2c0-2.2-1.7-3.9-3.9-4c-2.3,0-4,1.6-4,3.8
	c0,2.2,1.8,4.1,4,4.1C35.2,73.2,37.1,71.3,37.1,69.2z"/>
<g>
	<path class="st1" d="M53.1,36.2c3.4,0,6.8,0,10.2,0c2.2,0,2.8,0.6,2.8,2.9c0,6.7,0,13.3,0,20c0,2.5-0.7,3.2-3.2,3.2
		c-6.6,0-13.1,0-19.7,0c-2.6,0-3.4-0.8-3.4-3.4c0-6.4,0-12.8,0-19.3c0-2.7,0.7-3.4,3.5-3.4C46.6,36.2,49.9,36.2,53.1,36.2
		C53.1,36.2,53.1,36.2,53.1,36.2z M61.8,49.2c0-2.4,0-4.7,0-7.1c0-1.2-0.6-1.8-1.8-1.8c-4.6,0-9.3,0-13.9,0c-1.3,0-1.9,0.6-1.8,1.9
		c0,4.6,0,9.2,0,13.8c0,1.3,0.5,1.9,1.9,1.9c4.6,0,9.2,0,13.8,0c1.4,0,1.9-0.6,1.9-2C61.8,53.7,61.8,51.5,61.8,49.2z"/>
</g>
</svg>
