<?xml version="1.0" encoding="utf-8"?>
<!-- Generator: Adobe Illustrator 24.1.1, SVG Export Plug-In . SVG Version: 6.00 Build 0)  -->
<svg version="1.1" id="Layer_1" xmlns="http://www.w3.org/2000/svg" xmlns:xlink="http://www.w3.org/1999/xlink" x="0px" y="0px"
	 viewBox="0 0 85 85" style="enable-background:new 0 0 85 85;" xml:space="preserve">
<style type="text/css">
	.st0{fill-rule:evenodd;clip-rule:evenodd;fill:#448AFF;}
	.st1{fill-rule:evenodd;clip-rule:evenodd;fill:#737373;}
</style>
<desc>Created with Sketch.</desc>
<g id="additional-services-icon-85x85">
	<g id="Group-11" transform="translate(5.000000, 12.000000)">
		<path id="Fill-1" class="st0" d="M30,51.5c-2.9,0-5.2,2.4-5.2,5.2c0,2.9,2.4,5.2,5.2,5.2s5.2-2.4,5.2-5.2
			C35.3,53.9,32.9,51.5,30,51.5 M30,54.6c1.2,0,2.2,1,2.2,2.2S31.2,59,30,59s-2.2-1-2.2-2.2C27.9,55.5,28.8,54.6,30,54.6"/>
		<path id="Fill-4" class="st0" d="M62.5,51.5c-2.9,0-5.2,2.4-5.2,5.2c0,2.9,2.4,5.2,5.2,5.2c2.8,0,5.2-2.4,5.2-5.2
			S65.4,51.5,62.5,51.5 M62.5,54.6c1.2,0,2.2,1,2.2,2.2s-1,2.2-2.2,2.2s-2.2-1-2.2-2.2C60.3,55.5,61.3,54.6,62.5,54.6"/>
		<path id="Fill-7" class="st1" d="M50.2,29.2l-8.6,5.5c-0.3,0.2-0.5,0.2-0.8,0.2h-6.5c-1.1,0-1.8-1.1-1.4-2.1L44.5,4
			c0.2-0.6,0.8-1,1.4-1h19.5C66.3,3,67,3.7,67,4.5v22.9c0,0.9-0.7,1.5-1.5,1.5H51C50.7,29,50.4,29.1,50.2,29.2z M71,27.5V1.5
			C71,0.7,70.3,0,69.5,0H44.7c-0.6,0-1.2,0.4-1.4,1L30.1,34c-0.2,0.6-0.8,1-1.4,1h-8.1c-0.8,0-1.5,0.7-1.5,1.5v20
			c0,0.8,0.7,1.5,1.5,1.5h0c0.8,0,1.5-0.7,1.5-1.5v-16c0-0.9,0.7-1.5,1.5-1.5h16.2c0.3,0,0.6-0.1,0.9-0.3l9.3-6.4
			c0.3-0.2,0.6-0.3,0.9-0.3h18.6c0.9,0,1.5,0.7,1.5,1.5v8c0,0.8-0.7,1.5-1.5,1.5h-28c-0.8,0-1.5,0.7-1.5,1.5l0,0
			c0,0.8,0.7,1.5,1.5,1.5h27.9c0.9,0,1.5,0.7,1.5,1.5v8.9c0,0.9,0.7,1.5,1.5,1.5h0.9c0.9,0,1.5-0.7,1.5-1.5V30.5
			c0-0.9-0.7-1.5-1.5-1.5h-0.9C71.7,29,71,28.3,71,27.5z"/>
		<path id="Fill-10" class="st1" d="M10.5,55.1H1.5c-0.9,0-1.5,0.7-1.5,1.5v0c0,0.9,0.7,1.5,1.5,1.5h12.2c0.9,0,1.5-0.7,1.5-1.5V3.4
			c0-0.9-0.7-1.5-1.5-1.5h-0.2c-0.9,0-1.5,0.7-1.5,1.5v50.1C12,54.4,11.3,55.1,10.5,55.1z"/>
		<path id="Fill-12" class="st1" d="M40.5,58.2H52c0.8,0,1.5-0.6,1.5-1.5l0,0c0-0.8-0.6-1.5-1.5-1.5H40.5c-0.8,0-1.5,0.6-1.5,1.5
			l0,0C39.1,57.6,39.7,58.2,40.5,58.2z"/>
	</g>
</g>
</svg>
