<svg id="Layer_1" data-name="Layer 1" xmlns="http://www.w3.org/2000/svg" viewBox="0 0 58 44.2"><defs><style>.cls-1{fill:orange;}</style></defs><path class="cls-1" d="M35.6,31.66A50.74,50.74,0,0,1,35,40a19.46,19.46,0,0,1-2.18,6.29,14.43,14.43,0,0,1-5.18,5.36,13.54,13.54,0,0,1-7.06,1.88,13.45,13.45,0,0,1-8-2.53,15.41,15.41,0,0,1-5.34-7,25.7,25.7,0,0,1-1.34-5.4,45.49,45.49,0,0,1-.43-6.4,62.1,62.1,0,0,1,.47-8A26.4,26.4,0,0,1,7.41,18a13.79,13.79,0,0,1,5-6.46,13.86,13.86,0,0,1,7.9-2.23,14.73,14.73,0,0,1,5.51,1,12.77,12.77,0,0,1,4.34,2.88,16.54,16.54,0,0,1,3.16,4.7Q35.6,22.76,35.6,31.66Zm-8.07-.59a49.17,49.17,0,0,0-.64-8.81,10.92,10.92,0,0,0-2.18-5.18,5.32,5.32,0,0,0-4.24-1.75,5.44,5.44,0,0,0-5.4,3.91q-1.52,3.92-1.51,12.07a52.11,52.11,0,0,0,.64,9.06,11.4,11.4,0,0,0,2.18,5.34,5.14,5.14,0,0,0,4.15,1.81,5.18,5.18,0,0,0,4.24-1.88,11.79,11.79,0,0,0,2.15-5.39A55.11,55.11,0,0,0,27.53,31.07Z" transform="translate(-5.46 -9.35)"/><path class="cls-1" d="M55.46,48.79V22Q48,27.74,45.39,27.75a3,3,0,0,1-2.19-1,3.17,3.17,0,0,1-1-2.28,2.58,2.58,0,0,1,.94-2.21,20.52,20.52,0,0,1,3.32-1.82,25.17,25.17,0,0,0,5.7-3.53A24.4,24.4,0,0,0,56,12.77c1.1-1.53,1.81-2.47,2.15-2.83A2.57,2.57,0,0,1,60,9.41a3,3,0,0,1,2.5,1.21,5.24,5.24,0,0,1,.94,3.32v33.7q0,5.91-4,5.91a3.68,3.68,0,0,1-2.88-1.2A5.16,5.16,0,0,1,55.46,48.79Z" transform="translate(-5.46 -9.35)"/></svg>