<svg id="Layer_1" data-name="Layer 1" xmlns="http://www.w3.org/2000/svg" viewBox="0 0 66.5 44.14"><defs><style>.cls-1{fill:orange;}</style></defs><path class="cls-1" d="M32.6,31.66A50.74,50.74,0,0,1,32,40a19.46,19.46,0,0,1-2.18,6.29,14.43,14.43,0,0,1-5.18,5.36,13.54,13.54,0,0,1-7.06,1.88,13.45,13.45,0,0,1-8-2.53,15.41,15.41,0,0,1-5.34-7,25.7,25.7,0,0,1-1.34-5.4,45.49,45.49,0,0,1-.43-6.4,62.1,62.1,0,0,1,.47-8A26.4,26.4,0,0,1,4.41,18a13.79,13.79,0,0,1,5-6.46,13.86,13.86,0,0,1,7.9-2.23,14.73,14.73,0,0,1,5.51,1,12.77,12.77,0,0,1,4.34,2.88,16.54,16.54,0,0,1,3.16,4.7Q32.6,22.76,32.6,31.66Zm-8.07-.59a49.17,49.17,0,0,0-.64-8.81,10.92,10.92,0,0,0-2.18-5.18,5.32,5.32,0,0,0-4.24-1.75,5.44,5.44,0,0,0-5.4,3.91q-1.52,3.92-1.51,12.07a52.11,52.11,0,0,0,.64,9.06,11.4,11.4,0,0,0,2.18,5.34,5.14,5.14,0,0,0,4.15,1.81,5.18,5.18,0,0,0,4.24-1.88,11.79,11.79,0,0,0,2.15-5.39A55.11,55.11,0,0,0,24.53,31.07Z" transform="translate(-2.46 -9.35)"/><path class="cls-1" d="M48.9,45.87H64.26a5.64,5.64,0,0,1,3.5.94A3.09,3.09,0,0,1,69,49.37a3.42,3.42,0,0,1-1,2.45,3.86,3.86,0,0,1-2.9,1H43.45A4.69,4.69,0,0,1,40,51.6a3.92,3.92,0,0,1-1.23-2.87,7.23,7.23,0,0,1,.79-2.81,9.88,9.88,0,0,1,1.74-2.75q3.91-4.06,7.06-7a46.49,46.49,0,0,1,4.5-3.82,26,26,0,0,0,4-3.42,13.76,13.76,0,0,0,2.44-3.53,8.41,8.41,0,0,0,.84-3.55,6.36,6.36,0,0,0-.9-3.37,6.23,6.23,0,0,0-2.44-2.31,7.06,7.06,0,0,0-3.37-.82,6.89,6.89,0,0,0-6.06,3.38,14,14,0,0,0-1,2.41,9.87,9.87,0,0,1-1.56,3,3.09,3.09,0,0,1-2.54,1.06,3.32,3.32,0,0,1-2.45-1,3.6,3.6,0,0,1-1-2.65,11,11,0,0,1,.92-4.23,11.9,11.9,0,0,1,2.72-4,13.22,13.22,0,0,1,4.59-2.9,17.49,17.49,0,0,1,6.52-1.11,18.71,18.71,0,0,1,7.68,1.42,11.41,11.41,0,0,1,3.61,2.59,12.15,12.15,0,0,1,3.3,8.29,12.52,12.52,0,0,1-1.81,6.64A21,21,0,0,1,62.73,33q-1.89,1.69-6.31,5.31A47,47,0,0,0,50.34,44,17.23,17.23,0,0,0,48.9,45.87Z" transform="translate(-2.46 -9.35)"/></svg>