<svg id="Layer_1" data-name="Layer 1" xmlns="http://www.w3.org/2000/svg" viewBox="0 0 28.79 43.81"><defs><style>.cls-1{fill:orange;}</style></defs><path class="cls-1" d="M48.53,38.83V44H19.74a9.58,9.58,0,0,1,.62-3.72,19.74,19.74,0,0,1,3.52-5.81,56.76,56.76,0,0,1,7-6.61Q38,22,40.47,18.6A11,11,0,0,0,43,12.16,7.17,7.17,0,0,0,40.7,6.79,8.19,8.19,0,0,0,34.77,4.6a8.35,8.35,0,0,0-6.18,2.32,8.82,8.82,0,0,0-2.35,6.43l-5.49-.57Q21.31,6.63,25,3.39T34.89.16q6.27,0,9.92,3.49a11.42,11.42,0,0,1,3.66,8.63,13.21,13.21,0,0,1-1.07,5.15,20.44,20.44,0,0,1-3.55,5.33,86.91,86.91,0,0,1-8.25,7.67q-4.82,4.05-6.18,5.5a18,18,0,0,0-2.26,2.9Z" transform="translate(-19.73 -0.16)"/></svg>