<svg id="Layer_1" data-name="Layer 1" xmlns="http://www.w3.org/2000/svg" viewBox="0 0 28.1 43.93"><defs><style>.cls-1{fill:orange;}</style></defs><path class="cls-1" d="M13.6,32l5.27-.7q.91,4.48,3.09,6.47a7.64,7.64,0,0,0,5.31,2,8.51,8.51,0,0,0,6.28-2.58,8.7,8.7,0,0,0,2.56-6.39,8.09,8.09,0,0,0-8.4-8.36A15.28,15.28,0,0,0,24,23l.59-4.63a7.77,7.77,0,0,0,.85.06,10.88,10.88,0,0,0,6.06-1.76,6,6,0,0,0,2.69-5.43,6.42,6.42,0,0,0-2-4.81,7,7,0,0,0-5.07-1.9A7.18,7.18,0,0,0,22,6.41a9.77,9.77,0,0,0-2.63,5.81l-5.27-.94a13.59,13.59,0,0,1,4.39-8.23A12.69,12.69,0,0,1,27,.14a14,14,0,0,1,6.47,1.51A10.84,10.84,0,0,1,38,5.77a10.62,10.62,0,0,1,1.57,5.54,9,9,0,0,1-1.5,5.07A10.15,10.15,0,0,1,33.68,20a9.94,9.94,0,0,1,5.92,3.65,11.16,11.16,0,0,1,2.1,6.93,12.7,12.7,0,0,1-4.09,9.55,14.42,14.42,0,0,1-10.37,3.91,13.47,13.47,0,0,1-9.38-3.37A13,13,0,0,1,13.6,32Z" transform="translate(-13.6 -0.14)"/></svg>