<svg id="Layer_1" data-name="Layer 1" xmlns="http://www.w3.org/2000/svg" viewBox="0 0 66.06 44.2"><defs><style>.cls-1{fill:orange;}</style></defs><path class="cls-1" d="M31.6,31.66A50.74,50.74,0,0,1,31,40a19.46,19.46,0,0,1-2.18,6.29,14.43,14.43,0,0,1-5.18,5.36,13.54,13.54,0,0,1-7.06,1.88,13.45,13.45,0,0,1-8-2.53,15.41,15.41,0,0,1-5.34-7,25.7,25.7,0,0,1-1.34-5.4,45.49,45.49,0,0,1-.43-6.4,62.1,62.1,0,0,1,.47-8A26.4,26.4,0,0,1,3.41,18a13.79,13.79,0,0,1,5-6.46,13.86,13.86,0,0,1,7.9-2.23,14.73,14.73,0,0,1,5.51,1,12.77,12.77,0,0,1,4.34,2.88,16.54,16.54,0,0,1,3.16,4.7Q31.6,22.76,31.6,31.66Zm-8.07-.59a49.17,49.17,0,0,0-.64-8.81,10.92,10.92,0,0,0-2.18-5.18,5.32,5.32,0,0,0-4.24-1.75,5.44,5.44,0,0,0-5.4,3.91Q9.56,23.16,9.56,31.31a52.11,52.11,0,0,0,.64,9.06,11.4,11.4,0,0,0,2.18,5.34,5.14,5.14,0,0,0,4.15,1.81,5.18,5.18,0,0,0,4.24-1.88,11.79,11.79,0,0,0,2.15-5.39A55.11,55.11,0,0,0,23.53,31.07Z" transform="translate(-1.46 -9.35)"/><path class="cls-1" d="M51,26.77a7.15,7.15,0,0,0,4.66-1.58,5.53,5.53,0,0,0,2-4.57A5.41,5.41,0,0,0,56,16.73a5.54,5.54,0,0,0-4.21-1.64,7.61,7.61,0,0,0-3,.5A4.94,4.94,0,0,0,47,16.92,9.8,9.8,0,0,0,45.74,19c-.41.86-.78,1.67-1.11,2.44a2.07,2.07,0,0,1-1.06,1,4.25,4.25,0,0,1-1.76.35,3.09,3.09,0,0,1-2.17-.95,3.42,3.42,0,0,1-1-2.55,6.8,6.8,0,0,1,.92-3.22,11.89,11.89,0,0,1,2.71-3.22,13.75,13.75,0,0,1,4.43-2.46,17.81,17.81,0,0,1,5.92-.93,16.45,16.45,0,0,1,5.2.78,12.1,12.1,0,0,1,4.09,2.25,9.68,9.68,0,0,1,2.62,3.42,9.91,9.91,0,0,1,.89,4.17,9.54,9.54,0,0,1-1.28,5.05,17.36,17.36,0,0,1-3.67,4.11,16.1,16.1,0,0,1,3.87,2.82,10.54,10.54,0,0,1,3.16,7.68,12.92,12.92,0,0,1-1.07,5.18,13.33,13.33,0,0,1-3.16,4.46,15.34,15.34,0,0,1-5,3.06A17.65,17.65,0,0,1,52,53.55a15.22,15.22,0,0,1-6.33-1.26,14.55,14.55,0,0,1-4.6-3.17,14.32,14.32,0,0,1-2.74-3.92,8.56,8.56,0,0,1-.93-3.36,3.6,3.6,0,0,1,1.11-2.75A3.82,3.82,0,0,1,41.25,38a3,3,0,0,1,1.59.49,2.29,2.29,0,0,1,1,1.16,19.8,19.8,0,0,0,3.28,6.08,6.24,6.24,0,0,0,4.93,2,7.38,7.38,0,0,0,6.31-3.56,7.58,7.58,0,0,0,1.1-4.09,7.46,7.46,0,0,0-1.88-5.39,6.92,6.92,0,0,0-5.24-2c-.39,0-1,0-1.82.12s-1.36.11-1.59.11a3.55,3.55,0,0,1-2.5-.81,2.9,2.9,0,0,1-.89-2.25,2.83,2.83,0,0,1,1.06-2.28,4.89,4.89,0,0,1,3.15-.87Z" transform="translate(-1.46 -9.35)"/></svg>