<?xml version="1.0" encoding="utf-8"?>
<!-- Generator: Adobe Illustrator 24.1.1, SVG Export Plug-In . SVG Version: 6.00 Build 0)  -->
<svg version="1.1" id="Layer_1" xmlns="http://www.w3.org/2000/svg" xmlns:xlink="http://www.w3.org/1999/xlink" x="0px" y="0px"
	 viewBox="0 0 1920 800" style="enable-background:new 0 0 1920 800;" xml:space="preserve">
<style type="text/css">
	.st0{fill:url(#SVGID_1_);}
	.st1{fill:#383838;}
</style>
<g>
	<linearGradient id="SVGID_1_" gradientUnits="userSpaceOnUse" x1="66.7949" y1="915.6922" x2="1808.7733" y2="-90.0395">
		<stop  offset="2.237672e-07" style="stop-color:#000000;stop-opacity:0"/>
		<stop  offset="1" style="stop-color:#000000;stop-opacity:0.7"/>
	</linearGradient>
	<rect class="st0" width="1920" height="800"/>
	<g>
		<path class="st1" d="M1647.2,470.9c-4.6,42-57.7,85.5-57.7,85.5s-59.8,53.8-126.8,59.8s-71.2-31.7-64.6-58s49-78.9,49-78.9
			l86.1-110c19.1-24.5-23.9-36.5-23.9-36.5l-40.7-14.3c-25.7-13.8-29.9-25.1-19.1-50.2s49.6-44.8,56.2-48.4s56.2-24.5,78.9-8.4
			c22.7,16.1,0,43.6,0,43.6l-51.7,60.5c-0.8,0.9-1.9,1.5-3,1.5c-2.9,0.1-0.3-3.4-0.3-3.4l32.4-45.2c0.6-0.9,1.3-1.7,2-2.5
			c15.3-16.8,17.5-28.8,17.5-28.8c3.6-22.7-21.5-19.7-21.5-19.7c-46.6,1.8-94.5,46-96.3,65.2s11.4,22.1,43,33.5
			c31.7,11.4,50.2,23.9,47.2,42.5c-3,18.5-35.9,50.8-35.9,50.8l-72.9,84.3c0,0-15.5,16.7-32.9,48.4s-3,47.2-3,47.2
			c13.8,22.7,49,22.7,83.7,9.6c34.7-13.2,65.8-32.3,107.6-72.3s36.5-76.5,36.5-76.5c-11.4-44.2-46-55.6-46-55.6
			c-13.8-4.1-19.8,0.6-22.4,5.4c-1.8,3.2-2.2,7-1.5,10.6c3.1,16.2,12,20.7,19.8,24.6c8.4,4.2,50.8,17.3,50.8,17.3s4.8,0,38.3,9.6
			c33.5,9.6,44.8,18.5,44.8,18.5c31.7,20.9-10.8,50.2-10.8,50.2s-41.8,26.5-79.9-2.3c-0.5-0.4-0.6-1.1-0.4-1.6l0,0
			c0.4-0.7,1.3-0.9,1.9-0.4c22,17.2,52.6,8.6,52.6,8.6c41.9-12.6,38.9-31.1,38.9-31.1c5.4-20-46.6-30.3-56.4-32
			c-1.1-0.2-2.3-0.5-3.4-0.8l-26.9-7.3c-7.6-1.2-26.3-7.2-37.9-11c-10-3.3-19.4-8.4-27.5-15.3c-9-7.7-13.5-14.9-15.4-21.3
			c-4-13.7,4.8-27.8,18.8-30.9c10.7-2.4,27.1-0.8,47.1,18.2c0,0,29.8,26.4,25.5,65.5L1647.2,470.9z"/>
	</g>
</g>
</svg>
