<?xml version="1.0" encoding="utf-8"?>
<!-- Generator: Adobe Illustrator 24.1.1, SVG Export Plug-In . SVG Version: 6.00 Build 0)  -->
<svg version="1.1" id="Layer_1" xmlns="http://www.w3.org/2000/svg" xmlns:xlink="http://www.w3.org/1999/xlink" x="0px" y="0px"
	 viewBox="0 0 1920 800" style="enable-background:new 0 0 1920 800;" xml:space="preserve">
<style type="text/css">
	.st0{fill:#050506;}
	.st1{fill:#FFA500;}
	.st2{fill:#F4B251;}
	.st3{fill:#E2E1E1;}
	.st4{fill:#EFEFEF;}
	.st5{fill:#FBD774;}
	.st6{fill:#E19203;}
	.st7{fill:#5A595B;}
	.st8{fill:#F3B134;}
	.st9{fill:#F8BF06;}
	.st10{fill:#424645;}
	.st11{fill:#A3A3A4;}
	.st12{fill:#D5D5D5;}
	.st13{fill:#201E21;}
	.st14{fill:#A9A9A9;}
	.st15{fill:#BBBBBB;}
	.st16{fill:#C8C8C8;}
	.st17{fill:#5FAEDD;}
	.st18{fill:#171618;}
	.st19{fill:#B4B4B4;}
	.st20{fill:#C2C2C2;}
	.st21{fill:#563F15;}
	.st22{fill:#67808A;}
	.st23{fill:#CEE1F1;}
	.st24{fill:#E5EFF6;}
	.st25{fill:#8A8D92;}
	.st26{fill:#AEAEAE;}
	.st27{fill:#B90F17;}
	.st28{fill:#EB751C;}
	.st29{opacity:0.7;}
</style>
<g>
	<path class="st0" d="M1746.2,341.5c4-2.5,8-5.1,12.2-7.4c8-4.6,12.4-11.5,13.2-20.8c-2.1,2.4-3.9,5.6-6.5,7.2
		c-13.8,8.6-27.8,16.9-41.8,25.3c-4.9,2.9-9.8,5.8-14.6,8.7c-8.5,5-17,10-25.5,15c-5.1,3-10.2,6-15.2,8.9
		c-5.2,3.1-10.4,6.2-15.6,9.3c-8,4.7-16,9.5-24,14.2c-5.4,3.2-10.8,6.4-16.2,9.5c-4.9,2.9-9.8,5.8-14.6,8.7
		c-4.9,2.9-9.8,5.8-14.7,8.7c-5.1,3.1-10.1,6.2-15.2,9.2c-11.9,7-23.8,13.9-35.7,20.8c-13.4,7.9-26.7,15.8-40.1,23.7
		c-1.8,1.1-3.6,2.1-5.4,3.2c-8.5,5-17,10-25.4,15c-11.6,6.8-23.2,13.7-34.7,20.5c-6.7,4-13.4,7.9-20.1,11.9
		c-5.1,3-10.2,5.9-15.2,8.9c-3.4,2.1-6.8,4.1-10.2,6.2c-7.4,5.5-15.9,7.7-24.8,8.6c-0.1,3.5-0.1,7.1-0.2,10.6
		c7.7-0.7,14.7-3.5,21.3-7.4c100.2-59.4,200.5-118.9,300.8-178.3c16.6-9.8,33.2-19.6,49.7-29.3c1-0.2,2-0.4,3-0.5
		c1.2-1.1,2.3-2.2,3.5-3.2c1.2-0.5,2.3-1,3.5-1.5c0.5-0.5,1.1-1,1.6-1.6c0.8-0.5,1.6-0.9,2.4-1.4
		C1743.2,343.3,1744.7,342.4,1746.2,341.5z"/>
	<path class="st1" d="M1494.6,222.5c-0.2,0.2-0.4,0.3-0.6,0.5c-0.1,4.2,3.6,4.3,5.9,5.6c18.6,10.9,37.2,21.6,55.8,32.4
		c26.1-15.2,52.3-30.3,78.9-45.7c0.2,1.7,0.4,2.4,0.4,3.2c-0.2,9.7-0.5,19.4-0.6,29.1c-0.1,14.2-0.1,28.5,0,42.7
		c0,4.7,0.4,9.5,0.7,14.2c0.7-0.4,1.5-0.7,2.2-1.1c-0.4-1.2-0.9-2.5-1.3-3.7c0-1.1,0-2.1,0.1-3.2c0-8.6,0-17.2,0-25.8
		c-0.1-6-0.2-12.1-0.3-18.1c0.3-3.9,0.7-7.9,1-11.8c-0.2-0.3-0.3-0.5-0.5-0.8l-0.2-0.1l0.1-0.2c0-1.6,0-3.3-0.1-4.9
		c0-1.4,0.1-2.8,0.1-4.1c0-1.3-0.1-2.5-0.1-3.8c0.1-1,0.1-2,0.2-3c0-2.5,0.2-4.9-0.1-7.4c-0.1-1.1-1.3-2.1-2-3.1
		c-3.2,0.5-6.4,1.3-9.6,1.6c-15.4,1.2-30.8,2.2-46.2,3.2c-12.1,0.8-24.2,1.6-36.3,2.4c-15.3,1-30.6,2-45.9,2.9
		C1495.8,223.6,1495.2,222.9,1494.6,222.5z"/>
	<path class="st2" d="M1494.6,222.5c0.6,0.4,1.2,1.2,1.7,1.1c15.3-0.9,30.6-1.9,45.9-2.9c12.1-0.8,24.2-1.6,36.3-2.4
		c15.4-1,30.8-2.1,46.2-3.2c3.2-0.2,6.4-1,9.6-1.6c-9.4-5.6-18.8-11.2-28.3-16.8c-10.3-6.1-20.8-12-31.1-18.2
		c-2.3-1.4-4-1.4-6.3-0.1c-23.2,13.7-46.5,27.3-69.8,40.9C1497.4,220.3,1496.1,221.4,1494.6,222.5z"/>
	<path class="st3" d="M1741.6,344.2c-0.8,0.5-1.6,0.9-2.4,1.4c2.1,1.9,4.2,3.7,6.2,5.6c6.9,6.7,7.9,14.3-0.6,20.4
		c-3.1,2.2-6.7,3.8-10,5.7c-7.9,4.7-15.9,9.4-23.8,14.2c-6.5,3.9-12.9,7.9-19.4,11.7c-10.6,6.2-21.3,12.2-31.9,18.4
		c-6.5,3.8-12.9,8-19.4,11.8c-12.6,7.4-25.3,14.6-37.9,22c-17.4,10.2-34.9,20.4-52.3,30.7c-23,13.6-46,27.1-68.9,40.7
		c-15.4,9.1-30.8,18.5-46.2,27.6c-18.9,11.1-37.9,22-56.7,33.1c-6.8,4-14.1,6.5-21.9,6.2c-7.7-0.3-15.1-2.3-21.9-6.1
		c-11.6-6.5-23.1-13.1-34.6-19.7c-15.1-8.5-30.1-17-45.2-25.5c-16.9-9.5-33.9-18.9-50.8-28.5c-6.8-3.9-13.6-7.8-20.2-12
		c-4.7-3-6.7-8.3-5.7-12.8c1.4-6,6.3-11.1,11.4-11.8c-0.3-0.4-0.7-0.8-1-1.2c-0.6-0.1-1.1-0.1-1.7-0.2c-1.2,0.1-2.4,0.1-3.5,0.2
		c-0.8,1.1-1.6,2.3-2.5,3.2c-8.1,7.8-8,16.8,0.4,23.9c3.3,2.8,7.3,4.7,11.1,6.8c6.8,3.7,13.8,7.2,20.6,11
		c10.9,6.2,21.8,12.6,32.7,18.9c6.9,4,13.8,8,20.6,12.1c6.4,3.8,12.6,7.9,19.1,11.6c7.3,4.2,14.8,8.1,22.2,12.2
		c8.9,4.9,17.6,10.2,26.6,14.8c4.2,2.2,8.9,3.8,13.6,4.7c4.9,0.9,10.1,1.2,15.1,0.7c4.8-0.5,9.9-1.6,14.1-3.9
		c13-6.9,25.6-14.5,38.4-21.9c15-8.7,29.9-17.5,44.8-26.3c17-10.1,33.9-20.4,50.9-30.5c16-9.5,32.1-18.8,48.1-28.2
		c11.3-6.6,22.4-13.4,33.7-20c15.1-8.8,30.2-17.5,45.3-26.3c6.2-3.6,12.2-7.5,18.4-11.2c13.4-8,26.8-15.8,40.1-23.8
		c9.3-5.6,18.4-11.6,27.7-17.3c8.7-5.3,17.5-10.4,26.1-15.8c5.2-3.3,6.3-10.9,2.7-15.9C1749.6,350.8,1746.4,346.6,1741.6,344.2z"/>
	<path class="st4" d="M1741.6,344.2c4.7,2.5,7.9,6.6,11,10.8c3.7,5,2.6,12.6-2.7,15.9c-8.6,5.5-17.4,10.5-26.1,15.8
		c-9.3,5.7-18.4,11.7-27.7,17.3c-13.3,8-26.8,15.8-40.1,23.8c-6.2,3.7-12.2,7.6-18.4,11.2c-15.1,8.8-30.2,17.5-45.3,26.3
		c-11.3,6.6-22.4,13.4-33.7,20c-16,9.4-32.1,18.7-48.1,28.2c-17,10.1-33.9,20.4-50.9,30.5c-14.9,8.9-29.8,17.6-44.8,26.3
		c-12.7,7.4-25.4,15-38.4,21.9c-4.2,2.3-9.3,3.4-14.1,3.9c-5,0.5-10.2,0.3-15.1-0.7c-4.7-0.9-9.3-2.5-13.6-4.7
		c-9-4.6-17.8-9.9-26.6-14.8c-7.4-4.1-14.8-8-22.2-12.2c-6.4-3.7-12.7-7.8-19.1-11.6c-6.8-4.1-13.7-8.1-20.6-12.1
		c-10.9-6.3-21.7-12.7-32.7-18.9c-6.8-3.8-13.7-7.3-20.6-11c-3.8-2.1-7.9-4-11.1-6.8c-8.4-7.2-8.5-16.1-0.4-23.9
		c1-0.9,1.7-2.1,2.5-3.2c-6,0.7-9.4,5-11.3,10.1c-2.1,5.7-0.8,11.5,3.6,15.4c5.2,4.5,11,8.4,16.9,12c17.4,10.5,35,20.7,52.6,30.9
		c18.9,11.1,37.8,22.1,56.8,33.1c9.3,5.4,18.4,11.4,28,16.2c16.8,8.4,33.9,9.4,50.7-0.4c12.4-7.2,24.5-14.9,36.8-22.3
		c13.3-7.9,26.8-15.5,40.1-23.5c11.2-6.7,22.2-13.8,33.5-20.5c14.9-8.8,30-17.3,44.9-26.1c9.8-5.8,19.5-11.9,29.4-17.6
		c13.1-7.7,26.3-15.1,39.4-22.7c11.2-6.6,22.2-13.5,33.4-20.1c6.9-4.1,13.8-8,20.7-12.1c8.5-5,16.9-10.1,25.4-15.2
		c14-8.4,28-16.7,42.1-25.1c8.6-5.1,17.3-10.1,25.9-15.3c11.6-7,10-17.7,1.2-25.7c-2.3-2.1-4.8-3.9-7.2-5.8
		C1744.7,342.4,1743.2,343.3,1741.6,344.2z"/>
	<path class="st5" d="M1491.4,235.7c-6.5,3.8-13,7.5-19.4,11.5c-1,0.6-1.4,2.1-2,3.2c20.5,11.8,40.9,23.5,61.5,35.2
		c1,0.6,3,0,4.2-0.7c3.4-2,6.6-4.3,9.9-6.5c0.5-0.3,1-0.6,1.5-0.9c0.5-0.2,1.1-0.5,1.6-0.7c0.5-0.2,1.1-0.5,1.6-0.7
		c1.8-1.6,3.6-3.1,5.4-4.7c-16.8-9.5-33.6-19-50.4-28.4C1500.7,240.4,1496.1,238.1,1491.4,235.7z"/>
	<path class="st6" d="M1545.6,278.3c-3.3,2.2-6.5,4.5-9.9,6.5c-1.2,0.7-3.2,1.3-4.2,0.7c-20.5-11.6-41-23.4-61.5-35.2
		c-0.4,1.2-0.9,2.4-1.3,3.6c21.3,12.2,42.6,24.3,63.6,36.2c-4.4,11.2-8.5,21.8-12.6,32.4c-1.1,2.9-2,5.9-3.1,8.8
		c-1.4,2.4-2.7,4.7-4.1,7.1c0,12.3,0,24.6,0,36.9c1.6-0.2,3.2-0.4,4.7-0.6c0.2,0.1,0.5,0.2,0.7,0.3c0.5-0.9,1-1.7,1.5-2.6
		c1.6-3,3.3-6,4.9-9l0.1,0c0.6-0.5,1.1-1,1.7-1.5l0,0.1c0.3-0.3,0.6-0.5,0.9-0.8c0,0,0,0,0,0c4.3-3.1,8.5-2.8,11.5,0.9
		c0,0,0.1,0.1,0.1,0.1c0.2,0.2,0.4,0.5,0.6,0.7c0.5,0.2,1,0.4,1.5,0.7c0.4-1.8,0.7-3.6,1.1-5.4c-0.8-0.8-1.6-1.6-2.4-2.4
		c-0.2-0.8-0.3-1.6-0.5-2.5c0-11.8,0-23.6,0-35.4c0-0.3,0-0.7,0-1c0-8.6,0-17.3,0-25.9c0-0.3,0-0.7,0-1c0-0.5,0-0.9,0-1.4
		c0.1-0.3,0.3-0.6,0.4-1c0.5-1.8-0.2-4.6,3.1-4.4c1.1-0.9,2.3-1.9,3.4-2.8c0-0.7,0-1.4,0-2.1L1545.6,278.3z M1525.6,329.7
		c2.9-1.9,5.8-3.7,8.8-5.6c0.2,0.4,0.4,0.7,0.6,1.1c-3,1.7-6,3.3-9,5c-2.6,1.7-5.3,3.5-7.9,5.2c-0.2-0.4-0.4-0.8-0.7-1.2
		C1520.1,332.7,1522.8,331.2,1525.6,329.7z M1534.9,295.2c0.3-1,0.6-2,0.9-3c0.8,8.3,0.8,16.5,0.7,24.6c0,0.7-0.5,1.4-0.7,2.1
		c-3.2,2-6.4,4-9.6,5.9c-0.8,0.5-1.8,0.4-2.7,0.6c0.1-0.9,0-1.9,0.3-2.7c2.2-5.6,4.4-11.2,6.7-16.8
		C1531.9,302.4,1533.4,298.8,1534.9,295.2z M1512,362.7c2.4-1.8,3.9-3,5.5-3.9c0.2-0.1,1.8,1.7,1.8,1.7c-1.1,1.4-2.2,2.9-3.6,3.9
		C1515.3,364.8,1514,363.7,1512,362.7z M1536.1,324.2c-0.2-0.2-0.3-0.5-0.5-0.7c0.6-0.3,1.3-0.5,1.9-0.8c0.1,0.2,0.2,0.3,0.2,0.5
		C1537.2,323.6,1536.7,323.9,1536.1,324.2z"/>
	<path class="st7" d="M1356,556.9c8.9-1,17.4-3.2,24.8-8.7c-0.1-0.2-0.3-0.3-0.4-0.5c-5.9,2.1-11.7,4.8-17.8,6.2
		c-8.2,2-16.7,1.9-24.3-2.5c-19.2-11.1-38.2-22.6-57.3-33.9c-32.2-19.1-64.4-38.2-96.6-57.3c-6.3-3.7-7.6-9.5-3.3-15.6
		c1.5-2.2,3.5-4.3,5.6-5.8c4.9-3.4,10-6.4,15.1-9.4c50.4-29.8,100.9-59.6,151.3-89.4c29.2-17.3,58.5-34.5,87.7-51.8
		c5.3-3.1,10.8-6,16.1-8.9l0,0c0.2-0.3,0.4-0.6,0.7-0.9c0-0.5,0.1-1,0.1-1.5c-12.8,7.5-25.7,14.9-38.5,22.4
		c-77,45.5-154,91-230.9,136.5c-1.8,1.1-3.6,2.1-5.2,3.3c-5.1,3.9-8.2,9-8.3,15.7c2.3,2.1,4.4,4.5,6.9,6.3c5,3.4,10.2,6.4,15.4,9.5
		c9.9,5.8,19.8,11.6,29.6,17.5c33.2,19.7,66.4,39.2,99.6,59C1335.6,552.6,1344.7,558.3,1356,556.9z"/>
	<path class="st8" d="M1491.4,235.7c4.6,2.4,9.3,4.7,13.9,7.2c16.8,9.4,33.6,18.9,50.4,28.4c0-3.4,0.1-6.8,0.1-10.2
		c-18.6-10.8-37.3-21.5-55.8-32.4c-2.3-1.4-6-1.5-5.9-5.6c-0.5,0.1-1,0.3-1.5,0.4c-0.3,0.2-0.5,0.3-0.8,0.5
		C1491.7,227.8,1491.6,231.7,1491.4,235.7z M1504.7,237.8c-5.7,0-8.8-3.2-7-7.6C1499.9,232.9,1505.3,232.2,1504.7,237.8z
		 M1546.7,263.6c-6.7-2.2-7.9-3.7-6.3-7.7C1546.9,258,1547.9,259.3,1546.7,263.6z"/>
	<path class="st9" d="M1457.8,276.8c0,0.5-0.1,1-0.1,1.5c-0.2,0.3-0.4,0.6-0.7,0.9l0,0c-1.6,4.7-3.1,9.4-4.7,14c1.1,1,2.1,2.3,3.4,3
		c5.3,3.2,10.7,6.2,16,9.3c14.9,8.6,29.9,17.2,44.8,25.8c1-2.9,1.9-5.9,3.1-8.8c4.1-10.6,8.3-21.2,12.6-32.4
		c-20.9-11.9-42.3-24.1-63.6-36.2c-3.4,7.4-6.8,14.9-10.2,22.3C1458.3,276.4,1458,276.6,1457.8,276.8L1457.8,276.8z M1488.6,268.2
		c3.5,2,7,4.1,10.5,6.1c10.1,5.7,20.2,11.4,30.4,17.2c-0.8,1.8-1.4,3.1-2,4.4c-1.9,4.2-3.8,8.4-5.7,12.6c-2.2,6.3-4.3,12.5-6.6,19.2
		c-10.1-5.9-19.9-11.7-29.8-17.5c-7.3-4.2-14.5-8.4-21.8-12.6c-1.6-0.8-3.1-1.7-4.8-2.4c-2.5-1-3.1-2.5-2.1-5.2
		c1.8-4.6,3.3-9.3,5-13.9c0.8-2.1,1.7-4.2,2.5-6.3c1.8-4,3.6-8,5.6-12.6C1476.3,261,1482.5,264.6,1488.6,268.2z"/>
	<path class="st7" d="M1636.5,224c-0.1,1-0.1,2-0.2,3c1.1,0.3,2.2,0.5,3.2,1.1c7.9,4.6,15.7,9.3,23.5,14c9,5.4,18,10.9,27,16.4
		c1.6,0.8,3.2,1.6,4.8,2.5c21.9,13,43.7,26,65.6,38.9c9.2,5.4,10.2,14.1,1.5,20.7c-6.9,5.2-14.5,9.4-21.8,14
		c-5.8,3.6-11.6,7.2-17.4,10.8c0.1,0.2,0.3,0.3,0.4,0.5c14-8.4,28-16.7,41.8-25.3c2.6-1.6,4.3-4.8,6.5-7.2
		c0.5-5.7-1.3-10.3-6.4-13.3C1722.3,274.7,1679.4,249.4,1636.5,224z"/>
	<path class="st10" d="M1197.1,470.5c-5.1-3.2-10.4-6.1-15.4-9.5c-2.5-1.7-4.6-4.1-6.9-6.3c-1.1,8.6,1.3,15.5,9.5,19.4
		c0.9,0.4,1.7,1.1,2.5,1.7c0.6,0.1,1.1,0.1,1.7,0.2C1191.4,474.3,1194.2,472.4,1197.1,470.5z"/>
	<path class="st5" d="M1491.8,223.9c0.3-0.2,0.5-0.3,0.8-0.5C1492.3,223.5,1492.1,223.7,1491.8,223.9z"/>
	<path class="st7" d="M1457.8,276.8c0.2-0.2,0.5-0.4,0.7-0.6C1458.3,276.4,1458,276.6,1457.8,276.8z"/>
	<path class="st11" d="M1727.6,352.4c-16.6,9.8-33.2,19.5-49.7,29.3c-100.3,59.4-200.5,118.8-300.8,178.3
		c-6.6,3.9-13.6,6.8-21.3,7.4c-9,1.2-17.6,0.3-25.4-5.1c-3.8-2.6-8-4.7-12-7.1c-2.8,3.2-6,1-8.3-0.1c-14.2-6.5-28.3-13.3-42.3-20.4
		c-11.1-5.6-22-11.6-32.9-17.6c-12-6.7-23.8-13.5-35.5-20.7c-4.9-3-6.1-5.8-3.4-8.6c1.4-1.4,3.5-2.1,5.3-3.2c-1.3-0.9-2.7-1.7-4-2.6
		c-1.1,1.1-2.1,2.2-3.3,3.2c-4.4,3.6-4.4,8.2,0.4,11.2c7.3,4.6,14.7,9,22.2,13.2c12.8,7.3,25.7,14.6,38.6,21.8
		c8.5,4.7,17.1,9.3,25.6,14c0.9,0.5,1.4,1.7,2,2.5c0.3,0,0.5,0,0.8,0c0.5,0,1,0,1.5,0c0.5,0.5,1,1,1.5,1.6c0.5,0,1,0,1.5,0
		c0.5,0.5,1,1.1,1.5,1.6c0.5,0,1,0,1.5,0c1.3,1,2.6,2.1,3.9,3.1c0.5,0,1,0,1.5,0c0.5,0.5,1,1.1,1.5,1.6c0.3,0,0.5,0,0.8,0
		c4,1.5,8.1,2.9,12,4.6c10.5,4.6,20.9,9.3,31.3,14c7.7,3.5,15.1,3.1,22.1-1.9c5.3-3.8,10.7-7.6,16.3-10.9c5.7-3.4,11.7-6.2,17.5-9.3
		c3.6-1.9,7-4,10.5-6.1c4.3-2.5,8.5-5.2,12.8-7.7c7.2-4.2,14.4-8.3,21.6-12.3c2.6-1.5,5.9-2.1,8-4.2c5.9-5.8,13.5-8.2,20.3-12.3
		c5.2-3.2,10.7-6,16-9.1c2.4-1.4,4.6-3,7-4.4c8.1-4.7,16.2-9.4,24.3-14.2c5-3,9.7-6.3,14.8-9.1c12.4-7,25-13.6,37.3-20.7
		c14.7-8.4,29.1-17.2,43.7-25.7c14.6-8.5,29.4-16.8,44-25.3c11.1-6.5,22-13.2,33.1-19.8c10.7-6.3,21.6-12.5,32.3-18.9
		C1729,359.6,1729.2,358.4,1727.6,352.4z"/>
	<path class="st12" d="M1189.5,477.4c-5.1,0.7-10,5.7-11.4,11.8c-1.1,4.5,1,9.8,5.7,12.8c6.6,4.2,13.4,8.2,20.2,12
		c16.9,9.5,33.9,19,50.8,28.5c15.1,8.5,30.2,17,45.2,25.5c11.5,6.5,23,13.2,34.6,19.7c6.8,3.8,14.3,5.8,21.9,6.1
		c7.8,0.3,15.1-2.1,21.9-6.2c18.8-11.1,37.9-22,56.7-33.1c15.5-9.1,30.8-18.4,46.2-27.6c22.9-13.6,45.9-27.2,68.9-40.7
		c17.4-10.3,34.8-20.5,52.3-30.7c12.6-7.4,25.3-14.6,37.9-22c6.5-3.8,12.9-8,19.4-11.8c10.6-6.2,21.3-12.2,31.9-18.4
		c6.5-3.8,12.9-7.8,19.4-11.7c7.9-4.8,15.8-9.5,23.8-14.2c3.3-2,6.9-3.5,10-5.7c8.5-6.1,7.5-13.7,0.6-20.4c-2-1.9-4.1-3.7-6.2-5.6
		c-0.5,0.5-1.1,1-1.6,1.6c0.8,1.3,1.6,2.7,2.4,4c0.5,0.5,1,1.1,1.5,1.6c1.3,1.3,3,2.3,4,3.9c3.1,5,1.5,10.1-3.2,11.2l0,0
		c-1.5,1.1-3.1,2.1-4.6,3.2c0,0,0,0,0,0c-3.6,2.1-7.2,4.2-10.8,6.3c0,0,0,0,0,0c-2.7,3.7-6.3,5.9-10.8,6.3h0c-1,1.1-1.9,2.4-3.2,3.1
		c-15.5,9.2-31,18.4-46.6,27.5c-0.7,0.4-1.8,0.2-2.7,0.3c-1,0.5-2,1-3.1,1.6c-3.6,4.5-8.5,7.1-13.9,8.7h0c-0.3,0.5-0.5,1.3-0.9,1.6
		c-5.9,3.6-11.8,7.2-17.7,10.6c-0.8,0.5-2,0.3-2.9,0.5c0,0,0,0,0,0c-0.5,0.7-0.9,1.6-1.6,2c-4.1,2.4-8.2,4.8-12.3,7.2
		c-16.2,9.4-32.4,18.9-48.5,28.4c-16,9.4-31.9,19-47.8,28.4c-13.3,7.8-26.6,15.5-39.8,23.3c-8.5,5-17,10.1-25.6,15.1
		c-15.1,8.8-30.2,17.6-45.3,26.4c-10.6,6.2-21.1,12.7-31.8,18.8c-5.6,3.2-11.7,4.7-18.1,3.8c-1.8-0.3-3.5-1.5-5.2-2.3
		c-1.3,0-2.6,0-3.8,0c-2.6-0.8-5.4-1.3-7.8-2.6c-3-1.7-5.6-4-8.4-6.1c-0.5,0-1,0-1.5,0c-2-0.7-4.2-1.1-6.1-2.1
		c-4.9-2.6-9.6-5.4-14.5-8.1c-7.8-4.2-15.6-8.2-23.4-12.5c-8.5-4.7-16.8-9.8-25.3-14.6c-6.5-3.7-13.2-7.3-19.7-11.1
		c-7.5-4.4-14.9-9-22.4-13.4c-9.5-5.6-19.2-10.8-28.5-16.7c-4.8-3.1-8.4-8.7-4.5-14.7c1.9-3,4.7-5.4,7-8.1
		C1190,478,1189.7,477.7,1189.5,477.4z"/>
	<path class="st13" d="M1189.5,477.4c0.3,0.3,0.5,0.6,0.8,0.9c1,0.5,2.1,1,3.1,1.5c0.5,0.3,1,0.6,1.5,0.9c0.8,0.5,1.6,1,2.4,1.5
		c1.3,0.9,2.7,1.7,4,2.6c1.1,0.6,2.3,1.1,3.4,1.7c11.8,7.1,23.7,14.3,35.5,21.5c12.2,7.4,24.4,15,36.6,22.4
		c13.9,8.4,27.8,16.7,41.7,25c4,2.3,8.2,4.5,12,7.1c7.8,5.4,16.4,6.3,25.4,5.1c0.1-3.5,0.1-7.1,0.2-10.6
		c-11.4,1.4-20.5-4.3-29.7-9.8c-33.1-19.8-66.4-39.4-99.6-59c-9.9-5.8-19.8-11.7-29.6-17.5c-2.9,1.9-5.7,3.7-8.6,5.6
		C1188.8,476.5,1189.2,476.9,1189.5,477.4z"/>
	<path class="st14" d="M1727.6,352.4c1.6,5.9,1.3,7.2-3.9,10.3c-10.7,6.4-21.6,12.6-32.3,18.9c-11.1,6.5-22,13.3-33.1,19.8
		c-14.6,8.5-29.4,16.8-44,25.3c-14.6,8.5-29.1,17.3-43.7,25.7c-12.3,7.1-24.9,13.7-37.3,20.7c-5,2.8-9.8,6.2-14.8,9.1
		c-8,4.8-16.2,9.4-24.3,14.2c-2.4,1.4-4.6,3-7,4.4c-5.3,3.1-10.7,6-16,9.1c-6.8,4.1-14.4,6.5-20.3,12.3c-2.1,2-5.4,2.7-8,4.2
		c-7.2,4.1-14.4,8.2-21.6,12.3c-4.3,2.5-8.5,5.2-12.8,7.7c-3.5,2.1-7,4.2-10.5,6.1c-5.8,3.1-11.8,5.9-17.5,9.3
		c-5.6,3.3-11,7.1-16.3,10.9c-7.1,5-14.4,5.4-22.1,1.9c-10.4-4.7-20.8-9.4-31.3-14c-3.9-1.7-8-3.1-12-4.6c0.3,0.5,0.5,1.1,0.8,1.6
		c1.3,1.1,2.6,2.1,3.9,3.2c0.5,0,1,0,1.5,0c1.3,0.8,2.6,1.6,3.9,2.4c3.3,1.3,6.7,2.6,10,4c4.7,2.2,9.4,4.3,14,6.6
		c0.3,0.2,0.4,0.9,0.6,1.3c0.5,0,1,0,1.5,0c1.4,0.5,3,0.7,4.2,1.4c8.2,4.9,16.7,5,24.8,0.6c10.7-5.8,21-12.5,31.5-18.7
		c14.4-8.5,28.9-16.9,43.3-25.4c14.8-8.7,29.6-17.3,44.4-25.9c23.9-13.9,47.9-27.8,71.8-41.7c20.3-11.8,40.5-23.6,60.8-35.3
		c13.5-7.8,26.9-15.6,40.4-23.5c13.3-7.8,26.6-15.8,39.9-23.6c10.6-6.3,21.3-12.4,31.9-18.8c5.3-3.2,5.5-4.4,3.1-9.9
		c-0.1-0.3,0.3-0.9,0.4-1.3c-0.3-0.3-0.6-0.6-0.9-0.8C1729.7,352.1,1728.7,352.3,1727.6,352.4z"/>
	<path class="st15" d="M1730.7,351.9c0.3,0.3,0.6,0.6,0.9,0.8c0.5,0,1,0,1.5,0c4.1,0.2,5.3,3.7,5.9,6.7c0.3,1.6-1.5,4.3-3.1,5.5
		c-4.3,3.2-9,5.9-13.7,8.7c-13.2,7.9-26.5,15.8-39.8,23.6c-12.7,7.5-25.5,14.9-38.3,22.4c-11.1,6.5-22.2,13-33.3,19.5
		c-12,7-24.1,14-36.1,21.1c-12,7.1-23.9,14.3-35.9,21.3c-13.7,7.9-27.5,15.6-41.1,23.5c-17.6,10.3-35.1,21-52.7,31.4
		c-18.8,11.1-37.7,22.2-56.6,33.2c-8.2,4.8-16.5,9.6-25.1,13.6c-3.6,1.7-8.3,2.2-12.3,1.6c-4.9-0.8-9.5-3.5-14.2-5.4
		c-2.6-1-5.2-1.9-7.9-2.9c3.6,2.1,7.2,4.3,10.8,6.3c3.3,1.9,6.7,3.7,10.1,5.5c1.3,0,2.6,0,3.8,0c0.2-0.4,0.4-0.8,0.6-1.2
		c0.3,0.4,0.6,0.8,1,1.2c1.3,0,2.6,0,3.8,0c2.8-0.8,5.7-1.6,8.5-2.4c0.5,0,1,0,1.5,0c4.6-2.9,9.3-5.8,13.9-8.7c0.3,0,0.5,0,0.8,0
		c0.3-0.7,0.5-1.6,1-2c10.3-6.2,20.5-12.2,30.8-18.3c15.1-8.9,30.2-17.9,45.3-26.7c4.7-2.8,9.7-5.1,14.6-7.6c0.3,0,0.5,0,0.8,0
		c2.4-1.8,4.6-3.8,7.2-5.3c4.5-2.6,9.1-4.9,13.7-7.3c0.3,0,0.5,0,0.8,0c1.2-1.1,2.2-2.5,3.5-3.3c12-7.3,24-14.5,36-21.6
		c11.4-6.8,22.9-13.5,34.3-20.2c13.5-7.9,27.1-15.7,40.6-23.6c11-6.5,21.8-13.2,32.7-19.6c13.5-8,27.1-15.8,40.6-23.7
		c10.5-6.2,21.1-12.4,31.6-18.6c6.7-3.9,13.4-7.7,19.9-11.9c6-3.8,6.4-8,1.6-13.5c-1-1.1-1.7-2.5-2.6-3.8c-0.7-0.6-1.4-1.1-2.1-1.7
		C1733,349.7,1731.8,350.8,1730.7,351.9z"/>
	<path class="st7" d="M1532,458.9c11.9-6.9,23.8-13.8,35.7-20.8c5.1-3,10.1-6.2,15.2-9.2c-0.1-0.2-0.3-0.3-0.4-0.5
		c-1.5,0.7-3.1,1.2-4.6,2c-10.7,6.3-21.4,12.6-32,19c-4.8,2.9-9.6,6-14.4,9C1531.7,458.6,1531.9,458.7,1532,458.9z"/>
	<path class="st7" d="M1491.9,482.6c13.4-7.9,26.7-15.8,40.1-23.7c-0.1-0.2-0.3-0.3-0.4-0.5c-1.4,0.6-2.9,1.1-4.2,1.9
		c-7.4,4.4-14.9,8.8-22.2,13.3c-4.6,2.8-9.1,5.7-13.7,8.6C1491.6,482.3,1491.8,482.4,1491.9,482.6z"/>
	<path class="st7" d="M1426.3,521.3c11.6-6.8,23.2-13.7,34.7-20.5c-0.2-0.2-0.3-0.4-0.5-0.6c-6.8,3.9-13.6,7.7-20.4,11.7
		c-4.8,2.9-9.5,6-14.2,9C1426.1,521.1,1426.2,521.2,1426.3,521.3z"/>
	<path class="st7" d="M1461.1,500.8c8.5-5,17-10,25.4-15c-0.1-0.2-0.3-0.3-0.4-0.5c-8.5,5-17,10-25.5,15
		C1460.7,500.4,1460.9,500.6,1461.1,500.8z"/>
	<path class="st7" d="M1683.2,369.5c8.5-5,17-10,25.5-15c-0.1-0.2-0.3-0.3-0.4-0.5c-2.8,1.5-5.8,2.8-8.5,4.5
		c-5.7,3.4-11.3,7.1-16.9,10.6C1682.9,369.2,1683,369.4,1683.2,369.5z"/>
	<path class="st7" d="M1628.4,401.9c8-4.7,16-9.5,24-14.2c-0.1-0.2-0.3-0.3-0.4-0.5c-2.8,1.5-5.7,2.8-8.4,4.4
		c-5.2,3.2-10.3,6.5-15.5,9.8C1628.1,401.6,1628.2,401.8,1628.4,401.9z"/>
	<path class="st7" d="M1406.3,533.2c6.7-4,13.4-7.9,20.1-11.9c-0.1-0.1-0.2-0.3-0.4-0.4c-6.7,3.9-13.4,7.9-20.1,11.8
		C1406,532.9,1406.1,533,1406.3,533.2z"/>
	<path class="st7" d="M1612.2,411.4c5.4-3.2,10.8-6.4,16.2-9.5c-0.1-0.2-0.3-0.3-0.4-0.5c-5.4,3.2-10.8,6.3-16.2,9.5
		C1611.9,411.1,1612.1,411.3,1612.2,411.4z"/>
	<path class="st7" d="M1652.3,387.7c5.2-3.1,10.4-6.2,15.6-9.3c-0.2-0.2-0.3-0.4-0.5-0.6c-5.2,3.1-10.4,6.2-15.5,9.4
		C1652.1,387.4,1652.2,387.6,1652.3,387.7z"/>
	<path class="st7" d="M1391,542.1c5.1-3,10.2-5.9,15.2-8.9c-0.1-0.2-0.3-0.3-0.4-0.5c-5.1,2.9-10.2,5.9-15.3,8.8
		C1390.7,541.7,1390.9,541.9,1391,542.1z"/>
	<path class="st7" d="M1667.9,378.5c5.1-3,10.2-6,15.2-8.9c-0.1-0.1-0.3-0.3-0.4-0.4c-5.1,2.9-10.2,5.9-15.3,8.8
		C1667.6,378.1,1667.8,378.3,1667.9,378.5z"/>
	<path class="st7" d="M1582.9,428.8c4.9-2.9,9.8-5.8,14.7-8.7c-0.2-0.2-0.3-0.3-0.5-0.5c-4.9,2.9-9.8,5.8-14.6,8.7
		C1582.6,428.5,1582.8,428.7,1582.9,428.8z"/>
	<path class="st7" d="M1597.6,420.1c4.9-2.9,9.8-5.8,14.6-8.7c-0.2-0.2-0.3-0.3-0.4-0.5c-4.9,2.9-9.8,5.8-14.7,8.7
		C1597.3,419.8,1597.4,420,1597.6,420.1z"/>
	<path class="st7" d="M1708.6,354.5c4.9-2.9,9.8-5.8,14.6-8.7c-0.1-0.2-0.3-0.3-0.4-0.5c-4.9,2.9-9.8,5.8-14.6,8.7
		C1708.3,354.2,1708.5,354.3,1708.6,354.5z"/>
	<path class="st7" d="M1380.8,548.2c3.4-2.1,6.8-4.1,10.2-6.2c-0.2-0.2-0.3-0.3-0.5-0.5c-3.4,2.1-6.8,4.1-10.2,6.2
		C1380.5,547.9,1380.7,548.1,1380.8,548.2z"/>
	<path class="st16" d="M1734.2,348.6c0.7,0.6,1.4,1.1,2.1,1.7c1.3,0.3,2.6,0.5,3.9,0.8c-0.8-1.3-1.6-2.7-2.4-4
		C1736.5,347.6,1735.3,348.1,1734.2,348.6z"/>
	<path class="st7" d="M1486.5,485.8c1.8-1.1,3.6-2.1,5.4-3.2c-0.1-0.2-0.3-0.3-0.4-0.5c-1.8,1.1-3.6,2.1-5.4,3.2
		C1486.2,485.4,1486.4,485.6,1486.5,485.8z"/>
	<path class="st6" d="M1555.8,261.1c0,3.4-0.1,6.8-0.1,10.2c-1.8,1.6-3.6,3.1-5.4,4.7l0,0.1c4.4-1.1,5.4-0.3,5.4,4.6
		c0,20.8,0,41.6,0,62.4c0,1.4-0.5,2.7-0.7,4.1c0-0.5-0.1-1.1-0.1-1.6c0-7.9,0-15.8,0-23.7c0-2.9,0-5.8,0-8.7c0-0.8,0-1.6,0-2.4
		c-0.2-1.4-0.5-2.8-0.7-4.1c-0.2,0.1-0.4,0.2-0.6,0.2c-0.1,0.3-0.1,0.6-0.2,0.9c-1.9,2.1-3.7,4.2-5.6,6.3c-0.7,0.2-1.3,0.5-2,0.7
		l0.1,0c-3,2-4.7,1.1-4.7-2.8c-0.1-7.3,0-14.6,0.1-21.9c0-1,0.8-2,1.2-2.9c-0.2-0.6-0.3-1.2-0.5-1.8c-0.5,1.4-1.4,2.8-1.4,4.2
		c-0.1,21,0,42.1-0.1,63.1c0,3,0.9,4.5,4,4.1c0,0-0.1,0-0.1,0c0.5-0.3,1.1-0.5,1.6-0.8l0,0c2.4-1.3,4.7-2.7,7.1-4
		c1.2-0.6,2.5-1.2,3.7-1.9c10.3-6.2,20.7-12.4,31-18.6c0-15.7,0-31.4,0-47c0.2,0,0.4,0,0.5,0c0,15.6,0,31.2,0,46.8
		c6.4-3.7,12.9-7.3,19.3-11c1-2.9,1.9-5.9,2.9-8.8l-0.1,0c1.1-1.6,2.1-3.2,3.2-4.7l0,0.1c0.3-0.3,0.6-0.6,0.8-0.9l0,0.1
		c0.3-0.3,0.6-0.7,0.9-1c6.6-5.8,11.3-4.9,14.6,2.7c1-0.1,2-0.1,3-0.2c0.8-1,1.7-2,2.5-3c-0.2-4.7-0.6-9.5-0.7-14.2
		c-0.1-14.2-0.1-28.5,0-42.7c0.1-9.7,0.4-19.4,0.6-29.1c0-0.8-0.2-1.5-0.4-3.2C1608.1,230.7,1582,245.9,1555.8,261.1z M1626.2,232.8
		c-0.3,0.1-0.5,0.2-0.8,0.3c0.1-0.2,0.3-0.4,0.4-0.6c0.6-0.4,1.2-0.8,1.9-1.2c0.1,0.2,0.2,0.5,0.3,0.7
		C1627.4,232.2,1626.8,232.5,1626.2,232.8z M1600.3,274.2c0.3-0.1,0.5-0.2,0.8-0.3c-0.1,0.2-0.3,0.5-0.4,0.7c-1,0.6-2,1.1-3,1.7
		c-0.5,0.3-1,0.6-1.5,0.9c-1.3,0.8-2.6,1.6-3.9,2.4c-2.7,1.8-5.5,3.6-8.2,5.4c-0.2-0.4-0.4-0.8-0.7-1.2c2.8-1.6,5.7-3.2,8.5-4.7
		c1.3-0.8,2.6-1.6,3.9-2.3c0.5-0.3,1-0.6,1.5-0.9C1598.2,275.3,1599.2,274.8,1600.3,274.2z M1618.7,263.1c0.7-0.5,1.4-1.1,2.2-1.6
		c0.2,0.2,0.3,0.5,0.5,0.7c-0.7,0.4-1.5,0.9-2.2,1.3c-1.3,0.8-2.6,1.6-3.9,2.3c-2.8,1.6-5.6,3.2-8.4,4.9c-0.3,0.2-0.6,0.4-0.9,0.7
		c-1.2,0.8-2.4,1.5-3.6,2.3c-0.2-0.3-0.3-0.6-0.5-1c1.2-0.6,2.4-1.1,3.6-1.7c0.3-0.2,0.6-0.4,0.9-0.6c2.8-1.6,5.5-3.2,8.3-4.9
		C1616.1,264.7,1617.4,263.9,1618.7,263.1z M1615.4,239.1c-1.1,0.7-2.2,1.5-3.3,2.2c-3.3,1.9-6.6,3.8-9.9,5.8
		c-4.4,2.6-8.7,5.3-13.1,7.9c-4.7,2.8-9.4,5.6-14.1,8.5c-2.6,1.7-5.1,3.3-7.7,5c-0.2-0.4-0.4-0.8-0.6-1.2c2.7-1.4,5.3-2.9,8-4.3
		c4.7-2.8,9.4-5.6,14.1-8.5c4.4-2.6,8.7-5.3,13.1-7.9c3.3-1.9,6.5-3.8,9.8-5.7c1.1-0.7,2.2-1.5,3.3-2.2c1.2-0.8,2.4-1.5,3.6-2.3
		c0.2,0.3,0.3,0.6,0.5,1C1617.9,238,1616.7,238.6,1615.4,239.1z M1569.9,292.9c-0.9,0.7-1.7,1.4-2.6,2.1c-0.2-0.3-0.4-0.7-0.6-1
		c0.9-0.5,1.9-1,2.8-1.5c1.5-0.9,3-1.7,4.5-2.6c2.7-1.8,5.4-3.6,8.1-5.4c0.2,0.4,0.4,0.8,0.7,1.1c-2.8,1.6-5.6,3.2-8.4,4.7
		C1572.9,291.2,1571.4,292,1569.9,292.9z M1576.6,266.5c2.3-1.9,4.5-3.8,6.8-5.7c0.3,0.2,0.6,0.5,0.9,0.7c0,4.2,0,8.4,0,12.6
		c0,6.6-0.4,7.1-7.6,9.6C1576.6,277.8,1576.6,272.2,1576.6,266.5c-0.8,5.4-1.6,10.9-2.5,16.4c-0.3,1.5-1.2,2.9-1.8,4.4
		c-1.5-4.9-2.3-9.2-3.1-13.6c-0.4-2.2-0.9-4.5,2.3-5.3c0.2,0.5,0.3,1,0.4,1.5c0.1,0.4,0.3,0.8,0.6,1.7
		C1573.1,266.5,1573.4,266.3,1576.6,266.5z M1592.5,257.7c-0.2,0-0.4,0-0.6,0c0,4.3,0,8.6,0,12.9c0,5.2-0.8,6.1-7.3,7.8
		c1.6-3.1,2.9-5.5,4.4-8.4c-1.7,0.1-2.5,0.2-4.3,0.3c1.5-2.7,2.6-4.9,4.1-7.5c-1.6,0-2.5,0-3.4,0c0.3-3.4,5.2-7.1,10.3-8.1
		c0.1,2.1,0.3,4.2,0.4,6.9c1.8-9.1,1.8-9.1,4.2-9.8c-0.5,5.3-1.2,10.5-1.3,15.6c-0.1,3.3-1.4,5-4.8,5.7
		C1593.6,268,1593,262.9,1592.5,257.7z M1627.5,235.5c0,5.7,0,11.1,0,16.5c0,2-3.8,5.7-5.3,4.8c-1.2-0.7-1.9-2.9-2.3-4.5
		c-0.4-1.9,0.1-3.9-0.1-5.9C1619.3,240.7,1621.9,237.3,1627.5,235.5z M1618.9,240c0,5.5,0,10.1,0,14.6c0,5.2-1.1,6.6-7.5,7.8
		c1.3-1.9,2-3.3,2.9-4.4c1.3-1.5,2-2.6-0.4-3.9c-0.5-0.3-0.7-3.1-0.2-3.5c3.7-2.8,1.1-3.4-1.3-4.2
		C1612.2,242.5,1615.9,242.4,1618.9,240z M1604.9,267c0.2-1.4,0.1-3,0.6-3.3c3.7-2,2.5-5.4,2.6-8.4c0.1-2.2-0.2-4.5,0.1-6.7
		c0.2-1.2,1.3-2.3,1.9-3.4c0.4,0.2,0.7,0.4,1.1,0.6c0,4.2-0.4,8.4,0.1,12.6C1611.9,263.2,1609.8,265.7,1604.9,267z M1602.5,269.2
		c-0.4-0.2-0.8-0.3-1.2-0.5c0-5.7-0.1-11.4,0.1-17.2c0-0.8,1.4-1.6,3-3.2c0,6.7,0.1,12.2-0.1,17.7
		C1604.2,267.2,1603.1,268.2,1602.5,269.2z M1623.8,233.3c0.2,0.3,0.5,0.6,0.7,0.9c-1.4,0.8-2.8,1.6-4.3,2.4
		c-0.1-0.3-0.3-0.5-0.4-0.8C1621.1,235,1622.4,234.1,1623.8,233.3z"/>
	<path class="st17" d="M1636.3,270.8c0,8.6,0,17.2,0,25.8c3.3,1.5,6.5,3,9.8,4.4c2.6,0.9,5.1,1.8,7.7,2.7c5.6,3.1,11.5,5.8,16.7,9.5
		c4.2,3,7.6,7.1,11.2,10.8c3.7,3.8,7.8,4.7,12.5,2.2c3.2-1.7,6.5-3.1,9.6-5c11.2-6.8,22.4-13.8,33.6-20.7c-3.4-2.1-6.8-4.3-10.2-6.3
		c-15.3-9.2-30.6-18.3-45.8-27.5c-1.8-1-3.5-2.1-5.3-3.1c-4.6-2.6-9.2-5.2-13.7-7.8c-5.9,3-11.8,6-17.6,9.2
		C1641.7,266.6,1639,268.8,1636.3,270.8z"/>
	<path class="st18" d="M1662.3,255.7c4.6,2.6,9.2,5.2,13.7,7.8c1-4.4,4.2-5.5,7.9-5.6c2-0.1,4,0.5,6,0.8l0.2-0.2
		c-9-5.5-18-10.9-27-16.4c-7.8-4.7-15.7-9.4-23.5-14c-1-0.6-2.1-0.7-3.2-1.1c0,1.3,0.1,2.5,0.1,3.8c3.1,1.5,1.7,2.8-0.1,4.1
		c0,1.6,0,3.3,0.1,4.9c0,0,0.2,0.1,0.2,0.1l-0.1,0.2c0.2,0.3,0.3,0.5,0.5,0.8c3,1.8,6,3.5,9,5.3
		C1651.4,249.4,1656.9,252.5,1662.3,255.7z M1675.2,257.1c-1.3,0.2-2.6,0.8-3.4,0.4c-8.7-5-17.3-10.1-26-15.3
		c-0.6-0.4-0.8-1.5-1.1-2.2c0.9-0.2,2-0.7,2.6-0.4c1.4,0.7,2.6,1.9,4,2.8c1,0.6,3.1,0.8,3.1,1.3c0.2,3.1,3.3,2,4.7,3.6
		c1.1,1.4,3.8,1.4,5.5,2.5C1668.1,251.9,1671.3,254.3,1675.2,257.1z"/>
	<path class="st3" d="M1662.3,255.7c-5.4-3.2-10.8-6.4-16.3-9.5c-3.3,2.2-6.7,4.3-10,6.5c0.1,6,0.2,12.1,0.3,18.1
		c2.8-2,5.5-4.2,8.4-5.9C1650.4,261.7,1656.4,258.8,1662.3,255.7z"/>
	<path class="st19" d="M1636.2,299.7c0.4,1.2,0.9,2.5,1.3,3.7c0.8,0.9,1.7,1.7,2.5,2.6c0.9,0.8,2.8,1.8,2.7,2.2
		c-0.7,2.3-1.3,5.2-2.9,6.6c-3.3,2.9-7.3,5.1-11.1,7.4c-1.3,0.8-2.8,1.2-4.1,1.7c1,0.1,2,0.1,3,0.2c1-0.1,2.1-0.1,3.1-0.2
		c0.2-0.3,0.2-0.9,0.5-1c4.3-2.5,8.8-4.5,12.7-7.4c5.4-4,4.7-10.5-1.2-13.5C1640.6,301,1638.3,300.5,1636.2,299.7z"/>
	<path class="st20" d="M1636.2,299.7c2.2,0.8,4.4,1.3,6.5,2.3c5.9,3,6.6,9.5,1.2,13.5c-3.9,2.9-8.5,5-12.7,7.4
		c-0.3,0.2-0.3,0.7-0.5,1c2,0.1,4.1,0.1,6.1,0.2c0.5-0.5,1-1,1.5-1.6c1.8-1.5,3.6-3.2,5.6-4.4c7-4.1,8.7-8.3,5.2-14.1
		c-0.8-1.2-2-2.2-3-3.3c-3.3-1.5-6.5-3-9.8-4.4C1636.2,297.6,1636.2,298.7,1636.2,299.7z"/>
	<path class="st9" d="M1636,252.7c3.3-2.2,6.7-4.3,10-6.5c-3-1.8-6-3.5-9-5.3C1636.7,244.8,1636.3,248.8,1636,252.7z"/>
	<path class="st13" d="M1639.9,306.1c-0.8-0.9-1.7-1.7-2.5-2.6c-0.7,0.4-1.5,0.7-2.2,1.1c-0.8,1-1.7,2-2.5,3
		c1.1,0.8,2.2,1.6,3.3,2.5C1637.3,308.7,1638.6,307.4,1639.9,306.1z"/>
	<path class="st7" d="M1636.4,235c1.8-1.3,3.2-2.7,0.1-4.1C1636.4,232.2,1636.4,233.6,1636.4,235z"/>
	<polygon class="st7" points="1636.5,240.1 1636.6,240 1636.4,239.9 1636.3,240.1 	"/>
	<path class="st6" d="M1548.7,276.7c-0.5,0.2-1.1,0.5-1.6,0.7c0.1,0.1,0.2,0.2,0.3,0.3c0.5-0.3,1-0.6,1.5-0.9L1548.7,276.7z"/>
	<path class="st6" d="M1550.3,276c-0.5,0.2-1,0.5-1.6,0.7c0,0,0.1,0.1,0.1,0.1c0.5,0,1-0.1,1.5-0.1
		C1550.3,276.5,1550.4,276.3,1550.3,276L1550.3,276z"/>
	<path class="st6" d="M1547.1,277.4c-0.5,0.3-1,0.6-1.5,0.9c0,0,0.3,0.3,0.3,0.3c0.5-0.3,1-0.5,1.5-0.8
		C1547.3,277.6,1547.2,277.5,1547.1,277.4z"/>
	<path class="st8" d="M1512.5,375.4c0-12.3,0-24.6,0-36.9c-1.5-0.4-3.1-0.4-4.3-1.1c-19.9-11.4-39.8-22.9-59.6-34.4
		c0,1.5,0,2.9-0.1,4.4c-0.2,5.6-0.4,11.2-0.6,16.8c0,4.4,0,8.8,0.1,13.3c0.9,1,1.7,2.3,2.9,2.9c18.5,10.8,37.1,21.5,55.6,32.2
		C1508.4,373.6,1510.5,374.4,1512.5,375.4z M1460.1,330.6L1460.1,330.6c3.1,1.3,5.1,5,3.5,7.2c-2.1,2.8-4.6,1.9-7,0
		c-0.5-0.8-1.1-1.7-1.6-2.5c-0.8-1.6-1.9-3.1-2.1-4.8c-0.1-0.6,1.7-2.4,2.4-2.3C1457,328.6,1458.5,329.8,1460.1,330.6z
		 M1497.3,358.9c-2.1-1.9-3.4-4.2-1.4-6.7c2-2.4,4.5-1.2,6.5,0.3c1.3,1.1,2.8,2.6,3.3,4.1c0.5,1.5,0.4,4.1-0.5,4.8
		c-1,0.8-3.2,0-4.9-0.2C1499.3,360.6,1498.3,359.8,1497.3,358.9z M1487.4,342.9c-0.1,0.1-0.2,0.2-0.4,0.4c0.5,0.5,0.9,1.1,1.4,1.6
		c-0.5,0.2-1,0.5-1.4,0.7c0.4,0.7,0.9,1.4,1.4,2.1c-0.7,0.1-1.4,0.1-2.1,0.2c0.7,0.8,1.5,1.6,2.2,2.4c-0.1,0.1-0.2,0.3-0.3,0.4
		c-1.1-0.5-2.2-0.9-3.3-1.4c-0.2,0.2-0.3,0.4-0.5,0.6c1.4,0.9,2.8,1.9,4.2,2.8c-0.2,0.3-0.3,0.5-0.5,0.8
		c-6.4-3.6-12.8-7.2-19.1-10.8c0.2-0.3,0.3-0.6,0.5-1c1.2,0.5,2.4,1.1,3.6,1.6c0.2-0.2,0.3-0.4,0.5-0.6c-1.5-1-3-2-4.5-2.9
		c0.1-0.2,0.2-0.4,0.3-0.6c1,0.3,2.1,0.5,3.1,0.8c-1-1-2-2-3.3-3.2c1.1,0.1,1.8,0.1,2.4,0.1c-0.8-0.9-1.7-1.8-2.6-2.9
		c0.8-0.1,1.3-0.2,1.9-0.3c-0.5-0.8-1.1-1.5-1.6-2.3c0.2-0.2,0.3-0.3,0.5-0.5c2.6,1.5,5.1,3.1,7.7,4.6c3.3,1.8,6.7,3.6,10,5.5
		C1487.7,341.3,1487.4,342.3,1487.4,342.9z"/>
	<path class="st5" d="M1448.5,302.9c19.9,11.5,39.7,23,59.6,34.4c1.3,0.7,2.9,0.8,4.3,1.1c1.4-2.4,2.7-4.7,4.1-7.1
		c-14.9-8.6-29.9-17.2-44.8-25.8c-5.3-3.1-10.7-6.1-16-9.3c-1.3-0.8-2.2-2-3.4-3c-0.5,0.3-0.9,0.6-1.4,0.9c-0.3,1.3-0.5,2.5-0.9,3.8
		C1449.7,299.6,1449.1,301.2,1448.5,302.9z"/>
	<path class="st10" d="M1512.5,375.4c-2-1-4.2-1.8-6.1-2.9c-18.6-10.7-37.1-21.4-55.6-32.2c-1.1-0.7-1.9-1.9-2.9-2.9
		c-3.1,1.1-3.6,3.5-3.1,6.4c1.2,0.8,2.3,1.6,3.5,2.4c1.8,1.1,3.5,2.2,5.3,3.3c10.4,6,20.8,12,31.1,18c3.4,2,6.7,3.9,10.1,5.9
		c1.3,0.6,2.5,1.2,3.8,1.8c4.2,2.2,8.3,4.4,12.5,6.7c0.2-4.1,3.2-5.5,6.2-7.1C1515.7,375,1514.1,375.2,1512.5,375.4z"/>
	<path class="st21" d="M1587.5,331.4c-10.3,6.2-20.7,12.4-31,18.6c-1.2,0.7-2.5,1.3-3.7,1.9c-2.4,1.3-4.7,2.7-7.1,4l0,0
		c-0.5,0.3-1.1,0.5-1.6,0.8l0.1,0c-0.8,0.5-1.6,1.1-2.3,1.6c-0.4,1.8-0.7,3.6-1.1,5.4c1.7-0.8,3.5-1.4,5.2-2.3c6-3.4,12-6.9,18-10.4
		c12.4-7.4,24.7-14.7,37.1-22.1c2.1-1.3,4.2-2.6,6.3-3.9c0-1.6-0.1-3.2-0.1-4.8c-6.4,3.7-12.9,7.3-19.3,11
		C1587.9,331.3,1587.7,331.4,1587.5,331.4z"/>
	<path class="st13" d="M1519.5,372.5c-0.5,0.9-1,1.7-1.5,2.6c0.2,2.8,0.4,5.7,0.7,8.5c0.6,0.4,1.2,0.9,1.8,1.3
		c4.3,2.3,7.7,0.8,10.7-2.5c0.5-0.6,1.1-1.3,1.6-1.9l-0.1,0c0.3-0.3,0.5-0.6,0.8-0.9l0,0.1c0.7-1.4,1.5-2.7,2.2-4.1
		c0.5-1.3,1-2.6,1.5-3.9c0.2-2.4,0.4-4.7,0.7-7.1c-0.3-0.9-0.6-1.7-0.9-2.6c-3.1-2.7-6.5-1.3-9.9-0.7c0,0,0,0,0,0
		c-0.3,0.3-0.6,0.5-0.9,0.8c0,0,0-0.1,0-0.1c-0.6,0.5-1.1,1-1.7,1.5c0,0-0.1,0-0.1,0C1522.8,366.5,1521.2,369.5,1519.5,372.5z
		 M1529.4,367.7c0.5-0.4,1-0.9,1.5-1.3c0.3,0.5,0.7,0.9,1,1.4c0.4,0.5,0.7,1,1.1,1.5c1.7,3.9-3,11.4-6.8,10.8
		c-1.5-0.2-3.4-0.8-2.1-3.2C1523.8,372.1,1525.3,369.5,1529.4,367.7z"/>
	<path class="st7" d="M1537,362.1c0.3,0.9,0.6,1.7,0.9,2.6c0,2.3,0,4.7,0,7c1.1-0.2,2.4-0.1,3.3-0.6c5.8-3.4,11.4-6.9,17.2-10.3
		c1.5-0.9,3.3-1.2,4.9-1.8c0.1-0.7,0.1-1.5,0.2-2.2c0.2-1.9,0.4-3.8,0.6-5.7c-6,3.5-12,7-18,10.4c-1.6,0.9-3.5,1.5-5.2,2.3
		c-0.5-0.2-1-0.4-1.5-0.7c-0.2-0.2-0.4-0.5-0.6-0.7c0,0-0.1-0.1-0.1-0.1C1538.1,362.2,1537.5,362.2,1537,362.1z"/>
	<path class="st22" d="M1530.4,306c-2.2,5.6-4.5,11.2-6.7,16.8c-0.3,0.8-0.2,1.8-0.3,2.7c0.9-0.2,2-0.2,2.7-0.6
		c3.3-1.9,6.4-3.9,9.6-5.9c-0.1-5.1-0.2-10.2-0.3-15.3C1533.8,304.4,1532.1,305.2,1530.4,306z"/>
	<path class="st5" d="M1541.9,358.3c0.8-0.5,1.6-1.1,2.3-1.6c-3.1,0.4-4-1.1-4-4.1c0.1-21,0-42.1,0.1-63.1c0-1.4,0.9-2.8,1.4-4.2
		c0.3-0.6,0.5-1.2,0.8-1.8c-3.3-0.2-2.5,2.5-3.1,4.4c-0.1,0.3-0.3,0.6-0.4,1c0,0.5,0,0.9,0,1.4c0,0.3,0,0.7,0,1c0,8.6,0,17.3,0,25.9
		c0,0.3,0,0.7,0,1c0,11.8,0,23.6,0,35.4c0.2,0.8,0.3,1.6,0.5,2.5C1540.3,356.7,1541.1,357.5,1541.9,358.3z"/>
	<path class="st14" d="M1542.5,283.5c-0.3,0.6-0.5,1.2-0.8,1.8c0.2,0.6,0.3,1.2,0.5,1.8c-0.1,2.1-0.3,4.2-0.4,6.3
		c3.8-4.4,7.6-8.7,11.4-13.1c-1.8-0.2-3.5-0.4-5.3-0.5c-0.7,0.3-1.4,0.6-2.1,0.9C1544.8,281.6,1543.6,282.6,1542.5,283.5z"/>
	<path class="st18" d="M1518.6,383.6c-0.2-2.8-0.4-5.7-0.7-8.5c-0.2-0.1-0.5-0.2-0.7-0.3c-3,1.5-6,3-6.2,7.1
		C1513.6,382.4,1516.1,383,1518.6,383.6z"/>
	<path class="st21" d="M1512,362.7c2,1,3.3,2.1,3.6,1.8c1.4-1.1,2.5-2.5,3.6-3.9c0.1-0.1-1.5-1.9-1.8-1.7
		C1515.9,359.7,1514.4,361,1512,362.7z"/>
	<path class="st11" d="M1530.4,306c1.7-0.8,3.4-1.6,5.1-2.4c-0.2-2.8-0.4-5.6-0.6-8.4C1533.4,298.8,1531.9,302.4,1530.4,306z"/>
	<path class="st13" d="M1534.9,295.2c0.2,2.8,0.4,5.6,0.6,8.4c0.1,5.1,0.2,10.2,0.3,15.3c0.3-0.7,0.7-1.4,0.7-2.1
		c0.1-8.1,0-16.3-0.7-24.6C1535.5,293.3,1535.2,294.3,1534.9,295.2z"/>
	<path class="st18" d="M1537,362.1c0.6,0.1,1.1,0.1,1.7,0.2c-3.1-3.7-7.2-4.1-11.5-0.9C1530.5,360.9,1533.9,359.4,1537,362.1z"/>
	<path class="st5" d="M1525.6,329.7c-2.7,1.5-5.5,3-8.2,4.5c0.2,0.4,0.4,0.8,0.7,1.2c2.6-1.7,5.3-3.5,7.9-5.2
		C1525.8,330,1525.7,329.8,1525.6,329.7z"/>
	<path class="st18" d="M1519.5,372.5c1.7-3,3.3-6,5-9C1522.8,366.5,1521.2,369.5,1519.5,372.5z"/>
	<path class="st5" d="M1525.9,330.2c3-1.7,6-3.3,9-5c-0.2-0.4-0.4-0.7-0.6-1.1c-2.9,1.9-5.8,3.7-8.8,5.6
		C1525.7,329.8,1525.8,330,1525.9,330.2z"/>
	<path class="st5" d="M1545.9,280.7c0.7-0.3,1.4-0.6,2.1-0.9c0.8-1,1.6-2,2.3-2.9c0,0-0.1-0.1-0.1-0.1c-0.5,0-1,0.1-1.5,0.1
		c-0.5,0.3-1,0.6-1.5,0.9c-0.5,0.3-1,0.5-1.5,0.8C1545.9,279.3,1545.9,280,1545.9,280.7z"/>
	<path class="st5" d="M1536.1,324.2c0.5-0.3,1.1-0.7,1.6-1c-0.1-0.2-0.2-0.3-0.2-0.5c-0.6,0.3-1.3,0.5-1.9,0.8
		C1535.8,323.7,1536,324,1536.1,324.2z"/>
	<path class="st8" d="M1539.5,355.9c-0.2-0.8-0.3-1.6-0.5-2.5C1539.2,354.3,1539.3,355.1,1539.5,355.9z"/>
	<path class="st18" d="M1524.6,363.5c0.6-0.5,1.1-1,1.7-1.5C1525.7,362.5,1525.2,363,1524.6,363.5z"/>
	<path class="st8" d="M1539,318.1c0-0.3,0-0.7,0-1C1539,317.4,1539,317.7,1539,318.1z"/>
	<path class="st8" d="M1539,291.2c0-0.3,0-0.7,0-1C1539,290.5,1539,290.8,1539,291.2z"/>
	<path class="st18" d="M1538.7,362.4c0.2,0.2,0.4,0.5,0.6,0.7C1539.2,362.8,1539,362.6,1538.7,362.4z"/>
	<path class="st8" d="M1539,288.8c0.1-0.3,0.3-0.6,0.4-1C1539.3,288.2,1539.1,288.5,1539,288.8z"/>
	<path class="st18" d="M1526.3,362.1c0.3-0.3,0.6-0.5,0.9-0.8C1526.9,361.6,1526.6,361.8,1526.3,362.1z"/>
	<path class="st18" d="M1451.1,294.1c0.5-0.3,0.9-0.6,1.4-0.9c1.6-4.7,3.1-9.4,4.7-14c-5.4,3-10.8,5.8-16.1,8.9
		c-29.3,17.2-58.5,34.5-87.7,51.8c-50.5,29.8-100.9,59.6-151.3,89.4c-5.1,3-10.2,6-15.1,9.4c-2.2,1.5-4.1,3.6-5.6,5.8
		c-4.3,6.1-3,11.9,3.3,15.6c32.2,19.1,64.4,38.2,96.6,57.3c19.1,11.3,38.1,22.8,57.3,33.9c7.6,4.4,16.1,4.4,24.3,2.5
		c6.1-1.4,11.8-4.1,17.8-6.2c3.4-2.1,6.8-4.1,10.2-6.2c5.1-2.9,10.2-5.9,15.3-8.8c6.7-3.9,13.4-7.9,20.1-11.8c4.7-3,9.4-6.2,14.2-9
		c6.7-4,13.6-7.8,20.4-11.7c8.5-5,17-10,25.5-15c1.8-1.1,3.6-2.1,5.4-3.2c4.5-2.9,9.1-5.8,13.7-8.6c7.4-4.5,14.8-8.9,22.2-13.3
		c1.3-0.8,2.8-1.3,4.2-1.9c4.8-3,9.5-6.1,14.4-9c10.6-6.4,21.3-12.7,32-19c1.4-0.8,3-1.4,4.6-2c4.9-2.9,9.7-5.8,14.6-8.7
		c4.9-2.9,9.8-5.8,14.7-8.7c5.4-3.2,10.8-6.3,16.2-9.5c5.2-3.3,10.3-6.6,15.5-9.8c2.7-1.6,5.6-3,8.4-4.4c5.2-3.1,10.4-6.3,15.5-9.4
		c5.1-2.9,10.2-5.9,15.3-8.8c5.6-3.5,11.2-7.2,16.9-10.6c2.7-1.7,5.7-3,8.5-4.5c4.9-2.9,9.8-5.8,14.6-8.7
		c5.8-3.6,11.6-7.2,17.4-10.8c7.3-4.6,14.9-8.8,21.8-14c8.7-6.5,7.7-15.2-1.5-20.7c-21.9-12.9-43.7-25.9-65.6-38.9
		c-1.5-0.9-3.2-1.7-4.8-2.5c0,0-0.2,0.2-0.2,0.2c1.4,3.2,0.3,5.2-2.7,6.3c-1.9,0.7-3.9,1.1-5.9,1.7c15.3,9.2,30.6,18.3,45.8,27.5
		c3.4,2.1,6.8,4.2,10.2,6.3c4.5,2.6,9,5,13.4,7.7c3.1,1.9,3.4,4.9,1,7.7c-1.5,1.7-3.4,3.2-5.4,4.4c-24.2,14.4-48.4,28.7-72.7,43
		c-26.4,15.6-52.7,31.1-79.1,46.6c-6.2,3.7-12.4,7.3-18.6,11c-16.7,9.9-33.5,19.9-50.2,29.8c-1.5,0.9-3.1,1.6-4.6,2.4
		c-5.9,3.5-11.7,7-17.6,10.5c-3.3,2-6.7,4-10,5.9c-3.9,2.3-7.8,4.6-11.7,6.9c-2.3,1.3-4.7,2.7-7,4c-5.9,3.6-11.8,7.1-17.8,10.7
		c-10.5,6.1-21,12.3-31.4,18.4c-6,3.6-12,7.2-18,10.8c-13,7.7-25.9,15.6-39,23c-5.8,3.3-12.4,4.6-18.5,1.1
		c-20.5-11.9-40.9-24.2-61.3-36.4c-4-2.4-8-4.8-12-7.2c-15.9-9.4-31.8-18.7-47.6-28.1c-10.5-6.2-21.1-12.5-31.6-18.8
		c-5.1-3.1-5.5-6.7-1.1-10.5c1.5-1.3,3.5-2.2,5.2-3.3c4-2.3,7.9-4.7,11.9-7c0.7-0.5,1.4-1.1,2.2-1.5
		c53.4-31.6,106.9-63.2,160.3-94.8c2.2-1.3,4.5-2.4,6.8-3.7c12.4-7.5,24.8-14.9,37.3-22.4c0.7-0.4,1.6-0.6,2.4-0.9
		c4.9-3,9.8-6.1,14.8-9.1C1441.9,298.7,1446.5,296.4,1451.1,294.1z M1695.3,272.9c-0.3-1.1-0.6-2.2-0.9-3.2c2.2-0.6,4.4-1.5,6.7-1.6
		c0.8,0,1.8,1.7,2.7,2.7c-1,0.7-2,1.4-3,2.2C1699,272.9,1697.1,272.9,1695.3,272.9z"/>
	<path class="st18" d="M1457.1,279.3c0.2-0.3,0.4-0.6,0.7-0.9C1457.5,278.7,1457.3,279,1457.1,279.3z"/>
	<path class="st23" d="M1504.7,237.8c0.6-5.6-4.8-4.9-7-7.6C1495.9,234.6,1499,237.8,1504.7,237.8z"/>
	<path class="st12" d="M1546.7,263.6c1.1-4.3,0.1-5.5-6.3-7.7C1538.8,259.9,1540,261.4,1546.7,263.6z"/>
	<path class="st24" d="M1461.7,276c-1.6,4.6-3.2,9.3-5,13.9c-1.1,2.7-0.4,4.1,2.1,5.2c1.6,0.7,3.2,1.6,4.8,2.4
		c8.8-0.3,17.6-0.7,26.4-0.9c12.5-0.3,25-0.5,37.5-0.7c0.6-1.3,1.2-2.5,2-4.4c-10.2-5.8-20.3-11.5-30.4-17.2
		C1486.6,274.9,1474.2,275.5,1461.7,276z"/>
	<path class="st23" d="M1527.5,295.9c-12.5,0.2-25,0.4-37.5,0.7c-8.8,0.2-17.6,0.6-26.4,0.9c7.3,4.2,14.5,8.4,21.8,12.6
		c12.1-0.6,24.3-1.1,36.4-1.7C1523.7,304.3,1525.6,300.1,1527.5,295.9z"/>
	<path class="st24" d="M1521.7,308.5c-12.1,0.6-24.3,1.1-36.4,1.7c9.9,5.8,19.7,11.6,29.8,17.5
		C1517.4,321,1519.6,314.7,1521.7,308.5z"/>
	<path class="st23" d="M1461.7,276c12.5-0.6,24.9-1.1,37.4-1.7c-3.5-2-7-4.1-10.5-6.1c-0.6,0.4-1.2,1.2-1.7,1.2
		c-7.6,0.2-15.1,0.2-22.7,0.3C1463.4,271.8,1462.5,273.9,1461.7,276z"/>
	<path class="st24" d="M1464.2,269.7c7.6-0.1,15.1-0.1,22.7-0.3c0.6,0,1.2-0.8,1.7-1.2c-6.2-3.6-12.3-7.3-18.8-11.1
		C1467.8,261.7,1466,265.7,1464.2,269.7z"/>
	<path class="st25" d="M1318.4,555.3c-13.9-8.3-27.8-16.6-41.7-25c-12.2-7.4-24.4-14.9-36.6-22.4c-11.8-7.2-23.6-14.3-35.5-21.5
		c-1.1-0.7-2.3-1.1-3.4-1.7c-1.8,1-3.9,1.7-5.3,3.2c-2.7,2.8-1.6,5.6,3.4,8.6c11.7,7.1,23.6,14,35.5,20.7
		c10.9,6.1,21.8,12,32.9,17.6c14,7.1,28.1,13.8,42.3,20.4C1312.4,556.2,1315.6,558.5,1318.4,555.3z"/>
	<path class="st14" d="M1197.2,482.1c-0.8-0.5-1.6-1-2.4-1.5c-0.9,1.3-1.6,2.9-2.8,3.9c-2.6,2.3-4.2,4.9-3.4,8.5
		c0.4,1.6,1.4,2.9,2.2,4.4c1.8,1.3,3.6,2.6,5.4,3.9c0.5,0,1,0,1.5,0c0.5,0.5,1,1,1.6,1.6c0.8,0.3,1.5,0.5,2.3,0.8
		c4.1,2.6,8.2,5.3,12.3,7.9c0.8,0.3,1.5,0.5,2.3,0.8c1,0.8,2.1,1.6,3.1,2.4c0.5,0,1,0,1.5,0c2.1,1.6,4.1,3.2,6.2,4.7
		c0.8,0.3,1.5,0.5,2.3,0.8c2.3,1.3,4.6,2.6,6.9,4c0.3,0,0.5,0,0.8,0c0.8,0.5,1.5,1,2.3,1.6c0.3,0,0.5,0,0.8,0
		c4.6,2.5,9.3,4.8,13.8,7.4c2.7,1.5,5.2,3.5,7.8,5.2c3.9,1.8,7.9,3.6,11.8,5.4c3,1.4,6,2.7,9,4.1c-0.7-0.9-1.2-2.1-2-2.5
		c-8.5-4.7-17.1-9.3-25.6-14c-12.9-7.2-25.8-14.4-38.6-21.8c-7.5-4.3-14.9-8.6-22.2-13.2c-4.8-3-4.8-7.6-0.4-11.2
		C1195.1,484.3,1196.1,483.2,1197.2,482.1z"/>
	<path class="st19" d="M1282.7,548c-3-1.4-6-2.7-9-4.1c-3.9-1.8-7.9-3.6-11.8-5.4c0,0,0,0,0,0c0.3,0.8,0.5,1.6,0.8,2.4
		c0.8,0.3,1.5,0.5,2.3,0.8c1,0.4,2.1,0.6,3.1,1.1c5.2,2.7,10.3,5.6,15.4,8.3c0-1.1,0-2.1,0-3.2C1283.2,548.1,1283,548,1282.7,548z"
		/>
	<path class="st26" d="M1283.5,548.1c0,1.1,0,2.1,0,3.2c0.5,0,1,0,1.5,0c2.1,0.8,4.1,1.6,6.2,2.4c0-0.8,0-1.6,0-2.4
		c-0.5,0-1,0-1.5,0c-0.5-0.5-1-1.1-1.5-1.6c-0.5,0-1,0-1.5,0c-0.5-0.5-1-1-1.5-1.6C1284.5,548.1,1284,548.1,1283.5,548.1z"/>
	<path class="st26" d="M1299.7,557.5c-0.3-0.5-0.5-1.1-0.8-1.6c-0.3,0-0.5,0-0.8,0c-0.5-0.5-1-1.1-1.5-1.6c-0.5,0-1,0-1.5,0
		c-0.3,0-0.5,0-0.8,0C1294.9,557.5,1297.3,557.5,1299.7,557.5L1299.7,557.5z"/>
	<path class="st14" d="M1294.3,554.4c0.3,0,0.5,0,0.8,0c-1.3-1-2.6-2.1-3.9-3.1c0,0.8,0,1.6,0,2.4
		C1292.2,553.8,1293.3,554.1,1294.3,554.4z"/>
	<path class="st14" d="M1296.6,554.4c0.5,0.5,1,1.1,1.5,1.6C1297.6,555.4,1297.1,554.9,1296.6,554.4z"/>
	<path class="st14" d="M1285,548.1c0.5,0.5,1,1,1.5,1.6C1286.1,549.1,1285.5,548.6,1285,548.1z"/>
	<path class="st14" d="M1288.1,549.6c0.5,0.5,1,1.1,1.5,1.6C1289.1,550.7,1288.6,550.2,1288.1,549.6z"/>
	<path class="st20" d="M1740.1,351.2c-1.3-0.3-2.6-0.5-3.9-0.8c0.8,1.3,1.6,2.6,2.6,3.8c4.8,5.5,4.4,9.7-1.6,13.5
		c-6.5,4.1-13.3,7.9-19.9,11.9c-10.5,6.2-21,12.4-31.6,18.6c-13.5,7.9-27.1,15.7-40.6,23.7c-10.9,6.5-21.8,13.2-32.7,19.6
		c-13.5,8-27.1,15.7-40.6,23.6c-11.5,6.7-22.9,13.4-34.3,20.2c-12,7.1-24,14.3-36,21.6c-1.3,0.8-2.4,2.2-3.5,3.3
		c4.5-2.4,9.1-4.6,13.5-7.1c16.1-9.3,32.2-18.7,48.2-28.2c15-8.9,29.9-18.2,45-27c6.6-3.9,13.7-7,20.5-10.4c0,0,0,0,0,0
		c7.2-4.2,14.4-8.4,21.6-12.7c0,0,0,0,0,0c4.6-2.9,9.3-5.8,13.9-8.7c1-0.5,2-1,3.1-1.6c0.6-0.6,1.2-1.3,2-1.8
		c10.6-6.3,21.3-12.6,32-18.8c6.1-3.5,12.3-6.9,18.5-10.3c0,0,0,0,0,0c3.6-2.1,7.2-4.2,10.8-6.3c0,0,0,0,0,0
		c3.6-2.1,7.2-4.2,10.8-6.3c0,0,0,0,0,0c1.5-1.1,3.1-2.1,4.6-3.2c0,0,0,0,0,0c3.3-5.1,3.3-7.6-0.2-12.8c-0.4-0.6-0.4-1.5-0.6-2.2
		C1741.1,352.2,1740.6,351.7,1740.1,351.2z"/>
	<path class="st16" d="M1625.2,437.4c-6.9,3.5-13.9,6.6-20.5,10.4c-15.1,8.8-30,18-45,27c-16,9.5-32.1,18.9-48.2,28.2
		c-4.4,2.5-9,4.8-13.5,7.1c-0.3,0-0.5,0-0.8,0c-0.3,0.5-0.5,1.3-0.9,1.6c-6.6,3.7-13.3,7.4-19.9,11.1c-0.3,0-0.5,0-0.8,0
		c-0.4,0.6-0.7,1.4-1.3,1.8c-12.7,7.6-25.4,15.2-38.1,22.7c-13.1,7.7-26.1,15.5-39.2,23.1c-4.3,2.5-8.8,4.6-13.2,6.9
		c-0.3,0-0.5,0-0.8,0c-4.6,2.9-9.3,5.8-13.9,8.7c-0.5,0-1,0-1.5,0c-1.9,4.2-5.6,1.7-8.5,2.4c-1.3,0-2.6,0-3.8,0c-0.5,0-1,0-1.6,0
		c-1.3,0-2.6,0-3.8,0c-0.3,0-0.5,0-0.8,0c1.7,0.8,3.4,2,5.2,2.3c6.4,0.9,12.5-0.6,18.1-3.8c10.7-6.1,21.2-12.6,31.8-18.8
		c15.1-8.8,30.2-17.6,45.3-26.4c8.5-5,17-10.1,25.6-15.1c13.3-7.8,26.6-15.5,39.8-23.3c16-9.4,31.9-19,47.8-28.4
		c16.1-9.5,32.4-18.9,48.5-28.4c4.1-2.4,8.2-4.7,12.3-7.2C1624.2,438.9,1624.6,438,1625.2,437.4z"/>
	<path class="st16" d="M1265,541.7c-0.8-0.3-1.5-0.5-2.3-0.8c-2.1-1.3-4.1-2.6-6.2-4c-0.3,0-0.5,0-0.8,0c-2.6-1.6-5.2-3.2-7.7-4.7
		c-0.3,0-0.5,0-0.8,0c-2.3-1.3-4.6-2.6-6.9-4h0c-3.1-1.8-6.2-3.7-9.3-5.5l0,0c-2.3,0.1-4.2-0.4-4.6-3.1c-0.3,0-0.5,0-0.8,0
		c-2.6-1.6-5.2-3.2-7.7-4.7c-0.3,0-0.5,0-0.8,0c-2.6-1.6-5.1-3.2-7.7-4.7l0,0c-1.3-0.8-2.6-1.6-3.9-2.4c-0.3,0-0.5,0-0.8,0
		c-3.3-2.1-6.7-4.2-10-6.3c-0.8-0.3-1.5-0.5-2.3-0.8c-2.1-1.8-4.1-3.7-6.2-5.5c0-0.3,0-0.5,0-0.8c-2.7-2.6-2.2-5.6,1.6-9.5
		c0.3-0.3,0.5-0.5,0.8-0.8c1.3-1.1,2.6-2.1,3.9-3.2c0.3-0.4,0.6-0.7,0.9-1.1c-1-0.5-2.1-1-3.1-1.5c-2.4,2.7-5.1,5.1-7,8.1
		c-3.9,6-0.3,11.7,4.5,14.7c9.3,5.9,19,11.1,28.5,16.7c7.5,4.4,14.9,9.1,22.4,13.4c6.5,3.8,13.1,7.3,19.7,11.1
		c8.4,4.8,16.8,9.9,25.3,14.6c7.7,4.3,15.6,8.3,23.4,12.5c4.9,2.6,9.6,5.5,14.5,8.1c1.9,1,4.1,1.4,6.1,2.1c-1.5-1.6-3.1-3.2-4.6-4.7
		c-0.3,0-0.5,0-0.8,0c-0.8-0.5-1.5-1.1-2.3-1.6c-0.5,0-1,0-1.5,0c-0.5-0.5-1-1-1.6-1.6c-1.3-0.5-2.6-1.1-3.9-1.6
		c-0.5-0.5-1-1.1-1.5-1.6c-0.5,0-1,0-1.5,0c-0.5-0.5-1-1-1.6-1.6c-0.5,0-1,0-1.5,0c-1-0.8-2.1-1.6-3.1-2.4c-0.8-0.3-1.5-0.5-2.3-0.8
		c-0.5-0.5-1-1-1.6-1.6c-0.3,0-0.5,0-0.8,0c-0.8-0.5-1.5-1.1-2.3-1.6c-0.3,0-0.5,0-0.8,0c-1-0.8-2.1-1.6-3.1-2.4
		c-1.8-1.3-3.6-2.6-5.4-4h0c-5.6-2.7-11.2-5.2-16.6-8.1C1268.6,545.2,1266.9,543.3,1265,541.7z"/>
	<path class="st16" d="M1716.2,383.6c-6.2,3.4-12.4,6.8-18.5,10.3c-10.7,6.2-21.3,12.5-32,18.8c-0.7,0.4-1.3,1.2-2,1.8
		c0.9-0.1,2,0.2,2.7-0.3c15.6-9.1,31.1-18.2,46.6-27.5C1714.2,386,1715.1,384.6,1716.2,383.6z"/>
	<path class="st20" d="M1322.8,574.9c1.5,1.6,3.1,3.2,4.6,4.7c0.5,0,1,0,1.5,0c5.3,2.5,10.6,5,15.8,7.6c0.2,0.1,0.3,0.7,0.4,1.1
		c1.3,0,2.6,0,3.8,0c0.3,0,0.5,0,0.8,0c-3.4-1.8-6.7-3.6-10.1-5.5c-3.6-2.1-7.2-4.2-10.8-6.3c-1.5-0.8-3.1-1.6-4.6-2.4
		C1323.9,574.4,1323.3,574.7,1322.8,574.9z"/>
	<path class="st16" d="M1646.8,424.7c-7.2,4.2-14.4,8.4-21.6,12.7c1-0.1,2.1,0,2.9-0.5c5.9-3.5,11.8-7,17.7-10.6
		C1646.3,426,1646.5,425.2,1646.8,424.7z"/>
	<path class="st16" d="M1741.6,352.7c0.2,0.7,0.2,1.6,0.6,2.2c3.4,5.3,3.5,7.8,0.2,12.8c4.7-1,6.3-6.2,3.2-11.2
		C1744.6,355.1,1743,354,1741.6,352.7z"/>
	<path class="st16" d="M1345.2,588.4c-0.1-0.4-0.1-1-0.4-1.1c-5.3-2.6-10.6-5.1-15.8-7.6c2.8,2.1,5.4,4.4,8.4,6.1
		C1339.8,587.1,1342.6,587.5,1345.2,588.4z"/>
	<path class="st16" d="M1660.7,416c-4.6,2.9-9.3,5.8-13.9,8.7C1652.2,423.1,1657,420.6,1660.7,416z"/>
	<path class="st16" d="M1727,377.3c-3.6,2.1-7.2,4.2-10.8,6.3C1720.7,383.1,1724.3,380.9,1727,377.3z"/>
	<path class="st16" d="M1737.8,370.9c-3.6,2.1-7.2,4.2-10.8,6.3C1730.6,375.1,1734.2,373,1737.8,370.9z"/>
	<path class="st16" d="M1742.4,367.8c-1.5,1.1-3.1,2.1-4.6,3.2C1739.3,369.9,1740.9,368.8,1742.4,367.8z"/>
	<path class="st19" d="M1186.3,494.3c0,0.3,0,0.5,0,0.8c1.5,0.8,3.1,1.6,4.6,2.4l0,0c-0.8-1.5-1.8-2.8-2.2-4.4
		c-0.9-3.5,0.7-6.2,3.4-8.5c1.2-1,1.9-2.6,2.8-3.9c-0.5-0.3-1-0.6-1.5-0.9c-0.3,0.4-0.6,0.7-0.9,1.1c-1.3,1.1-2.6,2.1-3.9,3.2
		c-0.3,0.3-0.5,0.5-0.8,0.8C1187.3,488,1186.8,491.1,1186.3,494.3z"/>
	<path class="st26" d="M1733.1,352.7c-0.5,0-1,0-1.5,0c-0.2,0.4-0.6,1-0.4,1.3c2.4,5.5,2.2,6.7-3.1,9.9
		c-10.5,6.4-21.2,12.5-31.9,18.8c-13.3,7.9-26.6,15.8-39.9,23.6c-13.4,7.9-26.9,15.6-40.4,23.5c-20.3,11.8-40.5,23.6-60.8,35.3
		c-23.9,13.9-47.9,27.8-71.8,41.7c-14.8,8.6-29.6,17.3-44.4,25.9c-14.5,8.5-28.9,16.9-43.3,25.4c-10.5,6.2-20.8,12.9-31.5,18.7
		c-8.1,4.4-16.6,4.3-24.8-0.6c-1.2-0.7-2.8-0.9-4.2-1.4c2.8,1.8,5.5,3.9,8.5,5.5c6.5,3.4,13.3,3.8,19.9,0.1
		c15.1-8.6,30.1-17.3,45.1-26c15.8-9.2,31.6-18.5,47.3-27.7c11.3-6.6,22.7-13.2,34.1-19.8c10.1-5.9,20.2-12,30.3-17.9
		c12.8-7.5,25.7-14.8,38.5-22.2c15.5-9,30.9-18.1,46.3-27.2c11.8-6.9,23.5-13.8,35.3-20.7c12.2-7.1,24.5-14.2,36.7-21.4
		c10.2-6,20.4-12,30.7-18c8.2-4.8,16.4-9.8,24.6-14.6c4.9-2.9,5.5-5.5,1.9-9.9C1733.8,354.4,1733.5,353.5,1733.1,352.7z"/>
	<path class="st19" d="M1733.1,352.7c0.4,0.8,0.7,1.7,1.2,2.4c3.6,4.4,3,7-1.9,9.9c-8.2,4.8-16.4,9.7-24.6,14.6
		c-10.2,6-20.4,12-30.7,18c-12.2,7.1-24.5,14.2-36.7,21.4c-11.8,6.9-23.5,13.8-35.3,20.7c-15.4,9.1-30.9,18.2-46.3,27.2
		c-12.8,7.5-25.7,14.8-38.5,22.2c-10.1,5.9-20.2,11.9-30.3,17.9c-11.3,6.6-22.7,13.2-34.1,19.8c-15.8,9.2-31.5,18.5-47.3,27.7
		c-15,8.7-30,17.4-45.1,26c-6.6,3.7-13.3,3.3-19.9-0.1c-3-1.5-5.7-3.6-8.5-5.5c-0.5,0-1,0-1.5,0c-3.6-1.6-7.2-3-10.7-4.8
		c-1.5-0.7-2.7-2.1-4-3.1c-3.3-1.3-6.7-2.6-10-4c-1-0.3-2.1-0.5-3.1-0.8c0,0,0,0,0,0c1.9,1.5,3.8,3.2,5.8,4.5
		c4.2,2.6,8.4,4.9,12.7,7.4c1.5,0.8,3.1,1.6,4.6,2.4c2.6,0.9,5.3,1.9,7.9,2.9c4.7,1.8,9.3,4.5,14.2,5.4c3.9,0.7,8.6,0.1,12.3-1.6
		c8.6-4,16.9-8.8,25.1-13.6c18.9-11,37.7-22.1,56.6-33.2c17.6-10.4,35.1-21,52.7-31.4c13.6-8,27.4-15.6,41.1-23.5
		c12-7,23.9-14.2,35.9-21.3c12-7.1,24-14,36.1-21.1c11.1-6.5,22.2-13,33.3-19.5c12.8-7.5,25.6-14.9,38.3-22.4
		c13.3-7.8,26.5-15.7,39.8-23.6c4.6-2.8,9.3-5.5,13.7-8.7c1.6-1.2,3.4-3.9,3.1-5.5C1738.4,356.5,1737.2,353,1733.1,352.7z"/>
	<path class="st26" d="M1319,567c1.3,1.1,2.5,2.4,4,3.1c3.5,1.7,7.1,3.2,10.7,4.8c-0.2-0.5-0.3-1.2-0.6-1.3
		C1328.3,571.4,1323.7,569.2,1319,567z"/>
	<path class="st26" d="M1303.5,560.7c-1.3-1.1-2.6-2.1-3.9-3.2c0,0,0,0,0,0c0.5,1.1,1,2.1,1.6,3.2c0.5,0,1,0,1.5,0
		C1303,560.7,1303.3,560.7,1303.5,560.7z"/>
	<path class="st26" d="M1305.9,562.3c1,0.3,2.1,0.5,3.1,0.8c-1.3-0.8-2.6-1.6-3.9-2.4C1305.3,561.2,1305.6,561.8,1305.9,562.3z"/>
	<path class="st19" d="M1305.9,562.3c-0.3-0.5-0.5-1.1-0.8-1.6c-0.5,0-1,0-1.5,0c-0.3,0-0.5,0-0.8,0
		C1303.8,561.2,1304.8,561.8,1305.9,562.3L1305.9,562.3z"/>
	<path class="st20" d="M1383.8,577.3c4.4-2.3,8.9-4.4,13.2-6.9c13.1-7.6,26.2-15.4,39.2-23.1c12.7-7.5,25.4-15.1,38.1-22.7
		c0.6-0.3,0.9-1.2,1.3-1.8c-4.9,2.5-9.9,4.9-14.6,7.6c-15.1,8.8-30.2,17.7-45.3,26.7c-10.3,6.1-20.6,12.2-30.8,18.3
		C1384.3,575.7,1384.1,576.6,1383.8,577.3z"/>
	<path class="st20" d="M1476.3,522.7c6.6-3.7,13.3-7.3,19.9-11.1c0.5-0.3,0.6-1,0.9-1.6c-4.6,2.4-9.2,4.7-13.7,7.3
		C1480.9,518.9,1478.7,521,1476.3,522.7z"/>
	<path class="st20" d="M1369.1,586c4.6-2.9,9.3-5.8,13.9-8.7C1378.4,580.2,1373.7,583.1,1369.1,586z"/>
	<path class="st20" d="M1359.1,588.4c2.9-0.7,6.6,1.8,8.5-2.4C1364.7,586.8,1361.9,587.6,1359.1,588.4z"/>
	<path class="st20" d="M1353.7,588.4c0.5,0,1,0,1.6,0c-0.3-0.4-0.6-0.8-1-1.2C1354.1,587.6,1353.9,588,1353.7,588.4z"/>
	<path class="st13" d="M1629.7,307.7c-3.2-7.6-8-8.5-14.6-2.7c-0.3,0.3-0.6,0.7-0.9,1c0,0,0-0.1,0-0.1c-0.3,0.3-0.6,0.6-0.8,0.9
		c0,0,0-0.1,0-0.1c-1.1,1.6-2.1,3.2-3.2,4.7c0,0,0.1,0,0.1,0c-0.2,4.9-0.4,9.7-0.5,14.6c4.7,4.3,8.4,1,12.2-1.8
		c1.8-2.8,3.6-5.6,5.4-8.3c0.3-1.5,0.5-3.1,0.9-4.5C1628.6,310.1,1629.2,308.9,1629.7,307.7z M1613.8,318.6c-0.1-3.8,1.4-7,4.5-9
		c2.1-1.3,4.2-1.5,4.9,1.8c0.7,3.9-1.5,8.5-4.9,10C1615.7,322.5,1613.7,322.2,1613.8,318.6z"/>
	<path class="st27" d="M1592.5,257.7c0.6,5.1,1.1,10.2,1.7,15.5c3.5-0.6,4.8-2.3,4.8-5.7c0.2-5.2,0.9-10.4,1.3-15.6
		c-2.4,0.7-2.4,0.7-4.2,9.8c-0.2-2.8-0.3-4.9-0.4-6.9c-5.2,1-10,4.7-10.3,8.1c0.9,0,1.8,0,3.4,0c-1.4,2.6-2.6,4.8-4.1,7.5
		c1.7-0.1,2.5-0.2,4.3-0.3c-1.6,3-2.8,5.4-4.4,8.4c6.5-1.7,7.3-2.7,7.3-7.8c0-4.3,0-8.6,0-12.9
		C1592,257.8,1592.2,257.8,1592.5,257.7z"/>
	<path class="st22" d="M1553.3,280.3c-3.8,4.4-7.6,8.7-11.4,13.1c0,6.4,0,12.7,0,19.1c3.4-3.8,6.9-7.6,10.4-11.5
		c0.4,2.6,0.7,4.7,1,6.9c0.1-0.3,0.1-0.6,0.2-0.9c0-8.7,0-17.5,0-26.2C1553.5,280.6,1553.4,280.4,1553.3,280.3z"/>
	<path class="st27" d="M1576.6,266.5c0,5.7,0,11.3,0,17.2c7.2-2.5,7.6-3,7.6-9.6c0-4.2,0-8.4,0-12.6c-0.3-0.2-0.6-0.5-0.9-0.7
		C1581.1,262.7,1578.8,264.6,1576.6,266.5L1576.6,266.5z"/>
	<path class="st27" d="M1627.5,235.5c-5.6,1.8-8.2,5.2-7.7,10.9c0.2,1.9-0.3,4,0.1,5.9c0.3,1.7,1,3.9,2.3,4.5
		c1.5,0.8,5.3-2.9,5.3-4.8C1627.6,246.6,1627.5,241.2,1627.5,235.5z M1623.4,241.2c0.2,0,0.4,0,0.6,0c0,3.8,0,7.5,0,11.3
		c-0.2,0-0.4,0-0.6-0.1C1623.4,248.7,1623.4,245,1623.4,241.2z"/>
	<path class="st27" d="M1618.9,240c-3,2.4-6.6,2.5-6.6,6.6c2.4,0.8,5,1.4,1.3,4.2c-0.5,0.4-0.3,3.2,0.2,3.5c2.4,1.2,1.7,2.3,0.4,3.9
		c-0.9,1.1-1.6,2.4-2.9,4.4c6.4-1.2,7.5-2.6,7.5-7.8C1618.9,250.1,1618.9,245.5,1618.9,240z"/>
	<path class="st27" d="M1576.6,266.5c-3.2-0.3-3.4,0-4.1,5.2c-0.3-0.9-0.5-1.3-0.6-1.7c-0.2-0.5-0.3-0.9-0.4-1.5
		c-3.3,0.8-2.7,3.1-2.3,5.3c0.8,4.3,1.6,8.6,3.1,13.6c0.6-1.5,1.5-2.9,1.8-4.4C1575,277.5,1575.8,272,1576.6,266.5
		C1576.6,266.5,1576.6,266.5,1576.6,266.5z"/>
	<path class="st14" d="M1553.3,307.8c-0.3-2.1-0.6-4.3-1-6.9c-3.5,3.9-7,7.7-10.4,11.5c0.1,2.8,2.1,2.4,3.9,2.3c0,0-0.1,0-0.1,0
		c0.7-0.2,1.3-0.5,2-0.7C1549.6,312,1551.5,309.9,1553.3,307.8z"/>
	<path class="st27" d="M1604.9,267c4.9-1.3,7-3.8,6.5-8.6c-0.5-4.2-0.1-8.4-0.1-12.6c-0.4-0.2-0.7-0.4-1.1-0.6
		c-0.7,1.1-1.8,2.2-1.9,3.4c-0.3,2.2,0,4.5-0.1,6.7c-0.1,3,1.1,6.4-2.6,8.4C1605,263.9,1605.1,265.5,1604.9,267z"/>
	<path class="st5" d="M1550.4,276c0,0.2,0,0.5-0.1,0.7c0,0,0.1,0.1,0.1,0.1c3-0.4,4.7,0.8,4.6,4.1c-0.1,10-0.1,20-0.2,29.9
		c0,0.8,0,1.6,0,2.4c0,2.9,0,5.8,0,8.7c0,7.9,0,15.8,0,23.7c0,0.5,0.1,1.1,0.1,1.6c0.3-1.4,0.7-2.7,0.7-4.1c0-20.8,0-41.6,0-62.4
		C1555.7,275.8,1554.8,275,1550.4,276z"/>
	<path class="st5" d="M1587.5,331.4c0.2,0,0.4-0.1,0.5-0.2c0-15.6,0-31.2,0-46.8c-0.2,0-0.4,0-0.5,0
		C1587.5,300,1587.5,315.7,1587.5,331.4z"/>
	<path class="st27" d="M1602.5,269.2c0.6-1,1.7-2,1.8-3c0.2-5.5,0.1-11,0.1-17.7c-1.5,1.6-2.9,2.3-3,3.2c-0.2,5.7-0.1,11.4-0.1,17.2
		C1601.6,268.9,1602.1,269,1602.5,269.2z"/>
	<path class="st25" d="M1629.7,307.7c-0.5,1.2-1,2.4-1.4,3.7c-0.4,1.5-0.6,3-0.9,4.5c3.2,1.6,5.2-1,7.3-2.6c0.8-0.6,0.9-2.2,1.3-3.4
		c-1.1-0.8-2.2-1.6-3.3-2.5C1631.7,307.6,1630.7,307.6,1629.7,307.7z"/>
	<path class="st8" d="M1554.8,310.8c0.1-10,0.1-20,0.2-29.9c0-3.3-1.6-4.5-4.6-4.1c-0.8,1-1.6,2-2.3,2.9c1.8,0.2,3.5,0.4,5.3,0.5
		c0.1,0.1,0.2,0.2,0.2,0.4c0.2,1.2,0.7,2.4,0.7,3.7c0,7.4,0,14.9,0,22.3C1554.4,308.1,1554.6,309.5,1554.8,310.8z"/>
	<path class="st10" d="M1545.8,314.8c-1.8,0.1-3.7,0.5-3.9-2.3c0-6.4,0-12.7,0-19.1c0.1-2.1,0.3-4.2,0.4-6.3c-0.4,1-1.1,1.9-1.2,2.9
		c-0.1,7.3-0.2,14.6-0.1,21.9C1541.1,315.8,1542.8,316.8,1545.8,314.8z"/>
	<path class="st5" d="M1588.8,254.5c-4.7,2.8-9.4,5.6-14.1,8.5c0.1,0.2,0.3,0.3,0.4,0.5c4.7-2.8,9.4-5.6,14.1-8.5
		C1589.1,254.9,1588.9,254.7,1588.8,254.5z"/>
	<path class="st5" d="M1601.9,246.7c-4.4,2.6-8.7,5.3-13.1,7.9c0.1,0.2,0.3,0.3,0.4,0.5c4.4-2.6,8.7-5.3,13.1-7.9
		C1602.2,247,1602.1,246.8,1601.9,246.7z"/>
	<path class="st21" d="M1554.1,306.7c0-7.4,0.1-14.9,0-22.3c0-1.2-0.4-2.4-0.7-3.7c0,8.7,0,17.5,0,26.2
		C1553.7,306.8,1553.9,306.8,1554.1,306.7z"/>
	<path class="st18" d="M1609.8,326c0.2-4.9,0.4-9.7,0.5-14.6c-1,2.9-1.9,5.9-2.9,8.8c0,1.6,0.1,3.2,0.1,4.8
		C1608.2,325.4,1609,325.7,1609.8,326z"/>
	<path class="st5" d="M1611.7,241c-3.3,1.9-6.5,3.8-9.8,5.7c0.1,0.2,0.2,0.3,0.4,0.5c3.3-1.9,6.6-3.8,9.9-5.8
		C1612,241.2,1611.9,241.1,1611.7,241z"/>
	<path class="st5" d="M1574.4,290.4c2.8-1.6,5.6-3.2,8.4-4.7c-0.2-0.4-0.4-0.8-0.7-1.1c-2.7,1.8-5.4,3.6-8.1,5.4
		C1574.1,290.1,1574.2,290.3,1574.4,290.4z"/>
	<path class="st5" d="M1591.9,279.1c-2.8,1.6-5.7,3.2-8.5,4.7c0.2,0.4,0.4,0.8,0.7,1.2c2.7-1.8,5.5-3.6,8.2-5.4
		C1592.1,279.4,1592,279.2,1591.9,279.1z"/>
	<path class="st5" d="M1574.7,263c-2.7,1.4-5.3,2.9-8,4.3c0.2,0.4,0.4,0.8,0.6,1.2c2.6-1.7,5.1-3.3,7.7-5
		C1575,263.3,1574.9,263.2,1574.7,263z"/>
	<path class="st5" d="M1614.8,265.5c-2.8,1.6-5.5,3.2-8.3,4.9c0.1,0.1,0.2,0.2,0.4,0.4c2.8-1.6,5.6-3.2,8.3-4.9
		C1615.1,265.7,1615,265.6,1614.8,265.5z"/>
	<path class="st5" d="M1545.7,355.9c2.4-1.3,4.7-2.7,7.1-4C1550.4,353.3,1548.1,354.6,1545.7,355.9z"/>
	<path class="st5" d="M1623.8,233.3c-1.3,0.9-2.7,1.7-4,2.6c0.1,0.3,0.3,0.5,0.4,0.8c1.4-0.8,2.8-1.6,4.3-2.4
		C1624.2,233.9,1624,233.6,1623.8,233.3z"/>
	<path class="st8" d="M1554.8,321.9c0-2.9,0-5.8,0-8.7C1554.9,316.1,1554.9,319,1554.8,321.9z"/>
	<path class="st18" d="M1610.2,311.4c1.1-1.6,2.1-3.2,3.2-4.7C1612.3,308.3,1611.3,309.8,1610.2,311.4z"/>
	<path class="st5" d="M1574,289.9c-1.5,0.9-3,1.7-4.5,2.6c0.1,0.1,0.2,0.2,0.4,0.4c1.5-0.8,3-1.6,4.5-2.5
		C1574.2,290.3,1574.1,290.1,1574,289.9z"/>
	<path class="st5" d="M1605.6,271c-1.2,0.6-2.4,1.1-3.6,1.7c0.2,0.3,0.3,0.6,0.5,1c1.2-0.8,2.4-1.5,3.6-2.3
		C1605.9,271.3,1605.7,271.1,1605.6,271z"/>
	<path class="st5" d="M1615.5,239.1c1.2-0.6,2.4-1.1,3.6-1.7c-0.2-0.3-0.3-0.6-0.5-1c-1.2,0.8-2.4,1.5-3.6,2.3
		C1615.2,238.9,1615.3,239,1615.5,239.1z"/>
	<path class="st5" d="M1615.2,265.9c1.3-0.8,2.6-1.6,3.9-2.3c-0.1-0.2-0.3-0.3-0.4-0.4c-1.3,0.8-2.6,1.6-3.9,2.4
		C1615,265.6,1615.1,265.7,1615.2,265.9z"/>
	<path class="st5" d="M1595.8,276.7c-1.3,0.8-2.6,1.6-3.9,2.3c0.1,0.2,0.3,0.3,0.4,0.5c1.3-0.8,2.6-1.6,3.9-2.4
		C1596,277,1595.9,276.9,1595.8,276.7z"/>
	<path class="st5" d="M1615,238.8c-1.1,0.7-2.2,1.5-3.3,2.2c0.1,0.1,0.3,0.3,0.4,0.4c1.1-0.7,2.2-1.5,3.3-2.2
		C1615.3,239,1615.2,238.9,1615,238.8z"/>
	<path class="st5" d="M1569.5,292.5c-0.9,0.5-1.9,1-2.8,1.5c0.2,0.3,0.4,0.7,0.6,1c0.9-0.7,1.7-1.4,2.6-2.1
		C1569.8,292.8,1569.6,292.6,1569.5,292.5z"/>
	<path class="st5" d="M1597.7,276.3c1-0.6,2-1.1,3-1.7c-0.1-0.1-0.3-0.3-0.4-0.4c-1,0.5-2,1.1-3,1.6
		C1597.4,276,1597.5,276.2,1597.7,276.3z"/>
	<path class="st5" d="M1626.2,232.8c0.6-0.3,1.2-0.5,1.8-0.8c-0.1-0.2-0.2-0.5-0.3-0.7c-0.6,0.4-1.2,0.8-1.9,1.2
		C1625.9,232.5,1626,232.7,1626.2,232.8z"/>
	<path class="st5" d="M1619.1,263.5c0.7-0.4,1.5-0.9,2.2-1.3c-0.2-0.2-0.3-0.5-0.5-0.7c-0.7,0.5-1.4,1.1-2.2,1.6
		C1618.9,263.2,1619,263.4,1619.1,263.5z"/>
	<path class="st10" d="M1547.7,314.1c-0.7,0.2-1.3,0.5-2,0.7C1546.4,314.6,1547.1,314.3,1547.7,314.1z"/>
	<path class="st5" d="M1597.2,275.8c-0.5,0.3-1,0.6-1.5,0.9c0.1,0.1,0.2,0.3,0.4,0.5c0.5-0.3,1-0.6,1.5-0.9
		C1597.5,276.2,1597.4,276,1597.2,275.8z"/>
	<path class="st8" d="M1555,347.2c0-0.5-0.1-1.1-0.1-1.6C1554.9,346.1,1554.9,346.6,1555,347.2z"/>
	<path class="st5" d="M1544.2,356.7c0.5-0.3,1.1-0.5,1.6-0.8C1545.2,356.2,1544.7,356.5,1544.2,356.7z"/>
	<path class="st18" d="M1614.2,306c0.3-0.3,0.6-0.7,0.9-1C1614.8,305.3,1614.5,305.7,1614.2,306z"/>
	<path class="st18" d="M1613.4,306.8c0.3-0.3,0.6-0.6,0.8-0.9C1614,306.2,1613.7,306.5,1613.4,306.8z"/>
	<path class="st5" d="M1600.6,274.6c0.1-0.2,0.3-0.5,0.4-0.7c-0.3,0.1-0.5,0.2-0.8,0.3C1600.4,274.3,1600.5,274.5,1600.6,274.6z"/>
	<path class="st5" d="M1625.8,232.4c-0.1,0.2-0.3,0.4-0.4,0.6c0.3-0.1,0.5-0.2,0.8-0.3C1626,232.7,1625.9,232.5,1625.8,232.4z"/>
	<path class="st5" d="M1606,271.4c0.3-0.2,0.6-0.4,0.9-0.7c-0.1-0.1-0.2-0.2-0.4-0.4c-0.3,0.2-0.6,0.4-0.9,0.6
		C1605.7,271.1,1605.9,271.3,1606,271.4z"/>
	<path class="st3" d="M1594.5,409.9c26.4-15.5,52.7-31.1,79.1-46.6c24.2-14.3,48.5-28.6,72.7-43c2-1.2,3.9-2.6,5.4-4.4
		c2.4-2.8,2.1-5.8-1-7.7c-4.3-2.8-8.9-5.2-13.4-7.7c-11.2,6.9-22.3,13.9-33.6,20.7c-3.1,1.9-6.4,3.3-9.6,5
		c-4.7,2.5-8.8,1.6-12.5-2.2c-3.6-3.7-7-7.8-11.2-10.8c-5.2-3.7-11.1-6.4-16.7-9.5c-0.6,0.1-1.2,0.2-2.1,0.3
		c4.4,2.4,5.7,5.1,2.9,7.6c-5,4.3-10.8,7.5-16.3,11.1c-0.5,0.5-1,1-1.5,1.6c0,0-0.1,0.1-0.1,0.1c1.3,0.3,3.4,0.3,3.6,1
		c2.2,6.7,4,13.5,6.1,20.8c-2,0.1-3.4,0.2-4.7,0.2c-9.9,0.1-19.8-0.1-29.7,0.2c-3.3,0.1-5.4-0.6-6.2-4.1c-1.9,1.1-3.7,2.1-5.6,3.2
		c-7.9,4.8-15.8,9.8-23.8,14.5c-4.7,2.7-9.6,5-14.5,7.5c-0.3,0.8-0.6,1.6-0.8,2.3c-1,7.2-2,14.5-3.2,21.7c-0.1,0.8-1.8,1.9-2.7,1.8
		c-9.1-1.3-18.2-2.7-27.2-4.1c-1.5-0.1-3-0.1-4.5-0.2c-0.5,0.5-1.1,1.4-1.6,1.3c-4.2-0.9-8.6-1.3-12.5-3c-6-2.7-11.6-6.3-17.4-9.5
		c-17.8,21.7-42.2,34.7-65.1,50c2.2,1.4,4,2.5,5.7,3.6c20.3,12.6,40.6,25.3,60.9,37.9c3.3-2,6.7-4,10-5.9c-2.9-1.9-5.7-3.7-9.3-6
		c5.9-3.5,11.2-6.7,16.7-9.8c0.6-0.3,1.6-0.2,2.2,0.1c2.7,1.6,5.4,3.4,8,5.2c1.5-0.8,3.1-1.5,4.6-2.4c16.7-9.9,33.5-19.9,50.2-29.8
		c-1.3-5.2-2.6-10.3-3.9-15.7c4.1-0.3,7.9-0.7,11.7-0.9c4.5-0.3,9.3-1,10.5,5.4C1594.2,409.7,1594.4,409.8,1594.5,409.9z
		 M1522.2,432.1c-1.2,0.8-1.7,1.2-2.2,1.5c-10.4,6.2-20.8,12.5-31.3,18.6c-1.2,0.7-3.5,0.2-4.8-0.5c-8-4.5-15.8-9.2-23.7-13.9
		c-4.9-2.9-9.8-5.9-15.1-9.1c11.6-6.8,22.4-13.3,33.4-19.6c1.2-0.7,3.5-0.5,4.8,0.2c4.2,2.2,8.3,4.7,12.4,7.2
		C1504.3,421.5,1513,426.6,1522.2,432.1z M1657.8,308.2c-0.1,0-0.2,0.1-0.3,0.1c0,0-0.1-0.2-0.1-0.3c0.1,0,0.2-0.1,0.3-0.1
		C1657.7,307.9,1657.7,308.1,1657.8,308.2z"/>
	<path class="st12" d="M1638.3,322.7c5.5-3.6,11.3-6.9,16.3-11.1c2.8-2.4,1.5-5.2-2.9-7.6c0.9-0.1,1.5-0.2,2.1-0.3
		c-2.6-0.9-5.1-1.8-7.7-2.7c1,1.1,2.3,2,3,3.3c3.5,5.7,1.8,10-5.2,14.1C1641.8,319.5,1640.1,321.2,1638.3,322.7z"/>
	<path class="st0" d="M1681.3,266.7c2-0.6,4-1,5.9-1.7c3-1.1,4.2-3.1,2.7-6.3c-2-0.3-4-0.9-6-0.8c-3.7,0.1-7,1.2-7.9,5.6
		C1677.8,264.6,1679.5,265.6,1681.3,266.7z M1683.3,265.3c-1.7-1.6-2.8-2.6-3.9-3.6c1.6-0.8,3.2-1.9,4.9-2.2c1-0.1,2.1,1.2,3.2,1.8
		C1686.3,262.5,1685.1,263.7,1683.3,265.3z"/>
	<path class="st10" d="M1675.2,257.1c-4-2.7-7.2-5.1-10.5-7.2c-1.7-1.1-4.3-1.1-5.5-2.5c-1.3-1.7-4.5-0.5-4.7-3.6
		c0-0.5-2.1-0.7-3.1-1.3c-1.4-0.8-2.6-2.1-4-2.8c-0.7-0.3-1.7,0.2-2.6,0.4c0.4,0.8,0.5,1.8,1.1,2.2c8.6,5.2,17.2,10.3,26,15.3
		C1672.6,257.9,1674,257.2,1675.2,257.1z"/>
	<path class="st22" d="M1609.8,326c-0.8-0.3-1.5-0.7-2.3-1c-2.1,1.3-4.2,2.6-6.3,3.9c0.8,2.1,1.6,4.2,2.4,6.4
		c0.5,0.8,1.1,1.6,1.6,2.4c0.5,0,1.1,0.1,1.5-0.1c6.8-3.9,13.5-7.9,20.3-11.9c0.3-0.2,0.3-0.9,0.5-1.4c-1-0.1-2-0.1-3-0.2
		c-0.8,0.1-1.7,0.1-2.5,0.2C1618.2,327,1614.5,330.3,1609.8,326z"/>
	<path class="st25" d="M1627.5,324.2c-0.2,0.5-0.2,1.2-0.5,1.4c-6.7,4-13.5,8-20.3,11.9c-0.4,0.2-1,0.1-1.5,0.1c0,0-0.2,0-0.2,0
		c0,0.8,0,1.6,0.1,2.4c0.2,0.3,0.5,0.6,0.7,0.8c3.6-1.7,7.3-3.2,10.8-5.2c6.7-3.7,13.4-7.6,20-11.5c0,0,0.1-0.1,0.1-0.1
		c-2-0.1-4.1-0.1-6.1-0.2C1629.6,324.1,1628.5,324.2,1627.5,324.2z"/>
	<path class="st11" d="M1622,324.3c0.8-0.1,1.7-0.1,2.5-0.2c1.4-0.6,2.9-0.9,4.1-1.7c3.8-2.3,7.7-4.5,11.1-7.4
		c1.7-1.4,2.3-4.3,2.9-6.6c0.1-0.4-1.7-1.5-2.7-2.2c-1.3,1.3-2.7,2.6-4,3.9c-0.4,1.2-0.5,2.8-1.3,3.4c-2.1,1.6-4.1,4.1-7.3,2.6
		C1625.6,318.7,1623.8,321.5,1622,324.3z"/>
	<path class="st11" d="M1422.6,310c-0.8,0.3-1.7,0.5-2.4,0.9c-12.4,7.4-24.9,14.9-37.3,22.4c0.3,0.5,0.5,1.3,1,1.6
		c12.2,7.3,24.4,14.5,36.6,21.6c0.8,0.5,2.3,0.6,3.1,0.1c7.1-4.2,14.1-8.5,21.2-12.8c-0.5-2.9,0-5.4,3.1-6.4c0-4.4,0-8.8-0.1-13.3
		c-3.3-2-6.5-4.1-9.8-6C1433,315.4,1427.8,312.7,1422.6,310z"/>
	<path class="st3" d="M1422.6,310c5.1,2.7,10.3,5.4,15.4,8.2c3.3,1.9,6.5,4,9.8,6c0.2-5.6,0.4-11.2,0.6-16.8
		c-3.7-2.1-7.4-4.2-11.1-6.4C1432.5,304,1427.6,307,1422.6,310z"/>
	<path class="st9" d="M1437.4,300.9c3.7,2.1,7.4,4.2,11.1,6.4c0-1.5,0-2.9,0.1-4.4c0.5-1.7,1.1-3.3,1.6-5c0.4-1.2,0.6-2.5,0.9-3.8
		C1446.5,296.4,1441.9,298.7,1437.4,300.9z"/>
	<path class="st21" d="M1472.5,340.1c-1-0.3-2.1-0.5-3.1-0.8c-0.1,0.2-0.2,0.4-0.3,0.6c1.5,1,3,2,4.5,2.9c0.4,0.3,0.8,0.6,1.2,0.9
		c-0.1,0.2-0.2,0.3-0.3,0.5c-0.4-0.2-0.9-0.5-1.3-0.7c-1.2-0.5-2.4-1.1-3.6-1.6c-0.2,0.3-0.3,0.6-0.5,1c6.4,3.6,12.8,7.2,19.1,10.8
		c0.2-0.3,0.3-0.5,0.5-0.8c-1.4-0.9-2.8-1.9-4.2-2.8c-0.5-0.3-1-0.6-1.5-0.9c-0.5-0.3-1-0.6-1.5-0.8c-0.5-0.3-1-0.6-1.5-0.9
		c-1.2-0.7-2.5-1.3-3.7-2c0.1-0.3,0.3-0.5,0.4-0.8c1.3,0.7,2.5,1.4,3.8,2.2c0.5,0.3,1,0.6,1.5,0.9c0.5,0.3,1,0.6,1.5,0.8
		c0.5,0.3,1,0.6,1.5,0.9c1.1,0.5,2.2,0.9,3.3,1.4c0.1-0.1,0.2-0.3,0.3-0.4c-0.7-0.8-1.5-1.6-2.2-2.4c0,0,0,0.1,0,0.1
		c-1.3-0.9-2.6-1.9-3.9-2.8c-0.4-0.1-0.8-0.2-1.1-0.4c-1.2-0.5-2.4-1.1-3.5-1.6c0,0,0.1,0,0.1,0c-0.8-0.7-1.6-1.3-2.4-2
		c-0.4-0.1-0.8-0.3-1.1-0.4C1473.8,340.6,1473.1,340.3,1472.5,340.1C1472.4,340,1472.5,340.1,1472.5,340.1z"/>
	<path class="st21" d="M1487.4,342.9c0-0.6,0.3-1.6,0-1.8c-3.3-1.9-6.6-3.7-10-5.5c-0.2,0.2-0.4,0.5-0.6,0.7
		c0.3,0.4,0.6,0.7,0.9,1.1c-0.2,0.2-0.3,0.4-0.5,0.7c-2.1-1.5-4.3-2.9-6.4-4.4c0,0,0.1,0,0.1,0c-0.6,0.1-1.1,0.2-1.9,0.3
		c1,1.1,1.8,2,2.6,2.9c0,0,0-0.1,0-0.1c1.3,0.8,2.6,1.6,3.9,2.4l0,0c1,0.7,2.1,1.3,3.1,2c0.4,0.1,0.7,0.2,1.1,0.4
		c2.5,1.3,4.9,2.7,7.4,4l-0.1,0c0.5-0.2,1-0.5,1.4-0.7c-0.5-0.5-0.9-1.1-1.4-1.6c-0.2-0.2-0.5-0.4-0.7-0.6
		C1486.7,342.8,1487.1,342.8,1487.4,342.9z M1481.6,340.2c-0.7-0.4-1.4-0.8-2.1-1.2c0.1-0.2,0.2-0.4,0.3-0.6
		c0.8,0.4,1.5,0.8,2.3,1.2c0.4,0.3,0.8,0.6,1.2,0.8c-0.1,0.2-0.2,0.3-0.2,0.5C1482.6,340.7,1482.1,340.5,1481.6,340.2z"/>
	<path class="st24" d="M1455,335.3c0.5,0.8,1.1,1.7,1.6,2.5c1.8-0.1,3.6-0.1,5.3-0.2c-0.5-2-0.9-4-1.4-6c-0.1-0.4-0.3-0.7-0.5-1l0,0
		c-1.8-0.1-3.6-0.3-5.4-0.4C1454.8,331.9,1454.9,333.6,1455,335.3z"/>
	<path class="st7" d="M1500.3,361.4c1.7,0.1,3.9,1,4.9,0.2c0.9-0.7,1-3.4,0.5-4.8c-0.5-1.6-1.9-3.1-3.3-4.1c-2-1.6-4.5-2.7-6.5-0.3
		c-2,2.4-0.8,4.8,1.4,6.7c0.1-0.1,0.2-0.2,0.3-0.3c-0.2-1.8-0.3-3.6-0.5-5.4c1.5,0.1,3.7-0.3,4.5,0.5c1.5,1.7,2.1,4.1,3.1,6.2
		C1503.1,360.4,1501.7,360.9,1500.3,361.4L1500.3,361.4z"/>
	<path class="st7" d="M1460.1,330.6c0.2,0.3,0.4,0.7,0.5,1c0.5,2,1,4,1.4,6c-1.8,0.1-3.6,0.1-5.3,0.2c2.3,1.9,4.9,2.8,7,0
		C1465.2,335.7,1463.2,331.9,1460.1,330.6z"/>
	<path class="st7" d="M1455,335.3c-0.1-1.7-0.2-3.4-0.3-5.1c1.8,0.1,3.6,0.3,5.4,0.4c-1.6-0.8-3.1-2-4.8-2.3
		c-0.7-0.1-2.5,1.6-2.4,2.3C1453.2,332.2,1454.3,333.8,1455,335.3z"/>
	<path class="st13" d="M1479.7,341.7c-0.4-0.1-0.7-0.2-1.1-0.4c-1-0.7-2.1-1.3-3.1-2c0,0,0,0,0,0c-1.3-0.8-2.6-1.6-3.9-2.4
		c0,0,0,0.1,0,0.1c-0.7,0-1.4-0.1-2.4-0.1c1.2,1.2,2.3,2.2,3.3,3.2c0,0-0.1,0-0.1,0c0.7,0.3,1.3,0.5,2,0.8c0.4,0.1,0.8,0.3,1.1,0.4
		c0.8,0.7,1.6,1.3,2.4,2c0,0-0.1,0-0.1,0c0.8,0,1.5,0.1,2.3,0.1c0.2-0.2,0.3-0.4,0.5-0.5C1480.3,342.4,1480,342.1,1479.7,341.7z"/>
	<path class="st21" d="M1477.5,335.6c-2.6-1.5-5.1-3.1-7.7-4.6c-0.2,0.2-0.3,0.3-0.5,0.5c0.5,0.8,1.1,1.5,1.6,2.3c0,0-0.1,0-0.1,0
		c2,0.9,4,1.7,6,2.6C1477.1,336.1,1477.3,335.9,1477.5,335.6z"/>
	<path class="st13" d="M1481.4,344.8c0.4,0.1,0.8,0.2,1.1,0.4c1.3,0.9,2.6,1.9,3.9,2.8c0,0,0-0.1,0-0.1c0.7-0.1,1.3-0.1,2.1-0.2
		c-0.5-0.7-0.9-1.4-1.4-2.1c0,0,0.1,0,0.1,0c-2.2-1-4.3-1.9-6.5-2.9c-0.2,0.2-0.3,0.4-0.5,0.5C1480.5,343.8,1481,344.3,1481.4,344.8
		z"/>
	<path class="st7" d="M1497.3,358.9c1,0.8,2,1.6,3,2.5c0,0,0,0,0,0c-0.9-0.9-1.8-1.8-2.7-2.7
		C1497.5,358.7,1497.4,358.8,1497.3,358.9z"/>
	<path class="st3" d="M1444.8,343.9c-7,4.3-14.1,8.6-21.2,12.8c-0.8,0.5-2.3,0.3-3.1-0.1c-12.2-7.1-24.4-14.4-36.6-21.6
		c-0.5-0.3-0.7-1-1-1.6c-2.3,1.2-4.6,2.4-6.8,3.7c-53.5,31.6-106.9,63.2-160.3,94.8c-0.8,0.5-1.5,1-2.2,1.5
		c28.1,17.7,56.2,35.4,84.4,53c1.3,0.8,3.8,0.6,5.2-0.1c8.9-4.8,17.6-9.8,26.3-14.8c41-23.5,82-47,121.4-73.4
		c11.1-7.4,21.8-15.3,30.2-26.1c-7.8-4.7-15.6-9.2-23.3-14.1c-3.7-2.4-7.1-5.2-10.5-8.1c-1.8-1.6-1.3-3,1-3.5
		C1447.2,345.4,1446,344.6,1444.8,343.9z M1350.6,437c-0.5,0.1-1,0.2-1.5,0.3c-2.6,1.6-5.4,3.1-7.8,4.9c-2.2,1.7-4,1.5-6.3,0.2
		c-8.3-5-16.7-9.8-25-14.8c-4.9-2.9-9.9-5.9-15.2-9.1c1.1-0.8,1.6-1.1,2.1-1.5c10.6-6.2,21.3-12.2,31.6-18.8c4.8-3.1,9-4.7,13.7-0.5
		c0.2,0.2,0.5,0.1,0.7,0.2c-0.1-1.8-0.3-3.7-0.3-5.5c0-14,4.9-25.6,16.4-33.5c3.8-2.6,8-4.2,12.6-1.6c4.8,0.3,7.7,3.4,8.3,7.8
		c0.7,5,0.7,10.2,0.3,15.2c-0.4,5-1.8,10-2.7,15c1.2-0.5,2.4-0.8,3.5-1.4c5.6-3.3,11.1-6.5,16.6-9.9c10.4-6.4,10.4-6.5,20.8,0
		c3.2,2,6.4,4,10,6.2c-0.9,0.7-1.2,0.9-1.6,1.1c-12.4,7.4-24.8,14.8-37.3,22c-1,0.6-2.8,0.5-3.8-0.1c-4.1-2.1-8.1-4.6-12.1-6.9
		c-1.1,2.9-2.1,5.7-3.2,8.6c2.2,1.2,4.5,2.3,6.7,3.7c0.4,0.2,0.3,1.3,0.4,2c0.7,0.9,1.4,1.8,2.2,2.7c4.6,4.7,2.4,10.5-2.1,13.7
		c-4.8,3.4-10.5,4-16.1,3.2C1357.9,439.8,1354.3,438.2,1350.6,437z M1324.9,451.9c-8.2,4.9-15.9,9-23,13.8
		c-5.2,3.6-9.7,4.7-15.1,0.3c-3.8-3.1-8.4-5.2-12.6-7.7c0.3-0.7,0.3-1.1,0.5-1.2c9.4-5.7,18.8-11.3,28.2-16.9
		c0.6-0.4,1.8-0.3,2.5,0.1C1311.6,444,1317.9,447.8,1324.9,451.9z"/>
	<path class="st19" d="M1484.8,367.5c-10.4-6-20.8-12-31.1-18c0.2,1.1,0.1,2.7,0.7,3.1c4.2,2.7,8.4,5.2,12.7,7.8
		c5.3,3.1,10.6,6.1,15.9,9.1C1483.5,368.8,1484.2,368.1,1484.8,367.5z"/>
	<path class="st16" d="M1482.9,369.5c-5.3-3-10.6-6-15.9-9.1c-4.3-2.5-8.6-5-12.7-7.8c-0.6-0.4-0.5-2-0.7-3.1
		c-1.8-1.1-3.5-2.2-5.3-3.3c-2.4,0.5-2.9,1.9-1,3.5c3.4,2.9,6.8,5.7,10.5,8.1c7.7,4.9,15.5,9.4,23.3,14.1c0.2-0.1,0.5-0.1,0.7-0.2
		C1482.1,371,1482.5,370.2,1482.9,369.5z"/>
	<path class="st19" d="M1518.6,383.6c-2.5-0.6-5.1-1.2-7.6-1.8c-4.2-2.2-8.3-4.5-12.5-6.7c-1.2-0.7-2.5-1.2-3.8-1.8
		c-0.6,1-1.2,2-1.7,2.9c3.5,1.8,7.3,3.1,10.4,5.5c5.1,3.8,10.7,5.3,16.7,5.7c0.1-0.9,0.1-1.7,0.2-2.6
		C1519.8,384.5,1519.2,384.1,1518.6,383.6z"/>
	<path class="st6" d="M1493.1,376.3c0.6-1,1.2-2,1.7-2.9c-3.4-2-6.7-3.9-10.1-5.9c-0.6,0.7-1.2,1.3-1.8,2c-0.4,0.7-0.8,1.5-1.2,2.2
		c3.4,1.9,6.8,3.7,10.2,5.6C1492.3,377,1492.7,376.6,1493.1,376.3z"/>
	<path class="st25" d="M1603.6,335.3c-0.8-2.1-1.6-4.2-2.4-6.4c-12.4,7.4-24.7,14.7-37.1,22.1c-0.2,1.9-0.4,3.8-0.6,5.7
		c1.9-0.6,4-0.9,5.7-1.9c8-4.8,15.8-9.9,23.8-14.6C1596.4,338.3,1600.1,336.9,1603.6,335.3z"/>
	<path class="st25" d="M1520.4,384.9c-0.1,0.9-0.1,1.7-0.2,2.6c1.1,0.6,2.1,1.1,3.2,1.7c1.5,0.1,3,0.1,4.5,0.2
		c3.4-2.1,6.8-4.3,10.2-6.3c7.6-4.4,15.3-8.7,23-13.1c0.3-0.8,0.6-1.6,0.8-2.3c0.1-1,0.2-2.1,0.3-3.1c-0.1-0.2-0.2-0.5-0.1-0.7
		c-1.4,0.4-2.9,0.6-4.2,1.3c-6.8,3.8-13.5,7.8-20.3,11.6c-0.4,0.2-1.1-0.2-1.7-0.3c-0.8,1.1-1.6,2.1-2.5,3.2c0,0,0-0.1,0-0.1
		c-0.3,0.3-0.5,0.6-0.8,0.9c0,0,0.1,0,0.1,0c-0.5,0.6-1.1,1.3-1.6,1.9C1528.1,385.7,1524.7,387.2,1520.4,384.9z"/>
	<path class="st22" d="M1524,376.9c-1.3,2.4,0.6,3,2.1,3.2c3.8,0.6,8.5-6.9,6.8-10.8C1530,371.8,1527,374.3,1524,376.9z"/>
	<path class="st16" d="M1524,376.9c3-2.5,6-5.1,8.9-7.6c-0.4-0.5-0.7-1-1.1-1.5c-0.8,0-1.7-0.1-2.5-0.1
		C1525.3,369.5,1523.8,372.1,1524,376.9z"/>
	<path class="st18" d="M1537.9,371.6c0-2.3,0-4.7,0-7c-0.2,2.4-0.4,4.7-0.7,7.1c0,0,0.2,0.2,0.2,0.2
		C1537.6,371.8,1537.8,371.7,1537.9,371.6z"/>
	<path class="st18" d="M1533.5,379.7c0.8-1.1,1.6-2.1,2.5-3.2c0-0.2,0-0.5,0-0.7l-0.2-0.2C1535,377,1534.2,378.4,1533.5,379.7z"/>
	<path class="st18" d="M1537.3,371.7c-0.5,1.3-1,2.6-1.5,3.9c0,0,0.2,0.2,0.2,0.2c0.5-1.3,1-2.6,1.5-3.9L1537.3,371.7z"/>
	<path class="st22" d="M1529.4,367.7c0.8,0,1.7,0.1,2.5,0.1c-0.3-0.5-0.7-0.9-1-1.4C1530.4,366.8,1529.9,367.2,1529.4,367.7z"/>
	<path class="st18" d="M1531.2,382.4c0.5-0.6,1.1-1.3,1.6-1.9C1532.2,381.2,1531.7,381.8,1531.2,382.4z"/>
	<path class="st18" d="M1532.7,380.5c0.3-0.3,0.5-0.6,0.8-0.9C1533.2,380,1533,380.3,1532.7,380.5z"/>
	<path class="st11" d="M1603.6,335.3c-3.5,1.6-7.2,3-10.5,4.9c-8,4.7-15.8,9.8-23.8,14.6c-1.7,1-3.8,1.3-5.7,1.9
		c-0.1,0.7-0.1,1.5-0.2,2.2c0.1,0.6,0.1,1.2,0.2,1.7c1-0.2,2.1-0.1,3-0.5c5.7-3.2,11.2-6.6,16.9-9.9c7.2-4.2,14.4-8.3,21.7-12.5
		c0,0,0.2,0,0.2,0C1604.7,336.9,1604.1,336.1,1603.6,335.3z"/>
	<path class="st22" d="M1563.5,360.7c-0.1-0.6-0.1-1.2-0.2-1.7c-1.7,0.6-3.4,1-4.9,1.8c-5.8,3.4-11.4,6.9-17.2,10.3
		c-0.9,0.5-2.2,0.4-3.3,0.6c-0.2,0.1-0.3,0.2-0.5,0.2c-0.5,1.3-1,2.6-1.5,3.9c0,0.2,0,0.5,0,0.7c0.6,0.1,1.3,0.5,1.7,0.3
		c6.8-3.8,13.5-7.8,20.3-11.6c1.2-0.7,2.8-0.9,4.2-1.3C1562.6,362.8,1563,361.8,1563.5,360.7z"/>
	<path class="st9" d="M1491.9,377.3c-3.4-1.9-6.8-3.7-10.2-5.6c-0.2,0.1-0.5,0.1-0.7,0.2c-8.4,10.8-19.1,18.6-30.2,26.1
		c-39.4,26.3-80.4,49.9-121.4,73.4c-8.7,5-17.5,10-26.3,14.8c-1.4,0.8-3.9,0.9-5.2,0.1c-28.2-17.6-56.3-35.3-84.4-53
		c-4,2.3-7.9,4.7-11.9,7c28.7,18,57.4,36,86.4,54.2c-4.1,2.3-7.7,4.3-11.3,6.4c4,2.4,8,4.8,12,7.2c14.8-8.3,29.8-16.5,44.5-25
		c26.5-15.3,52.8-30.9,79.2-46.3c1.3-0.7,3.6-1,4.7-0.3c21.6,13.2,43.1,26.6,64.6,39.9c3.9-2.3,7.8-4.6,11.7-6.9
		c-20.3-12.6-40.6-25.3-60.9-37.9c-1.8-1.1-3.5-2.2-5.7-3.6c22.9-15.3,47.2-28.3,65.1-50C1491.9,377.8,1491.9,377.6,1491.9,377.3z"
		/>
	<path class="st3" d="M1481.8,476.4c-21.5-13.3-43-26.7-64.6-39.9c-1.1-0.7-3.4-0.4-4.7,0.3c-26.4,15.4-52.8,31-79.2,46.3
		c-14.7,8.5-29.7,16.7-44.5,25c20.4,12.2,40.7,24.5,61.3,36.4c6.1,3.5,12.7,2.2,18.5-1.1c13.1-7.4,26-15.3,39-23
		c-0.8-0.6-1.5-1.4-2.4-1.9c-12.4-7.4-24.9-14.7-37.3-22c-4-2.4-8-4.8-12.3-7.5c1.2-0.8,1.7-1.2,2.3-1.5
		c20.7-12.2,41.4-24.4,62-36.7c2.4-1.4,4-1.4,6.3,0c11.6,7,23.3,13.8,34.9,20.8c4.7,2.8,9.2,6,13.9,9
		C1477.1,479.1,1479.5,477.8,1481.8,476.4z M1308.8,516.8c1.1-0.8,1.8-1.6,2.7-2.1c10.1-6,20.2-12.1,30.4-17.8
		c1.3-0.7,3.7-0.4,5.2,0.4c5.7,3,11.2,6.4,16.8,9.7c3.8,2.3,7.6,4.7,12,7.4c-9,5.4-17.8,9.8-25.7,15.6c-7.1,5.1-12.8,5.1-19.8-0.1
		C1323.6,525,1316.2,521.3,1308.8,516.8z"/>
	<path class="st11" d="M1474.8,480.4c-4.6-3-9.1-6.1-13.9-9c-11.6-7-23.3-13.8-34.9-20.8c-2.2-1.3-3.9-1.4-6.3,0
		c-20.6,12.3-41.3,24.5-62,36.7c-0.5,0.3-1.1,0.7-2.3,1.5c4.4,2.7,8.3,5.1,12.3,7.5c12.4,7.4,24.9,14.7,37.3,22
		c0.9,0.5,1.6,1.3,2.4,1.9c6-3.6,12-7.2,18-10.8c-6.7-4.1-13.4-8.1-20.5-12.5c8.8-5.2,17.3-9.8,25.3-15c4.3-2.8,7.7-3.9,12.2-0.4
		c4.5,3.6,9.6,6.3,14.4,9.5C1463,487.6,1468.9,484,1474.8,480.4z"/>
	<path class="st3" d="M1276.8,500.9c3.6-2,7.2-4,11.3-6.4c-29-18.2-57.7-36.2-86.4-54.2c-1.7,1.1-3.7,1.9-5.2,3.3
		c-4.4,3.8-4,7.4,1.1,10.5c10.5,6.3,21,12.5,31.6,18.8C1245.1,482.2,1260.9,491.6,1276.8,500.9z"/>
	<path class="st3" d="M1457,491.1c-4.8-3.1-9.9-5.9-14.4-9.5c-4.5-3.5-7.9-2.4-12.2,0.4c-8.1,5.3-16.5,9.9-25.3,15
		c7.2,4.4,13.9,8.4,20.5,12.5C1436.1,503.4,1446.6,497.3,1457,491.1z"/>
	<path class="st11" d="M1594.5,409.9c-0.1-0.1-0.3-0.1-0.3-0.2c-1.3-6.4-6-5.7-10.5-5.4c-3.8,0.2-7.6,0.6-11.7,0.9
		c1.3,5.4,2.6,10.5,3.9,15.7C1582.1,417.2,1588.3,413.5,1594.5,409.9z"/>
	<path class="st11" d="M1521,453.1c-2.7-1.7-5.3-3.5-8-5.2c-0.6-0.3-1.6-0.4-2.2-0.1c-5.4,3.1-10.8,6.3-16.7,9.8
		c3.6,2.3,6.4,4.2,9.3,6C1509.3,460.1,1515.2,456.6,1521,453.1z"/>
	<path class="st0" d="M1700.8,272.9c1-0.7,2-1.4,3-2.2c-0.9-1-1.8-2.7-2.7-2.7c-2.2,0.1-4.4,1-6.7,1.6c0.3,1.1,0.6,2.2,0.9,3.2
		c0,0,0,0,0,0c0.7-1.3,1.2-3,2.3-3.7c0.9-0.5,2.6,0.2,3.9,0.4C1701.3,270.6,1701,271.7,1700.8,272.9L1700.8,272.9z"/>
	<path class="st0" d="M1695.3,272.9c1.8,0,3.6,0,5.4,0c0,0,0-0.1,0-0.1C1698.9,272.8,1697.2,272.8,1695.3,272.9L1695.3,272.9z"/>
	<path class="st19" d="M1247.2,532.2c0.3,0,0.5,0,0.8,0c2.6,1.6,5.2,3.2,7.7,4.7c0.3,0,0.5,0,0.8,0c1.8,0.5,3.6,1,5.4,1.6l0,0
		c-2.6-1.7-5.1-3.7-7.8-5.2c-4.5-2.6-9.2-5-13.8-7.4c0,0.8,0,1.6,0,2.4c0,0,0,0,0,0C1242.6,529.6,1244.9,530.9,1247.2,532.2z"/>
	<path class="st19" d="M1204.8,507.7c0.3,0,0.5,0,0.8,0c1.3,0.8,2.6,1.6,3.9,2.4c0,0,0,0,0,0c1.5,0.5,3.1,1,4.6,1.6
		c-4.1-2.6-8.2-5.3-12.3-7.9C1202.8,505.1,1203.8,506.4,1204.8,507.7z"/>
	<path class="st15" d="M1204.8,507.7c-1-1.3-2.1-2.6-3.1-4c-0.8-0.3-1.5-0.5-2.3-0.8c-0.5-0.5-1-1-1.6-1.6c-0.5,0-1,0-1.5,0
		c-0.5,0-1,0-1.6,0C1198.1,503.5,1201.5,505.6,1204.8,507.7z"/>
	<path class="st15" d="M1240.3,528.3c0-0.8,0-1.6,0-2.4c-0.3,0-0.5,0-0.8,0c-0.8-0.5-1.5-1-2.3-1.6c-0.3,0-0.5,0-0.8,0
		c-1.8-0.5-3.6-1.1-5.4-1.6C1234.1,524.6,1237.2,526.4,1240.3,528.3z"/>
	<path class="st15" d="M1214.1,511.7c-1.5-0.5-3.1-1-4.6-1.6c2.6,1.6,5.1,3.2,7.7,4.7c-0.3-0.8-0.5-1.6-0.8-2.4
		C1215.6,512.2,1214.8,511.9,1214.1,511.7z"/>
	<path class="st15" d="M1217.9,514.9c2.6,1.6,5.2,3.2,7.7,4.7c-1.5-1.6-3.1-3.2-4.6-4.7c-0.5,0-1,0-1.5,0
		C1219,514.8,1218.4,514.8,1217.9,514.9z"/>
	<path class="st19" d="M1221,514.8c1.5,1.6,3.1,3.2,4.6,4.7c0.3,0,0.5,0,0.8,0c0.3,0,0.5,0,0.8,0
		C1225.1,518,1223.1,516.4,1221,514.8z"/>
	<path class="st19" d="M1231,522.8c1.8,0.5,3.6,1.1,5.4,1.6c-2.3-1.3-4.6-2.6-6.9-4C1230,521.2,1230.5,522,1231,522.8L1231,522.8z"
		/>
	<path class="st19" d="M1194.8,501.4c0.5,0,1,0,1.6,0c-1.8-1.3-3.6-2.6-5.4-3.9c0,0,0,0,0,0c0.5,1.1,1,2.1,1.5,3.2
		C1193.2,500.9,1194,501.1,1194.8,501.4z"/>
	<path class="st15" d="M1231,522.8c-0.5-0.8-1-1.6-1.5-2.4c-0.8-0.3-1.5-0.5-2.3-0.8c-0.3,0-0.5,0-0.8,0
		C1226.8,522.4,1228.7,522.9,1231,522.8z"/>
	<path class="st19" d="M1217.9,514.9c0.5,0,1,0,1.6,0c-1-0.8-2.1-1.6-3.1-2.4c0.3,0.8,0.5,1.6,0.8,2.4
		C1217.4,514.8,1217.7,514.9,1217.9,514.9z"/>
	<path class="st19" d="M1237.2,524.3c0.8,0.5,1.5,1,2.3,1.6C1238.8,525.4,1238,524.9,1237.2,524.3z"/>
	<path class="st19" d="M1197.9,501.4c0.5,0.5,1,1,1.6,1.6C1198.9,502.4,1198.4,501.9,1197.9,501.4z"/>
	<path class="st15" d="M1265,541.7c1.9,1.5,3.6,3.4,5.7,4.6c5.5,2.9,11.1,5.4,16.6,8.1c-0.8-1.1-1.5-2.1-2.3-3.2c-0.5,0-1,0-1.5,0
		c-5.1-2.8-10.3-5.6-15.4-8.3C1267.1,542.4,1266,542.1,1265,541.7z"/>
	<path class="st15" d="M1261.9,538.6c-1.8-0.5-3.6-1-5.4-1.6c2.1,1.3,4.1,2.6,6.2,4C1262.4,540.1,1262.1,539.4,1261.9,538.6z"/>
	<path class="st19" d="M1285,551.2c0.8,1.1,1.5,2.1,2.3,3.2c0,0,0,0,0,0c2.1,1.3,4.1,2.6,6.2,3.9c0.5,0.3,1,0.5,1.5,0.8
		c2.1,0.5,4.1,1.1,6.2,1.6c-0.5-1.1-1-2.1-1.6-3.2c-2.4-0.1-4.8,0-5.4-3.2c-1-0.3-2.1-0.5-3.1-0.8
		C1289.1,552.8,1287.1,552,1285,551.2z"/>
	<path class="st15" d="M1301.2,560.7c-2.1-0.5-4.1-1.1-6.2-1.6c0.3,0.5,0.5,1.1,0.8,1.6c0.3,0,0.5,0,0.8,0c0.8,0.5,1.5,1.1,2.3,1.6
		c0.3,0,0.5,0,0.8,0c0.5,0.5,1,1,1.6,1.6c0.8,0.3,1.5,0.5,2.3,0.8c1,0.8,2.1,1.6,3.1,2.4c0.5,0,1,0,1.5,0c0.5,0.5,1,1,1.6,1.6
		c0.5,0,1,0,1.5,0c0.5,0.5,1,1.1,1.5,1.6c1.3,0.5,2.6,1.1,3.9,1.6c0.5,0.5,1,1,1.6,1.6c0.5,0,1,0,1.5,0c0.8,0.5,1.5,1.1,2.3,1.6
		c0.3,0,0.5,0,0.8,0c0.5-0.3,1-0.5,1.5-0.8c-4.2-2.4-8.5-4.8-12.7-7.4c-2.1-1.3-3.9-3-5.8-4.5c-1-0.5-2.1-1.1-3.1-1.6
		C1302.3,560.7,1301.7,560.7,1301.2,560.7z"/>
	<path class="st15" d="M1186.3,494.3c0.5-3.2,1-6.3,1.6-9.5C1184.1,488.7,1183.6,491.7,1186.3,494.3z"/>
	<path class="st15" d="M1255.7,537c-2.6-1.6-5.2-3.2-7.7-4.7C1250.6,533.8,1253.1,535.4,1255.7,537z"/>
	<path class="st15" d="M1192.5,500.6c-0.5-1.1-1-2.1-1.5-3.2c-1.5-0.8-3.1-1.6-4.6-2.4C1188.4,496.9,1190.4,498.8,1192.5,500.6z"/>
	<path class="st15" d="M1293.5,558.3c-2.1-1.3-4.1-2.6-6.2-3.9c1.8,1.3,3.6,2.6,5.4,4C1293,558.3,1293.3,558.3,1293.5,558.3z"/>
	<path class="st15" d="M1247.2,532.2c-2.3-1.3-4.6-2.6-6.9-4C1242.6,529.6,1244.9,530.9,1247.2,532.2z"/>
	<path class="st15" d="M1188.6,484c1.3-1.1,2.6-2.1,3.9-3.2C1191.2,481.9,1189.9,482.9,1188.6,484z"/>
	<path class="st15" d="M1209.4,510.1c-1.3-0.8-2.6-1.6-3.9-2.4C1206.9,508.5,1208.1,509.3,1209.4,510.1z"/>
	<path class="st20" d="M1293.5,558.3c-0.3,0-0.5,0-0.8,0c1,0.8,2.1,1.6,3.1,2.4c-0.3-0.5-0.5-1.1-0.8-1.6
		C1294.5,558.8,1294,558.6,1293.5,558.3z"/>
	<path class="st20" d="M1306.6,567c-1-0.8-2.1-1.6-3.1-2.4C1304.6,565.4,1305.6,566.2,1306.6,567z"/>
	<path class="st20" d="M1322.1,574.9c-0.8-0.5-1.5-1.1-2.3-1.6C1320.5,573.9,1321.3,574.4,1322.1,574.9z"/>
	<path class="st20" d="M1298.9,562.3c-0.8-0.5-1.5-1.1-2.3-1.6C1297.4,561.2,1298.1,561.8,1298.9,562.3z"/>
	<path class="st20" d="M1309.7,568.6c-0.5-0.5-1-1-1.6-1.6C1308.7,567.6,1309.2,568.1,1309.7,568.6z"/>
	<path class="st20" d="M1301.2,563.9c-0.5-0.5-1-1-1.6-1.6C1300.2,562.8,1300.7,563.3,1301.2,563.9z"/>
	<path class="st20" d="M1318.2,573.3c-0.5-0.5-1-1-1.6-1.6C1317.2,572.3,1317.7,572.8,1318.2,573.3z"/>
	<path class="st20" d="M1312.8,570.2c-0.5-0.5-1-1.1-1.5-1.6C1311.8,569.1,1312.3,569.7,1312.8,570.2z"/>
	<path class="st22" d="M1613.8,318.6c0,3.6,2,3.9,4.5,2.8c3.4-1.5,5.6-6.1,4.9-10c-0.5,0.2-1,0.7-1.4,0.6c-4.2-0.8-5.5,1.7-6.1,5.3
		C1615.7,317.8,1614.5,318.1,1613.8,318.6z"/>
	<path class="st20" d="M1613.8,318.6c0.7-0.4,1.9-0.8,2-1.3c0.6-3.6,1.8-6.2,6.1-5.3c0.4,0.1,0.9-0.4,1.4-0.6
		c-0.7-3.3-2.9-3.1-4.9-1.8C1615.1,311.6,1613.7,314.7,1613.8,318.6z"/>
	<path class="st6" d="M1623.4,241.2c0,3.7,0,7.5,0,11.2c0.2,0,0.4,0,0.6,0.1c0-3.8,0-7.5,0-11.3
		C1623.8,241.2,1623.6,241.2,1623.4,241.2z"/>
	<path class="st11" d="M1522.2,432.1c-9.2-5.5-17.9-10.6-26.5-15.7c-4.1-2.4-8.2-5-12.4-7.2c-1.3-0.7-3.6-0.9-4.8-0.2
		c-11,6.2-21.8,12.7-33.4,19.6c5.3,3.2,10.2,6.2,15.1,9.1c7.9,4.7,15.7,9.4,23.7,13.9c1.3,0.8,3.6,1.2,4.8,0.5
		c10.5-6,20.9-12.3,31.3-18.6C1520.5,433.3,1521,432.9,1522.2,432.1z"/>
	<path class="st11" d="M1636.7,324.3c-6.7,3.8-13.3,7.8-20,11.5c-3.5,1.9-7.2,3.4-10.8,5.2c0,0.5,0,1,0,1.6c0.7,3.5,2.9,4.2,6.2,4.1
		c9.9-0.3,19.8-0.2,29.7-0.2c1.4,0,2.7-0.1,4.7-0.2c-2.1-7.3-3.9-14.1-6.1-20.8C1640.1,324.7,1637.9,324.7,1636.7,324.3z"/>
	<path class="st11" d="M1561.1,370.1c-7.7,4.3-15.3,8.7-23,13.1c-3.5,2-6.8,4.2-10.2,6.3c9.1,1.4,18.1,2.9,27.2,4.2
		c0.8,0.1,2.5-1,2.7-1.8C1559.1,384.6,1560.1,377.4,1561.1,370.1z"/>
	<path class="st16" d="M1605.8,342.5c0-0.5,0-1,0-1.6c-0.2-0.3-0.5-0.6-0.7-0.8c-12.2,7.3-24.4,14.6-36.6,21.9
		c-1.9,1.1-4.2,1.8-6.2,2.7c-0.1,1-0.2,2.1-0.3,3.1c4.8-2.5,9.8-4.8,14.5-7.5c8-4.7,15.9-9.7,23.8-14.5
		C1602.1,344.6,1603.9,343.6,1605.8,342.5z"/>
	<path class="st16" d="M1491.9,377.3c0,0.3,0,0.5,0,0.8c5.8,3.2,11.4,6.8,17.4,9.5c3.9,1.7,8.3,2.2,12.5,3c0.4,0.1,1-0.9,1.6-1.3
		c-1.1-0.6-2.1-1.1-3.2-1.7c-6.1-0.4-11.7-1.9-16.7-5.7c-3.1-2.4-6.9-3.7-10.4-5.5C1492.7,376.6,1492.3,377,1491.9,377.3z"/>
	<path class="st12" d="M1657.8,308.2c0-0.1-0.1-0.3-0.1-0.3c-0.1,0-0.2,0.1-0.3,0.1c0,0.1,0.1,0.3,0.1,0.3
		C1657.6,308.3,1657.7,308.2,1657.8,308.2z"/>
	<path class="st10" d="M1683.3,265.3c1.7-1.6,3-2.8,4.2-4c-1.1-0.6-2.3-1.9-3.2-1.8c-1.7,0.3-3.3,1.4-4.9,2.2
		C1680.5,262.7,1681.6,263.7,1683.3,265.3z"/>
	<path class="st15" d="M1562.2,364.7c2.1-0.9,4.3-1.5,6.2-2.7c12.2-7.2,24.4-14.6,36.6-21.9c0-0.8,0-1.6-0.1-2.4
		c-7.2,4.2-14.5,8.3-21.7,12.5c-5.6,3.3-11.2,6.7-16.9,9.9c-0.8,0.5-2,0.4-3,0.5c-0.5,1.1-0.9,2.2-1.4,3.3
		C1562.1,364.2,1562.1,364.4,1562.2,364.7z"/>
	<path class="st8" d="M1480.5,346.8c-1.3-0.7-2.5-1.4-3.8-2.2c-0.1,0.3-0.3,0.5-0.4,0.8c1.2,0.7,2.5,1.3,3.7,2
		C1480.2,347.2,1480.4,347,1480.5,346.8z"/>
	<path class="st8" d="M1486.4,348c-1.3-0.9-2.6-1.9-3.9-2.8C1483.8,346.1,1485.1,347,1486.4,348z"/>
	<path class="st8" d="M1481.4,344.8c-0.4-0.5-0.8-1-1.2-1.5c-0.8,0-1.5-0.1-2.3-0.1C1479,343.7,1480.2,344.3,1481.4,344.8z"/>
	<path class="st8" d="M1477.9,343.2c-0.8-0.7-1.6-1.3-2.4-2C1476.3,341.9,1477.1,342.6,1477.9,343.2z"/>
	<path class="st8" d="M1474.4,340.8c-0.7-0.3-1.3-0.5-2-0.8C1473.1,340.3,1473.8,340.6,1474.4,340.8z"/>
	<path class="st8" d="M1473.1,343.4c0.4,0.2,0.9,0.5,1.3,0.7c0.1-0.2,0.2-0.3,0.3-0.5c-0.4-0.3-0.8-0.6-1.2-0.9
		C1473.4,343,1473.2,343.2,1473.1,343.4z"/>
	<path class="st8" d="M1481.5,348.2c0.5,0.3,1,0.6,1.5,0.8c0.2-0.2,0.3-0.4,0.5-0.6c-0.5-0.3-1-0.6-1.5-0.8
		C1481.8,347.8,1481.7,348,1481.5,348.2z"/>
	<path class="st8" d="M1485,349.4c-0.5-0.3-1-0.6-1.5-0.9c-0.2,0.2-0.3,0.4-0.5,0.6c0.5,0.3,1,0.6,1.5,0.9
		C1484.6,349.8,1484.8,349.6,1485,349.4z"/>
	<path class="st8" d="M1480,347.4c0.5,0.3,1,0.6,1.5,0.9c0.2-0.2,0.3-0.4,0.5-0.6c-0.5-0.3-1-0.6-1.5-0.9
		C1480.4,347,1480.2,347.2,1480,347.4z"/>
	<path class="st8" d="M1480.6,342.8c2.2,1,4.3,1.9,6.5,2.9c-2.5-1.3-4.9-2.7-7.4-4C1480,342.1,1480.3,342.4,1480.6,342.8z"/>
	<path class="st8" d="M1476.9,336.4c-2-0.9-4-1.7-6-2.6c2.1,1.5,4.3,2.9,6.4,4.4c0.2-0.2,0.3-0.4,0.5-0.7
		C1477.5,337.1,1477.2,336.7,1476.9,336.4z"/>
	<path class="st8" d="M1471.6,336.9c1.3,0.8,2.6,1.6,3.9,2.4C1474.2,338.5,1472.9,337.7,1471.6,336.9z"/>
	<path class="st8" d="M1475.5,339.3c1,0.7,2.1,1.3,3.1,2C1477.6,340.7,1476.5,340,1475.5,339.3z"/>
	<path class="st8" d="M1482.1,339.6c-0.8-0.4-1.5-0.8-2.3-1.2c-0.1,0.2-0.2,0.4-0.3,0.6c0.7,0.4,1.4,0.8,2.1,1.2
		C1481.8,340,1481.9,339.8,1482.1,339.6z"/>
	<path class="st8" d="M1481.6,340.2c0.5,0.2,1,0.5,1.4,0.7c0.1-0.2,0.2-0.3,0.2-0.5c-0.4-0.3-0.8-0.6-1.1-0.8
		C1481.9,339.8,1481.8,340,1481.6,340.2z"/>
	<path class="st8" d="M1487.4,342.9c-0.4-0.1-0.7-0.1-1.1-0.2c0.2,0.2,0.5,0.4,0.7,0.6C1487.2,343.2,1487.3,343,1487.4,342.9z"/>
	<path class="st24" d="M1497.6,358.6c0.9,0.9,1.8,1.8,2.7,2.7c1.4-0.5,2.9-0.9,4.3-1.4c-1-2.1-1.6-4.5-3.1-6.2
		c-0.7-0.9-2.9-0.4-4.5-0.5C1497.2,355,1497.4,356.8,1497.6,358.6z"/>
	<path class="st11" d="M1342.9,398c-0.2-0.1-0.6-0.1-0.7-0.2c-4.8-4.2-8.9-2.5-13.7,0.5c-10.3,6.6-21.1,12.6-31.6,18.8
		c-0.5,0.3-1,0.7-2.1,1.5c5.3,3.2,10.2,6.2,15.2,9.1c8.3,4.9,16.7,9.8,25,14.8c2.3,1.4,4.1,1.5,6.3-0.2c2.5-1.9,5.2-3.3,7.8-4.9
		c-6.3-5.5-4.9-12.8,3.2-16.6C1347.4,413.9,1344.8,406.1,1342.9,398z"/>
	<path class="st28" d="M1370.5,415.1c1.1-2.9,2.1-5.7,3.2-8.6c1.1-3.5,2.1-6.9,3.2-10.4c0.2-0.3,0.4-0.5,0.7-0.8l-0.1,0
		c0.9-5,2.3-10,2.7-15c0.4-5,0.4-10.2-0.3-15.2c-0.6-4.5-3.5-7.5-8.3-7.8c-0.9,0.2-1.8,0.3-2.6,0.6c-13,3.7-21.8,18.8-22.1,33.7
		c-0.2,12.4,4,23.6,12.1,33.1c3,1.8,5.5,1,7.6-1.7c0.8-1.3,1.6-2.6,2.4-4C1369.5,417.7,1370,416.4,1370.5,415.1z M1367.3,370.2
		c3.7,0,6.1,2.5,5.5,6.5c-0.8,6.3-3.7,11.7-9.2,15c-1.8,1.1-4.2,2.2-6.2-0.2c-0.7-1.3-2.3-2.7-2.1-3.8c0.7-3.9,1.5-7.9,3.3-11.3
		C1360.4,373.1,1363,370.1,1367.3,370.2z"/>
	<path class="st11" d="M1376.9,396.2c-1.1,3.5-2.1,6.9-3.2,10.4c4,2.3,8,4.8,12.1,6.9c1,0.5,2.8,0.6,3.8,0.1
		c12.5-7.3,24.9-14.7,37.3-22c0.3-0.2,0.6-0.4,1.6-1.1c-3.6-2.3-6.8-4.3-10-6.2c-10.4-6.5-10.4-6.5-20.8,0
		c-5.5,3.4-11.1,6.7-16.6,9.9c-1.1,0.6-2.3,1-3.5,1.4c0,0,0.1,0,0.1,0C1377.3,395.6,1377.1,395.9,1376.9,396.2z"/>
	<path class="st11" d="M1324.9,451.9c-7-4.2-13.3-7.9-19.6-11.6c-0.6-0.4-1.8-0.4-2.5-0.1c-9.4,5.6-18.8,11.2-28.2,16.9
		c-0.2,0.1-0.2,0.5-0.5,1.2c4.2,2.5,8.8,4.6,12.6,7.7c5.4,4.4,9.8,3.2,15.1-0.3C1309,460.9,1316.6,456.8,1324.9,451.9z"/>
	<path class="st8" d="M1359.1,424.7c-8.2-9.4-12.3-20.6-12.1-33.1c0.2-15,9.1-30,22.1-33.7c0.9-0.2,1.7-0.4,2.6-0.6
		c-4.6-2.7-8.8-1-12.6,1.6c-11.6,7.9-16.4,19.5-16.4,33.5c0,1.8,0.2,3.7,0.3,5.5c1.9,8.1,4.5,15.9,9.3,22.7c1,1,2,2,3.1,3
		C1356.5,424.1,1357.8,424.4,1359.1,424.7z"/>
	<path class="st16" d="M1350.6,437c3.7,1.2,7.3,2.8,11,3.4c5.6,0.8,11.3,0.1,16.1-3.2c4.5-3.1,6.7-9,2.1-13.7
		c-0.8-0.8-1.5-1.8-2.2-2.7c-0.7,0.3-1.4,0.5-2.2,0.8c-0.1,0.2-0.2,0.5-0.2,0.7c4.8,6.3,4.4,10.7-1.8,14.1
		c-5.9,3.2-12.1,1.7-18.2,0.6c-0.4-0.1-0.5-1.3-0.8-2C1353.2,435.7,1351.9,436.3,1350.6,437z"/>
	<path class="st25" d="M1350.6,437c1.3-0.7,2.6-1.3,3.8-2c0-0.3,0-0.5,0-0.8c-2.7-3.7-1.7-7.2,0.8-10.5c-1-1-2-2-3.1-3
		c-8.1,3.9-9.5,11.1-3.2,16.6C1349.6,437.2,1350.1,437.1,1350.6,437z"/>
	<path class="st11" d="M1375.5,421.6c0.7-0.3,1.4-0.5,2.2-0.8c-0.1-0.7,0-1.8-0.4-2c-2.2-1.3-4.4-2.5-6.7-3.7
		c-0.5,1.3-1,2.6-1.5,3.9C1371.1,419.9,1373.3,420.7,1375.5,421.6z"/>
	<path class="st11" d="M1308.8,516.8c7.4,4.4,14.8,8.2,21.5,13.1c7,5.1,12.7,5.2,19.8,0.1c7.9-5.7,16.7-10.2,25.7-15.6
		c-4.3-2.7-8.1-5.1-12-7.4c-5.5-3.3-11.1-6.7-16.8-9.7c-1.4-0.8-3.9-1.1-5.2-0.4c-10.2,5.8-20.3,11.8-30.4,17.8
		C1310.6,515.3,1309.9,516,1308.8,516.8z"/>
	<path class="st13" d="M1695.4,272.8c1.8,0,3.6,0,5.3,0c0.3-1.1,0.6-2.2,0.9-3.3c-1.3-0.2-3-0.9-3.9-0.4
		C1696.6,269.8,1696.1,271.6,1695.4,272.8z"/>
	<path class="st3" d="M1367.3,370.2c-4.3-0.2-6.9,2.9-8.6,6.1c-1.8,3.4-2.6,7.5-3.3,11.3c-0.2,1.1,1.3,2.5,2.1,3.8
		C1366.1,386.6,1370.1,378.1,1367.3,370.2z"/>
	<path class="st8" d="M1367.3,370.2c2.8,7.8-1.2,16.4-9.9,21.2c2,2.4,4.4,1.3,6.2,0.2c5.5-3.3,8.4-8.6,9.2-15
		C1373.4,372.7,1371,370.3,1367.3,370.2z"/>
	<path class="st22" d="M1355.3,423.7c-2.5,3.3-3.5,6.8-0.8,10.5c1-0.3,2-0.6,3.1-1c4.5-2.6,9-5.2,13.6-7.8c0.4-0.5,0.7-1,1.1-1.5
		c-1.9-0.3-3.7-0.6-5.6-1c-2.1,2.7-4.5,3.5-7.6,1.7C1357.8,424.4,1356.5,424.1,1355.3,423.7z"/>
	<path class="st25" d="M1366.6,423c1.9,0.3,3.7,0.6,5.6,1c1-0.6,2-1.1,3-1.7c0.1-0.2,0.1-0.5,0.2-0.7c-2.2-0.9-4.3-1.7-6.5-2.6
		C1368.2,420.3,1367.4,421.7,1366.6,423z"/>
	<path class="st3" d="M1376.9,396.2c0.2-0.3,0.4-0.5,0.7-0.8C1377.3,395.6,1377.1,395.9,1376.9,396.2z"/>
	<path class="st26" d="M1375.2,422.3c-1,0.6-2,1.1-3,1.7c-0.4,0.5-0.7,1-1.1,1.5c3.7,3.2,3.2,6.4-0.8,8.8c-4.6,2.8-8.6,1.2-12.7-1
		c-1,0.3-2,0.6-3.1,1c0,0.3,0,0.5,0,0.8c0.2,0.7,0.4,1.9,0.8,2c6.1,1.1,12.4,2.6,18.2-0.6C1379.6,433,1380,428.6,1375.2,422.3z"/>
	<path class="st25" d="M1357.5,433.2c4.1,2.2,8.1,3.8,12.7,1c4-2.4,4.5-5.6,0.8-8.8C1366.6,428,1362.1,430.6,1357.5,433.2z"/>
</g>
<rect class="st29" width="1920" height="800"/>
</svg>
