<?xml version="1.0" encoding="utf-8"?>
<!-- Generator: Adobe Illustrator 24.1.1, SVG Export Plug-In . SVG Version: 6.00 Build 0)  -->
<svg version="1.1" id="Layer_1" xmlns="http://www.w3.org/2000/svg" xmlns:xlink="http://www.w3.org/1999/xlink" x="0px" y="0px"
	 viewBox="0 0 1920 800" style="enable-background:new 0 0 1920 800;" xml:space="preserve">
<style type="text/css">
	.st0{fill:#FFFFFF;}
	.st1{fill:url(#SVGID_1_);}
	.st2{fill:url(#SVGID_2_);}
	.st3{fill:url(#SVGID_3_);}
	.st4{fill:url(#SVGID_4_);}
	.st5{fill:url(#SVGID_5_);}
	.st6{fill:#BEE1F4;}
	.st7{fill:url(#SVGID_6_);}
	.st8{fill:url(#SVGID_7_);}
	.st9{fill:url(#SVGID_8_);}
	.st10{fill:url(#SVGID_9_);}
	.st11{fill:url(#SVGID_10_);}
	.st12{fill:url(#SVGID_11_);}
	.st13{fill:url(#SVGID_12_);}
	.st14{fill:#CADBE5;}
	.st15{fill:#AFC7D3;}
	.st16{fill:url(#SVGID_13_);}
	.st17{fill:url(#SVGID_14_);}
	.st18{fill:url(#SVGID_15_);}
	.st19{fill:url(#SVGID_16_);}
	.st20{fill:url(#SVGID_17_);}
	.st21{fill:url(#SVGID_18_);}
	.st22{fill:url(#SVGID_19_);}
	.st23{fill:#00ACB3;}
	.st24{fill:url(#SVGID_20_);}
	.st25{fill:url(#SVGID_21_);}
	.st26{fill:url(#SVGID_22_);}
	.st27{fill:url(#SVGID_23_);}
	.st28{fill:url(#SVGID_24_);}
	.st29{fill:url(#SVGID_25_);}
	.st30{fill:url(#SVGID_26_);}
	.st31{fill:url(#SVGID_27_);}
	.st32{fill:url(#SVGID_28_);}
	.st33{fill:url(#SVGID_29_);}
	.st34{fill:url(#SVGID_30_);}
	.st35{fill:url(#SVGID_31_);}
	.st36{fill:url(#SVGID_32_);}
	.st37{fill:url(#SVGID_33_);}
	.st38{fill:#A5B7C6;}
	.st39{fill:#353568;}
	.st40{fill:url(#SVGID_34_);}
	.st41{fill:#D1610D;}
	.st42{fill:#8DA3B2;}
	.st43{fill:#071A2B;}
	.st44{fill:#D19D19;}
	.st45{fill:#F4CB78;}
	.st46{fill:#E2C493;}
	.st47{fill:url(#SVGID_35_);}
	.st48{fill:#878CF0;}
	.st49{fill:#D8E8EF;}
	.st50{fill:url(#SVGID_36_);}
	.st51{fill:url(#SVGID_37_);}
	.st52{fill:url(#SVGID_38_);}
	.st53{fill:url(#SVGID_39_);}
	.st54{fill:url(#SVGID_40_);}
	.st55{fill:url(#SVGID_41_);}
	.st56{fill:url(#SVGID_42_);}
	.st57{fill:url(#SVGID_43_);}
	.st58{fill:url(#SVGID_44_);}
	.st59{fill:url(#SVGID_45_);}
	.st60{fill:url(#SVGID_46_);}
	.st61{fill:url(#SVGID_47_);}
	.st62{fill:url(#SVGID_48_);}
	.st63{fill:url(#SVGID_49_);}
	.st64{fill:url(#SVGID_50_);}
	.st65{fill:url(#SVGID_51_);}
	.st66{fill:url(#SVGID_52_);}
	.st67{fill:url(#SVGID_53_);}
	.st68{fill:url(#SVGID_54_);}
	.st69{fill:#FBD15B;}
	.st70{font-family:'Arial-BoldMT';}
	.st71{font-size:11.2756px;}
	.st72{fill:#FFC8AF;}
	.st73{fill:#EAA183;}
	.st74{fill:#333366;}
	.st75{fill:url(#SVGID_55_);}
	.st76{fill:url(#SVGID_56_);}
	.st77{fill:url(#SVGID_57_);}
	.st78{fill:url(#SVGID_58_);}
	.st79{fill:#25BCAF;}
	.st80{fill:url(#SVGID_59_);}
	.st81{fill:url(#SVGID_60_);}
	.st82{fill:url(#SVGID_61_);}
	.st83{fill:#4E5FD8;}
	.st84{fill:url(#SVGID_62_);}
	.st85{fill:#F4B9A2;}
	.st86{fill:#FFC17A;}
	.st87{fill:#FCC995;}
	.st88{fill:#E4EEF4;}
	.st89{fill:url(#SVGID_63_);}
	.st90{fill:#99A3F2;}
	.st91{clip-path:url(#SVGID_65_);}
	.st92{fill:#5151AF;}
	.st93{fill:#4F61E0;}
	.st94{fill:#504B87;}
	.st95{fill:url(#SVGID_66_);}
	.st96{fill:#404077;}
	.st97{fill:#F2B49C;}
	.st98{fill:#414042;}
	.st99{fill:#E0BD96;}
	.st100{fill:#845E40;}
	.st101{fill:#BD884C;}
	.st102{fill:url(#SVGID_67_);}
	.st103{fill:url(#SVGID_68_);}
	.st104{fill:url(#SVGID_69_);}
	.st105{fill:url(#SVGID_70_);}
	.st106{opacity:0.45;fill:url(#SVGID_71_);}
</style>
<rect y="2" class="st0" width="1919.5" height="800"/>
<linearGradient id="SVGID_1_" gradientUnits="userSpaceOnUse" x1="1034.8118" y1="404.9547" x2="1919" y2="404.9547" gradientTransform="matrix(1 0 0 1 1 -4.01)">
	<stop  offset="0" style="stop-color:#FAE5E7"/>
	<stop  offset="1" style="stop-color:#ECEEFA"/>
</linearGradient>
<path class="st1" d="M1547.3,798.8c0,0,202-13,371.7-108l1-686.6l-884.2-1c0,0,436.4,188.7,185.2,520.8
	c-18.8,24.5-30.6,53.8-34.4,84.5c-8.9,78,31.8,195.1,360.3,189.9L1547.3,798.8z"/>
<linearGradient id="SVGID_2_" gradientUnits="userSpaceOnUse" x1="1605.5232" y1="524.2858" x2="1605.5232" y2="376.864" gradientTransform="matrix(1 0 0 1 0 -2)">
	<stop  offset="0" style="stop-color:#FFFFFF"/>
	<stop  offset="1" style="stop-color:#BEE1F4"/>
</linearGradient>
<polygon class="st2" points="1370.7,495.1 1370.7,489.2 1382.2,489.2 1382.2,453.3 1409.3,453.3 1409.3,384.2 1429.5,384.2 
	1429.5,481.2 1443.4,481.2 1443.4,429.5 1475.1,429.5 1475.1,493.3 1487.5,493.3 1487.5,380.3 1494.8,380.3 1494.8,390.8 
	1507.2,390.8 1507.2,420.6 1510.8,420.6 1510.8,473.8 1540.2,473.8 1540.2,429.6 1552.8,429.6 1552.8,420 1580.6,420 1580.6,461.8 
	1599.6,461.8 1599.6,452.4 1631.4,452.4 1631.4,387.1 1661.8,387.1 1661.8,464.3 1696.6,464.3 1696.6,422 1700.2,422 1700.2,370.9 
	1723.7,370.9 1723.7,441.5 1724.3,441.5 1724.3,483.8 1738.9,483.8 1738.9,420.1 1767.7,420.1 1767.7,429.4 1776.6,429.4 
	1776.6,471.7 1792.9,471.7 1792.9,374.8 1801.8,374.8 1801.8,401.5 1816.9,401.5 1816.9,443.8 1840.3,443.8 1840.3,519.5 
	1370.7,519.5 "/>
<linearGradient id="SVGID_3_" gradientUnits="userSpaceOnUse" x1="1817.5867" y1="613.2462" x2="1817.5867" y2="473.7487" gradientTransform="matrix(1 0 0 1 0 -2)">
	<stop  offset="0" style="stop-color:#FFFFFF"/>
	<stop  offset="1" style="stop-color:#BEE1F4"/>
</linearGradient>
<rect x="1781.5" y="471.7" class="st3" width="72.3" height="139.5"/>
<linearGradient id="SVGID_4_" gradientUnits="userSpaceOnUse" x1="1817.5867" y1="473.762" x2="1817.5867" y2="464.8173" gradientTransform="matrix(1 0 0 1 0 -2)">
	<stop  offset="0" style="stop-color:#FFFFFF"/>
	<stop  offset="1" style="stop-color:#BEE1F4"/>
</linearGradient>
<rect x="1778.3" y="462.8" class="st4" width="78.7" height="8.9"/>
<linearGradient id="SVGID_5_" gradientUnits="userSpaceOnUse" x1="1817.5867" y1="547.9979" x2="1817.5867" y2="539.0532" gradientTransform="matrix(1 0 0 1 0 -2)">
	<stop  offset="0" style="stop-color:#FFFFFF"/>
	<stop  offset="1" style="stop-color:#BEE1F4"/>
</linearGradient>
<rect x="1778.3" y="537.1" class="st5" width="78.7" height="8.9"/>
<rect x="1795.3" y="484.1" class="st0" width="11" height="16.5"/>
<path class="st6" d="M1806.8,501.1h-12.1v-17.6h12.1V501.1z M1795.8,500h9.8v-15.3h-9.8V500z"/>
<rect x="1800.2" y="484.1" class="st6" width="1.1" height="16.5"/>
<rect x="1795.3" y="491.7" class="st6" width="11" height="1.1"/>
<rect x="1812.1" y="484.1" class="st0" width="11" height="16.5"/>
<path class="st6" d="M1823.7,501.1h-12.1v-17.6h12.1V501.1z M1812.7,500h9.8v-15.3h-9.8V500z"/>
<rect x="1817" y="484.1" class="st6" width="1.1" height="16.5"/>
<rect x="1812.1" y="491.7" class="st6" width="11" height="1.1"/>
<rect x="1829" y="484.1" class="st0" width="11" height="16.5"/>
<path class="st6" d="M1840.4,501.1h-12.1v-17.6h12.1V501.1z M1829.5,500h9.8v-15.3h-9.8V500z"/>
<rect x="1833.9" y="484.1" class="st6" width="1.1" height="16.5"/>
<rect x="1829" y="491.7" class="st6" width="11" height="1.1"/>
<rect x="1795.3" y="508.6" class="st0" width="11" height="16.5"/>
<path class="st6" d="M1806.8,525.6h-12.1V508h12.1V525.6z M1795.8,524.5h9.8v-15.3h-9.8V524.5z"/>
<rect x="1800.2" y="508.6" class="st6" width="1.1" height="16.5"/>
<rect x="1795.3" y="516.3" class="st6" width="11" height="1.1"/>
<rect x="1812.1" y="508.6" class="st0" width="11" height="16.5"/>
<path class="st6" d="M1823.7,525.6h-12.1V508h12.1V525.6z M1812.7,524.5h9.8v-15.3h-9.8V524.5z"/>
<rect x="1817" y="508.6" class="st6" width="1.1" height="16.5"/>
<rect x="1812.1" y="516.3" class="st6" width="11" height="1.1"/>
<rect x="1829" y="508.6" class="st0" width="11" height="16.5"/>
<path class="st6" d="M1840.4,525.6h-12.1V508h12.1V525.6z M1829.5,524.5h9.8v-15.3h-9.8V524.5z"/>
<rect x="1833.9" y="508.6" class="st6" width="1.1" height="16.5"/>
<rect x="1829" y="516.3" class="st6" width="11" height="1.1"/>
<rect x="1795.3" y="556.4" class="st0" width="11" height="16.5"/>
<path class="st6" d="M1806.8,573.4h-12.1v-17.6h12.1V573.4z M1795.8,572.3h9.8V557h-9.8V572.3z"/>
<rect x="1800.2" y="556.4" class="st6" width="1.1" height="16.5"/>
<rect x="1795.3" y="564" class="st6" width="11" height="1.1"/>
<rect x="1812.1" y="556.4" class="st0" width="11" height="16.5"/>
<path class="st6" d="M1823.7,573.4h-12.1v-17.6h12.1V573.4z M1812.7,572.3h9.8V557h-9.8V572.3z"/>
<rect x="1817" y="556.4" class="st6" width="1.1" height="16.5"/>
<rect x="1812.1" y="564" class="st6" width="11" height="1.1"/>
<rect x="1829" y="556.4" class="st0" width="11" height="16.5"/>
<path class="st6" d="M1840.4,573.4h-12.1v-17.6h12.1V573.4z M1829.5,572.3h9.8V557h-9.8V572.3z"/>
<rect x="1833.9" y="556.4" class="st6" width="1.1" height="16.5"/>
<rect x="1829" y="564" class="st6" width="11" height="1.1"/>
<rect x="1795.3" y="580.9" class="st0" width="11" height="16.5"/>
<path class="st6" d="M1806.8,597.9h-12.1v-17.6h12.1V597.9z M1795.8,596.8h9.8v-15.3h-9.8V596.8z"/>
<rect x="1800.2" y="580.9" class="st6" width="1.1" height="16.5"/>
<rect x="1795.3" y="588.5" class="st6" width="11" height="1.1"/>
<rect x="1812.1" y="580.9" class="st0" width="11" height="16.5"/>
<path class="st6" d="M1823.7,597.9h-12.1v-17.6h12.1V597.9z M1812.7,596.8h9.8v-15.3h-9.8V596.8z"/>
<rect x="1817" y="580.9" class="st6" width="1.1" height="16.5"/>
<rect x="1812.1" y="588.5" class="st6" width="11" height="1.1"/>
<rect x="1829" y="580.9" class="st0" width="11" height="16.5"/>
<path class="st6" d="M1840.4,597.9h-12.1v-17.6h12.1V597.9z M1829.5,596.8h9.8v-15.3h-9.8V596.8z"/>
<rect x="1833.9" y="580.9" class="st6" width="1.1" height="16.5"/>
<rect x="1829" y="588.5" class="st6" width="11" height="1.1"/>
<linearGradient id="SVGID_6_" gradientUnits="userSpaceOnUse" x1="1690.4185" y1="613.2462" x2="1690.4185" y2="504.4675" gradientTransform="matrix(1 0 0 1 0 -2)">
	<stop  offset="0" style="stop-color:#FFFFFF"/>
	<stop  offset="1" style="stop-color:#BEE1F4"/>
</linearGradient>
<polygon class="st7" points="1706,611.2 1674.8,611.2 1674.8,500 1706,514.6 "/>
<linearGradient id="SVGID_7_" gradientUnits="userSpaceOnUse" x1="1662.9187" y1="613.3468" x2="1662.9187" y2="556.4875" gradientTransform="matrix(1 0 0 1 0 -2)">
	<stop  offset="0" style="stop-color:#FFFFFF"/>
	<stop  offset="1" style="stop-color:#BEE1F4"/>
</linearGradient>
<rect x="1651" y="553.2" class="st8" width="23.9" height="58.2"/>
<linearGradient id="SVGID_8_" gradientUnits="userSpaceOnUse" x1="1710.3322" y1="613.3468" x2="1710.3322" y2="568.2817" gradientTransform="matrix(1 0 0 1 0 -2)">
	<stop  offset="0" style="stop-color:#FFFFFF"/>
	<stop  offset="1" style="stop-color:#BEE1F4"/>
</linearGradient>
<rect x="1706" y="565.2" class="st9" width="8.7" height="46.1"/>
<linearGradient id="SVGID_9_" gradientUnits="userSpaceOnUse" x1="1765.2322" y1="613.3467" x2="1765.2322" y2="534.2203" gradientTransform="matrix(1 0 0 1 0 -2)">
	<stop  offset="0" style="stop-color:#FFFFFF"/>
	<stop  offset="1" style="stop-color:#BEE1F4"/>
</linearGradient>
<rect x="1756.3" y="530.3" class="st10" width="17.9" height="81"/>
<linearGradient id="SVGID_10_" gradientUnits="userSpaceOnUse" x1="1740.3774" y1="613.2462" x2="1740.3774" y2="488.4126" gradientTransform="matrix(1 0 0 1 0 -2)">
	<stop  offset="0" style="stop-color:#FFFFFF"/>
	<stop  offset="1" style="stop-color:#BEE1F4"/>
</linearGradient>
<rect x="1714.7" y="483.5" class="st11" width="51.4" height="127.7"/>
<linearGradient id="SVGID_11_" gradientUnits="userSpaceOnUse" x1="1731.0444" y1="485.5439" x2="1731.0444" y2="479.7765" gradientTransform="matrix(1 0 0 1 0 -2)">
	<stop  offset="0" style="stop-color:#FFFFFF"/>
	<stop  offset="1" style="stop-color:#BEE1F4"/>
</linearGradient>
<rect x="1722.3" y="477.7" class="st12" width="17.6" height="5.9"/>
<linearGradient id="SVGID_12_" gradientUnits="userSpaceOnUse" x1="1727.9001" y1="479.6407" x2="1727.9001" y2="461.7579" gradientTransform="matrix(1 0 0 1 0 -2)">
	<stop  offset="0" style="stop-color:#FFFFFF"/>
	<stop  offset="1" style="stop-color:#BEE1F4"/>
</linearGradient>
<rect x="1727.1" y="459.4" class="st13" width="1.7" height="18.3"/>
<rect x="1752.8" y="490.6" class="st0" width="7" height="11.8"/>
<rect x="1721" y="490.6" class="st0" width="7" height="11.8"/>
<rect x="1742.2" y="490.6" class="st0" width="7" height="11.8"/>
<rect x="1731.6" y="490.6" class="st0" width="7" height="11.8"/>
<rect x="1752.8" y="524.4" class="st0" width="7" height="11.8"/>
<rect x="1721" y="524.4" class="st0" width="7" height="11.8"/>
<rect x="1742.2" y="524.4" class="st0" width="7" height="11.8"/>
<rect x="1731.6" y="524.4" class="st0" width="7" height="11.8"/>
<rect x="1752.8" y="507.5" class="st0" width="7" height="11.8"/>
<rect x="1721" y="507.5" class="st0" width="7" height="11.8"/>
<rect x="1742.2" y="507.5" class="st0" width="7" height="11.8"/>
<rect x="1731.6" y="507.5" class="st0" width="7" height="11.8"/>
<rect x="1752.8" y="541.3" class="st0" width="7" height="11.8"/>
<rect x="1721" y="541.3" class="st0" width="7" height="11.8"/>
<rect x="1742.2" y="541.3" class="st0" width="7" height="11.8"/>
<rect x="1731.6" y="541.3" class="st0" width="7" height="11.8"/>
<rect x="1752.8" y="575.1" class="st0" width="7" height="11.8"/>
<rect x="1721" y="575.1" class="st0" width="7" height="11.8"/>
<rect x="1742.2" y="575.1" class="st0" width="7" height="11.8"/>
<rect x="1731.6" y="575.1" class="st0" width="7" height="11.8"/>
<rect x="1752.8" y="558.2" class="st0" width="7" height="11.8"/>
<rect x="1721" y="558.2" class="st0" width="7" height="11.8"/>
<rect x="1742.2" y="558.2" class="st0" width="7" height="11.8"/>
<rect x="1731.6" y="558.2" class="st0" width="7" height="11.8"/>
<path class="st14" d="M1676.8,649.8h-277.9c-5.1,0-9.3-4.2-9.3-9.3l0,0c0-5.1,4.2-9.3,9.3-9.3h277.9c5.1,0,9.3,4.2,9.3,9.3l0,0
	C1686,645.6,1681.9,649.8,1676.8,649.8z"/>
<path class="st14" d="M1852.8,638h-503.2c-5.3,0-9.5-4.3-9.6-9.6l0,0c0-5.3,4.3-9.5,9.6-9.5h503.2c5.3,0,9.5,4.3,9.6,9.5l0,0
	C1862.4,633.8,1858.1,638,1852.8,638z"/>
<path class="st14" d="M1800.3,652.9H1691c-2.6,0-4.7-2.1-4.7-4.7l0,0c0-2.6,2.1-4.7,4.7-4.7h109.3c2.6,0,4.7,2.1,4.7,4.7l0,0
	C1805,650.7,1802.9,652.9,1800.3,652.9z"/>
<path class="st14" d="M1754.4,621.4h-386.7c-3,0-5.4-2.4-5.4-5.4l0,0c0-3,2.4-5.4,5.4-5.4h386.7c3,0,5.4,2.4,5.4,5.4l0,0
	C1759.8,619,1757.4,621.4,1754.4,621.4z"/>
<path class="st14" d="M1690.1,635.5h70.1c4,0,7.3,3.3,7.3,7.3v2.6c0,4-3.3,7.3-7.3,7.3h-70.1c-4,0-7.3-3.3-7.3-7.3v-2.6
	C1682.8,638.8,1686,635.5,1690.1,635.5z"/>
<path class="st15" d="M1826.4,634.4H1388c-2.7,0-5-2.2-5-5l0,0c0-2.7,2.3-4.9,5-4.9h438.4c2.7,0,4.9,2.2,4.9,4.9l0,0
	C1831.3,632.1,1829.1,634.3,1826.4,634.4z"/>
<path class="st15" d="M1658.2,644.2h-220.1c-3.9,0-7-3.1-7-7l0,0c0-3.9,3.1-7,7-7h220.1c3.9,0,7,3.1,7,7l0,0
	C1665.2,641,1662,644.1,1658.2,644.2z"/>
<linearGradient id="SVGID_13_" gradientUnits="userSpaceOnUse" x1="1390.8088" y1="428.0641" x2="1471.188" y2="567.2855" gradientTransform="matrix(1 0 0 1 1 -4.01)">
	<stop  offset="0" style="stop-color:#BEE1F4"/>
	<stop  offset="1" style="stop-color:#25BCAF"/>
</linearGradient>
<path class="st16" d="M1434.2,399.6c0,0-33,58.3-33,109.5c0,51.3,33,76.1,33,76.1s33-24.8,33-76.1S1434.2,399.6,1434.2,399.6z"/>
<linearGradient id="SVGID_14_" gradientUnits="userSpaceOnUse" x1="1406.632" y1="515.1722" x2="1460.9908" y2="609.3005" gradientTransform="matrix(1 0 0 1 0 -2)">
	<stop  offset="0.31" style="stop-color:#56548C"/>
	<stop  offset="0.94" style="stop-color:#3B367A"/>
</linearGradient>
<polygon class="st17" points="1450.8,539.6 1436.6,552.5 1435.1,497.8 1433.3,497.8 1431.8,529.6 1413.1,512.3 1431.8,532.7 
	1431.8,621.4 1436.6,621.4 1436.6,555.4 "/>
<linearGradient id="SVGID_15_" gradientUnits="userSpaceOnUse" x1="1478.212" y1="428.0856" x2="1558.5662" y2="567.264" gradientTransform="matrix(1 0 0 1 1 -4.01)">
	<stop  offset="0" style="stop-color:#BEE1F4"/>
	<stop  offset="1" style="stop-color:#25BCAF"/>
</linearGradient>
<path class="st18" d="M1521.6,399.6c0,0-33.1,58.3-33.1,109.5c0,51.3,33,76.1,33,76.1s33-24.8,33-76.1S1521.6,399.6,1521.6,399.6z"
	/>
<linearGradient id="SVGID_16_" gradientUnits="userSpaceOnUse" x1="1494.0757" y1="515.167" x2="1548.4282" y2="609.3055" gradientTransform="matrix(1 0 0 1 0 -2)">
	<stop  offset="0.31" style="stop-color:#56548C"/>
	<stop  offset="0.94" style="stop-color:#3B367A"/>
</linearGradient>
<polygon class="st19" points="1538.2,539.6 1524,552.5 1522.5,497.8 1520.7,497.8 1519.2,529.6 1500.6,512.3 1519.2,532.7 
	1519.2,621.4 1524,621.4 1524,555.4 "/>
<linearGradient id="SVGID_17_" gradientUnits="userSpaceOnUse" x1="1340.4312" y1="473.151" x2="1399.5752" y2="575.5849" gradientTransform="matrix(1 0 0 1 1 -4.01)">
	<stop  offset="0" style="stop-color:#BEE1F4"/>
	<stop  offset="1" style="stop-color:#25BCAF"/>
</linearGradient>
<path class="st20" d="M1372.6,451.1c0,0-24.3,42.9-24.3,80.6s24.3,56,24.3,56s24.4-18.3,24.4-56S1372.6,451.1,1372.6,451.1z"/>
<linearGradient id="SVGID_18_" gradientUnits="userSpaceOnUse" x1="1352.307" y1="536.7758" x2="1392.2898" y2="606.0303" gradientTransform="matrix(1 0 0 1 0 -2)">
	<stop  offset="0.31" style="stop-color:#56548C"/>
	<stop  offset="0.94" style="stop-color:#3B367A"/>
</linearGradient>
<polygon class="st21" points="1384.9,554.2 1374.4,563.6 1373.2,523.4 1372,523.4 1370.8,546.8 1357.1,534.1 1370.8,549 
	1370.8,614.4 1374.4,614.4 1374.4,565.8 "/>
<linearGradient id="SVGID_19_" gradientUnits="userSpaceOnUse" x1="1793.7572" y1="596.214" x2="1808.7709" y2="622.2253" gradientTransform="matrix(1 0 0 1 1 -4.01)">
	<stop  offset="0" style="stop-color:#BEE1F4"/>
	<stop  offset="1" style="stop-color:#25BCAF"/>
</linearGradient>
<path class="st22" d="M1810.5,583.3c1.9,0.7-0.3,13.4-6.6,38.2h-6.8c3.5-9.5,6.7-19.2,9.8-28.9c0.2-0.5-0.1-0.6-0.3-0.1
	c-3.6,9.5-7.1,19.3-10.4,29h-5.6C1801.9,595.4,1808.5,582.6,1810.5,583.3z"/>
<path class="st23" d="M1806.6,592.6c0.2-0.5,0.5-0.4,0.3,0.1c-3.1,9.7-6.3,19.4-9.8,28.9h-0.9
	C1799.5,611.8,1802.9,602.1,1806.6,592.6z"/>
<linearGradient id="SVGID_20_" gradientUnits="userSpaceOnUse" x1="1759.2161" y1="559.054" x2="1794.5897" y2="620.319" gradientTransform="matrix(1 0 0 1 1 -4.01)">
	<stop  offset="0" style="stop-color:#BEE1F4"/>
	<stop  offset="1" style="stop-color:#25BCAF"/>
</linearGradient>
<path class="st24" d="M1786.3,621.6h-7.3l0.1-2.7l0.1-4.8c0.2-6.3,0.4-12.8,0.6-19.1c0.4-12.8,0.8-25.5,1.2-38.3c0-1-0.3-1-0.4,0
	c-0.8,12.8-1.4,25.5-1.8,38.3c-0.2,6.3-0.4,12.8-0.5,19.2v4.8v2.7h-8.1c5.2-58.4,8.7-78.8,11.1-78.7
	C1783.7,543,1785.6,563.4,1786.3,621.6z"/>
<path class="st23" d="M1780.7,556.6c0-1,0.4-1,0.4,0c-0.4,12.8-0.8,25.5-1.2,38.3c-0.2,6.3-0.4,12.8-0.6,19.1l-0.1,4.8l-0.1,2.7
	h-0.7v-2.7V614c0.1-6.4,0.2-12.8,0.5-19.2C1779.3,582.1,1779.9,569.3,1780.7,556.6z"/>
<linearGradient id="SVGID_21_" gradientUnits="userSpaceOnUse" x1="1752.3706" y1="579.0528" x2="1777.4052" y2="622.4186" gradientTransform="matrix(1 0 0 1 1 -4.01)">
	<stop  offset="0" style="stop-color:#BEE1F4"/>
	<stop  offset="1" style="stop-color:#25BCAF"/>
</linearGradient>
<path class="st25" d="M1773,621.6h-4.2c-0.2-14-0.7-27.9-1.6-42c0-0.6-0.4-0.6-0.4,0c0.1,14,0.6,27.9,1.4,41.9h-5.6
	c0.5-32.4,2.3-54,3.8-54.1C1768,567.4,1770.2,585.4,1773,621.6z"/>
<path class="st23" d="M1768.8,621.6h-0.6c-0.8-14-1.3-27.9-1.4-41.9c0-0.6,0.3-0.6,0.4,0C1768,593.6,1768.6,607.6,1768.8,621.6z"/>
<linearGradient id="SVGID_22_" gradientUnits="userSpaceOnUse" x1="1744.6873" y1="593.4927" x2="1763.4617" y2="626.0054" gradientTransform="matrix(1 0 0 1 1 -4.01)">
	<stop  offset="0" style="stop-color:#BEE1F4"/>
	<stop  offset="1" style="stop-color:#25BCAF"/>
</linearGradient>
<path class="st26" d="M1765.2,621.6h-4.1c-1.9-9.3-4.1-18.6-6.6-27.8c-0.1-0.4-0.4-0.3-0.3,0.1c1.8,9.3,3.8,18.5,6.1,27.7h-5.7
	c-3.1-23.7-3.8-35.7-2.2-36.1C1754.2,585.2,1758.4,597.2,1765.2,621.6z"/>
<path class="st23" d="M1761.2,621.6h-0.7c-2.4-9.1-4.4-18.4-6.1-27.7c-0.1-0.4,0.2-0.5,0.3-0.1C1757,603,1759.3,612.3,1761.2,621.6z
	"/>
<linearGradient id="SVGID_23_" gradientUnits="userSpaceOnUse" x1="1782.6201" y1="579.3752" x2="1804.8954" y2="617.9487" gradientTransform="matrix(1 0 0 1 1 -4.01)">
	<stop  offset="0" style="stop-color:#BEE1F4"/>
	<stop  offset="1" style="stop-color:#25BCAF"/>
</linearGradient>
<path class="st27" d="M1805.4,562.9c1.7,0.6-2.5,20.1-12.8,58.7h-6.1c5.4-15.6,10.5-31.2,15.4-46.9c0.2-0.8-0.1-0.9-0.3-0.1
	c-5.5,15.6-10.8,31.3-15.8,47h-4.6C1795.5,581.9,1803.6,562.3,1805.4,562.9z"/>
<path class="st23" d="M1801.5,574.6c0.3-0.7,0.6-0.7,0.3,0.1c-4.9,15.7-10,31.4-15.4,46.9h-0.8
	C1790.7,605.8,1795.9,590.1,1801.5,574.6z"/>
<linearGradient id="SVGID_24_" gradientUnits="userSpaceOnUse" x1="1726.3531" y1="596.1588" x2="1741.3622" y2="622.1837" gradientTransform="matrix(1 0 0 1 1 -4.01)">
	<stop  offset="0" style="stop-color:#BEE1F4"/>
	<stop  offset="1" style="stop-color:#25BCAF"/>
</linearGradient>
<path class="st28" d="M1743.1,583.3c1.9,0.7-0.3,13.4-6.6,38.2h-6.8c3.5-9.5,6.7-19.2,9.8-28.9c0.2-0.5-0.1-0.6-0.3-0.1
	c-3.7,9.5-7.1,19.3-10.4,29h-5.6C1734.4,595.4,1741,582.6,1743.1,583.3z"/>
<path class="st23" d="M1739.1,592.6c0.2-0.5,0.5-0.4,0.3,0.1c-3.1,9.7-6.4,19.4-9.8,28.9h-0.9C1732,611.8,1735.4,602.1,1739.1,592.6
	z"/>
<linearGradient id="SVGID_25_" gradientUnits="userSpaceOnUse" x1="1691.7206" y1="559.0018" x2="1727.0942" y2="620.2668" gradientTransform="matrix(1 0 0 1 1 -4.01)">
	<stop  offset="0" style="stop-color:#BEE1F4"/>
	<stop  offset="1" style="stop-color:#25BCAF"/>
</linearGradient>
<path class="st29" d="M1718.9,621.6h-7.3l0.1-2.7l0.1-4.8c0.2-6.3,0.4-12.8,0.6-19.1c0.4-12.8,0.8-25.5,1.2-38.3c0-1-0.3-1-0.4,0
	c-0.8,12.8-1.4,25.5-1.8,38.3c-0.2,6.3-0.4,12.8-0.5,19.2v4.8v2.7h-8.1c5.2-58.4,8.7-78.8,11.1-78.7
	C1716.4,543,1718.2,563.4,1718.9,621.6z"/>
<path class="st23" d="M1713.3,556.6c0-1,0.4-1,0.4,0c-0.4,12.8-0.8,25.5-1.2,38.3c-0.2,6.3-0.4,12.8-0.6,19.1l-0.1,4.8l-0.1,2.7
	h-0.7v-2.7V614c0.1-6.4,0.2-12.8,0.5-19.2C1711.8,582.1,1712.5,569.3,1713.3,556.6z"/>
<linearGradient id="SVGID_26_" gradientUnits="userSpaceOnUse" x1="1684.8938" y1="579.0612" x2="1709.9407" y2="622.427" gradientTransform="matrix(1 0 0 1 1 -4.01)">
	<stop  offset="0" style="stop-color:#BEE1F4"/>
	<stop  offset="1" style="stop-color:#25BCAF"/>
</linearGradient>
<path class="st30" d="M1705.5,621.6h-4.2c-0.2-14-0.7-27.9-1.6-42c0-0.6-0.4-0.6-0.4,0c0.1,14,0.6,27.9,1.4,41.9h-5.6
	c0.5-32.4,2.3-54,3.8-54.1C1700.5,567.4,1702.8,585.4,1705.5,621.6z"/>
<path class="st23" d="M1701.3,621.6h-0.6c-0.8-14-1.3-27.9-1.4-41.9c0-0.6,0.3-0.6,0.4,0C1700.6,593.6,1701.1,607.6,1701.3,621.6z"
	/>
<linearGradient id="SVGID_27_" gradientUnits="userSpaceOnUse" x1="1677.1586" y1="593.5315" x2="1695.9359" y2="626.0492" gradientTransform="matrix(1 0 0 1 1 -4.01)">
	<stop  offset="0" style="stop-color:#BEE1F4"/>
	<stop  offset="1" style="stop-color:#25BCAF"/>
</linearGradient>
<path class="st31" d="M1697.7,621.6h-4.1c-1.9-9.3-4.1-18.6-6.6-27.8c-0.1-0.4-0.4-0.3-0.4,0.1c1.8,9.3,3.8,18.5,6.1,27.7h-5.7
	c-3.1-23.7-3.8-35.7-2.2-36.1C1686.7,585.2,1690.9,597.2,1697.7,621.6z"/>
<path class="st23" d="M1693.7,621.6h-0.7c-2.4-9.1-4.4-18.4-6.1-27.7c-0.1-0.4,0.2-0.5,0.4-0.1
	C1689.6,603,1691.8,612.3,1693.7,621.6z"/>
<linearGradient id="SVGID_28_" gradientUnits="userSpaceOnUse" x1="1715.2053" y1="579.3965" x2="1737.458" y2="617.9308" gradientTransform="matrix(1 0 0 1 1 -4.01)">
	<stop  offset="0" style="stop-color:#BEE1F4"/>
	<stop  offset="1" style="stop-color:#25BCAF"/>
</linearGradient>
<path class="st32" d="M1738,562.9c1.7,0.6-2.5,20.1-12.8,58.7h-6.1c5.4-15.6,10.5-31.2,15.4-46.9c0.2-0.8-0.1-0.9-0.3-0.1
	c-5.5,15.6-10.8,31.3-15.8,47h-4.7C1728,581.9,1736.2,562.3,1738,562.9z"/>
<path class="st23" d="M1734,574.6c0.3-0.7,0.6-0.7,0.3,0.1c-4.9,15.7-10,31.4-15.4,46.9h-0.8C1723.3,605.8,1728.5,590.1,1734,574.6z
	"/>
<linearGradient id="SVGID_29_" gradientUnits="userSpaceOnUse" x1="1566.943" y1="596.1664" x2="1581.941" y2="622.1505" gradientTransform="matrix(1 0 0 1 1 -4.01)">
	<stop  offset="0" style="stop-color:#BEE1F4"/>
	<stop  offset="1" style="stop-color:#25BCAF"/>
</linearGradient>
<path class="st33" d="M1583.7,583.3c1.9,0.7-0.3,13.4-6.6,38.2h-6.8c3.4-9.5,6.7-19.2,9.8-28.9c0.2-0.5-0.1-0.6-0.3-0.1
	c-3.7,9.5-7.1,19.3-10.4,29h-5.6C1575,595.4,1581.6,582.6,1583.7,583.3z"/>
<path class="st23" d="M1579.7,592.6c0.2-0.5,0.5-0.4,0.3,0.1c-3.1,9.7-6.4,19.4-9.8,28.9h-0.9C1572.6,611.8,1576,602.1,1579.7,592.6
	z"/>
<linearGradient id="SVGID_30_" gradientUnits="userSpaceOnUse" x1="1532.2754" y1="559.1105" x2="1567.6168" y2="620.3194" gradientTransform="matrix(1 0 0 1 1 -4.01)">
	<stop  offset="0" style="stop-color:#BEE1F4"/>
	<stop  offset="1" style="stop-color:#25BCAF"/>
</linearGradient>
<path class="st34" d="M1559.5,621.6h-7.3v-2.7l0.1-4.8c0.2-6.3,0.4-12.8,0.6-19.1c0.4-12.8,0.8-25.5,1.2-38.3c0-1-0.3-1-0.4,0
	c-0.8,12.8-1.4,25.5-1.8,38.3c-0.2,6.3-0.4,12.8-0.5,19.2v4.8v2.7h-8.1c5.2-58.4,8.7-78.8,11.1-78.7
	C1556.9,543,1558.8,563.4,1559.5,621.6z"/>
<path class="st23" d="M1553.9,556.6c0-1,0.4-1,0.4,0c-0.4,12.8-0.8,25.5-1.2,38.3c-0.2,6.3-0.4,12.8-0.6,19.1l-0.1,4.8v2.7h-0.7
	v-2.7V614c0.1-6.4,0.2-12.8,0.5-19.2C1552.5,582.1,1553.1,569.3,1553.9,556.6z"/>
<linearGradient id="SVGID_31_" gradientUnits="userSpaceOnUse" x1="1525.4923" y1="579.0649" x2="1550.5266" y2="622.4308" gradientTransform="matrix(1 0 0 1 1 -4.01)">
	<stop  offset="0" style="stop-color:#BEE1F4"/>
	<stop  offset="1" style="stop-color:#25BCAF"/>
</linearGradient>
<path class="st35" d="M1546.1,621.6h-4.2c-0.2-14-0.7-27.9-1.6-42c0-0.6-0.4-0.6-0.4,0c0.1,14,0.6,27.9,1.4,41.9h-5.6
	c0.5-32.4,2.3-54,3.8-54.1C1541.1,567.4,1543.4,585.4,1546.1,621.6z"/>
<path class="st23" d="M1541.9,621.6h-0.5c-0.8-14-1.3-27.9-1.4-41.9c0-0.6,0.3-0.6,0.4,0C1541.2,593.6,1541.7,607.6,1541.9,621.6z"
	/>
<linearGradient id="SVGID_32_" gradientUnits="userSpaceOnUse" x1="1517.8121" y1="593.503" x2="1536.5864" y2="626.0156" gradientTransform="matrix(1 0 0 1 1 -4.01)">
	<stop  offset="0" style="stop-color:#BEE1F4"/>
	<stop  offset="1" style="stop-color:#25BCAF"/>
</linearGradient>
<path class="st36" d="M1538.3,621.6h-4.1c-1.9-9.3-4.1-18.6-6.6-27.8c-0.1-0.4-0.4-0.3-0.3,0.1c1.8,9.3,3.8,18.5,6.1,27.7h-5.7
	c-3.1-23.7-3.8-35.7-2.2-36.1C1527.3,585.2,1531.6,597.2,1538.3,621.6z"/>
<path class="st23" d="M1534.3,621.6h-0.7c-2.4-9.1-4.4-18.4-6.1-27.7c-0.1-0.4,0.2-0.5,0.3-0.1
	C1530.2,603,1532.4,612.3,1534.3,621.6z"/>
<linearGradient id="SVGID_33_" gradientUnits="userSpaceOnUse" x1="1555.7959" y1="579.3965" x2="1578.049" y2="617.9313" gradientTransform="matrix(1 0 0 1 1 -4.01)">
	<stop  offset="0" style="stop-color:#BEE1F4"/>
	<stop  offset="1" style="stop-color:#25BCAF"/>
</linearGradient>
<path class="st37" d="M1578.6,562.9c1.7,0.6-2.5,20.1-12.8,58.7h-6.1c5.4-15.6,10.5-31.2,15.4-46.9c0.2-0.8-0.1-0.9-0.3-0.1
	c-5.5,15.6-10.8,31.3-15.8,47h-4.7C1568.6,581.9,1576.8,562.3,1578.6,562.9z"/>
<path class="st23" d="M1574.6,574.6c0.3-0.7,0.6-0.7,0.3,0.1c-4.9,15.7-10,31.4-15.4,46.9h-0.8
	C1563.8,605.8,1569.1,590.1,1574.6,574.6z"/>
<ellipse class="st38" cx="1548" cy="307.7" rx="21.8" ry="21.9"/>
<path class="st0" d="M1534.8,320c0.2,0.7,0.7,1.1,1.4,1.1h23.5c0.7,0,1.3-0.5,1.4-1.1l3.5-14.2h-33.3L1534.8,320z M1556.6,308.4
	c0-0.4,0.4-0.8,0.8-0.8l0,0c0.4,0,0.8,0.3,0.8,0.8v9.8c0,0.4-0.3,0.8-0.8,0.8l0,0c-0.4,0-0.8-0.3-0.8-0.8l0,0V308.4z M1551.9,308.4
	c0.1-0.4,0.4-0.7,0.9-0.7c0.4,0,0.6,0.3,0.7,0.7v9.8c0.1,0.4-0.2,0.8-0.7,0.9c-0.4,0.1-0.8-0.2-0.9-0.7c0-0.1,0-0.1,0-0.2V308.4z
	 M1547.2,308.4c0.1-0.4,0.4-0.7,0.9-0.7c0.4,0,0.6,0.3,0.7,0.7v9.8c0.1,0.4-0.2,0.8-0.7,0.9c-0.4,0.1-0.8-0.2-0.9-0.7
	c0-0.1,0-0.1,0-0.2V308.4z M1542.5,308.4c0.1-0.4,0.4-0.7,0.9-0.7c0.4,0,0.6,0.3,0.7,0.7v9.8c0.1,0.4-0.2,0.8-0.7,0.9
	c-0.4,0.1-0.8-0.2-0.9-0.7c0-0.1,0-0.1,0-0.2V308.4z M1537.9,308.4c0.1-0.4,0.4-0.7,0.9-0.7c0.4,0,0.6,0.3,0.7,0.7v9.8
	c0.1,0.4-0.2,0.8-0.7,0.9c-0.4,0.1-0.8-0.2-0.9-0.7c0-0.1,0-0.1,0-0.2V308.4z M1564.5,301.8h-5l-7.2-7.2c-0.5-0.4-1.1-0.3-1.5,0.2
	c-0.3,0.4-0.3,0.9,0,1.3l5.7,5.7h-17.3l5.7-5.7c0.4-0.4,0.4-1.1-0.1-1.5c-0.4-0.4-1-0.4-1.4,0l-7.2,7.2h-5c-0.8,0-1.5,0.7-1.5,1.5
	s0.7,1.5,1.5,1.5h33.2c0.8,0,1.5-0.7,1.5-1.5C1566,302.4,1565.4,301.8,1564.5,301.8L1564.5,301.8L1564.5,301.8z"/>
<rect x="1566.1" y="583.8" class="st39" width="11.7" height="24"/>
<rect x="1494.6" y="579" class="st39" width="201.5" height="14.5"/>
<linearGradient id="SVGID_34_" gradientUnits="userSpaceOnUse" x1="1385.3728" y1="541.3869" x2="1483.1945" y2="541.3869" gradientTransform="matrix(1 0 0 1 1 -4.01)">
	<stop  offset="0" style="stop-color:#DDB576"/>
	<stop  offset="0.15" style="stop-color:#E0B46D"/>
	<stop  offset="0.39" style="stop-color:#E7B055"/>
	<stop  offset="0.7" style="stop-color:#F2AB2D"/>
	<stop  offset="1" style="stop-color:#FFA500"/>
</linearGradient>
<path class="st40" d="M1408.3,494.2l-19.2,43.4c-1.9,4.2-2.8,8.7-2.8,13.4v37.8h97.8V486h-63.4
	C1415.4,486,1410.5,489.2,1408.3,494.2z"/>
<path class="st41" d="M1480.8,588.7h-1.2v-97.5h-59.8c-2.5,0-4.8,1.5-5.9,3.8l-21.6,48v45.5h-1.2v-45.8l21.7-48.3
	c1.2-2.8,4-4.5,7-4.5h61.1L1480.8,588.7z"/>
<rect x="1489.2" y="454.2" class="st38" width="217.9" height="129.5"/>
<rect x="1484.2" y="454.2" class="st42" width="222.9" height="7"/>
<rect x="1495" y="479" class="st42" width="206.3" height="7"/>
<rect x="1495" y="503.7" class="st42" width="206.3" height="7"/>
<rect x="1495" y="528.5" class="st42" width="206.3" height="7"/>
<rect x="1495" y="553.4" class="st42" width="206.3" height="7"/>
<path class="st43" d="M1476.7,515.4v-21.8h-55.9c-2.5,0-4.7,1.4-5.7,3.7l-17,38.5h58.3L1476.7,515.4z"/>
<polygon class="st39" points="1430,495.1 1413.5,534.2 1417,534.2 1433.3,495.1 "/>
<polygon class="st39" points="1443.4,495.1 1427.4,534.2 1437.9,534.2 1453.6,495.1 "/>
<path class="st39" d="M1380.8,588.7h142.6l0,0v19.1l0,0h-137.3c-2.9,0-5.2-2.3-5.2-5.2l0,0L1380.8,588.7L1380.8,588.7z"/>
<rect x="1523.4" y="592.6" class="st39" width="183.8" height="11.5"/>
<path class="st44" d="M1437.5,545.3h17.3l0,0v2c0,1.1-0.9,2-2,2l0,0h-13.3c-1.1,0-2-0.9-2-2l0,0V545.3L1437.5,545.3z"/>
<path class="st45" d="M1437.5,544.3h17.3l0,0v2c0,1.1-0.9,2-2,2l0,0h-13.3c-1.1,0-2-0.9-2-2l0,0V544.3L1437.5,544.3z"/>
<path class="st46" d="M1386.4,560.2h7.5c2.7,0,4.9,2.2,4.9,4.9v10.2c0,2.7-2.2,4.9-4.9,4.9h-7.5l0,0V560.2L1386.4,560.2z"/>
<rect x="1675.2" y="583.8" class="st39" width="11.7" height="24"/>
<path class="st39" d="M1447.3,579c-15.9,0-28.7,13-28.7,28.9l0,0h57.4C1475.9,591.8,1463,579,1447.3,579L1447.3,579z"/>
<linearGradient id="SVGID_35_" gradientUnits="userSpaceOnUse" x1="1435.6185" y1="589.6689" x2="1458.9423" y2="630.0538" gradientTransform="matrix(1 0 0 1 0 -2)">
	<stop  offset="0.31" style="stop-color:#56548C"/>
	<stop  offset="0.94" style="stop-color:#3B367A"/>
</linearGradient>
<ellipse class="st47" cx="1447.3" cy="607.8" rx="23.2" ry="23.3"/>
<ellipse class="st48" cx="1447.2" cy="607.8" rx="15.2" ry="15.3"/>
<ellipse class="st49" cx="1447.3" cy="607.8" rx="13.5" ry="13.6"/>
<linearGradient id="SVGID_36_" gradientUnits="userSpaceOnUse" x1="1444.6935" y1="600.3488" x2="1448.7793" y2="607.4216" gradientTransform="matrix(1 0 0 1 1 -4.01)">
	<stop  offset="0.31" style="stop-color:#56548C"/>
	<stop  offset="0.94" style="stop-color:#3B367A"/>
</linearGradient>
<path class="st50" d="M1447.7,604.4l2-7.5h-4.9l2,7.5c0,0.3,0.3,0.4,0.5,0.4C1447.5,604.8,1447.7,604.6,1447.7,604.4z"/>
<linearGradient id="SVGID_37_" gradientUnits="userSpaceOnUse" x1="1438.1761" y1="603.5378" x2="1442.3336" y2="610.7302" gradientTransform="matrix(1 0 0 1 1 -4.01)">
	<stop  offset="0.31" style="stop-color:#56548C"/>
	<stop  offset="0.94" style="stop-color:#3B367A"/>
</linearGradient>
<path class="st51" d="M1445.2,605.1l-3.9-6.7l-3.5,3.5l6.7,3.9c0.2,0.1,0.5,0,0.7-0.2C1445.3,605.4,1445.3,605.2,1445.2,605.1z"/>
<linearGradient id="SVGID_38_" gradientUnits="userSpaceOnUse" x1="1436.739" y1="608.5657" x2="1439.8998" y2="614.0387" gradientTransform="matrix(1 0 0 1 1 -4.01)">
	<stop  offset="0.31" style="stop-color:#56548C"/>
	<stop  offset="0.94" style="stop-color:#3B367A"/>
</linearGradient>
<path class="st52" d="M1443.9,607.4l-7.5-2v4.9l7.5-2c0.3-0.1,0.4-0.3,0.4-0.6C1444.2,607.5,1444.1,607.4,1443.9,607.4z"/>
<linearGradient id="SVGID_39_" gradientUnits="userSpaceOnUse" x1="1440.3101" y1="615.7723" x2="1442.7106" y2="619.93" gradientTransform="matrix(1 0 0 1 1 -4.01)">
	<stop  offset="0.31" style="stop-color:#56548C"/>
	<stop  offset="0.94" style="stop-color:#3B367A"/>
</linearGradient>
<path class="st53" d="M1444.5,609.9l-6.7,3.9l3.5,3.5l3.9-6.7c0.1-0.2,0-0.5-0.2-0.7C1444.9,609.8,1444.7,609.8,1444.5,609.9z"/>
<linearGradient id="SVGID_40_" gradientUnits="userSpaceOnUse" x1="1443.6417" y1="616.2975" x2="1447.7251" y2="623.3786" gradientTransform="matrix(1 0 0 1 1 -4.01)">
	<stop  offset="0.31" style="stop-color:#56548C"/>
	<stop  offset="0.94" style="stop-color:#3B367A"/>
</linearGradient>
<path class="st54" d="M1446.8,611.2l-2,7.6h4.9l-2-7.6c0-0.3-0.3-0.4-0.5-0.4C1447,610.8,1446.8,611,1446.8,611.2z"/>
<linearGradient id="SVGID_41_" gradientUnits="userSpaceOnUse" x1="1450.0717" y1="612.9896" x2="1454.2272" y2="620.1909" gradientTransform="matrix(1 0 0 1 1 -4.01)">
	<stop  offset="0.31" style="stop-color:#56548C"/>
	<stop  offset="0.94" style="stop-color:#3B367A"/>
</linearGradient>
<path class="st55" d="M1449.3,610.5l3.9,6.7l3.4-3.5l-6.7-3.9c-0.2-0.1-0.5,0-0.6,0.2C1449.2,610.2,1449.3,610.4,1449.3,610.5z"/>
<linearGradient id="SVGID_42_" gradientUnits="userSpaceOnUse" x1="1452.4973" y1="609.6913" x2="1455.6582" y2="615.1642" gradientTransform="matrix(1 0 0 1 1 -4.01)">
	<stop  offset="0.31" style="stop-color:#56548C"/>
	<stop  offset="0.94" style="stop-color:#3B367A"/>
</linearGradient>
<path class="st56" d="M1450.6,608.3l7.5,2v-4.9l-7.5,2c-0.3,0.1-0.4,0.3-0.4,0.6C1450.3,608.1,1450.5,608.2,1450.6,608.3z"/>
<linearGradient id="SVGID_43_" gradientUnits="userSpaceOnUse" x1="1449.6866" y1="603.8028" x2="1452.0869" y2="607.9603" gradientTransform="matrix(1 0 0 1 1 -4.01)">
	<stop  offset="0.31" style="stop-color:#56548C"/>
	<stop  offset="0.94" style="stop-color:#3B367A"/>
</linearGradient>
<path class="st57" d="M1450,605.8l6.7-3.9l-3.5-3.5l-3.9,6.7c-0.1,0.2,0,0.5,0.2,0.7C1449.7,605.8,1449.8,605.8,1450,605.8z"/>
<linearGradient id="SVGID_44_" gradientUnits="userSpaceOnUse" x1="1446.6666" y1="608.8" x2="1447.8503" y2="610.8467" gradientTransform="matrix(1 0 0 1 0 -2)">
	<stop  offset="0.31" style="stop-color:#56548C"/>
	<stop  offset="0.94" style="stop-color:#3B367A"/>
</linearGradient>
<ellipse class="st58" cx="1447.3" cy="607.8" rx="1.2" ry="1.2"/>
<path class="st39" d="M1634.2,579c-15.9,0-28.6,13-28.7,28.8l0,0h57.4C1663,591.8,1650.1,579,1634.2,579L1634.2,579z"/>
<linearGradient id="SVGID_45_" gradientUnits="userSpaceOnUse" x1="1622.5822" y1="589.6662" x2="1645.8969" y2="630.0565" gradientTransform="matrix(1 0 0 1 0 -2)">
	<stop  offset="0.31" style="stop-color:#56548C"/>
	<stop  offset="0.94" style="stop-color:#3B367A"/>
</linearGradient>
<ellipse class="st59" cx="1634.2" cy="607.8" rx="23.2" ry="23.3"/>
<ellipse class="st48" cx="1634.2" cy="607.8" rx="15.2" ry="15.3"/>
<ellipse class="st49" cx="1634.2" cy="607.8" rx="13.5" ry="13.6"/>
<linearGradient id="SVGID_46_" gradientUnits="userSpaceOnUse" x1="1631.7574" y1="600.3224" x2="1635.8407" y2="607.3911" gradientTransform="matrix(1 0 0 1 1 -4.01)">
	<stop  offset="0.31" style="stop-color:#56548C"/>
	<stop  offset="0.94" style="stop-color:#3B367A"/>
</linearGradient>
<path class="st60" d="M1634.7,604.4l2-7.5h-4.9l2,7.5c0.1,0.3,0.3,0.4,0.6,0.4C1634.5,604.8,1634.6,604.6,1634.7,604.4z"/>
<linearGradient id="SVGID_47_" gradientUnits="userSpaceOnUse" x1="1625.222" y1="603.525" x2="1629.3884" y2="610.7113" gradientTransform="matrix(1 0 0 1 1 -4.01)">
	<stop  offset="0.31" style="stop-color:#56548C"/>
	<stop  offset="0.94" style="stop-color:#3B367A"/>
</linearGradient>
<path class="st61" d="M1632.2,605.1l-3.9-6.7l-3.5,3.5l6.7,3.9c0.2,0.1,0.5,0,0.7-0.2C1632.2,605.4,1632.2,605.2,1632.2,605.1z"/>
<linearGradient id="SVGID_48_" gradientUnits="userSpaceOnUse" x1="1623.712" y1="608.5897" x2="1626.8728" y2="614.0627" gradientTransform="matrix(1 0 0 1 1 -4.01)">
	<stop  offset="0.31" style="stop-color:#56548C"/>
	<stop  offset="0.94" style="stop-color:#3B367A"/>
</linearGradient>
<path class="st62" d="M1630.8,607.4l-7.5-2v4.9l7.5-2c0.3-0.1,0.4-0.3,0.4-0.6C1631.1,607.5,1631,607.4,1630.8,607.4z"/>
<linearGradient id="SVGID_49_" gradientUnits="userSpaceOnUse" x1="1627.3573" y1="615.7505" x2="1629.7463" y2="619.9096" gradientTransform="matrix(1 0 0 1 1 -4.01)">
	<stop  offset="0.31" style="stop-color:#56548C"/>
	<stop  offset="0.94" style="stop-color:#3B367A"/>
</linearGradient>
<path class="st63" d="M1631.5,609.9l-6.7,3.9l3.5,3.5l3.9-6.7c0.1-0.2,0-0.5-0.2-0.7C1631.8,609.8,1631.6,609.8,1631.5,609.9z"/>
<linearGradient id="SVGID_50_" gradientUnits="userSpaceOnUse" x1="1630.6683" y1="616.2764" x2="1634.7518" y2="623.3575" gradientTransform="matrix(1 0 0 1 1 -4.01)">
	<stop  offset="0.31" style="stop-color:#56548C"/>
	<stop  offset="0.94" style="stop-color:#3B367A"/>
</linearGradient>
<path class="st64" d="M1633.8,611.2l-2,7.6h4.9l-2-7.6c-0.1-0.3-0.3-0.4-0.6-0.4C1633.9,610.9,1633.8,611,1633.8,611.2z"/>
<linearGradient id="SVGID_51_" gradientUnits="userSpaceOnUse" x1="1637.1558" y1="612.9541" x2="1641.3081" y2="620.1496" gradientTransform="matrix(1 0 0 1 1 -4.01)">
	<stop  offset="0.31" style="stop-color:#56548C"/>
	<stop  offset="0.94" style="stop-color:#3B367A"/>
</linearGradient>
<path class="st65" d="M1636.3,610.5l3.9,6.7l3.5-3.5l-6.7-3.9c-0.2-0.1-0.5,0-0.7,0.2C1636.2,610.2,1636.2,610.4,1636.3,610.5z"/>
<linearGradient id="SVGID_52_" gradientUnits="userSpaceOnUse" x1="1639.5853" y1="609.6508" x2="1642.7336" y2="615.1237" gradientTransform="matrix(1 0 0 1 1 -4.01)">
	<stop  offset="0.31" style="stop-color:#56548C"/>
	<stop  offset="0.94" style="stop-color:#3B367A"/>
</linearGradient>
<path class="st66" d="M1637.6,608.3l7.6,2v-4.9l-7.6,2c-0.3,0.1-0.4,0.3-0.4,0.6C1637.3,608.1,1637.4,608.2,1637.6,608.3z"/>
<linearGradient id="SVGID_53_" gradientUnits="userSpaceOnUse" x1="1636.6594" y1="603.8265" x2="1639.0599" y2="607.9841" gradientTransform="matrix(1 0 0 1 1 -4.01)">
	<stop  offset="0.31" style="stop-color:#56548C"/>
	<stop  offset="0.94" style="stop-color:#3B367A"/>
</linearGradient>
<path class="st67" d="M1636.9,605.8l6.7-3.9l-3.5-3.5l-3.9,6.7c-0.1,0.2,0,0.5,0.2,0.7C1636.6,605.8,1636.8,605.8,1636.9,605.8z"/>
<linearGradient id="SVGID_54_" gradientUnits="userSpaceOnUse" x1="1632.6403" y1="610.8252" x2="1633.8247" y2="612.8857" gradientTransform="matrix(1 0 0 1 1 -4.01)">
	<stop  offset="0.31" style="stop-color:#56548C"/>
	<stop  offset="0.94" style="stop-color:#3B367A"/>
</linearGradient>
<path class="st68" d="M1635.4,607.8c0,0.7-0.6,1.2-1.2,1.2c-0.7,0-1.2-0.6-1.2-1.2c0-0.6,0.6-1.2,1.2-1.2S1635.4,607.1,1635.4,607.8
	z"/>
<polygon class="st69" points="1414,555.8 1421,555.8 1418.3,562.8 1423,562.8 1415.2,574.4 1416.5,565.1 1411.3,565.1 "/>
<text transform="matrix(0.9932 0 0 1 1426.3447 567.2764)" class="st39 st70 st71">QUICK</text>
<path class="st72" d="M1597,546.4c2.1-0.6,0.1-13.4-1.2-18.7c-1.3-5.3-3.2-9.3-5.8-8.6c-2.6,0.7-2.5,5.1-0.9,10.5
	C1590.5,534.9,1594.8,547,1597,546.4z"/>
<path class="st72" d="M1616.1,528.2c-1.2-1.5-12.5,7.6-15.5,10.4c-3.1,2.7-6.1,5.7-4.6,7.4c1.5,1.7,4.9-1,7.9-3.7
	C1606.9,539.5,1617.4,529.6,1616.1,528.2z"/>
<path class="st72" d="M1613.3,530c-0.1-2.3,3.9-2.1,5.3-2c2.3,0.2,4.8,2.1,4.7,3s-5.2,0.1-5.4,0.3c-0.2,0.2,2.3,0.8,2.1,1.6
	c-0.1,0.8-3.5,0.4-4.8-0.2C1614.1,532.4,1613.3,531.2,1613.3,530z"/>
<path class="st72" d="M1584.8,628.9l-0.1,2.7c0,0.4,0.3,0.7,0.7,0.7l0,0h7.4c0.4,0,0.7-0.3,0.7-0.7c0-0.2-0.1-0.4-0.3-0.5
	c-1.2-1-2.6-1.7-4.1-2.1c-0.1,0-1.2-23.3-2.3-23.3C1585.7,605.8,1584.8,628.9,1584.8,628.9z"/>
<path class="st72" d="M1568.7,628.8v2.6c0.2,0.6,0.5,1.1,1.1,1.5c1.9,0.8,5.4,0.3,5.6-0.3c0.1-0.7-0.9-2.1-1.7-3l0,0
	c-0.5-0.6-0.9-1.1-0.9-1.1s-1-22.6-2.1-22.5C1569.6,605.8,1568.7,628.8,1568.7,628.8z"/>
<path class="st72" d="M1586.7,593.4c3.1,0,4.7-17.2,4.9-24.6c0.2-7.3-1.1-13.2-4.9-13.2c-3.8,0-5,5.8-4.9,13.2
	C1581.9,576.2,1583.6,593.4,1586.7,593.4z"/>
<path class="st72" d="M1586.7,629.9c2.7,0,3.5-24.3,3.5-29.7c0-5.4-0.4-11.3-3.5-11.3s-3.5,5.7-3.5,11.3
	C1583.2,605.6,1583.9,629.9,1586.7,629.9z"/>
<path class="st72" d="M1573.4,593.4c3.1,0.3,6.3-16.7,7.1-24c0.8-7.3,0.1-13.3-3.7-13.6c-3.8-0.3-5.5,5.3-6.1,12.7
	C1570.2,575.8,1570.3,593.1,1573.4,593.4z"/>
<path class="st72" d="M1570.5,629.9c2.7,0.2,5.2-23.9,5.7-29.3c0.5-5.4,0.6-11.3-2.5-11.6s-4,5.4-4.5,10.9
	C1568.8,605.3,1567.8,629.5,1570.5,629.9z"/>
<path class="st72" d="M1571,561.3h20.4l0.8-33l-1.5-9.2l-9.8-3l-5.7,1.1c-3.2,0.6-5.5,3.5-5.4,6.8l2.1,23.3L1571,561.3z"/>
<path class="st72" d="M1565.2,545.1c2.1,0.7,7.2-11.4,9-16.6c1.8-5.2,2.2-9.7-0.3-10.6c-2.6-0.8-4.8,3.1-6.4,8.4
	C1565.9,531.6,1563.2,544.4,1565.2,545.1z"/>
<path class="st72" d="M1578.7,511.5v6.6c1.5,0.7,3.1,0.9,4.6,0.8c1.8,0,2.2-0.8,2.2-0.8v-2.5L1578.7,511.5z"/>
<path class="st72" d="M1577.9,506.6c0,0.2,0,0.5,0,0.7v0.2c-0.2,3.9,2.3,8.1,6.1,8.7h0.2c0.8,0.1,3.7,0.3,4.8-0.8
	c1.4-1.6,2.2-3.6,2.4-5.7c0-1-0.1-1.9-0.3-2.9c0-0.5,0.3-2.2,0.3-3c0.2-3.6-2.5-6.7-6.1-6.9c-0.1,0-0.2,0-0.3,0
	C1578.7,496.9,1577.8,502.4,1577.9,506.6z"/>
<path class="st72" d="M1579.8,506.7c-0.5-0.1-1.7-0.5-1.5,1.2c0.4,3,2.1,2.8,2.1,2.8c-0.1-0.4-0.3-1-0.4-1.7c0.5-0.3-0.1-0.7-0.2-1
	c0-0.1,0-0.1,0-0.2C1579.8,507.4,1579.8,507,1579.8,506.7z"/>
<path class="st73" d="M1579.9,507.7c0,0-0.6-0.5-1-0.3s-0.1,1.2,0.2,1.7c0.3,0.5,0.7,0.6,0.8,0.5c0.1-0.1-0.7-0.5-0.4-0.8
	c0.3-0.3,0.5-0.3,0.5-0.5C1579.9,508.2,1579.9,507.7,1579.9,507.7z"/>
<path class="st73" d="M1586.4,516.4c-1.9,0.1-4.4-1.8-5.1-2.6c-0.5-0.9-0.9-1.9-1.1-3c-0.4,0-0.8-0.2-1-0.5c0,0,0,0.9,0.4,1.2
	c0.4,0.3,0.6,0.4,0.7,0.6c0.1,0.2,0.5,3.2,2.1,4C1583.7,516.6,1585.1,516.7,1586.4,516.4z"/>
<path class="st74" d="M1584.7,629.4v2.6c0,0.3,0.2,0.5,0.5,0.5l0,0h8.3c0.4,0,0.8-0.3,0.8-0.7c0-0.2-0.1-0.5-0.3-0.6
	c-1.4-0.9-3-1.8-4.6-2.5c-0.3,0.3-0.8,1.2-1.4,1.3C1586.8,629.9,1585.7,629.7,1584.7,629.4z"/>
<path class="st74" d="M1568.7,629.1v2.2c0.2,0.6,0.5,1.1,1.1,1.5c1.9,0.8,5.4,0.3,5.6-0.3c0.1-0.7-0.9-2.1-1.7-3l0,0
	c-0.9-0.2-1.8-0.2-2.7,0c-0.4,0.2-0.8,0.4-1.2,0.6C1569.4,629.8,1569,629.5,1568.7,629.1z"/>
<linearGradient id="SVGID_55_" gradientUnits="userSpaceOnUse" x1="1560.1549" y1="573.1128" x2="1587.8556" y2="621.0672" gradientTransform="matrix(1 0 0 1 0 -2)">
	<stop  offset="0.31" style="stop-color:#56548C"/>
	<stop  offset="0.94" style="stop-color:#3B367A"/>
</linearGradient>
<polygon class="st75" points="1581.3,565.1 1581.3,566.7 1573.7,627.2 1567.9,627.2 1570.5,565.1 "/>
<linearGradient id="SVGID_56_" gradientUnits="userSpaceOnUse" x1="1572.7357" y1="572.0704" x2="1601.6775" y2="622.1965" gradientTransform="matrix(1 0 0 1 0 -2)">
	<stop  offset="0.31" style="stop-color:#56548C"/>
	<stop  offset="0.94" style="stop-color:#3B367A"/>
</linearGradient>
<polygon class="st76" points="1591.9,565.1 1589.5,627.2 1583.7,627.2 1581.3,566.7 1581.3,565.1 "/>
<linearGradient id="SVGID_57_" gradientUnits="userSpaceOnUse" x1="1587.4332" y1="524.3519" x2="1595.7605" y2="538.7611" gradientTransform="matrix(1 0 0 1 1 -4.01)">
	<stop  offset="0" style="stop-color:#DDB576"/>
	<stop  offset="0.15" style="stop-color:#E0B46D"/>
	<stop  offset="0.39" style="stop-color:#E7B055"/>
	<stop  offset="0.7" style="stop-color:#F2AB2D"/>
	<stop  offset="1" style="stop-color:#FFA500"/>
</linearGradient>
<path class="st77" d="M1595.5,525.6c0.8,2.8,1.5,5.6,1.9,8.4c0,0-0.8,1.4-4.5,2.1l0,0c0-4.4,0-8,0-9.2c-0.2-2.7-0.8-5.4-1.9-8
	C1592.8,519.6,1594.3,521.6,1595.5,525.6z"/>
<linearGradient id="SVGID_58_" gradientUnits="userSpaceOnUse" x1="1566.3597" y1="524.5579" x2="1574.2499" y2="538.227" gradientTransform="matrix(1 0 0 1 1 -4.01)">
	<stop  offset="0" style="stop-color:#DDB576"/>
	<stop  offset="0.15" style="stop-color:#E0B46D"/>
	<stop  offset="0.39" style="stop-color:#E7B055"/>
	<stop  offset="0.7" style="stop-color:#F2AB2D"/>
	<stop  offset="1" style="stop-color:#FFA500"/>
</linearGradient>
<path class="st78" d="M1573.2,517.4c2.6,0.3,4,2.7,3.1,6.4c-1.2,4.2-2.7,8.3-4.5,12.4l-0.6-0.1c-5.2-1.1-6-2.8-6-2.8
	c1.5-6.4,4-13.5,6-15C1571.8,517.9,1572.5,517.6,1573.2,517.4z"/>
<path class="st79" d="M1585.5,518.3"/>
<linearGradient id="SVGID_59_" gradientUnits="userSpaceOnUse" x1="1567.0266" y1="524.4196" x2="1592.4866" y2="568.5246" gradientTransform="matrix(1 0 0 1 1 -4.01)">
	<stop  offset="0" style="stop-color:#DDB576"/>
	<stop  offset="0.15" style="stop-color:#E0B46D"/>
	<stop  offset="0.39" style="stop-color:#E7B055"/>
	<stop  offset="0.7" style="stop-color:#F2AB2D"/>
	<stop  offset="1" style="stop-color:#FFA500"/>
</linearGradient>
<path class="st80" d="M1585.5,517.4l5.5,1.5c1.1,2.5,1.7,5.2,1.9,8c0.1,1.2,0,4.8,0,9.2c-0.1,11.5-0.5,29-0.5,29H1570
	c0,0,1-13.1,1.2-17c0-3.5-0.2-7-0.7-10.6l0.7-1.5l0.6,0.1c1.7-4,3.2-8.1,4.5-12.4c0.9-3.7-0.5-6.1-3.1-6.4c1.4-0.4,2.9-0.7,4.4-0.8
	c0,0,0.9,3,5.2,3S1585.5,517.4,1585.5,517.4z"/>
<path class="st74" d="M1577.7,511.7c0.2,0.2,0.6,0.1,1-0.1l0.5-1.5c-0.2-0.3-0.4-0.5-0.5-0.8c-0.4-0.7-0.5-1.6-0.3-2.4
	c0.3-0.6,1.2-0.3,1.2-0.3s0.7,1.9,1,1.9c0.3,0,0.5-2.7,0.5-2.7c0.4,0,0.8-0.1,1-0.4c0.3-0.4,0.4-1,0.1-1.5c0.5-0.2,0.9-0.7,1.1-1.2
	c0.8,0.1,1.5,0,2.2-0.4l1.1-0.6c0,0,2,1,2.7,0.5c0.4-0.3,0.8-0.4,1.2-0.5c0,0,0.9,0.6,1.3,0.3c0.4-0.3,0.1-1.8-0.8-2.2
	c-0.4-1.8-2-3.1-3.8-3.2c0,0-3.4-1.4-5,0.4c0,0-1.7-0.3-1.9,0.7c0,0-1.6,0.7-1.5,1.8c-0.6,0.5-0.9,1.3-0.8,2.1c0,0-0.9,2.5-0.5,3.4
	c0,0-0.9,2-0.1,3.1l0.7,1.1C1577.4,509.9,1577.2,510.9,1577.7,511.7z"/>
<linearGradient id="SVGID_60_" gradientUnits="userSpaceOnUse" x1="1576.141" y1="502.9447" x2="1591.2413" y2="502.9447" gradientTransform="matrix(1 0 0 1 1 -4.01)">
	<stop  offset="0" style="stop-color:#DDB576"/>
	<stop  offset="0.15" style="stop-color:#E0B46D"/>
	<stop  offset="0.39" style="stop-color:#E7B055"/>
	<stop  offset="0.7" style="stop-color:#F2AB2D"/>
	<stop  offset="1" style="stop-color:#FFA500"/>
</linearGradient>
<path class="st81" d="M1577.1,503l15.1-0.3c0,0-0.2-7.8-7.8-7.8C1576.9,494.9,1577.1,503,1577.1,503z"/>
<linearGradient id="SVGID_61_" gradientUnits="userSpaceOnUse" x1="1586.2383" y1="504.4752" x2="1589.8977" y2="510.8116" gradientTransform="matrix(1 0 0 1 1 -4.01)">
	<stop  offset="0" style="stop-color:#DDB576"/>
	<stop  offset="0.15" style="stop-color:#E0B46D"/>
	<stop  offset="0.39" style="stop-color:#E7B055"/>
	<stop  offset="0.7" style="stop-color:#F2AB2D"/>
	<stop  offset="1" style="stop-color:#FFA500"/>
</linearGradient>
<path class="st82" d="M1592.2,502.7c0,0,2.8,1.4,2.9,1.6c-2.4,0.3-4.8,0.3-7.2,0.1c-1.7-0.3-3.3-0.8-4.9-1.5
	c1.8-0.4,3.6-0.6,5.5-0.6C1589.8,502.2,1591,502.4,1592.2,502.7z"/>
<path class="st72" d="M1568.2,567.7c2-0.2,1.3-14.8,1-18.9c-0.3-4.1-1-8.4-3.2-8.2c-2.2,0.2-2.2,4.5-1.8,8.6
	C1564.6,553.4,1566.2,567.9,1568.2,567.7z"/>
<path class="st72" d="M1568,564c-2.3,0-1.8,4.1-1.6,5.5c0.4,2.3,2.9,4.3,3.8,4.1c0.9-0.1-0.3-5.2-0.1-5.4c0.2-0.2,0.6,2.6,1.4,2.4
	s0.2-3.6-0.6-4.8C1570.4,564.6,1569.2,563.9,1568,564z"/>
<path class="st83" d="M1582.6,517.4l2.1,3.3c0,0-2.9-0.8-3.6-1c-0.7-0.2,0.3-1.1,0.3-1.1L1582.6,517.4z"/>
<polygon class="st74" points="1577.9,514.9 1582.6,517.4 1581,520.7 1577.1,516.7 "/>
<linearGradient id="SVGID_62_" gradientUnits="userSpaceOnUse" x1="1577.9392" y1="517.1155" x2="1578.7241" y2="517.1155" gradientTransform="matrix(1 0 0 1 0 -2)">
	<stop  offset="0" style="stop-color:#606BF1"/>
	<stop  offset="0.27" style="stop-color:#5B62F1"/>
	<stop  offset="0.7" style="stop-color:#4C4AF1"/>
	<stop  offset="1" style="stop-color:#4035F1"/>
</linearGradient>
<polygon class="st84" points="1577.9,514.9 1578.7,514.9 1578.7,515.4 "/>
<polygon class="st74" points="1586.4,517 1587.5,519.3 1585.8,518.3 "/>
<path class="st83" d="M1584.7,520.7c0.3-0.6,0.5-1.2,0.6-1.8c0.1-0.7,0.2-1.5,0.2-2.2l0.9,0.4c-0.1,0.6-0.3,1.2-0.5,1.7
	C1585.6,519.4,1585.2,520,1584.7,520.7z"/>
<path class="st74" d="M1586.3,517.3c-0.1,0.2-0.2,0.5-0.3,0.9c-0.1,0.4-0.3,0.8-0.5,1.2l-0.6,1c-0.2-0.3-0.4-0.6-0.6-0.9l-0.8-1.1
	c-0.2-0.3-0.4-0.6-0.6-0.8l-0.2-0.3l0.1,0.3c0.1,0.2,0.2,0.5,0.4,0.8l0.7,1.2c0.3,0.5,0.5,0.8,0.8,1.2l0.2,0.3l0.2-0.3l0,0
	c0.3-0.4,0.5-0.9,0.7-1.4c0.2-0.4,0.3-0.9,0.4-1.3c0.1-0.4,0.1-0.7,0.2-0.9c0.1-0.2,0-0.4,0-0.4L1586.3,517.3z"/>
<rect x="1589.8" y="528" class="st69" width="2.3" height="1.1"/>
<rect x="1609.3" y="545.4" class="st72" width="45" height="22.9"/>
<rect x="1604.4" y="600.2" class="st72" width="63.3" height="32.3"/>
<rect x="1604.4" y="568.1" class="st85" width="63.3" height="32.3"/>
<rect x="1667.7" y="600.2" class="st85" width="63.3" height="32.3"/>
<rect x="1628.7" y="545.4" class="st86" width="6.1" height="22.8"/>
<rect x="1631.7" y="600.3" class="st86" width="8.6" height="32.1"/>
<rect x="1631.7" y="568.3" class="st87" width="8.6" height="32.1"/>
<rect x="1694.9" y="600.3" class="st87" width="8.6" height="32.1"/>
<path class="st88" d="M1696.6,295.1h70.8c6,0,10.9,4.9,10.9,11v154.2c0,6-4.9,11-10.9,11h-70.8c-6,0-10.9-4.9-10.9-11V306
	C1685.7,300,1690.6,295.1,1696.6,295.1z"/>
<linearGradient id="SVGID_63_" gradientUnits="userSpaceOnUse" x1="1687.8232" y1="385.0553" x2="1776.1622" y2="385.0553" gradientTransform="matrix(1 0 0 1 0 -2)">
	<stop  offset="0" style="stop-color:#241B52"/>
	<stop  offset="1" style="stop-color:#241B52"/>
</linearGradient>
<rect x="1687.8" y="303.4" class="st89" width="88.3" height="159.3"/>
<rect x="1727.2" y="305.5" class="st90" width="9.7" height="2.2"/>
<rect x="1763.1" y="305.5" class="st90" width="9.7" height="2.2"/>
<rect x="1691.2" y="305.5" class="st90" width="0.7" height="2.2"/>
<path class="st90" d="M1698.5,307.6h-1.6v-2.1h1.6V307.6z M1695.2,307.6h-1.6v-2.1h1.6V307.6z"/>
<rect x="1700.1" y="305.5" class="st90" width="0.7" height="2.2"/>
<g>
	<g>
		<defs>
			<polygon id="SVGID_64_" points="1687.8,316.9 1687.8,399.3 1687.8,414.4 1687.8,462.7 1776.2,462.7 1776.2,359.3 1776.2,334.5 
				1776.2,316.9 			"/>
		</defs>
		<clipPath id="SVGID_65_">
			<use xlink:href="#SVGID_64_"  style="overflow:visible;"/>
		</clipPath>
		<g class="st91">
			<rect x="1673.8" y="325.3" class="st92" width="113.8" height="4.8"/>
			<rect x="1750.9" y="327.7" class="st93" width="12.2" height="153.1"/>
			<rect x="1721.9" y="402" class="st92" width="32" height="5.3"/>
			<rect x="1734" y="376.7" class="st93" width="3.9" height="96.1"/>
			<rect x="1721.9" y="433.7" class="st92" width="71.7" height="3.9"/>
			<rect x="1759.5" y="373.1" class="st92" width="32.9" height="9.5"/>
			<rect x="1705.3" y="373.1" class="st92" width="48.6" height="4.8"/>
			<rect x="1716.3" y="397.3" class="st93" width="7.7" height="52.5"/>
			<rect x="1674.1" y="446.6" class="st92" width="49.8" height="3.1"/>
			<rect x="1700.9" y="328.5" class="st92" width="4.4" height="49.3"/>
			<rect x="1703.9" y="341" class="st92" width="25.7" height="3.6"/>
			<rect x="1725.6" y="315.1" class="st93" width="4" height="29.5"/>
			<rect x="1678.3" y="410.1" class="st92" width="41.7" height="3.4"/>
			<rect x="1673.8" y="323.7" class="st94" width="113.8" height="4.8"/>
			<rect x="1750.9" y="326.1" class="st94" width="12.2" height="153.1"/>
			<rect x="1721.9" y="400.4" class="st94" width="32" height="5.3"/>
			<rect x="1734" y="375.1" class="st94" width="3.9" height="96.1"/>
			<rect x="1721.9" y="432.1" class="st94" width="71.7" height="3.9"/>
			<rect x="1759.5" y="371.4" class="st94" width="32.9" height="9.5"/>
			<rect x="1705.3" y="371.4" class="st94" width="48.6" height="4.8"/>
			<rect x="1716.3" y="395.7" class="st94" width="7.7" height="52.5"/>
			<rect x="1674.1" y="445" class="st94" width="49.8" height="3.1"/>
			<rect x="1700.9" y="326.9" class="st94" width="4.4" height="49.3"/>
			<rect x="1703.9" y="339.4" class="st94" width="25.7" height="3.6"/>
			<rect x="1725.6" y="313.5" class="st94" width="4" height="29.5"/>
			<rect x="1678.3" y="408.5" class="st94" width="41.7" height="3.4"/>
			
				<linearGradient id="SVGID_66_" gradientUnits="userSpaceOnUse" x1="1716.569" y1="367.7688" x2="1740.5734" y2="367.7688" gradientTransform="matrix(1 0 0 1 1 -4.01)">
				<stop  offset="0" style="stop-color:#FF697D"/>
				<stop  offset="1" style="stop-color:#FF8D14"/>
			</linearGradient>
			<path class="st95" d="M1729.5,344.4c-6.6,0-12,5.4-12,12.1c0,12,12,26.6,12,26.6s12-14.6,12-26.6
				C1741.6,349.8,1736.2,344.4,1729.5,344.4L1729.5,344.4z M1729.5,362.9c-3.5,0-6.3-2.9-6.3-6.4c0-3.5,2.9-6.3,6.4-6.3
				c3.5,0,6.3,2.8,6.3,6.4C1735.9,360,1733,362.9,1729.5,362.9L1729.5,362.9z"/>
		</g>
	</g>
</g>
<path class="st88" d="M1522.9,331H1512c-0.3-3.2-3-5.7-6.2-5.7h-13.5c-0.3-3.8-3.5-6.8-7.4-6.9h-27.3c-3.9,0-7,3-7.4,6.9h-5.9
	c-3.3,0-6,2.5-6.2,5.7h-7.4c-3.5,0-6.4,2.9-6.4,6.4c0,3.5,2.9,6.4,6.4,6.4h91.9c3.5,0,6.4-2.9,6.4-6.4
	C1529.3,334,1526.4,331,1522.9,331L1522.9,331L1522.9,331z"/>
<path class="st88" d="M1607.1,383.7h-0.7c0-0.1,0-0.2,0-0.3l0,0c0-2.3-1.9-4.2-4.2-4.2h-3.3c0-0.1,0-0.1,0-0.2c0-2.4-2-4.4-4.4-4.4
	h-0.9c-2.4,0-4.4,2-4.4,4.4c0,0.1,0,0.1,0,0.2h-4.1c-2.3,0-4.2,1.9-4.2,4.2l0,0c0,0.1,0,0.2,0,0.3h-2.1c-2.2,0-3.9,1.8-3.9,3.9
	c0,2.2,1.8,3.9,3.9,3.9h28.3c2.2,0,3.9-1.8,3.9-3.9C1611,385.5,1609.3,383.7,1607.1,383.7L1607.1,383.7L1607.1,383.7z"/>
<rect x="1478.5" y="600.2" class="st85" width="63.3" height="32.3"/>
<rect x="1505.9" y="600.3" class="st87" width="8.6" height="32.1"/>
<rect x="1502.4" y="580.1" class="st72" width="39.4" height="20.1"/>
<rect x="1519.3" y="580.1" class="st86" width="5.4" height="20"/>
<path class="st96" d="M1692.1,507.8c0.7,5.7,1.4,18.8,1.4,18.8h-14.9l1.1-20.4l5.4-2.8L1692.1,507.8z"/>
<path class="st72" d="M1674.9,549.8c2.1,0.3,5.3-11.7,6.2-16.8s0.8-9.4-1.7-9.8c-2.5-0.4-4.1,3.5-4.9,8.7
	C1673.7,537.2,1672.9,549.5,1674.9,549.8z"/>
<path class="st72" d="M1658.4,556.1c0.9,1.7,11.1-3.1,13.9-4.6c2.8-1.5,5.7-3.3,4.7-5.1c-1-1.9-4.1-0.6-6.9,0.9
	C1667.3,548.6,1657.6,554.4,1658.4,556.1z"/>
<path class="st72" d="M1679,595.2c-2.9,0.1-5.2-16.2-5.6-23.2c-0.4-7,0.6-12.6,4.1-12.8c3.5-0.2,5,5.3,5.1,12.4
	C1682.7,578.6,1682,595.1,1679,595.2z"/>
<path class="st72" d="M1680.5,630c-2.6,0.1-4.3-23.1-4.5-28.3s0-10.7,2.9-10.9c2.9-0.1,3.5,5.3,3.7,10.6
	C1682.7,606.7,1683.1,630,1680.5,630z"/>
<path class="st72" d="M1692.7,595.2c-2.9,0.3-6-15.9-6.7-22.9s-0.1-12.6,3.5-13c3.6-0.3,5.3,5.1,5.8,12.1
	C1695.8,578.3,1695.7,594.9,1692.7,595.2z"/>
<path class="st72" d="M1695.5,629.9c-2.6,0.2-4.9-22.9-5.5-28c-0.5-5.2-0.6-10.7,2.3-11c2.9-0.3,3.8,5.1,4.3,10.4
	C1697.1,606.5,1698.1,629.7,1695.5,629.9z"/>
<path class="st72" d="M1694.2,564.6h-20.6c0.8-4.1,1.5-8.3,1.9-12.6c0.1-2.7,1.2-11.5,1.2-11.5s-2.5-3.7-2.5-5.7c0-3,5-11.2,5-11.2
	l7.3-2.2l4.9,1.2c3.1,0.6,3.2,3.5,3.2,6.6c0,9.5-4,16-3.6,21.4C1691.2,554.4,1694.2,564.6,1694.2,564.6z"/>
<path class="st72" d="M1697.8,549.6c-2.1,0.5-6-11.3-7.3-16.4c-1.3-5.1-1.4-9.3,1.1-9.9c2.5-0.6,4.3,3.3,5.4,8.4
	S1699.9,549,1697.8,549.6z"/>
<path class="st72" d="M1688.8,515.5v7.4c-1.4,0.6-2.9,0.9-4.4,0.8c-1.7,0-2-0.8-2-0.8v-2.3L1688.8,515.5z"/>
<path class="st97" d="M1682.5,510.6c-0.7,0.2-0.9,2.3-0.8,2.3c0.1,0,0.5-1.7,1.1-2C1683.3,510.7,1682.5,510.6,1682.5,510.6z"/>
<path class="st97" d="M1679.9,510.6c0.4,0.3,0.3,2.1,0.3,2.2c0,0.1-0.3-2-0.3-2V510.6z"/>
<path class="st98" d="M1684.2,512.5c0,0.3-0.2,0.5-0.5,0.5l0,0c-0.3,0-0.5-0.2-0.5-0.5c0-0.3,0.2-0.5,0.5-0.5
	C1683.9,511.9,1684.2,512.2,1684.2,512.5z"/>
<path class="st98" d="M1684.8,512.1c-0.7-0.4-1.6-0.4-2.2,0H1684.8z"/>
<path class="st98" d="M1679.7,512.5c0,0.3-0.2,0.5-0.5,0.5c-0.3,0-0.5-0.2-0.5-0.5l0,0c0-0.3,0.2-0.5,0.5-0.5
	S1679.7,512.2,1679.7,512.5z"/>
<path class="st98" d="M1679.9,512.1c-0.4-0.4-1.1-0.4-1.6,0H1679.9z"/>
<path class="st99" d="M1680.8,515.5c0.5,0,1,0,1,0.1c0,0.1-0.4,0.3-1,0.3c-0.6,0-1-0.2-1-0.3
	C1679.8,515.5,1680.2,515.5,1680.8,515.5z"/>
<path class="st97" d="M1680.8,517.7c0.4,0,0.7,0,0.7,0.1c0,0.1-0.3,0.4-0.7,0.4c-0.4,0-0.7-0.2-0.7-0.4
	C1680.1,517.6,1680.4,517.7,1680.8,517.7z"/>
<path class="st97" d="M1682.8,516.7c0.1,0,0.1,0,0.1,0.1c0,0.1,0,0.1-0.1,0.2l0,0c-0.6,0.2-1.2,0.2-1.8,0.3c-0.6,0-1.3-0.1-1.9-0.3
	c-0.1,0-0.1-0.1-0.1-0.2c0-0.1,0.1-0.1,0.1-0.1c0.6,0.2,1.2,0.2,1.8,0.3C1681.6,517,1682.2,516.9,1682.8,516.7L1682.8,516.7z"/>
<path class="st100" d="M1682.4,510.9c-0.2-0.1,0.1-0.4,0.6-0.3c0.5,0,1.6,0,2.2,0.5c0,0-0.1,0-0.3,0
	C1684.6,511,1682.6,511,1682.4,510.9z"/>
<path class="st100" d="M1679.9,510.9c0.2-0.1-0.1-0.4-0.4-0.3c-0.3,0-1.1,0-1.5,0.5c0,0,0,0,0.2,0
	C1678.4,511,1679.8,511,1679.9,510.9z"/>
<path class="st72" d="M1688.9,511.4c0,0.2,0,0.4,0,0.7v0.2c0.2,3.7-0.2,6.6-4.5,8.1c-0.8,0.1-3.5,0.7-4.5-0.4
	c-1.2-1.8-2-3.8-2.2-5.9l0,0c0-1.2,0.2-1.5,0.2-2.2s-0.3-2.2-0.3-2.9c0-1.3,0.4-2.5,1-3.6c1-2,3-3.2,5.2-3
	C1689.9,502.4,1689.1,507.4,1688.9,511.4z"/>
<path class="st96" d="M1685.2,505.7c-2.5,2.2-7,2.1-7.5,4.7l0.2,1.2c0,0-0.6-1.5-0.8-2c-0.3-1.1,0.4-3.4,1.7-5
	c2.5-3.2,7.7-3.8,9.8-0.9c0,0,3-0.6,3.4,4c0.3,3.2-3.3,14.3-3.3,14.3c-0.5-0.5-0.9-1.2-1.1-1.9c-1-4.4-2.1-12.3-2.6-15.3"/>
<path class="st101" d="M1686.9,508.4L1686.9,508.4"/>
<path class="st97" d="M1683.1,520.7c1.6-0.2,3.1-0.9,4.3-2c-0.2,0.7-0.7,1.3-1.3,1.7C1685.1,520.7,1684.1,520.9,1683.1,520.7z"/>
<path class="st72" d="M1682.3,629l0.1,2.7c0,0.4-0.3,0.7-0.7,0.7l0,0h-7.2c-0.7,0-1.6-1.2-1-1.5c1.2-0.7,3.4-1.8,4.6-2.4
	c0.1,0,1.2-22.1,2.3-22.1C1681.4,606.3,1682.3,629,1682.3,629z"/>
<path class="st72" d="M1697.1,628.8v2.5c-0.5,0.6-1.1,1.1-1.7,1.5c-1.8,0.8-4.6,0.3-4.8-0.3c-0.1-0.6,1.8-2.9,1.8-2.9
	c0.3-0.4,0.6-0.8,0.8-1.2c0,0,1-22.1,2-22C1696.2,606.3,1697.1,628.8,1697.1,628.8z"/>
<linearGradient id="SVGID_67_" gradientUnits="userSpaceOnUse" x1="1675.0963" y1="633.0572" x2="1678.0967" y2="638.2462" gradientTransform="matrix(1 0 0 1 1 -4.01)">
	<stop  offset="0.31" style="stop-color:#56548C"/>
	<stop  offset="0.94" style="stop-color:#3B367A"/>
</linearGradient>
<path class="st102" d="M1673.3,632.4h8.9c0.1,0,0.2-0.1,0.2-0.2l0,0v-1.4c-1.8,0-5.9,0.1-6.1,0c-0.5-0.3-0.9-0.7-1.2-1.2
	c-0.8,0.4-1.5,0.9-2.2,1.4c-0.4,0.1-0.6,0.6-0.5,1C1672.6,632.4,1673,632.6,1673.3,632.4L1673.3,632.4z"/>
<linearGradient id="SVGID_68_" gradientUnits="userSpaceOnUse" x1="1691.9395" y1="633.6378" x2="1693.9584" y2="637.1461" gradientTransform="matrix(1 0 0 1 1 -4.01)">
	<stop  offset="0.31" style="stop-color:#56548C"/>
	<stop  offset="0.94" style="stop-color:#3B367A"/>
</linearGradient>
<path class="st103" d="M1695.4,632.9c0.7-0.3,1.3-0.8,1.7-1.5v-1.2l-1.7,1c-1.2-1.3-3.5-1.7-4-0.5l0,0c-0.4,0.5-0.7,1.1-0.7,1.8
	C1690.8,633.2,1693.6,633.6,1695.4,632.9z"/>
<linearGradient id="SVGID_69_" gradientUnits="userSpaceOnUse" x1="1672.1592" y1="600.3316" x2="1696.9977" y2="600.3316" gradientTransform="matrix(1 0 0 1 1 -4.01)">
	<stop  offset="0" style="stop-color:#DDB576"/>
	<stop  offset="0.15" style="stop-color:#E0B46D"/>
	<stop  offset="0.39" style="stop-color:#E7B055"/>
	<stop  offset="0.7" style="stop-color:#F2AB2D"/>
	<stop  offset="1" style="stop-color:#FFA500"/>
</linearGradient>
<path class="st104" d="M1695,565.9c0,0,1.5,15.5,1.6,25.6c0.7,4.6,1.1,9.3,1.4,14.1c0.3,7.3-0.7,21.1-0.7,21.1h-4.5l-7.5-57.4h-2
	v57.4h-5.2c0,0-3-23.1-4.9-60.8H1695z"/>
<linearGradient id="SVGID_70_" gradientUnits="userSpaceOnUse" x1="1671.7913" y1="548.4628" x2="1694.863" y2="548.4628" gradientTransform="matrix(1 0 0 1 1 -4.01)">
	<stop  offset="0" style="stop-color:#F68A6C"/>
	<stop  offset="1" style="stop-color:#8E5649"/>
</linearGradient>
<path class="st105" d="M1672.8,566.5l3.4-25.9c-1.2-1.8-2-3.9-2.2-6.1c0.5-2,1.2-3.9,2.1-5.7c0.3-0.7-0.6-1.3-0.6-1.3
	c0.3-1.3,0.9-2.5,1.8-3.6c1-1,5.2-1,5.2-1c-2.5,0.7-3,4-2.6,4.3c1.9,0.2,3.9,0.2,5.9,0c0.9-0.2,2.5-4.4,4.7-4.7
	c1.1-0.1,2.3,0.2,3.2,0.8c1.7,1.1,2.4,4,2.4,4s-6.2-0.2-5.8,3.5c0,0.1,0,0.2,0,0.3c0.7,3.5,1.8,7,3.1,10.4c-0.7,2.7-1,5.5-1.1,8.3
	c0,4.4,3.8,16.7,3.8,16.7L1672.8,566.5z"/>
<path class="st72" d="M1693.8,571.6c-1.9-0.3-0.2-14.1,0.4-18s1.6-7.9,3.7-7.5c2.1,0.4,1.7,4.4,1.1,8.3
	C1698.4,558.3,1695.6,571.9,1693.8,571.6z"/>
<path class="st72" d="M1694.3,568.1c2.2,0.2,1.4,4,1.1,5.4c-0.5,2.1-2.7,4.2-3.5,4c-0.8-0.2,0.6-4.9,0.5-5.2
	c-0.1-0.2-1.1,2.1-1.8,1.8c-0.8-0.3,0.1-3.4,0.9-4.5C1691.9,568.6,1693.1,568,1694.3,568.1z"/>
<path class="st72" d="M1660.8,555.4c0.6,2.2-3.2,2.6-4.5,2.9c-1.7,0.3-4-1.8-4.1-2.6c-0.1-0.8,4.8-1,4.9-1.2
	c0.2-0.3-2.2,0.2-2.2-0.6s2.3-1.1,3.6-0.7C1659.6,553.3,1660.5,554.2,1660.8,555.4z"/>
<path class="st38" d="M1564.5,443.4h-1.2V334.8c0-3.8,3.1-6.9,6.9-6.9h109v1.2h-109c-3.1,0-5.6,2.5-5.6,5.6l0,0L1564.5,443.4
	L1564.5,443.4z"/>
<ellipse class="st38" cx="1679.1" cy="328.4" rx="1.9" ry="1.9"/>
<ellipse class="st38" cx="1564" cy="443.3" rx="1.9" ry="1.9"/>
<path class="st38" d="M1798.6,517h-82.2v-1.2h82.2c3.1,0,5.6-2.5,5.6-5.6v-83.8c0-3.1-2.5-5.6-5.6-5.6h-15.3v-1.2h15.3
	c3.8,0,6.8,3.1,6.9,6.9v83.8C1805.4,513.9,1802.3,516.9,1798.6,517z"/>
<ellipse class="st38" cx="1783.3" cy="420" rx="1.9" ry="1.9"/>
<path class="st38" d="M1716.6,514.4c-1,0-1.9,0.8-1.9,1.9c0,1,0.8,1.9,1.9,1.9c1,0,1.9-0.8,1.9-1.9l0,0
	C1718.5,515.3,1717.6,514.5,1716.6,514.4z"/>
<ellipse class="st38" cx="1827.4" cy="403.4" rx="21.8" ry="21.9"/>
<ellipse class="st38" cx="1827.4" cy="533.5" rx="21.8" ry="21.9"/>
<polygon class="st0" points="1840.7,524.9 1814.1,524.9 1827.4,532.8 "/>
<polygon class="st0" points="1827.4,534.1 1813.6,525.9 1813.6,541.9 1841.1,541.9 1841.1,525.9 "/>
<path class="st0" d="M1842.3,402.3c0-5.8-6.7-10.6-14.9-10.6c-8.2,0-14.9,4.7-14.9,10.6s6.7,10.6,14.9,10.6c2.1,0,4.2-0.3,6.1-0.9
	l4.9,3.3l-2.2-4.4C1839.9,408.8,1842.3,405.7,1842.3,402.3z M1820.8,403.9c-1.1,0-1.9-0.8-1.9-1.9s0.8-1.9,1.9-1.9
	c1.1,0,1.9,0.8,1.9,1.9l0,0C1822.7,403,1821.9,403.9,1820.8,403.9z M1827.4,403.9c-1.1,0-1.9-0.9-1.9-1.9s0.9-1.9,1.9-1.9
	s1.9,0.9,1.9,1.9C1829.4,403,1828.5,403.9,1827.4,403.9C1827.5,403.9,1827.5,403.9,1827.4,403.9z M1834,403.9
	c-1.1,0-1.9-0.9-1.9-1.9s0.9-1.9,1.9-1.9c1.1,0,1.9,0.9,1.9,1.9C1836,403,1835.1,403.9,1834,403.9
	C1834.1,403.9,1834.1,403.9,1834,403.9z"/>
<rect x="1659" y="341.4" class="st38" width="16" height="2.6"/>
<rect x="1659" y="348.8" class="st38" width="16" height="2.6"/>
<rect x="1659" y="334.1" class="st38" width="16" height="2.6"/>
<rect x="1536.8" y="356.6" class="st38" width="27.3" height="1.2"/>
<path class="st38" d="M1536.9,355.4c-1,0-1.9,0.8-1.9,1.9c0,1,0.8,1.9,1.9,1.9c1,0,1.9-0.8,1.9-1.9l0,0
	C1538.7,356.2,1537.9,355.4,1536.9,355.4z"/>
<ellipse class="st38" cx="1516.6" cy="357.2" rx="13.2" ry="13.3"/>
<path class="st0" d="M1521.1,352.2c0,2.5-2,4.4-4.4,4.4s-4.4-2-4.4-4.4s2-4.4,4.4-4.4l0,0C1519.1,347.6,1521.1,349.6,1521.1,352.2z"
	/>
<path class="st0" d="M1519.2,356.6c-1.5,0.8-3.4,0.8-4.9,0c-2.6,1-4.3,3.5-4.3,6.3v3.9h13.5V363
	C1523.5,360.2,1521.8,357.7,1519.2,356.6z"/>
<path class="st38" d="M1797.6,342.1h-11v-11.2h11V342.1z M1788.5,340.3h7.2v-7.2h-7.2V340.3z"/>
<path class="st38" d="M1820.5,465.3h-8.2v-8.2h8.2V465.3z M1813.7,463.9h5.4v-5.4h-5.4V463.9z"/>
<polygon class="st38" points="1582.1,317.3 1582.1,313.3 1579.8,313.3 1579.8,317.3 1575.8,317.3 1575.8,319.6 1579.8,319.6 
	1579.8,323.6 1582.1,323.6 1582.1,319.6 1586.1,319.6 1586.1,317.3 "/>
<polygon class="st38" points="1816.4,437.4 1813.5,434.6 1811.9,436.2 1814.8,439 1811.9,441.9 1813.5,443.5 1816.4,440.6 
	1819.2,443.5 1820.8,441.9 1818,439 1820.8,436.2 1819.2,434.6 "/>
<path class="st38" d="M1572.5,396.4c0,0.9,0.7,1.6,1.5,1.6l0,0c0.4,0,0.8-0.2,1.1-0.5c0.3-0.3,0.5-0.7,0.5-1.1
	c0-0.9-0.7-1.6-1.5-1.6l0,0c-0.4,0-0.8,0.2-1.1,0.5C1572.7,395.5,1572.5,395.9,1572.5,396.4"/>
<path class="st38" d="M1572.5,418.2L1572.5,418.2c0,0.9,0.7,1.6,1.6,1.6s1.6-0.7,1.6-1.6l0,0c0-0.9-0.7-1.6-1.6-1.6
	S1572.5,417.3,1572.5,418.2z M1572.5,407.2L1572.5,407.2c0,0.9,0.7,1.6,1.6,1.6s1.6-0.7,1.6-1.6l0,0c0-0.9-0.7-1.6-1.6-1.6
	C1573.2,405.7,1572.5,406.4,1572.5,407.2L1572.5,407.2z"/>
<path class="st38" d="M1572.5,429.1c0,0.9,0.7,1.6,1.5,1.6l0,0c0.4,0,0.8-0.2,1.1-0.5c0.3-0.3,0.5-0.7,0.5-1.1
	c0-0.9-0.7-1.6-1.5-1.6l0,0c-0.4,0-0.8,0.2-1.1,0.5S1572.5,428.7,1572.5,429.1"/>
<path class="st43" d="M1741.9,300.1h-20c-0.4,0-0.8-0.3-0.8-0.8l0,0c0-0.4,0.3-0.7,0.7-0.7l0,0h20c0.4,0,0.8,0.3,0.8,0.7l0,0l0,0
	C1742.7,299.7,1742.4,300.1,1741.9,300.1z"/>
<linearGradient id="SVGID_71_" gradientUnits="userSpaceOnUse" x1="1731.9928" y1="307.8769" x2="1731.9928" y2="395.4878" gradientTransform="matrix(1 0 0 1 0 -2)">
	<stop  offset="0" style="stop-color:#4B4B4B"/>
	<stop  offset="1" style="stop-color:#000000"/>
</linearGradient>
<polygon class="st106" points="1775.3,304.4 1775.3,315.2 1688.7,402.3 1688.7,304.4 "/>
<path class="st38" d="M1632.9,375.8c-10.2,0-18.4-8.3-18.4-18.5c0-10.3,8.3-18.5,18.4-18.5s18.4,8.3,18.4,18.5
	C1651.3,367.5,1643,375.8,1632.9,375.8L1632.9,375.8z M1632.9,342c-8.4,0-15.2,6.8-15.2,15.3c0,8.4,6.8,15.3,15.2,15.3
	c8.4,0,15.2-6.8,15.2-15.3l0,0C1648,348.8,1641.2,342,1632.9,342z"/>
<path class="st38" d="M1628,365.4c-0.9,0-1.7-0.7-1.7-1.6c0-0.4,0.2-0.8,0.4-1.1l5.1-5.4v-11.7c0-0.9,0.7-1.7,1.6-1.7
	c0.9,0,1.7,0.7,1.7,1.6l0,0v12.4c0,0.4-0.2,0.8-0.5,1.1l-5.6,5.9C1628.9,365.2,1628.5,365.4,1628,365.4z"/>
</svg>
