<?xml version="1.0" encoding="utf-8"?>
<!-- Generator: Adobe Illustrator 24.1.1, SVG Export Plug-In . SVG Version: 6.00 Build 0)  -->
<svg version="1.1" id="Layer_1" xmlns="http://www.w3.org/2000/svg" xmlns:xlink="http://www.w3.org/1999/xlink" x="0px" y="0px"
	 viewBox="0 0 499.9 176" style="enable-background:new 0 0 499.9 176;" xml:space="preserve">
<path d="M499.9,20.9v133.6c-0.2,0.8-0.5,1.5-0.6,2.3c-2.5,10.9-11.7,18.5-22.4,18.5c-151,0-302,0-453,0c-1.1,0-2.2-0.1-3.3-0.2
	c-11.9-2.2-19.7-11.5-19.9-23.7c-0.1-6.4,0.1-12.7,0.1-19.1c0-36,0-72,0-107.9c0-12.1,7.3-21.1,19-23.7C20.4,0.4,21,0.2,21.5,0
	h457.4c0.3,0.2,0.7,0.4,1,0.5c10.7,2.3,17.3,8.6,19.4,19.4C499.5,20.2,499.7,20.6,499.9,20.9z M250.1,170.7h225.4
	c11.5,0,19.5-7.9,19.5-19.5V25c0-12.5-7.8-20.3-20.4-20.3H25.5c-12,0-20,8-20,20c-0.1,42-0.1,84.1,0,126.2c0,11.7,8,19.7,19.6,19.7
	L250.1,170.7z"/>
<path d="M139.4,65.8c-0.9,0.7-1.6,1.4-2.4,2c-15.5,10.1-15.5,35.7,2.7,45.9c2.6,1.5,2.9,2.7,1.9,5.3c-3.4,8.5-8.2,16.4-14.3,23.2
	c-5.4,6.2-12,8.2-19.9,5.3c-1.3-0.5-2.6-0.9-3.9-1.4c-6.2-2.8-13.2-2.9-19.5-0.3c-2,0.8-4.1,1.5-6.2,2.2c-5.2,1.7-10.1,1-14.3-2.6
	c-8.5-7.3-14.2-16.6-18.3-26.8c-5.3-13.3-7.7-27-3.8-41.1c4.2-15.1,17.1-25,31.3-23.8c4.8,0.4,9.6,2.3,14.3,4c3.1,1.3,6.7,1.3,9.8,0
	c3.5-1.4,7.1-2.6,10.7-3.6C119.5,51,132.2,55.7,139.4,65.8z"/>
<path d="M221.5,96.7h4.9c0.2,1.5,0.4,2.9,0.7,4.8c3.1-3.6,6.6-5.6,11.1-5.6c6,0,10.3,2.7,12.8,8.1c2.5,5.5,2.5,11.8,0,17.4
	c-3.6,8.7-15.2,12-23.2,4.4v16.7h-6.2L221.5,96.7z M246.5,112.1c-0.1-1.2-0.3-2.4-0.5-3.6c-1.4-5.2-5.1-8.1-9.8-7.8
	c-4.6,0.3-8.2,4-8.6,9.1c-0.3,2.6-0.2,5.2,0.2,7.7c0.8,4.9,5.4,8.2,10.3,7.4c0.4-0.1,0.7-0.1,1.1-0.2
	C243.8,123.6,246.4,119.5,246.5,112.1L246.5,112.1z"/>
<path d="M260.3,96.7h4.9l0.4,4.6c0.6-0.5,1-0.7,1.3-1c7.6-7.7,19.2-5.4,23.1,4.7c1.8,4.7,1.9,9.9,0.3,14.6c-2.2,7.6-10,12-17.6,9.8
	c-2.4-0.7-4.6-2-6.4-3.9v17h-5.9L260.3,96.7z M265.9,113.1h0.2c0,1,0,2,0,3c0.3,4.9,3.2,8.3,7.9,9c4.5,0.7,8.3-1.6,10-6.1
	c1.7-4.1,1.6-8.7-0.2-12.7c-1.5-3.6-5.1-5.8-9-5.5c-3.9,0.3-7.1,3-8.1,6.8C266.3,109.4,266,111.2,265.9,113.1z"/>
<path d="M176.9,128.8c2.3-6.7,4.5-13.3,6.8-20c2.7-7.8,5.4-15.6,8-23.4c0.6-1.7,1.6-2.2,3.1-1.9c1.8,0.4,4.4-1.4,5.4,1.6
	c4.9,14.3,9.8,28.5,14.6,42.8c0,0.3,0,0.5,0,0.8c-5.4,1.2-5.8,0.9-7.5-4c-1.1-3.2-1.5-7.5-3.7-9.1s-6.5-0.6-9.8-0.6
	c-6,0-6,0-7.8,5.6c-0.5,1.4-0.9,2.8-1.4,4.2C182.8,129.9,182.8,129.9,176.9,128.8z M195.8,89.9l-6.6,20.2h13.3
	C200.3,103.5,198.1,97,195.8,89.9z"/>
<path d="M335.2,89.7c-2.2-0.7-4.5-1.2-6.8-1.5c-2.1-0.2-4.1,0.1-6.1,0.7c-4.9,1.8-5.9,8-1.7,11c3.1,2.2,6.9,3.5,10.3,5.3
	c6.4,3.3,8.9,8.1,7.6,14.6c-0.7,3.9-3.4,7.2-7.1,8.6c-6.9,2.9-13.6,2.1-20.5-1.1c0.5-1.6,0.9-3.1,1.4-4.6c3.2,0.8,6.2,1.8,9.3,2.2
	c2.3,0.2,4.6-0.1,6.7-0.9c3.7-1.5,5.4-5.6,3.9-9.3c-0.5-1.2-1.2-2.2-2.2-2.9c-1.8-1.4-4.1-2.3-6.2-3.4c-2.4-1.3-5-2.2-7.1-3.8
	c-5.1-3.6-6.3-10.7-2.7-15.9c0.9-1.3,2.1-2.4,3.5-3.2c5.7-3.4,11.8-3.1,17.9-0.9C337.2,85.2,337.1,85.8,335.2,89.7z"/>
<path d="M398.4,113.2c-0.1,9.9-7,16.9-16.6,16.9c-9.4-0.1-15.9-7.2-15.8-17.2s6.9-17,16.8-16.9C392.3,96,398.4,102.8,398.4,113.2z
	 M392.4,112.5c-0.4-2.1-0.9-4.1-1.6-6.1c-1.6-4-4.9-6.2-8.7-6c-4.1,0.2-7.3,2.2-8.4,6c-1,3.4-1.3,6.9-0.9,10.4
	c0.5,4.7,4.3,8.3,9,8.5c4.5,0.2,8.3-3,9.7-8.1C391.9,115.8,392,114.3,392.4,112.5z"/>
<path d="M451,123.9c0.3,1.3,0.6,2.5,1,4.1c-6.8,2.4-13.6,3.4-20.1-0.3c-6.2-3.6-7.6-9.7-7.1-16.3c0.5-6.2,3.1-11.6,9.2-14.3
	c9.5-4.2,18.9,1.6,19.8,12.1c0.1,1.5,0,2.9,0,4.8h-22.7C429.6,122.9,437,126.6,451,123.9z M431.1,109.5h16.5
	c0.4-5.2-2.8-9.1-7.4-9.3C435.2,99.9,431.3,103.9,431.1,109.5L431.1,109.5z"/>
<path d="M90.8,48.5c0.5-12.1,11.4-24,23.5-25.4c0.7-0.1,2.1,0.8,2.2,1.4c1,13.2-10.8,27.2-22.1,27.6C90.8,52.2,90.6,52.1,90.8,48.5z
	"/>
<path d="M347.4,101.4l-4.6-0.4v-4c0.2-0.1,0.3-0.3,0.5-0.4c4.4-0.5,4.4-0.5,4.5-4.9c0-3.5,0-3.5,5.8-4.4v9.1h8.5v4.5h-8.4
	c0,3.3,0,6.2,0,9.1c0,3.2,0,6.3,0.2,9.5c0.2,4.3,1.4,5.3,5.7,5.3c0.6,0,1.2,0,2.1,0l0.2,4.1c-8.4,3.2-13.9-0.4-14-9.1
	c-0.1-5.9-0.1-11.7-0.1-17.6C347.6,101.9,347.6,101.6,347.4,101.4z"/>
<path d="M171.8,68V44.8c0-5.3,0-5.3,5.5-5.5c1.5,0,3-0.1,4.5,0c8.5,0.5,13.4,5.2,13.6,13.1c0.2,9-4.5,14.8-12.9,15.6
	C179,68.3,175.6,68,171.8,68z M175.7,64.8c6.9,1.1,11.8-0.5,14-4.8c2.4-4.5,2.6-9.3-0.3-13.6s-7.5-4.5-12-4
	c-0.8,0.3-1.5,0.9-1.7,1.8C175.6,51,175.7,57.8,175.7,64.8z"/>
<path d="M405.6,96.7h4.9c0.1,1.6,0.3,3.2,0.4,4.4c1.4-1.2,2.8-2.8,4.5-3.8s4-1.2,6.3-1.9v5.7c-6.4,0.5-10.1,2.7-10.1,12.3
	c0,5,0,9.9-0.1,14.9c0,0.2-0.1,0.4-0.3,0.6c-0.2,0.1-0.5,0.2-0.7,0.3c-5,0.3-5,0.3-5-4.8c0-8.2,0-16.5-0.1-24.7
	C405.5,98.8,405.6,97.8,405.6,96.7z"/>
<path d="M338.7,49.2V38.3h3.8v29.5c-1.9,0.4-3.6,0.7-3.4-1.7c-2.2,0.8-4.5,2.3-6.7,2.3c-2.3-0.1-4.6-1-6.3-2.6
	c-3.7-3.3-3.7-11-0.6-15.2C328.4,46.7,332.8,46.1,338.7,49.2z M338.7,57.9L338.7,57.9c0-0.8,0-1.6,0-2.4c0-2.6-1.8-4.8-4.4-5.3
	c-2.5-0.6-5,0.8-6.2,3.4c-1.3,2.7-1.3,5.9,0.1,8.6c0.9,2.3,3.4,3.6,5.8,3.1c2.5-0.3,4.4-2.3,4.6-4.8
	C338.6,59.7,338.6,58.8,338.7,57.9L338.7,57.9z"/>
<path d="M248.6,48c-2,6.2-4,12.4-6.1,18.6c-0.5,0.8-1.3,1.2-2.1,1.3c-1-0.2-1.8-0.7-2.3-1.6c-1.4-3.6-2.4-7.3-3.6-11
	c-0.2-0.6-0.5-1.2-0.9-2.3c-1.5,4.3-2.8,8.3-4.1,12.2c-1,2.9-1,2.9-4.6,2.7c-2-6.5-4-13.1-6-19.7c3.6-1,3.7-0.9,4.6,2.3
	c1.1,4.1,2.1,8.2,3.4,13.3c1.6-5.1,2.9-9.4,4.4-13.7c0.4-1.1,1.2-1.9,2.3-2.4c1.9-0.6,2.1,1.1,2.6,2.4c1.2,4.2,2.6,8.3,4.3,12.3
	c0.4-1.4,0.9-2.8,1.4-4.2c0.7-2.6,1.6-5.1,2.1-7.8S245.9,47.1,248.6,48z"/>
<path d="M442.9,68H439c0-3,0-6,0-8.9c0-1.3,0-2.6-0.1-3.9c-0.3-3-2.1-5-4.5-4.9c-2.8,0.1-5.1,2.4-5.1,5.2c-0.1,3.6,0,7.2-0.1,10.7
	c0,0.5-0.1,1-0.1,1.6h-3.5V38.3h3.6v11.5c9.1-5.1,13.9-2.2,13.9,8.1V68z"/>
<path d="M197.8,58c0-6.5,4-10.8,10-10.8S218,51.3,218,57.8c0,6.3-4.3,10.8-10.3,10.8S197.8,64.3,197.8,58z M214,58
	c0-4.7-2.5-8-6.2-8s-6.2,3.3-6.3,7.7s2.6,7.8,6.1,7.9S214,62.3,214,58L214,58z"/>
<path d="M251.5,67.8V48c1.7-0.5,3.3-1,3.4,1.8c0.3,0,0.6,0.1,0.7,0c2.8-2.4,5.8-3.5,9.3-1.9s4.2,5,4.2,8.5v11.4h-4v-8.9c0-1,0-2,0-3
	c-0.2-3.6-2-5.8-4.7-5.7c-2.9,0.1-5,2.5-5,5.9c0,3.8,0,7.7,0,11.7H251.5z"/>
<path d="M301.5,57.5c0.1,6.5-4,10.9-10,11s-10.1-4.1-10.2-10.4c-0.1-6.5,3.9-10.9,10-11S301.5,51.2,301.5,57.5z M291.4,50.1
	c-3.7,0-6.3,3.3-6.2,8c0.1,4.4,2.9,7.7,6.4,7.5s6.2-3.7,6.1-7.9C297.6,53.2,295,50.1,291.4,50.1L291.4,50.1z"/>
<path d="M376.4,57.7c0,6.4-4.2,10.8-10.1,10.9s-10-4.2-10-10.5c0-6.7,4-11,10.2-11C372.4,47.2,376.4,51.4,376.4,57.7z M372.6,58.2
	c-0.3-1.4-0.4-2.3-0.6-3.1c-0.8-2.8-2.3-4.8-5.5-5c-2.9-0.3-5.6,1.8-5.9,4.7c0,0,0,0,0,0c-0.5,2.6-0.2,5.2,0.8,7.7
	c1.9,4.2,7.2,4.2,9.6,0.3C371.7,61.3,372.2,59.8,372.6,58.2L372.6,58.2z"/>
<path d="M464.2,58.5h-13.8c-0.1,6,3.3,7.7,13.1,6.2c-0.7,1.4-0.9,2.8-1.5,3c-4.4,1.2-9,1.7-12.6-1.9s-3.7-8-2.1-12.5
	c1.5-4.7,6.4-7.3,11.2-6C462.8,48.5,465.2,52.9,464.2,58.5z M460.8,55.5c-0.6-4.1-2.2-5.7-5.3-5.5s-4.8,2.2-5,5.5H460.8z"/>
<path d="M315.7,54.7c-0.2-4.8-2.7-5.7-9.6-3.6c-1-1.3-1.3-2.6,0.7-3c2.3-0.6,4.6-0.9,7-0.8c3.1,0.3,5.3,2.2,5.5,5.4
	c0.3,5,0.1,10.1,0.1,15.7l-3.9-1.8c-1.4,0.7-2.9,1.3-4.4,1.8c-2.9,0.7-5.9-0.8-7.1-3.6c-1.2-3,0-6.5,2.9-8c1.3-0.7,2.7-1.1,4.2-1.4
	C312.6,55.1,314.1,55,315.7,54.7z M315.6,57.4c-2.1,0.4-4.1,0.9-6.1,1.6c-1.7,0.6-2.5,2.5-1.9,4.2c0.1,0.2,0.2,0.4,0.3,0.6
	c1,2.1,2.9,2.3,4.8,1.6C315.6,64.4,316.5,61.9,315.6,57.4z"/>
<path d="M397.5,67.9h-3.6c0-2.7,0-5.4,0-8c0-1.6-0.1-3.2-0.3-4.8c-0.4-3.2-2.2-4.9-4.6-4.8c-2.8,0.1-5.1,2.4-5.1,5.3
	c-0.2,3-0.1,6-0.1,8.9v3.3h-3.6V47l4.2,2.6c0.5-0.4,1.1-0.8,1.7-1.2c5-3.1,10.9-0.3,11.4,5.7C397.8,58.5,397.5,63.1,397.5,67.9z"/>
<path d="M422.3,47.7c0.5,4.6-3.4,1.8-4.9,3.6c-0.2,4-0.1,8.1,0.2,12.1c0.1,1,2.5,1.8,4,2.4c1.1,1.7,0.3,2.6-1.8,2.7
	c-3.7,0.3-6-1.3-6.3-5.1c-0.3-4.1-0.1-8.3-0.1-12.3c-3.1-1-3.1-1-3.1-3.2l2.8-0.6c0.4-2.3-0.9-5.7,3.7-5.3c0.1,1.7,0.2,3.4,0.4,5.4
	L422.3,47.7z"/>
<path d="M274,38.2h3.4v29.7l-3.3,0.1L274,38.2z"/>
</svg>
