<svg id="Layer_1" data-name="Layer 1" xmlns="http://www.w3.org/2000/svg" viewBox="0 0 114.71 103.54"><defs><style>.cls-1{fill:orange;}</style></defs><path class="cls-1" d="M802.29,341.07l32.93,7.61c4.45,1,8.9,2.11,13.38,3,1.52.3,1.95,1,1.89,2.39-.09,2.12-.07,4.25,0,6.37.08,2.61.95,3.45,3.61,3.48,3.65.05,7.31,0,11,0,2.92,0,3.71-.86,3.76-3.86,0-2.13-.11-4.26.08-6.37a2.54,2.54,0,0,1,1.43-1.85c15.18-3.5,30.39-6.91,45.59-10.33a10.74,10.74,0,0,1,1.09,0v41.7c0,5.07-1.81,6.84-7,6.84q-50.46,0-100.92,0c-3.28,0-5.59-1-6.83-4.12Z" transform="translate(-802.29 -286.51)"/><path class="cls-1" d="M802.29,315.58c1.4-2.84,3.67-3.73,6.81-3.72,33.71.08,67.43,0,101.14.05,5,0,6.75,1.7,6.76,6.69v15.85l-48.18,10.94c0-1.51,0-2.73,0-4-.08-2.85-.84-3.65-3.66-3.68q-5.48-.06-10.95,0c-2.88,0-3.64.8-3.73,3.61,0,1.18,0,2.37,0,4l-48.18-10.92Z" transform="translate(-802.29 -286.51)"/><path class="cls-1" d="M885.88,306.37h-6.11c0-2.17,0-4.26,0-6.35-.07-4.42-3-7.35-7.34-7.37q-12.85,0-25.71,0a7,7,0,0,0-7.2,7.23c0,2.11,0,4.21,0,6.45h-6c-.19-4.91-.89-9.92,2.38-14.3a13,13,0,0,1,10.92-5.5q12.72,0,25.46,0a13.21,13.21,0,0,1,13.57,12.7C886,301.51,885.88,303.8,885.88,306.37Z" transform="translate(-802.29 -286.51)"/></svg>