<?xml version="1.0" encoding="utf-8"?>
<!-- Generator: Adobe Illustrator 24.1.1, SVG Export Plug-In . SVG Version: 6.00 Build 0)  -->
<svg version="1.1" id="Layer_1" xmlns="http://www.w3.org/2000/svg" xmlns:xlink="http://www.w3.org/1999/xlink" x="0px" y="0px"
	 viewBox="0 0 1920 1080.2" style="enable-background:new 0 0 1920 1080.2;" xml:space="preserve">
<style type="text/css">
	.st0{fill:#FFFFFF;}
	.st1{fill:#FEFEFE;}
	.st2{fill:#FAE5E7;}
	.st3{fill:#F6E8EE;}
	.st4{fill:#ECEEFA;}
	.st5{fill:#F2EAF2;}
	.st6{fill:#EFECF6;}
	.st7{fill:#F6E3E6;}
	.st8{fill:#DCE3E6;}
	.st9{fill:#F0AFB3;}
	.st10{fill:#7595C2;}
	.st11{fill:#76C6ED;}
	.st12{fill:#E0D4D7;}
	.st13{fill:#74A8E6;}
	.st14{fill:#EC6882;}
	.st15{fill:#F68A6C;}
	.st16{fill:#F6A46E;}
	.st17{fill:#F6DB6F;}
	.st18{fill:#E8B67C;}
	.st19{fill:#E7ECEF;}
	.st20{fill:#726669;}
	.st21{fill:#6E678B;}
	.st22{fill:#F9F8F9;}
	.st23{fill:#241B52;}
	.st24{fill:none;stroke:#4D4882;stroke-width:4;stroke-miterlimit:10;}
	.st25{fill:none;stroke:#4D4882;stroke-width:2;stroke-miterlimit:10;}
	.st26{fill:none;stroke:#4D4882;stroke-width:3;stroke-miterlimit:10;}
	.st27{fill:none;stroke:#73C0EF;stroke-width:3;stroke-miterlimit:10;}
	.st28{fill:#423191;}
	.st29{fill:#582E60;}
	.st30{fill:#FF8D14;}
	.st31{fill:none;stroke:#504B87;stroke-width:10;stroke-miterlimit:10;}
	.st32{fill:none;stroke:#FFFFFF;stroke-width:4;stroke-miterlimit:10;}
	.st33{fill:none;stroke:#22E022;stroke-width:4;stroke-miterlimit:10;}
	.st34{fill:#F9D4C8;}
	.st35{fill:#ECAF9C;}
	.st36{fill:#F6BBAA;}
	.st37{fill:#CD8E7B;}
	.st38{fill:#BBBBBB;}
	.st39{fill:none;stroke:#B2B1B1;stroke-miterlimit:10;}
	.st40{fill:#B2B1B1;}
	.st41{font-family:'ArialMT';}
	.st42{font-size:7.42px;}
</style>
<rect y="0.2" class="st0" width="1920" height="1080"/>
<path class="st1" d="M1249.9,551.1c-1.1,0.6-4.8,2.9-4.8,3.5c-0.2,1.9,0.8,4.4-0.1,5.7c-3.5,4.7-11.9,23.9-13.3,26.9
	c-0.9,2.1-2.5,3.9-3.6,6c-1.4,2.5-9.4,27-9.8,28.7c-2,10.3-4.6,20.5-6.1,30.9c-1.8,12.5-4,25.3-3.6,37.8c0.8,19.7,7.8,38,16.8,55.4
	c13.3,25.6,31.9,46.8,54.6,64.4c17.5,13.4,36.7,24.4,57.1,32.8c20.7,8.7,42.1,15.1,64.4,17.8c23.6,2.8,47.1,5.8,70.8,7.1
	c19,1,38.2-0.3,57.3-0.9c12.2-0.4,24.3-1,36.4-2.2c19.5-1.9,39-3.5,58.3-6.7c28.4-4.7,56.7-10.1,84.9-16
	c31.4-6.6,61.5-17.4,91.2-29.2c8.2-3.3,16.3-7,24.4-10.5c11.9-4.4,23.9-8.7,35.7-13.2c16.3-6.3,32.4-12.9,48.7-19.1
	c4.9-1.9,6.7-4.5,6.7-10.1c-0.3-33.7-0.2-67.4-0.2-101.1V316.3c-0.3-8.9-1-17.8-1-26.7c-0.1-66.4-0.1-132.9,0-199.3
	c0-7.3,0-7.3-7.2-7.3h-747.2l-0.6,1.5c1,1.3,2.1,2.6,3.3,3.7c18.2,15.8,36.9,31.2,54.6,47.6c20.1,18.8,38.4,39.3,54.9,61.2
	c16.6,22,31,45.3,40.4,71.3c5.5,15.1,9.8,30.5,10.3,46.6c0.5,17.4,1.1,35-0.8,52.2c-1.6,15-6.7,29.6-10.2,44.4
	c-3.3,8.8-6.5,17.7-10,26.4c-4.2,10.6-8.7,21.1-13,31.6l-6.6,14.2C1271.8,506.3,1260.8,528.7,1249.9,551.1z"/>
<path class="st2" d="M1824.9,802.7c-8.1,3.5-16.2,7.2-24.4,10.5c-29.7,11.8-59.9,22.6-91.2,29.2c-28.2,5.9-56.5,11.4-84.9,16
	c-19.3,3.2-38.8,4.8-58.3,6.7c-12.1,1.2-24.3,1.8-36.4,2.2c-19.1,0.6-38.3,1.9-57.3,0.9c-23.7-1.3-47.3-4.3-70.8-7.1
	c-22.3-2.7-43.7-9.2-64.4-17.8c-20.4-8.4-39.6-19.4-57.1-32.8c-22.7-17.6-41.3-38.8-54.6-64.4c-9-17.4-16.1-35.7-16.8-55.4
	c-0.5-12.6,1.8-25.3,3.6-37.8c1.5-10.4,4.1-20.6,6.1-30.9c0.3-1.7,8.4-26.2,9.8-28.7c1.2-2,21-42.6,21.5-43.2
	c6.1,0.7,9.2,4.5,15.3,4.9c0.8,0,1.7-1.9,2.6-3h1l0.5,6.5c-0.8-0.2-1.7-0.4-2.6-0.4c-1.3,0.1-2.6,0.4-3.8,0.7
	c0.2,1.1,0.1,2.6,0.8,3.1c1.1,0.9,2.5,1.4,3.9,1.5c0.9,0,1.8-1.1,2.7-1.7c0.6,1.5,1.3,3,1.9,4.5h-15.3c0.2,1.4,0.1,4.5,0.9,4.8
	c1.8,0.5,4-0.4,7.2-0.9c-0.5,2.1-0.9,3.9-1.5,7l-3.8-4.5l-2.8,2.5l-6.4-1.6c0.2,1.9,0.6,3.7,0.7,5.6s-0.1,3.6-0.3,6
	c1.7,3.7,5.1,2.8,8.5,1.9l2.2,1l-1.3,2.4l-16.3,1.3c3,4.1,10.3,4.7,16.2,2l1.1,5.5c-5.6-4.4-10.5,1.1-16.7,0.6
	c3.5,3.3,10.5-1.3,10.3,6.1l1,5.2c0.5,2.9,1,5.8,1.5,8.7l9.4-0.9l-3,3.4l-4.6,1l-1.1-1.4l-0.4,0.4l1.4,1.1
	c-1.4,6.8,1.5,12.9,3.6,19.1c0.5-3.6,0-7,0-10.5c0.2-2.6,0.5-5.1,1.1-7.7l3.1,6.7l-1.7,0.9l1.7,1.3l2.2,2.2
	c-0.8,3.2-2.6,6.6,1.5,8.2l5.2-2.7l2.1,2.2v6.2l2.2-0.1v-6c1.1-4.4,2.1-8.8,3.2-13.2l4.5,13.1c-0.2,3.8-0.2,7.6,5.5,6.6l2.1,1.3
	c-0.4,1.8-0.8,3.6-1.2,5.4c-2.6-1.6-3.6-0.2-2.7,2.1c2.1,5.7,4.6,11.2,7,16.8c3.3-1,4.8-2.4,2.3-5.5c-0.6-0.9-0.7-1.9-0.3-2.9
	c3.1-4.3,0.6-4.8-3-5.2c-0.7-0.1-1.3-1.3-1.9-2l8.3-0.8c0.6,3.7,1.4,7.7,5.6,7.1c0.6-3.6,1.1-6.2,1.5-8.7l3.1,1.6l-1.6,6.4l7.2,0.3
	l9,0.4l2,1.1c0.4,2.3,0.8,4.6,1.3,7l3.8-2.3l-2.2-5l0.7-1.7l2.1-0.3l1.9,2.2c1.2,4.7,2.5,9.4,3.9,15c0.9-0.7,1.7-1.5,2.5-2.4
	c1.2-1.5,2.1-3.1,3.2-4.7l1,0.9l-2,5.7l7.1-0.9l-3.8-6.5l3.6-0.7l1.9,1.2c0.2,2.5-0.3,5.5,0.9,7.3c2.9,4.6,0.5,4.8-3.1,4.8H1334
	c-0.8,1.5-1.4,3.6-2.8,4.9c-2.7,2.5-4,5.3-3.7,9.1c0.1,2.1,0.1,4.1,0,6.2l-6.3,1.8l-0.1,1.7l14,5.1l3.7,5.7c1.9-2,3.5-4.4,5.8-5.8
	c2.6-1.5,5.8-2,8.7-3.1c7.5-2.7,10.4-8.1,8.4-15.8c-0.8-1.3-1.6-2.7-2.4-4c0.2-2.9,4.4-5.5,0.5-8.7l3.1-3.2l2.2,0.7
	c0,4.5-0.2,9.1,0.1,13.6c0.4,1.3,1.4,2.2,2.7,2.6c4.6,0.3,9.2,0.1,13.8,0.1l0.9,1.1c1.2,6.4,2.3,12.9,3.5,19.3
	c0.4,1.9,1.4,3.7,1.7,5.5c1,7,2.2,14,2.7,21c0.1,3.9-0.3,7.9-1.3,11.7c-0.3,1.3-2.2,2.3-3.4,3.4l5.5,2.3c0.6,2.4-10.7,5.9,0.5,8.5
	c-5,3.6-2.3,6.8-0.6,10l-1.4,1.5l-2.2,1.2c-6.1,3-12.2,5.9-18.3,8.9c-0.5,0.3-0.9,0.6-1.2,1.1c-3.6,5.8-8.5,9.7-15.9,10
	c5.2,2.6,9.3,6.8,16,2.5s10.3-3,13.8,3.3c2.1-6,4.3-11.9,12.2-9.4l0.9,7c2.3,1.3,4.6,2.3,6.7,3.6c7.3,4.4,14.9,7.2,23.6,7.2
	c29.3-0.1,58.7,0,88-0.1c6.8,0,14.2,1.6,18.9-5.5h2.2c1.2,1.8,2,4.6,3.6,5s3.8-1.4,5.6-2.5c1.1-0.8,2.2-1.8,3.1-2.9l7.5,3.5l3.4,0.1
	h1h2.3c1.6,0.7,3.1,2,4.7,2c6.4,0.2,12.9,0.1,19.3,0.1c1.7,4.6,4.7,5.3,8.7,2.8c1.5-1,3-1.9,4.5-2.8c32.5,0,65,0.3,97.4-0.1
	c19.8-0.2,35.1-13.5,35.1-35c0-42,0-83.9,0-125.9c0.7,0.5,1.9,0.9,2,1.5c0.9,5.5,2.1,11.1,2.3,16.7c0.4,10.3-0.7,20.7,0.3,30.9
	c1,9.6-0.6,21.4,12.6,25.3c0.5,0.2,0.8,0.7,1.3,1c2.9,2.1,5.8,4.1,8.7,6.2c1.3,1.8,2.8,3.5,4.5,5c1.2,1,3.3,1.4,4,2.6
	c2.1,3.6,6.1,5,8.5,8.8c3.3,5.1,10,8,15.4,11.7c6.5,4.5,13.3,8.5,19.5,13.4c7,5.5,13.5,11.7,20.2,17.6L1824.9,802.7z M1260.6,679.8
	c8.5-6.7,12.8-15.7,16.4-25.7H1263c0.5,1.7,0.9,3.1,1.2,4.5l-7.7,5l2.8,2C1256.3,671.7,1256.3,671.9,1260.6,679.8z M1304.9,690.3
	c3.2,4.7,5.4,9,8.8,12.3c1.5,1.5,5.1,0.7,7.7,1c4.3-9.9,2.4-12.7-8.3-12.6C1310.8,690.9,1308.5,690.6,1304.9,690.3z M1313.4,682.2
	c-1.7-3.2-2.9-5.3-3.9-7.4c-0.4-1-0.8-2.1-1.2-3.1c-1,0.9-2.5,1.6-2.8,2.7s0.2,2.8,0.4,4l-6.2,1.7l0.3,1.3L1313.4,682.2z
	 M1399,816.5l-1.6,0.2c-1.3,6.4,0.3,16.2,4,18.9C1400.5,828.7,1399.8,822.6,1399,816.5z M1251.7,627.3l2.6-2.3c-0.6-3.6-1-6.2-1.4-9
	C1248.1,615.7,1247.8,617.2,1251.7,627.3z M1248.8,632.9l6.7,1.2l-1.1-6.5L1248.8,632.9z M1263.5,651.1c1.1-1.4,2.6-2.4,2.4-3.1
	c-0.2-1.1-1.5-2-2.4-2.9c-0.9,1-2.2,1.8-2.4,2.9C1261,648.7,1262.4,649.7,1263.5,651.1z M1248.9,604.6l-1.5,0.3
	c0.1,1.6-0.1,3.4,0.6,4.7c0.4,0.8,2.3,0.8,3.5,1.2l0.6-1.2L1248.9,604.6z M1269.7,650.1l2.2-0.6c-0.5-1.1-1-2.2-1.5-3.2
	c-0.5,0.1-0.9,0.2-1.3,0.5C1269.2,647.9,1269.5,649,1269.7,650.1L1269.7,650.1z M1244.7,609c-0.6-0.4-1.3-0.8-2.1-1
	c-0.3,0-1.1,0.7-1.1,0.8c0.2,0.6,0.6,1.4,1.1,1.5S1243.7,609.6,1244.7,609L1244.7,609z M1385.3,750.4c-0.1-0.3-0.2-0.7-0.4-0.8
	s-0.6,0.1-0.8,0.2l0.4,1.1L1385.3,750.4z"/>
<path class="st3" d="M1824.9,802.7l5-6.1c-6.7-5.9-13.2-12.1-20.2-17.6c-6.2-4.9-13-8.9-19.5-13.4c-5.3-3.7-12.1-6.6-15.4-11.7
	c-2.4-3.8-6.4-5.2-8.5-8.8c-0.7-1.2-2.8-1.6-4-2.6c-1.7-1.5-3.2-3.2-4.5-5c-2.9-2.1-5.8-4.1-8.7-6.2c-0.4-0.3-0.8-0.9-1.3-1
	c-13.1-4-11.5-15.7-12.6-25.3c-1.1-10.2,0-20.6-0.3-30.9c-0.2-5.6-1.4-11.1-2.3-16.7c-0.1-0.6-1.3-1-2-1.5c0-30.8,0-61.6,0-92.4
	c0.2-2.5,0.5-5,1.1-7.5c5.4,0.1,8.9-2.5,10.7-7.5c-1.7-9.5-3.4-19.1-5.2-29l9-2.6c2.7,5.6,3.5,5.9,9.4,3.7l-7,6.6
	c0.8,0.9,1.7,1.7,2.7,2.5c7.4,5.6,15.6,10.3,22.1,16.8c10.2,10.1,23.8,15.9,32.8,27.3c0.6,0.5,1.3,0.8,2,0.8
	c5.6,1.3,9.7,4.3,11.9,9.9c0.7,1.4,1.9,2.5,3.3,3.3c10.1,6.6,21.3,11.5,29,21.4c1,1.3,2.8,1.9,4.2,2.9c4.6,3,11,5.1,13.5,9.4
	c3.8,6.5,10,9.1,15,13.6c2.7,2.5,6.6,3.7,9,6.3c6.1,6.5,19,8.5,23.1,17.3c0.2,0.3,1,0.3,1.6,0.4c0,33.7-0.1,67.4,0.2,101.1
	c0,5.5-4.8,8.2-9.7,10.1c-16.3,6.2-32.4,12.8-48.7,19.1C1848.8,794,1836.8,798.3,1824.9,802.7z"/>
<path class="st4" d="M1534.8,0h379.8c7.2,0,4.2,83,4.2,90.3c0,66.4,0,132.9,0,199.3c0,8.9,0.7,17.8,1,26.7
	c-3.2-2.5-10.3-5.1-13.5-7.5c-5.8-4.3-11.8-8.2-17.4-12.7c-4.2-3.4-7.3-8.4-11.9-11c-7.1-4.1-10.9-9.1-9.5-17.4
	c3.6-11.3,7.1-22.7,10.7-34c0.2-1.2,0.3-2.5,0.5-3.7l13.7-37.7l-1.7-1.6l-37.2,12.8l-2.2,1l-3.2,1.4l-4.5,2l-3.2,1.3l-2.2,1.1
	l-2.2,1.1c-2.9-2.6-2.8,0.2-3.4,1.9l-3.2,1.4l-2.2,1l0,0c-2.9,0.8-5.8,1.5-8.7,2.5c-6.9,2.6-13.6,9-20.6,0.3
	c-0.2-0.3-0.7-0.3-0.9-0.5c-8.3-6.4-16.6-12.7-24.9-19.1c-7.5-5.8-14.6-12.1-22.4-17.5c-7.4-5.2-13.6-11.2-18-19.2
	c-1.7-3.1-4.4-5.6-6.9-8.1c-7.7-7.8-16.7-13.3-27.6-15.2c-0.9-0.3-1.7-0.7-2.3-1.3c-9.4-6.8-18.9-13.6-28.2-20.5
	s-18.5-13.6-27.3-20.9C1635.1,92.4,1538.6,4.4,1534.8,0z"/>
<path class="st5" d="M1918.8,659.2c-0.5-0.1-4.4-0.1-4.6-0.4c-4.1-8.8-14-10.8-20.1-17.3c-2.5-2.6-6.4-3.8-9-6.3
	c-4.9-4.5-11.2-7.2-15-13.6c-2.5-4.3-8.9-6.3-13.5-9.4c-1.4-0.9-3.2-1.6-4.2-2.9c-7.7-9.9-19-14.8-29-21.4c-1.4-0.8-2.5-1.9-3.3-3.3
	c-2.2-5.5-6.2-8.6-11.9-9.9c-0.7-0.1-1.4-0.3-2-0.8c-9-11.4-22.6-17.2-32.8-27.3c-6.5-6.5-14.7-11.2-22.1-16.8
	c-0.9-0.8-1.8-1.6-2.7-2.5c2.6-2.4,4.8-4.5,7-6.6c1.2-8.4,7-13.1,13.8-17c1-0.6,1.5-2,2.4-2.9c1.2-1,2.4-2,3.6-2.8l3.4-0.7l1.2-1.3
	c2.2-0.7,4.3-1.8,6.6-2.1c7.9-1.2,8.9-2.1,10.2-11l-18,6c-3.7-2.8-7.9-6.3-11.1-0.3c-2.7,5.2-7,7-11.8,8.5c-4.6-1.9-9.1-4-13.7-5.7
	c-5.7-2.1-9.1-5.9-9.3-12.1c-0.4-16.9-0.8-33.9-1.1-50.8c-0.2-9.6,0-19.3,0-28.9c2-2.2,4-4.3,6-6.5c3.7-1.5,3.7-3.9,1.5-6.7
	c1.3-1.9,2.2-4,3.8-5.5c2.7-2.7,5.8-5,8.7-7.4c7-1.4,13.5-3.2,15.5-11.6c0.4-1.5,3.2-2.7,5-3.6c1.5-0.6,3-1,4.6-1.3l8.7-5
	c-1.2,1.7-2,3.7-3.5,5c-2.2,1.9-4.9,3.1-7.3,4.8c-4.4,3-4.5,5.2-0.4,8.8c4.5,4.1,9.2,8.1,13.6,12.3c1.8,1.8,2.8,4.4,4.7,6.1
	c1.4,1.4,3.5,2.8,5.3,2.9c3.3,0.1,5.1,1.2,5.9,4.3c0.1,0.4,0.8,0.7,1.3,1.1l3.8-1.8l8.4,10.3c2.5,0.5,4.7,1.7,6.5,3.5
	c2,2,3.4,5.8,5.6,6.3c7.5,1.7,11.1,5.8,10.9,14.1l4.6-3.7c1,0.8,1.8,1.5,2.6,2.1c4.8,3.4,9.7,6.7,14.5,10.1c1,1,1.8,2.1,2.4,3.4
	c2.3,4,4.7,7,9.7,8.9c5.7,2.1,10.6,6.9,15.5,10.8c4.4,3.5,7.9,8.7,12.8,11c3.7,1.8,5.1,3,4,7c5,0.3,6.4,2.9,6.5,7.3
	c0.1,2.5,5,4.9,6.1,7.3L1918.8,659.2z M1750.4,437l-3.9-3.6c-4.1,3.4-11,4.8-10,12.3c0.7,5.5,6.6,9.3,12.3,8.7
	c5.3-0.6,7.4-3.9,7.4-8.9c0.2-2.3,1-4.6,0.5-6.8C1755.8,434.9,1753.7,433.2,1750.4,437z M1788,434.2v-4.4c-2.7,0.5-4.8,0.8-6.9,1.3
	c-5,1.3-5.3,2.3-2.1,6.4c1,1.4,1.8,3,2.2,4.7c0.7,3,2,6.6,5.4,5.1c3.1-1.4,5.1-5.1,7.5-7.8L1788,434.2z"/>
<path class="st5" d="M1145.4,0h234.4c2.3,1.8,34.6,86.5,36.9,88.3c5.9,4.8,11.6,10,17.9,14.3c3.7,2.4,7,5.3,9.8,8.7
	c3.1,3.7,7.5,7.2,12,8.7c7.4,2.4,12.8,7.3,17.2,12.7c3.2,4.2,8.1,6.8,13.4,7.2c11.5,1.1,23.1,1.5,34.7,2.4c1.5,0.1,2.8,1.4,4.3,2.1
	c-33.6,0-67.2-0.5-100.7,0.2c-19.8,0.4-30.2,7.9-34.5,26.9c-2.2,9.6-1.2,19.9-1.7,29.9v7.7c-3.5,1.8-3.5,3.6,0,5.5v3.3
	c-0.7,0.5-1.8,0.9-2,1.5c-1.3,5.3-2.3,10.6-3.6,15.9c-0.6,2.3-1.5,4.5-2.7,7.6c-4.8-4.5-8.5-8.4-12.6-11.6
	c-4.7-3.6-10-6.5-14.7-10.1c-5.3-4.1-10.2-8.9-15.5-13.1c-2.2-1.8-5.2-2.6-7.4-4.3c-12.4-9.6-24.6-19.3-36.8-29.1
	c-7.4-6-14.5-12.4-21.9-18.4c-12.8-10.3-27-18.4-38.8-30c-5.6-5.5-12.3-9.9-18.9-14.3c-12.8-8.5-23.3-20.1-37.6-26.4
	C1175.8,85.1,1145.7,0.8,1145.4,0z"/>
<path class="st3" d="M1153.4,0c0.3,0.8,22.5,85.1,23.1,85.4c14.3,6.3,24.9,17.9,37.6,26.4c6.6,4.4,13.3,8.8,18.9,14.3
	c11.8,11.6,26.1,19.8,38.8,30c7.4,6,14.5,12.4,21.9,18.4c12.2,9.8,24.4,19.6,36.8,29.1c2.2,1.8,5.2,2.6,7.4,4.3
	c5.3,4.2,10.1,9,15.5,13.1c4.7,3.6,10,6.5,14.7,10.1c4.2,3.3,7.8,7.1,12.6,11.6c1.1-3.2,2.1-5.4,2.7-7.6c1.3-5.3,2.3-10.6,3.6-15.9
	c0.2-0.6,1.3-1,2-1.5l2.2,2.2c-0.1,6.2,0.1,12.4-0.2,18.6c-0.5,10.7-1.6,21.3-1.9,32c-0.3,12.5,0.3,25-0.2,37.5
	c-0.8,23.2-2.2,46.3-3.2,69.5c-0.2,3.7,0.5,7.6-6.5,6.1c2.8,3.2,7.1,5.7,1,8c-0.5,0.2-0.4,2.5-0.2,3.7c0.3,1.4,0.7,2.7,1.2,4
	c-3.9,0-7.8-0.1-11.7,0.1c-2.8,0.2-5,1.3-4,4.9c0.1,1.1,0.1,2.3-0.1,3.4l-1.8,0.5c-0.7-2-1.4-4-2.2-6c-0.4-1.1-0.9-2.2-1.5-3.3
	c-0.1-0.2-1.7,0.1-1.8,0.4c-0.4,1.1-0.5,2.3-0.3,3.4c1.1,3.9,0.9,7.4-2.7,11.9c0.2-6.6-1.7-8-7-6.8c-3.4,0.8-7.4-1-11.1-1.5
	c-1.1-0.1-2.1,0.1-3.1,0.6c-5.5,2.9-7.9,2.5-11.6-2.2c-2-2.5-3.3-2.9-4.9,0.5c-1.2,2.4-3.5,4.2-5.3,6.3c3.5-14.8,8.6-29.4,10.2-44.4
	c1.9-17.2,1.3-34.8,0.8-52.2c-0.5-16-4.8-31.5-10.3-46.6c-9.4-26-23.8-49.3-40.4-71.3S1066.3,0.3,1066.4,0H1153.4z M1343.4,398.2
	c-1.3,2.3-2.1,3.1-2.2,3.9c0,0.5,1.5,1.5,1.8,1.4c0.8-0.4,1.4-1.2,1.7-2.1C1344.8,400.7,1344.1,399.8,1343.4,398.2L1343.4,398.2z"/>
<path class="st6" d="M1525.9,144.3c-1.4-0.7-2.8-2-4.3-2.1c-11.6-0.9-23.2-1.3-34.7-2.4c-5.3-0.4-10.1-3-13.4-7.2
	c-4.4-5.5-9.9-10.3-17.2-12.7c-4.5-1.5-8.8-5-12-8.7c-2.9-3.3-6.2-6.3-9.8-8.7c-6.3-4.2-12-9.5-17.9-14.3
	c-2.3-1.8-41.6-86.5-43.9-88.3h218c3.9,4.4,44.3,92.4,48.7,96.1c8.8,7.3,18.1,14.1,27.3,20.9s18.8,13.7,28.2,20.5
	c0.7,0.6,1.5,1,2.3,1.3c10.9,2,20,7.4,27.6,15.2c2.5,2.6,5.3,5.1,6.9,8.1c4.3,8.1,10.5,14,18,19.2c7.8,5.4,14.9,11.7,22.4,17.5
	c8.3,6.4,16.6,12.7,24.9,19.1c0.3,0.2,0.7,0.3,0.9,0.5c7,8.7,13.7,2.3,20.6-0.3c2.8-1.1,5.8-1.7,8.7-2.5c-6.1,3.6-12.3,7-18.2,10.8
	c-17.1,11-34.2,22.1-51.8,33.5c-6.6-8.8-15.9-14.6-26.6-18.3c-0.4-20.4-0.5-40.8-1.2-61.1c-0.8-22.5-14.6-34.6-36.3-35.1
	c-18.3-0.5-36.7,0-55.1-0.1c-9-0.1-18-1-27-1C1582.8,144.3,1554.3,144.3,1525.9,144.3z"/>
<path class="st6" d="M1918.8,493.8c-1.1-2.4-6-4.8-6.1-7.3c-0.2-4.4-1.5-7-6.5-7.3c1.1-3.9-0.3-5.2-4-7c-4.9-2.4-8.4-7.5-12.8-11
	c-4.9-4-9.8-8.7-15.5-10.8c-5-1.9-7.4-4.9-9.7-8.9c-0.6-1.3-1.4-2.4-2.4-3.4c-4.8-3.5-9.7-6.8-14.5-10.1c-0.9-0.6-1.7-1.3-2.6-2.1
	l-4.6,3.7c0.2-8.2-3.4-12.3-10.9-14.1c-2.2-0.5-3.6-4.3-5.6-6.3c-1.7-1.8-4-3-6.5-3.5l-8.4-10.3l-3.8,1.9c-0.6-0.4-1.2-0.7-1.3-1.1
	c-0.8-3.1-2.6-4.3-5.9-4.3c-1.8,0-3.9-1.5-5.3-2.9c-1.8-1.8-2.8-4.3-4.7-6.1c-4.4-4.3-9-8.3-13.6-12.3c-4.1-3.6-4-5.8,0.4-8.8
	c2.4-1.6,5.1-2.9,7.3-4.8c1.5-1.3,2.4-3.3,3.5-5c1.9-1.3,5.5-1.2,3.9-5.2c-0.1-0.3,1.6-1.6,2.6-1.8c2.4-0.6,4.9-0.9,7.4-1.3
	l-0.4-1.7l-3.5,0.9l-0.2-0.2c2-4.4,4.3-8,10.3-6.1c0.8,0.3,3.7-2.4,3.5-3.3c-1.1-5.5,2.5-5.6,6.2-6.5c2.5-0.7,4.8-2,6.7-3.8
	c1.8-1.7,2.7-4.3,4-6.5c1.6-1.5,3-3.1,4.7-4.5c8.7-7.3,17.5-14.6,26.2-21.8c3.3-1.3,5.6-3.2,5.2-8.7l-7.5,6.3
	c-4.2,1.6-7.9,7-14.5,0.9l7.9-6.2l19.7-14.6c-1.3,8.3,2.4,13.3,9.5,17.4c4.6,2.6,7.7,7.6,11.9,11c5.6,4.5,11.6,8.4,17.4,12.7
	c3.2,2.4,9.3,5,12.5,7.5L1918.8,493.8z"/>
<path class="st7" d="M1312.3,411.6c1.8-2.1,4.2-3.9,5.3-6.3c1.7-3.4,2.9-3.1,4.9-0.5c3.6,4.7,6,5.1,11.6,2.2c0.9-0.5,2-0.7,3.1-0.6
	c3.7,0.5,7.7,2.3,11.1,1.5c5.3-1.2,7.2,0.2,7,6.8c3.6-4.5,3.8-8,2.7-11.9c-0.2-1.1-0.1-2.3,0.3-3.4c0.1-0.3,1.7-0.6,1.8-0.4
	c0.6,1,1.1,2.1,1.5,3.3c0.8,2,1.4,4,2.2,6l1.8-0.5c0.2-1.1,0.3-2.2,0.1-3.4c-1-3.6,1.2-4.7,4-4.9c3.9-0.3,7.8-0.1,11.7-0.1l0.3,0.4
	c-0.7,1.8-1.4,3.6-2.4,5.9l7.6,7l-1.8,10.5c-1.7,2.1,2.5,7-2.8,7.4c-0.6-2.8-1.2-5-1.7-7.2l-5.7,1.8l-4.1-3c0.2-2.6,0.4-4.4,0.3-6.3
	c-0.8-0.2-1.6-0.3-2.4-0.3c-0.1,1.3-0.2,2.7-0.4,4.8c-1.4,0.8-3.7,1.9-5.7,3.4c-0.8,0.6-1.2,1.6-1.3,2.6c0,0.5,1.5,1.5,2,1.3
	c6.7-2.5,8.3,1.3,8.4,6.8l1.2,2.2l2.7-4.9l3.7,7.4c-3.8-1-7.9-2.9-10.2,2.4l-2.2-2.4c1-9.2-6.7-4.6-10.4-6.1
	c1.6,1.8,3.7,2.5,5.6,3.5c1,0.7,1.9,1.4,2.7,2.3c-0.7,3-1.3,6-2,9l-2.9-1c-0.5-0.8-0.9-1.6-1.1-2.5c0-1.6,0.1-3.1,0.3-4.7
	c-1.3,0.3-3.3,0.3-3.6,1.1c-0.7,1.6-1.3,4-0.6,5.3c1.1,2.3,3.3,4,5.1,6l4-1.1c0.3,0,0.6,0.2,0.8,0.4l2.4,12.1l-0.2,1.8l-4.6,0.2
	c-0.7-0.8-1.4-2.3-2.2-2.3c-2.6-0.1-5.3,0-7.9,0.2l-2-0.1l-7.4,0.4l5,6.3l2.7-3.6h1.2c0.7,1.4,1.3,2.9,1.7,4.5
	c0.2,2.1,0.2,4.1,0.1,6.2c5.6-4.4,5.6-4.4,9-1.2c-0.5,1.6-1.1,3.3-1.2,3.7l2.5,6.8c-0.1,1.4-0.5,4-0.3,4.1c3.2,0.9,6.5,1.2,9.7,2
	c2,0.7,4,1.5,5.9,2.5c-0.8,1.9-1.8,3.8-2.9,5.5c-0.8,1.1-2.4,1.7-4.4,3c8.8,2.2,8.9,2.3,5.3,7.1l4,1.2c0.3,9.2,2.7,9.1,10.3,9.1
	c1.1,3,2,5.8,3,8.5l2,1.6c0,13.6,0.1,27.2,0.1,40.8l-3.4,3.9l-8,1.8l-8.3-4.5l-2-1.2c-3.4-5.3-5-5.7-9-2.4c-1.5,0.3-3.4,1.2-4.5,0.7
	c-2.5-1.5-4.9-3.3-7.1-5.2l-10.1,2.3l-3.5-7.3l-0.8-2.3c-3.8-2.6-7.5-5.2-11.3-7.6c-0.5-0.3-1.8,0.7-2.8,1.1l-2-0.3
	c-1.2-2.6-2.3-5.1-3.5-7.7c0.7-5.6,3.8-11.4-1.2-16.6c5.2-2.2,5.3-2.6,1.8-7.3c3.6-0.5,7.6-0.2,9.2-3.7l-8.6-3.4
	c-0.3,2.3-0.7,4.7-1,7l-4.8,0.2l-17.3-2.9c0-0.9-0.1-1.7-0.3-2.6c-1-4.4-3.5-7.6-8.1-8.6s-6.2,2.5-8.5,5.4c-1.4,1.9-3.7,3.1-5.7,4.6
	l14.2,7.2l-20.6,7.8l4.6,2.2c1.4,1.9,2.1,4.3,5.6,3.5c1.2-0.3,3,1.8,4.5,2.8l-1.4,1.9l-8.7,4.5l-4.6-2.3c-0.4,3.6-0.7,6.4-1,9.2h-1
	c-1.7-0.3-3.4-0.5-5.2-0.7c-4.1-0.1-8.2-0.1-12.4-0.1c11-22.4,21.9-44.8,32.9-67.1c2.1,2.6,0.8,8.1,6.5,7.7c0.1,0.7,0,1.6,0.3,2.1
	c4,4.8,12.4,4.7,17.9-0.1c4.3-3.8,5.1-12,1.5-16.6c-0.4-1.1-1-2.1-1.6-3.1c-5-5.5-11.8-4-18.1-4.2c4.3-10.5,8.8-21,13-31.6
	C1305.8,429.3,1309,420.4,1312.3,411.6z M1344.1,450.3c1.5-10.9-5.3-13.5-16.2-11.6c2.6,3.8,5.1,7.5,7.1,10.4L1344.1,450.3z
	 M1332.3,472.3l-2.8,0.5l2.2,9.8l2.2-0.5L1332.3,472.3z M1363.6,455.4l-2.6-0.5c-0.4,1.7-0.8,3.4-1.3,5.1c1,0.1,2.7,0.5,2.7,0.3
	C1362.9,458.6,1363.3,457,1363.6,455.4L1363.6,455.4z M1364.2,414.4l1.3,0.3l1.1-2.7l-2.2-0.8L1364.2,414.4z"/>
<path class="st8" d="M1289.3,491.6c-5.7,0.5-4.4-5-6.5-7.7l6.6-14.2c6.3,0.1,13.1-1.4,18.1,4.2c0.7,1,1.2,2,1.6,3.1L1289.3,491.6z"
	/>
<path class="st9" d="M1249.9,551.1c4.1,0,8.2,0,12.4,0.1c1.7,0.1,3.4,0.3,5.2,0.7c-0.9,1-1.8,3-2.6,3
	C1258.7,554.4,1248.8,551.7,1249.9,551.1z"/>
<path class="st10" d="M1344.2,567l10.1-2.3c2.2,1.9,4.6,3.6,7.1,5.2c1,0.6,2.9-0.4,4.5-0.7c1.8,3.3,4,6.5,5.4,10
	c5.1,12.7,9.9,25.5,14.6,37.7l9.8-15.7l0.1,4.2c-9.5,11.5-10.9,24.8-8.1,39.4l8.1,1.4l0.7,17.5l-0.5,33c-2.6,1.2-3.4,2.6-0.4,4.3
	v5.4c-3.1,0-4.5-1.2-4.3-4.6c0.1-1.8-0.7-3.7-1.1-5.3l-7.6,2l-0.9-1.1l-0.3-3c0.4-0.7,0.8-1.3,1.2-2c1.3,0.5,2.6,0.9,4,1.2
	c1.1,0.3,2.2,0.4,3.3,0.1c0.6-0.8,0.8-1.8,0.4-2.7c-0.8-1.1-2-1.7-3.3-1.9c-1.5,0-3.1,0.9-4.6,1.5c-1.5-0.3-2.3-4.6-4.5-0.8
	l-3.1,0.7c-2.5-1.2-3.7-3-2-5.7c0.9,0,1.8,0,2.7,0.1c1.7,0.2,3.4,0.5,5.1,0.8c-0.1-1.3,0-3.6-0.2-3.6c-1.8-0.1-3.7,0-5.5,0.1
	c-0.4,0-0.7,0-1.1,0c5.8-9.5,10.1-19.6,11.6-30.8c0.5-3.3,1-6-3.4-7s-4.3,2.4-4.9,4.8c-2,8.3-3.8,16.5-5.6,24.8l-1.4-1.2
	c1.6-8.3,2.8-16.8,4.9-25c1.1-4,0.7-6.2-3.3-7.5c-1.5-0.5-3-1.1-4.6-1.7c-0.7-1-1.6-2-2.5-2.8C1341.6,616.8,1336,593.3,1344.2,567z"
	/>
<path class="st11" d="M1367.1,638.4c1.5,0.6,3,1.2,4.6,1.7c3.9,1.3,4.3,3.5,3.3,7.5c-2.1,8.2-3.3,16.6-4.9,25
	c-0.5,0-1.2-0.3-1.6-0.1c-6,2.3-5.8,2.3-6.1-4c-0.3-1.5-1.3-2.8-2.7-3.4c-0.8-0.3-2.4,1-3.8,1.7c4.8,5.8,4.6,6.4-0.7,7.7l-1.9-1.2
	v-13.5c-1.4,0.2-2.7,1-3.4,2.2c-1,1.3-1.9,2.5-2.8,3.8c-0.8-1.5-2.2-2.9-2.2-4.3c0.2-4-1.3-5.3-5-3.9c-1.1,0.4-2.2,0.7-3.3,0.7
	c-4.4,0-8.9-0.2-13.3-0.4c-1.2,0-2.8,0.1-3.6-0.6c-0.6-0.5-0.4-2.1-0.6-3.2c-0.2-1.4,0.1-3.9-0.4-4c-1.5-0.5-3.3,0-5,0.1
	c0.3,3.5,6.6,6.2-0.2,8.2l-3.1-1.6c0.1-2.8,4.2-7.1-2.2-7.5c-4.4-0.3-8.8,0.8-13.2,1.2l-2.1-1.3c0.1-0.7,0.1-1.4,0.1-2.1
	c0-1.8,0-3.5,0-5.3l-5.6,0.8l-4.5-13.1l-0.2-3.1c3.3-13.1,6.6-26.3,10.1-39.4c1.1-4,2.8-7.8,4.2-11.7l15.2-11.7l2.6,0.3
	c-1.6,5.2-3.3,10.4-4.7,15.7c-4.9,19-3.2,37,8.1,53.5c10.4,15.2,26.1,20.2,41.2,12.8C1362.3,644.4,1364.5,641,1367.1,638.4z"/>
<path class="st12" d="M1561,814.8h-2.3l-1-1.1l-0.3-0.3l3.2-8.3l14.5-0.2h2.3h49.2c23,0,45.9,0.1,68.9,0c11.7-0.1,22.4-9.3,22.2-22
	c-0.4-25.9-0.1-51.8-0.1-77.6c0-49.2,0-98.5,0-147.7c0-2.4,0.2-4.7,0.3-7.1l4.1-0.9l3.7,3.1c-2.6,10.4-2.3,20.5,1.8,30.4
	c-1,1.5-3.2,3.2-3.2,5c-0.6,23.5-0.9,47-1.1,70.5c-0.2,15-0.1,29.9-0.1,44.9c0,1.6,0.2,3.2,0.5,4.8c0.5,2.6,1.5,5.2,1.5,7.8
	c-0.2,15.8-0.7,31.6-1,47.3c-0.1,7.7,0.3,15.4-0.1,23c-0.6,10.8-10.6,22-21,23.7c-4.8,0.8-9.7,1.2-14.6,1.2
	c-28.6,0.1-57.3,0.1-85.9,0.1c0.2-3.6-2.1-3.8-4.6-3c-4.4,1.3-8.8,2.8-13.1,4.3c-5.3-4.5-11.5-1.4-17.3-2.4
	C1563.9,809.7,1561.7,811.1,1561,814.8z"/>
<path class="st7" d="M1602.6,811.5c28.6,0,57.3,0,85.9-0.1c4.9,0,9.8-0.4,14.6-1.2c10.4-1.7,20.4-12.9,21-23.7
	c0.4-7.7,0-15.4,0.1-23c0.3-15.8,0.8-31.6,1-47.3c0-2.6-1-5.2-1.5-7.8c-0.3-1.6-0.5-3.2-0.5-4.8c0-15-0.1-29.9,0.1-44.9
	c0.3-23.5,0.6-47,1.1-70.5c0-1.8,2.2-3.6,3.2-5c-4.1-9.9-4.4-20.1-1.8-30.4c2.5,0.3,5.7-0.5,6.2,3.5c-0.5,2.5-0.9,4.9-1.1,7.5
	c-0.1,30.8-0.1,61.6,0,92.4c0,42,0,83.9,0,125.9c0,21.5-15.3,34.8-35.1,35c-32.5,0.4-65,0.1-97.4,0.1L1602.6,811.5z"/>
<path class="st10" d="M1320.9,519c3.4,4.7,3.3,5.2-1.8,7.3c5,5.2,1.9,11,1.2,16.6c-1.5,1.5-3,3.1-4.3,4.8
	c-3.9,5.7-7.6,11.5-11.3,17.3v0.4c-3.6-2.8-6.2-0.9-8.7,1.8l-7.7,4.4l-2.2,1.1c-0.7,0.7-1.4,1.5-2.2,2.2l-1.2,0.8l1.2-0.9l2.2-2.2
	l2.2-1.1l7.7-4.4l8.2-1.3c-6.3,7.5-14.9,10.9-24,13.5l-0.3-1.7l-1.4,2.6l0.1-0.1l-1.2,1.1v-0.1l-1.2,0.1h-6.5
	c-0.3-2.3-0.6-4.6-0.8-6.5l4.5-0.2l-0.5-5l0.1-1.5l4.4-2.2l7.7-6.6l1.5-0.5c-0.1-0.2-0.3-0.4-0.3-0.4c-0.4,0.3-0.8,0.5-1.2,0.8
	l-7.7,6.6l-4.3,2.2l-1.1-0.1V566c-0.6-1.5-1.3-3-1.9-4.5c-0.3-1.1-0.6-2.1-0.9-3.2l-0.5-6.5c0.3-2.8,0.6-5.6,0.9-9.2l4.6,2.3
	l8.7-4.5l15.3,2.5l0.3,0.2l-0.2,2l-1.1,2.1l-6.5,6.6c-0.3,0.4-0.6,0.8-0.8,1.3c0.1,0.1,0.3,0.2,0.4,0.3l0.5-1.5l6.6-6.6
	c0.4-0.7,0.7-1.5,1.1-2.2l6.6-8.7l8.1-0.4c-0.9-4.9,4.9-9.2,0.7-14.1l2.2-3.2l4.8-0.2L1320.9,519z M1317,525l0.3,0.2v-0.3L1317,525z
	"/>
<path class="st12" d="M1534.7,811.5h-2.2c-2.1-0.7-4.3-2.2-6.4-2.1c-7.2,0.4-14.3,1.9-21.5,2c-25.3,0.3-50.6,0-75.8,0.1
	c-9.5,0-18.3-1.9-25.9-7.9c0.2-1,0.4-2.1,0.6-3.2c9.8,5.1,20.3,4.5,30.8,4.5c35.7-0.1,71.4,0,107.1,0c0.4,0.9,0.7,1.8,1.1,2.8
	L1534.7,811.5z"/>
<path class="st7" d="M1402.8,803.5c7.6,6,16.4,8,25.9,8c25.3-0.1,50.6,0.1,75.8-0.1c7.2-0.1,14.3-1.6,21.5-2
	c2.1-0.1,4.3,1.3,6.4,2.1c-4.8,7.1-12.1,5.4-18.9,5.5c-29.3,0-58.7-0.1-88,0.1c-8.7,0-16.3-2.7-23.6-7.2c-2.1-1.3-4.4-2.4-6.7-3.6
	l-0.9-7c0-0.6,0.1-1.3,0.1-1.9l2.3-0.5c7,1,0,5.4,1.9,7.7L1402.8,803.5z"/>
<path class="st11" d="M1335.1,715.3l-14-5.1l0.1-1.7l6.3-1.8c0.1-2.1,0.1-4.1,0-6.2c-0.4-3.7,0.9-6.5,3.7-9.1c1.4-1.3,2-3.4,2.8-4.9
	h18.9l6.4,5.8l2.4,4c-6.4,4.2-13,8.2-19.3,12.6C1339.7,710.7,1337.5,713.1,1335.1,715.3z"/>
<path class="st12" d="M1382.5,698.4l7.6-2c0.3,1.5,1.2,3.4,1.1,5.3c-0.3,3.4,1.2,4.6,4.3,4.6c-0.2,1.8-0.8,3.7-0.7,5.5
	c0.4,4,1.7,8.1,1.7,12.1c-0.1,18.4-0.5,36.8-0.8,55.2l-4.3,0.9c-1.7-3.2-4.4-6.3,0.6-10c-11.3-2.6,0-6-0.5-8.5l-5.5-2.3
	c1.2-1.1,3.1-2.1,3.4-3.4c1-3.8,1.4-7.7,1.3-11.7c-0.5-7-1.7-14-2.7-21c-0.3-1.9-1.3-3.6-1.7-5.5
	C1384.8,711.2,1383.7,704.8,1382.5,698.4z"/>
<path class="st9" d="M1282.4,626.5l0.2,3.1c-1.1,4.4-2.1,8.8-3.2,13.2l-2.2-0.1l-2.1-2.2c0-0.7,0-1.4,0-2.1c4.4-2.9,0-3.9-1.3-5.5
	c0.2-0.7,0.6-1.4,0.5-2c-0.4-1.7-1-3.4-1.7-5c-0.9,0.1-1.8,0.4-2.6,0.7c0.5,1.5,1,3.1,1.6,4.5c0.3,0.6,0.7,1.2,1.2,1.8l-1.2,2
	l-3.2,0.2l-2.2-2.2c0-0.7,0-1.5,0-2.2l-3.1-6.7v-1.9l3-3.4c1.3-8.5,2.6-16.9,3.8-25.4l-1.2-0.2l-3.6,17.6l-4-2.1
	c1.2-1.8,2-3.2,2.6-4.1l-3-5.6c-0.4-1.8-0.7-3.6-1.1-5.5c0-1.1,0-2.2,0-3.3l1.3-2.4l8.6-3c0.7,1.5,1.4,3,2.1,4.5
	C1275.3,601.7,1278.9,614.1,1282.4,626.5z"/>
<path class="st11" d="M1394.4,797.2c0,0.6-0.1,1.3-0.1,1.9c-8-2.5-10.1,3.3-12.2,9.4c-3.6-6.3-7-7.7-13.8-3.3s-10.8,0-16-2.5
	c7.4-0.3,12.3-4.2,15.9-10c0.3-0.5,0.7-0.9,1.2-1.1c6.1-3,12.2-5.9,18.3-8.9c0.8,3.7,1.8,7.4,3,11c0.5,1.4,2.4,2.3,3.7,3.5
	L1394.4,797.2z"/>
<path class="st8" d="M1313.3,658.5c6.8-2,0.5-4.7,0.2-8.2c1.8-0.1,3.5-0.6,5-0.1c0.5,0.2,0.3,2.6,0.4,4c0.1,1.1-0.1,2.7,0.6,3.2
	c0.8,0.7,2.3,0.5,3.6,0.6c4.4,0.2,8.9,0.3,13.3,0.4c1.1-0.1,2.3-0.3,3.3-0.7c3.8-1.4,5.2-0.1,5,3.9c-0.1,1.4,1.4,2.9,2.2,4.3
	c0.9-1.3,1.8-2.6,2.8-3.8c0.7-1.2,2-2.1,3.4-2.2v13.5l-3.6,0.7l3.8,6.5l-7.1,0.9l2-5.7l-1-0.9c-1.1,1.6-2,3.2-3.2,4.7
	c-0.8,0.9-1.6,1.7-2.5,2.4c-1.5-5.6-2.7-10.3-3.9-15l4.2-3.1l-2.6-3l-3.5,3.8l-2.1,0.3l-3.8-4.1c-0.6,1.7-1.2,3.3-1.8,5l-9-0.4
	l-7.2-0.3L1313.3,658.5z"/>
<path class="st8" d="M1359.2,692.3l-6.4-5.8c3.6,0,6-0.2,3.1-4.8c-1.2-1.9-0.6-4.9-0.9-7.3c5.3-1.2,5.5-1.9,0.7-7.7
	c1.4-0.7,2.9-2.1,3.8-1.7c1.4,0.7,2.4,1.9,2.7,3.4c0.3,6.3,0.1,6.3,6.1,4c0.5-0.2,1.1,0.1,1.6,0.1l1.4,1.2c-0.3,2.1-0.7,4.2-1,6.3
	c-0.2,4-0.5,7.9-0.4,11.9c0,0.8,2.2,1.5,3.3,2.2c0.4-1.3,0.9-2.5,1.3-3.7l3.1-0.7c1.2,1.6,2.3,3.1,3.5,4.7l0.3,3
	c-4.6,0-9.2,0.2-13.8-0.1c-1.3-0.3-2.3-1.3-2.7-2.6c-0.3-4.5-0.1-9-0.1-13.6l-2.2-0.7l-3.1,3.2
	C1363.7,686.8,1359.4,689.4,1359.2,692.3z"/>
<path class="st7" d="M1272.8,569.8l0.5,5l-4.5,0.2c0.3,1.9,0.5,4.2,0.8,6.5c-2.5,0.5-5.1,0.8-7.4,1.8c-1.3,0.6-2.2,2.3-3.2,3.5
	c-3.4,0.9-6.8,1.8-8.5-1.9c0.1-2.3,0.3-4.2,0.3-6s-0.4-3.7-0.7-5.6l6.4,1.6l2.8-2.5l3.8,4.5c0.7-3.1,1.1-4.9,1.5-7
	c-3.3,0.5-5.4,1.4-7.2,0.9c-0.8-0.2-0.7-3.4-0.9-4.8h15.3c0,0.7,0,1.4,0,2.1C1272.1,568.7,1272.4,569.3,1272.8,569.8z M1253.6,578.9
	l-0.1,2.2l4.5,0.7l0.1-3L1253.6,578.9z"/>
<path class="st12" d="M1260.6,679.8c-4.3-8-4.3-8.1-1.3-14.3l-2.8-2l7.7-5c-0.4-1.3-0.8-2.7-1.2-4.5h14.1
	C1273.4,664.2,1269.1,673.2,1260.6,679.8z"/>
<path class="st10" d="M1335.1,715.3c2.4-2.1,4.6-4.5,7.2-6.3c6.3-4.3,12.8-8.4,19.3-12.6c2,7.7-0.8,13.1-8.4,15.8
	c-2.9,1-6.1,1.5-8.7,3.1c-2.3,1.4-3.9,3.8-5.8,5.8L1335.1,715.3z"/>
<path class="st7" d="M1260.8,598.9l3,5.6c-0.6,1-1.4,2.3-2.6,4.1l4,2.1l3.6-17.6l1.2,0.2c-1.3,8.5-2.5,16.9-3.8,25.4l-9.4,0.9
	c-0.5-2.9-1-5.8-1.5-8.7l4.3-2.4l-5.3-2.8c0.2-7.4-6.8-2.9-10.3-6.1C1250.3,600,1255.2,594.5,1260.8,598.9z"/>
<path class="st8" d="M1294.7,650.6c4.4-0.5,8.9-1.5,13.2-1.2c6.4,0.4,2.3,4.7,2.2,7.5c-0.4,2.5-0.9,5.1-1.5,8.7
	c-4.2,0.5-5-3.4-5.6-7.1l-8.3,0.8l-1.3-3.2C1293.9,654.2,1294.3,652.4,1294.7,650.6z"/>
<path class="st11" d="M1304.9,690.3c3.6,0.3,5.9,0.7,8.1,0.7c10.7-0.1,12.6,2.7,8.3,12.6c-2.6-0.3-6.2,0.5-7.7-1
	C1310.3,699.3,1308.1,694.9,1304.9,690.3z"/>
<path class="st7" d="M1561,814.8c0.8-3.6,3-5.1,6.7-4.4c5.7,1,12-2.1,17.3,2.4c0,1.4,0.1,2.8,0.1,4.2c-6.4,0-12.9,0.1-19.3-0.1
	C1564.1,816.8,1562.5,815.5,1561,814.8z"/>
<path class="st8" d="M1585,816.9c0-1.4-0.1-2.8-0.1-4.2c4.4-1.4,8.7-3,13.1-4.3c2.4-0.7,4.8-0.6,4.6,3l-4.3,5.5
	c-1.5,0.9-3,1.9-4.5,2.8C1589.7,822.3,1586.7,821.6,1585,816.9z"/>
<path class="st11" d="M1542.5,807.7l-1.1-2.8l19.2,0.1l-3.2,8.3l-3.1,1.3l-7.5-3.5L1542.5,807.7z"/>
<path class="st11" d="M1293.5,656l1.3,3.2c0.6,0.7,1.2,2,1.9,2c3.6,0.4,6.1,1,3,5.2c-0.4,1-0.3,2,0.3,2.9c2.5,3.1,0.9,4.5-2.3,5.5
	c-2.3-5.6-4.8-11.1-7-16.8C1289.9,655.8,1290.8,654.5,1293.5,656z"/>
<path class="st13" d="M1391.3,779.9l4.3-0.9l3.3,14.8l-2.2,2.9l-2.3,0.5l-0.1-0.2l-4.5-15.7L1391.3,779.9z"/>
<path class="st7" d="M1542.5,807.7l4.4,3.4c-0.9,1.1-2,2-3.1,2.9c-1.8,1.1-4.1,2.9-5.6,2.5s-2.4-3.3-3.6-5L1542.5,807.7z"/>
<path class="st8" d="M1313.4,682.2l-13.5-0.8l-0.3-1.3l6.2-1.7c-0.2-1.2-0.8-2.8-0.4-4s1.8-1.8,2.8-2.7c0.3,1.1,0.7,2.1,1.2,3.1
	C1310.6,676.9,1311.7,679,1313.4,682.2z"/>
<path class="st7" d="M1263.2,622.1v1.9c-0.5,2.5-0.9,5.1-1.1,7.7c0,3.5,0.5,6.9,0,10.5c-2.1-6.2-5-12.2-3.6-19.1l0.1-0.1
	L1263.2,622.1z"/>
<path class="st7" d="M1259.7,590.2c0,1.1,0,2.2,0,3.3c-6,2.7-13.2,2.1-16.2-2L1259.7,590.2z"/>
<path class="st13" d="M1399,816.5c0.8,6.1,1.5,12.2,2.3,19.1c-3.6-2.7-5.2-12.5-4-18.9L1399,816.5z"/>
<path class="st14" d="M1258.8,586.8c1.1-1.2,1.9-3,3.2-3.5c2.3-1,5-1.2,7.4-1.8h6.5c0,0.4,0.1,0.8,0.1,1.1l0.1-0.1l-1.2,1.1h0.1
	l-5.4,1.2l-8.6,3L1258.8,586.8z"/>
<path class="st8" d="M1287.1,642.7l5.6-0.8c0,1.8,0,3.5,0,5.3c0,0.7-0.1,1.4-0.1,2.1C1286.9,650.3,1287,646.5,1287.1,642.7z"/>
<path class="st10" d="M1389.9,781.4l4.5,15.7c-1.3-1.2-3.2-2.1-3.7-3.5c-1.2-3.6-2.2-7.3-3-11L1389.9,781.4z"/>
<path class="st7" d="M1251.7,627.3c-3.8-10-3.5-11.5,1.2-11.3c0.4,2.8,0.8,5.5,1.4,9L1251.7,627.3z"/>
<path class="st7" d="M1275.2,638.4c0,0.7,0,1.4,0,2.1l-5.2,2.7c-4-1.5-2.2-5-1.5-8.2l3.2-0.2L1275.2,638.4z"/>
<path class="st7" d="M1268.9,558.4c0.3,1.1,0.6,2.1,0.9,3.2c-0.9,0.6-1.8,1.7-2.7,1.7c-1.4-0.1-2.8-0.6-3.9-1.5
	c-0.7-0.6-0.5-2.1-0.8-3.1c1.3-0.3,2.5-0.5,3.8-0.7C1267.2,558,1268.1,558.1,1268.9,558.4z"/>
<path class="st11" d="M1335.6,664.5l3.5-3.8l2.6,3l-4.2,3.1L1335.6,664.5z"/>
<path class="st11" d="M1327.9,665.6c0.6-1.7,1.2-3.3,1.8-5l3.8,4.1l-0.7,1.7l-2.9,0.3L1327.9,665.6z"/>
<path class="st7" d="M1248.8,632.9l5.6-5.3l1.1,6.5L1248.8,632.9z"/>
<path class="st9" d="M1254.3,605.7l5.3,2.8l-4.3,2.4C1255,609.1,1254.7,607.4,1254.3,605.7z"/>
<path class="st7" d="M1263.5,651.1c-1.1-1.4-2.6-2.4-2.4-3.1c0.2-1.1,1.6-2,2.4-2.9c0.9,1,2.2,1.8,2.4,2.9
	C1266.1,648.7,1264.7,649.7,1263.5,651.1z"/>
<path class="st7" d="M1248.9,604.6l3.2,5l-0.6,1.2c-1.2-0.4-3.1-0.4-3.5-1.2c-0.7-1.3-0.4-3.1-0.6-4.7L1248.9,604.6z"/>
<path class="st8" d="M1329.9,666.7l2.9-0.3l2.2,5l-3.8,2.3C1330.7,671.3,1330.3,669,1329.9,666.7z"/>
<path class="st7" d="M1277.3,642.7l2.2,0.1v6l-2.2,0.1V642.7z"/>
<path class="st7" d="M1269.7,650.1c-0.3-1.1-0.5-2.2-0.7-3.3c0.4-0.2,0.8-0.4,1.3-0.5c0.6,1,1,2.1,1.5,3.2L1269.7,650.1z"/>
<path class="st7" d="M1244.7,609c-1,0.7-1.6,1.3-2.1,1.3s-0.8-0.9-1.1-1.5c0-0.1,0.7-0.8,1.1-0.8
	C1243.4,608.2,1244.1,608.5,1244.7,609z"/>
<path class="st12" d="M1554.3,814.7l3.1-1.3l0.3,0.3c0,0.4,0,0.7,0,1.1L1554.3,814.7z"/>
<path class="st7" d="M1266.3,630.7c0,0.7,0,1.5,0,2.2l-1.7-1.3L1266.3,630.7z"/>
<path class="st12" d="M1385.3,750.4l-0.8,0.4l-0.4-1.1c0.3-0.1,0.7-0.3,0.8-0.2S1385.2,750.1,1385.3,750.4z"/>
<path class="st7" d="M1258.6,623.1l-1.4-1.1l0.4-0.4L1258.6,623.1L1258.6,623.1z"/>
<path class="st7" d="M1557.7,814.7c0-0.4,0-0.7,0-1.1l1,1.1H1557.7z"/>
<path class="st15" d="M1755.9,497c4.9-1.5,9.1-3.4,11.8-8.5c3.2-6,7.4-2.5,11.1,0.3c0.4,2.4,0.8,4.8,1.2,7.1l-1.2,1.3l-3.4,0.7
	c-1.3,0.9-2.5,1.8-3.6,2.8c-0.9,0.9-1.4,2.3-2.4,2.9c-6.8,3.9-12.5,8.6-13.8,17c-5.9,2.2-6.8,1.9-9.4-3.7l-9,2.6
	c1.8,9.9,3.5,19.4,5.2,29l-17.3-6.5l1.3-36.5c0.3,0.1,0.7,0.2,1,0.1L1755.9,497z"/>
<path class="st16" d="M1725.2,542l17.3,6.5c-1.8,5-5.3,7.6-10.7,7.5c-0.5-4-3.7-3.1-6.2-3.5c-1.2-1-2.5-2.1-3.7-3.1
	c0.4-2.5,0.7-5,1.1-7.5L1725.2,542z"/>
<path class="st17" d="M1730.7,241.8c10.7,3.7,20,9.4,26.6,18.3c17.6-11.4,34.6-22.5,51.8-33.5c5.9-3.8,12.1-7.2,18.2-10.8l0,0l2.2-1
	l3.2-1.4l3.4-1.9l2.2-1.1l2.2-1.1l3.2-1.3l4.5-2l3.2-1.4l2.2-1l37.2-12.8l1.7,1.6l-13.7,37.7c-1,0.3-2,0.7-2.9,1.2
	c-7.5,6.1-14.9,12.2-22.3,18.3c-0.9,0-1.8,0.3-2.6,0.6c-5.9,4.4-11.8,8.9-17.6,13.3c-6,4.6-12.1,9.2-18.2,13.7
	c-0.6,0.3-1.3,0.4-2,0.3c-5.4,0.1-7.5,2.9-6.8,8.1l0,0c-4.4,2.4-8.7,6-13.4,6.7c-4,0.6-6.4,1.4-7.8,5c-2.1,0.9-4.2,2-6.2,3.2
	c-4.5,2.9-8.8,6-13.2,9l-1.2-3.1c7.7-14.4,0.3-39.7-8.1-44.7c-9.1,6.9-18.4,13.8-27.6,20.9c-2.6,2.1-4.8,4.8-7.2,7.1h-3.2l-0.2-49.2
	h7L1730.7,241.8z"/>
<path class="st17" d="M1867.5,267.8l-19.7,14.6c-3.2-0.4-6.5-1.3-9.6-0.9c-11.2,1.4-21.9,4.7-31.5,10.9c-1.6,0.8-3.2,1.5-4.9,1.9
	l4.6-8.6l0,0c3.7-2,7.6-3.6,10.9-6.1c12.2-9.1,24.2-18.5,36.3-27.8c1.2-0.7,2.5-1.4,3.6-2.2c7.1-5.2,14.1-10.5,21.1-15.8
	C1874.6,245.1,1871.1,256.5,1867.5,267.8z"/>
<path class="st12" d="M1878.2,233.8c-7,5.3-14.1,10.5-21.1,15.8c-1.1,0.8-2.4,1.5-3.6,2.2v-2.2c7.4-6.1,14.8-12.3,22.3-18.3
	c0.9-0.5,1.9-1,2.9-1.2C1878.5,231.3,1878.3,232.5,1878.2,233.8z"/>
<path class="st6" d="M1848,205.9l-4.5,2L1848,205.9z"/>
<path class="st6" d="M1836,211.5l-3.4,1.9C1833.2,211.7,1833.1,208.8,1836,211.5z"/>
<path class="st6" d="M1840.4,209.2l-2.2,1.1L1840.4,209.2z"/>
<path class="st6" d="M1829.4,214.7l-2.2,1L1829.4,214.7z"/>
<path class="st6" d="M1853.4,203.5l-2.2,1L1853.4,203.5z"/>
<path class="st16" d="M1776.8,356.9c-1.6,0.3-3.1,0.7-4.6,1.3c-1.8,1-4.6,2.1-5,3.6c-2,8.4-8.5,10.2-15.5,11.6l-3.5-1.3
	c2.1-4.8,3.5-9.9,0.9-14.6c-3-5.5-4.3-11.9-9.3-16.4c-2.9-2.6-1.1-4.3,1.6-6.3c5.3-4,10.1-8.6,15-13c1.6-1.4,3-3,4.5-4.5l8-1.2
	l0.1,0.1l-2.1,3.7l0.8,0.9l5.6-2.6c2.2,5.6,5.9,11,6.3,16.7C1780.1,342.3,1777.9,349.6,1776.8,356.9z"/>
<path class="st17" d="M1776.8,356.9c1.1-7.3,3.4-14.6,2.9-21.8c-0.4-5.7-4-11.1-6.3-16.7l5.6-3.9c-4.4-3.5-4.4-3.9,0.3-6.6
	c2.7-1.6,5.6-3,8.3-4.5c7.3,1.8,14.7,3.2,21.9,5.6c5.6,1.9,10.9,4.9,16.3,7.4c-1.3,2.2-2.2,4.8-4,6.5c-1.9,1.8-4.2,3.1-6.7,3.8
	c-3.6,0.9-7.2,1-6.2,6.5c0.2,0.9-2.7,3.6-3.5,3.3c-5.9-1.9-8.3,1.7-10.3,6.1l-0.5,0.6l0.7-0.4l3.5-0.9l0.4,1.7
	c-2.5,0.4-5,0.7-7.4,1.3c-1,0.3-2.7,1.6-2.6,1.8c1.6,4-2,4-3.9,5.2L1776.8,356.9z"/>
<path class="st7" d="M1755.9,497l-28.4,8.6c0.4-6.2,0.7-12.3,1.1-18.5l2.7,0.8l0.6-1.1l-7.7-5c0-4.1,0-8.2,0-12.3
	c7.2-5.9,7.6-12.1,1.2-18.8c-0.4-4.3-0.6-8.7-1.2-13c-1.2-9.2,2.7-18.4-0.1-27.6l7.8-10.7c0,9.6-0.1,19.3,0,28.9
	c0.3,16.9,0.6,33.9,1.1,50.8c0.2,6.2,3.7,9.9,9.3,12.1C1746.9,493,1751.4,495.1,1755.9,497z"/>
<path class="st18" d="M1748.3,372.2l3.5,1.3c-2.9,2.5-6,4.8-8.7,7.4c-1.6,1.5-2.6,3.6-3.8,5.5l-5.3,5.5l-13,9.9l-2.4-3.4
	c0-0.7,0-1.4,0-2.1c1-0.3,2.1-0.6,3.7-1l-3.8-4.5l-0.3-5.5l0.4-13.1H1748.3z"/>
<path class="st15" d="M1756.1,445.5c0,5-2.1,8.4-7.4,8.9c-5.6,0.6-11.5-3.2-12.3-8.7c-1-7.5,5.9-8.9,10-12.3l3.9,3.6L1756.1,445.5z"
	/>
<path class="st17" d="M1788,434.2l6.1,5.3c-2.5,2.7-4.5,6.4-7.5,7.8c-3.3,1.5-4.7-2.1-5.4-5.1c-0.4-1.7-1.1-3.3-2.2-4.7
	c-3.2-4.1-2.9-5.1,2.1-6.4c2.1-0.5,4.2-0.8,6.9-1.3L1788,434.2z"/>
<path class="st17" d="M1780.1,495.9c-0.4-2.4-0.8-4.8-1.2-7.1l18-6c-1.3,8.9-2.3,9.8-10.2,11
	C1784.5,494.1,1782.3,495.2,1780.1,495.9z"/>
<path class="st16" d="M1721.1,401.8l13-9.9l3.8,1.2c-2,2.2-4,4.3-6,6.5l-7.8,10.7l-5.5,0.4l-0.5-7.4L1721.1,401.8z"/>
<path class="st12" d="M1756.1,445.5l-5.7-8.5c3.3-3.8,5.4-2.1,6.3,1.7C1757.1,440.9,1756.3,443.2,1756.1,445.5z"/>
<path class="st12" d="M1737.8,393l-3.8-1.2l5.3-5.5C1741.4,389.2,1741.4,391.5,1737.8,393z"/>
<path class="st3" d="M1775.6,498l3.4-0.7L1775.6,498z"/>
<path class="st19" d="M1730.7,241.8l-5.5-1.2c-0.5-2.6-0.9-5.3-1.1-8c-0.1-16.6,0.3-33.1-0.3-49.7c-0.2-6.3-2.4-12.6-4.4-18.7
	c-0.5-1.5-3.5-2.2-5.3-3.3c-7.1-6.9-15.5-9-25.4-8.9c-58.4,0.3-116.7,0.1-175.1,0.1c-31.9,0-63.8,0.2-95.7-0.1
	c-11-0.1-22.3,11.3-21.4,19.8c-5,0.3-4.2,4.3-4.3,7.3c-0.2,11.8,0,23.5-0.1,35.3c-0.2,1.9-0.5,3.8-1,5.6l-2.2-2.2v-16.5
	c0.5-10-0.5-20.3,1.7-29.9c4.4-19,14.8-26.5,34.5-26.9c33.6-0.7,67.1-0.2,100.7-0.2c28.4,0,56.9-0.1,85.3,0.1c9,0,18,0.9,27,1
	c18.3,0.2,36.7-0.3,55.1,0.1c21.7,0.6,35.5,12.6,36.3,35.1C1730.3,201.1,1730.4,221.4,1730.7,241.8z"/>
<path class="st3" d="M1389,209v5.5C1385.5,212.6,1385.5,210.8,1389,209z"/>
<path class="st3" d="M1389,201.3L1389,201.3z"/>
<path class="st7" d="M1391.2,219.9c0.5-1.8,0.8-3.7,1-5.6c0.1-11.8-0.1-23.5,0.1-35.3c0.1-2.9-0.7-6.9,4.3-7.3
	c0,47.5,0,94.9,0,142.4c-0.3,16.3-0.9,32.6-1,48.9c0,12.8,0.7,25.7,0.9,38.5c-0.2,1.9-0.5,3.8-1,5.7l-11.1-0.5
	c-0.5-2.6,3.8-7.3-2.9-6.9l-0.3-0.4c-0.5-1.3-0.9-2.7-1.2-4c-0.2-1.3-0.3-3.5,0.2-3.7c6.1-2.4,1.8-4.9-1-8c7,1.5,6.3-2.4,6.5-6.1
	c1-23.2,2.4-46.3,3.2-69.5c0.4-12.5-0.2-25,0.2-37.5c0.3-10.7,1.4-21.4,1.9-32C1391.2,232.4,1391.1,226.1,1391.2,219.9z"/>
<path class="st7" d="M1343.4,398.2c0.7,1.6,1.4,2.5,1.3,3.2c-0.3,0.9-0.9,1.7-1.7,2.1c-0.3,0.2-1.8-0.9-1.8-1.4
	C1341.3,401.3,1342.1,400.5,1343.4,398.2z"/>
<path class="st16" d="M1825.8,316.3c-5.4-2.5-10.7-5.5-16.3-7.4c-7.1-2.4-14.6-3.8-21.9-5.6l1.6-2.2l7-3.6l1.3-1.3l1.9-0.9l2.5-1.1
	l-0.1-0.1c1.7-0.5,3.4-1.1,4.9-1.9c9.7-6.1,20.3-9.5,31.5-10.9c3.1-0.4,6.4,0.6,9.6,0.9l-7.9,6.2c6.7,6.1,10.3,0.7,14.5-0.9l2.3,2.4
	c-8.7,7.3-17.5,14.5-26.2,21.8C1828.9,313.2,1827.4,314.8,1825.8,316.3z"/>
<path class="st17" d="M1856.7,290l-2.3-2.4l7.5-6.3C1862.3,286.8,1860.1,288.8,1856.7,290z"/>
<path class="st13" d="M1367.1,638.4c-2.6,2.6-4.8,6-7.9,7.6c-15.1,7.4-30.8,2.4-41.2-12.8c-11.3-16.5-13-34.6-8.1-53.5
	c1.4-5.3,3.1-10.4,4.7-15.7c2.7-0.3,5.4-0.5,8.1-1c6-1,12-2.2,18.1-3.3l3.5,7.3c-8.1,26.3-2.6,49.8,20.4,68.6
	C1365.5,636.4,1366.3,637.4,1367.1,638.4z"/>
<path class="st20" d="M1396.4,510.2c-0.2,6.3-0.3,12.6-0.5,18.8l-1.5,0.2c-1-2.8-2-5.5-3-8.5c-7.6,0-10,0.1-10.3-9.1l8.6-11.5
	c-0.2-0.4-0.4-0.8-0.6-1.2c-4.6-5.3-9.1-10.6-13.8-15.7c-0.9-1-2.9-1-4.3-1.4c1-6-0.7-7.3-8.4-6.1c-3.3-3.2-3.3-3.2-9,1.2
	c0.1-2.1,0.1-4.1-0.1-6.2c-0.4-1.5-1-3-1.7-4.5l0.4-3c2.6-0.2,5.3-0.3,7.9-0.2c0.8,0.1,1.5,1.5,2.2,2.3c1.2,5.2,1.2,5.2,3.8,4.4
	l0.4-1.2l0.4-3.4l0.2-1.8l7.6,0.7l1-1.3c-1.2-4.8-2.3-8.5-2.9-12.2c-1.1-6.8,6.2-2.7,6.9-5.9l-0.5-5.7l-3.7-7.4l-0.7-6.6l5.7-1.8
	c0.5,2.2,1,4.5,1.7,7.2c5.3-0.4,1.1-5.4,2.8-7.4c1.9,0.6,3.7,1.4,5.4,2.3c1.1,0.8,2,1.6,2.9,2.6l-0.1-0.1l2.8,2.4
	c-0.1,19.1-0.2,38.3-0.2,57.4C1396,495.3,1396.3,502.7,1396.4,510.2z"/>
<path class="st21" d="M1395.6,575.9l0.1,25.2c-3.5,5.6-6.9,11.1-9.8,15.7c-4.7-12.2-9.5-25-14.6-37.7c-1.4-3.5-3.6-6.7-5.4-10
	c4-3.4,5.6-2.9,9,2.4c-0.2,2-0.4,4-0.6,6.1l1.4,0.3c0.4-1.7,0.8-3.4,1.2-5.1l8.3,4.5l8-1.8L1395.6,575.9z"/>
<path class="st11" d="M1315.6,519.1l-2.2,3.2l-4.3,0.1l-26.5,7.7l-2.4,1l-6.3,1.3l-4.6-2.2l20.6-7.8l-14.1-7.3
	c1.9-1.5,4.2-2.7,5.7-4.6c2.3-2.9,3.9-6.4,8.5-5.4s7.1,4.1,8.1,8.6c0.1,0.9,0.2,1.7,0.3,2.6L1315.6,519.1z"/>
<path class="st21" d="M1370.9,481.9c1.5,0.4,3.4,0.4,4.3,1.4c4.8,5.1,9.2,10.4,13.8,15.7c0.3,0.4,0.5,0.8,0.6,1.2l-8.6,11.4l-4-1.2
	c3.6-4.8,3.5-4.9-5.3-7.1c2-1.3,3.6-1.9,4.4-3c1.1-1.7,2.1-3.6,2.9-5.5c-1.9-1-3.9-1.8-5.9-2.5c-3.2-0.8-6.5-1.1-9.7-2
	c-0.3-0.1,0.2-2.7,0.3-4.1c1.1,0.1,2.1,0.3,3.1,0.3c1.5,0.1,3,0,4.5,0L1370.9,481.9z"/>
<path class="st11" d="M1289.3,491.6l19.8-14.6c3.6,4.6,2.8,12.9-1.5,16.6c-5.5,4.8-13.8,4.9-17.9,0.1
	C1289.2,493.2,1289.4,492.3,1289.3,491.6z"/>
<path class="st12" d="M1379.3,439.1l0.5,5.7c-0.7,3.1-8-1-6.9,5.9c0.6,3.7,1.8,7.4,2.9,12.2l-1,1.3l-7.6-0.7c-0.8-4-1.6-8-2.4-12.1
	l6.6-4.2c-0.7-1.6-1.5-3.6-2.3-5.6C1371.4,436.2,1375.5,438.1,1379.3,439.1z"/>
<path class="st13" d="M1325.8,550.9c0.9-0.4,2.3-1.5,2.8-1.1c3.9,2.4,7.6,5,11.3,7.6l-24.7,4.4L1325.8,550.9z"/>
<path class="st11" d="M1304.6,565.1c3.8-5.8,7.4-11.6,11.3-17.3c1.3-1.7,2.8-3.3,4.3-4.8c1.2,2.6,2.4,5.1,3.5,7.7
	C1317.9,556.1,1312.9,562.7,1304.6,565.1z"/>
<path class="st14" d="M1304.6,565.1c8.2-2.4,13.3-8.9,19.2-14.5l2,0.3l-10.6,10.9l-3.2,1.9l-15.2,11.7l-19.5,7.1v-1.2v0.1l1.2-1.1
	l-0.1,0.1l1.7-0.9c9-2.7,17.7-6,24-13.5c0.2-0.1,0.4-0.2,0.6-0.5L1304.6,565.1z"/>
<path class="st14" d="M1344.1,450.3l-9.1-1.1c-2-2.9-4.5-6.7-7.1-10.4C1338.8,436.8,1345.6,439.4,1344.1,450.3z"/>
<path class="st9" d="M1396.2,430.4l-2.8-2.4c0.4-0.6,0.7-1.2,1.1-1.8l-0.8-0.2l-0.2,2.1c-0.8-1-1.8-1.9-2.9-2.6
	c-1.8-0.9-3.6-1.6-5.4-2.3l1.7-10.5l6.7,0.1l2.1,0.9C1395.8,419.3,1396,424.9,1396.2,430.4z"/>
<path class="st14" d="M1374.9,425.1l0.7,6.6c-0.9,1.6-1.8,3.3-2.7,4.9c-0.4-0.7-0.8-1.5-1.2-2.2c-0.2-5.5-1.7-9.3-8.4-6.8
	c-0.5,0.2-2-0.9-2-1.3c0.1-1,0.5-1.9,1.3-2.6c2.1-1.4,4.3-2.5,5.7-3.4c0.2-2.1,0.3-3.4,0.4-4.8c0.8,0,1.6,0.1,2.4,0.3
	c0,1.8-0.1,3.6-0.3,6.3L1374.9,425.1z"/>
<path class="st10" d="M1274,532.2l6.3-1.2l18.7,4.3c1.5,0.4,3,0.8,4.5,1.1l-5.3,6.7l-0.3-0.2l-8.8-6.8l-5,2.4
	c-1.5-1-3.3-3.1-4.5-2.8C1276.1,536.5,1275.4,534.1,1274,532.2z"/>
<path class="st14" d="M1393.5,412.8l-6.7-0.1l-7.6-7c0.9-2.3,1.6-4.1,2.4-5.9c6.7-0.4,2.4,4.2,2.9,6.9l11.1,0.5c0,1.5,0,3-0.1,4.5
	L1393.5,412.8z"/>
<path class="st12" d="M1370.9,481.9l0.6,4.7c-1.5,0-3,0-4.5,0c-1,0-2.1-0.2-3.1-0.3l-2.5-6.8c0.1-0.4,0.7-2.1,1.2-3.7
	C1370.3,474.6,1371.9,475.8,1370.9,481.9z"/>
<path class="st20" d="M1369.1,441.5c0.8,2,1.6,4,2.3,5.6l-6.6,4.2c-0.2-0.3-0.5-0.4-0.8-0.4l-1.1-3.1c0.7-3,1.3-6,2-9l2.1,0.3
	C1367.7,439.9,1368.4,440.7,1369.1,441.5z"/>
<path class="st12" d="M1284.1,538.6l5-2.4l8.8,6.8l-15.3-2.5L1284.1,538.6z"/>
<path class="st8" d="M1311.9,563.7l3.2-1.9l24.7-4.4c0.3,0.8,0.5,1.6,0.8,2.3c-6,1.1-12,2.3-18.1,3.3c-2.7,0.5-5.4,0.7-8.1,1
	L1311.9,563.7z"/>
<path class="st14" d="M1360,452c-1.7-2-3.9-3.7-5.1-6c-0.7-1.4-0.1-3.7,0.6-5.3c0.3-0.8,2.4-0.7,3.6-1.1c-0.2,1.6-0.3,3.1-0.3,4.7
	c0.2,0.9,0.6,1.8,1.1,2.5C1360,448.6,1360,450.3,1360,452z"/>
<path class="st11" d="M1320.9,519l-0.4-0.1c0.4-2.3,0.7-4.7,1-7l8.6,3.4C1328.5,518.8,1324.5,518.5,1320.9,519z"/>
<path class="st12" d="M1367,439.1l-2.1-0.3c-0.8-0.9-1.7-1.7-2.7-2.3c-1.9-1-4-1.7-5.6-3.5C1360.3,434.5,1368,429.9,1367,439.1z"/>
<path class="st21" d="M1332.3,472.3l1.7,10l-2.3,0.4l-2.2-9.8L1332.3,472.3z"/>
<path class="st21" d="M1350.7,466.4l-2.7,3.6l-5-6.3l7.4-0.4L1350.7,466.4z"/>
<path class="st12" d="M1363.6,455.3c-0.3,1.7-0.7,3.3-1.2,4.9c-0.1,0.2-1.8-0.2-2.7-0.3c0.4-1.7,0.8-3.4,1.3-5.1L1363.6,455.3z"/>
<path class="st12" d="M1367,465.3l-0.4,3.4c-0.1,0.4-0.3,0.8-0.4,1.2c-2.6,0.8-2.6,0.8-3.8-4.4L1367,465.3z"/>
<path class="st10" d="M1376.8,572.7c-0.4,1.7-0.8,3.4-1.2,5.1l-1.4-0.3c0.2-2,0.4-4,0.6-6.1L1376.8,572.7z"/>
<path class="st12" d="M1360,452c0-1.7,0-3.5,0-5.2l2.9,1l1.1,3.1L1360,452z"/>
<path class="st12" d="M1395.6,575.9l-2.3-0.4l3.4-3.9C1396.3,573,1395.9,574.5,1395.6,575.9z"/>
<path class="st3" d="M1364.2,414.3l0.2-3.1l2.2,0.8l-1.1,2.7L1364.2,414.3z"/>
<path class="st9" d="M1394.4,529.2l1.5-0.2c0.2,0.6,0.3,1.2,0.5,1.8L1394.4,529.2z"/>
<path class="st12" d="M1371.7,434.5c0.4,0.7,0.8,1.5,1.2,2.2C1372.5,435.9,1372.1,435.2,1371.7,434.5z"/>
<path class="st12" d="M1350.7,466.4l-0.4-3.1l2,0.1l-0.4,3L1350.7,466.4z"/>
<path class="st11" d="M1370.4,680c0.4-2.1,0.7-4.2,1-6.3c1.9-8.3,3.6-16.6,5.6-24.8c0.6-2.4,0.4-5.8,4.9-4.8s3.8,3.7,3.4,7
	c-1.5,11.2-5.8,21.3-11.6,30.8l-1.1,0.2L1370.4,680z"/>
<path class="st21" d="M1395.7,605.3c0,13.6,0,27.2,0,40.8l-8.1-1.4C1384.8,630,1386.2,616.8,1395.7,605.3z"/>
<path class="st2" d="M1370.4,680l2.2,2.2l0.2,2.4c-1.7,2.7-0.5,4.4,2,5.7c-0.4,1.3-0.9,2.5-1.3,3.7c-1.2-0.7-3.3-1.4-3.3-2.2
	C1369.8,687.9,1370.2,683.9,1370.4,680z"/>
<path class="st12" d="M1372.7,684.6l-0.2-2.4l1.1-0.2c0.3,0,0.7,0.1,1.1,0c1.8-0.2,3.7-0.2,5.5-0.1c0.2,0,0.2,2.3,0.2,3.6
	c-1.7-0.3-3.4-0.6-5.1-0.8C1374.5,684.6,1373.6,684.6,1372.7,684.6z"/>
<path class="st12" d="M1382.3,690.3c1.5-0.5,3-1.5,4.6-1.5c1.3,0.2,2.5,0.9,3.3,1.9c0.3,0.9,0.2,2-0.4,2.7c-1.1,0.3-2.2,0.3-3.3-0.1
	c-1.4-0.3-2.7-0.7-4-1.2C1382.4,691.6,1382.4,691,1382.3,690.3z"/>
<path class="st2" d="M1382.3,690.3c0.1,0.6,0.1,1.3,0.2,1.9c-0.4,0.7-0.8,1.3-1.2,2c-1.2-1.6-2.3-3.1-3.5-4.7
	C1380,685.7,1380.8,690.1,1382.3,690.3z"/>
<path class="st12" d="M1395.9,696.5c-0.1,1.4-0.3,2.9-0.4,4.3C1392.5,699.1,1393.3,697.7,1395.9,696.5z"/>
<path class="st10" d="M1277.3,582.5l19.5-7.1c-1.4,3.9-3.1,7.7-4.2,11.7c-3.5,13.1-6.7,26.3-10.1,39.4c-3.6-12.4-7.1-24.8-10.7-37.2
	l3.4-5.7h-0.1l1.2-1.1l-0.1,0.1H1277.3z"/>
<path class="st18" d="M1717.9,550.4c-0.1-3.2-0.1-6.3-0.2-9.5c0.3-0.7,0.6-1.5,0.9-2.2l4.4,3.3c-0.4,2.5-0.7,5-1.1,7.5L1717.9,550.4
	z"/>
<path class="st8" d="M1575.2,804.8l0.9-1.7c0.5,0.5,0.9,1.1,1.4,1.7L1575.2,804.8z"/>
<path class="st12" d="M1303.5,536.5c-1.5-0.4-3-0.8-4.5-1.1l-18.7-4.3l2.4-1c8.9,3.4,17.9,2.6,27.4,0.2c-0.3-2.6-0.6-5.2-0.9-7.8
	l4.3-0.1c4.2,4.8-1.6,9.1-0.7,14.1l-8.1,0.4L1303.5,536.5z"/>
<path class="st21" d="M1303.5,536.5l1.2,0.2l-6.6,8.7l-0.1-0.1l0.2-2L1303.5,536.5z"/>
<path class="st21" d="M1285,559.5l-7.7,6.6l-0.1-0.1L1285,559.5L1285,559.5z"/>
<path class="st21" d="M1290.3,554l6.5-6.6l0.2,0.2l-6.6,6.6L1290.3,554z"/>
<path class="st12" d="M1304.6,565.4c-0.2,0.2-0.4,0.4-0.6,0.5l-8.2,1.3l0.1,0.1C1298.4,564.5,1301,562.6,1304.6,565.4z"/>
<path class="st12" d="M1288.2,571.6l7.7-4.4l-0.1-0.1L1288.2,571.6L1288.2,571.6z"/>
<path class="st21" d="M1272.9,568.3l4.3-2.2l0.1,0.1L1272.9,568.3L1272.9,568.3z"/>
<path class="st12" d="M1286,572.6l-2.2,2.2v0.1C1284.6,574.1,1285.3,573.4,1286,572.6L1286,572.6z"/>
<path class="st12" d="M1280,579.4l-1.7,0.9l1.4-2.6L1280,579.4z"/>
<path class="st12" d="M1283.8,574.8l-1.2,0.9L1283.8,574.8L1283.8,574.8z"/>
<path class="st12" d="M1288.2,571.5l-2.2,1.1v0.1L1288.2,571.5L1288.2,571.5z"/>
<path class="st21" d="M1284.9,559.5c0.4-0.3,0.8-0.6,1.2-0.8c0,0,0.2,0.3,0.3,0.4L1284.9,559.5L1284.9,559.5z"/>
<path class="st21" d="M1290.4,554.1l-0.5,1.5c-0.1-0.1-0.3-0.2-0.4-0.3c0.3-0.4,0.5-0.8,0.8-1.3L1290.4,554.1z"/>
<path class="st21" d="M1296.8,547.4l1.2-2.1l0.2,0.1c-0.4,0.7-0.7,1.4-1.1,2.2L1296.8,547.4z"/>
<path class="st21" d="M1272.8,569.8c-0.3-0.5-0.7-1.1-1-1.6l1.1,0.1l0,0C1272.8,568.8,1272.8,569.3,1272.8,569.8z"/>
<polygon class="st7" points="1317,525 1317.4,524.9 1317.3,525.2 "/>
<path class="st12" d="M1277.3,582.5l-1.1,0c0-0.4-0.1-0.8-0.1-1.1l1.2-0.1L1277.3,582.5z"/>
<path class="st12" d="M1278.4,580.3l-1.2,1.1L1278.4,580.3z"/>
<path class="st11" d="M1398.9,793.8l4.5,6.6c-0.2,1-0.4,2.1-0.6,3.2l-4.2,0.9c-1.9-2.3,5-6.7-1.9-7.7L1398.9,793.8z"/>
<path class="st7" d="M1272.8,632.9c-0.5-0.5-0.9-1.1-1.2-1.8c-0.6-1.5-1.1-3-1.6-4.5c0.9-0.3,1.7-0.5,2.6-0.7c0.7,1.6,1.3,3.2,1.7,5
	c0.1,0.6-0.3,1.4-0.5,2L1272.8,632.9z"/>
<path class="st2" d="M1272.8,632.9h1.1c1.2,1.7,5.6,2.6,1.3,5.5l-3.5-3.5L1272.8,632.9z"/>
<path class="st12" d="M1275.1,583.6l-3.4,5.7c-0.7-1.5-1.4-3-2.1-4.5L1275.1,583.6z"/>
<path class="st2" d="M1253.6,578.9h4.5l-0.1,3l-4.5-0.7L1253.6,578.9z"/>
<path class="st12" d="M1276.2,582.5l-1.2,1.1L1276.2,582.5z"/>
<path class="st14" d="M1723.1,542l-4.4-3.3l-0.8-38c4.7-1.6,6.6,1.7,8.6,4.8l-1.3,36.5L1723.1,542z"/>
<path class="st12" d="M1726.5,505.5c-2-3.1-4-6.4-8.6-4.8c-0.1-6-0.1-12-0.2-18l10.9,4.4c-0.4,6.2-0.7,12.4-1.1,18.5
	C1727.2,505.7,1726.8,505.6,1726.5,505.5z"/>
<path class="st15" d="M1718.6,372.2c0-27.5,0-54.9-0.1-82.3h3.3c14,4,28.1,7.5,40.2,16.2c0.7,0.5,1.8,0.3,2.7,0.4
	c0.4,1,0.8,2.1,1.2,3.1l-4.8,7.9c-1.5,1.5-2.9,3-4.5,4.5c-5,4.4-9.8,9-15,13c-2.7,2-4.5,3.6-1.6,6.3c5,4.5,6.3,10.9,9.3,16.4
	c2.6,4.8,1.2,9.9-0.9,14.6L1718.6,372.2z"/>
<path class="st16" d="M1764.6,306.5c-0.9-0.1-2,0-2.7-0.4c-12.1-8.7-26.2-12.3-40.2-16.2c2.4-2.4,4.5-5.1,7.1-7.1
	c9.1-7.1,18.4-14,27.6-20.9C1764.9,266.8,1772.3,292.1,1764.6,306.5z"/>
<path class="st12" d="M1718.3,240.6c0.1-3.7,0.3-7.5,0.3-11.2c0-10.8,0.1-21.5,0-32.3c-0.2-1.9-0.5-3.8-1-5.7
	c-0.6-10.3,2.1-20.9-3.4-30.6c1.8,1.1,4.8,1.8,5.3,3.3c2,6.1,4.2,12.4,4.4,18.7c0.6,16.6,0.2,33.1,0.3,49.7c0.2,2.7,0.5,5.4,1.1,8
	L1718.3,240.6z"/>
<path class="st7" d="M1853.4,249.6v2.2c-12.1,9.3-24,18.7-36.3,27.8c-3.3,2.5-7.3,4.1-10.9,6.1c-0.7-5.2,1.4-8,6.8-8.1
	c0.7,0.1,1.4,0,2-0.3c6.1-4.5,12.1-9.1,18.2-13.7c5.9-4.4,11.7-8.9,17.6-13.3C1851.6,249.8,1852.5,249.6,1853.4,249.6z"/>
<path class="st7" d="M1761,317.5l4.8-7.9c4.4-3,8.7-6.1,13.2-9c2-1.2,4.1-2.2,6.2-3.2l4.1,3.8l-1.6,2.2c-2.8,1.5-5.6,2.9-8.3,4.5
	c-4.7,2.7-4.7,3.1-0.3,6.6l-5.6,3.9l-5.6,2.6l-0.8-0.9l2.1-3.7l0.5-0.6l-0.6,0.5L1761,317.5z"/>
<path class="st12" d="M1789.3,301.2l-4.1-3.8c1.3-3.7,3.7-4.5,7.8-5c4.7-0.6,8.9-4.3,13.4-6.7l-4.6,8.6l0.1,0.1l-2.5,1.1l-1.9,0.9
	l-1.3,1.3L1789.3,301.2z"/>
<path class="st6" d="M1795.4,342.7l-0.7,0.4l0.5-0.6L1795.4,342.7z"/>
<path class="st12" d="M1718.5,410.6l5.5-0.4c2.8,9.2-1.1,18.4,0.1,27.6c0.6,4.3,0.8,8.6,1.2,13l-7.4-3.7c-0.1-8.5-0.3-16.9-0.2-25.4
	C1717.7,418,1718.2,414.3,1718.5,410.6z"/>
<path class="st15" d="M1717.9,447l7.4,3.7c6.4,6.7,6,12.9-1.2,18.8l-5.5,0.1c-0.1-6.6-0.2-13.1-0.3-19.7c-0.2-0.5-0.3-1-0.5-1.5
	C1717.9,448,1717.9,447.5,1717.9,447z"/>
<path class="st12" d="M1718.6,469.7l5.5-0.1c0,4.1,0,8.2,0,12.3l-6.5-1.1C1718,477,1718.3,473.4,1718.6,469.7z"/>
<path class="st9" d="M1717.7,480.7l6.5,1.1l7.7,5l-0.6,1.1l-2.7-0.8l-10.9-4.4L1717.7,480.7z"/>
<path class="st12" d="M1718.7,396.3l-1.1-5.5h1l3.8,4.5C1720.7,395.7,1719.7,396,1718.7,396.3z"/>
<path class="st12" d="M1717.6,399.6l1.1-1.1l2.4,3.4l-3.1,1.4C1717.8,402,1717.7,400.8,1717.6,399.6z"/>
<path class="st17" d="M1799.4,295.4l2.5-1.1L1799.4,295.4z"/>
<path class="st17" d="M1796.3,297.6l1.3-1.3L1796.3,297.6z"/>
<path class="st7" d="M1366.2,469.8c0.1-0.4,0.3-0.8,0.4-1.2C1366.5,469,1366.4,469.4,1366.2,469.8z"/>
<path class="st10" d="M1309.1,522.3c0.3,2.6,0.6,5.3,0.9,7.8c-9.4,2.4-18.4,3.2-27.4-0.2L1309.1,522.3z"/>
<path class="st20" d="M1393.4,428.1l0.2-2.1l0.8,0.2C1394,426.8,1393.7,427.4,1393.4,428.1L1393.4,428.1z"/>
<path class="st7" d="M1395.5,411.7c0,0.7,0,1.4,0,2l-2.1-0.9L1395.5,411.7z"/>
<path class="st8" d="M1494.1,789.2L1494.1,789.2z"/>
<path class="st21" d="M1415,774l0.7,2.9L1415,774z"/>
<path class="st16" d="M1769,316.3l0.6-0.5l-0.5,0.6L1769,316.3z"/>
<path class="st12" d="M1718.3,450c-0.2-0.5-0.3-1-0.5-1.5C1718,449,1718.2,449.5,1718.3,450z"/>
<path class="st22" d="M1685.8,167.7l-50.4-0.4c1.4-0.7,2.8-2.1,4.2-2.1c13.8-0.2,27.6-0.2,41.4,0
	C1682.7,165.3,1684.3,166.9,1685.8,167.7z"/>
<path class="st22" d="M1470,167.3h-38.3c1.2-0.7,2.4-2.1,3.7-2.1c10.3-0.2,20.7-0.2,31,0C1467.6,165.3,1468.8,166.6,1470,167.3z"/>
<path class="st22" d="M1630.1,181.7l-11.1,6.4L1630.1,181.7z"/>
<path class="st22" d="M1697.8,176.2l-9.8-7.9C1693.5,168.2,1696.9,170.9,1697.8,176.2z"/>
<path class="st22" d="M1700,181.6l-2.2-5.5L1700,181.6z"/>
<path class="st22" d="M1486.5,188.1l-3.3-1L1486.5,188.1z"/>
<path class="st22" d="M1472.1,171.8l-0.3-3.4L1472.1,171.8z"/>
<path class="st22" d="M1481,186l-3.2-2.3L1481,186z"/>
<path class="st22" d="M1632.2,178.3c-0.7,1.1-1.4,2.3-2.1,3.4C1630.8,180.6,1631.5,179.5,1632.2,178.3z"/>
<path class="st22" d="M1473.3,177.2l-0.8-2.2L1473.3,177.2z"/>
<path class="st22" d="M1634,172.8c-0.2,0.8-0.4,1.5-0.7,2.3C1633.6,174.3,1633.8,173.6,1634,172.8z"/>
<path class="st22" d="M1426.2,168.5l-2.2,1.1L1426.2,168.5z"/>
<path class="st23" d="M1682.2,790.2h-251.4c-10.9,0-19.8-8.9-19.8-19.8c0,0,0,0,0,0V186c0-10.9,8.9-19.8,19.8-19.8c0,0,0,0,0,0h51.2
	l0.1,4.9c0.2,7.3,6.2,13.2,13.5,13.1H1615c7.4,0,13.5-6,13.5-13.5c0-0.1,0-0.1,0-0.2l-0.1-4.4h53.8c10.9,0,19.8,8.9,19.8,19.8
	c0,0,0,0,0,0v584.4C1702,781.3,1693.1,790.2,1682.2,790.2L1682.2,790.2z"/>
<circle class="st24" cx="1641.2" cy="634.9" r="16.1"/>
<line class="st24" x1="1655.7" y1="641.9" x2="1704.5" y2="657.8"/>
<line class="st24" x1="1646.2" y1="618.8" x2="1704.4" y2="302.2"/>
<line class="st24" x1="1636.2" y1="651.1" x2="1627.6" y2="683.1"/>
<line class="st25" x1="1703.6" y1="359.8" x2="1642.5" y2="353.7"/>
<polyline class="st24" points="1558.4,353.1 1408.6,326 1565.4,181.4 "/>
<line class="st24" x1="1497.8" y1="342" x2="1518.4" y2="596"/>
<line class="st26" x1="1410.2" y1="618.9" x2="1450.9" y2="438.4"/>
<polyline class="st27" points="1632.6,183 1635,321 1497.6,726.3 1408.6,702.9 "/>
<path class="st28" d="M1510.2,437.2l-50.7,3.7l12.7,54c1.4,6,1.9,12.1,1.6,18.2l-3.2,52.6l46.5,15.2L1510.2,437.2z"/>
<polygon class="st29" points="1494.1,260.4 1542.3,219.6 1589.3,290.1 1555.9,330.9 "/>
<line class="st27" x1="1497.8" y1="726.4" x2="1475.8" y2="791.2"/>
<path class="st30" d="M1576.8,440.2h-137c-8.6,0-15.6-7.4-15.6-16.5l0,0c0-9.1,7-16.5,15.6-16.5h110.3l24.3-22.6l-1.6,22.6h3.9
	c8.6,0,15.6,7.4,15.6,16.5l0,0C1592.4,432.9,1585.4,440.2,1576.8,440.2z"/>
<path class="st23" d="M1452.9,423.7c0,4.7-2.7,7.2-6,7.2s-5.8-2.8-5.8-6.9c0-4.3,2.5-7.2,6-7.2S1452.9,419.7,1452.9,423.7z
	 M1442.9,423.9c0,2.9,1.5,5.5,4.1,5.5s4.1-2.6,4.1-5.7c0-2.7-1.3-5.5-4.1-5.5S1442.9,420.9,1442.9,423.9L1442.9,423.9z"/>
<path class="st23" d="M1462.8,428c0,1,0,1.9,0.1,2.7h-1.5l-0.1-1.6l0,0c-0.6,1.1-1.7,1.8-3,1.8c-1.4,0-3.2-0.9-3.2-4.3v-5.7h1.7v5.4
	c0,1.9,0.5,3.1,2.1,3.1c1,0,1.9-0.7,2.2-1.6c0.1-0.3,0.2-0.6,0.2-0.9v-6h1.7L1462.8,428z"/>
<path class="st23" d="M1467.6,418.1v2.8h2.4v1.3h-2.4v5.3c0,1.2,0.3,1.9,1.3,1.9c0.3,0,0.7,0,1-0.1l0.1,1.3c-0.5,0.2-1,0.3-1.5,0.2
	c-0.7,0-1.4-0.2-1.8-0.8c-0.5-0.7-0.7-1.6-0.7-2.5v-5.3h-1.4v-1.4h1.4v-2.3L1467.6,418.1z"/>
<path class="st23" d="M1476.1,430.7v-8.5h-1.3v-1.4h1.3v-0.5c-0.1-1.2,0.3-2.5,1.1-3.4c0.6-0.6,1.4-0.9,2.3-0.9c0.5,0,1,0.1,1.4,0.3
	l-0.2,1.4c-0.3-0.2-0.7-0.2-1.1-0.2c-1.4,0-1.8,1.3-1.8,2.8v0.5h2.3v1.4h-2.2v8.4L1476.1,430.7z"/>
<path class="st23" d="M1489.6,425.7c0,3.6-2.4,5.2-4.6,5.2c-2.5,0-4.4-1.9-4.4-5c0-3.3,2-5.2,4.6-5.2S1489.6,422.7,1489.6,425.7z
	 M1482.3,425.8c0,2.1,1.2,3.8,2.8,3.8s2.8-1.6,2.8-3.8c0-1.7-0.8-3.8-2.8-3.8S1482.3,423.9,1482.3,425.8z"/>
<path class="st23" d="M1491.7,423.9c0-1.2,0-2.1-0.1-3.1h1.5l0.1,1.9h0.1c0.3-1.2,1.3-2.1,2.6-2.1c0.2,0,0.3,0,0.5,0.1v1.7
	c-0.2,0-0.4-0.1-0.6-0.1c-1.2,0.1-2.2,1.1-2.3,2.3c0,0.3-0.1,0.6-0.1,0.8v5.2h-1.7L1491.7,423.9z"/>
<path class="st23" d="M1502,417.2c1.2-0.2,2.3-0.3,3.5-0.3c1.9-0.2,3.8,0.5,5.2,1.7c1.3,1.3,1.9,3.1,1.8,4.9
	c0.1,1.9-0.6,3.8-1.8,5.3c-1.5,1.4-3.6,2.1-5.7,2c-1,0-2,0-3-0.2L1502,417.2z M1503.7,429.3c0.6,0.1,1.1,0.1,1.7,0.1
	c3.6,0,5.5-2.1,5.5-5.8c0-3.2-1.7-5.3-5.2-5.3c-0.7,0-1.3,0-2,0.2L1503.7,429.3z"/>
<path class="st23" d="M1515.7,426.1c0,2.4,1.5,3.4,3.2,3.4c0.9,0,1.8-0.1,2.6-0.5l0.3,1.3c-1,0.4-2,0.6-3.1,0.6
	c-2.8,0-4.5-2-4.5-4.9s1.6-5.3,4.3-5.3c3,0,3.8,2.8,3.8,4.6c0,0.3,0,0.6-0.1,0.8L1515.7,426.1z M1520.6,424.8c0-1.1-0.4-2.9-2.3-2.9
	c-1.7,0-2.4,1.7-2.6,2.9H1520.6z"/>
<path class="st23" d="M1524.3,416.3h1.7v14.4h-1.7L1524.3,416.3z"/>
<path class="st23" d="M1530.7,418.1c0.1,0.5-0.3,1-0.9,1.1c-0.1,0-0.1,0-0.2,0c-0.6,0-1-0.4-1-1c0,0,0-0.1,0-0.1
	c0-0.6,0.4-1.1,1-1.1c0,0,0,0,0,0c0.6,0,1,0.4,1,1C1530.7,418,1530.7,418.1,1530.7,418.1z M1528.8,430.7v-9.8h1.7v9.8H1528.8z"/>
<path class="st23" d="M1534,420.9l1.8,5.5c0.3,0.9,0.6,1.7,0.7,2.5h0.1c0.2-0.8,0.5-1.6,0.8-2.5l1.8-5.5h1.8l-3.6,9.8h-1.6l-3.5-9.8
	H1534z"/>
<path class="st23" d="M1543.2,426.1c0,2.4,1.5,3.4,3.2,3.4c0.9,0,1.8-0.1,2.6-0.5l0.3,1.3c-1,0.4-2,0.6-3.1,0.6
	c-2.8,0-4.5-2-4.5-4.9s1.6-5.3,4.3-5.3c3,0,3.8,2.8,3.8,4.6c0,0.3,0,0.6-0.1,0.8L1543.2,426.1z M1548.1,424.8c0-1.1-0.4-2.9-2.3-2.9
	c-1.7,0-2.4,1.7-2.6,2.9H1548.1z"/>
<path class="st23" d="M1551.8,423.9c0-1.2,0-2.1-0.1-3.1h1.5v1.9h0.1c0.3-1.2,1.3-2.1,2.6-2.1c0.2,0,0.3,0,0.5,0.1v1.7
	c-0.2,0-0.4-0.1-0.6-0.1c-1.2,0.1-2.2,1.1-2.3,2.3c0,0.3-0.1,0.6-0.1,0.8v5.2h-1.7L1551.8,423.9z"/>
<path class="st23" d="M1559.2,420.9l2,5.8c0.2,0.6,0.4,1.4,0.6,2l0,0c0.2-0.6,0.4-1.3,0.6-2l1.8-5.8h1.8l-2.5,7
	c-1.2,3.4-2,5.1-3.2,6.1c-0.6,0.6-1.3,1-2.1,1.2l-0.4-1.5c0.5-0.2,1-0.5,1.5-0.9c0.6-0.5,1.1-1.2,1.4-2c0.1-0.1,0.1-0.3,0.1-0.4
	c0-0.2-0.1-0.3-0.1-0.5l-3.4-9L1559.2,420.9z"/>
<line class="st31" x1="1706.7" y1="270.5" x2="1563.1" y2="179.2"/>
<line class="st31" x1="1597.2" y1="180.8" x2="1707.4" y2="245.7"/>
<polyline class="st31" points="1635,227 1649.9,330.9 1493.4,791.4 "/>
<path class="st31" d="M1614,433.4c0,0-132-217.2-202.6-216.9"/>
<line class="st24" x1="1624.6" y1="629" x2="1409.1" y2="562"/>
<line class="st32" x1="1529.4" y1="689.9" x2="1536.8" y2="667.7"/>
<line class="st32" x1="1541.7" y1="651.6" x2="1549.1" y2="629.3"/>
<line class="st32" x1="1555.3" y1="610.8" x2="1562.7" y2="588.5"/>
<line class="st32" x1="1571.3" y1="566.3" x2="1578.8" y2="544"/>
<line class="st32" x1="1584.9" y1="524.3" x2="1592.3" y2="502"/>
<line class="st32" x1="1598.5" y1="483.5" x2="1605.9" y2="461.2"/>
<line class="st32" x1="1610" y1="450.1" x2="1615.5" y2="432.8"/>
<line class="st32" x1="1602.2" y1="415.5" x2="1587.4" y2="393.3"/>
<line class="st32" x1="1576.6" y1="378.4" x2="1560.9" y2="356.2"/>
<line class="st33" x1="1516.9" y1="728.2" x2="1524.4" y2="706"/>
<line class="st32" x1="1498.4" y1="782.6" x2="1505.8" y2="760.3"/>
<path class="st30" d="M1563.9,257.3c3.2,0.7,6.4,1.5,9.6,2.5c12.4,4.7,21.1,17.4,20.7,30.6c-0.2,4-1.1,7.9-2.8,11.5
	c-3.3,7-7.2,13.8-11.2,20.5c-8.1,13.5-14.3,23.1-19,30.6c-0.4,0.6-0.8,1.2-1.3,2c-3.2-5.5-6.4-10.7-9.4-16
	c-5.4-9.5-11-18.8-16.2-28.5c-3.1-5.4-5.1-11.4-6-17.5c-1.1-8.8,1.7-16.6,7.2-23.4c5.3-6.7,13.1-11,21.7-12c0.4-0.1,0.8-0.2,1.3-0.3
	H1563.9z M1580,289.6c0.1-10.5-8.4-19.1-18.9-19.2s-19.1,8.4-19.2,18.9s8.4,19.1,18.9,19.2c0.1,0,0.2,0,0.2,0
	C1571.4,308.5,1579.9,300.1,1580,289.6z"/>
<path class="st30" d="M1509.8,699.9h107.2c8.3,0,15,6.7,15,15v16.7c0,8.3-6.7,15-15,15h-107.2c-8.3,0-15-6.7-15-15v-16.7
	C1494.8,706.7,1501.5,699.9,1509.8,699.9z"/>
<path class="st34" d="M1726.9,587.2c8,15.4,16.9,30.5,24,46.4c16.8,37.3,29.4,76.1,36.5,116.4c2.1,12,3.2,24.2,4.8,36.3
	c0.4,2.2,1,4.4,1.7,6.5V856c-1.7,10.2-2.6,20.6-5.2,30.5c-6.5,24.7-13.2,49.3-20.9,73.6c-2.5,7.9-3.5,14.5-0.7,22.5
	c3.8,10.8,6.2,22.2,9.6,34.7h-25.1c-2.9-14.5-6-29-8.4-43.6c-0.6-4,0-8.1,1.9-11.7c23.8-40.1,27.4-83.3,18.2-127.7
	c-10.3-49.7-32.7-94.5-59.3-137.4c-8.5-13.8-20.5-18.8-35.8-18.6c-11.7,0.2-23.4,0.2-35.1-0.1c-2.7-0.1-5.4-1.9-8.1-3
	c20-0.1,40-0.7,60,0c4.9,0.2,10.6,3.3,14.4,6.7c5.8,5.1,10.3,11.7,15.3,17.7l2.1,3.3c21.4,27.2,37.3,57.5,50.8,89.1
	c5.1,12,10.4,23.9,15.7,35.8l0,0l0.9,6.3l1.7-0.2c-0.2-2-0.5-4.1-0.7-6.1c0-4.4,0.4-8.9-0.1-13.3c-3-27.1-4.7-54.4-9.8-81.1
	c-8.6-45-24.3-88-43.1-129.7C1729.7,598.6,1728.6,592.7,1726.9,587.2z"/>
<path class="st35" d="M1665.7,966.8c0.5,1,1.5,2,1.5,3c0.1,15.9,0.1,31.8,0.1,47.8h-55.5c-0.7-4.5-2.3-8.6-1.8-12.5
	c1.5-13.1-4.6-21.8-13-31.4c-26-29.5-37.2-65.3-38.4-104c-0.5-18.6,1.9-37.3,3.3-55.9c0.3-3.7,2.2-7.2,3.4-10.8l5.3-0.6
	c3.2,0.2,6.3,0.7,9.5,0.7c27.9,0.2,55.7,0.3,83.6,0.4c-2.8,0.5-5.6,1.3-8.4,1.4c-15.8,0.2-31.6-0.2-47.4,0.2
	c-10.8,0.3-21.6,1.5-30.2,2.2c5.4,13.5,11.9,26.5,15.9,40.3c7.5,25.4,11.1,52,24.6,75.4c10.1,17.5,22.5,32.5,42.1,40.2l0,0l3.5,1.8
	l0,0L1665.7,966.8z"/>
<path class="st36" d="M1726.9,587.2c1.7,5.5,2.8,11.4,5.2,16.6c18.8,41.8,34.5,84.7,43.1,129.7c5.1,26.7,6.8,54,9.8,81.1
	c0.5,4.4,0.1,8.9,0.1,13.3h-1.9l0,0c-0.1-2.3-0.4-4.6-0.8-6.9c-8.8-32.4-23-62.3-41.1-90.4c-8.6-13.3-17.2-26.2-16.3-43.3
	c0.4-6.9-1.5-14-2.3-20.9c-0.9,9.6-0.7,19.2-1,28.8c-0.1,2.7-2.1,5.3-3.2,7.9c0.1-29.3,0.2-58.7,0.2-88c0.2-0.2,0.6-0.4,0.5-0.5
	c-0.1-0.4-0.3-0.8-0.6-1.2c0-11.1,0-22.3,0-33.4c0.5,0,0.9,0,1.4,0l3.3,0.1C1724.6,582.5,1725.7,584.9,1726.9,587.2z"/>
<path class="st34" d="M1723.4,580.2l-3.3-0.1c0-1.8,0-3.6,0.1-5.3L1723.4,580.2z"/>
<path class="st35" d="M1720.1,574.8c0,1.8,0,3.6-0.1,5.3c-0.5,0-0.9,0-1.4,0c0-2.3,0-4.7,0-7L1720.1,574.8z"/>
<path class="st35" d="M1716.8,703c0.6,0,1.2,0,1.7,0.2c1.1-2.6,3.1-5.2,3.2-7.9c0.4-9.6,0.2-19.2,1-28.8c0.8,7,2.7,14,2.3,20.9
	c-0.9,17,7.7,30,16.3,43.3c18.2,28.1,32.3,58.1,41.1,90.4c0.4,2.3,0.7,4.6,0.8,6.9c-5.2-11.9-10.6-23.8-15.7-35.8
	C1754.1,760.5,1738.2,730.2,1716.8,703z"/>
<path class="st35" d="M1783.3,828h1.9c0.2,2,0.5,4.1,0.7,6.1l-1.7,0.2L1783.3,828z"/>
<path class="st37" d="M1660.3,963.2c-19.5-7.6-32-22.7-42.1-40.2c-13.5-23.4-17.1-50-24.6-75.4c-4.1-13.8-10.5-26.9-15.9-40.3
	c8.6-0.7,19.3-1.9,30.2-2.2c15.8-0.4,31.6-0.1,47.4-0.2c2.8,0,5.6-0.9,8.4-1.4l2,0c-4.4,11.1-9,22.1-13.3,33.2
	c-8.3,21.7-12.9,44-11.4,67.5c1,16.6,5.8,32.7,13.8,47.3C1656.9,955.2,1658.5,959.3,1660.3,963.2z"/>
<path class="st38" d="M1600.4,706.7l-3.4-3.5L1600.4,706.7z"/>
<path class="st38" d="M1597,703.1l-3.4-3.7L1597,703.1z"/>
<path class="st37" d="M1663.9,965l-3.5-1.8L1663.9,965z"/>
<path class="st38" d="M1602.2,708.4l-1.7-1.7L1602.2,708.4z"/>
<path class="st37" d="M1665.7,966.8l-1.8-1.8L1665.7,966.8z"/>
<path class="st35" d="M1718.7,615.2v-1.7c0.2,0.4,0.4,0.8,0.6,1.2C1719.3,614.8,1718.9,615.1,1718.7,615.2z"/>
<path class="st36" d="M1625,675.4c2.7,1,5.4,2.9,8.1,3c11.7,0.3,23.4,0.3,35.1,0.1c15.3-0.2,27.3,4.8,35.8,18.6
	c26.5,42.9,49,87.8,59.3,137.4c9.2,44.3,5.6,87.6-18.2,127.7c-1.9,3.6-2.5,7.7-1.9,11.7c2.4,14.6,5.5,29.1,8.4,43.6h-84.3
	c0-15.9,0-31.8-0.1-47.8c0-1-1-2-1.5-3l-1.8-1.8l0,0l-3.5-1.8l0,0c-1.8-3.9-3.4-7.9-5.5-11.7c-8.1-14.5-12.8-30.7-13.8-47.2
	c-1.4-23.5,3.2-45.8,11.4-67.5c4.2-11.1,8.8-22.1,13.3-33.2l1.8-1.8c1.4-2.4,2.8-4.9,4.2-7.3c2.6-4.5,5.3-9.1,7.9-13.6l4.2-3.5
	c-8.9-9.6-17.1-18-24.6-26.9c-4.4-5.3-7.5-11.6-11.2-17.5c-2.1-7.3-7.9-10.6-13.9-8.8c-4,1.2-8.3,0.6-11.7-1.8
	c-6.5-4.5-16.3-10.8-20.2-13.9v-0.1l-1.7-1.7l-1-0.8l-2.5-2.8l0,0l-3.4-3.7c-0.6-1.6-1.1-3.3-1.8-4.8c-4.6-11.1-1.9-15.3,10-16.3
	C1609.6,677.7,1617.3,676.4,1625,675.4z"/>
<polygon class="st0" points="1614.7,184.2 1613.7,168.3 1559,168.3 1559,184.2 "/>
<rect x="1667.6" y="173" class="st39" width="14.7" height="6.1"/>
<rect x="1682.3" y="174.5" class="st40" width="1.7" height="3.5"/>
<rect x="1668.5" y="173.8" class="st40" width="6.9" height="4.3"/>
<text transform="matrix(1 0 0 1 1648.05 178.59)" class="st40 st41 st42">60%</text>
<path class="st39" d="M1638.4,174.7c1.6-1,3.6-1,5.2,0"/>
<path class="st39" d="M1639.4,176.2c1-0.6,2.3-0.6,3.3,0"/>
<path class="st39" d="M1640.1,177.4c0.6-0.4,1.4-0.4,2,0"/>
<circle class="st40" cx="1641.1" cy="178.7" r="0.4"/>
<text transform="matrix(1 0 0 1 1434.97 178.97)" class="st40 st41 st42">10:30 </text>
<text transform="matrix(1 0 0 1 1453.3099 178.97)" class="st40 st41 st42">A</text>
<text transform="matrix(1 0 0 1 1457.83 178.97)" class="st40 st41 st42">M</text>
<polygon class="st0" points="1525.9,801 1524.9,790.6 1470.3,790.6 1470.3,801 "/>
<rect x="1400.5" y="211" class="st0" width="10.4" height="502.2"/>
<rect x="1702.2" y="219.8" class="st0" width="9.4" height="446.4"/>
<g>
	<path d="M1536.8,718h-4.1v-1.5h10.1v1.5h-4.2v12.1h-1.8V718z"/>
	<path d="M1544.2,716.7c0.9-0.2,2.2-0.3,3.4-0.3c1.9,0,3.1,0.3,3.9,1.1c0.7,0.6,1.1,1.5,1.1,2.6c0,1.8-1.1,3-2.6,3.5v0.1
		c1,0.4,1.7,1.3,2,2.7c0.4,1.9,0.8,3.2,1,3.7h-1.8c-0.2-0.4-0.5-1.6-0.9-3.2c-0.4-1.9-1.1-2.6-2.7-2.6h-1.7v5.9h-1.8V716.7z
		 M1545.9,722.9h1.8c1.9,0,3.1-1,3.1-2.6c0-1.8-1.3-2.5-3.1-2.5c-0.8,0-1.5,0.1-1.7,0.2V722.9z"/>
	<path d="M1557.3,725.8l-1.4,4.3h-1.8l4.6-13.6h2.1l4.6,13.6h-1.9l-1.5-4.3H1557.3z M1561.8,724.4l-1.3-3.9
		c-0.3-0.9-0.5-1.7-0.7-2.5h0c-0.2,0.8-0.4,1.6-0.7,2.5l-1.3,3.9H1561.8z"/>
	<path d="M1576.7,729.6c-0.6,0.3-1.9,0.6-3.6,0.6c-3.8,0-6.7-2.4-6.7-6.9c0-4.3,2.9-7.1,7.1-7.1c1.7,0,2.8,0.4,3.2,0.6l-0.4,1.4
		c-0.7-0.3-1.6-0.6-2.7-0.6c-3.2,0-5.3,2-5.3,5.6c0,3.3,1.9,5.5,5.2,5.5c1.1,0,2.2-0.2,2.9-0.6L1576.7,729.6z"/>
	<path d="M1578.9,716.5h1.8v6.6h0.1c0.4-0.5,0.7-1,1.1-1.5l4.2-5.1h2.2l-4.9,5.8l5.3,7.8h-2.1l-4.5-6.7l-1.3,1.5v5.2h-1.8V716.5z"/>
</g>
</svg>
