<svg id="Layer_1" data-name="Layer 1" xmlns="http://www.w3.org/2000/svg" xmlns:xlink="http://www.w3.org/1999/xlink" viewBox="0 0 1000 500"><defs><style>.cls-1{opacity:0.9;}.cls-2,.cls-41,.cls-42,.cls-5{fill:none;}.cls-2{stroke:#fff;}.cls-2,.cls-3,.cls-4,.cls-41,.cls-42,.cls-44,.cls-5,.cls-6,.cls-65{stroke-miterlimit:10;}.cls-3,.cls-4,.cls-5,.cls-6,.cls-65{opacity:0.5;}.cls-3{fill:url(#linear-gradient);stroke:url(#linear-gradient-2);}.cls-4{fill:url(#linear-gradient-3);stroke:url(#linear-gradient-4);}.cls-5{stroke:#7a797c;}.cls-6{fill:url(#linear-gradient-5);stroke:url(#linear-gradient-6);}.cls-7{fill:#c2eb88;}.cls-8{fill:#af9b89;}.cls-9{fill:#9f8870;}.cls-10{fill:#c0b2a2;}.cls-11{fill:#c0b3a3;}.cls-12{fill:#c6bbab;}.cls-13{fill:#ad9e8e;}.cls-14{fill:#9b8a74;}.cls-15{fill:#9e9280;}.cls-16{fill:#f5f2e7;}.cls-17{fill:#4d4335;}.cls-18{fill:#a79888;}.cls-19{fill:#b4a293;}.cls-20{fill:#64523f;}.cls-21{fill:#5e4e3a;}.cls-22{fill:#a6988a;}.cls-23{fill:#5a4a3d;}.cls-24{fill:#544639;}.cls-25{fill:#6a5946;}.cls-26{fill:#a99a89;}.cls-27{fill:#a69889;}.cls-28{fill:#978673;}.cls-29{fill:#958674;}.cls-30{fill:#9d9186;}.cls-31{fill:#5e554c;}.cls-32{fill:#786e5f;}.cls-33{fill:#494138;}.cls-34{fill:#584a38;}.cls-35{fill:#655749;}.cls-36{fill:#4a423b;}.cls-37{fill:#1e1e1e;}.cls-38{fill:#282727;}.cls-39{fill:url(#linear-gradient-7);}.cls-40{fill:#4e4b51;}.cls-41{stroke:#7f7f7f;}.cls-42{stroke:orange;stroke-width:2px;}.cls-43{fill:#267edd;}.cls-44{fill:#7f7f7f;stroke:#474747;}.cls-45{fill:#ae0404;}.cls-46{fill:#da0304;}.cls-47{fill:#f40302;}.cls-48{fill:#da0405;}.cls-49{fill:orange;}.cls-50{fill:#40494c;}.cls-51{fill:#fa0101;}.cls-52{fill:#e6e5e5;}.cls-53{fill:#313131;}.cls-54{fill:#858f90;}.cls-55{fill:#080909;}.cls-56{fill:#8a0102;}.cls-57{fill:#989898;}.cls-58{fill:#fca703;}.cls-59{fill:#397786;}.cls-60{fill:#255c6f;}.cls-61{fill:#bbb;}.cls-62{fill:#111224;}.cls-63{fill:#ce191a;}.cls-64{fill:#881217;}.cls-65{fill:url(#linear-gradient-8);stroke:url(#linear-gradient-9);}.cls-66{fill:url(#radial-gradient);}.cls-67{fill:#f50101;}</style><linearGradient id="linear-gradient" x1="324.89" y1="203.48" x2="642.98" y2="203.48" gradientUnits="userSpaceOnUse"><stop offset="0"/><stop offset="1" stop-color="#662d91"/></linearGradient><linearGradient id="linear-gradient-2" x1="324.58" y1="203.48" x2="643.29" y2="203.48" gradientUnits="userSpaceOnUse"><stop offset="0"/><stop offset="1" stop-color="gray"/></linearGradient><linearGradient id="linear-gradient-3" x1="404.75" y1="300.68" x2="700.21" y2="300.68" xlink:href="#linear-gradient"/><linearGradient id="linear-gradient-4" x1="404.47" y1="300.68" x2="700.49" y2="300.68" xlink:href="#linear-gradient-2"/><linearGradient id="linear-gradient-5" x1="455.14" y1="353.54" x2="698.8" y2="353.54" gradientTransform="matrix(1.01, -0.01, -0.01, 1.01, -4.6, 4.17)" xlink:href="#linear-gradient"/><linearGradient id="linear-gradient-6" x1="454.86" y1="353.54" x2="699.08" y2="353.54" gradientTransform="matrix(1.01, -0.01, -0.01, 1.01, -4.6, 4.17)" xlink:href="#linear-gradient-2"/><linearGradient id="linear-gradient-7" x1="773.75" y1="243.1" x2="858.33" y2="243.1" gradientUnits="userSpaceOnUse"><stop offset="0" stop-color="#1a1a1a"/><stop offset="1" stop-color="#333"/></linearGradient><linearGradient id="linear-gradient-8" x1="350.57" y1="146.69" x2="657.97" y2="146.69" xlink:href="#linear-gradient"/><linearGradient id="linear-gradient-9" x1="350.26" y1="146.69" x2="658.28" y2="146.69" xlink:href="#linear-gradient-2"/><radialGradient id="radial-gradient" cx="848.79" cy="179.34" r="12.03" gradientUnits="userSpaceOnUse"><stop offset="0" stop-color="#4d4d4d"/><stop offset="0.06" stop-color="#4b4b4b"/><stop offset="1" stop-color="#323232"/></radialGradient></defs><image width="730" height="691" transform="translate(134.34 31.87) scale(1 0.67)" xlink:href="../../../../shipbay%20files/images/chapter-map.jpg"/><rect class="cls-1" width="1000" height="500"/><line class="cls-2" x1="785.93" y1="364.54" x2="779.38" y2="365.87"/><line class="cls-2" x1="750.67" y1="364.04" x2="744.11" y2="361.53"/><line class="cls-2" x1="762.61" y1="366.16" x2="756.06" y2="365.19"/><line class="cls-2" x1="774.81" y1="366.46" x2="767.49" y2="366.25"/><line class="cls-3" x1="324.89" y1="79.67" x2="642.98" y2="327.29"/><line class="cls-4" x1="700.21" y1="202.36" x2="404.75" y2="399.01"/><circle class="cls-5" cx="705.25" cy="197.8" r="6"/><line class="cls-6" x1="702.84" y1="266.37" x2="454.48" y2="437.87"/><circle class="cls-5" cx="707.18" cy="262.4" r="6"/><path class="cls-7" d="M605.42,325.65l.09.14Z" transform="translate(-0.66 0.87)"/><path class="cls-8" d="M649.66,297.55l0,.22c-.36,0-.44.21-.51.48s-.09.35-.12.53a.37.37,0,0,0,0,.18,2.21,2.21,0,0,1,.16.54c0,.5,0,1-.07,1.5s0,.76-.07,1.14,0,.95-.08,1.43c0,.08-.1.17-.15.25l-.15-.15-.16-1c-.11.06-.13.11-.14.15,0,.56-.07.57-.62.47a1.29,1.29,0,0,0-.51.05,1.59,1.59,0,0,1-1.54-.23c-.05.07-.14.13-.15.2a1.12,1.12,0,0,1-.77,1s0,0-.06,0a3.12,3.12,0,0,1-1.14.18c-.48-.11-.43-.18-.68.28-.13.24-.26.61-.71.5a.53.53,0,0,0-.44.28c0,.17-.31.44,0,.6v.15c-.22.17-.27.34,0,.53v.3c-.24.08-.12.15,0,.23V308s-.1.07-.1.1c-.07.7-.14,1.4-.17,2.09,0,.44.06.88,0,1.32s-.21.68-.69.79l-.27.06,0,.09,1,.57c-.12.15-.23.4-.41.48-.5.24-1.06.36-1.53.64s-.86.51-1.39.22c0,0-.11,0-.18,0,.25.29.22.39-.13.5-.15.05-.29.14-.44.2a5.68,5.68,0,0,1-1,.39,1,1,0,0,1-1-.26.28.28,0,0,0-.49.08c-.12.23,0,.34.19.42a1.65,1.65,0,0,1,.3.21c-.21.23-.38.35-.66.24a.35.35,0,0,0-.31.09.93.93,0,0,1-.88.46.67.67,0,0,0-.39.2.89.89,0,0,1-.68.24c-.36,0-.74-.07-1,.34,0,0-.19,0-.29,0s-.33,0-.38.25a.6.6,0,0,1-.89.3c-.19-.16-.25-.11-.33.11a.67.67,0,0,1-.36.38c-.8.14-1.37.86-2.21.85a.14.14,0,0,0-.1.05c-.08.32-.34.32-.59.35a1.42,1.42,0,0,0-.51.13c-.15.09-.26.32-.4.34s-.32-.28-.41-.24a.9.9,0,0,0-.52.43c-.1.23-.2.31-.44.3a3.56,3.56,0,0,0-.44.06l-.5.09v-.15l-.08-.23c-.07-1.28-.16-2.55-.22-3.83s-.11-2.48-.16-3.72l-.15-4-.08-.91c-.07-1.28-.18-2.56-.21-3.84,0-1.44,0-2.88-.17-4.31.53-.11,1.07-.2,1.59-.32.74-.17,1.47-.36,2.2-.57,1.06-.3,2.11-.63,3.17-.93l3.93-1.06c.17,0,.33-.11.5-.15.54-.13,1.09-.23,1.63-.37s1.36-.36,2-.56l3.37-1c.62-.17,1.23-.36,1.85-.52s1-.18,1.56-.33c.85-.23,1.68-.52,2.52-.77.68-.19,1.37-.36,2.05-.53l1.13-.27a2.33,2.33,0,0,1,0,.37c0,.46-.08.93-.12,1.39a2.38,2.38,0,0,1,0,.6,9.4,9.4,0,0,0,0,2.54S649.63,297.52,649.66,297.55Zm-23.11,21.79c.23-.07.55.12.56-.29,0-.11-.19-.32-.28-.31C626.5,318.75,626.51,319,626.55,319.34Z" transform="translate(-0.66 0.87)"/><path class="cls-9" d="M622.58,308.05c0,.31,0,.61.08.91-.08.12-.2.23-.21.35a1.87,1.87,0,0,0,0,.52c.08.5-.32,1-.66.74a4.27,4.27,0,0,1-1.09-.94c-.22-.28-.38-.45-.73-.29h0a13.05,13.05,0,0,0-.85-1.33.51.51,0,0,0-.68-.15.06.06,0,0,1-.06,0c-.26-.16-.3,0-.31.21v1.69c0,.5,0,1,0,1.49s0,1.09,0,1.64c0,.3,0,.57.34.76a4.22,4.22,0,0,0-.48.4.34.34,0,0,0,0,.52c.2-.36.3-.37.51,0l.11.15a.2.2,0,0,1,0,.07c-.27,0-.19.2-.17.39s-.1.24-.16.35a1.16,1.16,0,0,1-.2-.24,4.9,4.9,0,0,1-.21-.46,2.12,2.12,0,0,1-.64-.36c-.25-.19-.49-.39-.73-.59l-.08-.15-.15-.15h0l-.08-.08-.07-.07c0-.31-.21-.4-.46-.46v-.15a6.27,6.27,0,0,1-.29-.58.6.6,0,0,0-.84-.4h-.08c0-.42-.27-.68-.49-1s-.55-.43-.73-.71a2.57,2.57,0,0,0-1-1.07c-.09,0-.22-.16-.21-.22.1-.59-.67-.57-.71-1-.55-.06-.66-.66-1.11-.89s-.7-.93-1.18-1.29c0,0,0-.1,0-.14l-.6-.8-.05-.46a2.2,2.2,0,0,0,0-.36c0-.7-.1-1.39-.14-2.08,0-.3,0-.6,0-.9a2.36,2.36,0,0,0,0-.38c0-.09-.08-.19-.08-.28a10.56,10.56,0,0,0-.28-2.24,19.4,19.4,0,0,1-.18-2.41c0-.15,0-.3,0-.44,0-.47-.05-1-.1-1.42a1.82,1.82,0,0,0-.15-.9,1,1,0,0,1-.21-.71c0-.33,0-.67,0-1s-.05-.57-.07-.86c0-.07,0-.15,0-.22,0-.25,0-.49-.07-.74l.1,0-.44-.38v-.15l.52-.38,1.29,1c.56.43,1.12.88,1.68,1.32l2.55,2c0,.17.06.35.07.52,0,1.33.1,2.65.16,4a.84.84,0,0,0,.21.48c.4.41.84.78,1.25,1.18l1.87,1.87.37.35v-.49c-.05-1.18-.1-2.36-.16-3.53,0-.23-.06-.45,0-.67s-.17-.51.14-.68c.24.16.49.3.71.48,1.08.84,2.15,1.69,3.22,2.54l1.21,1c-.18.21-.36.42,0,.63,0,0,0,.11,0,.17,0,.6.07,1.19.12,1.79,0,.21.13.49,0,.61a.91.91,0,0,0,0,1,1.25,1.25,0,0,1,.09.51c0,.87,0,1.74,0,2.6A1.35,1.35,0,0,0,622.58,308.05ZM617,313.24l-.15.14.3.41.25-.2Z" transform="translate(-0.66 0.87)"/><path class="cls-10" d="M621.76,299.66l-1.21-1c-1.07-.85-2.14-1.7-3.22-2.54-.22-.18-.47-.32-.71-.48v-.21a1.13,1.13,0,0,1,.21-.12l.9-.19,1.53-.37c.4-.09.81-.14,1.2-.25s.8-.27,1.2-.38c.59-.16,1.19-.28,1.78-.44l1.45-.41,1.34-.34c.55-.13,1.11-.24,1.66-.38s.9-.25,1.35-.37l1.12-.25c.42-.11.84-.25,1.27-.35s.77-.18,1.15-.26l2-.43c.13,0,.25,0,.37-.08l1.78-.57c.23-.07.47-.12.71-.17l.72-.16c.55-.14,1.1-.25,1.65-.42s.88-.34,1.34-.48a8.85,8.85,0,0,1,1-.17c.65.28,1.31.56,1.95.86,1.81.83,3.61,1.68,5.4,2.53a1,1,0,0,1,.2.15l-.17.17-1.13.27c-.68.17-1.37.34-2.05.53-.84.25-1.67.54-2.52.77-.51.15-1,.21-1.56.33s-1.23.35-1.85.52l-3.37,1c-.67.2-1.35.39-2,.56s-1.09.24-1.63.37c-.17,0-.33.1-.5.15l-3.93,1.06c-1.06.3-2.11.63-3.17.93-.73.21-1.46.4-2.2.57-.52.12-1.06.21-1.59.31Z" transform="translate(-0.66 0.87)"/><path class="cls-11" d="M612.76,292.63l-2.55-2c-.56-.44-1.12-.89-1.68-1.32l-1.29-1-.4-.55,1.81-.35,4.67-.8,4.87-.8c1.42-.23,2.84-.49,4.26-.73l5.16-.85c1.18-.19,2.35-.41,3.53-.56a1.86,1.86,0,0,1,.89.24c1.94.9,3.88,1.83,5.83,2.75-.06.06-.1.16-.17.18l-1.74.49c-.41.11-.84.19-1.25.3s-.76.22-1.14.3c-.7.15-1.39.27-2.09.4l-1.78.36a4.93,4.93,0,0,0-1.15.26,14.72,14.72,0,0,1-2.76.71c-.89.24-1.82.35-2.73.56s-1.66.42-2.5.62c-.2,0-.43,0-.63.07l-3.16.8c-.75.18-1.52.34-2.28.5-.45.09-.91.17-1.36.27-.08,0-.14.14-.21.22Z" transform="translate(-0.66 0.87)"/><path class="cls-12" d="M612.91,292.71c.07-.08.13-.2.21-.22.45-.1.91-.18,1.36-.27.76-.16,1.53-.32,2.28-.5l3.16-.8c.2-.05.43,0,.63-.07.84-.2,1.67-.44,2.5-.62s1.84-.32,2.73-.56a14.72,14.72,0,0,0,2.76-.71,4.93,4.93,0,0,1,1.15-.26l1.78-.36c.7-.13,1.39-.25,2.09-.4.38-.08.76-.21,1.14-.3s.84-.19,1.25-.3l1.74-.49c.07,0,.11-.12.17-.18l.81.3,1.39.72,2.13,1a.7.7,0,0,1,.16.14,8.85,8.85,0,0,0-1,.17c-.46.14-.89.35-1.34.48s-1.1.28-1.65.42l-.72.16c-.24.05-.48.1-.71.17l-1.78.57c-.12,0-.24.05-.37.08l-2,.43c-.38.08-.77.16-1.15.26s-.85.24-1.27.35l-1.12.25c-.45.12-.9.26-1.35.37s-1.11.25-1.66.38l-1.34.34-1.45.41c-.59.16-1.19.28-1.78.44-.4.11-.79.27-1.2.38s-.8.16-1.2.25l-1.53.37-.9.19a1.13,1.13,0,0,0-.21.12.66.66,0,0,1-.25,0c-.41-.29-.82-.59-1.21-.9Z" transform="translate(-0.66 0.87)"/><path class="cls-13" d="M641.8,306.24c-.36-.16-.1-.43,0-.6a.53.53,0,0,1,.44-.28c.45.11.58-.26.71-.5.25-.46.2-.39.68-.28a3.12,3.12,0,0,0,1.14-.18s0,0,.06,0a1.12,1.12,0,0,0,.77-1c0-.07.1-.13.15-.2a1.59,1.59,0,0,0,1.54.23,1.29,1.29,0,0,1,.51-.05c.55.1.58.09.62-.47,0,0,0-.09.14-.15l.16,1,.15.15c0-.08.14-.17.15-.25,0-.48.06-1,.08-1.43s.05-.76.07-1.14.07-1,.07-1.5A2.21,2.21,0,0,0,649,299a.37.37,0,0,1,0-.18c0-.18.08-.35.12-.53s.15-.53.51-.48c-.08,1.27-.16,2.53-.25,3.8s-.18,2.28-.27,3.42l-.36,4.58a.82.82,0,0,0,0,.27c.12.65-.25.91-.8,1.14-2,.82-4,1.68-6,2.52l-7,3-8.86,3.8c-.87.37-1.74.73-2.6,1.11-.24.11-.35,0-.44-.19l.18-.31.5-.09a3.56,3.56,0,0,1,.44-.06c.24,0,.34-.07.44-.3a.9.9,0,0,1,.52-.43c.09,0,.28.26.41.24s.25-.25.4-.34a1.42,1.42,0,0,1,.51-.13c.25,0,.51,0,.59-.35a.14.14,0,0,1,.1-.05c.84,0,1.41-.71,2.21-.85a.67.67,0,0,0,.36-.38c.08-.22.14-.27.33-.11a.6.6,0,0,0,.89-.3c0-.24.18-.26.38-.25s.26,0,.29,0c.24-.41.62-.35,1-.34a.89.89,0,0,0,.68-.24.67.67,0,0,1,.39-.2.93.93,0,0,0,.88-.46.35.35,0,0,1,.31-.09c.28.11.45,0,.66-.24a1.65,1.65,0,0,0-.3-.21c-.23-.08-.31-.19-.19-.42a.28.28,0,0,1,.49-.08,1,1,0,0,0,1,.26,5.68,5.68,0,0,0,1-.39c.15-.06.29-.15.44-.2.35-.11.38-.21.13-.5.07,0,.14-.05.18,0,.53.29.93.05,1.39-.22s1-.4,1.53-.64c.18-.08.29-.33.41-.48l-1-.57,0-.09.27-.06c.48-.11.68-.31.69-.79s-.07-.88,0-1.32c0-.69.1-1.39.17-2.09,0,0,.06-.07.1-.1l-.06,2v2.88l.29-.08c.75-.34,1.51-.67,2.26-1,.2-.09.39-.21.59-.32l.64-.24c.52-.23,1-.45,1.56-.69.09,0,.15-.15.21-.22h0l.27-.08h0c.45,0,.42-.3.44-.58.1-1.31.2-2.63.29-3.94.05-.71.09-1.42.13-2.21l-3.13,1.14-1.89.66-.46.17c-.12,0-.24,0-.36.09C642.2,305.63,641.71,305.64,641.8,306.24Z" transform="translate(-0.66 0.87)"/><path class="cls-14" d="M623.27,320.91l-.18.31-1-1-.91-1-.76-.9-1-1.15-2.9-3.21.09-.17c.24.2.48.4.73.59a2.12,2.12,0,0,0,.64.36,4.9,4.9,0,0,0,.21.46,1.16,1.16,0,0,0,.2.24c.06-.11.17-.24.16-.35s-.1-.35.17-.39a2.28,2.28,0,0,0,.29.82c1,1.1,2,2.17,3,3.24.17.18.36.33.59.53,0-.6-.06-1.16-.09-1.72,0-1-.1-2.05-.14-3.07,0-.77,0-1.55-.09-2.33,0-.26-.09-.53-.13-.8a3.1,3.1,0,0,0-.27-.34c-.59-.57-1.18-1.14-1.78-1.7.35-.16.51,0,.73.29a4.27,4.27,0,0,0,1.09.94c.34.22.74-.24.66-.74a1.87,1.87,0,0,1,0-.52c0-.12.13-.23.21-.35l.15,4c.05,1.24.1,2.48.16,3.72s.15,2.55.22,3.83l.08.23Z" transform="translate(-0.66 0.87)"/><path class="cls-15" d="M606.73,288.85l.44.38-.1,0c0,.25,0,.49.07.74,0,.07,0,.15,0,.22,0,.29.06.57.07.86s0,.67,0,1a1,1,0,0,0,.21.71,1.82,1.82,0,0,1,.15.9c0,.47.07.95.1,1.42,0,.14,0,.29,0,.44a19.4,19.4,0,0,0,.18,2.41,10.56,10.56,0,0,1,.28,2.24c0,.09.07.19.08.28a2.36,2.36,0,0,1,0,.38c0,.3,0,.6,0,.9,0,.69.1,1.38.14,2.08a2.2,2.2,0,0,1,0,.36c-.08-.57-.17-1.14-.23-1.71q-.34-3.09-.67-6.18c-.19-1.72-.37-3.44-.55-5.17C606.87,290.37,606.8,289.61,606.73,288.85Z" transform="translate(-0.66 0.87)"/><path class="cls-15" d="M608.45,304.65l.6.8s0,.12,0,.14c.48.36.67,1,1.18,1.29s.56.83,1.11.89c0,.47.81.45.71,1,0,.06.12.18.21.22a2.57,2.57,0,0,1,1,1.07c.18.28.53.44.73.71s.53.54.49,1c-.29-.29-.59-.58-.87-.88l-4.26-4.69a7.69,7.69,0,0,0-.61-.66A1,1,0,0,1,608.45,304.65Z" transform="translate(-0.66 0.87)"/><path class="cls-13" d="M649.73,292.55l.17-.17c.05.12.14.23.13.34-.08,1.28-.17,2.55-.27,3.82,0,.34-.07.67-.1,1,0,0-.07-.07-.07-.1a9.4,9.4,0,0,1,0-2.54,2.38,2.38,0,0,0,0-.6c0-.46.09-.93.12-1.39A2.33,2.33,0,0,0,649.73,292.55Z" transform="translate(-0.66 0.87)"/><path class="cls-16" d="M619.35,317.18l1,1.15A1.13,1.13,0,0,1,619.35,317.18Z" transform="translate(-0.66 0.87)"/><path class="cls-14" d="M614.57,311.76a.6.6,0,0,1,.84.4,6.27,6.27,0,0,0,.29.58c-.16-.13-.31-.28-.48-.4a6,6,0,0,0-.53-.34l0,0Z" transform="translate(-0.66 0.87)"/><path class="cls-16" d="M621.16,319.23l.91,1c-.05,0-.11.09-.15.07A2.13,2.13,0,0,1,621.16,319.23Z" transform="translate(-0.66 0.87)"/><path class="cls-15" d="M606.84,287.77l.4.55-.52.38c0-.27-.07-.54-.08-.81C606.64,287.85,606.77,287.81,606.84,287.77Z" transform="translate(-0.66 0.87)"/><path class="cls-16" d="M640.06,287.69l-1.39-.72C639.14,287.19,639.8,287.05,640.06,287.69Z" transform="translate(-0.66 0.87)"/><path class="cls-15" d="M614.69,312a6,6,0,0,1,.53.34c.17.12.32.27.48.4v.3l0,0Z" transform="translate(-0.66 0.87)"/><path class="cls-15" d="M616.54,313.8l-.09.17-.78-.9,0,0,.45.31.07.07.08.08h0l.15.15Z" transform="translate(-0.66 0.87)"/><path class="cls-15" d="M614.57,311.76l.08.22-.16-.21Z" transform="translate(-0.66 0.87)"/><path class="cls-14" d="M621.76,299.66l.44.23c.13,1.44.14,2.88.17,4.32,0,1.28.14,2.56.21,3.84A1.35,1.35,0,0,1,622,307c0-.86,0-1.73,0-2.6a1.25,1.25,0,0,0-.09-.51.91.91,0,0,1,0-1c.1-.12,0-.4,0-.61,0-.6-.08-1.19-.12-1.79,0-.06,0-.15,0-.17C621.4,300.08,621.58,299.87,621.76,299.66Z" transform="translate(-0.66 0.87)"/><path class="cls-17" d="M641.8,306.24c-.09-.6.4-.61.76-.74.12,0,.24-.06.36-.09v.15a4.24,4.24,0,0,1-.52.2c-.29.07-.39.22-.39.53,0,.88,0,1.77-.07,2.65l.07.25-.08.75h-.22l.06-2v-1.06l0-.53Z" transform="translate(-0.66 0.87)"/><path class="cls-13" d="M626.55,319.34c0-.33,0-.59.28-.6.09,0,.28.2.28.31C627.1,319.46,626.78,319.27,626.55,319.34Z" transform="translate(-0.66 0.87)"/><path class="cls-13" d="M641.8,306.39l0,.53C641.53,306.73,641.58,306.56,641.8,306.39Z" transform="translate(-0.66 0.87)"/><path class="cls-13" d="M641.79,307.22v.23C641.67,307.37,641.55,307.3,641.79,307.22Z" transform="translate(-0.66 0.87)"/><path class="cls-13" d="M623.27,320.76l-.08-.23Z" transform="translate(-0.66 0.87)"/><path class="cls-18" d="M648.82,303.82l-.15-.15Z" transform="translate(-0.66 0.87)"/><path class="cls-19" d="M612.91,292.71l2.24,1.78c.39.31.8.61,1.21.9a.66.66,0,0,0,.25,0v.21c-.31.17-.13.45-.14.68s0,.44,0,.67c.06,1.17.11,2.35.16,3.53V301l-.37-.35-1.87-1.87c-.41-.4-.85-.77-1.25-1.18a.84.84,0,0,1-.21-.48c-.06-1.33-.11-2.65-.16-4,0-.17-.05-.35-.07-.52Z" transform="translate(-0.66 0.87)"/><path class="cls-14" d="M618.66,314.64l-.11-.15c-.21-.33-.31-.32-.51,0a.34.34,0,0,1,0-.52,4.22,4.22,0,0,1,.48-.4c-.39-.19-.35-.46-.34-.76,0-.55,0-1.09,0-1.64s0-1,0-1.49V308c0-.22,0-.37.31-.21l-.07.31c0,.29,0,.58,0,.87.09,1.52.19,3.05.28,4.57l.16.53Z" transform="translate(-0.66 0.87)"/><path class="cls-20" d="M618.66,314.64l.15-.54v-.21a6,6,0,0,1,.07.84,1,1,0,0,0,.12.6c.44.54.93,1,1.41,1.55,0,0,.08,0,.13-.05a2.64,2.64,0,0,0,.27.46c.3.34.62.66.92,1l.6.72v-.66l-.05-.24v-.52h.13l.09,1.72c-.23-.2-.42-.35-.59-.53-1-1.07-2-2.14-3-3.24a2.28,2.28,0,0,1-.29-.82A.2.2,0,0,0,618.66,314.64Z" transform="translate(-0.66 0.87)"/><path class="cls-21" d="M618.36,308.13l.07-.31a.06.06,0,0,0,.06,0l1.53,1.48h0c.6.56,1.19,1.13,1.78,1.7a3.1,3.1,0,0,1,.27.34H622c-.12-.09-.24-.17-.35-.27L620.39,310l-.09.05c0,.43.05.86.07,1.29h-.12a4.21,4.21,0,0,0,0-.71,2,2,0,0,0-.24-1,18.21,18.21,0,0,0-1.49-1.42Z" transform="translate(-0.66 0.87)"/><path class="cls-14" d="M620,309.33l-1.53-1.48a.51.51,0,0,1,.68.15A13.05,13.05,0,0,1,620,309.33Z" transform="translate(-0.66 0.87)"/><path class="cls-14" d="M617,313.24l.4.35-.25.2-.3-.41Z" transform="translate(-0.66 0.87)"/><path class="cls-14" d="M616.16,313.35l-.45-.31v-.15C616,313,616.17,313,616.16,313.35Z" transform="translate(-0.66 0.87)"/><path class="cls-14" d="M616.46,313.65l-.15-.15Z" transform="translate(-0.66 0.87)"/><path class="cls-14" d="M616.31,313.5l-.08-.08Z" transform="translate(-0.66 0.87)"/><path class="cls-22" d="M647.27,310.25h0l-1.77.75-.58.17c0-.12,0-.18,0-.24.05-.76.12-1.53.12-2.29,0-.41.05-.74.5-.85l.13,0,2.29-.86a1.08,1.08,0,0,1,0,.19c-.05.75-.1,1.5-.17,2.25,0,.3,0,.63-.27.84h0Zm-1.54-.37h0a.61.61,0,0,1,.19,0c.47.17.6.1.64-.4l.25.31.12-.22.36-.4.06.36h.11l.1-.62-.79-.19a.14.14,0,0,0,0-.06c.69,0,.71-.07.34-.9l-.34.43c-.24-.3-.32-.05-.39.13a1.22,1.22,0,0,0,0,.33l-.14-.46h-.1l-.19.59,0-.44-.29.08c-.09.05-.26.08-.27.13,0,.32-.06.65-.09,1v.76C645.52,310.22,645.77,310.21,645.73,309.88Z" transform="translate(-0.66 0.87)"/><path class="cls-23" d="M647.54,310.17c.29-.21.24-.54.27-.84.07-.75.12-1.5.17-2.25a1.08,1.08,0,0,0,0-.19l-2.29.86v-.15l2.05-.83a.37.37,0,0,0,.31-.4c0-.42.09-.84.12-1.27s0-.88.07-1.35l-2.86,1-.07-.14,3.13-1.14c0,.79-.08,1.5-.13,2.21-.09,1.31-.19,2.63-.29,3.94C648,309.87,648,310.21,647.54,310.17Z" transform="translate(-0.66 0.87)"/><path class="cls-24" d="M645.27,304.58l.07.14c0,.08-.13.16-.13.23-.05.94-.09,1.88-.13,2.85l.37-.1.07.09c-.45.11-.49.44-.5.85,0,.76-.07,1.53-.12,2.29,0,.06,0,.12,0,.24l.58-.17v.16l-.64.24-.16,0,.18-3.26-1.48.53,0-.13a5.51,5.51,0,0,1,.76-.31.89.89,0,0,0,.8-1c0-.76.07-1.51.11-2.33l-1.67.57v-.16Z" transform="translate(-0.66 0.87)"/><path class="cls-23" d="M644.7,311.36l.16,0c-.2.11-.39.23-.59.32-.75.35-1.51.68-2.26,1l-.29.08v-2.88h.22v2.59Z" transform="translate(-0.66 0.87)"/><path class="cls-23" d="M645.5,311.16V311l1.77-.75c-.06.07-.12.18-.21.22C646.55,310.71,646,310.93,645.5,311.16Z" transform="translate(-0.66 0.87)"/><path class="cls-23" d="M643.38,305.24v.16l-.45.16v-.15Z" transform="translate(-0.66 0.87)"/><path class="cls-23" d="M647.27,310.25l.27-.08Z" transform="translate(-0.66 0.87)"/><path class="cls-25" d="M622,311.39h.1c0,.27.11.54.13.8,0,.78,0,1.56.09,2.33,0,1,.09,2.05.14,3.07h-.13c0-.59-.09-1.19-.08-1.79a1,1,0,0,0-.4-.9,2.73,2.73,0,0,1-.23-.25l.1-.1.48.42Z" transform="translate(-0.66 0.87)"/><path class="cls-26" d="M644.7,311.36l-2.76,1.17v-2.59l.08-.75,1.38-.56,1.48-.53Zm-1.46-1.23c-.12.41.33,1-.52,1.18.27.23.47.2.59,0a1.32,1.32,0,0,0,0-1.18l1-.54c-.17-.42-.35-.52-.8-.42a1.61,1.61,0,0,0-1.18,1.32Z" transform="translate(-0.66 0.87)"/><path class="cls-27" d="M642.93,305.56l.45-.16,1.67-.57c0,.82-.13,1.57-.11,2.33a.89.89,0,0,1-.8,1,5.51,5.51,0,0,0-.76.31l-.67.23c-.25.08-.51.14-.76.21,0-.88.07-1.77.07-2.65,0-.31.1-.46.39-.53A4.24,4.24,0,0,0,642.93,305.56Zm1,1.84.11.08a1,1,0,0,0,.22-.37,3.17,3.17,0,0,1,.1-.84c.17-.33,0-.46-.19-.64C643.76,306.08,643.74,306.27,643.88,307.4ZM643,306c-.14.36-.38.59-.22,1a2.87,2.87,0,0,1,0,.93c.26,0,.38-.12.37-.38a1.81,1.81,0,0,1,0-.81C643.33,306.35,643.18,306.21,643,306Zm-.29,2.4.12.09c.41-.17.84-.32,1.24-.51.1-.05.14-.22.21-.34l-.1-.08c-.44.18-.88.34-1.31.54C642.76,308.1,642.74,308.25,642.68,308.36Z" transform="translate(-0.66 0.87)"/><path class="cls-23" d="M642,308.94c.25-.07.51-.13.76-.21l.67-.23,0,.13-1.38.56Z" transform="translate(-0.66 0.87)"/><path class="cls-28" d="M620.55,316.83s-.12.06-.13.05c-.48-.51-1-1-1.41-1.55a1,1,0,0,1-.12-.6,6,6,0,0,0-.07-.84v.21l-.16-.53c.3-.14.11-.38.12-.58,0-.39,0-.78,0-1.17L620,313h0l.39.75.14,2.88Zm-.76-2.59.31.25.13-.11c-.23-.41-.44-.84-.7-1.24a.45.45,0,0,0-.43-.08.29.29,0,0,0,0,.48c.17.17.33.37.5.56v.95l-.21-.14-.06,0,.29.5.12,0c0-.13,0-.27,0-.4S619.76,314.5,619.79,314.24Z" transform="translate(-0.66 0.87)"/><path class="cls-25" d="M618.81,311.82c0,.39,0,.78,0,1.17,0,.2.18.44-.12.58-.09-1.52-.19-3.05-.28-4.57,0-.29,0-.58,0-.87l.14.06c0,.7,0,1.4.09,2.09,0,.47.14.92.22,1.38Z" transform="translate(-0.66 0.87)"/><path class="cls-29" d="M621.59,314.64a2.73,2.73,0,0,0,.23.25,1,1,0,0,1,.4.9c0,.6,0,1.2.08,1.79,0,.13,0,.25,0,.38h-.14a1.8,1.8,0,0,0-.4-1.28v-.08l.27.09v-.82H622l-.06.11c-.09-.16-.16-.42-.33-.52a2.08,2.08,0,0,1-.5-.57,3.45,3.45,0,0,0-.26-.28l-.09,0,.06.88v.39c0-.11-.14-.21-.14-.33,0-.62-.08-1.25-.12-1.87a.68.68,0,0,1,.26.11Z" transform="translate(-0.66 0.87)"/><path class="cls-29" d="M620.55,316.83v-.23a1.49,1.49,0,0,0,.14-.24,2.34,2.34,0,0,0,.09-.38l.07.54.67.86.16-.25c.09.21.17.41.26.61l.12.3-.31.24c-.3-.33-.62-.65-.92-1A2.64,2.64,0,0,1,620.55,316.83Z" transform="translate(-0.66 0.87)"/><path class="cls-14" d="M621.74,318.28l.31-.24.1-.08h.14v.14l.05.24V319Z" transform="translate(-0.66 0.87)"/><path class="cls-28" d="M622.34,318.34l-.05-.24Z" transform="translate(-0.66 0.87)"/><path class="cls-28" d="M622,311.39l.2,3.57-.48-.42-1.23-1.34-.09-1.9L620.3,310l.09-.05,1.23,1.16C621.73,311.22,621.85,311.3,622,311.39Zm-.45,2.57.08.11,0-.05-.1-.08c-.13-.51-.25-.62-.65-.52Zm-.68-3.1-.15.05a2.55,2.55,0,0,0,.45,1.51c.05.07.16.17.24.16a.41.41,0,0,0,.24-.19.72.72,0,0,0-.46-1.05l0,.4Z" transform="translate(-0.66 0.87)"/><path class="cls-29" d="M618.81,311.66c-.08-.46-.18-.91-.22-1.38-.05-.69-.06-1.39-.09-2.09a18.21,18.21,0,0,1,1.49,1.42,2,2,0,0,1,.24,1,4.21,4.21,0,0,1,0,.71c0,.26,0,.52,0,.78s0,.65-.06,1L620,313h0Zm.9.17c.06-.06.17-.12.17-.19a9.07,9.07,0,0,0,0-1,8.39,8.39,0,0,0-.18-.84l-.12,0a1.63,1.63,0,0,0-.08.43c.05.54.13,1.08.19,1.63l-.59-.5-.13.14.87.95.14-.09Zm-.43-.73-.15-2A2.1,2.1,0,0,0,619.28,311.1Z" transform="translate(-0.66 0.87)"/><path class="cls-25" d="M620.24,313.06c0-.33.06-.65.06-1s0-.52,0-.78h.12l.09,1.9Z" transform="translate(-0.66 0.87)"/><path class="cls-30" d="M646.93,309.58l-.12.22-.25-.31,0-.34-.62.48c-.11-.32-.16.06-.25,0l-.22-.12h-.13c0-.32,0-.65.09-1,0-.05.18-.08.27-.13v.81l.83-.36.15,0a1.86,1.86,0,0,0,.08.41A2.18,2.18,0,0,0,646.93,309.58Z" transform="translate(-0.66 0.87)"/><path class="cls-31" d="M646.48,308.88l-.83.36v-.81l.29-.08,0,.44.19-.59h.1l.14.46Z" transform="translate(-0.66 0.87)"/><path class="cls-31" d="M646.93,309.58a2.18,2.18,0,0,1-.22-.31,1.86,1.86,0,0,1-.08-.41l.14-.13.79.19-.1.62h-.11l-.06-.36Z" transform="translate(-0.66 0.87)"/><path class="cls-31" d="M645.89,309.63l.62-.48,0,.34c0,.5-.17.57-.64.4a.61.61,0,0,0-.19,0Z" transform="translate(-0.66 0.87)"/><path class="cls-32" d="M646.79,308.2l.34-.43c.37.83.35.87-.34.9Z" transform="translate(-0.66 0.87)"/><path class="cls-23" d="M646.79,308.2v.47a.14.14,0,0,1,0,.06l-.14.13-.15,0-.08-.22a1.22,1.22,0,0,1,0-.33C646.47,308.15,646.55,307.9,646.79,308.2Z" transform="translate(-0.66 0.87)"/><path class="cls-33" d="M645.89,309.63l-.16.25h0l-.45.14c0-.16,0-.33,0-.49h.13l.22.12C645.73,309.69,645.78,309.31,645.89,309.63Z" transform="translate(-0.66 0.87)"/><path class="cls-23" d="M645.28,310l.45-.14c0,.33-.21.34-.45.41Z" transform="translate(-0.66 0.87)"/><path class="cls-24" d="M645.65,307.6v.15l-.13,0-.07-.09Z" transform="translate(-0.66 0.87)"/><path class="cls-18" d="M645.65,307.6l-.2.1-.37.1c0-1,.08-1.91.13-2.85,0-.07.09-.15.13-.23l2.86-1c0,.47,0,.91-.07,1.35s-.1.85-.12,1.27a.37.37,0,0,1-.31.4Zm1-1.08a.86.86,0,0,1,.3-.92,1.43,1.43,0,0,0,.57-1.14c-.5.17-1.08.12-1,.86-.24-.09-.22-.52-.54-.33a.48.48,0,0,0-.19.35c0,.44.33.55.66.61.17.49-.1.79-.46,1.07l.08.07,1.06-.41,0-.09Z" transform="translate(-0.66 0.87)"/><path class="cls-34" d="M620.24,313.06l.22.14,1.23,1.34-.1.1-.82-.81a.68.68,0,0,0-.26-.11h-.11L620,313Z" transform="translate(-0.66 0.87)"/><path class="cls-33" d="M643.24,310.13l-.87.32a1.61,1.61,0,0,1,1.18-1.32c.45-.1.63,0,.8.42l-1,.54Z" transform="translate(-0.66 0.87)"/><path class="cls-35" d="M643.24,310.13l.11,0a1.32,1.32,0,0,1,0,1.18c-.12.24-.32.27-.59,0C643.57,311.16,643.12,310.54,643.24,310.13Z" transform="translate(-0.66 0.87)"/><path class="cls-36" d="M643.88,307.4c-.14-1.13-.12-1.32.24-1.77.19.18.36.31.19.64a3.17,3.17,0,0,0-.1.84,1,1,0,0,1-.22.37Z" transform="translate(-0.66 0.87)"/><path class="cls-36" d="M643,306c.21.25.36.39.21.72a1.81,1.81,0,0,0,0,.81c0,.26-.11.36-.37.38a2.87,2.87,0,0,0,0-.93C642.59,306.55,642.83,306.32,643,306Z" transform="translate(-0.66 0.87)"/><path class="cls-33" d="M642.68,308.36c.06-.11.08-.26.16-.3.43-.2.87-.36,1.31-.54l.1.08c-.07.12-.11.29-.21.34-.4.19-.83.34-1.24.51Z" transform="translate(-0.66 0.87)"/><path class="cls-33" d="M619.58,314.1c-.17-.19-.33-.39-.5-.56a.29.29,0,0,1,0-.48.45.45,0,0,1,.43.08c.26.4.47.83.7,1.24l-.13.11-.31-.25Z" transform="translate(-0.66 0.87)"/><path class="cls-25" d="M620.4,313.72h.11c0,.62.07,1.25.12,1.87,0,.12.09.22.14.33V316a2.34,2.34,0,0,1-.09.38,1.49,1.49,0,0,1-.14.24C620.5,315.64,620.45,314.68,620.4,313.72Z" transform="translate(-0.66 0.87)"/><path class="cls-34" d="M618.81,311.66,620,313l-1.21-1.15Z" transform="translate(-0.66 0.87)"/><path class="cls-25" d="M619.58,314.1l.21.14c0,.26,0,.51-.07.77s0,.27,0,.4l-.12,0-.29-.5.06,0,.21.14Z" transform="translate(-0.66 0.87)"/><path class="cls-35" d="M620.78,315.53l-.06-.88.09,0a3.45,3.45,0,0,1,.26.28,2.08,2.08,0,0,0,.5.57c.17.1.24.36.33.52l.06-.11H622v.82l-.27-.09h0l-.76-.85-.11-.45Z" transform="translate(-0.66 0.87)"/><path class="cls-35" d="M621.67,317.13l-.16.25-.67-.86L621,316c.23.23.34.6.76.6h0v.08Z" transform="translate(-0.66 0.87)"/><path class="cls-20" d="M621.67,317.13l.08-.45a1.8,1.8,0,0,1,.4,1.28l-.1.08-.12-.3C621.84,317.54,621.76,317.34,621.67,317.13Z" transform="translate(-0.66 0.87)"/><path class="cls-32" d="M621,316l-.16.52-.07-.54v-.45l.11-.23.11.45Z" transform="translate(-0.66 0.87)"/><path class="cls-33" d="M620.84,310.86l.29.88,0-.4a.72.72,0,0,1,.46,1.05.41.41,0,0,1-.24.19c-.08,0-.19-.09-.24-.16a2.55,2.55,0,0,1-.45-1.51Z" transform="translate(-0.66 0.87)"/><path class="cls-24" d="M621.52,314l-.63-.54c.4-.1.52,0,.65.52Z" transform="translate(-0.66 0.87)"/><path class="cls-24" d="M621.54,313.94l.1.08,0,.05-.08-.11Z" transform="translate(-0.66 0.87)"/><path class="cls-34" d="M619.28,311.1a2.1,2.1,0,0,1-.15-2Z" transform="translate(-0.66 0.87)"/><path class="cls-24" d="M619.71,311.84c-.06-.55-.14-1.09-.19-1.63a1.63,1.63,0,0,1,.08-.43l.12,0a8.39,8.39,0,0,1,.18.84,9.07,9.07,0,0,1,0,1c0,.07-.11.13-.17.19Z" transform="translate(-0.66 0.87)"/><path class="cls-17" d="M619.71,311.83l.29.51-.14.09-.87-.95.13-.14.59.5Z" transform="translate(-0.66 0.87)"/><path class="cls-23" d="M645.64,309.65l-.22-.12Z" transform="translate(-0.66 0.87)"/><path class="cls-36" d="M646.66,306.52l.46.07,0,.09-1.06.41L646,307c.36-.28.63-.58.46-1.07-.33-.06-.67-.17-.66-.61A.48.48,0,0,1,646,305c.32-.19.3.24.54.33-.08-.74.5-.69,1-.86a1.43,1.43,0,0,1-.57,1.14A.86.86,0,0,0,646.66,306.52Z" transform="translate(-0.66 0.87)"/><path class="cls-29" d="M621,316v-.25c.25.28.5.57.76.85C621.34,316.6,621.23,316.23,621,316Z" transform="translate(-0.66 0.87)"/><path class="cls-7" d="M613.54,299.4l.06.1Z" transform="translate(-0.66 0.87)"/><path class="cls-8" d="M645,279.44v.16c-.25,0-.31.15-.36.34l-.09.38a.59.59,0,0,0,0,.13,1.27,1.27,0,0,1,.11.38c0,.35,0,.71,0,1.06s0,.54-.05.82,0,.67-.07,1c0,.06-.06.12-.1.18l-.11-.11-.11-.68c-.08.05-.1.08-.1.11,0,.4,0,.4-.44.33a.91.91,0,0,0-.36,0,1.16,1.16,0,0,1-1.1-.17c0,.05-.09.09-.1.14a.81.81,0,0,1-.55.72s0,0,0,0a2.18,2.18,0,0,1-.81.13c-.34-.08-.31-.13-.49.2-.09.17-.18.43-.5.35a.39.39,0,0,0-.31.2c0,.13-.22.32,0,.43v.1c-.15.12-.19.25,0,.38v.22c-.17.05-.09.1,0,.16v.37s-.07,0-.07.08c0,.49-.1,1-.12,1.48,0,.31,0,.62,0,.93s-.15.49-.49.57l-.18,0,0,.07.75.4c-.09.11-.17.28-.3.34-.35.17-.75.26-1.09.45s-.61.37-1,.16c0,0-.08,0-.13,0,.18.21.16.28-.09.36l-.32.14a3.62,3.62,0,0,1-.71.28.67.67,0,0,1-.71-.19.2.2,0,0,0-.35.06c-.09.17,0,.25.13.3a1.43,1.43,0,0,1,.22.15c-.15.16-.27.25-.47.17a.24.24,0,0,0-.22.06.67.67,0,0,1-.63.33.45.45,0,0,0-.27.14.66.66,0,0,1-.48.18c-.26,0-.53-.05-.7.23,0,0-.14,0-.21,0s-.23,0-.27.18a.42.42,0,0,1-.63.21c-.13-.11-.17-.08-.23.08s-.16.25-.26.27c-.57.1-1,.61-1.57.61l-.07,0c-.06.23-.24.22-.42.25a1.36,1.36,0,0,0-.36.09c-.11.06-.18.23-.29.24s-.22-.2-.29-.17a.67.67,0,0,0-.37.31c-.07.16-.14.22-.31.21a1.81,1.81,0,0,0-.31.05l-.36.06v-.11l-.05-.16c-.06-.91-.12-1.81-.16-2.72s-.08-1.76-.11-2.64-.07-1.91-.11-2.86l0-.64c-.06-.91-.13-1.82-.16-2.74s0-2-.11-3.06c.37-.07.75-.13,1.13-.22l1.55-.4,2.26-.67,2.79-.75.35-.11c.39-.09.78-.16,1.16-.26l1.44-.39,2.4-.69c.43-.13.87-.26,1.31-.37s.74-.14,1.11-.24c.6-.16,1.19-.37,1.79-.54s1-.26,1.46-.38l.8-.19a1.1,1.1,0,0,1,0,.26c0,.33,0,.66-.08,1a2,2,0,0,1,0,.42,6.46,6.46,0,0,0,0,1.81S644.94,279.42,645,279.44Zm-16.41,15.48c.17-.05.4.09.4-.2,0-.08-.13-.23-.19-.23C628.51,294.51,628.52,294.69,628.54,294.92Z" transform="translate(-0.66 0.87)"/><path class="cls-9" d="M625.73,286.91l0,.64c0,.08-.14.16-.15.25a1.2,1.2,0,0,0,0,.37c.05.35-.23.68-.47.52a3,3,0,0,1-.78-.67c-.15-.19-.27-.31-.51-.2h0a9.33,9.33,0,0,0-.6-.94.36.36,0,0,0-.48-.11l-.05,0c-.18-.12-.21,0-.21.15,0,.4,0,.8,0,1.2s0,.71,0,1.06,0,.77,0,1.16c0,.21,0,.41.24.54a3.62,3.62,0,0,0-.34.29.24.24,0,0,0,0,.37c.14-.26.21-.26.36,0a.39.39,0,0,0,.08.1.07.07,0,0,1,0,.05c-.19,0-.13.15-.12.28s-.07.17-.11.25a.58.58,0,0,1-.14-.17,3.31,3.31,0,0,1-.15-.33,1.58,1.58,0,0,1-.46-.25l-.52-.42,0-.11-.11-.11h0l0,0-.06-.05c0-.22-.14-.29-.32-.33v-.1a3.29,3.29,0,0,1-.21-.42.42.42,0,0,0-.59-.28H620c0-.3-.2-.49-.35-.69s-.39-.3-.52-.5a1.87,1.87,0,0,0-.69-.76c-.06,0-.15-.11-.15-.16.08-.41-.47-.4-.5-.74-.39,0-.47-.46-.79-.63s-.49-.66-.84-.91c0,0,0-.07,0-.1l-.42-.57,0-.33a1.09,1.09,0,0,0,0-.26c0-.49-.07-1-.1-1.47,0-.21,0-.43,0-.64a2.45,2.45,0,0,0,0-.27c0-.07-.06-.13-.06-.2a7.76,7.76,0,0,0-.19-1.59,13.91,13.91,0,0,1-.13-1.71c0-.11,0-.21,0-.31,0-.34,0-.68-.06-1a1.41,1.41,0,0,0-.11-.64.7.7,0,0,1-.15-.51c0-.23,0-.47,0-.71s0-.4,0-.6v-.16c0-.18,0-.35,0-.53h.07l-.31-.27v-.11l.37-.27.91.68,1.2.94,1.81,1.44c0,.13,0,.25,0,.37,0,.94.07,1.89.11,2.83a.59.59,0,0,0,.15.34c.29.29.6.56.89.84l1.33,1.32.26.25v-.35c0-.83-.07-1.67-.11-2.5a3.88,3.88,0,0,1,0-.48c0-.16-.12-.36.1-.48.17.11.35.22.51.34l2.28,1.81.86.71c-.13.15-.26.29,0,.44,0,0,0,.08,0,.12l.09,1.27c0,.15.09.35,0,.44a.62.62,0,0,0,0,.7,1.43,1.43,0,0,1,.06.36c0,.62,0,1.24,0,1.85A1,1,0,0,0,625.73,286.91Zm-4,3.68-.1.1.21.29.18-.14Z" transform="translate(-0.66 0.87)"/><path class="cls-10" d="M625.14,281l-.86-.71L622,278.43c-.16-.12-.34-.23-.51-.34v-.15a.48.48,0,0,1,.16-.08l.63-.14,1.09-.26c.28-.07.57-.1.85-.18s.57-.19.86-.27l1.25-.31c.35-.09.69-.2,1-.3l.95-.23,1.18-.27c.32-.08.64-.19,1-.27s.53-.11.79-.18l.91-.25L633,275l1.41-.3a2,2,0,0,0,.26-.06l1.26-.4.51-.13.51-.11c.39-.1.78-.18,1.17-.29s.63-.25.95-.35.49-.08.74-.12l1.38.61,3.84,1.8a.67.67,0,0,1,.14.11l-.12.12-.8.19c-.49.12-1,.24-1.46.38s-1.19.38-1.79.54c-.37.1-.74.15-1.11.24s-.88.24-1.31.37l-2.4.69-1.44.39c-.38.1-.77.17-1.16.26l-.35.11-2.79.75-2.26.67-1.55.4c-.38.09-.76.15-1.13.22Z" transform="translate(-0.66 0.87)"/><path class="cls-11" d="M618.75,276l-1.81-1.44-1.2-.94-.91-.68-.28-.39,1.28-.25,3.32-.57,3.45-.56,3-.52,3.67-.61c.83-.13,1.67-.28,2.51-.39a1.17,1.17,0,0,1,.62.16l4.14,2s-.07.11-.11.12c-.41.13-.83.24-1.24.35l-.89.22-.81.21-1.48.29-1.26.25a3.51,3.51,0,0,0-.82.19,11,11,0,0,1-2,.5c-.64.17-1.3.25-1.94.4s-1.18.29-1.78.44c-.14,0-.3,0-.45.05l-2.24.56c-.53.13-1.08.25-1.62.36l-1,.19s-.1.1-.15.16Z" transform="translate(-0.66 0.87)"/><path class="cls-12" d="M618.85,276c0-.06.1-.14.15-.16l1-.19c.54-.11,1.09-.23,1.62-.36l2.24-.56c.15,0,.31,0,.45-.05.6-.15,1.18-.31,1.78-.44s1.3-.23,1.94-.4a11,11,0,0,0,2-.5,3.51,3.51,0,0,1,.82-.19l1.26-.25,1.48-.29.81-.21.89-.22c.41-.11.83-.22,1.24-.35,0,0,.08-.08.11-.12l.58.22,1,.5,1.51.72a.53.53,0,0,1,.12.1c-.25,0-.5.06-.74.12s-.63.25-.95.35-.78.19-1.17.29l-.51.11-.51.13-1.26.4a2,2,0,0,1-.26.06L633,275l-.81.18-.91.25c-.26.07-.53.12-.79.18s-.64.19-1,.27l-1.18.27-.95.23c-.35.1-.69.21-1,.3l-1.25.31c-.29.08-.57.2-.86.27s-.57.11-.85.18l-1.09.26-.63.14a.48.48,0,0,0-.16.08.52.52,0,0,1-.18,0l-.85-.64Z" transform="translate(-0.66 0.87)"/><path class="cls-13" d="M639.38,285.62c-.26-.11-.08-.3,0-.43a.39.39,0,0,1,.31-.2c.32.08.41-.18.5-.35.18-.33.15-.28.49-.2a2.18,2.18,0,0,0,.81-.13s0,0,0,0a.81.81,0,0,0,.55-.72c0-.05.07-.09.1-.14a1.16,1.16,0,0,0,1.1.17.91.91,0,0,1,.36,0c.39.07.41.07.44-.33,0,0,0-.06.1-.11l.11.68.11.11c0-.06.1-.12.1-.18,0-.34,0-.68.07-1s0-.55.05-.82,0-.71,0-1.06a1.27,1.27,0,0,0-.11-.38.59.59,0,0,1,0-.13l.09-.38c0-.19.11-.37.36-.34-.06.9-.11,1.8-.17,2.7s-.13,1.62-.2,2.43c-.08,1.09-.17,2.17-.25,3.26a.55.55,0,0,0,0,.18c.08.47-.18.65-.57.81l-4.23,1.8-5,2.12-6.3,2.7-1.84.79c-.17.08-.25,0-.31-.13l.12-.22.36-.06a1.81,1.81,0,0,1,.31-.05c.17,0,.24-.05.31-.21a.67.67,0,0,1,.37-.31c.07,0,.21.18.29.17s.18-.18.29-.24a1.36,1.36,0,0,1,.36-.09c.18,0,.36,0,.42-.25l.07,0c.6,0,1-.51,1.57-.61.1,0,.21-.16.26-.27s.1-.19.23-.08a.42.42,0,0,0,.63-.21c0-.17.13-.18.27-.18s.19,0,.21,0c.17-.28.44-.24.7-.23a.66.66,0,0,0,.48-.18.45.45,0,0,1,.27-.14.67.67,0,0,0,.63-.33.24.24,0,0,1,.22-.06c.2.08.32,0,.47-.17a1.43,1.43,0,0,0-.22-.15c-.16-.05-.22-.13-.13-.3a.2.2,0,0,1,.35-.06.67.67,0,0,0,.71.19,3.62,3.62,0,0,0,.71-.28l.32-.14c.25-.08.27-.15.09-.36,0,0,.1,0,.13,0,.37.21.66,0,1-.16s.74-.28,1.09-.45c.13-.06.21-.23.3-.34l-.75-.4,0-.07.18,0c.34-.08.48-.22.49-.57s-.05-.62,0-.93c0-.49.07-1,.12-1.48,0,0,0-.05.07-.08l0,1.4v2a.68.68,0,0,0,.2-.06l1.61-.72c.14-.06.28-.15.42-.22l.45-.18,1.11-.49c.06,0,.1-.1.15-.16h0l.19-.06h0c.32,0,.3-.21.31-.41.08-.93.15-1.87.21-2.8,0-.51.06-1,.09-1.57l-2.22.81-1.35.47-.32.12a2.27,2.27,0,0,0-.25.06C639.66,285.19,639.31,285.19,639.38,285.62Z" transform="translate(-0.66 0.87)"/><path class="cls-14" d="M626.21,296l-.12.22-.73-.72-.65-.7-.53-.63-.75-.82-2.06-2.28.06-.12.52.42a1.58,1.58,0,0,0,.46.25,3.31,3.31,0,0,0,.15.33.58.58,0,0,0,.14.17c0-.08.12-.17.11-.25s-.07-.25.12-.28a1.8,1.8,0,0,0,.21.59c.69.78,1.41,1.54,2.12,2.3.12.12.26.23.42.38,0-.43,0-.83-.06-1.23,0-.72-.07-1.45-.11-2.18,0-.55,0-1.1-.06-1.65a5.62,5.62,0,0,0-.09-.57c-.06-.08-.12-.17-.19-.25l-1.26-1.2c.24-.11.36,0,.51.2a3,3,0,0,0,.78.67c.24.16.52-.17.47-.52a1.2,1.2,0,0,1,0-.37c0-.09.1-.17.15-.25,0,.95.07,1.9.11,2.86s.06,1.76.11,2.64.1,1.81.16,2.72l.05.16Z" transform="translate(-0.66 0.87)"/><path class="cls-15" d="M614.47,273.27l.31.27h-.07c0,.18,0,.35,0,.53v.16c0,.2,0,.4,0,.6s0,.48,0,.71a.7.7,0,0,0,.15.51,1.41,1.41,0,0,1,.11.64c0,.33,0,.67.06,1,0,.1,0,.2,0,.31a13.91,13.91,0,0,0,.13,1.71,7.76,7.76,0,0,1,.19,1.59c0,.07,0,.13.06.2a2.45,2.45,0,0,1,0,.27c0,.21,0,.43,0,.64,0,.49.07,1,.1,1.47a1.09,1.09,0,0,1,0,.26c0-.4-.12-.81-.16-1.21l-.48-4.39-.39-3.67Z" transform="translate(-0.66 0.87)"/><path class="cls-15" d="M615.69,284.49l.42.57s0,.08,0,.1c.35.25.48.72.84.91s.4.59.79.63c0,.34.58.33.5.74,0,.05.09.13.15.16a1.87,1.87,0,0,1,.69.76c.13.2.38.31.52.5s.38.39.35.69l-.62-.63-3-3.33c-.15-.16-.28-.33-.44-.47A.66.66,0,0,1,615.69,284.49Z" transform="translate(-0.66 0.87)"/><path class="cls-13" d="M645,275.9l.12-.12a.78.78,0,0,1,.09.24c-.06.9-.12,1.81-.19,2.71,0,.24,0,.48-.08.71,0,0,0,0,0-.06a6.46,6.46,0,0,1,0-1.81,2,2,0,0,0,0-.42c0-.33.06-.66.08-1A1.1,1.1,0,0,0,645,275.9Z" transform="translate(-0.66 0.87)"/><path class="cls-16" d="M623.43,293.39l.75.82A.82.82,0,0,1,623.43,293.39Z" transform="translate(-0.66 0.87)"/><path class="cls-14" d="M620,289.54a.42.42,0,0,1,.59.28,3.29,3.29,0,0,0,.21.42l-.35-.29c-.12-.09-.24-.16-.37-.24s0,0,0,0Z" transform="translate(-0.66 0.87)"/><path class="cls-16" d="M624.71,294.84l.65.7s-.08.06-.11,0A1.65,1.65,0,0,1,624.71,294.84Z" transform="translate(-0.66 0.87)"/><path class="cls-15" d="M614.55,272.5l.28.39-.37.27c0-.19-.05-.38-.06-.57C614.4,272.56,614.5,272.53,614.55,272.5Z" transform="translate(-0.66 0.87)"/><path class="cls-16" d="M638.14,272.44l-1-.5C637.49,272.09,638,272,638.14,272.44Z" transform="translate(-0.66 0.87)"/><path class="cls-15" d="M620.12,289.71c.13.08.25.15.37.24l.35.29v.21l0,0Z" transform="translate(-0.66 0.87)"/><path class="cls-15" d="M621.43,291l-.06.12-.55-.64,0,0,.32.22.06.05,0,0h0l.11.11Z" transform="translate(-0.66 0.87)"/><path class="cls-15" d="M620,289.54l.05.15-.11-.15Z" transform="translate(-0.66 0.87)"/><path class="cls-14" d="M625.14,281l.32.16c.09,1,.09,2,.11,3.06s.1,1.83.16,2.74a1,1,0,0,1-.43-.78c0-.61,0-1.23,0-1.85a1.43,1.43,0,0,0-.06-.36.62.62,0,0,1,0-.7c.06-.09,0-.29,0-.44l-.09-1.27s0-.11,0-.12C624.88,281.24,625,281.1,625.14,281Z" transform="translate(-0.66 0.87)"/><path class="cls-17" d="M639.38,285.62c-.07-.43.28-.43.54-.53a2.27,2.27,0,0,1,.25-.06v.11c-.12,0-.24.11-.37.14a.32.32,0,0,0-.27.37c0,.63,0,1.26,0,1.89l0,.18-.06.53h-.15l0-1.4v-1.23Z" transform="translate(-0.66 0.87)"/><path class="cls-13" d="M628.54,294.92c0-.23,0-.41.21-.43.06,0,.19.15.19.23C628.94,295,628.71,294.87,628.54,294.92Z" transform="translate(-0.66 0.87)"/><path class="cls-13" d="M639.37,285.72v.38C639.18,286,639.22,285.84,639.37,285.72Z" transform="translate(-0.66 0.87)"/><path class="cls-13" d="M639.37,286.32v.16C639.28,286.42,639.2,286.37,639.37,286.32Z" transform="translate(-0.66 0.87)"/><path class="cls-13" d="M626.21,295.93l-.05-.16Z" transform="translate(-0.66 0.87)"/><path class="cls-18" d="M644.36,283.9l-.11-.11Z" transform="translate(-0.66 0.87)"/><path class="cls-19" d="M618.85,276l1.6,1.26.85.64a.52.52,0,0,0,.18,0v.15c-.22.12-.09.32-.1.48a3.88,3.88,0,0,0,0,.48c0,.83.07,1.67.11,2.5v.35l-.26-.25L620,280.33c-.29-.28-.6-.55-.89-.84a.59.59,0,0,1-.15-.34c0-.94-.07-1.89-.11-2.83,0-.12,0-.24,0-.37Z" transform="translate(-0.66 0.87)"/><path class="cls-14" d="M622.94,291.58a.39.39,0,0,1-.08-.1c-.15-.23-.22-.23-.36,0a.24.24,0,0,1,0-.37,3.62,3.62,0,0,1,.34-.29c-.28-.13-.25-.33-.24-.54,0-.39,0-.77,0-1.16s0-.7,0-1.06,0-.8,0-1.2c0-.16,0-.27.21-.15l0,.22c0,.2,0,.41,0,.62l.21,3.25.1.37Z" transform="translate(-0.66 0.87)"/><path class="cls-20" d="M622.94,291.58l.1-.38v-.14a2.88,2.88,0,0,1,.05.59.79.79,0,0,0,.09.42c.31.39.66.74,1,1.11l.09,0a1.61,1.61,0,0,0,.2.33c.21.24.43.46.65.7l.43.51v-.47l0-.17v-.37h.1l.06,1.23c-.16-.15-.3-.26-.42-.38-.71-.76-1.43-1.52-2.12-2.3a1.8,1.8,0,0,1-.21-.59A.07.07,0,0,0,622.94,291.58Z" transform="translate(-0.66 0.87)"/><path class="cls-21" d="M622.73,287l0-.22.05,0,1.08,1.05h0l1.26,1.2c.07.08.13.17.19.25h-.07c-.08-.06-.17-.11-.25-.18l-.87-.83-.06,0c0,.31,0,.62,0,.92h-.08a2.79,2.79,0,0,0,0-.5,1.54,1.54,0,0,0-.16-.7c-.32-.37-.71-.67-1.06-1Z" transform="translate(-0.66 0.87)"/><path class="cls-14" d="M623.9,287.81l-1.08-1.05a.36.36,0,0,1,.48.11A9.33,9.33,0,0,1,623.9,287.81Z" transform="translate(-0.66 0.87)"/><path class="cls-14" d="M621.72,290.59l.29.25-.18.14-.21-.29Z" transform="translate(-0.66 0.87)"/><path class="cls-14" d="M621.16,290.67l-.32-.22v-.11C621,290.38,621.17,290.45,621.16,290.67Z" transform="translate(-0.66 0.87)"/><path class="cls-14" d="M621.38,290.88l-.11-.11Z" transform="translate(-0.66 0.87)"/><path class="cls-14" d="M621.27,290.77l0,0Z" transform="translate(-0.66 0.87)"/><path class="cls-22" d="M643.26,288.47h0L642,289l-.41.12c0-.08,0-.13,0-.17,0-.54.08-1.08.08-1.63,0-.29,0-.52.36-.6l.09,0,1.62-.61a.53.53,0,0,1,0,.13c0,.54-.06,1.07-.12,1.61,0,.2,0,.44-.19.59h0Zm-1.09-.27h.13c.33.12.43.07.46-.28l.17.21L643,288l.25-.28.05.25h.07l.07-.43-.55-.14s0,0,0-.05c.49,0,.5,0,.24-.63l-.24.3c-.17-.21-.23,0-.28.09a1,1,0,0,0,0,.24l-.1-.33h-.07l-.13.42,0-.31-.21.06c-.07,0-.19.05-.19.09,0,.22,0,.46-.07.68v.55C642,288.45,642.2,288.44,642.17,288.2Z" transform="translate(-0.66 0.87)"/><path class="cls-23" d="M643.45,288.41c.21-.15.17-.39.19-.59.06-.54.09-1.07.12-1.61a.53.53,0,0,0,0-.13l-1.62.61v-.1l1.46-.59a.29.29,0,0,0,.22-.29c0-.3.06-.6.08-.9s0-.63,0-1l-2,.69,0-.1,2.22-.81c0,.56,0,1.06-.09,1.57-.06.93-.13,1.87-.21,2.8C643.75,288.2,643.77,288.44,643.45,288.41Z" transform="translate(-0.66 0.87)"/><path class="cls-24" d="M641.84,284.44l0,.1c0,.06-.09.11-.09.17,0,.66-.07,1.33-.1,2l.27-.06,0,.06c-.32.08-.35.31-.36.6,0,.55,0,1.09-.08,1.63,0,0,0,.09,0,.17L642,289v.11l-.45.18-.11,0,.12-2.32-1,.38,0-.09A2.91,2.91,0,0,1,641,287a.63.63,0,0,0,.57-.73c0-.54,0-1.07.07-1.65l-1.18.4v-.11Z" transform="translate(-0.66 0.87)"/><path class="cls-23" d="M641.44,289.26l.11,0c-.14.07-.28.16-.42.22l-1.61.72a.68.68,0,0,1-.2.06v-2h.15v1.83Z" transform="translate(-0.66 0.87)"/><path class="cls-23" d="M642,289.11V289l1.26-.54c0,.06-.09.14-.15.16Z" transform="translate(-0.66 0.87)"/><path class="cls-23" d="M640.49,284.91V285l-.33.12V285Z" transform="translate(-0.66 0.87)"/><path class="cls-23" d="M643.26,288.47l.19-.06Z" transform="translate(-0.66 0.87)"/><path class="cls-25" d="M625.29,289.27h.07a5.62,5.62,0,0,1,.09.57c0,.55,0,1.1.06,1.65,0,.73.07,1.46.11,2.18h-.1c0-.42-.06-.84,0-1.27a.73.73,0,0,0-.28-.64c-.07-.05-.11-.12-.17-.17l.07-.07.34.29Z" transform="translate(-0.66 0.87)"/><path class="cls-26" d="M641.44,289.26l-2,.82v-1.83l.06-.53,1-.4,1-.38Zm-1-.88c-.09.29.23.74-.37.84.19.16.33.14.42,0a1,1,0,0,0,0-.84l.71-.38a.41.41,0,0,0-.57-.3,1.14,1.14,0,0,0-.84.94Z" transform="translate(-0.66 0.87)"/><path class="cls-27" d="M640.17,285.14l.33-.12,1.18-.4c0,.58-.09,1.11-.07,1.65a.63.63,0,0,1-.57.73,2.91,2.91,0,0,0-.55.23l-.47.16-.54.15c0-.63,0-1.26,0-1.89a.32.32,0,0,1,.27-.37C639.93,285.25,640.05,285.18,640.17,285.14Zm.68,1.3.08.06c.05-.09.14-.17.16-.26a2.31,2.31,0,0,1,.06-.6c.13-.24,0-.33-.13-.46C640.77,285.51,640.75,285.64,640.85,286.44Zm-.65-1c-.09.25-.27.42-.15.7a2,2,0,0,1,0,.65c.19,0,.27-.08.27-.26a1.24,1.24,0,0,1,0-.58C640.46,285.7,640.35,285.6,640.2,285.42Zm-.2,1.7.08.06c.3-.11.6-.22.89-.36.07,0,.09-.15.14-.24l-.06-.05c-.32.12-.63.24-.94.38C640.06,286.94,640,287.05,640,287.12Z" transform="translate(-0.66 0.87)"/><path class="cls-23" d="M639.48,287.54l.54-.15.47-.16,0,.09-1,.4Z" transform="translate(-0.66 0.87)"/><path class="cls-28" d="M624.28,293.14l-.09,0c-.34-.37-.69-.72-1-1.11a.79.79,0,0,1-.09-.42,2.88,2.88,0,0,0-.05-.59v.14l-.1-.37c.21-.1.07-.28.08-.42l0-.83.85.82h0l.28.53.1,2.05Zm-.54-1.84.22.18.1-.08c-.17-.29-.32-.6-.5-.88a.34.34,0,0,0-.31-.06.2.2,0,0,0,0,.34l.35.4v.67l-.14-.09-.05,0,.21.36.08,0a2.8,2.8,0,0,1,0-.29C623.7,291.66,623.72,291.48,623.74,291.3Z" transform="translate(-0.66 0.87)"/><path class="cls-25" d="M623.05,289.58l0,.83c0,.14.13.32-.08.42l-.21-3.25c0-.21,0-.42,0-.62l.1,0c0,.5,0,1,.06,1.49,0,.33.1.65.16,1Z" transform="translate(-0.66 0.87)"/><path class="cls-29" d="M625,291.59c.06.05.1.12.17.17a.73.73,0,0,1,.28.64c0,.43,0,.85,0,1.27v.27h-.1a1.26,1.26,0,0,0-.29-.91V293l.19.07v-.58h-.05l0,.09c-.07-.12-.12-.3-.23-.37a1.38,1.38,0,0,1-.36-.41l-.18-.2-.07,0c0,.21,0,.42.05.62v.29a.62.62,0,0,1-.1-.24c0-.44-.06-.89-.08-1.33a1,1,0,0,1,.18.08C624.64,291.2,624.83,291.39,625,291.59Z" transform="translate(-0.66 0.87)"/><path class="cls-29" d="M624.28,293.14V293a1,1,0,0,0,.1-.18,2,2,0,0,0,.06-.26l0,.38.47.61.12-.17.18.43.09.21-.22.17c-.22-.24-.44-.46-.65-.7A1.61,1.61,0,0,1,624.28,293.14Z" transform="translate(-0.66 0.87)"/><path class="cls-14" d="M625.13,294.17l.22-.17.07-.06h.1v.1l0,.17v.47Z" transform="translate(-0.66 0.87)"/><path class="cls-28" d="M625.56,294.21l0-.17Z" transform="translate(-0.66 0.87)"/><path class="cls-28" d="M625.29,289.27l.14,2.54-.34-.29-.87-1-.07-1.35,0-.92.06,0,.87.83C625.12,289.16,625.21,289.21,625.29,289.27ZM625,291.1l.06.08,0,0-.07-.07c-.1-.36-.18-.43-.47-.36Zm-.48-2.2-.11,0a1.79,1.79,0,0,0,.32,1.07c0,.05.12.12.17.11A.26.26,0,0,0,625,290a.51.51,0,0,0-.32-.74l0,.28Z" transform="translate(-0.66 0.87)"/><path class="cls-29" d="M623.05,289.47c-.06-.33-.13-.65-.16-1,0-.49,0-1-.06-1.49.35.34.74.64,1.06,1a1.54,1.54,0,0,1,.16.7,2.79,2.79,0,0,1,0,.5,5.25,5.25,0,0,1,0,.56c0,.23,0,.46,0,.69l-.16-.06h0Zm.64.12s.11-.09.12-.13a6.26,6.26,0,0,0,0-.75c0-.2-.09-.39-.13-.59h-.08a1.13,1.13,0,0,0-.06.31c0,.38.09.77.14,1.15l-.42-.35-.09.1.62.67.09-.06Zm-.31-.52-.11-1.38A1.5,1.5,0,0,0,623.38,289.07Z" transform="translate(-0.66 0.87)"/><path class="cls-25" d="M624.06,290.46c0-.23,0-.46,0-.69a5.25,5.25,0,0,0,0-.56h.08c0,.45.05.9.07,1.35Z" transform="translate(-0.66 0.87)"/><path class="cls-30" d="M643,288l-.09.15-.17-.21,0-.25-.44.35c-.08-.23-.12,0-.18,0l-.16-.08h-.09c0-.22,0-.46.07-.68,0,0,.12-.06.19-.09v.57l.59-.25.1,0a1.36,1.36,0,0,0,.06.29A1.77,1.77,0,0,0,643,288Z" transform="translate(-0.66 0.87)"/><path class="cls-31" d="M642.7,287.5l-.59.25v-.57l.21-.06,0,.31.13-.42h.07l.1.33Z" transform="translate(-0.66 0.87)"/><path class="cls-31" d="M643,288a1.77,1.77,0,0,1-.16-.22,1.36,1.36,0,0,1-.06-.29l.11-.09.55.14-.07.43h-.07l-.05-.25Z" transform="translate(-0.66 0.87)"/><path class="cls-31" d="M642.28,288l.44-.35,0,.25c0,.35-.13.4-.46.28h-.13Z" transform="translate(-0.66 0.87)"/><path class="cls-32" d="M642.92,287l.24-.3c.26.58.25.61-.24.63Z" transform="translate(-0.66 0.87)"/><path class="cls-23" d="M642.92,287v.33s0,0,0,.05l-.11.09-.1,0-.06-.16a1,1,0,0,1,0-.24C642.69,287,642.75,286.8,642.92,287Z" transform="translate(-0.66 0.87)"/><path class="cls-33" d="M642.28,288l-.11.17h0l-.32.1V288h.09l.16.08C642.16,288.07,642.2,287.8,642.28,288Z" transform="translate(-0.66 0.87)"/><path class="cls-23" d="M641.85,288.3l.32-.1c0,.24-.15.25-.32.3Z" transform="translate(-0.66 0.87)"/><path class="cls-24" d="M642.11,286.59v.1l-.09,0,0-.06A.61.61,0,0,1,642.11,286.59Z" transform="translate(-0.66 0.87)"/><path class="cls-18" d="M642.11,286.59a.61.61,0,0,0-.14.07l-.27.06c0-.68.06-1.35.1-2,0-.06.06-.11.09-.17l2-.69c0,.33,0,.65,0,1s-.07.6-.08.9a.29.29,0,0,1-.22.29Zm.72-.78a.59.59,0,0,1,.21-.65,1,1,0,0,0,.4-.81c-.35.13-.76.09-.71.61-.17-.06-.15-.36-.38-.23a.36.36,0,0,0-.13.25c0,.31.23.39.46.43.13.35-.07.57-.32.76l0,.05.76-.29v-.06Z" transform="translate(-0.66 0.87)"/><path class="cls-34" d="M624.06,290.46l.16.1.87,1-.07.07c-.19-.2-.38-.39-.58-.58a1,1,0,0,0-.18-.08h-.08l-.28-.53Z" transform="translate(-0.66 0.87)"/><path class="cls-33" d="M640.4,288.38l-.62.23a1.14,1.14,0,0,1,.84-.94.41.41,0,0,1,.57.3l-.71.38Z" transform="translate(-0.66 0.87)"/><path class="cls-35" d="M640.4,288.38l.08,0a1,1,0,0,1,0,.84c-.09.17-.23.19-.42,0C640.63,289.12,640.31,288.67,640.4,288.38Z" transform="translate(-0.66 0.87)"/><path class="cls-36" d="M640.85,286.44c-.1-.8-.08-.93.17-1.26.14.13.26.22.13.46a2.31,2.31,0,0,0-.06.6c0,.09-.11.17-.16.26Z" transform="translate(-0.66 0.87)"/><path class="cls-36" d="M640.2,285.42c.15.18.26.28.15.51a1.24,1.24,0,0,0,0,.58c0,.18-.08.25-.27.26a2,2,0,0,0,0-.65C639.93,285.84,640.11,285.67,640.2,285.42Z" transform="translate(-0.66 0.87)"/><path class="cls-33" d="M640,287.12c0-.07.06-.18.11-.21.31-.14.62-.26.94-.38l.06.05c-.05.09-.07.21-.14.24-.29.14-.59.25-.89.36Z" transform="translate(-0.66 0.87)"/><path class="cls-33" d="M623.59,291.2l-.35-.4a.2.2,0,0,1,0-.34.34.34,0,0,1,.31.06c.18.28.33.59.5.88l-.1.08-.22-.18Z" transform="translate(-0.66 0.87)"/><path class="cls-25" d="M624.18,290.93h.08c0,.44,0,.89.08,1.33a.62.62,0,0,0,.1.24v0a2,2,0,0,1-.06.26,1,1,0,0,1-.1.18Z" transform="translate(-0.66 0.87)"/><path class="cls-34" d="M623.05,289.47l.85.93-.85-.82Z" transform="translate(-0.66 0.87)"/><path class="cls-25" d="M623.59,291.2l.15.1c0,.18,0,.36,0,.54a2.8,2.8,0,0,0,0,.29l-.08,0-.21-.36.05,0,.14.09Z" transform="translate(-0.66 0.87)"/><path class="cls-35" d="M624.45,292.21l-.05-.62.07,0,.18.2a1.38,1.38,0,0,0,.36.41c.11.07.16.25.23.37l0-.09h.05V293l-.19-.07h0l-.54-.61-.08-.32Z" transform="translate(-0.66 0.87)"/><path class="cls-35" d="M625.08,293.36l-.12.17-.47-.61.11-.37c.16.16.24.43.54.43h0V293Z" transform="translate(-0.66 0.87)"/><path class="cls-20" d="M625.08,293.36l0-.33a1.26,1.26,0,0,1,.29.91l-.07.06-.09-.21Z" transform="translate(-0.66 0.87)"/><path class="cls-32" d="M624.6,292.55l-.11.37,0-.38v-.33l.07-.16.08.32Z" transform="translate(-0.66 0.87)"/><path class="cls-33" d="M624.49,288.9l.2.62,0-.28a.51.51,0,0,1,.32.74.26.26,0,0,1-.17.14s-.13-.06-.17-.11a1.79,1.79,0,0,1-.32-1.07Z" transform="translate(-0.66 0.87)"/><path class="cls-24" d="M625,291.1l-.45-.38c.29-.07.37,0,.47.36Z" transform="translate(-0.66 0.87)"/><path class="cls-24" d="M625,291.08l.07.07,0,0-.06-.08Z" transform="translate(-0.66 0.87)"/><path class="cls-34" d="M623.38,289.07a1.5,1.5,0,0,1-.11-1.38Z" transform="translate(-0.66 0.87)"/><path class="cls-24" d="M623.69,289.59c-.05-.38-.1-.77-.14-1.15a1.13,1.13,0,0,1,.06-.31h.08c0,.2.11.39.13.59a6.26,6.26,0,0,1,0,.75s-.08.09-.12.13Z" transform="translate(-0.66 0.87)"/><path class="cls-17" d="M623.69,289.59l.2.36-.09.06-.62-.67.09-.1.42.35Z" transform="translate(-0.66 0.87)"/><path class="cls-23" d="M642.1,288l-.16-.08Z" transform="translate(-0.66 0.87)"/><path class="cls-36" d="M642.83,285.81l.33.06v.06l-.76.29,0-.05c.25-.19.45-.41.32-.76-.23,0-.47-.12-.46-.43a.36.36,0,0,1,.13-.25c.23-.13.21.17.38.23-.05-.52.36-.48.71-.61a1,1,0,0,1-.4.81A.59.59,0,0,0,642.83,285.81Z" transform="translate(-0.66 0.87)"/><path class="cls-29" d="M624.6,292.55v-.18l.54.61C624.84,293,624.76,292.71,624.6,292.55Z" transform="translate(-0.66 0.87)"/><polygon class="cls-37" points="736.2 123.2 906.46 215.29 904.54 361.1 736.2 264.21 736.2 123.2"/><path class="cls-38" d="M891.3,322.33v29.74s-21.65,21.5-48.45,35.53c-13.08,6.85-28.35,8.54-42,9.82-6.2.59-11.29-1.64-17-3.14C783.86,394.28,858.69,384.69,891.3,322.33Z" transform="translate(-0.66 0.87)"/><path class="cls-39" d="M845.5,166.45s15.34,3.84,12.47,22.06-3.36,152.05-3.36,154-6.72,10.55-11.51,8.63-62.36-35.49-62.36-35.49-8.63-4.8-6.71-13.43,1-158.28,1-158.28,1-11.51,11.51-8.64S845.5,166.45,845.5,166.45Z" transform="translate(-0.66 0.87)"/><path class="cls-40" d="M833.06,168.21a24.13,24.13,0,0,0,7,2.89c3.75.94,9.85,4.4,10.51,16.93,1,18.23-1,149.65-1,148.69s-4.79,8.64-12.47,6.72c-6.85-1.71-43.57-25.44-51.32-30.68-.7-.47-2.37-1.87-3.11-2.25-2-1-4.87-3.74-4.08-14.08.94-12.45.95-151.56.95-151.56s0-6.72,7.68-3.84c1.25.47,2.44,2.53,5.19,4C803.33,151.11,824.48,162.79,833.06,168.21Z" transform="translate(-0.66 0.87)"/><line class="cls-41" x1="843.23" y1="173.9" x2="843.23" y2="342.65"/><polyline class="cls-41" points="849.87 207.13 831.65 198.5 826.85 186.03 789.54 164.82 779.83 158.75"/><polyline class="cls-41" points="779.83 209.21 789.44 214.81 789.44 164.93"/><polyline class="cls-41" points="779.83 190.82 828.45 218.09 849.87 229.2"/><line class="cls-41" x1="831.65" y1="273.32" x2="831.65" y2="219.6"/><polyline class="cls-41" points="848.91 266.61 823.01 252.22 808.62 256.06 779.39 240.71"/><polyline class="cls-41" points="848.91 284.84 821.09 266.61 778.87 288.54"/><polyline class="cls-41" points="848.91 308.82 833.56 300.18 802.52 323.32"/><polyline class="cls-41" points="799.99 252.22 799.64 277.26 818.56 310.47"/><polyline class="cls-42" points="848.91 253.18 814.38 234.95 815.34 250.3 824.93 266.61 824.93 295.39 846.21 340.71"/><path class="cls-43" d="M828.47,338.64,809.28,308.9l-14.64-29.7-4.54-21.14-10.57-13.41v27.8s11.53,8.64,10.57,18.23S793,302.19,793,302.19h0a7.18,7.18,0,0,1,6,3.19l17.18,25.72Z" transform="translate(-0.66 0.87)"/><path class="cls-44" d="M857.37,266.87c6.76,4.23,46.92,27.2,28.66,74.17-13.22,34-53.07,50.08-86.9,54.18-17.75,2.15-33.84-1.35-43.57-3.34-21.76-4.44-74.41-40.79-105.27-57.52a16.17,16.17,0,0,1-2.44-26.81l13.76-11.11c13-10.47,31.37,7.31,44.84,17.14l64.66,31.78c3.54,2.58,11.34,4.51,15.56,5.7,11.14,3.16,32.91,7,53.31-6.18,30.25-19.5,27.37-45.61,17.19-56.64" transform="translate(-0.66 0.87)"/><path class="cls-45" d="M684.39,347.08c-3.46-2-6.91-3.93-10.36-5.91l-14.34-8.24a8.17,8.17,0,0,1-.71-.49,4.58,4.58,0,0,0,.15-1,45.15,45.15,0,0,0-.56-5c-1.29-6.11-4.58-10.66-10.53-13-2.7-1.05-4.64-.61-6.2,1.6a1.69,1.69,0,0,1-2.53.43,39.72,39.72,0,0,0-3.6-2c-1.5-.68-2.55-1.52-2.16-3.35l.12-7.29c.35.17.71.31,1,.5l47.41,27.33c.19.11.4.18.75.34-2.83-6.63-5.59-13.08-8.34-19.54L668.78,298c1.9,1.08,3.79,2.15,5.68,3.24q5,2.88,9.94,5.8,0,11.72,0,23.45c0,2.79,0,5.57,0,8.36-1.62-.91-3.24-1.81-4.85-2.73-5.22-3-10.42-6-15.66-9-.32-.18-.83-.05-1.25-.06-.74.72-.2,1.11.4,1.46l10.87,6.28c3.51,2,7,4.08,10.52,6.12Q684.39,344,684.39,347.08Z" transform="translate(-0.66 0.87)"/><path class="cls-46" d="M684.4,307q-5-2.91-9.94-5.8c-1.89-1.09-3.78-2.16-5.68-3.24l-3.22-1.73-3.1-1.76L660,292.92a8.28,8.28,0,0,0-.9-.69c-2.84-1.64-5.69-3.25-8.53-4.88q-5.85-3.35-11.67-6.71c-.64-.37-1.21-.88-1.82-1.32l6-3.52c.68.41,1.35.83,2,1.23q3.8,2.21,7.61,4.39l8,4.63,4.28,2.49c3,1.77,6.1,3.56,9.17,5.32,3.45,2,6.93,3.9,10.38,5.88q8,4.62,16,9.28a3.07,3.07,0,0,1,.62.67c-1.28.68-2.58,1.34-3.85,2.05-.66.37-1.28.82-1.93,1.23-.34-.23-.67-.48-1-.69-2.83-1.62-5.66-3.24-8.51-4.83A8,8,0,0,0,684.4,307Z" transform="translate(-0.66 0.87)"/><path class="cls-45" d="M637,279.32c.61.44,1.18.95,1.82,1.32q5.82,3.38,11.67,6.71c2.84,1.63,5.69,3.24,8.53,4.88a8.28,8.28,0,0,1,.9.69q3,7,6,14c1.06,2.46,2.12,4.92,3.27,7.56-.41-.2-.63-.3-.84-.42l-27.31-15.79c-2.3-1.32-4.63-2.61-6.94-3.92a60.69,60.69,0,0,1,2.52-14.64C636.75,279.59,636.92,279.46,637,279.32Zm16.6,17.88h0c0-1,0-2,0-3a1.3,1.3,0,0,0-.47-.94c-2.91-1.69-5.85-3.33-8.79-5-.67-.38-1-.11-1,.6,0,1.95,0,3.91,0,5.87a1.36,1.36,0,0,0,.58,1c2.87,1.69,5.77,3.34,8.66,5,.65.37,1,.18,1-.56Z" transform="translate(-0.66 0.87)"/><path class="cls-46" d="M644.53,275c1.58-.92,3.17-1.84,4.74-2.78a9.41,9.41,0,0,0,.89-.67,5.47,5.47,0,0,0,.66.53c4.31,2.47,8.62,4.92,12.92,7.4,2.18,1.26,4.32,2.59,6.5,3.84,3.26,1.87,6.55,3.68,9.8,5.55,2.91,1.66,5.79,3.37,8.68,5.05,2.45,1.42,4.92,2.81,7.37,4.23l7,4.08,5.2,3c-1.25.77-2.49,1.56-3.77,2.3-.64.38-1.34.66-2,1a6.76,6.76,0,0,1-.78-.33c-3-1.77-6-3.57-9-5.3-4-2.31-8-4.55-12-6.84-2.67-1.53-5.3-3.12-8-4.66s-5.37-3-8-4.59q-6.08-3.52-12.13-7.07Z" transform="translate(-0.66 0.87)"/><path class="cls-47" d="M702.5,308.54c.67-.32,1.37-.6,2-1,1.28-.74,2.52-1.53,3.77-2.3,1.29.34,1.31.33,1.35-.77,1.39-.73,2.79-1.46,4.17-2.21.14-.08.17-.32.26-.48l.43.15,1.1.29.2-1.21a8.36,8.36,0,0,0,.86-.39c1.32-.76,2.64-1.54,4-2.31,1.3.54,1.83.28,1.93-1,.45-.3.88-.62,1.35-.88,1.16-.63,2.34-1.23,3.51-1.84.3.15.7.23.89.47a26.4,26.4,0,0,1,2.67,3.6c3.11,5.71,6.11,11.47,9.17,17.2a6.94,6.94,0,0,0,1.07,1.46c3.37,3.64,6.77,7.26,10.12,10.92a24.93,24.93,0,0,1,1.84,2.57l-1.46,1.39a16,16,0,0,0-1.5-2.19c-2.74-2.91-5.54-5.77-8.32-8.65-.88-.9-1.79-1.79-2.68-2.69l-.05-1s.06,0,.05-.06a.6.6,0,0,0-.09-.13L738,315.65c-2.46-4.68-4.9-9.36-7.37-14a1.25,1.25,0,0,0-1.88-.54c-2.94,1.68-5.87,3.4-8.8,5.1l-4.54,2.59-6.19,3.59-6.94,4a1.47,1.47,0,0,0-.31,2.13c2.67,5,5.32,10.07,8,15.07.28.52.9.85,1.36,1.26l.58.49a2.71,2.71,0,0,0,.35.77c3.18,3.53,6.38,7,9.55,10.58a2.66,2.66,0,0,1,.9,2.63l-1.89.3a8.31,8.31,0,0,0-1-2.41c-2.27-2.55-4.71-4.95-7-7.48-1.82-2-3.53-4.1-5.28-6.16a5.93,5.93,0,0,0-.33-1.35c-2.21-4.14-4.47-8.25-6.68-12.4a20.06,20.06,0,0,0-5.15-6.82c.65-.41,1.27-.86,1.93-1.23,1.27-.71,2.57-1.37,3.85-2.05C702.29,310.14,703,309.67,702.5,308.54Z" transform="translate(-0.66 0.87)"/><path class="cls-48" d="M727.39,294.65c-1.17.61-2.35,1.21-3.51,1.84-.47.26-.9.58-1.35.88-.79-.38-1.59-.72-2.35-1.15-2.58-1.45-5.14-2.92-7.71-4.4s-5.29-3.07-7.93-4.6l-4.48-2.59c-1.65-1-3.29-1.94-4.95-2.89-2.06-1.18-4.14-2.31-6.19-3.5-2.67-1.56-5.31-3.17-8-4.71s-5.38-3-8-4.53c-3.1-1.76-6.18-3.55-9.27-5.33a4.51,4.51,0,0,0,1-.28c1.3-.71,2.58-1.43,3.83-2.21a1.17,1.17,0,0,1,1.38,0Q691.94,274,714,286.67q6.33,3.65,12.65,7.31A4.18,4.18,0,0,1,727.39,294.65Z" transform="translate(-0.66 0.87)"/><path class="cls-46" d="M720.6,298.33c-1.31.77-2.63,1.55-4,2.31a8.36,8.36,0,0,1-.86.39c-1.3-.74-2.59-1.5-3.89-2.23-3-1.72-6.08-3.42-9.11-5.16-2.73-1.56-5.44-3.18-8.17-4.76-3.72-2.15-7.45-4.27-11.17-6.41-2.4-1.39-4.79-2.8-7.2-4.19-3.38-1.95-6.77-3.88-10.15-5.84-.88-.51-1.73-1.07-2.61-1.58-2-1.13-3.92-2.23-5.88-3.35l4.77-2.73a7.56,7.56,0,0,1,1.07.39c2.32,1.33,4.62,2.68,6.94,4L680.47,275c2.29,1.32,4.55,2.68,6.85,4,2.92,1.68,5.86,3.32,8.79,5l6.95,4,10.07,5.79c1.46.84,2.93,1.65,4.37,2.52C718.56,297,719.57,297.66,720.6,298.33Z" transform="translate(-0.66 0.87)"/><path class="cls-46" d="M714.06,301.8c-.09.16-.12.4-.26.48-1.38.75-2.78,1.48-4.17,2.21-1.07-.69-2.1-1.41-3.2-2.05-2.5-1.45-5-2.84-7.54-4.28-2.79-1.6-5.55-3.24-8.34-4.84-2.21-1.26-4.47-2.46-6.67-3.74-2.64-1.54-5.24-3.16-7.89-4.69-4.32-2.51-8.66-5-13-7.45l-7.13-4.1c-1.41-.81-2.8-1.66-4.2-2.48l4.48-2.56c1.66,1,3.32,2,5,3,3.22,1.85,6.48,3.65,9.7,5.5,4.09,2.36,8.15,4.76,12.24,7.12,2.38,1.38,4.8,2.7,7.18,4.08,2.87,1.66,5.71,3.36,8.57,5,2.56,1.48,5.16,2.9,7.72,4.38S711.56,300.32,714.06,301.8Z" transform="translate(-0.66 0.87)"/><path class="cls-49" d="M665.56,296.23l3.22,1.73,5.75,13.53C677.28,318,680,324.4,682.87,331c-.35-.16-.56-.23-.75-.34l-47.41-27.33c-.33-.19-.69-.33-1-.5l.18-4a6.22,6.22,0,0,1,.69.33q17.73,10.21,35.46,20.46l7.19,4.14Z" transform="translate(-0.66 0.87)"/><path class="cls-45" d="M665.56,296.23l11.63,27.58L670,319.67q-17.73-10.23-35.46-20.46a6.22,6.22,0,0,0-.69-.33c0-.78.09-1.56.13-2.34a7.5,7.5,0,0,1,.7.33l34.41,19.86c1.27.74,2.56,1.46,4,2.3-.19-.52-.28-.79-.39-1-1.93-4.41-3.88-8.8-5.8-13.21-1.51-3.43-3-6.88-4.48-10.31Z" transform="translate(-0.66 0.87)"/><path class="cls-50" d="M633.55,310.15c-.39,1.83.66,2.67,2.16,3.35a39.72,39.72,0,0,1,3.6,2,1.69,1.69,0,0,0,2.53-.43c1.56-2.21,3.5-2.65,6.2-1.6,6,2.32,9.24,6.87,10.53,13a45.15,45.15,0,0,1,.56,5,4.58,4.58,0,0,1-.15,1l-1.31-.39a5.24,5.24,0,0,1-.76-1.68,17.87,17.87,0,0,0-5-11.54,24.91,24.91,0,0,0-3.17-2.37,12,12,0,0,0-1.34-.68,2.94,2.94,0,0,0-3.57,1.18,10.86,10.86,0,0,0-1.45,5.26c-1.11.23-2-.41-2.84-.9-1.3-.72-2.59-1.46-3.89-2.2-.77-.46-1.57-.87-2.3-1.38a3.4,3.4,0,0,1-1.15-1.24,7.83,7.83,0,0,1-.17-5C632.19,311,633,310.6,633.55,310.15Z" transform="translate(-0.66 0.87)"/><path class="cls-49" d="M662.46,294.47c1.49,3.43,3,6.88,4.48,10.31,1.92,4.41,3.87,8.8,5.8,13.21.11.25.2.52.39,1-1.48-.84-2.77-1.56-4-2.3l-34.41-19.86a7.5,7.5,0,0,0-.7-.33c.07-.72.13-1.43.2-2.15,2.31,1.31,4.64,2.6,6.94,3.92l27.31,15.79c.21.12.43.22.84.42-1.15-2.64-2.21-5.1-3.27-7.56q-3-7-6-14Z" transform="translate(-0.66 0.87)"/><path class="cls-51" d="M720.6,298.33c-1-.67-2-1.37-3.1-2-1.44-.87-2.91-1.68-4.37-2.52L703.06,288l-6.95-4c-2.93-1.67-5.87-3.31-8.79-5-2.3-1.32-4.56-2.68-6.85-4l-10.08-5.81c-2.32-1.33-4.62-2.68-6.94-4a7.56,7.56,0,0,0-1.07-.39c0-.18.1-.35.14-.53,0,0,.05,0,.05-.06a.61.61,0,0,0-.05-.12c.2-.59.54-.77,1.09-.4,3.09,1.78,6.17,3.57,9.27,5.33,2.67,1.52,5.38,3,8,4.53s5.32,3.15,8,4.71c2.05,1.19,4.13,2.32,6.19,3.5,1.66.95,3.3,1.93,4.95,2.89l4.48,2.59c2.64,1.53,5.28,3.08,7.93,4.6s5.13,2.95,7.71,4.4c.76.43,1.56.77,2.35,1.15C722.43,298.61,721.9,298.87,720.6,298.33Z" transform="translate(-0.66 0.87)"/><path class="cls-51" d="M702.5,308.54c.45,1.13-.21,1.6-1.35,1.15a3.07,3.07,0,0,0-.62-.67q-8-4.65-16-9.28c-3.45-2-6.93-3.91-10.38-5.88-3.07-1.76-6.12-3.55-9.17-5.32l-4.28-2.49-8-4.63q-3.81-2.19-7.61-4.39c-.68-.4-1.35-.82-2-1.23,0-1.08.28-1.23,1.5-.78l8.07,4.73q6.06,3.54,12.13,7.07c2.67,1.55,5.37,3.05,8,4.59s5.29,3.13,8,4.66c4,2.29,8,4.53,12,6.84,3,1.73,6,3.53,9,5.3A6.76,6.76,0,0,0,702.5,308.54Z" transform="translate(-0.66 0.87)"/><path class="cls-51" d="M651.67,270.86c1.4.82,2.79,1.67,4.2,2.48l7.13,4.1c4.33,2.48,8.67,4.94,13,7.45,2.65,1.53,5.25,3.15,7.89,4.69,2.2,1.28,4.46,2.48,6.67,3.74,2.79,1.6,5.55,3.24,8.34,4.84,2.51,1.44,5,2.83,7.54,4.28,1.1.64,2.13,1.36,3.2,2.05,0,1.1-.06,1.11-1.35.77l-5.2-3-7-4.08c-2.45-1.42-4.92-2.81-7.37-4.23-2.89-1.68-5.77-3.39-8.68-5.05-3.25-1.87-6.54-3.68-9.8-5.55-2.18-1.25-4.32-2.58-6.5-3.84-4.3-2.48-8.61-4.93-12.92-7.4a5.47,5.47,0,0,1-.66-.53c0-.3-.07-.69.08-.89s.55-.13.83-.1A2.17,2.17,0,0,1,651.67,270.86Z" transform="translate(-0.66 0.87)"/><path class="cls-51" d="M714.06,301.8c-2.5-1.48-5-3-7.49-4.41s-5.16-2.9-7.72-4.38c-2.86-1.65-5.7-3.35-8.57-5-2.38-1.38-4.8-2.7-7.18-4.08-4.09-2.36-8.15-4.76-12.24-7.12-3.22-1.85-6.48-3.65-9.7-5.5-1.69-1-3.35-2-5-3,.08-1.12.34-1.27,1.46-.79,2,1.12,3.93,2.22,5.88,3.35.88.51,1.73,1.07,2.61,1.58,3.38,2,6.77,3.89,10.15,5.84,2.41,1.39,4.8,2.8,7.2,4.19,3.72,2.14,7.45,4.26,11.17,6.41,2.73,1.58,5.44,3.2,8.17,4.76,3,1.74,6.08,3.44,9.11,5.16,1.3.73,2.59,1.49,3.89,2.23l-.2,1.21-1.1-.29Z" transform="translate(-0.66 0.87)"/><path class="cls-52" d="M751.69,332.26l1.46-1.39a1.9,1.9,0,0,1,1.52,1.41c.44,1.36.94,2.7,1.26,4.09a8.22,8.22,0,0,1-.07,2.15,4.52,4.52,0,0,0-.83.29c-2,1.18-4,2.38-6,3.57a3,3,0,0,1-.62.18v-2.28l.09-1.33.36-1.71,2.41-4.42Z" transform="translate(-0.66 0.87)"/><path class="cls-46" d="M662.52,264.07a.61.61,0,0,1,.05.12s0,0-.05.06Z" transform="translate(-0.66 0.87)"/><path class="cls-45" d="M707.53,333.54c1.75,2.06,3.46,4.16,5.28,6.16,2.29,2.53,4.73,4.93,7,7.48a8.31,8.31,0,0,1,1,2.41,7.45,7.45,0,0,0-1.16,2.23c-.23,1.92-.22,3.87-.3,5.81-1.78-1-3.62-1.93-5.31-3.07-.61-.4-.87-1.3-1.3-2a15.68,15.68,0,0,0-8.52-6.81,4.5,4.5,0,0,0-6,2.53,14.38,14.38,0,0,0-1.2,6.07l-1-.55a39.78,39.78,0,0,1,.75-4.89c1.11-4,4-5.34,7.83-3.9a7.22,7.22,0,0,0,.89.22v-6.53c.5,0,1.12.13,1.46-.11s.31-.86.37-1.33a3,3,0,0,0-.11-.83Z" transform="translate(-0.66 0.87)"/><path class="cls-53" d="M712,365.79a4.8,4.8,0,0,1-5.58.47,13.24,13.24,0,0,1-7.28-11.15,11.94,11.94,0,0,1,1.25-5.49c1.12-1.89,4.11-2.2,5.26-.51l-3,1.32a18.47,18.47,0,0,1,3.35,1.18,13.32,13.32,0,0,1,6,7,7.94,7.94,0,0,1,.57,4.69C712.32,364.12,712.14,365,712,365.79Zm-9.71-11.64a2,2,0,0,0-.91,2,8.79,8.79,0,0,0,5.36,7.92c.69.24,1.45.57,2.17,0,1.21-.36,1.44-1.38,1.52-2.41a8.52,8.52,0,0,0-5-7.95A2.62,2.62,0,0,0,702.24,354.15Z" transform="translate(-0.66 0.87)"/><path class="cls-53" d="M724.36,364.51l29.54-17a3.43,3.43,0,0,1-1.8,3.63l-15.64,9c-2.85,1.63-5.71,3.24-8.56,4.86A3,3,0,0,1,724.36,364.51Z" transform="translate(-0.66 0.87)"/><path class="cls-52" d="M719.38,357.63c.08-1.94.07-3.89.3-5.81a7.45,7.45,0,0,1,1.16-2.23l1.89-.3.57-.12,4.14.08h0l.4.09,1.2.85.56.85.4.64.59,1c-.15.2-.26.48-.46.6-2.23,1.32-4.46,2.64-6.72,3.92A4.37,4.37,0,0,1,719.38,357.63Z" transform="translate(-0.66 0.87)"/><path class="cls-54" d="M734.45,357c0-1.35,0-2.66,0-4a1,1,0,0,1,.44-.65c3.75-2.18,7.52-4.33,11.46-6.6,0,1.56,0,2.95,0,4.34,0,.17-.22.38-.39.48q-5.57,3.21-11.15,6.39S734.69,357,734.45,357Z" transform="translate(-0.66 0.87)"/><path class="cls-55" d="M712,365.79c.19-.83.37-1.67.57-2.49a7.94,7.94,0,0,0-.57-4.69,13.32,13.32,0,0,0-6-7,18.47,18.47,0,0,0-3.35-1.18l3-1.32a8.84,8.84,0,0,1,1.71.95,17.51,17.51,0,0,1,6.2,11.91,25.59,25.59,0,0,0,.56,2.6Z" transform="translate(-0.66 0.87)"/><path class="cls-53" d="M730.59,352.64l-.59-1a8.18,8.18,0,0,0,1-.39q4.29-2.41,8.57-4.86c1-.55,1.92-1.13,2.9-1.68,2-1.11,3.95-2.2,5.93-3.3v1.12c-1.78,1.09-3.55,2.22-5.35,3.28q-4.69,2.76-9.44,5.43C732.63,351.8,731.59,352.19,730.59,352.64Z" transform="translate(-0.66 0.87)"/><path class="cls-53" d="M642.42,322.22a10.86,10.86,0,0,1,1.45-5.26,2.94,2.94,0,0,1,3.57-1.18,12,12,0,0,1,1.34.68l-3.61,2a9.59,9.59,0,0,1,2,0c3.47.81,5.67,3.26,7.35,6.16s2.1,5.88.4,8.94c-1.69,1.38-3.48,1.14-5.3.31A13.26,13.26,0,0,1,642.42,322.22Zm9.83,9.44a2.05,2.05,0,0,0,1.33-1.82c.69-3.34-2.19-7.84-5.52-8.67a2.69,2.69,0,0,0-2.36.45,2.49,2.49,0,0,0-1.13,2.29,9,9,0,0,0,5.42,7.82C650.72,332,651.52,332.28,652.25,331.66Z" transform="translate(-0.66 0.87)"/><path class="cls-55" d="M654.89,333.61c1.7-3.06,1.24-6.11-.4-8.94s-3.88-5.35-7.35-6.16a9.59,9.59,0,0,0-2,0l3.61-2a24.91,24.91,0,0,1,3.17,2.37,17.87,17.87,0,0,1,5,11.54,5.24,5.24,0,0,0,.76,1.68Z" transform="translate(-0.66 0.87)"/><path class="cls-56" d="M705.59,338.73v6.53a7.22,7.22,0,0,1-.89-.22c-3.85-1.44-6.72-.07-7.83,3.9a39.78,39.78,0,0,0-.75,4.89c-1.58-.87-3.18-1.73-4.76-2.62-1.94-1.09-3.88-2.21-5.8-3.33-.41-.24-.79-.53-1.17-.8q0-3.1,0-6.21l.59.35c0,1.66,0,3.33,0,5a1.32,1.32,0,0,0,.35.9,17.33,17.33,0,0,0,2.14,1.43c1.64.95,3.31,1.86,5,2.78l3,1.63a42.35,42.35,0,0,1,1.21-5c1.18-3.17,3.39-4.54,6.93-3.78.48.1,1,.23,1.57.39,0-1.33,0-2.5,0-3.68,0-.78,0-1.57,0-2.35Z" transform="translate(-0.66 0.87)"/><path class="cls-50" d="M685,341.22l-.59-.35c-3.51-2-7-4.09-10.52-6.12L663,328.47c-.6-.35-1.14-.74-.4-1.46a5.74,5.74,0,0,1,1,.38l10.72,6.17c3.1,1.79,6.2,3.59,9.31,5.36.21.12.53.05.8.07h.35c0,.12,0,.25.07.37a3.81,3.81,0,0,0,.64.63c2.31,1.35,4.65,2.67,6.95,4,.89.53,1.7,1.2,2.55,1.81a.77.77,0,0,1-1.25.35l-1.49-.86C689.82,344,687.41,342.59,685,341.22Z" transform="translate(-0.66 0.87)"/><path class="cls-56" d="M684.76,339h-.35a.58.58,0,0,1,0-.18c0-2.79,0-5.57,0-8.36q0-11.73,0-23.45a8,8,0,0,1,1.43.45c2.85,1.59,5.68,3.21,8.51,4.83.36.21.69.46,1,.69a20.06,20.06,0,0,1,5.15,6.82c2.21,4.15,4.47,8.26,6.68,12.4a5.93,5.93,0,0,1,.33,1.35c-.08,1-.15,1.95-.22,2.92-.19-.39-.38-.78-.56-1.17a5.22,5.22,0,0,0-.72-4.41c-1.45-2.66-2.94-5.29-4.41-7.93-1.06-1.92-2-3.88-3.18-5.75a13.78,13.78,0,0,0-5.68-5.23c-1.19-.61-2.33-1.32-3.5-2L685,307.65v1.11q0,14.52,0,29A6.79,6.79,0,0,1,684.76,339Z" transform="translate(-0.66 0.87)"/><path class="cls-57" d="M684.37,338.81a.58.58,0,0,0,0,.18c-.27,0-.59.05-.8-.07-3.11-1.77-6.21-3.57-9.31-5.36l-10.72-6.17a5.74,5.74,0,0,0-1-.38c.42,0,.93-.12,1.25.06,5.24,3,10.44,6,15.66,9C681.13,337,682.75,337.9,684.37,338.81Z" transform="translate(-0.66 0.87)"/><path class="cls-58" d="M653.63,297.2v3c0,.74-.32.93-1,.56-2.89-1.66-5.79-3.31-8.66-5a1.36,1.36,0,0,1-.58-1c-.06-2,0-3.92,0-5.87,0-.71.29-1,1-.6,2.94,1.64,5.88,3.28,8.79,5a1.3,1.3,0,0,1,.47.94c.06,1,0,2,0,3Zm-1-2.85c-.25,0-.41,0-.57,0-1.28.08-2.73.57-3.78.13s-1.76-1.83-2.61-2.81l-.18-.22-1.13-1.35c0,1.44.06,2.6,0,3.75a1.48,1.48,0,0,0,.93,1.57c1.25.66,2.46,1.38,3.69,2.08l3.67,2.08Zm-1.48-.78.08-.3L646,290.36a26,26,0,0,0,2.09,2.94,1,1,0,0,0,.65.26C649.56,293.59,650.35,293.57,651.14,293.57Z" transform="translate(-0.66 0.87)"/><path class="cls-59" d="M702.27,316.36l6.94-4,2.77,1.48c4.92,2.62,9.85,5.23,14.76,7.88.87.47,1.68,1.06,2.52,1.6-.32.14-.65.27-1,.42L721.6,327c-1.79-1-3.57-2-5.38-3-4.35-2.32-8.71-4.62-13.05-6.94A5.92,5.92,0,0,1,702.27,316.36Z" transform="translate(-0.66 0.87)"/><path class="cls-60" d="M702.27,316.36a5.92,5.92,0,0,0,.9.77c4.34,2.32,8.7,4.62,13.05,6.94,1.81,1,3.59,2,5.38,3l.53.36,1.18.76a81,81,0,0,0-12.8,5.63,1,1,0,0,0,.65,0c1.84-.72,3.71-1.38,5.5-2.21a2.1,2.1,0,0,1,2.59.25l-7.13,3-.77,0c-.46-.41-1.08-.74-1.36-1.26-2.71-5-5.36-10-8-15.07A1.47,1.47,0,0,1,702.27,316.36Z" transform="translate(-0.66 0.87)"/><path class="cls-60" d="M729.26,323.33c-.84-.54-1.65-1.13-2.52-1.6-4.91-2.65-9.84-5.26-14.76-7.88l-2.77-1.48,6.19-3.59c.09.12.16.29.28.36q3.44,1.88,6.9,3.74c2.47,1.33,4.94,2.66,7.42,4,2.2,1.17,4.41,2.31,6.61,3.46a1.2,1.2,0,0,1-.24.15Z" transform="translate(-0.66 0.87)"/><path class="cls-59" d="M736.61,320.31c-2.2-1.15-4.41-2.29-6.61-3.46-2.48-1.31-5-2.64-7.42-4q-3.47-1.86-6.9-3.74c-.12-.07-.19-.24-.28-.36l4.54-2.59c1.61.84,3.23,1.66,4.84,2.52,2.65,1.4,5.29,2.84,7.94,4.24,1.75.92,3.51,1.8,5.27,2.7l1.11,1.93,0,.19c0,.32,0,.64.05,1s-.11.37-.17.55l-.67.69Z" transform="translate(-0.66 0.87)"/><path class="cls-60" d="M738,315.65c-1.76-.9-3.52-1.78-5.27-2.7-2.65-1.4-5.29-2.84-7.94-4.24-1.61-.86-3.23-1.68-4.84-2.52,2.93-1.7,5.86-3.42,8.8-5.1a1.25,1.25,0,0,1,1.88.54C733.09,306.29,735.53,311,738,315.65Z" transform="translate(-0.66 0.87)"/><path class="cls-46" d="M739,319.28c.06-.18.11-.37.17-.55.89.9,1.8,1.79,2.68,2.69,2.78,2.88,5.58,5.74,8.32,8.65a16,16,0,0,1,1.5,2.19l-.46.56a15.43,15.43,0,0,0-1.63-2.65c-2.37-2.58-4.83-5.08-7.27-7.59C741.25,321.46,740.12,320.38,739,319.28Z" transform="translate(-0.66 0.87)"/><path class="cls-46" d="M723.3,349.17l-.57.12a2.66,2.66,0,0,0-.9-2.63c-3.17-3.54-6.37-7.05-9.55-10.58a2.71,2.71,0,0,1-.35-.77l0,0a12.76,12.76,0,0,1,1.42,1.21c2.72,3,5.41,6,8.1,9.06C722.39,346.6,723.49,347.56,723.3,349.17Z" transform="translate(-0.66 0.87)"/><path class="cls-46" d="M711.35,334.82l.77,0-.17.5,0,0Z" transform="translate(-0.66 0.87)"/><path class="cls-46" d="M739.14,317.77l0-.19a.6.6,0,0,1,.09.13S739.16,317.75,739.14,317.77Z" transform="translate(-0.66 0.87)"/><path class="cls-50" d="M727.84,349.33c2.52-1.47,5-3,7.55-4.41q6.71-3.85,13.43-7.68l-.36,1.71a1,1,0,0,0-.43,0c-1.63.91-3.26,1.84-4.89,2.77-4.12,2.35-8.25,4.69-12.35,7.06a15.38,15.38,0,0,0-1.75,1.38Z" transform="translate(-0.66 0.87)"/><path class="cls-53" d="M729,350.18a15.38,15.38,0,0,1,1.75-1.38c4.1-2.37,8.23-4.71,12.35-7.06,1.63-.93,3.26-1.86,4.89-2.77a1,1,0,0,1,.43,0l-.09,1.33a4.91,4.91,0,0,0-.79.28l-4.75,2.68q-6.29,3.57-12.56,7.16a4,4,0,0,0-.67.63Z" transform="translate(-0.66 0.87)"/><path class="cls-50" d="M729.6,351a4,4,0,0,1,.67-.63q6.27-3.6,12.56-7.16l4.75-2.68a4.91,4.91,0,0,1,.79-.28v1.16c-2,1.1-4,2.19-5.93,3.3-1,.55-1.93,1.13-2.9,1.68q-4.27,2.44-8.57,4.86a8.18,8.18,0,0,1-1,.39Z" transform="translate(-0.66 0.87)"/><path class="cls-53" d="M748.36,341.08v0Z" transform="translate(-0.66 0.87)"/><path class="cls-53" d="M706.75,335.29c.18.39.37.78.56,1.17a3,3,0,0,1,.11.83c-.06.47-.08,1.12-.37,1.33s-1,.09-1.46.11l-.37-.19c-.57-.28-1.12-.61-1.71-.83-1.22-.45-2.47-.84-3.71-1.25,0-1.63,0-3.26,0-4.89,0-.31-.38-.61-.58-.91.8-.55,1.57-1.15,2.41-1.63s1.08-.22,1.09.71c0,1.34,0,2.68,0,4-.05,1.09.64,1.67,1.35,2.49v-5.56a3.37,3.37,0,0,1,.47.54C705.27,332.58,706,333.94,706.75,335.29Z" transform="translate(-0.66 0.87)"/><path class="cls-61" d="M702.24,354.15a2.62,2.62,0,0,1,3.1-.48,8.52,8.52,0,0,1,5,7.95c-.08,1-.31,2.05-1.52,2.41l-1.16-1.22c.67-.34,1.27-.74,1.34-1.58a5.65,5.65,0,0,0-.71-3.5c-1.4-2.39-3.31-3.19-5.35-2.17Z" transform="translate(-0.66 0.87)"/><path class="cls-54" d="M702.24,354.15l.74,1.41a8.63,8.63,0,0,0-.3,1.48,6,6,0,0,0,5,5.77l1.16,1.22c-.72.57-1.48.24-2.17,0a8.79,8.79,0,0,1-5.36-7.92A2,2,0,0,1,702.24,354.15Z" transform="translate(-0.66 0.87)"/><path class="cls-50" d="M727.44,349.25h0Z" transform="translate(-0.66 0.87)"/><path class="cls-61" d="M645.7,321.62a2.69,2.69,0,0,1,2.36-.45c3.33.83,6.21,5.33,5.52,8.67a2.05,2.05,0,0,1-1.33,1.82l-1.14-1.25c1.18-.72,1.5-1.6,1.12-3.4a6.28,6.28,0,0,0-3.15-4.05c-1.05-.65-2-.14-2.93.4Z" transform="translate(-0.66 0.87)"/><path class="cls-54" d="M651.11,330.41l1.14,1.25c-.73.62-1.53.31-2.26.07a9,9,0,0,1-5.42-7.82,2.49,2.49,0,0,1,1.13-2.29l.45,1.74C645.6,327.11,647.62,330,651.11,330.41Z" transform="translate(-0.66 0.87)"/><path class="cls-45" d="M706.75,335.29c-.75-1.35-1.48-2.71-2.24-4.06a3.37,3.37,0,0,0-.47-.54c-1.92-3.72-3.88-7.43-5.73-11.18a9.28,9.28,0,0,0-3.58-4q-3-1.85-6.15-3.58a4.28,4.28,0,0,0-1.27-.27c-1.09.22-1.15,1.09-1.15,1.93,0,3.13,0,6.27,0,9.41a3.35,3.35,0,0,0,1.81,3.14c1.06.59,2.13,1.17,3.18,1.79,1.28.76,2.83,1.31,3.48,2.75.92,2,2.6,3.08,4.43,4,.2.62-.46,1.6.75,1.79,1.24.41,2.49.8,3.71,1.25.59.22,1.14.55,1.71.83,0,.78,0,1.57,0,2.35,0,1.18,0,2.35,0,3.68-.61-.16-1.09-.29-1.57-.39-3.54-.76-5.75.61-6.93,3.78a42.35,42.35,0,0,0-1.21,5l-3-1.63c-1.66-.92-3.33-1.83-5-2.78a17.33,17.33,0,0,1-2.14-1.43,1.32,1.32,0,0,1-.35-.9c0-1.66,0-3.33,0-5,2.42,1.37,4.83,2.73,7.24,4.11l1.49.86a.77.77,0,0,0,1.25-.35c.3-.65-.12-.93-.59-1.2l-8.76-5a3.84,3.84,0,0,0-.79-.25c0-.12-.05-.25-.07-.37a6.79,6.79,0,0,0,.21-1.18q0-14.52,0-29v-1.11l4.28,2.35c1.17.65,2.31,1.36,3.5,2a13.78,13.78,0,0,1,5.68,5.23c1.13,1.87,2.12,3.83,3.18,5.75,1.47,2.64,3,5.27,4.41,7.93A5.22,5.22,0,0,1,706.75,335.29Zm-20.4-7.88-.24.12c.07.34,0,.84.24,1,1,.65,2,1.21,3.07,1.8l.26-.37C689.08,328.47,687.39,328.33,686.35,327.41Z" transform="translate(-0.66 0.87)"/><path class="cls-57" d="M684.83,339.35a3.84,3.84,0,0,1,.79.25l8.76,5c.47.27.89.55.59,1.2-.85-.61-1.66-1.28-2.55-1.81-2.3-1.38-4.64-2.7-6.95-4A3.81,3.81,0,0,1,684.83,339.35Z" transform="translate(-0.66 0.87)"/><path class="cls-45" d="M652.62,294.35v5.23L649,297.5c-1.23-.7-2.44-1.42-3.69-2.08a1.48,1.48,0,0,1-.93-1.57c.08-1.15,0-2.31,0-3.75l1.13,1.35.18.22c.85,1,1.53,2.36,2.61,2.81s2.5-.05,3.78-.13C652.21,294.34,652.37,294.35,652.62,294.35Z" transform="translate(-0.66 0.87)"/><path class="cls-45" d="M651.14,293.57c-.79,0-1.58,0-2.37,0a1,1,0,0,1-.65-.26,26,26,0,0,1-2.09-2.94l5.19,2.91Z" transform="translate(-0.66 0.87)"/><path class="cls-53" d="M738.35,320l-.85.68c-1.88.79-3.77,1.58-5.64,2.38-.42.18-.81.4-1.21.6l.1.36a15.78,15.78,0,0,0,1.55-.33c.81-.26,1.6-.58,2.4-.87-.53.36-1.05.73-1.58,1.08-.32.22-.64.41-1,.61l-1.62-.2a4.37,4.37,0,0,0-1.29-.09,6.18,6.18,0,0,0-1.31.55l-5.8,2.66-.53-.36,6.69-3.29c.32-.15.65-.28,1-.42l7.11-2.87a1.2,1.2,0,0,0,.24-.15Z" transform="translate(-0.66 0.87)"/><path class="cls-59" d="M722.13,327.4l5.8-2.66a6.18,6.18,0,0,1,1.31-.55,4.37,4.37,0,0,1,1.29.09l1.62.2-4.8,2.95c-.26-.1-.56-.34-.77-.29-1.1.3-2.18.67-3.27,1Z" transform="translate(-0.66 0.87)"/><path class="cls-53" d="M723.31,328.16c1.09-.35,2.17-.72,3.27-1,.21-.05.51.19.77.29v0l-2.71,1-5.8,2.32.09.42a5.8,5.8,0,0,0,1.2-.14c1-.31,1.9-.69,2.85-1a6.37,6.37,0,0,1-1,.73c-.89.41-1.81.75-2.72,1.12a2.1,2.1,0,0,0-2.59-.25c-1.79.83-3.66,1.49-5.5,2.21a1,1,0,0,1-.65,0A81,81,0,0,1,723.31,328.16Z" transform="translate(-0.66 0.87)"/><path class="cls-46" d="M719.71,334.61c1-.57,2-1.18,3.09-1.65.26-.12.74.25,1.11.39v.39c-1.08.57-2.14,1.19-3.26,1.67-.23.1-.68-.31-1-.48Z" transform="translate(-0.66 0.87)"/><path class="cls-46" d="M734.08,326.29c1-.54,2-1.13,3-1.6.23-.11.64.15,1,.24-.15.27-.23.63-.46.78a13.84,13.84,0,0,1-2.33,1.27c-.3.12-.76-.15-1.15-.24Z" transform="translate(-0.66 0.87)"/><path class="cls-60" d="M734.7,322.79c-.8.29-1.59.61-2.4.87a15.78,15.78,0,0,1-1.55.33l-.1-.36c.4-.2.79-.42,1.21-.6,1.87-.8,3.76-1.59,5.64-2.38Z" transform="translate(-0.66 0.87)"/><path class="cls-60" d="M723,329.94c-1,.35-1.89.73-2.85,1a5.8,5.8,0,0,1-1.2.14l-.09-.42,5.8-2.32.39.39Z" transform="translate(-0.66 0.87)"/><path class="cls-59" d="M725,328.77l-.39-.39,2.71-1Z" transform="translate(-0.66 0.87)"/><path class="cls-60" d="M687.31,311.63a4.28,4.28,0,0,1,1.27.27q3.1,1.74,6.15,3.58a9.28,9.28,0,0,1,3.58,4c1.85,3.75,3.81,7.46,5.73,11.18v5.56c-.71-.82-1.4-1.4-1.35-2.49.06-1.34,0-2.68,0-4,0-.93-.32-1.16-1.09-.71s-1.61,1.08-2.41,1.63l-.15,2.73a4.66,4.66,0,0,1-2.85-2.4,7,7,0,0,0-3.35-3.3c-.85-.47-1.69-.93-2.54-1.37-1.66-.88-3.22-1.85-3.2-4C687.15,318.74,687.24,315.18,687.31,311.63Z" transform="translate(-0.66 0.87)"/><path class="cls-62" d="M699.05,333.39l.15-2.73c.2.3.56.6.58.91.05,1.63,0,3.26,0,4.89-1.21-.19-.55-1.17-.75-1.79Z" transform="translate(-0.66 0.87)"/><path class="cls-52" d="M707.7,362.81a6,6,0,0,1-5-5.77,8.63,8.63,0,0,1,.3-1.48c2-1,3.95-.22,5.35,2.17a5.65,5.65,0,0,1,.71,3.5C709,362.07,708.37,362.47,707.7,362.81Z" transform="translate(-0.66 0.87)"/><path class="cls-52" d="M651.11,330.41c-3.49-.43-5.51-3.3-5-7.05.92-.54,1.88-1.05,2.93-.4a6.28,6.28,0,0,1,3.15,4.05C652.61,328.81,652.29,329.69,651.11,330.41Z" transform="translate(-0.66 0.87)"/><path class="cls-53" d="M699.05,333.39v1.28c-1.83-.94-3.51-2-4.43-4-.65-1.44-2.2-2-3.48-2.75-1-.62-2.12-1.2-3.18-1.79a3.35,3.35,0,0,1-1.81-3.14c0-3.14,0-6.28,0-9.41,0-.84.06-1.71,1.15-1.93-.07,3.55-.16,7.11-.2,10.66,0,2.18,1.54,3.15,3.2,4,.85.44,1.69.9,2.54,1.37a7,7,0,0,1,3.35,3.3A4.66,4.66,0,0,0,699.05,333.39Z" transform="translate(-0.66 0.87)"/><path class="cls-50" d="M686.35,327.41c1,.92,2.73,1.06,3.33,2.53l-.26.37c-1-.59-2.08-1.15-3.07-1.8-.2-.14-.17-.64-.24-1Z" transform="translate(-0.66 0.87)"/><path class="cls-63" d="M810.57,178.67c-3.3,1-5.81,4.85-6.38,9.88a26.72,26.72,0,0,0,.2,7c.05.34.08.68.11,1,.25,1.2.49,2.4.74,3.6a147.22,147.22,0,0,0,4.8,15.56c1,2.56,1.93,5.09,2.89,7.63a10.12,10.12,0,0,0,.54,1.15c.08.13.29.12.44.17.45-1.09.88-2.2,1.37-3.26a119.88,119.88,0,0,0,6.89-18.36,25.92,25.92,0,0,0,1.05-7.46,23.71,23.71,0,0,0-1.12-6.78c-1.51-4.67-3.82-8.18-7.43-9.79A6.57,6.57,0,0,0,810.57,178.67Zm-2.82,13.49c0-.37,0-.76,0-1.13.28-5.42,4-8.45,7.54-6.08,3.16,2.13,5,7.35,4.38,12.31-.67,5.27-4.33,7.73-7.67,5.07C809.2,200.09,807.87,196.59,807.75,192.16Z" transform="translate(-0.66 0.87)"/><path class="cls-64" d="M824.09,200.94l.41-2.29c.8-6.44-.58-11.92-3.86-16.46-2.74-3.79-6-5.26-9.82-3.68a1.32,1.32,0,0,0-.25.16,6.57,6.57,0,0,1,4.1.35c3.61,1.61,5.92,5.12,7.43,9.79a23.71,23.71,0,0,1,1.12,6.78,25.92,25.92,0,0,1-1.05,7.46,119.88,119.88,0,0,1-6.89,18.36c-.49,1.06-.92,2.17-1.37,3.26l1.5-1.1h0l.15-.28,5.75-13Z" transform="translate(-0.66 0.87)"/><path class="cls-49" d="M807.75,192.16c.12,4.43,1.45,7.93,4.25,10.17,3.34,2.66,7,.2,7.67-5.07.64-5-1.22-10.18-4.38-12.31-3.5-2.37-7.26.66-7.54,6.08C807.74,191.4,807.75,191.79,807.75,192.16Z" transform="translate(-0.66 0.87)"/><line class="cls-2" x1="859.46" y1="280.06" x2="863.29" y2="284.86"/><line class="cls-2" x1="865.25" y1="287.03" x2="869.09" y2="291.83"/><line class="cls-2" x1="871.01" y1="294.7" x2="873.36" y2="300.68"/><line class="cls-2" x1="874.63" y1="304.66" x2="876.02" y2="312.56"/><line class="cls-2" x1="876.54" y1="318.09" x2="875.06" y2="325.03"/><line class="cls-2" x1="873.67" y1="331.52" x2="870.27" y2="337.5"/><line class="cls-2" x1="867.61" y1="342.89" x2="861.85" y2="350.57"/><line class="cls-2" x1="858.54" y1="353.7" x2="851.82" y2="360.42"/><line class="cls-2" x1="846.07" y1="364.25" x2="838.83" y2="368.79"/><line class="cls-2" x1="830.72" y1="372.89" x2="824.44" y2="375.51"/><line class="cls-2" x1="762.48" y1="371.86" x2="755.25" y2="367.77"/><line class="cls-2" x1="749.44" y1="364.38" x2="742.2" y2="359.33"/><line class="cls-65" x1="350.57" y1="25.19" x2="657.97" y2="268.19"/><line class="cls-2" x1="814.33" y1="378.17" x2="808.06" y2="379.25"/><line class="cls-2" x1="797.75" y1="381" x2="789.94" y2="380.56"/><line class="cls-2" x1="779.34" y1="378.7" x2="770" y2="375.19"/><path class="cls-66" d="M841.92,171.75s8.48,3.68,8.48,15.95,7.49,1.33,7.49,1.33,3.15-15.71-10.6-21.94S841.92,171.75,841.92,171.75Z" transform="translate(-0.66 0.87)"/><path class="cls-50" d="M756.61,347.62l-1.51,2.69c-.61.4-1.21.83-1.84,1.2q-6.85,3.94-13.73,7.89-7.17,4.1-14.36,8.17a4.91,4.91,0,0,1-4.14.6,25.25,25.25,0,0,1-3.21-1.49c-1.27-.67-2.5-1.4-3.75-2.11a25.59,25.59,0,0,1-.56-2.6,17.51,17.51,0,0,0-6.2-11.91,8.84,8.84,0,0,0-1.71-.95c-1.15-1.69-4.14-1.38-5.26.51a11.94,11.94,0,0,0-1.25,5.49l-2-.73a14.38,14.38,0,0,1,1.2-6.07,4.5,4.5,0,0,1,6-2.53,15.68,15.68,0,0,1,8.52,6.81c.43.67.69,1.57,1.3,2,1.69,1.14,3.53,2.06,5.31,3.07a4.37,4.37,0,0,0,4-.47c2.26-1.28,4.49-2.6,6.72-3.92.2-.12.31-.4.46-.6,1-.45,2-.84,3-1.37q4.75-2.67,9.44-5.43c1.8-1.06,3.57-2.19,5.35-3.28a3,3,0,0,0,.62-.18c2-1.19,4-2.39,6-3.57a4.52,4.52,0,0,1,.83-.29l.75,1.21Zm-32.25,16.89a3,3,0,0,0,3.54.44c2.85-1.62,5.71-3.23,8.56-4.86l15.64-9a3.43,3.43,0,0,0,1.8-3.63ZM734.45,357c.24,0,.32,0,.36,0q5.58-3.18,11.15-6.39c.17-.1.39-.31.39-.48,0-1.39,0-2.78,0-4.34-3.94,2.27-7.71,4.42-11.46,6.6a1,1,0,0,0-.44.65C734.43,354.37,734.45,355.68,734.45,357Z" transform="translate(-0.66 0.87)"/><path class="cls-67" d="M712,335.29l.17-.5,7.13-3c.91-.37,1.83-.71,2.72-1.12a6.37,6.37,0,0,0,1-.73l2-1.17,2.32-1.36v0l4.8-2.95c.33-.2.65-.39,1-.61.53-.35,1-.72,1.58-1.08l2.8-2.14.85-.68.67-.69c1.1,1.1,2.23,2.18,3.31,3.3,2.44,2.51,4.9,5,7.27,7.59a15.43,15.43,0,0,1,1.63,2.65l-2.41,4.42q-6.72,3.84-13.43,7.68c-2.53,1.45-5,2.94-7.55,4.41l-.4-.09h0l-4.14-.08c.19-1.61-.91-2.57-1.83-3.61-2.69-3-5.38-6.06-8.1-9.06A12.76,12.76,0,0,0,712,335.29Zm7.76-.68-.1.32c.35.17.8.58,1,.48,1.12-.48,2.18-1.1,3.26-1.67v-.39c-.37-.14-.85-.51-1.11-.39C721.73,333.43,720.73,334,719.71,334.61Zm14.37-8.32v.45c.39.09.85.36,1.15.24a13.84,13.84,0,0,0,2.33-1.27c.23-.15.31-.51.46-.78-.32-.09-.73-.35-1-.24C736,325.16,735.07,325.75,734.08,326.29Z" transform="translate(-0.66 0.87)"/><polygon class="cls-38" points="754.34 351.87 756.34 348.87 756.34 341.87 755.34 339.87 755.34 338.11 761.34 341.87 754.34 351.87"/></svg>