<svg id="Layer_1" data-name="Layer 1" xmlns="http://www.w3.org/2000/svg" viewBox="0 0 1920 1080.21"><defs><style>.cls-1{fill:#fff;}.cls-2{fill:#fefefe;}.cls-3{fill:#fae5e7;}.cls-4{fill:#f6e8ee;}.cls-5{fill:#eceefa;}.cls-6{fill:#f2eaf2;}.cls-7{fill:#efecf6;}.cls-8{fill:#f6e3e6;}.cls-9{fill:#dce3e6;}.cls-10{fill:#f0afb3;}.cls-11{fill:#7595c2;}.cls-12{fill:#76c6ed;}.cls-13{fill:#e0d4d7;}.cls-14{fill:#74a8e6;}.cls-15{fill:#ec6882;}.cls-16{fill:#f68a6c;}.cls-17{fill:#f6a46e;}.cls-18{fill:#f6db6f;}.cls-19{fill:#e8b67c;}.cls-20{fill:#e7ecef;}.cls-21{fill:#726669;}.cls-22{fill:#6e678b;}.cls-23{fill:#f9f8f9;}.cls-24{fill:#241b52;}.cls-25,.cls-26,.cls-27,.cls-28,.cls-32,.cls-33,.cls-34,.cls-40{fill:none;stroke-miterlimit:10;}.cls-25,.cls-26,.cls-27{stroke:#4d4882;}.cls-25,.cls-33,.cls-34{stroke-width:4px;}.cls-26{stroke-width:2px;}.cls-27,.cls-28{stroke-width:3px;}.cls-28{stroke:#73c0ef;}.cls-29{fill:#5eb8ef;}.cls-30{fill:#a8e092;}.cls-31{fill:orange;}.cls-32{stroke:#504b87;stroke-width:10px;}.cls-33{stroke:#fff;}.cls-34{stroke:#22e022;}.cls-35{fill:#f9d4c8;}.cls-36{fill:#ecaf9c;}.cls-37{fill:#f6bbaa;}.cls-38{fill:#cd8e7b;}.cls-39{fill:#bbb;}.cls-40{stroke:#b2b1b1;}.cls-41,.cls-42{fill:#b2b1b1;}.cls-42{font-size:7.42px;font-family:MyriadPro-Regular, Myriad Pro;}.cls-43{letter-spacing:0em;}</style></defs><rect class="cls-1" y="0.21" width="1920" height="1080"/><path class="cls-2" d="M1249.88,551.84c-1.13.62-4.78,2.92-4.83,3.5-.16,1.91.78,4.44-.13,5.67-3.51,4.69-11.9,23.89-13.25,26.89-.94,2.11-2.49,3.94-3.64,6-1.4,2.48-9.44,27-9.77,28.69-2,10.32-4.62,20.55-6.1,30.93-1.78,12.55-4,25.27-3.57,37.83.75,19.66,7.78,38,16.81,55.39,13.29,25.57,31.89,46.77,54.61,64.4a251.7,251.7,0,0,0,57.14,32.83c20.65,8.67,42.07,15.14,64.37,17.83,23.55,2.83,47.14,5.85,70.8,7.13,19,1,38.23-.26,57.35-.86,12.15-.38,24.32-1,36.41-2.2,19.47-1.88,39-3.49,58.29-6.65,28.42-4.65,56.71-10.13,84.89-16,31.37-6.57,61.49-17.39,91.23-29.19,8.24-3.27,16.31-7,24.45-10.49,11.9-4.39,23.86-8.65,35.7-13.21,16.26-6.26,32.4-12.86,48.68-19.08,4.89-1.87,6.73-4.55,6.68-10.07-.31-33.71-.17-67.43-.17-101.14V317.11c-.35-8.9-1-17.79-1-26.69q-.12-99.65,0-199.28c0-7.33,0-7.35-7.24-7.35H1160.41l-.64,1.54a36.46,36.46,0,0,0,3.25,3.74c18.2,15.84,36.88,31.17,54.56,47.57a468.82,468.82,0,0,1,54.91,61.23c16.63,22,31,45.29,40.44,71.34,5.47,15.06,9.81,30.53,10.32,46.58.54,17.38,1.13,34.95-.75,52.17-1.63,15-6.66,29.64-10.19,44.44-3.31,8.82-6.49,17.69-10,26.44-4.21,10.6-8.67,21.1-13,31.64l-6.55,14.22Q1266.33,518.28,1249.88,551.84Z" transform="translate(0 -0.79)"/><path class="cls-3" d="M1824.94,803.47c-8.14,3.51-16.21,7.22-24.45,10.49-29.74,11.8-59.86,22.62-91.23,29.19-28.18,5.91-56.47,11.39-84.89,16-19.27,3.16-38.82,4.77-58.29,6.65-12.09,1.17-24.26,1.82-36.41,2.2-19.12.6-38.3,1.88-57.35.86-23.66-1.28-47.25-4.3-70.8-7.13-22.3-2.69-43.72-9.16-64.37-17.83A251.7,251.7,0,0,1,1280,811.11c-22.72-17.63-41.32-38.83-54.61-64.4-9-17.38-16.06-35.73-16.81-55.39-.47-12.56,1.79-25.28,3.57-37.83,1.48-10.38,4.1-20.61,6.1-30.93.33-1.72,8.37-26.21,9.77-28.69,1.15-2,21-42.63,21.47-43.18,6.1.68,9.2,4.49,15.32,4.9.78,0,1.71-1.92,2.57-3h1l.54,6.54a11.32,11.32,0,0,0-2.6-.44,31.6,31.6,0,0,0-3.81.65c.23,1.08.09,2.58.75,3.14a6.87,6.87,0,0,0,3.92,1.49c.86,0,1.77-1.07,2.65-1.66.63,1.5,1.27,3,1.9,4.52h-15.26c.22,1.38.12,4.52.89,4.76,1.76.53,4-.37,7.21-.89-.46,2.06-.87,3.94-1.54,7l-3.82-4.52-2.85,2.53-6.45-1.61c.24,1.86.6,3.71.68,5.57s-.14,3.62-.25,6c1.65,3.68,5.08,2.77,8.5,1.91l2.18,1-1.31,2.38-16.28,1.3c3,4.1,10.25,4.68,16.24,2l1.09,5.46c-5.6-4.44-10.51,1.1-16.7.62,3.47,3.26,10.46-1.25,10.25,6.14l1,5.18c.5,2.93,1,5.85,1.48,8.73l9.37-.93-3,3.39-4.6.95-1.07-1.4-.38.38,1.4,1.08c-1.42,6.84,1.49,12.86,3.55,19.08.49-3.57,0-7,0-10.51a54.51,54.51,0,0,1,1.08-7.66l3.09,6.72-1.72.86,1.74,1.34,2.16,2.17c-.76,3.16-2.57,6.61,1.47,8.16l5.21-2.71,2.11,2.16v6.18l2.17-.07v-6q1.59-6.62,3.19-13.24l4.51,13.14c-.16,3.85-.2,7.61,5.48,6.64l2.09,1.31q-.62,2.7-1.24,5.4c-2.62-1.56-3.58-.21-2.74,2.07,2.1,5.67,4.6,11.19,7,16.8,3.27-1,4.83-2.4,2.34-5.54a3.13,3.13,0,0,1-.3-2.9c3.12-4.26.55-4.85-3-5.23-.71-.07-1.3-1.32-1.94-2l8.28-.77c.63,3.74,1.36,7.67,5.59,7.14.64-3.63,1.08-6.16,1.53-8.69l3.12,1.59-1.64,6.41,7.22.33,9,.42,2,1.09c.42,2.3.85,4.61,1.3,7l3.81-2.33-2.18-5,.73-1.71,2.06-.25,1.93,2.24c1.24,4.72,2.47,9.44,3.93,15a19.87,19.87,0,0,0,2.51-2.4c1.18-1.45,2.14-3.09,3.19-4.65l1,.94-2,5.73,7.12-.92-3.75-6.49,3.57-.73,1.9,1.21c.24,2.48-.32,5.46.87,7.35,2.87,4.57.46,4.83-3.09,4.79H1334c-.79,1.47-1.39,3.61-2.78,4.91-2.72,2.55-4,5.34-3.65,9.07a57.87,57.87,0,0,1,0,6.16l-6.33,1.83-.14,1.69,14,5.07,3.72,5.66c1.88-2,3.49-4.4,5.76-5.76,2.58-1.53,5.77-2,8.66-3.06,7.54-2.68,10.39-8.09,8.36-15.79-.81-1.34-1.61-2.69-2.41-4,.2-2.89,4.44-5.52.54-8.66l3.08-3.21,2.2.68c0,4.52-.16,9.06.12,13.56a3.83,3.83,0,0,0,2.67,2.58c4.59.25,9.21.08,13.82.06l.9,1.07c1.16,6.43,2.27,12.87,3.53,19.28.37,1.89,1.42,3.65,1.71,5.53,1,7,2.22,13.95,2.72,21a42.15,42.15,0,0,1-1.3,11.68c-.29,1.31-2.21,2.27-3.39,3.4l5.53,2.25c.55,2.44-10.71,5.88.54,8.48-5,3.61-2.26,6.76-.57,10l-1.44,1.46-2.22,1.22c-6.11,3-12.22,5.92-18.31,8.91a3.09,3.09,0,0,0-1.19,1.11c-3.63,5.83-8.51,9.67-15.9,10,5.16,2.58,9.25,6.84,16,2.55s10.25-3,13.82,3.31c2.11-6,4.27-11.91,12.24-9.36l.89,7c2.33,1.25,4.59,2.32,6.71,3.62,7.26,4.44,14.92,7.2,23.61,7.17,29.33-.12,58.67,0,88-.06,6.82,0,14.15,1.63,18.94-5.45h2.19c1.17,1.77,2,4.56,3.59,5s3.77-1.4,5.55-2.49a20.77,20.77,0,0,0,3.08-2.87l7.47,3.53,3.4.07h1l2.26,0c1.57.72,3.12,2,4.71,2.05,6.43.24,12.87.11,19.31.11,1.72,4.64,4.7,5.35,8.74,2.82,1.5-.95,3-1.88,4.52-2.82,32.48,0,65,.28,97.43-.11,19.79-.24,35.11-13.51,35.09-35q-.07-62.94,0-125.89c.68.5,1.87.92,2,1.51.91,5.54,2.11,11.09,2.31,16.67.36,10.3-.74,20.71.35,30.91,1,9.6-.58,21.36,12.55,25.31.47.15.82.7,1.26,1,2.89,2.07,5.8,4.12,8.7,6.18a28.6,28.6,0,0,0,4.51,5c1.21,1,3.27,1.4,4,2.62,2.12,3.59,6.1,5,8.53,8.79,3.25,5.09,10,8,15.39,11.68,6.49,4.49,13.34,8.52,19.53,13.38,7,5.5,13.46,11.71,20.16,17.61ZM1260.61,680.63c8.48-6.68,12.83-15.67,16.45-25.69H1263c.47,1.72.86,3.13,1.23,4.46l-7.68,5,2.76,2C1256.27,672.49,1256.28,672.64,1260.61,680.63Zm44.28,10.42c3.18,4.65,5.43,9,8.75,12.29,1.49,1.46,5.14.73,7.71,1,4.27-9.94,2.36-12.7-8.32-12.63C1310.76,691.72,1308.49,691.35,1304.89,691.05Zm8.54-8.11c-1.7-3.19-2.88-5.29-3.94-7.43a28.46,28.46,0,0,1-1.16-3.12c-1,.89-2.49,1.61-2.84,2.71s.23,2.79.39,4l-6.23,1.69.28,1.32ZM1399,817.28l-1.62.23c-1.26,6.41.35,16.16,4,18.88C1400.5,829.45,1399.75,823.37,1399,817.28ZM1251.67,628.05l2.63-2.29c-.56-3.56-1-6.23-1.41-9C1248.14,616.52,1247.85,618,1251.67,628.05Zm-2.83,5.64,6.68,1.24-1.13-6.53Zm14.7,18.22c1.13-1.39,2.56-2.43,2.41-3.14-.23-1.09-1.54-2-2.4-2.91-.86.95-2.17,1.81-2.41,2.91C1261,649.47,1262.42,650.51,1263.54,651.91Zm-14.63-46.49-1.49.27c.14,1.6-.1,3.4.59,4.72.4.78,2.26.8,3.47,1.17l.58-1.15Zm20.81,45.5,2.17-.63c-.5-1.07-1-2.16-1.54-3.18a3.21,3.21,0,0,0-1.31.46C1269.18,648.7,1269.47,649.81,1269.72,650.92Zm-25-41.16a7.3,7.3,0,0,0-2.08-1c-.34,0-1.11.67-1.06.81.22.58.6,1.39,1.06,1.49S1243.66,610.42,1244.69,609.76ZM1385.3,751.15c-.12-.3-.16-.7-.36-.82s-.55.09-.84.16l.42,1.07Z" transform="translate(0 -0.79)"/><path class="cls-4" d="M1824.94,803.47l5-6.11c-6.7-5.9-13.15-12.11-20.16-17.61-6.19-4.86-13-8.89-19.53-13.38-5.35-3.71-12.14-6.59-15.39-11.68-2.43-3.82-6.41-5.2-8.53-8.79-.72-1.22-2.78-1.59-4-2.62a28.6,28.6,0,0,1-4.51-5c-2.9-2.06-5.81-4.11-8.7-6.18-.44-.31-.79-.86-1.26-1-13.13-4-11.52-15.71-12.55-25.31-1.09-10.2,0-20.61-.35-30.91-.2-5.58-1.4-11.13-2.31-16.67-.09-.59-1.28-1-2-1.51q0-46.18,0-92.37a51.48,51.48,0,0,1,1.09-7.45c5.4.11,8.88-2.49,10.65-7.52-1.7-9.53-3.4-19.06-5.18-29l9-2.56c2.65,5.59,3.51,5.91,9.4,3.69l-7,6.61a28.45,28.45,0,0,0,2.66,2.5c7.4,5.57,15.6,10.34,22.1,16.81,10.17,10.12,23.81,15.93,32.8,27.33a3.57,3.57,0,0,0,2,.81c5.63,1.3,9.69,4.34,11.87,9.89a8.24,8.24,0,0,0,3.26,3.29c10.07,6.59,21.32,11.54,29,21.4,1,1.28,2.8,1.94,4.23,2.88,4.64,3,11,5.08,13.52,9.37,3.78,6.45,10,9.1,15,13.63,2.68,2.46,6.57,3.68,9,6.29,6.12,6.48,19,8.53,23.12,17.28.15.3,1,.26,1.55.38,0,33.71-.14,67.43.17,101.14,0,5.52-4.79,8.2-9.68,10.07-16.28,6.22-32.42,12.82-48.68,19.08C1848.8,794.82,1836.84,799.08,1824.94,803.47Z" transform="translate(0 -0.79)"/><path class="cls-5" d="M1534.77.8h379.75c7.23,0,4.24,83,4.24,90.35q0,99.64,0,199.28c0,8.9.67,17.79,1,26.69-3.16-2.5-10.26-5.08-13.5-7.48-5.77-4.26-11.79-8.19-17.37-12.68-4.2-3.39-7.35-8.35-11.91-11-7.11-4.08-10.86-9.12-9.54-17.4q5.33-17,10.66-34c.15-1.24.31-2.48.46-3.72l13.71-37.7-1.7-1.61-37.21,12.79-2.2,1-3.19,1.36-4.47,2-3.18,1.33-2.21,1.1-2.15,1.12c-2.9-2.61-2.85.2-3.43,1.86l-3.17,1.38-2.19,1,0,0c-2.89.83-5.85,1.47-8.66,2.53-6.86,2.58-13.6,9-20.6.27-.21-.26-.66-.31-.94-.53-8.3-6.35-16.63-12.66-24.88-19.08-7.48-5.82-14.63-12.09-22.38-17.52-7.43-5.2-13.64-11.16-18-19.22-1.65-3.07-4.44-5.59-6.93-8.14-7.66-7.84-16.69-13.26-27.62-15.24a6.48,6.48,0,0,1-2.35-1.29c-9.41-6.81-18.87-13.56-28.2-20.5s-18.48-13.58-27.25-20.93C1635.05,93.17,1538.64,5.2,1534.77.8Z" transform="translate(0 -0.79)"/><path class="cls-6" d="M1918.83,660c-.54-.12-4.4-.08-4.55-.38-4.12-8.75-14-10.8-20.12-17.28-2.47-2.61-6.36-3.83-9-6.29-4.94-4.53-11.19-7.18-15-13.63-2.51-4.29-8.88-6.33-13.52-9.37-1.43-.94-3.23-1.6-4.23-2.88-7.7-9.86-19-14.81-29-21.4a8.24,8.24,0,0,1-3.26-3.29c-2.18-5.55-6.24-8.59-11.87-9.89a3.57,3.57,0,0,1-2-.81c-9-11.4-22.63-17.21-32.8-27.33-6.5-6.47-14.7-11.24-22.1-16.81a28.45,28.45,0,0,1-2.66-2.5c2.55-2.41,4.79-4.51,7-6.6,1.24-8.39,7-13.1,13.75-17,1-.59,1.51-2,2.42-2.89a45.22,45.22,0,0,1,3.62-2.84l3.38-.74,1.18-1.32c2.2-.73,4.35-1.79,6.6-2.14,7.87-1.22,8.88-2.14,10.15-11l-18,6c-3.68-2.82-7.93-6.32-11.11-.28-2.72,5.18-7,7-11.84,8.54-4.55-1.92-9.05-4-13.67-5.74-5.65-2.15-9.13-5.91-9.3-12.07q-.67-25.39-1.1-50.8c-.15-9.63,0-19.26,0-28.89q3-3.24,6-6.5c3.67-1.51,3.67-3.85,1.51-6.68,1.25-1.85,2.24-4,3.8-5.5,2.7-2.66,5.75-5,8.65-7.42,7-1.38,13.52-3.16,15.47-11.6.36-1.54,3.15-2.67,5-3.65a22.66,22.66,0,0,1,4.56-1.33l8.74-5c-1.16,1.68-2,3.7-3.54,5-2.2,1.86-4.9,3.11-7.3,4.75-4.45,3-4.51,5.17-.44,8.82,4.54,4.09,9.17,8.09,13.55,12.34,1.82,1.77,2.84,4.35,4.66,6.11,1.42,1.37,3.49,2.82,5.3,2.86,3.3.06,5.1,1.23,5.92,4.32.1.41.78.68,1.33,1.12l3.82-1.8,8.37,10.31a12,12,0,0,1,6.48,3.47c2,2,3.36,5.82,5.58,6.34,7.46,1.74,11.1,5.84,10.89,14.08l4.6-3.66c1,.77,1.75,1.48,2.62,2.08,4.83,3.38,9.73,6.67,14.49,10.15a10.59,10.59,0,0,1,2.41,3.37c2.29,4,4.71,7,9.71,8.85,5.72,2.12,10.55,6.85,15.48,10.81,4.41,3.54,7.9,8.69,12.8,11.05,3.68,1.76,5.08,3,4,7,5,.26,6.39,2.88,6.54,7.28.08,2.46,5,4.87,6.08,7.3ZM1750.37,437.83l-3.95-3.57c-4.12,3.39-11,4.78-10,12.25.74,5.49,6.64,9.29,12.27,8.7,5.33-.56,7.38-3.92,7.42-8.92.22-2.26,1-4.65.53-6.76C1755.76,435.73,1753.65,434,1750.37,437.83ZM1788,435v-4.38c-2.68.51-4.81.81-6.87,1.33-5,1.27-5.28,2.3-2.09,6.39a12.56,12.56,0,0,1,2.18,4.68c.74,3,2,6.61,5.39,5.1,3.05-1.38,5.05-5.09,7.51-7.78Z" transform="translate(0 -0.79)"/><path class="cls-6" d="M1145.37.8h234.41c2.29,1.76,34.61,86.49,36.86,88.29,5.95,4.78,11.6,10,17.92,14.25a46.18,46.18,0,0,1,9.85,8.67c3.14,3.68,7.47,7.19,12,8.67,7.37,2.43,12.79,7.26,17.23,12.74a18.52,18.52,0,0,0,13.36,7.19c11.53,1.13,23.13,1.53,34.68,2.42,1.46.11,2.83,1.37,4.25,2.1-33.57,0-67.15-.5-100.7.19-19.77.41-30.17,7.87-34.54,26.91-2.2,9.58-1.23,19.88-1.69,29.86v7.67q-5.25,2.73,0,5.48v3.28c-.68.5-1.82.88-2,1.5-1.28,5.28-2.29,10.62-3.57,15.89-.55,2.29-1.54,4.46-2.68,7.64-4.84-4.5-8.49-8.38-12.64-11.63-4.67-3.65-10-6.48-14.66-10.11-5.34-4.13-10.2-8.88-15.48-13.09-2.22-1.78-5.2-2.59-7.44-4.34Q1312,190,1293.74,175.27c-7.43-6-14.5-12.44-21.94-18.43-12.75-10.25-27-18.44-38.85-30-5.58-5.49-12.33-9.9-18.91-14.26-12.76-8.48-23.3-20.11-37.62-26.36C1175.84,85.92,1145.71,1.62,1145.37.8Z" transform="translate(0 -0.79)"/><path class="cls-4" d="M1153.37.8c.34.82,22.47,85.12,23.05,85.38,14.32,6.25,24.86,17.88,37.62,26.36,6.58,4.36,13.33,8.77,18.91,14.26,11.8,11.6,26.1,19.79,38.85,30,7.44,6,14.51,12.43,21.94,18.43Q1312,190,1330.53,204.38c2.24,1.75,5.22,2.56,7.44,4.34,5.28,4.21,10.14,9,15.48,13.09,4.69,3.63,10,6.46,14.66,10.11,4.15,3.25,7.8,7.13,12.64,11.63,1.14-3.18,2.13-5.35,2.68-7.64,1.28-5.27,2.29-10.61,3.57-15.89.15-.62,1.29-1,2-1.5l2.19,2.2c-.06,6.2.06,12.42-.23,18.61-.51,10.69-1.59,21.35-1.87,32-.33,12.49.3,25-.15,37.5-.82,23.17-2.17,46.32-3.19,69.48-.16,3.72.53,7.65-6.49,6.13,2.85,3.19,7.12,5.66,1,8-.49.19-.36,2.47-.19,3.74a27.14,27.14,0,0,0,1.2,4.05c-3.91,0-7.82-.14-11.71.11-2.77.19-5,1.28-4,4.88a11.28,11.28,0,0,1-.13,3.36l-1.81.48c-.71-2-1.4-4-2.15-6a16.74,16.74,0,0,0-1.47-3.25c-.14-.21-1.73.07-1.81.35a6.84,6.84,0,0,0-.3,3.42c1.07,3.88.93,7.39-2.68,11.86.24-6.59-1.69-8.05-7-6.83-3.4.78-7.37-1-11.1-1.49a5.44,5.44,0,0,0-3.06.6c-5.53,2.91-7.93,2.51-11.57-2.22-2-2.53-3.25-2.87-4.91.53-1.17,2.4-3.5,4.23-5.32,6.32,3.53-14.8,8.56-29.43,10.19-44.44,1.88-17.22,1.29-34.79.75-52.17-.51-16.05-4.85-31.52-10.32-46.58-9.44-26.05-23.81-49.34-40.44-71.34S1066.28,1.12,1066.41.8Zm190,398.21c-1.34,2.29-2.12,3.07-2.17,3.9,0,.45,1.48,1.52,1.77,1.36a3.53,3.53,0,0,0,1.69-2.1C1344.81,401.47,1344.09,400.61,1343.39,399Z" transform="translate(0 -0.79)"/><path class="cls-7" d="M1525.9,145.13c-1.42-.73-2.79-2-4.25-2.1-11.55-.89-23.15-1.29-34.68-2.42a18.52,18.52,0,0,1-13.36-7.19c-4.44-5.48-9.86-10.31-17.23-12.74-4.5-1.48-8.83-5-12-8.67a46.18,46.18,0,0,0-9.85-8.67c-6.32-4.24-12-9.47-17.92-14.25-2.25-1.8-41.57-86.53-43.86-88.29h218c3.87,4.4,44.28,92.37,48.72,96.09,8.77,7.35,18.06,14.1,27.25,20.93s18.79,13.69,28.2,20.5a6.48,6.48,0,0,0,2.35,1.29c10.93,2,20,7.4,27.62,15.24,2.49,2.55,5.28,5.07,6.93,8.14,4.33,8.06,10.54,14,18,19.22,7.75,5.43,14.9,11.7,22.38,17.52,8.25,6.42,16.58,12.73,24.88,19.08.28.22.73.27.94.53,7,8.71,13.74,2.31,20.6-.27,2.81-1.06,5.77-1.7,8.66-2.53-6.08,3.59-12.28,7-18.22,10.8-17.14,11-34.19,22.14-51.75,33.53-6.56-8.83-15.87-14.58-26.56-18.27-.37-20.37-.47-40.76-1.17-61.13-.78-22.5-14.56-34.56-36.25-35.14-18.34-.49-36.71,0-55.06-.15-9-.08-18-1-27-1C1582.79,145.05,1554.35,145.13,1525.9,145.13Z" transform="translate(0 -0.79)"/><path class="cls-7" d="M1918.83,494.56c-1.09-2.43-6-4.84-6.08-7.3-.15-4.4-1.52-7-6.54-7.28,1.11-3.93-.29-5.21-4-7-4.9-2.36-8.39-7.51-12.8-11.05-4.93-4-9.76-8.69-15.48-10.81-5-1.85-7.42-4.85-9.71-8.85a10.59,10.59,0,0,0-2.41-3.37c-4.76-3.48-9.66-6.77-14.49-10.15-.87-.6-1.66-1.31-2.62-2.08l-4.6,3.66c.21-8.24-3.43-12.34-10.89-14.08-2.22-.52-3.56-4.32-5.58-6.34a12,12,0,0,0-6.48-3.47l-8.37-10.31L1805,398c-.55-.44-1.23-.71-1.33-1.12-.82-3.09-2.62-4.26-5.92-4.32-1.81,0-3.88-1.49-5.3-2.86-1.82-1.76-2.84-4.34-4.66-6.11-4.38-4.25-9-8.25-13.55-12.34-4.07-3.65-4-5.8.44-8.82,2.4-1.64,5.1-2.89,7.3-4.75,1.51-1.27,2.38-3.29,3.54-5,1.89-1.25,5.51-1.19,3.87-5.21-.1-.25,1.57-1.59,2.56-1.84,2.41-.62,4.91-.9,7.37-1.32l-.4-1.72-3.47.92-.22-.23c2-4.35,4.34-7.95,10.27-6.06.8.26,3.69-2.42,3.52-3.34-1.07-5.47,2.54-5.56,6.17-6.49a15.55,15.55,0,0,0,6.66-3.8c1.76-1.71,2.69-4.27,4-6.46,1.56-1.5,3-3.09,4.69-4.48q13.08-10.94,26.23-21.8c3.34-1.29,5.6-3.24,5.18-8.71l-7.49,6.33c-4.23,1.65-7.86,7-14.52.94l7.94-6.22,19.66-14.58c-1.32,8.28,2.43,13.32,9.54,17.4,4.56,2.61,7.71,7.57,11.91,11,5.58,4.49,11.6,8.42,17.37,12.68,3.24,2.4,9.34,5,12.5,7.48Z" transform="translate(0 -0.79)"/><path class="cls-8" d="M1312.31,412.41c1.82-2.09,4.15-3.92,5.32-6.32,1.66-3.4,2.95-3.06,4.91-.53,3.64,4.73,6,5.13,11.57,2.22a5.44,5.44,0,0,1,3.06-.6c3.73.47,7.7,2.27,11.1,1.49,5.29-1.22,7.22.24,7,6.83,3.61-4.47,3.75-8,2.68-11.86a6.84,6.84,0,0,1,.3-3.42c.08-.28,1.67-.56,1.81-.35a16.74,16.74,0,0,1,1.47,3.25c.75,2,1.44,4,2.15,6l1.81-.48a11.28,11.28,0,0,0,.13-3.36c-1-3.6,1.19-4.69,4-4.88,3.89-.25,7.8-.09,11.71-.11l.35.35c-.73,1.79-1.45,3.59-2.36,5.85l7.58,7L1385.1,424c-1.71,2.06,2.53,7-2.81,7.43-.64-2.77-1.16-5-1.68-7.22l-5.73,1.76-4.08-3c.19-2.63.36-4.44.33-6.25a15.73,15.73,0,0,0-2.41-.31c-.1,1.34-.21,2.68-.38,4.78-1.43.82-3.67,1.94-5.72,3.35a3.57,3.57,0,0,0-1.29,2.56c0,.45,1.51,1.5,2,1.32,6.74-2.46,8.26,1.32,8.41,6.84l1.16,2.21,2.68-4.94,3.72,7.36c-3.83-1-7.86-2.86-10.16,2.44l-2.15-2.41c1-9.21-6.67-4.63-10.4-6.06,1.57,1.78,3.66,2.49,5.6,3.47a14.21,14.21,0,0,1,2.68,2.32q-1,4.5-2,9l-2.88-1a8.19,8.19,0,0,1-1.09-2.53,37.57,37.57,0,0,1,.29-4.71c-1.25.34-3.26.33-3.61,1.08-.72,1.6-1.32,4-.63,5.34,1.13,2.29,3.32,4,5.06,6l4-1.11a1,1,0,0,1,.81.43l2.39,12.09-.21,1.84-4.63.16c-.74-.81-1.43-2.25-2.22-2.31a69.8,69.8,0,0,0-7.91.23l-2-.09-7.38.44,5,6.29,2.74-3.61,1.16,0a24.7,24.7,0,0,1,1.71,4.48,41.85,41.85,0,0,1,.06,6.19c5.64-4.39,5.64-4.39,9-1.22-.53,1.63-1.07,3.26-1.21,3.7l2.49,6.76c-.1,1.43-.53,4.05-.27,4.12,3.18.87,6.5,1.19,9.69,2a42.62,42.62,0,0,1,5.87,2.45,34.65,34.65,0,0,1-2.9,5.5c-.85,1.12-2.42,1.68-4.42,3,8.81,2.18,8.87,2.27,5.29,7.08l4,1.2c.27,9.2,2.7,9.14,10.25,9.12,1.06,3,2,5.76,3,8.53l2,1.56q.06,20.38.14,40.77l-3.39,3.91-8,1.79-8.34-4.54-2-1.19c-3.4-5.29-5-5.72-9-2.36-1.52.26-3.43,1.23-4.47.65a59.74,59.74,0,0,1-7.1-5.18l-10.13,2.33-3.51-7.25-.78-2.35c-3.76-2.57-7.47-5.22-11.33-7.61-.5-.31-1.82.73-2.77,1.14l-2-.31c-1.18-2.56-2.35-5.13-3.53-7.69.67-5.62,3.8-11.38-1.19-16.59,5.18-2.17,5.28-2.61,1.83-7.35,3.61-.52,7.64-.17,9.21-3.69l-8.59-3.41c-.34,2.29-.68,4.65-1,7l-4.85.18-17.28-2.94a18.61,18.61,0,0,0-.26-2.61c-1-4.42-3.53-7.56-8.11-8.55s-6.22,2.47-8.47,5.4c-1.42,1.86-3.73,3.06-5.65,4.56L1290,523l-20.6,7.82L1274,533c1.36,1.9,2.1,4.3,5.56,3.54,1.24-.27,3,1.83,4.52,2.85l-1.45,1.86-8.72,4.54-4.58-2.28c-.38,3.58-.67,6.37-1,9.15h-1a50.33,50.33,0,0,0-5.15-.65c-4.12-.13-8.24-.1-12.36-.14q16.44-33.57,32.89-67.13c2.1,2.62.8,8.13,6.52,7.66.1.71,0,1.63.35,2.1,4,4.78,12.38,4.69,17.88-.1,4.32-3.76,5.09-12.05,1.54-16.62a14.21,14.21,0,0,0-1.64-3.09c-5-5.54-11.77-4-18.1-4.17,4.35-10.54,8.81-21,13-31.64C1305.82,430.1,1309,421.23,1312.31,412.41Zm31.79,38.68c1.47-10.86-5.31-13.52-16.23-11.56,2.57,3.78,5.1,7.51,7.08,10.44Zm-11.8,22-2.75.54,2.22,9.83L1334,483Zm31.28-16.94-2.6-.54c-.43,1.7-.85,3.41-1.28,5.11,1,.12,2.66.51,2.73.32A36.59,36.59,0,0,0,1363.58,456.11Zm.58-41,1.28.33,1.09-2.68-2.15-.79Z" transform="translate(0 -0.79)"/><path class="cls-9" d="M1289.29,492.37c-5.72.47-4.42-5-6.52-7.66l6.55-14.22c6.33.15,13.06-1.37,18.1,4.17a14.21,14.21,0,0,1,1.64,3.09Z" transform="translate(0 -0.79)"/><path class="cls-10" d="M1249.88,551.84c4.12,0,8.24,0,12.36.14a50.33,50.33,0,0,1,5.15.65c-.86,1-1.79,3-2.57,3C1258.7,555.18,1248.75,552.46,1249.88,551.84Z" transform="translate(0 -0.79)"/><path class="cls-11" d="M1344.15,567.77l10.13-2.33a59.74,59.74,0,0,0,7.1,5.18c1,.58,2.95-.39,4.47-.65,1.83,3.31,4,6.48,5.42,10,5.1,12.7,9.93,25.5,14.63,37.67l9.75-15.71.06,4.18c-9.53,11.5-10.9,24.75-8.11,39.38l8.06,1.38.7,17.46-.48,33c-2.55,1.21-3.39,2.57-.41,4.3V707c-3.08,0-4.54-1.24-4.28-4.62.14-1.81-.73-3.7-1.08-5.25l-7.57,2-.9-1.07-.3-3c.39-.68.79-1.35,1.19-2a38.09,38.09,0,0,0,4,1.21,5.63,5.63,0,0,0,3.27.07,2.81,2.81,0,0,0,.44-2.73,5.1,5.1,0,0,0-3.35-1.91c-1.53,0-3.05.92-4.57,1.45-1.5-.25-2.29-4.63-4.5-.76l-3.13.71c-2.5-1.24-3.65-3-2-5.67.88,0,1.77,0,2.65.11,1.71.23,3.42.53,5.13.8-.08-1.26,0-3.58-.24-3.61a37.36,37.36,0,0,0-5.49.13c-.36,0-.72,0-1.07,0,5.83-9.54,10.08-19.64,11.61-30.83.46-3.32,1-6-3.37-7.05s-4.3,2.37-4.87,4.75c-2,8.25-3.77,16.55-5.63,24.84l-1.39-1.16c1.59-8.34,2.78-16.78,4.92-25,1.06-4,.65-6.21-3.29-7.5-1.54-.5-3-1.12-4.56-1.69a22.51,22.51,0,0,0-2.49-2.83C1341.56,617.54,1336,594.1,1344.15,567.77Z" transform="translate(0 -0.79)"/><path class="cls-12" d="M1367.09,639.18c1.52.57,3,1.19,4.56,1.69,3.94,1.29,4.35,3.48,3.29,7.5-2.14,8.19-3.33,16.63-4.91,25-.54-.05-1.15-.29-1.61-.11-6,2.27-5.84,2.28-6.11-4a4.94,4.94,0,0,0-2.73-3.44c-.85-.34-2.39,1.05-3.79,1.74,4.75,5.76,4.62,6.44-.73,7.68l-1.9-1.21V660.54a4.71,4.71,0,0,0-3.44,2.24c-1,1.25-1.87,2.54-2.8,3.81-.77-1.45-2.23-2.93-2.17-4.35.15-4-1.3-5.26-5-3.88a10.29,10.29,0,0,1-3.33.74c-4.44,0-8.89-.19-13.33-.36-1.23,0-2.75.08-3.57-.58-.64-.5-.43-2.11-.55-3.23-.15-1.41.07-3.9-.43-4-1.49-.45-3.26,0-5,.14.35,3.51,6.59,6.23-.18,8.22l-3.12-1.59c.12-2.79,4.21-7.11-2.21-7.49-4.37-.26-8.82.78-13.24,1.24l-2.09-1.31c.05-.7.12-1.4.13-2.11,0-1.76,0-3.52,0-5.28l-5.63.75-4.51-13.14-.18-3.06c3.35-13.13,6.6-26.29,10.09-39.38,1.06-4,2.78-7.79,4.19-11.68l15.18-11.71,2.6.32c-1.56,5.22-3.29,10.39-4.65,15.66-4.91,19-3.22,37,8.1,53.53,10.42,15.19,26.1,20.15,41.19,12.76C1362.28,645.22,1364.47,641.75,1367.09,639.18Z" transform="translate(0 -0.79)"/><path class="cls-13" d="M1561,815.55l-2.26,0-1-1.07-.3-.35,3.23-8.31,14.54-.17,2.26,0,49.23,0c23,0,45.92.11,68.89,0,11.67-.06,22.4-9.35,22.19-22-.44-25.87-.13-51.75-.13-77.63q0-73.85,0-147.7c0-2.36.17-4.73.27-7.09l4.12-.88,3.7,3.09c-2.6,10.38-2.25,20.53,1.82,30.44-1,1.48-3.16,3.24-3.21,5-.56,23.48-.88,47-1.13,70.45-.15,15-.08,29.92-.06,44.88a28.12,28.12,0,0,0,.54,4.83c.47,2.61,1.54,5.21,1.51,7.8-.21,15.79-.7,31.57-1,47.35-.14,7.69.3,15.39-.11,23-.58,10.75-10.6,22-21,23.69a91.78,91.78,0,0,1-14.62,1.24c-28.63.12-57.27.07-85.91.07.24-3.63-2.12-3.75-4.56-3-4.43,1.27-8.77,2.84-13.14,4.28-5.25-4.49-11.54-1.37-17.26-2.36C1563.91,810.49,1561.74,811.93,1561,815.55Z" transform="translate(0 -0.79)"/><path class="cls-8" d="M1602.57,812.25c28.64,0,57.28,0,85.91-.07a91.78,91.78,0,0,0,14.62-1.24c10.38-1.74,20.4-12.94,21-23.69.41-7.66,0-15.36.11-23,.29-15.78.78-31.56,1-47.35,0-2.59-1-5.19-1.51-7.8a28.12,28.12,0,0,1-.54-4.83c0-15-.09-29.92.06-44.88.25-23.48.57-47,1.13-70.45,0-1.81,2.22-3.57,3.21-5-4.07-9.91-4.42-20.06-1.82-30.43,2.5.34,5.68-.51,6.16,3.45a51.48,51.48,0,0,0-1.09,7.45q-.1,46.19,0,92.37,0,62.94,0,125.89c0,21.52-15.3,34.79-35.09,35-32.47.39-65,.11-97.43.11Z" transform="translate(0 -0.79)"/><path class="cls-11" d="M1320.9,519.76c3.45,4.74,3.35,5.18-1.83,7.35,5,5.21,1.86,11,1.18,16.59a45.43,45.43,0,0,0-4.3,4.83c-3.87,5.71-7.56,11.53-11.32,17.31l0,.38c-3.59-2.84-6.22-.92-8.69,1.77l-7.66,4.39-2.22,1.08c-.72.73-1.44,1.47-2.17,2.2l-1.21.8,1.16-.87,2.17-2.2,2.21-1.08,7.67-4.39,8.15-1.25c-6.28,7.55-14.94,10.87-24,13.52l-.31-1.67-1.41,2.61.08-.06-1.19,1.14,0-.07-1.21.08-6.5,0c-.29-2.3-.58-4.6-.83-6.52l4.53-.2-.48-5,.11-1.54,4.41-2.15,7.68-6.57,1.47-.5c-.11-.15-.29-.42-.3-.42-.42.27-.83.55-1.24.84l-7.68,6.56-4.34,2.24-1.11-.08v-2.11c-.63-1.51-1.27-3-1.9-4.52-.31-1.06-.61-2.12-.91-3.18l-.54-6.54c.28-2.78.57-5.57.95-9.15l4.58,2.28,8.73-4.54,15.26,2.54.29.22-.21,2-1.14,2.14-6.52,6.63c-.28.41-.56.83-.82,1.25a4.42,4.42,0,0,0,.41.31l.53-1.46,6.59-6.57c.36-.73.73-1.45,1.1-2.17l6.55-8.66,8.08-.4c-.94-4.92,4.91-9.22.71-14.06l2.16-3.16,4.84-.19Zm-3.88,6,.32.19,0-.3Z" transform="translate(0 -0.79)"/><path class="cls-13" d="M1534.65,812.25h-2.19c-2.14-.74-4.32-2.19-6.41-2.07-7.19.39-14.33,1.89-21.51,2-25.27.26-50.55,0-75.83.13-9.5,0-18.29-1.91-25.88-7.94.22-1.05.43-2.1.64-3.15,9.75,5.13,20.3,4.53,30.83,4.51,35.71-.08,71.41,0,107.12,0,.36.93.72,1.85,1.09,2.78Z" transform="translate(0 -0.79)"/><path class="cls-8" d="M1402.83,804.31c7.59,6,16.38,8,25.88,8,25.28-.09,50.56.13,75.83-.13,7.18-.07,14.32-1.57,21.51-2,2.09-.12,4.27,1.33,6.41,2.07-4.79,7.08-12.12,5.44-18.94,5.45-29.33,0-58.67-.06-88,.06-8.69,0-16.35-2.73-23.61-7.17-2.12-1.3-4.38-2.37-6.71-3.62l-.89-7c0-.63.07-1.26.11-1.89l2.34-.5c7,1,0,5.38,1.91,7.69Z" transform="translate(0 -0.79)"/><path class="cls-12" d="M1335.12,716.07l-14-5.07.14-1.69,6.33-1.83a57.87,57.87,0,0,0,0-6.16c-.38-3.73.93-6.52,3.65-9.07,1.39-1.3,2-3.44,2.78-4.91h18.87l6.37,5.75,2.41,4c-6.44,4.18-13,8.24-19.28,12.59C1339.72,711.52,1337.51,713.93,1335.12,716.07Z" transform="translate(0 -0.79)"/><path class="cls-13" d="M1382.54,699.17l7.57-2c.35,1.55,1.22,3.44,1.08,5.25-.26,3.38,1.2,4.61,4.28,4.62-.24,1.83-.84,3.7-.67,5.49.4,4.05,1.72,8.06,1.7,12.08-.1,18.4-.53,36.8-.84,55.2l-4.35.91c-1.69-3.2-4.41-6.35.57-10-11.25-2.6,0-6-.54-8.48l-5.53-2.25c1.18-1.13,3.1-2.09,3.39-3.4a42.15,42.15,0,0,0,1.3-11.68c-.5-7-1.67-14-2.72-21-.29-1.88-1.34-3.64-1.71-5.53C1384.81,712,1383.7,705.6,1382.54,699.17Z" transform="translate(0 -0.79)"/><path class="cls-10" d="M1282.45,627.25l.18,3.06q-1.61,6.62-3.19,13.24l-2.17-.09-2.11-2.16c0-.7,0-1.4,0-2.1,4.37-2.93,0-3.86-1.25-5.52.18-.68.64-1.43.5-2a26.17,26.17,0,0,0-1.73-4.95,13.22,13.22,0,0,0-2.63.68c.53,1.52,1,3.06,1.6,4.55a9.56,9.56,0,0,0,1.19,1.76l-1.16,2-3.21.16-2.16-2.17c0-.73,0-1.47,0-2.2l-3.09-6.72,0-1.92,3-3.39q1.92-12.71,3.82-25.39l-1.21-.23-3.63,17.64-4-2.09c1.16-1.83,2-3.15,2.59-4.11l-3-5.56q-.55-2.73-1.09-5.46c0-1.1,0-2.2,0-3.29l1.31-2.38,8.61-3c.7,1.48,1.39,3,2.08,4.45Q1277.09,608.64,1282.45,627.25Z" transform="translate(0 -0.79)"/><path class="cls-12" d="M1394.42,798c0,.63-.07,1.26-.11,1.89-8-2.55-10.13,3.31-12.24,9.36-3.57-6.29-7-7.65-13.82-3.31s-10.84,0-16-2.55c7.39-.33,12.27-4.17,15.9-10a3.09,3.09,0,0,1,1.19-1.11c6.09-3,12.2-5.94,18.31-8.9a110.29,110.29,0,0,0,3,11c.54,1.43,2.44,2.35,3.72,3.5Z" transform="translate(0 -0.79)"/><path class="cls-9" d="M1313.28,659.24c6.77-2,.53-4.71.18-8.22,1.77-.12,3.54-.59,5-.14.5.15.28,2.64.43,4,.12,1.12-.09,2.73.55,3.23.82.66,2.34.53,3.57.58,4.44.17,8.89.33,13.33.36a10.29,10.29,0,0,0,3.33-.74c3.75-1.38,5.2-.07,5,3.88-.06,1.42,1.4,2.9,2.17,4.35.93-1.27,1.84-2.56,2.8-3.81a4.71,4.71,0,0,1,3.44-2.24V674l-3.57.73,3.75,6.49-7.12.92,2-5.73-1-.94c-1.05,1.56-2,3.2-3.19,4.65a19.87,19.87,0,0,1-2.51,2.4c-1.46-5.58-2.69-10.3-3.93-15l4.18-3.06-2.61-3-3.5,3.85-2.06.25-3.84-4.11q-.93,2.5-1.85,5l-9-.42-7.22-.33Z" transform="translate(0 -0.79)"/><path class="cls-9" d="M1359.21,693.09l-6.37-5.75c3.55,0,6-.22,3.09-4.79-1.19-1.89-.63-4.87-.87-7.35,5.35-1.24,5.48-1.92.73-7.68,1.4-.69,2.94-2.08,3.79-1.74a4.94,4.94,0,0,1,2.73,3.44c.27,6.29.11,6.28,6.11,4,.46-.18,1.07.06,1.61.11l1.38,1.16q-.51,3.12-1,6.25c-.17,4-.54,7.94-.36,11.88,0,.78,2.17,1.46,3.33,2.18.45-1.25.9-2.49,1.34-3.73l3.13-.72c1.18,1.56,2.35,3.13,3.53,4.7l.3,3c-4.61,0-9.23.19-13.82-.06a3.83,3.83,0,0,1-2.67-2.58c-.28-4.5-.12-9-.12-13.56l-2.2-.68-3.08,3.21C1363.65,687.57,1359.41,690.2,1359.21,693.09Z" transform="translate(0 -0.79)"/><path class="cls-8" d="M1272.75,570.59l.48,5-4.53.2c.25,1.92.54,4.22.83,6.52-2.5.55-5.13.79-7.45,1.76-1.34.57-2.17,2.32-3.23,3.54-3.42.86-6.85,1.77-8.5-1.91.11-2.34.33-4.16.25-6s-.44-3.71-.68-5.57l6.45,1.61,2.85-2.53,3.82,4.52c.67-3.06,1.08-4.94,1.54-7-3.26.52-5.45,1.42-7.21.89-.77-.24-.67-3.38-.89-4.76h15.26c0,.7,0,1.41,0,2.11C1272.09,569.51,1272.42,570.05,1272.75,570.59Zm-19.14,9.1-.13,2.22,4.51.73.09-2.95Z" transform="translate(0 -0.79)"/><path class="cls-13" d="M1260.61,680.63c-4.33-8-4.34-8.14-1.3-14.26l-2.76-2,7.68-5c-.37-1.33-.76-2.74-1.23-4.46h14.06C1273.44,665,1269.09,674,1260.61,680.63Z" transform="translate(0 -0.79)"/><path class="cls-11" d="M1335.12,716.07c2.39-2.14,4.6-4.55,7.22-6.35,6.32-4.35,12.84-8.41,19.28-12.59,2,7.69-.82,13.1-8.36,15.78-2.89,1-6.08,1.53-8.66,3.06-2.27,1.36-3.88,3.81-5.76,5.76Z" transform="translate(0 -0.79)"/><path class="cls-8" d="M1260.77,599.71l3,5.56c-.6,1-1.43,2.28-2.59,4.11l4,2.09,3.63-17.64,1.21.23q-1.9,12.69-3.82,25.39l-9.37.93c-.49-2.88-1-5.8-1.48-8.72l4.26-2.41-5.31-2.78c.21-7.39-6.78-2.88-10.25-6.14C1250.26,600.81,1255.17,595.27,1260.77,599.71Z" transform="translate(0 -0.79)"/><path class="cls-9" d="M1294.71,651.4c4.42-.46,8.87-1.5,13.24-1.24,6.42.38,2.33,4.7,2.21,7.49-.45,2.53-.89,5.06-1.53,8.69-4.23.53-5-3.4-5.59-7.14l-8.28.77-1.29-3.17Q1294.1,654.1,1294.71,651.4Z" transform="translate(0 -0.79)"/><path class="cls-12" d="M1304.89,691.05c3.6.3,5.87.67,8.14.65,10.68-.07,12.59,2.69,8.32,12.63-2.57-.26-6.22.47-7.71-1C1310.32,700.06,1308.07,695.7,1304.89,691.05Z" transform="translate(0 -0.79)"/><path class="cls-8" d="M1561,815.55c.79-3.62,3-5.06,6.66-4.43,5.72,1,12-2.13,17.26,2.36,0,1.41.07,2.82.1,4.23-6.44,0-12.88.13-19.31-.11C1564.07,817.55,1562.52,816.27,1561,815.55Z" transform="translate(0 -0.79)"/><path class="cls-9" d="M1585,817.71c0-1.41-.07-2.82-.1-4.23,4.37-1.44,8.71-3,13.14-4.28,2.44-.7,4.8-.58,4.56,3l-4.34,5.46c-1.51.94-3,1.87-4.52,2.82C1589.67,823.06,1586.69,822.35,1585,817.71Z" transform="translate(0 -0.79)"/><path class="cls-12" d="M1542.51,808.49l-1.1-2.78,19.21.08-3.23,8.31-3.05,1.35-7.47-3.53Z" transform="translate(0 -0.79)"/><path class="cls-12" d="M1293.47,656.8l1.29,3.17c.64.71,1.23,2,1.94,2,3.57.38,6.14,1,3,5.23a3.13,3.13,0,0,0,.3,2.9c2.49,3.14.93,4.49-2.34,5.54-2.35-5.61-4.85-11.13-7-16.8C1289.89,656.59,1290.85,655.24,1293.47,656.8Z" transform="translate(0 -0.79)"/><path class="cls-14" d="M1391.31,780.72l4.35-.91,3.27,14.8-2.16,2.91-2.35.51-.05-.15-4.5-15.7Z" transform="translate(0 -0.79)"/><path class="cls-8" d="M1542.51,808.49l4.36,3.43a20.77,20.77,0,0,1-3.08,2.87c-1.78,1.09-4.07,2.93-5.55,2.49s-2.42-3.26-3.59-5Z" transform="translate(0 -0.79)"/><path class="cls-9" d="M1313.43,682.94l-13.5-.85-.28-1.32,6.23-1.69c-.16-1.19-.79-2.76-.39-4s1.85-1.82,2.84-2.71a28.46,28.46,0,0,0,1.16,3.12C1310.55,677.65,1311.73,679.75,1313.43,682.94Z" transform="translate(0 -0.79)"/><path class="cls-8" d="M1263.24,622.84l0,1.92a54.51,54.51,0,0,0-1.08,7.66c0,3.47.5,6.94,0,10.51-2.06-6.22-5-12.24-3.55-19.08l.05-.06Z" transform="translate(0 -0.79)"/><path class="cls-8" d="M1259.72,591c0,1.09,0,2.19,0,3.29-6,2.69-13.19,2.11-16.24-2Z" transform="translate(0 -0.79)"/><path class="cls-14" d="M1399,817.28c.75,6.09,1.5,12.17,2.35,19.11-3.62-2.72-5.23-12.47-4-18.88Z" transform="translate(0 -0.79)"/><path class="cls-15" d="M1258.85,587.57c1.06-1.22,1.89-3,3.23-3.54,2.32-1,5-1.21,7.45-1.76l6.5,0c0,.37.08.75.11,1.12l.06-.07-1.19,1.14.07,0-5.44,1.23-8.61,3Z" transform="translate(0 -0.79)"/><path class="cls-9" d="M1287.14,643.45l5.63-.75c0,1.76,0,3.52,0,5.28,0,.71-.08,1.41-.13,2.11C1286.94,651.06,1287,647.3,1287.14,643.45Z" transform="translate(0 -0.79)"/><path class="cls-11" d="M1389.87,782.18l4.5,15.7c-1.28-1.15-3.18-2.07-3.72-3.5a110.29,110.29,0,0,1-3-11Z" transform="translate(0 -0.79)"/><path class="cls-8" d="M1251.67,628.05c-3.82-10-3.53-11.53,1.22-11.32.44,2.8.85,5.47,1.41,9Z" transform="translate(0 -0.79)"/><path class="cls-8" d="M1275.17,639.2c0,.7,0,1.4,0,2.1L1270,644c-4-1.55-2.23-5-1.47-8.16l3.21-.15Z" transform="translate(0 -0.79)"/><path class="cls-8" d="M1268.93,559.16c.3,1.06.6,2.12.91,3.18-.88.59-1.79,1.7-2.65,1.66a6.87,6.87,0,0,1-3.92-1.49c-.66-.56-.52-2.06-.75-3.14a31.6,31.6,0,0,1,3.81-.65A11.32,11.32,0,0,1,1268.93,559.16Z" transform="translate(0 -0.79)"/><path class="cls-12" d="M1335.61,665.25l3.5-3.85,2.61,3-4.18,3.06Z" transform="translate(0 -0.79)"/><path class="cls-12" d="M1327.86,666.4q.92-2.5,1.85-5l3.84,4.11-.73,1.71-2.93.28Z" transform="translate(0 -0.79)"/><path class="cls-8" d="M1248.84,633.69l5.55-5.29,1.13,6.53Z" transform="translate(0 -0.79)"/><path class="cls-10" d="M1254.32,606.47l5.31,2.78-4.26,2.41Q1254.85,609.05,1254.32,606.47Z" transform="translate(0 -0.79)"/><path class="cls-8" d="M1263.54,651.91c-1.12-1.4-2.55-2.44-2.4-3.14.24-1.1,1.55-2,2.41-2.91.86.95,2.17,1.82,2.4,2.91C1266.1,649.48,1264.67,650.52,1263.54,651.91Z" transform="translate(0 -0.79)"/><path class="cls-8" d="M1248.91,605.42l3.15,5-.58,1.15c-1.21-.37-3.07-.39-3.47-1.17-.69-1.32-.45-3.12-.59-4.72Z" transform="translate(0 -0.79)"/><path class="cls-9" d="M1329.89,667.49l2.93-.28,2.18,5-3.81,2.33C1330.74,672.1,1330.31,669.79,1329.89,667.49Z" transform="translate(0 -0.79)"/><path class="cls-8" d="M1277.27,643.46l2.17.09v6l-2.17.07Z" transform="translate(0 -0.79)"/><path class="cls-8" d="M1269.72,650.92c-.25-1.11-.54-2.22-.68-3.35a3.21,3.21,0,0,1,1.31-.46c.58,1,1,2.11,1.54,3.18Z" transform="translate(0 -0.79)"/><path class="cls-8" d="M1244.69,609.76c-1,.66-1.64,1.35-2.08,1.25s-.84-.91-1.06-1.49c0-.14.72-.85,1.06-.81A7.3,7.3,0,0,1,1244.69,609.76Z" transform="translate(0 -0.79)"/><path class="cls-13" d="M1554.34,815.45l3.05-1.35.3.35a7.6,7.6,0,0,0,0,1.07Z" transform="translate(0 -0.79)"/><path class="cls-8" d="M1266.3,631.48c0,.73,0,1.47,0,2.2l-1.74-1.34Z" transform="translate(0 -0.79)"/><path class="cls-13" d="M1385.3,751.15l-.78.41-.42-1.07c.29-.07.65-.27.84-.16S1385.18,750.85,1385.3,751.15Z" transform="translate(0 -0.79)"/><path class="cls-8" d="M1258.59,623.85l-1.4-1.08.38-.38,1.07,1.4Z" transform="translate(0 -0.79)"/><path class="cls-8" d="M1557.74,815.52a7.6,7.6,0,0,1,0-1.07l1,1.07h-1Z" transform="translate(0 -0.79)"/><path class="cls-16" d="M1755.92,497.83c4.87-1.55,9.12-3.36,11.84-8.54,3.18-6,7.43-2.54,11.11.28.41,2.37.83,4.75,1.24,7.12l-1.18,1.32-3.38.74a45.22,45.22,0,0,0-3.62,2.84c-.91.86-1.4,2.3-2.42,2.89-6.79,3.93-12.51,8.64-13.75,17-5.89,2.21-6.75,1.89-9.4-3.7l-9,2.56c1.78,9.91,3.48,19.44,5.18,29l-17.3-6.51,1.26-36.52a1.84,1.84,0,0,0,1,.14Z" transform="translate(0 -0.79)"/><path class="cls-17" d="M1725.21,542.83l17.31,6.51c-1.77,5-5.25,7.63-10.65,7.52-.48-4-3.66-3.11-6.16-3.45q-1.85-1.56-3.71-3.1c.36-2.51.71-5,1.07-7.54Z" transform="translate(0 -0.79)"/><path class="cls-18" d="M1730.74,242.6c10.69,3.69,20,9.44,26.56,18.27,17.56-11.39,34.61-22.54,51.75-33.53,5.94-3.81,12.14-7.21,18.22-10.8l0,0,2.19-1,3.17-1.38,3.43-1.86,2.15-1.12,2.21-1.1,3.18-1.33,4.47-2,3.19-1.36,2.2-1,37.21-12.79,1.7,1.61-13.71,37.69a11.41,11.41,0,0,0-2.9,1.23c-7.46,6.06-14.86,12.2-22.28,18.31a7.41,7.41,0,0,0-2.6.62c-5.91,4.39-11.75,8.88-17.61,13.32-6,4.59-12.08,9.19-18.17,13.72a3.72,3.72,0,0,1-2,.31c-5.36.13-7.5,2.93-6.76,8.12h0c-4.44,2.36-8.69,6.05-13.37,6.7-4,.57-6.43,1.35-7.79,5a62.13,62.13,0,0,0-6.18,3.19c-4.47,2.91-8.82,6-13.21,9.05l-1.15-3.15c7.68-14.38.25-39.7-8.14-44.74-9.12,6.9-18.42,13.81-27.55,20.94-2.63,2.06-4.78,4.75-7.15,7.15l-3.24,0-.21-49.22,7,0Z" transform="translate(0 -0.79)"/><path class="cls-18" d="M1867.51,268.59l-19.66,14.58c-3.21-.35-6.5-1.33-9.62-.94-11.23,1.4-21.88,4.7-31.54,10.85a26.89,26.89,0,0,1-4.93,1.94l4.56-8.58h0c3.66-2,7.62-3.64,10.93-6.12,12.2-9.11,24.18-18.51,36.25-27.81,1.2-.72,2.47-1.36,3.6-2.19q10.58-7.86,21.09-15.78Q1872.84,251.58,1867.51,268.59Z" transform="translate(0 -0.79)"/><path class="cls-13" d="M1878.17,234.55q-10.55,7.89-21.09,15.78c-1.13.83-2.4,1.47-3.6,2.19l0-2.16c7.42-6.11,14.82-12.25,22.28-18.31a11.41,11.41,0,0,1,2.9-1.23C1878.48,232.07,1878.32,233.31,1878.17,234.55Z" transform="translate(0 -0.79)"/><path class="cls-7" d="M1848,206.68l-4.47,2Z" transform="translate(0 -0.79)"/><path class="cls-7" d="M1836,212.24l-3.43,1.86C1833.18,212.44,1833.13,209.63,1836,212.24Z" transform="translate(0 -0.79)"/><path class="cls-7" d="M1840.39,210l-2.21,1.1Z" transform="translate(0 -0.79)"/><path class="cls-7" d="M1829.43,215.48l-2.19,1Z" transform="translate(0 -0.79)"/><path class="cls-7" d="M1853.43,204.31l-2.2,1Z" transform="translate(0 -0.79)"/><path class="cls-17" d="M1776.77,357.65a22.66,22.66,0,0,0-4.56,1.33c-1.85,1-4.64,2.11-5,3.65-2,8.44-8.47,10.22-15.47,11.6l-3.49-1.25c2.11-4.77,3.53-9.87.94-14.62-3-5.51-4.35-11.93-9.32-16.41-2.9-2.62-1.07-4.25,1.6-6.26,5.27-4,10.07-8.59,15-13,1.58-1.41,3-3,4.52-4.45l8-1.21.1.1-2.11,3.68.84.94,5.58-2.6c2.21,5.57,5.9,11,6.26,16.72C1780.14,343.06,1777.87,350.39,1776.77,357.65Z" transform="translate(0 -0.79)"/><path class="cls-18" d="M1776.77,357.65c1.1-7.26,3.37-14.59,2.92-21.76-.36-5.68-4-11.15-6.26-16.72l5.59-3.93c-4.39-3.46-4.37-3.87.3-6.56,2.74-1.58,5.56-3,8.34-4.52,7.3,1.81,14.74,3.22,21.86,5.57,5.63,1.86,10.88,4.88,16.3,7.38-1.29,2.19-2.22,4.75-4,6.46a15.55,15.55,0,0,1-6.66,3.8c-3.63.93-7.24,1-6.17,6.49.17.92-2.72,3.6-3.52,3.34-5.93-1.89-8.25,1.71-10.27,6.07l-.48.65.7-.43,3.47-.92.4,1.72c-2.46.42-5,.7-7.37,1.32-1,.25-2.66,1.59-2.56,1.84,1.64,4-2,4-3.87,5.21Z" transform="translate(0 -0.79)"/><path class="cls-8" d="M1755.92,497.83l-28.43,8.62q.55-9.26,1.12-18.52l2.66.79.62-1.14-7.74-5q0-6.13,0-12.27c7.18-5.89,7.58-12.1,1.21-18.76-.39-4.32-.61-8.66-1.18-13-1.23-9.2,2.68-18.4-.12-27.58l7.8-10.68c0,9.63-.12,19.26,0,28.89q.4,25.41,1.1,50.8c.17,6.16,3.65,9.92,9.3,12.07C1746.87,493.84,1751.37,495.91,1755.92,497.83Z" transform="translate(0 -0.79)"/><path class="cls-19" d="M1748.25,373l3.49,1.25c-2.9,2.46-6,4.76-8.65,7.42-1.56,1.54-2.55,3.65-3.8,5.5l-5.27,5.52-13,9.94-2.37-3.39c0-.71,0-1.41,0-2.11,1-.29,2.07-.58,3.67-1l-3.76-4.51-.33-5.52.37-13.1Z" transform="translate(0 -0.79)"/><path class="cls-16" d="M1756.09,446.29c0,5-2.09,8.36-7.42,8.92-5.63.59-11.53-3.21-12.27-8.7-1-7.47,5.9-8.86,10-12.25l3.95,3.57Z" transform="translate(0 -0.79)"/><path class="cls-18" d="M1788,435l6.12,5.34c-2.46,2.69-4.46,6.4-7.51,7.78-3.34,1.51-4.65-2.06-5.39-5.1a12.56,12.56,0,0,0-2.18-4.68c-3.19-4.09-2.94-5.12,2.09-6.39,2.06-.52,4.19-.82,6.87-1.33Z" transform="translate(0 -0.79)"/><path class="cls-18" d="M1780.11,496.69c-.41-2.37-.83-4.75-1.24-7.12l18-6c-1.27,8.85-2.28,9.77-10.15,11C1784.46,494.9,1782.31,496,1780.11,496.69Z" transform="translate(0 -0.79)"/><path class="cls-17" d="M1721.06,402.61l13-9.94,3.76,1.16q-3,3.26-6,6.5L1724,411l-5.53.36L1718,404Z" transform="translate(0 -0.79)"/><path class="cls-13" d="M1756.09,446.29l-5.72-8.46c3.28-3.82,5.39-2.1,6.25,1.7C1757.09,441.64,1756.31,444,1756.09,446.29Z" transform="translate(0 -0.79)"/><path class="cls-13" d="M1737.78,393.83l-3.76-1.16,5.27-5.52C1741.45,390,1741.45,392.32,1737.78,393.83Z" transform="translate(0 -0.79)"/><path class="cls-4" d="M1775.55,498.75l3.38-.74Z" transform="translate(0 -0.79)"/><path class="cls-20" d="M1730.74,242.6l-5.46-1.23a63.12,63.12,0,0,1-1.07-8c-.1-16.56.34-33.14-.25-49.69-.23-6.31-2.44-12.63-4.39-18.74-.49-1.51-3.48-2.23-5.32-3.31-7.1-6.87-15.54-9-25.39-8.93-58.36.29-116.71.14-175.07.14-31.92,0-63.83.19-95.74-.11-11-.11-22.35,11.34-21.45,19.83-5,.3-4.21,4.31-4.26,7.25-.2,11.77,0,23.54-.13,35.31a32.77,32.77,0,0,1-1,5.63l-2.19-2.2V202.09c.46-10-.51-20.28,1.69-29.86,4.37-19,14.77-26.5,34.54-26.91,33.55-.69,67.13-.19,100.7-.19,28.45,0,56.89-.08,85.34.05,9,0,18,.92,27,1,18.35.16,36.72-.34,55.06.15,21.69.58,35.47,12.64,36.25,35.14C1730.27,201.84,1730.37,222.23,1730.74,242.6Z" transform="translate(0 -0.79)"/><path class="cls-4" d="M1389,209.76v5.48Q1383.72,212.5,1389,209.76Z" transform="translate(0 -0.79)"/><path class="cls-4" d="M1389,202.09v0Z" transform="translate(0 -0.79)"/><path class="cls-8" d="M1391.16,220.72a32.77,32.77,0,0,0,1-5.63c.09-11.77-.07-23.54.13-35.31.05-2.94-.71-6.95,4.26-7.25q0,71.19,0,142.39c-.35,16.29-.93,32.58-1,48.88,0,12.84.66,25.69.91,38.54a30.55,30.55,0,0,1-1,5.68l-11.07-.5c-.54-2.62,3.81-7.26-2.92-6.85l-.35-.35a27.14,27.14,0,0,1-1.2-4.05c-.17-1.27-.3-3.55.19-3.74,6.09-2.38,1.82-4.85-1-8,7,1.52,6.33-2.41,6.49-6.13,1-23.16,2.37-46.31,3.19-69.48.45-12.49-.18-25,.15-37.5.28-10.7,1.36-21.36,1.87-32C1391.22,233.14,1391.1,226.92,1391.16,220.72Z" transform="translate(0 -0.79)"/><path class="cls-8" d="M1343.39,399c.7,1.6,1.42,2.46,1.29,3.16a3.53,3.53,0,0,1-1.69,2.1c-.29.16-1.79-.91-1.77-1.36C1341.27,402.08,1342.05,401.3,1343.39,399Z" transform="translate(0 -0.79)"/><path class="cls-17" d="M1825.82,317.11c-5.42-2.5-10.67-5.52-16.3-7.38-7.12-2.35-14.56-3.76-21.86-5.57l1.64-2.19,7-3.56,1.26-1.32,1.92-.86,2.46-1.12-.13-.09a26.89,26.89,0,0,0,4.93-1.94c9.66-6.15,20.31-9.45,31.54-10.85,3.12-.39,6.41.59,9.62.94l-7.94,6.22c6.66,6.07,10.29.71,14.52-.94l2.31,2.38q-13.12,10.89-26.23,21.8C1828.86,314,1827.38,315.61,1825.82,317.11Z" transform="translate(0 -0.79)"/><path class="cls-18" d="M1856.74,290.83l-2.31-2.38,7.49-6.33C1862.34,287.59,1860.08,289.54,1856.74,290.83Z" transform="translate(0 -0.79)"/><path class="cls-14" d="M1367.09,639.18c-2.62,2.57-4.81,6-7.94,7.57-15.09,7.39-30.77,2.43-41.19-12.76-11.32-16.49-13-34.56-8.1-53.53,1.36-5.27,3.09-10.44,4.65-15.66,2.7-.32,5.41-.52,8.08-1,6-1,12-2.19,18.05-3.3l3.51,7.25c-8.11,26.33-2.59,49.77,20.45,68.58A22.51,22.51,0,0,1,1367.09,639.18Z" transform="translate(0 -0.79)"/><path class="cls-21" d="M1396.42,511q-.24,9.42-.46,18.83l-1.53.21c-1-2.77-2-5.53-3-8.53-7.55,0-10,.08-10.25-9.12l8.55-11.45a5.07,5.07,0,0,0-.62-1.19c-4.57-5.26-9.06-10.59-13.81-15.67-.91-1-2.86-1-4.34-1.4,1-6.05-.66-7.26-8.36-6.08-3.35-3.17-3.35-3.17-9,1.22a41.85,41.85,0,0,0-.06-6.19,24.7,24.7,0,0,0-1.71-4.48l.45-3a69.8,69.8,0,0,1,7.91-.23c.79.06,1.48,1.5,2.22,2.31,1.23,5.21,1.23,5.21,3.84,4.37l.4-1.16.39-3.37.21-1.84,7.62.67,1-1.28c-1.17-4.79-2.31-8.45-2.93-12.18-1.13-6.83,6.2-2.72,6.92-5.87l-.54-5.68-3.72-7.35-.69-6.61,5.73-1.76c.52,2.23,1,4.45,1.68,7.22,5.34-.44,1.1-5.37,2.81-7.43a46.94,46.94,0,0,1,5.42,2.27,15.76,15.76,0,0,1,2.86,2.64l-.06-.06,2.84,2.38c-.06,19.14-.17,38.29-.17,57.43C1396,496.08,1396.27,503.53,1396.42,511Z" transform="translate(0 -0.79)"/><path class="cls-22" d="M1395.56,576.72l.09,25.19c-3.46,5.56-6.91,11.13-9.75,15.7-4.7-12.17-9.53-25-14.63-37.67-1.4-3.49-3.59-6.66-5.42-10,4-3.36,5.61-2.93,9,2.36q-.3,3-.58,6.08l1.41.25c.39-1.72.77-3.43,1.16-5.14l8.34,4.54,8-1.78Z" transform="translate(0 -0.79)"/><path class="cls-12" d="M1315.64,519.85l-2.17,3.16-4.35.06-26.47,7.66-2.38,1L1274,533l-4.6-2.15L1290,523l-14.14-7.28c1.92-1.5,4.23-2.7,5.65-4.56,2.25-2.93,3.93-6.38,8.47-5.4s7.09,4.13,8.11,8.55a18.61,18.61,0,0,1,.26,2.61Z" transform="translate(0 -0.79)"/><path class="cls-22" d="M1370.93,482.67c1.48.44,3.43.43,4.34,1.4,4.75,5.08,9.24,10.41,13.81,15.67a5.07,5.07,0,0,1,.62,1.19l-8.55,11.45-4-1.2c3.58-4.81,3.52-4.9-5.29-7.08,2-1.3,3.57-1.86,4.42-3a34.65,34.65,0,0,0,2.9-5.5,42.62,42.62,0,0,0-5.87-2.45c-3.19-.81-6.51-1.13-9.69-2-.26-.07.17-2.69.27-4.12,1.05.11,2.09.27,3.14.32,1.5.06,3,0,4.51,0Z" transform="translate(0 -0.79)"/><path class="cls-12" d="M1289.29,492.37l19.77-14.62c3.55,4.57,2.78,12.86-1.54,16.62-5.5,4.79-13.84,4.88-17.88.1C1289.24,494,1289.39,493.08,1289.29,492.37Z" transform="translate(0 -0.79)"/><path class="cls-13" d="M1379.29,439.89l.54,5.68c-.72,3.15-8-1-6.92,5.87.62,3.73,1.76,7.39,2.93,12.18l-1,1.28-7.62-.67q-1.18-6-2.39-12.09l6.55-4.21c-.66-1.62-1.46-3.61-2.26-5.6C1371.43,437,1375.46,438.86,1379.29,439.89Z" transform="translate(0 -0.79)"/><path class="cls-14" d="M1325.77,551.7c.94-.41,2.26-1.45,2.76-1.14,3.86,2.39,7.57,5,11.32,7.61l-24.73,4.39Z" transform="translate(0 -0.79)"/><path class="cls-12" d="M1304.63,565.84c3.76-5.78,7.45-11.6,11.32-17.31a45.43,45.43,0,0,1,4.3-4.83c1.19,2.56,2.36,5.13,3.54,7.69C1317.93,556.91,1312.87,563.48,1304.63,565.84Z" transform="translate(0 -0.79)"/><path class="cls-15" d="M1304.63,565.84c8.24-2.36,13.3-8.93,19.16-14.45l2,.31-10.64,10.86-3.21,1.92-15.18,11.71-19.47,7.1,0-1.15,0,.07,1.19-1.14-.08.06,1.72-.94c9-2.65,17.7-6,24-13.52a1.33,1.33,0,0,0,.6-.45Z" transform="translate(0 -0.79)"/><path class="cls-15" d="M1344.1,451.09,1335,450c-2-2.93-4.51-6.66-7.08-10.44C1338.79,437.57,1345.57,440.23,1344.1,451.09Z" transform="translate(0 -0.79)"/><path class="cls-10" d="M1396.16,431.19l-2.84-2.38c.36-.61.72-1.23,1.09-1.84l-.84-.16-.19,2.06a15.76,15.76,0,0,0-2.86-2.64,46.94,46.94,0,0,0-5.42-2.27l1.74-10.46,6.65.13,2.06.93Q1395.85,422.87,1396.16,431.19Z" transform="translate(0 -0.79)"/><path class="cls-15" d="M1374.88,425.93l.69,6.61q-1.35,2.46-2.68,4.93c-.39-.74-.78-1.47-1.16-2.21-.15-5.52-1.67-9.3-8.41-6.84-.48.18-2-.87-2-1.32a3.57,3.57,0,0,1,1.29-2.56c2.05-1.41,4.29-2.53,5.72-3.35.17-2.1.28-3.44.38-4.78a15.73,15.73,0,0,1,2.41.31c0,1.81-.14,3.62-.33,6.25Z" transform="translate(0 -0.79)"/><path class="cls-11" d="M1274,533l6.26-1.19,18.72,4.35c1.52.36,3,.76,4.53,1.14l-5.31,6.71-.3-.22-8.83-6.78-5,2.38c-1.52-1-3.28-3.12-4.52-2.85C1276.11,537.26,1275.37,534.86,1274,533Z" transform="translate(0 -0.79)"/><path class="cls-15" d="M1393.49,413.63l-6.65-.13-7.58-7c.91-2.26,1.63-4.06,2.36-5.85,6.73-.41,2.38,4.23,2.92,6.85l11.07.5c0,1.5,0,3-.07,4.5Z" transform="translate(0 -0.79)"/><path class="cls-13" d="M1370.93,482.67l.57,4.74c-1.5,0-3,0-4.51,0-1-.05-2.09-.21-3.14-.32l-2.49-6.76c.14-.44.68-2.07,1.21-3.7C1370.27,475.41,1371.94,476.62,1370.93,482.67Z" transform="translate(0 -0.79)"/><path class="cls-21" d="M1369.13,442.33c.8,2,1.6,4,2.26,5.6l-6.55,4.21a1,1,0,0,0-.81-.43l-1.14-3.06q1-4.5,2-9l2.12.27C1367.69,440.73,1368.41,441.53,1369.13,442.33Z" transform="translate(0 -0.79)"/><path class="cls-13" d="M1284.09,539.35l5-2.38,8.83,6.78-15.26-2.54Z" transform="translate(0 -0.79)"/><path class="cls-9" d="M1311.91,564.48l3.21-1.92,24.73-4.39c.27.78.53,1.56.79,2.35-6,1.11-12,2.27-18.05,3.3-2.67.46-5.38.66-8.08,1Z" transform="translate(0 -0.79)"/><path class="cls-15" d="M1360,452.82c-1.74-2-3.93-3.73-5.06-6-.69-1.38-.09-3.74.63-5.34.35-.75,2.36-.74,3.61-1.08a37.57,37.57,0,0,0-.29,4.71,8,8,0,0,0,1.1,2.53C1360,449.35,1360,451.09,1360,452.82Z" transform="translate(0 -0.79)"/><path class="cls-12" d="M1320.9,519.76l-.42-.1c.36-2.35.7-4.71,1-7l8.59,3.41C1328.54,519.59,1324.51,519.24,1320.9,519.76Z" transform="translate(0 -0.79)"/><path class="cls-13" d="M1367,439.92l-2.12-.27a14.21,14.21,0,0,0-2.68-2.32c-1.94-1-4-1.69-5.6-3.47C1360.31,435.29,1368,430.71,1367,439.92Z" transform="translate(0 -0.79)"/><path class="cls-22" d="M1332.3,473.05,1334,483l-2.27.43-2.22-9.83Z" transform="translate(0 -0.79)"/><path class="cls-22" d="M1350.65,467.18l-2.74,3.61-5-6.29,7.38-.44Z" transform="translate(0 -0.79)"/><path class="cls-13" d="M1363.58,456.11a36.59,36.59,0,0,1-1.15,4.89c-.07.19-1.78-.2-2.73-.32.43-1.7.85-3.41,1.28-5.11Z" transform="translate(0 -0.79)"/><path class="cls-13" d="M1367,466.07l-.39,3.37c-.14.39-.27.77-.4,1.16-2.61.84-2.61.84-3.84-4.37Z" transform="translate(0 -0.79)"/><path class="cls-11" d="M1376.85,573.52c-.39,1.71-.77,3.42-1.16,5.14l-1.41-.25q.29-3,.58-6.08Z" transform="translate(0 -0.79)"/><path class="cls-13" d="M1360,452.82c0-1.73,0-3.47,0-5.2l2.87,1,1.14,3.06Z" transform="translate(0 -0.79)"/><path class="cls-13" d="M1395.56,576.72l-2.35-.44,3.39-3.92C1396.25,573.81,1395.91,575.27,1395.56,576.72Z" transform="translate(0 -0.79)"/><path class="cls-4" d="M1364.16,415.13l.22-3.14,2.15.79-1.09,2.68Z" transform="translate(0 -0.79)"/><path class="cls-10" d="M1394.43,530l1.53-.21c.17.59.34,1.18.5,1.77Z" transform="translate(0 -0.79)"/><path class="cls-13" d="M1371.73,435.26c.38.74.77,1.47,1.16,2.21C1372.5,436.73,1372.11,436,1371.73,435.26Z" transform="translate(0 -0.79)"/><path class="cls-13" d="M1350.65,467.18l-.36-3.12,2,.09-.45,3Z" transform="translate(0 -0.79)"/><path class="cls-12" d="M1370.37,680.75q.53-3.13,1-6.25c1.86-8.29,3.62-16.59,5.63-24.84.57-2.38.43-5.81,4.87-4.75s3.83,3.73,3.37,7.05c-1.53,11.19-5.78,21.29-11.61,30.83l-1.13.2Z" transform="translate(0 -0.79)"/><path class="cls-22" d="M1395.71,606.08q0,20.38,0,40.76l-8.06-1.38C1384.81,630.83,1386.18,617.58,1395.71,606.08Z" transform="translate(0 -0.79)"/><path class="cls-3" d="M1370.37,680.75l2.17,2.24.15,2.41c-1.66,2.7-.51,4.43,2,5.67-.44,1.25-.89,2.49-1.34,3.74-1.16-.72-3.3-1.4-3.33-2.18C1369.83,688.69,1370.2,684.71,1370.37,680.75Z" transform="translate(0 -0.79)"/><path class="cls-13" d="M1372.69,685.4l-.15-2.41,1.13-.2c.35,0,.71.06,1.07,0a37.36,37.36,0,0,1,5.49-.13c.2,0,.16,2.35.24,3.61-1.71-.27-3.42-.57-5.13-.8C1374.46,685.4,1373.57,685.43,1372.69,685.4Z" transform="translate(0 -0.79)"/><path class="cls-13" d="M1382.31,691.12c1.52-.53,3-1.45,4.57-1.45a5.1,5.1,0,0,1,3.35,1.91,2.81,2.81,0,0,1-.44,2.73,5.63,5.63,0,0,1-3.27-.07,38.09,38.09,0,0,1-4-1.21C1382.45,692.4,1382.38,691.76,1382.31,691.12Z" transform="translate(0 -0.79)"/><path class="cls-3" d="M1382.31,691.12c.07.64.14,1.28.22,1.91-.4.68-.8,1.35-1.19,2-1.18-1.57-2.35-3.14-3.53-4.7C1380,686.49,1380.81,690.87,1382.31,691.12Z" transform="translate(0 -0.79)"/><path class="cls-13" d="M1395.88,697.32c-.14,1.44-.28,2.87-.41,4.3C1392.49,699.89,1393.33,698.53,1395.88,697.32Z" transform="translate(0 -0.79)"/><path class="cls-11" d="M1277.26,583.29l19.47-7.1c-1.41,3.89-3.13,7.7-4.19,11.68-3.49,13.09-6.74,26.25-10.09,39.38q-5.35-18.62-10.73-37.21l3.36-5.68-.07,0,1.19-1.14-.06.07Z" transform="translate(0 -0.79)"/><path class="cls-19" d="M1717.89,551.19c-.07-3.18-.13-6.35-.2-9.53.32-.73.63-1.47.94-2.21l4.44,3.32c-.36,2.51-.71,5-1.07,7.54Z" transform="translate(0 -0.79)"/><path class="cls-9" d="M1575.16,805.62l.87-1.68c.46.55.92,1.11,1.39,1.66Z" transform="translate(0 -0.79)"/><path class="cls-13" d="M1303.52,537.26c-1.51-.38-3-.78-4.53-1.14l-18.72-4.35,2.38-1c8.95,3.39,17.94,2.57,27.36.16-.3-2.57-.59-5.19-.89-7.82l4.35-.06c4.21,4.84-1.64,9.14-.7,14.06l-8.08.4Z" transform="translate(0 -0.79)"/><path class="cls-22" d="M1303.52,537.26l1.17.21-6.55,8.66L1298,546l.21-2Z" transform="translate(0 -0.79)"/><path class="cls-22" d="M1285,560.33l-7.68,6.56-.08-.08,7.69-6.56Z" transform="translate(0 -0.79)"/><path class="cls-22" d="M1290.33,554.77l6.52-6.63.19.16-6.59,6.57Z" transform="translate(0 -0.79)"/><path class="cls-13" d="M1304.59,566.22a1.33,1.33,0,0,1-.6.45l-8.15,1.25.06.07C1298.37,565.3,1301,563.38,1304.59,566.22Z" transform="translate(0 -0.79)"/><path class="cls-13" d="M1288.24,572.38l7.66-4.39-.06-.07-7.66,4.39Z" transform="translate(0 -0.79)"/><path class="cls-22" d="M1272.86,569.05l4.34-2.24.07.08-4.41,2.16Z" transform="translate(0 -0.79)"/><path class="cls-13" d="M1286,573.39l-2.17,2.2,0,.07c.73-.73,1.45-1.47,2.17-2.2Z" transform="translate(0 -0.79)"/><path class="cls-13" d="M1280,580.19l-1.72.94,1.41-2.61Z" transform="translate(0 -0.79)"/><path class="cls-13" d="M1283.8,575.59l-1.16.87,1.21-.8Z" transform="translate(0 -0.79)"/><path class="cls-13" d="M1288.18,572.31l-2.21,1.08,0,.07,2.22-1.08Z" transform="translate(0 -0.79)"/><path class="cls-22" d="M1284.88,560.25c.41-.29.82-.57,1.24-.84,0,0,.19.27.3.42l-1.47.5Z" transform="translate(0 -0.79)"/><path class="cls-22" d="M1290.45,554.87l-.53,1.46a4.42,4.42,0,0,1-.41-.31c.26-.42.54-.84.82-1.25Z" transform="translate(0 -0.79)"/><path class="cls-22" d="M1296.85,548.14,1298,546l.15.13c-.37.72-.74,1.44-1.1,2.17Z" transform="translate(0 -0.79)"/><path class="cls-22" d="M1272.75,570.59c-.33-.54-.66-1.08-1-1.62l1.11.08h0C1272.83,569.57,1272.79,570.08,1272.75,570.59Z" transform="translate(0 -0.79)"/><polygon class="cls-8" points="1317.02 525.02 1317.38 524.91 1317.34 525.21 1317.02 525.02"/><path class="cls-13" d="M1277.26,583.29l-1.12.05c0-.37-.07-.75-.11-1.12l1.21-.08Z" transform="translate(0 -0.79)"/><path class="cls-13" d="M1278.38,581.07l-1.19,1.14Z" transform="translate(0 -0.79)"/><path class="cls-12" d="M1398.93,794.61l4.54,6.56c-.21,1.05-.42,2.1-.64,3.15l-4.16.9c-1.87-2.31,5-6.73-1.91-7.69Z" transform="translate(0 -0.79)"/><path class="cls-8" d="M1272.85,633.68a9.56,9.56,0,0,1-1.19-1.76c-.6-1.49-1.07-3-1.6-4.55a13.22,13.22,0,0,1,2.63-.68,26.17,26.17,0,0,1,1.73,4.95c.14.61-.32,1.36-.5,2Z" transform="translate(0 -0.79)"/><path class="cls-3" d="M1272.85,633.68h1.07c1.21,1.66,5.62,2.59,1.25,5.52l-3.48-3.5Z" transform="translate(0 -0.79)"/><path class="cls-13" d="M1275.08,584.36l-3.36,5.68c-.69-1.48-1.38-3-2.08-4.45Z" transform="translate(0 -0.79)"/><path class="cls-3" d="M1253.61,579.69h4.47l-.09,2.95-4.51-.73Z" transform="translate(0 -0.79)"/><path class="cls-13" d="M1276.2,583.27l-1.19,1.14Z" transform="translate(0 -0.79)"/><path class="cls-15" d="M1723.07,542.77l-4.44-3.32-.78-38c4.66-1.57,6.6,1.7,8.63,4.83l-1.26,36.52Z" transform="translate(0 -0.79)"/><path class="cls-13" d="M1726.48,506.31c-2-3.13-4-6.4-8.63-4.84q-.09-9-.17-18l10.93,4.42q-.55,9.27-1.12,18.52A1.84,1.84,0,0,1,1726.48,506.31Z" transform="translate(0 -0.79)"/><path class="cls-16" d="M1718.62,373q0-41.18-.08-82.34l3.25,0c14,4,28.1,7.54,40.18,16.22.65.47,1.75.3,2.65.43.38,1.05.76,2.1,1.15,3.15l-4.76,7.85c-1.5,1.49-2.94,3-4.52,4.45-5,4.39-9.75,9-15,13-2.67,2-4.5,3.64-1.6,6.26,5,4.48,6.32,10.9,9.32,16.41,2.59,4.75,1.17,9.85-.94,14.62Z" transform="translate(0 -0.79)"/><path class="cls-17" d="M1764.62,307.26c-.9-.13-2,0-2.65-.43-12.08-8.68-26.21-12.26-40.18-16.22,2.36-2.4,4.51-5.09,7.14-7.15,9.13-7.13,18.43-14,27.55-20.94C1764.87,267.56,1772.3,292.88,1764.62,307.26Z" transform="translate(0 -0.79)"/><path class="cls-13" d="M1718.33,241.41c.1-3.73.28-7.46.3-11.19,0-10.76.06-21.52,0-32.28a34.31,34.31,0,0,0-1-5.71c-.6-10.27,2.07-20.89-3.36-30.63,1.84,1.08,4.83,1.8,5.32,3.31,2,6.11,4.16,12.43,4.39,18.74.59,16.55.15,33.13.25,49.69a63.12,63.12,0,0,0,1.07,8Z" transform="translate(0 -0.79)"/><path class="cls-8" d="M1853.45,250.36l0,2.16c-12.07,9.3-24,18.7-36.25,27.81-3.31,2.48-7.27,4.11-10.93,6.12-.74-5.19,1.4-8,6.76-8.12a3.72,3.72,0,0,0,2-.31c6.09-4.53,12.13-9.13,18.17-13.72,5.86-4.44,11.7-8.93,17.61-13.32A7.41,7.41,0,0,1,1853.45,250.36Z" transform="translate(0 -0.79)"/><path class="cls-8" d="M1761,318.26l4.76-7.85c4.39-3,8.74-6.14,13.21-9.05a59.15,59.15,0,0,1,6.19-3.18l4.13,3.79-1.64,2.19c-2.78,1.5-5.6,2.94-8.34,4.52-4.67,2.69-4.69,3.1-.3,6.56l-5.59,3.93-5.58,2.6-.84-.94,2.11-3.68.52-.6-.62.5Z" transform="translate(0 -0.79)"/><path class="cls-13" d="M1789.3,302l-4.13-3.79c1.35-3.69,3.73-4.47,7.78-5,4.68-.65,8.93-4.34,13.37-6.7l-4.56,8.58.13.09-2.46,1.12-1.92.87-1.26,1.31Z" transform="translate(0 -0.79)"/><path class="cls-7" d="M1795.44,343.49l-.7.43.48-.65Z" transform="translate(0 -0.79)"/><path class="cls-13" d="M1718.49,411.37,1724,411c2.8,9.18-1.11,18.38.12,27.58.57,4.29.79,8.63,1.18,13l-7.44-3.72c-.09-8.46-.27-16.91-.22-25.37C1717.68,418.76,1718.2,415.06,1718.49,411.37Z" transform="translate(0 -0.79)"/><path class="cls-16" d="M1717.89,447.82l7.43,3.72c6.37,6.66,6,12.87-1.21,18.76l-5.48.15q-.15-9.84-.29-19.68c-.16-.51-.33-1-.49-1.51C1717.86,448.78,1717.87,448.3,1717.89,447.82Z" transform="translate(0 -0.79)"/><path class="cls-13" d="M1718.63,470.45l5.48-.15q0,6.13,0,12.27l-6.47-1.06Q1718.16,476,1718.63,470.45Z" transform="translate(0 -0.79)"/><path class="cls-10" d="M1717.68,481.51l6.47,1.06,7.74,5-.62,1.14-2.66-.79-10.93-4.42Z" transform="translate(0 -0.79)"/><path class="cls-13" d="M1718.67,397.11l-1.11-5.52h1l3.76,4.51C1720.74,396.53,1719.71,396.82,1718.67,397.11Z" transform="translate(0 -0.79)"/><path class="cls-13" d="M1717.58,400.36l1.11-1.14,2.37,3.39L1718,404C1717.82,402.78,1717.7,401.57,1717.58,400.36Z" transform="translate(0 -0.79)"/><path class="cls-18" d="M1799.43,296.23l2.46-1.12Z" transform="translate(0 -0.79)"/><path class="cls-18" d="M1796.25,298.41l1.26-1.31Z" transform="translate(0 -0.79)"/><path class="cls-8" d="M1366.23,470.6c.13-.39.26-.77.4-1.16C1366.49,469.83,1366.36,470.21,1366.23,470.6Z" transform="translate(0 -0.79)"/><path class="cls-11" d="M1309.12,523.07c.3,2.63.59,5.25.89,7.82-9.42,2.41-18.41,3.23-27.36-.16Z" transform="translate(0 -0.79)"/><path class="cls-21" d="M1393.38,428.87l.19-2.06.84.16c-.37.61-.73,1.23-1.09,1.84Z" transform="translate(0 -0.79)"/><path class="cls-8" d="M1395.54,412.52c0,.68,0,1.36,0,2l-2.06-.93Z" transform="translate(0 -0.79)"/><path class="cls-9" d="M1494.1,790h0Z" transform="translate(0 -0.79)"/><path class="cls-22" d="M1415,774.74l.69,2.91Z" transform="translate(0 -0.79)"/><path class="cls-17" d="M1769,317.05l.62-.5-.52.6Z" transform="translate(0 -0.79)"/><path class="cls-13" d="M1718.34,450.77c-.17-.5-.33-1-.49-1.51C1718,449.76,1718.18,450.26,1718.34,450.77Z" transform="translate(0 -0.79)"/><path class="cls-23" d="M1685.85,168.53l-50.42-.38c1.41-.73,2.8-2.09,4.21-2.11,13.82-.16,27.64-.18,41.45,0C1682.69,166.08,1684.26,167.67,1685.85,168.53Z" transform="translate(0 -0.79)"/><path class="cls-23" d="M1470,168.09l-38.34,0c1.22-.72,2.43-2.07,3.66-2.09q15.5-.25,31,0C1467.58,166.06,1468.8,167.38,1470,168.09Z" transform="translate(0 -0.79)"/><path class="cls-23" d="M1630.14,182.5,1619,188.91Z" transform="translate(0 -0.79)"/><path class="cls-23" d="M1697.82,177l-9.77-7.88C1693.52,169,1696.88,171.69,1697.82,177Z" transform="translate(0 -0.79)"/><path class="cls-23" d="M1700,182.42l-2.16-5.48Z" transform="translate(0 -0.79)"/><path class="cls-23" d="M1486.46,188.85l-3.27-1Z" transform="translate(0 -0.79)"/><path class="cls-23" d="M1472.1,172.56l-.33-3.35Z" transform="translate(0 -0.79)"/><path class="cls-23" d="M1481,186.77l-3.16-2.25Z" transform="translate(0 -0.79)"/><path class="cls-23" d="M1632.21,179.11c-.71,1.15-1.41,2.3-2.12,3.44C1630.8,181.41,1631.5,180.26,1632.21,179.11Z" transform="translate(0 -0.79)"/><path class="cls-23" d="M1473.32,178l-.8-2.2Z" transform="translate(0 -0.79)"/><path class="cls-23" d="M1634,173.6c-.21.75-.43,1.51-.65,2.26C1633.61,175.11,1633.83,174.35,1634,173.6Z" transform="translate(0 -0.79)"/><path class="cls-23" d="M1426.22,169.25l-2.2,1.06Z" transform="translate(0 -0.79)"/><path class="cls-24" d="M1682.2,791H1430.8a19.79,19.79,0,0,1-19.8-19.8V186.8a19.79,19.79,0,0,1,19.8-19.8H1482l.12,4.85A13.47,13.47,0,0,0,1495.62,185H1615a13.48,13.48,0,0,0,13.47-13.64l-.06-4.36h53.77a19.79,19.79,0,0,1,19.8,19.8V771.2A19.79,19.79,0,0,1,1682.2,791Z" transform="translate(0 -0.79)"/><circle class="cls-25" cx="1641.22" cy="634.92" r="16.07"/><line class="cls-25" x1="1655.69" y1="641.9" x2="1704.54" y2="657.81"/><line class="cls-25" x1="1646.16" y1="618.85" x2="1704.36" y2="302.16"/><line class="cls-25" x1="1636.19" y1="651.12" x2="1627.62" y2="683.12"/><line class="cls-26" x1="1703.6" y1="359.84" x2="1642.46" y2="353.67"/><polyline class="cls-25" points="1558.4 353.1 1408.59 326.04 1565.39 181.37"/><line class="cls-25" x1="1497.84" y1="341.98" x2="1518.42" y2="596"/><line class="cls-27" x1="1410.16" y1="618.92" x2="1450.87" y2="438.39"/><polyline class="cls-28" points="1632.57 182.97 1635.04 320.96 1497.6 726.33 1408.64 702.91"/><path class="cls-29" d="M1510.2,438l-50.68,3.7,12.72,54a63.15,63.15,0,0,1,1.56,18.23l-3.15,52.57,46.49,15.15Z" transform="translate(0 -0.79)"/><polygon class="cls-30" points="1494.13 260.4 1542.34 219.61 1589.31 290.06 1555.93 330.85 1494.13 260.4"/><line class="cls-28" x1="1497.84" y1="726.39" x2="1475.82" y2="791.19"/><path class="cls-31" d="M1576.82,441h-137c-8.6,0-15.58-7.4-15.58-16.52h0c0-9.12,7-16.51,15.58-16.51h110.3l24.32-22.6-1.6,22.6h3.93c8.6,0,15.58,7.39,15.58,16.51h0C1592.4,433.64,1585.42,441,1576.82,441Z" transform="translate(0 -0.79)"/><path class="cls-24" d="M1452.87,424.5c0,4.69-2.69,7.18-6,7.18s-5.78-2.79-5.78-6.91c0-4.33,2.54-7.16,6-7.16S1452.87,420.46,1452.87,424.5Zm-10,.23c0,2.91,1.49,5.52,4.1,5.52s4.12-2.57,4.12-5.67c0-2.7-1.33-5.53-4.1-5.53S1442.89,421.73,1442.89,424.73Z" transform="translate(0 -0.79)"/><path class="cls-24" d="M1462.75,428.79c0,1,0,1.9.08,2.67h-1.49l-.09-1.6h0a3.45,3.45,0,0,1-3,1.82c-1.45,0-3.19-.85-3.19-4.28v-5.73h1.68v5.42c0,1.86.53,3.12,2.06,3.12a2.44,2.44,0,0,0,2.21-1.62,2.63,2.63,0,0,0,.15-.91v-6h1.68Z" transform="translate(0 -0.79)"/><path class="cls-24" d="M1467.56,418.86v2.81H1470V423h-2.41v5.28c0,1.21.33,1.9,1.26,1.9a3.12,3.12,0,0,0,1-.13l.08,1.34a3.93,3.93,0,0,1-1.49.24,2.24,2.24,0,0,1-1.81-.75,3.74,3.74,0,0,1-.65-2.54V423h-1.43v-1.36h1.43v-2.34Z" transform="translate(0 -0.79)"/><path class="cls-24" d="M1476.07,431.46V423h-1.29v-1.36h1.29v-.46a4.8,4.8,0,0,1,1.07-3.42,3.1,3.1,0,0,1,2.25-.91,3.52,3.52,0,0,1,1.43.29l-.23,1.37a2.36,2.36,0,0,0-1.06-.22c-1.43,0-1.8,1.33-1.8,2.83v.52H1480V423h-2.23v8.43Z" transform="translate(0 -0.79)"/><path class="cls-24" d="M1489.58,426.49c0,3.61-2.37,5.19-4.6,5.19-2.5,0-4.42-1.94-4.42-5,0-3.28,2-5.2,4.58-5.2S1489.58,423.49,1489.58,426.49Zm-7.33.1c0,2.14,1.17,3.76,2.81,3.76s2.8-1.6,2.8-3.8c0-1.66-.78-3.76-2.76-3.76S1482.25,424.73,1482.25,426.59Z" transform="translate(0 -0.79)"/><path class="cls-24" d="M1491.7,424.73c0-1.16,0-2.15-.07-3.06h1.46l.06,1.92h.08a2.8,2.8,0,0,1,2.55-2.14,1.75,1.75,0,0,1,.48.06v1.68a2.37,2.37,0,0,0-.57-.06,2.41,2.41,0,0,0-2.25,2.28,5.19,5.19,0,0,0-.08.83v5.22h-1.66Z" transform="translate(0 -0.79)"/><path class="cls-24" d="M1502,418a22.76,22.76,0,0,1,3.53-.28,7.11,7.11,0,0,1,5.21,1.7,6.49,6.49,0,0,1,1.81,4.89,7.45,7.45,0,0,1-1.85,5.3,7.64,7.64,0,0,1-5.68,2,25.59,25.59,0,0,1-3-.16Zm1.66,12.05a8.94,8.94,0,0,0,1.68.11c3.55,0,5.48-2.11,5.48-5.79,0-3.21-1.7-5.25-5.21-5.25a9.05,9.05,0,0,0-2,.18Z" transform="translate(0 -0.79)"/><path class="cls-24" d="M1515.7,426.89c0,2.41,1.49,3.4,3.17,3.4a5.84,5.84,0,0,0,2.56-.51l.28,1.27a7,7,0,0,1-3.07.61c-2.84,0-4.54-2-4.54-4.93s1.64-5.28,4.33-5.28c3,0,3.82,2.81,3.82,4.61a6.84,6.84,0,0,1-.06.83Zm4.93-1.27c0-1.14-.44-2.9-2.33-2.9-1.7,0-2.44,1.66-2.58,2.9Z" transform="translate(0 -0.79)"/><path class="cls-24" d="M1524.33,417.1H1526v14.36h-1.68Z" transform="translate(0 -0.79)"/><path class="cls-24" d="M1530.7,418.92a1,1,0,0,1-1.07,1.1,1,1,0,0,1-1-1.1,1.06,1.06,0,0,1,1.05-1.11A1,1,0,0,1,1530.7,418.92Zm-1.87,12.54v-9.79h1.68v9.79Z" transform="translate(0 -0.79)"/><path class="cls-24" d="M1534,421.67l1.81,5.5c.3.89.55,1.7.74,2.51h.06c.21-.81.48-1.62.78-2.51l1.79-5.5h1.76l-3.63,9.79h-1.6l-3.51-9.79Z" transform="translate(0 -0.79)"/><path class="cls-24" d="M1543.22,426.89c0,2.41,1.49,3.4,3.16,3.4a5.8,5.8,0,0,0,2.56-.51l.29,1.27a7,7,0,0,1-3.07.61c-2.85,0-4.54-2-4.54-4.93s1.64-5.28,4.33-5.28c3,0,3.81,2.81,3.81,4.61a6.84,6.84,0,0,1-.06.83Zm4.92-1.27c0-1.14-.44-2.9-2.33-2.9-1.69,0-2.44,1.66-2.57,2.9Z" transform="translate(0 -0.79)"/><path class="cls-24" d="M1551.84,424.73c0-1.16,0-2.15-.07-3.06h1.47l0,1.92h.08a2.8,2.8,0,0,1,2.55-2.14,1.7,1.7,0,0,1,.48.06v1.68a2.37,2.37,0,0,0-.57-.06,2.42,2.42,0,0,0-2.25,2.28,5.19,5.19,0,0,0-.08.83v5.22h-1.66Z" transform="translate(0 -0.79)"/><path class="cls-24" d="M1559.17,421.67l2,5.79c.21.64.44,1.41.59,2h0c.17-.59.36-1.34.59-2l1.83-5.75H1566l-2.52,7c-1.2,3.35-2,5.07-3.17,6.12a4.47,4.47,0,0,1-2.06,1.16l-.42-1.5a4.21,4.21,0,0,0,1.47-.87,5.28,5.28,0,0,0,1.41-2,1.26,1.26,0,0,0,.14-.42,1.51,1.51,0,0,0-.12-.47l-3.41-9Z" transform="translate(0 -0.79)"/><line class="cls-32" x1="1706.65" y1="270.55" x2="1563.05" y2="179.17"/><line class="cls-32" x1="1597.15" y1="180.81" x2="1707.41" y2="245.7"/><polyline class="cls-32" points="1635.04 227.03 1649.87 330.85 1493.37 791.42"/><path class="cls-32" d="M1614,434.24S1482,217,1411.41,217.35" transform="translate(0 -0.79)"/><line class="cls-25" x1="1624.6" y1="629" x2="1409.12" y2="562.01"/><line class="cls-33" x1="1529.36" y1="689.92" x2="1536.77" y2="667.67"/><line class="cls-33" x1="1541.67" y1="651.58" x2="1549.08" y2="629.33"/><line class="cls-33" x1="1555.26" y1="610.79" x2="1562.68" y2="588.54"/><line class="cls-33" x1="1571.33" y1="566.29" x2="1578.75" y2="544.04"/><line class="cls-33" x1="1584.93" y1="524.27" x2="1592.34" y2="502.02"/><line class="cls-33" x1="1598.52" y1="483.48" x2="1605.94" y2="461.23"/><line class="cls-33" x1="1610.02" y1="450.1" x2="1615.46" y2="432.8"/><line class="cls-33" x1="1602.23" y1="415.5" x2="1587.4" y2="393.25"/><line class="cls-33" x1="1576.64" y1="378.41" x2="1560.94" y2="356.17"/><line class="cls-34" x1="1516.95" y1="728.21" x2="1524.36" y2="705.96"/><line class="cls-33" x1="1498.4" y1="782.6" x2="1505.82" y2="760.35"/><path class="cls-31" d="M1563.92,258.1a90.77,90.77,0,0,1,9.6,2.51c12.39,4.69,21.12,17.36,20.7,30.58a29.7,29.7,0,0,1-2.85,11.47c-3.35,7-7.22,13.82-11.22,20.51-8.1,13.51-14.3,23.08-19,30.6-.37.61-.8,1.17-1.35,2-3.23-5.47-6.37-10.72-9.43-16-5.45-9.45-11-18.84-16.2-28.45a49.93,49.93,0,0,1-6-17.54c-1.09-8.82,1.65-16.6,7.16-23.39A31.89,31.89,0,0,1,1557,258.44a8,8,0,0,0,1.25-.34ZM1580,290.42a19.08,19.08,0,1,0-19,18.93A19.12,19.12,0,0,0,1580,290.42Z" transform="translate(0 -0.79)"/><rect class="cls-31" x="1494.75" y="699.94" width="137.2" height="46.71" rx="15"/><path class="cls-24" d="M1532.88,718h-5.94v-1.83h14.47V718h-6v14.89h-2.56Z" transform="translate(0 -0.79)"/><path class="cls-24" d="M1543.58,716.36a31,31,0,0,1,4.84-.35c2.7,0,4.44.42,5.65,1.37a3.87,3.87,0,0,1,1.54,3.17c0,2.21-1.62,3.67-3.68,4.27v.07a4.32,4.32,0,0,1,2.87,3.38,23.76,23.76,0,0,0,1.51,4.59h-2.61a19,19,0,0,1-1.31-4c-.58-2.3-1.62-3.17-3.91-3.25h-2.38v7.25h-2.52Zm2.52,7.62h2.58c2.7,0,4.41-1.27,4.41-3.18,0-2.16-1.83-3.1-4.5-3.13a12,12,0,0,0-2.49.2Z" transform="translate(0 -0.79)"/><path class="cls-24" d="M1562.48,727.6l-2,5.26h-2.61l6.64-16.72h3l6.67,16.72h-2.69l-2.09-5.26Zm6.41-1.69L1567,721.1c-.43-1.09-.72-2.09-1-3.05h-.06c-.29,1-.61,2-1,3l-1.91,4.84Z" transform="translate(0 -0.79)"/><path class="cls-24" d="M1590.28,732.31a14.32,14.32,0,0,1-5.16.8c-5.51,0-9.66-3-9.66-8.46,0-5.24,4.15-8.79,10.21-8.79a12,12,0,0,1,4.64.75l-.61,1.76a10.47,10.47,0,0,0-4-.7c-4.58,0-7.62,2.51-7.62,6.9,0,4.1,2.75,6.72,7.51,6.72a11.65,11.65,0,0,0,4.12-.69Z" transform="translate(0 -0.79)"/><path class="cls-24" d="M1593.43,716.14H1596v8.06h.08c.52-.65,1-1.24,1.54-1.79l6-6.27h3.13l-7.07,7.09,7.62,9.63h-3l-6.44-8.21-1.85,1.83v6.38h-2.53Z" transform="translate(0 -0.79)"/><path class="cls-35" d="M1726.9,588c8,15.43,16.86,30.52,24,46.36,16.79,37.32,29.39,76.07,36.5,116.44,2.12,12,3.17,24.18,4.81,36.26a54.85,54.85,0,0,0,1.67,6.5v63.27c-1.69,10.2-2.61,20.59-5.22,30.55-6.46,24.68-13.16,49.34-20.91,73.64-2.53,7.92-3.49,14.55-.67,22.53,3.84,10.85,6.2,22.23,9.57,34.73h-25.08c-2.86-14.53-6-29-8.39-43.63a18.72,18.72,0,0,1,1.88-11.65c23.78-40.09,27.43-83.34,18.23-127.67-10.3-49.65-32.74-94.48-59.27-137.42-8.52-13.8-20.46-18.85-35.81-18.62-11.7.17-23.41.2-35.1-.14-2.73-.08-5.41-1.92-8.11-3,20-.12,40-.68,60,0,4.93.15,10.56,3.25,14.4,6.66,5.79,5.12,10.28,11.71,15.32,17.67l2.06,3.35c21.36,27.19,37.28,57.47,50.81,89.13,5.13,12,10.45,23.87,15.68,35.8h0l.93,6.29,1.68-.22c-.24-2-.47-4.07-.71-6.11,0-4.43.38-8.91-.11-13.29-3-27.07-4.72-54.41-9.82-81.08-8.61-45-24.32-88-43.14-129.74C1729.71,599.34,1728.59,593.53,1726.9,588Z" transform="translate(0 -0.79)"/><path class="cls-36" d="M1665.66,967.55c.53,1,1.51,2,1.52,3,.11,15.91.1,31.83.12,47.75h-55.54c-.72-4.54-2.25-8.6-1.81-12.45,1.49-13.07-4.59-21.83-13-31.36-26-29.46-37.24-65.26-38.36-104-.54-18.57,1.86-37.25,3.29-55.86.28-3.65,2.21-7.17,3.38-10.75l5.35-.63c3.16.24,6.32.66,9.49.68q41.79.24,83.58.37c-2.79.48-5.58,1.35-8.38,1.38-15.81.15-31.63-.2-47.43.22-10.81.28-21.6,1.54-30.16,2.19,5.4,13.45,11.88,26.52,15.93,40.31,7.47,25.39,11.1,52,24.61,75.4,10.08,17.46,22.53,32.54,42.06,40.15h0l3.53,1.78,0,0Z" transform="translate(0 -0.79)"/><path class="cls-37" d="M1726.9,588c1.69,5.55,2.81,11.36,5.18,16.61,18.82,41.78,34.53,84.72,43.14,129.74,5.1,26.67,6.77,54,9.82,81.08.49,4.38.1,8.86.11,13.29l-1.9,0h0a46.15,46.15,0,0,0-.82-6.89c-8.82-32.36-23-62.31-41.12-90.42-8.55-13.25-17.21-26.23-16.28-43.25.38-6.92-1.49-13.95-2.34-20.94-.9,9.63-.67,19.24-1,28.83-.11,2.67-2.06,5.26-3.17,7.89q.12-44,.23-88c.19-.17.56-.39.53-.49a6.18,6.18,0,0,0-.55-1.2q0-16.71,0-33.42c.48,0,.95,0,1.42,0l3.32.11Q1725.15,584.49,1726.9,588Z" transform="translate(0 -0.79)"/><path class="cls-35" d="M1723.41,581l-3.32-.11c0-1.78,0-3.56.05-5.34Z" transform="translate(0 -0.79)"/><path class="cls-36" d="M1720.14,575.54c0,1.78,0,3.56-.05,5.34-.47,0-.94,0-1.42,0q0-3.52,0-7Z" transform="translate(0 -0.79)"/><path class="cls-36" d="M1716.79,703.81a5.46,5.46,0,0,1,1.71.15c1.11-2.63,3.06-5.22,3.17-7.89.38-9.59.15-19.2,1-28.83.85,7,2.72,14,2.34,20.94-.93,17,7.73,30,16.28,43.25,18.15,28.11,32.3,58.06,41.12,90.42a46.15,46.15,0,0,1,.82,6.89c-5.23-11.93-10.55-23.82-15.68-35.8C1754.07,761.28,1738.15,731,1716.79,703.81Z" transform="translate(0 -0.79)"/><path class="cls-36" d="M1783.25,828.74l1.9,0c.24,2,.47,4.07.71,6.11l-1.68.22Z" transform="translate(0 -0.79)"/><path class="cls-38" d="M1660.32,964c-19.53-7.61-32-22.69-42.06-40.15-13.51-23.39-17.14-50-24.61-75.4-4.05-13.79-10.53-26.86-15.93-40.31,8.56-.65,19.35-1.91,30.16-2.19,15.8-.42,31.62-.07,47.43-.22,2.8,0,5.59-.9,8.38-1.38l2-.05c-4.44,11.06-9,22.06-13.29,33.2-8.26,21.73-12.86,44-11.42,67.51a111.57,111.57,0,0,0,13.83,47.26C1656.89,956,1658.5,960.06,1660.32,964Z" transform="translate(0 -0.79)"/><path class="cls-39" d="M1600.45,707.47,1597,704Z" transform="translate(0 -0.79)"/><path class="cls-39" d="M1597,703.93l-3.41-3.66Z" transform="translate(0 -0.79)"/><path class="cls-38" d="M1663.86,965.77l-3.53-1.78Z" transform="translate(0 -0.79)"/><path class="cls-39" d="M1602.21,709.22l-1.69-1.7Z" transform="translate(0 -0.79)"/><path class="cls-38" d="M1665.66,967.55l-1.85-1.82Z" transform="translate(0 -0.79)"/><path class="cls-36" d="M1718.73,616l0-1.69a6.18,6.18,0,0,1,.55,1.2C1719.29,615.62,1718.92,615.84,1718.73,616Z" transform="translate(0 -0.79)"/><path class="cls-37" d="M1625,676.17c2.7,1,5.38,2.88,8.11,3,11.69.34,23.4.31,35.1.14,15.35-.23,27.29,4.82,35.81,18.62,26.53,42.94,49,87.77,59.27,137.42,9.2,44.33,5.55,87.58-18.23,127.67a18.72,18.72,0,0,0-1.88,11.65c2.4,14.61,5.53,29.1,8.39,43.63l-84.26,0c0-15.92,0-31.84-.12-47.75,0-1-1-2-1.52-3l-1.85-1.82,0,0-3.53-1.78h0c-1.82-3.92-3.43-7.94-5.5-11.73A111.57,111.57,0,0,1,1641,905c-1.44-23.48,3.16-45.78,11.42-67.51,4.24-11.14,8.85-22.14,13.29-33.2l1.83-1.78q2.12-3.64,4.24-7.29,3.95-6.81,7.91-13.62l4.21-3.5c-8.87-9.63-17.13-18-24.59-26.94-4.4-5.29-7.53-11.63-11.23-17.5-2.1-7.26-7.89-10.58-13.92-8.75a13.61,13.61,0,0,1-11.71-1.76c-6.53-4.5-16.33-10.82-20.19-13.86l0-.06-1.69-1.7-1-.83-2.53-2.76h0l-3.41-3.66c-.58-1.62-1.11-3.26-1.76-4.85-4.62-11.13-1.93-15.3,10-16.32C1609.57,678.44,1617.27,677.17,1625,676.17Z" transform="translate(0 -0.79)"/><polygon class="cls-1" points="1614.65 184.16 1613.65 168.25 1559 168.25 1559 184.16 1614.65 184.16"/><rect class="cls-40" x="1667.61" y="172.96" width="14.74" height="6.07"/><rect class="cls-41" x="1682.35" y="174.49" width="1.73" height="3.47"/><rect class="cls-41" x="1668.48" y="173.82" width="6.94" height="4.34"/><text class="cls-42" transform="translate(1648.05 178.59)">60%</text><path class="cls-40" d="M1638.4,175.48a4.9,4.9,0,0,1,5.2,0" transform="translate(0 -0.79)"/><path class="cls-40" d="M1639.39,176.94a3.15,3.15,0,0,1,3.34,0" transform="translate(0 -0.79)"/><path class="cls-40" d="M1640.11,178.23a1.83,1.83,0,0,1,2,0" transform="translate(0 -0.79)"/><circle class="cls-41" cx="1641.08" cy="178.68" r="0.43"/><text class="cls-42" transform="translate(1434.97 178.97)">10:30 <tspan class="cls-43" x="18.34" y="0">A</tspan><tspan x="22.86" y="0">M</tspan></text><polygon class="cls-1" points="1525.91 800.98 1524.91 790.64 1470.26 790.64 1470.26 800.98 1525.91 800.98"/><rect class="cls-1" x="1400.5" y="211.04" width="10.41" height="502.17"/><rect class="cls-1" x="1702.2" y="219.78" width="9.41" height="446.43"/></svg>