<svg id="Layer_1" data-name="Layer 1" xmlns="http://www.w3.org/2000/svg" viewBox="0 0 76.75 66.25"><defs><style>.cls-1,.cls-2,.cls-4{fill:none;}.cls-1,.cls-6{stroke:#8c8b8b;}.cls-1,.cls-4,.cls-6{stroke-miterlimit:10;stroke-width:0.25px;}.cls-3{font-size:2.31px;fill:#f17947;}.cls-3,.cls-5{font-family:MyriadPro-Regular, Myriad Pro;}.cls-4{stroke:orange;}.cls-5{font-size:2.29px;fill:orange;}.cls-6{fill:#fcfcfc;}</style></defs><rect class="cls-1" x="0.13" y="11.04" width="76" height="55.09"/><path class="cls-2" d="M76,23.57" transform="translate(-3.38 -3.88)"/><path class="cls-2" d="M8,24.36" transform="translate(-3.38 -3.88)"/><line class="cls-1" x1="0.41" y1="21.71" x2="75.91" y2="21.63"/><line class="cls-1" x1="0.38" y1="32.16" x2="75.88" y2="32.09"/><line class="cls-1" x1="0.38" y1="43.18" x2="75.88" y2="43.11"/><line class="cls-1" x1="0.13" y1="54.85" x2="76.13" y2="54.85"/><line class="cls-1" x1="65.63" y1="10.89" x2="65.63" y2="65.88"/><line class="cls-1" x1="54.13" y1="11.04" x2="54.13" y2="66.02"/><line class="cls-1" x1="43.13" y1="11.04" x2="43.13" y2="66.02"/><line class="cls-1" x1="21.13" y1="11.06" x2="21.13" y2="66.05"/><line class="cls-1" x1="10.63" y1="11.06" x2="10.63" y2="66.05"/><line class="cls-1" x1="32.13" y1="11.06" x2="32.13" y2="66.05"/><text class="cls-3" transform="translate(0.65 3.06)">Jan 2020 </text><text class="cls-3" transform="matrix(0.03, 0.66, -1, 0.04, 10.65, 2.16)">&gt;</text><path class="cls-4" d="M60.56.13h9.38a.68.68,0,0,1,.68.68V3.19a.94.94,0,0,1-.94.94H60.56a.94.94,0,0,1-.94-.94V1.06A.94.94,0,0,1,60.56.13Z"/><text class="cls-5" transform="translate(62.1 2.8) scale(0.97 1)">Today</text><rect class="cls-1" x="72.1" y="0.13" width="4.52" height="4" rx="0.68"/><line class="cls-1" x1="72.83" y1="1.52" x2="75.83" y2="1.52"/><line class="cls-1" x1="72.83" y1="2.82" x2="75.83" y2="2.82"/><circle class="cls-6" cx="73.63" cy="1.52" r="0.5"/><circle class="cls-6" cx="74.96" cy="2.82" r="0.5"/></svg>