<?xml version="1.0" encoding="utf-8"?>
<!-- Generator: Adobe Illustrator 24.1.1, SVG Export Plug-In . SVG Version: 6.00 Build 0)  -->
<svg version="1.1" id="Layer_1" xmlns="http://www.w3.org/2000/svg" xmlns:xlink="http://www.w3.org/1999/xlink" x="0px" y="0px"
	 viewBox="0 0 76.3 57.9" style="enable-background:new 0 0 76.3 57.9;" xml:space="preserve">
<style type="text/css">
	.st0{fill:#F17947;}
	.st1{font-family:'ArialMT';}
	.st2{font-size:1.9px;}
	.st3{opacity:0.57;}
	.st4{fill:none;stroke:#FFA500;stroke-width:0.25;stroke-miterlimit:10;}
	.st5{fill:#FFA500;}
	.st6{fill:none;stroke:#8C8B8B;stroke-width:0.25;stroke-miterlimit:10;}
	.st7{fill:#FCFCFC;stroke:#8C8B8B;stroke-width:0.25;stroke-miterlimit:10;}
	.st8{opacity:0.39;fill:none;stroke:#D6D4D4;stroke-width:0.25;stroke-miterlimit:10;enable-background:new    ;}
	.st9{opacity:0.39;fill:none;stroke:#D6D4D4;stroke-miterlimit:10;enable-background:new    ;}
	.st10{fill:#D6D4D4;}
	.st11{font-size:0.93px;}
	.st12{fill:#FDF1C1;}
	.st13{fill:#F57C4A;}
	.st14{fill:#EDF3FF;}
	.st15{fill:#F9E2D6;}
	.st16{opacity:0.31;fill:#D6D4D4;enable-background:new    ;}
	.st17{fill:#070707;}
	.st18{font-size:1.3523px;}
	.st19{enable-background:new    ;}
	.st20{fill:#FFFFFF;}
</style>
<text transform="matrix(1 0 0 1 0.65 2.7)" class="st0 st1 st2">Jan 2020</text>
<g>
	<path class="st0" d="M9.4,2.6L8.7,1.8H9l0.5,0.7L10,1.8h0.3L9.7,2.6H9.4z"/>
</g>
<g class="st3">
	<path class="st4" d="M60.6,0.1h9.4c0.4,0,0.7,0.3,0.7,0.7c0,0,0,0,0,0l0,0v2.4c0,0.5-0.4,0.9-0.9,0.9l0,0h-9.1
		c-0.5,0-0.9-0.4-0.9-0.9V1.1C59.6,0.5,60,0.1,60.6,0.1z"/>
	<text transform="matrix(0.97 0 0 1 62.5298 2.79)" class="st5 st1 st2">Today</text>
</g>
<g class="st3">
	<path class="st6" d="M72.3,0.1h3.2c0.4,0,0.7,0.3,0.7,0.7v2.6c0,0.4-0.3,0.7-0.7,0.7h-3.2c-0.4,0-0.7-0.3-0.7-0.7V0.8
		C71.6,0.4,71.9,0.1,72.3,0.1z"/>
	<line class="st6" x1="72.4" y1="1.5" x2="75.4" y2="1.5"/>
	<line class="st6" x1="72.4" y1="2.8" x2="75.4" y2="2.8"/>
	<circle class="st7" cx="73.2" cy="1.5" r="0.5"/>
	<circle class="st7" cx="74.5" cy="2.8" r="0.5"/>
</g>
<rect x="0.1" y="9.9" class="st8" width="76" height="47.9"/>
<path class="st9" d="M72.6,17.4"/>
<path class="st9" d="M4.6,18.1"/>
<line class="st8" x1="0.4" y1="19.1" x2="75.9" y2="19.1"/>
<line class="st8" x1="0.4" y1="28.2" x2="75.9" y2="28.2"/>
<line class="st8" x1="0.4" y1="37.8" x2="75.9" y2="37.7"/>
<line class="st8" x1="0.1" y1="48" x2="76.1" y2="48"/>
<line class="st8" x1="65.6" y1="9.7" x2="65.6" y2="57.5"/>
<line class="st8" x1="54.1" y1="9.9" x2="54.1" y2="57.7"/>
<line class="st8" x1="43.1" y1="9.9" x2="43.1" y2="57.7"/>
<line class="st8" x1="21.1" y1="9.9" x2="21.1" y2="57.7"/>
<line class="st8" x1="10.6" y1="9.9" x2="10.6" y2="57.7"/>
<line class="st8" x1="32.1" y1="9.9" x2="32.1" y2="57.7"/>
<text transform="matrix(0.96 0 0 1 7.5098 9.3999)" class="st10 st1 st11">Sat</text>
<text transform="matrix(0.96 0 0 1 18.3398 9.3999)" class="st10 st1 st11">Fri</text>
<text transform="matrix(0.96 0 0 1 29.3501 9.3999)" class="st10 st1 st11">Thu</text>
<text transform="matrix(0.96 0 0 1 40.6099 9.3999)" class="st10 st1 st11">Wed</text>
<text transform="matrix(0.96 0 0 1 51.8999 9.3999)" class="st10 st1 st11">Tue</text>
<text transform="matrix(0.96 0 0 1 63.6201 9.3999)" class="st10 st1 st11">Mon</text>
<text transform="matrix(0.96 0 0 1 74.0898 9.3999)" class="st10 st1 st11">Sun</text>
<rect x="10.6" y="19.1" class="st12" width="10.4" height="9"/>
<rect x="54.4" y="19.1" class="st13" width="10.9" height="9"/>
<rect x="32.2" y="28.3" class="st14" width="10.9" height="9.3"/>
<rect x="54.4" y="48.3" class="st15" width="10.9" height="9.3"/>
<text transform="matrix(0.96 0 0 1 8.6396 11.5601)" class="st10 st1 st11">1</text>
<text transform="matrix(0.96 0 0 1 19.0498 11.3301)" class="st10 st1 st11">2</text>
<text transform="matrix(0.96 0 0 1 30.0498 11.3301)" class="st10 st1 st11">3</text>
<text transform="matrix(0.96 0 0 1 41.0498 11.3301)" class="st10 st1 st11">4</text>
<text transform="matrix(0.96 0 0 1 52.0498 11.3301)" class="st10 st1 st11">5</text>
<text transform="matrix(0.96 0 0 1 64.0498 11.3301)" class="st10 st1 st11">6</text>
<text transform="matrix(0.96 0 0 1 74.1099 11.3301)" class="st10 st1 st11">7</text>
<text transform="matrix(0.96 0 0 1 8.3799 21.0098)" class="st10 st1 st11">8</text>
<text transform="matrix(0.96 0 0 1 18.7798 20.7803)" class="st10 st1 st11">9</text>
<text transform="matrix(0.96 0 0 1 29.7798 20.7803)" class="st10 st1 st11">10</text>
<text transform="matrix(0.96 0 0 1 40.7798 20.7803)" class="st10 st1 st11">11</text>
<text transform="matrix(0.96 0 0 1 51.7798 20.7803)" class="st10 st1 st11">12</text>
<text transform="matrix(0.96 0 0 1 63.7798 20.7803)" class="st10 st1 st11">13</text>
<text transform="matrix(0.96 0 0 1 73.8398 20.7803)" class="st10 st1 st11">14</text>
<text transform="matrix(0.96 0 0 1 8.3799 29.71)" class="st10 st1 st11">15</text>
<text transform="matrix(0.96 0 0 1 18.7798 29.48)" class="st10 st1 st11">16</text>
<text transform="matrix(0.96 0 0 1 29.7798 29.48)" class="st10 st1 st11">17</text>
<text transform="matrix(0.96 0 0 1 40.7798 29.48)" class="st10 st1 st11">18</text>
<text transform="matrix(0.96 0 0 1 51.7798 29.48)" class="st10 st1 st11">19</text>
<text transform="matrix(0.96 0 0 1 63.7798 29.48)" class="st10 st1 st11">20</text>
<text transform="matrix(0.96 0 0 1 73.8398 29.48)" class="st10 st1 st11">21</text>
<text transform="matrix(0.96 0 0 1 8.7998 39.7402)" class="st10 st1 st11">22</text>
<text transform="matrix(0.96 0 0 1 19.1997 39.5098)" class="st10 st1 st11">23</text>
<text transform="matrix(0.96 0 0 1 30.1997 39.5098)" class="st10 st1 st11">24</text>
<text transform="matrix(0.96 0 0 1 41.1997 39.5098)" class="st10 st1 st11">25</text>
<text transform="matrix(0.96 0 0 1 52.1997 39.5098)" class="st10 st1 st11">26</text>
<text transform="matrix(0.96 0 0 1 64.1997 39.5098)" class="st10 st1 st11">27</text>
<text transform="matrix(0.96 0 0 1 74.27 39.5098)" class="st10 st1 st11">28</text>
<text transform="matrix(0.96 0 0 1 8.7998 49.8799)" class="st10 st1 st11">29</text>
<text transform="matrix(0.96 0 0 1 19.1997 49.6499)" class="st10 st1 st11">30</text>
<text transform="matrix(0.96 0 0 1 30.1997 49.6499)" class="st16 st1 st11">1</text>
<text transform="matrix(0.96 0 0 1 41.6699 49.7197)" class="st16 st1 st11">2</text>
<text transform="matrix(0.96 0 0 1 52.6699 49.7197)" class="st16 st1 st11">3</text>
<text transform="matrix(0.96 0 0 1 64.25 49.7197)" class="st16 st1 st11">4</text>
<text transform="matrix(0.96 0 0 1 74.6499 49.7197)" class="st16 st1 st11">5</text>
<text transform="matrix(1.0205 0 0 1 11.8101 26.9312)" class="st17 st1 st18">Get quotation</text>
<text transform="matrix(1.0205 0 0 1 55.9253 25.6374)" class="st19"><tspan x="0" y="0" class="st20 st1 st18">Prepare  </tspan><tspan x="0" y="1.6" class="st20 st1 st18">household</tspan></text>
<text transform="matrix(1.0205 0 0 1 33.5311 34.7651)" class="st19"><tspan x="0" y="0" class="st17 st1 st18">Movin to new  </tspan><tspan x="0" y="1.6" class="st17 st1 st18">house</tspan></text>
<text transform="matrix(1.0205 0 0 1 55.4035 54.9991)" class="st19"><tspan x="0" y="0" class="st17 st1 st18">Setting up the  </tspan><tspan x="0" y="1.6" class="st17 st1 st18">households</tspan></text>
</svg>
