<?xml version="1.0" encoding="utf-8"?>
<!-- Generator: Adobe Illustrator 24.1.1, SVG Export Plug-In . SVG Version: 6.00 Build 0)  -->
<svg version="1.1" id="Layer_1" xmlns="http://www.w3.org/2000/svg" xmlns:xlink="http://www.w3.org/1999/xlink" x="0px" y="0px"
	 viewBox="0 0 29 51" style="enable-background:new 0 0 29 51;" xml:space="preserve">
<style type="text/css">
	.st0{fill:#FFA500;}
	.st1{fill:#737373;}
	.st2{fill:#FFFFFF;}
</style>
<g>
	<path class="st0" d="M20.3,51c-0.9-0.2-1.8-0.3-2.7-0.6c-1.7-0.5-3.1-1.7-3.9-3.4c-1.8-3.4-3.7-6.8-5.6-10.2
		c-0.2-0.3-0.3-0.7-0.5-1c-0.3-0.7-0.1-1.5,0.4-2c0.7-0.5,1.5-0.4,2.1,0.1c0.5,0.4,0.9,0.9,1.3,1.5c0.6,0.8,1.2,1.5,2,2.4
		c0-0.3,0-0.5,0-0.7c0-3.1,0-6,0-9c0-0.4-0.1-0.6-0.6-0.7c-4.1-1.3-6.5-5.7-5.3-10c1.2-4.3,5.5-6.7,9.6-5.5c3.7,1.1,6,4.9,5.5,8.8
		c-0.4,3-2.4,5.5-5.1,6.4c-0.5,0.2-0.7,0.4-0.7,1c0,1.2,0,2.4,0,3.7c0.3,0.2,0.5,0.1,0.5-0.3c0-0.4,0-1,0-1.5c0-1,0.7-1.7,1.6-1.7
		c0,0,0.1,0,0.1,0c0.9,0,1.7,0.7,1.8,1.7c0,0,0,0.1,0,0.1c0,0.6,0,1.2,0,1.8h0.5c0-0.1,0.1-0.1,0.1-0.2c0-0.6,0-1.1,0-1.6
		c0-1,0.7-1.8,1.6-1.8c0.1,0,0.1,0,0.2,0c0.9,0,1.7,0.7,1.7,1.7c0,0,0,0.1,0,0.1c0,0.6,0,1.2,0,1.8l0.6,0.1v-1.8
		c-0.1-1,0.6-1.9,1.6-1.9c1-0.1,1.8,0.7,1.9,1.7c0,0.1,0,0.2,0,0.3c0,4.6,0.1,9.2,0,13.8c0,3.7-2.7,6.8-6.3,7
		c-0.2,0-0.4,0.1-0.5,0.1H20.3z M17,26.5c3.3-0.9,5.4-4.2,5.1-7.7c-0.5-4-4.1-6.9-7.9-6.3c-3.4,0.5-6,3.4-6.2,7
		c-0.1,3.5,2.3,6.5,5.5,7.2c0-0.5,0-0.9,0-1.4c0.1-0.4-0.2-0.9-0.6-1c-2.1-0.9-3.2-3.2-2.8-5.5c0.5-2.8,3.2-4.7,5.9-4.1
		c1.7,0.4,3.1,1.6,3.7,3.3c0.8,2.4-0.2,5-2.4,6.2c-0.2,0.1-0.4,0.3-0.4,0.4C16.9,25.2,17,25.8,17,26.5z M17,22.4
		c1.2-0.8,1.7-2.4,1.2-3.8c-0.5-1.5-2-2.5-3.5-2.3c-1.6,0.1-2.9,1.4-3.1,3.1c-0.2,1.4,0.6,2.8,1.8,3.4c0-0.6,0-1.2,0-1.8
		c0-0.9,0.7-1.7,1.6-1.7c0.1,0,0.1,0,0.2,0c0.9,0,1.7,0.7,1.7,1.6c0,0,0,0.1,0,0.1C17,21.4,17,21.9,17,22.4L17,22.4z"/>
	<path class="st1" d="M28.6,25.8h-2.3V5.3H2.6v38.2c0.8,0,4.4,0,5.2,0c0.9-0.2,1.7,0.3,2,1.2c0.7,1.6,1.6,3.2,2.5,4.8
		c0,0,0,0.1,0,0.1c0,0,0,0.1-0.1,0.1c-2,0-7,0.1-9.1-0.1c-1.6-0.1-2.9-1.5-2.9-3.2c0-0.2,0-0.3,0-0.5c0-14.1,0-28.2,0-42.3
		C0.1,2.3,0.8,1,2,0.4C2.5,0.1,3.1,0,3.6,0c7.1,0,14.3,0,21.4,0c1.8-0.1,3.3,1.3,3.5,3.2c0,0,0,0.1,0,0.1c0,0.3,0,0.5,0,0.8
		c0,10,0,11,0,21L28.6,25.8z M14.4,2.4h-3.3c-0.3,0-0.6,0-0.6,0.4c0,0.2,0.4,0.4,0.6,0.4c2.2,0,4.4,0,6.5,0c0.2,0,0.5-0.2,0.6-0.4
		c0-0.4-0.3-0.4-0.6-0.4H14.4z"/>
	<path class="st2" d="M14.4,2.4h3.2c0.3,0,0.6,0,0.6,0.4c-0.1,0.2-0.3,0.4-0.6,0.4c-2.2,0-4.4,0-6.5,0c-0.2,0-0.5-0.2-0.6-0.4
		c0-0.4,0.3-0.4,0.6-0.4H14.4z"/>
</g>
</svg>
