<svg id="Layer_1" data-name="Layer 1" xmlns="http://www.w3.org/2000/svg" xmlns:xlink="http://www.w3.org/1999/xlink" viewBox="0 0 1921.65 800"><defs><style>.cls-1{fill:none;}.cls-2,.cls-6{fill:#fff;}.cls-3{fill:url(#linear-gradient);}.cls-13,.cls-4,.cls-8{fill:#c4cdd3;}.cls-4,.cls-5,.cls-6,.cls-8,.cls-9{fill-rule:evenodd;}.cls-15,.cls-4{opacity:0.44;}.cls-12,.cls-15,.cls-4{isolation:isolate;}.cls-5{fill:#ec1c24;}.cls-7,.cls-9{fill:#f48120;}.cls-10{fill:#ececec;}.cls-11{fill:#e1e1e1;}.cls-14{fill:#f5f5f5;}.cls-16{fill:#fafafa;}.cls-17{fill:#e0d4d7;}.cls-18{fill:#f3ffff;}.cls-19{clip-path:url(#clip-path);}.cls-20{clip-path:url(#clip-path-2);}.cls-21{fill:#7595c2;}.cls-22{fill:#f68a6c;}.cls-23{fill:orange;}.cls-24{fill:#2d2861;}.cls-25{fill:#adeff7;}.cls-26{fill:#352e73;}.cls-27{fill:#74a8e6;}.cls-28{fill:#7271b3;}.cls-29{fill:#76c6ed;}.cls-30{fill:#fcc13f;}.cls-31{fill:#fee2bf;}.cls-32{fill:#fc008b;}.cls-33{fill:#d6007e;}.cls-34{fill:#f7a491;}.cls-35{fill:#f8a492;}.cls-36{fill:#e5910c;}.cls-37{fill:#fe875e;}</style><linearGradient id="linear-gradient" x1="1034.66" y1="400.59" x2="1918.76" y2="400.59" gradientTransform="matrix(1, 0, 0, -1, 2.89, 798.99)" gradientUnits="userSpaceOnUse"><stop offset="0" stop-color="#fae5e7"/><stop offset="1" stop-color="#eceefa"/></linearGradient><clipPath id="clip-path"><rect class="cls-1" x="1654.2" y="316.9" width="118.8" height="336.5"/></clipPath><clipPath id="clip-path-2"><rect class="cls-1" x="1287.8" y="572.2" width="76" height="81.3"/></clipPath></defs><rect class="cls-2" width="1919.5" height="800"/><path class="cls-3" d="M1548.85,796.25s202.1-13,371.7-108.1l1.1-686.6-884.1-1s436.4,188.8,185.2,520.8a173.38,173.38,0,0,0-34.4,84.6c-8.8,78,31.9,195.1,360.3,190Z"/><path id="path380" class="cls-4" d="M1468.39,135.19v-.52h2.13v.52Zm14.23.34c-2.42-.4-1.16-.86.28-.63C1483,135.3,1483,135.36,1482.62,135.53Zm-107.79,1.73c-1.32-.58,2.82-1,2.94-1C1379.26,136.91,1375.41,137.09,1374.83,137.26Zm315.58.06c-.46-.52-.17-.69.41-.69C1690.82,137.09,1690.93,137.26,1690.41,137.32Zm-291.69,0c0-.92,2.42-1,2.42-.35A18.09,18.09,0,0,1,1398.72,137.32Zm-1,.17c0-.46.52-.58.63-.17A.83.83,0,0,1,1397.69,137.49Zm239,1.38c-1.44-.75.51-1.21,1.2-1.32C1639,138.12,1637,138.76,1636.64,138.87Zm-10.6.06c-1-.35-4.55-.75-4.55-1.44.29-.52,5.42-1.15,6.62-.52.93.12,1.44-.17,1.39.75C1627.37,138,1627.54,138.87,1626,138.93Zm23.49.46c-1.67-.23-1.84-.86,0-1,1.56-.92-1-1.09-1.61-.51-.4,2.07-1.38.63-2.71.63-1.67.52-1.43.63-2.13-.52-.86-.23-3.28.23-3.34-.81,1.21-1.72,4.5-.74,6.11-1.55,1.73-.12,3.28-.81,5.06-.81,1.5,1.44-4.49,1-1.84,1.9,1.79.18,1.5.58,3.4-.34,1.27,0,2.48.4,2.82-.92.75-.35,4.43-.64,4.55.17-1.21,1.55,3.17,0,3.34,1.61-.63.92-7.43,1-6-.46.23,0,.46-.06.69-.06,0-1.44-3.16.35-4,.69-2.7.06-2.13,1.21-4.32,2Zm-17.21,0c-2.48-1.67,3.51-1.15,2.24-.12C1633.81,139.33,1633.07,139.33,1632.32,139.39Zm-275.63,0c-.57-.69-.06-1.55-1.21-1.61-1.32.57-7.31-.35-7.31-1.56a35.59,35.59,0,0,1,6.39.75c.69,0,4.44-.57,4.44.29-1.79,1-.47,2-2.31,2.13Zm-23.55.4c-.46-.28-1-.63-1.44-.92C1330.44,136.86,1335,139.27,1333.14,139.79Zm352.44.41c-.46-.12-1.21-.18-1.27-.75.52-.58,4.32-.18,2.59.69A10.17,10.17,0,0,1,1685.58,140.2Zm-324.22.63c-.75-.58-2.94-1.67-.64-1.38C1361.64,139.85,1363.26,140.83,1361.36,140.83Zm367.8,1.09c-.4-1-5.81-.92-6.45-.92-2.18-.57-1.84-2.07-3.8-1.15-1.49,0-2.82.23-4-.75.06-1,2-.23,2.82-.63,0-.81,0-1.5.87-2,1.67.06,9.27-1.15,9.38,1.21-.8,1.27.23.69,1.21.69,1.44.86,2,1.21,2.13,2.76-.75.18-1.84,0-2.19.75Zm-418.18.64c-.64-.06-1.33-.18-2-.23-1.33-.46-4.44.69-4.26-.81.63-.23,7.71-1.78,7.71.75A2.3,2.3,0,0,1,1311,142.56Zm185.22.92c-1.09-.69,1.1-1.56.41-.17C1496.49,143.36,1496.32,143.42,1496.2,143.48Zm-168.58.23c-1-.12-2.19-.64-.58-.81,0-1.84-5.3.52-5.3-1.26,1.9-2.71,3-.41,5.36-1.33.86,0,7.48,1.1,5,2.82-1,0-2.36-.57-3,.35a13.24,13.24,0,0,1-1.38.23Zm-24.71,0c-.63-.29-1.38-.46-1.38-1.21C1302.51,141.92,1305.16,142.73,1302.91,143.71Zm57.47.11c-1.38-.57-2-1.49-3.63-1-3,0-.35-1.44,1.09-1.44,3.11,2,1.56.8,4.21.8,2.42,1.67-.35,1.62-1.67,1.67Zm7.66.29a1.57,1.57,0,0,0-.06-.52C1368.27,143.59,1368.21,144,1368,144.11Zm342.3.52c-.93-1.32,1.43-1.09.4-.06C1710.62,144.57,1710.51,144.63,1710.34,144.63Zm-358.43,0c-1.15-.92-3.11-1.9-.69-2.13.69-.35,3.23-.23,3.23.46C1353.64,143.94,1353.3,144.51,1351.91,144.63Zm-30.74,0c-.46-.35-1-.69-1.44-1C1318.75,141.75,1323.3,144,1321.17,144.63Zm507.83.92c-.86-1,2.48-1.55,2.36-.17Zm-102,.06c-1-.63.11-1.56.57-.4C1727.61,145.67,1727.38,145.61,1727,145.61Zm-3.06,0c-.86-.69,1.56-2.65,1.62-1.27C1725.31,145.72,1725.36,145.55,1723.92,145.61Zm-401.2.75c-1.67-2.48,3.28-1.62,2.71-.41A14.17,14.17,0,0,1,1322.72,146.36Zm-26.08.63c-1.84-1.09,3.57-1.67,1.73-.86C1298.31,146.47,1297.1,146.93,1296.64,147Zm506.22,1.09c-.11-2.36,2.08-1.55.52-.05A1.87,1.87,0,0,0,1802.86,148.08Zm-458.89.23c-3-.8-2.13-1.67.29-.69C1344.54,148.2,1344.54,148.31,1344,148.31Zm352.14.12c-.34-.35-.23-.86-.57-1.32-2.25-.58,3.51-2.08,3.39-.23-1.43.46-2-.41-2.3,1.38-.11.11-.11.11-.52.17Zm-393.31,0a2.47,2.47,0,0,1,.63-.06C1303.49,147.57,1302.11,148,1302.8,148.43Zm185.52.11c-2.37-1,.57-1.43.57-.17A4.4,4.4,0,0,1,1488.32,148.54Zm7.42.06c-1.15-.75.46-2,.41-.23A2.5,2.5,0,0,0,1495.74,148.6Zm-5.18.18c0-.35-.17-.64.29-.41C1491,148.83,1491,148.78,1490.56,148.78Zm-158.34,0a29.4,29.4,0,0,0,3.34-.52c1.27-1,1.1-2.88-.63-3-1.5-.81-6.28-.52-7.89.28a9.6,9.6,0,0,1-1.5,1.39c-.4,1.55,3.63.11,4.38,1.2a5.46,5.46,0,0,0,2.3.7Zm-9.5,0c.63-.24,1.15-.29,1.56-.81C1323,145.9,1321.8,148.2,1322.72,148.78Zm488.84.28c-1.44-.4-5.3.64-5.3-1.78.81-1.5,3-1.38,4.55-1.38,3.4,1.78,2.65-.41,5.81.46,1,.4,8.81.17,5,2.07-3.34.69-6.57.52-10,.63Zm19.57.18c-.57-.12-8-.52-6.1-2,2.82,0,5.47.57,8.29.34C1835.39,148.66,1831.88,149.18,1831.13,149.24Zm-140.77.34c-1-.63.63-1.32.57-.34C1690.64,149.52,1690.64,149.52,1690.36,149.58Zm-386.7.23c1.85-.06,3.57-.17,5.42-.11,3.74-1.33,7.6,0,11.05-1.67.86-1.62-2.42-1.15-3.11-1.15-2.42.86-3.51-3.34-3.8-.06-.52,1-2.24.46-3.17.34-.63.23-.92.52-1.55.29-.69-1.61-3.4-1.44-5-1.61.11-.69,1.21-.69.29-1.38-2-.23-2.13-.23-2.36,1.38-2.94-.29-1.62-2.82-4-2l-3.51-.34c-.63.92-2,.8-3,1.09-1.56,1-4.32,0-5.82,1.44,0,2.19,3.75.06,5.07.69,1.44,0,2.76-1,4.15-1.38,3.22,0-2.31,2.42-.12,2.42,1.44-.46,1.33-1.5,1.33.29,1.26.92,5.12.23,6.73.34C1302.28,149.41,1302.57,149.35,1303.66,149.81Zm397.87.17c-.93-.4,0-1.78.11-.11C1701.64,149.93,1701.58,149.93,1701.53,150Zm62.41.23c-.4-.51-.06-1.2.4-.63C1764.29,150,1764.4,150.21,1763.94,150.21Zm40.42.75a5.15,5.15,0,0,0-1.38-.63C1802.81,148.43,1806.26,150.68,1804.36,151Zm-99.61.69c-1.27-1,.58-1.21.58-.11C1705.21,151.65,1705.21,151.65,1704.75,151.65Zm-333.26,1.85c1-.23-.23-1.21-.23-.35C1371.32,153.27,1371.43,153.38,1371.49,153.5Zm3.74.69a2.5,2.5,0,0,1,.58-.12c1.44-1.55-.12-1.32-1.73-1.32-2.76.52.06.92,1.15,1.44Zm-59.71.4c.12-.06.23-.06.35-.11C1315.64,153.73,1314.89,154.19,1315.52,154.59Zm380.54.23c-.64-.29-2.08-.46-2.25-1.09C1695.13,153.67,1700,154.65,1696.06,154.82Zm-362.17.92a3.91,3.91,0,0,0,1.33-.57c1.84,0,3.45,0,2.3-2,0-.63,1.09-1.44-.17-1.38-.46.75-2-.12-.75-.35,1.15-2.24-4.9-1.09-5.41-1.09-.58,3.22-3.17,1.26-5,1.9-1.16,1.49,3.62,1.84,4.31,2.07a24.22,24.22,0,0,0,3.4,1.38Zm304.3.29c-.11-.17-.23-.29-.35-.46C1638.13,154.88,1639.4,155.63,1638.19,156Zm215.28,1c-1.72-.86,1-1.44.41-.17C1853.76,156.89,1853.65,157,1853.47,157Zm-209.92.06c-3-.41-5.88.23-8-2-2.53-.63-.17-1.44,1-1.55,1.55-.81,2.82-1.44,3.11-3,1-.17,4.78-.06,4.78-1.38-2.77-.92,1.9-1.27,2.41-1.5,1.5-1.15,2.08-.92,4.09-1,1.38-.17,2.25-.8,3.46-1,2.7.4,5.75,0,8.52-.12,1.44-.63,7.37-3.05,5.81.52a1,1,0,0,0-.28.23c-4.84,0-9.91,1.27-14.69,1.73-1.78.34-1.32,1.78-3.45,1.26a2.56,2.56,0,0,0-1.73.29c-.29,1.67-3.34,2.3-4.83,2.71-3.92,2.13,3.57,3.74,2.64,4.66-.92.06-1.9.06-2.87.12Zm213.49.11c-.8-.92-1.72.63-1.32-.92C1856.06,156.26,1858.83,157,1857,157.18Zm-159.6.17c-.81-.8-.06-1.2.75-1.78C1698.59,155.74,1698.3,157.24,1697.44,157.35Zm-214.71,0c-1-.28-2.94-1.44-.63-1.55C1482.62,156.09,1484.17,157.18,1482.73,157.35Zm-3.92,0a14.26,14.26,0,0,0-4.08-.34c0-1.27,7.83-.75,5,.29a5.08,5.08,0,0,1-.87,0Zm-177.51,0h2.59v-.51h-2.59Zm29.14.29c.34-.06.4-.11.52-.46C1330.38,155.8,1329.57,157,1330.44,157.64Zm43.64.64c1.44-.12,1-.81-.23-.75A5,5,0,0,0,1374.08,158.28Zm275.45.34c-2.47-1.21-.28-2,.58-.69C1650.11,158.51,1650,158.51,1649.53,158.62Zm-284.66,0c.63,0,.34-.46,1.21-.23C1367.52,158.39,1364.87,157.41,1364.87,158.62Zm-47,1.38c.46-.17.4-.46-.12-.46C1317.83,159.66,1317.83,159.83,1317.89,160Zm310.4.23c-.69-1.09,2-2.3,1.9-1A2.65,2.65,0,0,1,1628.29,160.23Zm-66.39,1.27c-1.67-1-1.38-1.09.35-1.61C1563.8,160,1562.76,161.27,1561.9,161.5Zm-178.89.58c.17-.7.92-.64-.12-1.16C1381.34,161.15,1382.37,161.62,1383,162.08Zm174.4.51c-1.61-1.67,4.78-1.67,2.53-.57C1558.68,162,1558.33,162.48,1557.41,162.59Zm-218,.81c.81-.12.69-.75.69-1.44.69-.92,3.4.17,3.34-1.38-.81.06-1.9.29-1.44-.81.69-.57-.75-.63-1.15-.69-2.82,0,.34,1.15-1.84,2.19-.35.58.23,1.67.4,2.13Zm-23.32.35c.46-.18-.4-1.79-.81-2.13-1.38-.24-.69-.87-1.44-1.21-2.24.46-7.71,1.9-9.55.51a3.53,3.53,0,0,0-.87-1.15c-2.65-.11-2-.06-2,2,1.2,1.26,9.73.46,11.51-.35.81,0,.63.23.69,1a4.71,4.71,0,0,1,2.42,1.33Zm73.24,1.38a1.29,1.29,0,0,0,.69-.23C1390.2,163.75,1388.36,164.32,1389.34,165.13Zm95.81,2.24c-1-.4,2.07-1.09,2.07-.23A6.19,6.19,0,0,1,1485.15,167.37Zm67.19,3.34c-.11-1.15,3-1.15.87-.17Zm-59.13.12a14.51,14.51,0,0,1-3.46-.87c-.63,0-4.49.64-3.39-1,2-.87-2.08-.47-2.48-.93.75-1.55-1.15-.51-1.15-1.84.92-.11,1.9-.29,2.13-1.38,1.56-.35,4.2-.58,4.55,1.38a1.21,1.21,0,0,0,1.38-.06c1-1.44,4.09-.57,5.59-.46,1-.23,1.61-1,2.64-1.15,2.42,1.84,3.46-1,5.42,2,0,1.38,0,1.44-1.33,1.55-1.09,1-2.7,1.33-4.09,2-.57,0-1.32-.17-2.07-.17a9,9,0,0,1-3.74.92Zm-126.33,1.49c.58,0,.58,0,.69-.17C1367.57,170.6,1365.85,171,1366.88,172.32Zm4.9,2.08c.86-.12.75-1,.86-1.85C1371.61,171.58,1371.72,174.05,1371.78,174.4Zm29.82.75a1,1,0,0,0,.58-.35C1402.75,173.25,1400.68,174.17,1401.6,175.15Zm-6.16,2.07a3.59,3.59,0,0,0,.64-.29C1395.67,175.15,1394.41,176.53,1395.44,177.22Zm-159.43.52c1.15-.18,1.84-1.67.06-.69C1235.89,177.45,1235.84,177.45,1236,177.74Zm-36.39,0a.89.89,0,0,0,.52-.23C1200.14,176,1197.32,176.12,1199.62,177.74Zm243.44.17c2.59-.63,2.48-.81,3.68-3.17,1-1.09-2-2.42-.46-2.7.41,1.32,2,.46,1.44-.64-.92-.11,2-.75,2.42-.86,1.1-1.32-.06-2-.06-3.11.69-.69,6-1.55,7-.69.52,0,.52,0,.86-.35,3.34-1.09,5.36-.92,7.77-3.8,2-1,4-.17,6.28-1,2.88-.29,5.76-.69,8.64-1.15,2.59-1.27,5.64-1.5,7.89-3.29,0-3.68-2-2.76-4.9-3.8-.75-.11-4.32.46-3.68-1.49.92-.12,5.93-1.85,5.81.17a3.85,3.85,0,0,1-2.53-.06c-1.79.69,3.91,2,4.55,1.67,1-1.32-.29-1-.46-1.9,1.61-.52.69,1.27,2.07.64,1.21-2.77-1-.64-2.13-2.19,0-1.1,1.32.05,1.73.05,1.26-.57,4.72.23,4.66-1.09-.69-.11-1.15,0-1.15-.75,2.42-3.8-4.15-1.9-4.2-3.34a13.14,13.14,0,0,1,4.72.06c1,.75,1.61,2.42,1.67.29,2.88-1.67-3.8-2.94-4.73-3-1.09.35-1.09.12-.63-.74,2-1.67,2.88-.41,4.55-.47.4,1.39,3.11-.17,3-1-1.15-1.16-2.93,2.47-3-.23-.58-.18-1-.87-.58-1.33a8.82,8.82,0,0,0,5.36-1.21c1.67-.06,8.46-.69,8.41-2.19-3.29-.86-7.37-.51-10.77-.51-.4.17-.4.17-1.21.92l-3.34-.18c-1.32-.51-2.53.18-3.92.47-2.47-1.16,2.08-2.08.52-2.6-2-.28-6.1.06-7.66-1.15-8.52-.8-18-1.44-26.42,0-1.62,2-6.86-.52-9.45.46-1.78-.05-3.22-.46-4.83.12-3,.11.34,1.09,1.38,1.27,2.19,1.72-4.15.28-4.26.28-1.38-.23-8-1.32-8-.23a2.88,2.88,0,0,0,1,.58c-.17,1.21-3.45-.75-4.72-.12-1.78,1.56-1,.58-2.82-.4-3.86,0-10.08-.4-13.3,2.19-.75,0-2.25-.17-3.28-.17-1,.17-6,1.61-2.77-.52,1.1,0,5.82.11,5.47-1.5a10.75,10.75,0,0,0-3.11-.4c-.8-.52-.8-.81-1.9-.46-4.14,0-8.4-.52-12.55-.52-2.19.52-4-.46-6.1.52a96.39,96.39,0,0,0-11.52-.35c-1.26.63-1.78.46-3.16.12a8.27,8.27,0,0,1-3.92.74c-.23,1.56-4.26-.05-5.07.35-.34.92-1.09.69-2,.69a11.12,11.12,0,0,0-6.28.35c-1.38-.12-5.35-1.1-5.35.75-2.13.74-6.16-1-5.24,2.53-.17.86-1.27.92-2,1.09-.86,1.21,1.56.87,2.13.92,2.25,1.79,3.75,1.73,6.62,2.31.23.29.23.29.06.52-.06.92,3.23,1.95.52,2.36-1.78-.81-3.68,0-5.41-.52-.81-1-1.38-.52-2.71-.52-3.63-.92,1.15-.63,2.25-.63.92-.92-2.13-.69-2.59-2-.92-.63-4-.92-5.42-.92-2.47,2.36,7.66,2.25,2.54,3.57-2,1.15,1.32,1.21,2.36,1.73,3.28,0,5.07-1.21,6.91,2.65,1.78,1.38,5.12-.35,7,.57,2.31,0,4.61-.17,6.91-.17,1.33.46,1.5-.17,2.82-.17,1.67.74,5.3,1.09,6.62-.18,1.1-3.28-5.87-2.24-7.42-2.24-1.67.52-9.1,1.44-10.14.06,0-.93.41-.75,1.27-.75,2.25.28,3.28-.69,5.53.17a29.62,29.62,0,0,0,6-.63,14,14,0,0,0,2.7.17c1,1.5,2.42.06,3.63,1.44.69,0,2.53-1.21,2.53-1.9-2.3-2,2.77-2.48,4-2.54.57-.8-.58-1.72-1.21-2.18-2.36-.46,1.26-.58,1.78-.52,1.21.46,8.93-.17,9.79-1.21.23-1.09,1-.81,1.9-.63,1.09,0,5.3-1.39,5.53-.35h-.18c-.23,2,4.55.92,5.88.92,0,1.15-4.49,1.44-5.13,1.56-3.68,0-7.31.92-11,1-2,.69.46,1.32,1.21,1.43.92.87-2,.18-.87,1.33,2.71.17,5,1.55,7.49,2.36,2.88,0,6.1.4,8.69-.46,4.15,0,8.93-.17,12,2.53.63.29,2.7.41,1.78,1.27,0,1.32,1.56-.12,2.25,1.32,2.24,1.33-.69,3.75,1.9,4.44,2.59,0,3.91-.87,6.21.63.81.06,2.14,0,2,.92-2.36-.52-5.47-1.84-7.94-.29.11,1.21.92.46,1.67.81,0,2.36,5.18,3.05,5.18.86.23-.23,2.13.29,2.36.41-.12,3-4.49.63-5.82,2.41-.74,2.65-1.78,4,1.56,5.7a13.46,13.46,0,0,1,1.09,2.08c1.5.69,1.38-1.79,2.94-1.15,1.78,1.72-2.53,2.36,0,3.34,1.61,2,2.13,3.22,4.49,4,2,1.44,2.82.8,5.47.34.46-.46.58.12.29.18-.64,1.67,1.26,1.26,2.59,2.07Zm110.66,4.89c0-.34,0-.34,0-.51C1554.47,182.34,1554.36,182.75,1553.72,182.8Zm-329.4.29c1.56-.11,3.57-3.11,1.5-3.34-.58,1.67-4.09,1.15-4.09,2.54A10.66,10.66,0,0,0,1224.32,183.09Zm344.09.35c-2.36-1.79,1.49-2.31,1.67-3.52C1572.09,179.64,1569.5,183,1568.41,183.44Zm-308.74,0a3.58,3.58,0,0,1,.41-.12C1260.83,181.94,1258.29,181.94,1259.67,183.44Zm-37.31.92.87-.17C1223.23,182.86,1221.56,183.84,1222.36,184.36Zm150.74.52.87-.18c1-1-2.19-1.67-2.13-.46a13.6,13.6,0,0,1,1.26.64Zm-111.64,0c1.27,0,.34-3-.81-3C1260.65,182.92,1260.6,184.19,1261.46,184.88Zm-41.8.63c.4,0,.34.06.34-.35C1219.66,185.22,1219.6,185.11,1219.66,185.51Zm334.81,1.38c-.17-.29-.17-.29-.17-.52C1554.82,186.37,1555.16,186.78,1554.47,186.89Zm-1.78,1c-1.21-.75-1.33-1.55.29-.69C1554.3,187.41,1554.07,187.76,1552.69,187.87Zm1.78.63c-.86-.92.92-.86.92-.11C1555.11,188.45,1554.82,188.45,1554.47,188.5Zm-32.36.35c0-.81.06-.75.87-.75C1523,188.79,1522.8,188.73,1522.11,188.85Zm37.72.11c-1.38-.69-2-1.38-3.46-.74-1.78-.23-.06-.64.58-1.44.23-1,2.13.23,3.4-.29,1.66-2,4.49-1,5.47-3.28,0-1.44-.24-.75-.81-.64.34-2.93,2.36-2.93,4.55-4.14.86-2.59-4.32-2.08-3-4,.46-.17.29-.8.18-1.15,1.38-1.9,3.8-2.13,5.75-3.05.93-.29,1.85-.34,2.31-1.21-.69-3.91,4.49-2,6.22-2.59,3.91,0-1.9,2.77-2.42,3.17a4.73,4.73,0,0,0-2.71,1.55c-3.45,1.15-1.09,1.21-1.09,3.75-.35,1.09,0,1.38.11,2.41,1.44.18,2.88.46,4.32.58,1.15-.69,9.56-2.3,9.5-.63-.92,1.78-8.52-.58-9.61,1.15-1.16.8-3.57.52-.87,2,1.1,0,.58-1.26,1.9-.11,2.25,3.86-3.28,1.32-4.37,1.32a4.3,4.3,0,0,0-2.19,2.42c0,2.42.8,2.65-1.61,2.82-.35.23-.58.58-.93.81a19.22,19.22,0,0,0-10,1.26A4.9,4.9,0,0,0,1559.83,189Zm-361.88.81a12.31,12.31,0,0,1,3.11-.92C1200.83,187.06,1196.8,188.56,1198,189.77Zm-2.71.52c.52,0,.35-.17.35-.63C1195.24,189.71,1194.67,190.06,1195.24,190.29Zm72.38.92c1.38-.58,0-1,.06-1.78,1.78-2.31-4.38,1.2-1.56,1.2C1266.93,190.12,1267,190.81,1267.62,191.21Zm-74.28.46.64-.17C1195.42,190.17,1191.85,190.69,1193.34,191.67Zm-1.49.06c-.52-.92,1-.69.4-.06A.81.81,0,0,1,1191.85,191.73Zm-3.34.63a1.09,1.09,0,0,0-.06-.46C1189,191.9,1189,192.3,1188.51,192.36Zm-15.72.63c-.06-.4-.12-.4.29-.46C1173.13,192.82,1173,192.94,1172.79,193Zm13.47.12c-1.9-.52-2.53-2-.29-.75C1187.59,192.36,1188.22,192.94,1186.26,193.11Zm-7.89.69c-2.3-1.27.35-1.15,1.56-1,2.19-1.15,3.22.7.23.64C1179.41,193.05,1179.06,193.63,1178.37,193.8Zm103.7,2.88h.17C1282.36,194.9,1280.75,196.22,1282.07,196.68Zm236.76.46c-.8-.86,1.15-.86.35-.06A.72.72,0,0,1,1518.83,197.14Zm-124,1.9,1.21-.17C1396,198,1394.29,198.41,1394.81,199Zm445.59.58c-1-.64.18-1.27.64-1.85-.69-1.67,1.55-.23.34,1.16a6.17,6.17,0,0,0-1,.69Zm-2.07,1.67c-1-.23.23-1.21.86-1.21A1,1,0,0,1,1838.33,201.29Zm-430.28.4a2.39,2.39,0,0,0,.87-.17C1409.38,200.19,1407.3,200.54,1408.05,201.69Zm-122.35.17c2.59-.57-2.13-5.47-2.13-3.22.4.57.63,1.15,1.32,1.38C1285.58,200.65,1285.18,201.29,1285.7,201.86Zm550.1,1.33c-.75-.87,1.15-1.85,2-1.85A2.73,2.73,0,0,1,1835.8,203.19Zm-233,2.07c-1.9-2.13.46-2,2.42-2.13,2.07-.69,1.26-1,2.47.46C1607.73,205.78,1604.22,205.2,1602.84,205.26Zm228.29.11c-1.15-1.2,3.11-2.53,2.08-1A5,5,0,0,1,1831.13,205.37Zm-3.74,1.44c-1.21-1.26,3.74-2.64,2.53-1A5.93,5.93,0,0,1,1827.39,206.81Zm-453.31,3.4a9.27,9.27,0,0,0,3.57-.52c1.9-2.19-2.71-1.84-3.8-1.21C1373.33,209.46,1372.87,209.81,1374.08,210.21Zm-8.69.75c1.84-1.21,1-4.89,2.18-6.56,0-.29-.11-.35-.11-.64-2.53.64-5-1-6.22-3-1.5-4.67-5.64-1.73-8.17.11-2.65,1.38-6.45,2.13-2.14,3.17,2.54,0,3.8-3.4,6.17-1.09.74.28,5-.35,3.91,1.15-2.65.75-5.3,2.3-4.32,5.29,1.61,1.16,3-2.64,3.92-3.45,1-1.5,3.91-.92,3.91.92C1363.72,209.52,1365.67,208.94,1365.39,211Zm1.44,2.42c2-.52,4.43-.87,6.1-2.13.4-1.21.06-1.27-1.09-1-2.65,0-4.15,1.21-6.11,2.19,0,.57.64.69,1.1.92Zm241.36.46c-1.78-.4-3.45-1.21-5.24-1.5-1.49-1.15-1.32-.34-3-.34-1.9-.7-4.26.8-6.1,1.55-1.79-.06-6.34-.06-6.34-2.76a2.79,2.79,0,0,1,1.56-1.5c.63-1.67.28-2,2-2.59.87-1.21,2.42-5,4.21-2.77,1,.35,3.11-.4,2.93.52-2.82,1.33.46.75.52,2.54.52,1.26,3.74-.46,4.72-.75,2,0,2.19-.29,3.75.8,2.47,1,4.72,2.36,7.19,3.46,3.29,3.51-4.32,3.17-6.16,3.34Zm-59.13,4.32c-1.09-.92-.4-2.36-1-3.69,0-1.61,1.44-.06,1.38-1.44-.86-1.38-.57-3.34,1.38-2.88a14,14,0,0,1,.06,3.17c1.61,2.19,1,4.66-1.84,4.84Zm31.49.28c-.86-1.67,1.91-.86.64-.05C1581,218.39,1580.73,218.44,1580.55,218.44Zm-202,.12c.17,0,.35-.06.52-.06C1380.07,216.31,1378.11,217.12,1378.57,218.56Zm196.4,1c0-1.1,3.92-.46,1.84-.06C1576.24,219.48,1575.6,219.54,1575,219.54Zm60.46,2.76a6.53,6.53,0,0,1-2.54-1.49c-4.32-1.21-2.65-2.08-1.44-4.9.52-.52,1.73-.57,1.16-1.32a13.71,13.71,0,0,1-5.3-4.49c0-1.9.23-1.79-1.33-2.83,0-2.93,3.29-2.07,4.78-3.68,1.79-.75,8.87-2.88,7.2,1.15-1.61,1.09-3.17-.57-3.86,1.84-1.67.06-2,.46-.46,1.27,1,2,1.21,1.67,3.11,2.76.52.75-.69,2.08.69,2.08,1.5-1.85,1.9-.64,3,.46,2.87,1.38-2.42,1.09-2.94,1.49,0,1,.81,1,.81,1.85-1,1.49.46.63,1.2,1.55C1639.8,222.07,1639.51,221.78,1635.43,222.3ZM1586.08,225c-.86-1,.52-2,.52-.34A1,1,0,0,1,1586.08,225Zm-4,.81-2.65-.69c-1.49-1.5,6.28-.52,4.61.63-.63,0-1.27.06-2,.06Zm15.38.63c-3-1.38,1.66-1.84,2.82-1.84C1601,226,1598.29,226.33,1597.43,226.39Zm198.81,2.53c-.75-1.38,1.61-1.32.52-.34C1796.59,228.92,1796.64,228.92,1796.24,228.92Zm-6.85,1.56c-.29-.35-.12-.58.06-.92C1790.89,228.41,1790.48,230.31,1789.39,230.48Zm-219.77,3.74a11.21,11.21,0,0,0-5.53-1.67c-1.21-.52-1-1.44-1.61-2.24-2.6-.41-5.19-1-7.78-1.5-.57-1.67-2.42-.64-2.42-1.73.81-1.15,2.08-1.38,1.5-3.05-1.38-1.21,2-2.76-.86-2.48-1.73-1.15-2.94-.46-4.84.18-1.27-.12-2.36-.29-3.63-.29-2.76,1.09-5.12-.12-8.06.92-2.36.11-4.09,1.21-6.33,1.55-1.61.93-2.07,1.62-4.2.81-1.21.29-3.75.46-4.5-.81-.11-2.18,5-1.55,6-1.55.52-.4.87-.92,1.38-1.32.87-.29,3.34-2.19,3.34-3-1.2-1.9.35-2.3,1.62-3.91,1.49-.35,4-.75,4.78-2.19-1.1-4.49,3.74-1.73,5.93-1.73,2.88-1.55,4.83-3.8,7.83-1.5a5.71,5.71,0,0,0,2.88,3.17c2.53,1.67,7,2.59,8.63,5.3.41,4-8.17.92-6.85,3.39,1.38.7,5.76,3.46,5.76.58-.4-1.32.86-1,1.67-1.32,1.9-2,2.65-1.73.92-3.46,0-2.82,3.17.75,3.8-.52,0-1.9-3-2.13-4.38-2.76-.75-1.44-3-1.38-4.49-2.48-.34-.51-.75-1.44-1.15-2-4.43-1.79-.63-4.38.06-2.77,1.21,1.39,1.84-.11,2.7,2.19a31.3,31.3,0,0,0,3.69,2.48c2,.34,5.07.75,5.07,3.28-.69,2.42,2.13,2.88,2.41,4.78.81,1-.63,1.32.35,1.84,1.44,0,1.61,0,1.9,1.33,1.09.92,4.32,2.53,2.71-.18,0-1.09,1,.18,1-.92-1.26-1.49,2.54.06,1.38,1.44,0,1.1,1.39-.34,2.13.87,1,.28.52-1.67,2.08-1.9.46-.58.46-1-.41-1-1.09.63-3.16-.52-3.68-1.73-.12,0-5.07-.06-2.71-1.27.75-1-1.49-1.21-.4-1.9.63.12,3.17,1.67,3.22-.06-.34-.92,2.54-1.38,2.94.18,1.27,1.61-.52,1.9,1.33,3-3.4.69,1.2.87,1.26,2.54-.57,1.72.87,1.32,1.15,2.87,1.33,1.27.81-2.47,3.23-.51,2.65.92,2.24-.93,4-1,2,1.09,3.74,2,5.93.75,1.09-1.1,1.78-.41,3.28-.41-.17,2,.29,3.4-.75,5.13-2.76,3.39-1,5.18-6.39,4.78-2.53-1.16-3.68-.35-6.33.74-2.13,0-4.21-1.32-6.45-1.32-1.38.4-1-.06-1.9-.75-3.8-.34-6.33-3.11-10.08-.23-.63,1.44,1,2.3-1.15,3.28a6.29,6.29,0,0,1-1,.06Zm221.73,2c-.23-.23-.18-.52-.18-.81C1791.87,234.28,1792.44,235.83,1791.35,236.24Zm-5.88,6a1.29,1.29,0,0,0-.11-.46C1785.88,241.88,1786,242.17,1785.47,242.28Zm2.54.81c-1.1-.69.52-1.9,1-2.42a3.09,3.09,0,0,1,2.71-2.94c.63.75-2.42,2.77-2.42,3.86A4.72,4.72,0,0,1,1788,243.09Zm-5.24,2.59c-1.27-1.38,1.44-1.1.4-.06A.93.93,0,0,1,1782.77,245.68Zm-4.78.4a1.09,1.09,0,0,0-.06-.46C1778.45,245.56,1778.45,246,1778,246.08Zm-404.83.06c.29-.06.4-.06.58-.23C1373.91,244.12,1370.8,244.53,1373.16,246.14Zm262.9.11c-1.32-.51-.58-5-2-3.39-.4,2.36-1.55,1.95-1.49-.06,1-1.44-1.79-2.82-2.82-3.28-2.25-2.59-1.56-4.49,1.84-4.49,1.55.75,1.9,2.82,2.94,4l1.55.86c3,1.15,3.92,3.17,7.08,1.62,1.84,0-1.61,3.85-2.3,4.43-1.61.17-3.11.29-4.78.34Zm143.6.06c-.75-1,1.09-.92,1.61-.92C1781.33,246.43,1780.52,246.31,1779.66,246.31Zm-567.6,4.26c.57,0,.8-.11.52-.75C1212,249.82,1212,250.11,1212.06,250.57Zm561.44.29c-1.9-2.36-1.33-3.91.63-6.16,3.51-1.32,1.44,2.13,1.15,3.92-.23.57-.69.92-.75,1.49.58.92,0,.52-1,.75Zm-563,0c.41-.06.58.06.52-.4C1210.56,250.46,1210.62,250.46,1210.5,250.86Zm5,1.32c.18-.05.29-.11.46-.17C1216,250.52,1213.84,250.86,1215.45,252.18Zm102.9.12c.46-.06.46-.06.57-.17C1319,249.82,1316.62,250.4,1318.35,252.3Zm457.22,1.27c-.06-.12-.17-.23-.23-.35C1775.34,252.13,1777.07,253.39,1775.57,253.57Zm-558,0c2.08-.69,1.33-.92-.34-1.67C1215.86,252,1217.07,253.11,1217.58,253.57Zm162.32,1.49c.92-.11,4.95-.92,2.18-1.95-2.82-.41-4.95-2-7.08-3.69a7.58,7.58,0,0,0-2.76-.4c-2.65-1.56-6.51-1.38-9.16-.17-1.15.86-3.11,2.36,0,2,3.92-2.07,4.67-1.49,8.76.64,2,.11,1.78.34,3.28,1.55,2.3.69-.06,1.09,1.21,1.9a10.59,10.59,0,0,1,3.57.17Zm-160.24,1.27c.52-.06,1.61-.46,1.61-1.09C1219.08,252.3,1218.79,255.41,1219.66,256.33Zm554.47.17c-.4-.69.23-.86.87-.8C1774.76,256.33,1774.82,256.39,1774.13,256.5Zm-378.69,2c.12-.06.29-.12.41-.17C1395.85,257.14,1394.58,258.12,1395.44,258.52Zm2.88.17c4-.17.75-1.5-1.32-1.5C1395.85,257.94,1397.75,258.46,1398.32,258.69Zm3.4.29c.17,0,1.67-2.25.63-2.3C1401,258.06,1401.08,257,1401.72,259Zm-13.65,0c.46-.06,1.27-.12,1.33-.63,1.44-1,3.39-.29,4.95-.29,1.9-.75-2.54-2.82-3-3.17a25.49,25.49,0,0,0-6.91-.4c-.11,1.26,1.27.8.41,1.9.46,2.07-2.31-.81-2.42,1.32,1.9,1.38,3.51-.34,5.64,1.27Zm-11.17.46a2.59,2.59,0,0,1,1.61-.4c1.62-1.27-2.59-2.13-3.8-1.62-.63,1.27,1.39,1.62,2.19,2Zm28.62.06c.52,0,.46-1,.29-1.38C1404.48,257.65,1405.4,258.69,1405.52,259.5Zm1.73,1.21c.51-.23,1.09-.41.69-1C1407.76,258.06,1406.9,260.3,1407.25,260.71Zm.51,1.61h.46C1409.15,260,1407.53,260.94,1407.76,262.32Zm1.44,2.7c1.27-.4,0-1.26,0-2.18C1407.94,261.45,1408.51,264.45,1409.2,265Zm.29,1.79c.52-.12.4-.23.4-.75C1409.2,265.14,1408.63,266.58,1409.49,266.81Zm3,1.38c.4-.29.4-.23.4-.75C1412.37,266.52,1411.33,267.5,1412.49,268.19Zm-4.15,1.5c.11-.12.29-.23.4-.35C1409.78,267.39,1407,269,1408.34,269.69Zm-15,.17c.46-.06.46-.06.64-.17C1393.83,268.88,1392.39,268.88,1393.31,269.86Zm1.5.12a2.84,2.84,0,0,0,.29-.06C1395.1,268.82,1394,269.4,1394.81,270Zm3.34.51c.4,0,.75-.05,1.15-.05C1399.82,269.52,1397.4,269.57,1398.15,270.49Zm4.2.12c1.33-.12,1.21-.86-.4-.63C1402,270.44,1402.06,270.26,1402.35,270.61Zm-1.78,1.61c.51-.11.34-.23.34-.75C1400.28,271.47,1400,271.76,1400.57,272.22Zm-12.32,2.88c1.43-.34.74-2-.41-2C1387.55,273.83,1387.5,274.64,1388.25,275.1Zm378.68,2.3c-.11-2.3,3.63-3.62,4.38-5.93.35-.34,1.73-3.22,1.73-1.21-.58.64-1,.81-1,1.67,1,1-2,1.73-2.48,3.29C1768.66,275.39,1767.68,277.4,1766.93,277.4Zm6.11,3.69c-.46-.58.52-1.15.52-.17A1,1,0,0,1,1773,281.09Zm-80.09.69a3.22,3.22,0,0,0-.52-.23c-.87-1-2-7.31.4-7.37,1.67.63,3.63,5.07,2.48,6.51a6,6,0,0,1-2.36,1.09Zm81.47.12c-.92-.58.75-1.5.69-.18C1775,281.84,1775,281.84,1774.42,281.9Zm8.06.51c-1.38-1.15-2.65-.57-2.65-2.82.64-2-1.5-.34-2.47-.86-1.1,0-.7,3-1.73,1.84.11-2.07,1-4.2,3.63-4.2,1.78,1.21,5.18-2.59,2.36-2.65-1.44,1.61-1.73.11-2.77.81.12,2.3-3,.46-1.55-1,.11-1.33-.92-.41-1.44-.92.17-3.63-.52-2.31,2.42-2,.34.29.4.86.63,1.26,1.15.18,1.09.18,1.32,1.27,2.19.12.64-1.44,0-1.15.12-1,2.37-2.25-.11-3.05-.29.34-.12.57-.12,1-1.32,1.09-1.43-1.5-1.67-1.79-.28-1.61-1.2-.75-2.59-.75-.28-.28.18-.57-.17-.86-1.67,0,.75,2.76-1.32,2.94-2.19-2.25-.69-2.19-1-4.26-.86-.81-3.11-3.86-.81-3.92.58-2.25-.23-5.35,3.11-3.8,1.85,0,1-.17,1,1.5,1.44,2.41-2.53,3.8-1,5,2,0-1,1.15.58,1.55,1.78-.69,2.59,1.09,4,.35,2.07,0-1.55,2.7,2.19,2.7.8.41,1.49,2.71.86,3.17-1.5.06.17,2.59.29,1.78,1.67.41,2.13,5.13,1.27,6.4-.18,1.09-1.62-1.39-1.62.23.29,1,.69,2.07-.63,2.18Zm2.82,3.63c-1.15-.92-.11-2.82.58-1.84C1785.82,285,1786.17,285.93,1785.3,286Zm-2.07.81c-2.19-1.44.75-2,.4-.18C1783.52,286.73,1783.34,286.79,1783.23,286.85Zm-58.67,1.9c-2-.69-1.21-1.73.57-.64C1725.48,288.69,1725.08,288.69,1724.56,288.75Zm58.21.28c-.69-.4-.58-1.9.34-1.72A1.41,1.41,0,0,1,1782.77,289Zm-55.22,3.34c-2.24-2.3-.4-2.7.69-.8C1728.18,292.09,1728.18,292.26,1727.55,292.37Zm63.34,1c0-.34,0-.34.4-.34C1791.29,293.47,1791.29,293.41,1790.89,293.41Zm-49.75.75a4.51,4.51,0,0,1-.52-2C1741.77,291.4,1742.41,293.93,1741.14,294.16Zm-12.09.52c-1.21-1,.4-2.25.4-.52C1729.28,294.56,1729.28,294.56,1729.05,294.68Zm62.59.8a1.36,1.36,0,0,0-.12-.46C1792,295.08,1792.1,295.37,1791.64,295.48Zm11.51.23c-1.78-.8.35-1.49.63,0Zm17.1.06c-.06-.11-.06-.11-.29-.17C1819.85,293.7,1822.55,295.08,1820.25,295.77Zm10.88.12c-1.09-.75.69-1.79.69-.23A1.45,1.45,0,0,1,1831.13,295.89Zm-81.87.46c-.41-.41.29-1,.29,0Zm38.34.4c-1.43-.29-1-1.09-1.15-2.19-1.61-1.73.52-.69.64-2.13-1-2.65-.18-2.88,1.72-4.49,1.33,0,.41,1,.18,1.67.57.29.8,2.42.75,3.05-2.48.06-1.1.41-1.1,2-.46.4-1.15-.17-.8.81,1.15.63,1,1.26-.24,1.32Zm-6.62.4c-.63-.28-.92-.8-.11-1.15.17,0,5.76.4,3.86,1a22.58,22.58,0,0,0-3.75.17Zm44.17.18c-1.56-1,3.22-1.44,1.61-.35Zm-30.29,1c-.23-.46-.12-.8.4-.74C1795.38,298.19,1795.55,298.19,1794.86,298.3Zm46.29,1a1.49,1.49,0,0,0-.06-.51C1841.79,298.88,1841.79,299.17,1841.15,299.28Zm-108.53.12c-.35-1.5-4.09-2.65-3.11-4.49.52-.06,3.68,3.8,3.8,4.37C1733.08,299.34,1732.85,299.34,1732.62,299.4Zm16,.06c-1.67-1.27,1.16-1.67.58-.23C1748.91,299.46,1748.91,299.46,1748.62,299.46Zm39.68,1.09c-2.48-2.53,3.45-2,4.6-1.84C1795.78,300,1788.53,300.49,1788.3,300.55Zm-2.71,0c-1.27-.86.81-2.94,1.27-.63C1786.45,300.44,1786.17,300.44,1785.59,300.55Zm-6.85.46c-1.33-1.38.4-1.27.4-.23Zm-16.64.81c-1.79-1.33-2.94-3.34-5.53-2.25-3.11,0-3.92-1.32-5.12-3.57-1.9-1.32-1.1-2.19-2.31-3.68,0-3.52,3.34-1.73,5.24-3.69.52-1.32.64-1.15,2.13-1.21,2.48-.92,3-3.57,5.7-4.49,1.27-1,2.77-3.86,4-3.86a7.39,7.39,0,0,0,4.31,3.23c1,1.32-1.61.75-.74,2-.06,1-2.77.63-2.6,2.82.41.52.75,1.44,1.5,1,2.3,0-2.3,1,.17,1.9.29.63,1.9.92.46,1.72-2.3,0-2.18.87-2.18,3-1.21,1.32-1.79,1.55-2,3.34-.81,1.61.11,1.61.11,3.05-.92,1.21-1.55-1-2.36.57a3.84,3.84,0,0,1-.8.18Zm68.28.57c-1.26-.75,1.1-1.61,1-.34A6,6,0,0,1,1830.38,302.39Zm-51.47,1.33c-.06-.58-.06-.69.58-.69C1779.54,303.6,1779.49,303.66,1778.91,303.72Zm-42.38.34c-1.15-.75.69-1.67.58-.11A2.29,2.29,0,0,1,1736.53,304.06Zm34.15.29c-1.5-.46,0-1.9.4-2.65,0-1.84-2.88-3-.86-4.78.4-1.32.23-1.84,1.21-3.05.28-5.18,4.83-2.76,8.46-2.76.86-.69,2.82-2.77,2.88-.46-.52.63-1.56,1-1.73,1.78-1.84.29-10.42-1.32-8.52,2,1.9,1.09,1,.75,2.65-.29.11-.4-.46-.57.29-.8h1.44c0,1.38,2.7-.29,2.7,2.76-.75,1-1.78-.06-2.65-.06-1.72,1.1-1,1.15-.17,2.77,0,.23.23,5.23-1.38,3.16-.12-.63-1.61-5.24-2.65-3.05,1.09,2.76,1.44,4.95-2.07,5.47Zm27.06.58c-1.9-1.33,1.78-2.94.8-.52C1797.91,304.87,1797.91,304.87,1797.74,304.93Zm34.78.17c-.93-.12-1.62-.35-2.88-.52-1-.86-2-.06-2.31-.86-.34-.23-1.95,0-1.15-.81.35,0,1,0,1,.46,1.61-.29,3.74.75,4.84-.86,1.26-.17,1,1.38,2.42-.29,1.55-.81-.29-1.44,2.36-1.44,1-1.09-4.26-2.48-4.73-2.94,0-1.67,2.6.46,3.4.35.81-1.44.81.75,1.38,1,.46.74,1.67.8.58-.23-.12-.93,1.9.34.69.63-.11,1.38,2.07-.17,2.07,1.44-1.21.06-1.44-.46-2.07.8-.63.41-.58-.34-1.27-.23a4.45,4.45,0,0,1-4.31,3.46Zm-32,1.61c-1.32-1.09.29-4.43,1.44-3.28C1802.23,305.16,1802.34,306.14,1800.56,306.71Zm-11.34.17a1,1,0,0,0-.06-.4C1789.91,306.42,1789.91,306.83,1789.22,306.88Zm-2.36,1c-1.33-.52.4-1.32.28,0Zm5.06,1.27c-1.61-1.27,1.1-1.67.46-.12A1,1,0,0,1,1791.92,309.13Zm-4.09,0c-1.43-1.15.64-1.5.7-.35C1788.3,309,1788.3,309,1787.83,309.13Zm6.51.34c-1.32-1.43,2.77-4.2,2.65-2.3C1795.9,307.81,1795.44,308.9,1794.34,309.47Zm-29.82.47c-1-.35-.29-1.16.46-1.1C1764.92,309.3,1765,309.76,1764.52,309.94Zm82.79.28c-1-.75-3-1.26-1.78-2.82,1.26,0,2.07.75.29-.63-2.6-.86-2.13.8-4-2.36-1-3.51,2,.63,3.05,1.21.87.17,3.4,1.21,3.4,2.07-.46,1.15.64,1.38.75,2.48a9.1,9.1,0,0,0-1.73.05Zm-86.65,0a18.48,18.48,0,0,0-6.62-.75c-2.25-.63-2.82-1.15-5.36-1.09-1.15-.23-2.3-.46-3.45-.75-1.15-1.09-2-.57-3-1.55,0-1,.41-.64,1.15-.75.47-.81-1.38-.4-1.9-.4-1.2-.93-5.7-4.09-6.21-5.47-2.19-2.08-2.31-5.13-4.9-6.63-1.09-1.9-1-4.31-3.74-3.22-1.73,0,.29-1.21.35-1.78a2.44,2.44,0,0,0-2-1.44c-.12-.06-4.78-4.55-2-4.67a6.07,6.07,0,0,0,4.32,1.15c1.32,1.16,1.9,2.42,3.57,3.23,1.44,1.26,1.55,2.24,3.63,2.42,2.19.69,2.93,2.7,5.06,3.68.93,1-.4,2.3,1.21,2.59,1.21,1.5,0,2.65,2.36,1.15.81-.23.93-.28,1.44.29.35,1.27,3.17,3,.06,3.23-.57.8-.52,4-.57,4.83a24.74,24.74,0,0,1,4.6.41c2.13,1.32,3.11,1.38,5.59.8,1.78,0,2.36,1.21,4.08.46,1,0,3.29.75,1.16,1.21.11.75,4.14.58,4.14,2.36-.46.46-1,0-1.49-.23-.64.41-.75.81-1.5.92Zm5.64.64a.93.93,0,0,1,.58-1.73c1.26.81,2.3-.63,3.45-.63C1771.89,310.51,1767.57,310.68,1766.3,310.86Zm71.45.34c-1.09-1.38.64-1.78.58-.23A.68.68,0,0,1,1837.75,311.2Zm28.68,1v-.46h.46v.46Zm-13.3.29c-1.67-.23-1.27-1.5-2.36-1.61-.12-1.85.46-1.21-1.61-2.88-.47-1.1,1.2-.29,1.55-.06.86,1,3.51,1.55.63,2,.58,1.61,1.21.69,2.25.4.29-.52-.17-.87,0-1.38,1.32,0,1.38,2.07,3,2.24,1.44,2.19-3.11-1.26-2.53.46.06.87-.17.75-.92.81Zm-77.5,1.15c-.75-.35.46-1.38.4-.17A2.66,2.66,0,0,1,1775.63,313.62Zm56.71.23a8.88,8.88,0,0,0-4-1c-2.82-1-4.09-5.58-7.54-4.26-.75.63-1,1.5-1.79,2.19-2.59,1.5-4.83.46-6.67-1.38-1.21-.58-7.49,1.61-4.38-2,.52-.29.86-.46,1-1.09-1.5-4.09-4.73-3.57-7.72-5.13-.75-.17-1.55-.8-2-.11-1.85.8-1.79-1.56-3.11-2.19-.46-1.38,1.32-1.33-.87-2.65-2.59-.4-1.49-1.84-3-2.71,0-1.84,3.92-.17,2,.35,0,1,2-.35,2.47-.52a10.5,10.5,0,0,1,4.15,1.27c0,.63-.69,3.11.8,2.93.29,3.11,3.23.29,3-.69-1-.29-3.86-.86-3.46-2.47,1.79-.64,1.85-.69,3.69.4,0,2.19,1.61.63,3,.63a24.13,24.13,0,0,1,2.88,1.73c3,.23,12.67,2.48,13.13,6,.74.63,5.75,1.38,3.51,3-2,.41.29,1.62.92,2.25a2.46,2.46,0,0,0,2.3,1.9c1.27,1.38.81.29,2.31.29.8.23,2.24,1.26.74,1.55-2.93-.92,1.1.58.23,1.33.06.57-1.09.34-1.61.34Zm-54.47,0c-.57-.58,1.67-3,2.31-3.45.86-.29,2.13.11,1.26-1-1.09-.52-3.51,0-4.49.63-.86.23-6.1.29-3.91,1.27.4.92.86.4.46,1.61-.81,1-6-1.9-2-2,1.27-.46-.92-2.07,2.36-2.07,2.82.75,4.38-.52,7.32-.52,2.3.35,2.07-.86,4.2-.92,2.3.69-3.92,1-.63,1.61,1.2,0,1.49-.11,1.9-.06,1.15,1.33-4.21,2.6-4.73,3-1,1.15-2.47,1.5-4,1.84Zm78.43.35c-.52-.29-1.33-.64-1.16-1.33C1856.18,312.87,1858.71,314,1856.3,314.2Zm8.06.28c-.58-.57,0-.86.57-.86C1864.93,314.2,1864.87,314.2,1864.36,314.48Zm-25.28,1c-.4-.23-2.48-1.95-2.07-2.3.86.11.86.17,1.09.92C1838.45,314.31,1840.4,315.29,1839.08,315.46Zm1.67.18c-.23-.12-.23-.23-.23-.46C1841.15,314.31,1841.56,315.52,1840.75,315.64Zm12.67.8c-.35-.29-.69-.52-1.1-.8C1850.65,313.39,1856.53,316.15,1853.42,316.44Zm14,3.51c-1.21-1.55,1-1.09.29-.05C1867.64,319.9,1867.52,320,1867.41,320Zm-86,1.44c-.28-.51,0-.8.52-.75C1782.42,321.16,1781.85,321.34,1781.44,321.39Zm87.18,2.19c-.23-.63-1.1-.63-.46-1.27C1869,320.41,1869.6,323.58,1868.62,323.58Zm-1.85.29a4.58,4.58,0,0,1-1-1.56C1865.8,321,1869.31,323.18,1866.77,323.87Zm2.42,1.78c-.63-1.38-2.07.46-1.84-1.55.4.17,1,.63,1.27.17C1868.73,322.66,1870.92,325.48,1869.19,325.65Zm16.41,1.1c-.57-.64.58-2.19,1.56-1.61.86,0,2-1.44,2,.51-.86,1.16-2-.92-2.7.64-.58.4-.58.4-.87.46Zm-16.29.8v-.46C1869.71,327.21,1869.88,327.55,1869.31,327.55Zm17.33,1.5c-.4-.69.17-.8.4-1.44,0-2.19,1.67-.34,3-1.26.74-1.5,1.26,1.78-.06,1.72C1888.94,326.92,1888.14,328.88,1886.64,329.05Zm1.27,1c-1-.41.86-1.79,1-.52A5.59,5.59,0,0,1,1887.91,330.09Zm-16.64,1.26c-1.1-.69-.58-3.45.23-2.13C1871.55,329.86,1872.13,331.18,1871.27,331.35Zm-11.52.06c-.75-.29-.17-1.21.35-.63C1860,331.18,1860.21,331.41,1859.75,331.41Zm5.53,2.07c-.12-2.53,2.07-1.2.52-.05A1.87,1.87,0,0,1,1865.28,333.48Zm-103.18.12c-1.21-.63,1-1.9.34-.17Zm106.75,1.73a1.28,1.28,0,0,1-.69-.92c-2.94-.12-.46-3.17-.23-.23C1868.79,334.18,1870.23,335,1868.85,335.33Zm-2.71,1.44c-2.48-1.27-4.32-2-5.47-4.72-.06,0-.11-.06-.23-.06-.69-2,3.51,1.9,3.92,2.36.69.34,3.85,1.84,1.78,2.42Zm-243.84,5.75c-2.36-1-3.17-1.49-3.17-4-1.78-3.85,1.38-4.54,1.38-8.06-.69-1.9-1.09-3.91,0-5.81,1.38-1.1,3.39-.69,4.49-2.08,2.24-.92,2.24-.8,2.82-3.1,2.07-.58,1.55-1.16,2.19-2.94,1.49-1.21,2.36,3.91,2.42,4.38,1.26,3-1.33,1.26-1,3.62a1.93,1.93,0,0,1,.34,1.1c-2.59,4.66-3.22,10.59-5.24,15.54a15.63,15.63,0,0,1-4.14,1.38Zm136.52.93c-2.65-2.19,1.44-2.54.69-.12A3.91,3.91,0,0,1,1758.82,343.45Zm-343.46,16.46c.58,0-.4-1-.4-.17A.61.61,0,0,0,1415.36,359.91Zm155.87.46c1.49-.17,3.11-1,4.66-1.21,2.53-.8,4.72.41,7-.92,5.64-.34,13-8,14.91-12.84,0-3.39,0-3.57,3.63-4.49,2.59-1.61,1.78-5.93.23-8-1.16-3.11,2.18-2.71,3.74-4.38a6.41,6.41,0,0,1,2.7-2.36c2.42-.52,5.53-2.19,5.53-5-1.09-2.42-.4-5.24-.75-7.77-1.44-1.61-2.65-3.34-2.13-5.64a4.59,4.59,0,0,0-.92-2.88c-.63-1.9,1.44-3.86,2.36-5.36a5.79,5.79,0,0,1,2.42-2.7,39.88,39.88,0,0,1,10.19-8.93c.87-1.26,2.54-2.47,3.57-3.85,2-3.46,4.72-6.63,5.7-10.48a3,3,0,0,0,.75-.69c0-5.65-1.9-1.9-5.58-2-.18.92-1.85.58-2.42.46a9.17,9.17,0,0,1-2.48.81c-1.21-.81-2.65,1-4,.34-.81-.8-2.65-1.84-2.65-2.93,1.38-2.36-4.43-5.36-6-5.93-1.15-1.21-1.09-2.6-1.67-4.15-1.09-1.79-2.59-2.3-3.57-4.32-.34-4,.47-3.8-2.59-6.1-1.9-2.3-2.7-5.64-4.26-8.24-.69-2.18.12-1.67,2.08-1.67,1.84.93,3.11,3.86,4.14,5.59,1.33,2.71,3.74,2.82,3.92,6.33a6,6,0,0,0,3.57,4.21c.86.8,1,2.47,1.84,3.51,2.07,1.27,2.13,3.51,2.24,5.64,1.1,2.94-.23,5.59,4.84,4.09,2.48-2.19,6.1-1.32,8.58-3.51,1.73-.52,5.59-.92,5.82-2.82,1.55-2,3.57-1,5.41-2.13.8-1.62,1.55-.7,2.7-1.56.93-1.73,1.5-1.21,2.94-2.24.52-2.31,2.19-3.57,3.57-5.53.81-3.57-4.61-3.11-6-4.72,0-.46-.86-4.72.46-3.86.75,3,4.9,1.84,7.26,1.84,2,.86,9.21.58,11.86.58.34.28.34.28,1.61,2.3,1,.58,4.09,1.61,4.15,2.88-2.25.81,1,2.24,2,3.11,1.5.57,5.76-1.73,4.5,1.5a4.13,4.13,0,0,0,.57,2.18,16.92,16.92,0,0,0,3.46,9.5,7.31,7.31,0,0,0,2.3,5.24,12.18,12.18,0,0,0,2.07,5.36c2,1.15,2.25,0,3.63-.87,3.05-.46,2.76-2.59,2.36-5a12.11,12.11,0,0,0,1-3.74c-.81-2.88-.52-3.86,2.18-5.47,2.13-.29,2-1,3.57-2.53,4.15-2.42,8-5.41,12.21-7.89l3.17-.34c1.67-1.62,2.07.86,2.36,1.95.69,1,3.45,2.54,3.45,3.52,1.33,1.95,1.38,2.87.75,5.12,0,2.59,4.2.75,5.3-.23,2-3.17,1.61,4.26,1.61,4.66.75,1.56.52,1.56.12,3.05,1,1.67-.52.58-.41,1.73,1.61.23.52,3.69,1.44,5.07.29,2,.87,2.65,2.82,3.68.23.64-.69,1.1,0,1.73,1.67.23,2.93,5.36,3.57,6.85a16,16,0,0,1,4.49,3.11c4.08,0,0-3.11,0-5.24.75-2.76-1.85-4.37-3.69-6.16-2.88-.75-2-1-2.82-3.68,0-1.38.75-1.85-1.44-1.33-1.15-.4-.17-2.13.17-2.82.69-.57,1.27-5.81,2.42-3.74-.06,1.44,1.67.52,2.71,1.5,1,1.78,3,2,3.28,4,.63.57,1.55-.35,2.13.86,0,2.42-.81,3.4,2.3,1.21a9.62,9.62,0,0,1,2.82-2.36c3.63-1.27,5.36-5.07,3.4-8.47-.69-3.22-3.22-3.57-5.07-6-.63-2.3-3.1-2.71.47-4.67a2.29,2.29,0,0,1,.92-1.15c1.38-.4,1.67-2.3,3.8-1,4,.41-.35,3.17-1,3.8-.06,3.4,3.46,2.88,4.49.23.92-1.09.4-1.2-.34-2.07.46-2.88,3.28-1.9,5.58-3,1.61-1.73,3.28-1.44,5.53-1.44,1.09-.75,2.13-2.24,3.28-3.17,4-1.26,4.26-4.66,7.26-7.19a20.32,20.32,0,0,0,1.38-3.92c-.58-.34-1.85.35-1.79-.52,1.67-1.21,1.1-1.32,1.1-3.05-2-1.67-1.5-4-4-5.18-1.16-.86.28-1.78,1-2.71.92-.46,4.9-1.44,4.9-2.41-.18-.41-3.34-1.16-4-1.16-.8.23-3.11,2.31-2.76.18-.4-1.27-4.38-.87-2.59-2.31,2.82,0,4.78-4.66,7.77-3.45.17,1-.52,1.44-1.21,2.19,0,.86.23.86-.52,1.44.23,1.32,2.94-.87,3.86-1.21,2.94-.81,4.44-1.56,4.44,1.84-.41.23-2.31,1.38-.7,1.38.81-.46,1-.11,1.85.35,2.53,0,1.72,1.72,1.72,3.28-.51,1-2.82,4.43.18,2.82,2-.23,2.7-1.15,4.78-1.15,3.16-3.4-3.46-7.08-2.6-9a35.8,35.8,0,0,0,3.52-2.08c.57-1.78.75-1.9,2.7-2.53,1.44-1.84,1.9-1.61,4-.81a7.82,7.82,0,0,0,3.57-1,14.4,14.4,0,0,0,1.72-2c2.36-2.25,4.55-2.82,6.34-5.87,2-1.21,3-2,3.11-4.32.8-1.5.51-2.71,1.44-4.2,2.76-2.48,2,3.8,1.61,5,0,1.26,1.21,7.94-1.56,6.62-1.72.11,1,1.38,1,1.38,0,3.11-1.78,2-3,3.45-.41.35-3,1.5-1.56,2,2.48-1.21.69,4,.92,4.55,0,1.09-1.78,4.55-2.47,2.48-.75-.81-1.33.74-.12,1.15a2.73,2.73,0,0,1-2.18,1.21c0-.93-.23-1.62-1.27-.64-.4.81-1.79,3.63-2.76,3.34-3.29.12-3.86.17-5.07.17a25.82,25.82,0,0,1-3.92,2.08,3.61,3.61,0,0,1-2.82,1.78c-1.15.81.23,1.9.81,2.59.52,1.39.23,1.79,1.61,2.54-.06,1.44-1.15.34-.81,1.49,2.59-.23,1.33-.17,1.85-1.84,1.15-.86.74-3.11,2.18-3.34,1.16,1.15,1.67-.29,2.65-.8,2.08.4,1.85-2.25,3.4-.35,1.32.63,2.07-.86,3.17-1.32,1.55-1.56,4,.05,5-1.62.75-.17,1.78,1.73,2.47-.46.87-1.26.29-2.18,1.1-3.68,0-.75-.35-1.5.23-2,4.6-1.61-1.73-7.42.4-8.12,1.5,0,2.88,1.62,4.26.52,1.21-2.07,3.92-.92,5.59-2.59,3.16-.57-2.25-3.68-.81-1.26,1.56.51.12,1-.63,1.38-1.38-.46.57-1.56-1.27-1.62-1.73.81-6.79-2.41-5.35-3,.11-.23.17-.52.28-.75,1.1-1.49,1.67.69,2.42.12.81-2.36-3.57-2.54-.57-5.76,1.15-.4,3,1.67,3,.63a21.18,21.18,0,0,1-3.11-6.5c.46-1.21.11-4.49-1.56-4.49-.34.17-.4.4-.4.8.64,1.15.06,1-1.09,1-.23.46-.18,3.46-1.27,1.79,0-3.29-3.91-3.52-6.39-2.31-.92.06-.75-1.55-1.21-1.61-.86-1.27-3.17,1-3.17-.4a8.68,8.68,0,0,0,4-2.48c1.67-.8,2.88-1.67,4.6-2.59,1.79-.4,3.28-2.19,5-3,3.63-.12,7.2-.06,10.83,0,1.32.4,1.78.17,2.94-.64,1.9,0,2.64.06,3.51,1.56,1.38,0,10.19.46,6.85-2.13-.06-.52,3.22-2.08,4-2.48,1.27-2.36,4.67-.63,6.68-1,.29.29.17,1.44.17,1.84,1.62.7,3.92-1.61,5.94-1.72,1.32-.41.4-1.79,2-1.79.52.52.06,1.61-.11,2.19-1.33,1-3.57,1.38-5.13,2.42-2.47,1.15-4.43,3.11-7.08,4-2.82.17-1.78,1.44-4.14,2.54-1.1,2.76-.12,4.95.69,7.77.69.86-.18,1.84.51,2.93-.23,1.67-2.24-1-1.95,1-.69,2.42,1.21.35,2.88-.23,2.41-1.55,2.41-1.26,3.28-4,.92-1.49,2.93.75,3.16-2.07,1.62-2.07,4.21-.4,5.42-3.22,1.26-.47,1.9-1.5.8-2.54-.52-1.38,1.38-2.3-.92-2.3-.92-.46,1-1.44,1.38-1.61,1.5-2.08.52-1.73,3.57-1.73,2.19-.92,1.85.52,4.09-.81.86-1.26,4.84-.34,5.76.69.63,0,.63,0,.81-.11.69-1.33,1.72-1.27,3.16-1.61,2.77-2,5.7-2.08,8.87-3,2.36-1.16,6,2.24,5.18-1.62-1-1.9-2.71-2.65.17-2.82,1.21-.52,1.27-4.78,2.88-1.9,1.73.81,3.8-.17,5.53.64.69,1.72,3.4,1.55,4.89,1.72,2,1.27.87-1.84,2.54-2.53a19.76,19.76,0,0,0,4.14,0c2.42-1.56-1-1.27-2.24-2.36-1.21-.46-2.82-.4-4.15-.75-2,.92-2.3,2.13-3.4-.58-1.66-1.38-4.89-1.32-7.08-2.3a39,39,0,0,0-11.69-2.07c-2.47-.35-5-.35-7.37-.52-2.82-1-.63,1.5-1.67,2.53-.8,0-2.53.12-2.53-.86,2.3-1.44.12-1.67-.75-.4-.86.11-1.21-.69-2.13-.69a11.4,11.4,0,0,1-6.62,0l-4.78.34c-2.88.92-3.51-1.9-6-2.7-2.77-.12-5.47-.24-8.24-.12-1.55.58-9,0-9.79-2a13.38,13.38,0,0,0-5.24-.57c-3.85-.81-8.17.05-12-1.16-3.74-.23,3.57-.11,4.09-.11,2.42-.86-5.13-2.48-6.57-1.73.23,1.1-.57.35-.57,1.5a4.05,4.05,0,0,0,1.67.06c-.06.63-1.56,1.49-2,2.07-.23,1.32-1.09.86-2.47.86-1.67,1.1-3.34-.11-5.36-.17-2.13.81-2.94.52-4.95-.46-2.13,0-3,2.19-5,2.19-2.36-.75-2-2.07-4.61-2.07-2.3-1.1-.34-1.1,1-1.9-.06-1-2.53-1.5-3.51-1.33-1.9,1.5-4.49-1.73-6.91.35a12.49,12.49,0,0,1-10.54-.29c-1.26-.06-2.47-.06-3.74-.12-2.76-1.09-6.45,2-7-1.67-.74-.05-1,.06-1.84.06,0-1.27,4.78-.52,2.71-2.53-1.15-.46-.17-2-1.79-1-1.55-.4-.57-.92-2.24-.46-2-1-4.55-.63-6.68-.63-.58.4-1.61,1.43-1.73.34,1-1.38.81-1.5-.75-1.38-.23-.87.58-.69,1.27-.87,2.3-1.38-5-1.78-3.4-.28.64.17,1.61-.06,1.61.69-1.38,0-6.67,0-2.87-1.44-.12-.92-2.19-1.79-3.23-1.79-3.68,1.27-.75-1.84-4.83.75a4.86,4.86,0,0,0-3.11,1c-1.21,2.3,3.85.57,4.54.46a11.63,11.63,0,0,0,4,.11c3.4,0-4.49,1.5-5.23,1.79-1.33,1-1.39.92-3.17,1.09-1.67-.34-3.46.87-5.18,1.39-2.88,0-6-1.27-8.7.11-2.53.29-6.73-.17-8.69,1.09-1,0-2.19-.63-2.77.29,0,2.36-3.22-.75-3.16,1.44.8,1.1-1.5,1.33-2.25,1.33-.46-1.1-3.34-1.62-4.14-.87,0,2.82-5.07-1.49-3.46,3.51-.46.29-2-.11-2.53-.17-1-.52.4-.92-.17-1.55-1-.06-3,3.57-3,1.21-.63-.81-1.21-.12-2.07.28-1.33,1.56-2.76,1.1-3-.86.57-.4,2.07-1,2.13,0,1.61,0,1.15-.4-.06-.75-.52-1.61-3,.17-4.38.23-.69.69.35.75.87.81,2.7,1.5-3.74,1.09-2.54,3.22,1.27,1,1.67.92,1.27,2.48,0,1.84,1.27,1.38,1.15,2.65.92,2.88-2.7,2.3-4.37,4-3.63,0-.18-1.84,1.26-2.19,1.67-1.26-1.21-3.8-.28-6-.23-1.16-2-1-.87-2.19,4.38-2.77-3.34-1.84-3.86-2.48,0-1.26-.34-.52-1.09-.06-1.78.35-2.25,1.21-3.28,2.6-1,.51-2.88.23-3.34,1.49,0,4.38,1,1.79,3.68,3.92,1.62.23,1.1,1.09-.11,1.09a32,32,0,0,0-5.24-1.55,27.41,27.41,0,0,0-9.85-1.61c-3,1.09,1.27,1.84-2.24,2.53-1.44-.92-.69-1.9-2.54-.46a38.77,38.77,0,0,1-5.87.46c-.52.23-2.7,1.21-2.94.46.18-.29,1.56-1.27.52-1.27-3.28.75-6.39,1-9.44,2.19-1.44,0-3.22.17-3.8,1.56-.92.63-3.28.46-4.32-.12-.17-1.27,1.79-.23,2.48-.92,0-2.42-3.28-1.73-4.78-1.73-.69-.29-2.48-1-1.73.46,1.33.92.75,2.48.75,3.92-.35.17-2.42-1-3.22-.75-1.44,1.15-4.44.86-4.73,2.59,2.25,4-8.29-1.84-5.64,1.21,2.88,2.07-.52,2-2.07,1-2.71-.58-2-.35-2-3-.92-1.73,3-.64,4.09-.41h5.7c1-.46,4.55-1.84,2.48-3.16-4-1.33-8-2.31-12-3.34-2.3,0-2.65.34-4.32-1-2.18,0-2.53.11-3.62.11a8.24,8.24,0,0,0-9.45-1.72h-.75c-.17-1.1-.92-.69-1.9-.52-1.26,1.26-2.64.63-4.26.63-2.65.92-5.41.81-8.23.81-.63.29-.29.92-.86,1.26-1.5-.69-4.09,1.27-1.85,1.27.29,1.9-1.9.63-2.64,1.56-.41,2.47-2.77,1.43-4.67,2.13-2.88.4.52,2.93-3.22,3-1.38,1.38-1.21,1.5-3.17,1.5-1.09.57-2.3,2.65-3.4,1.84-.63,0-1.44,1.21-1.78.46-.58,0-.06.81-.64,1.15-2.13.12-2.76,1-4.77,1.1-2.31.86-.23,1.95-.18,1.49,2.88,0,1,.52-.52.58-1.49,1.44,2.14,1.84,2.54,2,.23,1.15-1.67.46-2.3,1.32,0,3.34,5,3.8,7.25,2.25,1.21-.7,2.76-.64,3.51-1.56,1.44-.63,1.9,2.88,2.25,3.57,1.44,1.73,2.88,2.3-.18,2.42-1.15.69-1.15,2.42-2.82.75,0-1.15,1.5-.29,1.5-1.44-1.55-.92-.06-1.56-.46-1.84-.92-1.62-2.36.34-3.86.34-2.82,1.38-.23,4-.06,6.1-1,1.56-3.16.06-4.83.87-3.28.46-3.4,1.67-5.47,3.8-.87,1.61-6,1.61-3.74-.81,1-2.93-2.25-1.26-2.88-2-.29-2.59-1.85-2.36-3.46-4-1-1.73-1.38-1.21-3.39-1.21-1.16-.8,1.26-.92,1.78-1.38,1.5-2.88,1.09-2.53-2.36-2.59,0-.92,2.94-2.3.46-2.3-2.36,1.21-4.55-.29-4.49,3.16a2.62,2.62,0,0,1-2-1.09c2.13-1.9-3.4-.63-2.13,1.73,1.33,0,.4-1.79,1.79-.46,2.24.51-.7,1.32,1.9,1.78.28,2-1.67,2.19-3.06,1.67-2.87,0-2.64,2.48-5.52,1.79-1.62.23-.41,2.13.4,2.7.46,1.1-.92,1.33-1.5,1.84-.17,3,5.13.81,6.51.46,2.07,0,2,0,2.94-1.84,0-1.15-2.13-1.55.05-2.24,1-.81-.11-2.42.81-2.19.34,1,.46,1,1.61,1.09,2.48-.63,1.56.69,3.34,1.15,1,1.62-3.91.18-3.74,2.42,2.65,1-2.42,1-.75,2.13,3.22.23,1.61.75,0,2.19-2.53,1.27-.12,1.1,1.15.63,2,.12,2.71-.63,5-.46l5.36-.51c1.21-.47,2.53-.75,1.55,1-2.65.75-3,2.31-5.7.69-2.7,0-.23,3.17-3.11,1.79-1.26,0-4-.35-3.68,1.55a2.77,2.77,0,0,1,.86.81,4.19,4.19,0,0,1,2.65.92c.75-.46,2.13,1.38,3.28,1.78.92.87.06,3.46-.11,4.55-1.33,1.67-4.49.92-6.57.92-.8-.23-6.62-.86-6.85-.34-2.24,1.27-2.47.75-1.27,3.68a6,6,0,0,1-.63,4c-2.3,2.71.92,1.73.92,3.52-1.84,3.57,2.82.17,4.21,2.42,4.14,2.64-3.34,6.21-5.42,7.48-.51.92-1.72,3.63-1,4.72,0,1.1-1.78,2.36-2.59,2.94-.86,1.21-2.82.92-4.08,1.55-1.33,2.13-3.46,3.51-3.63,6a.43.43,0,0,0-.12.23c-2,1.55-2,1.32-2.88,3.74-1,1.27-2.41,2.76-1.09,4.38,1.79,1,1.38,3.28,1.5,5.12-.29,1.27-.92,2.19-1,3.51-.81,2-2.53,2.31-.34,3.75.28.69.17,1.55.57,2.07,1.84.46.52.69-.11,1.27a6.85,6.85,0,0,0,1.44,2.41c3.74,0,5,3.63,5.75,6.34a5.2,5.2,0,0,1,1.79,1.55,47.78,47.78,0,0,1,7,4.61c3.56,1.27,5-.46,8.63-.81,1.9,0,3.4.64,5.07.64,4.09-1.85,12.9-5.93,14.91.23,1,1.44,2.36.69,4,.51,6.16-2.24,4.78,5.53,3.11,8.7-1.21,4.78,5.07,6.27,5.88,10.42.17.29.4.58.57.92.23,2.19,2.65,3.63,1.21,5.64,0,2.25,2.3,3.57,1.1,6.16-2.25,2.54-2.25,2-2.83,5.88-2.3,3.74-.34,6.33,1.9,9.38.64,1.85,1.85,3.17,2.71,4.9.12,3.57.46,7.25,2.36,10.36,1.44,1.33,5.24,6.45,5.24,8.29-.75,1.38-.69,1.44.12,2.82,0,1.5.86,1.1,2.59,1.9Zm236.24,1.27c-.35-.46.52-2.42,1-1.44A1.68,1.68,0,0,1,1807.47,361.64Zm75.31,1.44c.63,0,.52-.58-.11-.63C1882.72,362.68,1882.72,362.91,1882.78,363.08Zm-58.33,5.7c1.21-.29,2.48-1.67,3.46-2.42,1.15-.06,3.28.17,4-.75,0-3.8,2.25-7,4.9-9.61.69-.18,1.26-2.65,1.44-3.23,0-2.59,1.55-4.66.74-7.25-1.78-1.15.81-5.41-1-4.84-.69,1-3.74-2.3-4.21-2.93,0-.93.12-1.44-.8-2-2.07,0-3.17-3.74-5.13-4.67-1.15-1.15-2.64-.74-3.34-2.41-.17-2.65-1.72-4.21-1.84-7-1.55-3.23-3.57.63-3.74-3.69-.4-1.26-1.21-3.62-2.36-4.37-1,.06-1.56,3.45-1.56,4.2-.28,1.5.29,10.19-3.51,8.81-.92-.92-.92-2.07-2.24-1.32-1.5,0-4.55-2.48-5.82-3.34-1.61-2.71,3.51-.18,1.38-2.19-.17-.46-.11-1,.52-1.15,1.61-2.71-1.67-1.9-.23-3.63.81-2.88-2.48.06-1.73.69.18,2.25-6.33-1.38-7.08-1.38-1.38.46-1,.69-.23,1.5.06.92-1.67.46-2.07-.06,1.09-2.65-3.63-.69-2,.46,2.13,0,1.79-.4.35,2.3-1.56.81-1.38,1.1-1.67,2.82-1.27,1.27-2.82-.51-3.63-1.32-4-1.44-4,2.82-6.56,2-.64,0-.75.23-.46.86,1.61.69.11,1-.87,1.32-.4,1.21-.34,1.27-1.32.52-2.36-.05-1,2.88-2.53,3.63-1.44,2-2.37,2.94-5.13,2.94-1.5.46-2.94,1.72-4.49,1.26-1.44.18-4,1.9-5.12,2.94-2,.23-1.39,4.09-2.37,5.53a1.49,1.49,0,0,0-.8.4c-.46,1.27,2.88,6.91,3.74,8.18.17.92.4,1.78.58,2.7,1.49,2.36,1.84,3.69,0,5.88,0,2.64,4.78,3.1,6.62,2.59,3.86-2.48,6.16-2,10.48-2,1-.63,1.44-1.56,2.7-2.19a18,18,0,0,1,5.7-1.09c2.36-1.1,4.5-1.15,7.09-1.38,3.57,1.72,5.75.69,7.83,4.72.46,3.68,2.76.28,4.49-.87,1.32-.34-1.27,2.59-1.27,3.05a7.67,7.67,0,0,0,2.07,1.5c2.25,0,1.79-1.32,3.34.87,0,4.26,5.13,3.51,7.89,4.83a6.26,6.26,0,0,0,2.19-.63A4.29,4.29,0,0,1,1824.45,368.78Zm2,.52c.11,0,.23-.06.4-.06C1827.56,368.66,1825.49,368.32,1826.47,369.3Zm-6.56,1.5c.8-.18.69-.7.69-1.39C1820,368.72,1819.21,370.51,1819.91,370.8Zm-438.34,6.85h.57C1382.26,376.32,1381.11,376.78,1381.57,377.65Zm442.83.05c-1.9-1.26-5.59-8.57,0-5.35.75,0,3.16-.52,3.51-1,0-.4-.17-1.09-.17-1.44,2.07-1.32,1.44,4.55,1.38,5-.64,1,0,1.9-1.56,1.9-1.09.92-1.72.81-3.16.86Zm-439.9,1.39c.58-.41,1.67-5.13,1-5.7-1.79-.12.23,2.53-1.5,3.05C1383.47,377,1383.81,378.74,1384.5,379.09Zm.06,1.44c.12,0,.29-.06.4-.06C1385,379.66,1384.5,379.49,1384.56,380.53Zm485.55,2.87c-4.54-1.2-7.31-.69-1.95-5a1.52,1.52,0,0,1,.4-.47,12.49,12.49,0,0,0,7.43-5.18c.23-1.72,1.26-2.07,2.59-.92.4,0,.86-1.15,1.21-.29,1,.46,2.59,1.56,2.47-.69-.86-.8-3.68-1.09-2.36-2.59,4-1.73-1-6.1-2.3-8.35.4-1,4.2,1.15,4.2,2.71.69,2.42,1,.06,2.07,1.32.7,1.39.87,2,2.48,2.13,5.07-1.95,3.17,2.19.75,2.88-.63.41-.52.75-.63,1.38-1.56,2.13-2.48,3.46-5.13,2.65-1.27,1.33-1.55,2.42-3.17,3.63,0,.17,0,.17.35.81,0,.92-1.55.46-2.36.8-2.53,2-2.07,4.95-6.05,5.18ZM1381.05,390c.52-.12.46-.23.75-.63,2.93-1.44.34-2.88.28-2A3.19,3.19,0,0,0,1381.05,390Zm1,2.82c.81-.17.81-1,0-.52A1.84,1.84,0,0,0,1382.08,392.79Zm1.73,2.88c.4-.06.4-.17.4-.58C1383.64,394.4,1383.06,395.27,1383.81,395.67Zm1.5,1.27c1.73-.52-.58-1.44-.58-.23C1385,396.76,1385.19,396.76,1385.31,396.94Zm4.26.11c1.44-.34,2-3-.69-1.67C1387.44,396.76,1388.36,396.24,1389.57,397.05Zm13.07,2c.29-.12.63-.17.92-.29C1403.39,397.51,1401.6,398.72,1402.64,399Zm-6.05,2c-1.61-.51.29-.92-.46-1.67-2,0,.41,1.56-1.49,1.56-1.21-.46-2.77-.35-3.4-1.56-1.5-.23-4.43-.23-5.36-1.72-.57-.12-.92.17-1.55,0-.75-2-4-3.23-3.86-5.65.46-.63.12-2.7.06-3.51-1.38-1.09-.52-2.19.29-3.4.86-.4,2.24.47,2.65-.17-1.21-2-5.65-1.21-2-3.17.46-1.66,1.09-1.72-.57-1.9,0-1.26,2.07-1.72,2.13-2.93-1-1.38,0-2.13.63-3.34,0-1.9-.12-2.07.86-3.86,0-2.13-1.72-4.2.35-5.58,1.21-2.36,2.76-4.73,2.7-7.43,1-1.5.41-2.94.41-4.67.75-1.78-.06-2.93.92-4.43a38.87,38.87,0,0,0,1.21-9.84c.17-1.79,1.38-2.25.57-4.21,0-2.82,1-4.32-1.9-5.93-1-.8-2.07-2.19-3.39-2.42-2-.92-5.65-2.47-6.68-4.43-.46-2.82-.64-2.94-2.36-4.95-.87-3.28-3.29-6.39-5.19-9.27-.69-.64-3.16-1.56-2-2.59,0-1.21-1.9-2.77.34-3.57.58-.46,2.6-2.36,1.44-3-3.68.52-.63-3.28,0-4.72.23-2.88,2-1.09,3-3.16.17-2.08.86-1.1,2.07-2,.29-.46.58-.92.86-1.32,0-2.42-1.26-13.42-5.75-9.1-.81,3.63-1.79,1.32-4.38.4-2.71,0-2.71-2.36-5.24-2.82a3.07,3.07,0,0,1-1.61-1.67c-.35-4.2-6-5.7-9.5-6.22-3.28-1.21-4.78-3.28-7.66-4.89-1.32-.41-2.19.4-3.34,1-2.53.11-3.91-.81-6-1.79-3-.4-5.24-2.3-8.12-2.88a30,30,0,0,1-4.77-3.34c-.81-1.21,1.2-3.57,0-4.08-1.27-3-5-5-7.49-6.91-.34-.81.06-1.39-.4-2.13a3.76,3.76,0,0,1-2.36-2,9,9,0,0,1-4.9-5.7c-.29-2.59-5.52-3.28-2.65,1,1,.51,1.9.46,2.54,1.44.23,3.34,3.45,4.14,4.32,6.85.92,1.32.51,2.59,2.3,2.47a5.09,5.09,0,0,1,.52,3c-1.27.29-1.85-.87-2.54-1.73a15.63,15.63,0,0,0-2.24-1.32c-.81-.93-.29-2.25-1.27-3.23-1.15-.63-4.66-1.84-4.6-3.51,1.72-1.79.8-1.73-1.33-3.17-1.15-1.38-2.7-3.74-2.94-5.64a16.19,16.19,0,0,0-2.64-2.59c-2.65-1-7-2.07-7-5.53.17-.52.86-1.84.11-2.19-4.2,0-3.28-2.07-5.18-4.78-.23-1,.06-2.07-.11-3.1-.87-2.08-.18-2,.4-4a47.93,47.93,0,0,1,.29-4.89c-.52-1.5-1.44-4.38-3.34-4.49-.29-.64-2.13-1.15-2.94-1.5-1.61-2.13-1.49-4.84-4.55-5.53-.11-1.67,1-1.49-1.49-1.49-2.08-.93,0-2.54-3.11-3.06-.46-.46-1.21-1.32-1.79-.4.12,2.71-2.07.23-1.32-.75,0-.69-3.92-3.68-.64-2.82,1.62,1.84.06-1.15-.34-1.61-2-1.09-2.59-.75-4.78-.75-.69,1.44-.75-.17-1.21-.57a7.4,7.4,0,0,1-4.2-1.79c-1-1.61-2.77-.35-4.38-.63-2.7-1-5.41,0-8.12-1.27-.92,0-1.78.29-2.64.29-1-2.25-3.57-1.73-5.19-.46-1,1.38-5.81,4.55-5.81.86,2.36-4.26-3.74,2.88-4.21,3.28-1.49.64-2.93,1.38-4.43,1.9-1.21,1.33-2.47,1.1-3.91,2.36-.7.35-2.77.12-2.88,1.1.4.57.28,1.55-.41.8,0-2.24-1.15-.23-2.18-.17-1-.17-3.17.23-3.52,1.15-.8-1.38-3.68,1.21-3.34-.29,2.42-1.38,4.67-2.47,7.49-2.47a1.36,1.36,0,0,0,.34-.23c1.5-2.42,4.84-.69,5.53-4,1-1.44-3.45-.58-4.09-.7-1.9-.8-2.41,0-4.6-.11-.64-1,1.26-2.59-.17-3.63-1.16,0-2,1.79-3.11,1-.18-2.19-.41-1.78-2.71-1.9a4,4,0,0,0-2.25-1c-.46-.46,3.17-3.57,4.09-3.57,1.27.46,2.65-.34,4-.46,2.31.35,2.31-2.24,1-2.24a20.24,20.24,0,0,1-9.1.34c-1.44-.52-1.26-1.44-2.82-1.73-1.09-1.26,6.16-2.24,7.2-2.24a2.79,2.79,0,0,0,3.22.8c2.42-2.3-.63-1.49-2.88-2-1.72-1.38-3.11-1.5-5.35-1.9-1.84-1.79,2.82-1.5,3.4-1.56l2.36-.52c3.22-2.76,6.1-1.78,9.84-3,2.25-.4,4-1.73,6.11-.52a4,4,0,0,1,1.15-.17c1.49.75,5-.06,5.52,1.27a8.75,8.75,0,0,0,2.71.17c7.89,0,16.7.29,24.41,1.9,2.13.86,9.73,2.47,10.42.11,2-1.44,2.48-1,4.32-.8.87-1.21,1.79-1,3.34-1,1.27,1.5,2.42-1,4.44-.17,2.36,1.26,3.28,2.76,5.18.57,1.61.06,1.32,2,3.45,1,3.17-.92,6.74.29,10.08.52,1.09,1.15,7.71.57,3.4.06-1-.41-1.5-.92-1.44-2-.41-.58-3.29-1.15-1.5-1.9-.06-.63-3.11-.81-1.21-1.56a13.83,13.83,0,0,0,1.21-.92c.23-.57-4.49.81-4.72,1-.64,1.61-1.21,1.61-2.88,1.73-3.23,1.32-3.46-.23-5.93-1.09-.52-.58-1.61-.41-2.36-.47-.4-.8,1-1.26,1.5-1.78,3.91-.58-.87-3.22,2.3-2.88a21.27,21.27,0,0,1,6.85,0c1.73,1.79,8.12-1.15,10,1.56-.06.34,1.67.51,2,.63.69,1.9,1.38,1,3,.52,1.15,0,1.44.11,2.82.11.11,1.1,5.64.81,6.91.87-.06-.69-.4-2.48.69-2.54,1.21.87.69,1.15,2,0,1,0,5-.63,4.09,1.15-1.78,1.39.64,2.83,1.44,4.32.87.87,1.67.06,2.65.06,1.61,1,6.28,1.21,2.59,3.63-.63.75-1.32,2.47-1.5.23a5.46,5.46,0,0,0-1.09.46c-1.27,0-7.25-.4-3.17,1.09,2-.11,3.17.52,5,.75,1.85-.81,3.63.63,2.59-2.13.06-2.25,2.13.81.93,1.27.17,1,6.67,1.72,4-.52-.69-.12-4.55-.29-2.71-1.61,2.25-.18,2.31-1.73,4.44-.75,4.2,0-1.5-2.82,3.16-3.46,2.36-.92-.06-.92-.06-2.59,1.21-2.88,1.1-2.47,4.44-2.65,1.9.35,8.69-.86,4.83,2a7.89,7.89,0,0,1-4.83.87c-3.69,0-.17,2.07.63,2.87,1.56,3.75.23,2.71,5.59,3.34.4.58.17,1.39.86,1.62,2.3-1.33,2.3-1,4.49.51,1.38,1.79,1-.74,2.48.23,2.7.41.63-5.64-.46-3.39-2.71-.35-6.16-.41-7-3.63,2.13-3,5.93-5.18,9.9-3.86.92,1.1-3.22,1.21-2.42,3.34,0,2-.86,2,2,2,1.61-.52.4-1-.63-1.27-3.34-2.76,4.49-3.62,5.52-4,2,.11,3.75,1.15,5,.11,2.13,0,7-.63,8,1.67,1.44,1.33,3,.06,3.34,2.31.52.17.69,0,1.21,0,2.42,1.32.92.69,3,.11,3.63,0-1,2.59,2.36,2.82.52-.23.69-.57,1-1,2.53-1.5,3.45.34,4.49,1.9,0,0,6.16.28,4.09,1.55-3.69.69,1.38,1.44,2.24,1.61,2.77,0,4.21,1.33,6.57,2.25,4.89,0,1.49,1.84-.87,2-.92.64-.92,3.17-2.41,1.5-1.27-2.94-1.21-1.21-4.21-1.67-.8-.46-3.16-1.38-3.86-.29.18.75,2,1.73,2.6,2.19,1.44.23,6.27,1.61,4.26,4.15.46.63.74,1.78-.64,1.15-.17-.81-.17-.64-.8-.23-2,3.05-6.68-.41-9.33-.41-3.51,1.21-4.55-4.14-7.89-3.05-1.15,0-6.27-.69-6.1.64,2.59,1.26-.4,1-1.5,1.72-.57,0-2.82-.23-1.84-1.15,2.36-.46.29-4.32,3.51-3.51.23,0,5.87.46,5.13-.81-2.37-.75,3.16-2.3,3.51-2.82-.23-.4-.46-.75-.69-1.15-.92-.75-2.77.12-4,.17-.34.35-1.21,1.62-1.84,1,0-1.44,2.25-3.28-1.15-2.59-1.21,0-2.3-2.48-3-2-.29,1.67-2.36,1.1-2,.23-.29-.74-1.32,0-1.84.06-.81,0-4.32-1.32-4.09-.29,1.84.75,1.38,2.13-.29,2.48,0,1.5,2.77.63.87,2.71-1.67.63-2.54,1.61-3.92,2.59-.8,0-1.38-1.56-2-.06.57.46,1.21.06,1.72.63,1.1.41,6.11,1.9,5.19,3.69-2,.23-2.31,0-4.15-.75-2.88,0-6.5,3.63-6.5-2,.57-1.55,1.09-2.76,2.47-1.15,1.09-.11-1.27-2.82-3.11-1.55-.23.46-.52.92-.75,1.38a3.16,3.16,0,0,1-4.72,2.94c-1.15,0-3.86,2-4.6,2.53a12.45,12.45,0,0,1-2,.46c-1.67,1.55-5.53,4.72-3.45,7,3.05.06,3.1-.05,3.68,3,.92,1.26,5.13-.12,6.51-.12,1.84,1.1,2.65,2.77,4.83,2.59,1,.23,1.44.81,2.36,1.27,6.57.29,6.74-.46,7.14,5.3,1.44,1.73,4.26,3.05,6.28,1.09a3.41,3.41,0,0,0-1.09-4.32c-.29-.51-.29-.69.23-1,3.28-.35,7.6-2,5-5.7-1.56-.87-5.24-1.56-2.25-3.46,4.26-1.38-2.82-5.76,4-5.76.35.18,4.67,1.27,3.4.06-.12-.92.86-.92.81-.06,2.76.52,4.89,2.25,7.65,2.48.87.23,2,.29,2,1.32-1.67,2.65.75,2.14,2.07,4.09,1.15,0,5.18-.86,5.93-1.84,0-3.92,2.77-1.27,3.57.58,1.84,1,4,3.16,4,5.29,2.19,2.59,1.33,1.79,4.55,2.13,1.56,1,2.88,0,3.11,2,1.15,1.15,5.64,1.61,3.74,4.38-.86.46.58.52.75,1.67,1.27,2.07-1.5.28-1.38,1.61.58.57,1,1.67,1.78,1.67,1-.75,3.34-1.38,3.23.52-1,1-.4,2.93,1.09,2,1.79,0,.35,4.49-1.49,2.71-1.5-2.88-1.67.86-3.69-.75-.23-.35-.46-.92-1-.92-.92.57-5.87.57-6.68-.29,0-.86,1.62-1.38,2.25-1.84a27,27,0,0,0,1-2.54c2.13-2.36,1.9-2.82-1.21-2.07-2.71,2.65-5.41,1.44-9,2-.63,1.21,3.74.86,2,2.19-1,0-4.21-.12-3.17-1.67,0-1.73-5.76-1.21-6.56.4-1.67,1.56,2.36.69,3.1.63.81.18,1.85.7,1.56,1.62-1.15.8.34,1-.81,1.84a10.43,10.43,0,0,0,1.1,2.47c1.72.35,3.16,1.44,5,.52.57,0,.81.29,1.32.46,1.15-.11,2.65-1.49,2.77-.11-1.79,1.73-5.36,1.55-7.49,2.53-2.13-.23-2.47,2.94-4.72,1-1.5-2,3-2.71,1.67-3.28a4.07,4.07,0,0,1-3.22.92c-.69,1.67-2.42,1.44-4,1.44-2.25,1.78-3.92,1.78-4.38,4.66-.81,1.73-3.86,2.36-5.53,2.48-.92.63-.57,3.22-2.19,3-.11-.12-.11-.12-.34-1.44-.92.17.34,4.72-1.61,4.6-.12-.17-.12-.17-.12-.86-.63-1-2.88-1.84-1.5.46,0,1.56,1.79,1.27.52,2.71a4.26,4.26,0,0,0,.18,1.21c-1.39.46-.12,1-.64,1.72l-2.82,1.1c-4.32,3.74-8.92,4.43-5.41,10.3.4,1.33,2.53,6.17.23,7.2-2.76,0-1.9-2.7-3.8-3.68-1.21-1.5-.17-2.54-.86-3.92-2.65-2.42-1.67-1.32-4.61-1.32-2.07-1.61-5.41-.92-8-.87-.69.69,0,1.67-1.32,1.62-1.56.74-2.19.57-3.46-.52-1.67,0-3.34-.17-5-.17a44.78,44.78,0,0,0-6,3.68c-.87,1.44-.12,3.22-.58,4.78-1.9,3.22-1,7.54,1.5,10.13a8.36,8.36,0,0,1,.92,1.73c2.07,2.48,9.1,1.67,10.59-1.15.29-4,4.32-3.63,7.55-3.63,1.32.92-.46,2.59-1,3.51a13.51,13.51,0,0,1-2,7c0,1.15.86.58,1.61.4,1.5,0,2.42-1,4-1.15.29,1.61,3.34,1.5,4.67,2.82.57,1.5.57,1.67-.17,3.11-.06,2.82-1,6.74,2.64,7.95.52.92,1.79,1,2.77,1,2.76-1.49,3.74-2.47,6.5.35,3.8,1.27,3.23-4.66,5.7-4.66a4.56,4.56,0,0,1,2.88-.64c.64-.34,5-3.62,4-.29-2.59,1.21,1.56,1.56,1.56-.63.8-1.38,1.09-2.13,1.5-.11.69,1.21,2.07.69,3,1.61,1,1.61,3.28.63,5.12,1,3,2.42,1.5-2.53,3.63-.57,2,.46,3-1,3,1.32,1.56,1.16,1.62-2.41,2.71-.75,0,1.62-.52,1.1.46,2.42.58,2.31,4.32,1.5,4.66,4.55a8.41,8.41,0,0,0,4.61,2.31c1.73-.75,2,.51,3.63.46.86-.81.57-.46,1.49.11,3.4,0,5,3.17,5.36,5.87,1.21,1.9,1.9,1.73,1.84,4-1.67,1.5,1,.58,2,1,1.38.18.69.18,1.32,1.1,2.25.05,5.59.63,7.43,2.07.52,2,1,.86,2.59.86,1.15.52,1.61.92,2.88.75.63.17,1,.64,1.67.64,3.28-1.21,5.64,2.64,8.35,4,1.38.17,2.76-.17,3.22,1.21,1.38,2.24,1.38,6.33-1.15,7.71-1.55,2-2.94,3.8-4.38,5.82-.74.4-1.55.29-2.07,1,.4,3.22,1.1,7.25-1.32,9.9-.12.35-.12.35-.18,2.19-.74,1.9-2.41,2.7-2.41,4.78-.75.92-1.44,1-2.13,2.24-1.62.75-3.23-.75-5.07.41-1.61,1.67-3,1.55-5.07,2.53-2,1.61-2.24,1.09-2.93,3.45.51,3.86-1.56,4.9-3.11,7.89-1.27.75-2.25-1.44-2.25.87-.4.8-1.32,1-1.9,1.78a9.13,9.13,0,0,1-5.07,6.28h-3.85c-.23-.12-2.65-1.39-2.48-.29,1.55,1.5,1,.69,1.09,2.42a10.58,10.58,0,0,1,1.21.8c0,4-4.89,4.44-8,5-2.88,0-2.42.06-2.88,2.77-1.67,2.59-3.45.74-5.76.86-1.78,1.73,3.4,2.65-.17,4.61-2.25,2.13.52,2.7-3.45,3.39-4.84,2.88,4.14,2.94,1.32,5.7a5.75,5.75,0,0,0-3.17,2.13c-.75,3-4.32,1.5-1.78,5.36-.17.52-2.82.69-1.73,1.21,2.94,0,1.84,1.44,4.26,2.53,1.27,1,2.71,1.09,4.26,1.15,2,1.33-3.57.46-3.74,2.48-.35.06-.35.06-.81.11h0"/><path id="path382" class="cls-2" d="M1387.5,153.27a17.71,17.71,0,0,1,17.62,17.38v.64a19.81,19.81,0,0,1-.23,2.65,1.35,1.35,0,0,0-.06.46l-.69,2.47c-.06.23-.18.41-.18.52a5.17,5.17,0,0,1-.28.63,22.14,22.14,0,0,1-1.67,3l-5.53,10.88-7.66,15-1.44,2.76-1.44-2.76-7.66-15L1372.76,181a3.9,3.9,0,0,1-.35-.52c-.11-.17-.23-.4-.34-.58a19.72,19.72,0,0,1-1.44-3l-.64-2.24a13.45,13.45,0,0,1-.34-3v-1.27a17.71,17.71,0,0,1,17.56-17h.29"/><path id="path384" class="cls-5" d="M1387.38,154.88A16.12,16.12,0,0,1,1403.5,171a15.53,15.53,0,0,1-.86,5.24h0a16,16,0,0,1-2,4l-5.58,11-7.66,15-7.66-15-5.58-11a16.67,16.67,0,0,1-2-3.91v-.06h0a16.16,16.16,0,0,1,15.26-21.36"/><path id="path386" class="cls-6" d="M1688.34,203.93a6.11,6.11,0,1,0,6.1,6.11A6.07,6.07,0,0,0,1688.34,203.93Zm0-5.93a12.07,12.07,0,0,1,12,12,12.47,12.47,0,0,1-.63,3.91h0a10.47,10.47,0,0,1-1.5,2.94l-4.14,8.18-5.7,11.11-5.7-11.11-4.21-8.18A11.63,11.63,0,0,1,1677,214v0h0a12.25,12.25,0,0,1-.64-3.92,11.91,11.91,0,0,1,12-12h0"/><path id="path388" class="cls-6" d="M1817.31,329.74a6.11,6.11,0,1,0,6.11,6.11A6.11,6.11,0,0,0,1817.31,329.74Zm0-5.93a12.07,12.07,0,0,1,12,12,12.47,12.47,0,0,1-.63,3.91h0a11.18,11.18,0,0,1-1.5,2.94l-4.15,8.17-5.7,11.12-5.7-11.12-4.2-8.17a11.18,11.18,0,0,1-1.5-2.94v-.06h0a12.47,12.47,0,0,1-.63-3.91,11.93,11.93,0,0,1,12-12h0"/><path id="path390" class="cls-6" d="M1570.08,248a6.11,6.11,0,1,0,6.1,6.1A6.14,6.14,0,0,0,1570.08,248Zm0-5.87a12,12,0,0,1,12,12,12.53,12.53,0,0,1-.63,3.92h0a11.12,11.12,0,0,1-1.5,2.93l-4.15,8.18-5.7,11.11-5.7-11.11-4.2-8.18a12.12,12.12,0,0,1-1.5-2.93v-.06h0a12.53,12.53,0,0,1-.63-3.92,11.89,11.89,0,0,1,12-12h0"/><path id="path392" class="cls-6" d="M1428.15,308a6.1,6.1,0,1,0,6.1,6.1A6.11,6.11,0,0,0,1428.15,308Zm0-5.93a12.06,12.06,0,0,1,12,12,12.53,12.53,0,0,1-.63,3.92h0a11.12,11.12,0,0,1-1.5,2.93l-4.15,8.18-5.7,11.11-5.7-11.11-4.2-8.18a12.12,12.12,0,0,1-1.5-2.93v-.06h0a12.48,12.48,0,0,1-.63-3.92,12,12,0,0,1,12-12h0"/><path id="path394" class="cls-6" d="M1340.69,188.16a6.1,6.1,0,1,0,6.1,6.1A6.07,6.07,0,0,0,1340.69,188.16Zm0-5.93a12.06,12.06,0,0,1,12,12,12.53,12.53,0,0,1-.63,3.92h0a11.12,11.12,0,0,1-1.5,2.93l-4.15,8.18-5.7,11.11-5.7-11.11-4.2-8.18a11.12,11.12,0,0,1-1.5-2.93v-.06h0a12.48,12.48,0,0,1-.63-3.92,11.89,11.89,0,0,1,12-12h0"/><path id="path396" class="cls-6" d="M1387.38,161.67a9.33,9.33,0,1,1-9.33,9.33,9.33,9.33,0,0,1,9.33-9.33"/><path id="path398" class="cls-5" d="M1387.38,163.92a7.08,7.08,0,1,1-7.08,7.08,7.07,7.07,0,0,1,7.08-7.08"/><path id="path400" class="cls-7" d="M1360.9,231.86h0a271.44,271.44,0,0,1,47.09-33.4,294.85,294.85,0,0,1,54.24-23.6c97.94-31.44,217.93-15.09,311,73l-.58.57c-92.81-87.92-212.52-104.21-310.22-72.83a292.69,292.69,0,0,0-54.13,23.55,268,268,0,0,0-46.92,33.28h0l-.46-.58"/><path id="path402" class="cls-7" d="M1516.3,230.71c18.65-26.66,43.41-47.39,70.59-60.06,21.36-9.9,44.16-14.85,66.73-13.76a122.64,122.64,0,0,1,65.06,22.34c21.14,14.8,40,37.31,54.65,68.75l-.75.35c-14.51-31.27-33.34-53.67-54.36-68.41a121.5,121.5,0,0,0-64.66-22.16c-22.39-1.1-45.14,3.86-66.33,13.7-27.06,12.55-51.7,33.22-70.3,59.77l-.63-.52"/><path id="path404" class="cls-7" d="M1299.92,183.09a253.25,253.25,0,0,1,27.7-17.56c47.38-25.85,99.26-33.74,148-23.2s94.43,39.55,129.26,87.46a278.59,278.59,0,0,1,19.52,31l-.69.41a284.7,284.7,0,0,0-19.46-30.86c-34.78-47.79-80.21-76.64-128.8-87.18s-100.31-2.65-147.52,23.15a248.91,248.91,0,0,0-27.58,17.5l-.46-.69"/><path id="path406" class="cls-4" d="M1245.57,234.51h2.93v3.17h3V250h1.15v-7.32h16.87v6h11.28l-.74,1.5a23.83,23.83,0,0,0-8.53,6.28,28.84,28.84,0,0,0-2,2.64h-30.23l-1.67-2.64-3.22-5.19V250h4.32V239.46h4.2l1.44-2.82.69-1.27.52-.86"/><path id="path408" class="cls-8" d="M1508.93,312.12h2.93v3.17h3v12.32H1516V320.3h16.87v6h11.29l-.75,1.49a23.84,23.84,0,0,0-8.52,6.28,27.38,27.38,0,0,0-2,2.65h-30.23l-1.67-2.65-3.22-5.18v-1.27h4.32V317.08h4.2l1.44-2.83.69-1.26.52-.87"/><path id="path410" class="cls-8" d="M1827.51,236.58h2.93v3.17h3v12.32h1.15v-7.31h16.87v6h11.34l-.75,1.49a23.81,23.81,0,0,0-8.52,6.28,24.69,24.69,0,0,0-2,2.65h-30.23l-1.67-2.65-3.23-5.18v-1.27h4.32V241.53h4.21l1.43-2.82.7-1.27.46-.86"/><path id="path412" class="cls-4" d="M1334.76,324l16-.46c2.71-.06,6.11,0,8.35.92l.46.18c.12.05.17.11.29.11l.86.52a35.89,35.89,0,0,0,3.4,2.19l.35.17h0c1.67.69,1.9,1.61,1.27,2.48a4.26,4.26,0,0,1-.75.69c-2.7,1.9-7.43,1.78-11.11,1.72s-7.49.06-11.17-.17a29.19,29.19,0,0,1-8.64-1.9,18.33,18.33,0,0,1-5.76-3.4l-1.78-5-.92-2.59-.35-.92,2.59-.06a3.48,3.48,0,0,1,2.94,1l.23.23,2.13,2.31,1.56,2"/><path id="path414" class="cls-8" d="M1456.82,198.12l16-.46c2.7-.06,6.1,0,8.35.92.17.06.28.12.46.17s.17.12.28.12l.87.52a33.78,33.78,0,0,0,3.39,2.18l.35.18h.06c1.67.69,1.9,1.61,1.26,2.47a4.55,4.55,0,0,1-.74.69c-2.71,1.9-7.43,1.79-11.12,1.73s-7.48.06-11.17-.17a28.73,28.73,0,0,1-8.63-1.9,18.41,18.41,0,0,1-5.76-3.4l-1.79-5-.92-2.59-.34-.92,2.59-.06a3.44,3.44,0,0,1,2.93,1l.24.23,2.13,2.3,1.55,2"/><path id="path416" class="cls-9" d="M1300.21,185.8a2.5,2.5,0,0,0,2.47-2.48,2.48,2.48,0,1,0-2.47,2.48"/><path id="path418" class="cls-9" d="M1361.18,234.57a2.48,2.48,0,1,0-2.47-2.48,2.46,2.46,0,0,0,2.47,2.48"/><path id="path420" class="cls-9" d="M1516.7,233.36a2.48,2.48,0,1,0-2.47-2.48,2.47,2.47,0,0,0,2.47,2.48"/><path id="path422" class="cls-9" d="M1624,263.36a2.48,2.48,0,1,0-2.48-2.48,2.58,2.58,0,0,0,2.48,2.48"/><path id="path424" class="cls-9" d="M1773,250.63a2.48,2.48,0,1,0-2.48-2.48,2.5,2.5,0,0,0,2.48,2.48"/><path class="cls-10" d="M1359.43,375.92s5.06-2.93,10,9.62a158.78,158.78,0,0,1,6.62,19.69s1.38,2.65,3.11,1.15,4.37-6,7.14-4.89,3.57,4.6,2.59,9.56-2.59,15.89-2.71,16.87.29,2.47,1.67,1.61,9.5-8.93,12.9-4.67-1.33,17.68-1.84,19.18-.29,2.13.4,2.53,3.11-2.53,5.53-4.72,5.52-4.32,7.31-1.67,1.67,13-8.93,28.9l-5.35,7.09-8.52-1.21c-18.08-3.75-25-11.12-25.45-14.28s3.22-4,6.39-4.09,7,.17,7.14-.58-.12-1.44-1.44-2.13-13.59-6.91-14-12.43,10.82-5.65,12.38-6.11.86-1.78.11-2.36-9.21-7.31-13.18-10.19-5.76-5.93-4.44-8.81,6.11-1.44,8.41-1.67,1.5-3.11,1.5-3.11a161.09,161.09,0,0,1-8.24-19c-4.72-12.61,1-14.16,1-14.16"/><path class="cls-11" d="M1397.6,474.15c-3.51-9.27-8.46-22-13.93-36s-10.48-26.78-14.05-36.05c-1.79-4.6-3.23-8.35-4.2-10.94-.52-1.26-.87-2.24-1.16-2.93-.11-.35-.23-.58-.28-.75a.66.66,0,0,0-.12-.23,1,1,0,0,0,.06.29l.29.8c.23.69.63,1.67,1.09,3,1,2.59,2.36,6.39,4.09,11,3.51,9.27,8.46,22,13.93,36s10.48,26.77,14,36"/><path class="cls-11" d="M1382.86,407.82l-.29.58c-.17.4-.34.92-.63,1.67-.52,1.38-1.15,3.34-1.78,5.52s-1.21,4-1.67,5.53a16.58,16.58,0,0,0-.52,1.67c-.12.4-.18.63-.18.63a3.39,3.39,0,0,0,.29-.57c.18-.4.35-.92.64-1.67.46-1.38,1.09-3.34,1.78-5.53s1.27-4,1.73-5.53c.23-.63.4-1.2.52-1.67S1382.92,407.82,1382.86,407.82Z"/><path class="cls-11" d="M1377.1,423.6c0-.06-3.74-1.61-8.46-3.46s-8.52-3.28-8.58-3.16,3.74,1.61,8.46,3.45S1377.05,423.71,1377.1,423.6Z"/><path class="cls-11" d="M1386.43,444.79s-.23-.06-.63-.12-1-.06-1.73-.11c-1.44-.12-3.45-.29-5.64-.58s-4.21-.58-5.64-.81c-.7-.11-1.21-.17-1.73-.28s-.64-.12-.64-.06l.64.17a16.07,16.07,0,0,0,1.67.35c1.44.28,3.39.63,5.64.92s4.2.4,5.7.46c.75,0,1.33.06,1.73.06S1386.43,444.84,1386.43,444.79Z"/><path class="cls-11" d="M1394.66,431.72a5.88,5.88,0,0,0-.4.46,12.56,12.56,0,0,0-.92,1.32c-.81,1.15-1.84,2.76-3,4.49s-2.19,3.4-2.94,4.55c-.35.58-.69,1.09-.86,1.38s-.29.52-.29.52a5.88,5.88,0,0,0,.4-.46,12.14,12.14,0,0,0,.92-1.32c.81-1.16,1.85-2.77,3-4.5s2.18-3.39,2.93-4.54c.35-.58.69-1.1.87-1.39S1394.72,431.72,1394.66,431.72Z"/><path class="cls-11" d="M1405.26,449.33l-.46.64c-.35.46-.75,1-1.21,1.73-1,1.44-2.36,3.51-3.92,5.81s-2.87,4.32-3.8,5.87c-.46.69-.8,1.33-1.15,1.79a3.33,3.33,0,0,0-.4.69l.46-.63c.35-.46.75-1,1.21-1.73,1-1.44,2.36-3.51,3.91-5.82s2.88-4.31,3.8-5.87c.47-.69.81-1.32,1.16-1.78A2.61,2.61,0,0,0,1405.26,449.33Z"/><path class="cls-11" d="M1394.49,465.28s-.29,0-.8-.11-1.33-.17-2.19-.23c-1.84-.23-4.38-.52-7.14-1s-5.3-.86-7.14-1.21c-.86-.17-1.61-.29-2.13-.4a4,4,0,0,0-.81-.12,5.51,5.51,0,0,0,.75.23l2.13.52c1.79.4,4.32.86,7.14,1.27s5.36.69,7.2.86c.92.06,1.67.12,2.19.17Z"/><g class="cls-12"><path class="cls-13" d="M1382.57,364.29c0,.12.75.18,1.62.18s1.61-.06,1.61-.18a3.76,3.76,0,0,0-1.61-.17C1383.26,364.12,1382.57,364.18,1382.57,364.29Z"/><path class="cls-13" d="M1376.07,364.29c0,.12.75.18,1.61.18s1.61-.06,1.61-.18a7.71,7.71,0,0,0-3.22,0Z"/><path class="cls-13" d="M1369.56,364.29c0,.12.75.18,1.61.18s1.62-.06,1.62-.18a7.76,7.76,0,0,0-3.23,0Z"/><path class="cls-13" d="M1363.11,364.29c0,.12.75.18,1.61.18s1.62-.06,1.62-.18a7.76,7.76,0,0,0-3.23,0Z"/><path class="cls-13" d="M1356.61,364.29c0,.12.74.18,1.61.18s1.61-.06,1.61-.18a7.71,7.71,0,0,0-3.22,0Z"/><path class="cls-13" d="M1350.1,364.29c0,.12.75.18,1.61.18s1.61-.06,1.61-.18a7.71,7.71,0,0,0-3.22,0Z"/><path class="cls-13" d="M1343.59,364.29c0,.12.75.18,1.62.18s1.61-.06,1.61-.18a7.76,7.76,0,0,0-3.23,0Z"/><path class="cls-13" d="M1337.09,364.29c0,.12.75.18,1.61.18s1.61-.06,1.61-.18a7.71,7.71,0,0,0-3.22,0Z"/><path class="cls-13" d="M1330.7,364.29c0,.12.74.18,1.61.18s1.61-.06,1.61-.18a3.76,3.76,0,0,0-1.61-.17C1331.39,364.12,1330.7,364.18,1330.7,364.29Z"/><path class="cls-13" d="M1324.19,364.29c0,.12.75.18,1.61.18s1.61-.06,1.61-.18a3.72,3.72,0,0,0-1.61-.17C1324.88,364.12,1324.19,364.18,1324.19,364.29Z"/><path class="cls-13" d="M1317.68,364.29c0,.12.75.18,1.62.18s1.61-.06,1.61-.18a3.76,3.76,0,0,0-1.61-.17C1318.37,364.12,1317.68,364.18,1317.68,364.29Z"/><path class="cls-13" d="M1311.18,364.29c0,.12.75.18,1.61.18s1.61-.06,1.61-.18a3.76,3.76,0,0,0-1.61-.17C1311.87,364.12,1311.18,364.18,1311.18,364.29Z"/><path class="cls-13" d="M1304.67,364.29c0,.12.75.18,1.61.18s1.62-.06,1.62-.18a7.76,7.76,0,0,0-3.23,0Z"/><path class="cls-13" d="M1298.22,364.29c0,.12.75.18,1.61.18s1.62-.06,1.62-.18a7.76,7.76,0,0,0-3.23,0Z"/><path class="cls-13" d="M1291.72,364.29c0,.12.74.18,1.61.18s1.61-.06,1.61-.18a7.71,7.71,0,0,0-3.22,0Z"/><path class="cls-13" d="M1285.21,364.29c0,.12.75.18,1.61.18s1.61-.06,1.61-.18a7.71,7.71,0,0,0-3.22,0Z"/><path class="cls-13" d="M1278.7,364.29c0,.12.75.18,1.62.18s1.61-.06,1.61-.18a7.76,7.76,0,0,0-3.23,0Z"/><path class="cls-13" d="M1272.2,364.29c0,.12.75.18,1.61.18s1.61-.06,1.61-.18a7.71,7.71,0,0,0-3.22,0Z"/><path class="cls-13" d="M1265.75,364.29c0,.12.75.18,1.61.18s1.61-.06,1.61-.18a7.71,7.71,0,0,0-3.22,0Z"/><path class="cls-13" d="M1259.3,364.29c0,.12.75.18,1.61.18s1.61-.06,1.61-.18a3.72,3.72,0,0,0-1.61-.17C1260,364.12,1259.3,364.18,1259.3,364.29Z"/><path class="cls-13" d="M1252.79,364.29c0,.12.75.18,1.62.18s1.61-.06,1.61-.18a3.76,3.76,0,0,0-1.61-.17C1253.48,364.12,1252.79,364.18,1252.79,364.29Z"/><path class="cls-13" d="M1246.29,364.29c0,.12.75.18,1.61.18s1.61-.06,1.61-.18a3.76,3.76,0,0,0-1.61-.17C1247,364.12,1246.29,364.18,1246.29,364.29Z"/><path class="cls-13" d="M1239.84,364.29c0,.12.75.18,1.61.18s1.61-.06,1.61-.18a3.76,3.76,0,0,0-1.61-.17C1240.47,364.12,1239.84,364.18,1239.84,364.29Z"/><path class="cls-13" d="M1238.17,369.36a3.93,3.93,0,0,0,.17-1.67,4.33,4.33,0,0,0-.17-1.73c-.12,0-.17.75-.17,1.73S1238.05,369.36,1238.17,369.36Z"/><path class="cls-13" d="M1238.17,376.21a3.93,3.93,0,0,0,.17-1.67,4.33,4.33,0,0,0-.17-1.73c-.12,0-.17.75-.17,1.73S1238.05,376.21,1238.17,376.21Z"/><path class="cls-13" d="M1238.17,383a3.93,3.93,0,0,0,.17-1.67,4.29,4.29,0,0,0-.17-1.73c-.12,0-.17.75-.17,1.73S1238.05,383,1238.17,383Z"/><path class="cls-13" d="M1238.17,389.86a3.93,3.93,0,0,0,.17-1.67,4.33,4.33,0,0,0-.17-1.73c-.12,0-.17.75-.17,1.73S1238.05,389.86,1238.17,389.86Z"/><path class="cls-13" d="M1238.17,396.65a3.93,3.93,0,0,0,.17-1.67,4.33,4.33,0,0,0-.17-1.73c-.12,0-.17.75-.17,1.73S1238.05,396.65,1238.17,396.65Z"/><path class="cls-13" d="M1236.9,402.18a2.85,2.85,0,0,0,1.27.17h.17v-.52a4.26,4.26,0,0,0-.17-1.72c-.12,0-.17.74-.17,1.72v.35l.17-.17C1237.42,402,1236.9,402.06,1236.9,402.18Z"/><path class="cls-13" d="M1230.4,402.18a3.72,3.72,0,0,0,1.61.17c.92,0,1.61-.06,1.61-.17s-.75-.17-1.61-.17S1230.4,402.06,1230.4,402.18Z"/><path class="cls-13" d="M1223.89,402.18a3.76,3.76,0,0,0,1.61.17c.92,0,1.61-.06,1.61-.17s-.74-.17-1.61-.17S1223.89,402.06,1223.89,402.18Z"/><path class="cls-13" d="M1217.38,402.18a3.79,3.79,0,0,0,1.62.17c.92,0,1.61-.06,1.61-.17s-.75-.17-1.61-.17S1217.38,402.06,1217.38,402.18Z"/><path class="cls-13" d="M1210.88,402.18a3.76,3.76,0,0,0,1.61.17c.92,0,1.61-.06,1.61-.17s-.75-.17-1.61-.17S1210.88,402.06,1210.88,402.18Z"/><path class="cls-13" d="M1204.43,402.18a3.76,3.76,0,0,0,1.61.17c.92,0,1.61-.06,1.61-.17s-.75-.17-1.61-.17S1204.43,402.06,1204.43,402.18Z"/><path class="cls-13" d="M1197.92,402.18a3.76,3.76,0,0,0,1.61.17c.93,0,1.62-.06,1.62-.17s-.75-.17-1.62-.17S1197.92,402.06,1197.92,402.18Z"/><path class="cls-13" d="M1191.47,402.18a3.79,3.79,0,0,0,1.62.17c.92,0,1.61-.06,1.61-.17s-.75-.17-1.61-.17S1191.47,402.06,1191.47,402.18Z"/><path class="cls-13" d="M1185,402.18a3.76,3.76,0,0,0,1.61.17c.92,0,1.61-.06,1.61-.17s-.75-.17-1.61-.17S1185,402.06,1185,402.18Z"/><path class="cls-13" d="M1182.43,406.32c.12,0,.18-.74.18-1.67a4,4,0,0,0-.18-1.72,8.53,8.53,0,0,0,0,3.39Z"/><path class="cls-13" d="M1182.43,413.18c.12,0,.18-.75.18-1.67a4,4,0,0,0-.18-1.73,8.58,8.58,0,0,0,0,3.4Z"/><path class="cls-13" d="M1182.43,420c.12,0,.18-.75.18-1.67a4,4,0,0,0-.18-1.73,8.58,8.58,0,0,0,0,3.4Z"/><path class="cls-13" d="M1182.43,426.82c.12,0,.18-.75.18-1.67a4,4,0,0,0-.18-1.73,8.58,8.58,0,0,0,0,3.4Z"/><path class="cls-13" d="M1182.43,433.67c.12,0,.18-.74.18-1.67a4,4,0,0,0-.18-1.72,8.53,8.53,0,0,0,0,3.39Z"/><path class="cls-13" d="M1182.43,440.47c.12,0,.18-.75.18-1.67a4,4,0,0,0-.18-1.73,4.11,4.11,0,0,0-.17,1.73A3.93,3.93,0,0,0,1182.43,440.47Z"/><path class="cls-13" d="M1182.43,447.32c.12,0,.18-.75.18-1.67a4,4,0,0,0-.18-1.73,4.11,4.11,0,0,0-.17,1.73A3.93,3.93,0,0,0,1182.43,447.32Z"/><path class="cls-13" d="M1182.43,454.11c.12,0,.18-.74.18-1.67a4,4,0,0,0-.18-1.72,4.08,4.08,0,0,0-.17,1.72A3.9,3.9,0,0,0,1182.43,454.11Z"/><path class="cls-13" d="M1182.43,461c.12,0,.18-.75.18-1.67a4,4,0,0,0-.18-1.73,4.11,4.11,0,0,0-.17,1.73A3.93,3.93,0,0,0,1182.43,461Z"/><path class="cls-13" d="M1182.43,467.82c.12,0,.18-.75.18-1.67a4,4,0,0,0-.18-1.73,4.11,4.11,0,0,0-.17,1.73A3.93,3.93,0,0,0,1182.43,467.82Z"/><path class="cls-13" d="M1182.43,474.61c.12,0,.18-.75.18-1.67a4,4,0,0,0-.18-1.73,4.11,4.11,0,0,0-.17,1.73A3.93,3.93,0,0,0,1182.43,474.61Z"/></g><path class="cls-14" d="M1170.57,491.31c0-14.74,12.73-26.43,27.24-23.55,9.15,1.78,16.41,9.67,18,19.35a24.77,24.77,0,0,1-2.82,16.35h0l-.06.11a45.29,45.29,0,0,1-3.11,4.26l-13.24,18.49a4,4,0,0,1-6.57,0L1177,508.12s-2.41-3.05-3.34-4.6l0-.06h0A26.63,26.63,0,0,1,1170.57,491.31Zm22.8,10.48a10.55,10.55,0,1,0-10.07-10.54C1183.35,497,1187.85,501.79,1193.37,501.79Z"/><g class="cls-15"><path class="cls-13" d="M1337.43,422.85v28.21a1.08,1.08,0,0,1-1,1.1h-56.2a1.09,1.09,0,0,1-1-1.1l.12-10.36a.9.9,0,0,1,.23-.64l8.06-11.34a1,1,0,0,1,.81-.46l9.32-.06a1.08,1.08,0,0,0,1-1.09v-4.26a1.08,1.08,0,0,1,1-1.09h36.67A1,1,0,0,1,1337.43,422.85Z"/></g><path class="cls-10" d="M1296,430.62v9a.64.64,0,0,1-.63.64l-12.44-.24a.61.61,0,0,1-.46-1l5.82-9a.59.59,0,0,1,.52-.29l6.62.17A.69.69,0,0,1,1296,430.62Z"/><ellipse class="cls-10" cx="1324.54" cy="453.71" rx="5.99" ry="6.33"/><path class="cls-14" d="M1321,453.71a3.51,3.51,0,1,0,3.51-3.68A3.6,3.6,0,0,0,1321,453.71Z"/><path class="cls-10" d="M1298.74,452.16c.17,0,.29-6.86.29-15.2s-.12-15.2-.29-15.2-.29,6.85-.29,15.2S1298.57,452.16,1298.74,452.16Z"/><ellipse class="cls-10" cx="1291.89" cy="453.71" rx="5.99" ry="6.33"/><path class="cls-16" d="M1288.32,453.71a3.51,3.51,0,1,0,3.51-3.68A3.6,3.6,0,0,0,1288.32,453.71Z"/><path class="cls-10" d="M1291.83,442.08c0,.17.86.29,1.9.29s1.9-.12,1.9-.29-.86-.29-1.9-.29A4,4,0,0,0,1291.83,442.08Z"/><path id="path352" class="cls-17" d="M1831.4,653.3h-72V424h72V653.3"/><path id="path354" class="cls-18" d="M1819.4,467.4h-18V438.6h18v28.8"/><path id="path356" class="cls-18" d="M1819.6,507.1h-18V478.4h18v28.7"/><path id="path358" class="cls-18" d="M1819.9,546.8h-18V518.1h18v28.7"/><path id="path360" class="cls-18" d="M1820.1,586.6h-18V557.9h18v28.7"/><path id="path362" class="cls-18" d="M1820.3,626.3h-18V597.6h18v28.7"/><path id="path364" class="cls-17" d="M1680,653.3h-72V528.4h72V653.3"/><g class="cls-19"><g id="g368"><path id="path382-2" data-name="path382" class="cls-17" d="M1773,653.3H1654.2V316.9H1773V653.3"/></g></g><path id="path384-2" data-name="path384" class="cls-2" d="M1697.7,348.7h-27.4V336.5h27.4v12.2"/><path id="path386-2" data-name="path386" class="cls-2" d="M1740.5,348.7h-27.4V336.5h27.4v12.2"/><g id="g388"><g class="cls-20"><g id="g390"><path id="path404-2" data-name="path404" class="cls-17" d="M1363.8,653.5h-76V572.2h76v81.3"/></g></g></g><path id="path406-2" data-name="path406" class="cls-2" d="M1308.7,588.3h-11.2V577h11.2v11.3"/><path id="path408-2" data-name="path408" class="cls-2" d="M1324.9,588.3h-11.2V577h11.2v11.3"/><path id="path410-2" data-name="path410" class="cls-2" d="M1308.7,604.1h-11.2V592.8h11.2v11.3"/><path id="path412-2" data-name="path412" class="cls-2" d="M1324.9,604.1h-11.2V592.8h11.2v11.3"/><path id="path414-2" data-name="path414" class="cls-2" d="M1309.6,622.2h-11.2V610.8h11.2v11.4"/><path id="path416-2" data-name="path416" class="cls-2" d="M1325.8,622.2h-11.2V610.8h11.2v11.4"/><path id="path418-2" data-name="path418" class="cls-2" d="M1309.6,638h-11.2V626.7h11.2V638"/><path id="path420-2" data-name="path420" class="cls-2" d="M1325.8,638h-11.2V626.7h11.2V638"/><path id="path422-2" data-name="path422" class="cls-21" d="M1295.1,653.3h-72V548.2h72V653.3"/><path id="path424-2" data-name="path424" class="cls-2" d="M1240.1,565.1h-11.2V553.8h11.2v11.3"/><path id="path426" class="cls-2" d="M1256.2,565.1H1245V553.8h11.2v11.3"/><path id="path428" class="cls-2" d="M1240.1,581h-11.2V569.7h11.2V581"/><path id="path430" class="cls-2" d="M1256.2,581H1245V569.7h11.2V581"/><path id="path432" class="cls-2" d="M1239.2,598.5H1228V587.2h11.2v11.3"/><path id="path434" class="cls-2" d="M1255.3,598.5h-11.2V587.2h11.2v11.3"/><path id="path436" class="cls-2" d="M1239.2,614.4H1228V603.1h11.2v11.3"/><path id="path438" class="cls-2" d="M1255.3,614.4h-11.2V603.1h11.2v11.3"/><path id="path464" class="cls-22" d="M1364.3,507.8h74.3V427h-36.8a37.62,37.62,0,0,0-37.5,37.7h0v43.1"/><path id="path466" class="cls-23" d="M1450.7,621.7H1328.2l-1.7-88.6a13.67,13.67,0,0,1,.7-4.5l25.3-72.3a14.47,14.47,0,0,1,13.8-9.4h84.5V621.7"/><path id="path468" class="cls-24" d="M1326.4,621.7h6.7a5.83,5.83,0,0,0,5.8-5.9V597.6a5.83,5.83,0,0,0-5.8-5.9h-6.7v30"/><path id="path470" class="cls-24" d="M1317.2,497.3h-3.9V483.6a20.32,20.32,0,0,1,20.2-20.4h32.9v3.9h-32.9a16.56,16.56,0,0,0-16.4,16.5v13.7"/><path id="path472" class="cls-24" d="M1314,525.5h3.5a9,9,0,0,0,9-9V497.7a9,9,0,0,0-9-9h-3.4a9,9,0,0,0-9,9v18.8a8.82,8.82,0,0,0,8.9,9"/><path id="path474" class="cls-25" d="M1308.5,517.2V497a4.74,4.74,0,0,1,4.8-4.8h4.8a4.87,4.87,0,0,1,4.8,4.8h0v20.2a4.74,4.74,0,0,1-4.8,4.8h-4.8a4.74,4.74,0,0,1-4.8-4.8h0"/><path id="path476" class="cls-24" d="M1353.5,528.9h63.8a7.17,7.17,0,0,0,7.2-7.2h0V468.8a7.17,7.17,0,0,0-7.2-7.2h-47.7a7.17,7.17,0,0,0-6.8,5.1l-16.1,52.9a7.21,7.21,0,0,0,4.8,9,6.45,6.45,0,0,0,2,.3"/><path id="path478" class="cls-26" d="M1355.5,490.6l-8.8,28.9a7.21,7.21,0,0,0,4.8,9,7.61,7.61,0,0,0,2.1.3h63.8a7.17,7.17,0,0,0,7.2-7.2h0v-31h-69.1"/><path id="path480" class="cls-26" d="M1345.3,620.2a35.5,35.5,0,1,0,35.5-35.8h0a35.64,35.64,0,0,0-35.5,35.8"/><path id="path482" class="cls-26" d="M1667.8,619.6c0,19.5,15.2,35.2,34,35.2s34-15.8,34-35.2-15.2-35.2-34-35.2-34,15.8-34,35.2"/><path id="path484" class="cls-27" d="M1450.6,572.7h348a12.06,12.06,0,0,0,12-12.1V356.7a12.06,12.06,0,0,0-12-12.1h-348a12.06,12.06,0,0,0-12,12.1V560.5a12.28,12.28,0,0,0,12,12.2"/><path id="path486" class="cls-28" d="M1800.5,563.4a.86.86,0,0,0,.8-.8h0V354.7a.79.79,0,0,0-.8-.8H1624.8V563.3h175.7"/><path id="path488" class="cls-26" d="M1800.5,409.5c.4,0,.8-.1.8-.2V354.1c0-.1-.3-.2-.8-.2H1624.8v55.6h175.7"/><path id="path490" class="cls-29" d="M1448.7,344.6h166.9v228H1448.7a10.05,10.05,0,0,1-10-10.1V354.7a10.11,10.11,0,0,1,10-10.1"/><path id="path492" class="cls-30" d="M1708.2,563.4h74.9V500.6h-74.9v62.8"/><path id="path494" class="cls-31" d="M1624.9,563.4h94.5V488.3h-94.5v75.1"/><path id="path496" class="cls-30" d="M1624.9,488.2h80.6V416.7h-80.6v71.5"/><path id="path498" class="cls-28" d="M1453.7,621.7h332.7V572.6H1453.7a11.1,11.1,0,0,0-11.1,11.2h0v26.6a11.06,11.06,0,0,0,11.1,11.3h0"/><path id="path500" class="cls-29" d="M1783.1,579.3H1620.6v36.6h162.5V579.3"/><path id="path502" class="cls-32" d="M1625.9,607.7h46.9V593.2h-46.9v14.5"/><path id="path504" class="cls-33" d="M1625.9,607.7h28.3V593.2h-28.3v14.5"/><path id="path506" class="cls-32" d="M1725.7,607.7h46.9V593.2h-46.9v14.5"/><path id="path508" class="cls-33" d="M1751.3,607.7h21.3V593.2h-21.3v14.5"/><path id="path510" class="cls-26" d="M1556.6,619.6c0,19.5,15.2,35.2,34,35.2s34-15.8,34-35.2-15.2-35.2-34-35.2-34,15.8-34,35.2"/><path id="path512" class="cls-24" d="M1546,618.7c0,20.6,15.2,37.3,34,37.3s34-16.7,34-37.3-15.2-37.3-34-37.3-34,16.7-34,37.3"/><path id="path514" class="cls-24" d="M1340.9,619.5c0,20.1,15.2,36.5,34,36.5s34-16.3,34-36.5-15.2-36.5-34-36.5-34,16.4-34,36.5"/><path id="path516" class="cls-28" d="M1358.2,618.7c0,10.1,7.5,18.4,16.7,18.4s16.7-8.2,16.7-18.4-7.5-18.3-16.7-18.3-16.7,8.1-16.7,18.3"/><path id="path518" class="cls-28" d="M1563.3,618.7c0,10.1,7.5,18.4,16.7,18.4s16.7-8.2,16.7-18.4-7.5-18.3-16.7-18.3-16.7,8.1-16.7,18.3"/><path id="path520" class="cls-28" d="M1726.8,395.1h-31.6a8.15,8.15,0,0,0,8.1,8.2h15.4a8.22,8.22,0,0,0,8.1-8.2h0"/><path id="path522" class="cls-34" d="M1517.8,634.1s2.7,2.6,2.7,3.6.2,11.4-.8,12.4-4.3,1.7-3.3,2.8c.8.8,6.7.7,10.7.4,1.1-.1,2.6-9.5,3.1-10.9.7-2,3.1-6.4,2.5-7.8-.3-.7-2.5-2.2-4.5-3.5a17.19,17.19,0,0,1-4.1-4.4l-6.3,7.4"/><path id="path524" class="cls-34" d="M1482.2,640.6l2.4,6.9a44.64,44.64,0,0,1,.9,4.8c0,3.7-16.4-3.2-12.7-4.8a3.88,3.88,0,0,0,1.5-2.6c.2-1.9-1.4-4.4-1.4-4.4l9.3.1"/><path id="path526" class="cls-24" d="M1459.5,510.2l-6,15.5s-3.9,37-1.6,59.1c1,9.3,21.4,58.8,21.4,58.8l10.2-1.5-13.6-58.7,5-22.5,7.1-44.4-22.5-6.3"/><path id="path528" class="cls-26" d="M1487.5,511.1l5.1,17.3,7.8,52.1,26.2,48.7s-4,6.1-8.2,7L1481.2,587,1461,525.3l.7-13.7,25.8-.5"/><path id="path530" class="cls-35" d="M1429.3,526.7c3.7-1.5,3.8-.8,4.3-1s5-7,5-7,13.1-20,13.8-21.1l4-24.6,12.6-1.3s-5.1,26.6-5.6,28-21.4,26.2-23.1,28.5c0,0-1.1,3.5-1.9,5.7a18.28,18.28,0,0,1-2.8,4.4,19.54,19.54,0,0,1-3.2,3.8c-1.7,1.6-.8-.7-.8-.7s2.7-3.6,2.4-3.8-1.6,1.9-3.5,3.7c-.5.5-1,.9-1.4,1.3-1.2,1.1-2.2.7-1.1-.7.5-.6,1-1.2,1.5-1.7a10.92,10.92,0,0,0,1.3-1.7c.5-.6.9-1.2,1.4-1.8-.1,0,0-.3-.6.1-.9,1-1.8,2-2.7,2.9a20.94,20.94,0,0,0-1.7,1.4,23.92,23.92,0,0,1-2.1,1.3c-.6-.5.6-1.9,1.4-2.5a12.09,12.09,0,0,1,1.6-1.6s2-2.6,1.7-2.9-6.4,5-6.9,4.5,1.3-2.1,1.3-2.1,1.1-.9,1.5-1.3,1.6-1.7,1.6-1.7,3.8-4.7,3.4-4.9a3.08,3.08,0,0,0-1.9-.3c-.3.2-.8.9-1.1,1.1a1.06,1.06,0,0,1-1.2-.2c-.3-.4,1-2,1-2a4.45,4.45,0,0,1,1.8-1.8"/><path id="path532" class="cls-36" d="M1453.8,480.5l14.5,1.5s.7-12.1.7-17.9c0-7-1-15.8-1.8-15.6-2.3.6-5.1,1.6-6.9,4.2-6.5,9.1-6.5,27.8-6.5,27.8"/><path id="path534" class="cls-24" d="M1528,631.1s-5.6,17.3-8,18.1c-.6.2-4.2,1.1-4.8,2.5v.1a1.54,1.54,0,0,0,1.2,1.7h11.7l2.3-11.2s3.4-8.3,3-9.1-5.3-2.2-5.4-2.1"/><path id="path536" class="cls-24" d="M1486.4,653.5l-1.8-6s-4,1.7-6,1.4a54.5,54.5,0,0,1-5.8-1.4c-7.9,2.6-14.3,3.9-13.2,6h26.8"/><path id="path538" class="cls-37" d="M1435.1,528.6a4.86,4.86,0,0,1-4.6,1.3,3,3,0,0,0,4.3-.9c.1-.1.2-.3.3-.4"/><path id="path540" class="cls-23" d="M1485.7,447.8s7.7,1.1,9.7,2.6c2.3,1.7,9.3,9.5,9.3,9.5s-14.6,42.2-14.1,49.7,2.2,18.6,2.2,18.6-28.4,1.8-39.2-2.5c0,0,3.4-17,3.4-21.5s1.9-49.1,3.3-51.5,4.1-3.7,9.3-4.8,16.1-.1,16.1-.1"/><path id="path542" class="cls-34" d="M1483.6,435.7l1.9,12.5s-5.7,6.6-9.8,5.3c-3.5-1.1-2.6-6-2.6-6s1.9-7,1.3-10.6,9.2-1.2,9.2-1.2"/><path id="path544" class="cls-37" d="M1474.4,436.9c-.6-3.5,9.2-1.2,9.2-1.2l.2,1a4.52,4.52,0,0,1-1.1,1.7,13.19,13.19,0,0,1-8.5,3.9,19.57,19.57,0,0,0,.2-5.4"/><path id="path546" class="cls-34" d="M1485.2,418c.3-.1,2.2,14.3-1.5,18.2s-10.8,5.2-13.4,2.1c-2.8-3.4-2.7-18.9,3-22.9s11.9,2.6,11.9,2.6"/><path id="path548" class="cls-26" d="M1475.5,407.7a15.75,15.75,0,0,1,8.3,4.7c2,.2,4.7,1.3,7.5,6,3.5,5.7.9,12.1-3.1,15.2s-4,6.7-4,6.7l-.6-1.8a9.38,9.38,0,0,1-.5-4.4,7.71,7.71,0,0,1,.7-2.6c1-2.1-2.1-3.5-2.9-5.2-.7-1.3-.7-4.4-1.7-6.6L1478,418s-2.8-2.2-5.6-1.6c-3,.7-2.6-9.8,3.1-8.7"/><path id="path550" class="cls-34" d="M1481.1,428.8c0,1.8.8,3.2,1.8,3.2s1.9-1.4,1.9-3.1-.8-3.2-1.8-3.2-1.9,1.4-1.9,3.1"/><path id="path552" class="cls-31" d="M1533.3,546.4h-57.4V496.3h57.4v50.1"/><path id="path554" class="cls-22" d="M1497.6,546.4h-21.7V496.3h21.7v50.1"/><path id="path556" class="cls-35" d="M1519.1,538.9c-.6-2.4-1.8-6-1.8-6,.1-3.1,2.8-37.8,2.5-39.3s-12-27.5-12-27.5l-9.8,9.3,11.3,23.6c.1,1.4,1,27,1,27s.5,7.9.1,8.4a26.86,26.86,0,0,0-3.1,4.4,7.22,7.22,0,0,0-.7,2.8s-.1,2.2.4,2.4a1,1,0,0,0,1.2-.6,9.85,9.85,0,0,0,.2-1.7,3.1,3.1,0,0,1,1.8-.9c.3,0,.3,2.7.1,5.2a2.14,2.14,0,0,0,1.7,2.1c.4.1.7-.3,1.1.2a4.12,4.12,0,0,0,2.2-.1,3.87,3.87,0,0,0,2.6,0l.3-.1a1.59,1.59,0,0,0,1.2-1.5v-2a17,17,0,0,0-.3-5.7"/><path id="path558" class="cls-23" d="M1514.2,475l-12.8,10.1s-5.7-5.5-8.5-11.5-2-24.8,1.1-23.9c6.8,1.7,20.2,25.3,20.2,25.3"/><path id="path560" class="cls-22" d="M1359.3,553.8h-16.7v-7.4h24.1a7.38,7.38,0,0,1-7.4,7.4h0"/><path id="path562" class="cls-31" d="M1843.5,653.5H1206.9c-1.7,0-3,.5-3,1.2h0c0,.7,1.3,1.2,3,1.2h636.6c1.7,0,3-.5,3-1.2h0c0-.6-1.4-1.2-3-1.2"/><path id="path576" class="cls-18" d="M1486.7,471.5h-10.8v-6.3h10.8v6.3"/></svg>