<?xml version="1.0" encoding="utf-8"?>
<!-- Generator: Adobe Illustrator 24.1.1, SVG Export Plug-In . SVG Version: 6.00 Build 0)  -->
<svg version="1.1" id="Layer_1" xmlns="http://www.w3.org/2000/svg" xmlns:xlink="http://www.w3.org/1999/xlink" x="0px" y="0px"
	 viewBox="0 0 1920 800" style="enable-background:new 0 0 1920 800;" xml:space="preserve">
<style type="text/css">
	.st0{fill:#FFFFFF;}
	.st1{fill:url(#SVGID_1_);}
	.st2{fill:#F6E8EE;}
	.st3{fill:#FAFAFA;}
	.st4{fill:#ECECEC;}
	.st5{fill:#E1E1E1;}
	.st6{fill:#EFCEDE;}
	.st7{fill:#F5F5F5;}
	.st8{fill:#F6DB6F;}
	.st9{fill:#1A2E35;}
	.st10{fill:#241B52;}
	.st11{fill:#FF4F5B;}
	.st12{fill:#F4A660;}
	.st13{fill:#FF8D14;}
	.st14{fill:#582E60;}
	.st15{fill:#EA6A00;}
	.st16{opacity:0.2;}
	.st17{fill:#375A64;}
	.st18{opacity:0.4;}
	.st19{fill:#FFBF9D;}
	.st20{opacity:0.3;}
	.st21{fill:#FF9A6C;}
	.st22{fill:none;stroke:#1A2E35;stroke-width:5.000000e-02;stroke-miterlimit:10;}
	.st23{font-family:'ArialMT';}
	.st24{font-size:7.4947px;}
	.st25{font-size:7.4085px;}
</style>
<g>
	<g>
		<rect x="0.6" y="0.7" class="st0" width="1919.5" height="800"/>
		
			<linearGradient id="SVGID_1_" gradientUnits="userSpaceOnUse" x1="1035.4119" y1="401.7047" x2="1919.6" y2="401.7047" gradientTransform="matrix(1 0 0 1 1 -2.01)">
			<stop  offset="0" style="stop-color:#FAE5E7"/>
			<stop  offset="1" style="stop-color:#ECEEFA"/>
		</linearGradient>
		<path class="st1" d="M1547.9,797.5c0,0,202-13,371.7-108l1-686.6l-884.2-1c0,0,436.4,188.7,185.2,520.8
			c-18.8,24.5-30.6,53.8-34.4,84.5c-8.9,78,31.8,195.1,360.3,189.9L1547.9,797.5z"/>
	</g>
	<g>
		<g>
			<rect x="1733.3" y="423.4" class="st2" width="117.4" height="95.3"/>
		</g>
	</g>
	<g>
		<g>
			<g>
				<path class="st0" d="M1821.3,517.9c-0.2,0-0.3-21.2-0.3-47.4c0-26.2,0.1-47.4,0.3-47.4c0.2,0,0.3,21.2,0.3,47.4
					C1821.6,496.7,1821.5,517.9,1821.3,517.9z"/>
			</g>
		</g>
	</g>
	<g>
		<g>
			<rect x="1831.8" y="496.9" class="st3" width="9" height="10.8"/>
		</g>
	</g>
	<g>
		<g>
			<rect x="1769.1" y="423.7" class="st0" width="13.4" height="20.3"/>
		</g>
	</g>
	<g>
		<g>
			<rect x="1769.1" y="498" class="st4" width="13.4" height="20.3"/>
		</g>
	</g>
	<g>
		<g>
			<rect x="1688.5" y="520" class="st2" width="193.7" height="157.3"/>
		</g>
	</g>
	<g>
		<g>
			<g>
				<path class="st5" d="M1737.1,676.1c0.2,0,0.4-35.1,0.4-78.3s-0.2-78.3-0.4-78.3c-0.2,0-0.4,35.1-0.4,78.3
					S1736.9,676.1,1737.1,676.1z"/>
			</g>
		</g>
	</g>
	<g>
		<g>
			<rect x="1705" y="641.5" class="st3" width="14.9" height="17.7"/>
		</g>
	</g>
	<g>
		<g>
			<rect x="1801.2" y="520.3" class="st6" width="22.1" height="33.6"/>
		</g>
	</g>
	<g>
		<g>
			<rect x="1801.2" y="643.3" class="st5" width="22.1" height="33.6"/>
		</g>
	</g>
	<g>
		<g>
			<g>
				<g>
					<path class="st4" d="M1537.2,243c0,0.2,1.3,0.3,2.8,0.3c1.6,0,2.8-0.1,2.8-0.3s-1.3-0.3-2.8-0.3
						C1538.4,242.7,1537.2,242.8,1537.2,243z"/>
				</g>
			</g>
		</g>
		<g>
			<g>
				<g>
					<path class="st4" d="M1525.9,243c0,0.2,1.3,0.3,2.8,0.3c1.6,0,2.8-0.1,2.8-0.3s-1.3-0.3-2.8-0.3
						C1527.2,242.7,1525.9,242.8,1525.9,243z"/>
				</g>
			</g>
		</g>
		<g>
			<g>
				<g>
					<path class="st4" d="M1514.6,243c0,0.2,1.3,0.3,2.8,0.3c1.6,0,2.8-0.1,2.8-0.3s-1.3-0.3-2.8-0.3S1514.6,242.8,1514.6,243z"/>
				</g>
			</g>
		</g>
		<g>
			<g>
				<g>
					<path class="st4" d="M1503.4,243c0,0.2,1.3,0.3,2.8,0.3c1.6,0,2.8-0.1,2.8-0.3s-1.3-0.3-2.8-0.3S1503.4,242.8,1503.4,243z"/>
				</g>
			</g>
		</g>
		<g>
			<g>
				<g>
					<path class="st4" d="M1492.1,243c0,0.2,1.3,0.3,2.8,0.3c1.6,0,2.8-0.1,2.8-0.3s-1.3-0.3-2.8-0.3S1492.1,242.8,1492.1,243z"/>
				</g>
			</g>
		</g>
		<g>
			<g>
				<g>
					<path class="st4" d="M1480.8,243c0,0.2,1.3,0.3,2.8,0.3c1.6,0,2.8-0.1,2.8-0.3s-1.3-0.3-2.8-0.3S1480.8,242.8,1480.8,243z"/>
				</g>
			</g>
		</g>
		<g>
			<g>
				<g>
					<path class="st4" d="M1469.5,243c0,0.2,1.3,0.3,2.8,0.3c1.6,0,2.8-0.1,2.8-0.3s-1.3-0.3-2.8-0.3
						C1470.8,242.7,1469.5,242.8,1469.5,243z"/>
				</g>
			</g>
		</g>
		<g>
			<g>
				<g>
					<path class="st4" d="M1458.2,243c0,0.2,1.3,0.3,2.8,0.3c1.6,0,2.8-0.1,2.8-0.3s-1.3-0.3-2.8-0.3
						C1459.5,242.7,1458.2,242.8,1458.2,243z"/>
				</g>
			</g>
		</g>
		<g>
			<g>
				<g>
					<path class="st4" d="M1447.1,243c0,0.2,1.3,0.3,2.8,0.3c1.6,0,2.8-0.1,2.8-0.3s-1.3-0.3-2.8-0.3
						C1448.3,242.7,1447.1,242.8,1447.1,243z"/>
				</g>
			</g>
		</g>
		<g>
			<g>
				<g>
					<path class="st4" d="M1435.8,243c0,0.2,1.3,0.3,2.8,0.3c1.6,0,2.8-0.1,2.8-0.3s-1.3-0.3-2.8-0.3
						C1437,242.7,1435.8,242.8,1435.8,243z"/>
				</g>
			</g>
		</g>
		<g>
			<g>
				<g>
					<path class="st4" d="M1424.5,243c0,0.2,1.3,0.3,2.8,0.3c1.6,0,2.8-0.1,2.8-0.3s-1.3-0.3-2.8-0.3
						C1425.7,242.7,1424.5,242.8,1424.5,243z"/>
				</g>
			</g>
		</g>
		<g>
			<g>
				<g>
					<path class="st4" d="M1413.2,243c0,0.2,1.3,0.3,2.8,0.3c1.6,0,2.8-0.1,2.8-0.3s-1.3-0.3-2.8-0.3
						C1414.4,242.7,1413.2,242.8,1413.2,243z"/>
				</g>
			</g>
		</g>
		<g>
			<g>
				<g>
					<path class="st4" d="M1401.9,243c0,0.2,1.3,0.3,2.8,0.3c1.6,0,2.8-0.1,2.8-0.3s-1.3-0.3-2.8-0.3
						C1403.2,242.7,1401.9,242.8,1401.9,243z"/>
				</g>
			</g>
		</g>
		<g>
			<g>
				<g>
					<path class="st4" d="M1390.7,243c0,0.2,1.3,0.3,2.8,0.3c1.6,0,2.8-0.1,2.8-0.3s-1.3-0.3-2.8-0.3
						C1392,242.7,1390.7,242.8,1390.7,243z"/>
				</g>
			</g>
		</g>
		<g>
			<g>
				<g>
					<path class="st4" d="M1379.4,243c0,0.2,1.3,0.3,2.8,0.3c1.6,0,2.8-0.1,2.8-0.3s-1.3-0.3-2.8-0.3
						C1380.7,242.7,1379.4,242.8,1379.4,243z"/>
				</g>
			</g>
		</g>
		<g>
			<g>
				<g>
					<path class="st4" d="M1368.1,243c0,0.2,1.3,0.3,2.8,0.3c1.6,0,2.8-0.1,2.8-0.3s-1.3-0.3-2.8-0.3S1368.1,242.8,1368.1,243z"/>
				</g>
			</g>
		</g>
		<g>
			<g>
				<g>
					<path class="st4" d="M1356.8,243c0,0.2,1.3,0.3,2.8,0.3c1.6,0,2.8-0.1,2.8-0.3s-1.3-0.3-2.8-0.3
						C1358.1,242.7,1356.8,242.8,1356.8,243z"/>
				</g>
			</g>
		</g>
		<g>
			<g>
				<g>
					<path class="st4" d="M1345.5,243c0,0.2,1.3,0.3,2.8,0.3c1.6,0,2.8-0.1,2.8-0.3s-1.3-0.3-2.8-0.3S1345.5,242.8,1345.5,243z"/>
				</g>
			</g>
		</g>
		<g>
			<g>
				<g>
					<path class="st4" d="M1334.3,243c0,0.2,1.3,0.3,2.8,0.3c1.6,0,2.8-0.1,2.8-0.3s-1.3-0.3-2.8-0.3
						C1335.6,242.7,1334.3,242.8,1334.3,243z"/>
				</g>
			</g>
		</g>
		<g>
			<g>
				<g>
					<path class="st4" d="M1323.1,243c0,0.2,1.3,0.3,2.8,0.3c1.6,0,2.8-0.1,2.8-0.3s-1.3-0.3-2.8-0.3
						C1324.3,242.7,1323.1,242.8,1323.1,243z"/>
				</g>
			</g>
		</g>
		<g>
			<g>
				<g>
					<path class="st4" d="M1311.8,243c0,0.2,1.3,0.3,2.8,0.3c1.6,0,2.8-0.1,2.8-0.3s-1.3-0.3-2.8-0.3
						C1313,242.7,1311.8,242.8,1311.8,243z"/>
				</g>
			</g>
		</g>
		<g>
			<g>
				<g>
					<path class="st4" d="M1300.5,243c0,0.2,1.3,0.3,2.8,0.3c1.6,0,2.8-0.1,2.8-0.3s-1.3-0.3-2.8-0.3
						C1301.7,242.7,1300.5,242.8,1300.5,243z"/>
				</g>
			</g>
		</g>
		<g>
			<g>
				<g>
					<path class="st4" d="M1289.3,243c0,0.2,1.3,0.3,2.8,0.3c1.6,0,2.8-0.1,2.8-0.3s-1.3-0.3-2.8-0.3
						C1290.4,242.7,1289.3,242.8,1289.3,243z"/>
				</g>
			</g>
		</g>
		<g>
			<g>
				<g>
					<path class="st4" d="M1286.4,251.8c0.2,0,0.3-1.3,0.3-2.9c0-1.6-0.1-3-0.3-3c-0.2,0-0.3,1.3-0.3,3
						C1286.1,250.4,1286.2,251.8,1286.4,251.8z"/>
				</g>
			</g>
		</g>
		<g>
			<g>
				<g>
					<path class="st4" d="M1286.4,263.7c0.2,0,0.3-1.3,0.3-2.9c0-1.6-0.1-3-0.3-3c-0.2,0-0.3,1.3-0.3,3
						C1286.1,262.3,1286.2,263.7,1286.4,263.7z"/>
				</g>
			</g>
		</g>
		<g>
			<g>
				<g>
					<path class="st4" d="M1286.4,275.5c0.2,0,0.3-1.3,0.3-2.9c0-1.6-0.1-3-0.3-3c-0.2,0-0.3,1.3-0.3,3
						C1286.1,274.1,1286.2,275.5,1286.4,275.5z"/>
				</g>
			</g>
		</g>
		<g>
			<g>
				<g>
					<path class="st4" d="M1286.4,287.4c0.2,0,0.3-1.3,0.3-2.9c0-1.6-0.1-3-0.3-3c-0.2,0-0.3,1.3-0.3,3
						C1286.1,286,1286.2,287.4,1286.4,287.4z"/>
				</g>
			</g>
		</g>
		<g>
			<g>
				<g>
					<path class="st4" d="M1286.4,299.2c0.2,0,0.3-1.3,0.3-2.9c0-1.6-0.1-3-0.3-3c-0.2,0-0.3,1.3-0.3,3
						C1286.1,297.8,1286.2,299.2,1286.4,299.2z"/>
				</g>
			</g>
		</g>
		<g>
			<g>
				<g>
					<path class="st4" d="M1284.2,308.8c0,0.1,0.9,0.3,2.2,0.3h0.3v-0.3c0-0.2,0-0.4,0-0.6c0-1.6-0.1-3-0.3-3c-0.2,0-0.3,1.3-0.3,3
						c0,0.2,0,0.4,0,0.6l0.3-0.3C1285.1,308.5,1284.2,308.6,1284.2,308.8z"/>
				</g>
			</g>
		</g>
		<g>
			<g>
				<g>
					<path class="st4" d="M1272.9,308.8c0,0.2,1.3,0.3,2.8,0.3c1.6,0,2.8-0.1,2.8-0.3c0-0.2-1.3-0.3-2.8-0.3
						C1274.2,308.5,1272.9,308.6,1272.9,308.8z"/>
				</g>
			</g>
		</g>
		<g>
			<g>
				<g>
					<path class="st4" d="M1261.6,308.8c0,0.2,1.3,0.3,2.8,0.3c1.6,0,2.8-0.1,2.8-0.3c0-0.2-1.3-0.3-2.8-0.3
						C1262.9,308.5,1261.6,308.6,1261.6,308.8z"/>
				</g>
			</g>
		</g>
		<g>
			<g>
				<g>
					<path class="st4" d="M1250.3,308.8c0,0.2,1.3,0.3,2.8,0.3c1.6,0,2.8-0.1,2.8-0.3c0-0.2-1.3-0.3-2.8-0.3
						C1251.6,308.5,1250.3,308.6,1250.3,308.8z"/>
				</g>
			</g>
		</g>
		<g>
			<g>
				<g>
					<path class="st4" d="M1239,308.8c0,0.2,1.3,0.3,2.8,0.3c1.6,0,2.8-0.1,2.8-0.3c0-0.2-1.3-0.3-2.8-0.3
						C1240.3,308.5,1239,308.6,1239,308.8z"/>
				</g>
			</g>
		</g>
		<g>
			<g>
				<g>
					<path class="st4" d="M1227.8,308.8c0,0.2,1.3,0.3,2.8,0.3c1.6,0,2.8-0.1,2.8-0.3c0-0.2-1.3-0.3-2.8-0.3
						C1229.1,308.5,1227.8,308.6,1227.8,308.8z"/>
				</g>
			</g>
		</g>
		<g>
			<g>
				<g>
					<path class="st4" d="M1216.5,308.8c0,0.2,1.3,0.3,2.8,0.3c1.6,0,2.8-0.1,2.8-0.3c0-0.2-1.3-0.3-2.8-0.3
						C1217.8,308.5,1216.5,308.6,1216.5,308.8z"/>
				</g>
			</g>
		</g>
		<g>
			<g>
				<g>
					<path class="st4" d="M1205.3,308.8c0,0.2,1.3,0.3,2.8,0.3c1.6,0,2.8-0.1,2.8-0.3c0-0.2-1.3-0.3-2.8-0.3
						C1206.5,308.5,1205.3,308.6,1205.3,308.8z"/>
				</g>
			</g>
		</g>
		<g>
			<g>
				<g>
					<path class="st4" d="M1194,308.8c0,0.2,1.3,0.3,2.8,0.3c1.6,0,2.8-0.1,2.8-0.3c0-0.2-1.3-0.3-2.8-0.3
						C1195.2,308.5,1194,308.6,1194,308.8z"/>
				</g>
			</g>
		</g>
		<g>
			<g>
				<g>
					<path class="st4" d="M1189.6,316c0.2,0,0.3-1.3,0.3-2.9c0-1.6-0.1-3-0.3-3s-0.3,1.3-0.3,3C1189.3,314.6,1189.4,316,1189.6,316z
						"/>
				</g>
			</g>
		</g>
		<g>
			<g>
				<g>
					<path class="st4" d="M1189.6,327.9c0.2,0,0.3-1.3,0.3-2.9c0-1.6-0.1-3-0.3-3s-0.3,1.3-0.3,3
						C1189.3,326.5,1189.4,327.9,1189.6,327.9z"/>
				</g>
			</g>
		</g>
		<g>
			<g>
				<g>
					<path class="st4" d="M1189.6,339.7c0.2,0,0.3-1.3,0.3-2.9c0-1.6-0.1-3-0.3-3s-0.3,1.3-0.3,3
						C1189.3,338.3,1189.4,339.7,1189.6,339.7z"/>
				</g>
			</g>
		</g>
		<g>
			<g>
				<g>
					<path class="st4" d="M1189.6,351.6c0.2,0,0.3-1.3,0.3-2.9c0-1.6-0.1-3-0.3-3s-0.3,1.3-0.3,3
						C1189.3,350.2,1189.4,351.6,1189.6,351.6z"/>
				</g>
			</g>
		</g>
		<g>
			<g>
				<g>
					<path class="st4" d="M1189.6,363.5c0.2,0,0.3-1.3,0.3-2.9c0-1.6-0.1-3-0.3-3s-0.3,1.3-0.3,3
						C1189.3,362.1,1189.4,363.5,1189.6,363.5z"/>
				</g>
			</g>
		</g>
		<g>
			<g>
				<g>
					<path class="st4" d="M1189.6,375.3c0.2,0,0.3-1.3,0.3-2.9c0-1.6-0.1-3-0.3-3s-0.3,1.3-0.3,3
						C1189.3,374,1189.4,375.3,1189.6,375.3z"/>
				</g>
			</g>
		</g>
		<g>
			<g>
				<g>
					<path class="st4" d="M1189.6,387.2c0.2,0,0.3-1.3,0.3-2.9c0-1.6-0.1-3-0.3-3s-0.3,1.3-0.3,3
						C1189.3,385.9,1189.4,387.2,1189.6,387.2z"/>
				</g>
			</g>
		</g>
		<g>
			<g>
				<g>
					<path class="st4" d="M1189.6,399c0.2,0,0.3-1.3,0.3-2.9c0-1.6-0.1-3-0.3-3s-0.3,1.3-0.3,3C1189.3,397.7,1189.4,399,1189.6,399z
						"/>
				</g>
			</g>
		</g>
		<g>
			<g>
				<g>
					<path class="st4" d="M1189.6,410.9c0.2,0,0.3-1.3,0.3-2.9c0-1.6-0.1-3-0.3-3s-0.3,1.3-0.3,3
						C1189.3,409.6,1189.4,410.9,1189.6,410.9z"/>
				</g>
			</g>
		</g>
		<g>
			<g>
				<g>
					<path class="st4" d="M1189.6,422.8c0.2,0,0.3-1.3,0.3-2.9c0-1.6-0.1-3-0.3-3s-0.3,1.3-0.3,3
						C1189.3,421.5,1189.4,422.8,1189.6,422.8z"/>
				</g>
			</g>
		</g>
		<g>
			<g>
				<g>
					<path class="st4" d="M1189.6,434.6c0.2,0,0.3-1.3,0.3-2.9c0-1.6-0.1-3-0.3-3s-0.3,1.3-0.3,3
						C1189.3,433.3,1189.4,434.6,1189.6,434.6z"/>
				</g>
			</g>
		</g>
	</g>
	<g>
		<g>
			<g>
				<g>
					<path class="st4" d="M1478,263.2c0,0,8.8-5.1,17.4,16.7c8.6,21.8,11.5,34.2,11.5,34.2s2.4,4.6,5.4,2c3.1-2.6,7.6-10.5,12.4-8.5
						c4.9,1.9,6.2,8,4.5,16.6c-1.6,8.6-4.5,27.6-4.7,29.3s0.5,4.3,2.9,2.8c2.4-1.5,16.5-15.5,22.4-8.1c6,7.4-2.3,30.7-3.2,33.3
						c-0.9,2.5-0.5,3.7,0.7,4.4c1.1,0.7,5.4-4.4,9.6-8.2c4.2-3.8,9.6-7.5,12.7-2.9c3.1,4.6,2.9,22.5-15.5,50.2l-9.3,12.3l-14.8-2.1
						c-31.4-6.5-43.4-19.3-44.2-24.8c-0.8-5.5,5.6-6.9,11.1-7.1c5.5-0.3,12.1,0.3,12.4-1c0.3-1.4-0.2-2.5-2.5-3.7
						c-2.3-1.2-23.6-12-24.3-21.6c-0.6-9.6,18.8-9.8,21.5-10.6s1.5-3.1,0.2-4.1c-1.3-1-16-12.7-22.9-17.7s-10-10.3-7.7-15.3
						c2.2-4.8,10.6-2.5,14.6-2.9c4-0.4,2.6-5.4,2.6-5.4s-6.1-11.1-14.3-33c-8.2-21.9,1.7-24.6,1.7-24.6"/>
				</g>
			</g>
		</g>
		<g>
			<g>
				<g>
					<g>
						<path class="st5" d="M1544.3,433.8c-6.1-16.1-14.7-38.2-24.2-62.6c-9.6-24.4-18.2-46.5-24.4-62.6c-3.1-8-5.6-14.5-7.3-19
							c-0.9-2.2-1.5-3.9-2-5.1c-0.2-0.6-0.4-1-0.5-1.3c-0.1-0.3-0.2-0.4-0.2-0.4s0,0.2,0.1,0.5c0.1,0.3,0.3,0.8,0.5,1.4
							c0.4,1.2,1.1,2.9,1.9,5.2c1.7,4.5,4.1,11.1,7.1,19.1c6.1,16.1,14.7,38.2,24.2,62.6c9.6,24.4,18.2,46.5,24.4,62.6"/>
					</g>
				</g>
			</g>
		</g>
		<g>
			<g>
				<g>
					<g>
						<path class="st5" d="M1518.7,318.6c0,0-0.2,0.4-0.5,1c-0.3,0.7-0.6,1.6-1.1,2.9c-0.9,2.4-2,5.8-3.1,9.6
							c-1.1,3.7-2.1,7-2.9,9.6c-0.4,1.1-0.7,2.1-0.9,2.9c-0.2,0.7-0.3,1.1-0.3,1.1s0.2-0.3,0.5-1c0.3-0.7,0.6-1.6,1.1-2.9
							c0.8-2.4,1.9-5.8,3.1-9.6c1.1-3.7,2.2-7,3-9.6c0.4-1.1,0.7-2.1,0.9-2.9C1518.7,319,1518.8,318.6,1518.7,318.6z"/>
					</g>
				</g>
			</g>
		</g>
		<g>
			<g>
				<g>
					<g>
						<path class="st5" d="M1508.7,346c0-0.1-6.5-2.8-14.7-6c-8.2-3.2-14.8-5.7-14.9-5.5c0,0.1,6.5,2.8,14.7,6
							C1502,343.7,1508.6,346.2,1508.7,346z"/>
					</g>
				</g>
			</g>
		</g>
		<g>
			<g>
				<g>
					<g>
						<path class="st5" d="M1524.9,382.8c0,0-0.4-0.1-1.1-0.2c-0.8-0.1-1.8-0.1-3-0.2c-2.5-0.2-6-0.5-9.8-1c-3.8-0.5-7.3-1-9.8-1.4
							c-1.2-0.2-2.1-0.3-3-0.5c-0.7-0.1-1.1-0.2-1.1-0.1c0,0,0.4,0.1,1.1,0.3c0.7,0.2,1.7,0.4,2.9,0.6c2.5,0.5,5.9,1.1,9.8,1.6
							c3.8,0.5,7.3,0.7,9.9,0.8c1.3,0,2.3,0.1,3,0.1C1524.5,382.9,1524.9,382.9,1524.9,382.8z"/>
					</g>
				</g>
			</g>
		</g>
		<g>
			<g>
				<g>
					<g>
						<path class="st5" d="M1539.2,360.1c0,0-0.3,0.3-0.7,0.8c-0.4,0.5-1,1.3-1.6,2.3c-1.4,2-3.2,4.8-5.2,7.8
							c-2,3.1-3.8,5.9-5.1,7.9c-0.6,1-1.2,1.9-1.5,2.4c-0.3,0.6-0.5,0.9-0.5,0.9s0.3-0.3,0.7-0.8c0.4-0.5,1-1.3,1.6-2.3
							c1.4-2,3.2-4.8,5.2-7.8c2-3.1,3.8-5.9,5.1-7.9c0.6-1,1.2-1.9,1.5-2.4C1539.1,360.5,1539.3,360.1,1539.2,360.1z"/>
					</g>
				</g>
			</g>
		</g>
		<g>
			<g>
				<g>
					<g>
						<path class="st5" d="M1557.6,390.7c0,0-0.3,0.4-0.8,1.1c-0.6,0.8-1.3,1.8-2.1,3c-1.8,2.5-4.1,6.1-6.8,10.1
							c-2.6,3.9-5,7.5-6.6,10.2c-0.8,1.2-1.4,2.3-2,3.1c-0.5,0.7-0.7,1.2-0.7,1.2s0.3-0.4,0.8-1.1c0.6-0.8,1.3-1.8,2.1-3
							c1.8-2.5,4.1-6.1,6.8-10.1c2.6-3.9,5-7.5,6.6-10.2c0.8-1.2,1.4-2.3,2-3.1C1557.4,391.2,1557.6,390.8,1557.6,390.7z"/>
					</g>
				</g>
			</g>
		</g>
		<g>
			<g>
				<g>
					<g>
						<path class="st5" d="M1538.9,418.4c0,0-0.5-0.1-1.4-0.2c-1-0.1-2.3-0.3-3.8-0.4c-3.2-0.4-7.6-0.9-12.4-1.7
							c-4.8-0.7-9.2-1.5-12.4-2.1c-1.5-0.3-2.8-0.5-3.7-0.7c-0.9-0.2-1.4-0.2-1.4-0.2s0.5,0.2,1.3,0.4c0.9,0.2,2.1,0.5,3.7,0.9
							c3.1,0.7,7.5,1.5,12.4,2.2c4.8,0.7,9.3,1.2,12.5,1.5c1.6,0.1,2.9,0.2,3.8,0.3C1538.4,418.4,1538.9,418.4,1538.9,418.4z"/>
					</g>
				</g>
			</g>
		</g>
	</g>
	<g>
		<g>
			<g>
				<path class="st7" d="M1150,463.6c0-25.6,22.1-45.9,47.3-40.9c15.9,3.1,28.5,16.8,31.3,33.6c1.7,10.5-0.3,20.3-4.9,28.4l0,0
					l-0.1,0.2c-1.5,2.7-3.4,4.6-5.4,7.4l-23,32.1c-2.9,4-8.6,4-11.4,0l-22.7-31.6c0,0-4.2-5.3-5.8-8l-0.1-0.1l0,0
					C1152,478.4,1150,471.3,1150,463.6z M1189.6,481.8c9.6,0,17.5-8.2,17.5-18.3c0-10.2-7.8-18.3-17.5-18.3
					c-9.6,0-17.5,8.2-17.5,18.3C1172.2,473.5,1180,481.8,1189.6,481.8z"/>
			</g>
		</g>
	</g>
	<g>
		<g>
			<g>
				<path class="st7" d="M1439.8,344.7v49c0,1-0.8,1.9-1.8,1.9h-97.6c-1,0-1.8-0.9-1.8-1.9l0.2-18c0-0.4,0.1-0.8,0.4-1.1l14-19.7
					c0.3-0.5,0.9-0.8,1.4-0.8l16.2-0.1c1,0,1.8-0.9,1.8-1.9v-7.4c0-1,0.8-1.9,1.8-1.9h63.7C1439,342.8,1439.8,343.6,1439.8,344.7z"
					/>
			</g>
		</g>
		<g>
			<g>
				<path class="st4" d="M1367.9,358.2v15.7c0,0.6-0.5,1.1-1.1,1.1l-21.6-0.4c-0.8,0-1.3-1-0.8-1.7l10.1-15.7
					c0.2-0.3,0.5-0.5,0.9-0.5l11.5,0.3C1367.5,357.1,1367.9,357.6,1367.9,358.2z"/>
			</g>
		</g>
		<g>
			<g>
				<rect x="1336.6" y="397.1" class="st7" width="105.2" height="3.4"/>
			</g>
		</g>
		<g>
			<g>
				<ellipse class="st4" cx="1417.4" cy="398.3" rx="10.4" ry="11"/>
			</g>
		</g>
		<g>
			<g>
				<path class="st3" d="M1411.2,398.3c0,3.5,2.7,6.4,6.1,6.4s6.1-2.9,6.1-6.4c0-3.5-2.7-6.4-6.1-6.4S1411.2,394.8,1411.2,398.3z"/>
			</g>
		</g>
		<g>
			<g>
				<g>
					<path class="st4" d="M1372.6,395.6c0.3,0,0.5-11.9,0.5-26.4c0-14.6-0.2-26.4-0.5-26.4c-0.3,0-0.5,11.9-0.5,26.4
						C1372.1,383.8,1372.3,395.6,1372.6,395.6z"/>
				</g>
			</g>
		</g>
		<g>
			<g>
				<g>
					<ellipse class="st4" cx="1360.7" cy="398.3" rx="10.4" ry="11"/>
				</g>
			</g>
			<g>
				<g>
					<path class="st3" d="M1354.5,398.3c0,3.5,2.7,6.4,6.1,6.4c3.4,0,6.1-2.9,6.1-6.4c0-3.5-2.7-6.4-6.1-6.4
						C1357.2,391.9,1354.5,394.8,1354.5,398.3z"/>
				</g>
			</g>
		</g>
		<g>
			<g>
				<g>
					<path class="st4" d="M1360.6,378.1c0,0.3,1.5,0.5,3.3,0.5c1.8,0,3.3-0.2,3.3-0.5s-1.5-0.5-3.3-0.5
						C1362.1,377.6,1360.6,377.9,1360.6,378.1z"/>
				</g>
			</g>
		</g>
	</g>
	<g>
		<g>
			<g>
				<g>
					<path class="st8" d="M1761.9,672c-15.2-11.1-18.7-31.8-18.2-50.4c0.1-3.1-0.2-6.3,1.1-9.1c1.4-2.7,4.7-4.6,7.3-3.3
						c2.2,1.1,3.2,3.7,4.4,5.9c1.6,2.9,4.1,5.3,6.9,6.9c1.9,1,4.2,1.6,6.1,0.6c2.5-1.5,2.8-5.2,2.8-8.2c-0.1-5.7-0.1-11.5-0.2-17.3
						c0-3.1,0-6.2,0.9-9.1c0.9-2.9,2.9-5.6,5.7-6.5c2.8-0.8,6.3,0.8,6.9,3.8c0.2,1.2,0,2.5,0.1,3.8c0.1,1.3,0.7,2.7,1.8,3
						c1.2,0.4,2.3-0.5,3.2-1.4c3-3.1,5.1-7.1,7-11.2c1.9-4,3.8-8,6.5-11.5s6.5-6.1,10.7-6.3c4.2-0.3,8.7,2.4,9.8,6.7
						s-1.3,8.7-3.9,12.3c-3.9,5.2-8.5,9.8-13.6,13.7c-0.9,0.7-1.9,1.4-2.3,2.6c-0.6,2,1.2,4.1,3.2,4.7c2.2,0.8,4.6,0.5,6.9,0.8
						s4.8,1.3,5.6,3.6c1.2,3.1-1.3,6.4-3.7,8.6c-4.9,4.3-10.6,7.8-16.6,10.2c-2.2,0.8-4.4,1.6-6.2,3.2c-1.7,1.6-2.8,4.4-1.7,6.5
						c1.1,2.2,3.8,2.8,6,2.4c2.3-0.4,4.3-1.7,6.4-2.6c4-1.6,9.2-1.3,11.8,2.3c1.7,2.4,1.9,5.7,1,8.6c-0.8,2.9-2.6,5.3-4.4,7.6
						c-6.4,8-14.7,14.5-24.1,17.9C1779.9,674.6,1771.2,675.6,1761.9,672"/>
				</g>
			</g>
		</g>
	</g>
	<g>
		<g>
			<g>
				<g>
					<g>
						<path class="st9" d="M1762.9,677.2c0.6-7.3,0.9-7.5,3.5-16.9c2.6-9.3,6.2-19.4,10.3-29.8c1-2.6,2.1-5.1,3.1-7.6s2-5,3.2-7.3
							c2.2-4.7,4.8-9.1,7.3-13.3c2.5-4.1,5-7.8,7.4-11.5c2.4-3.5,4.7-6.7,6.9-9.6c4.4-5.7,8.4-9.9,11.3-12.7
							c1.4-1.4,2.6-2.4,3.4-3.1c0.4-0.3,0.7-0.6,0.9-0.8c0.2-0.2,0.3-0.3,0.3-0.2c0,0-0.1,0.1-0.3,0.3c-0.2,0.2-0.5,0.5-0.9,0.8
							c-0.8,0.7-1.9,1.8-3.3,3.2c-2.8,2.8-6.8,7-11.2,12.8c-2.2,2.9-4.4,6.1-6.8,9.6c-2.4,3.5-4.9,7.3-7.3,11.5
							c-2.5,4.1-5,8.4-7.2,13.2c-1.1,2.4-2.1,4.8-3.1,7.3s-2,5-3.1,7.6c-4.1,10.4-7.8,20.4-10.4,29.7c-2.6,9.3-3,9.4-3.6,16.8"/>
					</g>
				</g>
			</g>
		</g>
	</g>
	<g>
		<g>
			<g>
				<g>
					<g>
						<path class="st9" d="M1783.2,615.5c0,0-0.1-0.5-0.3-1.3c-0.2-0.8-0.3-2.1-0.6-3.6c-0.4-3.1-0.9-7.3-1.4-12.1
							c-0.5-4.7-1-8.9-1.5-12c-0.2-1.5-0.4-2.7-0.6-3.6c-0.1-0.8-0.2-1.3-0.2-1.3s0.2,0.4,0.4,1.3c0.2,0.8,0.5,2.1,0.7,3.6
							c0.6,3,1.1,7.3,1.6,12c0.5,4.6,0.9,8.8,1.2,12.1c0.2,1.4,0.3,2.7,0.4,3.6C1783.2,615,1783.3,615.5,1783.2,615.5z"/>
					</g>
				</g>
			</g>
		</g>
	</g>
	<g>
		<g>
			<g>
				<g>
					<g>
						<path class="st9" d="M1820.9,608c0,0-0.5,0.1-1.5,0.2c-1,0.1-2.4,0.2-4.1,0.4c-3.5,0.4-8.2,1.1-13.4,2.2s-9.9,2.2-13.3,3.2
							c-1.7,0.5-3,0.9-4,1.1c-0.9,0.3-1.5,0.4-1.5,0.4s0.5-0.2,1.4-0.6c0.9-0.3,2.3-0.8,3.9-1.3c3.3-1,8-2.3,13.3-3.3
							c5.2-1,10-1.7,13.5-2c1.7-0.2,3.1-0.2,4.1-0.3C1820.3,607.9,1820.8,607.9,1820.9,608z"/>
					</g>
				</g>
			</g>
		</g>
	</g>
	<g>
		<g>
			<g>
				<g>
					<g>
						<path class="st9" d="M1766.9,659.6c0,0-0.1-0.2-0.3-0.5c-0.2-0.4-0.4-0.9-0.7-1.4c-0.6-1.2-1.3-3.1-2.2-5.3
							c-1.8-4.5-4.2-10.9-6.7-17.9c-2.5-7-4.8-13.4-6.5-18c-0.9-2.2-1.6-4-2.1-5.4c-0.2-0.6-0.4-1.1-0.6-1.5
							c-0.1-0.3-0.2-0.5-0.2-0.5s0.1,0.2,0.3,0.5c0.2,0.4,0.4,0.9,0.7,1.4c0.6,1.2,1.3,3.1,2.2,5.3c1.8,4.5,4.2,10.9,6.7,17.9
							c2.5,7,4.8,13.4,6.5,18c0.9,2.2,1.6,4,2.1,5.4c0.2,0.6,0.4,1.1,0.6,1.5C1766.9,659.4,1766.9,659.6,1766.9,659.6z"/>
					</g>
				</g>
			</g>
		</g>
	</g>
	<g>
		<g>
			<g>
				<g>
					<g>
						<path class="st9" d="M1816.9,642.5c0,0-0.2,0.1-0.5,0.2c-0.4,0.1-0.9,0.3-1.5,0.5c-1.3,0.5-3.2,1.1-5.4,1.8
							c-4.5,1.6-10.8,3.8-17.7,6.2c-6.9,2.5-13.2,4.6-17.7,6.1c-2.3,0.7-4.1,1.3-5.4,1.7c-0.6,0.2-1.1,0.3-1.5,0.4
							c-0.3,0.1-0.5,0.1-0.5,0.1s0.2-0.1,0.5-0.2c0.4-0.1,0.9-0.3,1.5-0.5c1.3-0.5,3.2-1.1,5.4-1.8c4.5-1.6,10.8-3.8,17.7-6.2
							c6.9-2.5,13.1-4.6,17.7-6.1c2.3-0.7,4.1-1.3,5.4-1.7c0.6-0.2,1.1-0.3,1.5-0.4C1816.7,642.5,1816.9,642.5,1816.9,642.5z"/>
					</g>
				</g>
			</g>
		</g>
	</g>
	<g>
		<g>
			<g>
				<g>
					<g>
						<g>
							<g>
								<g>
									<g>
										<g>
											<g>
												<path class="st10" d="M1578.9,677.2h156.8c19-0.1,34.9-17.1,34.9-37.1l-1.7-415.7c-0.1-20-15.5-36.1-34.4-36l-157.6,0.8
													c-19,0.1-34.2,16.3-34.1,36.3l1.7,415.7C1544.5,661.3,1560,677.3,1578.9,677.2z"/>
											</g>
										</g>
									</g>
								</g>
							</g>
						</g>
					</g>
				</g>
			</g>
		</g>
	</g>
	<g>
		<g>
			<g>
				<g>
					<path class="st7" d="M1577.1,205.1l30.5-0.1c4.1,0,7.4,3.6,7.5,8.1v5.8c0,4.5,3.4,8.1,7.5,8.1l59.6-0.3c4.1,0,7.4-3.7,7.4-8.2
						v-5.8c0-4.5,3.3-8.1,7.4-8.2l10.8-0.1l26.8-0.1c13.3-0.1,24.1,11.3,24.2,25.2l1.6,405.7c0.1,14-10.7,25.3-24,25.4l-157.2,0.8
						c-13.3,0.1-24.1-11.3-24.2-25.2l-1.6-405.7C1553.2,216.5,1563.9,205.2,1577.1,205.1z"/>
				</g>
			</g>
		</g>
	</g>
	<g>
		<g>
			<path class="st7" d="M1643.9,584.8c0.2,4.9,0.4,9.4,0.5,13.3h-22.7l2.8-14.6L1643.9,584.8z"/>
		</g>
		<g>
			<path class="st7" d="M1735.7,590.9l-0.2,7.2h-88.8c-0.2-4-0.3-8.5-0.5-13.2L1735.7,590.9z"/>
		</g>
		<g>
			<polygon class="st7" points="1623.4,583.5 1620.6,598.1 1579,598.1 1579.5,580.5 			"/>
		</g>
		<g>
			<polygon class="st7" points="1641.6,378.2 1633.7,330.2 1654.4,328.6 1654.4,378.2 			"/>
		</g>
		<g>
			<polygon class="st7" points="1737.5,564.3 1759.9,573.4 1760,590.1 1736.8,588.6 			"/>
		</g>
		<g>
			<polygon class="st7" points="1737.6,560.4 1738.8,515.7 1738.9,515.7 1738.9,499.9 1759.7,502.3 1759.9,569.6 			"/>
		</g>
		<g>
			<polygon class="st7" points="1738.9,464.7 1759.5,461.9 1759.6,498.6 1738.9,496.3 			"/>
		</g>
		<g>
			<polygon class="st7" points="1585.4,500.6 1586.3,513.4 1610.6,516.2 1608.7,526.4 1581.1,524.2 1581.5,509.6 1579.3,499.9 			
				"/>
		</g>
		<g>
			<polygon class="st7" points="1629.2,528 1609.9,526.5 1614.1,503.7 1631,505.5 			"/>
		</g>
		<g>
			<polygon class="st7" points="1629,530.3 1627.5,549.3 1624.9,575.4 1623.8,581.1 1579.5,578.1 1581,526.5 			"/>
		</g>
		<g>
			<path class="st7" d="M1705.3,440.6l-1.7,3.1l34.1,21v49.7l-36-2.7l-69.5-7.3l2.5-32.6l66.4-9.1l-0.4-3.5l-65.7,9l4.3-55.2l65,6.5
				l0.2-2.3l-65-6.5l2.3-28.7h62.5l54.9,10.6l0.3,65.9l-20.8,2.9L1705.3,440.6z M1734.2,509.7c0,0-0.3-41,0-42.5l-27.8-15.6
				l-3.6,56.1L1734.2,509.7z"/>
		</g>
		<g>
			<polygon class="st7" points="1587.7,500.9 1613,503.6 1611.1,513.8 1588.4,511.3 			"/>
		</g>
		<g>
			<path class="st7" d="M1643.6,576c0.1,2.1,0.2,4.3,0.2,6.4l-18.8-1.2l1-5.1L1643.6,576z"/>
		</g>
		<g>
			<polygon class="st7" points="1684,378.2 1680.7,362.5 1655.5,362.5 1655.5,328.5 1734.4,322.4 1734.4,354.2 1759.1,360.1 
				1759.2,388.7 1704.6,378.2 			"/>
		</g>
		<g>
			<path class="st7" d="M1631.4,283.9l0.7-2.9l-30.1-12.6l19.6-41.4c0.4,0.1,0.7,0.1,1.1,0.1l33.3-0.2l-0.9,58L1631.4,283.9z"/>
		</g>
		<g>
			<path class="st7" d="M1585.7,261.7v-56.6l22-0.1c4.1,0,7.4,3.6,7.5,8.1v5.8c0,2.8,1.3,5.2,3.2,6.7l-19.7,41.4L1585.7,261.7z"/>
		</g>
		<g>
			<path class="st7" d="M1699,264.1l2.5-59.5h6.1l23.9-0.1l10.2,53.3L1699,264.1z M1704.5,210.5l-0.8,48.4l31.6-4.9l-7-43.6
				L1704.5,210.5z"/>
		</g>
		<g>
			<path class="st7" d="M1697.9,264.2v0.5c-0.1,4.6-0.1,13-0.2,21.9l-41.5-1.8l0.9-58l25.2-0.1c4.1,0,7.4-3.7,7.4-8.2v-5.8
				c0-4.5,3.3-8.1,7.4-8.2h3.5L1697.9,264.2L1697.9,264.2z"/>
		</g>
		<g>
			<path class="st7" d="M1745,257.1l-10.1-52.8c13,0.2,23.6,11.4,23.6,25.1l0.1,26.2l-0.1-0.8L1745,257.1z"/>
		</g>
		<g>
			<polygon class="st7" points="1737.8,322.1 1758.9,320.4 1759.1,356.4 1737.8,351.4 			"/>
		</g>
		<g>
			<polygon class="st7" points="1745.2,258.2 1758.7,256.2 1758.9,314.5 1756,314.7 			"/>
		</g>
		<g>
			<polygon class="st7" points="1702.6,559.7 1702.2,513 1737.7,515.6 1736.5,561.5 			"/>
		</g>
		<g>
			<path class="st7" d="M1696,549l-50.3,25.3c-0.6-16.6-1.1-32.1-1.1-33.1l-1.1-0.1l-0.5-1.1c-0.7,0.4-0.7,0.4-0.3,11.7
				c0.2,6.3,0.5,14.7,0.8,23.1h-17.4l2.6-25.4l3.4-43.8l65.7,6.9L1696,549z"/>
		</g>
		<g>
			<polygon class="st7" points="1572.7,471.3 1573.3,465.2 1633.6,471.8 1631.1,504.3 1579,498.7 			"/>
		</g>
		<g>
			<polygon class="st7" points="1655.5,366 1678,366 1680.6,378.2 1655.5,378.2 			"/>
		</g>
		<g>
			<path class="st7" d="M1582.1,370.2l56.4-4.1l2.3,14.1l-2.4,30.5l-59.5-6L1582.1,370.2z M1636.4,380l-3-8.8l-49,3.2l-2.8,25.3
				l53.2,6.6L1636.4,380z"/>
		</g>
		<g>
			<polygon class="st7" points="1576.2,433.7 1578.7,406.9 1638.2,412.9 1636,441.6 			"/>
		</g>
		<g>
			<polygon class="st7" points="1736.8,591 1759.9,592.5 1760,590.9 1760,598.1 1736.6,598.1 			"/>
		</g>
		<g>
			<path class="st7" d="M1553.7,248.3l-0.3,0.9l-0.1-18.6c-0.1-14,10.7-25.3,24-25.4h7.5v56.1L1553.7,248.3z"/>
		</g>
		<g>
			<path class="st7" d="M1645.8,575.6l51.3-25.9l1.8-37.1l2.2,0.2l0.4,48l35,1.7v1.1l0,0l0,0l-0.7,24.7l-89.7-5.9
				C1646,580.2,1645.9,577.9,1645.8,575.6z M1734.2,565.7l-49-3.6l-31.8,15.6l80.9,4.6V565.7z"/>
		</g>
		<g>
			<path class="st7" d="M1568.2,310.5l-2.1-13.1c18.4-6.9,19.7-27.1,19.7-33.3l12,5l-18.1,38.2L1568.2,310.5z"/>
		</g>
		<g>
			<polygon class="st7" points="1633.9,468.2 1608.9,465.5 1613.8,442.3 1635.7,445.1 			"/>
		</g>
		<g>
			<polygon class="st7" points="1582,330.6 1628.7,330.6 1632.6,330.3 1637.9,362.6 1582.4,366.6 1583.7,352.5 1578.2,331.9 			"/>
		</g>
		<g>
			<path class="st7" d="M1583.1,324.7l-0.6-15.4l18.4-38.8l28.4,11.9l-9.8,42.3H1583.1z M1602.1,275.2l-16.9,33.7l2.4,10.6l28.8-1.1
				l7.2-31.9L1602.1,275.2z"/>
		</g>
		<g>
			<polygon class="st7" points="1575.8,510.2 1575,540.4 1554.8,539.2 1554.7,540.4 1574.9,541.7 1573.9,577.7 1554.8,576.4 
				1554.7,578.8 1573.8,580.1 1573.3,598.1 1554.7,598.1 1554.3,497.3 1573.3,499.3 			"/>
		</g>
		<g>
			<path class="st7" d="M1699,265.3l42.9-6.4l10.7,56.3l-53.8,4.2C1698.6,310.5,1698.8,284,1699,265.3z"/>
		</g>
		<g>
			<polygon class="st7" points="1628.4,324.7 1621.9,324.7 1631.1,285 1655,286 1654.4,322.7 			"/>
		</g>
		<g>
			<path class="st7" d="M1760.2,627v8.3c0,0.3,0,0.5,0,0.8V627z"/>
		</g>
		<g>
			<path class="st7" d="M1697.7,319.2l-42.1,3.3l0.6-36.5l41.5,1.8C1697.5,300.2,1697.5,313.4,1697.7,319.2z"/>
		</g>
		<g>
			<polygon class="st7" points="1575.9,437.3 1612.7,442.1 1607.8,465.4 1573.6,461.7 			"/>
		</g>
		<g>
			<path class="st7" d="M1565.9,296.2l-2.4-14.7l-10.2,0.8l-0.1-31.7l31.3,13.1C1585.2,286,1571.9,293.8,1565.9,296.2z"/>
		</g>
		<g>
			<polygon class="st7" points="1578,353.1 1576.7,367 1553.8,368.7 1553.7,340 1572.8,333.6 			"/>
		</g>
		<g>
			<path class="st7" d="M1567,471.7l6,26.3l-18.8-2l-0.1-27.6c5.8-1.6,10.8-2.9,13.5-3.4L1567,471.7z"/>
		</g>
		<g>
			<polygon class="st7" points="1579.7,325.2 1553.7,333.8 1553.6,318.1 1579.2,311.2 			"/>
		</g>
		<g>
			<path class="st7" d="M1568,461.4c-2.1,0.3-6.1,1.2-13.9,3.4l-0.2-60.4l19.2,1.9L1568,461.4z"/>
		</g>
		<g>
			<polygon class="st7" points="1573.3,403.9 1553.9,402 1553.8,372.2 1576.4,370.6 			"/>
		</g>
		<g>
			<path class="st7" d="M1563.8,296.9c-3.7,1.2-7.1,2.1-10.3,2.7l-0.1-15l8.3-0.7L1563.8,296.9z"/>
		</g>
		<g>
			<path class="st7" d="M1566,311.1l-12.5,3.4l-0.1-13.6c3.2-0.7,6.7-1.6,10.5-2.8L1566,311.1z"/>
		</g>
		<g>
			<path class="st0" d="M1736.8,591l-0.2,7.1h-1.1l0.2-7.2l-89.5-5.9c0.2,4.6,0.3,9.1,0.5,13.2h-2.3c-0.1-3.8-0.3-8.4-0.5-13.3
				l-19.4-1.3l-2.8,14.6h-1.2l2.8-14.7l-43.9-2.9l-0.5,17.6h-5.6l0.5-18l-19.3-1.3l0.1-2.4l19.2,1.3l1-36.2l-20.3-1.2l0.1-1.2
				l20.3,1.2l0.9-30.3l-2.5-10.9l-19.1-2V496l18.8,2l-6-26.3l0.6-6.7c-2.7,0.5-7.8,1.8-13.5,3.4v-3.7c7.8-2.1,11.8-3,13.9-3.4
				l5.1-55.2l-19.2-1.9v-2.4l19.4,2l3.1-33.4l-22.6,1.6v-3.5l23-1.7l1.3-13.9l-5.1-19.4l-19.2,6.4v-6.2l26.2-8.6l-0.5-14l-25.7,6.9
				v-3.7l12.5-3.4l-2.1-13c-3.8,1.2-7.2,2.1-10.5,2.8v-1.2c3.2-0.7,6.6-1.6,10.3-2.7l-2.1-13l-8.3,0.7v-2.4l10.2-0.8l2.4,14.7
				c6-2.4,19.4-10.3,18.7-32.6l-31.3-13.1v-1.5l0.3-0.9l30.9,12.9v-56.1h1.1v56.6l13.1,5.4l19.7-41.4c0.9,0.7,2,1.2,3.1,1.3
				l-19.6,41.4l30.1,12.6l-0.7,2.9l23.7,1l0.9-58h1.1l-0.9,58l41.5,1.8c0.1-8.9,0.2-17.3,0.2-21.9V264l0,0l2.6-59.7h1.1l-2.5,59.5
				l42.6-6.4l-10.2-53.3h2.9c0.2,0,0.4,0,0.5,0l10.1,52.8l13.6-2l0.1,0.8v0.4l-13.5,2l10.8,56.5l2.9-0.2v5.9l-21.1,1.6v29.2l21.3,5
				v3.6l-24.7-5.8v-31.9l-79,6.1v34h25.3l3.3,15.8h20.6l54.6,10.5v3.6l-54.9-10.6H1642l-2.3,28.7l65,6.5l-0.2,2.3l-65-6.5l-4.3,55.2
				l65.7-9l0.4,3.5l-66.4,9.1l-2.5,32.6l69.5,7.3l36,2.7v-49.7l-34.3-20.4l1.7-3.1l33.3,20.5l20.8-2.9v3.6l-20.6,2.8v31.7l20.8,2.3
				v3.6l-20.8-2.3v15.8l0,0l-1.2,44.7l0,0l22.3,9.1v3.8l-22.4-9.2l-0.7,24.4l23.2,1.5v0.8l-0.1,1.6L1736.8,591z M1643.8,582.4
				c-0.1-2.1-0.2-4.2-0.2-6.4L1626,576l-1,5.1L1643.8,582.4z M1623.8,581.1l1.1-5.7l2.6-26l1.5-19l-48-3.8l-1.5,51.6L1623.8,581.1z
				 M1613,503.6l-25.3-2.7l0.7,10.5l22.7,2.6L1613,503.6z M1614.1,503.7l-4.2,22.8l19.4,1.5l1.8-22.5L1614.1,503.7z M1581.1,524.2
				l27.6,2.2l1.9-10.2l-24.4-2.7l-0.9-12.9l-6.1-0.6l2.2,9.6L1581.1,524.2z M1613.8,442.3l-4.9,23.2l25.1,2.7l1.8-23.1L1613.8,442.3
				z M1607.8,465.4l4.9-23.3l-36.7-4.7l-2.2,24.3L1607.8,465.4z M1582.4,366.6l55.5-4l-5.3-32.3l-3.9,0.3H1582l-3.8,1.2l5.5,20.7
				L1582.4,366.6z M1585.7,264.2c0.1,6.1-1.2,26.3-19.7,33.3l2.1,13.1l11.5-3.1l18.1-38.2L1585.7,264.2z M1600.9,270.5l-18.4,38.8
				l0.6,15.4h36.5l9.8-42.3L1600.9,270.5z M1631.1,285l-9.2,39.7h6.5l26-2l0.6-36.7L1631.1,285z M1656.1,286.1l-0.6,36.5l42.1-3.3
				c-0.2-5.9-0.1-19.1-0.1-31.5L1656.1,286.1z M1741.8,258.7l-42.9,6.4c-0.2,18.7-0.4,45.3-0.2,54l53.8-4.2L1741.8,258.7z
				 M1633.7,330.2l7.9,48h12.8v-49.6L1633.7,330.2z M1678,366h-22.6v12.3h25.1L1678,366z M1640.8,380l-2.3-14.1l-56.4,4.1l-3.2,34.4
				l59.5,6L1640.8,380z M1578.7,406.9l-2.5,26.9l59.8,7.7l2.2-28.6L1578.7,406.9z M1633.6,471.8l-60.3-6.6l-0.6,6.1l6.3,27.4l52,5.5
				L1633.6,471.8z M1628.7,549.4l-2.6,25.4h17.4c-0.3-8.3-0.6-16.8-0.8-23.1c-0.4-11.3-0.4-11.3,0.3-11.7l0.5,1.1l1.1,0.1
				c-0.1,1,0.5,16.5,1.1,33.1L1696,549l1.8-36.5l-65.7-6.9L1628.7,549.4z M1702.2,513l0.4,46.8l33.9,1.7l1.3-45.8L1702.2,513z
				 M1736.4,563.8L1736.4,563.8L1736.4,563.8v-1.1l-35-1.7l-0.4-48l-2.2-0.2l-1.8,37.1l-51.3,25.9c0.1,2.3,0.2,4.6,0.3,6.9l89.7,5.9
				L1736.4,563.8z"/>
		</g>
		<g>
			<polygon class="st4" points="1685.3,562.1 1734.2,565.7 1734.2,582.3 1653.4,577.6 			"/>
		</g>
		<g>
			<polygon class="st4" points="1584.4,374.4 1633.4,371.2 1636.4,380 1634.7,406.4 1581.5,399.7 			"/>
		</g>
		<g>
			<path class="st4" d="M1736.2,660.6l-157.2,0.8c-13.3,0.1-24.1-11.3-24.2-25.2l-0.2-38.2h18.7h5.6h41.6h1.2h22.6h2.3h88.8h1.1
				h23.5l0.1,28.8v9C1759.8,649.7,1749.3,660.6,1736.2,660.6z"/>
		</g>
		<g>
			<polygon class="st4" points="1703.6,259 1704.5,210.5 1728.4,210.5 1735.3,254.1 			"/>
		</g>
		<g>
			<polygon class="st4" points="1587.6,319.4 1585.2,308.9 1602.1,275.2 1623.6,286.4 1616.5,318.3 			"/>
		</g>
		<g>
			<path class="st4" d="M1734.2,467.2c-0.3,1.5,0,42.5,0,42.5l-31.4-2.1l3.6-56.1L1734.2,467.2z"/>
		</g>
	</g>
	<g>
		<polygon class="st4" points="1629.2,500.4 1630.9,475 1576.9,467.8 1576.9,472.1 1583.4,495.5 		"/>
	</g>
	<g>
		<path class="st11" d="M1669.2,289.7c0,3.8,3,6.9,6.6,6.9s6.6-3.1,6.6-6.9c0-3.8-3-6.9-6.6-6.9S1669.2,285.9,1669.2,289.7z"/>
	</g>
	<g>
		<path class="st12" d="M1669.2,289.4c-0.2,3.8,2.7,7,6.3,7.2s6.7-2.8,6.9-6.6c0.2-3.8-2.7-7-6.3-7.2
			C1672.5,282.6,1669.4,285.6,1669.2,289.4z"/>
	</g>
	<g>
		<ellipse class="st13" cx="1675.7" cy="289.5" rx="4.4" ry="4.6"/>
	</g>
	<g>
		<path class="st13" d="M1574,566.2c0,1.6,1.3,2.9,2.8,2.9c1.6,0,2.8-1.3,2.8-2.9s-1.3-2.9-2.8-2.9
			C1575.3,563.3,1574,564.6,1574,566.2z"/>
	</g>
	<g>
		<path class="st13" d="M1578.5,565.3l0.7-16.6l47.5,2.4c1.2,0.1,2.5-0.2,3.6-0.8l67.4-35.8c1.6-0.8,2.6-2.5,2.7-4.3l9.2-187
			c0-0.9-0.3-1.8-0.9-2.4s-1.5-0.9-2.3-0.9l-28.8,2.2v-33.2h-3.4v33.7c0,0.9,0.3,1.7,1,2.3c0.6,0.6,1.4,0.9,2.2,0.8l28.8-2.2
			l-9.2,186.6c0,0.6-0.3,1.1-0.8,1.3l-67.4,35.8c-0.6,0.3-1.2,0.5-1.9,0.4l-47.9-2.4c-0.8,0-1.6,0.2-2.2,0.8c-0.6,0.6-0.9,1.3-1,2.2
			l-0.7,17L1578.5,565.3z"/>
	</g>
	<g>
		<ellipse class="st13" cx="1704" cy="404.4" rx="8.5" ry="8.9"/>
	</g>
	<g>
		<ellipse class="st3" cx="1704" cy="404.4" rx="5.9" ry="6.2"/>
		<path class="st13" d="M1704,411c3.5,0,6.4-3,6.4-6.6c0-3.7-2.9-6.6-6.4-6.6s-6.4,3-6.4,6.6S1700.5,411,1704,411z M1704,398.5
			c3,0,5.5,2.6,5.5,5.8c0,3.2-2.5,5.8-5.5,5.8s-5.5-2.6-5.5-5.8S1701,398.5,1704,398.5z"/>
	</g>
	<g>
		<g>
			<path class="st11" d="M1653.8,366.7h40.5c2,0,3.6,1.7,3.6,3.7v15.5c0,2.1-1.6,3.7-3.6,3.7h-0.5v3.7l-4.1-3.7h-36
				c-2,0-3.6-1.7-3.6-3.7v-15.5C1650.2,368.4,1651.8,366.7,1653.8,366.7z"/>
		</g>
	</g>
	<g>
		<g>
			<path class="st14" d="M1653.8,366.7h40.5c2,0,3.6,1.7,3.6,3.7v15.5c0,2.1-1.6,3.7-3.6,3.7h-0.5v3.7l-4.1-3.7h-36
				c-2,0-3.6-1.7-3.6-3.7v-15.5C1650.2,368.4,1651.8,366.7,1653.8,366.7z"/>
		</g>
	</g>
	<g>
		<g>
			<path class="st13" d="M1667.2,266.4c0-5.4,4.7-9.7,10.1-8.7c3.4,0.7,6.1,3.6,6.7,7.1c0.4,2.2-0.1,4.3-1,6l0,0l0,0
				c-0.3,0.6-0.7,1-1.1,1.6l-4.9,6.8c-0.6,0.8-1.8,0.8-2.4,0l-4.8-6.7c0,0-0.9-1.1-1.2-1.7l0,0l0,0
				C1667.7,269.6,1667.2,268.1,1667.2,266.4z M1675.6,270.3c2.1,0,3.7-1.7,3.7-3.9c0-2.2-1.7-3.9-3.7-3.9c-2.1,0-3.7,1.7-3.7,3.9
				C1672,268.6,1673.6,270.3,1675.6,270.3z"/>
		</g>
	</g>
	<g>
		<g>
			<ellipse class="st13" cx="1737.7" cy="624.9" rx="10.1" ry="9.9"/>
		</g>
	</g>
	<g>
		<g>
			<g>
				<path class="st3" d="M1742.1,626.7c0-0.1-0.9-0.1-2.4-0.2c-1.5,0-3.8-0.1-6.4-0.1l0.2,0.4c0.7-0.9,1.6-1.9,2.4-2.9l0.2-0.2
					l-0.1-0.2c-0.8-1-1.6-2-2.4-3.1l-0.2,0.5c0.3,0,0.7,0,1.1,0c2.8,0,5.4,0,7.7,0l-0.3-0.3c0,3,0.1,5.5,0.1,7.3s0.1,2.8,0.2,2.8
					c0.1,0,0.1-1,0.2-2.8c0-1.8,0.1-4.3,0.1-7.3v-0.3h-0.3c-2.3,0-5,0-7.7,0c-0.4,0-0.7,0-1.1,0h-0.6l0.4,0.5
					c0.8,1.1,1.6,2.1,2.4,3.1v-0.4c-0.8,1-1.6,2-2.4,2.9l-0.4,0.4h0.6c2.6,0,4.9-0.1,6.4-0.1
					C1741.2,626.8,1742.1,626.8,1742.1,626.7z"/>
			</g>
		</g>
	</g>
	<g>
		<path class="st13" d="M1585.7,607.9h28.5c3,0,5.5,2.6,5.5,5.7v23.6c0,3.2-2.4,5.7-5.5,5.7h-0.7v5.6l-6.2-5.6h-21.6
			c-3,0-5.5-2.6-5.5-5.7v-23.6C1580.2,610.5,1582.7,607.9,1585.7,607.9z"/>
	</g>
	<g>
		<g>
			<path class="st3" d="M1611.5,618.7v12.2c0,0.3-0.2,0.5-0.4,0.5h-24.2c-0.3,0-0.5-0.2-0.4-0.5l0.1-4.4c0-0.1,0-0.2,0.1-0.3
				l3.5-4.8c0.1-0.1,0.2-0.2,0.4-0.2h4c0.2,0,0.4-0.2,0.4-0.5v-1.8c0-0.3,0.2-0.5,0.4-0.5h15.8
				C1611.3,618.3,1611.5,618.5,1611.5,618.7z"/>
		</g>
	</g>
	<g>
		<g>
			<path class="st13" d="M1593.7,622.2v3.9c0,0.2-0.1,0.3-0.3,0.3l-5.3-0.1c-0.2,0-0.3-0.2-0.2-0.4l2.5-3.8c0-0.1,0.1-0.1,0.2-0.1
				l2.8,0.1C1593.6,621.9,1593.7,622,1593.7,622.2z"/>
		</g>
	</g>
	<g>
		<g>
			<rect x="1585.9" y="631.8" class="st3" width="26.1" height="0.8"/>
		</g>
	</g>
	<g>
		<path class="st13" d="M1603.4,632c0,1.5,1.2,2.7,2.6,2.7s2.6-1.2,2.6-2.7c0-1.5-1.2-2.7-2.6-2.7S1603.4,630.6,1603.4,632z"/>
	</g>
	<g>
		<g>
			<path class="st3" d="M1604.5,632c0,0.9,0.7,1.6,1.5,1.6s1.5-0.7,1.5-1.6s-0.7-1.6-1.5-1.6C1605.1,630.5,1604.5,631.2,1604.5,632z
				"/>
		</g>
	</g>
	<g>
		<g>
			<g>
				<path class="st11" d="M1594.9,631.4c0.1,0,0.1-2.9,0.1-6.5c0-3.6-0.1-6.5-0.1-6.5c-0.1,0-0.1,2.9-0.1,6.5
					C1594.8,628.4,1594.8,631.4,1594.9,631.4z"/>
			</g>
		</g>
	</g>
	<g>
		<g>
			<path class="st13" d="M1589.4,632c0,1.5,1.2,2.7,2.6,2.7c1.4,0,2.6-1.2,2.6-2.7c0-1.5-1.2-2.7-2.6-2.7
				C1590.6,629.3,1589.4,630.6,1589.4,632z"/>
		</g>
	</g>
	<g>
		<g>
			<path class="st4" d="M1590.4,632c0,0.9,0.7,1.6,1.5,1.6s1.5-0.7,1.5-1.6s-0.7-1.6-1.5-1.6C1591.1,630.5,1590.4,631.2,1590.4,632z
				"/>
		</g>
	</g>
	<g>
		<g>
			<g>
				<path class="st11" d="M1591.9,627.1c0,0.1,0.4,0.1,0.8,0.1c0.5,0,0.8-0.1,0.8-0.1c0-0.1-0.4-0.1-0.8-0.1
					C1592.3,626.9,1591.9,627,1591.9,627.1z"/>
			</g>
		</g>
	</g>
	<g>
		<g>
			<g>
				<path class="st15" d="M1323,428.1c0,0-18.2,3.2-19.7,3.6c-1.5,0.4-7.2,3.3-7.5,5.1c-0.3,1.8,0,7.3,0,7.3s1,0.9,1.7-0.9
					c0.7-1.8,0.6-5.3,0.6-5.3l3.2-1.3l-1.8,3.3l-0.3,7.7c0,0,2.3-0.2,2.7-2c0.4-1.8,0.4-3.9,0.4-3.9l2.4-2.1l-1.8,2.5l-0.6,5.5
					c0,0,1.7,0.6,2.3-0.6c0.5-1.2,0.6-4.9,0.6-4.9l6.6-2.4l4.4,2.6l8.2-4.9L1323,428.1z"/>
			</g>
		</g>
		<g>
			<g>
				<g>
					<g>
						<path class="st15" d="M1386.6,380.9c-0.1,0.4-21.9,32-21.9,32l-43.8,14.4l2,17.3l53.7-11.4l19.1-23L1386.6,380.9z"/>
					</g>
				</g>
				<g class="st16">
					<g>
						<path class="st15" d="M1386.6,380.9c-0.1,0.4-21.9,32-21.9,32l-43.8,14.4l2,17.3l53.7-11.4l19.1-23L1386.6,380.9z"/>
					</g>
				</g>
			</g>
		</g>
	</g>
	<g>
		<g>
			<g>
				<path class="st7" d="M1462.9,442.8h89.5c1.9,0,3.4-1.6,3.4-3.6V428c0-2-1.5-3.6-3.4-3.6h-89.5c-1.9,0-3.4,1.6-3.4,3.6v11.2
					C1459.5,441.2,1461,442.8,1462.9,442.8z"/>
			</g>
		</g>
		<g>
			<g>
				<g>
					<path class="st9" d="M1462.9,442.8c0,0-0.2,0-0.6-0.1c-0.4-0.1-0.9-0.2-1.5-0.7s-1.1-1.3-1.3-2.4c0-1.1,0-2.4,0-3.9
						s0-3.1,0-4.9c0-0.9,0-1.8,0-2.8c0-0.9,0.4-1.9,1.2-2.5c0.4-0.3,0.8-0.6,1.3-0.7c0.5-0.1,1-0.1,1.5-0.1c1.1,0,2.2,0,3.3,0
						c2.3,0,4.7,0,7.2,0c20.1,0,47.8,0.1,78.5,0.1c0.9,0,1.7,0.4,2.3,1.1c0.6,0.7,0.9,1.6,0.8,2.5c0,2,0,3.9,0,5.9c0,1,0,1.9,0,2.9
						v1.5c0,0.5,0,0.9-0.1,1.4c-0.2,0.9-0.8,1.6-1.5,2c-0.4,0.2-0.8,0.3-1.2,0.4c-0.4,0-0.9,0-1.3,0c-7.2,0-14.2,0-20.9,0
						c-13.3,0-25.3,0-35.2,0.1c-10,0-18.2,0.1-23.8,0.1c-2.8,0-5,0-6.5,0.1c-0.7,0-1.3,0-1.7,0
						C1463.1,442.8,1462.9,442.8,1462.9,442.8s0.2,0,0.6,0s1,0,1.7,0c1.5,0,3.7,0,6.5,0.1c5.7,0,13.8,0.1,23.8,0.1
						c10.1,0,22,0,35.2,0.1c6.7,0,13.6,0,20.9,0c0.5,0,0.9,0,1.4,0c0.5-0.1,1-0.2,1.4-0.5c0.9-0.5,1.5-1.4,1.8-2.4
						c0.1-0.5,0.1-1,0.1-1.5v-1.5c0-1,0-1.9,0-2.9c0-2,0-3.9,0-5.9c0.1-1-0.3-2.2-1-3c-0.7-0.8-1.7-1.3-2.8-1.3
						c-30.6,0-58.4,0.1-78.5,0.1c-2.5,0-4.9,0-7.2,0c-1.1,0-2.2,0-3.3,0c-0.5,0-1.1,0-1.6,0.1c-0.5,0.1-1,0.4-1.4,0.8
						c-0.8,0.7-1.2,1.8-1.3,2.8c0,1,0,1.9,0,2.8c0,1.8,0,3.4,0,4.9s0,2.8,0.1,3.9c0.1,1.2,0.8,2,1.4,2.5s1.2,0.6,1.6,0.7
						C1462.7,442.8,1462.9,442.8,1462.9,442.8z"/>
				</g>
			</g>
		</g>
	</g>
	<g>
		<g>
			<g>
				<g>
					<g>
						<g>
							<g>
								<ellipse class="st9" cx="1222" cy="629.1" rx="46.1" ry="48.4"/>
							</g>
						</g>
					</g>
				</g>
			</g>
		</g>
		<g>
			<g>
				<g>
					<g>
						<g>
							<g>
								<path class="st9" d="M1268,628.2L1268,628.2c0.4,26.8-20,48.9-45.4,49.2c-25.5,0.4-46.4-21-46.7-47.7v-0.1L1268,628.2z"/>
							</g>
						</g>
					</g>
				</g>
			</g>
		</g>
		<g>
			<g>
				<g>
					<g>
						<g>
							<g>
								<path class="st3" d="M1254.3,628.6c0.3,18.8-14,34.3-31.8,34.6c-17.9,0.3-32.5-14.8-32.8-33.6c-0.3-18.8,14-34.3,31.8-34.6
									S1254,609.8,1254.3,628.6z"/>
							</g>
						</g>
					</g>
				</g>
			</g>
		</g>
		<g>
			<g>
				<g>
					<g>
						<g>
							<g>
								<path class="st5" d="M1221.5,595c17.9-0.3,32.5,14.8,32.8,33.6l-64.7,1C1189.3,610.7,1203.6,595.3,1221.5,595z"/>
							</g>
						</g>
					</g>
				</g>
			</g>
		</g>
		<g>
			<g>
				<g>
					<g>
						<g>
							<g>
								<path class="st9" d="M1241.6,628.8c0.2,11.5-8.6,20.9-19.5,21c-10.9,0.2-19.9-8.9-20-20.4c-0.2-11.5,8.6-20.9,19.5-21
									C1232.6,608.2,1241.5,617.3,1241.6,628.8z"/>
							</g>
						</g>
					</g>
				</g>
			</g>
		</g>
	</g>
	<g>
		<path class="st13" d="M1243.8,557.9c0,0-47.2-15-66.7,38.9l98.7,32.2L1243.8,557.9z"/>
	</g>
	<g>
		<g>
			<g>
				<g>
					<g>
						<g>
							<g>
								<ellipse class="st9" cx="1506.3" cy="629.1" rx="46.1" ry="48.4"/>
							</g>
						</g>
					</g>
				</g>
			</g>
		</g>
		<g>
			<g>
				<g>
					<g>
						<g>
							<g>
								<path class="st9" d="M1552.4,628.2L1552.4,628.2c0.4,26.8-20,48.9-45.4,49.2c-25.5,0.4-46.4-21-46.7-47.7v-0.1L1552.4,628.2
									z"/>
							</g>
						</g>
					</g>
				</g>
			</g>
		</g>
		<g>
			<g>
				<g>
					<g>
						<g>
							<g>
								<path class="st3" d="M1538.6,628.6c0.3,18.8-14,34.3-31.8,34.6c-17.9,0.3-32.5-14.8-32.8-33.6c-0.3-18.8,14-34.3,31.8-34.6
									C1523.7,594.7,1538.4,609.8,1538.6,628.6z"/>
							</g>
						</g>
					</g>
				</g>
			</g>
		</g>
		<g>
			<g>
				<g>
					<g>
						<g>
							<g>
								<path class="st5" d="M1505.9,595c17.9-0.3,32.5,14.8,32.8,33.6l-64.7,1C1473.7,610.7,1488,595.3,1505.9,595z"/>
							</g>
						</g>
					</g>
				</g>
			</g>
		</g>
		<g>
			<g>
				<g>
					<g>
						<g>
							<g>
								<path class="st9" d="M1526,628.8c0.2,11.5-8.6,20.9-19.5,21c-10.9,0.2-19.9-8.9-20-20.4c-0.2-11.5,8.6-20.9,19.5-21
									C1516.9,608.2,1525.8,617.3,1526,628.8z"/>
							</g>
						</g>
					</g>
				</g>
			</g>
		</g>
	</g>
	<g>
		<g>
			<path class="st17" d="M1440.8,609.6c0.3,0.1,24.3-3.9,24.3-3.9l0,0c2.6,3.6,6.6,5.8,11,6c10.4,0.5,20.5,1,29.2,1.4
				c8.2,0.4,14.6,7.6,14.2,16.3l0,0c-0.3,8.1-6.6,14.7-14.3,15l-51,2.1c-8.4,0.3-19.6-5-24.8-12l0,0L1440.8,609.6z"/>
		</g>
	</g>
	<path class="st13" d="M1566.1,588.1c0,0,2.2-47.2-40-57.1v-6h-147.8v14.5c0,0,21.7,27.5,14.6,50.4c-7.1,22.8-9.3,25.1-9.3,25.1
		h-84.1c0,0-10.2-13.5-10.6-33.6c-0.4-20,7.5-54.3,13.4-76.2c5.4-19.9,8.8-36.6,8.8-36.6l-25.3-8.8c0,0-46.7,64.2-48.6,67.8
		c-1.9,3.6-8.4,12.1-6.9,30.6c1.5,18.5,43.5,75.5,54.6,81.9c11.1,6.4,21,6.8,30.9,8.4c8.6,1.4,72.3,0.5,88.9,0.2
		c5.8-0.1,11.5-1.6,16.5-4.8c5-3.2,8.7-8.4,12.9-17.1l8.8-18.1L1566.1,588.1z"/>
	<g>
		<g>
			<path class="st17" d="M1554.8,584.9l18.7,30.7c2.4,3.9-1.5,8.8-5.5,7c-2-0.9-4.1-2.3-6.3-4.4c-8.5-8.5-23.7-31-23.7-31
				L1554.8,584.9z"/>
		</g>
	</g>
	<g>
		<g>
			<g>
				<path class="st9" d="M1421.3,590.4c0,0,0-0.2-0.1-0.4c-0.1-0.3-0.2-0.7-0.4-1.3c-0.3-1.1-0.7-2.8-1-5
					c-0.5-4.4-0.3-11.2,2.9-18.5c1.5-3.7,3.8-7.4,6.9-10.9c3.1-3.4,6.9-6.5,11.3-9c4.4-2.5,9.4-4.5,14.8-5.8
					c5.4-1.3,11.1-1.8,16.9-1.8c5.8,0,11.5,0.5,17,1.3c5.5,0.8,10.7,1.7,15.6,2.9c9.9,2.3,18.5,5.8,25.1,9.7
					c6.7,3.9,11.4,8.2,14.4,11.5c1.5,1.6,2.6,2.9,3.3,3.9c0.3,0.4,0.6,0.8,0.8,1c0.2,0.2,0.3,0.4,0.3,0.3c0,0-1.3-2.1-4.2-5.4
					c-2.9-3.3-7.6-7.7-14.3-11.8c-6.7-4-15.3-7.5-25.2-9.9c-5-1.2-10.2-2.2-15.7-2.9c-5.5-0.8-11.2-1.3-17.1-1.3s-11.6,0.6-17,1.9
					c-5.4,1.3-10.5,3.3-14.9,5.8c-4.5,2.5-8.3,5.7-11.4,9.2s-5.4,7.3-6.9,11.1c-3.1,7.4-3.3,14.3-2.7,18.7c0.3,2.2,0.7,3.9,1.1,5
					c0.2,0.5,0.3,1,0.4,1.3C1421.2,590.2,1421.2,590.4,1421.3,590.4z"/>
			</g>
		</g>
	</g>
	<g>
		<g>
			<g>
				<path class="st7" d="M1429.8,579.7c0.1,0-0.2-0.7-0.6-2.1c-0.3-1.3-0.5-3.4-0.2-5.8c0.3-2.5,1.2-5.3,2.8-8.2
					c0.7-1.4,1.7-2.9,2.7-4.3c1.1-1.4,2.3-2.8,3.7-4c2.8-2.4,5.9-4.2,8.8-5.4c2.9-1.2,5.7-1.9,8.1-2.3c2.4-0.4,4.3-0.6,5.6-0.7
					c1.3-0.1,2.1-0.1,2.1-0.2c0,0-0.2,0-0.5-0.1c-0.4,0-0.9,0-1.6,0c-1.3,0-3.3,0.1-5.7,0.5c-2.4,0.4-5.2,1-8.2,2.2
					c-3,1.2-6.1,2.9-9,5.4c-1.4,1.2-2.7,2.6-3.7,4.1c-1.1,1.4-2,2.9-2.8,4.4c-1.5,3-2.4,5.9-2.7,8.4c-0.3,2.5-0.1,4.6,0.4,6
					c0.1,0.7,0.4,1.2,0.5,1.5C1429.7,579.5,1429.8,579.7,1429.8,579.7z"/>
			</g>
		</g>
	</g>
	<g class="st18">
		<g>
			<g>
				<path d="M1458.7,538.3c-8.3,1.7-15.5,4.8-22.3,9.5s-12,11.5-14.9,19.5c-3,8-2.5,18.6,0.6,25.2l-10.5,0.9
					c-3.5-12.4,0.3-27.5,8.8-37.2C1430.4,545,1444.1,538.3,1458.7,538.3"/>
			</g>
		</g>
	</g>
	<g>
		<g>
			<path class="st17" d="M1460.9,525h93.6c4.7,0,8.6-3.8,8.6-8.6v-65.9c0-4.7-3.8-8.6-8.6-8.6h-93.6c-4.7,0-8.6,3.8-8.6,8.6v65.9
				C1452.4,521.1,1456.2,525,1460.9,525z"/>
		</g>
	</g>
	<g>
		<g>
			<g>
				<path class="st9" d="M1452.4,460.3c0,0.2,24.9,0.3,55.6,0.3c30.7,0,55.6-0.1,55.6-0.3s-24.9-0.3-55.6-0.3
					C1477.3,460,1452.4,460.1,1452.4,460.3z"/>
			</g>
		</g>
	</g>
	<g>
		<g>
			<g>
				<path class="st9" d="M1378.3,530.5c0,0.2,33.2,0.3,74.2,0.3c41,0,74.3-0.1,74.3-0.3s-33.2-0.3-74.3-0.3
					C1411.5,530.2,1378.3,530.3,1378.3,530.5z"/>
			</g>
		</g>
	</g>
	<g>
		<g>
			<path class="st17" d="M1378.3,525c0,0-2.4-3-2.7-6.9c-0.2-3.9,1.5-8.7,5.5-8.7h51c8.3,0,15,7,15,15.8l0,0L1378.3,525L1378.3,525z
				"/>
		</g>
	</g>
	<g>
		<g>
			<path class="st13" d="M1310.9,468.6l8.9-19.5c2.4-5.5,0.5-12.2-4.5-15.3l-26.6-16.7c-1.4-0.9-3-1.3-4.6-1.3h-5.7l-2.3,39.4
				l8.9,3.5l-5.6,9.5L1310.9,468.6z"/>
		</g>
	</g>
	<g>
		<g>
			<path class="st4" d="M1278.4,417.2c0,0-9.1,2.2-10.2,16.9c-1.1,14.8,8,19.3,8,19.3L1278.4,417.2z"/>
		</g>
	</g>
	<g>
		<g>
			<path class="st9" d="M1307.8,441.5c0,0,18.4,9.1,20.6,10.7c1.6,1,2.9,2.9,1.7,6c-2.1,5.4-10.7,0.3-10.7,0.3l-17.1-8.9
				c0,0-6.6-3.2-4.2-7.3C1300.9,437.6,1307.8,441.5,1307.8,441.5z"/>
		</g>
	</g>
	<g>
		<g>
			<path class="st19" d="M1333.9,438.1c0,0-17.3,3.1-18.7,3.5c-1.5,0.4-7.2,3.3-7.5,5.1c-0.3,1.8,0,7.3,0,7.3s1,0.9,1.7-0.9
				c0.7-1.8,0.6-5.3,0.6-5.3l3.2-1.3l-1.8,3.3l-0.3,7.7c0,0,2.3-0.2,2.7-2c0.4-1.8,0.4-3.9,0.4-3.9l2.4-2.1l-1.8,2.5l-0.6,5.5
				c0,0,1.7,0.6,2.3-0.6c0.5-1.2,0.6-4.9,0.6-4.9l6.6-2.4l4.4,2.6l6.9-4L1333.9,438.1z"/>
		</g>
	</g>
	<g>
		<g>
			<path class="st9" d="M1306.9,412.8c0,7.3,3.2,13.3,7.2,13.3c4,0,7.2-5.9,7.2-13.3c0-7.3-3.2-13.3-7.2-13.3
				C1310.2,399.5,1306.9,405.5,1306.9,412.8z"/>
		</g>
	</g>
	<g>
		<g>
			<path class="st9" d="M1312.9,422l-3.9,14.4c-1.8-0.9-2.1-2.8-1.8-4.2c1-4.9,1.5-8.4,2.6-12.8C1309.9,418.9,1312.9,422,1312.9,422
				"/>
		</g>
	</g>
	<g class="st18">
		<g>
			<path d="M1391,595.8c0.4-1.2,0.8-2.4,1.2-3.6c0.4-1.2,0.8-2.3,1.1-3.5c0.5-2.1,0.9-4.2,1-5.4c6.7,28.4-3.5,48.5-21,49.9
				c-25.5,2-56.5,3.5-69.1,0.1c-22.9-6.3-31.2-26.4-33.3-29.7c-2-3.3-20.2-38.3-9.1-72.1c11.2-33.8,30.6-69.5,30.6-69.5l18.6,6.5
				c0,0-3.4,16.7-8.8,36.6c-5.9,21.9-13.8,56.2-13.4,76.2c0.4,20,10.6,33.6,10.6,33.6h84.1C1383.6,614.9,1385.4,613,1391,595.8"/>
		</g>
	</g>
	<g>
		<g>
			<path class="st11" d="M1569.4,580.8l-0.6-6.7l-153.6,18.6c-8.7,1.1-14.7,9.5-13.2,18.6l0.7,4.1l159-24.3
				C1566.5,590.3,1569.9,585.8,1569.4,580.8z"/>
		</g>
	</g>
	<g>
		<g>
			<path class="st15" d="M1569.4,580.8l-0.6-6.7l-153.6,18.6c-8.7,1.1-14.7,9.5-13.2,18.6l0.7,4.1l159-24.3
				C1566.5,590.3,1569.9,585.8,1569.4,580.8z"/>
		</g>
	</g>
	<g class="st20">
		<g>
			<g>
				<path d="M1270.9,625.9c0,0-33.8-39.1-40.8-69.9c-2.3,0-7.8,0.2-10.5,0.8C1219.6,556.8,1239.5,614,1270.9,625.9z"/>
			</g>
		</g>
	</g>
	<g>
		<g>
			<g>
				<path class="st9" d="M1230.6,542.3c0,0-0.1,0.3-0.2,1c-0.1,0.6-0.3,1.6-0.4,2.8c-0.2,2.5-0.4,6.1,0.3,10.7
					c0.6,4.4,2.1,9.6,4.5,15.1c2.4,5.4,5.6,11,9,16.9c6.8,11.8,14.3,21.3,19.8,28.1c2.8,3.4,5,6.1,6.6,8c0.8,0.9,1.4,1.6,1.8,2.1
					s0.7,0.7,0.7,0.7s-0.2-0.3-0.6-0.8c-0.4-0.5-1-1.3-1.7-2.2c-1.6-2-3.8-4.7-6.5-8.1c-5.4-6.9-12.9-16.5-19.6-28.2
					c-3.4-5.8-6.6-11.4-9-16.8c-2.4-5.3-3.9-10.5-4.5-14.9c-0.7-4.4-0.6-8-0.4-10.6c0.1-1.2,0.2-2.2,0.3-2.9
					C1230.6,542.6,1230.6,542.3,1230.6,542.3z"/>
			</g>
		</g>
	</g>
	<g>
		<g>
			<g>
				<path class="st9" d="M1289,625.7c0.1,0.1,2.5-2.2,5.4-5.1c2.9-3,5.1-5.4,5-5.6c-0.1-0.1-2.5,2.2-5.4,5.1
					C1291.1,623.1,1288.9,625.5,1289,625.7z"/>
			</g>
		</g>
	</g>
	<g>
		<g>
			<g>
				<path class="st9" d="M1389.4,624.5c0.1-0.1-0.8-2.4-2.5-5c-1.7-2.6-3.5-4.4-3.6-4.3c-0.1,0.1,1.4,2.1,3.1,4.6
					C1388.1,622.3,1389.2,624.5,1389.4,624.5z"/>
			</g>
		</g>
	</g>
	<g>
		<g>
			<g>
				<path class="st9" d="M1454.3,647c0.1-0.1-2.4-1.8-4.6-6.1c-1.1-2.1-2-4.9-2.3-8.1c-0.3-3.2,0.2-6.7,1.6-10.2
					c1.5-3.3,3.9-5.9,6.5-7.7c2.5-1.8,5.2-2.8,7.4-3.2c4.6-0.9,7.5,0.1,7.5-0.1c0,0-0.2-0.1-0.5-0.2c-0.3-0.1-0.8-0.2-1.5-0.3
					c-1.3-0.2-3.2-0.3-5.6,0.1c-2.3,0.4-5,1.4-7.7,3.2c-2.6,1.8-5.1,4.5-6.7,7.9c-1.5,3.4-2,7.1-1.7,10.5c0.3,3.3,1.3,6.1,2.4,8.2
					c1.2,2.2,2.4,3.7,3.4,4.6c0.5,0.5,0.9,0.8,1.2,1C1454.2,647,1454.3,647.1,1454.3,647z"/>
			</g>
		</g>
	</g>
	<g>
		<g>
			<g>
				<path class="st9" d="M1510.3,634.6c0.2,0,0.4-2.5,0.6-5.7c0.1-3.1,0.1-5.7,0-5.7c-0.2,0-0.4,2.5-0.6,5.7
					C1510.2,632.1,1510.2,634.6,1510.3,634.6z"/>
			</g>
		</g>
	</g>
	<g>
		<g>
			<g>
				<path class="st9" d="M1506.4,634.6c0.2,0,0.6-2.5,1-5.7c0.4-3.1,0.6-5.7,0.4-5.7s-0.6,2.5-1,5.7
					C1506.4,632,1506.2,634.6,1506.4,634.6z"/>
			</g>
		</g>
	</g>
	<g>
		<g>
			<g>
				<path class="st9" d="M1443,525c0,0.2,18.7,0.3,41.7,0.3c23.1,0,41.7-0.1,41.7-0.3c0-0.2-18.7-0.3-41.7-0.3S1443,524.8,1443,525z
					"/>
			</g>
		</g>
	</g>
	<g>
		<g>
			<g>
				<path class="st9" d="M1503.5,524.9c0.2,0,0.3-22.5,0.3-50.3c0-27.7-0.1-50.3-0.3-50.3c-0.2,0-0.3,22.5-0.3,50.3
					C1503.2,502.4,1503.3,524.9,1503.5,524.9z"/>
			</g>
		</g>
	</g>
	<g>
		<g>
			<g>
				<path class="st9" d="M1514.8,524.8c0.2,0-0.6-22.5-1.8-50.3c-1.2-27.7-2.2-50.3-2.4-50.3c-0.2,0,0.6,22.5,1.8,50.3
					C1513.6,502.4,1514.7,524.9,1514.8,524.8z"/>
			</g>
		</g>
	</g>
	<g>
		<g>
			<g>
				<g>
					<path class="st17" d="M1540.8,662c0,0,0.2-0.2,0.5-0.5c0.3-0.4,0.8-0.9,1.3-1.6c1.1-1.4,2.6-3.6,4.2-6.4
						c3.1-5.6,6.2-14.5,6.2-24.6s-3.2-18.9-6.4-24.5c-1.6-2.8-3.1-5-4.2-6.4c-0.5-0.7-1-1.2-1.3-1.6c-0.3-0.4-0.5-0.5-0.5-0.5
						s0.1,0.2,0.4,0.6c0.3,0.4,0.7,0.9,1.2,1.6c1.1,1.4,2.5,3.6,4,6.4c3,5.6,6.1,14.4,6.1,24.3s-3,18.7-6,24.4c-1.5,2.8-2.9,5-4,6.5
						c-0.5,0.7-1,1.3-1.2,1.7S1540.7,662,1540.8,662z"/>
				</g>
			</g>
		</g>
	</g>
	<g>
		<g>
			<g>
				<g>
					<g>
						<g>
							<path class="st17" d="M1379.3,571.6l0.4,0.7l6.8,13.5l9.5,9.6l-19,26.6l-15.9-2.8c0,0,1.8-3.8,9.7-4.5l3-15.9l-11.2-18.2"/>
						</g>
					</g>
				</g>
				<g>
					<g>
						<g>
							<polygon class="st5" points="1396,595.4 1376.9,622.1 1361.1,619.2 1363.3,617 1376.3,618.5 1394,593.3 							"/>
						</g>
					</g>
				</g>
			</g>
			<g>
				<g>
					<g>
						<g>
							<path class="st9" d="M1372.1,607.4c0.1,0.2,1.1-0.2,2.3,0.1c1.2,0.2,2,0.9,2.2,0.8c0.2-0.1-0.6-1.2-2.1-1.5
								C1373,606.4,1372,607.3,1372.1,607.4z"/>
						</g>
					</g>
				</g>
			</g>
			<g>
				<g>
					<g>
						<g>
							<path class="st9" d="M1373,603.5c0.1,0.1,1-0.7,2.3-0.7c1.3-0.1,2.2,0.7,2.4,0.6c0.1-0.1-0.1-0.4-0.5-0.7
								c-0.4-0.3-1.1-0.6-1.9-0.6s-1.5,0.4-1.9,0.8C1373,603.1,1372.9,603.4,1373,603.5z"/>
						</g>
					</g>
				</g>
			</g>
			<g>
				<g>
					<g>
						<g>
							<path class="st9" d="M1373.7,598.3c0.2,0.1,0.9-0.7,2-0.9c1.2-0.2,2.1,0.3,2.2,0.2c0.1-0.1-0.1-0.3-0.5-0.6
								c-0.4-0.2-1.1-0.4-1.8-0.3c-0.7,0.1-1.3,0.6-1.6,0.9C1373.7,597.9,1373.6,598.3,1373.7,598.3z"/>
						</g>
					</g>
				</g>
			</g>
			<g>
				<g>
					<g>
						<g>
							<path class="st9" d="M1370,593.6c0.2,0.1,0.8-0.8,1.9-1.3c1.1-0.5,2.1-0.4,2.1-0.6c0.1-0.2-1.1-0.7-2.4,0
								C1370.3,592.3,1369.9,593.6,1370,593.6z"/>
						</g>
					</g>
				</g>
			</g>
			<g>
				<g>
					<g>
						<g>
							<path class="st9" d="M1368.5,589.9c0.1,0.1,0.7-0.5,1.7-1.5c0.5-0.6,1.1-1.2,1.7-1.8c0.3-0.3,0.7-0.6,0.9-1.2
								c0.1-0.3,0.2-0.7,0.1-1c-0.1-0.4-0.5-0.7-0.9-0.7c-0.7,0-1.2,0.3-1.6,0.5c-0.4,0.3-0.8,0.6-1.1,1c-0.6,0.7-1,1.5-1.2,2.2
								c-0.4,1.4-0.1,2.4,0,2.3c0.1,0,0-0.9,0.5-2.2c0.2-0.6,0.6-1.3,1.2-1.9c0.3-0.3,0.6-0.6,1-0.8c0.4-0.2,0.9-0.5,1.2-0.4
								c0.2,0,0.2,0.1,0.3,0.2c0,0.1,0,0.3,0,0.5c-0.1,0.3-0.5,0.7-0.8,1c-0.5,0.6-1,1.3-1.5,1.9
								C1368.9,589.1,1368.4,589.8,1368.5,589.9z"/>
						</g>
					</g>
				</g>
			</g>
			<g>
				<g>
					<g>
						<g>
							<path class="st9" d="M1367.9,590.3c0.1,0,0.2-0.9-0.5-2c-0.7-1.1-2.4-2.4-4.6-1.7c-0.2,0.1-0.3,0.3-0.3,0.5
								c0,0.2,0,0.4,0.1,0.6c0.1,0.3,0.3,0.5,0.5,0.6c0.3,0.3,0.7,0.6,1,0.9c0.7,0.5,1.4,0.8,2,1c1.2,0.4,2,0.2,2,0.1
								s-0.7-0.2-1.8-0.6c-0.5-0.2-1.2-0.6-1.8-1c-0.3-0.2-0.6-0.5-0.9-0.8c-0.1-0.2-0.3-0.3-0.4-0.4c-0.1-0.2,0-0.1,0-0.2
								c0.1-0.1,0.3-0.1,0.5-0.1s0.4,0,0.6,0c0.4,0,0.8,0.1,1.1,0.3c0.7,0.3,1.2,0.7,1.6,1.2
								C1367.6,589.5,1367.8,590.3,1367.9,590.3z"/>
						</g>
					</g>
				</g>
			</g>
			<g>
				<g>
					<g>
						<path class="st5" d="M1383.4,592.7c-0.2,1.1,0.5,2.1,1.6,2.3c1,0.2,2-0.6,2.2-1.6c0.2-1.1-0.5-2.1-1.6-2.3
							C1384.6,590.8,1383.6,591.6,1383.4,592.7z"/>
					</g>
				</g>
			</g>
		</g>
	</g>
	<g>
		<g>
			<g>
				<g>
					<g>
						<path class="st17" d="M1321.6,584.4l-5.1,34.8l-41.1-6.4c0.8-4.1,23.3-9,23.3-9l2.4-22.4L1321.6,584.4z"/>
					</g>
				</g>
			</g>
			<g>
				<g>
					<g>
						<g>
							<path class="st5" d="M1311.6,603.8c0.8,0.4,1.2,1.4,0.9,2.2s-1.3,1.3-2.1,0.9c-0.8-0.3-1.3-1.5-0.9-2.3s1.6-1.2,2.3-0.7"/>
						</g>
					</g>
				</g>
			</g>
			<g>
				<g>
					<g>
						<path class="st5" d="M1316.5,619.1l0.4-3.5l-39.5-4.8c0,0-2,0.5-1.9,1.9L1316.5,619.1z"/>
					</g>
				</g>
			</g>
			<g>
				<g>
					<g>
						<g>
							<path class="st9" d="M1298,603.4c0,0.2,1,0.5,1.9,1.3c0.9,0.8,1.3,1.8,1.5,1.7c0.2,0,0.1-1.3-1-2.3
								C1299.2,603.1,1298,603.2,1298,603.4z"/>
						</g>
					</g>
				</g>
			</g>
			<g>
				<g>
					<g>
						<g>
							<path class="st9" d="M1293.4,604.6c-0.1,0.2,0.7,0.7,1.3,1.7c0.6,1,0.6,2,0.8,2c0.2,0.1,0.5-1.1-0.2-2.4
								C1294.6,604.6,1293.4,604.4,1293.4,604.6z"/>
						</g>
					</g>
				</g>
			</g>
			<g>
				<g>
					<g>
						<g>
							<path class="st9" d="M1290.2,609.6c0.2,0.1,0.6-0.9,0.3-2.2c-0.3-1.2-1.2-1.8-1.3-1.7c-0.1,0.2,0.4,0.9,0.7,1.9
								C1290.1,608.6,1290,609.5,1290.2,609.6z"/>
						</g>
					</g>
				</g>
			</g>
			<g>
				<g>
					<g>
						<g>
							<path class="st9" d="M1299.1,598.3c0.1,0.2,1,0.1,2.1,0.3c1.1,0.2,2,0.8,2.1,0.6c0.1-0.1-0.6-1-1.9-1.3
								C1300,597.6,1299,598.1,1299.1,598.3z"/>
						</g>
					</g>
				</g>
			</g>
			<g>
				<g>
					<g>
						<g>
							<path class="st9" d="M1300.8,593.3c0,0.1,0.8,0.3,2.1,0.3c0.6,0,1.4-0.1,2.3-0.4c0.4-0.1,0.8-0.3,1.3-0.5
								c0.2-0.1,0.5-0.2,0.7-0.4c0.3-0.2,0.5-0.7,0.3-1.1c-0.2-0.4-0.5-0.6-0.8-0.6c-0.3-0.1-0.6,0-0.8,0c-0.5,0-0.9,0.1-1.3,0.3
								c-0.8,0.3-1.5,0.6-2.1,1c-1.1,0.8-1.5,1.5-1.5,1.6c0.1,0.1,0.6-0.5,1.7-1.1c0.5-0.3,1.2-0.6,2-0.8c0.4-0.1,0.8-0.2,1.2-0.2
								c0.5-0.1,0.8,0,0.9,0.2c0,0.1,0,0.1-0.1,0.2c-0.1,0.1-0.3,0.2-0.5,0.3c-0.4,0.2-0.8,0.4-1.2,0.5c-0.8,0.3-1.5,0.4-2.1,0.5
								C1301.6,593.3,1300.8,593.2,1300.8,593.3z"/>
						</g>
					</g>
				</g>
			</g>
			<g>
				<g>
					<g>
						<g>
							<path class="st9" d="M1301,593.6c0.1,0,0.6-0.6,0.8-2c0.1-0.7,0.2-1.5,0.1-2.4c-0.1-0.5-0.2-0.9-0.3-1.4
								c-0.2-0.5-0.4-1.1-1.2-1.3c-0.4-0.1-0.8,0.2-0.9,0.5c-0.2,0.3-0.2,0.5-0.3,0.8c-0.1,0.5-0.2,1-0.2,1.5c0,0.9,0.2,1.8,0.6,2.4
								c0.6,1.2,1.4,1.6,1.5,1.6c0.1-0.1-0.6-0.6-1-1.8c-0.2-0.6-0.4-1.3-0.4-2.1c0-0.4,0.1-0.8,0.2-1.2c0.1-0.4,0.3-0.8,0.5-0.7
								c0.2,0,0.5,0.4,0.6,0.8c0.2,0.4,0.3,0.8,0.3,1.2c0.1,0.8,0.2,1.6,0.1,2.2C1301.2,592.8,1300.9,593.6,1301,593.6z"/>
						</g>
					</g>
				</g>
			</g>
		</g>
	</g>
	<g>
		<g>
			<polyline class="st10" points="1353.9,502.9 1389.2,583.7 1365.9,598.3 1317.2,501.2 			"/>
		</g>
	</g>
	<g>
		<g>
			<path class="st10" d="M1295.8,600.2l25.3,4.2l15.2-95.1l74.8,5.7c2,0.1,4,0,5.9-0.6c21-6,18.2-34.3,16.2-38.8l-103.5-3.1
				c-11.2-0.3-20.9,8.2-22.5,20L1295.8,600.2z"/>
		</g>
	</g>
	<g>
		<g>
			<g>
				<g>
					<g>
						<g>
							<g>
								<g>
									<g>
										<g>
											<path class="st13" d="M1434.1,480.2l-0.4-40.2c0,0,4.9-26.1,6.4-36.4c2.3-16,5.4-23.5-19.5-34.9l-5.4-2.2l-8.4,0.1
												c-10,0.8-20.6,10.4-20.8,16.7l-9.7,90.6L1434.1,480.2z"/>
										</g>
									</g>
								</g>
							</g>
						</g>
					</g>
				</g>
			</g>
		</g>
	</g>
	<g>
		<g>
			<g>
				<g>
					<path class="st13" d="M1432.5,378.1c0,0,7,15.9,5.6,30.4l-26.2,26.3c-5.9,6.8-13.2,9.7-22.6,10.4l-54,6.2l-1.5-14.9l51.4-15.4
						c2-0.4,3.1-2.6,4.6-4.1L1432.5,378.1"/>
				</g>
			</g>
		</g>
	</g>
	<g>
		<g>
			<g>
				<path class="st9" d="M1436.8,382.8c0,0-0.3-0.3-1-0.7c-0.7-0.4-1.9-0.8-3.5-1c-1.6-0.2-3.6-0.4-5.8,0c-0.6,0.1-1.2,0.3-1.7,0.6
					c-0.5,0.3-1.1,0.7-1.6,1.1c-1,0.8-2.1,1.8-3.2,2.9c-2.2,2.1-4.2,4.8-6.6,7.5s-5,5.6-7.9,8.7c-2.9,3.1-5.9,6.3-9.2,9.6
					c-1.7,1.6-3.4,3.3-5.2,5c-0.9,0.8-1.8,1.7-2.7,2.6c-0.9,0.8-1.9,1.6-3,1.9l0,0l0,0c-15.3,4.5-32.8,9.7-51.4,15.3l-0.2,0.1v0.3
					c0.1,1,0.2,2.2,0.3,3.3c0.4,3.9,0.8,7.8,1.2,11.6v0.3h0.3c7.9-0.9,15.5-1.8,22.9-2.6c3.7-0.4,7.3-0.8,10.8-1.2
					c3.5-0.4,7-0.7,10.4-1.1s6.7-0.8,9.8-1.3c3.2-0.5,6.3-1.1,9.1-2.2c2.8-1.1,5.4-2.6,7.7-4.3c2.3-1.7,4.4-3.4,6.3-5.1
					c7.7-6.9,13.4-13.2,17.4-17.4c2-2.1,3.5-3.8,4.5-4.9c0.5-0.6,0.9-1,1.1-1.3c0.3-0.3,0.4-0.5,0.4-0.5s-0.1,0.1-0.4,0.4
					c-0.3,0.3-0.7,0.7-1.2,1.3c-1.1,1.1-2.6,2.7-4.5,4.8c-4,4.2-9.7,10.4-17.5,17.2c-2,1.7-4,3.4-6.3,5c-2.3,1.6-4.8,3.2-7.6,4.2
					c-2.8,1.1-5.8,1.7-9,2.2s-6.4,0.9-9.8,1.2c-3.4,0.3-6.8,0.7-10.4,1.1c-3.5,0.4-7.2,0.8-10.8,1.2c-7.4,0.8-15,1.7-22.9,2.6
					l0.3,0.3c-0.4-3.7-0.8-7.6-1.2-11.6c-0.1-1.1-0.2-2.3-0.3-3.3l-0.2,0.3c18.6-5.5,36.1-10.8,51.4-15.4l0,0c1.3-0.3,2.4-1.1,3.3-2
					c0.9-0.9,1.7-1.8,2.7-2.6c1.8-1.7,3.5-3.3,5.2-5c3.3-3.3,6.4-6.5,9.2-9.6c2.8-3.1,5.5-6,7.9-8.7c2.4-2.7,4.4-5.4,6.6-7.5
					c1.1-1.1,2.1-2,3.1-2.9c0.5-0.4,1-0.8,1.6-1.1c0.5-0.3,1.1-0.5,1.6-0.6c2.2-0.5,4.2-0.3,5.8-0.1c1.6,0.2,2.7,0.6,3.5,0.9
					C1436.4,382.5,1436.7,382.8,1436.8,382.8z"/>
			</g>
		</g>
	</g>
	<g>
		<g>
			<g>
				<g>
					<g>
						<g>
							<g>
								<g>
									<g>
										<g>
											<g>
												<g>
													<g>
														<g>
															<g>
																<g>
																	<g>
																		<g>
																			<path class="st19" d="M1423.2,331.8l-2.6,39.1c-0.4,6.4-5.5,11.4-11.6,11.4l0,0c-6.7,0-12-5.9-11.6-13
																				c0.2-3.7,0.4-6.7,0.4-6.7s-9-1.5-9.1-11c-0.1-5.4,0.8-17.9,1.6-27.3c0.5-6.4,5.6-11.4,11.8-11.4h5.4
																				C1417,313.3,1424,322,1423.2,331.8z"/>
																		</g>
																	</g>
																</g>
															</g>
														</g>
													</g>
												</g>
											</g>
										</g>
									</g>
								</g>
								<g>
									<g>
										<g>
											<g>
												<g>
													<g>
														<g>
															<g>
																<g>
																	<g>
																		<g>
																			<path class="st21" d="M1398,362.4c0,0,5.7,0.5,11.8-3.5c0,0-2.8,6.8-11.8,5.9V362.4z"/>
																		</g>
																	</g>
																</g>
															</g>
														</g>
													</g>
												</g>
											</g>
										</g>
									</g>
								</g>
							</g>
						</g>
					</g>
					<g>
						<g>
							<g>
								<g>
									<g>
										<g>
											<g>
												<g>
													<g>
														<g>
															<g>
																<g>
																	<g>
																		<g>
																			<g>
																				<g>
																					<g>
																						<path class="st9" d="M1392.5,336.3c0,0.7,0.5,1.3,1.2,1.4c0.7,0,1.3-0.5,1.3-1.2s-0.5-1.3-1.2-1.4
																							C1393.1,335,1392.5,335.6,1392.5,336.3z"/>
																					</g>
																				</g>
																			</g>
																		</g>
																	</g>
																</g>
															</g>
														</g>
													</g>
												</g>
											</g>
											<g>
												<g>
													<g>
														<g>
															<g>
																<g>
																	<g>
																		<g>
																			<g>
																				<g>
																					<g>
																						<g>
																							<path class="st9" d="M1392,333.6c0.2,0.2,1.1-0.6,2.5-0.6c1.4,0,2.4,0.7,2.6,0.6c0.1-0.1-0.1-0.4-0.5-0.7
																								c-0.4-0.3-1.2-0.7-2-0.7c-0.9,0-1.6,0.3-2,0.7C1392.1,333.2,1391.9,333.5,1392,333.6z"/>
																						</g>
																					</g>
																				</g>
																			</g>
																		</g>
																	</g>
																</g>
															</g>
														</g>
													</g>
												</g>
											</g>
										</g>
										<g>
											<g>
												<g>
													<g>
														<g>
															<g>
																<g>
																	<g>
																		<g>
																			<g>
																				<g>
																					<g>
																						<path class="st9" d="M1405.4,336.3c0,0.7,0.5,1.3,1.2,1.4c0.7,0,1.3-0.5,1.3-1.2s-0.5-1.3-1.2-1.4
																							C1406,335,1405.4,335.6,1405.4,336.3z"/>
																					</g>
																				</g>
																			</g>
																		</g>
																	</g>
																</g>
															</g>
														</g>
													</g>
												</g>
											</g>
											<g>
												<g>
													<g>
														<g>
															<g>
																<g>
																	<g>
																		<g>
																			<g>
																				<g>
																					<g>
																						<g>
																							<path class="st9" d="M1405.5,333.9c0.2,0.2,1.1-0.6,2.5-0.6s2.4,0.7,2.6,0.6c0.1-0.1-0.1-0.4-0.5-0.7
																								c-0.4-0.3-1.2-0.7-2-0.7c-0.9,0-1.6,0.3-2,0.7C1405.6,333.5,1405.5,333.8,1405.5,333.9z"/>
																						</g>
																					</g>
																				</g>
																			</g>
																		</g>
																	</g>
																</g>
															</g>
														</g>
													</g>
												</g>
											</g>
										</g>
										<g>
											<g>
												<g>
													<g>
														<g>
															<g>
																<g>
																	<g>
																		<g>
																			<g>
																				<g>
																					<g>
																						<path class="st9" d="M1400.5,344.7c0-0.1-0.9-0.2-2.2-0.4c-0.4,0-0.7-0.1-0.7-0.4c-0.1-0.3,0.1-0.7,0.2-1.1
																							c0.3-0.9,0.7-1.8,1-2.8c1.5-4,2.5-7.3,2.3-7.4c-0.2-0.1-1.5,3.1-2.9,7.1c-0.3,1-0.7,1.9-1,2.8
																							c-0.1,0.4-0.4,0.9-0.2,1.5c0.1,0.3,0.4,0.5,0.6,0.5c0.2,0.1,0.4,0.1,0.6,0.1
																							C1399.6,344.8,1400.5,344.8,1400.5,344.7z"/>
																					</g>
																				</g>
																			</g>
																		</g>
																	</g>
																</g>
															</g>
														</g>
													</g>
												</g>
											</g>
										</g>
										<g>
											<g>
												<g>
													<g>
														<g>
															<g>
																<g>
																	<g>
																		<g>
																			<g>
																				<g>
																					<g>
																						<path class="st9" d="M1404.6,345.7c-0.2,0-0.2,1.6-1.5,2.7c-1.3,1.1-2.9,0.9-2.9,1.2c0,0.1,0.4,0.3,1,0.3
																							c0.7,0,1.6-0.2,2.4-0.9c0.8-0.7,1.1-1.6,1.2-2.2C1404.9,346.1,1404.7,345.7,1404.6,345.7z"/>
																					</g>
																				</g>
																			</g>
																		</g>
																	</g>
																</g>
															</g>
														</g>
													</g>
												</g>
											</g>
										</g>
									</g>
								</g>
							</g>
							<g>
								<g>
									<g>
										<g>
											<g>
												<g>
													<g>
														<g>
															<g>
																<g>
																	<g>
																		<path class="st9" d="M1405.2,328.2c0.1,0.4,1.5,0.2,3.1,0.4c1.6,0.2,2.9,0.7,3.2,0.3c0.1-0.2-0.1-0.5-0.7-0.9
																			c-0.5-0.4-1.4-0.7-2.3-0.9c-1-0.1-1.9,0.1-2.5,0.3C1405.4,327.7,1405.1,328,1405.2,328.2z"/>
																	</g>
																</g>
															</g>
														</g>
													</g>
												</g>
											</g>
										</g>
									</g>
								</g>
							</g>
							<g>
								<g>
									<g>
										<g>
											<g>
												<g>
													<g>
														<g>
															<g>
																<g>
																	<g>
																		<path class="st9" d="M1392.5,329.4c0.2,0.3,1.2,0,2.3,0c1.1-0.1,2.1,0.2,2.3-0.1c0.1-0.2-0.1-0.5-0.5-0.8
																			c-0.4-0.3-1.1-0.6-1.9-0.5c-0.8,0-1.5,0.3-1.9,0.7C1392.6,328.9,1392.4,329.3,1392.5,329.4z"/>
																	</g>
																</g>
															</g>
														</g>
													</g>
												</g>
											</g>
										</g>
									</g>
								</g>
							</g>
						</g>
					</g>
					<g>
						<g>
							<g>
								<g>
									<g>
										<g>
											<g>
												<g>
													<g>
														<g>
															<g>
																<g>
																	<path class="st19" d="M1420.2,338.8c0.2-0.1,6.2-1.9,6,4.5s-6.3,4.9-6.3,4.7C1419.8,348,1420.2,338.8,1420.2,338.8
																		z"/>
																</g>
															</g>
														</g>
													</g>
												</g>
											</g>
										</g>
									</g>
								</g>
							</g>
						</g>
						<g>
							<g>
								<g>
									<g>
										<g>
											<g>
												<g>
													<g>
														<g>
															<g>
																<g>
																	<g>
																		<path class="st21" d="M1421.8,345.8c0,0,0.1,0.1,0.3,0.2c0.2,0.1,0.5,0.2,0.8,0c0.7-0.2,1.2-1.3,1.3-2.4
																			c0-0.6-0.1-1.1-0.3-1.6c-0.2-0.5-0.5-0.8-0.8-0.9c-0.3-0.1-0.6,0.1-0.6,0.3c-0.1,0.2-0.1,0.3-0.1,0.3
																			s-0.1-0.1-0.1-0.4c0-0.1,0.1-0.3,0.3-0.4c0.2-0.1,0.4-0.2,0.6-0.1c0.5,0.1,0.9,0.5,1.1,1c0.2,0.5,0.4,1.1,0.3,1.8
																			c-0.1,1.3-0.8,2.5-1.7,2.7c-0.4,0.1-0.8,0-1-0.2C1421.8,346,1421.8,345.8,1421.8,345.8z"/>
																	</g>
																</g>
															</g>
														</g>
													</g>
												</g>
											</g>
										</g>
									</g>
								</g>
							</g>
						</g>
					</g>
				</g>
			</g>
			<g>
				<g>
					<g>
						<g>
							<g>
								<g>
									<g>
										<path class="st9" d="M1423.6,338.6c-0.9-0.2-2.6,0.7-3,1.6s-0.5,2-0.9,2.9s-1.3,1.8-2.2,1.5c-0.6-0.2-1.1-0.8-1.3-1.5
											c-0.2-0.7-0.1-1.4,0-2.1c0.4-3,1-6,1.1-9c0.1-3-0.3-6.2-1.8-8.8c-1.5-2.6-4.3-4.5-7.2-4.2c-1.9,0.2-3.7,1.2-5.6,1.5
											c-2.3,0.3-4.6-0.5-6.3-2.2c-0.2-0.2-1.2-0.9-1.2-0.9c0-0.2,0.1-1.5,0.6-2c3.8-3.6,10.6-4.7,15.6-3.4c5,1.3,9.7,5,11.8,9.9
											C1425.4,326.9,1424.8,333.7,1423.6,338.6"/>
									</g>
								</g>
							</g>
						</g>
					</g>
				</g>
			</g>
		</g>
	</g>
	<g>
		<g>
			<g>
				<g>
					<path class="st11" d="M1390.4,322.7c0,0,23.6-8,33.8,13.5c0,0,1.5-5.4,1.5-8.2c0-1.9-1.1-13.4-12.3-17
						C1413.3,310.9,1396.5,304.2,1390.4,322.7z"/>
				</g>
			</g>
		</g>
	</g>
	<g>
		<g>
			<g>
				<g>
					<path class="st9" d="M1410.6,323.3c-0.8,1.4-2.3,2.4-3.9,2.5c-1.6,0.2-3.2-0.5-4.3-1.7c-0.5,1.2-1.7,2.1-3,2
						c-1.3-0.1-2.4-1-2.8-2.3c-0.7,0.7-1.4,1.4-2.3,1.8c-0.9,0.3-2,0.2-2.6-0.6c-0.6-0.8-0.4-2,0.2-2.8c0.6-0.8,1.5-1.3,2.4-1.7
						c2.8-1.2,5.9-1.8,8.9-1.4c3,0.4,5.9,2,7.8,4.5"/>
				</g>
			</g>
		</g>
	</g>
	<g>
		<g>
			<g>
				<g>
					<path class="st15" d="M1390.4,322.7c0,0,2.7-3.3,7.5-3.6c7-0.3,20,3.8,26.4,17.1c0,0,1.5-5.4,1.5-8.2c0-1.9-1.1-13.4-12.3-17
						C1413.3,310.9,1396.5,304.2,1390.4,322.7z"/>
				</g>
			</g>
		</g>
	</g>
	<g>
		<g>
			<g>
				<path class="st13" d="M1423.2,333.6c-3.5-5.6-8.3-10.3-13.8-13.9c-5.4-3.5-14.4-7.1-20.6-8.8c-1.9-0.5-3.8-1-5.7-0.6
					c-1.9,0.3-3.8,1.7-4.2,3.6c-0.6,2.4,3.6,6.2,5.5,7.7c1.9,1.5,5.9,3.7,5.9,3.7s-0.1-4.5,6.9-5.5
					C1406.6,318.6,1423.2,333.6,1423.2,333.6z"/>
			</g>
		</g>
	</g>
	<g class="st20">
		<g>
			<g>
				<path d="M1431.5,414.3c-2.4,6.2-4.9,13.8-8.4,19.4c-3.5,5.5-8.3,10.5-14.1,13.1c-7.4,3.2-16.1,3.7-23.4,0.4
					c-0.6-0.3-1.8-0.6-1.7-1.3c0,0,2.4-0.3,3.2-0.4c14.8-2.6,16.4-4.5,23.5-10.5C1415,431.4,1424.8,420.3,1431.5,414.3"/>
			</g>
		</g>
	</g>
	<g>
		<g>
			<g>
				<path class="st9" d="M1384.4,459.3c0,0,0.2,0.5,0.6,1.4c0.5,0.9,1.2,2.1,2.4,3.5c2.3,2.7,6.4,5.7,11.5,7.3s9.9,1.9,13.4,2.1
					c1.7,0.1,3.1,0.1,4.1,0.1s1.5,0,1.5-0.1c0,0-0.5-0.1-1.5-0.2c-1.1-0.1-2.4-0.2-4.1-0.3c-3.4-0.3-8.2-0.6-13.2-2.2
					c-5-1.6-9-4.4-11.4-7.1C1385.4,461.5,1384.5,459.2,1384.4,459.3z"/>
			</g>
		</g>
	</g>
	<g>
		<g>
			<g>
				<path class="st17" d="M1320.7,607.3c0,0,0-0.1,0.1-0.4c0.1-0.3,0.1-0.6,0.2-1.1c0.2-1,0.4-2.4,0.7-4.2c0.6-3.7,1.5-8.9,2.6-15.5
					c2.1-13.2,5-31.2,8.2-51.2c1.4-9,2.8-17.7,4.1-25.5l-0.3,0.2c13.2,1,24.4,1.9,32.3,2.5c4,0.3,7.1,0.5,9.3,0.7
					c1.1,0.1,1.9,0.1,2.5,0.2c0.3,0,0.5,0,0.6,0c0.1,0,0.2,0,0.2,0s-0.1,0-0.2,0c-0.2,0-0.4,0-0.6-0.1c-0.6-0.1-1.4-0.1-2.5-0.2
					c-2.2-0.2-5.3-0.5-9.3-0.8c-8-0.7-19.2-1.6-32.3-2.7h-0.3v0.3c-1.3,7.8-2.6,16.5-4.1,25.5c-3.2,20-6,38-8.1,51.2
					c-1,6.5-1.8,11.9-2.4,15.5c-0.3,1.8-0.5,3.2-0.6,4.2c-0.1,0.5-0.1,0.8-0.1,1.1C1320.7,607.2,1320.6,607.3,1320.7,607.3z"/>
			</g>
		</g>
	</g>
	<g>
		<g>
			<g>
				<path class="st17" d="M1328.7,501c-0.1,0.1,1.9,1.9,4.1,4.3c2.2,2.4,3.9,4.5,4,4.4c0.1-0.1-1.3-2.4-3.6-4.8
					C1330.9,502.5,1328.8,500.9,1328.7,501z"/>
			</g>
		</g>
	</g>
	<g>
		<g>
			<g>
				<path class="st9" d="M1397.8,370.1c0,0-0.1,0.1-0.1,0.4c-0.1,0.3-0.2,0.6-0.2,1.2c-0.1,1-0.1,2.5,0.5,4.3
					c0.6,1.7,1.8,3.7,3.7,5.1c1.9,1.5,4.5,2.2,7.2,2s5.2-1.3,7-2.8c1.9-1.5,3.1-3.3,4-4.9c0.8-1.6,1.3-3,1.5-4
					c0.1-0.5,0.2-0.9,0.2-1.1c0-0.3,0-0.4,0-0.4c-0.1,0-0.4,2.2-2.1,5.4c-0.9,1.5-2.2,3.2-4,4.6c-1.8,1.4-4.2,2.4-6.7,2.6
					c-2.6,0.2-5.1-0.5-6.9-1.9c-1.8-1.3-3-3.2-3.6-4.8c-0.6-1.7-0.8-3.1-0.7-4.1C1397.7,370.6,1397.8,370.1,1397.8,370.1z"/>
			</g>
		</g>
	</g>
	<g>
		<g>
			<path class="st22" d="M1392,518.2"/>
		</g>
	</g>
	<g>
		<g>
			<g>
				<path class="st9" d="M1381.8,421.9c0,0,0.1-0.4,0.2-1.2c0.1-0.9,0.3-2.1,0.5-3.4c0.4-3,0.9-6.9,1.4-11.3
					c0.5-4.4,0.9-8.3,1.2-11.3c0.1-1.4,0.2-2.6,0.3-3.4c0-0.8,0.1-1.3,0-1.3c0,0-0.1,0.4-0.2,1.2c-0.1,0.9-0.3,2.1-0.4,3.4
					c-0.4,3-0.8,6.9-1.3,11.3c-0.5,4.4-1,8.3-1.2,11.3c-0.1,1.4-0.2,2.6-0.3,3.4C1381.8,421.5,1381.8,421.9,1381.8,421.9z"/>
			</g>
		</g>
	</g>
	<text transform="matrix(1.0565 0 0 1 1657.4177 381.0552)" class="st0 st23 st24">Objective</text>
	<text transform="matrix(1.0565 0 0 1 1663.6697 622.9492)" class="st10 st23 st25">Total disance</text>
	<g>
		<path class="st10" d="M1669.9,636.4c0,0.1,0,0.3,0,0.4c0,0.1,0,0.2-0.1,0.2c0,0.1-0.1,0.1-0.1,0.1h-0.1h-5.8h-0.1l-0.1-0.1
			c0,0-0.1-0.1-0.1-0.2c0-0.1,0-0.2,0-0.4c0-0.1,0-0.3,0-0.4s0-0.2,0.1-0.2c0-0.1,0.1-0.1,0.1-0.1h0.1h2v-6.5l-1.7,0.9
			c-0.1,0.1-0.2,0.1-0.3,0.1c-0.1,0-0.1,0-0.2,0c0,0-0.1-0.1-0.1-0.2s0-0.3,0-0.5c0-0.1,0-0.2,0-0.3s0-0.1,0-0.2
			c0-0.1,0.1-0.1,0.1-0.1s0.1-0.1,0.2-0.1l2.3-1.4h0.1c0,0,0.1,0,0.2,0c0.1,0,0.2,0,0.3,0c0.1,0,0.2,0,0.4,0c0.2,0,0.4,0,0.5,0
			c0.1,0,0.2,0,0.3,0c0.1,0,0.1,0,0.1,0.1v0.1v8.2h1.7h0.1l0.1,0.1c0,0.1,0.1,0.1,0.1,0.2S1669.9,636.2,1669.9,636.4z"/>
		<path class="st10" d="M1674.1,636c0,0.5-0.1,0.8-0.3,1c-0.2,0.2-0.5,0.2-1,0.2c-0.5,0-0.8-0.1-0.9-0.2c-0.1-0.1-0.3-0.5-0.3-0.9
			c0-0.5,0.1-0.8,0.3-1c0.2-0.2,0.5-0.2,1-0.2c0.5,0,0.8,0.1,0.9,0.2C1674,635.3,1674.1,635.6,1674.1,636z"/>
		<path class="st10" d="M1682.8,636.4c0,0.1,0,0.3,0,0.4c0,0.1,0,0.2-0.1,0.2c0,0.1-0.1,0.1-0.1,0.1h-0.1h-5.8h-0.1l-0.1-0.1
			c0,0-0.1-0.1-0.1-0.2c0-0.1,0-0.2,0-0.4c0-0.1,0-0.3,0-0.4s0-0.2,0.1-0.2c0-0.1,0.1-0.1,0.1-0.1h0.1h2v-6.5l-1.7,0.9
			c-0.1,0.1-0.2,0.1-0.3,0.1s-0.1,0-0.2,0c0,0-0.1-0.1-0.1-0.2s0-0.3,0-0.5c0-0.1,0-0.2,0-0.3s0-0.1,0-0.2c0-0.1,0.1-0.1,0.1-0.1
			s0.1-0.1,0.2-0.1l2.3-1.4h0.1c0,0,0.1,0,0.2,0c0.1,0,0.2,0,0.3,0c0.1,0,0.2,0,0.4,0c0.2,0,0.4,0,0.5,0c0.1,0,0.2,0,0.3,0
			c0.1,0,0.1,0,0.1,0.1v0.1v8.2h1.7h0.1l0.1,0.1c0,0.1,0.1,0.1,0.1,0.2S1682.8,636.2,1682.8,636.4z"/>
		<path class="st10" d="M1691.5,632.1c0,0.8-0.1,1.5-0.2,2.1c-0.1,0.6-0.4,1.2-0.7,1.6c-0.3,0.4-0.7,0.8-1.2,1
			c-0.5,0.2-1.1,0.4-1.8,0.4s-1.3-0.1-1.8-0.3c-0.5-0.2-0.8-0.6-1.1-1c-0.3-0.4-0.5-1-0.6-1.6c-0.1-0.6-0.2-1.3-0.2-2.1
			s0.1-1.5,0.2-2.1c0.1-0.6,0.4-1.2,0.7-1.6c0.3-0.4,0.7-0.8,1.2-1c0.5-0.2,1.1-0.4,1.8-0.4c0.7,0,1.3,0.1,1.8,0.3
			c0.5,0.2,0.9,0.6,1.1,1c0.3,0.4,0.5,1,0.6,1.6C1691.5,630.6,1691.5,631.3,1691.5,632.1z M1689.4,632.2c0-0.5,0-0.9,0-1.2
			s-0.1-0.7-0.1-0.9c-0.1-0.3-0.1-0.5-0.2-0.7c-0.1-0.2-0.2-0.3-0.3-0.4c-0.1-0.1-0.3-0.2-0.4-0.2c-0.1,0-0.3-0.1-0.5-0.1
			c-0.3,0-0.6,0.1-0.8,0.2c-0.2,0.1-0.4,0.4-0.5,0.7c-0.1,0.3-0.2,0.7-0.3,1.1c-0.1,0.4-0.1,0.9-0.1,1.5c0,0.7,0,1.3,0.1,1.8
			c0.1,0.5,0.2,0.8,0.3,1.1c0.1,0.3,0.3,0.5,0.5,0.6s0.4,0.2,0.7,0.2c0.2,0,0.4,0,0.6-0.1c0.2-0.1,0.3-0.2,0.4-0.3
			c0.1-0.1,0.2-0.3,0.3-0.5c0.1-0.2,0.1-0.4,0.2-0.7c0.1-0.3,0.1-0.5,0.1-0.9C1689.4,633,1689.4,632.6,1689.4,632.2z"/>
		<path class="st10" d="M1700,632.1c0,0.8-0.1,1.5-0.2,2.1c-0.1,0.6-0.4,1.2-0.7,1.6c-0.3,0.4-0.7,0.8-1.2,1
			c-0.5,0.2-1.1,0.4-1.8,0.4s-1.3-0.1-1.8-0.3c-0.5-0.2-0.8-0.6-1.1-1c-0.3-0.4-0.5-1-0.6-1.6c-0.1-0.6-0.2-1.3-0.2-2.1
			s0.1-1.5,0.2-2.1c0.1-0.6,0.4-1.2,0.7-1.6c0.3-0.4,0.7-0.8,1.2-1c0.5-0.2,1.1-0.4,1.8-0.4c0.7,0,1.3,0.1,1.8,0.3
			c0.5,0.2,0.9,0.6,1.1,1c0.3,0.4,0.5,1,0.6,1.6C1700,630.6,1700,631.3,1700,632.1z M1697.9,632.2c0-0.5,0-0.9,0-1.2
			s-0.1-0.7-0.1-0.9c-0.1-0.3-0.1-0.5-0.2-0.7c-0.1-0.2-0.2-0.3-0.3-0.4c-0.1-0.1-0.3-0.2-0.4-0.2c-0.1,0-0.3-0.1-0.5-0.1
			c-0.3,0-0.6,0.1-0.8,0.2c-0.2,0.1-0.4,0.4-0.5,0.7c-0.1,0.3-0.2,0.7-0.3,1.1c-0.1,0.4-0.1,0.9-0.1,1.5c0,0.7,0,1.3,0.1,1.8
			c0.1,0.5,0.2,0.8,0.3,1.1c0.1,0.3,0.3,0.5,0.5,0.6s0.4,0.2,0.7,0.2c0.2,0,0.4,0,0.6-0.1c0.2-0.1,0.3-0.2,0.4-0.3
			c0.1-0.1,0.2-0.3,0.3-0.5c0.1-0.2,0.1-0.4,0.2-0.7c0.1-0.3,0.1-0.5,0.1-0.9C1697.8,633,1697.9,632.6,1697.9,632.2z"/>
		<path class="st10" d="M1716.8,636.9C1716.8,637,1716.8,637,1716.8,636.9c0,0.1-0.1,0.2-0.2,0.2c-0.1,0-0.2,0-0.3,0.1
			c-0.1,0-0.3,0-0.5,0s-0.4,0-0.5,0c-0.1,0-0.2,0-0.3-0.1c-0.1,0-0.1-0.1-0.2-0.1v-0.1v-4.1c0-0.2,0-0.4-0.1-0.6
			c0-0.2-0.1-0.4-0.2-0.5c-0.1-0.1-0.2-0.2-0.4-0.3c-0.1-0.1-0.3-0.1-0.5-0.1s-0.5,0.1-0.7,0.3c-0.2,0.2-0.5,0.4-0.8,0.8v4.5
			c0,0.1,0,0.1,0,0.1s-0.1,0.1-0.2,0.1c-0.1,0-0.2,0-0.3,0.1c-0.1,0-0.3,0-0.5,0s-0.4,0-0.5,0c-0.1,0-0.2,0-0.3-0.1
			c-0.1,0-0.1-0.1-0.2-0.1v-0.1v-4.1c0-0.2,0-0.4-0.1-0.6c0-0.2-0.1-0.4-0.2-0.5c-0.1-0.1-0.2-0.2-0.4-0.3s-0.3-0.1-0.5-0.1
			c-0.3,0-0.5,0.1-0.8,0.3c-0.3,0.2-0.5,0.4-0.8,0.8v4.5c0,0.1,0,0.1,0,0.1s-0.1,0.1-0.2,0.1c-0.1,0-0.2,0-0.3,0.1
			c-0.1,0.1-0.3,0-0.5,0s-0.4,0-0.5,0c-0.1,0-0.2,0-0.3-0.1c-0.1,0-0.1-0.1-0.2-0.1v-0.1v-6.8c0-0.1,0-0.1,0-0.1l0.1-0.1
			c0.1,0,0.2,0,0.3-0.1c0.1-0.1,0.3,0,0.4,0c0.2,0,0.3,0,0.4,0c0.1,0,0.2,0,0.3,0.1c0.1,0,0.1,0.1,0.1,0.1v0.1v0.8
			c0.4-0.4,0.8-0.7,1.2-0.9c0.4-0.2,0.8-0.3,1.3-0.3c0.3,0,0.6,0,0.8,0.1c0.2,0.1,0.5,0.1,0.6,0.3c0.1,0.2,0.3,0.2,0.5,0.4
			c0.2,0.2,0.3,0.3,0.3,0.5c0.2-0.2,0.4-0.4,0.6-0.6c0.2-0.2,0.4-0.3,0.6-0.4s0.4-0.2,0.6-0.2s0.4-0.1,0.6-0.1
			c0.5,0,0.9,0.1,1.2,0.2c0.3,0.2,0.6,0.4,0.8,0.6c0.2,0.3,0.3,0.6,0.4,0.9c0.1,0.3,0.1,0.7,0.1,1.1v4.4L1716.8,636.9L1716.8,636.9z
			"/>
	</g>
</g>
</svg>
