<?xml version="1.0" encoding="utf-8"?>
<!-- Generator: Adobe Illustrator 24.1.1, SVG Export Plug-In . SVG Version: 6.00 Build 0)  -->
<svg version="1.1" id="Layer_1" xmlns="http://www.w3.org/2000/svg" xmlns:xlink="http://www.w3.org/1999/xlink" x="0px" y="0px"
	 viewBox="0 0 1920.1 800" style="enable-background:new 0 0 1920.1 800;" xml:space="preserve">
<style type="text/css">
	.st0{fill:#FFFFFF;}
	.st1{fill:url(#SVGID_1_);}
	.st2{fill:#F6E8EE;}
	.st3{fill:#FAFAFA;}
	.st4{fill:#ECECEC;}
	.st5{fill:#E1E1E1;}
	.st6{fill:#EFCEDE;}
	.st7{fill:#F5F5F5;}
	.st8{fill:#1A2E35;}
	.st9{fill:#F6DB6F;}
	.st10{fill:#241B52;}
	.st11{fill:#FF4F5B;}
	.st12{fill:#F4A660;}
	.st13{fill:#FF8D14;}
	.st14{fill:#582E60;}
	.st15{fill:#EA6A00;}
	.st16{opacity:0.2;}
	.st17{fill:#375A64;}
	.st18{opacity:0.4;}
	.st19{fill:#FFBF9D;}
	.st20{opacity:0.3;}
	.st21{fill:#FF9A6C;}
	.st22{fill:none;stroke:#1A2E35;stroke-width:5.000000e-02;stroke-miterlimit:10;}
	.st23{font-family:'ArialMT';}
	.st24{font-size:7.4572px;}
	.st25{font-size:7.3715px;}
</style>
<g>
	<g>
		<rect x="-1.1" y="1.2" class="st0" width="1923" height="796"/>
		
			<linearGradient id="SVGID_1_" gradientUnits="userSpaceOnUse" x1="1035.6755" y1="399.9163" x2="1921.4309" y2="399.9163" gradientTransform="matrix(1 0 0 -1 1 797.99)">
			<stop  offset="0" style="stop-color:#FAE5E7"/>
			<stop  offset="1" style="stop-color:#ECEEFA"/>
		</linearGradient>
		<path class="st1" d="M1549,794c0,0,202.4-12.9,372.4-107.5l1-683.2l-885.8-1c0,0,437.2,187.8,185.5,518.2
			c-18.8,24.4-30.7,53.5-34.5,84.1c-8.9,77.6,31.9,194.1,361,189L1549,794z"/>
	</g>
	<g>
		<g>
			<g>
				<rect x="1734.8" y="421.7" class="st2" width="117.6" height="94.8"/>
			</g>
		</g>
		<g>
			<g>
				<g>
					<path class="st0" d="M1822.9,515.8c-0.2,0-0.3-21.1-0.3-47.2s0.1-47.2,0.3-47.2c0.2,0,0.3,21.1,0.3,47.2
						C1823.2,494.7,1823.1,515.8,1822.9,515.8z"/>
				</g>
			</g>
		</g>
		<g>
			<g>
				<rect x="1833.4" y="494.9" class="st3" width="9" height="10.7"/>
			</g>
		</g>
		<g>
			<g>
				<rect x="1770.6" y="422" class="st0" width="13.4" height="20.2"/>
			</g>
		</g>
		<g>
			<g>
				<rect x="1770.6" y="496" class="st4" width="13.4" height="20.2"/>
			</g>
		</g>
		<g>
			<g>
				<rect x="1689.9" y="517.9" class="st2" width="194.1" height="156.5"/>
			</g>
		</g>
		<g>
			<g>
				<g>
					<path class="st5" d="M1738.6,673.2c0.2,0,0.4-34.9,0.4-77.9s-0.2-77.9-0.4-77.9c-0.2,0-0.4,34.9-0.4,77.9
						S1738.4,673.2,1738.6,673.2z"/>
				</g>
			</g>
		</g>
		<g>
			<g>
				<rect x="1706.4" y="638.7" class="st3" width="14.9" height="17.6"/>
			</g>
		</g>
		<g>
			<g>
				<rect x="1802.8" y="518.2" class="st6" width="22.1" height="33.4"/>
			</g>
		</g>
		<g>
			<g>
				<rect x="1802.8" y="640.5" class="st5" width="22.1" height="33.4"/>
			</g>
		</g>
		<g>
			<g>
				<g>
					<g>
						<path class="st4" d="M1538.3,242.2c0,0.2,1.3,0.3,2.8,0.3c1.6,0,2.8-0.1,2.8-0.3s-1.3-0.3-2.8-0.3
							C1539.5,241.9,1538.3,242,1538.3,242.2z"/>
					</g>
				</g>
			</g>
			<g>
				<g>
					<g>
						<path class="st4" d="M1527,242.2c0,0.2,1.3,0.3,2.8,0.3c1.6,0,2.8-0.1,2.8-0.3s-1.3-0.3-2.8-0.3S1527,242,1527,242.2z"/>
					</g>
				</g>
			</g>
			<g>
				<g>
					<g>
						<path class="st4" d="M1515.7,242.2c0,0.2,1.3,0.3,2.8,0.3c1.6,0,2.8-0.1,2.8-0.3s-1.3-0.3-2.8-0.3S1515.7,242,1515.7,242.2z"
							/>
					</g>
				</g>
			</g>
			<g>
				<g>
					<g>
						<path class="st4" d="M1504.4,242.2c0,0.2,1.3,0.3,2.8,0.3c1.6,0,2.8-0.1,2.8-0.3s-1.3-0.3-2.8-0.3
							C1505.7,241.9,1504.4,242,1504.4,242.2z"/>
					</g>
				</g>
			</g>
			<g>
				<g>
					<g>
						<path class="st4" d="M1493.1,242.2c0,0.2,1.3,0.3,2.8,0.3c1.6,0,2.8-0.1,2.8-0.3s-1.3-0.3-2.8-0.3S1493.1,242,1493.1,242.2z"
							/>
					</g>
				</g>
			</g>
			<g>
				<g>
					<g>
						<path class="st4" d="M1481.8,242.2c0,0.2,1.3,0.3,2.8,0.3c1.6,0,2.8-0.1,2.8-0.3s-1.3-0.3-2.8-0.3
							C1483.1,241.9,1481.8,242,1481.8,242.2z"/>
					</g>
				</g>
			</g>
			<g>
				<g>
					<g>
						<path class="st4" d="M1470.5,242.2c0,0.2,1.3,0.3,2.8,0.3c1.6,0,2.8-0.1,2.8-0.3s-1.3-0.3-2.8-0.3S1470.5,242,1470.5,242.2z"
							/>
					</g>
				</g>
			</g>
			<g>
				<g>
					<g>
						<path class="st4" d="M1459.2,242.2c0,0.2,1.3,0.3,2.8,0.3c1.6,0,2.8-0.1,2.8-0.3s-1.3-0.3-2.8-0.3S1459.2,242,1459.2,242.2z"
							/>
					</g>
				</g>
			</g>
			<g>
				<g>
					<g>
						<path class="st4" d="M1448,242.2c0,0.2,1.3,0.3,2.8,0.3c1.6,0,2.8-0.1,2.8-0.3s-1.3-0.3-2.8-0.3
							C1449.2,241.9,1448,242,1448,242.2z"/>
					</g>
				</g>
			</g>
			<g>
				<g>
					<g>
						<path class="st4" d="M1436.7,242.2c0,0.2,1.3,0.3,2.8,0.3c1.6,0,2.8-0.1,2.8-0.3s-1.3-0.3-2.8-0.3
							C1437.9,241.9,1436.7,242,1436.7,242.2z"/>
					</g>
				</g>
			</g>
			<g>
				<g>
					<g>
						<path class="st4" d="M1425.4,242.2c0,0.2,1.3,0.3,2.8,0.3c1.6,0,2.8-0.1,2.8-0.3s-1.3-0.3-2.8-0.3
							C1426.6,241.9,1425.4,242,1425.4,242.2z"/>
					</g>
				</g>
			</g>
			<g>
				<g>
					<g>
						<path class="st4" d="M1414.1,242.2c0,0.2,1.3,0.3,2.8,0.3c1.6,0,2.8-0.1,2.8-0.3s-1.3-0.3-2.8-0.3
							C1415.3,241.9,1414.1,242,1414.1,242.2z"/>
					</g>
				</g>
			</g>
			<g>
				<g>
					<g>
						<path class="st4" d="M1402.8,242.2c0,0.2,1.3,0.3,2.8,0.3c1.6,0,2.8-0.1,2.8-0.3s-1.3-0.3-2.8-0.3
							C1404.1,241.9,1402.8,242,1402.8,242.2z"/>
					</g>
				</g>
			</g>
			<g>
				<g>
					<g>
						<path class="st4" d="M1391.5,242.2c0,0.2,1.3,0.3,2.8,0.3c1.6,0,2.8-0.1,2.8-0.3s-1.3-0.3-2.8-0.3S1391.5,242,1391.5,242.2z"
							/>
					</g>
				</g>
			</g>
			<g>
				<g>
					<g>
						<path class="st4" d="M1380.2,242.2c0,0.2,1.3,0.3,2.8,0.3c1.6,0,2.8-0.1,2.8-0.3s-1.3-0.3-2.8-0.3S1380.2,242,1380.2,242.2z"
							/>
					</g>
				</g>
			</g>
			<g>
				<g>
					<g>
						<path class="st4" d="M1368.9,242.2c0,0.2,1.3,0.3,2.8,0.3c1.6,0,2.8-0.1,2.8-0.3s-1.3-0.3-2.8-0.3
							C1370.2,241.9,1368.9,242,1368.9,242.2z"/>
					</g>
				</g>
			</g>
			<g>
				<g>
					<g>
						<path class="st4" d="M1357.6,242.2c0,0.2,1.3,0.3,2.8,0.3c1.6,0,2.8-0.1,2.8-0.3s-1.3-0.3-2.8-0.3S1357.6,242,1357.6,242.2z"
							/>
					</g>
				</g>
			</g>
			<g>
				<g>
					<g>
						<path class="st4" d="M1346.3,242.2c0,0.2,1.3,0.3,2.8,0.3c1.6,0,2.8-0.1,2.8-0.3s-1.3-0.3-2.8-0.3
							C1347.6,241.9,1346.3,242,1346.3,242.2z"/>
					</g>
				</g>
			</g>
			<g>
				<g>
					<g>
						<path class="st4" d="M1335,242.2c0,0.2,1.3,0.3,2.8,0.3c1.6,0,2.8-0.1,2.8-0.3s-1.3-0.3-2.8-0.3S1335,242,1335,242.2z"/>
					</g>
				</g>
			</g>
			<g>
				<g>
					<g>
						<path class="st4" d="M1323.8,242.2c0,0.2,1.3,0.3,2.8,0.3c1.6,0,2.8-0.1,2.8-0.3s-1.3-0.3-2.8-0.3
							C1325,241.9,1323.8,242,1323.8,242.2z"/>
					</g>
				</g>
			</g>
			<g>
				<g>
					<g>
						<path class="st4" d="M1312.5,242.2c0,0.2,1.3,0.3,2.8,0.3c1.6,0,2.8-0.1,2.8-0.3s-1.3-0.3-2.8-0.3
							C1313.7,241.9,1312.5,242,1312.5,242.2z"/>
					</g>
				</g>
			</g>
			<g>
				<g>
					<g>
						<path class="st4" d="M1301.2,242.2c0,0.2,1.3,0.3,2.8,0.3c1.6,0,2.8-0.1,2.8-0.3s-1.3-0.3-2.8-0.3
							C1302.4,241.9,1301.2,242,1301.2,242.2z"/>
					</g>
				</g>
			</g>
			<g>
				<g>
					<g>
						<path class="st4" d="M1289.9,242.2c0,0.2,1.3,0.3,2.8,0.3c1.6,0,2.8-0.1,2.8-0.3s-1.3-0.3-2.8-0.3
							C1291.1,241.9,1289.9,242,1289.9,242.2z"/>
					</g>
				</g>
			</g>
			<g>
				<g>
					<g>
						<path class="st4" d="M1287,251c0.2,0,0.3-1.3,0.3-2.9c0-1.6-0.1-3-0.3-3c-0.2,0-0.3,1.3-0.3,3
							C1286.7,249.6,1286.8,251,1287,251z"/>
					</g>
				</g>
			</g>
			<g>
				<g>
					<g>
						<path class="st4" d="M1287,262.8c0.2,0,0.3-1.3,0.3-2.9s-0.1-3-0.3-3c-0.2,0-0.3,1.3-0.3,3
							C1286.7,261.4,1286.8,262.8,1287,262.8z"/>
					</g>
				</g>
			</g>
			<g>
				<g>
					<g>
						<path class="st4" d="M1287,274.6c0.2,0,0.3-1.3,0.3-2.9s-0.1-3-0.3-3c-0.2,0-0.3,1.3-0.3,3
							C1286.7,273.2,1286.8,274.6,1287,274.6z"/>
					</g>
				</g>
			</g>
			<g>
				<g>
					<g>
						<path class="st4" d="M1287,286.4c0.2,0,0.3-1.3,0.3-2.9s-0.1-3-0.3-3c-0.2,0-0.3,1.3-0.3,3
							C1286.7,285,1286.8,286.4,1287,286.4z"/>
					</g>
				</g>
			</g>
			<g>
				<g>
					<g>
						<path class="st4" d="M1287,298.2c0.2,0,0.3-1.3,0.3-2.9s-0.1-3-0.3-3c-0.2,0-0.3,1.3-0.3,3
							C1286.7,296.8,1286.8,298.2,1287,298.2z"/>
					</g>
				</g>
			</g>
			<g>
				<g>
					<g>
						<path class="st4" d="M1284.8,307.7c0,0.1,0.9,0.3,2.2,0.3h0.3v-0.3c0-0.2,0-0.4,0-0.6c0-1.6-0.1-3-0.3-3c-0.2,0-0.3,1.3-0.3,3
							c0,0.2,0,0.4,0,0.6l0.3-0.3C1285.7,307.4,1284.8,307.5,1284.8,307.7z"/>
					</g>
				</g>
			</g>
			<g>
				<g>
					<g>
						<path class="st4" d="M1273.5,307.7c0,0.2,1.3,0.3,2.8,0.3c1.6,0,2.8-0.1,2.8-0.3c0-0.2-1.3-0.3-2.8-0.3
							C1274.8,307.4,1273.5,307.5,1273.5,307.7z"/>
					</g>
				</g>
			</g>
			<g>
				<g>
					<g>
						<path class="st4" d="M1262.2,307.7c0,0.2,1.3,0.3,2.8,0.3c1.6,0,2.8-0.1,2.8-0.3c0-0.2-1.3-0.3-2.8-0.3
							C1263.5,307.4,1262.2,307.5,1262.2,307.7z"/>
					</g>
				</g>
			</g>
			<g>
				<g>
					<g>
						<path class="st4" d="M1250.9,307.7c0,0.2,1.3,0.3,2.8,0.3c1.6,0,2.8-0.1,2.8-0.3c0-0.2-1.3-0.3-2.8-0.3
							C1252.2,307.4,1250.9,307.5,1250.9,307.7z"/>
					</g>
				</g>
			</g>
			<g>
				<g>
					<g>
						<path class="st4" d="M1239.6,307.7c0,0.2,1.3,0.3,2.8,0.3c1.6,0,2.8-0.1,2.8-0.3c0-0.2-1.3-0.3-2.8-0.3
							C1240.9,307.4,1239.6,307.5,1239.6,307.7z"/>
					</g>
				</g>
			</g>
			<g>
				<g>
					<g>
						<path class="st4" d="M1228.3,307.7c0,0.2,1.3,0.3,2.8,0.3c1.6,0,2.8-0.1,2.8-0.3c0-0.2-1.3-0.3-2.8-0.3
							C1229.6,307.4,1228.3,307.5,1228.3,307.7z"/>
					</g>
				</g>
			</g>
			<g>
				<g>
					<g>
						<path class="st4" d="M1217,307.7c0,0.2,1.3,0.3,2.8,0.3c1.6,0,2.8-0.1,2.8-0.3c0-0.2-1.3-0.3-2.8-0.3
							C1218.3,307.4,1217,307.5,1217,307.7z"/>
					</g>
				</g>
			</g>
			<g>
				<g>
					<g>
						<path class="st4" d="M1205.8,307.7c0,0.2,1.3,0.3,2.8,0.3c1.6,0,2.8-0.1,2.8-0.3c0-0.2-1.3-0.3-2.8-0.3
							C1207,307.4,1205.8,307.5,1205.8,307.7z"/>
					</g>
				</g>
			</g>
			<g>
				<g>
					<g>
						<path class="st4" d="M1194.5,307.7c0,0.2,1.3,0.3,2.8,0.3c1.6,0,2.8-0.1,2.8-0.3c0-0.2-1.3-0.3-2.8-0.3
							C1195.7,307.4,1194.5,307.5,1194.5,307.7z"/>
					</g>
				</g>
			</g>
			<g>
				<g>
					<g>
						<path class="st4" d="M1190.1,314.9c0.2,0,0.3-1.3,0.3-2.9s-0.1-3-0.3-3s-0.3,1.3-0.3,3
							C1189.8,313.5,1189.9,314.9,1190.1,314.9z"/>
					</g>
				</g>
			</g>
			<g>
				<g>
					<g>
						<path class="st4" d="M1190.1,326.7c0.2,0,0.3-1.3,0.3-2.9s-0.1-3-0.3-3s-0.3,1.3-0.3,3
							C1189.8,325.3,1189.9,326.7,1190.1,326.7z"/>
					</g>
				</g>
			</g>
			<g>
				<g>
					<g>
						<path class="st4" d="M1190.1,338.5c0.2,0,0.3-1.3,0.3-2.9s-0.1-3-0.3-3s-0.3,1.3-0.3,3
							C1189.8,337.1,1189.9,338.5,1190.1,338.5z"/>
					</g>
				</g>
			</g>
			<g>
				<g>
					<g>
						<path class="st4" d="M1190.1,350.3c0.2,0,0.3-1.3,0.3-2.9s-0.1-3-0.3-3s-0.3,1.3-0.3,3
							C1189.8,348.9,1189.9,350.3,1190.1,350.3z"/>
					</g>
				</g>
			</g>
			<g>
				<g>
					<g>
						<path class="st4" d="M1190.1,362.1c0.2,0,0.3-1.3,0.3-2.9s-0.1-3-0.3-3s-0.3,1.3-0.3,3
							C1189.8,360.7,1189.9,362.1,1190.1,362.1z"/>
					</g>
				</g>
			</g>
			<g>
				<g>
					<g>
						<path class="st4" d="M1190.1,373.9c0.2,0,0.3-1.3,0.3-2.9s-0.1-3-0.3-3s-0.3,1.3-0.3,3
							C1189.8,372.6,1189.9,373.9,1190.1,373.9z"/>
					</g>
				</g>
			</g>
			<g>
				<g>
					<g>
						<path class="st4" d="M1190.1,385.7c0.2,0,0.3-1.3,0.3-2.9s-0.1-3-0.3-3s-0.3,1.3-0.3,3
							C1189.8,384.4,1189.9,385.7,1190.1,385.7z"/>
					</g>
				</g>
			</g>
			<g>
				<g>
					<g>
						<path class="st4" d="M1190.1,397.5c0.2,0,0.3-1.3,0.3-2.9s-0.1-3-0.3-3s-0.3,1.3-0.3,3
							C1189.8,396.2,1189.9,397.5,1190.1,397.5z"/>
					</g>
				</g>
			</g>
			<g>
				<g>
					<g>
						<path class="st4" d="M1190.1,409.3c0.2,0,0.3-1.3,0.3-2.9s-0.1-3-0.3-3s-0.3,1.3-0.3,3C1189.8,408,1189.9,409.3,1190.1,409.3z
							"/>
					</g>
				</g>
			</g>
			<g>
				<g>
					<g>
						<path class="st4" d="M1190.1,421.1c0.2,0,0.3-1.3,0.3-2.9s-0.1-3-0.3-3s-0.3,1.3-0.3,3
							C1189.8,419.8,1189.9,421.1,1190.1,421.1z"/>
					</g>
				</g>
			</g>
			<g>
				<g>
					<g>
						<path class="st4" d="M1190.1,432.9c0.2,0,0.3-1.3,0.3-2.9s-0.1-3-0.3-3s-0.3,1.3-0.3,3
							C1189.8,431.6,1189.9,432.9,1190.1,432.9z"/>
					</g>
				</g>
			</g>
		</g>
		<g>
			<g>
				<g>
					<g>
						<path class="st4" d="M1479,262.3c0,0,8.8-5.1,17.4,16.6s11.5,34,11.5,34s2.4,4.6,5.4,2c3.1-2.6,7.6-10.4,12.4-8.5
							c4.9,1.9,6.2,8,4.5,16.5c-1.6,8.6-4.5,27.5-4.7,29.2s0.5,4.3,2.9,2.8s16.5-15.4,22.4-8.1c6,7.4-2.3,30.5-3.2,33.1
							c-0.9,2.5-0.5,3.7,0.7,4.4c1.1,0.7,5.4-4.4,9.6-8.2c4.2-3.8,9.6-7.5,12.7-2.9s2.9,22.4-15.5,49.9l-9.3,12.2l-14.8-2.1
							c-31.5-6.5-43.5-19.2-44.3-24.7s5.6-6.9,11.1-7.1c5.5-0.3,12.1,0.3,12.4-1c0.3-1.4-0.2-2.5-2.5-3.7s-23.6-11.9-24.3-21.5
							c-0.6-9.6,18.8-9.8,21.5-10.5s1.5-3.1,0.2-4.1s-16-12.6-22.9-17.6s-10-10.2-7.7-15.2c2.2-4.8,10.6-2.5,14.6-2.9
							s2.6-5.4,2.6-5.4s-6.1-11-14.3-32.8c-8.2-21.8,1.7-24.5,1.7-24.5"/>
					</g>
				</g>
			</g>
			<g>
				<g>
					<g>
						<g>
							<path class="st5" d="M1545.4,432.1c-6.1-16-14.7-38-24.2-62.3c-9.6-24.3-18.2-46.3-24.4-62.3c-3.1-8-5.6-14.4-7.3-18.9
								c-0.9-2.2-1.5-3.9-2-5.1c-0.2-0.6-0.4-1-0.5-1.3s-0.2-0.4-0.2-0.4s0,0.2,0.1,0.5s0.3,0.8,0.5,1.4c0.4,1.2,1.1,2.9,1.9,5.2
								c1.7,4.5,4.1,11,7.1,19c6.1,16,14.7,38,24.2,62.3c9.6,24.3,18.2,46.3,24.4,62.3"/>
						</g>
					</g>
				</g>
			</g>
			<g>
				<g>
					<g>
						<g>
							<path class="st5" d="M1519.8,317.5c0,0-0.2,0.4-0.5,1c-0.3,0.7-0.6,1.6-1.1,2.9c-0.9,2.4-2,5.8-3.1,9.6
								c-1.1,3.7-2.1,7-2.9,9.6c-0.4,1.1-0.7,2.1-0.9,2.9c-0.2,0.7-0.3,1.1-0.3,1.1s0.2-0.3,0.5-1s0.6-1.6,1.1-2.9
								c0.8-2.4,1.9-5.8,3.1-9.6c1.1-3.7,2.2-7,3-9.6c0.4-1.1,0.7-2.1,0.9-2.9C1519.8,317.9,1519.9,317.5,1519.8,317.5z"/>
						</g>
					</g>
				</g>
			</g>
			<g>
				<g>
					<g>
						<g>
							<path class="st5" d="M1509.7,344.7c0-0.1-6.5-2.8-14.7-6s-14.8-5.7-14.9-5.5c0,0.1,6.5,2.8,14.7,6
								C1503,342.4,1509.6,344.9,1509.7,344.7z"/>
						</g>
					</g>
				</g>
			</g>
			<g>
				<g>
					<g>
						<g>
							<path class="st5" d="M1526,381.3c0,0-0.4-0.1-1.1-0.2c-0.8-0.1-1.8-0.1-3-0.2c-2.5-0.2-6-0.5-9.8-1s-7.3-1-9.8-1.4
								c-1.2-0.2-2.1-0.3-3-0.5c-0.7-0.1-1.1-0.2-1.1-0.1c0,0,0.4,0.1,1.1,0.3c0.7,0.2,1.7,0.4,2.9,0.6c2.5,0.5,5.9,1.1,9.8,1.6
								c3.8,0.5,7.3,0.7,9.9,0.8c1.3,0,2.3,0.1,3,0.1C1525.6,381.4,1526,381.4,1526,381.3z"/>
						</g>
					</g>
				</g>
			</g>
			<g>
				<g>
					<g>
						<g>
							<path class="st5" d="M1540.3,358.8c0,0-0.3,0.3-0.7,0.8c-0.4,0.5-1,1.3-1.6,2.3c-1.4,2-3.2,4.8-5.2,7.8
								c-2,3.1-3.8,5.9-5.1,7.9c-0.6,1-1.2,1.9-1.5,2.4c-0.3,0.6-0.5,0.9-0.5,0.9s0.3-0.3,0.7-0.8c0.4-0.5,1-1.3,1.6-2.3
								c1.4-2,3.2-4.8,5.2-7.8c2-3.1,3.8-5.9,5.1-7.9c0.6-1,1.2-1.9,1.5-2.4C1540.2,359.2,1540.4,358.8,1540.3,358.8z"/>
						</g>
					</g>
				</g>
			</g>
			<g>
				<g>
					<g>
						<g>
							<path class="st5" d="M1558.7,389.2c0,0-0.3,0.4-0.8,1.1c-0.6,0.8-1.3,1.8-2.1,3c-1.8,2.5-4.1,6.1-6.8,10
								c-2.6,3.9-5,7.5-6.6,10.1c-0.8,1.2-1.4,2.3-2,3.1c-0.5,0.7-0.7,1.2-0.7,1.2s0.3-0.4,0.8-1.1c0.6-0.8,1.3-1.8,2.1-3
								c1.8-2.5,4.1-6.1,6.8-10c2.6-3.9,5-7.5,6.6-10.1c0.8-1.2,1.4-2.3,2-3.1C1558.5,389.7,1558.7,389.3,1558.7,389.2z"/>
						</g>
					</g>
				</g>
			</g>
			<g>
				<g>
					<g>
						<g>
							<path class="st5" d="M1540,416.8c0,0-0.5-0.1-1.4-0.2c-1-0.1-2.3-0.3-3.8-0.4c-3.2-0.4-7.6-0.9-12.4-1.7
								c-4.8-0.7-9.2-1.5-12.4-2.1c-1.5-0.3-2.8-0.5-3.7-0.7c-0.9-0.2-1.4-0.2-1.4-0.2s0.5,0.2,1.3,0.4c0.9,0.2,2.1,0.5,3.7,0.9
								c3.1,0.7,7.5,1.5,12.4,2.2c4.8,0.7,9.3,1.2,12.5,1.5c1.6,0.1,2.9,0.2,3.8,0.3C1539.5,416.8,1540,416.8,1540,416.8z"/>
						</g>
					</g>
				</g>
			</g>
		</g>
		<g>
			<g>
				<g>
					<path class="st7" d="M1150.4,461.7c0-25.5,22.1-45.7,47.4-40.7c15.9,3.1,28.6,16.7,31.4,33.4c1.7,10.4-0.3,20.2-4.9,28.3l0,0
						l-0.1,0.2c-1.5,2.7-3.4,4.6-5.4,7.4l-23,31.9c-2.9,4-8.6,4-11.4,0l-22.7-31.4c0,0-4.2-5.3-5.8-8l-0.1-0.1l0,0
						C1152.4,476.5,1150.4,469.4,1150.4,461.7z M1190.1,479.8c9.6,0,17.5-8.2,17.5-18.2c0-10.1-7.8-18.2-17.5-18.2
						c-9.6,0-17.5,8.2-17.5,18.2C1172.6,471.6,1180.4,479.8,1190.1,479.8z"/>
				</g>
			</g>
		</g>
		<g>
			<g>
				<g>
					<path class="st7" d="M1440.7,343.4v48.8c0,1-0.8,1.9-1.8,1.9h-97.8c-1,0-1.8-0.9-1.8-1.9l0.2-17.9c0-0.4,0.1-0.8,0.4-1.1
						l14-19.6c0.3-0.5,0.9-0.8,1.4-0.8l16.2-0.1c1,0,1.8-0.9,1.8-1.9v-7.4c0-1,0.8-1.9,1.8-1.9h63.8
						C1439.9,341.5,1440.7,342.3,1440.7,343.4z"/>
				</g>
			</g>
			<g>
				<g>
					<path class="st4" d="M1368.7,356.9v15.6c0,0.6-0.5,1.1-1.1,1.1l-21.6-0.4c-0.8,0-1.3-1-0.8-1.7l10.1-15.6
						c0.2-0.3,0.5-0.5,0.9-0.5l11.5,0.3C1368.3,355.8,1368.7,356.3,1368.7,356.9z"/>
				</g>
			</g>
			<g>
				<g>
					<rect x="1337.3" y="395.6" class="st7" width="105.4" height="3.4"/>
				</g>
			</g>
			<g>
				<g>
					<ellipse class="st4" cx="1418.3" cy="396.8" rx="10.4" ry="10.9"/>
				</g>
			</g>
			<g>
				<g>
					<path class="st3" d="M1412.1,396.8c0,3.5,2.7,6.4,6.1,6.4s6.1-2.9,6.1-6.4s-2.7-6.4-6.1-6.4S1412.1,393.3,1412.1,396.8z"/>
				</g>
			</g>
			<g>
				<g>
					<g>
						<path class="st4" d="M1373.4,394.1c0.3,0,0.5-11.8,0.5-26.3s-0.2-26.3-0.5-26.3s-0.5,11.8-0.5,26.3
							C1372.9,382.3,1373.1,394.1,1373.4,394.1z"/>
					</g>
				</g>
			</g>
			<g>
				<g>
					<g>
						<ellipse class="st4" cx="1361.5" cy="396.8" rx="10.4" ry="10.9"/>
					</g>
				</g>
				<g>
					<g>
						<path class="st3" d="M1355.3,396.8c0,3.5,2.7,6.4,6.1,6.4s6.1-2.9,6.1-6.4s-2.7-6.4-6.1-6.4S1355.3,393.3,1355.3,396.8z"/>
					</g>
				</g>
			</g>
			<g>
				<g>
					<g>
						<path class="st4" d="M1361.4,376.7c0,0.3,1.5,0.5,3.3,0.5s3.3-0.2,3.3-0.5s-1.5-0.5-3.3-0.5S1361.4,376.5,1361.4,376.7z"/>
					</g>
				</g>
			</g>
		</g>
		<g>
			<g>
				<g>
					<path class="st8" d="M1130.8,674.3c0,0.2,177,0.3,395.2,0.3c218.3,0,395.2-0.1,395.2-0.3S1744.3,674,1526,674
						C1307.8,674,1130.8,674.2,1130.8,674.3z"/>
				</g>
			</g>
		</g>
		<g>
			<g>
				<g>
					<g>
						<path class="st9" d="M1763.4,669.1c-15.2-11-18.7-31.6-18.2-50.1c0.1-3.1-0.2-6.3,1.1-9.1c1.4-2.7,4.7-4.6,7.3-3.3
							c2.2,1.1,3.2,3.7,4.4,5.9c1.6,2.9,4.1,5.3,6.9,6.9c1.9,1,4.2,1.6,6.1,0.6c2.5-1.5,2.8-5.2,2.8-8.2c-0.1-5.7-0.1-11.4-0.2-17.2
							c0-3.1,0-6.2,0.9-9.1s2.9-5.6,5.7-6.5c2.8-0.8,6.3,0.8,6.9,3.8c0.2,1.2,0,2.5,0.1,3.8s0.7,2.7,1.8,3c1.2,0.4,2.3-0.5,3.2-1.4
							c3-3.1,5.1-7.1,7-11.1s3.8-8,6.5-11.4s6.5-6.1,10.7-6.3c4.2-0.3,8.7,2.4,9.8,6.7c1.1,4.3-1.3,8.7-3.9,12.2
							c-3.9,5.2-8.5,9.8-13.6,13.6c-0.9,0.7-1.9,1.4-2.3,2.6c-0.6,2,1.2,4.1,3.2,4.7c2.2,0.8,4.6,0.5,6.9,0.8s4.8,1.3,5.6,3.6
							c1.2,3.1-1.3,6.4-3.7,8.6c-4.9,4.3-10.6,7.8-16.6,10.1c-2.2,0.8-4.4,1.6-6.2,3.2c-1.7,1.6-2.8,4.4-1.7,6.5
							c1.1,2.2,3.8,2.8,6,2.4c2.3-0.4,4.3-1.7,6.4-2.6c4-1.6,9.2-1.3,11.8,2.3c1.7,2.4,1.9,5.7,1,8.6c-0.8,2.9-2.6,5.3-4.4,7.6
							c-6.4,8-14.7,14.4-24.1,17.8C1781.4,671.7,1772.7,672.7,1763.4,669.1"/>
					</g>
				</g>
			</g>
		</g>
		<g>
			<g>
				<g>
					<g>
						<g>
							<path class="st8" d="M1764.4,674.3c0.6-7.3,0.9-7.5,3.5-16.8s6.2-19.3,10.3-29.7c1-2.6,2.1-5.1,3.1-7.6s2-5,3.2-7.3
								c2.2-4.7,4.8-9.1,7.3-13.2c2.5-4.1,5-7.8,7.4-11.4c2.4-3.5,4.7-6.7,6.9-9.6c4.4-5.7,8.4-9.9,11.3-12.6
								c1.4-1.4,2.6-2.4,3.4-3.1c0.4-0.3,0.7-0.6,0.9-0.8c0.2-0.2,0.3-0.3,0.3-0.2c0,0-0.1,0.1-0.3,0.3c-0.2,0.2-0.5,0.5-0.9,0.8
								c-0.8,0.7-1.9,1.8-3.3,3.2c-2.8,2.8-6.8,7-11.2,12.7c-2.2,2.9-4.4,6.1-6.8,9.6s-4.9,7.3-7.3,11.4c-2.5,4.1-5,8.4-7.2,13.1
								c-1.1,2.4-2.1,4.8-3.1,7.3s-2,5-3.1,7.6c-4.1,10.3-7.8,20.3-10.4,29.6s-3,9.4-3.6,16.7"/>
						</g>
					</g>
				</g>
			</g>
		</g>
		<g>
			<g>
				<g>
					<g>
						<g>
							<path class="st8" d="M1784.7,612.9c0,0-0.1-0.5-0.3-1.3c-0.2-0.8-0.3-2.1-0.6-3.6c-0.4-3.1-0.9-7.3-1.4-12s-1-8.9-1.5-11.9
								c-0.2-1.5-0.4-2.7-0.6-3.6c-0.1-0.8-0.2-1.3-0.2-1.3s0.2,0.4,0.4,1.3c0.2,0.8,0.5,2.1,0.7,3.6c0.6,3,1.1,7.3,1.6,11.9
								c0.5,4.6,0.9,8.8,1.2,12c0.2,1.4,0.3,2.7,0.4,3.6C1784.7,612.4,1784.8,612.9,1784.7,612.9z"/>
						</g>
					</g>
				</g>
			</g>
		</g>
		<g>
			<g>
				<g>
					<g>
						<g>
							<path class="st8" d="M1822.5,605.4c0,0-0.5,0.1-1.5,0.2c-1,0.1-2.4,0.2-4.1,0.4c-3.5,0.4-8.2,1.1-13.4,2.2
								c-5.2,1.1-9.9,2.2-13.3,3.2c-1.7,0.5-3,0.9-4,1.1c-0.9,0.3-1.5,0.4-1.5,0.4s0.5-0.2,1.4-0.6c0.9-0.3,2.3-0.8,3.9-1.3
								c3.3-1,8-2.3,13.3-3.3c5.2-1,10-1.7,13.5-2c1.7-0.2,3.1-0.2,4.1-0.3C1821.9,605.3,1822.4,605.3,1822.5,605.4z"/>
						</g>
					</g>
				</g>
			</g>
		</g>
		<g>
			<g>
				<g>
					<g>
						<g>
							<path class="st8" d="M1768.4,656.8c0,0-0.1-0.2-0.3-0.5c-0.2-0.4-0.4-0.9-0.7-1.4c-0.6-1.2-1.3-3.1-2.2-5.3
								c-1.8-4.5-4.2-10.8-6.7-17.8s-4.8-13.3-6.5-17.9c-0.9-2.2-1.6-4-2.1-5.4c-0.2-0.6-0.4-1.1-0.6-1.5c-0.1-0.3-0.2-0.5-0.2-0.5
								s0.1,0.2,0.3,0.5c0.2,0.4,0.4,0.9,0.7,1.4c0.6,1.2,1.3,3.1,2.2,5.3c1.8,4.5,4.2,10.8,6.7,17.8s4.8,13.3,6.5,17.9
								c0.9,2.2,1.6,4,2.1,5.4c0.2,0.6,0.4,1.1,0.6,1.5C1768.4,656.6,1768.4,656.8,1768.4,656.8z"/>
						</g>
					</g>
				</g>
			</g>
		</g>
		<g>
			<g>
				<g>
					<g>
						<g>
							<path class="st8" d="M1818.5,639.7c0,0-0.2,0.1-0.5,0.2c-0.4,0.1-0.9,0.3-1.5,0.5c-1.3,0.5-3.2,1.1-5.4,1.8
								c-4.5,1.6-10.8,3.8-17.7,6.2c-6.9,2.5-13.2,4.6-17.7,6.1c-2.3,0.7-4.1,1.3-5.4,1.7c-0.6,0.2-1.1,0.3-1.5,0.4
								c-0.3,0.1-0.5,0.1-0.5,0.1s0.2-0.1,0.5-0.2c0.4-0.1,0.9-0.3,1.5-0.5c1.3-0.5,3.2-1.1,5.4-1.8c4.5-1.6,10.8-3.8,17.7-6.2
								c6.9-2.5,13.1-4.6,17.7-6.1c2.3-0.7,4.1-1.3,5.4-1.7c0.6-0.2,1.1-0.3,1.5-0.4C1818.3,639.7,1818.5,639.7,1818.5,639.7z"/>
						</g>
					</g>
				</g>
			</g>
		</g>
		<g>
			<g>
				<g>
					<g>
						<g>
							<g>
								<g>
									<g>
										<g>
											<g>
												<g>
													<path class="st10" d="M1580.1,674.3h157.1c19-0.1,35-17,35-36.9l-1.7-413.6c-0.1-19.9-15.5-35.9-34.5-35.8l-157.9,0.8
														c-19,0.1-34.3,16.2-34.2,36.1l1.7,413.6C1545.6,658.4,1561.1,674.4,1580.1,674.3z"/>
												</g>
											</g>
										</g>
									</g>
								</g>
							</g>
						</g>
					</g>
				</g>
			</g>
		</g>
		<g>
			<g>
				<g>
					<g>
						<path class="st7" d="M1578.3,204.5l30.6-0.1c4.1,0,7.4,3.6,7.5,8.1v5.8c0,4.5,3.4,8.1,7.5,8.1l59.7-0.3c4.1,0,7.4-3.7,7.4-8.2
							v-5.8c0-4.5,3.3-8.1,7.4-8.2l10.8-0.1l26.8-0.1c13.3-0.1,24.1,11.2,24.2,25.1l1.6,403.7c0.1,13.9-10.7,25.2-24,25.3
							l-157.5,0.8c-13.3,0.1-24.1-11.2-24.2-25.1l-1.6-403.7C1554.3,215.9,1565,204.6,1578.3,204.5z"/>
					</g>
				</g>
			</g>
		</g>
		<g>
			<g>
				<path class="st7" d="M1645.2,582.3c0.2,4.9,0.4,9.4,0.5,13.2H1623l2.8-14.5L1645.2,582.3z"/>
			</g>
			<g>
				<path class="st7" d="M1737.2,588.4l-0.2,7.2h-89c-0.2-4-0.3-8.5-0.5-13.1L1737.2,588.4z"/>
			</g>
			<g>
				<polygon class="st7" points="1624.7,581 1621.9,595.6 1580.2,595.6 1580.7,578.1 				"/>
			</g>
			<g>
				<polygon class="st7" points="1642.9,376.8 1635,329 1655.7,327.4 1655.7,376.8 				"/>
			</g>
			<g>
				<polygon class="st7" points="1739,561.9 1761.4,571 1761.5,587.6 1738.3,586.1 				"/>
			</g>
			<g>
				<polygon class="st7" points="1739.1,558.1 1740.3,513.6 1740.4,513.6 1740.4,497.9 1761.2,500.2 1761.4,567.2 				"/>
			</g>
			<g>
				<polygon class="st7" points="1740.4,462.8 1761,460 1761.1,496.6 1740.4,494.3 				"/>
			</g>
			<g>
				<polygon class="st7" points="1586.6,498.6 1587.5,511.3 1611.8,514.1 1609.9,524.2 1582.3,522 1582.7,507.5 1580.5,497.9 				
					"/>
			</g>
			<g>
				<polygon class="st7" points="1630.5,525.8 1611.1,524.3 1615.3,501.6 1632.3,503.4 				"/>
			</g>
			<g>
				<polygon class="st7" points="1630.3,528.1 1628.8,547 1626.2,573 1625.1,578.6 1580.7,575.7 1582.2,524.3 				"/>
			</g>
			<g>
				<path class="st7" d="M1706.7,438.9l-1.7,3.1l34.2,20.9v49.5l-36.1-2.7l-69.6-7.3l2.5-32.4l66.5-9.1l-0.4-3.5l-65.8,9l4.3-54.9
					l65.1,6.5l0.2-2.3l-65.1-6.5l2.3-28.6h62.6l55,10.5l0.3,65.6l-20.8,2.9L1706.7,438.9z M1735.7,507.6c0,0-0.3-40.8,0-42.3
					l-27.9-15.5l-3.6,55.8L1735.7,507.6z"/>
			</g>
			<g>
				<polygon class="st7" points="1588.9,498.8 1614.2,501.5 1612.3,511.7 1589.6,509.2 				"/>
			</g>
			<g>
				<path class="st7" d="M1644.9,573.6c0.1,2.1,0.2,4.3,0.2,6.4l-18.8-1.2l1-5.1L1644.9,573.6z"/>
			</g>
			<g>
				<polygon class="st7" points="1685.4,376.8 1682.1,361.1 1656.8,361.1 1656.8,327.3 1735.9,321.2 1735.9,352.9 1760.6,358.8 
					1760.7,387.2 1706,376.8 				"/>
			</g>
			<g>
				<path class="st7" d="M1632.7,282.9l0.7-2.9l-30.2-12.5l19.6-41.2c0.4,0.1,0.7,0.1,1.1,0.1l33.4-0.2l-0.9,57.7L1632.7,282.9z"/>
			</g>
			<g>
				<path class="st7" d="M1586.9,260.8v-56.3l22-0.1c4.1,0,7.4,3.6,7.5,8.1v5.8c0,2.8,1.3,5.2,3.2,6.7l-19.7,41.2L1586.9,260.8z"/>
			</g>
			<g>
				<path class="st7" d="M1700.4,263.2l2.5-59.2h6.1l23.9-0.1l10.2,53L1700.4,263.2z M1705.9,209.9l-0.8,48.2l31.7-4.9l-7-43.4
					L1705.9,209.9z"/>
			</g>
			<g>
				<path class="st7" d="M1699.3,263.3v0.5c-0.1,4.6-0.1,12.9-0.2,21.8l-41.6-1.8l0.9-57.7l25.2-0.1c4.1,0,7.4-3.7,7.4-8.2V212
					c0-4.5,3.3-8.1,7.4-8.2h3.5L1699.3,263.3L1699.3,263.3z"/>
			</g>
			<g>
				<path class="st7" d="M1746.5,256.3l-10.1-52.5c13,0.2,23.6,11.3,23.6,25l0.1,26.1l-0.1-0.8L1746.5,256.3z"/>
			</g>
			<g>
				<polygon class="st7" points="1739.3,320.9 1760.4,319.3 1760.6,355.1 1739.3,350.1 				"/>
			</g>
			<g>
				<polygon class="st7" points="1746.7,257.4 1760.2,255.4 1760.4,313.4 1757.5,313.6 				"/>
			</g>
			<g>
				<polygon class="st7" points="1704,557.4 1703.6,510.9 1739.2,513.5 1738,559.1 				"/>
			</g>
			<g>
				<path class="st7" d="M1697.4,546.7l-50.4,25.2c-0.6-16.5-1.1-31.9-1.1-32.9l-1.1-0.1l-0.5-1.1c-0.7,0.4-0.7,0.4-0.3,11.6
					c0.2,6.3,0.5,14.6,0.8,23h-17.4l2.6-25.3l3.4-43.6l65.8,6.9L1697.4,546.7z"/>
			</g>
			<g>
				<polygon class="st7" points="1573.9,469.4 1574.5,463.3 1634.9,469.9 1632.4,502.2 1580.2,496.7 				"/>
			</g>
			<g>
				<polygon class="st7" points="1656.8,364.6 1679.4,364.6 1682,376.8 1656.8,376.8 				"/>
			</g>
			<g>
				<path class="st7" d="M1583.3,368.8l56.5-4.1l2.3,14l-2.4,30.3l-59.6-6L1583.3,368.8z M1637.7,378.6l-3-8.8l-49.1,3.2l-2.8,25.2
					l53.3,6.6L1637.7,378.6z"/>
			</g>
			<g>
				<polygon class="st7" points="1577.4,432 1579.9,405.3 1639.5,411.3 1637.3,439.8 				"/>
			</g>
			<g>
				<polygon class="st7" points="1738.3,588.5 1761.4,590 1761.5,588.4 1761.5,595.6 1738.1,595.6 				"/>
			</g>
			<g>
				<path class="st7" d="M1554.8,247.5l-0.3,0.9l-0.1-18.5c-0.1-13.9,10.7-25.2,24-25.3h7.5v55.8L1554.8,247.5z"/>
			</g>
			<g>
				<path class="st7" d="M1647.1,573.2l51.4-25.8l1.8-36.9l2.2,0.2l0.4,47.8l35.1,1.7v1.1l0,0l0,0l-0.7,24.6l-89.9-5.9
					C1647.3,577.8,1647.2,575.5,1647.1,573.2z M1735.7,563.3l-49.1-3.6l-31.9,15.5l81,4.6V563.3z"/>
			</g>
			<g>
				<path class="st7" d="M1569.4,309.4l-2.1-13c18.4-6.9,19.7-27,19.7-33.1l12,5l-18.1,38L1569.4,309.4z"/>
			</g>
			<g>
				<polygon class="st7" points="1635.2,466.3 1610.1,463.6 1615,440.5 1637,443.3 				"/>
			</g>
			<g>
				<polygon class="st7" points="1583.2,329.4 1630,329.4 1633.9,329.1 1639.2,361.2 1583.6,365.2 1584.9,351.2 1579.4,330.7 				
					"/>
			</g>
			<g>
				<path class="st7" d="M1584.3,323.5l-0.6-15.3l18.4-38.6l28.5,11.8l-9.8,42.1H1584.3z M1603.3,274.3l-16.9,33.5l2.4,10.5
					l28.9-1.1l7.2-31.7L1603.3,274.3z"/>
			</g>
			<g>
				<polygon class="st7" points="1577,508.1 1576.2,538.2 1555.9,537 1555.8,538.2 1576.1,539.4 1575.1,575.3 1555.9,574 
					1555.8,576.4 1575,577.7 1574.5,595.6 1555.8,595.6 1555.4,495.3 1574.5,497.3 				"/>
			</g>
			<g>
				<path class="st7" d="M1700.4,264.4l43-6.4l10.7,56l-53.9,4.2C1700,309.4,1700.2,283,1700.4,264.4z"/>
			</g>
			<g>
				<polygon class="st7" points="1629.7,323.5 1623.2,323.5 1632.4,284 1656.3,285 1655.7,321.5 				"/>
			</g>
			<g>
				<path class="st7" d="M1761.7,624.3v8.3c0,0.3,0,0.5,0,0.8V624.3z"/>
			</g>
			<g>
				<path class="st7" d="M1699.1,318.1l-42.2,3.3l0.6-36.3l41.6,1.8C1698.9,299.2,1698.9,312.3,1699.1,318.1z"/>
			</g>
			<g>
				<polygon class="st7" points="1577.1,435.6 1613.9,440.3 1609,463.5 1574.8,459.8 				"/>
			</g>
			<g>
				<path class="st7" d="M1567.1,295.2l-2.4-14.6l-10.2,0.8l-0.1-31.5l31.4,13C1586.4,285,1573.1,292.8,1567.1,295.2z"/>
			</g>
			<g>
				<polygon class="st7" points="1579.2,351.8 1577.9,365.6 1554.9,367.3 1554.8,338.8 1574,332.4 				"/>
			</g>
			<g>
				<path class="st7" d="M1568.2,469.8l6,26.2l-18.8-2l-0.1-27.5c5.8-1.6,10.8-2.9,13.5-3.4L1568.2,469.8z"/>
			</g>
			<g>
				<polygon class="st7" points="1580.9,324 1554.8,332.6 1554.7,317 1580.4,310.1 				"/>
			</g>
			<g>
				<path class="st7" d="M1569.2,459.5c-2.1,0.3-6.1,1.2-13.9,3.4l-0.2-60.1l19.2,1.9L1569.2,459.5z"/>
			</g>
			<g>
				<polygon class="st7" points="1574.5,402.3 1555,400.4 1554.9,370.8 1577.6,369.2 				"/>
			</g>
			<g>
				<path class="st7" d="M1564.9,295.9c-3.7,1.2-7.1,2.1-10.3,2.7l-0.1-14.9l8.3-0.7L1564.9,295.9z"/>
			</g>
			<g>
				<path class="st7" d="M1567.2,310l-12.5,3.4l-0.1-13.5c3.2-0.7,6.7-1.6,10.5-2.8L1567.2,310z"/>
			</g>
			<g>
				<path class="st0" d="M1738.3,588.5l-0.2,7.1h-1.1l0.2-7.2l-89.7-5.9c0.2,4.6,0.3,9.1,0.5,13.1h-2.3c-0.1-3.8-0.3-8.4-0.5-13.2
					l-19.4-1.3l-2.8,14.5h-1.2l2.8-14.6l-44-2.9l-0.5,17.5h-5.6l0.5-17.9l-19.3-1.3l0.1-2.4l19.2,1.3l1-36l-20.3-1.2l0.1-1.2
					l20.3,1.2l0.9-30.1l-2.5-10.8l-19.1-2V494l18.8,2l-6-26.2l0.6-6.7c-2.7,0.5-7.8,1.8-13.5,3.4v-3.7c7.8-2.1,11.8-3,13.9-3.4
					l5.1-54.9l-19.2-1.9v-2.4l19.4,2l3.1-33.2l-22.6,1.6v-3.5l23-1.7l1.3-13.8l-5.1-19.3l-19.2,6.4v-6.2l26.2-8.6l-0.5-13.9
					l-25.7,6.9v-3.7l12.5-3.4l-2.1-12.9c-3.8,1.2-7.2,2.1-10.5,2.8v-1.2c3.2-0.7,6.6-1.6,10.3-2.7l-2.1-12.9l-8.3,0.7v-2.4l10.2-0.8
					l2.4,14.6c6-2.4,19.4-10.2,18.7-32.4l-31.4-13v-1.5l0.3-0.9l31,12.8v-55.8h1.1v56.3l13.1,5.4l19.7-41.2c0.9,0.7,2,1.2,3.1,1.3
					l-19.6,41.2l30.2,12.5l-0.7,2.9l23.7,1l0.9-57.7h1.1l-0.9,57.7l41.6,1.8c0.1-8.9,0.2-17.2,0.2-21.8v-0.5l0,0l2.6-59.4h1.1
					l-2.5,59.2l42.7-6.4l-10.2-53h2.9c0.2,0,0.4,0,0.5,0l10.1,52.5l13.6-2l0.1,0.8v0.4l-13.5,2l10.8,56.2l2.9-0.2v5.9l-21.1,1.6
					v29.1l21.3,5v3.6l-24.7-5.8v-31.7L1657,327v33.8h25.3l3.3,15.7h20.6l54.7,10.4v3.6l-55-10.5h-62.6l-2.3,28.6l65.1,6.5l-0.2,2.3
					l-65.1-6.5l-4.3,54.9l65.8-9l0.4,3.5l-66.5,9.1l-2.5,32.4l69.6,7.3l36.1,2.7v-49.5L1705,442l1.7-3.1l33.4,20.4l20.8-2.9v3.6
					l-20.6,2.8v31.5l20.8,2.3v3.6l-20.8-2.3v15.7l0,0l-1.2,44.5l0,0l22.3,9.1v3.8l-22.4-9.2l-0.7,24.3l23.2,1.5v0.8l-0.1,1.6
					L1738.3,588.5z M1645.1,579.9c-0.1-2.1-0.2-4.2-0.2-6.4l-17.6,0.1l-1,5.1L1645.1,579.9z M1625.1,578.6l1.1-5.7l2.6-25.9
					l1.5-18.9l-48.1-3.8l-1.5,51.3L1625.1,578.6z M1614.2,501.5l-25.3-2.7l0.7,10.4l22.7,2.6L1614.2,501.5z M1615.3,501.6l-4.2,22.7
					l19.4,1.5l1.8-22.4L1615.3,501.6z M1582.3,522l27.7,2.2l1.9-10.1l-24.4-2.7l-0.9-12.8l-6.1-0.6l2.2,9.6L1582.3,522z M1615,440.5
					l-4.9,23.1l25.1,2.7l1.8-23L1615,440.5z M1609,463.5l4.9-23.2l-36.8-4.7l-2.2,24.2L1609,463.5z M1583.6,365.2l55.6-4l-5.3-32.1
					l-3.9,0.3h-46.8l-3.8,1.2l5.5,20.6L1583.6,365.2z M1586.9,263.3c0.1,6.1-1.2,26.2-19.7,33.1l2.1,13l11.5-3.1l18.1-38
					L1586.9,263.3z M1602.1,269.6l-18.4,38.6l0.6,15.3h36.6l9.8-42.1L1602.1,269.6z M1632.4,284l-9.2,39.5h6.5l26-2l0.6-36.5
					L1632.4,284z M1657.4,285.1l-0.6,36.3l42.2-3.3c-0.2-5.9-0.1-19-0.1-31.3L1657.4,285.1z M1743.3,257.9l-43,6.4
					c-0.2,18.6-0.4,45.1-0.2,53.7l53.9-4.2L1743.3,257.9z M1635,329l7.9,47.8h12.8v-49.4L1635,329z M1679.4,364.6h-22.6v12.2h25.1
					L1679.4,364.6z M1642.1,378.6l-2.3-14l-56.5,4.1l-3.2,34.2l59.6,6L1642.1,378.6z M1579.9,405.3l-2.5,26.8l59.9,7.7l2.2-28.5
					L1579.9,405.3z M1634.9,469.9l-60.4-6.6l-0.6,6.1l6.3,27.3l52.1,5.5L1634.9,469.9z M1630,547.1l-2.6,25.3h17.4
					c-0.3-8.3-0.6-16.7-0.8-23c-0.4-11.2-0.4-11.2,0.3-11.6l0.5,1.1l1.1,0.1c-0.1,1,0.5,16.4,1.1,32.9l50.4-25.2l1.8-36.3l-65.8-6.9
					L1630,547.1z M1703.6,510.9l0.4,46.6l34,1.7l1.3-45.6L1703.6,510.9z M1737.9,561.4L1737.9,561.4L1737.9,561.4v-1.1l-35.1-1.7
					l-0.4-47.8l-2.2-0.2l-1.8,36.9l-51.4,25.8c0.1,2.3,0.2,4.6,0.3,6.9l89.9,5.9L1737.9,561.4z"/>
			</g>
			<g>
				<polygon class="st4" points="1686.7,559.7 1735.7,563.3 1735.7,579.8 1654.7,575.2 				"/>
			</g>
			<g>
				<polygon class="st4" points="1585.6,373 1634.7,369.8 1637.7,378.6 1636,404.8 1582.7,398.2 				"/>
			</g>
			<g>
				<path class="st4" d="M1737.7,657.8l-157.5,0.8c-13.3,0.1-24.1-11.2-24.2-25.1l-0.2-38h18.7h5.6h41.7h1.2h22.6h2.3h89h1.1h23.5
					l0.1,28.7v9C1761.3,646.9,1750.8,657.8,1737.7,657.8z"/>
			</g>
			<g>
				<polygon class="st4" points="1705,258.2 1705.9,209.9 1729.8,209.9 1736.8,253.3 				"/>
			</g>
			<g>
				<polygon class="st4" points="1588.8,318.3 1586.4,307.8 1603.3,274.3 1624.9,285.4 1617.7,317.2 				"/>
			</g>
			<g>
				<path class="st4" d="M1735.7,465.3c-0.3,1.5,0,42.3,0,42.3l-31.5-2.1l3.6-55.8L1735.7,465.3z"/>
			</g>
		</g>
		<g>
			<polygon class="st4" points="1630.5,498.4 1632.2,473.1 1578.1,465.9 1578.1,470.2 1584.6,493.5 			"/>
		</g>
		<g>
			<path class="st11" d="M1670.5,288.7c0,3.8,3,6.9,6.6,6.9s6.6-3.1,6.6-6.9s-3-6.9-6.6-6.9S1670.5,284.9,1670.5,288.7z"/>
		</g>
		<g>
			<path class="st12" d="M1670.5,288.4c-0.2,3.8,2.7,7,6.3,7.2c3.6,0.2,6.7-2.8,6.9-6.6c0.2-3.8-2.7-7-6.3-7.2
				C1673.8,281.6,1670.7,284.6,1670.5,288.4z"/>
		</g>
		<g>
			<ellipse class="st13" cx="1677.1" cy="288.5" rx="4.4" ry="4.6"/>
		</g>
		<g>
			<path class="st13" d="M1575.2,563.8c0,1.6,1.3,2.9,2.8,2.9c1.6,0,2.8-1.3,2.8-2.9c0-1.6-1.3-2.9-2.8-2.9
				C1576.5,560.9,1575.2,562.2,1575.2,563.8z"/>
		</g>
		<g>
			<path class="st13" d="M1579.7,562.9l0.7-16.5l47.6,2.4c1.2,0.1,2.5-0.2,3.6-0.8l67.5-35.6c1.6-0.8,2.6-2.5,2.7-4.3L1711,322
				c0-0.9-0.3-1.8-0.9-2.4s-1.5-0.9-2.3-0.9l-28.9,2.2v-33h-3.4v33.5c0,0.9,0.3,1.7,1,2.3c0.6,0.6,1.4,0.9,2.2,0.8l28.9-2.2
				l-9.2,185.7c0,0.6-0.3,1.1-0.8,1.3l-67.5,35.6c-0.6,0.3-1.2,0.5-1.9,0.4l-48-2.4c-0.8,0-1.6,0.2-2.2,0.8s-0.9,1.3-1,2.2
				l-0.7,16.9L1579.7,562.9z"/>
		</g>
		<g>
			<ellipse class="st13" cx="1705.4" cy="402.8" rx="8.5" ry="8.9"/>
		</g>
		<g>
			<ellipse class="st3" cx="1705.4" cy="402.8" rx="5.9" ry="6.2"/>
			<path class="st13" d="M1705.4,409.4c3.5,0,6.4-3,6.4-6.6c0-3.7-2.9-6.6-6.4-6.6s-6.4,3-6.4,6.6S1701.9,409.4,1705.4,409.4z
				 M1705.4,397c3,0,5.5,2.6,5.5,5.8c0,3.2-2.5,5.8-5.5,5.8s-5.5-2.6-5.5-5.8S1702.4,397,1705.4,397z"/>
		</g>
		<g>
			<g>
				<path class="st11" d="M1655.1,365.3h40.6c2,0,3.6,1.7,3.6,3.7v15.4c0,2.1-1.6,3.7-3.6,3.7h-0.5v3.7l-4.1-3.7H1655
					c-2,0-3.6-1.7-3.6-3.7V369C1651.5,367,1653.1,365.3,1655.1,365.3z"/>
			</g>
		</g>
		<g>
			<g>
				<path class="st14" d="M1655.1,365.3h40.6c2,0,3.6,1.7,3.6,3.7v15.4c0,2.1-1.6,3.7-3.6,3.7h-0.5v3.7l-4.1-3.7H1655
					c-2,0-3.6-1.7-3.6-3.7V369C1651.5,367,1653.1,365.3,1655.1,365.3z"/>
			</g>
		</g>
		<g>
			<g>
				<path class="st13" d="M1668.5,265.5c0-5.4,4.7-9.7,10.1-8.7c3.4,0.7,6.1,3.6,6.7,7.1c0.4,2.2-0.1,4.3-1,6l0,0l0,0
					c-0.3,0.6-0.7,1-1.1,1.6l-4.9,6.8c-0.6,0.8-1.8,0.8-2.4,0l-4.8-6.7c0,0-0.9-1.1-1.2-1.7l0,0l0,0
					C1669,268.7,1668.5,267.2,1668.5,265.5z M1677,269.4c2.1,0,3.7-1.7,3.7-3.9s-1.7-3.9-3.7-3.9c-2.1,0-3.7,1.7-3.7,3.9
					S1674.9,269.4,1677,269.4z"/>
			</g>
		</g>
		<g>
			<g>
				<ellipse class="st13" cx="1739.2" cy="622.2" rx="10.1" ry="9.9"/>
			</g>
		</g>
		<g>
			<g>
				<g>
					<path class="st3" d="M1743.6,624c0-0.1-0.9-0.1-2.4-0.2c-1.5,0-3.8-0.1-6.4-0.1l0.2,0.4c0.7-0.9,1.6-1.9,2.4-2.9l0.2-0.2
						l-0.1-0.2c-0.8-1-1.6-2-2.4-3.1l-0.2,0.5c0.3,0,0.7,0,1.1,0c2.8,0,5.4,0,7.7,0l-0.3-0.3c0,3,0.1,5.5,0.1,7.3s0.1,2.8,0.2,2.8
						s0.1-1,0.2-2.8c0-1.8,0.1-4.3,0.1-7.3v-0.3h-0.3c-2.3,0-5,0-7.7,0c-0.4,0-0.7,0-1.1,0h-0.6l0.4,0.5c0.8,1.1,1.6,2.1,2.4,3.1
						v-0.4c-0.8,1-1.6,2-2.4,2.9l-0.4,0.4h0.6c2.6,0,4.9-0.1,6.4-0.1C1742.7,624.1,1743.6,624.1,1743.6,624z"/>
				</g>
			</g>
		</g>
		<g>
			<path class="st13" d="M1586.9,605.3h28.6c3,0,5.5,2.6,5.5,5.7v23.5c0,3.2-2.4,5.7-5.5,5.7h-0.7v5.6l-6.2-5.6H1587
				c-3,0-5.5-2.6-5.5-5.7V611C1581.4,607.9,1583.9,605.3,1586.9,605.3z"/>
		</g>
		<g>
			<g>
				<path class="st3" d="M1612.7,616.1v12.1c0,0.3-0.2,0.5-0.4,0.5h-24.2c-0.3,0-0.5-0.2-0.4-0.5l0.1-4.4c0-0.1,0-0.2,0.1-0.3
					l3.5-4.8c0.1-0.1,0.2-0.2,0.4-0.2h4c0.2,0,0.4-0.2,0.4-0.5v-1.8c0-0.3,0.2-0.5,0.4-0.5h15.8
					C1612.5,615.7,1612.7,615.9,1612.7,616.1z"/>
			</g>
		</g>
		<g>
			<g>
				<path class="st13" d="M1594.9,619.5v3.9c0,0.2-0.1,0.3-0.3,0.3l-5.3-0.1c-0.2,0-0.3-0.2-0.2-0.4l2.5-3.8c0-0.1,0.1-0.1,0.2-0.1
					l2.8,0.1C1594.8,619.2,1594.9,619.3,1594.9,619.5z"/>
			</g>
		</g>
		<g>
			<g>
				<rect x="1587.1" y="629.1" class="st3" width="26.1" height="0.8"/>
			</g>
		</g>
		<g>
			<path class="st13" d="M1604.6,629.3c0,1.5,1.2,2.7,2.6,2.7s2.6-1.2,2.6-2.7s-1.2-2.7-2.6-2.7S1604.6,627.9,1604.6,629.3z"/>
		</g>
		<g>
			<g>
				<path class="st3" d="M1605.7,629.3c0,0.9,0.7,1.6,1.5,1.6s1.5-0.7,1.5-1.6c0-0.9-0.7-1.6-1.5-1.6
					C1606.3,627.8,1605.7,628.5,1605.7,629.3z"/>
			</g>
		</g>
		<g>
			<g>
				<g>
					<path class="st11" d="M1596.1,628.7c0.1,0,0.1-2.9,0.1-6.5s-0.1-6.5-0.1-6.5c-0.1,0-0.1,2.9-0.1,6.5
						C1596,625.7,1596,628.7,1596.1,628.7z"/>
				</g>
			</g>
		</g>
		<g>
			<g>
				<path class="st13" d="M1590.6,629.3c0,1.5,1.2,2.7,2.6,2.7s2.6-1.2,2.6-2.7s-1.2-2.7-2.6-2.7S1590.6,627.9,1590.6,629.3z"/>
			</g>
		</g>
		<g>
			<g>
				<path class="st4" d="M1591.6,629.3c0,0.9,0.7,1.6,1.5,1.6s1.5-0.7,1.5-1.6c0-0.9-0.7-1.6-1.5-1.6
					C1592.3,627.8,1591.6,628.5,1591.6,629.3z"/>
			</g>
		</g>
		<g>
			<g>
				<g>
					<path class="st11" d="M1593.1,624.4c0,0.1,0.4,0.1,0.8,0.1c0.5,0,0.8-0.1,0.8-0.1c0-0.1-0.4-0.1-0.8-0.1
						C1593.5,624.2,1593.1,624.3,1593.1,624.4z"/>
				</g>
			</g>
		</g>
		<g>
			<g>
				<g>
					<path class="st15" d="M1323.7,426.4c0,0-18.2,3.2-19.7,3.6s-7.2,3.3-7.5,5.1c-0.3,1.8,0,7.3,0,7.3s1,0.9,1.7-0.9
						s0.6-5.3,0.6-5.3l3.2-1.3l-1.8,3.3l-0.3,7.7c0,0,2.3-0.2,2.7-2c0.4-1.8,0.4-3.9,0.4-3.9l2.4-2.1l-1.8,2.5l-0.6,5.5
						c0,0,1.7,0.6,2.3-0.6c0.5-1.2,0.6-4.9,0.6-4.9l6.6-2.4l4.4,2.6l8.2-4.9L1323.7,426.4z"/>
				</g>
			</g>
			<g>
				<g>
					<g>
						<g>
							<path class="st15" d="M1387.4,379.4c-0.1,0.4-21.9,31.8-21.9,31.8l-43.9,14.3l2,17.2l53.8-11.3l19.1-22.9L1387.4,379.4z"/>
						</g>
					</g>
					<g class="st16">
						<g>
							<path class="st15" d="M1387.4,379.4c-0.1,0.4-21.9,31.8-21.9,31.8l-43.9,14.3l2,17.2l53.8-11.3l19.1-22.9L1387.4,379.4z"/>
						</g>
					</g>
				</g>
			</g>
		</g>
		<g>
			<g>
				<g>
					<path class="st7" d="M1463.9,441h89.7c1.9,0,3.4-1.6,3.4-3.6v-11.1c0-2-1.5-3.6-3.4-3.6h-89.7c-1.9,0-3.4,1.6-3.4,3.6v11.1
						C1460.5,439.4,1462,441,1463.9,441z"/>
				</g>
			</g>
			<g>
				<g>
					<g>
						<path class="st8" d="M1463.9,441c0,0-0.2,0-0.6-0.1s-0.9-0.2-1.5-0.7s-1.1-1.3-1.3-2.4c0-1.1,0-2.4,0-3.9s0-3.1,0-4.9
							c0-0.9,0-1.8,0-2.8c0-0.9,0.4-1.9,1.2-2.5c0.4-0.3,0.8-0.6,1.3-0.7s1-0.1,1.5-0.1c1.1,0,2.2,0,3.3,0c2.3,0,4.7,0,7.2,0
							c20.1,0,47.9,0.1,78.6,0.1c0.9,0,1.7,0.4,2.3,1.1c0.6,0.7,0.9,1.6,0.8,2.5c0,2,0,3.9,0,5.9c0,1,0,1.9,0,2.9v1.5
							c0,0.5,0,0.9-0.1,1.4c-0.2,0.9-0.8,1.6-1.5,2c-0.4,0.2-0.8,0.3-1.2,0.4c-0.4,0-0.9,0-1.3,0c-7.2,0-14.2,0-20.9,0
							c-13.3,0-25.3,0-35.3,0.1c-10,0-18.2,0.1-23.8,0.1c-2.8,0-5,0-6.5,0.1c-0.7,0-1.3,0-1.7,0C1464.1,441,1463.9,441,1463.9,441
							s0.2,0,0.6,0s1,0,1.7,0c1.5,0,3.7,0,6.5,0.1c5.7,0,13.8,0.1,23.8,0.1c10.1,0,22,0,35.3,0.1c6.7,0,13.6,0,20.9,0
							c0.5,0,0.9,0,1.4,0c0.5-0.1,1-0.2,1.4-0.5c0.9-0.5,1.5-1.4,1.8-2.4c0.1-0.5,0.1-1,0.1-1.5v-1.5c0-1,0-1.9,0-2.9
							c0-2,0-3.9,0-5.9c0.1-1-0.3-2.2-1-3s-1.7-1.3-2.8-1.3c-30.7,0-58.5,0.1-78.6,0.1c-2.5,0-4.9,0-7.2,0c-1.1,0-2.2,0-3.3,0
							c-0.5,0-1.1,0-1.6,0.1s-1,0.4-1.4,0.8c-0.8,0.7-1.2,1.8-1.3,2.8c0,1,0,1.9,0,2.8c0,1.8,0,3.4,0,4.9s0,2.8,0.1,3.9
							c0.1,1.2,0.8,2,1.4,2.5s1.2,0.6,1.6,0.7C1463.7,441,1463.9,441,1463.9,441z"/>
					</g>
				</g>
			</g>
		</g>
		<g>
			<g>
				<g>
					<g>
						<g>
							<g>
								<g>
									<ellipse class="st8" cx="1222.5" cy="626.4" rx="46.2" ry="48.2"/>
								</g>
							</g>
						</g>
					</g>
				</g>
			</g>
			<g>
				<g>
					<g>
						<g>
							<g>
								<g>
									<path class="st8" d="M1268.6,625.5L1268.6,625.5c0.4,26.7-20,48.7-45.5,49c-25.5,0.4-46.5-20.9-46.8-47.5v-0.1
										L1268.6,625.5z"/>
								</g>
							</g>
						</g>
					</g>
				</g>
			</g>
			<g>
				<g>
					<g>
						<g>
							<g>
								<g>
									<path class="st3" d="M1254.9,625.9c0.3,18.7-14,34.1-31.9,34.4c-17.9,0.3-32.6-14.7-32.9-33.4s14-34.1,31.9-34.4
										C1239.9,592.2,1254.6,607.2,1254.9,625.9z"/>
								</g>
							</g>
						</g>
					</g>
				</g>
			</g>
			<g>
				<g>
					<g>
						<g>
							<g>
								<g>
									<path class="st5" d="M1222,592.5c17.9-0.3,32.6,14.7,32.9,33.4l-64.8,1C1189.8,608.1,1204.1,592.8,1222,592.5z"/>
								</g>
							</g>
						</g>
					</g>
				</g>
			</g>
			<g>
				<g>
					<g>
						<g>
							<g>
								<g>
									<path class="st8" d="M1242.2,626.1c0.2,11.4-8.6,20.8-19.5,20.9c-10.9,0.2-19.9-8.9-20-20.3c-0.2-11.4,8.6-20.8,19.5-20.9
										C1233.1,605.6,1242.1,614.7,1242.2,626.1z"/>
								</g>
							</g>
						</g>
					</g>
				</g>
			</g>
		</g>
		<g>
			<path class="st13" d="M1244.4,555.6c0,0-47.3-14.9-66.8,38.7l98.9,32L1244.4,555.6z"/>
		</g>
		<g>
			<g>
				<g>
					<g>
						<g>
							<g>
								<g>
									<ellipse class="st8" cx="1507.3" cy="626.4" rx="46.2" ry="48.2"/>
								</g>
							</g>
						</g>
					</g>
				</g>
			</g>
			<g>
				<g>
					<g>
						<g>
							<g>
								<g>
									<path class="st8" d="M1553.5,625.5L1553.5,625.5c0.4,26.7-20,48.7-45.5,49c-25.5,0.4-46.5-20.9-46.8-47.5v-0.1
										L1553.5,625.5z"/>
								</g>
							</g>
						</g>
					</g>
				</g>
			</g>
			<g>
				<g>
					<g>
						<g>
							<g>
								<g>
									<path class="st3" d="M1539.7,625.9c0.3,18.7-14,34.1-31.9,34.4c-17.9,0.3-32.6-14.7-32.9-33.4s14-34.1,31.9-34.4
										C1524.8,592.2,1539.5,607.2,1539.7,625.9z"/>
								</g>
							</g>
						</g>
					</g>
				</g>
			</g>
			<g>
				<g>
					<g>
						<g>
							<g>
								<g>
									<path class="st5" d="M1506.9,592.5c17.9-0.3,32.6,14.7,32.9,33.4l-64.8,1C1474.7,608.1,1489,592.8,1506.9,592.5z"/>
								</g>
							</g>
						</g>
					</g>
				</g>
			</g>
			<g>
				<g>
					<g>
						<g>
							<g>
								<g>
									<path class="st8" d="M1527.1,626.1c0.2,11.4-8.6,20.8-19.5,20.9c-10.9,0.2-19.9-8.9-20-20.3c-0.2-11.4,8.6-20.8,19.5-20.9
										C1518,605.6,1526.9,614.7,1527.1,626.1z"/>
								</g>
							</g>
						</g>
					</g>
				</g>
			</g>
		</g>
		<g>
			<g>
				<path class="st17" d="M1441.7,607c0.3,0.1,24.3-3.9,24.3-3.9l0,0c2.6,3.6,6.6,5.8,11,6c10.4,0.5,20.5,1,29.3,1.4
					c8.2,0.4,14.6,7.6,14.2,16.2l0,0c-0.3,8.1-6.6,14.6-14.3,14.9l-51.1,2.1c-8.4,0.3-19.6-5-24.8-11.9l0,0L1441.7,607z"/>
			</g>
		</g>
		<path class="st13" d="M1567.3,585.6c0,0,2.2-47-40.1-56.8v-6h-148.1v14.4c0,0,21.7,27.4,14.6,50.1c-7.1,22.7-9.3,25-9.3,25h-84.3
			c0,0-10.2-13.4-10.6-33.4c-0.4-19.9,7.5-54,13.4-75.8c5.4-19.8,8.8-36.4,8.8-36.4l-25.3-8.8c0,0-46.8,63.9-48.7,67.5
			c-1.9,3.6-8.4,12-6.9,30.4s43.6,75.1,54.7,81.5s21,6.8,31,8.4c8.6,1.4,72.4,0.5,89.1,0.2c5.8-0.1,11.5-1.6,16.5-4.8
			s8.7-8.4,12.9-17l8.8-18L1567.3,585.6z"/>
		<g>
			<g>
				<path class="st17" d="M1555.9,582.4l18.7,30.5c2.4,3.9-1.5,8.8-5.5,7c-2-0.9-4.1-2.3-6.3-4.4c-8.5-8.5-23.7-30.8-23.7-30.8
					L1555.9,582.4z"/>
			</g>
		</g>
		<g>
			<g>
				<g>
					<path class="st8" d="M1422.2,587.9c0,0,0-0.2-0.1-0.4c-0.1-0.3-0.2-0.7-0.4-1.3c-0.3-1.1-0.7-2.8-1-5
						c-0.5-4.4-0.3-11.1,2.9-18.4c1.5-3.7,3.8-7.4,6.9-10.8c3.1-3.4,6.9-6.5,11.3-9s9.4-4.5,14.8-5.8s11.1-1.8,16.9-1.8
						s11.5,0.5,17,1.3s10.7,1.7,15.6,2.9c9.9,2.3,18.5,5.8,25.1,9.7c6.7,3.9,11.4,8.2,14.4,11.4c1.5,1.6,2.6,2.9,3.3,3.9
						c0.3,0.4,0.6,0.8,0.8,1c0.2,0.2,0.3,0.4,0.3,0.3c0,0-1.3-2.1-4.2-5.4c-2.9-3.3-7.6-7.7-14.3-11.7c-6.7-4-15.3-7.5-25.2-9.9
						c-5-1.2-10.2-2.2-15.7-2.9c-5.5-0.8-11.2-1.3-17.1-1.3s-11.6,0.6-17,1.9c-5.4,1.3-10.5,3.3-14.9,5.8c-4.5,2.5-8.3,5.7-11.4,9.2
						s-5.4,7.3-6.9,11c-3.1,7.4-3.3,14.2-2.7,18.6c0.3,2.2,0.7,3.9,1.1,5c0.2,0.5,0.3,1,0.4,1.3
						C1422.1,587.7,1422.1,587.9,1422.2,587.9z"/>
				</g>
			</g>
		</g>
		<g>
			<g>
				<g>
					<path class="st7" d="M1430.7,577.3c0.1,0-0.2-0.7-0.6-2.1c-0.3-1.3-0.5-3.4-0.2-5.8c0.3-2.5,1.2-5.3,2.8-8.2
						c0.7-1.4,1.7-2.9,2.7-4.3c1.1-1.4,2.3-2.8,3.7-4c2.8-2.4,5.9-4.2,8.8-5.4s5.7-1.9,8.1-2.3c2.4-0.4,4.3-0.6,5.6-0.7
						c1.3-0.1,2.1-0.1,2.1-0.2c0,0-0.2,0-0.5-0.1c-0.4,0-0.9,0-1.6,0c-1.3,0-3.3,0.1-5.7,0.5c-2.4,0.4-5.2,1-8.2,2.2s-6.1,2.9-9,5.4
						c-1.4,1.2-2.7,2.6-3.7,4.1c-1.1,1.4-2,2.9-2.8,4.4c-1.5,3-2.4,5.9-2.7,8.4c-0.3,2.5-0.1,4.6,0.4,6c0.1,0.7,0.4,1.2,0.5,1.5
						C1430.6,577.1,1430.7,577.3,1430.7,577.3z"/>
				</g>
			</g>
		</g>
		<g class="st18">
			<g>
				<g>
					<path d="M1459.7,536.1c-8.3,1.7-15.5,4.8-22.3,9.5s-12,11.4-14.9,19.4c-3,8-2.5,18.5,0.6,25.1l-10.5,0.9
						c-3.5-12.3,0.3-27.4,8.8-37C1431.3,542.7,1445,536.1,1459.7,536.1"/>
				</g>
			</g>
		</g>
		<g>
			<g>
				<path class="st17" d="M1461.9,522.8h93.8c4.7,0,8.6-3.8,8.6-8.6v-65.6c0-4.7-3.8-8.6-8.6-8.6h-93.8c-4.7,0-8.6,3.8-8.6,8.6v65.6
					C1453.3,518.9,1457.2,522.8,1461.9,522.8z"/>
			</g>
		</g>
		<g>
			<g>
				<g>
					<path class="st8" d="M1453.3,458.5c0,0.2,24.9,0.3,55.7,0.3c30.8,0,55.7-0.1,55.7-0.3c0-0.2-24.9-0.3-55.7-0.3
						C1478.3,458.2,1453.3,458.3,1453.3,458.5z"/>
				</g>
			</g>
		</g>
		<g>
			<g>
				<g>
					<path class="st8" d="M1379.1,528.3c0,0.2,33.3,0.3,74.3,0.3c41.1,0,74.4-0.1,74.4-0.3s-33.3-0.3-74.4-0.3
						C1412.4,528,1379.1,528.1,1379.1,528.3z"/>
				</g>
			</g>
		</g>
		<g>
			<g>
				<path class="st17" d="M1379.1,522.8c0,0-2.4-3-2.7-6.9c-0.2-3.9,1.5-8.7,5.5-8.7h51.1c8.3,0,15,7,15,15.7l0,0L1379.1,522.8
					L1379.1,522.8z"/>
			</g>
		</g>
		<g>
			<g>
				<path class="st13" d="M1311.6,466.7l8.9-19.4c2.4-5.5,0.5-12.1-4.5-15.2l-26.6-16.6c-1.4-0.9-3-1.3-4.6-1.3h-5.7l-2.3,39.2
					l8.9,3.5l-5.6,9.5L1311.6,466.7z"/>
			</g>
		</g>
		<g>
			<g>
				<path class="st4" d="M1279,415.6c0,0-9.1,2.2-10.2,16.8c-1.1,14.7,8,19.2,8,19.2L1279,415.6z"/>
			</g>
		</g>
		<g>
			<g>
				<path class="st8" d="M1308.5,439.7c0,0,18.4,9.1,20.6,10.6c1.6,1,2.9,2.9,1.7,6c-2.1,5.4-10.7,0.3-10.7,0.3l-17.1-8.9
					c0,0-6.6-3.2-4.2-7.3C1301.6,435.9,1308.5,439.7,1308.5,439.7z"/>
			</g>
		</g>
		<g>
			<g>
				<path class="st19" d="M1334.6,436.4c0,0-17.3,3.1-18.7,3.5c-1.5,0.4-7.2,3.3-7.5,5.1c-0.3,1.8,0,7.3,0,7.3s1,0.9,1.7-0.9
					s0.6-5.3,0.6-5.3l3.2-1.3l-1.8,3.3l-0.3,7.7c0,0,2.3-0.2,2.7-2c0.4-1.8,0.4-3.9,0.4-3.9l2.4-2.1l-1.8,2.5l-0.6,5.5
					c0,0,1.7,0.6,2.3-0.6c0.5-1.2,0.6-4.9,0.6-4.9l6.6-2.4l4.4,2.6l6.9-4L1334.6,436.4z"/>
			</g>
		</g>
		<g>
			<g>
				<path class="st8" d="M1307.6,411.2c0,7.3,3.2,13.2,7.2,13.2s7.2-5.9,7.2-13.2c0-7.3-3.2-13.2-7.2-13.2
					C1310.9,398,1307.6,403.9,1307.6,411.2z"/>
			</g>
		</g>
		<g>
			<g>
				<path class="st8" d="M1313.6,420.3l-3.9,14.3c-1.8-0.9-2.1-2.8-1.8-4.2c1-4.9,1.5-8.4,2.6-12.7
					C1310.6,417.3,1313.6,420.3,1313.6,420.3"/>
			</g>
		</g>
		<g class="st18">
			<g>
				<path d="M1391.8,593.3c0.4-1.2,0.8-2.4,1.2-3.6c0.4-1.2,0.8-2.3,1.1-3.5c0.5-2.1,0.9-4.2,1-5.4c6.7,28.3-3.5,48.3-21,49.7
					c-25.5,2-56.6,3.5-69.2,0.1c-22.9-6.3-31.3-26.3-33.4-29.6c-2-3.3-20.2-38.1-9.1-71.7c11.2-33.6,30.7-69.2,30.7-69.2l18.6,6.5
					c0,0-3.4,16.6-8.8,36.4c-5.9,21.8-13.8,55.9-13.4,75.8s10.6,33.4,10.6,33.4h84.3C1384.4,612.3,1386.2,610.4,1391.8,593.3"/>
			</g>
		</g>
		<g>
			<g>
				<path class="st11" d="M1570.6,578.3l-0.6-6.7l-153.9,18.5c-8.7,1.1-14.7,9.5-13.2,18.5l0.7,4.1l159.3-24.2
					C1567.7,587.8,1571.1,583.3,1570.6,578.3z"/>
			</g>
		</g>
		<g>
			<g>
				<path class="st15" d="M1570.6,578.3l-0.6-6.7l-153.9,18.5c-8.7,1.1-14.7,9.5-13.2,18.5l0.7,4.1l159.3-24.2
					C1567.7,587.8,1571.1,583.3,1570.6,578.3z"/>
			</g>
		</g>
		<g class="st20">
			<g>
				<g>
					<path d="M1271.5,623.2c0,0-33.9-38.9-40.9-69.6c-2.3,0-7.8,0.2-10.5,0.8C1220.1,554.5,1240.1,611.4,1271.5,623.2z"/>
				</g>
			</g>
		</g>
		<g>
			<g>
				<g>
					<path class="st8" d="M1231.1,540c0,0-0.1,0.3-0.2,1c-0.1,0.6-0.3,1.6-0.4,2.8c-0.2,2.5-0.4,6.1,0.3,10.6
						c0.6,4.4,2.1,9.6,4.5,15s5.6,10.9,9,16.8c6.8,11.7,14.3,21.2,19.8,28c2.8,3.4,5,6.1,6.6,8c0.8,0.9,1.4,1.6,1.8,2.1
						s0.7,0.7,0.7,0.7s-0.2-0.3-0.6-0.8s-1-1.3-1.7-2.2c-1.6-2-3.8-4.7-6.5-8.1c-5.4-6.9-12.9-16.4-19.6-28.1
						c-3.4-5.8-6.6-11.3-9-16.7c-2.4-5.3-3.9-10.4-4.5-14.8c-0.7-4.4-0.6-8-0.4-10.5c0.1-1.2,0.2-2.2,0.3-2.9
						C1231.1,540.3,1231.1,540,1231.1,540z"/>
				</g>
			</g>
		</g>
		<g>
			<g>
				<g>
					<path class="st8" d="M1289.6,623c0.1,0.1,2.5-2.2,5.4-5.1c2.9-3,5.1-5.4,5-5.6c-0.1-0.1-2.5,2.2-5.4,5.1
						C1291.8,620.4,1289.5,622.8,1289.6,623z"/>
				</g>
			</g>
		</g>
		<g>
			<g>
				<g>
					<path class="st8" d="M1390.2,621.8c0.1-0.1-0.8-2.4-2.5-5s-3.5-4.4-3.6-4.3c-0.1,0.1,1.4,2.1,3.1,4.6
						C1388.9,619.6,1390,621.8,1390.2,621.8z"/>
				</g>
			</g>
		</g>
		<g>
			<g>
				<g>
					<path class="st8" d="M1455.3,644.2c0.1-0.1-2.4-1.8-4.6-6.1c-1.1-2.1-2-4.9-2.3-8.1c-0.3-3.2,0.2-6.7,1.6-10.1
						c1.5-3.3,3.9-5.9,6.5-7.7c2.5-1.8,5.2-2.8,7.4-3.2c4.6-0.9,7.5,0.1,7.5-0.1c0,0-0.2-0.1-0.5-0.2c-0.3-0.1-0.8-0.2-1.5-0.3
						c-1.3-0.2-3.2-0.3-5.6,0.1c-2.3,0.4-5,1.4-7.7,3.2c-2.6,1.8-5.1,4.5-6.7,7.9c-1.5,3.4-2,7.1-1.7,10.4c0.3,3.3,1.3,6.1,2.4,8.2
						c1.2,2.2,2.4,3.7,3.4,4.6c0.5,0.5,0.9,0.8,1.2,1C1455.1,644.2,1455.2,644.3,1455.3,644.2z"/>
				</g>
			</g>
		</g>
		<g>
			<g>
				<g>
					<path class="st8" d="M1511.4,631.9c0.2,0,0.4-2.5,0.6-5.7c0.1-3.1,0.1-5.7,0-5.7c-0.2,0-0.4,2.5-0.6,5.7
						C1511.3,629.4,1511.3,631.9,1511.4,631.9z"/>
				</g>
			</g>
		</g>
		<g>
			<g>
				<g>
					<path class="st8" d="M1507.4,631.9c0.2,0,0.6-2.5,1-5.7c0.4-3.1,0.6-5.7,0.4-5.7s-0.6,2.5-1,5.7
						C1507.4,629.3,1507.2,631.9,1507.4,631.9z"/>
				</g>
			</g>
		</g>
		<g>
			<g>
				<g>
					<path class="st8" d="M1443.9,522.8c0,0.2,18.7,0.3,41.8,0.3c23.1,0,41.8-0.1,41.8-0.3s-18.7-0.3-41.8-0.3
						S1443.9,522.6,1443.9,522.8z"/>
				</g>
			</g>
		</g>
		<g>
			<g>
				<g>
					<path class="st8" d="M1504.5,522.7c0.2,0,0.3-22.4,0.3-50s-0.1-50-0.3-50c-0.2,0-0.3,22.4-0.3,50
						C1504.2,500.3,1504.3,522.7,1504.5,522.7z"/>
				</g>
			</g>
		</g>
		<g>
			<g>
				<g>
					<path class="st8" d="M1515.9,522.6c0.2,0-0.6-22.4-1.8-50c-1.2-27.6-2.2-50-2.4-50c-0.2,0,0.6,22.4,1.8,50
						C1514.7,500.3,1515.8,522.7,1515.9,522.6z"/>
				</g>
			</g>
		</g>
		<g>
			<g>
				<g>
					<g>
						<path class="st17" d="M1541.9,659.1c0,0,0.2-0.2,0.5-0.5c0.3-0.4,0.8-0.9,1.3-1.6c1.1-1.4,2.6-3.6,4.2-6.4
							c3.1-5.6,6.2-14.4,6.2-24.5s-3.2-18.8-6.4-24.4c-1.6-2.8-3.1-5-4.2-6.4c-0.5-0.7-1-1.2-1.3-1.6c-0.3-0.4-0.5-0.5-0.5-0.5
							s0.1,0.2,0.4,0.6c0.3,0.4,0.7,0.9,1.2,1.6c1.1,1.4,2.5,3.6,4,6.4c3,5.6,6.1,14.3,6.1,24.2s-3,18.6-6,24.3
							c-1.5,2.8-2.9,5-4,6.5c-0.5,0.7-1,1.3-1.2,1.7C1542,658.9,1541.8,659.1,1541.9,659.1z"/>
					</g>
				</g>
			</g>
		</g>
		<g>
			<g>
				<g>
					<g>
						<g>
							<g>
								<path class="st17" d="M1380.1,569.2l0.4,0.7l6.8,13.4l9.5,9.6l-19,26.5l-15.9-2.8c0,0,1.8-3.8,9.7-4.5l3-15.8l-11.2-18.1"/>
							</g>
						</g>
					</g>
					<g>
						<g>
							<g>
								<polygon class="st5" points="1396.8,592.9 1377.7,619.4 1361.9,616.6 1364.1,614.4 1377.1,615.9 1394.8,590.8 								"/>
							</g>
						</g>
					</g>
				</g>
				<g>
					<g>
						<g>
							<g>
								<path class="st8" d="M1372.9,604.8c0.1,0.2,1.1-0.2,2.3,0.1c1.2,0.2,2,0.9,2.2,0.8c0.2-0.1-0.6-1.2-2.1-1.5
									C1373.8,603.8,1372.8,604.7,1372.9,604.8z"/>
							</g>
						</g>
					</g>
				</g>
				<g>
					<g>
						<g>
							<g>
								<path class="st8" d="M1373.8,600.9c0.1,0.1,1-0.7,2.3-0.7c1.3-0.1,2.2,0.7,2.4,0.6c0.1-0.1-0.1-0.4-0.5-0.7
									s-1.1-0.6-1.9-0.6s-1.5,0.4-1.9,0.8C1373.8,600.5,1373.7,600.8,1373.8,600.9z"/>
							</g>
						</g>
					</g>
				</g>
				<g>
					<g>
						<g>
							<g>
								<path class="st8" d="M1374.5,595.8c0.2,0.1,0.9-0.7,2-0.9c1.2-0.2,2.1,0.3,2.2,0.2s-0.1-0.3-0.5-0.6
									c-0.4-0.2-1.1-0.4-1.8-0.3c-0.7,0.1-1.3,0.6-1.6,0.9C1374.5,595.4,1374.4,595.8,1374.5,595.8z"/>
							</g>
						</g>
					</g>
				</g>
				<g>
					<g>
						<g>
							<g>
								<path class="st8" d="M1370.8,591.1c0.2,0.1,0.8-0.8,1.9-1.3s2.1-0.4,2.1-0.6c0.1-0.2-1.1-0.7-2.4,0
									C1371.1,589.8,1370.7,591.1,1370.8,591.1z"/>
							</g>
						</g>
					</g>
				</g>
				<g>
					<g>
						<g>
							<g>
								<path class="st8" d="M1369.3,587.4c0.1,0.1,0.7-0.5,1.7-1.5c0.5-0.6,1.1-1.2,1.7-1.8c0.3-0.3,0.7-0.6,0.9-1.2
									c0.1-0.3,0.2-0.7,0.1-1c-0.1-0.4-0.5-0.7-0.9-0.7c-0.7,0-1.2,0.3-1.6,0.5c-0.4,0.3-0.8,0.6-1.1,1c-0.6,0.7-1,1.5-1.2,2.2
									c-0.4,1.4-0.1,2.4,0,2.3c0.1,0,0-0.9,0.5-2.2c0.2-0.6,0.6-1.3,1.2-1.9c0.3-0.3,0.6-0.6,1-0.8s0.9-0.5,1.2-0.4
									c0.2,0,0.2,0.1,0.3,0.2c0,0.1,0,0.3,0,0.5c-0.1,0.3-0.5,0.7-0.8,1c-0.5,0.6-1,1.3-1.5,1.9
									C1369.7,586.6,1369.2,587.3,1369.3,587.4z"/>
							</g>
						</g>
					</g>
				</g>
				<g>
					<g>
						<g>
							<g>
								<path class="st8" d="M1368.7,587.8c0.1,0,0.2-0.9-0.5-2s-2.4-2.4-4.6-1.7c-0.2,0.1-0.3,0.3-0.3,0.5s0,0.4,0.1,0.6
									c0.1,0.3,0.3,0.5,0.5,0.6c0.3,0.3,0.7,0.6,1,0.9c0.7,0.5,1.4,0.8,2,1c1.2,0.4,2,0.2,2,0.1c0-0.1-0.7-0.2-1.8-0.6
									c-0.5-0.2-1.2-0.6-1.8-1c-0.3-0.2-0.6-0.5-0.9-0.8c-0.1-0.2-0.3-0.3-0.4-0.4c-0.1-0.2,0-0.1,0-0.2c0.1-0.1,0.3-0.1,0.5-0.1
									s0.4,0,0.6,0c0.4,0,0.8,0.1,1.1,0.3c0.7,0.3,1.2,0.7,1.6,1.2C1368.4,587,1368.6,587.8,1368.7,587.8z"/>
							</g>
						</g>
					</g>
				</g>
				<g>
					<g>
						<g>
							<path class="st5" d="M1384.2,590.2c-0.2,1.1,0.5,2.1,1.6,2.3c1,0.2,2-0.6,2.2-1.6c0.2-1.1-0.5-2.1-1.6-2.3
								C1385.4,588.3,1384.4,589.1,1384.2,590.2z"/>
						</g>
					</g>
				</g>
			</g>
		</g>
		<g>
			<g>
				<g>
					<g>
						<g>
							<path class="st17" d="M1322.3,581.9l-5.1,34.6l-41.2-6.4c0.8-4.1,23.3-9,23.3-9l2.4-22.3L1322.3,581.9z"/>
						</g>
					</g>
				</g>
				<g>
					<g>
						<g>
							<g>
								<path class="st5" d="M1312.3,601.2c0.8,0.4,1.2,1.4,0.9,2.2c-0.3,0.8-1.3,1.3-2.1,0.9c-0.8-0.3-1.3-1.5-0.9-2.3
									s1.6-1.2,2.3-0.7"/>
							</g>
						</g>
					</g>
				</g>
				<g>
					<g>
						<g>
							<path class="st5" d="M1317.2,616.5l0.4-3.5l-39.6-4.8c0,0-2,0.5-1.9,1.9L1317.2,616.5z"/>
						</g>
					</g>
				</g>
				<g>
					<g>
						<g>
							<g>
								<path class="st8" d="M1298.7,600.8c0,0.2,1,0.5,1.9,1.3s1.3,1.8,1.5,1.7c0.2,0,0.1-1.3-1-2.3
									C1299.9,600.5,1298.7,600.6,1298.7,600.8z"/>
							</g>
						</g>
					</g>
				</g>
				<g>
					<g>
						<g>
							<g>
								<path class="st8" d="M1294.1,602c-0.1,0.2,0.7,0.7,1.3,1.7c0.6,1,0.6,2,0.8,2c0.2,0.1,0.5-1.1-0.2-2.4
									C1295.3,602,1294.1,601.8,1294.1,602z"/>
							</g>
						</g>
					</g>
				</g>
				<g>
					<g>
						<g>
							<g>
								<path class="st8" d="M1290.9,607c0.2,0.1,0.6-0.9,0.3-2.2c-0.3-1.2-1.2-1.8-1.3-1.7c-0.1,0.2,0.4,0.9,0.7,1.9
									C1290.8,606,1290.7,606.9,1290.9,607z"/>
							</g>
						</g>
					</g>
				</g>
				<g>
					<g>
						<g>
							<g>
								<path class="st8" d="M1299.8,595.8c0.1,0.2,1,0.1,2.1,0.3s2,0.8,2.1,0.6c0.1-0.1-0.6-1-1.9-1.3
									C1300.7,595.1,1299.7,595.6,1299.8,595.8z"/>
							</g>
						</g>
					</g>
				</g>
				<g>
					<g>
						<g>
							<g>
								<path class="st8" d="M1301.5,590.8c0,0.1,0.8,0.3,2.1,0.3c0.6,0,1.4-0.1,2.3-0.4c0.4-0.1,0.8-0.3,1.3-0.5
									c0.2-0.1,0.5-0.2,0.7-0.4c0.3-0.2,0.5-0.7,0.3-1.1c-0.2-0.4-0.5-0.6-0.8-0.6c-0.3-0.1-0.6,0-0.8,0c-0.5,0-0.9,0.1-1.3,0.3
									c-0.8,0.3-1.5,0.6-2.1,1c-1.1,0.8-1.5,1.5-1.5,1.6c0.1,0.1,0.6-0.5,1.7-1.1c0.5-0.3,1.2-0.6,2-0.8c0.4-0.1,0.8-0.2,1.2-0.2
									c0.5-0.1,0.8,0,0.9,0.2c0,0.1,0,0.1-0.1,0.2c-0.1,0.1-0.3,0.2-0.5,0.3c-0.4,0.2-0.8,0.4-1.2,0.5c-0.8,0.3-1.5,0.4-2.1,0.5
									C1302.3,590.8,1301.5,590.7,1301.5,590.8z"/>
							</g>
						</g>
					</g>
				</g>
				<g>
					<g>
						<g>
							<g>
								<path class="st8" d="M1301.7,591.1c0.1,0,0.6-0.6,0.8-2c0.1-0.7,0.2-1.5,0.1-2.4c-0.1-0.5-0.2-0.9-0.3-1.4
									c-0.2-0.5-0.4-1.1-1.2-1.3c-0.4-0.1-0.8,0.2-0.9,0.5c-0.2,0.3-0.2,0.5-0.3,0.8c-0.1,0.5-0.2,1-0.2,1.5
									c0,0.9,0.2,1.8,0.6,2.4c0.6,1.2,1.4,1.6,1.5,1.6c0.1-0.1-0.6-0.6-1-1.8c-0.2-0.6-0.4-1.3-0.4-2.1c0-0.4,0.1-0.8,0.2-1.2
									s0.3-0.8,0.5-0.7c0.2,0,0.5,0.4,0.6,0.8c0.2,0.4,0.3,0.8,0.3,1.2c0.1,0.8,0.2,1.6,0.1,2.2
									C1301.9,590.3,1301.6,591.1,1301.7,591.1z"/>
							</g>
						</g>
					</g>
				</g>
			</g>
		</g>
		<g>
			<g>
				<polyline class="st10" points="1354.7,500.8 1390,581.2 1366.7,595.8 1317.9,499.1 				"/>
			</g>
		</g>
		<g>
			<g>
				<path class="st10" d="M1296.5,597.7l25.3,4.2l15.2-94.6l74.9,5.7c2,0.1,4,0,5.9-0.6c21-6,18.2-34.1,16.2-38.6l-103.7-3.1
					c-11.2-0.3-20.9,8.2-22.5,19.9L1296.5,597.7z"/>
			</g>
		</g>
		<g>
			<g>
				<g>
					<g>
						<g>
							<g>
								<g>
									<g>
										<g>
											<g>
												<path class="st13" d="M1435,478.3l-0.4-40c0,0,4.9-26,6.4-36.2c2.3-15.9,5.4-23.4-19.5-34.7l-5.4-2.2l-8.4,0.1
													c-10,0.8-20.6,10.3-20.8,16.6l-9.7,90.1L1435,478.3z"/>
											</g>
										</g>
									</g>
								</g>
							</g>
						</g>
					</g>
				</g>
			</g>
		</g>
		<g>
			<g>
				<g>
					<g>
						<path class="st13" d="M1433.4,376.7c0,0,7,15.8,5.6,30.2l-26.2,26.2c-5.9,6.8-13.2,9.7-22.6,10.3l-54.1,6.2l-1.5-14.8
							l51.5-15.3c2-0.4,3.1-2.6,4.6-4.1L1433.4,376.7"/>
					</g>
				</g>
			</g>
		</g>
		<g>
			<g>
				<g>
					<path class="st8" d="M1437.7,381.3c0,0-0.3-0.3-1-0.7c-0.7-0.4-1.9-0.8-3.5-1s-3.6-0.4-5.8,0c-0.6,0.1-1.2,0.3-1.7,0.6
						c-0.5,0.3-1.1,0.7-1.6,1.1c-1,0.8-2.1,1.8-3.2,2.9c-2.2,2.1-4.2,4.8-6.6,7.5s-5,5.6-7.9,8.7s-5.9,6.3-9.2,9.6
						c-1.7,1.6-3.4,3.3-5.2,5c-0.9,0.8-1.8,1.7-2.7,2.6c-0.9,0.8-1.9,1.6-3,1.9l0,0l0,0c-15.3,4.5-32.9,9.7-51.5,15.2l-0.2,0.1v0.3
						c0.1,1,0.2,2.2,0.3,3.3c0.4,3.9,0.8,7.8,1.2,11.5v0.3h0.3c7.9-0.9,15.5-1.8,22.9-2.6c3.7-0.4,7.3-0.8,10.8-1.2
						c3.5-0.4,7-0.7,10.4-1.1s6.7-0.8,9.8-1.3c3.2-0.5,6.3-1.1,9.1-2.2c2.8-1.1,5.4-2.6,7.7-4.3c2.3-1.7,4.4-3.4,6.3-5.1
						c7.7-6.9,13.4-13.1,17.4-17.3c2-2.1,3.5-3.8,4.5-4.9c0.5-0.6,0.9-1,1.1-1.3c0.3-0.3,0.4-0.5,0.4-0.5s-0.1,0.1-0.4,0.4
						s-0.7,0.7-1.2,1.3c-1.1,1.1-2.6,2.7-4.5,4.8c-4,4.2-9.7,10.3-17.5,17.1c-2,1.7-4,3.4-6.3,5s-4.8,3.2-7.6,4.2
						c-2.8,1.1-5.8,1.7-9,2.2s-6.4,0.9-9.8,1.2c-3.4,0.3-6.8,0.7-10.4,1.1c-3.5,0.4-7.2,0.8-10.8,1.2c-7.4,0.8-15,1.7-22.9,2.6
						l0.3,0.3c-0.4-3.7-0.8-7.6-1.2-11.5c-0.1-1.1-0.2-2.3-0.3-3.3l-0.2,0.3c18.6-5.5,36.2-10.7,51.5-15.3l0,0
						c1.3-0.3,2.4-1.1,3.3-2s1.7-1.8,2.7-2.6c1.8-1.7,3.5-3.3,5.2-5c3.3-3.3,6.4-6.5,9.2-9.6c2.8-3.1,5.5-6,7.9-8.7s4.4-5.4,6.6-7.5
						c1.1-1.1,2.1-2,3.1-2.9c0.5-0.4,1-0.8,1.6-1.1c0.5-0.3,1.1-0.5,1.6-0.6c2.2-0.5,4.2-0.3,5.8-0.1c1.6,0.2,2.7,0.6,3.5,0.9
						C1437.3,381,1437.6,381.3,1437.7,381.3z"/>
				</g>
			</g>
		</g>
		<g>
			<g>
				<g>
					<g>
						<g>
							<g>
								<g>
									<g>
										<g>
											<g>
												<g>
													<g>
														<g>
															<g>
																<g>
																	<g>
																		<g>
																			<g>
																				<path class="st19" d="M1424.1,330.6l-2.6,38.9c-0.4,6.4-5.5,11.3-11.6,11.3l0,0c-6.7,0-12-5.9-11.6-12.9
																					c0.2-3.7,0.4-6.7,0.4-6.7s-9-1.5-9.1-10.9c-0.1-5.4,0.8-17.8,1.6-27.2c0.5-6.4,5.6-11.3,11.8-11.3h5.4
																					C1417.9,312.2,1424.9,320.8,1424.1,330.6z"/>
																			</g>
																		</g>
																	</g>
																</g>
															</g>
														</g>
													</g>
												</g>
											</g>
										</g>
									</g>
									<g>
										<g>
											<g>
												<g>
													<g>
														<g>
															<g>
																<g>
																	<g>
																		<g>
																			<g>
																				<path class="st21" d="M1398.8,361c0,0,5.7,0.5,11.8-3.5c0,0-2.8,6.8-11.8,5.9V361z"/>
																			</g>
																		</g>
																	</g>
																</g>
															</g>
														</g>
													</g>
												</g>
											</g>
										</g>
									</g>
								</g>
							</g>
						</g>
						<g>
							<g>
								<g>
									<g>
										<g>
											<g>
												<g>
													<g>
														<g>
															<g>
																<g>
																	<g>
																		<g>
																			<g>
																				<g>
																					<g>
																						<g>
																							<path class="st8" d="M1393.3,335.1c0,0.7,0.5,1.3,1.2,1.4c0.7,0,1.3-0.5,1.3-1.2s-0.5-1.3-1.2-1.4
																								C1393.9,333.8,1393.3,334.4,1393.3,335.1z"/>
																						</g>
																					</g>
																				</g>
																			</g>
																		</g>
																	</g>
																</g>
															</g>
														</g>
													</g>
												</g>
												<g>
													<g>
														<g>
															<g>
																<g>
																	<g>
																		<g>
																			<g>
																				<g>
																					<g>
																						<g>
																							<g>
																								<path class="st8" d="M1392.8,332.4c0.2,0.2,1.1-0.6,2.5-0.6s2.4,0.7,2.6,0.6c0.1-0.1-0.1-0.4-0.5-0.7
																									c-0.4-0.3-1.2-0.7-2-0.7c-0.9,0-1.6,0.3-2,0.7C1392.9,332,1392.7,332.3,1392.8,332.4z"/>
																							</g>
																						</g>
																					</g>
																				</g>
																			</g>
																		</g>
																	</g>
																</g>
															</g>
														</g>
													</g>
												</g>
											</g>
											<g>
												<g>
													<g>
														<g>
															<g>
																<g>
																	<g>
																		<g>
																			<g>
																				<g>
																					<g>
																						<g>
																							<path class="st8" d="M1406.3,335.1c0,0.7,0.5,1.3,1.2,1.4c0.7,0,1.3-0.5,1.3-1.2s-0.5-1.3-1.2-1.4
																								C1406.9,333.8,1406.3,334.4,1406.3,335.1z"/>
																						</g>
																					</g>
																				</g>
																			</g>
																		</g>
																	</g>
																</g>
															</g>
														</g>
													</g>
												</g>
												<g>
													<g>
														<g>
															<g>
																<g>
																	<g>
																		<g>
																			<g>
																				<g>
																					<g>
																						<g>
																							<g>
																								<path class="st8" d="M1406.4,332.7c0.2,0.2,1.1-0.6,2.5-0.6s2.4,0.7,2.6,0.6c0.1-0.1-0.1-0.4-0.5-0.7
																									c-0.4-0.3-1.2-0.7-2-0.7c-0.9,0-1.6,0.3-2,0.7C1406.5,332.3,1406.4,332.6,1406.4,332.7z"/>
																							</g>
																						</g>
																					</g>
																				</g>
																			</g>
																		</g>
																	</g>
																</g>
															</g>
														</g>
													</g>
												</g>
											</g>
											<g>
												<g>
													<g>
														<g>
															<g>
																<g>
																	<g>
																		<g>
																			<g>
																				<g>
																					<g>
																						<g>
																							<path class="st8" d="M1401.4,343.4c0-0.1-0.9-0.2-2.2-0.4c-0.4,0-0.7-0.1-0.7-0.4c-0.1-0.3,0.1-0.7,0.2-1.1
																								c0.3-0.9,0.7-1.8,1-2.8c1.5-4,2.5-7.3,2.3-7.4s-1.5,3.1-2.9,7.1c-0.3,1-0.7,1.9-1,2.8
																								c-0.1,0.4-0.4,0.9-0.2,1.5c0.1,0.3,0.4,0.5,0.6,0.5c0.2,0.1,0.4,0.1,0.6,0.1
																								C1400.5,343.5,1401.4,343.5,1401.4,343.4z"/>
																						</g>
																					</g>
																				</g>
																			</g>
																		</g>
																	</g>
																</g>
															</g>
														</g>
													</g>
												</g>
											</g>
											<g>
												<g>
													<g>
														<g>
															<g>
																<g>
																	<g>
																		<g>
																			<g>
																				<g>
																					<g>
																						<g>
																							<path class="st8" d="M1405.5,344.4c-0.2,0-0.2,1.6-1.5,2.7s-2.9,0.9-2.9,1.2c0,0.1,0.4,0.3,1,0.3
																								c0.7,0,1.6-0.2,2.4-0.9c0.8-0.7,1.1-1.6,1.2-2.2C1405.8,344.8,1405.6,344.4,1405.5,344.4z"/>
																						</g>
																					</g>
																				</g>
																			</g>
																		</g>
																	</g>
																</g>
															</g>
														</g>
													</g>
												</g>
											</g>
										</g>
									</g>
								</g>
								<g>
									<g>
										<g>
											<g>
												<g>
													<g>
														<g>
															<g>
																<g>
																	<g>
																		<g>
																			<path class="st8" d="M1406.1,327c0.1,0.4,1.5,0.2,3.1,0.4c1.6,0.2,2.9,0.7,3.2,0.3c0.1-0.2-0.1-0.5-0.7-0.9
																				c-0.5-0.4-1.4-0.7-2.3-0.9c-1-0.1-1.9,0.1-2.5,0.3C1406.3,326.5,1406,326.8,1406.1,327z"/>
																		</g>
																	</g>
																</g>
															</g>
														</g>
													</g>
												</g>
											</g>
										</g>
									</g>
								</g>
								<g>
									<g>
										<g>
											<g>
												<g>
													<g>
														<g>
															<g>
																<g>
																	<g>
																		<g>
																			<path class="st8" d="M1393.3,328.2c0.2,0.3,1.2,0,2.3,0c1.1-0.1,2.1,0.2,2.3-0.1c0.1-0.2-0.1-0.5-0.5-0.8
																				s-1.1-0.6-1.9-0.5c-0.8,0-1.5,0.3-1.9,0.7C1393.4,327.7,1393.2,328.1,1393.3,328.2z"/>
																		</g>
																	</g>
																</g>
															</g>
														</g>
													</g>
												</g>
											</g>
										</g>
									</g>
								</g>
							</g>
						</g>
						<g>
							<g>
								<g>
									<g>
										<g>
											<g>
												<g>
													<g>
														<g>
															<g>
																<g>
																	<g>
																		<path class="st19" d="M1421.1,337.6c0.2-0.1,6.2-1.9,6,4.5s-6.3,4.9-6.3,4.7
																			C1420.7,346.7,1421.1,337.6,1421.1,337.6z"/>
																	</g>
																</g>
															</g>
														</g>
													</g>
												</g>
											</g>
										</g>
									</g>
								</g>
							</g>
							<g>
								<g>
									<g>
										<g>
											<g>
												<g>
													<g>
														<g>
															<g>
																<g>
																	<g>
																		<g>
																			<path class="st21" d="M1422.7,344.5c0,0,0.1,0.1,0.3,0.2c0.2,0.1,0.5,0.2,0.8,0c0.7-0.2,1.2-1.3,1.3-2.4
																				c0-0.6-0.1-1.1-0.3-1.6c-0.2-0.5-0.5-0.8-0.8-0.9s-0.6,0.1-0.6,0.3c-0.1,0.2-0.1,0.3-0.1,0.3s-0.1-0.1-0.1-0.4
																				c0-0.1,0.1-0.3,0.3-0.4c0.2-0.1,0.4-0.2,0.6-0.1c0.5,0.1,0.9,0.5,1.1,1s0.4,1.1,0.3,1.8
																				c-0.1,1.3-0.8,2.5-1.7,2.7c-0.4,0.1-0.8,0-1-0.2C1422.7,344.7,1422.7,344.5,1422.7,344.5z"/>
																		</g>
																	</g>
																</g>
															</g>
														</g>
													</g>
												</g>
											</g>
										</g>
									</g>
								</g>
							</g>
						</g>
					</g>
				</g>
				<g>
					<g>
						<g>
							<g>
								<g>
									<g>
										<g>
											<path class="st8" d="M1424.5,337.4c-0.9-0.2-2.6,0.7-3,1.6s-0.5,2-0.9,2.9s-1.3,1.8-2.2,1.5c-0.6-0.2-1.1-0.8-1.3-1.5
												c-0.2-0.7-0.1-1.4,0-2.1c0.4-3,1-6,1.1-9s-0.3-6.2-1.8-8.8c-1.5-2.6-4.3-4.5-7.2-4.2c-1.9,0.2-3.7,1.2-5.6,1.5
												c-2.3,0.3-4.6-0.5-6.3-2.2c-0.2-0.2-1.2-0.9-1.2-0.9c0-0.2,0.1-1.5,0.6-2c3.8-3.6,10.6-4.7,15.6-3.4
												c5,1.3,9.7,5,11.8,9.9C1426.3,325.7,1425.7,332.5,1424.5,337.4"/>
										</g>
									</g>
								</g>
							</g>
						</g>
					</g>
				</g>
			</g>
		</g>
		<g>
			<g>
				<g>
					<g>
						<path class="st11" d="M1391.2,321.5c0,0,23.6-8,33.9,13.4c0,0,1.5-5.4,1.5-8.2c0-1.9-1.1-13.3-12.3-16.9
							C1414.2,309.8,1397.3,303.1,1391.2,321.5z"/>
					</g>
				</g>
			</g>
		</g>
		<g>
			<g>
				<g>
					<g>
						<path class="st8" d="M1411.5,322.1c-0.8,1.4-2.3,2.4-3.9,2.5c-1.6,0.2-3.2-0.5-4.3-1.7c-0.5,1.2-1.7,2.1-3,2s-2.4-1-2.8-2.3
							c-0.7,0.7-1.4,1.4-2.3,1.8c-0.9,0.3-2,0.2-2.6-0.6c-0.6-0.8-0.4-2,0.2-2.8s1.5-1.3,2.4-1.7c2.8-1.2,5.9-1.8,8.9-1.4
							s5.9,2,7.8,4.5"/>
					</g>
				</g>
			</g>
		</g>
		<g>
			<g>
				<g>
					<g>
						<path class="st15" d="M1391.2,321.5c0,0,2.7-3.3,7.5-3.6c7-0.3,20,3.8,26.4,17c0,0,1.5-5.4,1.5-8.2c0-1.9-1.1-13.3-12.3-16.9
							C1414.2,309.8,1397.3,303.1,1391.2,321.5z"/>
					</g>
				</g>
			</g>
		</g>
		<g>
			<g>
				<g>
					<path class="st13" d="M1424.1,332.4c-3.5-5.6-8.3-10.2-13.8-13.8c-5.4-3.5-14.4-7.1-20.6-8.8c-1.9-0.5-3.8-1-5.7-0.6
						c-1.9,0.3-3.8,1.7-4.2,3.6c-0.6,2.4,3.6,6.2,5.5,7.7s5.9,3.7,5.9,3.7s-0.1-4.5,6.9-5.5C1407.5,317.5,1424.1,332.4,1424.1,332.4
						z"/>
				</g>
			</g>
		</g>
		<g class="st20">
			<g>
				<g>
					<path d="M1432.4,412.7c-2.4,6.2-4.9,13.7-8.4,19.3c-3.5,5.5-8.3,10.4-14.1,13c-7.4,3.2-16.1,3.7-23.4,0.4
						c-0.6-0.3-1.8-0.6-1.7-1.3c0,0,2.4-0.3,3.2-0.4c14.8-2.6,16.4-4.5,23.5-10.4C1415.9,429.7,1425.7,418.7,1432.4,412.7"/>
				</g>
			</g>
		</g>
		<g>
			<g>
				<g>
					<path class="st8" d="M1385.2,457.5c0,0,0.2,0.5,0.6,1.4c0.5,0.9,1.2,2.1,2.4,3.5c2.3,2.7,6.4,5.7,11.5,7.3
						c5.1,1.6,9.9,1.9,13.4,2.1c1.7,0.1,3.1,0.1,4.1,0.1s1.5,0,1.5-0.1c0,0-0.5-0.1-1.5-0.2c-1.1-0.1-2.4-0.2-4.1-0.3
						c-3.4-0.3-8.2-0.6-13.2-2.2s-9-4.4-11.4-7.1C1386.2,459.6,1385.3,457.4,1385.2,457.5z"/>
				</g>
			</g>
		</g>
		<g>
			<g>
				<g>
					<path class="st17" d="M1321.4,604.7c0,0,0-0.1,0.1-0.4c0.1-0.3,0.1-0.6,0.2-1.1c0.2-1,0.4-2.4,0.7-4.2
						c0.6-3.7,1.5-8.9,2.6-15.4c2.1-13.1,5-31,8.2-50.9c1.4-9,2.8-17.6,4.1-25.4l-0.3,0.2c13.2,1,24.4,1.9,32.4,2.5
						c4,0.3,7.1,0.5,9.3,0.7c1.1,0.1,1.9,0.1,2.5,0.2c0.3,0,0.5,0,0.6,0s0.2,0,0.2,0s-0.1,0-0.2,0c-0.2,0-0.4,0-0.6-0.1
						c-0.6-0.1-1.4-0.1-2.5-0.2c-2.2-0.2-5.3-0.5-9.3-0.8c-8-0.7-19.2-1.6-32.4-2.7h-0.3v0.3c-1.3,7.8-2.6,16.4-4.1,25.4
						c-3.2,19.9-6,37.8-8.1,50.9c-1,6.5-1.8,11.8-2.4,15.4c-0.3,1.8-0.5,3.2-0.6,4.2c-0.1,0.5-0.1,0.8-0.1,1.1
						C1321.4,604.6,1321.3,604.7,1321.4,604.7z"/>
				</g>
			</g>
		</g>
		<g>
			<g>
				<g>
					<path class="st17" d="M1329.4,498.9c-0.1,0.1,1.9,1.9,4.1,4.3s3.9,4.5,4,4.4s-1.3-2.4-3.6-4.8
						C1331.6,500.4,1329.5,498.8,1329.4,498.9z"/>
				</g>
			</g>
		</g>
		<g>
			<g>
				<g>
					<path class="st8" d="M1398.6,368.7c0,0-0.1,0.1-0.1,0.4c-0.1,0.3-0.2,0.6-0.2,1.2c-0.1,1-0.1,2.5,0.5,4.3
						c0.6,1.7,1.8,3.7,3.7,5.1c1.9,1.5,4.5,2.2,7.2,2s5.2-1.3,7-2.8c1.9-1.5,3.1-3.3,4-4.9c0.8-1.6,1.3-3,1.5-4
						c0.1-0.5,0.2-0.9,0.2-1.1c0-0.3,0-0.4,0-0.4c-0.1,0-0.4,2.2-2.1,5.4c-0.9,1.5-2.2,3.2-4,4.6s-4.2,2.4-6.7,2.6
						c-2.6,0.2-5.1-0.5-6.9-1.9c-1.8-1.3-3-3.2-3.6-4.8c-0.6-1.7-0.8-3.1-0.7-4.1C1398.5,369.2,1398.6,368.7,1398.6,368.7z"/>
				</g>
			</g>
		</g>
		<g>
			<g>
				<path class="st22" d="M1392.8,516.1"/>
			</g>
		</g>
		<g>
			<g>
				<g>
					<path class="st8" d="M1382.6,420.2c0,0,0.1-0.4,0.2-1.2c0.1-0.9,0.3-2.1,0.5-3.4c0.4-3,0.9-6.9,1.4-11.2
						c0.5-4.4,0.9-8.3,1.2-11.2c0.1-1.4,0.2-2.6,0.3-3.4c0-0.8,0.1-1.3,0-1.3c0,0-0.1,0.4-0.2,1.2c-0.1,0.9-0.3,2.1-0.4,3.4
						c-0.4,3-0.8,6.9-1.3,11.2c-0.5,4.4-1,8.3-1.2,11.2c-0.1,1.4-0.2,2.6-0.3,3.4C1382.6,419.8,1382.6,420.2,1382.6,420.2z"/>
				</g>
			</g>
		</g>
		<text transform="matrix(1.0637 0 0 1 1658.7383 379.6045)" class="st0 st23 st24">Objective</text>
		<text transform="matrix(1.0637 0 0 1 1665.002 620.2881)" class="st10 st23 st25">Total disance</text>
		<g>
			<path class="st10" d="M1671.2,633.7c0,0.1,0,0.3,0,0.4c0,0.1,0,0.2-0.1,0.2c0,0.1-0.1,0.1-0.1,0.1h-0.1h-5.8h-0.1l-0.1-0.1
				c0,0-0.1-0.1-0.1-0.2s0-0.2,0-0.4c0-0.1,0-0.3,0-0.4s0-0.2,0.1-0.2c0-0.1,0.1-0.1,0.1-0.1h0.1h2v-6.5l-1.7,0.9
				c-0.1,0.1-0.2,0.1-0.3,0.1s-0.1,0-0.2,0c0,0-0.1-0.1-0.1-0.2s0-0.3,0-0.5c0-0.1,0-0.2,0-0.3s0-0.1,0-0.2c0-0.1,0.1-0.1,0.1-0.1
				s0.1-0.1,0.2-0.1l2.3-1.4h0.1c0,0,0.1,0,0.2,0s0.2,0,0.3,0c0.1,0,0.2,0,0.4,0c0.2,0,0.4,0,0.5,0s0.2,0,0.3,0c0.1,0,0.1,0,0.1,0.1
				v0.1v8.2h1.7h0.1l0.1,0.1c0,0.1,0.1,0.1,0.1,0.2S1671.2,633.5,1671.2,633.7z"/>
			<path class="st10" d="M1675.5,633.3c0,0.5-0.1,0.8-0.3,1c-0.2,0.2-0.5,0.2-1,0.2s-0.8-0.1-0.9-0.2s-0.3-0.5-0.3-0.9
				c0-0.5,0.1-0.8,0.3-1c0.2-0.2,0.5-0.2,1-0.2s0.8,0.1,0.9,0.2C1675.4,632.6,1675.5,632.9,1675.5,633.3z"/>
			<path class="st10" d="M1684.2,633.7c0,0.1,0,0.3,0,0.4c0,0.1,0,0.2-0.1,0.2c0,0.1-0.1,0.1-0.1,0.1h-0.1h-5.8h-0.1l-0.1-0.1
				c0,0-0.1-0.1-0.1-0.2s0-0.2,0-0.4c0-0.1,0-0.3,0-0.4s0-0.2,0.1-0.2c0-0.1,0.1-0.1,0.1-0.1h0.1h2v-6.5l-1.7,0.9
				c-0.1,0.1-0.2,0.1-0.3,0.1s-0.1,0-0.2,0c0,0-0.1-0.1-0.1-0.2s0-0.3,0-0.5c0-0.1,0-0.2,0-0.3s0-0.1,0-0.2c0-0.1,0.1-0.1,0.1-0.1
				s0.1-0.1,0.2-0.1l2.3-1.4h0.1c0,0,0.1,0,0.2,0s0.2,0,0.3,0c0.1,0,0.2,0,0.4,0c0.2,0,0.4,0,0.5,0s0.2,0,0.3,0c0.1,0,0.1,0,0.1,0.1
				v0.1v8.2h1.7h0.1l0.1,0.1c0,0.1,0.1,0.1,0.1,0.2S1684.2,633.5,1684.2,633.7z"/>
			<path class="st10" d="M1692.9,629.4c0,0.8-0.1,1.5-0.2,2.1s-0.4,1.2-0.7,1.6c-0.3,0.4-0.7,0.8-1.2,1s-1.1,0.4-1.8,0.4
				c-0.7,0-1.3-0.1-1.8-0.3s-0.8-0.6-1.1-1c-0.3-0.4-0.5-1-0.6-1.6s-0.2-1.3-0.2-2.1s0.1-1.5,0.2-2.1s0.4-1.2,0.7-1.6
				c0.3-0.4,0.7-0.8,1.2-1s1.1-0.4,1.8-0.4c0.7,0,1.3,0.1,1.8,0.3s0.9,0.6,1.1,1c0.3,0.4,0.5,1,0.6,1.6
				C1692.9,627.9,1692.9,628.6,1692.9,629.4z M1690.8,629.5c0-0.5,0-0.9,0-1.2s-0.1-0.7-0.1-0.9c-0.1-0.3-0.1-0.5-0.2-0.7
				s-0.2-0.3-0.3-0.4c-0.1-0.1-0.3-0.2-0.4-0.2s-0.3-0.1-0.5-0.1c-0.3,0-0.6,0.1-0.8,0.2c-0.2,0.1-0.4,0.4-0.5,0.7s-0.2,0.7-0.3,1.1
				s-0.1,0.9-0.1,1.5c0,0.7,0,1.3,0.1,1.8s0.2,0.8,0.3,1.1s0.3,0.5,0.5,0.6s0.4,0.2,0.7,0.2c0.2,0,0.4,0,0.6-0.1s0.3-0.2,0.4-0.3
				s0.2-0.3,0.3-0.5c0.1-0.2,0.1-0.4,0.2-0.7s0.1-0.5,0.1-0.9C1690.8,630.3,1690.8,629.9,1690.8,629.5z"/>
			<path class="st10" d="M1701.4,629.4c0,0.8-0.1,1.5-0.2,2.1s-0.4,1.2-0.7,1.6c-0.3,0.4-0.7,0.8-1.2,1s-1.1,0.4-1.8,0.4
				c-0.7,0-1.3-0.1-1.8-0.3s-0.8-0.6-1.1-1c-0.3-0.4-0.5-1-0.6-1.6s-0.2-1.3-0.2-2.1s0.1-1.5,0.2-2.1s0.4-1.2,0.7-1.6
				c0.3-0.4,0.7-0.8,1.2-1s1.1-0.4,1.8-0.4c0.7,0,1.3,0.1,1.8,0.3s0.9,0.6,1.1,1c0.3,0.4,0.5,1,0.6,1.6
				C1701.4,627.9,1701.4,628.6,1701.4,629.4z M1699.3,629.5c0-0.5,0-0.9,0-1.2s-0.1-0.7-0.1-0.9c-0.1-0.3-0.1-0.5-0.2-0.7
				s-0.2-0.3-0.3-0.4c-0.1-0.1-0.3-0.2-0.4-0.2s-0.3-0.1-0.5-0.1c-0.3,0-0.6,0.1-0.8,0.2c-0.2,0.1-0.4,0.4-0.5,0.7s-0.2,0.7-0.3,1.1
				s-0.1,0.9-0.1,1.5c0,0.7,0,1.3,0.1,1.8s0.2,0.8,0.3,1.1s0.3,0.5,0.5,0.6s0.4,0.2,0.7,0.2c0.2,0,0.4,0,0.6-0.1s0.3-0.2,0.4-0.3
				s0.2-0.3,0.3-0.5c0.1-0.2,0.1-0.4,0.2-0.7s0.1-0.5,0.1-0.9C1699.2,630.3,1699.3,629.9,1699.3,629.5z"/>
			<path class="st10" d="M1718.2,634.2C1718.2,634.3,1718.2,634.3,1718.2,634.2c0,0.1-0.1,0.2-0.2,0.2s-0.2,0-0.3,0.1
				c-0.1,0-0.3,0-0.5,0s-0.4,0-0.5,0s-0.2,0-0.3-0.1c-0.1,0-0.1-0.1-0.2-0.1v-0.1v-4.1c0-0.2,0-0.4-0.1-0.6c0-0.2-0.1-0.4-0.2-0.5
				s-0.2-0.2-0.4-0.3c-0.1-0.1-0.3-0.1-0.5-0.1s-0.5,0.1-0.7,0.3s-0.5,0.4-0.8,0.8v4.5c0,0.1,0,0.1,0,0.1s-0.1,0.1-0.2,0.1
				s-0.2,0-0.3,0.1c-0.1,0-0.3,0-0.5,0s-0.4,0-0.5,0s-0.2,0-0.3-0.1c-0.1,0-0.1-0.1-0.2-0.1v-0.1v-4.1c0-0.2,0-0.4-0.1-0.6
				c0-0.2-0.1-0.4-0.2-0.5s-0.2-0.2-0.4-0.3s-0.3-0.1-0.5-0.1c-0.3,0-0.5,0.1-0.8,0.3s-0.5,0.4-0.8,0.8v4.5c0,0.1,0,0.1,0,0.1
				s-0.1,0.1-0.2,0.1s-0.2,0-0.3,0.1s-0.3,0-0.5,0s-0.4,0-0.5,0s-0.2,0-0.3-0.1c-0.1,0-0.1-0.1-0.2-0.1v-0.1v-6.8c0-0.1,0-0.1,0-0.1
				l0.1-0.1c0.1,0,0.2,0,0.3-0.1s0.3,0,0.4,0c0.2,0,0.3,0,0.4,0s0.2,0,0.3,0.1c0.1,0,0.1,0.1,0.1,0.1v0.1v0.8
				c0.4-0.4,0.8-0.7,1.2-0.9c0.4-0.2,0.8-0.3,1.3-0.3c0.3,0,0.6,0,0.8,0.1s0.5,0.1,0.6,0.3s0.3,0.2,0.5,0.4s0.3,0.3,0.3,0.5
				c0.2-0.2,0.4-0.4,0.6-0.6c0.2-0.2,0.4-0.3,0.6-0.4s0.4-0.2,0.6-0.2s0.4-0.1,0.6-0.1c0.5,0,0.9,0.1,1.2,0.2
				c0.3,0.2,0.6,0.4,0.8,0.6c0.2,0.3,0.3,0.6,0.4,0.9s0.1,0.7,0.1,1.1v4.4H1718.2z"/>
		</g>
	</g>
</g>
</svg>
