<?xml version="1.0" encoding="utf-8"?>
<!-- Generator: Adobe Illustrator 24.1.1, SVG Export Plug-In . SVG Version: 6.00 Build 0)  -->
<svg version="1.1" id="Layer_1" xmlns="http://www.w3.org/2000/svg" xmlns:xlink="http://www.w3.org/1999/xlink" x="0px" y="0px"
	 viewBox="0 0 97 91" style="enable-background:new 0 0 97 91;" xml:space="preserve">
<style type="text/css">
	.st0{fill:#737373;}
	.st1{fill:#FFA500;}
</style>
<g>
	<path class="st0" d="M89.2,90.9c-0.7,0-1.3,0.1-1.9,0.1c-25.4,0-50.9,0-76.3,0c-1.7,0-3.3-0.3-4.9-1c-2.2-1.1-3.7-3.7-3.9-6.6
		c-0.7-6.6-1.2-13.2-1.9-20.3l9.5-1.6c9.6-1.5,19.3-3,28.9-4.7c6.6-1.2,11.8-5.8,16.9-10.6c9.4-9,21.1-13.9,33-14
		c2.3,0,5.3,0.1,6.6,1.8c2.4,3.2,2.6,7.7,1.4,11.9c-0.5,1.6-1.1,3.1-1.8,4.5c-2.9,6.1-6,12.1-7.1,19.2c-1,6.4-0.6,13,1.2,19.2
		C88.9,89.5,89,90.1,89.2,90.9z M3.1,72.8l19.1-3c4.3-0.7,8.6-1.6,12.8-2c7.3-0.7,13.1-5.1,18.7-10.3c9.4-9.1,20.9-14.3,32.9-14.7
		c2.8-0.1,5.5,0,8.2,0c0.7-5.8-0.7-8-5.1-8c-6.8,0-13.5,1.5-19.9,4.5c-5.7,2.6-10.6,6.8-15.4,11.1c-4.3,3.9-8.8,7.6-14.2,8.6
		C31,60.6,21.7,62,12.5,63.5l-10,1.7L3.1,72.8z M79.5,83.9c0.1-0.9,0.2-1.2,0.2-1.5c0-0.4,0-0.8-0.1-1.1c-1.1-5.7-0.4-11.8,2-16.9
		c1.6-3.6,3.3-7.2,5.1-10.7c0.9-1.7,1.4-3.4-0.3-4.6c-1.7-1.2-3-0.1-3.6,1.9c-1.6,4.9-3.2,9.8-4.5,14.7
		C76.8,71.7,77.6,77.5,79.5,83.9z"/>
	<path class="st0" d="M9.3,55.9V42.7c0-3.9,0.1-7.7,0-11.6c-0.1-2.4,0.1-4.2,2.8-3.7v-5.5h6.6c0-1.5,0.1-3,0.3-4.5
		c0.2-0.6,0.6-1.1,1.1-1.3c0.3-0.1,0.9,0.6,1,1.1c0.6,3.2,1.1,6.5,1.8,10.1l2.3,0.5v25.6L9.3,55.9z M12,42.7v4.5h4.9l-0.2-4.5H12z
		 M18,34v4.5h4.6V34H18z"/>
	<path class="st1" d="M57.4,15.4c0,4.1,0,7.6,0,11.1c-0.1,0.5-0.3,0.8-0.6,1.1c-3.9,1.8-7.9,3.6-12.2,5.6c0-4,0-7.5,0-10.9
		c0-0.5,0.3-1,0.7-1.3C49.1,19.2,53,17.4,57.4,15.4z"/>
	<path class="st1" d="M57.4,0c0,3.9,0,7.3,0,10.7c-0.1,0.7-0.5,1.3-1,1.6c-3.8,1.8-7.6,3.5-11.9,5.5c0-4,0-7.6,0-11.3
		c0-0.4,0.5-0.9,0.9-1.1C49.3,3.7,53.1,2,57.4,0z"/>
	<path class="st1" d="M41.6,7.2c0,4,0,7.5,0,10.9c0,0.5-0.3,1-0.7,1.3c-3.9,1.9-7.8,3.7-12.2,5.7c0-4,0-7.5,0-10.9
		c0.1-0.5,0.3-1,0.7-1.3C33.3,11,37.3,9.2,41.6,7.2z"/>
	<path class="st1" d="M73.3,7.8c0,4,0,7.5,0,10.8c0,0.6-0.3,1.2-0.8,1.5c-3.7,1.7-7.5,3.4-11.2,5.1c-0.2,0.1-0.4-0.1-0.9-0.2
		c0-3.3,0-6.7,0-10.1c0.1-0.6,0.4-1.1,0.8-1.4C65,11.5,68.9,9.8,73.3,7.8z"/>
	<path class="st1" d="M28.7,40.9c0-4,0-7.5,0-10.8c0.1-0.6,0.4-1.2,0.8-1.5c3.8-1.8,7.7-3.6,12-5.6c0,4.1,0,7.6,0,11.1
		c0,0.4-0.2,0.7-0.4,0.9C37.1,36.9,33.1,38.8,28.7,40.9z"/>
	<path class="st1" d="M28.7,52.8c0-2.7,0-5,0-7.3c0-0.5,0.2-1.3,0.5-1.5c4-1.9,8-3.7,12.4-5.8c0,4,0.1,7.5-0.1,10.8
		c0,0.7-1.3,1.7-2.1,1.9C35.9,51.6,32.5,52.2,28.7,52.8z"/>
	<path class="st0" d="M1.6,57v-7.5c0-4.9,0.2-9.8-0.1-14.7c-0.1-2.9,0.6-4.5,2.9-5c0.7-0.2,1.4-0.5,2.1-0.9c0,1.4,0,2.6,0,3.8
		c0,6.6-0.1,13.2,0.1,19.8c0.1,2.9-0.4,4.6-3.1,4.2C2.9,56.8,2.3,56.9,1.6,57z"/>
	<path class="st1" d="M57.2,30.8c0.5,4,0.8,7.2-2.6,9.5s-6.3,5.3-10,8.6c0-4.5,0-8.1,0-11.7c0-0.4,0.6-0.9,0.9-1
		C49.3,34.4,53.1,32.6,57.2,30.8z"/>
	<path class="st1" d="M73.3,23c0,2.1,0,3.6,0,5.1c0,0.5-0.3,1-0.7,1.3c-4.1,1.9-8.1,3.7-12.2,5.6c-0.1-0.1-0.1-0.2-0.1-0.4
		c-0.2-5.6-0.2-5.6,4-7.6C67.1,25.8,69.9,24.6,73.3,23z"/>
	<path class="st1" d="M76,7.7h9.5v11.7c-2.8,0-5.7,0-8.6,0c-0.3,0-0.9-0.9-1-1.5C75.9,14.6,76,11.3,76,7.7z M83.4,16.9v-6.5h-5.3
		C77.5,18.1,77.5,17.5,83.4,16.9z"/>
	<path class="st1" d="M76.1,28.4v-5.3h9.4v3.7c-0.7-0.2-1.3-0.4-1.9-0.5c-1.1-0.3-2.3-0.6-3.4-0.8c-1.4-0.2-2.4,0-2.6,2.1
		C77.6,27.9,76.7,28.1,76.1,28.4z"/>
</g>
</svg>
