<svg id="Layer_1" data-name="Layer 1" xmlns="http://www.w3.org/2000/svg" viewBox="0 0 84 84"><path d="M46.41,60.89,33.67,13.59A1.68,1.68,0,0,1,35,11.54L57.57,6.08a1.81,1.81,0,0,1,2.19,1.21c1.59,5.83,3.17,11.65,4.8,17.62a1.82,1.82,0,0,0,2.17,1.23l3.4-.77a1.82,1.82,0,0,1,2.17,1.22L79.48,53A1.69,1.69,0,0,1,78.18,55L48.61,62.12A1.82,1.82,0,0,1,46.41,60.89Zm21-31.27L45.1,34.93a1.68,1.68,0,0,0-1.31,2L49.1,56.63a1.84,1.84,0,0,0,2.2,1.22l22.34-5.3a1.69,1.69,0,0,0,1.3-2c-1.77-6.58-3.53-13.08-5.3-19.66A1.82,1.82,0,0,0,67.45,29.62ZM54.93,10.52,39.49,14.21a1.69,1.69,0,0,0-1.3,2.05L42,30.35a1.81,1.81,0,0,0,2.19,1.22l15.43-3.7a1.69,1.69,0,0,0,1.3-2L57.12,11.74A1.8,1.8,0,0,0,54.93,10.52Z" transform="translate(0.01 -0.39)"/><path d="M.46,1h0A1.94,1.94,0,0,1,3,.78a80.57,80.57,0,0,0,8.14,5.94c5.29,3.13,7.53,7.51,8.76,13.16,2.81,13,6.34,25.84,9.58,38.75.11.43.29.85.45,1.32,7.54-1.37,12.87,1,16.22,7.17a1.88,1.88,0,0,0,2.1.93L81.66,60a1.88,1.88,0,0,1,2.25,1.24l0,.06a1.73,1.73,0,0,1-1.33,2.11L59.69,69c-3.65.89-7.29,1.82-10.95,2.64-1.11.24-1.59.61-1.71,1.76-.6,5.65-5.11,10-11.19,10.89A13.74,13.74,0,0,1,22,77.31a11.62,11.62,0,0,1,3.11-14.5,2.45,2.45,0,0,0,.95-3C22.29,45.2,18.62,30.57,14.85,16a6.75,6.75,0,0,0-2.41-3.63C8.58,9.34,4.65,6.44.69,3.49A1.67,1.67,0,0,1,.46,1ZM43.63,72.1A9.42,9.42,0,0,0,34,62.88c-5.13-.06-9.63,4-9.7,8.69A9.39,9.39,0,0,0,33.88,81C39,81.08,43.6,76.89,43.63,72.1Z" transform="translate(0.01 -0.39)"/></svg>