<?xml version="1.0" encoding="utf-8"?>
<!-- Generator: Adobe Illustrator 24.1.1, SVG Export Plug-In . SVG Version: 6.00 Build 0)  -->
<svg version="1.1" id="Layer_1" xmlns="http://www.w3.org/2000/svg" xmlns:xlink="http://www.w3.org/1999/xlink" x="0px" y="0px"
	 viewBox="0 0 1921.7 800" style="enable-background:new 0 0 1921.7 800;" xml:space="preserve">
<style type="text/css">
	.st0{fill:#FFFFFF;}
	.st1{fill:url(#SVGID_1_);}
	.st2{opacity:0.44;fill-rule:evenodd;clip-rule:evenodd;fill:#C4CDD3;enable-background:new    ;}
	.st3{fill-rule:evenodd;clip-rule:evenodd;fill:#EC1C24;}
	.st4{fill-rule:evenodd;clip-rule:evenodd;fill:#FFFFFF;}
	.st5{fill:#F48120;}
	.st6{fill-rule:evenodd;clip-rule:evenodd;fill:#C4CDD3;}
	.st7{fill-rule:evenodd;clip-rule:evenodd;fill:#F48120;}
	.st8{fill:#ECECEC;}
	.st9{fill:#E1E1E1;}
	.st10{enable-background:new    ;}
	.st11{fill:#C4CDD3;}
	.st12{fill:#F5F5F5;}
	.st13{opacity:0.44;enable-background:new    ;}
	.st14{fill:#FAFAFA;}
	.st15{fill:#E0D4D7;}
	.st16{fill:#F3FFFF;}
	.st17{clip-path:url(#SVGID_3_);}
	.st18{clip-path:url(#SVGID_5_);}
	.st19{fill:#7595C2;}
	.st20{fill:#F68A6C;}
	.st21{fill:#FFA500;}
	.st22{fill:#2D2861;}
	.st23{fill:#ADEFF7;}
	.st24{fill:#352E73;}
	.st25{fill:#74A8E6;}
	.st26{fill:#7271B3;}
	.st27{fill:#76C6ED;}
	.st28{fill:#FCC13F;}
	.st29{fill:#FEE2BF;}
	.st30{fill:#FC008B;}
	.st31{fill:#D6007E;}
	.st32{fill:#F7A491;}
	.st33{fill:#F8A492;}
	.st34{fill:#E5910C;}
	.st35{fill:#FE875E;}
</style>
<g>
	<g>
		<rect x="1.2" y="-0.6" class="st0" width="1920" height="800"/>
		
			<linearGradient id="SVGID_1_" gradientUnits="userSpaceOnUse" x1="1035.9238" y1="400.8336" x2="1920.0238" y2="400.8336" gradientTransform="matrix(1 0 0 -1 2.89 798.99)">
			<stop  offset="0" style="stop-color:#FAE5E7"/>
			<stop  offset="1" style="stop-color:#ECEEFA"/>
		</linearGradient>
		<path class="st1" d="M1550.1,796c0,0,202.1-13,371.7-108.1l1.1-686.6l-884.1-1c0,0,436.4,188.8,185.2,520.8
			c-18.8,24.6-30.7,53.8-34.4,84.6c-8.8,78,31.9,195.1,360.3,190L1550.1,796z"/>
		<g>
			<g>
				<path id="path380" class="st2" d="M1526.4,151.5c0-0.2,0-0.3,0-0.4c0.6,0,1.2,0,1.8,0c0,0.2,0,0.3,0,0.4
					C1527.6,151.5,1527,151.5,1526.4,151.5z M1538.8,151.8c-2.1-0.3-1-0.8,0.3-0.5C1539.1,151.6,1539.1,151.7,1538.8,151.8z
					 M1444.7,153.4c-1.1-0.5,2.4-0.9,2.5-0.9C1448.7,153,1445.3,153.2,1444.7,153.4z M1720,153.4c-0.4-0.4-0.2-0.6,0.3-0.6
					C1720.3,153.2,1720.4,153.4,1720,153.4z M1465.6,153.4c0-0.8,2.1-0.9,2.1-0.3C1467,153.2,1466.4,153.4,1465.6,153.4z
					 M1464.7,153.5c0-0.4,0.4-0.5,0.5-0.2C1465,153.5,1465,153.5,1464.7,153.5z M1673.1,154.7c-1.2-0.6,0.4-1,1-1.1
					C1675.2,154.1,1673.4,154.7,1673.1,154.7z M1663.8,154.7c-0.9-0.3-3.9-0.6-3.9-1.2c0.3-0.4,4.7-1,5.8-0.4
					c0.8,0.1,1.2-0.2,1.2,0.6C1665,154,1665.1,154.7,1663.8,154.7z M1684.3,155.2c-1.5-0.2-1.6-0.8,0-0.9c1.4-0.8-0.9-1-1.4-0.4
					c-0.3,1.8-1.2,0.5-2.4,0.5c-1.5,0.4-1.2,0.5-1.8-0.4c-0.8-0.2-2.9,0.2-2.9-0.7c1-1.5,3.9-0.6,5.3-1.4c1.5-0.1,2.9-0.7,4.4-0.7
					c1.3,1.2-3.9,0.9-1.6,1.7c1.6,0.2,1.3,0.5,3-0.3c1.1,0,2.2,0.3,2.4-0.8c0.6-0.3,3.8-0.5,3.9,0.2c-1,1.4,2.8,0,2.9,1.4
					c-0.5,0.8-6.5,0.9-5.2-0.4c0.2,0,0.4-0.1,0.6-0.1c0-1.2-2.8,0.3-3.5,0.6C1685.7,153.4,1686.2,154.5,1684.3,155.2L1684.3,155.2z
					 M1669.3,155.2c-2.2-1.5,3.1-1,1.9-0.1C1670.6,155.1,1670,155.1,1669.3,155.2z M1429,155.2c-0.5-0.6-0.1-1.4-1-1.4
					c-1.1,0.5-6.4-0.3-6.4-1.4c1.7-0.1,3.8,0.3,5.6,0.6c0.6,0,3.8-0.5,3.8,0.3C1429.4,154.2,1430.5,155.1,1429,155.2L1429,155.2z
					 M1408.4,155.5c-0.4-0.3-0.9-0.5-1.2-0.8C1406,153,1410,155.1,1408.4,155.5z M1715.8,155.9c-0.4-0.1-1-0.2-1.1-0.6
					c0.4-0.5,3.8-0.2,2.3,0.6C1716.5,155.9,1716.2,155.9,1715.8,155.9z M1433.1,156.4c-0.6-0.5-2.5-1.5-0.5-1.2
					C1433.2,155.6,1434.7,156.4,1433.1,156.4z M1753.8,157.4c-0.3-0.9-5.1-0.8-5.6-0.8c-1.9-0.5-1.6-1.8-3.3-1
					c-1.3,0-2.4,0.2-3.5-0.6c0.1-0.9,1.7-0.2,2.4-0.5c0-0.7,0-1.3,0.8-1.7c1.5,0.1,8.1-1,8.2,1c-0.7,1.1,0.2,0.6,1,0.6
					c1.2,0.8,1.7,1,1.8,2.4C1755.1,156.8,1754.1,156.8,1753.8,157.4L1753.8,157.4z M1389.1,158c-0.5-0.1-1.1-0.2-1.7-0.2
					c-1.1-0.4-3.8,0.6-3.8-0.7c0.5-0.2,6.7-1.6,6.7,0.6C1390,158,1389.5,158,1389.1,158z M1550.6,158.8c-1-0.6,1-1.4,0.3-0.2
					C1550.9,158.7,1550.7,158.7,1550.6,158.8z M1403.6,158.9c-0.9-0.1-1.9-0.5-0.5-0.7c0-1.6-4.6,0.4-4.6-1.1
					c1.7-2.4,2.7-0.3,4.7-1.1c0.8,0,6.5,1,4.4,2.4c-0.9,0-2.1-0.5-2.7,0.3C1404.4,158.8,1404,158.9,1403.6,158.9L1403.6,158.9z
					 M1382,158.9c-0.5-0.3-1.2-0.4-1.2-1C1381.7,157.4,1384,158.1,1382,158.9z M1432.2,159c-1.2-0.5-1.7-1.3-3.1-0.9
					c-2.7,0-0.3-1.2,1-1.2c2.7,1.7,1.4,0.7,3.7,0.7C1435.8,159,1433.3,159,1432.2,159L1432.2,159z M1438.8,159.3
					c0-0.2,0-0.3-0.1-0.4C1439.1,158.8,1439,159.2,1438.8,159.3z M1737.3,159.7c-0.8-1.1,1.2-1,0.3-0.1
					C1737.6,159.7,1737.5,159.7,1737.3,159.7z M1424.8,159.7c-1-0.8-2.7-1.7-0.6-1.8c0.6-0.3,2.8-0.2,2.8,0.4
					C1426.3,159.1,1426,159.6,1424.8,159.7z M1398,159.7c-0.4-0.3-0.9-0.6-1.2-0.9C1395.8,157.3,1399.8,159.2,1398,159.7z
					 M1840.9,160.6c-0.8-0.9,2.2-1.4,2.1-0.2C1842.3,160.4,1841.6,160.5,1840.9,160.6z M1751.9,160.6c-0.9-0.5,0.1-1.4,0.5-0.3
					C1752.4,160.7,1752.3,160.6,1751.9,160.6z M1749.2,160.6c-0.8-0.6,1.4-2.3,1.4-1.1C1750.4,160.7,1750.5,160.6,1749.2,160.6z
					 M1399.3,161.3c-1.5-2.2,2.9-1.4,2.4-0.3C1400.9,161.1,1400.2,161.2,1399.3,161.3z M1376.5,161.8c-1.6-1,3.1-1.5,1.5-0.8
					C1378,161.4,1377,161.7,1376.5,161.8z M1818.1,162.8c-0.1-2.1,1.8-1.4,0.4-0.1C1818.4,162.7,1818.2,162.7,1818.1,162.8z
					 M1417.9,162.9c-2.7-0.7-1.8-1.5,0.3-0.6C1418.3,162.9,1418.3,162.9,1417.9,162.9z M1725,163c-0.3-0.3-0.2-0.8-0.5-1.1
					c-1.9-0.5,3.1-1.8,3-0.2c-1.2,0.4-1.7-0.3-2,1.2C1725.3,163,1725.3,163,1725,163L1725,163z M1382,163c0.2-0.1,0.4-0.1,0.5-0.1
					C1382.6,162.3,1381.3,162.7,1382,163z M1543.7,163.1c-2.1-0.9,0.5-1.2,0.5-0.2C1544.1,163,1543.9,163.1,1543.7,163.1z
					 M1550.2,163.2c-1-0.6,0.4-1.7,0.3-0.2C1550.5,163,1550.4,163.1,1550.2,163.2z M1545.7,163.4c0-0.3-0.2-0.5,0.3-0.3
					C1546.1,163.4,1546.1,163.4,1545.7,163.4z M1407.6,163.4c0.8-0.1,0.9-0.1,2.9-0.4c1.1-0.9,1-2.5-0.5-2.7
					c-1.3-0.7-5.5-0.4-6.9,0.3c-0.3,0.4-1.2,1.2-1.3,1.2c-0.3,1.4,3.1,0.1,3.8,1C1406.2,163.1,1406.9,163.3,1407.6,163.4
					L1407.6,163.4z M1399.3,163.4c0.5-0.2,1-0.3,1.4-0.7C1399.6,160.9,1398.5,162.9,1399.3,163.4z M1825.7,163.6
					c-1.2-0.3-4.6,0.5-4.6-1.6c0.7-1.3,2.7-1.2,3.9-1.2c3,1.6,2.3-0.3,5.1,0.4c0.9,0.3,7.7,0.2,4.4,1.8
					C1831.4,163.6,1828.7,163.5,1825.7,163.6L1825.7,163.6z M1842.7,163.7c-0.5-0.1-7-0.4-5.3-1.7c2.4,0,4.8,0.5,7.2,0.3
					C1846.4,163.3,1843.4,163.7,1842.7,163.7z M1720,164.1c-0.9-0.5,0.5-1.1,0.5-0.3C1720.2,164,1720.2,164,1720,164.1z
					 M1382.7,164.3c1.6-0.1,3.1-0.2,4.7-0.1c3.2-1.1,6.6,0,9.7-1.5c0.8-1.4-2.1-1-2.7-1c-2.1,0.8-3.1-2.9-3.3-0.1
					c-0.4,0.9-1.9,0.4-2.8,0.3c-0.5,0.2-0.8,0.4-1.4,0.3c-0.6-1.4-3-1.2-4.4-1.4c0.1-0.6,1-0.6,0.3-1.2c-1.7-0.2-1.8-0.2-2.1,1.2
					c-2.5-0.3-1.4-2.4-3.5-1.7c-1-0.1-2-0.2-3.1-0.3c-0.5,0.8-1.7,0.7-2.6,1c-1.4,0.9-3.8,0-5.1,1.2c0,1.9,3.2,0.1,4.4,0.6
					c1.2,0,2.4-0.9,3.6-1.2c2.8,0-2,2.1-0.1,2.1c1.2-0.4,1.1-1.3,1.1,0.3c1.1,0.8,4.4,0.2,5.8,0.3
					C1381.5,163.9,1381.8,163.9,1382.7,164.3z M1729.7,164.4C1728.9,164.1,1729.8,162.9,1729.7,164.4
					C1729.8,164.3,1729.8,164.3,1729.7,164.4z M1784.1,164.6c-0.3-0.4-0.1-1,0.3-0.5C1784.4,164.4,1784.5,164.6,1784.1,164.6z
					 M1819.4,165.3c-0.9-0.4-0.9-0.4-1.2-0.5C1818,163,1821.1,165,1819.4,165.3z M1732.5,165.9c-1.1-0.9,0.5-1,0.5-0.1
					C1732.9,165.9,1732.9,165.9,1732.5,165.9z M1441.9,167.5c0.9-0.2-0.2-1-0.2-0.3C1441.7,167.3,1441.8,167.4,1441.9,167.5z
					 M1445.1,168.1c0.2-0.1,0.3-0.1,0.5-0.1c1.2-1.4-0.1-1.1-1.5-1.1C1441.7,167.3,1444.1,167.7,1445.1,168.1L1445.1,168.1z
					 M1393,168.4c0.1-0.1,0.2-0.1,0.3-0.1C1393.1,167.7,1392.5,168.1,1393,168.4z M1725,168.6c-0.5-0.3-1.8-0.4-1.9-1
					C1724.1,167.7,1728.4,168.4,1725,168.6z M1409.1,169.4c0.4-0.1,0.8-0.3,1.1-0.5c1.6,0,3.1,0,2-1.7c0-0.5,1-1.2-0.2-1.2
					c-0.4,0.6-1.7-0.1-0.6-0.3c1-1.9-4.3-1-4.7-1c-0.5,2.8-2.8,1.1-4.4,1.7c-1,1.3,3.1,1.6,3.8,1.8
					C1407.1,168.7,1408,169.1,1409.1,169.4L1409.1,169.4z M1674.5,169.7c-0.1-0.2-0.2-0.3-0.3-0.4
					C1674.4,168.7,1675.5,169.3,1674.5,169.7z M1862.2,170.5c-1.5-0.8,0.9-1.2,0.3-0.2C1862.5,170.4,1862.3,170.5,1862.2,170.5z
					 M1679.1,170.6c-2.6-0.3-5.1,0.2-6.9-1.7c-2.2-0.5-0.2-1.2,0.9-1.4c1.4-0.7,2.4-1.2,2.7-2.6c0.9-0.2,4.2-0.1,4.2-1.2
					c-2.4-0.8,1.7-1.1,2.1-1.3c1.3-1,1.8-0.8,3.6-0.9c1.2-0.2,1.9-0.7,3.1-0.9c2.4,0.3,5.1,0,7.4-0.1c1.2-0.5,6.5-2.7,5.1,0.4
					c-0.1,0.1-0.2,0.1-0.3,0.2c-4.2,0-8.6,1.1-12.8,1.5c-1.6,0.3-1.1,1.6-3.1,1.1c-0.6,0-1-0.1-1.5,0.3c-0.3,1.5-2.9,2-4.2,2.4
					c-3.4,1.8,3.1,3.2,2.3,4.1C1680.8,170.5,1680,170.5,1679.1,170.6L1679.1,170.6z M1865.3,170.7c-0.7-0.8-1.5,0.5-1.1-0.8
					C1864.5,169.9,1866.9,170.5,1865.3,170.7z M1726.1,170.9c-0.7-0.7-0.1-1,0.6-1.6C1727.1,169.4,1726.9,170.7,1726.1,170.9z
					 M1538.9,170.9c-0.9-0.3-2.5-1.2-0.5-1.4C1538.8,169.7,1540.2,170.7,1538.9,170.9z M1535.5,170.9c-1.1-0.3-2.4-0.4-3.6-0.3
					c0-1.1,6.8-0.6,4.4,0.3C1536,170.9,1535.7,170.9,1535.5,170.9L1535.5,170.9z M1380.6,170.9c0.8,0,1.5,0,2.3,0c0-0.2,0-0.3,0-0.4
					c-0.8,0-1.5,0-2.3,0C1380.6,170.5,1380.6,170.7,1380.6,170.9z M1406,171.1c0.3-0.1,0.3-0.1,0.4-0.4
					C1406,169.5,1405.3,170.5,1406,171.1z M1444.1,171.7c1.2-0.1,0.9-0.7-0.2-0.6C1444.1,171.4,1444.1,171.4,1444.1,171.7z
					 M1684.3,171.9c-2.2-1-0.3-1.7,0.5-0.6C1684.8,171.8,1684.8,171.8,1684.3,171.9z M1436.1,171.9c0.5,0,0.3-0.4,1-0.2
					C1438.4,171.8,1436.1,170.9,1436.1,171.9z M1395.1,173.2c0.4-0.2,0.3-0.4-0.1-0.4C1395,172.9,1395,173,1395.1,173.2z
					 M1665.8,173.3c-0.6-1,1.7-2,1.7-0.9C1667.1,173.1,1666.4,173.2,1665.8,173.3z M1607.9,174.5c-1.5-0.9-1.2-1,0.3-1.4
					C1609.6,173.1,1608.7,174.3,1607.9,174.5z M1451.9,175c0.2-0.6,0.8-0.5-0.1-1C1450.4,174.2,1451.4,174.5,1451.9,175z
					 M1604,175.4c-1.4-1.5,4.2-1.5,2.2-0.5C1605.1,174.9,1604.8,175.3,1604,175.4z M1413.9,176.1c0.7-0.1,0.6-0.6,0.6-1.2
					c0.6-0.8,3,0.2,2.9-1.2c-0.7,0.1-1.7,0.3-1.2-0.7c0.6-0.5-0.6-0.5-1-0.6c-2.4,0,0.3,1-1.6,1.9
					C1413.3,174.7,1413.7,175.7,1413.9,176.1L1413.9,176.1z M1393.6,176.4c0.4-0.2-0.3-1.6-0.7-1.8c-1.2-0.2-0.6-0.8-1.2-1
					c-1.9,0.4-6.7,1.7-8.4,0.4c-0.3-0.4-0.4-0.8-0.8-1c-2.3-0.1-1.7-0.1-1.7,1.7c1,1.1,8.5,0.4,10-0.3c0.7,0,0.5,0.2,0.6,0.9
					C1392.3,175.4,1392.8,175.9,1393.6,176.4L1393.6,176.4z M1457.4,177.6c0.3-0.1,0.3-0.1,0.6-0.2
					C1458.2,176.4,1456.6,176.9,1457.4,177.6z M1540.9,179.6c-0.9-0.3,1.8-1,1.8-0.2C1542.2,179.6,1541.6,179.6,1540.9,179.6z
					 M1599.6,182.5c-0.1-1,2.6-1,0.8-0.2C1600.1,182.4,1599.8,182.5,1599.6,182.5z M1548,182.6c-1.1-0.1-1.9-0.4-3.1-0.8
					c-0.5,0-3.9,0.5-3-0.9c1.7-0.8-1.8-0.4-2.2-0.8c0.6-1.4-1-0.4-1-1.6c0.8-0.1,1.7-0.3,1.8-1.2c1.4-0.3,3.7-0.5,3.9,1.2
					c0.4,0.3,0.8,0.2,1.2-0.1c0.9-1.2,3.6-0.5,4.9-0.4c0.9-0.2,1.4-0.9,2.3-1c2.1,1.6,3.1-0.9,4.7,1.7c0,1.2,0,1.2-1.1,1.4
					c-1,0.9-2.4,1.1-3.6,1.7c-0.5,0-1.1-0.2-1.8-0.2C1550.2,182.4,1549.3,182.5,1548,182.6L1548,182.6z M1437.9,183.9
					c0.5-0.1,0.5-0.1,0.6-0.2C1438.5,182.4,1436.9,182.7,1437.9,183.9z M1442.1,185.7c0.8-0.1,0.6-0.9,0.8-1.6
					C1442,183.3,1442,185.4,1442.1,185.7z M1468.1,186.3c0.3-0.1,0.3-0.1,0.5-0.3C1469.2,184.7,1467.3,185.5,1468.1,186.3z
					 M1462.7,188.2c0.3-0.1,0.4-0.2,0.5-0.3C1463,186.3,1461.8,187.5,1462.7,188.2z M1323.7,188.6c1-0.2,1.6-1.5,0.1-0.6
					C1323.6,188.3,1323.5,188.3,1323.7,188.6z M1292,188.6c0.3-0.1,0.3-0.1,0.4-0.2C1292.4,187.1,1289.9,187.2,1292,188.6z
					 M1504.3,188.8c2.3-0.5,2.2-0.7,3.2-2.8c0.9-1-1.7-2.1-0.4-2.4c0.3,1.1,1.7,0.4,1.2-0.5c-0.8-0.1,1.7-0.6,2.1-0.8
					c1-1.1-0.1-1.7-0.1-2.7c0.6-0.6,5.2-1.4,6.1-0.6c0.4,0,0.4,0,0.8-0.3c2.9-1,4.7-0.8,6.8-3.3c1.7-0.9,3.5-0.2,5.5-0.9
					c2.5-0.3,5.1-0.6,7.5-1c2.3-1.1,4.9-1.3,6.9-2.9c0.1-3.2-1.7-2.4-4.3-3.3c-0.6-0.1-3.8,0.4-3.2-1.3c0.8-0.1,5.1-1.6,5.1,0.2
					c-0.5,0.3-1.7,0.1-2.2-0.1c-1.6,0.6,3.4,1.7,3.9,1.5c0.9-1.1-0.3-0.9-0.4-1.7c1.4-0.4,0.6,1.1,1.8,0.5c1-2.4-0.9-0.5-1.8-1.9
					c0-1,1.1,0.1,1.5,0.1c1.1-0.5,4.1,0.2,4.1-1c-0.6-0.1-1,0-1-0.6c2.1-3.3-3.6-1.7-3.7-2.9c1.3-0.3,2.8-0.2,4.1,0.1
					c0.9,0.6,1.4,2.1,1.5,0.3c2.5-1.5-3.3-2.5-4.1-2.6c-1,0.3-1,0.1-0.5-0.6c1.7-1.5,2.5-0.3,3.9-0.4c0.3,1.2,2.7-0.2,2.6-0.9
					c-1-1-2.5,2.2-2.6-0.2c-0.5-0.2-0.9-0.8-0.5-1.1c2.3,0,3-0.2,4.7-1c1.5-0.1,7.4-0.6,7.3-1.9c-2.9-0.8-6.5-0.4-9.4-0.4
					c-0.3,0.2-0.3,0.2-1,0.8c-1-0.1-1.9-0.1-2.9-0.2c-1.1-0.4-2.2,0.2-3.4,0.4c-2.2-1,1.8-1.8,0.4-2.3c-1.7-0.3-5.3,0.1-6.7-1
					c-7.4-0.7-15.7-1.2-23,0c-1.4,1.7-6-0.4-8.2,0.4c-1.6-0.1-2.8-0.4-4.2,0.1c-2.7,0.1,0.3,1,1.2,1.1c1.9,1.5-3.6,0.3-3.8,0.3
					c-1.2-0.2-7-1.1-7-0.2c0.3,0.3,0.5,0.3,0.9,0.5c-0.2,1-3.1-0.6-4.1-0.1c-1.6,1.4-0.9,0.5-2.4-0.3c-3.4,0-8.8-0.3-11.6,1.9
					c-0.6,0-1.9-0.2-2.9-0.2c-0.9,0.2-5.2,1.4-2.4-0.4c1,0,5.1,0.1,4.8-1.3c-0.9-0.3-1.7-0.3-2.7-0.3c-0.7-0.4-0.7-0.7-1.7-0.4
					c-3.6,0-7.3-0.4-11-0.4c-1.9,0.4-3.5-0.4-5.3,0.4c-3.4-0.4-6.6-0.3-10-0.3c-1.1,0.5-1.6,0.4-2.8,0.1c-1.1,0.5-2.2,0.6-3.4,0.6
					c-0.2,1.4-3.8-0.1-4.4,0.3c-0.3,0.8-1,0.6-1.7,0.6c-1.8-0.5-3.8-0.3-5.5,0.3c-1.2-0.1-4.7-1-4.7,0.6c-1.8,0.6-5.4-0.9-4.5,2.2
					c-0.2,0.8-1.1,0.8-1.7,1c-0.8,1,1.4,0.8,1.8,0.8c1.9,1.6,3.2,1.5,5.8,2c0.2,0.3,0.2,0.3,0.1,0.4c-0.1,0.8,2.8,1.7,0.4,2.1
					c-1.6-0.7-3.2,0-4.7-0.4c-0.7-0.9-1.2-0.4-2.4-0.4c-3.1-0.8,1-0.5,1.9-0.5c0.8-0.8-1.8-0.6-2.3-1.7c-0.8-0.5-3.5-0.8-4.7-0.8
					c-2.2,2.1,6.7,1.9,2.2,3.1c-1.7,1,1.1,1,2.1,1.5c2.9,0,4.4-1,6,2.3c1.6,1.2,4.4-0.3,6.1,0.5c2,0,4-0.2,6-0.2
					c1.1,0.4,1.3-0.2,2.4-0.2c1.5,0.6,4.6,1,5.8-0.2c1-2.9-5.1-1.9-6.5-1.9c-1.5,0.4-7.9,1.2-8.8,0.1c0-0.8,0.3-0.6,1.1-0.6
					c1.9,0.3,2.9-0.6,4.8,0.2c1.8-0.2,3.5-0.1,5.2-0.5c0.9,0.2,1.5,0.2,2.4,0.2c0.9,1.3,2.1,0.1,3.1,1.2c0.6,0,2.2-1,2.2-1.7
					c-2-1.7,2.4-2.2,3.5-2.2c0.5-0.7-0.5-1.5-1-1.9c-2.1-0.4,1.1-0.5,1.6-0.4c1,0.4,7.8-0.2,8.5-1c0.2-1,0.9-0.7,1.7-0.5
					c1,0,4.6-1.2,4.8-0.3c-0.1,0-0.1,0-0.2,0c-0.2,1.7,3.9,0.8,5.1,0.8c0,1-3.9,1.2-4.4,1.4c-3.2,0-6.4,0.8-9.7,0.9
					c-1.7,0.6,0.4,1.1,1,1.2c0.8,0.8-1.7,0.2-0.8,1.1c2.4,0.2,4.4,1.4,6.5,2.1c2.5,0,5.3,0.3,7.6-0.4c3.6,0,7.8-0.2,10.5,2.2
					c0.5,0.3,2.4,0.3,1.6,1.1c0,1.1,1.4-0.1,1.9,1.1c1.9,1.1-0.6,3.2,1.7,3.8c2.3,0,3.4-0.8,5.4,0.5c0.7,0.1,1.8,0,1.7,0.8
					c-2.1-0.4-4.8-1.6-6.9-0.3c0.1,1,0.8,0.4,1.5,0.7c0,2.1,4.5,2.7,4.5,0.8c0.2-0.2,1.8,0.3,2.1,0.3c-0.1,2.6-3.9,0.5-5.1,2.1
					c-0.6,2.3-1.6,3.5,1.4,5c0.3,0.4,0.3,0.4,1,1.8c1.3,0.6,1.2-1.6,2.5-1c1.6,1.5-2.2,2.1,0,2.9c1.4,1.7,1.8,2.8,3.9,3.5
					c1.7,1.2,2.4,0.7,4.8,0.3c0.4-0.4,0.5,0.1,0.3,0.2C1501.4,188.4,1503.1,188.1,1504.3,188.8L1504.3,188.8z M1600.8,193
					c-0.1-0.3-0.1-0.3,0-0.4C1601.5,192.6,1601.4,192.9,1600.8,193z M1313.5,193.3c1.4-0.1,3.1-2.7,1.3-2.9c-0.5,1.5-3.6,1-3.6,2.2
					C1311.7,192.9,1312.9,193.1,1313.5,193.3z M1613.6,193.6c-2.1-1.6,1.3-2,1.5-3.1C1616.8,190.2,1614.6,193.2,1613.6,193.6z
					 M1344.4,193.6c0.1-0.1,0.2-0.1,0.3-0.1C1345.3,192.2,1343.1,192.2,1344.4,193.6z M1311.8,194.4c0.3-0.1,0.5-0.1,0.8-0.2
					C1312.5,193.1,1311.1,193.9,1311.8,194.4z M1443.3,194.9c0.3-0.1,0.5-0.1,0.8-0.2c0.9-0.9-1.9-1.5-1.8-0.4
					C1442.7,194.5,1442.8,194.5,1443.3,194.9L1443.3,194.9z M1345.9,194.9c1.1,0,0.3-2.6-0.7-2.6
					C1345.2,193.1,1345.2,194.3,1345.9,194.9z M1309.5,195.4c0.3,0,0.3,0.1,0.3-0.3C1309.5,195.1,1309.4,195,1309.5,195.4z
					 M1601.5,196.6c-0.2-0.3-0.2-0.3-0.2-0.4C1601.7,196.2,1602.1,196.5,1601.5,196.6z M1599.9,197.5c-1-0.6-1.1-1.4,0.3-0.6
					C1601.3,197,1601.1,197.4,1599.9,197.5z M1601.5,198c-0.8-0.8,0.8-0.8,0.8-0.1C1602,197.9,1601.7,197.9,1601.5,198z
					 M1573.2,198.3c0-0.7,0.1-0.6,0.8-0.6C1574,198.3,1573.8,198.2,1573.2,198.3z M1606.1,198.4c-1.2-0.6-1.7-1.2-3.1-0.6
					c-1.6-0.2-0.1-0.5,0.5-1.2c0.2-0.9,1.8,0.2,3-0.3c1.5-1.7,3.9-0.9,4.8-2.9c0.1-1.2-0.2-0.6-0.7-0.5c0.3-2.5,2.1-2.5,3.9-3.6
					c0.8-2.3-3.8-1.8-2.6-3.5c0.4-0.2,0.3-0.7,0.2-1c1.2-1.7,3.3-1.8,5.1-2.7c0.8-0.3,1.6-0.3,2-1c-0.6-3.4,3.9-1.7,5.4-2.3
					c3.4,0-1.7,2.4-2.1,2.8c-1.1,0.3-1.6,0.5-2.4,1.4c-3.1,1-1,1-1,3.2c-0.3,1,0.1,1.2,0.1,2.1c1.2,0.2,2.5,0.4,3.8,0.5
					c1-0.6,8.4-2,8.3-0.5c-0.8,1.6-7.4-0.5-8.4,1c-1,0.7-3.1,0.4-0.8,1.7c1,0,0.5-1.1,1.7-0.1c1.9,3.4-2.9,1.1-3.8,1.1
					c-1.1,0.6-1.3,1-1.9,2.1c0,2.1,0.7,2.3-1.4,2.4c-0.3,0.2-0.5,0.5-0.8,0.7c-3.2-0.3-5.6-0.1-8.7,1.1
					C1606.8,198.4,1606.4,198.4,1606.1,198.4z M1290.6,199.1c1-0.3,1.5-0.6,2.7-0.8C1293,196.8,1289.5,198.1,1290.6,199.1z
					 M1288.1,199.6c0.4,0,0.3-0.2,0.3-0.5C1288.1,199.1,1287.7,199.4,1288.1,199.6z M1351.3,200.4c1.2-0.5,0-0.9,0.1-1.6
					c1.6-2-3.8,1-1.4,1C1350.6,199.4,1350.7,200,1351.3,200.4z M1286.5,200.8c0.2-0.1,0.3-0.1,0.5-0.2
					C1288.3,199.5,1285.2,199.9,1286.5,200.8z M1285.2,200.8c-0.4-0.8,0.9-0.6,0.3-0.1C1285.4,200.8,1285.3,200.8,1285.2,200.8z
					 M1282.3,201.4c0-0.2,0-0.3-0.1-0.4C1282.7,201,1282.7,201.3,1282.3,201.4z M1268.6,201.9c-0.1-0.3-0.1-0.3,0.3-0.4
					C1268.8,201.8,1268.8,201.8,1268.6,201.9z M1280.4,202c-1.7-0.4-2.2-1.7-0.3-0.6C1281.5,201.4,1282,201.8,1280.4,202z
					 M1273.5,202.6c-2-1.1,0.3-1,1.4-0.9c1.9-1,2.8,0.6,0.2,0.5C1274.3,202,1274.1,202.5,1273.5,202.6z M1363.9,205.2
					c0.1,0,0.1,0,0.2,0C1364.2,203.6,1362.7,204.7,1363.9,205.2z M1570.3,205.5c-0.7-0.8,1-0.8,0.3-0.1
					C1570.6,205.5,1570.4,205.5,1570.3,205.5z M1462.2,207.2c0.3-0.1,0.7-0.1,1-0.2C1463.2,206.2,1461.8,206.6,1462.2,207.2z
					 M1850.8,207.7c-0.9-0.5,0.2-1.1,0.5-1.6c-0.6-1.5,1.4-0.2,0.3,1C1851.3,207.3,1851.1,207.4,1850.8,207.7L1850.8,207.7z
					 M1849,209.2c-0.9-0.2,0.2-1,0.8-1C1849.8,208.7,1849.6,209,1849,209.2z M1473.8,209.5c0.5-0.1,0.5-0.1,0.8-0.2
					C1474.9,208.2,1473.1,208.5,1473.8,209.5z M1367,209.7c2.3-0.5-1.8-4.8-1.8-2.8c0.3,0.5,0.5,1,1.1,1.2
					C1367,208.6,1366.6,209.2,1367,209.7z M1846.8,210.8c-0.6-0.8,1-1.6,1.7-1.6C1848.3,210,1847.7,210.7,1846.8,210.8z
					 M1643.6,212.7c-1.7-1.8,0.4-1.7,2.1-1.8c1.8-0.6,1.1-0.9,2.2,0.4C1647.9,213.1,1644.8,212.6,1643.6,212.7z M1842.7,212.7
					c-1-1,2.7-2.2,1.8-0.9C1843.9,212.3,1843.5,212.6,1842.7,212.7z M1839.5,214c-1-1.1,3.2-2.3,2.2-0.9
					C1841,213.4,1840.3,214,1839.5,214z M1444.1,216.9c1-0.1,2.2,0,3.1-0.4c1.7-1.9-2.4-1.6-3.3-1
					C1443.4,216.3,1443.1,216.6,1444.1,216.9z M1436.6,217.6c1.6-1,0.9-4.3,1.9-5.8c0-0.3-0.1-0.3-0.1-0.5c-2.2,0.5-4.4-0.9-5.4-2.6
					c-1.3-4.1-4.9-1.5-7.2,0.1c-2.3,1.2-5.6,1.8-1.8,2.8c2.2,0,3.3-3,5.4-1c0.6,0.3,4.4-0.3,3.4,1c-2.3,0.6-4.6,2-3.8,4.6
					c1.4,1,2.7-2.3,3.4-3.1c0.9-1.3,3.4-0.8,3.4,0.8C1435.1,216.3,1436.8,215.8,1436.6,217.6z M1437.8,219.7
					c1.7-0.4,3.8-0.8,5.3-1.8c0.3-1,0.1-1.1-1-0.9c-2.3,0-3.6,1-5.3,1.9C1436.8,219.4,1437.4,219.5,1437.8,219.7L1437.8,219.7z
					 M1648.3,220.1c-1.6-0.3-3.1-1-4.5-1.3c-1.3-1-1.1-0.3-2.6-0.3c-1.7-0.6-3.8,0.7-5.3,1.4c-1.6-0.1-5.5-0.1-5.5-2.4
					c0.4-0.8,0.6-1,1.4-1.3c0.5-1.5,0.3-1.7,1.7-2.3c0.8-1,2.1-4.4,3.7-2.4c0.9,0.3,2.7-0.3,2.5,0.4c-2.4,1.1,0.4,0.6,0.4,2.2
					c0.4,1.1,3.2-0.4,4.1-0.6c1.7,0,1.9-0.3,3.2,0.7c2.2,0.9,4.1,2.1,6.3,3.1C1656.5,220.2,1649.9,220,1648.3,220.1L1648.3,220.1z
					 M1596.8,223.9c-1-0.8-0.3-2.1-0.9-3.2c0-1.4,1.2-0.1,1.2-1.2c-0.8-1.2-0.5-2.9,1.2-2.5c0.2,1,0.1,1.8,0.1,2.8
					C1599.7,221.6,1599.2,223.7,1596.8,223.9L1596.8,223.9z M1624.2,224.1c-0.8-1.5,1.7-0.8,0.5-0.1
					C1624.6,224.1,1624.3,224.1,1624.2,224.1z M1448.1,224.3c0.2,0,0.3-0.1,0.4-0.1C1449.4,222.3,1447.6,222.9,1448.1,224.3z
					 M1619.3,225c0-1,3.4-0.4,1.6-0.1C1620.4,225,1619.9,225,1619.3,225z M1672,227.5c-1-0.3-1.5-0.7-2.2-1.3
					c-3.8-1-2.3-1.8-1.2-4.3c0.4-0.4,1.5-0.5,1-1.1c-1.8-0.8-3.4-2.3-4.6-3.9c0-1.7,0.2-1.6-1.1-2.4c0-2.5,2.9-1.8,4.2-3.2
					c1.6-0.6,7.8-2.5,6.3,1c-1.4,1-2.8-0.5-3.4,1.6c-1.5,0.1-1.7,0.4-0.4,1.1c0.9,1.7,1,1.5,2.7,2.4c0.4,0.6-0.6,1.8,0.6,1.8
					c1.3-1.6,1.7-0.5,2.6,0.4c2.5,1.2-2.1,1-2.5,1.3c0,0.9,0.7,0.9,0.7,1.6c-0.9,1.3,0.4,0.5,1,1.4
					C1675.9,227.3,1675.6,227,1672,227.5z M1629,229.8c-0.8-0.9,0.4-1.7,0.4-0.3C1629.3,229.7,1629.3,229.7,1629,229.8z
					 M1625.5,230.5c-0.8-0.2-1.5-0.4-2.3-0.6c-1.3-1.3,5.5-0.4,4,0.5C1626.7,230.4,1626.1,230.5,1625.5,230.5L1625.5,230.5z
					 M1638.9,231.1c-2.6-1.2,1.5-1.6,2.4-1.6C1642,230.7,1639.7,231,1638.9,231.1z M1812.3,233.2c-0.6-1.2,1.4-1.1,0.4-0.3
					C1812.6,233.2,1812.6,233.2,1812.3,233.2z M1806.3,234.6c-0.3-0.3-0.1-0.5,0.1-0.8C1807.6,232.8,1807.3,234.5,1806.3,234.6z
					 M1614.6,237.9c-1.8-1-2.8-1.4-4.8-1.5c-1-0.4-0.9-1.2-1.4-1.9c-2.3-0.3-4.5-0.9-6.8-1.3c-0.5-1.5-2.1-0.5-2.1-1.5
					c0.7-1,1.8-1.2,1.3-2.7c-1.2-1,1.7-2.4-0.8-2.2c-1.5-1-2.5-0.4-4.2,0.2c-1.1-0.1-2.1-0.3-3.1-0.3c-2.4,1-4.4-0.1-7.1,0.8
					c-2.1,0.1-3.6,1-5.5,1.4c-1.4,0.8-1.8,1.4-3.7,0.7c-1,0.3-3.2,0.4-3.9-0.7c-0.1-1.9,4.4-1.4,5.2-1.4c0.4-0.3,0.8-0.8,1.2-1.1
					c0.8-0.3,2.9-1.9,2.9-2.6c-1-1.7,0.3-2,1.4-3.4c1.3-0.3,3.5-0.6,4.2-1.9c-1-3.9,3.2-1.5,5.1-1.5c2.5-1.4,4.2-3.3,6.8-1.3
					c0.5,1.2,1.2,2.2,2.5,2.8c2.2,1.5,6.1,2.3,7.5,4.6c0.3,3.5-7.2,0.8-6,3c1.2,0.6,5.1,3.1,5.1,0.5c-0.3-1.1,0.8-0.9,1.5-1.1
					c1.7-1.7,2.3-1.5,0.8-3.1c0-2.4,2.8,0.6,3.3-0.4c0-1.7-2.7-1.8-3.8-2.4c-0.6-1.2-2.6-1.2-3.9-2.2c-0.3-0.4-0.6-1.2-1-1.7
					c-3.8-1.6-0.5-3.8,0.1-2.4c1,1.2,1.6-0.1,2.4,1.9c0.8,0.7,2.4,1.6,3.2,2.2c1.7,0.3,4.4,0.6,4.4,2.9c-0.6,2.1,1.8,2.5,2.1,4.2
					c0.7,0.9-0.5,1.1,0.3,1.6c1.2,0,1.4,0,1.7,1.1c1,0.8,3.8,2.2,2.4-0.2c0-1,0.9,0.2,0.9-0.8c-1.1-1.3,2.2,0.1,1.2,1.2
					c0,1,1.2-0.3,1.8,0.8c0.9,0.3,0.4-1.5,1.8-1.7c0.4-0.5,0.4-0.9-0.3-0.9c-1,0.5-2.8-0.4-3.2-1.5c-0.1,0-4.4-0.1-2.4-1.1
					c0.6-0.9-1.3-1-0.3-1.7c0.5,0.1,2.8,1.5,2.8-0.1c-0.3-0.8,2.2-1.2,2.5,0.2c1.1,1.4-0.4,1.7,1.1,2.6c-3,0.6,1,0.8,1.1,2.2
					c-0.5,1.5,0.8,1.1,1,2.5c1.1,1.1,0.7-2.2,2.8-0.4c2.3,0.8,1.9-0.8,3.5-0.9c1.7,1,3.2,1.7,5.1,0.6c1-1,1.6-0.3,2.9-0.3
					c-0.2,1.7,0.3,3-0.6,4.4c-2.4,3-0.9,4.5-5.6,4.2c-2.2-1-3.2-0.3-5.5,0.6c-1.8,0-3.7-1.1-5.6-1.1c-1.2,0.3-0.9-0.1-1.7-0.6
					c-3.3-0.3-5.5-2.7-8.8-0.2c-0.5,1.2,0.9,2-1,2.9C1615.2,237.9,1615,237.9,1614.6,237.9L1614.6,237.9z M1808,239.6
					c-0.2-0.2-0.2-0.4-0.2-0.7C1808.5,237.9,1808.9,239.3,1808,239.6z M1802.9,244.9c0-0.2-0.1-0.3-0.1-0.4
					C1803.3,244.6,1803.4,244.8,1802.9,244.9z M1805.1,245.6c-1-0.6,0.4-1.7,0.9-2.1c0-1.1,1.1-2.5,2.4-2.5c0.5,0.6-2.1,2.4-2.1,3.4
					C1805.9,244.8,1805.6,245.2,1805.1,245.6z M1800.6,247.9c-1.1-1.2,1.2-1,0.3-0.1C1800.8,247.9,1800.7,247.9,1800.6,247.9z
					 M1796.4,248.2c0-0.2,0-0.3-0.1-0.4C1796.7,247.8,1796.7,248.2,1796.4,248.2z M1443.4,248.2c0.3-0.1,0.3-0.1,0.5-0.2
					C1444,246.5,1441.3,246.8,1443.4,248.2z M1672.6,248.4c-1.1-0.4-0.5-4.4-1.7-3c-0.3,2.1-1.4,1.7-1.3-0.1
					c0.9-1.2-1.6-2.4-2.4-2.9c-1.9-2.3-1.4-3.9,1.6-3.9c1.4,0.6,1.7,2.4,2.5,3.5c0.4,0.3,0.9,0.5,1.4,0.8c2.6,1,3.4,2.8,6.2,1.4
					c1.6,0-1.4,3.4-2,3.8C1675.3,248.2,1674,248.3,1672.6,248.4L1672.6,248.4z M1797.9,248.4c-0.6-0.9,1-0.8,1.4-0.8
					C1799.3,248.5,1798.6,248.4,1797.9,248.4z M1302.9,252.2c0.5,0,0.7-0.1,0.4-0.6C1302.8,251.5,1302.8,251.7,1302.9,252.2z
					 M1792.5,252.4c-1.7-2.1-1.1-3.4,0.5-5.4c3.1-1.1,1.2,1.8,1,3.4c-0.2,0.5-0.6,0.8-0.6,1.3
					C1793.9,252.5,1793.3,252.2,1792.5,252.4L1792.5,252.4z M1301.5,252.4c0.3-0.1,0.5,0.1,0.4-0.3
					C1301.5,252.1,1301.5,252.1,1301.5,252.4z M1305.8,253.6c0.2-0.1,0.3-0.1,0.4-0.2C1306.3,252.1,1304.3,252.4,1305.8,253.6z
					 M1395.5,253.6c0.4-0.1,0.4-0.1,0.5-0.2C1396.1,251.5,1394,252,1395.5,253.6z M1794.3,254.8c-0.1-0.1-0.2-0.2-0.2-0.3
					C1794,253.5,1795.6,254.6,1794.3,254.8z M1307.7,254.8c1.8-0.6,1.1-0.8-0.3-1.5C1306.2,253.4,1307.2,254.3,1307.7,254.8z
					 M1449.2,256.1c0.8-0.1,4.4-0.8,1.9-1.7c-2.4-0.3-4.4-1.7-6.2-3.2c-0.8-0.3-1.6-0.3-2.4-0.3c-2.3-1.4-5.7-1.2-8-0.2
					c-1,0.8-2.7,2.1,0,1.7c3.4-1.8,4.1-1.3,7.7,0.5c1.7,0.1,1.6,0.3,2.9,1.4c2,0.6-0.1,1,1,1.7
					C1447.3,255.9,1448.2,255.7,1449.2,256.1L1449.2,256.1z M1309.5,257.1c0.4-0.1,1.4-0.4,1.4-1
					C1309,253.6,1308.7,256.4,1309.5,257.1z M1793,257.3c-0.3-0.6,0.2-0.8,0.8-0.7C1793.6,257.1,1793.6,257.2,1793,257.3z
					 M1462.7,259.1c0.1-0.1,0.3-0.1,0.3-0.2C1463.1,257.8,1462,258.7,1462.7,259.1z M1465.2,259.2c3.5-0.2,0.6-1.3-1.1-1.3
					C1463.1,258.5,1464.7,259.1,1465.2,259.2z M1468.2,259.5c0.2,0,1.5-1.9,0.5-2C1467.6,258.7,1467.7,257.7,1468.2,259.5z
					 M1456.3,259.5c0.4-0.1,1.1-0.1,1.1-0.5c1.2-0.9,3-0.3,4.4-0.3c1.7-0.6-2.2-2.4-2.6-2.8c-1.9-0.4-4.1-0.5-6-0.3
					c-0.1,1.1,1.1,0.7,0.3,1.7c0.4,1.8-2-0.7-2.1,1.1C1453,259.6,1454.4,258.1,1456.3,259.5L1456.3,259.5z M1446.6,259.8
					c0.5-0.3,0.8-0.3,1.4-0.3c1.4-1.1-2.3-1.8-3.3-1.4C1444.1,259.2,1445.9,259.5,1446.6,259.8L1446.6,259.8z M1471.5,259.9
					c0.4,0,0.4-0.9,0.3-1.2C1470.7,258.4,1471.4,259.2,1471.5,259.9z M1473,261c0.4-0.2,1-0.3,0.6-0.9
					C1473.5,258.7,1472.7,260.6,1473,261z M1473.5,262.4c0.2,0,0.3,0,0.4,0C1474.7,260.4,1473.3,261.1,1473.5,262.4z M1474.8,264.7
					c1.1-0.3-0.1-1.1-0.1-1.9C1473.6,261.7,1474.1,264.2,1474.8,264.7z M1475,266.3c0.4-0.1,0.3-0.2,0.3-0.6
					C1474.8,264.8,1474.2,266.1,1475,266.3z M1477.6,267.5c0.3-0.3,0.3-0.2,0.3-0.6C1477.5,266,1476.6,266.9,1477.6,267.5z
					 M1474,268.8c0.1-0.1,0.3-0.2,0.3-0.3C1475.3,266.8,1472.8,268.2,1474,268.8z M1460.9,269c0.4-0.1,0.4-0.1,0.5-0.2
					C1461.3,268.1,1460.1,268.1,1460.9,269z M1462.2,269.1c0.1,0,0.2-0.1,0.3-0.1C1462.5,268,1461.4,268.6,1462.2,269.1z
					 M1465.1,269.5c0.3,0,0.6-0.1,1-0.1C1466.6,268.6,1464.5,268.7,1465.1,269.5z M1468.8,269.6c1.1-0.1,1-0.8-0.3-0.5
					C1468.5,269.4,1468.6,269.3,1468.8,269.6z M1467.3,271c0.4-0.1,0.3-0.2,0.3-0.6C1467,270.4,1466.7,270.7,1467.3,271z
					 M1456.4,273.5c1.2-0.3,0.6-1.7-0.3-1.7C1455.9,272.4,1455.8,273.1,1456.4,273.5z M1786.7,275.5c-0.1-2,3.1-3.1,3.8-5.1
					c0.3-0.3,1.5-2.8,1.5-1c-0.5,0.5-0.9,0.7-0.9,1.5c0.9,0.9-1.7,1.5-2.2,2.9C1788.3,273.8,1787.4,275.5,1786.7,275.5z M1792,278.8
					c-0.4-0.5,0.4-1,0.4-0.2C1792.4,278.7,1792.4,278.7,1792,278.8z M1722.2,279.4c-0.2-0.1-0.2-0.1-0.4-0.2
					c-0.8-0.9-1.7-6.4,0.3-6.5c1.5,0.5,3.1,4.4,2.2,5.7C1723.6,278.8,1723,279.3,1722.2,279.4L1722.2,279.4z M1793.2,279.5
					c-0.8-0.5,0.6-1.3,0.6-0.2C1793.8,279.4,1793.8,279.4,1793.2,279.5z M1800.3,279.9c-1.2-1-2.3-0.5-2.3-2.4
					c0.5-1.7-1.3-0.3-2.2-0.8c-1,0-0.6,2.7-1.5,1.6c0.1-1.8,0.9-3.7,3.1-3.7c1.6,1,4.5-2.3,2.1-2.3c-1.2,1.4-1.5,0.1-2.4,0.7
					c0.1,2-2.7,0.4-1.4-0.9c0.1-1.1-0.8-0.3-1.2-0.8c0.2-3.1-0.4-2,2.1-1.7c0.3,0.3,0.3,0.8,0.5,1.1c1,0.2,1,0.2,1.1,1.1
					c1.9,0.1,0.5-1.2,0-1c0.1-0.9,2.1-1.9-0.1-2.7c-0.3,0.3-0.1,0.5-0.1,0.9c-1.1,1-1.2-1.3-1.5-1.6c-0.3-1.4-1-0.6-2.3-0.6
					c-0.3-0.3,0.2-0.5-0.2-0.8c-1.5,0,0.6,2.4-1.1,2.5c-1.9-1.9-0.6-1.9-0.9-3.8c-0.8-0.7-2.7-3.4-0.7-3.4c0.5-1.9-0.2-4.7,2.7-3.3
					c1.6,0,0.9-0.2,0.9,1.3c1.2,2.1-2.2,3.3-0.9,4.4c1.7,0-0.9,1,0.5,1.4c1.6-0.6,2.3,1,3.5,0.3c1.8,0-1.4,2.4,1.9,2.4
					c0.7,0.3,1.3,2.4,0.8,2.8c-1.3,0.1,0.2,2.3,0.3,1.6c1.5,0.3,1.8,4.4,1.1,5.6c-0.2,1-1.4-1.2-1.4,0.2
					C1801.1,278.9,1801.4,279.8,1800.3,279.9L1800.3,279.9z M1802.8,283c-1-0.8-0.1-2.4,0.5-1.6C1803.2,282.1,1803.5,283,1802.8,283
					z M1800.9,283.7c-1.9-1.2,0.6-1.7,0.3-0.2C1801.2,283.6,1801,283.7,1800.9,283.7z M1749.8,285.4c-1.7-0.6-1-1.5,0.5-0.5
					C1750.6,285.4,1750.3,285.4,1749.8,285.4z M1800.6,285.7c-0.6-0.3-0.5-1.7,0.3-1.5C1801.1,284.6,1801,285.3,1800.6,285.7z
					 M1752.4,288.6c-1.9-2-0.3-2.4,0.6-0.7C1753,288.4,1753,288.5,1752.4,288.6z M1807.6,289.5c0.1-0.3,0.1-0.3,0.3-0.3
					C1808,289.6,1808,289.5,1807.6,289.5z M1764.2,290.2c-0.3-0.4-0.4-1.2-0.4-1.7C1764.8,287.7,1765.3,289.9,1764.2,290.2z
					 M1753.7,290.6c-1-0.9,0.3-1.9,0.3-0.4C1753.9,290.5,1753.9,290.5,1753.7,290.6z M1808.3,291.3c0-0.2-0.1-0.3-0.1-0.4
					C1808.6,291,1808.7,291.2,1808.3,291.3z M1818.4,291.5c-1.6-0.7,0.3-1.3,0.5,0C1818.7,291.5,1818.5,291.5,1818.4,291.5z
					 M1833.3,291.6c-0.1-0.1-0.1-0.1-0.3-0.2C1832.8,289.8,1835.3,291,1833.3,291.6z M1842.7,291.7c-1-0.6,0.6-1.6,0.6-0.2
					C1843.1,291.6,1843,291.6,1842.7,291.7z M1771.4,292c-0.3-0.3,0.3-0.9,0.3,0C1771.4,292,1771.4,292,1771.4,292z M1804.8,292.5
					c-1.2-0.3-0.9-1-1-1.9c-1.4-1.5,0.4-0.6,0.5-1.8c-0.9-2.3-0.2-2.5,1.5-3.9c1.1,0,0.3,0.9,0.2,1.5c0.5,0.3,0.7,2.1,0.6,2.7
					c-2.2,0.1-1,0.3-1,1.7c-0.4,0.3-1-0.2-0.7,0.7C1806,291.8,1805.8,292.4,1804.8,292.5L1804.8,292.5z M1799,292.8
					c-0.5-0.3-0.8-0.7-0.1-1c0.2,0,5.1,0.3,3.4,0.9C1800.3,292.6,1800.3,292.6,1799,292.8L1799,292.8z M1837.5,292.9
					c-1.4-0.9,2.8-1.2,1.4-0.3C1838.4,292.7,1838,292.8,1837.5,292.9z M1811.1,293.8c-0.2-0.4-0.1-0.7,0.3-0.6
					C1811.6,293.7,1811.7,293.7,1811.1,293.8z M1851.5,294.6c0-0.2,0-0.3-0.1-0.4C1852,294.3,1852,294.5,1851.5,294.6z
					 M1756.8,294.7c-0.3-1.3-3.6-2.3-2.7-3.9c0.4-0.1,3.2,3.3,3.3,3.8C1757.2,294.6,1757,294.6,1756.8,294.7z M1770.7,294.8
					c-1.5-1.1,1-1.5,0.5-0.2C1771,294.8,1771,294.8,1770.7,294.8z M1805.4,295.8c-2.2-2.2,3.1-1.7,4-1.6
					C1811.9,295.2,1805.5,295.7,1805.4,295.8z M1803,295.8c-1.1-0.8,0.7-2.5,1.1-0.5C1803.8,295.6,1803.5,295.6,1803,295.8z
					 M1797,296.1c-1.1-1.2,0.3-1.1,0.3-0.2C1797.3,295.9,1797.2,296.1,1797,296.1z M1782.5,296.8c-1.6-1.1-2.5-2.9-4.8-1.9
					c-2.7,0-3.4-1.1-4.4-3.1c-1.7-1.1-1-1.9-2-3.2c0-3.1,2.9-1.5,4.5-3.2c0.4-1.1,0.5-1,1.8-1c2.2-0.8,2.7-3.1,5-3.9
					c1.1-0.9,2.4-3.4,3.5-3.4c1.1,1.6,1.9,2.1,3.8,2.8c0.9,1.1-1.4,0.6-0.6,1.7c-0.1,0.9-2.4,0.5-2.3,2.4c0.3,0.4,0.6,1.2,1.3,0.9
					c2,0-2,0.9,0.2,1.7c0.3,0.5,1.7,0.8,0.4,1.5c-2,0-1.9,0.8-1.9,2.6c-1,1.1-1.6,1.4-1.7,2.9c-0.7,1.4,0.1,1.4,0.1,2.7
					c-0.8,1-1.4-0.9-2.1,0.5C1782.9,296.8,1782.9,296.8,1782.5,296.8L1782.5,296.8z M1842.1,297.3c-1.1-0.6,1-1.4,0.9-0.3
					C1842.6,297.2,1842.6,297.2,1842.1,297.3z M1797.2,298.5c-0.1-0.5-0.1-0.6,0.5-0.6C1797.7,298.4,1797.7,298.5,1797.2,298.5z
					 M1760.2,298.8c-1-0.6,0.6-1.5,0.5-0.1C1760.5,298.7,1760.4,298.8,1760.2,298.8z M1790,299.1c-1.3-0.4,0.1-1.7,0.3-2.3
					c0-1.6-2.5-2.6-0.8-4.2c0.3-1.1,0.2-1.6,1-2.7c0.3-4.5,4.2-2.4,7.4-2.4c0.8-0.6,2.4-2.4,2.5-0.4c-0.4,0.5-1.4,0.9-1.5,1.6
					c-1.6,0.3-9.1-1.1-7.4,1.7c1.7,1,0.9,0.6,2.3-0.3c0.1-0.3-0.4-0.5,0.3-0.7c0.4,0,0.9,0,1.2,0c0,1.2,2.4-0.3,2.4,2.4
					c-0.6,0.9-1.6-0.1-2.3-0.1c-1.5,1-0.9,1-0.2,2.4c0,0.2,0.2,4.5-1.2,2.8c-0.1-0.5-1.4-4.5-2.3-2.7
					C1792.7,296.6,1793.1,298.6,1790,299.1L1790,299.1z M1813.6,299.5c-1.7-1.1,1.6-2.5,0.7-0.4
					C1813.7,299.5,1813.7,299.5,1813.6,299.5z M1843.9,299.7c-0.8-0.1-1.4-0.3-2.5-0.4c-0.9-0.8-1.7-0.1-2-0.8c-0.3-0.2-1.7,0-1-0.7
					c0.3,0,0.9,0,0.9,0.4c1.4-0.3,3.2,0.6,4.2-0.8c1.1-0.2,0.9,1.2,2.1-0.3c1.4-0.7-0.3-1.2,2.1-1.2c0.9-1-3.8-2.2-4.1-2.5
					c-0.1-1.5,2.3,0.4,3,0.3c0.7-1.2,0.7,0.6,1.2,0.9c0.4,0.6,1.5,0.7,0.5-0.2c-0.1-0.8,1.7,0.3,0.6,0.5c-0.1,1.2,1.8-0.2,1.8,1.2
					c-1,0.1-1.2-0.4-1.8,0.7c-0.5,0.3-0.5-0.3-1.1-0.2C1847.2,298.6,1845.9,299.5,1843.9,299.7L1843.9,299.7z M1816.1,301.1
					c-1.1-1,0.3-3.8,1.2-2.9C1817.5,299.8,1817.6,300.6,1816.1,301.1z M1806.2,301.3c0-0.1,0-0.3-0.1-0.3
					C1806.8,300.8,1806.8,301.2,1806.2,301.3z M1804.2,302.1c-1.1-0.4,0.3-1.1,0.3,0C1804.3,302.1,1804.2,302.1,1804.2,302.1z
					 M1808.5,303.2c-1.4-1.1,1-1.5,0.4-0.1C1808.9,303.2,1808.7,303.2,1808.5,303.2z M1804.9,303.2c-1.2-1,0.5-1.3,0.6-0.3
					C1805.4,303.1,1805.4,303.1,1804.9,303.2z M1810.6,303.5c-1.1-1.2,2.4-3.7,2.3-2C1812,302.1,1811.6,303,1810.6,303.5z
					 M1784.6,303.9c-0.9-0.3-0.3-1,0.4-1C1785,303.4,1785.1,303.8,1784.6,303.9z M1856.8,304.1c-0.9-0.6-2.7-1.1-1.6-2.4
					c1.1,0,1.8,0.6,0.3-0.5c-2.3-0.8-1.8,0.7-3.5-2.1c-0.9-3.1,1.7,0.5,2.7,1c0.8,0.2,3,1,3,1.8c-0.4,1,0.5,1.2,0.6,2.2
					C1857.9,304.1,1857.4,304.1,1856.8,304.1L1856.8,304.1z M1781.3,304.1c-1.7-0.5-3.9-0.9-5.8-0.6c-1.9-0.5-2.4-1-4.7-1
					c-1-0.2-2-0.4-3.1-0.6c-1-1-1.7-0.5-2.6-1.4c0-0.9,0.3-0.5,1-0.6c0.4-0.7-1.2-0.3-1.7-0.3c-1-0.8-5-3.6-5.4-4.8
					c-1.9-1.8-2-4.4-4.3-5.8c-1-1.7-0.9-3.8-3.2-2.8c-1.5,0,0.3-1,0.3-1.6c-0.5-0.9-0.8-1-1.7-1.2c-0.1-0.1-4.2-3.9-1.7-4.1
					c1.7,1,1.8,1,3.8,1c1.1,1,1.7,2.1,3.1,2.8c1.2,1.1,1.4,1.9,3.1,2.1c1.9,0.6,2.5,2.4,4.4,3.2c0.8,0.9-0.3,2,1,2.3
					c1,1.3,0,2.3,2.1,1c0.7-0.2,0.8-0.3,1.2,0.3c0.3,1.1,2.8,2.7,0.1,2.8c-0.5,0.7-0.4,3.5-0.5,4.2c1.3,0.1,2.7,0.1,4,0.3
					c1.8,1.1,2.7,1.2,4.9,0.7c1.6,0,2.1,1,3.6,0.4c0.9,0,2.9,0.6,1,1c0.1,0.6,3.6,0.5,3.6,2.1c-0.4,0.4-0.9,0-1.3-0.2
					C1782,303.7,1781.9,304.1,1781.3,304.1L1781.3,304.1z M1786.2,304.8c-0.9-0.4-0.3-1.6,0.5-1.5c1.1,0.7,2-0.5,3.1-0.5
					C1791.1,304.4,1787.3,304.6,1786.2,304.8z M1848.5,305c-1-1.2,0.5-1.6,0.5-0.2C1848.9,304.9,1848.7,305,1848.5,305z
					 M1873.5,305.9c0-0.2,0-0.3,0-0.4c0.2,0,0.3,0,0.4,0c0,0.2,0,0.3,0,0.4C1873.7,305.9,1873.6,305.9,1873.5,305.9z M1861.9,306.1
					c-1.5-0.2-1.1-1.3-2.1-1.4c-0.1-1.6,0.4-1-1.4-2.5c-0.4-1,1-0.3,1.4-0.1c0.8,0.9,3.1,1.4,0.5,1.7c0.5,1.4,1,0.6,1.9,0.3
					c0.3-0.4-0.2-0.8,0-1.2c1.1,0,1.2,1.8,2.6,1.9c1.2,1.9-2.7-1.1-2.2,0.4C1862.8,306.1,1862.6,306.1,1861.9,306.1L1861.9,306.1z
					 M1794.3,307.1c-0.6-0.3,0.4-1.2,0.3-0.2C1794.6,307,1794.5,307.1,1794.3,307.1z M1843.7,307.4c-1.1-0.6-2.2-0.8-3.5-0.9
					c-2.4-0.9-3.6-4.9-6.5-3.8c-0.6,0.5-0.9,1.3-1.6,1.9c-2.3,1.3-4.2,0.4-5.8-1.2c-1-0.5-6.5,1.4-3.8-1.7c0.4-0.3,0.8-0.4,0.9-1
					c-1.3-3.6-4.1-3.1-6.7-4.4c-0.6-0.2-1.4-0.7-1.7-0.1c-1.6,0.7-1.6-1.4-2.7-1.9c-0.4-1.2,1.1-1.1-0.8-2.3
					c-2.3-0.3-1.3-1.6-2.7-2.4c0-1.6,3.4-0.2,1.7,0.3c0,0.9,1.7-0.3,2.2-0.4c1.1,0,2.7,0.6,3.6,1.1c0,0.5-0.6,2.7,0.7,2.5
					c0.3,2.7,2.8,0.3,2.6-0.6c-0.9-0.3-3.4-0.8-3.1-2.2c1.6-0.5,1.6-0.6,3.2,0.3c0,1.9,1.4,0.5,2.7,0.5c0.9,0.4,1.7,1,2.5,1.5
					c2.6,0.2,11.1,2.2,11.4,5.2c0.6,0.5,5.1,1.2,3.1,2.6c-1.7,0.3,0.3,1.4,0.8,1.9c0.4,1.1,0.8,1.4,2,1.7c1.1,1.2,0.7,0.3,2,0.3
					c0.7,0.2,1.9,1.1,0.6,1.4c-2.5-0.8,1,0.5,0.2,1.1C1845.2,307.5,1844.3,307.4,1843.7,307.4L1843.7,307.4z M1796.3,307.4
					c-0.5-0.5,1.5-2.6,2-3.1c0.8-0.3,1.8,0.1,1.1-0.9c-1-0.4-3.1,0-3.9,0.5c-0.8,0.2-5.3,0.3-3.4,1.1c0.3,0.8,0.8,0.3,0.4,1.4
					c-0.7,0.9-5.2-1.7-1.7-1.7c1.1-0.4-0.8-1.8,2.1-1.8c2.4,0.6,3.8-0.4,6.4-0.4c2,0.3,1.8-0.8,3.7-0.8c2,0.6-3.4,0.9-0.5,1.4
					c1,0,1.3-0.1,1.7-0.1c1,1.1-3.7,2.3-4.1,2.6C1798.9,306.8,1797.6,307,1796.3,307.4L1796.3,307.4z M1864.7,307.6
					c-0.4-0.3-1.1-0.5-1-1.1C1864.6,306.5,1866.8,307.5,1864.7,307.6z M1871.7,307.9c-0.5-0.5,0-0.8,0.5-0.8
					C1872.2,307.6,1872.2,307.6,1871.7,307.9z M1849.7,308.8c-0.3-0.2-2.2-1.7-1.8-2c0.8,0.1,0.8,0.2,1,0.8
					C1849.1,307.7,1850.8,308.6,1849.7,308.8z M1851.1,308.9c-0.2-0.1-0.2-0.2-0.2-0.4C1851.5,307.7,1851.9,308.8,1851.1,308.9z
					 M1862.1,309.6c-0.3-0.3-0.6-0.4-1-0.7C1859.8,306.9,1864.9,309.4,1862.1,309.6z M1874.4,312.7c-1-1.4,0.9-1,0.3-0.1
					C1874.5,312.6,1874.4,312.7,1874.4,312.7z M1799.4,313.9c-0.3-0.4-0.1-0.7,0.4-0.6C1800.2,313.7,1799.7,313.8,1799.4,313.9z
					 M1875.4,315.8c-0.2-0.5-1-0.5-0.4-1.1C1875.8,313,1876.3,315.8,1875.4,315.8z M1873.8,316.1c-0.4-0.4-0.6-0.8-0.9-1.4
					C1873,313.6,1876,315.5,1873.8,316.1z M1875.9,317.7c-0.5-1.2-1.8,0.4-1.6-1.4c0.3,0.2,0.9,0.5,1.1,0.2
					C1875.5,315,1877.4,317.5,1875.9,317.7z M1890.2,318.5c-0.5-0.5,0.5-1.9,1.4-1.4c0.8,0,1.7-1.2,1.7,0.4c-0.8,1-1.7-0.8-2.4,0.5
					C1890.5,318.5,1890.5,318.5,1890.2,318.5L1890.2,318.5z M1876,319.3c0-0.2,0-0.3,0-0.4C1876.4,319,1876.5,319.3,1876,319.3z
					 M1891.1,320.6c-0.3-0.6,0.2-0.7,0.3-1.2c0-1.9,1.5-0.3,2.6-1.1c0.6-1.3,1.1,1.6-0.1,1.5
					C1893.1,318.7,1892.4,320.5,1891.1,320.6z M1892.2,321.5c-0.9-0.3,0.8-1.6,0.9-0.4C1892.8,321.2,1892.6,321.3,1892.2,321.5z
					 M1877.8,322.6c-1-0.6-0.5-3.1,0.2-1.8C1878,321.3,1878.5,322.5,1877.8,322.6z M1867.6,322.6c-0.6-0.3-0.2-1,0.3-0.5
					C1867.9,322.5,1868.1,322.6,1867.6,322.6z M1872.5,324.5c-0.1-2.2,1.8-1,0.4-0.1C1872.8,324.5,1872.6,324.5,1872.5,324.5z
					 M1782.5,324.6c-1-0.5,0.9-1.7,0.3-0.2C1782.7,324.5,1782.6,324.5,1782.5,324.6z M1875.6,326c-0.4-0.3-0.4-0.3-0.6-0.8
					c-2.5-0.1-0.4-2.8-0.2-0.2C1875.6,325.1,1876.8,325.8,1875.6,326z M1873.2,327.3c-2.2-1.1-3.8-1.7-4.8-4.1
					c-0.1,0-0.1-0.1-0.2-0.1c-0.6-1.7,3.1,1.7,3.4,2.1C1872.3,325.5,1875.1,326.8,1873.2,327.3L1873.2,327.3z M1660.6,332.3
					c-2.1-0.9-2.8-1.3-2.8-3.5c-1.6-3.4,1.2-3.9,1.2-7.1c-0.6-1.7-1-3.4-0.1-5.1c1.2-1,3-0.6,3.9-1.8c1.9-0.8,1.9-0.7,2.4-2.7
					c1.8-0.5,1.4-1,1.9-2.5c1.3-1,2.1,3.4,2.1,3.8c1.1,2.6-1.1,1.1-0.9,3.1c0.2,0.3,0.3,0.5,0.3,1c-2.3,4.1-2.8,9.2-4.5,13.5
					C1663.1,331.6,1661.8,332.1,1660.6,332.3L1660.6,332.3z M1779.6,333.1c-2.3-1.9,1.2-2.2,0.6-0.1
					C1780.1,333.1,1780.1,333.1,1779.6,333.1z M1480.2,347.5c0.5,0-0.3-0.9-0.3-0.2C1479.9,347.5,1480,347.5,1480.2,347.5z
					 M1616,347.9c1.3-0.2,2.7-0.9,4.1-1c2.2-0.7,4.1,0.3,6.1-0.8c4.9-0.3,11.3-7,13-11.2c0-3,0-3.1,3.1-3.9c2.3-1.4,1.6-5.1,0.2-7
					c-1-2.7,1.9-2.4,3.2-3.8c0.6-1,1.3-1.5,2.4-2.1c2.1-0.4,4.8-1.9,4.8-4.4c-1-2.1-0.3-4.5-0.6-6.8c-1.2-1.4-2.3-2.9-1.8-4.9
					c0-1-0.3-1.7-0.8-2.5c-0.5-1.7,1.2-3.4,2.1-4.7c0.3-1.1,1.2-1.7,2.1-2.4c2.5-3.1,5.4-5.8,8.9-7.8c0.8-1.1,2.2-2.2,3.1-3.4
					c1.7-3.1,4.1-5.8,5-9.2c0.3-0.2,0.5-0.3,0.6-0.6c0-4.9-1.7-1.7-4.9-1.7c-0.2,0.8-1.6,0.5-2.1,0.4c-1.2,0.5-1.2,0.5-2.2,0.7
					c-1-0.7-2.3,0.9-3.5,0.3c-0.7-0.7-2.3-1.6-2.3-2.5c1.2-2.1-3.8-4.7-5.2-5.1c-1-1-1-2.3-1.5-3.6c-1-1.6-2.3-2-3.1-3.8
					c-0.3-3.5,0.4-3.3-2.3-5.3c-1.7-2-2.4-4.9-3.8-7.2c-0.6-1.9,0.1-1.5,1.8-1.5c1.6,0.8,2.7,3.4,3.6,4.9c1.1,2.4,3.2,2.4,3.4,5.5
					c0.6,1.8,1.2,2.8,3.1,3.7c0.8,0.7,0.9,2.2,1.6,3.1c1.8,1.1,1.8,3.1,1.9,4.9c1,2.5-0.2,4.9,4.2,3.6c2.2-1.9,5.3-1.1,7.5-3.1
					c1.5-0.4,4.9-0.8,5.1-2.4c1.4-1.7,3.1-0.9,4.7-1.8c0.7-1.4,1.4-0.6,2.4-1.4c0.8-1.5,1.3-1,2.5-1.9c0.4-2,1.9-3.1,3.1-4.8
					c0.7-3.1-4-2.7-5.2-4.1c0-0.4-0.8-4.1,0.4-3.4c0.6,2.6,4.3,1.6,6.4,1.6c1.7,0.8,8,0.5,10.4,0.5c0.3,0.3,0.3,0.3,1.4,2
					c0.9,0.5,3.6,1.4,3.6,2.5c-1.9,0.7,0.9,1.9,1.7,2.7c1.3,0.5,5.1-1.5,3.9,1.3c0,0.8,0.2,1.2,0.5,1.9c0.2,3.1,1.1,5.7,3.1,8.3
					c0.2,2,0.6,3.1,2,4.5c0.3,1.5,0.8,3.4,1.8,4.7c1.7,1,1.9,0,3.1-0.8c2.7-0.4,2.4-2.3,2.1-4.4c0.3-1,0.9-2.2,0.9-3.2
					c-0.7-2.5-0.4-3.4,1.9-4.8c1.8-0.3,1.7-0.9,3.1-2.2c3.6-2.1,7-4.7,10.6-6.9c0.9-0.1,1.8-0.2,2.8-0.3c1.5-1.4,1.8,0.8,2.1,1.7
					c0.6,0.9,3.1,2.2,3.1,3.1c1.1,1.7,1.2,2.5,0.6,4.4c0,2.3,3.7,0.6,4.6-0.2c1.7-2.8,1.4,3.8,1.4,4.1c0.6,1.4,0.4,1.4,0.1,2.7
					c0.9,1.5-0.4,0.5-0.3,1.5c1.4,0.2,0.4,3.2,1.2,4.4c0.3,1.7,0.8,2.3,2.4,3.2c0.2,0.5-0.6,1-0.1,1.5c1.5,0.2,2.5,4.7,3.1,6
					c1.3,0.7,3.1,1.6,3.9,2.7c3.6,0,0-2.7,0-4.5c0.6-2.4-1.6-3.8-3.2-5.4c-2.5-0.6-1.7-0.9-2.4-3.2c0-1.2,0.6-1.6-1.2-1.1
					c-1-0.3-0.2-1.8,0.2-2.4c0.6-0.5,1.1-5.1,2.1-3.2c-0.1,1.2,1.5,0.4,2.4,1.3c0.9,1.6,2.7,1.7,2.9,3.5c0.5,0.5,1.4-0.3,1.8,0.8
					c0,2.1-0.7,3,2,1c0.7-0.9,1.4-1.5,2.4-2.1c3.1-1.1,4.7-4.4,3-7.4c-0.6-2.8-2.8-3.1-4.4-5.2c-0.5-2-2.7-2.4,0.4-4.1
					c0.3-0.5,0.3-0.7,0.8-1c1.2-0.3,1.5-2,3.3-0.9c3.5,0.3-0.3,2.8-0.9,3.3c-0.1,3,3.1,2.5,3.9,0.2c0.8-1,0.3-1-0.3-1.8
					c0.4-2.5,2.9-1.7,4.9-2.7c1.4-1.5,2.9-1.2,4.8-1.2c1-0.6,1.8-1.9,2.9-2.8c3.5-1.1,3.8-4.1,6.4-6.3c0.5-1,1-2.4,1.2-3.4
					c-0.5-0.3-1.6,0.3-1.6-0.4c1.5-1,1-1.1,1-2.7c-1.7-1.5-1.3-3.5-3.5-4.5c-1-0.8,0.3-1.6,0.9-2.4c0.8-0.4,4.3-1.2,4.3-2.1
					c-0.2-0.3-2.9-1-3.5-1c-0.7,0.2-2.7,2-2.4,0.2c-0.3-1.1-3.8-0.8-2.3-2c2.4-0.1,4.2-4.1,6.8-3.1c0.2,0.9-0.4,1.2-1,1.9
					c0,0.8,0.2,0.8-0.4,1.2c0.2,1.1,2.5-0.8,3.4-1c2.5-0.7,3.8-1.4,3.8,1.6c-0.3,0.2-2,1.2-0.6,1.2c0.7-0.4,0.9-0.1,1.6,0.3
					c2.2,0,1.5,1.5,1.5,2.9c-0.4,0.9-2.4,3.8,0.2,2.4c1.7-0.2,2.4-1,4.2-1c2.8-3-3.1-6.2-2.3-7.8c1.1-0.5,2.1-1.1,3.1-1.8
					c0.5-1.6,0.6-1.7,2.4-2.2c1.2-1.6,1.7-1.4,3.5-0.7c1.1,0,2.2-0.3,3.1-0.9c1.1-1.2,1.1-1.2,1.5-1.7c2.1-1.9,3.9-2.4,5.5-5.1
					c1.7-1,2.6-1.7,2.7-3.8c0.7-1.3,0.4-2.4,1.2-3.7c2.4-2.2,1.7,3.3,1.4,4.4c0,1.1,1,6.9-1.4,5.8c-1.5,0.1,0.9,1.2,0.9,1.2
					c0,2.7-1.6,1.7-2.6,3.1c-0.3,0.3-2.7,1.3-1.4,1.7c2.2-1,0.6,3.5,0.8,3.9c0,1-1.6,3.9-2.2,2.2c-0.6-0.7-1.1,0.6-0.1,1
					c-0.4,0.6-1.1,1-1.9,1c0.1-0.8-0.2-1.4-1.1-0.5c-0.3,0.7-1.6,3.1-2.4,2.9c-2.9,0.1-3.4,0.2-4.4,0.2c-1.1,0.8-2.2,1.2-3.4,1.8
					c-0.8,1-1.2,1.4-2.4,1.6c-1,0.7,0.2,1.7,0.7,2.3c0.4,1.2,0.2,1.6,1.4,2.2c-0.1,1.2-1,0.3-0.7,1.3c2.3-0.2,1.1-0.2,1.6-1.6
					c1-0.8,0.6-2.7,1.9-2.9c1,1,1.5-0.3,2.3-0.7c1.8,0.3,1.6-1.9,3-0.3c1.1,0.5,1.8-0.8,2.8-1.1c1.4-1.4,3.5,0.1,4.4-1.4
					c0.6-0.2,1.6,1.5,2.2-0.4c0.8-1.1,0.3-1.9,1-3.2c0-0.6-0.3-1.3,0.2-1.7c4-1.4-1.5-6.5,0.3-7.1c1.3,0,2.5,1.4,3.8,0.4
					c1-1.8,3.4-0.8,4.9-2.3c2.8-0.5-1.9-3.2-0.7-1.1c1.4,0.4,0.1,0.9-0.5,1.2c-1.2-0.4,0.5-1.4-1.1-1.4c-1.5,0.7-5.9-2.1-4.7-2.6
					c0.1-0.2,0.2-0.4,0.3-0.6c1-1.3,1.5,0.6,2.1,0.1c0.7-2.1-3.1-2.2-0.5-5.1c1-0.3,2.7,1.5,2.7,0.5c-1.3-1.8-2.1-3.6-2.7-5.7
					c0.4-1,0.1-3.9-1.4-3.9c-0.3,0.2-0.3,0.3-0.3,0.7c0.5,1,0.1,0.9-1,0.9c-0.2,0.4-0.2,3.1-1.1,1.6c0-2.9-3.4-3.1-5.6-2
					c-0.8,0.1-0.6-1.4-1-1.4c-0.8-1.1-2.8,0.9-2.8-0.3c1.4-0.4,2.5-1.1,3.5-2.2c1.5-0.7,2.5-1.5,4-2.3c1.6-0.3,2.9-1.9,4.4-2.6
					c3.1-0.1,6.3-0.1,9.4,0c1.1,0.3,1.6,0.2,2.5-0.5c1.7,0,2.3,0.1,3.1,1.4c1.2,0,8.9,0.4,6-1.8c-0.1-0.4,2.8-1.8,3.5-2.2
					c1.1-2.1,4.1-0.5,5.8-0.9c0.3,0.3,0.2,1.2,0.2,1.6c1.4,0.6,3.4-1.4,5.1-1.5c1.1-0.3,0.3-1.6,1.7-1.6c0.4,0.4,0.1,1.4-0.1,1.9
					c-1.1,0.9-3.1,1.2-4.4,2.1c-2.2,1-3.8,2.7-6.2,3.5c-2.4,0.2-1.6,1.2-3.6,2.2c-1,2.4-0.1,4.4,0.6,6.8c0.6,0.8-0.2,1.6,0.4,2.5
					c-0.2,1.5-1.9-0.9-1.7,0.9c-0.6,2.1,1,0.3,2.5-0.2c2.1-1.4,2.1-1.1,2.9-3.5c0.8-1.3,2.5,0.6,2.8-1.8c1.4-1.8,3.7-0.3,4.7-2.8
					c1.1-0.4,1.7-1.3,0.7-2.2c-0.4-1.2,1.2-2-0.8-2c-0.8-0.4,0.9-1.2,1.2-1.4c1.3-1.8,0.4-1.5,3.1-1.5c1.9-0.8,1.6,0.4,3.6-0.7
					c0.8-1.1,4.2-0.3,5.1,0.6c0.5,0,0.5,0,0.7-0.1c0.6-1.1,1.5-1.1,2.8-1.4c2.4-1.7,5-1.8,7.8-2.7c2.1-1,5.2,1.9,4.5-1.4
					c-0.9-1.7-2.4-2.3,0.2-2.4c1-0.4,1.1-4.2,2.5-1.7c1.5,0.7,3.3-0.2,4.8,0.5c0.6,1.5,3,1.4,4.3,1.5c1.7,1.1,0.8-1.6,2.2-2.2
					c1.1,0.1,2.5,0.2,3.6,0c2.1-1.4-0.9-1.1-1.9-2.1c-1-0.4-2.4-0.3-3.6-0.6c-1.7,0.8-2,1.8-3-0.5c-1.5-1.2-4.3-1.1-6.2-2
					c-3.6-1-6.5-1.8-10.2-1.8c-2.2-0.3-4.4-0.3-6.5-0.4c-2.4-0.9-0.5,1.3-1.5,2.2c-0.7,0-2.2,0.1-2.2-0.8c2-1.2,0.1-1.5-0.6-0.3
					c-0.8,0.1-1-0.6-1.8-0.6c-1.7,0.5-4.1,0.6-5.8,0c-1.4,0.1-2.8,0.2-4.2,0.3c-2.5,0.8-3.1-1.7-5.2-2.4c-2.4-0.1-4.8-0.2-7.2-0.1
					c-1.4,0.5-7.8,0-8.5-1.7c-1.6-0.5-2.9-0.5-4.5-0.5c-3.4-0.7-7.2,0.1-10.5-1c-3.2-0.2,3.1-0.1,3.6-0.1c2.1-0.8-4.4-2.2-5.8-1.5
					c0.2,1-0.5,0.3-0.5,1.3c0.4,0.2,1,0.1,1.5,0.1c-0.1,0.5-1.4,1.3-1.7,1.8c-0.2,1.1-1,0.8-2.2,0.8c-1.5,1-2.9-0.1-4.7-0.2
					c-1.8,0.7-2.5,0.4-4.4-0.4c-1.8,0-2.6,1.9-4.4,1.9c-2.1-0.6-1.7-1.8-4-1.8c-2-1-0.3-1,0.9-1.7c-0.1-0.9-2.2-1.3-3.1-1.1
					c-1.7,1.3-3.9-1.5-6,0.3c-2.9,1.4-6.5,1-9.2-0.3c-1.1-0.1-2.2-0.1-3.2-0.1c-2.4-1-5.6,1.7-6.1-1.5c-0.6-0.1-0.9,0.1-1.6,0.1
					c0-1.1,4.2-0.4,2.4-2.2c-1-0.4-0.2-1.7-1.6-0.9c-1.4-0.3-0.5-0.8-1.9-0.4c-1.7-0.9-3.9-0.5-5.8-0.5c-0.5,0.3-1.4,1.2-1.5,0.3
					c0.9-1.2,0.7-1.3-0.6-1.2c-0.2-0.8,0.5-0.6,1.1-0.8c2-1.2-4.4-1.6-3-0.3c0.5,0.2,1.4-0.1,1.4,0.6c-1.2,0-5.8,0-2.5-1.2
					c-0.1-0.8-1.9-1.6-2.8-1.6c-3.2,1.1-0.6-1.6-4.2,0.6c-1.1,0.2-1.8,0.2-2.7,0.9c-1,2,3.4,0.5,3.9,0.4c1.2,0.3,2.3,0.3,3.5,0.1
					c3,0-3.9,1.3-4.5,1.6c-1.1,0.9-1.2,0.8-2.8,1c-1.5-0.3-3.1,0.8-4.5,1.2c-2.5,0-5.2-1.1-7.6,0.1c-2.2,0.3-5.8-0.2-7.6,1
					c-0.9,0-1.9-0.5-2.4,0.3c0,2.1-2.8-0.6-2.8,1.2c0.7,1-1.3,1.1-1.9,1.1c-0.4-1-2.9-1.4-3.6-0.8c0,2.4-4.4-1.3-3.1,3.1
					c-0.4,0.3-1.7-0.1-2.2-0.2c-0.9-0.4,0.3-0.8-0.2-1.4c-0.9-0.1-2.6,3.1-2.6,1c-0.5-0.7-1-0.1-1.8,0.3c-1.1,1.4-2.4,1-2.7-0.8
					c0.5-0.3,1.8-0.9,1.8,0c1.4,0,1-0.3-0.1-0.6c-0.4-1.4-2.7,0.2-3.8,0.2c-0.6,0.6,0.3,0.6,0.8,0.7c2.4,1.3-3.2,1-2.2,2.8
					c1.1,0.9,1.5,0.8,1.1,2.2c0,1.6,1.1,1.2,1,2.3c0.8,2.5-2.4,2-3.8,3.5c-3.1,0-0.2-1.6,1.1-1.9c1.5-1.1-1-3.3-0.3-5.2
					c-0.2-1-1.7-0.9-0.8-1.9c3.8-2.4-2.9-1.6-3.4-2.2c0-1.1-0.3-0.4-1-0.1c-1.6,0.3-1.9,1-2.9,2.3c-0.9,0.4-2.5,0.2-2.9,1.3
					c0,3.8,0.9,1.6,3.2,3.4c1.4,0.2,1,1-0.1,1c-1.6-0.5-2.9-1-4.5-1.4c-2.7-1-5.8-1.4-8.5-1.4c-2.6,1,1.1,1.6-1.9,2.2
					c-1.2-0.8-0.6-1.7-2.2-0.4c-1.8,0.3-3.2,0.4-5.1,0.4c-0.4,0.2-2.4,1-2.5,0.4c0.2-0.3,1.4-1.1,0.4-1.1c-2.9,0.6-5.6,0.9-8.2,1.9
					c-1.2,0-2.8,0.2-3.3,1.4c-0.8,0.5-2.9,0.4-3.8-0.1c-0.2-1.1,1.6-0.2,2.2-0.8c0-2.1-2.9-1.5-4.2-1.5c-0.6-0.3-2.2-0.9-1.5,0.4
					c1.1,0.8,0.6,2.2,0.6,3.4c-0.3,0.2-2.1-0.9-2.8-0.6c-1.2,1-3.8,0.8-4.1,2.3c1.9,3.5-7.2-1.6-4.9,1c2.5,1.8-0.4,1.7-1.8,0.9
					c-2.4-0.5-1.7-0.3-1.7-2.7c-0.8-1.5,2.6-0.5,3.6-0.3c1.7,0,3.3,0,5,0c0.9-0.4,3.9-1.6,2.2-2.8c-3.5-1.1-7-2-10.5-2.9
					c-2,0.1-2.3,0.3-3.8-0.9c-1.9,0-2.2,0.1-3.1,0.1c-1.7-2.1-5.8-2.9-8.2-1.5c-0.2,0-0.4,0-0.6,0c-0.2-1-0.8-0.6-1.7-0.4
					c-1.1,1.1-2.3,0.5-3.8,0.5c-2.3,0.8-4.7,0.7-7.2,0.7c-0.5,0.3-0.3,0.8-0.8,1.1c-1.3-0.6-3.6,1.1-1.6,1.1
					c0.3,1.7-1.7,0.5-2.3,1.4c-0.3,2.2-2.4,1.2-4.1,1.8c-2.5,0.3,0.4,2.5-2.8,2.6c-1.2,1.2-1,1.3-2.8,1.3c-1,0.5-2,2.3-3,1.6
					c-0.5,0-1.2,1-1.6,0.4c-0.5,0-0.1,0.7-0.5,1c-1.8,0.1-2.4,0.9-4.2,1c-2,0.8-0.2,1.7-0.2,1.3c2.5,0,0.9,0.4-0.4,0.5
					c-1.3,1.2,1.8,1.6,2.2,1.7c0.2,1-1.5,0.4-2,1.1c0,2.9,4.4,3.3,6.4,1.9c1-0.6,2.4-0.5,3.1-1.4c1.2-0.5,1.7,2.5,1.9,3.1
					c1.2,1.5,2.5,2-0.2,2.1c-1,0.6-1,2.1-2.4,0.6c0-1,1.3-0.3,1.3-1.2c-1.4-0.8-0.1-1.4-0.4-1.6c-0.8-1.4-2.1,0.3-3.4,0.3
					c-2.4,1.2-0.2,3.5-0.1,5.3c-0.9,1.4-2.8,0.1-4.2,0.8c-2.9,0.4-3,1.5-4.8,3.3c-0.8,1.4-5.2,1.4-3.2-0.7c0.9-2.5-1.9-1.1-2.5-1.7
					c-0.3-2.3-1.6-2.1-3.1-3.5c-0.9-1.5-1.2-1-3-1c-1-0.7,1.1-0.8,1.6-1.2c1.3-2.5,1-2.2-2.1-2.3c0-0.8,2.5-2,0.4-2
					c-2.1,1-3.9-0.3-3.9,2.8c-0.4,0.1-1.6-0.5-1.7-1c1.8-1.7-3-0.5-1.8,1.5c1.1,0,0.3-1.6,1.6-0.4c1.9,0.4-0.6,1.1,1.7,1.6
					c0.3,1.7-1.5,1.9-2.7,1.5c-2.5,0-2.3,2.2-4.8,1.6c-1.4,0.2-0.3,1.8,0.3,2.4c0.4,1-0.8,1.1-1.3,1.6c-0.2,2.6,4.4,0.7,5.7,0.4
					c1.8,0,1.7,0,2.5-1.6c0-1-1.8-1.4,0.1-1.9c0.9-0.7-0.1-2.1,0.7-1.9c0.3,0.9,0.4,0.9,1.4,1c2.2-0.5,1.4,0.6,2.9,1
					c0.9,1.4-3.4,0.2-3.2,2.1c2.3,0.9-2.1,0.9-0.6,1.8c2.8,0.2,1.4,0.6,0,1.9c-2.2,1.1-0.1,1,1,0.5c1.7,0.1,2.4-0.5,4.4-0.4
					c1.6-0.2,3.1-0.3,4.7-0.4c1-0.4,2.2-0.6,1.4,0.9c-2.3,0.6-2.7,2-5,0.6c-2.4,0-0.2,2.8-2.7,1.6c-1.1,0-3.5-0.3-3.2,1.4
					c0.3,0.2,0.6,0.4,0.8,0.7c1.4,0.1,1.3,0.3,2.3,0.8c0.6-0.4,1.8,1.2,2.9,1.6c0.8,0.8,0.1,3.1-0.1,3.9c-1.1,1.5-3.9,0.8-5.8,0.8
					c-0.7-0.2-5.8-0.8-6-0.3c-1.9,1.1-2.2,0.6-1.1,3.2c0.2,1.7,0.1,2-0.5,3.5c-2,2.4,0.8,1.5,0.8,3.1c-1.6,3.1,2.4,0.2,3.7,2.1
					c3.6,2.3-2.9,5.4-4.7,6.5c-0.4,0.8-1.5,3.1-0.9,4.1c-0.1,1-1.6,2.1-2.3,2.5c-0.8,1-2.4,0.8-3.6,1.4c-1.1,1.8-3.1,3.1-3.1,5.2
					c-0.1,0.1-0.1,0.2-0.1,0.2c-1.7,1.4-1.7,1.1-2.5,3.2c-0.9,1.1-2.1,2.4-1,3.8c1.6,0.9,1.2,2.9,1.3,4.4c-0.3,1.1-0.8,1.9-0.9,3.1
					c-0.7,1.7-2.2,2-0.3,3.2c0.3,0.6,0.2,1.4,0.5,1.8c1.6,0.4,0.4,0.6-0.1,1.1c0,0.3,1,1.9,1.2,2.1c3.2,0,4.4,3.1,5.1,5.5
					c0.4,0.2,1.4,1,1.6,1.4c2.2,1.1,4.1,2.5,6.1,4c3.1,1.1,4.4-0.4,7.5-0.7c1.7,0,3,0.5,4.4,0.5c3.6-1.6,11.3-5.1,13,0.2
					c0.9,1.2,2.1,0.6,3.5,0.4c5.4-1.9,4.2,4.8,2.7,7.6c-1,4.2,4.4,5.5,5.1,9.1c0.2,0.3,0.3,0.5,0.5,0.8c0.2,1.9,2.3,3.1,1,4.9
					c0,1.9,2,3.1,1,5.4c-1.9,2.2-1.9,1.7-2.4,5.1c-2,3.2-0.3,5.5,1.7,8.2c0.5,1.6,1.6,2.8,2.4,4.3c0.1,3.1,0.4,6.4,2.1,9.1
					c1.2,1.1,4.5,5.6,4.5,7.2c-0.6,1.2-0.6,1.2,0.1,2.4C1613.8,347.6,1614.6,347.2,1616,347.9L1616,347.9z M1822.1,349
					c-0.3-0.4,0.4-2.1,0.9-1.2C1822.8,348.4,1822.6,348.8,1822.1,349z M1887.8,350.3c0.5,0,0.4-0.5-0.1-0.5
					C1887.7,349.9,1887.7,350.1,1887.8,350.3z M1836.9,355.2c1-0.3,2.2-1.5,3.1-2.1c1-0.1,2.9,0.2,3.5-0.6c0-3.3,1.9-6.1,4.3-8.4
					c0.6-0.2,1.1-2.3,1.2-2.8c0-2.3,1.4-4.1,0.6-6.4c-1.6-1,0.7-4.7-0.9-4.2c-0.6,0.9-3.2-2-3.7-2.5c0-0.8,0.1-1.2-0.7-1.7
					c-1.8,0-2.8-3.2-4.4-4.1c-1-1-2.3-0.6-2.9-2.1c-0.2-2.3-1.5-3.7-1.6-6.1c-1.4-2.8-3.1,0.5-3.2-3.2c-0.3-1.1-1-3.1-2.1-3.8
					c-0.9,0.1-1.4,3.1-1.4,3.7c-0.3,1.3,0.3,8.9-3.1,7.7c-0.8-0.8-0.8-1.8-1.9-1.1c-1.3,0-3.9-2.2-5.1-2.9c-1.4-2.4,3.1-0.2,1.2-1.9
					c-0.2-0.4-0.1-0.9,0.4-1c1.4-2.4-1.5-1.7-0.2-3.1c0.7-2.5-2.2,0.1-1.5,0.6c0.2,1.9-5.5-1.2-6.2-1.2c-1.2,0.4-0.9,0.6-0.2,1.3
					c0.1,0.8-1.5,0.4-1.8-0.1c1-2.3-3.1-0.6-1.7,0.4c1.8,0,1.6-0.3,0.3,2c-1.4,0.7-1.2,1-1.5,2.4c-1.1,1.1-2.4-0.4-3.1-1.1
					c-3.5-1.2-3.5,2.4-5.8,1.7c-0.5,0-0.6,0.2-0.4,0.8c1.4,0.6,0.1,0.9-0.8,1.1c-0.3,1-0.3,1.1-1.1,0.4c-2.1-0.1-0.9,2.5-2.2,3.1
					c-1.2,1.7-2.1,2.5-4.4,2.5c-1.3,0.4-2.5,1.5-3.9,1.1c-1.2,0.2-3.5,1.7-4.4,2.5c-1.7,0.2-1.2,3.6-2.1,4.8
					c-0.3,0.1-0.4,0.1-0.7,0.3c-0.4,1.1,2.5,6,3.2,7.2c0.2,0.8,0.3,1.6,0.5,2.4c1.3,2.1,1.6,3.2,0,5.1c0,2.3,4.2,2.7,5.8,2.3
					c3.4-2.2,5.4-1.7,9.2-1.7c0.9-0.5,1.2-1.4,2.4-1.9c1.9-0.7,3.1-0.8,5-1c2.1-1,3.9-1,6.2-1.2c3.1,1.5,5.1,0.6,6.8,4.1
					c0.4,3.2,2.4,0.3,3.9-0.8c1.1-0.3-1.1,2.3-1.1,2.7c0.3,0.4,1.3,1,1.8,1.3c1.9,0,1.6-1.1,2.9,0.8c0,3.8,4.4,3.1,6.9,4.2
					c0.6,0,1.2-0.3,1.9-0.5C1835.3,354.2,1835.6,354.3,1836.9,355.2z M1838.7,355.7c0.1,0,0.2-0.1,0.3-0.1
					C1839.6,355.2,1837.8,354.8,1838.7,355.7z M1832.9,357c0.7-0.2,0.6-0.6,0.6-1.2C1833,355.2,1832.3,356.7,1832.9,357z
					 M1450.7,362.9c0.2,0,0.3,0,0.5,0C1451.3,361.8,1450.2,362.2,1450.7,362.9z M1836.9,363c-1.7-1.1-4.9-7.5,0-4.7
					c0.6,0,2.8-0.4,3.1-0.9c0-0.3-0.2-1-0.2-1.2c1.8-1.1,1.2,3.9,1.2,4.4c-0.5,0.9,0,1.7-1.4,1.7
					C1838.7,363.1,1838.1,362.9,1836.9,363L1836.9,363z M1453.2,364.2c0.5-0.3,1.5-4.4,0.9-5c-1.6-0.1,0.2,2.2-1.3,2.7
					C1452.3,362.4,1452.6,363.9,1453.2,364.2z M1453.3,365.5c0.1,0,0.3-0.1,0.3-0.1C1453.6,364.8,1453.2,364.6,1453.3,365.5z
					 M1876.7,368c-3.9-1-6.4-0.6-1.7-4.4c0.1-0.2,0.2-0.3,0.3-0.4c3.2-1,4.6-2.1,6.5-4.5c0.2-1.5,1.1-1.8,2.3-0.8c0.3,0,0.8-1,1-0.3
					c0.9,0.4,2.3,1.4,2.2-0.6c-0.8-0.7-3.2-1-2.1-2.3c3.5-1.5-0.9-5.3-2-7.2c0.3-0.9,3.7,1,3.7,2.4c0.6,2.1,0.9,0.1,1.8,1.1
					c0.6,1.2,0.8,1.7,2.2,1.8c4.4-1.7,2.8,1.9,0.6,2.5c-0.5,0.3-0.4,0.6-0.5,1.2c-1.4,1.8-2.2,3.1-4.4,2.3c-1.1,1.1-1.4,2.1-2.8,3.1
					c0,0.2,0,0.2,0.3,0.7c0,0.8-1.4,0.4-2.1,0.7C1879.8,365.2,1880.2,367.8,1876.7,368L1876.7,368z M1450.2,373.7
					c0.4-0.1,0.4-0.2,0.6-0.5c2.5-1.2,0.3-2.5,0.3-1.7C1450.4,372.3,1450.2,372.5,1450.2,373.7z M1451.1,376.2
					c0.7-0.2,0.7-0.9-0.1-0.4C1451,375.8,1451,376,1451.1,376.2z M1452.6,378.7c0.3-0.1,0.3-0.2,0.3-0.5
					C1452.4,377.6,1452,378.4,1452.6,378.7z M1453.9,379.8c1.5-0.4-0.5-1.2-0.5-0.2C1453.6,379.7,1453.8,379.7,1453.9,379.8z
					 M1457.7,379.9c1.2-0.3,1.7-2.6-0.6-1.5C1455.7,379.7,1456.6,379.1,1457.7,379.9z M1469,381.6c0.3-0.1,0.5-0.2,0.8-0.3
					C1469.7,380.3,1468.1,381.3,1469,381.6z M1463.8,383.3c-1.4-0.4,0.3-0.8-0.4-1.5c-1.7,0,0.3,1.4-1.3,1.4c-1-0.4-2.4-0.3-3-1.4
					c-1.3-0.2-3.8-0.2-4.7-1.5c-0.5-0.1-0.8,0.2-1.4,0c-0.6-1.7-3.5-2.8-3.4-4.9c0.4-0.5,0.1-2.4,0.1-3.1c-1.2-1-0.4-1.9,0.3-3
					c0.8-0.3,1.9,0.4,2.3-0.2c-1-1.7-4.9-1-1.7-2.8c0.4-1.5,1-1.5-0.5-1.7c0-1.1,1.8-1.5,1.8-2.5c-0.9-1.2,0-1.8,0.5-2.9
					c0-1.7-0.1-1.8,0.8-3.4c0-1.8-1.5-3.7,0.3-4.9c1-2.1,2.4-4.1,2.4-6.5c0.9-1.3,0.3-2.5,0.3-4.1c0.6-1.6-0.1-2.5,0.8-3.8
					c0.8-3.1,1-5.5,1-8.5c0.2-1.6,1.2-1.9,0.5-3.7c0-2.4,0.9-3.8-1.7-5.1c-0.9-0.7-1.8-1.9-3-2.1c-1.7-0.8-4.9-2.2-5.8-3.8
					c-0.4-2.4-0.5-2.5-2.1-4.4c-0.8-2.9-2.9-5.6-4.5-8.1c-0.6-0.5-2.8-1.4-1.7-2.3c0-1-1.7-2.4,0.3-3.1c0.5-0.4,2.3-2.1,1.2-2.6
					c-3.2,0.4-0.5-2.9,0-4.1c0.2-2.5,1.7-1,2.6-2.8c0.2-1.8,0.8-1,1.8-1.7c0.3-0.4,0.5-0.8,0.8-1.1c0-2.1-1.1-11.7-5.1-7.9
					c-0.7,3.1-1.6,1.1-3.8,0.3c-2.4,0-2.4-2.1-4.5-2.4c-0.8-0.3-1-0.7-1.4-1.5c-0.3-3.7-5.2-5-8.3-5.4c-2.9-1-4.2-2.9-6.7-4.3
					c-1.1-0.3-1.9,0.3-2.9,0.9c-2.2,0.1-3.4-0.7-5.2-1.6c-2.7-0.3-4.5-2-7.1-2.5c-1.5-0.8-2.9-1.9-4.2-2.9c-0.7-1,1-3.1,0-3.6
					c-1.1-2.6-4.4-4.4-6.5-6c-0.3-0.7,0.1-1.2-0.3-1.8c-1.1-0.5-1.5-0.7-2.1-1.7c-2.3-1.1-3.4-2.5-4.3-5c-0.3-2.3-4.8-2.9-2.3,0.9
					c0.9,0.4,1.7,0.4,2.2,1.2c0.2,2.9,3.1,3.6,3.8,6c0.8,1.1,0.4,2.3,2,2.2c0.3,0.3,0.6,2.4,0.4,2.6c-1.1,0.3-1.6-0.8-2.2-1.5
					c-0.4-0.3-0.4-0.3-1.9-1.1c-0.7-0.8-0.3-1.9-1.1-2.8c-1-0.5-4.1-1.6-4-3.1c1.5-1.6,0.7-1.5-1.1-2.8c-1-1.2-2.4-3.2-2.5-4.9
					c-0.6-0.9-1.5-1.6-2.3-2.3c-2.3-0.9-6.1-1.8-6.1-4.8c0.2-0.4,0.8-1.6,0.1-1.9c-3.7,0-2.9-1.8-4.5-4.2c-0.2-0.9,0.1-1.8-0.1-2.7
					c-0.8-1.8-0.2-1.7,0.3-3.5c0.2-3.5,0.2-3.5,0.3-4.3c-0.4-1.3-1.2-3.8-2.9-3.9c-0.3-0.5-1.8-1-2.5-1.3c-1.4-1.8-1.3-4.2-3.9-4.8
					c-0.1-1.5,0.9-1.3-1.3-1.3c-1.8-0.8,0-2.2-2.7-2.7c-0.4-0.4-1-1.1-1.6-0.3c0.1,2.4-1.8,0.2-1.1-0.6c0-0.6-3.4-3.2-0.5-2.4
					c1.4,1.6,0.1-1-0.3-1.4c-1.7-1-2.3-0.6-4.2-0.6c-0.6,1.2-0.6-0.2-1-0.5c-1.6-0.2-2.4-0.6-3.7-1.6c-0.9-1.4-2.4-0.3-3.8-0.5
					c-2.4-0.9-4.7,0-7.1-1.1c-0.8,0-1.6,0.3-2.3,0.3c-0.9-1.9-3.1-1.5-4.5-0.4c-0.9,1.2-5.1,3.9-5.1,0.8c2.1-3.8-3.2,2.5-3.7,2.9
					c-1.3,0.5-2.5,1.2-3.8,1.7c-1,1.1-2.2,1-3.4,2.1c-0.6,0.3-2.4,0.1-2.5,1c0.3,0.5,0.3,1.4-0.3,0.7c0-1.9-1-0.2-1.9-0.2
					c-0.9-0.2-2.8,0.2-3.1,1c-0.7-1.2-3.2,1-2.9-0.3c2.1-1.2,4.1-2.2,6.5-2.2c0.1-0.1,0.2-0.1,0.3-0.2c1.3-2.1,4.2-0.6,4.8-3.5
					c0.9-1.2-3.1-0.5-3.6-0.6c-1.7-0.7-2.1-0.1-4-0.1c-0.5-0.9,1.1-2.3-0.2-3.1c-1,0-1.7,1.6-2.7,0.9c-0.2-1.9-0.3-1.6-2.4-1.7
					c-0.9-0.5-0.9-0.7-1.9-0.9c-0.4-0.4,2.8-3.1,3.6-3.1c1.1,0.4,2.3-0.3,3.5-0.4c2,0.3,2-1.9,0.9-1.9c-2.5,0.8-5.3,0.7-7.9,0.3
					c-1.2-0.4-1.1-1.2-2.4-1.5c-1-1.1,5.4-1.9,6.3-1.9c0.8,0.9,1.7,1,2.8,0.7c2.1-2-0.5-1.3-2.5-1.7c-1.5-1.2-2.7-1.3-4.7-1.7
					c-1.6-1.6,2.4-1.3,3-1.4c0.6-0.2,1.4-0.3,2.1-0.4c2.8-2.4,5.3-1.6,8.5-2.6c1.9-0.3,3.5-1.5,5.3-0.4c0.7-0.2,0.7-0.2,1-0.2
					c1.3,0.6,4.4-0.1,4.8,1.1c0.8,0.2,1.5,0.3,2.4,0.2c6.9,0,14.6,0.3,21.3,1.7c1.8,0.8,8.5,2.2,9.1,0.1c1.7-1.2,2.2-0.9,3.8-0.7
					c0.8-1,1.6-0.9,2.9-0.9c1.1,1.3,2.1-0.9,3.8-0.2c2.1,1.1,2.9,2.4,4.5,0.5c1.4,0.1,1.1,1.7,3.1,0.9c2.8-0.8,5.8,0.3,8.8,0.4
					c1,1,6.7,0.5,3,0.1c-0.9-0.3-1.3-0.8-1.2-1.7c-0.3-0.5-2.9-1-1.3-1.7c-0.1-0.5-2.7-0.7-1-1.4c0.3-0.3,0.7-0.5,1-0.8
					c0.2-0.5-3.9,0.7-4.1,0.9c-0.5,1.4-1,1.4-2.5,1.5c-2.8,1.1-3.1-0.2-5.1-1c-0.4-0.5-1.4-0.3-2.1-0.4c-0.3-0.7,0.9-1.1,1.3-1.6
					c3.4-0.5-0.8-2.8,2-2.5c1.9-0.3,4-0.3,6,0c1.5,1.6,7.1-1,8.7,1.4c-0.1,0.3,1.5,0.4,1.7,0.5c0.6,1.7,1.2,0.9,2.7,0.4
					c1,0,1.2,0.1,2.4,0.1c0.1,1,4.9,0.7,6,0.8c-0.1-0.6-0.3-2.2,0.6-2.2c1,0.8,0.6,1,1.7,0c0.9,0,4.4-0.5,3.6,1
					c-1.6,1.2,0.5,2.4,1.2,3.8c0.8,0.8,1.5,0.1,2.3,0.1c1.4,0.9,5.5,1,2.3,3.1c-0.5,0.6-1.1,2.2-1.3,0.2c-0.2,0.1-0.2,0.1-1,0.4
					c-1.1,0-6.4-0.3-2.8,1c1.7-0.1,2.8,0.4,4.4,0.6c1.6-0.7,3.1,0.5,2.3-1.8c0.1-1.9,1.8,0.7,0.8,1.1c0.2,0.9,5.8,1.5,3.5-0.4
					c-0.6-0.1-3.9-0.3-2.4-1.4c1.9-0.2,2-1.5,3.8-0.6c3.7,0-1.3-2.4,2.8-3.1c2.1-0.8-0.1-0.8-0.1-2.3c1-2.5,1-2.2,3.8-2.3
					c1.7,0.3,7.6-0.8,4.2,1.7c-1.8,0.8-2.3,0.9-4.2,0.8c-3.2,0-0.2,1.8,0.5,2.5c1.4,3.2,0.2,2.4,4.9,2.9c0.3,0.5,0.2,1.2,0.8,1.4
					c2-1.1,2-0.9,3.9,0.4c1.2,1.6,0.9-0.6,2.2,0.2c2.4,0.3,0.5-4.9-0.4-3c-2.4-0.3-5.4-0.3-6.1-3.1c1.8-2.6,5.1-4.5,8.6-3.4
					c0.8,1-2.8,1-2.1,2.9c0,1.7-0.8,1.7,1.7,1.7c1.4-0.4,0.3-0.9-0.5-1.1c-2.9-2.4,3.9-3.1,4.8-3.5c1.7,0.1,3.2,1,4.4,0.1
					c1.8,0,6.1-0.5,7,1.5c1.2,1.1,2.7,0.1,2.9,2c0.4,0.2,0.6,0,1,0c2.1,1.1,0.8,0.6,2.6,0.1c3.1,0-0.9,2.3,2.1,2.4
					c0.4-0.2,0.6-0.5,0.9-0.9c2.2-1.3,3.1,0.3,3.9,1.7c0,0,5.4,0.3,3.6,1.4c-3.2,0.6,1.2,1.2,1.9,1.4c2.4,0,3.7,1.1,5.8,1.9
					c4.3,0,1.3,1.6-0.8,1.7c-0.8,0.5-0.8,2.8-2.1,1.3c-1.1-2.5-1-1-3.7-1.5c-0.7-0.4-2.8-1.2-3.4-0.3c0.2,0.6,1.7,1.5,2.3,1.9
					c1.2,0.2,5.5,1.4,3.8,3.6c0.4,0.5,0.6,1.6-0.5,1c-0.2-0.7-0.2-0.5-0.7-0.2c-1.7,2.7-5.8-0.3-8.1-0.3c-3.1,1-3.9-3.6-6.9-2.7
					c-1,0-5.5-0.6-5.3,0.5c2.3,1.1-0.3,0.9-1.3,1.5c-0.5,0-2.4-0.2-1.6-1c2.1-0.4,0.3-3.8,3.1-3.1c0.2,0,5.1,0.4,4.4-0.7
					c-2.1-0.6,2.8-2,3.1-2.4c-0.2-0.3-0.4-0.6-0.6-1c-0.8-0.6-2.4,0.1-3.5,0.2c-0.3,0.3-1,1.4-1.6,0.9c0-1.2,1.9-2.9-1-2.3
					c-1,0-2-2.2-2.7-1.7c-0.3,1.5-2.1,1-1.7,0.2c-0.3-0.6-1.1-0.1-1.6,0.1c-0.7,0-3.8-1.1-3.6-0.3c1.6,0.6,1.2,1.8-0.3,2.2
					c-0.1,1.3,2.4,0.5,0.8,2.4c-1.5,0.5-2.2,1.4-3.4,2.3c-0.7,0.1-1.2-1.4-1.7-0.1c0.5,0.4,1,0.1,1.5,0.5c1,0.3,5.3,1.7,4.5,3.2
					c-1.7,0.2-2,0-3.6-0.6c-2.5,0-5.7,3.1-5.7-1.7c0.5-1.4,1-2.4,2.2-1c1-0.1-1.1-2.4-2.7-1.4c-0.2,0.4-0.4,0.8-0.6,1.2
					c0,2.1-2.1,3.8-4.1,2.5c-1,0-3.4,1.7-4,2.2c-0.4,0.2-0.4,0.2-1.7,0.4c-1.5,1.4-4.8,4.1-3.1,6.1c2.7,0.1,2.7-0.1,3.2,2.6
					c0.8,1.1,4.4-0.1,5.7-0.1c1.6,1,2.3,2.4,4.2,2.3c0.9,0.2,1.2,0.7,2.1,1.1c5.8,0.3,5.8-0.4,6.2,4.6c1.2,1.5,3.8,2.7,5.5,1
					c0.6-1.3,0.3-3-1-3.8c-0.3-0.4-0.3-0.6,0.2-0.9c2.9-0.3,6.6-1.7,4.4-5c-1.4-0.8-4.5-1.4-1.9-3.1c3.8-1.2-2.4-5.1,3.5-5.1
					c0.3,0.2,4.1,1.1,3,0.1c-0.1-0.8,0.8-0.8,0.7-0.1c2.4,0.4,4.3,1.9,6.7,2.2c0.8,0.2,1.7,0.3,1.7,1.1c-1.5,2.3,0.6,1.8,1.8,3.6
					c1,0,4.5-0.8,5.1-1.6c0-3.4,2.4-1.1,3.1,0.5c1.6,0.9,3.5,2.8,3.5,4.6c1.9,2.3,1.1,1.6,3.9,1.8c1.4,0.9,2.5,0,2.7,1.7
					c1,1,4.9,1.4,3.2,3.8c-0.8,0.4,0.5,0.4,0.6,1.5c1.1,1.8-1.3,0.3-1.2,1.4c0.5,0.5,0.9,1.5,1.6,1.5c0.9-0.6,2.9-1.2,2.8,0.4
					c-0.9,0.9-0.3,2.5,1,1.7c1.6,0,0.3,3.9-1.3,2.4c-1.3-2.5-1.5,0.8-3.2-0.6c-0.2-0.3-0.4-0.8-0.9-0.8c-0.8,0.5-5.1,0.5-5.8-0.3
					c-0.1-0.8,1.4-1.2,1.9-1.6c0.2-0.3,0.2-0.3,0.9-2.2c1.8-2.1,1.7-2.4-1-1.8c-2.4,2.3-4.7,1.2-7.8,1.7c-0.5,1,3.2,0.8,1.7,1.9
					c-0.9,0-3.7-0.1-2.8-1.5c0-1.5-5.1-1-5.8,0.3c-1.5,1.4,2.1,0.6,2.7,0.5c0.7,0.2,1.6,0.6,1.4,1.4c-1,0.7,0.3,0.9-0.7,1.6
					c0,0.3,0.8,1.9,1,2.2c1.5,0.3,2.8,1.2,4.4,0.4c0.5,0,0.7,0.3,1.1,0.4c1-0.1,2.3-1.3,2.4-0.1c-1.6,1.5-4.7,1.4-6.5,2.2
					c-1.8-0.2-2.2,2.5-4.1,0.9c-1.3-1.7,2.6-2.4,1.5-2.9c-0.9,0.8-1.7,0.8-2.8,0.8c-0.6,1.5-2.1,1.2-3.5,1.2
					c-1.9,1.6-3.4,1.6-3.8,4.1c-0.7,1.5-3.4,2.1-4.8,2.2c-0.8,0.5-0.5,2.8-1.9,2.7c-0.1-0.1-0.1-0.1-0.3-1.2c-0.8,0.2,0.3,4.1-1.4,4
					c-0.1-0.2-0.1-0.2-0.1-0.8c-0.5-0.9-2.5-1.6-1.3,0.4c0,1.4,1.6,1.1,0.4,2.4c-0.1,0.4,0.1,0.6,0.2,1c-1.2,0.4-0.1,0.9-0.5,1.5
					c-0.8,0.3-1.7,0.6-2.4,1c-3.8,3.2-7.8,3.8-4.7,9c0.3,1.1,2.2,5.4,0.2,6.3c-2.4,0-1.7-2.4-3.3-3.2c-1-1.3-0.2-2.2-0.8-3.4
					c-2.3-2.1-1.5-1.1-4-1.1c-1.8-1.4-4.7-0.8-6.9-0.8c-0.6,0.6,0,1.5-1.1,1.4c-1.4,0.6-1.9,0.5-3.1-0.4c-1.5,0-2.9-0.2-4.4-0.2
					c-1.7,0.9-3.8,2.1-5.2,3.2c-0.8,1.2-0.1,2.8-0.5,4.2c-1.7,2.8-0.9,6.5,1.3,8.8c0.6,1.1,0.6,1.1,0.8,1.5c1.8,2.2,7.9,1.5,9.2-1
					c0.3-3.5,3.8-3.1,6.5-3.1c1.1,0.8-0.4,2.3-0.9,3.1c0,2.2-0.6,4.2-1.7,6.1c0,1,0.8,0.5,1.4,0.3c1.3,0,2.1-0.9,3.5-1
					c0.3,1.4,2.9,1.3,4.1,2.4c0.5,1.3,0.5,1.5-0.2,2.7c-0.1,2.4-0.9,5.8,2.3,6.9c0.4,0.8,1.6,0.9,2.4,0.9c2.4-1.3,3.2-2.2,5.7,0.3
					c3.3,1.1,2.8-4.1,5-4.1c1.1-0.5,1-0.5,2.5-0.5c0.5-0.3,4.4-3.1,3.5-0.3c-2.3,1,1.4,1.4,1.4-0.5c0.7-1.2,1-1.8,1.3-0.1
					c0.6,1,1.8,0.6,2.6,1.4c0.9,1.4,2.9,0.5,4.4,0.9c2.6,2.1,1.3-2.2,3.1-0.5c1.7,0.4,2.6-0.9,2.7,1.1c1.4,1,1.4-2.1,2.4-0.6
					c0,1.4-0.4,1,0.4,2.1c0.5,2,3.8,1.3,4.1,3.9c0.6,0.9,2.8,1.9,4,2c1.5-0.6,1.7,0.4,3.1,0.4c0.8-0.7,0.5-0.4,1.3,0.1
					c3,0,4.4,2.8,4.7,5.1c1,1.7,1.7,1.5,1.6,3.5c-1.5,1.3,0.9,0.5,1.7,0.9c1.2,0.2,0.6,0.2,1.1,1c1.9,0.1,4.9,0.5,6.5,1.8
					c0.4,1.7,0.9,0.8,2.3,0.8c1,0.4,1.4,0.8,2.5,0.6c0.5,0.2,0.9,0.5,1.5,0.5c2.9-1,4.9,2.3,7.2,3.5c1.2,0.2,2.4-0.2,2.8,1
					c1.2,1.9,1.2,5.5-1,6.7c-1.4,1.7-2.5,3.3-3.8,5.1c-0.6,0.3-1.4,0.3-1.8,0.9c0.3,2.8,1,6.4-1.1,8.6c-0.1,0.3-0.1,0.3-0.2,1.9
					c-0.6,1.7-2.1,2.4-2.1,4.2c-0.6,0.8-1.2,0.9-1.8,1.9c-1.4,0.6-2.8-0.6-4.4,0.3c-1.4,1.5-2.7,1.4-4.4,2.2c-1.7,1.4-1.9,1-2.5,3.1
					c0.4,3.4-1.4,4.3-2.7,6.9c-1.1,0.6-1.9-1.2-1.9,0.8c-0.3,0.7-1.1,0.9-1.7,1.6c-0.4,2.2-2.2,4.5-4.4,5.5c-1.1,0-2.3,0-3.4,0
					c-0.2-0.1-2.3-1.2-2.2-0.3c1.4,1.3,0.9,0.6,1,2.1c0.3,0.2,0.9,0.5,1,0.7c0,3.5-4.3,3.8-7,4.4c-2.5,0-2.1,0.1-2.5,2.4
					c-1.5,2.3-3.1,0.6-5.1,0.8c-1.6,1.5,3,2.3-0.2,4c-1.9,1.8,0.4,2.4-3.1,3c-4.2,2.5,3.6,2.5,1.1,5c-1.4,0.4-1.7,0.8-2.8,1.8
					c-0.6,2.6-3.8,1.3-1.6,4.7c-0.2,0.4-2.4,0.6-1.5,1c2.5,0,1.6,1.2,3.8,2.2c1.1,0.9,2.4,1,3.8,1c1.7,1.1-3.1,0.4-3.2,2.2
					C1464.2,383.3,1464.2,383.3,1463.8,383.3L1463.8,383.3"/>
				<path id="path382_1_" class="st0" d="M1455.8,167.3c4.2,0.1,8.1,1.7,10.8,4.5c2.7,2.7,4.4,6.5,4.5,10.6c0,0.2,0,0.3,0,0.5
					c0,0.8-0.1,1.6-0.2,2.3c-0.1,0.2-0.1,0.3-0.1,0.4l-0.6,2.2c-0.1,0.2-0.2,0.3-0.2,0.4c-0.1,0.2-0.2,0.3-0.3,0.5
					c-0.4,0.9-0.9,1.7-1.5,2.6l-4.8,9.5l-6.7,13.1l-1.2,2.4l-1.2-2.4l-6.7-13.1l-4.8-9.5c-0.1-0.2-0.2-0.3-0.3-0.4
					c-0.1-0.2-0.2-0.3-0.3-0.5c-0.5-0.9-0.9-1.7-1.2-2.7l-0.5-1.9c-0.2-0.9-0.3-1.7-0.3-2.7c0-0.4,0-0.7,0-1.1
					c0.2-4,1.8-7.7,4.5-10.4c2.8-2.8,6.5-4.4,10.8-4.5C1455.7,167.3,1455.7,167.3,1455.8,167.3"/>
				<path id="path384_1_" class="st3" d="M1455.7,168.7c7.8,0,14,6.4,14,14c0,1.6-0.3,3.1-0.8,4.5l0,0l0,0c-0.4,1.2-1,2.4-1.7,3.5
					l-4.9,9.6l-6.7,13.1l-6.7-13.1l-4.9-9.6c-0.8-1-1.3-2.2-1.7-3.4v-0.1l0,0c-0.5-1.5-0.8-3-0.8-4.5
					C1441.7,175,1448,168.7,1455.7,168.7"/>
				<path id="path386_1_" class="st4" d="M1718.2,211.4c-3,0-5.3,2.4-5.3,5.3c0,3,2.4,5.3,5.3,5.3s5.3-2.4,5.3-5.3
					C1723.5,213.8,1721.1,211.4,1718.2,211.4z M1718.2,206.3c5.8,0,10.5,4.7,10.5,10.5c0,1.2-0.2,2.4-0.5,3.4l0,0l0,0
					c-0.3,0.9-0.8,1.8-1.3,2.5l-3.6,7.2l-5,9.7l-5-9.7l-3.7-7.2c-0.5-0.8-1-1.7-1.3-2.5v-0.1l0,0c-0.3-1-0.5-2.2-0.5-3.4
					C1707.7,211,1712.4,206.3,1718.2,206.3L1718.2,206.3"/>
				<path id="path388" class="st4" d="M1830.7,321.1c-3,0-5.3,2.4-5.3,5.3c0,3,2.4,5.3,5.3,5.3c3,0,5.3-2.4,5.3-5.3
					C1836,323.5,1833.6,321.1,1830.7,321.1z M1830.7,316c5.8,0,10.5,4.7,10.5,10.5c0,1.2-0.2,2.4-0.5,3.4l0,0l0,0
					c-0.3,0.9-0.8,1.8-1.3,2.5l-3.6,7.2l-5,9.7l-5-9.7l-3.7-7.2c-0.5-0.8-1-1.7-1.3-2.5v-0.1l0,0c-0.3-1-0.5-2.2-0.5-3.4
					C1820.2,320.7,1824.9,316,1830.7,316L1830.7,316"/>
				<path id="path390" class="st4" d="M1615.1,249.9c-3,0-5.3,2.4-5.3,5.3c0,3,2.4,5.3,5.3,5.3c3,0,5.3-2.4,5.3-5.3
					C1620.4,252.3,1618,249.9,1615.1,249.9z M1615.1,244.8c5.8,0,10.5,4.7,10.5,10.5c0,1.2-0.2,2.4-0.5,3.4l0,0l0,0
					c-0.3,0.9-0.8,1.8-1.3,2.5l-3.6,7.2l-5,9.7l-5-9.7l-3.7-7.2c-0.5-0.8-1-1.7-1.3-2.5v-0.1l0,0c-0.3-1-0.5-2.2-0.5-3.4
					C1604.5,249.5,1609.2,244.8,1615.1,244.8L1615.1,244.8"/>
				<path id="path392" class="st4" d="M1491.2,302.2c-3,0-5.3,2.4-5.3,5.3s2.4,5.3,5.3,5.3s5.3-2.4,5.3-5.3
					S1494.2,302.2,1491.2,302.2z M1491.2,297c5.8,0,10.5,4.7,10.5,10.5c0,1.2-0.2,2.4-0.5,3.4l0,0l0,0c-0.3,0.9-0.8,1.8-1.3,2.5
					l-3.6,7.2l-5,9.7l-5-9.7l-3.7-7.2c-0.5-0.8-1-1.7-1.3-2.5v-0.1l0,0c-0.3-1-0.5-2.2-0.5-3.4C1480.9,301.8,1485.5,297,1491.2,297
					L1491.2,297"/>
				<path id="path394" class="st4" d="M1415,197.7c-3,0-5.3,2.4-5.3,5.3s2.4,5.3,5.3,5.3s5.3-2.4,5.3-5.3S1417.9,197.7,1415,197.7z
					 M1415,192.5c5.8,0,10.5,4.7,10.5,10.5c0,1.2-0.2,2.4-0.5,3.4l0,0l0,0c-0.3,0.9-0.8,1.8-1.3,2.5l-3.6,7.2l-5,9.7l-5-9.7
					l-3.7-7.2c-0.5-0.8-1-1.7-1.3-2.5v-0.1l0,0c-0.3-1-0.5-2.2-0.5-3.4C1404.5,197.2,1409.2,192.5,1415,192.5L1415,192.5"/>
				<path id="path396" class="st4" d="M1455.7,174.6c4.5,0,8.1,3.7,8.1,8.1s-3.7,8.1-8.1,8.1c-4.5,0-8.1-3.7-8.1-8.1
					S1451.2,174.6,1455.7,174.6"/>
				<path id="path398" class="st3" d="M1455.7,176.6c3.4,0,6.2,2.8,6.2,6.2s-2.8,6.2-6.2,6.2s-6.2-2.8-6.2-6.2
					C1449.5,179.3,1452.3,176.6,1455.7,176.6"/>
				<path id="path400" class="st5" d="M1432.6,235.9L1432.6,235.9L1432.6,235.9c12.5-11.1,26.3-20.8,41.1-29.1s30.7-15.3,47.3-20.6
					c85.4-27.4,190-13.2,271.2,63.7l-0.5,0.5c-80.9-76.7-185.3-90.9-270.5-63.5c-16.6,5.3-32.4,12.2-47.2,20.5
					c-14.8,8.4-28.6,18.1-40.9,29l0,0L1432.6,235.9"/>
				<path id="path402" class="st5" d="M1568.2,234.8c16.3-23.3,37.9-41.3,61.6-52.4c18.7-8.6,38.5-13,58.2-12s39.2,7.2,56.8,19.4
					c18.4,12.9,34.9,32.5,47.6,59.9l-0.6,0.3c-12.6-27.3-29-46.8-47.4-59.7c-17.5-12.2-36.8-18.4-56.4-19.4
					c-19.5-1-39.3,3.4-57.8,11.9c-23.6,11-45.1,29-61.3,52.2L1568.2,234.8"/>
				<path id="path404_1_" class="st5" d="M1379.4,193.3c7.8-5.8,16-10.8,24.2-15.3c41.3-22.6,86.6-29.4,129.1-20.2
					c42.6,9.2,82.3,34.5,112.8,76.3c6.1,8.4,11.8,17.4,17,27l-0.6,0.3c-5.2-9.7-11-18.7-17-26.9c-30.3-41.7-69.9-66.8-112.3-76
					s-87.5-2.3-128.6,20.1c-8.2,4.4-16.2,9.5-24.1,15.3L1379.4,193.3"/>
				<path id="path406_1_" class="st2" d="M1332.1,238.1h2.5v2.8h2.6v1.2v1.1v8.4h1v-6.4h14.7v5.2h9.9l-0.6,1.3
					c-2.2,0.8-5.2,3-7.4,5.5c-0.6,0.8-1.2,1.6-1.7,2.3h-26.3l-1.5-2.3l-2.8-4.5v-1.1h3.8v-9.2h3.7l1.2-2.4l0.6-1.1L1332.1,238.1"/>
				<path id="path408_1_" class="st6" d="M1561.7,305.8h2.5v2.8h2.6v1.2v1.1v8.4h1v-6.4h14.7v5.2h9.9l-0.6,1.3
					c-2.2,0.8-5.2,3-7.4,5.5c-0.6,0.8-1.2,1.6-1.7,2.3h-26.3l-1.5-2.3l-2.8-4.5v-1.1h3.8v-9.2h3.7l1.2-2.4l0.6-1.1L1561.7,305.8"/>
				<path id="path410_1_" class="st6" d="M1839.6,240h2.5v2.8h2.6v1.2v1.1v8.4h1v-6.4h14.7v5.2h9.9l-0.6,1.3c-2.2,0.8-5.2,3-7.4,5.5
					c-0.6,0.8-1.2,1.6-1.7,2.3h-26.3l-1.5-2.3l-2.8-4.5v-1.1h3.8v-9.2h3.7l1.2-2.4l0.6-1.1L1839.6,240"/>
				<path id="path412_1_" class="st2" d="M1409.9,316.2l14-0.4c2.4-0.1,5.3,0,7.2,0.8c0.2,0.1,0.3,0.1,0.4,0.2s0.2,0.1,0.3,0.1
					c0.3,0.2,0.5,0.3,0.8,0.4c1,0.6,1.9,1.4,3,1.9c0.1,0.1,0.2,0.1,0.3,0.2h0.1c1.5,0.6,1.7,1.4,1.1,2.2c-0.2,0.2-0.4,0.4-0.6,0.6
					c-2.4,1.7-6.5,1.6-9.7,1.5s-6.5,0.1-9.8-0.2c-2.4-0.2-5.1-0.7-7.5-1.7c-1.9-0.8-3.7-1.7-5.1-3l-1.6-4.4l-0.8-2.3l-0.3-0.8
					l2.3-0.1c1.6-0.1,2.2,0.4,2.5,0.9c0.1,0.1,0.2,0.2,0.2,0.2l1.8,2L1409.9,316.2"/>
				<path id="path414_1_" class="st6" d="M1516.3,206.4l14-0.4c2.4-0.1,5.3,0,7.2,0.8c0.2,0.1,0.3,0.1,0.4,0.2
					c0.1,0.1,0.2,0.1,0.3,0.1c0.3,0.2,0.5,0.3,0.8,0.4c1,0.6,1.9,1.4,3,1.9c0.1,0.1,0.2,0.1,0.3,0.2h0.1c1.5,0.6,1.7,1.4,1.1,2.2
					c-0.2,0.2-0.4,0.4-0.6,0.6c-2.4,1.7-6.5,1.6-9.7,1.5s-6.5,0.1-9.8-0.2c-2.4-0.2-5.1-0.7-7.5-1.7c-1.9-0.8-3.7-1.7-5.1-3
					l-1.6-4.4l-0.8-2.3l-0.3-0.8l2.3-0.1c1.6-0.1,2.2,0.4,2.5,0.9c0.1,0.1,0.2,0.2,0.2,0.2l1.8,2L1516.3,206.4"/>
				<path id="path416_1_" class="st7" d="M1379.7,195.7c1.1,0,2.2-1,2.2-2.2s-1-2.2-2.2-2.2s-2.2,1-2.2,2.2
					S1378.5,195.7,1379.7,195.7"/>
				<path id="path418_1_" class="st7" d="M1432.9,238.2c1.2,0,2.2-1,2.2-2.2s-1-2.2-2.2-2.2s-2.2,1-2.2,2.2
					C1430.7,237.3,1431.7,238.2,1432.9,238.2"/>
				<path id="path420_1_" class="st7" d="M1568.5,237.2c1.2,0,2.2-1,2.2-2.2s-1-2.2-2.2-2.2s-2.2,1-2.2,2.2
					S1567.3,237.2,1568.5,237.2"/>
				<path id="path422_1_" class="st7" d="M1662.1,263.3c1.2,0,2.2-1,2.2-2.2s-1-2.2-2.2-2.2s-2.2,1-2.2,2.2
					C1660,262.3,1660.9,263.3,1662.1,263.3"/>
				<path id="path424_1_" class="st7" d="M1792,252.2c1.2,0,2.2-1,2.2-2.2s-1-2.2-2.2-2.2s-2.2,1-2.2,2.2
					C1789.9,251.2,1790.9,252.2,1792,252.2"/>
			</g>
			<g>
				<g>
					<g>
						<g>
							<path class="st8" d="M1431.3,361.4c0,0,4.4-2.5,8.7,8.4c4.4,11,5.8,17.2,5.8,17.2s1.2,2.3,2.7,1c1.6-1.3,3.8-5.2,6.2-4.3
								c2.4,1,3.1,4,2.3,8.4c-0.8,4.4-2.3,13.9-2.4,14.7c-0.1,0.9,0.3,2.2,1.5,1.4c1.2-0.8,8.3-7.8,11.3-4.1
								c3.1,3.8-1.1,15.4-1.6,16.7c-0.4,1.2-0.3,1.8,0.3,2.2c0.5,0.3,2.7-2.2,4.8-4.1c2.1-1.9,4.8-3.8,6.4-1.5s1.5,11.3-7.8,25.2
								l-4.7,6.2l-7.4-1c-15.8-3.2-21.8-9.7-22.2-12.5c-0.4-2.8,2.8-3.5,5.6-3.6c2.8-0.2,6.1,0.2,6.2-0.5c0.2-0.7-0.1-1.2-1.2-1.8
								c-1.1-0.6-11.9-6-12.2-10.8c-0.3-4.8,9.4-4.9,10.8-5.3s0.8-1.6,0.1-2.1s-8-6.4-11.5-8.9s-5.1-5.1-3.8-7.7
								c1.1-2.4,5.3-1.2,7.3-1.5c2-0.2,1.3-2.7,1.3-2.7s-3.1-5.6-7.2-16.6s0.9-12.4,0.9-12.4"/>
						</g>
					</g>
				</g>
				<g>
					<g>
						<g>
							<g>
								<path class="st9" d="M1464.6,447.2c-3.1-8.1-7.4-19.2-12.1-31.4c-4.8-12.2-9.2-23.4-12.2-31.4c-1.6-4-2.8-7.2-3.7-9.5
									c-0.4-1.1-0.8-1.9-1-2.5c-0.1-0.3-0.2-0.5-0.3-0.6c-0.1-0.2-0.1-0.2-0.1-0.2s0,0.1,0.1,0.3c0.1,0.2,0.2,0.4,0.3,0.7
									c0.2,0.6,0.5,1.5,1,2.6c0.9,2.3,2.1,5.6,3.6,9.6c3.1,8.1,7.4,19.2,12.1,31.4c4.8,12.2,9.2,23.4,12.2,31.4"/>
							</g>
						</g>
					</g>
				</g>
				<g>
					<g>
						<g>
							<g>
								<path class="st9" d="M1451.8,389.3c0,0-0.1,0.2-0.3,0.5c-0.2,0.3-0.3,0.8-0.5,1.5c-0.4,1.2-1,2.9-1.6,4.8
									c-0.5,1.8-1,3.5-1.5,4.8c-0.2,0.5-0.3,1-0.4,1.5c-0.1,0.3-0.2,0.5-0.2,0.5s0.1-0.2,0.3-0.5c0.2-0.3,0.3-0.8,0.5-1.5
									c0.4-1.2,1-2.9,1.6-4.8c0.5-1.8,1.1-3.5,1.5-4.8c0.2-0.5,0.3-1,0.4-1.5C1451.8,389.5,1451.8,389.3,1451.8,389.3z"/>
							</g>
						</g>
					</g>
				</g>
				<g>
					<g>
						<g>
							<g>
								<path class="st9" d="M1446.8,403c0-0.1-3.2-1.4-7.4-3.1c-4.1-1.6-7.4-2.9-7.5-2.8c0,0.1,3.2,1.4,7.4,3.1
									C1443.4,401.9,1446.7,403.1,1446.8,403z"/>
							</g>
						</g>
					</g>
				</g>
				<g>
					<g>
						<g>
							<g>
								<path class="st9" d="M1454.9,421.5c0,0-0.2-0.1-0.5-0.1c-0.4-0.1-0.9-0.1-1.5-0.1c-1.2-0.1-3.1-0.3-4.9-0.5
									c-1.9-0.3-3.7-0.5-4.9-0.7c-0.6-0.1-1-0.2-1.5-0.3c-0.3-0.1-0.5-0.1-0.5-0.1s0.2,0.1,0.5,0.2s0.9,0.2,1.5,0.3
									c1.2,0.3,3,0.5,4.9,0.8s3.7,0.3,5,0.4c0.6,0,1.1,0.1,1.5,0.1C1454.7,421.5,1454.9,421.5,1454.9,421.5z"/>
							</g>
						</g>
					</g>
				</g>
				<g>
					<g>
						<g>
							<g>
								<path class="st9" d="M1462.1,410.1c0,0-0.2,0.2-0.3,0.4s-0.5,0.6-0.8,1.1c-0.7,1-1.6,2.4-2.6,3.9c-1,1.6-1.9,3-2.5,3.9
									c-0.3,0.5-0.6,1-0.8,1.2c-0.2,0.3-0.3,0.4-0.3,0.4s0.2-0.2,0.3-0.4c0.2-0.3,0.5-0.6,0.8-1.1c0.7-1,1.6-2.4,2.6-3.9
									c1-1.6,1.9-3,2.5-3.9c0.3-0.5,0.6-1,0.8-1.2C1462,410.3,1462.1,410.1,1462.1,410.1z"/>
							</g>
						</g>
					</g>
				</g>
				<g>
					<g>
						<g>
							<g>
								<path class="st9" d="M1471.3,425.5c0,0-0.2,0.2-0.4,0.5c-0.3,0.4-0.6,0.9-1,1.5c-0.9,1.2-2.1,3.1-3.4,5.1
									c-1.3,1.9-2.5,3.8-3.3,5.1c-0.4,0.6-0.7,1.1-1,1.6c-0.3,0.3-0.3,0.6-0.3,0.6s0.2-0.2,0.4-0.5c0.3-0.4,0.6-0.9,1-1.5
									c0.9-1.2,2.1-3.1,3.4-5.1c1.3-1.9,2.5-3.8,3.3-5.1c0.4-0.6,0.7-1.1,1-1.6C1471.2,425.7,1471.3,425.5,1471.3,425.5z"/>
							</g>
						</g>
					</g>
				</g>
				<g>
					<g>
						<g>
							<g>
								<path class="st9" d="M1461.9,439.4c0,0-0.3-0.1-0.7-0.1c-0.5-0.1-1.1-0.2-1.9-0.2c-1.6-0.2-3.8-0.4-6.2-0.9
									c-2.4-0.3-4.6-0.8-6.2-1c-0.8-0.2-1.4-0.3-1.8-0.3c-0.4-0.1-0.7-0.1-0.7-0.1s0.3,0.1,0.6,0.2c0.4,0.1,1,0.3,1.8,0.4
									c1.6,0.3,3.8,0.8,6.2,1.1s4.7,0.6,6.3,0.8c0.8,0.1,1.5,0.1,1.9,0.2C1461.7,439.4,1461.9,439.4,1461.9,439.4z"/>
							</g>
						</g>
					</g>
				</g>
			</g>
			<g class="st10">
				<g>
					<g>
						<g>
							<path class="st11" d="M1451.6,351.3c0,0.1,0.6,0.2,1.4,0.2s1.4-0.1,1.4-0.2s-0.6-0.2-1.4-0.2
								C1452.2,351.2,1451.6,351.2,1451.6,351.3z"/>
						</g>
					</g>
				</g>
				<g>
					<g>
						<g>
							<path class="st11" d="M1445.9,351.3c0,0.1,0.6,0.2,1.4,0.2s1.4-0.1,1.4-0.2s-0.6-0.2-1.4-0.2
								C1446.5,351.2,1445.9,351.2,1445.9,351.3z"/>
						</g>
					</g>
				</g>
				<g>
					<g>
						<g>
							<path class="st11" d="M1440.2,351.3c0,0.1,0.6,0.2,1.4,0.2s1.4-0.1,1.4-0.2s-0.6-0.2-1.4-0.2S1440.2,351.2,1440.2,351.3z"/>
						</g>
					</g>
				</g>
				<g>
					<g>
						<g>
							<path class="st11" d="M1434.5,351.3c0,0.1,0.6,0.2,1.4,0.2s1.4-0.1,1.4-0.2s-0.6-0.2-1.4-0.2
								C1435.2,351.2,1434.5,351.2,1434.5,351.3z"/>
						</g>
					</g>
				</g>
				<g>
					<g>
						<g>
							<path class="st11" d="M1428.9,351.3c0,0.1,0.6,0.2,1.4,0.2s1.4-0.1,1.4-0.2s-0.6-0.2-1.4-0.2S1428.9,351.2,1428.9,351.3z"/>
						</g>
					</g>
				</g>
				<g>
					<g>
						<g>
							<path class="st11" d="M1423.2,351.3c0,0.1,0.6,0.2,1.4,0.2s1.4-0.1,1.4-0.2s-0.6-0.2-1.4-0.2
								C1423.8,351.2,1423.2,351.2,1423.2,351.3z"/>
						</g>
					</g>
				</g>
				<g>
					<g>
						<g>
							<path class="st11" d="M1417.5,351.3c0,0.1,0.6,0.2,1.4,0.2s1.4-0.1,1.4-0.2s-0.6-0.2-1.4-0.2S1417.5,351.2,1417.5,351.3z"/>
						</g>
					</g>
				</g>
				<g>
					<g>
						<g>
							<path class="st11" d="M1411.9,351.3c0,0.1,0.6,0.2,1.4,0.2s1.4-0.1,1.4-0.2s-0.6-0.2-1.4-0.2S1411.9,351.2,1411.9,351.3z"/>
						</g>
					</g>
				</g>
				<g>
					<g>
						<g>
							<path class="st11" d="M1406.3,351.3c0,0.1,0.6,0.2,1.4,0.2s1.4-0.1,1.4-0.2s-0.6-0.2-1.4-0.2
								C1406.9,351.2,1406.3,351.2,1406.3,351.3z"/>
						</g>
					</g>
				</g>
				<g>
					<g>
						<g>
							<path class="st11" d="M1400.6,351.3c0,0.1,0.6,0.2,1.4,0.2s1.4-0.1,1.4-0.2s-0.6-0.2-1.4-0.2
								C1401.2,351.2,1400.6,351.2,1400.6,351.3z"/>
						</g>
					</g>
				</g>
				<g>
					<g>
						<g>
							<path class="st11" d="M1395,351.3c0,0.1,0.6,0.2,1.4,0.2s1.4-0.1,1.4-0.2s-0.6-0.2-1.4-0.2
								C1395.6,351.2,1395,351.2,1395,351.3z"/>
						</g>
					</g>
				</g>
				<g>
					<g>
						<g>
							<path class="st11" d="M1389.3,351.3c0,0.1,0.6,0.2,1.4,0.2s1.4-0.1,1.4-0.2s-0.6-0.2-1.4-0.2
								C1389.9,351.2,1389.3,351.2,1389.3,351.3z"/>
						</g>
					</g>
				</g>
				<g>
					<g>
						<g>
							<path class="st11" d="M1383.6,351.3c0,0.1,0.6,0.2,1.4,0.2s1.4-0.1,1.4-0.2s-0.6-0.2-1.4-0.2
								C1384.2,351.2,1383.6,351.2,1383.6,351.3z"/>
						</g>
					</g>
				</g>
				<g>
					<g>
						<g>
							<path class="st11" d="M1377.9,351.3c0,0.1,0.6,0.2,1.4,0.2s1.4-0.1,1.4-0.2s-0.6-0.2-1.4-0.2
								C1378.6,351.2,1377.9,351.2,1377.9,351.3z"/>
						</g>
					</g>
				</g>
				<g>
					<g>
						<g>
							<path class="st11" d="M1372.3,351.3c0,0.1,0.6,0.2,1.4,0.2s1.4-0.1,1.4-0.2s-0.6-0.2-1.4-0.2
								C1373,351.2,1372.3,351.2,1372.3,351.3z"/>
						</g>
					</g>
				</g>
				<g>
					<g>
						<g>
							<path class="st11" d="M1366.6,351.3c0,0.1,0.6,0.2,1.4,0.2s1.4-0.1,1.4-0.2s-0.6-0.2-1.4-0.2S1366.6,351.2,1366.6,351.3z"/>
						</g>
					</g>
				</g>
				<g>
					<g>
						<g>
							<path class="st11" d="M1360.9,351.3c0,0.1,0.6,0.2,1.4,0.2s1.4-0.1,1.4-0.2s-0.6-0.2-1.4-0.2
								C1361.6,351.2,1360.9,351.2,1360.9,351.3z"/>
						</g>
					</g>
				</g>
				<g>
					<g>
						<g>
							<path class="st11" d="M1355.3,351.3c0,0.1,0.6,0.2,1.4,0.2s1.4-0.1,1.4-0.2s-0.6-0.2-1.4-0.2
								C1355.9,351.2,1355.3,351.2,1355.3,351.3z"/>
						</g>
					</g>
				</g>
				<g>
					<g>
						<g>
							<path class="st11" d="M1349.6,351.3c0,0.1,0.6,0.2,1.4,0.2s1.4-0.1,1.4-0.2s-0.6-0.2-1.4-0.2
								C1350.3,351.2,1349.6,351.2,1349.6,351.3z"/>
						</g>
					</g>
				</g>
				<g>
					<g>
						<g>
							<path class="st11" d="M1344,351.3c0,0.1,0.6,0.2,1.4,0.2s1.4-0.1,1.4-0.2s-0.6-0.2-1.4-0.2
								C1344.6,351.2,1344,351.2,1344,351.3z"/>
						</g>
					</g>
				</g>
				<g>
					<g>
						<g>
							<path class="st11" d="M1338.4,351.3c0,0.1,0.6,0.2,1.4,0.2s1.4-0.1,1.4-0.2s-0.6-0.2-1.4-0.2
								C1339,351.2,1338.4,351.2,1338.4,351.3z"/>
						</g>
					</g>
				</g>
				<g>
					<g>
						<g>
							<path class="st11" d="M1332.7,351.3c0,0.1,0.6,0.2,1.4,0.2s1.4-0.1,1.4-0.2s-0.6-0.2-1.4-0.2
								C1333.3,351.2,1332.7,351.2,1332.7,351.3z"/>
						</g>
					</g>
				</g>
				<g>
					<g>
						<g>
							<path class="st11" d="M1327,351.3c0,0.1,0.6,0.2,1.4,0.2s1.4-0.1,1.4-0.2s-0.6-0.2-1.4-0.2
								C1327.6,351.2,1327,351.2,1327,351.3z"/>
						</g>
					</g>
				</g>
				<g>
					<g>
						<g>
							<path class="st11" d="M1325.6,355.8c0.1,0,0.2-0.6,0.2-1.5c0-0.8-0.1-1.5-0.2-1.5s-0.2,0.6-0.2,1.5
								C1325.4,355.1,1325.5,355.8,1325.6,355.8z"/>
						</g>
					</g>
				</g>
				<g>
					<g>
						<g>
							<path class="st11" d="M1325.6,361.7c0.1,0,0.2-0.6,0.2-1.5c0-0.8-0.1-1.5-0.2-1.5s-0.2,0.6-0.2,1.5
								C1325.4,361,1325.5,361.7,1325.6,361.7z"/>
						</g>
					</g>
				</g>
				<g>
					<g>
						<g>
							<path class="st11" d="M1325.6,367.6c0.1,0,0.2-0.6,0.2-1.5c0-0.8-0.1-1.5-0.2-1.5s-0.2,0.6-0.2,1.5
								C1325.4,366.9,1325.5,367.6,1325.6,367.6z"/>
						</g>
					</g>
				</g>
				<g>
					<g>
						<g>
							<path class="st11" d="M1325.6,373.7c0.1,0,0.2-0.6,0.2-1.5c0-0.8-0.1-1.5-0.2-1.5s-0.2,0.6-0.2,1.5
								C1325.4,373,1325.5,373.7,1325.6,373.7z"/>
						</g>
					</g>
				</g>
				<g>
					<g>
						<g>
							<path class="st11" d="M1325.6,379.6c0.1,0,0.2-0.6,0.2-1.5c0-0.8-0.1-1.5-0.2-1.5s-0.2,0.6-0.2,1.5
								C1325.4,378.8,1325.5,379.6,1325.6,379.6z"/>
						</g>
					</g>
				</g>
				<g>
					<g>
						<g>
							<path class="st11" d="M1324.5,384.4c0,0.1,0.4,0.2,1.1,0.2h0.2v-0.2c0-0.1,0-0.2,0-0.3c0-0.8-0.1-1.5-0.2-1.5
								s-0.2,0.6-0.2,1.5c0,0.1,0,0.2,0,0.3l0.2-0.2C1324.9,384.2,1324.5,384.3,1324.5,384.4z"/>
						</g>
					</g>
				</g>
				<g>
					<g>
						<g>
							<path class="st11" d="M1318.8,384.4c0,0.1,0.6,0.2,1.4,0.2s1.4-0.1,1.4-0.2s-0.6-0.2-1.4-0.2S1318.8,384.3,1318.8,384.4z"/>
						</g>
					</g>
				</g>
				<g>
					<g>
						<g>
							<path class="st11" d="M1313.1,384.4c0,0.1,0.6,0.2,1.4,0.2s1.4-0.1,1.4-0.2s-0.6-0.2-1.4-0.2S1313.1,384.3,1313.1,384.4z"/>
						</g>
					</g>
				</g>
				<g>
					<g>
						<g>
							<path class="st11" d="M1307.5,384.4c0,0.1,0.6,0.2,1.4,0.2s1.4-0.1,1.4-0.2s-0.6-0.2-1.4-0.2
								C1308.1,384.2,1307.5,384.3,1307.5,384.4z"/>
						</g>
					</g>
				</g>
				<g>
					<g>
						<g>
							<path class="st11" d="M1301.8,384.4c0,0.1,0.6,0.2,1.4,0.2s1.4-0.1,1.4-0.2s-0.6-0.2-1.4-0.2S1301.8,384.3,1301.8,384.4z"/>
						</g>
					</g>
				</g>
				<g>
					<g>
						<g>
							<path class="st11" d="M1296.1,384.4c0,0.1,0.6,0.2,1.4,0.2s1.4-0.1,1.4-0.2s-0.6-0.2-1.4-0.2
								C1296.8,384.2,1296.1,384.3,1296.1,384.4z"/>
						</g>
					</g>
				</g>
				<g>
					<g>
						<g>
							<path class="st11" d="M1290.5,384.4c0,0.1,0.6,0.2,1.4,0.2s1.4-0.1,1.4-0.2s-0.6-0.2-1.4-0.2
								C1291.2,384.2,1290.5,384.3,1290.5,384.4z"/>
						</g>
					</g>
				</g>
				<g>
					<g>
						<g>
							<path class="st11" d="M1284.9,384.4c0,0.1,0.6,0.2,1.4,0.2s1.4-0.1,1.4-0.2s-0.6-0.2-1.4-0.2S1284.9,384.3,1284.9,384.4z"/>
						</g>
					</g>
				</g>
				<g>
					<g>
						<g>
							<path class="st11" d="M1279.2,384.4c0,0.1,0.6,0.2,1.4,0.2s1.4-0.1,1.4-0.2s-0.6-0.2-1.4-0.2S1279.2,384.3,1279.2,384.4z"/>
						</g>
					</g>
				</g>
				<g>
					<g>
						<g>
							<path class="st11" d="M1277,388c0.1,0,0.2-0.6,0.2-1.5c0-0.8-0.1-1.5-0.2-1.5s-0.2,0.6-0.2,1.5
								C1276.9,387.3,1276.9,388,1277,388z"/>
						</g>
					</g>
				</g>
				<g>
					<g>
						<g>
							<path class="st11" d="M1277,394c0.1,0,0.2-0.6,0.2-1.5c0-0.8-0.1-1.5-0.2-1.5s-0.2,0.6-0.2,1.5
								C1276.9,393.3,1276.9,394,1277,394z"/>
						</g>
					</g>
				</g>
				<g>
					<g>
						<g>
							<path class="st11" d="M1277,399.9c0.1,0,0.2-0.6,0.2-1.5c0-0.8-0.1-1.5-0.2-1.5s-0.2,0.6-0.2,1.5
								C1276.9,399.2,1276.9,399.9,1277,399.9z"/>
						</g>
					</g>
				</g>
				<g>
					<g>
						<g>
							<path class="st11" d="M1277,405.8c0.1,0,0.2-0.6,0.2-1.5c0-0.8-0.1-1.5-0.2-1.5s-0.2,0.6-0.2,1.5
								C1276.9,405.1,1276.9,405.8,1277,405.8z"/>
						</g>
					</g>
				</g>
				<g>
					<g>
						<g>
							<path class="st11" d="M1277,411.9c0.1,0,0.2-0.6,0.2-1.5c0-0.8-0.1-1.5-0.2-1.5s-0.2,0.6-0.2,1.5
								C1276.9,411.2,1276.9,411.9,1277,411.9z"/>
						</g>
					</g>
				</g>
				<g>
					<g>
						<g>
							<path class="st11" d="M1277,417.8c0.1,0,0.2-0.6,0.2-1.5c0-0.8-0.1-1.5-0.2-1.5s-0.2,0.6-0.2,1.5
								C1276.9,417.1,1276.9,417.8,1277,417.8z"/>
						</g>
					</g>
				</g>
				<g>
					<g>
						<g>
							<path class="st11" d="M1277,423.7c0.1,0,0.2-0.6,0.2-1.5c0-0.8-0.1-1.5-0.2-1.5s-0.2,0.6-0.2,1.5
								C1276.9,423.1,1276.9,423.7,1277,423.7z"/>
						</g>
					</g>
				</g>
				<g>
					<g>
						<g>
							<path class="st11" d="M1277,429.6c0.1,0,0.2-0.6,0.2-1.5c0-0.8-0.1-1.5-0.2-1.5s-0.2,0.6-0.2,1.5
								C1276.9,429,1276.9,429.6,1277,429.6z"/>
						</g>
					</g>
				</g>
				<g>
					<g>
						<g>
							<path class="st11" d="M1277,435.7c0.1,0,0.2-0.6,0.2-1.5c0-0.8-0.1-1.5-0.2-1.5s-0.2,0.6-0.2,1.5
								C1276.9,435,1276.9,435.7,1277,435.7z"/>
						</g>
					</g>
				</g>
				<g>
					<g>
						<g>
							<path class="st11" d="M1277,441.6c0.1,0,0.2-0.6,0.2-1.5c0-0.8-0.1-1.5-0.2-1.5s-0.2,0.6-0.2,1.5
								C1276.9,441,1276.9,441.6,1277,441.6z"/>
						</g>
					</g>
				</g>
				<g>
					<g>
						<g>
							<path class="st11" d="M1277,447.5c0.1,0,0.2-0.6,0.2-1.5c0-0.8-0.1-1.5-0.2-1.5s-0.2,0.6-0.2,1.5
								C1276.9,446.9,1276.9,447.5,1277,447.5z"/>
						</g>
					</g>
				</g>
			</g>
			<g>
				<g>
					<g>
						<path class="st12" d="M1266.7,462.1c0-12.8,11.1-23,23.7-20.5c8,1.6,14.3,8.5,15.7,16.8c0.9,5.2-0.2,10.2-2.4,14.3l0,0
							l-0.1,0.1c-0.8,1.4-1.7,2.3-2.7,3.8l-11.5,16.1c-1.5,2-4.4,2-5.8,0l-11.4-15.9c0,0-2.1-2.7-2.9-4l-0.1-0.1l0,0
							C1267.6,469.5,1266.7,465.9,1266.7,462.1z M1286.5,471.2c4.8,0,8.8-4.1,8.8-9.2s-3.9-9.2-8.8-9.2c-4.8,0-8.8,4.1-8.8,9.2
							C1277.8,467.1,1281.7,471.2,1286.5,471.2z"/>
					</g>
				</g>
			</g>
			<g>
				<g class="st13">
					<g>
						<path class="st11" d="M1412.1,402.3v24.6c0,0.5-0.4,1-0.9,1h-49c-0.5,0-0.9-0.4-0.9-1l0.1-9.1c0-0.2,0.1-0.4,0.2-0.5l7.1-9.9
							c0.2-0.3,0.4-0.4,0.7-0.4l8.1-0.1c0.5,0,0.9-0.4,0.9-1v-3.8c0-0.5,0.4-1,0.9-1h32C1411.8,401.5,1412.1,401.8,1412.1,402.3z"/>
					</g>
				</g>
				<g>
					<g>
						<path class="st8" d="M1376,409.1v7.8c0,0.3-0.3,0.5-0.5,0.5l-10.8-0.2c-0.4,0-0.6-0.5-0.4-0.9l5.1-7.8
							c0.1-0.2,0.3-0.3,0.4-0.3l5.8,0.2C1375.9,408.6,1376,408.9,1376,409.1z"/>
					</g>
				</g>
				<g>
					<g>
						<ellipse class="st8" cx="1400.9" cy="429.3" rx="5.2" ry="5.5"/>
					</g>
				</g>
				<g>
					<g>
						<path class="st12" d="M1397.8,429.3c0,1.7,1.4,3.2,3.1,3.2s3.1-1.5,3.1-3.2s-1.4-3.2-3.1-3.2
							C1399.1,426.1,1397.8,427.5,1397.8,429.3z"/>
					</g>
				</g>
				<g>
					<g>
						<g>
							<path class="st8" d="M1378.4,428c0.2,0,0.3-6,0.3-13.3s-0.1-13.3-0.3-13.3c-0.2,0-0.3,6-0.3,13.3
								C1378.2,422.1,1378.3,428,1378.4,428z"/>
						</g>
					</g>
				</g>
				<g>
					<g>
						<g>
							<ellipse class="st8" cx="1372.5" cy="429.3" rx="5.2" ry="5.5"/>
						</g>
					</g>
					<g>
						<g>
							<path class="st14" d="M1369.3,429.3c0,1.7,1.4,3.2,3.1,3.2s3.1-1.5,3.1-3.2s-1.4-3.2-3.1-3.2S1369.3,427.5,1369.3,429.3z"/>
						</g>
					</g>
				</g>
				<g>
					<g>
						<g>
							<path class="st8" d="M1372.4,419.2c0,0.2,0.8,0.3,1.7,0.3c0.9,0,1.7-0.1,1.7-0.3s-0.8-0.3-1.7-0.3
								C1373.1,418.9,1372.4,419.1,1372.4,419.2z"/>
						</g>
					</g>
				</g>
			</g>
		</g>
	</g>
	<path class="st9" d="M1386.4,444.8c0,0-0.2-0.1-0.6-0.1s-1-0.1-1.7-0.1c-1.4-0.1-3.4-0.3-5.6-0.6s-4.2-0.6-5.6-0.8
		c-0.7-0.1-1.2-0.2-1.7-0.3s-0.6-0.1-0.6-0.1l0.6,0.2c0.6,0.1,1.1,0.3,1.7,0.4c1.4,0.3,3.4,0.6,5.6,0.9s4.2,0.4,5.7,0.5
		c0.8,0,1.3,0.1,1.7,0.1S1386.4,444.8,1386.4,444.8z"/>
	<path class="st9" d="M1394.7,431.7c-0.1,0.1-0.3,0.3-0.4,0.5c-0.3,0.4-0.6,0.9-0.9,1.3c-0.8,1.1-1.8,2.8-3,4.5s-2.2,3.4-2.9,4.5
		c-0.3,0.6-0.7,1.1-0.9,1.4s-0.3,0.5-0.3,0.5c0.1-0.1,0.3-0.3,0.4-0.5c0.3-0.4,0.6-0.9,0.9-1.3c0.8-1.2,1.8-2.8,3-4.5
		s2.2-3.4,2.9-4.5c0.3-0.6,0.7-1.1,0.9-1.4S1394.7,431.7,1394.7,431.7z"/>
	<path class="st9" d="M1405.3,449.3l-0.5,0.6c-0.3,0.5-0.8,1-1.2,1.7c-1,1.4-2.4,3.5-3.9,5.8s-2.9,4.3-3.8,5.9
		c-0.5,0.7-0.8,1.3-1.2,1.8c-0.2,0.2-0.3,0.4-0.4,0.7l0.5-0.6c0.3-0.5,0.8-1,1.2-1.7c1-1.4,2.4-3.5,3.9-5.8s2.9-4.3,3.8-5.9
		c0.5-0.7,0.8-1.3,1.2-1.8C1405,449.8,1405.2,449.6,1405.3,449.3z"/>
	<path class="st9" d="M1394.5,465.3c0,0-0.3,0-0.8-0.1s-1.3-0.2-2.2-0.2c-1.8-0.2-4.4-0.5-7.1-1s-5.3-0.9-7.1-1.2
		c-0.9-0.2-1.6-0.3-2.1-0.4c-0.3-0.1-0.5-0.1-0.8-0.1c0.2,0.1,0.5,0.2,0.8,0.2l2.1,0.5c1.8,0.4,4.3,0.9,7.1,1.3s5.4,0.7,7.2,0.9
		c0.9,0.1,1.7,0.1,2.2,0.2L1394.5,465.3z"/>
	<path id="path352" class="st15" d="M1831.4,653.3h-72V424h72V653.3"/>
	<path id="path354" class="st16" d="M1819.4,467.4h-18v-28.8h18V467.4"/>
	<path id="path356" class="st16" d="M1819.6,507.1h-18v-28.7h18V507.1"/>
	<path id="path358" class="st16" d="M1819.9,546.8h-18v-28.7h18V546.8"/>
	<path id="path360" class="st16" d="M1820.1,586.6h-18v-28.7h18V586.6"/>
	<path id="path362" class="st16" d="M1820.3,626.3h-18v-28.7h18V626.3"/>
	<path id="path364" class="st15" d="M1680,653.3h-72V528.4h72V653.3"/>
	<g>
		<defs>
			<rect id="SVGID_2_" x="1654.2" y="316.9" width="118.8" height="336.5"/>
		</defs>
		<clipPath id="SVGID_3_">
			<use xlink:href="#SVGID_2_"  style="overflow:visible;"/>
		</clipPath>
		<g class="st17">
			<g id="g368">
				<path id="path382-2" class="st15" d="M1773,653.3h-118.8V316.9H1773V653.3"/>
			</g>
		</g>
	</g>
	<path id="path384-2" class="st0" d="M1697.7,348.7h-27.4v-12.2h27.4V348.7"/>
	<path id="path386-2" class="st0" d="M1740.5,348.7h-27.4v-12.2h27.4V348.7"/>
	<g id="g388">
		<g>
			<defs>
				<rect id="SVGID_4_" x="1287.8" y="572.2" width="76" height="81.3"/>
			</defs>
			<clipPath id="SVGID_5_">
				<use xlink:href="#SVGID_4_"  style="overflow:visible;"/>
			</clipPath>
			<g class="st18">
				<g id="g390">
					<path id="path404-2" class="st15" d="M1363.8,653.5h-76v-81.3h76V653.5"/>
				</g>
			</g>
		</g>
	</g>
	<path id="path406-2" class="st0" d="M1308.7,588.3h-11.2V577h11.2V588.3"/>
	<path id="path408-2" class="st0" d="M1324.9,588.3h-11.2V577h11.2V588.3"/>
	<path id="path410-2" class="st0" d="M1308.7,604.1h-11.2v-11.3h11.2V604.1"/>
	<path id="path412-2" class="st0" d="M1324.9,604.1h-11.2v-11.3h11.2V604.1"/>
	<path id="path414-2" class="st0" d="M1309.6,622.2h-11.2v-11.4h11.2V622.2"/>
	<path id="path416-2" class="st0" d="M1325.8,622.2h-11.2v-11.4h11.2V622.2"/>
	<path id="path418-2" class="st0" d="M1309.6,638h-11.2v-11.3h11.2V638"/>
	<path id="path420-2" class="st0" d="M1325.8,638h-11.2v-11.3h11.2V638"/>
	<path id="path422-2" class="st19" d="M1295.1,653.3h-72V548.2h72V653.3"/>
	<path id="path424-2" class="st0" d="M1240.1,565.1h-11.2v-11.3h11.2V565.1"/>
	<path id="path426" class="st0" d="M1256.2,565.1H1245v-11.3h11.2V565.1"/>
	<path id="path428" class="st0" d="M1240.1,581h-11.2v-11.3h11.2V581"/>
	<path id="path430" class="st0" d="M1256.2,581H1245v-11.3h11.2V581"/>
	<path id="path432" class="st0" d="M1239.2,598.5H1228v-11.3h11.2V598.5"/>
	<path id="path434" class="st0" d="M1255.3,598.5h-11.2v-11.3h11.2V598.5"/>
	<path id="path436" class="st0" d="M1239.2,614.4H1228v-11.3h11.2V614.4"/>
	<path id="path438" class="st0" d="M1255.3,614.4h-11.2v-11.3h11.2V614.4"/>
	<path id="path464" class="st20" d="M1364.3,507.8h74.3V427h-36.8c-20.8,0.1-37.5,16.9-37.5,37.7l0,0V507.8"/>
	<path id="path466" class="st21" d="M1450.7,621.7h-122.5l-1.7-88.6c0-1.5,0.2-3,0.7-4.5l25.3-72.3c2.1-5.7,7.7-9.5,13.8-9.4h84.5
		v174.8"/>
	<path id="path468" class="st22" d="M1326.4,621.7h6.7c3.2,0,5.8-2.6,5.8-5.9c0,0,0,0,0,0v-18.2c0-3.2-2.5-5.9-5.8-5.9c0,0,0,0,0,0
		h-6.7V621.7"/>
	<path id="path470" class="st22" d="M1317.2,497.3h-3.9v-13.7c0-11.2,9-20.3,20.2-20.4h32.9v3.9h-32.9c-9.1,0.1-16.4,7.4-16.4,16.5
		v13.7"/>
	<path id="path472" class="st22" d="M1314,525.5h3.5c5,0,9-4,9-9v-18.8c0-5-4-9-9-9h-3.4c-5,0-9,4-9,9v18.8c-0.1,4.9,3.8,8.9,8.6,9
		C1313.8,525.5,1313.9,525.5,1314,525.5"/>
	<path id="path474" class="st23" d="M1308.5,517.2V497c0-2.6,2.1-4.8,4.7-4.8c0,0,0.1,0,0.1,0h4.8c2.6,0,4.8,2.2,4.8,4.8l0,0v20.2
		c0,2.6-2.1,4.8-4.7,4.8c0,0-0.1,0-0.1,0h-4.8c-2.6,0-4.8-2.1-4.8-4.7C1308.5,517.3,1308.5,517.2,1308.5,517.2L1308.5,517.2"/>
	<path id="path476" class="st22" d="M1353.5,528.9h63.8c4,0,7.2-3.2,7.2-7.1c0,0,0,0,0-0.1l0,0v-52.9c0-4-3.2-7.2-7.1-7.2
		c0,0,0,0-0.1,0h-47.7c-3.1,0-5.9,2.1-6.8,5.1l-16.1,52.9c-1.2,3.8,1,7.8,4.8,9c0,0,0,0,0,0C1352.1,528.8,1352.8,528.9,1353.5,528.9
		"/>
	<path id="path478" class="st24" d="M1355.5,490.6l-8.8,28.9c-1.2,3.8,1,7.8,4.8,9c0,0,0,0,0,0c0.7,0.2,1.4,0.3,2.1,0.3h63.8
		c4,0,7.2-3.2,7.2-7.1c0,0,0,0,0-0.1l0,0v-31L1355.5,490.6"/>
	<path id="path480" class="st24" d="M1345.3,620.2c0.2,19.6,16.2,35.4,35.8,35.2c19.6-0.2,35.4-16.2,35.2-35.8
		c-0.2-19.5-16-35.2-35.5-35.2l0,0C1361.1,584.5,1345.2,600.5,1345.3,620.2C1345.3,620.2,1345.3,620.2,1345.3,620.2"/>
	<path id="path482" class="st24" d="M1667.8,619.6c0,19.5,15.2,35.2,34,35.2s34-15.8,34-35.2s-15.2-35.2-34-35.2
		S1667.8,600.2,1667.8,619.6"/>
	<path id="path484" class="st25" d="M1450.6,572.7h348c6.7,0,12-5.4,12-12.1V356.7c0-6.7-5.3-12.1-12-12.1h-348
		c-6.7,0-12,5.4-12,12.1v203.8C1438.6,567.1,1444,572.5,1450.6,572.7"/>
	<path id="path486" class="st26" d="M1800.5,563.4c0.4,0,0.8-0.4,0.8-0.8l0,0V354.7c0-0.4-0.3-0.8-0.8-0.8c0,0,0,0,0,0h-175.7v209.4
		h175.7"/>
	<path id="path488" class="st24" d="M1800.5,409.5c0.4,0,0.8-0.1,0.8-0.2v-55.2c0-0.1-0.3-0.2-0.8-0.2h-175.7v55.6H1800.5"/>
	<path id="path490" class="st27" d="M1448.7,344.6h166.9v228h-166.9c-5.6,0-10-4.5-10-10.1c0,0,0,0,0,0V354.7
		C1438.7,349.2,1443.2,344.7,1448.7,344.6"/>
	<path id="path492" class="st28" d="M1708.2,563.4h74.9v-62.8h-74.9V563.4"/>
	<path id="path494" class="st29" d="M1624.9,563.4h94.5v-75.1h-94.5V563.4"/>
	<path id="path496" class="st28" d="M1624.9,488.2h80.6v-71.5h-80.6V488.2"/>
	<path id="path498" class="st26" d="M1453.7,621.7h332.7v-49.1h-332.7c-6.1,0-11.1,5-11.1,11.1c0,0,0,0.1,0,0.1l0,0v26.6
		c-0.1,6.1,4.7,11.2,10.8,11.3C1453.5,621.7,1453.6,621.7,1453.7,621.7L1453.7,621.7"/>
	<path id="path500" class="st27" d="M1783.1,579.3h-162.5v36.6h162.5V579.3"/>
	<path id="path502" class="st30" d="M1625.9,607.7h46.9v-14.5h-46.9V607.7"/>
	<path id="path504" class="st31" d="M1625.9,607.7h28.3v-14.5h-28.3V607.7"/>
	<path id="path506" class="st30" d="M1725.7,607.7h46.9v-14.5h-46.9V607.7"/>
	<path id="path508" class="st31" d="M1751.3,607.7h21.3v-14.5h-21.3V607.7"/>
	<path id="path510" class="st24" d="M1556.6,619.6c0,19.5,15.2,35.2,34,35.2s34-15.8,34-35.2s-15.2-35.2-34-35.2
		S1556.6,600.2,1556.6,619.6"/>
	<path id="path512" class="st22" d="M1546,618.7c0,20.6,15.2,37.3,34,37.3s34-16.7,34-37.3s-15.2-37.3-34-37.3
		S1546,598.1,1546,618.7"/>
	<path id="path514" class="st22" d="M1340.9,619.5c0,20.1,15.2,36.5,34,36.5s34-16.3,34-36.5s-15.2-36.5-34-36.5
		S1340.9,599.4,1340.9,619.5"/>
	<path id="path516" class="st26" d="M1358.2,618.7c0,10.1,7.5,18.4,16.7,18.4s16.7-8.2,16.7-18.4s-7.5-18.3-16.7-18.3
		S1358.2,608.5,1358.2,618.7"/>
	<path id="path518" class="st26" d="M1563.3,618.7c0,10.1,7.5,18.4,16.7,18.4s16.7-8.2,16.7-18.4s-7.5-18.3-16.7-18.3
		S1563.3,608.5,1563.3,618.7"/>
	<path id="path520" class="st26" d="M1726.8,395.1h-31.6c0,4.5,3.6,8.2,8.1,8.2c0,0,0,0,0,0h15.4
		C1723.2,403.2,1726.8,399.6,1726.8,395.1L1726.8,395.1"/>
	<path id="path522" class="st32" d="M1517.8,634.1c0,0,2.7,2.6,2.7,3.6s0.2,11.4-0.8,12.4s-4.3,1.7-3.3,2.8
		c0.8,0.8,6.7,0.7,10.7,0.4c1.1-0.1,2.6-9.5,3.1-10.9c0.7-2,3.1-6.4,2.5-7.8c-0.3-0.7-2.5-2.2-4.5-3.5c-1.6-1.2-3-2.7-4.1-4.4
		L1517.8,634.1"/>
	<path id="path524" class="st32" d="M1482.2,640.6l2.4,6.9c0.4,1.6,0.7,3.2,0.9,4.8c0,3.7-16.4-3.2-12.7-4.8
		c0.8-0.6,1.4-1.6,1.5-2.6c0.2-1.9-1.4-4.4-1.4-4.4L1482.2,640.6"/>
	<path id="path526" class="st22" d="M1459.5,510.2l-6,15.5c0,0-3.9,37-1.6,59.1c1,9.3,21.4,58.8,21.4,58.8l10.2-1.5l-13.6-58.7
		l5-22.5l7.1-44.4L1459.5,510.2"/>
	<path id="path528" class="st24" d="M1487.5,511.1l5.1,17.3l7.8,52.1l26.2,48.7c0,0-4,6.1-8.2,7l-37.2-49.2l-20.2-61.7l0.7-13.7
		L1487.5,511.1"/>
	<path id="path530" class="st33" d="M1429.3,526.7c3.7-1.5,3.8-0.8,4.3-1s5-7,5-7s13.1-20,13.8-21.1l4-24.6l12.6-1.3
		c0,0-5.1,26.6-5.6,28s-21.4,26.2-23.1,28.5c0,0-1.1,3.5-1.9,5.7c-0.7,1.6-1.7,3.1-2.8,4.4c-0.9,1.4-2,2.7-3.2,3.8
		c-1.7,1.6-0.8-0.7-0.8-0.7s2.7-3.6,2.4-3.8s-1.6,1.9-3.5,3.7c-0.5,0.5-1,0.9-1.4,1.3c-1.2,1.1-2.2,0.7-1.1-0.7
		c0.5-0.6,1-1.2,1.5-1.7c0.5-0.5,0.9-1.1,1.3-1.7c0.5-0.6,0.9-1.2,1.4-1.8c-0.1,0,0-0.3-0.6,0.1c-0.9,1-1.8,2-2.7,2.9
		c-0.6,0.4-1.2,0.9-1.7,1.4c-0.7,0.5-1.4,0.9-2.1,1.3c-0.6-0.5,0.6-1.9,1.4-2.5c0.5-0.6,1-1.1,1.6-1.6c0,0,2-2.6,1.7-2.9
		s-6.4,5-6.9,4.5s1.3-2.1,1.3-2.1s1.1-0.9,1.5-1.3s1.6-1.7,1.6-1.7s3.8-4.7,3.4-4.9c-0.6-0.3-1.3-0.4-1.9-0.3
		c-0.3,0.2-0.8,0.9-1.1,1.1c-0.4,0.2-0.9,0.1-1.2-0.2c-0.3-0.4,1-2,1-2C1427.9,527.7,1428.5,527.1,1429.3,526.7"/>
	<path id="path532" class="st34" d="M1453.8,480.5l14.5,1.5c0,0,0.7-12.1,0.7-17.9c0-7-1-15.8-1.8-15.6c-2.3,0.6-5.1,1.6-6.9,4.2
		C1453.8,461.8,1453.8,480.5,1453.8,480.5"/>
	<path id="path534" class="st22" d="M1528,631.1c0,0-5.6,17.3-8,18.1c-0.6,0.2-4.2,1.1-4.8,2.5v0.1c-0.1,0.8,0.4,1.5,1.2,1.7h11.7
		l2.3-11.2c0,0,3.4-8.3,3-9.1S1528.1,631,1528,631.1"/>
	<path id="path536" class="st22" d="M1486.4,653.5l-1.8-6c0,0-4,1.7-6,1.4c-2-0.4-3.9-0.8-5.8-1.4c-7.9,2.6-14.3,3.9-13.2,6H1486.4"
		/>
	<path id="path538" class="st35" d="M1435.1,528.6c-1.2,1.2-2.9,1.7-4.6,1.3c1.4,1,3.2,0.6,4.2-0.7c0-0.1,0.1-0.1,0.1-0.2
		C1434.9,528.9,1435,528.7,1435.1,528.6"/>
	<path id="path540" class="st21" d="M1485.7,447.8c0,0,7.7,1.1,9.7,2.6c2.3,1.7,9.3,9.5,9.3,9.5s-14.6,42.2-14.1,49.7
		c0.5,7.5,2.2,18.6,2.2,18.6s-28.4,1.8-39.2-2.5c0,0,3.4-17,3.4-21.5s1.9-49.1,3.3-51.5s4.1-3.7,9.3-4.8S1485.7,447.8,1485.7,447.8"
		/>
	<path id="path542" class="st32" d="M1483.6,435.7l1.9,12.5c0,0-5.7,6.6-9.8,5.3c-3.5-1.1-2.6-6-2.6-6s1.9-7,1.3-10.6
		S1483.6,435.7,1483.6,435.7"/>
	<path id="path544" class="st35" d="M1474.4,436.9c-0.6-3.5,9.2-1.2,9.2-1.2l0.2,1c-0.2,0.6-0.6,1.2-1.1,1.7
		c-2.3,2.3-5.3,3.7-8.5,3.9C1474.5,440.5,1474.6,438.7,1474.4,436.9"/>
	<path id="path546" class="st32" d="M1485.2,418c0.3-0.1,2.2,14.3-1.5,18.2s-10.8,5.2-13.4,2.1c-2.8-3.4-2.7-18.9,3-22.9
		S1485.2,418,1485.2,418"/>
	<path id="path548" class="st24" d="M1475.5,407.7c3.2,0.7,6.1,2.3,8.3,4.7c2,0.2,4.7,1.3,7.5,6c3.5,5.7,0.9,12.1-3.1,15.2
		s-4,6.7-4,6.7l-0.6-1.8c-0.5-1.4-0.7-2.9-0.5-4.4c0.1-0.9,0.3-1.8,0.7-2.6c1-2.1-2.1-3.5-2.9-5.2c-0.7-1.3-0.7-4.4-1.7-6.6
		l-1.2-1.7c0,0-2.8-2.2-5.6-1.6C1469.4,417.1,1469.8,406.6,1475.5,407.7"/>
	<path id="path550" class="st32" d="M1481.1,428.8c0,1.8,0.8,3.2,1.8,3.2s1.9-1.4,1.9-3.1s-0.8-3.2-1.8-3.2
		S1481.1,427.1,1481.1,428.8"/>
	<path id="path552" class="st29" d="M1533.3,546.4h-57.4v-50.1h57.4V546.4"/>
	<path id="path554" class="st20" d="M1497.6,546.4h-21.7v-50.1h21.7V546.4"/>
	<path id="path556" class="st33" d="M1519.1,538.9c-0.6-2.4-1.8-6-1.8-6c0.1-3.1,2.8-37.8,2.5-39.3s-12-27.5-12-27.5l-9.8,9.3
		l11.3,23.6c0.1,1.4,1,27,1,27s0.5,7.9,0.1,8.4c-1.2,1.4-2.2,2.8-3.1,4.4c-0.4,0.9-0.7,1.8-0.7,2.8c0,0-0.1,2.2,0.4,2.4
		c0.5,0.1,1-0.1,1.2-0.6c0.1-0.6,0.2-1.1,0.2-1.7c0.5-0.5,1.1-0.8,1.8-0.9c0.3,0,0.3,2.7,0.1,5.2c0,1,0.7,1.9,1.7,2.1
		c0.4,0.1,0.7-0.3,1.1,0.2c0.7,0.2,1.5,0.1,2.2-0.1c0.8,0.3,1.8,0.3,2.6,0l0.3-0.1c0.7-0.2,1.2-0.8,1.2-1.5v-2
		C1519.6,542.7,1519.5,540.8,1519.1,538.9"/>
	<path id="path558" class="st21" d="M1514.2,475l-12.8,10.1c0,0-5.7-5.5-8.5-11.5s-2-24.8,1.1-23.9
		C1500.8,451.4,1514.2,475,1514.2,475"/>
	<path id="path560" class="st20" d="M1359.3,553.8h-16.7v-7.4h24.1C1366.7,550.5,1363.4,553.8,1359.3,553.8
		C1359.3,553.8,1359.3,553.8,1359.3,553.8L1359.3,553.8"/>
	<path id="path562" class="st29" d="M1843.5,653.5h-636.6c-1.7,0-3,0.5-3,1.2l0,0c0,0.7,1.3,1.2,3,1.2h636.6c1.7,0,3-0.5,3-1.2l0,0
		C1846.5,654.1,1845.1,653.5,1843.5,653.5"/>
	<path id="path576" class="st16" d="M1486.7,471.5h-10.8v-6.3h10.8V471.5"/>
</g>
</svg>
