<?xml version="1.0" encoding="utf-8"?>
<!-- Generator: Adobe Illustrator 24.1.1, SVG Export Plug-In . SVG Version: 6.00 Build 0)  -->
<svg version="1.1" id="Layer_1" xmlns="http://www.w3.org/2000/svg" xmlns:xlink="http://www.w3.org/1999/xlink" x="0px" y="0px"
	 viewBox="0 0 29 51" style="enable-background:new 0 0 29 51;" xml:space="preserve">
<style type="text/css">
	.st0{fill:#737373;}
	.st1{fill:#FFA500;}
	.st2{fill:#FFFFFF;}
</style>
<g>
	<path class="st0" d="M27.3,14.4h-2.7c0-0.2,0-0.4,0-0.6V6.4c0-0.7-0.1-0.8-0.7-0.8H3.5c-0.6,0-0.8,0.1-0.8,0.9
		c0,11.7,0,23.4,0,35.2c0,0.8,0.1,0.9,0.8,0.9h20.3c0.7,0,0.8-0.1,0.8-0.9V37c0-0.2,0-0.3,0-0.5h2.7c0,0.2,0,0.4,0,0.6
		c0,3,0,7,0,10.1c0,2.3-1.3,3.9-3.3,3.9H3.3c-2,0-3.3-1.6-3.3-3.9V3.9C0,1.6,1.4,0,3.4,0H24c2,0,3.3,1.5,3.3,3.8c0,3,0,7,0,10V14.4z
		"/>
	<g>
		<path class="st1" d="M16.6,34H5.7c-1.1,0-1.5-0.4-1.5-1.5V18c0-1.1,0.4-1.5,1.5-1.5h21.8c1.1,0,1.5,0.4,1.5,1.6v14.5
			c0,1.1-0.4,1.5-1.5,1.5H16.6z M5.8,23.5c0,0.1,0,0.2,0,0.2v7.7c0,0.6,0.2,0.8,0.8,0.8h19.9c0.6,0,0.8-0.2,0.8-0.9c0-2.5,0-5,0-7.4
			c0-0.1,0-0.3,0-0.4L5.8,23.5z M27.3,20.8c0-0.6,0-1.1,0-1.6c0-0.9-0.1-1-0.9-1H6.5c-0.3,0-0.6,0.2-0.7,0.5c0,0.7,0,1.4,0,2.1H27.3
			z"/>
		<path class="st1" d="M11.1,28.9H7.8v-3.4h3.4V28.9z"/>
		<path class="st1" d="M22.4,25.8v0.5h-9.3v-0.5H22.4z"/>
		<path class="st1" d="M19.7,27.5V28h-6.6v-0.5H19.7z"/>
	</g>
	<path class="st2" d="M14.5,2.4H18c0.3,0,0.7,0,0.7,0.5c0,0.2-0.4,0.4-0.6,0.4c-2.4,0-4.9,0-7.3,0c-0.2,0-0.6-0.3-0.6-0.4
		c-0.1-0.5,0.3-0.5,0.7-0.5H14.5z"/>
	<ellipse class="st2" cx="14.1" cy="47.2" rx="2.2" ry="2.3"/>
</g>
</svg>
