<?xml version="1.0" encoding="utf-8"?>
<!-- Generator: Adobe Illustrator 24.1.1, SVG Export Plug-In . SVG Version: 6.00 Build 0)  -->
<svg version="1.1" id="Layer_1" xmlns="http://www.w3.org/2000/svg" xmlns:xlink="http://www.w3.org/1999/xlink" x="0px" y="0px"
	 viewBox="0 0 84 80" style="enable-background:new 0 0 84 80;" xml:space="preserve">
<style type="text/css">
	.st0{fill:none;stroke:#448AFF;stroke-miterlimit:10;}
	.st1{fill:none;stroke:#67ACEF;stroke-miterlimit:10;}
	.st2{fill:none;stroke:#87BDF4;stroke-miterlimit:10;}
	.st3{fill:none;stroke:#FFA500;stroke-width:0.25;stroke-miterlimit:10;}
	.st4{fill:none;stroke:#050505;stroke-width:0.25;stroke-miterlimit:10;}
	.st5{font-family:'Calibri-Light';}
	.st6{font-size:2.5033px;}
</style>
<path class="st0" d="M19.2,29.6h43v36.6h-43L19.2,29.6z"/>
<path class="st1" d="M20.9,27.4c2.1-1.9,3.7-3.4,5.3-4.9c3.8-3.3,7.7-6.6,11.6-9.9c0.6-0.5,1.3-0.8,2.1-0.9c12.7-0.1,25.4,0,38.4,0
	c-0.3,0.5-0.7,1-1.1,1.4c-4.3,4.3-8.7,8.7-13,13c-0.6,0.7-1.5,1.1-2.4,1.2C48.4,27.5,35,27.4,20.9,27.4z"/>
<path class="st2" d="M64.5,64.2c0-11.4,0-22.4,0-33.3c0-0.6,0.2-1.2,0.6-1.7c4.8-4.9,9.7-9.7,14.8-14.8c0.1,1,0.2,1.6,0.2,2.1
	c0,8-0.1,16,0.1,24c0,3.3-0.3,6.1-2.8,8.8c-4.1,4.3-7.6,9.1-11.4,13.7C65.4,63.4,65,63.8,64.5,64.2z"/>
<line class="st3" x1="10.7" y1="29" x2="10.7" y2="66.2"/>
<line class="st3" x1="10.7" y1="29" x2="9.5" y2="30.3"/>
<line class="st3" x1="10.7" y1="29" x2="12" y2="30.3"/>
<line class="st3" x1="10.7" y1="66.8" x2="9.5" y2="65.4"/>
<line class="st3" x1="10.7" y1="66.8" x2="12" y2="65.4"/>
<line class="st3" x1="18.9" y1="73.1" x2="61.4" y2="73.4"/>
<line class="st3" x1="18.9" y1="73.1" x2="20.8" y2="74.4"/>
<line class="st3" x1="18.9" y1="73.1" x2="20.8" y2="71.9"/>
<line class="st3" x1="62.1" y1="73.3" x2="60.2" y2="74.6"/>
<line class="st3" x1="62.1" y1="73.3" x2="60.2" y2="72.1"/>
<line class="st3" x1="68.1" y1="69.3" x2="83.3" y2="49.9"/>
<line class="st3" x1="68.1" y1="69.3" x2="69.7" y2="69.5"/>
<line class="st3" x1="68.1" y1="69.3" x2="68.3" y2="67.7"/>
<line class="st3" x1="83.5" y1="49.6" x2="83.3" y2="51.3"/>
<line class="st3" x1="83.5" y1="49.6" x2="81.9" y2="50.5"/>
<line class="st4" x1="12.6" y1="3.7" x2="35.1" y2="3.7"/>
<text transform="matrix(1 0 0 1 0.48 4.4217)" class="st5 st6">Dim weight</text>
<text transform="matrix(1 0 0 1 17.0804 3.0253)" class="st5 st6">H  x  W  x  L</text>
<text transform="matrix(1 0 0 1 21.0804 6.0253)" class="st5 st6">166</text>
<text transform="matrix(1 0 0 1 8.0804 49.0253)" class="st5 st6">H</text>
<text transform="matrix(1 0 0 1 39.0804 76.0253)" class="st5 st6">L</text>
<text transform="matrix(1 0 0 1 75.0804 63.0253)" class="st5 st6">W</text>
</svg>
