<?xml version="1.0" encoding="utf-8"?>
<!-- Generator: Adobe Illustrator 24.1.1, SVG Export Plug-In . SVG Version: 6.00 Build 0)  -->
<svg version="1.1" id="Layer_1" xmlns="http://www.w3.org/2000/svg" xmlns:xlink="http://www.w3.org/1999/xlink" x="0px" y="0px"
	 viewBox="0 0 84 80" style="enable-background:new 0 0 84 80;" xml:space="preserve">
<style type="text/css">
	.st0{fill:none;stroke:#C17805;stroke-width:0.25;stroke-miterlimit:10;}
	.st1{font-family:'Calibri-Light';}
	.st2{font-size:3.7017px;}
	.st3{fill:#C17805;}
	.st4{font-size:4.7284px;}
	.st5{font-size:3.5342px;}
	.st6{fill:#FEFEFE;}
	.st7{opacity:0.8;fill:#FFA500;}
	.st8{opacity:0.9;fill:#FFA500;}
	.st9{fill:#FFA500;}
</style>
<line class="st0" x1="9.7" y1="22.7" x2="9.7" y2="50.3"/>
<g>
	<line class="st0" x1="9.7" y1="22.9" x2="8.5" y2="24.1"/>
	<line class="st0" x1="9.7" y1="22.9" x2="11" y2="24.1"/>
</g>
<g>
	<line class="st0" x1="9.7" y1="50.5" x2="8.5" y2="49.5"/>
	<line class="st0" x1="9.7" y1="50.5" x2="11" y2="49.5"/>
</g>
<text transform="matrix(1.143 0 0 1 6.0806 39.0693)" class="st1 st2">H</text>
<text transform="matrix(1.143 0 0 1 6.0806 39.0693)" class="st0 st1 st2">H</text>
<g>
	<g>
		<line class="st0" x1="10.6" y1="55" x2="38.6" y2="70.9"/>
		<line class="st0" x1="10.6" y1="55" x2="11.3" y2="56.6"/>
		<line class="st0" x1="10.6" y1="55" x2="12.2" y2="54.9"/>
	</g>
	<g>
		<line class="st0" x1="38.9" y1="71" x2="37.2" y2="70.9"/>
		<line class="st0" x1="38.9" y1="71" x2="38.4" y2="69.4"/>
	</g>
</g>
<text transform="matrix(0.7306 -4.577391e-02 6.253459e-02 0.998 23.6268 66.7659)" class="st3 st1 st4">L</text>
<text transform="matrix(0.7306 -4.577391e-02 6.253459e-02 0.998 23.6268 66.7659)" class="st0 st1 st4">L</text>
<g>
	<line class="st0" x1="47" y1="70.9" x2="48.4" y2="71"/>
	<line class="st0" x1="47" y1="70.9" x2="47.5" y2="69.5"/>
	<g>
		<line class="st0" x1="47" y1="70.9" x2="74.1" y2="54.9"/>
		<line class="st0" x1="74.5" y1="54.7" x2="74" y2="56.2"/>
		<line class="st0" x1="74.5" y1="54.7" x2="72.8" y2="54.6"/>
	</g>
</g>
<text transform="matrix(0.9973 3.107453e-02 -3.114356e-02 0.9995 62.6951 64.3535)" class="st1 st5">W</text>
<text transform="matrix(0.9973 3.107453e-02 -3.114356e-02 0.9995 62.6951 64.3535)" class="st0 st1 st5">W</text>
<path class="st6" d="M12.4,7C12.3,7,12.3,7,12.4,7C12.3,7,12.3,7,12.4,7z"/>
<path class="st6" d="M74.9,7.1C74.9,7,74.8,7,74.9,7.1C74.8,7,74.9,7,74.9,7.1z"/>
<path class="st6" d="M12.3,60.7C12.3,60.7,12.3,60.8,12.3,60.7C12.3,60.8,12.3,60.7,12.3,60.7z"/>
<path class="st7" d="M15.4,18.2c1-0.6,2-1.2,3-1.8c8-4.8,15.9-8.4,23.9-13.2c0.3-0.2,0.5-0.2,0.8,0c8.8,5.2,17.6,9.4,26.3,14.6
	c0.2,0.1,0.3,0.2,0.5,0.3c-1.3,0.8-2.5,1.5-3.8,2.2C58.4,24.9,50.7,29.4,43,34c-0.3,0.2-0.4,0.2-0.7,0c-8.8-5.2-17.7-10.5-26.5-15.7
	C15.7,18.4,15.6,18.3,15.4,18.2z"/>
<path class="st8" d="M45.3,67.9c0-0.2,0-0.4,0-0.5c0-9.7,0-19.3,0-29c0-0.4,0.1-0.6,0.5-0.8c8.7-5.1,17.3-10.2,25.9-15.3
	c0.1-0.1,0.3-0.1,0.5-0.3c0,0.3,0,0.4,0,0.6c0,9.8,0,19.5,0,29.3c0,0.4-0.1,0.6-0.5,0.9c-8.6,4.9-17.2,9.8-25.8,14.8
	C45.7,67.7,45.5,67.8,45.3,67.9z"/>
<path class="st9" d="M13.3,22c1.9,1.1,3.7,2.2,5.5,3.2c7,4.1,13.9,8.2,20.9,12.3c0.3,0.2,0.4,0.3,0.4,0.6c0,9.8,0,19.5,0,29.3
	c0,0.1,0,0.2,0,0.3c-0.2-0.1-0.3-0.1-0.4-0.2c-8.7-5-17.4-9.9-26-14.9c-0.3-0.1-0.4-0.3-0.4-0.6c0-9.9,0-19.8,0-29.7
	C13.3,22.4,13.3,22.3,13.3,22z"/>
</svg>
