<svg id="Layer_1" data-name="Layer 1" xmlns="http://www.w3.org/2000/svg" viewBox="0 0 83.99 80"><defs><style>.cls-1{fill:#448aff;}.cls-2{fill:#67acef;}.cls-3{fill:#87bdf4;}.cls-4,.cls-9{fill:none;stroke-miterlimit:10;}.cls-4{stroke:orange;}.cls-5{font-size:4.04px;font-family:MyriadPro-Regular, Myriad Pro;}.cls-6{letter-spacing:-0.01em;}.cls-7{letter-spacing:0em;}.cls-8{letter-spacing:-0.04em;}.cls-9{stroke:#050505;stroke-width:0.25px;}</style></defs><path class="cls-1" d="M19.69,30.6h43V67.18h-43Z" transform="translate(-0.5 -1)"/><path class="cls-2" d="M21.39,28.43c2.08-1.89,3.66-3.41,5.32-4.85q5.76-5,11.61-9.87a3.6,3.6,0,0,1,2.07-.87c12.69-.05,25.38,0,38.43,0a15.41,15.41,0,0,1-1.12,1.44c-4.33,4.34-8.65,8.69-13,13a3.91,3.91,0,0,1-2.36,1.17C48.89,28.45,35.48,28.43,21.39,28.43Z" transform="translate(-0.5 -1)"/><path class="cls-3" d="M65,65.2c0-11.44,0-22.38,0-33.32a2.64,2.64,0,0,1,.63-1.73c4.8-4.87,9.65-9.68,14.77-14.8.07,1,.15,1.55.15,2.14,0,8-.08,16,.05,24,0,3.33-.32,6.13-2.84,8.8-4.07,4.3-7.6,9.1-11.38,13.68A13.36,13.36,0,0,1,65,65.2Z" transform="translate(-0.5 -1)"/><line class="cls-4" x1="10.72" y1="28.96" x2="10.72" y2="66.2"/><line class="cls-4" x1="10.72" y1="28.96" x2="8.46" y2="32.34"/><line class="cls-4" x1="10.72" y1="28.96" x2="12.98" y2="32.34"/><line class="cls-4" x1="10.73" y1="66.76" x2="8.48" y2="63.37"/><line class="cls-4" x1="10.73" y1="66.76" x2="12.99" y2="63.37"/><line class="cls-4" x1="18.91" y1="73.14" x2="61.42" y2="73.36"/><line class="cls-4" x1="18.91" y1="73.14" x2="22.75" y2="75.42"/><line class="cls-4" x1="18.91" y1="73.14" x2="22.8" y2="70.91"/><line class="cls-4" x1="62.07" y1="73.35" x2="58.18" y2="75.59"/><line class="cls-4" x1="62.07" y1="73.35" x2="58.23" y2="71.08"/><line class="cls-4" x1="68.1" y1="69.34" x2="83.27" y2="49.92"/><line class="cls-4" x1="68.1" y1="69.34" x2="70.66" y2="68.49"/><line class="cls-4" x1="68.1" y1="69.34" x2="68.3" y2="66.65"/><line class="cls-4" x1="83.49" y1="49.62" x2="83.29" y2="52.3"/><line class="cls-4" x1="83.49" y1="49.62" x2="80.94" y2="50.46"/><text class="cls-5" transform="translate(0 5.94)">Dim <tspan class="cls-6" x="7.87" y="0">w</tspan><tspan x="10.8" y="0">eig</tspan><tspan class="cls-7" x="16.03" y="0">h</tspan><tspan x="18.26" y="0">t</tspan></text><text class="cls-5" transform="translate(24.78 3.38)">L x H x<tspan class="cls-8" x="10.86" y="0"> </tspan><tspan x="11.57" y="0">W</tspan></text><line class="cls-9" x1="22.57" y1="4.69" x2="45.14" y2="4.69"/><text class="cls-5" transform="translate(29.13 9.03)">166</text><text class="cls-5" transform="translate(5.3 50.78)">H</text><text class="cls-5" transform="translate(77.06 65.45)">W</text><text class="cls-5" transform="translate(39.82 78.99)">L</text></svg>