<?xml version="1.0" encoding="utf-8"?>
<!-- Generator: Adobe Illustrator 24.1.1, SVG Export Plug-In . SVG Version: 6.00 Build 0)  -->
<svg version="1.1" id="Layer_1" xmlns="http://www.w3.org/2000/svg" xmlns:xlink="http://www.w3.org/1999/xlink" x="0px" y="0px"
	 viewBox="0 0 58.1 58" style="enable-background:new 0 0 58.1 58;" xml:space="preserve">
<style type="text/css">
	.st0{fill:#E17918;}
	.st1{fill:#E27918;}
	.st2{fill:#68411C;}
	.st3{fill:#643F1D;}
</style>
<g>
	<path class="st0" d="M28.4,16.1c-4.2,0.7-7.7,2.5-9.8,7.3c3.5,0,6.6,0,9.7,0c0,3.1,0,6.1,0,9.2c-3.1,0-6.2,0-9.9,0
		c2.4,4.7,5.7,6.6,10,7.3c0,2.8,0,5.6,0,8.4c-9,0.5-18.3-7.4-19.8-16.8C6.8,19.7,14.9,9,26.8,7.6c0.5-0.1,1.1,0,1.6,0
		C28.4,10.5,28.4,13.3,28.4,16.1z"/>
	<path class="st1" d="M29.6,23.3c6,0,12,0,18-0.1c1.3,0,2,0.2,2.3,1.7c2.1,12-8.3,24-20.4,23.4c0-2.8,0-5.7,0.1-8.5
		c4.9-0.3,9-3.1,9.9-7.2c-3.3,0-6.6,0-9.9,0C29.5,29.6,29.5,26.4,29.6,23.3z"/>
	<path class="st2" d="M29.6,23.3c0,3.1,0,6.2,0,9.3c-0.4,0-0.8,0-1.1-0.1c0-3.1,0-6.1,0-9.2C28.7,23.4,29.1,23.4,29.6,23.3z"/>
	<path class="st2" d="M29.4,7.6c0,2.8,0,5.7,0,8.5c-0.3,0-0.7,0-1,0c0-2.8,0-5.6,0-8.4C28.8,7.6,29.1,7.6,29.4,7.6z"/>
	<path class="st3" d="M29.5,39.9c0,2.8,0,5.7-0.1,8.5c-0.3,0-0.7,0-1-0.1c0-2.8,0-5.6,0-8.4C28.8,39.9,29.1,39.9,29.5,39.9z"/>
	<path class="st0" d="M37.6,20.3h10.5c0,0-3.4-11.4-18.7-12.7v8.6C29.4,16.2,34.6,15.5,37.6,20.3z"/>
</g>
</svg>
