<?xml version="1.0" encoding="utf-8"?>
<!-- Generator: Adobe Illustrator 24.1.1, SVG Export Plug-In . SVG Version: 6.00 Build 0)  -->
<svg version="1.1" id="Layer_1" xmlns="http://www.w3.org/2000/svg" xmlns:xlink="http://www.w3.org/1999/xlink" x="0px" y="0px"
	 viewBox="0 0 54.1 54.1" style="enable-background:new 0 0 54.1 54.1;" xml:space="preserve">
<style type="text/css">
	.st0{fill:#FFFFFF;}
</style>
<path class="st0" d="M54.1,27.1c0,15-12.1,27.1-27.1,27C12.1,54.1,0,42,0,27S12.1,0,27.1,0l0,0c14.9,0,27,12.1,27,27L54.1,27.1z
	 M27.1,5.6c-11.8,0-21.4,9.6-21.4,21.4c0,11.8,9.6,21.4,21.4,21.4s21.4-9.6,21.4-21.4l0,0C48.5,15.3,38.9,5.7,27.1,5.6z"/>
<path class="st0" d="M15.9,22.5h5.6v-1.4c0-1.6,0-3.1,0.1-4.7c0.3-3.4,3-6.1,6.4-6.2c1.9-0.2,3.8,0,5.8,0v5.6h-1.1
	c-1,0-1.9,0-2.9,0.2c-0.9,0-1.6,0.8-1.6,1.7c0,0,0,0,0,0l0,0c-0.1,1.6,0,3.2,0,4.8h5.6c-0.2,1.1-0.4,2.1-0.6,3.2
	c-0.1,0.7-0.3,1.4-0.4,2c-0.1,0.4-0.2,0.4-0.5,0.4h-4.1V44h-6.7V28.2h-5.6V22.5z"/>
</svg>
