<svg id="Layer_1" data-name="Layer 1" xmlns="http://www.w3.org/2000/svg" viewBox="0 0 54.14 54.14"><defs><style>.cls-1{fill:#fff;}</style></defs><path class="cls-1" d="M58.15,31.86a27.07,27.07,0,1,1-27-27.1A27,27,0,0,1,58.15,31.86ZM31.09,10.4A21.43,21.43,0,1,0,52.5,31.83,21.44,21.44,0,0,0,31.09,10.4Z" transform="translate(-4.01 -4.76)"/><path class="cls-1" d="M19.86,27.31h5.59c0-.49,0-.94,0-1.4,0-1.55-.05-3.12.13-4.67A6.73,6.73,0,0,1,32,15c1.91-.16,3.84,0,5.81,0v5.57H36.72c-1,0-1.94,0-2.9.16a1.66,1.66,0,0,0-1.59,1.75c-.06,1.59,0,3.18,0,4.83h5.62c-.21,1.1-.41,2.13-.62,3.17-.13.68-.3,1.36-.4,2.05-.06.35-.21.43-.55.43-1.15,0-2.31,0-3.46,0H32.2V48.72H25.46V33h-5.6Z" transform="translate(-4.01 -4.76)"/></svg>