<svg id="Layer_1" data-name="Layer 1" xmlns="http://www.w3.org/2000/svg" viewBox="0 0 54.14 54.14"><defs><style>.cls-1{fill:orange;}</style></defs><path class="cls-1" d="M54.14,27.1A27.07,27.07,0,1,1,27.1,0h0a27,27,0,0,1,27,27ZM27.08,5.64A21.43,21.43,0,1,0,48.49,27.09v0A21.44,21.44,0,0,0,27.08,5.64Z" transform="translate(0 0)"/><path class="cls-1" d="M15.85,22.55h5.59v-1.4a40.47,40.47,0,0,1,.13-4.67A6.74,6.74,0,0,1,28,10.24c1.91-.16,3.84,0,5.81,0v5.57H32.71a17.39,17.39,0,0,0-2.9.16,1.66,1.66,0,0,0-1.59,1.73v0c-.06,1.59,0,3.18,0,4.83h5.62c-.21,1.1-.41,2.13-.62,3.17-.13.68-.3,1.36-.4,2.05-.06.35-.21.43-.55.43H28.19V44H21.45V28.24h-5.6Z" transform="translate(0 0)"/></svg>