<?xml version="1.0" encoding="utf-8"?>
<!-- Generator: Adobe Illustrator 24.1.1, SVG Export Plug-In . SVG Version: 6.00 Build 0)  -->
<svg version="1.1" id="Layer_1" xmlns="http://www.w3.org/2000/svg" xmlns:xlink="http://www.w3.org/1999/xlink" x="0px" y="0px"
	 viewBox="0 0 54.1 54.1" style="enable-background:new 0 0 54.1 54.1;" xml:space="preserve">
<style type="text/css">
	.st0{fill:#FFFFFF;}
	.st1{fill:#4064AC;}
</style>
<circle class="st0" cx="27" cy="27" r="27"/>
<path class="st1" d="M15.9,22.5h5.6v-1.4c0-1.6,0-3.1,0.1-4.7c0.3-3.4,3-6.1,6.4-6.2c1.9-0.2,3.8,0,5.8,0v5.6h-1.1
	c-1,0-1.9,0-2.9,0.2c-0.9,0-1.6,0.8-1.6,1.7l0,0l0,0c-0.1,1.6,0,3.2,0,4.8h5.6c-0.2,1.1-0.4,2.1-0.6,3.2c-0.1,0.7-0.3,1.4-0.4,2
	c-0.1,0.4-0.2,0.4-0.5,0.4h-4.1V44h-6.7V28.2h-5.6V22.5z"/>
</svg>
