<svg id="Layer_1" data-name="Layer 1" xmlns="http://www.w3.org/2000/svg" viewBox="0 0 83.52 83.49"><path d="M38.72,0H45.6a4.5,4.5,0,0,0,.7.18A38.35,38.35,0,0,1,61.7,4.82c11.94,6.58,19.24,16.56,21.68,30,.25,1.38.42,2.79.62,4.18v6c-.22,1.47-.4,3-.68,4.4A42,42,0,0,1,46.2,83.3a41.08,41.08,0,0,1-20.43-3.19A41.75,41.75,0,0,1,33.83.83C35.45.51,37.09.28,38.72,0Zm3.56,6.77c-19,0-34.95,15.61-35,34.42a35,35,0,1,0,35-34.42Z" transform="translate(-0.48)"/><path d="M36,42.78c-1.23,0-2.31,0-3.38,0-.79,0-1-.29-1-1,0-2,0-4.1,0-6.15,0-.73.28-1,1-1,1.08,0,2.16,0,3.41,0,0-.81,0-1.59,0-2.37a30,30,0,0,1,.3-4.46c.78-3.94,3.58-6.27,7.69-6.73a26.28,26.28,0,0,1,8.57.6c.86.18,1.06.62.94,1.38-.3,1.89-.61,3.77-.89,5.65-.12.77-.47,1-1.27.94-1.37-.14-2.76-.2-4.14-.24a1.3,1.3,0,0,0-1.41,1.45c0,1.21,0,2.43,0,3.78h5.54c1.35,0,1.38.09,1.23,1.46-.2,1.86-.4,3.73-.48,5.6,0,.89-.39,1.12-1.21,1.09-1.66,0-3.32,0-5.08,0v20.1c0,1.26-.1,1.36-1.38,1.36-2.37,0-4.73,0-7.1,0-1,0-1.34-.33-1.33-1.33,0-6.3,0-12.59,0-18.88Z" transform="translate(-0.48)"/></svg>