<?xml version="1.0" encoding="utf-8"?>
<!-- Generator: Adobe Illustrator 24.1.1, SVG Export Plug-In . SVG Version: 6.00 Build 0)  -->
<svg version="1.1" id="Layer_1" xmlns="http://www.w3.org/2000/svg" xmlns:xlink="http://www.w3.org/1999/xlink" x="0px" y="0px"
	 viewBox="0 0 501.3 176.3" style="enable-background:new 0 0 501.3 176.3;" xml:space="preserve">
<style type="text/css">
	.st0{fill:#FFFFFF;}
</style>
<path d="M501.3,22.8v130.8c-0.2,0.8-0.5,1.5-0.8,2.2c-1.9,3.9-3.1,8.3-5.7,11.7c-4.9,6.3-11.9,8.8-19.8,8.8
	c-149.4,0-298.8,0-448.2,0.1C11.5,176.3,0,165.4,0,149.6c0-15.5,0-31,0-46.5c0-25.6,0-51.2,0-76.8C0,14.6,7.4,4.4,18.1,1.1
	c1.1-0.3,2.2-0.8,3.3-1.1h458.2c0.7,0.3,1.4,0.6,2.2,0.8c5,1.5,9.4,3.8,12.8,8.2C497.7,13.1,500,17.8,501.3,22.8z M250.3,170.8
	c74.8,0,149.5,0,224.3,0.1c12.9,0,21.2-9.1,21.2-21.3c0-40.7,0-81.4,0-122.1c0-2.7-0.4-5.4-1.1-8c-1.9-7-10.9-14.1-20.5-14.1
	C367.7,5.6,261.2,5.7,154.7,5.6c-42.6,0-85.1,0.1-127.6,0.1c-3.1,0-6.7,0.2-9.3,1.6C9.5,11.5,5.3,18.4,5.3,28.1
	C5.6,46.4,5.4,64.7,5.4,83c0,22.3,0,44.6,0,66.9c0,8.5,4.9,17.5,13.5,19.9c2.9,0.7,5.9,1.1,8.9,1
	C101.9,170.8,176.1,170.8,250.3,170.8L250.3,170.8z"/>
<path d="M38.4,41c5,4.6,9.6,8.6,14,12.8c2,1.8,3.6,4,5.5,5.9c7.5,7.9,15,15.8,22.4,23.7c3.4,3.6,6.7,7.4,10.2,11
	c1.1,1.2,1.2,2,0,3.2c-4.8,4.8-9.4,9.8-14.1,14.7c-10.5,11-20.9,22-31.4,33c-0.5,0.6-0.9,1.3-1.5,1.8c-1,0.8-2.4,2.3-2.9,2
	c-1.2-0.7-2.2-1.8-2.7-3.1c-0.5-1.2-0.7-2.5-0.6-3.8c0-31.9,0-63.8,0-95.7C37.3,44.6,38.1,42.7,38.4,41z"/>
<path d="M109.8,77.4L94.5,93.6l-50-53.5l0.5-0.8C66.6,52,88,64.7,109.8,77.4z"/>
<path d="M194.4,76.6l-3.4,3.8c-3.6-3.3-7.4-5.3-12-5.6c-9.2-0.6-19.5,5.3-20.4,19.2s11.1,24.3,24.5,20.7c7.4-2,12.4-8.4,11.9-15.6
	H178V94c0.3-0.1,0.7-0.2,1.1-0.3c6.4,0,12.8,0,19.2-0.1c1.6,0,2.3,0.6,2.5,2.2c1.1,12.7-8,25.6-21.5,25.3c-4.3-0.1-9.1-0.4-12.7-2.4
	c-11-5.9-16.2-17.4-12.6-31.5c2.2-8.7,8.1-13.9,16.3-17C178.7,67,188.5,69.5,194.4,76.6z"/>
<path d="M277.5,126.8l4.5-1.9c5.4,6.2,9.8,7.6,15.1,4.9c4.8-2.4,6.9-7.4,5.4-13.5l-2.5,2.1c-6,4.8-14.8,3.8-19.6-2.2
	c-0.3-0.4-0.6-0.7-0.8-1.1c-4.5-6.9-4.9-14-1.5-21.3c2.3-5,7-8.3,12.5-8.7c3.1-0.3,6.5,2.3,9.8,3.6c0.8,0.3,1.3,1.2,2.4,2.1
	c0.3-1.6,0.5-2.8,0.7-4.2h4.8c0.1,1,0.2,1.9,0.2,2.8c0,10,0.1,20,0,30c-0.1,11.2-6.9,17.6-18,17.3
	C284.7,136.5,280.3,133.1,277.5,126.8z M303.1,103.1c-0.1-7.3-4.1-12.3-10.2-12.6c-5.3-0.2-10,3.5-11,8.7
	c-1.6,7.3,1.2,13.7,6.9,15.8c1.4,0.5,3.2,1.3,4.5,1C299.9,114.3,303.2,109.8,303.1,103.1z"/>
<path d="M97.2,96.3c1.4-1.5,2.6-2.8,3.8-4.1c3.5-3.7,7-7.4,10.4-11.2c1.2-1.4,2.3-1.6,3.8-0.6c5.5,3.4,11.1,6.7,16.6,10.1
	c3.8,2.4,3.9,6,0.1,8.3c-6.3,3.9-12.6,7.6-19,11.3c-0.9,0.4-2,0.4-2.8-0.2C105.7,105.6,101.6,101,97.2,96.3z"/>
<path d="M107.8,113.3L50.8,146l-0.3-0.4c1.7-1.8,3.3-3.6,5-5.4c7.3-7.6,14.6-15.1,21.7-22.7c5.3-5.7,10.4-11.5,15.6-17.2
	c0.9-1,1.8-1.6,2.9-0.3c3.6,3.9,7.2,7.8,10.7,11.7C106.8,111.9,107,112.3,107.8,113.3z"/>
<path d="M380.9,99.5c0,6.4-0.1,12.2,0,18c0,2.1-0.4,3-2.8,3.1s-3-0.8-3-3.1c0.1-14.7,0.1-29.4,0-44.1c0-2.5,0.9-3,3.2-3
	c4.3,0.1,8.6,0,12.9,0c8.5,0.1,14.8,6.3,14.9,14.4s-6.2,14.4-14.7,14.6C388.1,99.5,384.7,99.5,380.9,99.5z M387.7,75.9
	c-1.6-0.1-3.2-0.1-4.8,0.1c-0.8,0.1-1.9,1.2-1.9,1.8c-0.2,4.8-0.2,9.6,0,14.3c0.3,0.9,1.1,1.6,2,1.8c3.1,0.2,6.2,0.2,9.3-0.1
	c4.8-0.4,8.4-4.7,8-9.5c-0.3-5-3.8-8.4-8.9-8.5C390.1,75.9,388.9,75.9,387.7,75.9z"/>
<path d="M354.9,112.4c-1.8,5.3-5.6,8.1-11,8.7c-6,0.7-11.5-0.3-15.3-5.9c-5.2-7.6-5.4-15.2-0.8-23c2.9-4.8,7.6-7.1,13-7.4
	c6.1-0.3,12.4,4.6,14.4,10.4l0.1,0.3c2.6,7.8,2,8.7-6,8.7c-5.4,0-10.8,0.1-16.2,0c-2.5,0-2.9,1-2.3,3.2c1.2,4.6,5.8,9,10.2,8.8
	c2.7-0.4,5.3-1.5,7.4-3.3C351.5,110.2,351.3,109.9,354.9,112.4z M350.2,98.8c-0.8-5.6-4.5-8.5-10.2-8.3c-4.6,0.1-8.3,3.7-8.6,8.3
	H350.2z"/>
<path d="M443.4,99.4c1-5.3-3.4-9.5-9.4-8.8c-1.9,0.2-3.6,1-5.1,2.1c-3,2.3-3.2,2.5-7-0.3c1.1-1.5,2.4-2.9,3.7-4.1
	c5.1-3.9,10.6-4.5,16.4-1.4c5,2.6,7.1,6.8,7.1,12.2c0,6,0,12,0,18c0,1.6,0.5,3.4-2.3,3.5c-2.4,0-3.3-0.8-3-3.1
	c0-0.3-0.2-0.6-0.3-1.1c-0.6,0.4-1.1,0.8-1.6,1.3c-4,3.8-9.9,4.8-15,2.7c-6.7-3-8.3-12.3-3.3-17.7s11-5.3,17.4-3.8
	c0.8,0.2,1.5,0.4,2.3,0.7C443.2,99.4,443.3,99.4,443.4,99.4z M435.5,103.1c-1.5,0.2-2.9,0.5-4.4,0.9c-3.1,0.9-5.1,4-4.5,7.2
	c0.4,2.3,4.4,5.6,7,5c3.5-0.5,6.6-2.5,8.6-5.4c2.7-4.1,1.9-6.2-2.8-7.2C438.3,103.3,437.1,103.3,435.5,103.1L435.5,103.1z"/>
<path d="M237.1,103c-0.1,6.6-2.1,12.5-8,16.1c-5.2,3.2-11.7,3.2-16.9,0c-2.3-1.6-4.2-3.6-5.6-6c-5.5-8.4-3.1-23.7,9.8-27.6
	c8.9-2.7,20.4,5.3,20.6,14.8C237.1,101.2,237.1,102.1,237.1,103z M209.6,103.8c-0.2,3.5,1.3,6.9,4.1,9.1c2.2,1.6,5.3,3.6,7.7,3.2
	c9.1-1.5,13.4-12.5,8.4-20.3c-1.8-3.1-5-5.1-8.6-5.1C214.5,90.3,209.8,95.4,209.6,103.8z"/>
<path d="M240.1,103.6c-0.1-12.6,7.2-16.9,15.2-18.7c7.8-1.7,17,6.6,17.8,15.4c0.6,5.6-0.9,11.3-4.2,15.8c-5,7.2-19.9,6.8-24.8-0.6
	C241.5,111.7,239.7,107.7,240.1,103.6z M267.9,103.4c-0.2-1.6-0.4-3.2-0.8-4.7c-0.9-4-4.1-7.1-8.1-8c-4-1-8.2,0.5-10.7,3.8
	c-3.8,4.6-3.8,12.8,0.2,17.2c2.4,2.7,5.5,4.9,9.1,4.3C263.8,115.1,267.7,109.8,267.9,103.4z"/>
<path d="M457.3,135.1c2.1-4.9,4.2-9.4,6-14c0.6-1.5,0.7-3.2,0.2-4.8c-3.3-8.5-6.9-17-10.4-25.5l-1.6-3.8c4.8-1.4,5.6-1.1,7.3,3.2
	c2.3,5.8,4.7,11.7,7,17.5c0.4,1,1.1,1.9,2,2.6c1.1-2.7,2.3-5.4,3.3-8.2c1.4-3.7,2.7-7.5,4.2-11.2c1.9-4.9,2-4.9,7.6-4.2
	c-0.1,0.7-0.3,1.3-0.5,2c-5.5,13.2-11,26.3-16.5,39.5c-0.5,1.1-0.9,2.2-1.3,3.4C463.2,135.8,462.5,136.1,457.3,135.1z"/>
<path d="M416.4,95.4c0,7.4-0.1,14.8,0,22.2c0,2.2-0.6,2.9-2.9,2.9s-2.9-0.8-2.9-2.9c0.1-14.8,0.1-29.6,0-44.3c0-2.3,0.7-2.9,2.9-2.9
	s2.9,0.7,2.9,3C416.3,80.7,416.4,88,416.4,95.4z"/>
<path d="M315.3,70.5c0.8,0,1.6,0,2.4-0.2c2.3-0.3,2.9,0.7,2.9,2.9c-0.1,11.6,0,23.2,0,34.7c0,3.5-0.1,7,0,10.5c0,2.2-1.5,1.9-2.9,2
	s-2.9,0.2-2.9-2c0-15.6,0-31.1,0.1-46.7C314.9,71.3,315.1,70.9,315.3,70.5z"/>
<path class="st0" d="M350.2,98.8h-18.8c0.3-4.6,4-8.2,8.6-8.3C345.6,90.3,349.4,93.2,350.2,98.8z"/>
<path d="M164.1,47.9c0.1,0.2,0.1,0.4,0.1,0.6c0,0.1,0,0.2-0.1,0.3c-0.1,0.1-0.2,0.1-0.4,0.1c-0.2,0-0.4,0-0.8,0h-0.8
	c-0.1,0-0.3,0-0.4-0.1c-0.1,0-0.1-0.1-0.2-0.1c0-0.1-0.1-0.1-0.1-0.2l-0.9-2.6h-4.8l-0.8,2.5c0,0.1-0.1,0.2-0.1,0.2
	c-0.1,0.1-0.1,0.1-0.2,0.2c-0.1,0-0.3,0.1-0.4,0.1c-0.5,0-0.9,0-1.4,0c-0.1,0-0.3,0-0.4-0.1c-0.1-0.1-0.1-0.2-0.1-0.3
	c0-0.2,0.1-0.4,0.1-0.6l4-11.4c0-0.1,0.1-0.2,0.1-0.3c0.1-0.1,0.1-0.1,0.3-0.2c0.2,0,0.3-0.1,0.5-0.1h0.8h0.9c0.2,0,0.4,0,0.5,0.1
	c0.1,0,0.2,0.1,0.3,0.2c0.1,0.1,0.1,0.2,0.1,0.3L164.1,47.9z M158.3,38.5L158.3,38.5l-1.8,5.4h3.6L158.3,38.5z"/>
<path d="M176.5,48c0,0.1,0,0.3-0.1,0.4c-0.1,0.1-0.1,0.2-0.2,0.3c-0.1,0.1-0.2,0.1-0.3,0.2c-0.1,0-0.2,0-0.4,0h-1.1
	c-0.2,0-0.4,0-0.6-0.1c-0.2-0.1-0.3-0.1-0.5-0.3c-0.2-0.1-0.3-0.3-0.4-0.5c-0.2-0.3-0.3-0.5-0.4-0.8l-3.2-6
	c-0.2-0.4-0.4-0.7-0.6-1.2c-0.2-0.4-0.4-0.8-0.5-1.2l0,0c0,0.5,0.1,1,0.1,1.4s0,1,0,1.5v6.7c0,0.1,0,0.1,0,0.2
	c-0.1,0.1-0.1,0.1-0.2,0.1c-0.1,0-0.2,0.1-0.4,0.1c-0.2,0-0.4,0-0.6,0c-0.2,0-0.4,0-0.6,0c-0.1,0-0.2,0-0.4-0.1
	c-0.1,0-0.1-0.1-0.2-0.1c0-0.1,0-0.1,0-0.2V37c0-0.3,0.1-0.5,0.3-0.7c0.2-0.2,0.4-0.2,0.7-0.2h1.3c0.2,0,0.4,0,0.6,0.1
	c0.2,0,0.3,0.1,0.5,0.2c0.2,0.1,0.3,0.3,0.4,0.4c0.1,0.2,0.3,0.4,0.4,0.7l2.5,4.7c0.1,0.3,0.3,0.6,0.4,0.8c0.1,0.3,0.3,0.6,0.4,0.8
	c0.1,0.3,0.3,0.5,0.4,0.8c0.1,0.3,0.3,0.5,0.4,0.8l0,0c0-0.5,0-0.9,0-1.5s0-1,0-1.4v-6c0-0.1,0-0.1,0.1-0.2c0.1-0.1,0.1-0.1,0.2-0.1
	c0.1,0,0.2-0.1,0.4-0.1c0.2,0,0.4,0,0.6,0c0.2,0,0.4,0,0.6,0c0.1,0,0.2,0,0.4,0.1c0.1,0,0.1,0.1,0.2,0.1c0,0.1,0,0.1,0.1,0.2
	L176.5,48z"/>
<path d="M189.9,42.3c0,1-0.1,2-0.5,3c-0.3,0.8-0.7,1.5-1.3,2c-0.6,0.5-1.3,0.9-2.1,1.2c-1,0.3-1.9,0.4-2.9,0.4h-3.1
	c-0.2,0-0.4-0.1-0.6-0.2c-0.2-0.2-0.2-0.4-0.2-0.6V36.9c0-0.2,0.1-0.5,0.2-0.6c0.2-0.1,0.3-0.2,0.6-0.2h3.3c1,0,2,0.1,2.9,0.4
	c0.7,0.2,1.4,0.7,2,1.2c0.6,0.5,1,1.2,1.3,2C189.8,40.5,189.9,41.4,189.9,42.3z M187.2,42.4c0-0.6-0.1-1.1-0.2-1.7
	c-0.1-0.5-0.4-1-0.7-1.4c-0.3-0.4-0.7-0.7-1.2-0.9c-0.6-0.2-1.3-0.3-1.9-0.3h-1.3v8.7h1.4c0.6,0,1.2-0.1,1.8-0.3
	c0.5-0.2,0.9-0.5,1.2-0.9c0.3-0.4,0.6-0.9,0.7-1.4C187.2,43.7,187.3,43,187.2,42.4L187.2,42.4z"/>
<path d="M201.6,48.6c0,0.1,0,0.1,0,0.2c0,0.1-0.1,0.1-0.2,0.1c-0.1,0-0.3,0.1-0.4,0.1c-0.2,0-0.4,0-0.8,0c-0.2,0-0.4,0-0.7,0
	c-0.1,0-0.3,0-0.4-0.1c-0.1,0-0.2-0.1-0.2-0.1c-0.1-0.1-0.1-0.1-0.1-0.2l-1.2-2.8c-0.1-0.3-0.3-0.6-0.4-0.9
	c-0.1-0.2-0.3-0.4-0.4-0.6c-0.2-0.2-0.3-0.3-0.6-0.4c-0.2-0.1-0.5-0.1-0.7-0.1h-0.8v4.9c0,0.1,0,0.1-0.1,0.2
	c-0.1,0.1-0.1,0.1-0.2,0.1c-0.1,0-0.3,0.1-0.4,0.1c-0.2,0-0.4,0-0.6,0c-0.2,0-0.4,0-0.6,0c-0.1,0-0.3,0-0.4-0.1
	c-0.1,0-0.2-0.1-0.2-0.1c0-0.1-0.1-0.1-0.1-0.2V36.9c0-0.2,0.1-0.5,0.2-0.6c0.1-0.1,0.3-0.2,0.5-0.2h3.3h0.8h0.6
	c0.5,0.1,0.9,0.2,1.4,0.4c0.4,0.2,0.7,0.4,1.1,0.7c0.3,0.3,0.5,0.6,0.7,1c0.2,0.4,0.2,0.9,0.2,1.3c0,0.4,0,0.8-0.2,1.2
	c-0.1,0.4-0.3,0.7-0.5,1c-0.2,0.3-0.5,0.5-0.8,0.7c-0.3,0.2-0.7,0.4-1.1,0.5c0.2,0.1,0.4,0.2,0.5,0.3c0.2,0.1,0.3,0.3,0.5,0.5
	c0.2,0.2,0.3,0.4,0.4,0.6c0.1,0.3,0.3,0.5,0.4,0.8l1.1,2.5c0.1,0.2,0.1,0.4,0.2,0.5C201.5,48.3,201.6,48.4,201.6,48.6z M198.3,39.8
	c0-0.4-0.1-0.7-0.3-1.1c-0.2-0.3-0.6-0.5-0.9-0.6c-0.1,0-0.3-0.1-0.4-0.1c-0.2,0-0.5,0-0.7,0h-1.2v3.6h1.3c0.3,0,0.7,0,1-0.1
	c0.3-0.1,0.5-0.2,0.7-0.4c0.2-0.2,0.3-0.4,0.4-0.6C198.2,40.3,198.3,40.1,198.3,39.8z"/>
<path d="M214.8,42.3c0,1-0.1,1.9-0.4,2.8c-0.2,0.8-0.6,1.5-1.2,2.1c-0.5,0.6-1.2,1.1-1.9,1.3c-0.9,0.3-1.8,0.5-2.7,0.5
	c-0.9,0-1.8-0.1-2.6-0.4c-0.7-0.2-1.3-0.6-1.9-1.2c-0.5-0.6-0.9-1.3-1.1-2c-0.3-1-0.4-1.9-0.4-2.9c0-0.9,0.1-1.9,0.4-2.8
	c0.2-0.8,0.6-1.5,1.2-2.2c0.5-0.6,1.2-1.1,2-1.4c0.9-0.3,1.8-0.5,2.7-0.5c0.9,0,1.7,0.1,2.6,0.4c0.7,0.2,1.4,0.6,1.9,1.2
	c0.5,0.6,0.9,1.3,1.1,2C214.7,40.4,214.9,41.3,214.8,42.3z M212.1,42.5c0-0.6,0-1.2-0.2-1.8c-0.1-0.5-0.3-1-0.5-1.4
	c-0.2-0.4-0.6-0.7-1-0.9c-0.5-0.2-1-0.3-1.6-0.3c-0.6,0-1.1,0.1-1.6,0.4c-0.4,0.3-0.7,0.6-1,1c-0.3,0.4-0.5,0.9-0.6,1.4
	c-0.1,0.6-0.2,1.1-0.2,1.7c0,0.6,0,1.3,0.2,1.9c0.1,0.5,0.3,1,0.5,1.4c0.2,0.4,0.6,0.7,1,0.9c0.5,0.2,1,0.3,1.6,0.3
	c0.6,0,1.1-0.1,1.6-0.3c0.4-0.2,0.8-0.6,1-1c0.3-0.4,0.5-0.9,0.6-1.4C212,43.6,212.1,43.1,212.1,42.5z"/>
<path d="M219.6,48.5c0,0.1,0,0.1-0.1,0.2c-0.1,0.1-0.1,0.1-0.2,0.1c-0.1,0-0.3,0.1-0.4,0.1c-0.2,0-0.4,0-0.6,0c-0.2,0-0.4,0-0.6,0
	c-0.1,0-0.3,0-0.4-0.1c-0.1,0-0.2-0.1-0.2-0.1c0,0-0.1-0.1-0.1-0.2V36.4c0-0.1,0-0.1,0.1-0.2c0.1-0.1,0.1-0.1,0.2-0.1
	c0.1,0,0.3-0.1,0.4-0.1c0.2,0,0.4,0,0.6,0c0.2,0,0.4,0,0.6,0c0.1,0,0.3,0,0.4,0.1c0.1,0,0.2,0.1,0.2,0.1c0,0,0.1,0.1,0.1,0.2
	L219.6,48.5z"/>
<path d="M233.1,42.3c0,1-0.1,2-0.5,3c-0.3,0.8-0.7,1.5-1.3,2c-0.6,0.5-1.3,0.9-2.1,1.2c-1,0.3-1.9,0.4-2.9,0.4h-3.1
	c-0.2,0-0.4-0.1-0.6-0.2c-0.2-0.2-0.2-0.4-0.2-0.6V36.9c0-0.2,0.1-0.5,0.2-0.6c0.2-0.1,0.3-0.2,0.6-0.2h3.3c1,0,2,0.1,2.9,0.4
	c0.7,0.2,1.4,0.7,2,1.2c0.6,0.5,1,1.2,1.3,1.9C232.9,40.5,233.1,41.4,233.1,42.3z M230.4,42.4c0-0.6-0.1-1.2-0.2-1.7
	c-0.1-0.5-0.4-1-0.7-1.4c-0.3-0.4-0.7-0.7-1.2-0.9c-0.6-0.2-1.3-0.3-1.9-0.3H225v8.7h1.4c0.6,0,1.2-0.1,1.8-0.3
	c0.5-0.2,0.9-0.5,1.2-0.8c0.3-0.4,0.6-0.9,0.7-1.4C230.3,43.7,230.4,43,230.4,42.4z"/>
<path d="M250.3,47.9c0.1,0.2,0.1,0.4,0.1,0.6c0,0.1,0,0.2-0.1,0.3c-0.1,0.1-0.2,0.1-0.4,0.1c-0.2,0-0.4,0-0.8,0h-0.8
	c-0.1,0-0.3,0-0.4-0.1c-0.1,0-0.1-0.1-0.2-0.1c0-0.1-0.1-0.1-0.1-0.2l-0.9-2.6H242l-0.8,2.5c0,0.1-0.1,0.2-0.1,0.2
	c-0.1,0.1-0.1,0.1-0.2,0.2c-0.1,0-0.3,0.1-0.4,0.1c-0.5,0-0.9,0-1.4,0c-0.1,0-0.3,0-0.4-0.1c-0.1-0.1-0.1-0.2-0.1-0.3
	c0-0.2,0.1-0.4,0.1-0.6l4-11.4c0-0.1,0.1-0.2,0.1-0.3c0.1-0.1,0.1-0.1,0.3-0.2c0.2,0,0.3-0.1,0.5-0.1h0.8h0.9c0.2,0,0.4,0,0.5,0.1
	c0.1,0,0.2,0.1,0.3,0.2c0.1,0.1,0.1,0.2,0.1,0.3L250.3,47.9z M244.4,38.5L244.4,38.5l-1.8,5.4h3.7L244.4,38.5z"/>
<path d="M260.8,40c0,0.7-0.1,1.3-0.3,1.9c-0.2,0.5-0.6,1-1,1.4c-0.5,0.4-1,0.7-1.6,0.9c-0.7,0.2-1.5,0.3-2.2,0.3h-1.1v4.1
	c0,0.1,0,0.1-0.1,0.2c-0.1,0.1-0.1,0.1-0.2,0.1c-0.1,0-0.3,0.1-0.4,0.1c-0.2,0-0.4,0-0.6,0c-0.2,0-0.4,0-0.6,0c-0.1,0-0.3,0-0.4-0.1
	c-0.1,0-0.2-0.1-0.2-0.1c0-0.1-0.1-0.1-0.1-0.2V37c0-0.3,0.1-0.5,0.3-0.7c0.2-0.2,0.4-0.2,0.6-0.2h3c0.6,0,1.2,0.1,1.9,0.2
	c0.4,0.1,0.8,0.2,1.2,0.4c0.8,0.4,1.4,1.1,1.6,1.9C260.7,39,260.8,39.5,260.8,40z M258.1,40.2c0-0.4-0.1-0.8-0.2-1.1
	c-0.1-0.3-0.3-0.5-0.6-0.6c-0.2-0.1-0.5-0.2-0.7-0.3c-0.3,0-0.5-0.1-0.8-0.1h-1.1v4.3h1.2c0.4,0,0.7,0,1-0.2
	c0.3-0.1,0.5-0.3,0.7-0.5c0.2-0.2,0.3-0.5,0.4-0.7C258.1,40.8,258.1,40.5,258.1,40.2z"/>
<path d="M271.6,40c0,0.7-0.1,1.3-0.4,1.9c-0.2,0.5-0.6,1-1,1.4c-0.5,0.4-1,0.7-1.6,0.9c-0.7,0.2-1.5,0.3-2.2,0.3h-1.1v4.1
	c0,0.1,0,0.1-0.1,0.2c-0.1,0.1-0.1,0.1-0.2,0.1c-0.1,0-0.3,0.1-0.4,0.1c-0.2,0-0.4,0-0.6,0c-0.2,0-0.4,0-0.6,0c-0.1,0-0.3,0-0.4-0.1
	c-0.1,0-0.1-0.1-0.2-0.1c0-0.1-0.1-0.1-0.1-0.2V37c0-0.3,0.1-0.5,0.2-0.7c0.2-0.2,0.4-0.2,0.6-0.2h3c0.3,0,0.6,0,0.9,0
	c0.3,0,0.7,0.1,1,0.2c0.4,0.1,0.8,0.2,1.2,0.4c0.4,0.2,0.7,0.5,1,0.8c0.3,0.3,0.5,0.7,0.6,1.1C271.5,39,271.6,39.5,271.6,40z
	 M268.9,40.2c0-0.4-0.1-0.8-0.2-1.1c-0.1-0.3-0.3-0.5-0.6-0.6c-0.2-0.1-0.5-0.2-0.7-0.3c-0.3,0-0.5-0.1-0.8-0.1h-1.1v4.3h1.2
	c0.3,0,0.7-0.1,1-0.2c0.3-0.1,0.5-0.3,0.7-0.5c0.2-0.2,0.3-0.5,0.4-0.7C268.8,40.8,268.9,40.5,268.9,40.2z"/>
<path d="M289.8,42.3c0,1-0.1,1.9-0.4,2.8c-0.2,0.8-0.6,1.5-1.2,2.1c-0.5,0.6-1.2,1.1-1.9,1.3c-0.9,0.3-1.8,0.5-2.7,0.5
	c-0.9,0-1.8-0.1-2.6-0.4c-0.7-0.2-1.3-0.6-1.9-1.2c-0.5-0.6-0.9-1.3-1.1-2c-0.3-1-0.4-1.9-0.4-2.9c0-0.9,0.1-1.9,0.4-2.8
	c0.2-0.8,0.7-1.5,1.2-2.2c0.5-0.6,1.2-1,1.9-1.3c0.9-0.3,1.8-0.5,2.7-0.5c0.9,0,1.7,0.1,2.6,0.4c0.7,0.2,1.3,0.6,1.8,1.2
	c0.5,0.6,0.9,1.3,1.1,2C289.7,40.4,289.8,41.3,289.8,42.3z M287,42.5c0-0.6,0-1.2-0.1-1.8c-0.1-0.5-0.3-1-0.5-1.4
	c-0.2-0.4-0.6-0.7-1-0.9c-0.5-0.2-1-0.3-1.6-0.3c-0.6,0-1.1,0.1-1.6,0.4c-0.4,0.3-0.7,0.6-1,1c-0.3,0.4-0.5,0.9-0.6,1.4
	c-0.1,0.6-0.2,1.1-0.2,1.7c0,0.6,0,1.3,0.2,1.9c0.1,0.5,0.3,1,0.5,1.4c0.2,0.4,0.6,0.7,1,0.9c0.5,0.2,1.1,0.3,1.6,0.3
	c0.6,0,1.1-0.1,1.6-0.3c0.4-0.2,0.8-0.6,1-1c0.3-0.4,0.5-0.9,0.6-1.4C287,43.6,287,43.1,287,42.5L287,42.5z"/>
<path d="M302.5,48c0,0.1,0,0.3-0.1,0.4c0,0.1-0.1,0.2-0.2,0.3c-0.1,0.1-0.2,0.1-0.3,0.2c-0.1,0-0.2,0-0.4,0h-1.1
	c-0.2,0-0.4,0-0.6-0.1c-0.2-0.1-0.3-0.1-0.5-0.3c-0.2-0.1-0.3-0.3-0.4-0.5c-0.2-0.3-0.3-0.5-0.5-0.8l-3.2-6
	c-0.2-0.4-0.4-0.7-0.6-1.2c-0.2-0.4-0.4-0.8-0.5-1.2l0,0c0,0.5,0,1,0.1,1.4s0,1,0,1.5v6.7c0,0.1,0,0.1,0,0.2
	c-0.1,0.1-0.1,0.1-0.2,0.1c-0.1,0-0.2,0.1-0.4,0.1c-0.2,0-0.4,0-0.6,0c-0.2,0-0.4,0-0.6,0c-0.1,0-0.2,0-0.4-0.1
	c-0.1,0-0.1-0.1-0.2-0.1c0-0.1,0-0.1,0-0.2V37c0-0.3,0.1-0.5,0.3-0.7c0.2-0.2,0.4-0.2,0.7-0.2h1.3c0.2,0,0.4,0,0.6,0.1
	c0.2,0,0.3,0.1,0.5,0.2c0.1,0.1,0.3,0.3,0.4,0.4c0.1,0.2,0.3,0.4,0.4,0.7l2.5,4.7c0.1,0.3,0.3,0.6,0.4,0.8l0.4,0.8l0.4,0.8l0.4,0.8
	l0,0c0-0.5,0-0.9,0-1.5s0-1,0-1.4v-6c0-0.1,0-0.1,0.1-0.2c0.1-0.1,0.1-0.1,0.2-0.1c0.1,0,0.2-0.1,0.4-0.1c0.2,0,0.4,0,0.6,0
	c0.2,0,0.4,0,0.6,0c0.1,0,0.2,0,0.4,0.1c0.1,0,0.1,0.1,0.2,0.1c0,0.1,0,0.1,0,0.2L302.5,48z"/>
</svg>
