<?xml version="1.0" encoding="utf-8"?>
<!-- Generator: Adobe Illustrator 24.2.3, SVG Export Plug-In . SVG Version: 6.00 Build 0)  -->
<svg version="1.1" id="Layer_1" xmlns="http://www.w3.org/2000/svg" xmlns:xlink="http://www.w3.org/1999/xlink" x="0px" y="0px"
	 viewBox="0 0 954 304" style="enable-background:new 0 0 954 304;" xml:space="preserve">
<style type="text/css">
	.st0{fill:none;stroke:#141313;stroke-width:5;}
	.st1{fill:#212020;}
	.st2{fill:#00C1FF;}
	.st3{fill:url(#SVGID_1_);}
	.st4{fill:url(#SVGID_2_);}
	.st5{fill:url(#SVGID_3_);}
	.st6{fill:url(#SVGID_4_);}
	.st7{fill:url(#SVGID_5_);}
	.st8{fill:url(#SVGID_6_);}
	.st9{fill:url(#SVGID_7_);}
	.st10{fill:url(#SVGID_8_);}
	.st11{fill:url(#SVGID_9_);}
	.st12{fill:url(#SVGID_10_);}
</style>
<path class="st0" d="M897.3,282H42.6c-18.9-0.1-34.1-15.4-34.2-34.2V42.3C8.5,23.4,23.8,8.1,42.6,8h854.7
	c18.9,0.1,34.1,15.4,34.2,34.2v205.5C931.5,266.6,916.2,281.9,897.3,282"/>
<path class="st1" d="M332.7,78.2c0,5.7-1.7,10.3-5.1,13.7c-3.9,4.1-8.9,6.1-15.1,6.1c-11.9,0.3-21.7-9.1-21.9-21
	c-0.3-11.9,9.1-21.7,21-21.9c0.3,0,0.6,0,0.9,0c2.9,0,5.8,0.6,8.4,1.7c2.5,1,4.7,2.6,6.4,4.6l-3.6,3.6c-2.7-3.2-6.5-4.9-11.2-4.9
	c-4.2,0-8.2,1.6-11.2,4.6c-6.3,6.6-6.3,17.1,0,23.7c6.3,6.1,16.3,6.1,22.7,0c2.1-2.3,3.3-5.2,3.4-8.3h-14.9v-4.9h19.9
	C332.6,76.2,332.7,77.2,332.7,78.2"/>
<path class="st1" d="M332.7,78.2H332c0,5.6-1.6,10-4.9,13.2l0,0c-3.7,3.9-8.5,5.9-14.6,5.9c-11.5,0-20.8-9.3-20.8-20.8
	c0-11.5,9.3-20.8,20.8-20.8c0,0,0,0,0,0c2.8,0,5.6,0.6,8.2,1.7c2.4,1,4.5,2.5,6.2,4.4l0.5-0.4l-0.5-0.5l-3.6,3.6l0.5,0.5l0.5-0.4
	c-2.8-3.4-6.8-5.1-11.8-5.1c-4.4-0.1-8.6,1.7-11.7,4.8c-6.8,6.5-7,17.4-0.5,24.2c3.2,3.3,7.6,5.2,12.2,5.3c4.5,0.1,8.8-1.6,12-4.8
	c2.2-2.4,3.5-5.5,3.6-8.8l0.1-0.7h-15v-3.6h19.2v-0.7l-0.7,0.1c0.2,1,0.3,2,0.3,3h1.4c0-1.1-0.1-2.2-0.3-3.2l-0.1-0.6h-21.1v6.3
	h15.6V80l-0.7-0.1c-0.1,2.9-1.3,5.7-3.2,7.9c-6.1,5.8-15.7,5.8-21.7,0c-6.3-6-6.5-16-0.5-22.2c2.9-3.1,7-4.8,11.2-4.9
	c4.6,0,8.1,1.5,10.7,4.6l0.5,0.6l4.1-4.1l0.5-0.5l-0.4-0.5c-1.8-2.1-4.1-3.7-6.7-4.8c-2.7-1.2-5.7-1.8-8.7-1.8
	c-12.2,0-22.2,9.9-22.2,22.1c0,12.2,9.9,22.2,22.1,22.2c0,0,0,0,0,0c6.3,0,11.6-2.1,15.6-6.3l-0.5-0.5l0.5,0.5
	c3.5-3.5,5.3-8.3,5.3-14.2L332.7,78.2 M364.2,61h-18.7v13h16.9v5h-16.9v13h18.7v5h-23.9V56h24L364.2,61"/>
<path class="st1" d="M364.2,61v-0.7h-19.4v14.4h16.9v3.6h-16.9v14.4h18.7v3.7h-22.6V56.6h22.6V61H364.2L364.2,61h0.7v-5.7h-25.3
	v42.5h25.3v-6.4h-18.7V79.7h16.9v-6.3h-16.9V61.7h18.7V61H364.2 M386.4,97h-5.3V61h-11.5v-5h28.2v5h-11.5V97"/>
<path class="st1" d="M386.4,97.1v-0.7h-4.6v-36h-11.5v-3.7h26.8v3.7h-11.5v36.7L386.4,97.1L386.4,97.1l0.7,0V61.7h11.5v-6.4H369v6.4
	h11.5v36h6.6V97L386.4,97.1 M418.3,97V56h5.3v41.1L418.3,97"/>
<path class="st1" d="M418.3,97.1h0.7V56.6h3.9v39.7h-4.6L418.3,97.1L418.3,97.1l0,0.7h6V55.3h-6.6v42.5h0.7L418.3,97.1 M447,97.1
	h-5.3V61h-11.5v-5h28.2v5H447L447,97.1"/>
<path class="st1" d="M447,97.1v-0.7h-4.6v-36h-11.5v-3.7h26.8v3.7h-11.5v36.7L447,97.1L447,97.1l0.7,0V61.7h11.5v-6.4h-29.6v6.4H441
	v36h6.6V97L447,97.1 M485.6,88.3c6.1,6.2,16.1,6.2,22.3,0c0,0,0,0,0,0c6.1-6.7,6.1-16.9,0-23.6c-6.1-6.2-16.1-6.2-22.3,0
	c0,0,0,0,0,0C479.6,71.4,479.6,81.6,485.6,88.3z M511.8,91.7c-8.3,8.3-21.8,8.3-30.1,0c-8.1-8.6-8.1-21.9,0-30.5
	c8.3-8.3,21.7-8.3,30-0.1c0,0,0,0,0.1,0.1C519.9,69.8,519.9,83.1,511.8,91.7L511.8,91.7z"/>
<path class="st1" d="M485.6,88.3l-0.5,0.5c6.4,6.4,16.8,6.4,23.2,0c0,0,0,0,0,0c6.3-7,6.3-17.6,0-24.5c-6.4-6.4-16.8-6.4-23.2,0
	c0,0,0,0,0,0c-6.3,7-6.3,17.6,0,24.5L485.6,88.3l0.5-0.5c-5.8-6.4-5.8-16.2,0-22.6c5.9-5.9,15.4-5.9,21.3,0c5.8,6.4,5.8,16.2,0,22.6
	c-5.9,5.9-15.4,5.9-21.3,0L485.6,88.3z M511.8,91.8l-0.5-0.5c-8,8-21.1,8-29.1,0l0,0l0,0c-7.8-8.3-7.8-21.2,0-29.5c8-8,21-8.1,29,0
	c0,0,0,0,0,0c7.8,8.3,7.8,21.2,0,29.5L511.8,91.8l0.5,0.4c8.3-8.8,8.3-22.6,0-31.4c-8.5-8.6-22.4-8.6-31,0c0,0,0,0,0,0l0,0
	c-8.3,8.8-8.3,22.6,0,31.4l0,0l0,0c8.6,8.6,22.5,8.6,31.1,0L511.8,91.8z M525.2,97.1V56h6.4l19.9,32h0.2l-0.2-7.9V56h5.3v41.1h-5.5
	l-20.9-33.5h-0.2l0.2,7.9v25.6L525.2,97.1"/>
<path class="st1" d="M525.2,97.1h0.7V56.6h5.3l19.9,32h1.3l-0.3-8.6V56.6h3.9v39.7h-4.4l-20.9-33.5h-1.3l0.3,8.6v24.9h-4.6
	L525.2,97.1L525.2,97.1l0,0.7h6V71.5l-0.2-7.9h-0.7v0.7h0.2v-0.7l-0.6,0.4L551,97.7h6.6V55.3h-6.6V80l0.2,7.9h0.7v-0.7h-0.2v0.7
	l0.6-0.4L532,55.3h-7.5v42.5h0.7L525.2,97.1 M739.7,213.5h12.8v-85.6h-12.8V213.5z M854.6,158.7l-14.6,37.1h-0.4l-15.2-37.1h-13.7
	l22.8,51.9l-13,28.9h13.3l35.1-80.7L854.6,158.7z M782.2,203.8c-4.2,0-10-2.1-10-7.3c0-6.6,7.3-9.1,13.5-9.1
	c4.1-0.1,8.1,0.9,11.7,2.9C796.4,197.9,789.9,203.7,782.2,203.8L782.2,203.8z M783.8,156.8c-9.2,0-18.8,4.1-22.8,13.1l11.3,4.7
	c2.4-4.7,6.9-6.3,11.7-6.3c6.6,0,13.3,4,13.4,11v0.9c-4.1-2.2-8.7-3.3-13.3-3.3c-12.2,0-24.6,6.7-24.6,19.3
	c0,11.5,10,18.8,21.2,18.8c8.6,0,13.3-3.9,16.3-8.4h0.4v6.6h12.3v-32.8C809.7,165.3,798.4,156.8,783.8,156.8L783.8,156.8z
	 M704.9,169.1h-18.2v-29.3h18.2c8.1,0,14.7,6.6,14.7,14.7S713,169.1,704.9,169.1C704.9,169.1,704.9,169.1,704.9,169.1z M704.6,127.9
	H674v85.6h12.8V181h17.8c14.1,0,28-10.3,28-26.6S718.7,127.9,704.6,127.9z M537.9,203.8c-8.8,0-16.2-7.4-16.2-17.5
	s7.4-17.8,16.2-17.8s15.5,7.5,15.5,17.8S546.6,203.8,537.9,203.8z M552.5,163.5h-0.4c-2.9-3.4-8.4-6.5-15.3-6.5
	c-14.5,0-27.9,12.8-27.9,29.2s13.3,29,27.9,29c6.9,0,12.5-3.1,15.3-6.6h0.4v4.2c0,11.1-5.9,17.1-15.5,17.1
	c-7.8,0-12.7-5.6-14.7-10.4l-11.1,4.6c4.3,10.5,14.5,17.3,25.8,17.2c15,0,27.7-8.8,27.7-30.3v-52.3h-12.1V163.5z M573.4,213.5h12.8
	v-85.6h-12.8V213.5z M605.1,185.3c-0.3-11.3,8.7-17,15.2-17c5.1,0,9.4,2.5,10.8,6.2L605.1,185.3z M644.7,175.6
	c-2.4-6.6-9.8-18.6-24.9-18.6s-27.4,11.8-27.4,29.1c0,16.3,12.3,29.1,28.9,29.1c9.7,0.1,18.8-4.8,24.2-12.9l-9.9-6.6
	c-3.3,4.9-7.8,8.1-14.3,8.1s-11.1-3-14.1-8.8l38.8-16.1L644.7,175.6z M334.9,166v12.4h29.5c-0.9,7-3.2,12-6.7,15.6
	c-4.3,4.3-11,9-22.8,9c-18.2,0-32.4-14.7-32.4-32.9s14.2-32.9,32.4-32.9c8.3-0.1,16.3,3.1,22.3,8.9l8.7-8.7
	c-8.2-8.2-19.4-12.6-31-12.5c-24.9,0-45.8,20.3-45.8,45.2s20.9,45.2,45.8,45.2c13.4,0,23.6-4.4,31.5-12.7
	c8.1-8.2,10.7-19.6,10.7-28.9c0-2.6-0.2-5.2-0.7-7.7L334.9,166z M410.7,203.8c-8.8,0-16.4-7.3-16.4-17.7s7.6-17.6,16.4-17.6
	s16.4,7.2,16.4,17.6S419.5,203.8,410.7,203.8L410.7,203.8z M410.7,157c-16.1,0-29.2,12.2-29.2,29.1s13.1,29.1,29.2,29.1
	c15.9,0.2,28.9-12.4,29.2-28.3c0-0.3,0-0.6,0-0.8C439.9,169.2,426.8,157,410.7,157L410.7,157z M474.4,203.8
	c-8.8,0-16.4-7.3-16.4-17.7s7.6-17.6,16.4-17.6s16.4,7.2,16.4,17.6S483.2,203.8,474.4,203.8z M474.4,157
	c-16.1,0-29.2,12.2-29.2,29.1c0,16.1,13.1,29.2,29.2,29.2s29.2-13.1,29.2-29.2l0,0C503.5,169.3,490.4,157,474.4,157z"/>
<path class="st2" d="M80.3,60.1c-2.3,2.1-3.7,5.5-3.7,10.1v149.5c0,4.2,1.2,7.5,3.2,9.6l0.5,0.5l0,0c1.7,1.5,3.8,2.3,6.1,2.2
	c2.7-0.1,5.3-0.9,7.7-2.3l99.2-56.5l34.1-19.4c4.3-2.5,6.8-5.6,7.2-8.9l0,0c-0.4-3.2-2.8-6.4-7.2-8.9l-34.1-19.4L94,60.2
	c-2.3-1.4-5-2.2-7.7-2.3C84.1,57.9,82,58.7,80.3,60.1L80.3,60.1z"/>
<linearGradient id="SVGID_1_" gradientUnits="userSpaceOnUse" x1="2923.5928" y1="-776.7948" x2="2783.4727" y2="-1046.2848" gradientTransform="matrix(0.22 0 0 -0.43 -514.43 -257.5)">
	<stop  offset="0" style="stop-color:#00A0FF"/>
	<stop  offset="1.000000e-02" style="stop-color:#00A1FF"/>
	<stop  offset="0.26" style="stop-color:#00BEFF"/>
	<stop  offset="0.51" style="stop-color:#00D2FF"/>
	<stop  offset="0.76" style="stop-color:#00DFFF"/>
	<stop  offset="1" style="stop-color:#00E3FF"/>
</linearGradient>
<path class="st3" d="M80.3,229.9l-0.5-0.5c-2-2.1-3.2-5.4-3.2-9.6V70.3c0-4.6,1.4-8,3.7-10.1L165,145L80.3,229.9"/>
<linearGradient id="SVGID_2_" gradientUnits="userSpaceOnUse" x1="1888.3217" y1="-1429.7321" x2="1403.3218" y2="-1429.7321" gradientTransform="matrix(0.34 0 0 -0.28 -404.74 -255.32)">
	<stop  offset="0" style="stop-color:#FFE000"/>
	<stop  offset="0.41" style="stop-color:#FFBD00"/>
	<stop  offset="0.78" style="stop-color:#FFA500"/>
	<stop  offset="1" style="stop-color:#FF9C00"/>
</linearGradient>
<path class="st4" d="M193.3,173.3L165,145l28.2-28.3l34.1,19.4c4.3,2.5,6.8,5.6,7.2,8.9l0,0c-0.4,3.2-2.8,6.4-7.2,8.9L193.3,173.3"
	/>
<linearGradient id="SVGID_3_" gradientUnits="userSpaceOnUse" x1="1879.4089" y1="-1330.7332" x2="1437.3389" y2="-1669.5731" gradientTransform="matrix(0.35 0 0 -0.27 -487.76 -194.78)">
	<stop  offset="0" style="stop-color:#FF3A44"/>
	<stop  offset="1" style="stop-color:#C31162"/>
</linearGradient>
<path class="st5" d="M86.4,232.1c-2.2,0-4.4-0.7-6.1-2.2l0,0L165,145l28.2,28.3L94,229.8C91.7,231.2,89,232,86.4,232.1"/>
<linearGradient id="SVGID_4_" gradientUnits="userSpaceOnUse" x1="1536.8159" y1="-1245.1345" x2="1733.9159" y2="-1396.4445" gradientTransform="matrix(0.35 0 0 -0.27 -487.69 -281.67)">
	<stop  offset="0" style="stop-color:#32A071"/>
	<stop  offset="7.000000e-02" style="stop-color:#2DA771"/>
	<stop  offset="0.48" style="stop-color:#15CF74"/>
	<stop  offset="0.8" style="stop-color:#06E775"/>
	<stop  offset="1" style="stop-color:#00F076"/>
</linearGradient>
<path class="st6" d="M165,145L80.3,60.1c1.7-1.5,3.8-2.3,6-2.2c2.7,0.1,5.4,0.9,7.7,2.3l99.3,56.5L165,145"/>
<linearGradient id="SVGID_5_" gradientUnits="userSpaceOnUse" x1="1620.7429" y1="-1907.4814" x2="1620.7429" y2="-1907.4814" gradientTransform="matrix(0.35 0 0 -0.27 -487.69 -281.67)">
	<stop  offset="0" style="stop-color:#32A071"/>
	<stop  offset="7.000000e-02" style="stop-color:#2DA771"/>
	<stop  offset="0.48" style="stop-color:#15CF74"/>
	<stop  offset="0.8" style="stop-color:#06E775"/>
	<stop  offset="1" style="stop-color:#00F076"/>
</linearGradient>
<path class="st7" d="M79.6,233.4"/>
<linearGradient id="SVGID_6_" gradientUnits="userSpaceOnUse" x1="3434.8916" y1="-721.0735" x2="3359.0918" y2="-940.6636" gradientTransform="matrix(0.18 0 0 -0.52 -522.12 -298.09)">
	<stop  offset="0" style="stop-color:#008DE0"/>
	<stop  offset="1.000000e-02" style="stop-color:#008DE0"/>
	<stop  offset="0.26" style="stop-color:#00A7E0"/>
	<stop  offset="0.51" style="stop-color:#00B8E0"/>
	<stop  offset="0.76" style="stop-color:#00C4E0"/>
	<stop  offset="1" style="stop-color:#00C7E0"/>
</linearGradient>
<path class="st8" d="M79.8,230.4c-2-2.1-3.2-5.4-3.2-9.6v-1c0,4.2,1.2,7.5,3.2,9.6l0.5,0.5L79.8,230.4"/>
<linearGradient id="SVGID_7_" gradientUnits="userSpaceOnUse" x1="1666.8616" y1="-1563" x2="1216.8315" y2="-1563" gradientTransform="matrix(0.37 0 0 -0.26 -372.28 -246.9)">
	<stop  offset="0" style="stop-color:#E0C500"/>
	<stop  offset="0.41" style="stop-color:#E0A600"/>
	<stop  offset="0.78" style="stop-color:#E09100"/>
	<stop  offset="1" style="stop-color:#E08900"/>
</linearGradient>
<path class="st9" d="M193.9,173.9l-0.6-0.6l34.1-19.4c4.3-2.5,6.8-5.6,7.2-8.9c0,1.2-0.3,2.4-0.8,3.5c-1.4,2.7-3.6,5-6.4,6.4
	L193.9,173.9"/>
<linearGradient id="SVGID_8_" gradientUnits="userSpaceOnUse" x1="1666.9016" y1="-1562.3077" x2="1216.8616" y2="-1562.3077" gradientTransform="matrix(0.37 0 0 -0.26 -372.28 -275.66)">
	<stop  offset="0" style="stop-color:#FFE840"/>
	<stop  offset="0.41" style="stop-color:#FFCE40"/>
	<stop  offset="0.78" style="stop-color:#FFBC40"/>
	<stop  offset="1" style="stop-color:#FFB540"/>
</linearGradient>
<path class="st10" d="M234.5,145c-0.4-3.2-2.8-6.4-7.2-8.9l-34.1-19.4l0.6-0.6l0,0l33.5,19C232.1,137.8,234.5,141.4,234.5,145"/>
<linearGradient id="SVGID_9_" gradientUnits="userSpaceOnUse" x1="3341.8774" y1="-992.3154" x2="3266.4978" y2="-1201.7754" gradientTransform="matrix(0.18 0 0 -0.52 -522.21 -458.92)">
	<stop  offset="0" style="stop-color:#40B8FF"/>
	<stop  offset="1.000000e-02" style="stop-color:#40B9FF"/>
	<stop  offset="0.26" style="stop-color:#40CEFF"/>
	<stop  offset="0.51" style="stop-color:#40DDFF"/>
	<stop  offset="0.76" style="stop-color:#40E7FF"/>
	<stop  offset="1" style="stop-color:#40EAFF"/>
</linearGradient>
<path class="st11" d="M76.6,70.3v-1c0-0.4,0-0.8,0-1.1v-0.1c0.2-3.6,1.3-6.5,3.1-8.4l0.5,0.5C78,62.3,76.6,65.7,76.6,70.3"/>
<linearGradient id="SVGID_10_" gradientUnits="userSpaceOnUse" x1="3343.2219" y1="-1107.3848" x2="3343.2219" y2="-1107.3848" gradientTransform="matrix(0.18 0 0 -0.52 -522.21 -458.92)">
	<stop  offset="0" style="stop-color:#40B8FF"/>
	<stop  offset="1.000000e-02" style="stop-color:#40B9FF"/>
	<stop  offset="0.26" style="stop-color:#40CEFF"/>
	<stop  offset="0.51" style="stop-color:#40DDFF"/>
	<stop  offset="0.76" style="stop-color:#40E7FF"/>
	<stop  offset="1" style="stop-color:#40EAFF"/>
</linearGradient>
<path class="st12" d="M79.6,116.9"/>
</svg>
