<svg id="Layer_1" data-name="Layer 1" xmlns="http://www.w3.org/2000/svg" viewBox="0 0 84 84"><path d="M43.49-.35c.87.08,1.73.15,2.59.24a40.69,40.69,0,0,1,18.34,6.5A41.49,41.49,0,0,1,82,30.14a40.85,40.85,0,0,1,1.46,15,42,42,0,0,1-31,37.06,41.26,41.26,0,0,1-14.34,1.25A42,42,0,0,1,1.81,55.09,40.88,40.88,0,0,1-.32,44c0-.17,0-.33-.07-.5V39.76c0-.15,0-.3.07-.45.11-1.18.19-2.37.35-3.54A40.64,40.64,0,0,1,5.31,20.51,41.74,41.74,0,0,1,24.22,3.41,40.76,40.76,0,0,1,37.08-.1l2.64-.25ZM41.61,80.14A38.5,38.5,0,1,0,3.11,41.63,38.54,38.54,0,0,0,41.61,80.14Z" transform="translate(0.39 0.35)"/><path d="M44.6,51.36H41.12l-.37,0c.07-.83.13-1.65.21-2.46a15.16,15.16,0,0,1,5.27-9.94A15.69,15.69,0,0,0,49.54,35a8,8,0,0,0-.06-8.68,7.88,7.88,0,0,0-5.73-3.6,12.17,12.17,0,0,0-6.72.79,7.16,7.16,0,0,0-4.33,5.71c-.15.88-.19,1.78-.28,2.71H28.66c.06-.74.09-1.48.18-2.21a11.9,11.9,0,0,1,2-5.55,10.43,10.43,0,0,1,6.25-4.13,17.77,17.77,0,0,1,8.9-.18c4.25,1.09,7.25,3.58,8.27,8a11.16,11.16,0,0,1-2.59,10.26C50.48,39.49,49.15,40.7,48,42a22.93,22.93,0,0,0-2.11,2.69A8.8,8.8,0,0,0,44.7,49.3C44.66,50,44.63,50.64,44.6,51.36Z" transform="translate(0.39 0.35)"/><path d="M42.49,57.06a3.4,3.4,0,1,1-.05,6.79,3.4,3.4,0,1,1,.05-6.79Z" transform="translate(0.39 0.35)"/></svg>