<?xml version="1.0" encoding="utf-8"?>
<!-- Generator: Adobe Illustrator 24.1.1, SVG Export Plug-In . SVG Version: 6.00 Build 0)  -->
<svg version="1.1" id="Layer_1" xmlns="http://www.w3.org/2000/svg" xmlns:xlink="http://www.w3.org/1999/xlink" x="0px" y="0px"
	 viewBox="0 0 1920 800" style="enable-background:new 0 0 1920 800;" xml:space="preserve">
<style type="text/css">
	.st0{fill:#FFFFFF;}
	.st1{fill:url(#SVGID_1_);}
	.st2{opacity:0.44;fill-rule:evenodd;clip-rule:evenodd;fill:#C4CDD3;enable-background:new    ;}
	.st3{fill-rule:evenodd;clip-rule:evenodd;fill:#EC1C24;}
	.st4{fill-rule:evenodd;clip-rule:evenodd;fill:#FFFFFF;}
	.st5{fill:#F48120;}
	.st6{fill-rule:evenodd;clip-rule:evenodd;fill:#C4CDD3;}
	.st7{fill-rule:evenodd;clip-rule:evenodd;fill:#F48120;}
	.st8{fill:#ECECEC;}
	.st9{fill:#E1E1E1;}
	.st10{enable-background:new    ;}
	.st11{fill:#C4CDD3;}
	.st12{fill:#F5F5F5;}
	.st13{opacity:0.44;enable-background:new    ;}
	.st14{fill:#FAFAFA;}
	.st15{fill:#241B52;}
	.st16{fill:#FFDE69;}
	.st17{fill:#522879;}
	.st18{fill:#2E3552;}
	.st19{fill:#E58033;}
	.st20{fill:#122544;}
	.st21{clip-path:url(#SVGID_3_);}
	.st22{fill:url(#path434_1_);}
	.st23{fill:#423191;}
	.st24{fill:#582E60;}
	.st25{fill:#522B73;}
	.st26{fill:#FF753C;}
	.st27{fill:#7545A3;}
	.st28{fill:#EA9E6A;}
	.st29{fill:#D88D59;}
	.st30{fill:#726669;}
	.st31{fill:#161338;}
	.st32{clip-path:url(#SVGID_5_);}
	.st33{fill:url(#path492_1_);}
</style>
<g>
	<g>
		<rect x="-0.2" y="-0.3" class="st0" width="1920" height="800"/>
		
			<linearGradient id="SVGID_1_" gradientUnits="userSpaceOnUse" x1="1034.5409" y1="400.557" x2="1918.6409" y2="400.557" gradientTransform="matrix(1 0 0 -1 2.89 798.99)">
			<stop  offset="0" style="stop-color:#FAE5E7"/>
			<stop  offset="1" style="stop-color:#ECEEFA"/>
		</linearGradient>
		<path class="st1" d="M1548.7,796.3c0,0,202.1-13,371.7-108.1l1.1-686.6l-884.1-1c0,0,436.4,188.8,185.2,520.8
			c-18.8,24.6-30.7,53.8-34.4,84.6c-8.8,78,31.9,195.1,360.3,190L1548.7,796.3z"/>
		<g>
			<g>
				<path id="path380_1_" class="st2" d="M1525,151.8c0-0.2,0-0.3,0-0.4c0.6,0,1.2,0,1.8,0c0,0.2,0,0.3,0,0.4
					C1526.2,151.8,1525.6,151.8,1525,151.8z M1537.4,152.1c-2.1-0.3-1-0.8,0.3-0.5C1537.7,151.9,1537.7,152,1537.4,152.1z
					 M1443.3,153.7c-1.1-0.5,2.4-0.9,2.5-0.9C1447.3,153.3,1443.9,153.5,1443.3,153.7z M1718.6,153.7c-0.4-0.4-0.2-0.6,0.3-0.6
					C1718.9,153.5,1719,153.7,1718.6,153.7z M1464.2,153.7c0-0.8,2.1-0.9,2.1-0.3C1465.6,153.5,1465,153.7,1464.2,153.7z
					 M1463.3,153.8c0-0.4,0.4-0.5,0.5-0.2C1463.6,153.8,1463.6,153.8,1463.3,153.8z M1671.7,155c-1.2-0.6,0.4-1,1-1.1
					C1673.8,154.4,1672,155,1671.7,155z M1662.4,155c-0.9-0.3-3.9-0.6-3.9-1.2c0.3-0.4,4.7-1,5.8-0.4c0.8,0.1,1.2-0.2,1.2,0.6
					C1663.6,154.3,1663.7,155,1662.4,155z M1682.9,155.5c-1.5-0.2-1.6-0.8,0-0.9c1.4-0.8-0.9-1-1.4-0.4c-0.3,1.8-1.2,0.5-2.4,0.5
					c-1.5,0.4-1.2,0.5-1.8-0.4c-0.8-0.2-2.9,0.2-2.9-0.7c1-1.5,3.9-0.6,5.3-1.4c1.5-0.1,2.9-0.7,4.4-0.7c1.3,1.2-3.9,0.9-1.6,1.7
					c1.6,0.2,1.3,0.5,3-0.3c1.1,0,2.2,0.3,2.4-0.8c0.6-0.3,3.8-0.5,3.9,0.2c-1,1.4,2.8,0,2.9,1.4c-0.5,0.8-6.5,0.9-5.2-0.4
					c0.2,0,0.4-0.1,0.6-0.1c0-1.2-2.8,0.3-3.5,0.6C1684.3,153.7,1684.8,154.8,1682.9,155.5L1682.9,155.5z M1667.9,155.5
					c-2.2-1.5,3.1-1,1.9-0.1C1669.2,155.4,1668.6,155.4,1667.9,155.5z M1427.6,155.5c-0.5-0.6-0.1-1.4-1-1.4
					c-1.1,0.5-6.4-0.3-6.4-1.4c1.7-0.1,3.8,0.3,5.6,0.6c0.6,0,3.8-0.5,3.8,0.3C1428,154.5,1429.1,155.4,1427.6,155.5L1427.6,155.5z
					 M1407,155.8c-0.4-0.3-0.9-0.5-1.2-0.8C1404.6,153.3,1408.6,155.4,1407,155.8z M1714.4,156.2c-0.4-0.1-1-0.2-1.1-0.6
					c0.4-0.5,3.8-0.2,2.3,0.6C1715.1,156.2,1714.8,156.2,1714.4,156.2z M1431.7,156.7c-0.6-0.5-2.5-1.5-0.5-1.2
					C1431.8,155.9,1433.3,156.7,1431.7,156.7z M1752.4,157.7c-0.3-0.9-5.1-0.8-5.6-0.8c-1.9-0.5-1.6-1.8-3.3-1
					c-1.3,0-2.4,0.2-3.5-0.6c0.1-0.9,1.7-0.2,2.4-0.5c0-0.7,0-1.3,0.8-1.7c1.5,0.1,8.1-1,8.2,1c-0.7,1.1,0.2,0.6,1,0.6
					c1.2,0.8,1.7,1,1.8,2.4C1753.7,157.1,1752.7,157.1,1752.4,157.7L1752.4,157.7z M1387.7,158.3c-0.5-0.1-1.1-0.2-1.7-0.2
					c-1.1-0.4-3.8,0.6-3.8-0.7c0.5-0.2,6.7-1.6,6.7,0.6C1388.6,158.3,1388.1,158.3,1387.7,158.3z M1549.2,159.1
					c-1-0.6,1-1.4,0.3-0.2C1549.5,159,1549.3,159,1549.2,159.1z M1402.2,159.2c-0.9-0.1-1.9-0.5-0.5-0.7c0-1.6-4.6,0.4-4.6-1.1
					c1.7-2.4,2.7-0.3,4.7-1.1c0.8,0,6.5,1,4.4,2.4c-0.9,0-2.1-0.5-2.7,0.3C1403,159.1,1402.6,159.2,1402.2,159.2L1402.2,159.2z
					 M1380.6,159.2c-0.5-0.3-1.2-0.4-1.2-1C1380.3,157.7,1382.6,158.4,1380.6,159.2z M1430.8,159.3c-1.2-0.5-1.7-1.3-3.1-0.9
					c-2.7,0-0.3-1.2,1-1.2c2.7,1.7,1.4,0.7,3.7,0.7C1434.4,159.3,1431.9,159.3,1430.8,159.3L1430.8,159.3z M1437.4,159.6
					c0-0.2,0-0.3-0.1-0.4C1437.7,159.1,1437.6,159.5,1437.4,159.6z M1735.9,160c-0.8-1.1,1.2-1,0.3-0.1
					C1736.2,160,1736.1,160,1735.9,160z M1423.4,160c-1-0.8-2.7-1.7-0.6-1.8c0.6-0.3,2.8-0.2,2.8,0.4
					C1424.9,159.4,1424.6,159.9,1423.4,160z M1396.6,160c-0.4-0.3-0.9-0.6-1.2-0.9C1394.4,157.6,1398.4,159.5,1396.6,160z
					 M1839.5,160.9c-0.8-0.9,2.2-1.4,2.1-0.2C1840.9,160.7,1840.2,160.8,1839.5,160.9z M1750.5,160.9c-0.9-0.5,0.1-1.4,0.5-0.3
					C1751,161,1750.9,160.9,1750.5,160.9z M1747.8,160.9c-0.8-0.6,1.4-2.3,1.4-1.1C1749,161,1749.1,160.9,1747.8,160.9z
					 M1397.9,161.6c-1.5-2.2,2.9-1.4,2.4-0.3C1399.5,161.4,1398.8,161.5,1397.9,161.6z M1375.1,162.1c-1.6-1,3.1-1.5,1.5-0.8
					C1376.6,161.7,1375.6,162,1375.1,162.1z M1816.7,163.1c-0.1-2.1,1.8-1.4,0.4-0.1C1817,163,1816.8,163,1816.7,163.1z
					 M1416.5,163.2c-2.7-0.7-1.8-1.5,0.3-0.6C1416.9,163.2,1416.9,163.2,1416.5,163.2z M1723.6,163.3c-0.3-0.3-0.2-0.8-0.5-1.1
					c-1.9-0.5,3.1-1.8,3-0.2c-1.2,0.4-1.7-0.3-2,1.2C1723.9,163.3,1723.9,163.3,1723.6,163.3L1723.6,163.3z M1380.6,163.3
					c0.2-0.1,0.4-0.1,0.5-0.1C1381.2,162.6,1379.9,163,1380.6,163.3z M1542.3,163.4c-2.1-0.9,0.5-1.2,0.5-0.2
					C1542.7,163.3,1542.5,163.4,1542.3,163.4z M1548.8,163.5c-1-0.6,0.4-1.7,0.3-0.2C1549.1,163.3,1549,163.4,1548.8,163.5z
					 M1544.3,163.7c0-0.3-0.2-0.5,0.3-0.3C1544.7,163.7,1544.7,163.7,1544.3,163.7z M1406.2,163.7c0.8-0.1,0.9-0.1,2.9-0.4
					c1.1-0.9,1-2.5-0.5-2.7c-1.3-0.7-5.5-0.4-6.9,0.3c-0.3,0.4-1.2,1.2-1.3,1.2c-0.3,1.4,3.1,0.1,3.8,1
					C1404.8,163.4,1405.5,163.6,1406.2,163.7L1406.2,163.7z M1397.9,163.7c0.5-0.2,1-0.3,1.4-0.7
					C1398.2,161.2,1397.1,163.2,1397.9,163.7z M1824.3,163.9c-1.2-0.3-4.6,0.5-4.6-1.6c0.7-1.3,2.7-1.2,3.9-1.2
					c3,1.6,2.3-0.3,5.1,0.4c0.9,0.3,7.7,0.2,4.4,1.8C1830,163.9,1827.3,163.8,1824.3,163.9L1824.3,163.9z M1841.3,164
					c-0.5-0.1-7-0.4-5.3-1.7c2.4,0,4.8,0.5,7.2,0.3C1845,163.6,1842,164,1841.3,164z M1718.6,164.4c-0.9-0.5,0.5-1.1,0.5-0.3
					C1718.8,164.3,1718.8,164.3,1718.6,164.4z M1381.3,164.6c1.6-0.1,3.1-0.2,4.7-0.1c3.2-1.1,6.6,0,9.7-1.5c0.8-1.4-2.1-1-2.7-1
					c-2.1,0.8-3.1-2.9-3.3-0.1c-0.4,0.9-1.9,0.4-2.8,0.3c-0.5,0.2-0.8,0.4-1.4,0.3c-0.6-1.4-3-1.2-4.4-1.4c0.1-0.6,1-0.6,0.3-1.2
					c-1.7-0.2-1.8-0.2-2.1,1.2c-2.5-0.3-1.4-2.4-3.5-1.7c-1-0.1-2-0.2-3.1-0.3c-0.5,0.8-1.7,0.7-2.6,1c-1.4,0.9-3.8,0-5.1,1.2
					c0,1.9,3.2,0.1,4.4,0.6c1.2,0,2.4-0.9,3.6-1.2c2.8,0-2,2.1-0.1,2.1c1.2-0.4,1.1-1.3,1.1,0.3c1.1,0.8,4.4,0.2,5.8,0.3
					C1380.1,164.2,1380.4,164.2,1381.3,164.6z M1728.3,164.7C1727.5,164.4,1728.4,163.2,1728.3,164.7
					C1728.4,164.6,1728.4,164.6,1728.3,164.7z M1782.7,164.9c-0.3-0.4-0.1-1,0.3-0.5C1783,164.7,1783.1,164.9,1782.7,164.9z
					 M1818,165.6c-0.9-0.4-0.9-0.4-1.2-0.5C1816.6,163.3,1819.7,165.3,1818,165.6z M1731.1,166.2c-1.1-0.9,0.5-1,0.5-0.1
					C1731.5,166.2,1731.5,166.2,1731.1,166.2z M1440.5,167.8c0.9-0.2-0.2-1-0.2-0.3C1440.3,167.6,1440.4,167.7,1440.5,167.8z
					 M1443.7,168.4c0.2-0.1,0.3-0.1,0.5-0.1c1.2-1.4-0.1-1.1-1.5-1.1C1440.3,167.6,1442.7,168,1443.7,168.4L1443.7,168.4z
					 M1391.6,168.7c0.1-0.1,0.2-0.1,0.3-0.1C1391.7,168,1391.1,168.4,1391.6,168.7z M1723.6,168.9c-0.5-0.3-1.8-0.4-1.9-1
					C1722.7,168,1727,168.7,1723.6,168.9z M1407.7,169.7c0.4-0.1,0.8-0.3,1.1-0.5c1.6,0,3.1,0,2-1.7c0-0.5,1-1.2-0.2-1.2
					c-0.4,0.6-1.7-0.1-0.6-0.3c1-1.9-4.3-1-4.7-1c-0.5,2.8-2.8,1.1-4.4,1.7c-1,1.3,3.1,1.6,3.8,1.8
					C1405.7,169,1406.6,169.4,1407.7,169.7L1407.7,169.7z M1673.1,170c-0.1-0.2-0.2-0.3-0.3-0.4C1673,169,1674.1,169.6,1673.1,170z
					 M1860.8,170.8c-1.5-0.8,0.9-1.2,0.3-0.2C1861.1,170.7,1860.9,170.8,1860.8,170.8z M1677.7,170.9c-2.6-0.3-5.1,0.2-6.9-1.7
					c-2.2-0.5-0.2-1.2,0.9-1.4c1.4-0.7,2.4-1.2,2.7-2.6c0.9-0.2,4.2-0.1,4.2-1.2c-2.4-0.8,1.7-1.1,2.1-1.3c1.3-1,1.8-0.8,3.6-0.9
					c1.2-0.2,1.9-0.7,3.1-0.9c2.4,0.3,5.1,0,7.4-0.1c1.2-0.5,6.5-2.7,5.1,0.4c-0.1,0.1-0.2,0.1-0.3,0.2c-4.2,0-8.6,1.1-12.8,1.5
					c-1.6,0.3-1.1,1.6-3.1,1.1c-0.6,0-1-0.1-1.5,0.3c-0.3,1.5-2.9,2-4.2,2.4c-3.4,1.8,3.1,3.2,2.3,4.1
					C1679.4,170.8,1678.6,170.8,1677.7,170.9L1677.7,170.9z M1863.9,171c-0.7-0.8-1.5,0.5-1.1-0.8
					C1863.1,170.2,1865.5,170.8,1863.9,171z M1724.7,171.2c-0.7-0.7-0.1-1,0.6-1.6C1725.7,169.7,1725.5,171,1724.7,171.2z
					 M1537.5,171.2c-0.9-0.3-2.5-1.2-0.5-1.4C1537.4,170,1538.8,171,1537.5,171.2z M1534.1,171.2c-1.1-0.3-2.4-0.4-3.6-0.3
					c0-1.1,6.8-0.6,4.4,0.3C1534.6,171.2,1534.3,171.2,1534.1,171.2L1534.1,171.2z M1379.2,171.2c0.8,0,1.5,0,2.3,0
					c0-0.2,0-0.3,0-0.4c-0.8,0-1.5,0-2.3,0C1379.2,170.8,1379.2,171,1379.2,171.2z M1404.6,171.4c0.3-0.1,0.3-0.1,0.4-0.4
					C1404.6,169.8,1403.9,170.8,1404.6,171.4z M1442.7,172c1.2-0.1,0.9-0.7-0.2-0.6C1442.7,171.7,1442.7,171.7,1442.7,172z
					 M1682.9,172.2c-2.2-1-0.3-1.7,0.5-0.6C1683.4,172.1,1683.4,172.1,1682.9,172.2z M1434.7,172.2c0.5,0,0.3-0.4,1-0.2
					C1437,172.1,1434.7,171.2,1434.7,172.2z M1393.7,173.5c0.4-0.2,0.3-0.4-0.1-0.4C1393.6,173.2,1393.6,173.3,1393.7,173.5z
					 M1664.4,173.6c-0.6-1,1.7-2,1.7-0.9C1665.7,173.4,1665,173.5,1664.4,173.6z M1606.5,174.8c-1.5-0.9-1.2-1,0.3-1.4
					C1608.2,173.4,1607.3,174.6,1606.5,174.8z M1450.5,175.3c0.2-0.6,0.8-0.5-0.1-1C1449,174.5,1450,174.8,1450.5,175.3z
					 M1602.6,175.7c-1.4-1.5,4.2-1.5,2.2-0.5C1603.7,175.2,1603.4,175.6,1602.6,175.7z M1412.5,176.4c0.7-0.1,0.6-0.6,0.6-1.2
					c0.6-0.8,3,0.2,2.9-1.2c-0.7,0.1-1.7,0.3-1.2-0.7c0.6-0.5-0.6-0.5-1-0.6c-2.4,0,0.3,1-1.6,1.9
					C1411.9,175,1412.3,176,1412.5,176.4L1412.5,176.4z M1392.2,176.7c0.4-0.2-0.3-1.6-0.7-1.8c-1.2-0.2-0.6-0.8-1.2-1
					c-1.9,0.4-6.7,1.7-8.4,0.4c-0.3-0.4-0.4-0.8-0.8-1c-2.3-0.1-1.7-0.1-1.7,1.7c1,1.1,8.5,0.4,10-0.3c0.7,0,0.5,0.2,0.6,0.9
					C1390.9,175.7,1391.4,176.2,1392.2,176.7L1392.2,176.7z M1456,177.9c0.3-0.1,0.3-0.1,0.6-0.2
					C1456.8,176.7,1455.2,177.2,1456,177.9z M1539.5,179.9c-0.9-0.3,1.8-1,1.8-0.2C1540.8,179.9,1540.2,179.9,1539.5,179.9z
					 M1598.2,182.8c-0.1-1,2.6-1,0.8-0.2C1598.7,182.7,1598.4,182.8,1598.2,182.8z M1546.6,182.9c-1.1-0.1-1.9-0.4-3.1-0.8
					c-0.5,0-3.9,0.5-3-0.9c1.7-0.8-1.8-0.4-2.2-0.8c0.6-1.4-1-0.4-1-1.6c0.8-0.1,1.7-0.3,1.8-1.2c1.4-0.3,3.7-0.5,3.9,1.2
					c0.4,0.3,0.8,0.2,1.2-0.1c0.9-1.2,3.6-0.5,4.9-0.4c0.9-0.2,1.4-0.9,2.3-1c2.1,1.6,3.1-0.9,4.7,1.7c0,1.2,0,1.2-1.1,1.4
					c-1,0.9-2.4,1.1-3.6,1.7c-0.5,0-1.1-0.2-1.8-0.2C1548.8,182.7,1547.9,182.8,1546.6,182.9L1546.6,182.9z M1436.5,184.2
					c0.5-0.1,0.5-0.1,0.6-0.2C1437.1,182.7,1435.5,183,1436.5,184.2z M1440.7,186c0.8-0.1,0.6-0.9,0.8-1.6
					C1440.6,183.6,1440.6,185.7,1440.7,186z M1466.7,186.6c0.3-0.1,0.3-0.1,0.5-0.3C1467.8,185,1465.9,185.8,1466.7,186.6z
					 M1461.3,188.5c0.3-0.1,0.4-0.2,0.5-0.3C1461.6,186.6,1460.4,187.8,1461.3,188.5z M1322.3,188.9c1-0.2,1.6-1.5,0.1-0.6
					C1322.2,188.6,1322.1,188.6,1322.3,188.9z M1290.6,188.9c0.3-0.1,0.3-0.1,0.4-0.2C1291,187.4,1288.5,187.5,1290.6,188.9z
					 M1502.9,189.1c2.3-0.5,2.2-0.7,3.2-2.8c0.9-1-1.7-2.1-0.4-2.4c0.3,1.1,1.7,0.4,1.2-0.5c-0.8-0.1,1.7-0.6,2.1-0.8
					c1-1.1-0.1-1.7-0.1-2.7c0.6-0.6,5.2-1.4,6.1-0.6c0.4,0,0.4,0,0.8-0.3c2.9-1,4.7-0.8,6.8-3.3c1.7-0.9,3.5-0.2,5.5-0.9
					c2.5-0.3,5.1-0.6,7.5-1c2.3-1.1,4.9-1.3,6.9-2.9c0.1-3.2-1.7-2.4-4.3-3.3c-0.6-0.1-3.8,0.4-3.2-1.3c0.8-0.1,5.1-1.6,5.1,0.2
					c-0.5,0.3-1.7,0.1-2.2-0.1c-1.6,0.6,3.4,1.7,3.9,1.5c0.9-1.1-0.3-0.9-0.4-1.7c1.4-0.4,0.6,1.1,1.8,0.5c1-2.4-0.9-0.5-1.8-1.9
					c0-1,1.1,0.1,1.5,0.1c1.1-0.5,4.1,0.2,4.1-1c-0.6-0.1-1,0-1-0.6c2.1-3.3-3.6-1.7-3.7-2.9c1.3-0.3,2.8-0.2,4.1,0.1
					c0.9,0.6,1.4,2.1,1.5,0.3c2.5-1.5-3.3-2.5-4.1-2.6c-1,0.3-1,0.1-0.5-0.6c1.7-1.5,2.5-0.3,3.9-0.4c0.3,1.2,2.7-0.2,2.6-0.9
					c-1-1-2.5,2.2-2.6-0.2c-0.5-0.2-0.9-0.8-0.5-1.1c2.3,0,3-0.2,4.7-1c1.5-0.1,7.4-0.6,7.3-1.9c-2.9-0.8-6.5-0.4-9.4-0.4
					c-0.3,0.2-0.3,0.2-1,0.8c-1-0.1-1.9-0.1-2.9-0.2c-1.1-0.4-2.2,0.2-3.4,0.4c-2.2-1,1.8-1.8,0.4-2.3c-1.7-0.3-5.3,0.1-6.7-1
					c-7.4-0.7-15.7-1.2-23,0c-1.4,1.7-6-0.4-8.2,0.4c-1.6-0.1-2.8-0.4-4.2,0.1c-2.7,0.1,0.3,1,1.2,1.1c1.9,1.5-3.6,0.3-3.8,0.3
					c-1.2-0.2-7-1.1-7-0.2c0.3,0.3,0.5,0.3,0.9,0.5c-0.2,1-3.1-0.6-4.1-0.1c-1.6,1.4-0.9,0.5-2.4-0.3c-3.4,0-8.8-0.3-11.6,1.9
					c-0.6,0-1.9-0.2-2.9-0.2c-0.9,0.2-5.2,1.4-2.4-0.4c1,0,5.1,0.1,4.8-1.3c-0.9-0.3-1.7-0.3-2.7-0.3c-0.7-0.4-0.7-0.7-1.7-0.4
					c-3.6,0-7.3-0.4-11-0.4c-1.9,0.4-3.5-0.4-5.3,0.4c-3.4-0.4-6.6-0.3-10-0.3c-1.1,0.5-1.6,0.4-2.8,0.1c-1.1,0.5-2.2,0.6-3.4,0.6
					c-0.2,1.4-3.8-0.1-4.4,0.3c-0.3,0.8-1,0.6-1.7,0.6c-1.8-0.5-3.8-0.3-5.5,0.3c-1.2-0.1-4.7-1-4.7,0.6c-1.8,0.6-5.4-0.9-4.5,2.2
					c-0.2,0.8-1.1,0.8-1.7,1c-0.8,1,1.4,0.8,1.8,0.8c1.9,1.6,3.2,1.5,5.8,2c0.2,0.3,0.2,0.3,0.1,0.4c-0.1,0.8,2.8,1.7,0.4,2.1
					c-1.6-0.7-3.2,0-4.7-0.4c-0.7-0.9-1.2-0.4-2.4-0.4c-3.1-0.8,1-0.5,1.9-0.5c0.8-0.8-1.8-0.6-2.3-1.7c-0.8-0.5-3.5-0.8-4.7-0.8
					c-2.2,2.1,6.7,1.9,2.2,3.1c-1.7,1,1.1,1,2.1,1.5c2.9,0,4.4-1,6,2.3c1.6,1.2,4.4-0.3,6.1,0.5c2,0,4-0.2,6-0.2
					c1.1,0.4,1.3-0.2,2.4-0.2c1.5,0.6,4.6,1,5.8-0.2c1-2.9-5.1-1.9-6.5-1.9c-1.5,0.4-7.9,1.2-8.8,0.1c0-0.8,0.3-0.6,1.1-0.6
					c1.9,0.3,2.9-0.6,4.8,0.2c1.8-0.2,3.5-0.1,5.2-0.5c0.9,0.2,1.5,0.2,2.4,0.2c0.9,1.3,2.1,0.1,3.1,1.2c0.6,0,2.2-1,2.2-1.7
					c-2-1.7,2.4-2.2,3.5-2.2c0.5-0.7-0.5-1.5-1-1.9c-2.1-0.4,1.1-0.5,1.6-0.4c1,0.4,7.8-0.2,8.5-1c0.2-1,0.9-0.7,1.7-0.5
					c1,0,4.6-1.2,4.8-0.3c-0.1,0-0.1,0-0.2,0c-0.2,1.7,3.9,0.8,5.1,0.8c0,1-3.9,1.2-4.4,1.4c-3.2,0-6.4,0.8-9.7,0.9
					c-1.7,0.6,0.4,1.1,1,1.2c0.8,0.8-1.7,0.2-0.8,1.1c2.4,0.2,4.4,1.4,6.5,2.1c2.5,0,5.3,0.3,7.6-0.4c3.6,0,7.8-0.2,10.5,2.2
					c0.5,0.3,2.4,0.3,1.6,1.1c0,1.1,1.4-0.1,1.9,1.1c1.9,1.1-0.6,3.2,1.7,3.8c2.3,0,3.4-0.8,5.4,0.5c0.7,0.1,1.8,0,1.7,0.8
					c-2.1-0.4-4.8-1.6-6.9-0.3c0.1,1,0.8,0.4,1.5,0.7c0,2.1,4.5,2.7,4.5,0.8c0.2-0.2,1.8,0.3,2.1,0.3c-0.1,2.6-3.9,0.5-5.1,2.1
					c-0.6,2.3-1.6,3.5,1.4,5c0.3,0.4,0.3,0.4,1,1.8c1.3,0.6,1.2-1.6,2.5-1c1.6,1.5-2.2,2.1,0,2.9c1.4,1.7,1.8,2.8,3.9,3.5
					c1.7,1.2,2.4,0.7,4.8,0.3c0.4-0.4,0.5,0.1,0.3,0.2C1500,188.7,1501.7,188.4,1502.9,189.1L1502.9,189.1z M1599.4,193.3
					c-0.1-0.3-0.1-0.3,0-0.4C1600.1,192.9,1600,193.2,1599.4,193.3z M1312.1,193.6c1.4-0.1,3.1-2.7,1.3-2.9c-0.5,1.5-3.6,1-3.6,2.2
					C1310.3,193.2,1311.5,193.4,1312.1,193.6z M1612.2,193.9c-2.1-1.6,1.3-2,1.5-3.1C1615.4,190.5,1613.2,193.5,1612.2,193.9z
					 M1343,193.9c0.1-0.1,0.2-0.1,0.3-0.1C1343.9,192.5,1341.7,192.5,1343,193.9z M1310.4,194.7c0.3-0.1,0.5-0.1,0.8-0.2
					C1311.1,193.4,1309.7,194.2,1310.4,194.7z M1441.9,195.2c0.3-0.1,0.5-0.1,0.8-0.2c0.9-0.9-1.9-1.5-1.8-0.4
					C1441.3,194.8,1441.4,194.8,1441.9,195.2L1441.9,195.2z M1344.5,195.2c1.1,0,0.3-2.6-0.7-2.6
					C1343.8,193.4,1343.8,194.6,1344.5,195.2z M1308.1,195.7c0.3,0,0.3,0.1,0.3-0.3C1308.1,195.4,1308,195.3,1308.1,195.7z
					 M1600.1,196.9c-0.2-0.3-0.2-0.3-0.2-0.4C1600.3,196.5,1600.7,196.8,1600.1,196.9z M1598.5,197.8c-1-0.6-1.1-1.4,0.3-0.6
					C1599.9,197.3,1599.7,197.7,1598.5,197.8z M1600.1,198.3c-0.8-0.8,0.8-0.8,0.8-0.1C1600.6,198.2,1600.3,198.2,1600.1,198.3z
					 M1571.8,198.6c0-0.7,0.1-0.6,0.8-0.6C1572.6,198.6,1572.4,198.5,1571.8,198.6z M1604.7,198.7c-1.2-0.6-1.7-1.2-3.1-0.6
					c-1.6-0.2-0.1-0.5,0.5-1.2c0.2-0.9,1.8,0.2,3-0.3c1.5-1.7,3.9-0.9,4.8-2.9c0.1-1.2-0.2-0.6-0.7-0.5c0.3-2.5,2.1-2.5,3.9-3.6
					c0.8-2.3-3.8-1.8-2.6-3.5c0.4-0.2,0.3-0.7,0.2-1c1.2-1.7,3.3-1.8,5.1-2.7c0.8-0.3,1.6-0.3,2-1c-0.6-3.4,3.9-1.7,5.4-2.3
					c3.4,0-1.7,2.4-2.1,2.8c-1.1,0.3-1.6,0.5-2.4,1.4c-3.1,1-1,1-1,3.2c-0.3,1,0.1,1.2,0.1,2.1c1.2,0.2,2.5,0.4,3.8,0.5
					c1-0.6,8.4-2,8.3-0.5c-0.8,1.6-7.4-0.5-8.4,1c-1,0.7-3.1,0.4-0.8,1.7c1,0,0.5-1.1,1.7-0.1c1.9,3.4-2.9,1.1-3.8,1.1
					c-1.1,0.6-1.3,1-1.9,2.1c0,2.1,0.7,2.3-1.4,2.4c-0.3,0.2-0.5,0.5-0.8,0.7c-3.2-0.3-5.6-0.1-8.7,1.1
					C1605.4,198.7,1605,198.7,1604.7,198.7z M1289.2,199.4c1-0.3,1.5-0.6,2.7-0.8C1291.6,197.1,1288.1,198.4,1289.2,199.4z
					 M1286.7,199.9c0.4,0,0.3-0.2,0.3-0.5C1286.7,199.4,1286.3,199.7,1286.7,199.9z M1349.9,200.7c1.2-0.5,0-0.9,0.1-1.6
					c1.6-2-3.8,1-1.4,1C1349.2,199.7,1349.3,200.3,1349.9,200.7z M1285.1,201.1c0.2-0.1,0.3-0.1,0.5-0.2
					C1286.9,199.8,1283.8,200.2,1285.1,201.1z M1283.8,201.1c-0.4-0.8,0.9-0.6,0.3-0.1C1284,201.1,1283.9,201.1,1283.8,201.1z
					 M1280.9,201.7c0-0.2,0-0.3-0.1-0.4C1281.3,201.3,1281.3,201.6,1280.9,201.7z M1267.2,202.2c-0.1-0.3-0.1-0.3,0.3-0.4
					C1267.4,202.1,1267.4,202.1,1267.2,202.2z M1279,202.3c-1.7-0.4-2.2-1.7-0.3-0.6C1280.1,201.7,1280.6,202.1,1279,202.3z
					 M1272.1,202.9c-2-1.1,0.3-1,1.4-0.9c1.9-1,2.8,0.6,0.2,0.5C1272.9,202.3,1272.7,202.8,1272.1,202.9z M1362.5,205.5
					c0.1,0,0.1,0,0.2,0C1362.8,203.9,1361.3,205,1362.5,205.5z M1568.9,205.8c-0.7-0.8,1-0.8,0.3-0.1
					C1569.2,205.8,1569,205.8,1568.9,205.8z M1460.8,207.5c0.3-0.1,0.7-0.1,1-0.2C1461.8,206.5,1460.4,206.9,1460.8,207.5z
					 M1849.4,208c-0.9-0.5,0.2-1.1,0.5-1.6c-0.6-1.5,1.4-0.2,0.3,1C1849.9,207.6,1849.7,207.7,1849.4,208L1849.4,208z M1847.6,209.5
					c-0.9-0.2,0.2-1,0.8-1C1848.4,209,1848.2,209.3,1847.6,209.5z M1472.4,209.8c0.5-0.1,0.5-0.1,0.8-0.2
					C1473.5,208.5,1471.7,208.8,1472.4,209.8z M1365.6,210c2.3-0.5-1.8-4.8-1.8-2.8c0.3,0.5,0.5,1,1.1,1.2
					C1365.6,208.9,1365.2,209.5,1365.6,210z M1845.4,211.1c-0.6-0.8,1-1.6,1.7-1.6C1846.9,210.3,1846.3,211,1845.4,211.1z
					 M1642.2,213c-1.7-1.8,0.4-1.7,2.1-1.8c1.8-0.6,1.1-0.9,2.2,0.4C1646.5,213.4,1643.4,212.9,1642.2,213z M1841.3,213
					c-1-1,2.7-2.2,1.8-0.9C1842.5,212.6,1842.1,212.9,1841.3,213z M1838.1,214.3c-1-1.1,3.2-2.3,2.2-0.9
					C1839.6,213.7,1838.9,214.3,1838.1,214.3z M1442.7,217.2c1-0.1,2.2,0,3.1-0.4c1.7-1.9-2.4-1.6-3.3-1
					C1442,216.6,1441.7,216.9,1442.7,217.2z M1435.2,217.9c1.6-1,0.9-4.3,1.9-5.8c0-0.3-0.1-0.3-0.1-0.5c-2.2,0.5-4.4-0.9-5.4-2.6
					c-1.3-4.1-4.9-1.5-7.2,0.1c-2.3,1.2-5.6,1.8-1.8,2.8c2.2,0,3.3-3,5.4-1c0.6,0.3,4.4-0.3,3.4,1c-2.3,0.6-4.6,2-3.8,4.6
					c1.4,1,2.7-2.3,3.4-3.1c0.9-1.3,3.4-0.8,3.4,0.8C1433.7,216.6,1435.4,216.1,1435.2,217.9z M1436.4,220c1.7-0.4,3.8-0.8,5.3-1.8
					c0.3-1,0.1-1.1-1-0.9c-2.3,0-3.6,1-5.3,1.9C1435.4,219.7,1436,219.8,1436.4,220L1436.4,220z M1646.9,220.4
					c-1.6-0.3-3.1-1-4.5-1.3c-1.3-1-1.1-0.3-2.6-0.3c-1.7-0.6-3.8,0.7-5.3,1.4c-1.6-0.1-5.5-0.1-5.5-2.4c0.4-0.8,0.6-1,1.4-1.3
					c0.5-1.5,0.3-1.7,1.7-2.3c0.8-1,2.1-4.4,3.7-2.4c0.9,0.3,2.7-0.3,2.5,0.4c-2.4,1.1,0.4,0.6,0.4,2.2c0.4,1.1,3.2-0.4,4.1-0.6
					c1.7,0,1.9-0.3,3.2,0.7c2.2,0.9,4.1,2.1,6.3,3.1C1655.1,220.5,1648.5,220.3,1646.9,220.4L1646.9,220.4z M1595.4,224.2
					c-1-0.8-0.3-2.1-0.9-3.2c0-1.4,1.2-0.1,1.2-1.2c-0.8-1.2-0.5-2.9,1.2-2.5c0.2,1,0.1,1.8,0.1,2.8
					C1598.3,221.9,1597.8,224,1595.4,224.2L1595.4,224.2z M1622.8,224.4c-0.8-1.5,1.7-0.8,0.5-0.1
					C1623.2,224.4,1622.9,224.4,1622.8,224.4z M1446.7,224.6c0.2,0,0.3-0.1,0.4-0.1C1448,222.6,1446.2,223.2,1446.7,224.6z
					 M1617.9,225.3c0-1,3.4-0.4,1.6-0.1C1619,225.3,1618.5,225.3,1617.9,225.3z M1670.6,227.8c-1-0.3-1.5-0.7-2.2-1.3
					c-3.8-1-2.3-1.8-1.2-4.3c0.4-0.4,1.5-0.5,1-1.1c-1.8-0.8-3.4-2.3-4.6-3.9c0-1.7,0.2-1.6-1.1-2.4c0-2.5,2.9-1.8,4.2-3.2
					c1.6-0.6,7.8-2.5,6.3,1c-1.4,1-2.8-0.5-3.4,1.6c-1.5,0.1-1.7,0.4-0.4,1.1c0.9,1.7,1,1.5,2.7,2.4c0.4,0.6-0.6,1.8,0.6,1.8
					c1.3-1.6,1.7-0.5,2.6,0.4c2.5,1.2-2.1,1-2.5,1.3c0,0.9,0.7,0.9,0.7,1.6c-0.9,1.3,0.4,0.5,1,1.4
					C1674.5,227.6,1674.2,227.3,1670.6,227.8z M1627.6,230.1c-0.8-0.9,0.4-1.7,0.4-0.3C1627.9,230,1627.9,230,1627.6,230.1z
					 M1624.1,230.8c-0.8-0.2-1.5-0.4-2.3-0.6c-1.3-1.3,5.5-0.4,4,0.5C1625.3,230.7,1624.7,230.8,1624.1,230.8L1624.1,230.8z
					 M1637.5,231.4c-2.6-1.2,1.5-1.6,2.4-1.6C1640.6,231,1638.3,231.3,1637.5,231.4z M1810.9,233.5c-0.6-1.2,1.4-1.1,0.4-0.3
					C1811.2,233.5,1811.2,233.5,1810.9,233.5z M1804.9,234.9c-0.3-0.3-0.1-0.5,0.1-0.8C1806.2,233.1,1805.9,234.8,1804.9,234.9z
					 M1613.2,238.2c-1.8-1-2.8-1.4-4.8-1.5c-1-0.4-0.9-1.2-1.4-1.9c-2.3-0.3-4.5-0.9-6.8-1.3c-0.5-1.5-2.1-0.5-2.1-1.5
					c0.7-1,1.8-1.2,1.3-2.7c-1.2-1,1.7-2.4-0.8-2.2c-1.5-1-2.5-0.4-4.2,0.2c-1.1-0.1-2.1-0.3-3.1-0.3c-2.4,1-4.4-0.1-7.1,0.8
					c-2.1,0.1-3.6,1-5.5,1.4c-1.4,0.8-1.8,1.4-3.7,0.7c-1,0.3-3.2,0.4-3.9-0.7c-0.1-1.9,4.4-1.4,5.2-1.4c0.4-0.3,0.8-0.8,1.2-1.1
					c0.8-0.3,2.9-1.9,2.9-2.6c-1-1.7,0.3-2,1.4-3.4c1.3-0.3,3.5-0.6,4.2-1.9c-1-3.9,3.2-1.5,5.1-1.5c2.5-1.4,4.2-3.3,6.8-1.3
					c0.5,1.2,1.2,2.2,2.5,2.8c2.2,1.5,6.1,2.3,7.5,4.6c0.3,3.5-7.2,0.8-6,3c1.2,0.6,5.1,3.1,5.1,0.5c-0.3-1.1,0.8-0.9,1.5-1.1
					c1.7-1.7,2.3-1.5,0.8-3.1c0-2.4,2.8,0.6,3.3-0.4c0-1.7-2.7-1.8-3.8-2.4c-0.6-1.2-2.6-1.2-3.9-2.2c-0.3-0.4-0.6-1.2-1-1.7
					c-3.8-1.6-0.5-3.8,0.1-2.4c1,1.2,1.6-0.1,2.4,1.9c0.8,0.7,2.4,1.6,3.2,2.2c1.7,0.3,4.4,0.6,4.4,2.9c-0.6,2.1,1.8,2.5,2.1,4.2
					c0.7,0.9-0.5,1.1,0.3,1.6c1.2,0,1.4,0,1.7,1.1c1,0.8,3.8,2.2,2.4-0.2c0-1,0.9,0.2,0.9-0.8c-1.1-1.3,2.2,0.1,1.2,1.2
					c0,1,1.2-0.3,1.8,0.8c0.9,0.3,0.4-1.5,1.8-1.7c0.4-0.5,0.4-0.9-0.3-0.9c-1,0.5-2.8-0.4-3.2-1.5c-0.1,0-4.4-0.1-2.4-1.1
					c0.6-0.9-1.3-1-0.3-1.7c0.5,0.1,2.8,1.5,2.8-0.1c-0.3-0.8,2.2-1.2,2.5,0.2c1.1,1.4-0.4,1.7,1.1,2.6c-3,0.6,1,0.8,1.1,2.2
					c-0.5,1.5,0.8,1.1,1,2.5c1.1,1.1,0.7-2.2,2.8-0.4c2.3,0.8,1.9-0.8,3.5-0.9c1.7,1,3.2,1.7,5.1,0.6c1-1,1.6-0.3,2.9-0.3
					c-0.2,1.7,0.3,3-0.6,4.4c-2.4,3-0.9,4.5-5.6,4.2c-2.2-1-3.2-0.3-5.5,0.6c-1.8,0-3.7-1.1-5.6-1.1c-1.2,0.3-0.9-0.1-1.7-0.6
					c-3.3-0.3-5.5-2.7-8.8-0.2c-0.5,1.2,0.9,2-1,2.9C1613.8,238.2,1613.6,238.2,1613.2,238.2L1613.2,238.2z M1806.6,239.9
					c-0.2-0.2-0.2-0.4-0.2-0.7C1807.1,238.2,1807.5,239.6,1806.6,239.9z M1801.5,245.2c0-0.2-0.1-0.3-0.1-0.4
					C1801.9,244.9,1802,245.1,1801.5,245.2z M1803.7,245.9c-1-0.6,0.4-1.7,0.9-2.1c0-1.1,1.1-2.5,2.4-2.5c0.5,0.6-2.1,2.4-2.1,3.4
					C1804.5,245.1,1804.2,245.5,1803.7,245.9z M1799.2,248.2c-1.1-1.2,1.2-1,0.3-0.1C1799.4,248.2,1799.3,248.2,1799.2,248.2z
					 M1795,248.5c0-0.2,0-0.3-0.1-0.4C1795.3,248.1,1795.3,248.5,1795,248.5z M1442,248.5c0.3-0.1,0.3-0.1,0.5-0.2
					C1442.6,246.8,1439.9,247.1,1442,248.5z M1671.2,248.7c-1.1-0.4-0.5-4.4-1.7-3c-0.3,2.1-1.4,1.7-1.3-0.1
					c0.9-1.2-1.6-2.4-2.4-2.9c-1.9-2.3-1.4-3.9,1.6-3.9c1.4,0.6,1.7,2.4,2.5,3.5c0.4,0.3,0.9,0.5,1.4,0.8c2.6,1,3.4,2.8,6.2,1.4
					c1.6,0-1.4,3.4-2,3.8C1673.9,248.5,1672.6,248.6,1671.2,248.7L1671.2,248.7z M1796.5,248.7c-0.6-0.9,1-0.8,1.4-0.8
					C1797.9,248.8,1797.2,248.7,1796.5,248.7z M1301.5,252.5c0.5,0,0.7-0.1,0.4-0.6C1301.4,251.8,1301.4,252,1301.5,252.5z
					 M1791.1,252.7c-1.7-2.1-1.1-3.4,0.5-5.4c3.1-1.1,1.2,1.8,1,3.4c-0.2,0.5-0.6,0.8-0.6,1.3
					C1792.5,252.8,1791.9,252.5,1791.1,252.7L1791.1,252.7z M1300.1,252.7c0.3-0.1,0.5,0.1,0.4-0.3
					C1300.1,252.4,1300.1,252.4,1300.1,252.7z M1304.4,253.9c0.2-0.1,0.3-0.1,0.4-0.2C1304.9,252.4,1302.9,252.7,1304.4,253.9z
					 M1394.1,253.9c0.4-0.1,0.4-0.1,0.5-0.2C1394.7,251.8,1392.6,252.3,1394.1,253.9z M1792.9,255.1c-0.1-0.1-0.2-0.2-0.2-0.3
					C1792.6,253.8,1794.2,254.9,1792.9,255.1z M1306.3,255.1c1.8-0.6,1.1-0.8-0.3-1.5C1304.8,253.7,1305.8,254.6,1306.3,255.1z
					 M1447.8,256.4c0.8-0.1,4.4-0.8,1.9-1.7c-2.4-0.3-4.4-1.7-6.2-3.2c-0.8-0.3-1.6-0.3-2.4-0.3c-2.3-1.4-5.7-1.2-8-0.2
					c-1,0.8-2.7,2.1,0,1.7c3.4-1.8,4.1-1.3,7.7,0.5c1.7,0.1,1.6,0.3,2.9,1.4c2,0.6-0.1,1,1,1.7
					C1445.9,256.2,1446.8,256,1447.8,256.4L1447.8,256.4z M1308.1,257.4c0.4-0.1,1.4-0.4,1.4-1
					C1307.6,253.9,1307.3,256.7,1308.1,257.4z M1791.6,257.6c-0.3-0.6,0.2-0.8,0.8-0.7C1792.2,257.4,1792.2,257.5,1791.6,257.6z
					 M1461.3,259.4c0.1-0.1,0.3-0.1,0.3-0.2C1461.7,258.1,1460.6,259,1461.3,259.4z M1463.8,259.5c3.5-0.2,0.6-1.3-1.1-1.3
					C1461.7,258.8,1463.3,259.4,1463.8,259.5z M1466.8,259.8c0.2,0,1.5-1.9,0.5-2C1466.2,259,1466.3,258,1466.8,259.8z
					 M1454.9,259.8c0.4-0.1,1.1-0.1,1.1-0.5c1.2-0.9,3-0.3,4.4-0.3c1.7-0.6-2.2-2.4-2.6-2.8c-1.9-0.4-4.1-0.5-6-0.3
					c-0.1,1.1,1.1,0.7,0.3,1.7c0.4,1.8-2-0.7-2.1,1.1C1451.6,259.9,1453,258.4,1454.9,259.8L1454.9,259.8z M1445.2,260.1
					c0.5-0.3,0.8-0.3,1.4-0.3c1.4-1.1-2.3-1.8-3.3-1.4C1442.7,259.5,1444.5,259.8,1445.2,260.1L1445.2,260.1z M1470.1,260.2
					c0.4,0,0.4-0.9,0.3-1.2C1469.3,258.7,1470,259.5,1470.1,260.2z M1471.6,261.3c0.4-0.2,1-0.3,0.6-0.9
					C1472.1,259,1471.3,260.9,1471.6,261.3z M1472.1,262.7c0.2,0,0.3,0,0.4,0C1473.3,260.7,1471.9,261.4,1472.1,262.7z M1473.4,265
					c1.1-0.3-0.1-1.1-0.1-1.9C1472.2,262,1472.7,264.5,1473.4,265z M1473.6,266.6c0.4-0.1,0.3-0.2,0.3-0.6
					C1473.4,265.1,1472.8,266.4,1473.6,266.6z M1476.2,267.8c0.3-0.3,0.3-0.2,0.3-0.6C1476.1,266.3,1475.2,267.2,1476.2,267.8z
					 M1472.6,269.1c0.1-0.1,0.3-0.2,0.3-0.3C1473.9,267.1,1471.4,268.5,1472.6,269.1z M1459.5,269.3c0.4-0.1,0.4-0.1,0.5-0.2
					C1459.9,268.4,1458.7,268.4,1459.5,269.3z M1460.8,269.4c0.1,0,0.2-0.1,0.3-0.1C1461.1,268.3,1460,268.9,1460.8,269.4z
					 M1463.7,269.8c0.3,0,0.6-0.1,1-0.1C1465.2,268.9,1463.1,269,1463.7,269.8z M1467.4,269.9c1.1-0.1,1-0.8-0.3-0.5
					C1467.1,269.7,1467.2,269.6,1467.4,269.9z M1465.9,271.3c0.4-0.1,0.3-0.2,0.3-0.6C1465.6,270.7,1465.3,271,1465.9,271.3z
					 M1455,273.8c1.2-0.3,0.6-1.7-0.3-1.7C1454.5,272.7,1454.4,273.4,1455,273.8z M1785.3,275.8c-0.1-2,3.1-3.1,3.8-5.1
					c0.3-0.3,1.5-2.8,1.5-1c-0.5,0.5-0.9,0.7-0.9,1.5c0.9,0.9-1.7,1.5-2.2,2.9C1786.9,274.1,1786,275.8,1785.3,275.8z M1790.6,279.1
					c-0.4-0.5,0.4-1,0.4-0.2C1791,279,1791,279,1790.6,279.1z M1720.8,279.7c-0.2-0.1-0.2-0.1-0.4-0.2c-0.8-0.9-1.7-6.4,0.3-6.5
					c1.5,0.5,3.1,4.4,2.2,5.7C1722.2,279.1,1721.6,279.6,1720.8,279.7L1720.8,279.7z M1791.8,279.8c-0.8-0.5,0.6-1.3,0.6-0.2
					C1792.4,279.7,1792.4,279.7,1791.8,279.8z M1798.9,280.2c-1.2-1-2.3-0.5-2.3-2.4c0.5-1.7-1.3-0.3-2.2-0.8c-1,0-0.6,2.7-1.5,1.6
					c0.1-1.8,0.9-3.7,3.1-3.7c1.6,1,4.5-2.3,2.1-2.3c-1.2,1.4-1.5,0.1-2.4,0.7c0.1,2-2.7,0.4-1.4-0.9c0.1-1.1-0.8-0.3-1.2-0.8
					c0.2-3.1-0.4-2,2.1-1.7c0.3,0.3,0.3,0.8,0.5,1.1c1,0.2,1,0.2,1.1,1.1c1.9,0.1,0.5-1.2,0-1c0.1-0.9,2.1-1.9-0.1-2.7
					c-0.3,0.3-0.1,0.5-0.1,0.9c-1.1,1-1.2-1.3-1.5-1.6c-0.3-1.4-1-0.6-2.3-0.6c-0.3-0.3,0.2-0.5-0.2-0.8c-1.5,0,0.6,2.4-1.1,2.5
					c-1.9-1.9-0.6-1.9-0.9-3.8c-0.8-0.7-2.7-3.4-0.7-3.4c0.5-1.9-0.2-4.7,2.7-3.3c1.6,0,0.9-0.2,0.9,1.3c1.2,2.1-2.2,3.3-0.9,4.4
					c1.7,0-0.9,1,0.5,1.4c1.6-0.6,2.3,1,3.5,0.3c1.8,0-1.4,2.4,1.9,2.4c0.7,0.3,1.3,2.4,0.8,2.8c-1.3,0.1,0.2,2.3,0.3,1.6
					c1.5,0.3,1.8,4.4,1.1,5.6c-0.2,1-1.4-1.2-1.4,0.2C1799.7,279.2,1800,280.1,1798.9,280.2L1798.9,280.2z M1801.4,283.3
					c-1-0.8-0.1-2.4,0.5-1.6C1801.8,282.4,1802.1,283.3,1801.4,283.3z M1799.5,284c-1.9-1.2,0.6-1.7,0.3-0.2
					C1799.8,283.9,1799.6,284,1799.5,284z M1748.4,285.7c-1.7-0.6-1-1.5,0.5-0.5C1749.2,285.7,1748.9,285.7,1748.4,285.7z
					 M1799.2,286c-0.6-0.3-0.5-1.7,0.3-1.5C1799.7,284.9,1799.6,285.6,1799.2,286z M1751,288.9c-1.9-2-0.3-2.4,0.6-0.7
					C1751.6,288.7,1751.6,288.8,1751,288.9z M1806.2,289.8c0.1-0.3,0.1-0.3,0.3-0.3C1806.6,289.9,1806.6,289.8,1806.2,289.8z
					 M1762.8,290.5c-0.3-0.4-0.4-1.2-0.4-1.7C1763.4,288,1763.9,290.2,1762.8,290.5z M1752.3,290.9c-1-0.9,0.3-1.9,0.3-0.4
					C1752.5,290.8,1752.5,290.8,1752.3,290.9z M1806.9,291.6c0-0.2-0.1-0.3-0.1-0.4C1807.2,291.3,1807.3,291.5,1806.9,291.6z
					 M1817,291.8c-1.6-0.7,0.3-1.3,0.5,0C1817.3,291.8,1817.1,291.8,1817,291.8z M1831.9,291.9c-0.1-0.1-0.1-0.1-0.3-0.2
					C1831.4,290.1,1833.9,291.3,1831.9,291.9z M1841.3,292c-1-0.6,0.6-1.6,0.6-0.2C1841.7,291.9,1841.6,291.9,1841.3,292z
					 M1770,292.3c-0.3-0.3,0.3-0.9,0.3,0C1770,292.3,1770,292.3,1770,292.3z M1803.4,292.8c-1.2-0.3-0.9-1-1-1.9
					c-1.4-1.5,0.4-0.6,0.5-1.8c-0.9-2.3-0.2-2.5,1.5-3.9c1.1,0,0.3,0.9,0.2,1.5c0.5,0.3,0.7,2.1,0.6,2.7c-2.2,0.1-1,0.3-1,1.7
					c-0.4,0.3-1-0.2-0.7,0.7C1804.6,292.1,1804.4,292.7,1803.4,292.8L1803.4,292.8z M1797.6,293.1c-0.5-0.3-0.8-0.7-0.1-1
					c0.2,0,5.1,0.3,3.4,0.9C1798.9,292.9,1798.9,292.9,1797.6,293.1L1797.6,293.1z M1836.1,293.2c-1.4-0.9,2.8-1.2,1.4-0.3
					C1837,293,1836.6,293.1,1836.1,293.2z M1809.7,294.1c-0.2-0.4-0.1-0.7,0.3-0.6C1810.2,294,1810.3,294,1809.7,294.1z
					 M1850.1,294.9c0-0.2,0-0.3-0.1-0.4C1850.6,294.6,1850.6,294.8,1850.1,294.9z M1755.4,295c-0.3-1.3-3.6-2.3-2.7-3.9
					c0.4-0.1,3.2,3.3,3.3,3.8C1755.8,294.9,1755.6,294.9,1755.4,295z M1769.3,295.1c-1.5-1.1,1-1.5,0.5-0.2
					C1769.6,295.1,1769.6,295.1,1769.3,295.1z M1804,296.1c-2.2-2.2,3.1-1.7,4-1.6C1810.5,295.5,1804.1,296,1804,296.1z
					 M1801.6,296.1c-1.1-0.8,0.7-2.5,1.1-0.5C1802.4,295.9,1802.1,295.9,1801.6,296.1z M1795.6,296.4c-1.1-1.2,0.3-1.1,0.3-0.2
					C1795.9,296.2,1795.8,296.4,1795.6,296.4z M1781.1,297.1c-1.6-1.1-2.5-2.9-4.8-1.9c-2.7,0-3.4-1.1-4.4-3.1c-1.7-1.1-1-1.9-2-3.2
					c0-3.1,2.9-1.5,4.5-3.2c0.4-1.1,0.5-1,1.8-1c2.2-0.8,2.7-3.1,5-3.9c1.1-0.9,2.4-3.4,3.5-3.4c1.1,1.6,1.9,2.1,3.8,2.8
					c0.9,1.1-1.4,0.6-0.6,1.7c-0.1,0.9-2.4,0.5-2.3,2.4c0.3,0.4,0.6,1.2,1.3,0.9c2,0-2,0.9,0.2,1.7c0.3,0.5,1.7,0.8,0.4,1.5
					c-2,0-1.9,0.8-1.9,2.6c-1,1.1-1.6,1.4-1.7,2.9c-0.7,1.4,0.1,1.4,0.1,2.7c-0.8,1-1.4-0.9-2.1,0.5
					C1781.5,297.1,1781.5,297.1,1781.1,297.1L1781.1,297.1z M1840.7,297.6c-1.1-0.6,1-1.4,0.9-0.3
					C1841.2,297.5,1841.2,297.5,1840.7,297.6z M1795.8,298.8c-0.1-0.5-0.1-0.6,0.5-0.6C1796.3,298.7,1796.3,298.8,1795.8,298.8z
					 M1758.8,299.1c-1-0.6,0.6-1.5,0.5-0.1C1759.1,299,1759,299.1,1758.8,299.1z M1788.6,299.4c-1.3-0.4,0.1-1.7,0.3-2.3
					c0-1.6-2.5-2.6-0.8-4.2c0.3-1.1,0.2-1.6,1-2.7c0.3-4.5,4.2-2.4,7.4-2.4c0.8-0.6,2.4-2.4,2.5-0.4c-0.4,0.5-1.4,0.9-1.5,1.6
					c-1.6,0.3-9.1-1.1-7.4,1.7c1.7,1,0.9,0.6,2.3-0.3c0.1-0.3-0.4-0.5,0.3-0.7c0.4,0,0.9,0,1.2,0c0,1.2,2.4-0.3,2.4,2.4
					c-0.6,0.9-1.6-0.1-2.3-0.1c-1.5,1-0.9,1-0.2,2.4c0,0.2,0.2,4.5-1.2,2.8c-0.1-0.5-1.4-4.5-2.3-2.7
					C1791.3,296.9,1791.7,298.9,1788.6,299.4L1788.6,299.4z M1812.2,299.8c-1.7-1.1,1.6-2.5,0.7-0.4
					C1812.3,299.8,1812.3,299.8,1812.2,299.8z M1842.5,300c-0.8-0.1-1.4-0.3-2.5-0.4c-0.9-0.8-1.7-0.1-2-0.8c-0.3-0.2-1.7,0-1-0.7
					c0.3,0,0.9,0,0.9,0.4c1.4-0.3,3.2,0.6,4.2-0.8c1.1-0.2,0.9,1.2,2.1-0.3c1.4-0.7-0.3-1.2,2.1-1.2c0.9-1-3.8-2.2-4.1-2.5
					c-0.1-1.5,2.3,0.4,3,0.3c0.7-1.2,0.7,0.6,1.2,0.9c0.4,0.6,1.5,0.7,0.5-0.2c-0.1-0.8,1.7,0.3,0.6,0.5c-0.1,1.2,1.8-0.2,1.8,1.2
					c-1,0.1-1.2-0.4-1.8,0.7c-0.5,0.3-0.5-0.3-1.1-0.2C1845.8,298.9,1844.5,299.8,1842.5,300L1842.5,300z M1814.7,301.4
					c-1.1-1,0.3-3.8,1.2-2.9C1816.1,300.1,1816.2,300.9,1814.7,301.4z M1804.8,301.6c0-0.1,0-0.3-0.1-0.3
					C1805.4,301.1,1805.4,301.5,1804.8,301.6z M1802.8,302.4c-1.1-0.4,0.3-1.1,0.3,0C1802.9,302.4,1802.8,302.4,1802.8,302.4z
					 M1807.1,303.5c-1.4-1.1,1-1.5,0.4-0.1C1807.5,303.5,1807.3,303.5,1807.1,303.5z M1803.5,303.5c-1.2-1,0.5-1.3,0.6-0.3
					C1804,303.4,1804,303.4,1803.5,303.5z M1809.2,303.8c-1.1-1.2,2.4-3.7,2.3-2C1810.6,302.4,1810.2,303.3,1809.2,303.8z
					 M1783.2,304.2c-0.9-0.3-0.3-1,0.4-1C1783.6,303.7,1783.7,304.1,1783.2,304.2z M1855.4,304.4c-0.9-0.6-2.7-1.1-1.6-2.4
					c1.1,0,1.8,0.6,0.3-0.5c-2.3-0.8-1.8,0.7-3.5-2.1c-0.9-3.1,1.7,0.5,2.7,1c0.8,0.2,3,1,3,1.8c-0.4,1,0.5,1.2,0.6,2.2
					C1856.5,304.4,1856,304.4,1855.4,304.4L1855.4,304.4z M1779.9,304.4c-1.7-0.5-3.9-0.9-5.8-0.6c-1.9-0.5-2.4-1-4.7-1
					c-1-0.2-2-0.4-3.1-0.6c-1-1-1.7-0.5-2.6-1.4c0-0.9,0.3-0.5,1-0.6c0.4-0.7-1.2-0.3-1.7-0.3c-1-0.8-5-3.6-5.4-4.8
					c-1.9-1.8-2-4.4-4.3-5.8c-1-1.7-0.9-3.8-3.2-2.8c-1.5,0,0.3-1,0.3-1.6c-0.5-0.9-0.8-1-1.7-1.2c-0.1-0.1-4.2-3.9-1.7-4.1
					c1.7,1,1.8,1,3.8,1c1.1,1,1.7,2.1,3.1,2.8c1.2,1.1,1.4,1.9,3.1,2.1c1.9,0.6,2.5,2.4,4.4,3.2c0.8,0.9-0.3,2,1,2.3
					c1,1.3,0,2.3,2.1,1c0.7-0.2,0.8-0.3,1.2,0.3c0.3,1.1,2.8,2.7,0.1,2.8c-0.5,0.7-0.4,3.5-0.5,4.2c1.3,0.1,2.7,0.1,4,0.3
					c1.8,1.1,2.7,1.2,4.9,0.7c1.6,0,2.1,1,3.6,0.4c0.9,0,2.9,0.6,1,1c0.1,0.6,3.6,0.5,3.6,2.1c-0.4,0.4-0.9,0-1.3-0.2
					C1780.6,304,1780.5,304.4,1779.9,304.4L1779.9,304.4z M1784.8,305.1c-0.9-0.4-0.3-1.6,0.5-1.5c1.1,0.7,2-0.5,3.1-0.5
					C1789.7,304.7,1785.9,304.9,1784.8,305.1z M1847.1,305.3c-1-1.2,0.5-1.6,0.5-0.2C1847.5,305.2,1847.3,305.3,1847.1,305.3z
					 M1872.1,306.2c0-0.2,0-0.3,0-0.4c0.2,0,0.3,0,0.4,0c0,0.2,0,0.3,0,0.4C1872.3,306.2,1872.2,306.2,1872.1,306.2z M1860.5,306.4
					c-1.5-0.2-1.1-1.3-2.1-1.4c-0.1-1.6,0.4-1-1.4-2.5c-0.4-1,1-0.3,1.4-0.1c0.8,0.9,3.1,1.4,0.5,1.7c0.5,1.4,1,0.6,1.9,0.3
					c0.3-0.4-0.2-0.8,0-1.2c1.1,0,1.2,1.8,2.6,1.9c1.2,1.9-2.7-1.1-2.2,0.4C1861.4,306.4,1861.2,306.4,1860.5,306.4L1860.5,306.4z
					 M1792.9,307.4c-0.6-0.3,0.4-1.2,0.3-0.2C1793.2,307.3,1793.1,307.4,1792.9,307.4z M1842.3,307.7c-1.1-0.6-2.2-0.8-3.5-0.9
					c-2.4-0.9-3.6-4.9-6.5-3.8c-0.6,0.5-0.9,1.3-1.6,1.9c-2.3,1.3-4.2,0.4-5.8-1.2c-1-0.5-6.5,1.4-3.8-1.7c0.4-0.3,0.8-0.4,0.9-1
					c-1.3-3.6-4.1-3.1-6.7-4.4c-0.6-0.2-1.4-0.7-1.7-0.1c-1.6,0.7-1.6-1.4-2.7-1.9c-0.4-1.2,1.1-1.1-0.8-2.3
					c-2.3-0.3-1.3-1.6-2.7-2.4c0-1.6,3.4-0.2,1.7,0.3c0,0.9,1.7-0.3,2.2-0.4c1.1,0,2.7,0.6,3.6,1.1c0,0.5-0.6,2.7,0.7,2.5
					c0.3,2.7,2.8,0.3,2.6-0.6c-0.9-0.3-3.4-0.8-3.1-2.2c1.6-0.5,1.6-0.6,3.2,0.3c0,1.9,1.4,0.5,2.7,0.5c0.9,0.4,1.7,1,2.5,1.5
					c2.6,0.2,11.1,2.2,11.4,5.2c0.6,0.5,5.1,1.2,3.1,2.6c-1.7,0.3,0.3,1.4,0.8,1.9c0.4,1.1,0.8,1.4,2,1.7c1.1,1.2,0.7,0.3,2,0.3
					c0.7,0.2,1.9,1.1,0.6,1.4c-2.5-0.8,1,0.5,0.2,1.1C1843.8,307.8,1842.9,307.7,1842.3,307.7L1842.3,307.7z M1794.9,307.7
					c-0.5-0.5,1.5-2.6,2-3.1c0.8-0.3,1.8,0.1,1.1-0.9c-1-0.4-3.1,0-3.9,0.5c-0.8,0.2-5.3,0.3-3.4,1.1c0.3,0.8,0.8,0.3,0.4,1.4
					c-0.7,0.9-5.2-1.7-1.7-1.7c1.1-0.4-0.8-1.8,2.1-1.8c2.4,0.6,3.8-0.4,6.4-0.4c2,0.3,1.8-0.8,3.7-0.8c2,0.6-3.4,0.9-0.5,1.4
					c1,0,1.3-0.1,1.7-0.1c1,1.1-3.7,2.3-4.1,2.6C1797.5,307.1,1796.2,307.3,1794.9,307.7L1794.9,307.7z M1863.3,307.9
					c-0.4-0.3-1.1-0.5-1-1.1C1863.2,306.8,1865.4,307.8,1863.3,307.9z M1870.3,308.2c-0.5-0.5,0-0.8,0.5-0.8
					C1870.8,307.9,1870.8,307.9,1870.3,308.2z M1848.3,309.1c-0.3-0.2-2.2-1.7-1.8-2c0.8,0.1,0.8,0.2,1,0.8
					C1847.7,308,1849.4,308.9,1848.3,309.1z M1849.7,309.2c-0.2-0.1-0.2-0.2-0.2-0.4C1850.1,308,1850.5,309.1,1849.7,309.2z
					 M1860.7,309.9c-0.3-0.3-0.6-0.4-1-0.7C1858.4,307.2,1863.5,309.7,1860.7,309.9z M1873,313c-1-1.4,0.9-1,0.3-0.1
					C1873.1,312.9,1873,313,1873,313z M1798,314.2c-0.3-0.4-0.1-0.7,0.4-0.6C1798.8,314,1798.3,314.1,1798,314.2z M1874,316.1
					c-0.2-0.5-1-0.5-0.4-1.1C1874.4,313.3,1874.9,316.1,1874,316.1z M1872.4,316.4c-0.4-0.4-0.6-0.8-0.9-1.4
					C1871.6,313.9,1874.6,315.8,1872.4,316.4z M1874.5,318c-0.5-1.2-1.8,0.4-1.6-1.4c0.3,0.2,0.9,0.5,1.1,0.2
					C1874.1,315.3,1876,317.8,1874.5,318z M1888.8,318.8c-0.5-0.5,0.5-1.9,1.4-1.4c0.8,0,1.7-1.2,1.7,0.4c-0.8,1-1.7-0.8-2.4,0.5
					C1889.1,318.8,1889.1,318.8,1888.8,318.8L1888.8,318.8z M1874.6,319.6c0-0.2,0-0.3,0-0.4C1875,319.3,1875.1,319.6,1874.6,319.6z
					 M1889.7,320.9c-0.3-0.6,0.2-0.7,0.3-1.2c0-1.9,1.5-0.3,2.6-1.1c0.6-1.3,1.1,1.6-0.1,1.5C1891.7,319,1891,320.8,1889.7,320.9z
					 M1890.8,321.8c-0.9-0.3,0.8-1.6,0.9-0.4C1891.4,321.5,1891.2,321.6,1890.8,321.8z M1876.4,322.9c-1-0.6-0.5-3.1,0.2-1.8
					C1876.6,321.6,1877.1,322.8,1876.4,322.9z M1866.2,322.9c-0.6-0.3-0.2-1,0.3-0.5C1866.5,322.8,1866.7,322.9,1866.2,322.9z
					 M1871.1,324.8c-0.1-2.2,1.8-1,0.4-0.1C1871.4,324.8,1871.2,324.8,1871.1,324.8z M1781.1,324.9c-1-0.5,0.9-1.7,0.3-0.2
					C1781.3,324.8,1781.2,324.8,1781.1,324.9z M1874.2,326.3c-0.4-0.3-0.4-0.3-0.6-0.8c-2.5-0.1-0.4-2.8-0.2-0.2
					C1874.2,325.4,1875.4,326.1,1874.2,326.3z M1871.8,327.6c-2.2-1.1-3.8-1.7-4.8-4.1c-0.1,0-0.1-0.1-0.2-0.1
					c-0.6-1.7,3.1,1.7,3.4,2.1C1870.9,325.8,1873.7,327.1,1871.8,327.6L1871.8,327.6z M1659.2,332.6c-2.1-0.9-2.8-1.3-2.8-3.5
					c-1.6-3.4,1.2-3.9,1.2-7.1c-0.6-1.7-1-3.4-0.1-5.1c1.2-1,3-0.6,3.9-1.8c1.9-0.8,1.9-0.7,2.4-2.7c1.8-0.5,1.4-1,1.9-2.5
					c1.3-1,2.1,3.4,2.1,3.8c1.1,2.6-1.1,1.1-0.9,3.1c0.2,0.3,0.3,0.5,0.3,1c-2.3,4.1-2.8,9.2-4.5,13.5
					C1661.7,331.9,1660.4,332.4,1659.2,332.6L1659.2,332.6z M1778.2,333.4c-2.3-1.9,1.2-2.2,0.6-0.1
					C1778.7,333.4,1778.7,333.4,1778.2,333.4z M1478.8,347.8c0.5,0-0.3-0.9-0.3-0.2C1478.5,347.8,1478.6,347.8,1478.8,347.8z
					 M1614.6,348.2c1.3-0.2,2.7-0.9,4.1-1c2.2-0.7,4.1,0.3,6.1-0.8c4.9-0.3,11.3-7,13-11.2c0-3,0-3.1,3.1-3.9c2.3-1.4,1.6-5.1,0.2-7
					c-1-2.7,1.9-2.4,3.2-3.8c0.6-1,1.3-1.5,2.4-2.1c2.1-0.4,4.8-1.9,4.8-4.4c-1-2.1-0.3-4.5-0.6-6.8c-1.2-1.4-2.3-2.9-1.8-4.9
					c0-1-0.3-1.7-0.8-2.5c-0.5-1.7,1.2-3.4,2.1-4.7c0.3-1.1,1.2-1.7,2.1-2.4c2.5-3.1,5.4-5.8,8.9-7.8c0.8-1.1,2.2-2.2,3.1-3.4
					c1.7-3.1,4.1-5.8,5-9.2c0.3-0.2,0.5-0.3,0.6-0.6c0-4.9-1.7-1.7-4.9-1.7c-0.2,0.8-1.6,0.5-2.1,0.4c-1.2,0.5-1.2,0.5-2.2,0.7
					c-1-0.7-2.3,0.9-3.5,0.3c-0.7-0.7-2.3-1.6-2.3-2.5c1.2-2.1-3.8-4.7-5.2-5.1c-1-1-1-2.3-1.5-3.6c-1-1.6-2.3-2-3.1-3.8
					c-0.3-3.5,0.4-3.3-2.3-5.3c-1.7-2-2.4-4.9-3.8-7.2c-0.6-1.9,0.1-1.5,1.8-1.5c1.6,0.8,2.7,3.4,3.6,4.9c1.1,2.4,3.2,2.4,3.4,5.5
					c0.6,1.8,1.2,2.8,3.1,3.7c0.8,0.7,0.9,2.2,1.6,3.1c1.8,1.1,1.8,3.1,1.9,4.9c1,2.5-0.2,4.9,4.2,3.6c2.2-1.9,5.3-1.1,7.5-3.1
					c1.5-0.4,4.9-0.8,5.1-2.4c1.4-1.7,3.1-0.9,4.7-1.8c0.7-1.4,1.4-0.6,2.4-1.4c0.8-1.5,1.3-1,2.5-1.9c0.4-2,1.9-3.1,3.1-4.8
					c0.7-3.1-4-2.7-5.2-4.1c0-0.4-0.8-4.1,0.4-3.4c0.6,2.6,4.3,1.6,6.4,1.6c1.7,0.8,8,0.5,10.4,0.5c0.3,0.3,0.3,0.3,1.4,2
					c0.9,0.5,3.6,1.4,3.6,2.5c-1.9,0.7,0.9,1.9,1.7,2.7c1.3,0.5,5.1-1.5,3.9,1.3c0,0.8,0.2,1.2,0.5,1.9c0.2,3.1,1.1,5.7,3.1,8.3
					c0.2,2,0.6,3.1,2,4.5c0.3,1.5,0.8,3.4,1.8,4.7c1.7,1,1.9,0,3.1-0.8c2.7-0.4,2.4-2.3,2.1-4.4c0.3-1,0.9-2.2,0.9-3.2
					c-0.7-2.5-0.4-3.4,1.9-4.8c1.8-0.3,1.7-0.9,3.1-2.2c3.6-2.1,7-4.7,10.6-6.9c0.9-0.1,1.8-0.2,2.8-0.3c1.5-1.4,1.8,0.8,2.1,1.7
					c0.6,0.9,3.1,2.2,3.1,3.1c1.1,1.7,1.2,2.5,0.6,4.4c0,2.3,3.7,0.6,4.6-0.2c1.7-2.8,1.4,3.8,1.4,4.1c0.6,1.4,0.4,1.4,0.1,2.7
					c0.9,1.5-0.4,0.5-0.3,1.5c1.4,0.2,0.4,3.2,1.2,4.4c0.3,1.7,0.8,2.3,2.4,3.2c0.2,0.5-0.6,1-0.1,1.5c1.5,0.2,2.5,4.7,3.1,6
					c1.3,0.7,3.1,1.6,3.9,2.7c3.6,0,0-2.7,0-4.5c0.6-2.4-1.6-3.8-3.2-5.4c-2.5-0.6-1.7-0.9-2.4-3.2c0-1.2,0.6-1.6-1.2-1.1
					c-1-0.3-0.2-1.8,0.2-2.4c0.6-0.5,1.1-5.1,2.1-3.2c-0.1,1.2,1.5,0.4,2.4,1.3c0.9,1.6,2.7,1.7,2.9,3.5c0.5,0.5,1.4-0.3,1.8,0.8
					c0,2.1-0.7,3,2,1c0.7-0.9,1.4-1.5,2.4-2.1c3.1-1.1,4.7-4.4,3-7.4c-0.6-2.8-2.8-3.1-4.4-5.2c-0.5-2-2.7-2.4,0.4-4.1
					c0.3-0.5,0.3-0.7,0.8-1c1.2-0.3,1.5-2,3.3-0.9c3.5,0.3-0.3,2.8-0.9,3.3c-0.1,3,3.1,2.5,3.9,0.2c0.8-1,0.3-1-0.3-1.8
					c0.4-2.5,2.9-1.7,4.9-2.7c1.4-1.5,2.9-1.2,4.8-1.2c1-0.6,1.8-1.9,2.9-2.8c3.5-1.1,3.8-4.1,6.4-6.3c0.5-1,1-2.4,1.2-3.4
					c-0.5-0.3-1.6,0.3-1.6-0.4c1.5-1,1-1.1,1-2.7c-1.7-1.5-1.3-3.5-3.5-4.5c-1-0.8,0.3-1.6,0.9-2.4c0.8-0.4,4.3-1.2,4.3-2.1
					c-0.2-0.3-2.9-1-3.5-1c-0.7,0.2-2.7,2-2.4,0.2c-0.3-1.1-3.8-0.8-2.3-2c2.4-0.1,4.2-4.1,6.8-3.1c0.2,0.9-0.4,1.2-1,1.9
					c0,0.8,0.2,0.8-0.4,1.2c0.2,1.1,2.5-0.8,3.4-1c2.5-0.7,3.8-1.4,3.8,1.6c-0.3,0.2-2,1.2-0.6,1.2c0.7-0.4,0.9-0.1,1.6,0.3
					c2.2,0,1.5,1.5,1.5,2.9c-0.4,0.9-2.4,3.8,0.2,2.4c1.7-0.2,2.4-1,4.2-1c2.8-3-3.1-6.2-2.3-7.8c1.1-0.5,2.1-1.1,3.1-1.8
					c0.5-1.6,0.6-1.7,2.4-2.2c1.2-1.6,1.7-1.4,3.5-0.7c1.1,0,2.2-0.3,3.1-0.9c1.1-1.2,1.1-1.2,1.5-1.7c2.1-1.9,3.9-2.4,5.5-5.1
					c1.7-1,2.6-1.7,2.7-3.8c0.7-1.3,0.4-2.4,1.2-3.7c2.4-2.2,1.7,3.3,1.4,4.4c0,1.1,1,6.9-1.4,5.8c-1.5,0.1,0.9,1.2,0.9,1.2
					c0,2.7-1.6,1.7-2.6,3.1c-0.3,0.3-2.7,1.3-1.4,1.7c2.2-1,0.6,3.5,0.8,3.9c0,1-1.6,3.9-2.2,2.2c-0.6-0.7-1.1,0.6-0.1,1
					c-0.4,0.6-1.1,1-1.9,1c0.1-0.8-0.2-1.4-1.1-0.5c-0.3,0.7-1.6,3.1-2.4,2.9c-2.9,0.1-3.4,0.2-4.4,0.2c-1.1,0.8-2.2,1.2-3.4,1.8
					c-0.8,1-1.2,1.4-2.4,1.6c-1,0.7,0.2,1.7,0.7,2.3c0.4,1.2,0.2,1.6,1.4,2.2c-0.1,1.2-1,0.3-0.7,1.3c2.3-0.2,1.1-0.2,1.6-1.6
					c1-0.8,0.6-2.7,1.9-2.9c1,1,1.5-0.3,2.3-0.7c1.8,0.3,1.6-1.9,3-0.3c1.1,0.5,1.8-0.8,2.8-1.1c1.4-1.4,3.5,0.1,4.4-1.4
					c0.6-0.2,1.6,1.5,2.2-0.4c0.8-1.1,0.3-1.9,1-3.2c0-0.6-0.3-1.3,0.2-1.7c4-1.4-1.5-6.5,0.3-7.1c1.3,0,2.5,1.4,3.8,0.4
					c1-1.8,3.4-0.8,4.9-2.3c2.8-0.5-1.9-3.2-0.7-1.1c1.4,0.4,0.1,0.9-0.5,1.2c-1.2-0.4,0.5-1.4-1.1-1.4c-1.5,0.7-5.9-2.1-4.7-2.6
					c0.1-0.2,0.2-0.4,0.3-0.6c1-1.3,1.5,0.6,2.1,0.1c0.7-2.1-3.1-2.2-0.5-5.1c1-0.3,2.7,1.5,2.7,0.5c-1.3-1.8-2.1-3.6-2.7-5.7
					c0.4-1,0.1-3.9-1.4-3.9c-0.3,0.2-0.3,0.3-0.3,0.7c0.5,1,0.1,0.9-1,0.9c-0.2,0.4-0.2,3.1-1.1,1.6c0-2.9-3.4-3.1-5.6-2
					c-0.8,0.1-0.6-1.4-1-1.4c-0.8-1.1-2.8,0.9-2.8-0.3c1.4-0.4,2.5-1.1,3.5-2.2c1.5-0.7,2.5-1.5,4-2.3c1.6-0.3,2.9-1.9,4.4-2.6
					c3.1-0.1,6.3-0.1,9.4,0c1.1,0.3,1.6,0.2,2.5-0.5c1.7,0,2.3,0.1,3.1,1.4c1.2,0,8.9,0.4,6-1.8c-0.1-0.4,2.8-1.8,3.5-2.2
					c1.1-2.1,4.1-0.5,5.8-0.9c0.3,0.3,0.2,1.2,0.2,1.6c1.4,0.6,3.4-1.4,5.1-1.5c1.1-0.3,0.3-1.6,1.7-1.6c0.4,0.4,0.1,1.4-0.1,1.9
					c-1.1,0.9-3.1,1.2-4.4,2.1c-2.2,1-3.8,2.7-6.2,3.5c-2.4,0.2-1.6,1.2-3.6,2.2c-1,2.4-0.1,4.4,0.6,6.8c0.6,0.8-0.2,1.6,0.4,2.5
					c-0.2,1.5-1.9-0.9-1.7,0.9c-0.6,2.1,1,0.3,2.5-0.2c2.1-1.4,2.1-1.1,2.9-3.5c0.8-1.3,2.5,0.6,2.8-1.8c1.4-1.8,3.7-0.3,4.7-2.8
					c1.1-0.4,1.7-1.3,0.7-2.2c-0.4-1.2,1.2-2-0.8-2c-0.8-0.4,0.9-1.2,1.2-1.4c1.3-1.8,0.4-1.5,3.1-1.5c1.9-0.8,1.6,0.4,3.6-0.7
					c0.8-1.1,4.2-0.3,5.1,0.6c0.5,0,0.5,0,0.7-0.1c0.6-1.1,1.5-1.1,2.8-1.4c2.4-1.7,5-1.8,7.8-2.7c2.1-1,5.2,1.9,4.5-1.4
					c-0.9-1.7-2.4-2.3,0.2-2.4c1-0.4,1.1-4.2,2.5-1.7c1.5,0.7,3.3-0.2,4.8,0.5c0.6,1.5,3,1.4,4.3,1.5c1.7,1.1,0.8-1.6,2.2-2.2
					c1.1,0.1,2.5,0.2,3.6,0c2.1-1.4-0.9-1.1-1.9-2.1c-1-0.4-2.4-0.3-3.6-0.6c-1.7,0.8-2,1.8-3-0.5c-1.5-1.2-4.3-1.1-6.2-2
					c-3.6-1-6.5-1.8-10.2-1.8c-2.2-0.3-4.4-0.3-6.5-0.4c-2.4-0.9-0.5,1.3-1.5,2.2c-0.7,0-2.2,0.1-2.2-0.8c2-1.2,0.1-1.5-0.6-0.3
					c-0.8,0.1-1-0.6-1.8-0.6c-1.7,0.5-4.1,0.6-5.8,0c-1.4,0.1-2.8,0.2-4.2,0.3c-2.5,0.8-3.1-1.7-5.2-2.4c-2.4-0.1-4.8-0.2-7.2-0.1
					c-1.4,0.5-7.8,0-8.5-1.7c-1.6-0.5-2.9-0.5-4.5-0.5c-3.4-0.7-7.2,0.1-10.5-1c-3.2-0.2,3.1-0.1,3.6-0.1c2.1-0.8-4.4-2.2-5.8-1.5
					c0.2,1-0.5,0.3-0.5,1.3c0.4,0.2,1,0.1,1.5,0.1c-0.1,0.5-1.4,1.3-1.7,1.8c-0.2,1.1-1,0.8-2.2,0.8c-1.5,1-2.9-0.1-4.7-0.2
					c-1.8,0.7-2.5,0.4-4.4-0.4c-1.8,0-2.6,1.9-4.4,1.9c-2.1-0.6-1.7-1.8-4-1.8c-2-1-0.3-1,0.9-1.7c-0.1-0.9-2.2-1.3-3.1-1.1
					c-1.7,1.3-3.9-1.5-6,0.3c-2.9,1.4-6.5,1-9.2-0.3c-1.1-0.1-2.2-0.1-3.2-0.1c-2.4-1-5.6,1.7-6.1-1.5c-0.6-0.1-0.9,0.1-1.6,0.1
					c0-1.1,4.2-0.4,2.4-2.2c-1-0.4-0.2-1.7-1.6-0.9c-1.4-0.3-0.5-0.8-1.9-0.4c-1.7-0.9-3.9-0.5-5.8-0.5c-0.5,0.3-1.4,1.2-1.5,0.3
					c0.9-1.2,0.7-1.3-0.6-1.2c-0.2-0.8,0.5-0.6,1.1-0.8c2-1.2-4.4-1.6-3-0.3c0.5,0.2,1.4-0.1,1.4,0.6c-1.2,0-5.8,0-2.5-1.2
					c-0.1-0.8-1.9-1.6-2.8-1.6c-3.2,1.1-0.6-1.6-4.2,0.6c-1.1,0.2-1.8,0.2-2.7,0.9c-1,2,3.4,0.5,3.9,0.4c1.2,0.3,2.3,0.3,3.5,0.1
					c3,0-3.9,1.3-4.5,1.6c-1.1,0.9-1.2,0.8-2.8,1c-1.5-0.3-3.1,0.8-4.5,1.2c-2.5,0-5.2-1.1-7.6,0.1c-2.2,0.3-5.8-0.2-7.6,1
					c-0.9,0-1.9-0.5-2.4,0.3c0,2.1-2.8-0.6-2.8,1.2c0.7,1-1.3,1.1-1.9,1.1c-0.4-1-2.9-1.4-3.6-0.8c0,2.4-4.4-1.3-3.1,3.1
					c-0.4,0.3-1.7-0.1-2.2-0.2c-0.9-0.4,0.3-0.8-0.2-1.4c-0.9-0.1-2.6,3.1-2.6,1c-0.5-0.7-1-0.1-1.8,0.3c-1.1,1.4-2.4,1-2.7-0.8
					c0.5-0.3,1.8-0.9,1.8,0c1.4,0,1-0.3-0.1-0.6c-0.4-1.4-2.7,0.2-3.8,0.2c-0.6,0.6,0.3,0.6,0.8,0.7c2.4,1.3-3.2,1-2.2,2.8
					c1.1,0.9,1.5,0.8,1.1,2.2c0,1.6,1.1,1.2,1,2.3c0.8,2.5-2.4,2-3.8,3.5c-3.1,0-0.2-1.6,1.1-1.9c1.5-1.1-1-3.3-0.3-5.2
					c-0.2-1-1.7-0.9-0.8-1.9c3.8-2.4-2.9-1.6-3.4-2.2c0-1.1-0.3-0.4-1-0.1c-1.6,0.3-1.9,1-2.9,2.3c-0.9,0.4-2.5,0.2-2.9,1.3
					c0,3.8,0.9,1.6,3.2,3.4c1.4,0.2,1,1-0.1,1c-1.6-0.5-2.9-1-4.5-1.4c-2.7-1-5.8-1.4-8.5-1.4c-2.6,1,1.1,1.6-1.9,2.2
					c-1.2-0.8-0.6-1.7-2.2-0.4c-1.8,0.3-3.2,0.4-5.1,0.4c-0.4,0.2-2.4,1-2.5,0.4c0.2-0.3,1.4-1.1,0.4-1.1c-2.9,0.6-5.6,0.9-8.2,1.9
					c-1.2,0-2.8,0.2-3.3,1.4c-0.8,0.5-2.9,0.4-3.8-0.1c-0.2-1.1,1.6-0.2,2.2-0.8c0-2.1-2.9-1.5-4.2-1.5c-0.6-0.3-2.2-0.9-1.5,0.4
					c1.1,0.8,0.6,2.2,0.6,3.4c-0.3,0.2-2.1-0.9-2.8-0.6c-1.2,1-3.8,0.8-4.1,2.3c1.9,3.5-7.2-1.6-4.9,1c2.5,1.8-0.4,1.7-1.8,0.9
					c-2.4-0.5-1.7-0.3-1.7-2.7c-0.8-1.5,2.6-0.5,3.6-0.3c1.7,0,3.3,0,5,0c0.9-0.4,3.9-1.6,2.2-2.8c-3.5-1.1-7-2-10.5-2.9
					c-2,0.1-2.3,0.3-3.8-0.9c-1.9,0-2.2,0.1-3.1,0.1c-1.7-2.1-5.8-2.9-8.2-1.5c-0.2,0-0.4,0-0.6,0c-0.2-1-0.8-0.6-1.7-0.4
					c-1.1,1.1-2.3,0.5-3.8,0.5c-2.3,0.8-4.7,0.7-7.2,0.7c-0.5,0.3-0.3,0.8-0.8,1.1c-1.3-0.6-3.6,1.1-1.6,1.1
					c0.3,1.7-1.7,0.5-2.3,1.4c-0.3,2.2-2.4,1.2-4.1,1.8c-2.5,0.3,0.4,2.5-2.8,2.6c-1.2,1.2-1,1.3-2.8,1.3c-1,0.5-2,2.3-3,1.6
					c-0.5,0-1.2,1-1.6,0.4c-0.5,0-0.1,0.7-0.5,1c-1.8,0.1-2.4,0.9-4.2,1c-2,0.8-0.2,1.7-0.2,1.3c2.5,0,0.9,0.4-0.4,0.5
					c-1.3,1.2,1.8,1.6,2.2,1.7c0.2,1-1.5,0.4-2,1.1c0,2.9,4.4,3.3,6.4,1.9c1-0.6,2.4-0.5,3.1-1.4c1.2-0.5,1.7,2.5,1.9,3.1
					c1.2,1.5,2.5,2-0.2,2.1c-1,0.6-1,2.1-2.4,0.6c0-1,1.3-0.3,1.3-1.2c-1.4-0.8-0.1-1.4-0.4-1.6c-0.8-1.4-2.1,0.3-3.4,0.3
					c-2.4,1.2-0.2,3.5-0.1,5.3c-0.9,1.4-2.8,0.1-4.2,0.8c-2.9,0.4-3,1.5-4.8,3.3c-0.8,1.4-5.2,1.4-3.2-0.7c0.9-2.5-1.9-1.1-2.5-1.7
					c-0.3-2.3-1.6-2.1-3.1-3.5c-0.9-1.5-1.2-1-3-1c-1-0.7,1.1-0.8,1.6-1.2c1.3-2.5,1-2.2-2.1-2.3c0-0.8,2.5-2,0.4-2
					c-2.1,1-3.9-0.3-3.9,2.8c-0.4,0.1-1.6-0.5-1.7-1c1.8-1.7-3-0.5-1.8,1.5c1.1,0,0.3-1.6,1.6-0.4c1.9,0.4-0.6,1.1,1.7,1.6
					c0.3,1.7-1.5,1.9-2.7,1.5c-2.5,0-2.3,2.2-4.8,1.6c-1.4,0.2-0.3,1.8,0.3,2.4c0.4,1-0.8,1.1-1.3,1.6c-0.2,2.6,4.4,0.7,5.7,0.4
					c1.8,0,1.7,0,2.5-1.6c0-1-1.8-1.4,0.1-1.9c0.9-0.7-0.1-2.1,0.7-1.9c0.3,0.9,0.4,0.9,1.4,1c2.2-0.5,1.4,0.6,2.9,1
					c0.9,1.4-3.4,0.2-3.2,2.1c2.3,0.9-2.1,0.9-0.6,1.8c2.8,0.2,1.4,0.6,0,1.9c-2.2,1.1-0.1,1,1,0.5c1.7,0.1,2.4-0.5,4.4-0.4
					c1.6-0.2,3.1-0.3,4.7-0.4c1-0.4,2.2-0.6,1.4,0.9c-2.3,0.6-2.7,2-5,0.6c-2.4,0-0.2,2.8-2.7,1.6c-1.1,0-3.5-0.3-3.2,1.4
					c0.3,0.2,0.6,0.4,0.8,0.7c1.4,0.1,1.3,0.3,2.3,0.8c0.6-0.4,1.8,1.2,2.9,1.6c0.8,0.8,0.1,3.1-0.1,3.9c-1.1,1.5-3.9,0.8-5.8,0.8
					c-0.7-0.2-5.8-0.8-6-0.3c-1.9,1.1-2.2,0.6-1.1,3.2c0.2,1.7,0.1,2-0.5,3.5c-2,2.4,0.8,1.5,0.8,3.1c-1.6,3.1,2.4,0.2,3.7,2.1
					c3.6,2.3-2.9,5.4-4.7,6.5c-0.4,0.8-1.5,3.1-0.9,4.1c-0.1,1-1.6,2.1-2.3,2.5c-0.8,1-2.4,0.8-3.6,1.4c-1.1,1.8-3.1,3.1-3.1,5.2
					c-0.1,0.1-0.1,0.2-0.1,0.2c-1.7,1.4-1.7,1.1-2.5,3.2c-0.9,1.1-2.1,2.4-1,3.8c1.6,0.9,1.2,2.9,1.3,4.4c-0.3,1.1-0.8,1.9-0.9,3.1
					c-0.7,1.7-2.2,2-0.3,3.2c0.3,0.6,0.2,1.4,0.5,1.8c1.6,0.4,0.4,0.6-0.1,1.1c0,0.3,1,1.9,1.2,2.1c3.2,0,4.4,3.1,5.1,5.5
					c0.4,0.2,1.4,1,1.6,1.4c2.2,1.1,4.1,2.5,6.1,4c3.1,1.1,4.4-0.4,7.5-0.7c1.7,0,3,0.5,4.4,0.5c3.6-1.6,11.3-5.1,13,0.2
					c0.9,1.2,2.1,0.6,3.5,0.4c5.4-1.9,4.2,4.8,2.7,7.6c-1,4.2,4.4,5.5,5.1,9.1c0.2,0.3,0.3,0.5,0.5,0.8c0.2,1.9,2.3,3.1,1,4.9
					c0,1.9,2,3.1,1,5.4c-1.9,2.2-1.9,1.7-2.4,5.1c-2,3.2-0.3,5.5,1.7,8.2c0.5,1.6,1.6,2.8,2.4,4.3c0.1,3.1,0.4,6.4,2.1,9.1
					c1.2,1.1,4.5,5.6,4.5,7.2c-0.6,1.2-0.6,1.2,0.1,2.4C1612.4,347.9,1613.2,347.5,1614.6,348.2L1614.6,348.2z M1820.7,349.3
					c-0.3-0.4,0.4-2.1,0.9-1.2C1821.4,348.7,1821.2,349.1,1820.7,349.3z M1886.4,350.6c0.5,0,0.4-0.5-0.1-0.5
					C1886.3,350.2,1886.3,350.4,1886.4,350.6z M1835.5,355.5c1-0.3,2.2-1.5,3.1-2.1c1-0.1,2.9,0.2,3.5-0.6c0-3.3,1.9-6.1,4.3-8.4
					c0.6-0.2,1.1-2.3,1.2-2.8c0-2.3,1.4-4.1,0.6-6.4c-1.6-1,0.7-4.7-0.9-4.2c-0.6,0.9-3.2-2-3.7-2.5c0-0.8,0.1-1.2-0.7-1.7
					c-1.8,0-2.8-3.2-4.4-4.1c-1-1-2.3-0.6-2.9-2.1c-0.2-2.3-1.5-3.7-1.6-6.1c-1.4-2.8-3.1,0.5-3.2-3.2c-0.3-1.1-1-3.1-2.1-3.8
					c-0.9,0.1-1.4,3.1-1.4,3.7c-0.3,1.3,0.3,8.9-3.1,7.7c-0.8-0.8-0.8-1.8-1.9-1.1c-1.3,0-3.9-2.2-5.1-2.9c-1.4-2.4,3.1-0.2,1.2-1.9
					c-0.2-0.4-0.1-0.9,0.4-1c1.4-2.4-1.5-1.7-0.2-3.1c0.7-2.5-2.2,0.1-1.5,0.6c0.2,1.9-5.5-1.2-6.2-1.2c-1.2,0.4-0.9,0.6-0.2,1.3
					c0.1,0.8-1.5,0.4-1.8-0.1c1-2.3-3.1-0.6-1.7,0.4c1.8,0,1.6-0.3,0.3,2c-1.4,0.7-1.2,1-1.5,2.4c-1.1,1.1-2.4-0.4-3.1-1.1
					c-3.5-1.2-3.5,2.4-5.8,1.7c-0.5,0-0.6,0.2-0.4,0.8c1.4,0.6,0.1,0.9-0.8,1.1c-0.3,1-0.3,1.1-1.1,0.4c-2.1-0.1-0.9,2.5-2.2,3.1
					c-1.2,1.7-2.1,2.5-4.4,2.5c-1.3,0.4-2.5,1.5-3.9,1.1c-1.2,0.2-3.5,1.7-4.4,2.5c-1.7,0.2-1.2,3.6-2.1,4.8
					c-0.3,0.1-0.4,0.1-0.7,0.3c-0.4,1.1,2.5,6,3.2,7.2c0.2,0.8,0.3,1.6,0.5,2.4c1.3,2.1,1.6,3.2,0,5.1c0,2.3,4.2,2.7,5.8,2.3
					c3.4-2.2,5.4-1.7,9.2-1.7c0.9-0.5,1.2-1.4,2.4-1.9c1.9-0.7,3.1-0.8,5-1c2.1-1,3.9-1,6.2-1.2c3.1,1.5,5.1,0.6,6.8,4.1
					c0.4,3.2,2.4,0.3,3.9-0.8c1.1-0.3-1.1,2.3-1.1,2.7c0.3,0.4,1.3,1,1.8,1.3c1.9,0,1.6-1.1,2.9,0.8c0,3.8,4.4,3.1,6.9,4.2
					c0.6,0,1.2-0.3,1.9-0.5C1833.9,354.5,1834.2,354.6,1835.5,355.5z M1837.3,356c0.1,0,0.2-0.1,0.3-0.1
					C1838.2,355.5,1836.4,355.1,1837.3,356z M1831.5,357.3c0.7-0.2,0.6-0.6,0.6-1.2C1831.6,355.5,1830.9,357,1831.5,357.3z
					 M1449.3,363.2c0.2,0,0.3,0,0.5,0C1449.9,362.1,1448.8,362.5,1449.3,363.2z M1835.5,363.3c-1.7-1.1-4.9-7.5,0-4.7
					c0.6,0,2.8-0.4,3.1-0.9c0-0.3-0.2-1-0.2-1.2c1.8-1.1,1.2,3.9,1.2,4.4c-0.5,0.9,0,1.7-1.4,1.7
					C1837.3,363.4,1836.7,363.2,1835.5,363.3L1835.5,363.3z M1451.8,364.5c0.5-0.3,1.5-4.4,0.9-5c-1.6-0.1,0.2,2.2-1.3,2.7
					C1450.9,362.7,1451.2,364.2,1451.8,364.5z M1451.9,365.8c0.1,0,0.3-0.1,0.3-0.1C1452.2,365.1,1451.8,364.9,1451.9,365.8z
					 M1875.3,368.3c-3.9-1-6.4-0.6-1.7-4.4c0.1-0.2,0.2-0.3,0.3-0.4c3.2-1,4.6-2.1,6.5-4.5c0.2-1.5,1.1-1.8,2.3-0.8
					c0.3,0,0.8-1,1-0.3c0.9,0.4,2.3,1.4,2.2-0.6c-0.8-0.7-3.2-1-2.1-2.3c3.5-1.5-0.9-5.3-2-7.2c0.3-0.9,3.7,1,3.7,2.4
					c0.6,2.1,0.9,0.1,1.8,1.1c0.6,1.2,0.8,1.7,2.2,1.8c4.4-1.7,2.8,1.9,0.6,2.5c-0.5,0.3-0.4,0.6-0.5,1.2c-1.4,1.8-2.2,3.1-4.4,2.3
					c-1.1,1.1-1.4,2.1-2.8,3.1c0,0.2,0,0.2,0.3,0.7c0,0.8-1.4,0.4-2.1,0.7C1878.4,365.5,1878.8,368.1,1875.3,368.3L1875.3,368.3z
					 M1448.8,374c0.4-0.1,0.4-0.2,0.6-0.5c2.5-1.2,0.3-2.5,0.3-1.7C1449,372.6,1448.8,372.8,1448.8,374z M1449.7,376.5
					c0.7-0.2,0.7-0.9-0.1-0.4C1449.6,376.1,1449.6,376.3,1449.7,376.5z M1451.2,379c0.3-0.1,0.3-0.2,0.3-0.5
					C1451,377.9,1450.6,378.7,1451.2,379z M1452.5,380.1c1.5-0.4-0.5-1.2-0.5-0.2C1452.2,380,1452.4,380,1452.5,380.1z
					 M1456.3,380.2c1.2-0.3,1.7-2.6-0.6-1.5C1454.3,380,1455.2,379.4,1456.3,380.2z M1467.6,381.9c0.3-0.1,0.5-0.2,0.8-0.3
					C1468.3,380.6,1466.7,381.6,1467.6,381.9z M1462.4,383.6c-1.4-0.4,0.3-0.8-0.4-1.5c-1.7,0,0.3,1.4-1.3,1.4c-1-0.4-2.4-0.3-3-1.4
					c-1.3-0.2-3.8-0.2-4.7-1.5c-0.5-0.1-0.8,0.2-1.4,0c-0.6-1.7-3.5-2.8-3.4-4.9c0.4-0.5,0.1-2.4,0.1-3.1c-1.2-1-0.4-1.9,0.3-3
					c0.8-0.3,1.9,0.4,2.3-0.2c-1-1.7-4.9-1-1.7-2.8c0.4-1.5,1-1.5-0.5-1.7c0-1.1,1.8-1.5,1.8-2.5c-0.9-1.2,0-1.8,0.5-2.9
					c0-1.7-0.1-1.8,0.8-3.4c0-1.8-1.5-3.7,0.3-4.9c1-2.1,2.4-4.1,2.4-6.5c0.9-1.3,0.3-2.5,0.3-4.1c0.6-1.6-0.1-2.5,0.8-3.8
					c0.8-3.1,1-5.5,1-8.5c0.2-1.6,1.2-1.9,0.5-3.7c0-2.4,0.9-3.8-1.7-5.1c-0.9-0.7-1.8-1.9-3-2.1c-1.7-0.8-4.9-2.2-5.8-3.8
					c-0.4-2.4-0.5-2.5-2.1-4.4c-0.8-2.9-2.9-5.6-4.5-8.1c-0.6-0.5-2.8-1.4-1.7-2.3c0-1-1.7-2.4,0.3-3.1c0.5-0.4,2.3-2.1,1.2-2.6
					c-3.2,0.4-0.5-2.9,0-4.1c0.2-2.5,1.7-1,2.6-2.8c0.2-1.8,0.8-1,1.8-1.7c0.3-0.4,0.5-0.8,0.8-1.1c0-2.1-1.1-11.7-5.1-7.9
					c-0.7,3.1-1.6,1.1-3.8,0.3c-2.4,0-2.4-2.1-4.5-2.4c-0.8-0.3-1-0.7-1.4-1.5c-0.3-3.7-5.2-5-8.3-5.4c-2.9-1-4.2-2.9-6.7-4.3
					c-1.1-0.3-1.9,0.3-2.9,0.9c-2.2,0.1-3.4-0.7-5.2-1.6c-2.7-0.3-4.5-2-7.1-2.5c-1.5-0.8-2.9-1.9-4.2-2.9c-0.7-1,1-3.1,0-3.6
					c-1.1-2.6-4.4-4.4-6.5-6c-0.3-0.7,0.1-1.2-0.3-1.8c-1.1-0.5-1.5-0.7-2.1-1.7c-2.3-1.1-3.4-2.5-4.3-5c-0.3-2.3-4.8-2.9-2.3,0.9
					c0.9,0.4,1.7,0.4,2.2,1.2c0.2,2.9,3.1,3.6,3.8,6c0.8,1.1,0.4,2.3,2,2.2c0.3,0.3,0.6,2.4,0.4,2.6c-1.1,0.3-1.6-0.8-2.2-1.5
					c-0.4-0.3-0.4-0.3-1.9-1.1c-0.7-0.8-0.3-1.9-1.1-2.8c-1-0.5-4.1-1.6-4-3.1c1.5-1.6,0.7-1.5-1.1-2.8c-1-1.2-2.4-3.2-2.5-4.9
					c-0.6-0.9-1.5-1.6-2.3-2.3c-2.3-0.9-6.1-1.8-6.1-4.8c0.2-0.4,0.8-1.6,0.1-1.9c-3.7,0-2.9-1.8-4.5-4.2c-0.2-0.9,0.1-1.8-0.1-2.7
					c-0.8-1.8-0.2-1.7,0.3-3.5c0.2-3.5,0.2-3.5,0.3-4.3c-0.4-1.3-1.2-3.8-2.9-3.9c-0.3-0.5-1.8-1-2.5-1.3c-1.4-1.8-1.3-4.2-3.9-4.8
					c-0.1-1.5,0.9-1.3-1.3-1.3c-1.8-0.8,0-2.2-2.7-2.7c-0.4-0.4-1-1.1-1.6-0.3c0.1,2.4-1.8,0.2-1.1-0.6c0-0.6-3.4-3.2-0.5-2.4
					c1.4,1.6,0.1-1-0.3-1.4c-1.7-1-2.3-0.6-4.2-0.6c-0.6,1.2-0.6-0.2-1-0.5c-1.6-0.2-2.4-0.6-3.7-1.6c-0.9-1.4-2.4-0.3-3.8-0.5
					c-2.4-0.9-4.7,0-7.1-1.1c-0.8,0-1.6,0.3-2.3,0.3c-0.9-1.9-3.1-1.5-4.5-0.4c-0.9,1.2-5.1,3.9-5.1,0.8c2.1-3.8-3.2,2.5-3.7,2.9
					c-1.3,0.5-2.5,1.2-3.8,1.7c-1,1.1-2.2,1-3.4,2.1c-0.6,0.3-2.4,0.1-2.5,1c0.3,0.5,0.3,1.4-0.3,0.7c0-1.9-1-0.2-1.9-0.2
					c-0.9-0.2-2.8,0.2-3.1,1c-0.7-1.2-3.2,1-2.9-0.3c2.1-1.2,4.1-2.2,6.5-2.2c0.1-0.1,0.2-0.1,0.3-0.2c1.3-2.1,4.2-0.6,4.8-3.5
					c0.9-1.2-3.1-0.5-3.6-0.6c-1.7-0.7-2.1-0.1-4-0.1c-0.5-0.9,1.1-2.3-0.2-3.1c-1,0-1.7,1.6-2.7,0.9c-0.2-1.9-0.3-1.6-2.4-1.7
					c-0.9-0.5-0.9-0.7-1.9-0.9c-0.4-0.4,2.8-3.1,3.6-3.1c1.1,0.4,2.3-0.3,3.5-0.4c2,0.3,2-1.9,0.9-1.9c-2.5,0.8-5.3,0.7-7.9,0.3
					c-1.2-0.4-1.1-1.2-2.4-1.5c-1-1.1,5.4-1.9,6.3-1.9c0.8,0.9,1.7,1,2.8,0.7c2.1-2-0.5-1.3-2.5-1.7c-1.5-1.2-2.7-1.3-4.7-1.7
					c-1.6-1.6,2.4-1.3,3-1.4c0.6-0.2,1.4-0.3,2.1-0.4c2.8-2.4,5.3-1.6,8.5-2.6c1.9-0.3,3.5-1.5,5.3-0.4c0.7-0.2,0.7-0.2,1-0.2
					c1.3,0.6,4.4-0.1,4.8,1.1c0.8,0.2,1.5,0.3,2.4,0.2c6.9,0,14.6,0.3,21.3,1.7c1.8,0.8,8.5,2.2,9.1,0.1c1.7-1.2,2.2-0.9,3.8-0.7
					c0.8-1,1.6-0.9,2.9-0.9c1.1,1.3,2.1-0.9,3.8-0.2c2.1,1.1,2.9,2.4,4.5,0.5c1.4,0.1,1.1,1.7,3.1,0.9c2.8-0.8,5.8,0.3,8.8,0.4
					c1,1,6.7,0.5,3,0.1c-0.9-0.3-1.3-0.8-1.2-1.7c-0.3-0.5-2.9-1-1.3-1.7c-0.1-0.5-2.7-0.7-1-1.4c0.3-0.3,0.7-0.5,1-0.8
					c0.2-0.5-3.9,0.7-4.1,0.9c-0.5,1.4-1,1.4-2.5,1.5c-2.8,1.1-3.1-0.2-5.1-1c-0.4-0.5-1.4-0.3-2.1-0.4c-0.3-0.7,0.9-1.1,1.3-1.6
					c3.4-0.5-0.8-2.8,2-2.5c1.9-0.3,4-0.3,6,0c1.5,1.6,7.1-1,8.7,1.4c-0.1,0.3,1.5,0.4,1.7,0.5c0.6,1.7,1.2,0.9,2.7,0.4
					c1,0,1.2,0.1,2.4,0.1c0.1,1,4.9,0.7,6,0.8c-0.1-0.6-0.3-2.2,0.6-2.2c1,0.8,0.6,1,1.7,0c0.9,0,4.4-0.5,3.6,1
					c-1.6,1.2,0.5,2.4,1.2,3.8c0.8,0.8,1.5,0.1,2.3,0.1c1.4,0.9,5.5,1,2.3,3.1c-0.5,0.6-1.1,2.2-1.3,0.2c-0.2,0.1-0.2,0.1-1,0.4
					c-1.1,0-6.4-0.3-2.8,1c1.7-0.1,2.8,0.4,4.4,0.6c1.6-0.7,3.1,0.5,2.3-1.8c0.1-1.9,1.8,0.7,0.8,1.1c0.2,0.9,5.8,1.5,3.5-0.4
					c-0.6-0.1-3.9-0.3-2.4-1.4c1.9-0.2,2-1.5,3.8-0.6c3.7,0-1.3-2.4,2.8-3.1c2.1-0.8-0.1-0.8-0.1-2.3c1-2.5,1-2.2,3.8-2.3
					c1.7,0.3,7.6-0.8,4.2,1.7c-1.8,0.8-2.3,0.9-4.2,0.8c-3.2,0-0.2,1.8,0.5,2.5c1.4,3.2,0.2,2.4,4.9,2.9c0.3,0.5,0.2,1.2,0.8,1.4
					c2-1.1,2-0.9,3.9,0.4c1.2,1.6,0.9-0.6,2.2,0.2c2.4,0.3,0.5-4.9-0.4-3c-2.4-0.3-5.4-0.3-6.1-3.1c1.8-2.6,5.1-4.5,8.6-3.4
					c0.8,1-2.8,1-2.1,2.9c0,1.7-0.8,1.7,1.7,1.7c1.4-0.4,0.3-0.9-0.5-1.1c-2.9-2.4,3.9-3.1,4.8-3.5c1.7,0.1,3.2,1,4.4,0.1
					c1.8,0,6.1-0.5,7,1.5c1.2,1.1,2.7,0.1,2.9,2c0.4,0.2,0.6,0,1,0c2.1,1.1,0.8,0.6,2.6,0.1c3.1,0-0.9,2.3,2.1,2.4
					c0.4-0.2,0.6-0.5,0.9-0.9c2.2-1.3,3.1,0.3,3.9,1.7c0,0,5.4,0.3,3.6,1.4c-3.2,0.6,1.2,1.2,1.9,1.4c2.4,0,3.7,1.1,5.8,1.9
					c4.3,0,1.3,1.6-0.8,1.7c-0.8,0.5-0.8,2.8-2.1,1.3c-1.1-2.5-1-1-3.7-1.5c-0.7-0.4-2.8-1.2-3.4-0.3c0.2,0.6,1.7,1.5,2.3,1.9
					c1.2,0.2,5.5,1.4,3.8,3.6c0.4,0.5,0.6,1.6-0.5,1c-0.2-0.7-0.2-0.5-0.7-0.2c-1.7,2.7-5.8-0.3-8.1-0.3c-3.1,1-3.9-3.6-6.9-2.7
					c-1,0-5.5-0.6-5.3,0.5c2.3,1.1-0.3,0.9-1.3,1.5c-0.5,0-2.4-0.2-1.6-1c2.1-0.4,0.3-3.8,3.1-3.1c0.2,0,5.1,0.4,4.4-0.7
					c-2.1-0.6,2.8-2,3.1-2.4c-0.2-0.3-0.4-0.6-0.6-1c-0.8-0.6-2.4,0.1-3.5,0.2c-0.3,0.3-1,1.4-1.6,0.9c0-1.2,1.9-2.9-1-2.3
					c-1,0-2-2.2-2.7-1.7c-0.3,1.5-2.1,1-1.7,0.2c-0.3-0.6-1.1-0.1-1.6,0.1c-0.7,0-3.8-1.1-3.6-0.3c1.6,0.6,1.2,1.8-0.3,2.2
					c-0.1,1.3,2.4,0.5,0.8,2.4c-1.5,0.5-2.2,1.4-3.4,2.3c-0.7,0.1-1.2-1.4-1.7-0.1c0.5,0.4,1,0.1,1.5,0.5c1,0.3,5.3,1.7,4.5,3.2
					c-1.7,0.2-2,0-3.6-0.6c-2.5,0-5.7,3.1-5.7-1.7c0.5-1.4,1-2.4,2.2-1c1-0.1-1.1-2.4-2.7-1.4c-0.2,0.4-0.4,0.8-0.6,1.2
					c0,2.1-2.1,3.8-4.1,2.5c-1,0-3.4,1.7-4,2.2c-0.4,0.2-0.4,0.2-1.7,0.4c-1.5,1.4-4.8,4.1-3.1,6.1c2.7,0.1,2.7-0.1,3.2,2.6
					c0.8,1.1,4.4-0.1,5.7-0.1c1.6,1,2.3,2.4,4.2,2.3c0.9,0.2,1.2,0.7,2.1,1.1c5.8,0.3,5.8-0.4,6.2,4.6c1.2,1.5,3.8,2.7,5.5,1
					c0.6-1.3,0.3-3-1-3.8c-0.3-0.4-0.3-0.6,0.2-0.9c2.9-0.3,6.6-1.7,4.4-5c-1.4-0.8-4.5-1.4-1.9-3.1c3.8-1.2-2.4-5.1,3.5-5.1
					c0.3,0.2,4.1,1.1,3,0.1c-0.1-0.8,0.8-0.8,0.7-0.1c2.4,0.4,4.3,1.9,6.7,2.2c0.8,0.2,1.7,0.3,1.7,1.1c-1.5,2.3,0.6,1.8,1.8,3.6
					c1,0,4.5-0.8,5.1-1.6c0-3.4,2.4-1.1,3.1,0.5c1.6,0.9,3.5,2.8,3.5,4.6c1.9,2.3,1.1,1.6,3.9,1.8c1.4,0.9,2.5,0,2.7,1.7
					c1,1,4.9,1.4,3.2,3.8c-0.8,0.4,0.5,0.4,0.6,1.5c1.1,1.8-1.3,0.3-1.2,1.4c0.5,0.5,0.9,1.5,1.6,1.5c0.9-0.6,2.9-1.2,2.8,0.4
					c-0.9,0.9-0.3,2.5,1,1.7c1.6,0,0.3,3.9-1.3,2.4c-1.3-2.5-1.5,0.8-3.2-0.6c-0.2-0.3-0.4-0.8-0.9-0.8c-0.8,0.5-5.1,0.5-5.8-0.3
					c-0.1-0.8,1.4-1.2,1.9-1.6c0.2-0.3,0.2-0.3,0.9-2.2c1.8-2.1,1.7-2.4-1-1.8c-2.4,2.3-4.7,1.2-7.8,1.7c-0.5,1,3.2,0.8,1.7,1.9
					c-0.9,0-3.7-0.1-2.8-1.5c0-1.5-5.1-1-5.8,0.3c-1.5,1.4,2.1,0.6,2.7,0.5c0.7,0.2,1.6,0.6,1.4,1.4c-1,0.7,0.3,0.9-0.7,1.6
					c0,0.3,0.8,1.9,1,2.2c1.5,0.3,2.8,1.2,4.4,0.4c0.5,0,0.7,0.3,1.1,0.4c1-0.1,2.3-1.3,2.4-0.1c-1.6,1.5-4.7,1.4-6.5,2.2
					c-1.8-0.2-2.2,2.5-4.1,0.9c-1.3-1.7,2.6-2.4,1.5-2.9c-0.9,0.8-1.7,0.8-2.8,0.8c-0.6,1.5-2.1,1.2-3.5,1.2
					c-1.9,1.6-3.4,1.6-3.8,4.1c-0.7,1.5-3.4,2.1-4.8,2.2c-0.8,0.5-0.5,2.8-1.9,2.7c-0.1-0.1-0.1-0.1-0.3-1.2c-0.8,0.2,0.3,4.1-1.4,4
					c-0.1-0.2-0.1-0.2-0.1-0.8c-0.5-0.9-2.5-1.6-1.3,0.4c0,1.4,1.6,1.1,0.4,2.4c-0.1,0.4,0.1,0.6,0.2,1c-1.2,0.4-0.1,0.9-0.5,1.5
					c-0.8,0.3-1.7,0.6-2.4,1c-3.8,3.2-7.8,3.8-4.7,9c0.3,1.1,2.2,5.4,0.2,6.3c-2.4,0-1.7-2.4-3.3-3.2c-1-1.3-0.2-2.2-0.8-3.4
					c-2.3-2.1-1.5-1.1-4-1.1c-1.8-1.4-4.7-0.8-6.9-0.8c-0.6,0.6,0,1.5-1.1,1.4c-1.4,0.6-1.9,0.5-3.1-0.4c-1.5,0-2.9-0.2-4.4-0.2
					c-1.7,0.9-3.8,2.1-5.2,3.2c-0.8,1.2-0.1,2.8-0.5,4.2c-1.7,2.8-0.9,6.5,1.3,8.8c0.6,1.1,0.6,1.1,0.8,1.5c1.8,2.2,7.9,1.5,9.2-1
					c0.3-3.5,3.8-3.1,6.5-3.1c1.1,0.8-0.4,2.3-0.9,3.1c0,2.2-0.6,4.2-1.7,6.1c0,1,0.8,0.5,1.4,0.3c1.3,0,2.1-0.9,3.5-1
					c0.3,1.4,2.9,1.3,4.1,2.4c0.5,1.3,0.5,1.5-0.2,2.7c-0.1,2.4-0.9,5.8,2.3,6.9c0.4,0.8,1.6,0.9,2.4,0.9c2.4-1.3,3.2-2.2,5.7,0.3
					c3.3,1.1,2.8-4.1,5-4.1c1.1-0.5,1-0.5,2.5-0.5c0.5-0.3,4.4-3.1,3.5-0.3c-2.3,1,1.4,1.4,1.4-0.5c0.7-1.2,1-1.8,1.3-0.1
					c0.6,1,1.8,0.6,2.6,1.4c0.9,1.4,2.9,0.5,4.4,0.9c2.6,2.1,1.3-2.2,3.1-0.5c1.7,0.4,2.6-0.9,2.7,1.1c1.4,1,1.4-2.1,2.4-0.6
					c0,1.4-0.4,1,0.4,2.1c0.5,2,3.8,1.3,4.1,3.9c0.6,0.9,2.8,1.9,4,2c1.5-0.6,1.7,0.4,3.1,0.4c0.8-0.7,0.5-0.4,1.3,0.1
					c3,0,4.4,2.8,4.7,5.1c1,1.7,1.7,1.5,1.6,3.5c-1.5,1.3,0.9,0.5,1.7,0.9c1.2,0.2,0.6,0.2,1.1,1c1.9,0.1,4.9,0.5,6.5,1.8
					c0.4,1.7,0.9,0.8,2.3,0.8c1,0.4,1.4,0.8,2.5,0.6c0.5,0.2,0.9,0.5,1.5,0.5c2.9-1,4.9,2.3,7.2,3.5c1.2,0.2,2.4-0.2,2.8,1
					c1.2,1.9,1.2,5.5-1,6.7c-1.4,1.7-2.5,3.3-3.8,5.1c-0.6,0.3-1.4,0.3-1.8,0.9c0.3,2.8,1,6.4-1.1,8.6c-0.1,0.3-0.1,0.3-0.2,1.9
					c-0.6,1.7-2.1,2.4-2.1,4.2c-0.6,0.8-1.2,0.9-1.8,1.9c-1.4,0.6-2.8-0.6-4.4,0.3c-1.4,1.5-2.7,1.4-4.4,2.2c-1.7,1.4-1.9,1-2.5,3.1
					c0.4,3.4-1.4,4.3-2.7,6.9c-1.1,0.6-1.9-1.2-1.9,0.8c-0.3,0.7-1.1,0.9-1.7,1.6c-0.4,2.2-2.2,4.5-4.4,5.5c-1.1,0-2.3,0-3.4,0
					c-0.2-0.1-2.3-1.2-2.2-0.3c1.4,1.3,0.9,0.6,1,2.1c0.3,0.2,0.9,0.5,1,0.7c0,3.5-4.3,3.8-7,4.4c-2.5,0-2.1,0.1-2.5,2.4
					c-1.5,2.3-3.1,0.6-5.1,0.8c-1.6,1.5,3,2.3-0.2,4c-1.9,1.8,0.4,2.4-3.1,3c-4.2,2.5,3.6,2.5,1.1,5c-1.4,0.4-1.7,0.8-2.8,1.8
					c-0.6,2.6-3.8,1.3-1.6,4.7c-0.2,0.4-2.4,0.6-1.5,1c2.5,0,1.6,1.2,3.8,2.2c1.1,0.9,2.4,1,3.8,1c1.7,1.1-3.1,0.4-3.2,2.2
					C1462.8,383.6,1462.8,383.6,1462.4,383.6L1462.4,383.6"/>
				<path id="path382_1_" class="st0" d="M1454.4,167.6c4.2,0.1,8.1,1.7,10.8,4.5c2.7,2.7,4.4,6.5,4.5,10.6c0,0.2,0,0.3,0,0.5
					c0,0.8-0.1,1.6-0.2,2.3c-0.1,0.2-0.1,0.3-0.1,0.4l-0.6,2.2c-0.1,0.2-0.2,0.3-0.2,0.4c-0.1,0.2-0.2,0.3-0.3,0.5
					c-0.4,0.9-0.9,1.7-1.5,2.6l-4.8,9.5l-6.7,13.1l-1.2,2.4l-1.2-2.4l-6.7-13.1l-4.8-9.5c-0.1-0.2-0.2-0.3-0.3-0.4
					c-0.1-0.2-0.2-0.3-0.3-0.5c-0.5-0.9-0.9-1.7-1.2-2.7l-0.5-1.9c-0.2-0.9-0.3-1.7-0.3-2.7c0-0.4,0-0.7,0-1.1
					c0.2-4,1.8-7.7,4.5-10.4c2.8-2.8,6.5-4.4,10.8-4.5C1454.3,167.6,1454.3,167.6,1454.4,167.6"/>
				<path id="path384_1_" class="st3" d="M1454.3,169c7.8,0,14,6.4,14,14c0,1.6-0.3,3.1-0.8,4.5l0,0l0,0c-0.4,1.2-1,2.4-1.7,3.5
					l-4.9,9.6l-6.7,13.1l-6.7-13.1l-4.9-9.6c-0.8-1-1.3-2.2-1.7-3.4v-0.1l0,0c-0.5-1.5-0.8-3-0.8-4.5
					C1440.3,175.3,1446.6,169,1454.3,169"/>
				<path id="path386_1_" class="st4" d="M1716.8,211.7c-3,0-5.3,2.4-5.3,5.3c0,3,2.4,5.3,5.3,5.3s5.3-2.4,5.3-5.3
					C1722.1,214.1,1719.7,211.7,1716.8,211.7z M1716.8,206.6c5.8,0,10.5,4.7,10.5,10.5c0,1.2-0.2,2.4-0.5,3.4l0,0l0,0
					c-0.3,0.9-0.8,1.8-1.3,2.5l-3.6,7.2l-5,9.7l-5-9.7l-3.7-7.2c-0.5-0.8-1-1.7-1.3-2.5v-0.1l0,0c-0.3-1-0.5-2.2-0.5-3.4
					C1706.3,211.3,1711,206.6,1716.8,206.6L1716.8,206.6"/>
				<path id="path388_1_" class="st4" d="M1829.3,321.4c-3,0-5.3,2.4-5.3,5.3c0,3,2.4,5.3,5.3,5.3c3,0,5.3-2.4,5.3-5.3
					C1834.6,323.8,1832.2,321.4,1829.3,321.4z M1829.3,316.3c5.8,0,10.5,4.7,10.5,10.5c0,1.2-0.2,2.4-0.5,3.4l0,0l0,0
					c-0.3,0.9-0.8,1.8-1.3,2.5l-3.6,7.2l-5,9.7l-5-9.7l-3.7-7.2c-0.5-0.8-1-1.7-1.3-2.5v-0.1l0,0c-0.3-1-0.5-2.2-0.5-3.4
					C1818.8,321,1823.5,316.3,1829.3,316.3L1829.3,316.3"/>
				<path id="path390_1_" class="st4" d="M1613.7,250.2c-3,0-5.3,2.4-5.3,5.3c0,3,2.4,5.3,5.3,5.3c3,0,5.3-2.4,5.3-5.3
					C1619,252.6,1616.6,250.2,1613.7,250.2z M1613.7,245.1c5.8,0,10.5,4.7,10.5,10.5c0,1.2-0.2,2.4-0.5,3.4l0,0l0,0
					c-0.3,0.9-0.8,1.8-1.3,2.5l-3.6,7.2l-5,9.7l-5-9.7l-3.7-7.2c-0.5-0.8-1-1.7-1.3-2.5v-0.1l0,0c-0.3-1-0.5-2.2-0.5-3.4
					C1603.1,249.8,1607.8,245.1,1613.7,245.1L1613.7,245.1"/>
				<path id="path392_1_" class="st4" d="M1489.8,302.5c-3,0-5.3,2.4-5.3,5.3s2.4,5.3,5.3,5.3s5.3-2.4,5.3-5.3
					S1492.8,302.5,1489.8,302.5z M1489.8,297.3c5.8,0,10.5,4.7,10.5,10.5c0,1.2-0.2,2.4-0.5,3.4l0,0l0,0c-0.3,0.9-0.8,1.8-1.3,2.5
					l-3.6,7.2l-5,9.7l-5-9.7l-3.7-7.2c-0.5-0.8-1-1.7-1.3-2.5v-0.1l0,0c-0.3-1-0.5-2.2-0.5-3.4
					C1479.5,302.1,1484.1,297.3,1489.8,297.3L1489.8,297.3"/>
				<path id="path394_1_" class="st4" d="M1413.6,198c-3,0-5.3,2.4-5.3,5.3s2.4,5.3,5.3,5.3s5.3-2.4,5.3-5.3S1416.5,198,1413.6,198z
					 M1413.6,192.8c5.8,0,10.5,4.7,10.5,10.5c0,1.2-0.2,2.4-0.5,3.4l0,0l0,0c-0.3,0.9-0.8,1.8-1.3,2.5l-3.6,7.2l-5,9.7l-5-9.7
					l-3.7-7.2c-0.5-0.8-1-1.7-1.3-2.5v-0.1l0,0c-0.3-1-0.5-2.2-0.5-3.4C1403.1,197.5,1407.8,192.8,1413.6,192.8L1413.6,192.8"/>
				<path id="path396_1_" class="st4" d="M1454.3,174.9c4.5,0,8.1,3.7,8.1,8.1s-3.7,8.1-8.1,8.1c-4.5,0-8.1-3.7-8.1-8.1
					S1449.8,174.9,1454.3,174.9"/>
				<path id="path398_1_" class="st3" d="M1454.3,176.9c3.4,0,6.2,2.8,6.2,6.2s-2.8,6.2-6.2,6.2s-6.2-2.8-6.2-6.2
					C1448.1,179.6,1450.9,176.9,1454.3,176.9"/>
				<path id="path400_1_" class="st5" d="M1431.2,236.2L1431.2,236.2L1431.2,236.2c12.5-11.1,26.3-20.8,41.1-29.1
					s30.7-15.3,47.3-20.6c85.4-27.4,190-13.2,271.2,63.7l-0.5,0.5c-80.9-76.7-185.3-90.9-270.5-63.5c-16.6,5.3-32.4,12.2-47.2,20.5
					c-14.8,8.4-28.6,18.1-40.9,29l0,0L1431.2,236.2"/>
				<path id="path402_1_" class="st5" d="M1566.8,235.1c16.3-23.3,37.9-41.3,61.6-52.4c18.7-8.6,38.5-13,58.2-12s39.2,7.2,56.8,19.4
					c18.4,12.9,34.9,32.5,47.6,59.9l-0.6,0.3c-12.6-27.3-29-46.8-47.4-59.7c-17.5-12.2-36.8-18.4-56.4-19.4
					c-19.5-1-39.3,3.4-57.8,11.9c-23.6,11-45.1,29-61.3,52.2L1566.8,235.1"/>
				<path id="path404_1_" class="st5" d="M1378,193.6c7.8-5.8,16-10.8,24.2-15.3c41.3-22.6,86.6-29.4,129.1-20.2
					c42.6,9.2,82.3,34.5,112.8,76.3c6.1,8.4,11.8,17.4,17,27l-0.6,0.3c-5.2-9.7-11-18.7-17-26.9c-30.3-41.7-69.9-66.8-112.3-76
					s-87.5-2.3-128.6,20.1c-8.2,4.4-16.2,9.5-24.1,15.3L1378,193.6"/>
				<path id="path406_1_" class="st2" d="M1330.7,238.4h2.5v2.8h2.6v1.2v1.1v8.4h1v-6.4h14.7v5.2h9.9l-0.6,1.3
					c-2.2,0.8-5.2,3-7.4,5.5c-0.6,0.8-1.2,1.6-1.7,2.3h-26.3l-1.5-2.3l-2.8-4.5v-1.1h3.8v-9.2h3.7l1.2-2.4l0.6-1.1L1330.7,238.4"/>
				<path id="path408_1_" class="st6" d="M1560.3,306.1h2.5v2.8h2.6v1.2v1.1v8.4h1v-6.4h14.7v5.2h9.9l-0.6,1.3
					c-2.2,0.8-5.2,3-7.4,5.5c-0.6,0.8-1.2,1.6-1.7,2.3H1555l-1.5-2.3l-2.8-4.5v-1.1h3.8v-9.2h3.7l1.2-2.4l0.6-1.1L1560.3,306.1"/>
				<path id="path410_1_" class="st6" d="M1838.2,240.3h2.5v2.8h2.6v1.2v1.1v8.4h1v-6.4h14.7v5.2h9.9l-0.6,1.3
					c-2.2,0.8-5.2,3-7.4,5.5c-0.6,0.8-1.2,1.6-1.7,2.3h-26.3l-1.5-2.3l-2.8-4.5v-1.1h3.8v-9.2h3.7l1.2-2.4l0.6-1.1L1838.2,240.3"/>
				<path id="path412_1_" class="st2" d="M1408.5,316.5l14-0.4c2.4-0.1,5.3,0,7.2,0.8c0.2,0.1,0.3,0.1,0.4,0.2s0.2,0.1,0.3,0.1
					c0.3,0.2,0.5,0.3,0.8,0.4c1,0.6,1.9,1.4,3,1.9c0.1,0.1,0.2,0.1,0.3,0.2h0.1c1.5,0.6,1.7,1.4,1.1,2.2c-0.2,0.2-0.4,0.4-0.6,0.6
					c-2.4,1.7-6.5,1.6-9.7,1.5s-6.5,0.1-9.8-0.2c-2.4-0.2-5.1-0.7-7.5-1.7c-1.9-0.8-3.7-1.7-5.1-3l-1.6-4.4l-0.8-2.3l-0.3-0.8
					l2.3-0.1c1.6-0.1,2.2,0.4,2.5,0.9c0.1,0.1,0.2,0.2,0.2,0.2l1.8,2L1408.5,316.5"/>
				<path id="path414_1_" class="st6" d="M1514.9,206.7l14-0.4c2.4-0.1,5.3,0,7.2,0.8c0.2,0.1,0.3,0.1,0.4,0.2
					c0.1,0.1,0.2,0.1,0.3,0.1c0.3,0.2,0.5,0.3,0.8,0.4c1,0.6,1.9,1.4,3,1.9c0.1,0.1,0.2,0.1,0.3,0.2h0.1c1.5,0.6,1.7,1.4,1.1,2.2
					c-0.2,0.2-0.4,0.4-0.6,0.6c-2.4,1.7-6.5,1.6-9.7,1.5s-6.5,0.1-9.8-0.2c-2.4-0.2-5.1-0.7-7.5-1.7c-1.9-0.8-3.7-1.7-5.1-3
					l-1.6-4.4l-0.8-2.3l-0.3-0.8l2.3-0.1c1.6-0.1,2.2,0.4,2.5,0.9c0.1,0.1,0.2,0.2,0.2,0.2l1.8,2L1514.9,206.7"/>
				<path id="path416_1_" class="st7" d="M1378.3,196c1.1,0,2.2-1,2.2-2.2s-1-2.2-2.2-2.2s-2.2,1-2.2,2.2S1377.1,196,1378.3,196"/>
				<path id="path418_1_" class="st7" d="M1431.5,238.5c1.2,0,2.2-1,2.2-2.2s-1-2.2-2.2-2.2s-2.2,1-2.2,2.2
					C1429.3,237.6,1430.3,238.5,1431.5,238.5"/>
				<path id="path420_1_" class="st7" d="M1567.1,237.5c1.2,0,2.2-1,2.2-2.2s-1-2.2-2.2-2.2s-2.2,1-2.2,2.2
					S1565.9,237.5,1567.1,237.5"/>
				<path id="path422_1_" class="st7" d="M1660.7,263.6c1.2,0,2.2-1,2.2-2.2s-1-2.2-2.2-2.2s-2.2,1-2.2,2.2
					C1658.6,262.6,1659.5,263.6,1660.7,263.6"/>
				<path id="path424_1_" class="st7" d="M1790.6,252.5c1.2,0,2.2-1,2.2-2.2s-1-2.2-2.2-2.2s-2.2,1-2.2,2.2
					C1788.5,251.5,1789.5,252.5,1790.6,252.5"/>
			</g>
			<g>
				<g>
					<g>
						<g>
							<path class="st8" d="M1429.9,361.7c0,0,4.4-2.5,8.7,8.4c4.4,11,5.8,17.2,5.8,17.2s1.2,2.3,2.7,1c1.6-1.3,3.8-5.2,6.2-4.3
								c2.4,1,3.1,4,2.3,8.4c-0.8,4.4-2.3,13.9-2.4,14.7c-0.1,0.9,0.3,2.2,1.5,1.4c1.2-0.8,8.3-7.8,11.3-4.1
								c3.1,3.8-1.1,15.4-1.6,16.7c-0.4,1.2-0.3,1.8,0.3,2.2c0.5,0.3,2.7-2.2,4.8-4.1c2.1-1.9,4.8-3.8,6.4-1.5s1.5,11.3-7.8,25.2
								l-4.7,6.2l-7.4-1c-15.8-3.2-21.8-9.7-22.2-12.5c-0.4-2.8,2.8-3.5,5.6-3.6c2.8-0.2,6.1,0.2,6.2-0.5c0.2-0.7-0.1-1.2-1.2-1.8
								c-1.1-0.6-11.9-6-12.2-10.8c-0.3-4.8,9.4-4.9,10.8-5.3s0.8-1.6,0.1-2.1s-8-6.4-11.5-8.9s-5.1-5.1-3.8-7.7
								c1.1-2.4,5.3-1.2,7.3-1.5c2-0.2,1.3-2.7,1.3-2.7s-3.1-5.6-7.2-16.6s0.9-12.4,0.9-12.4"/>
						</g>
					</g>
				</g>
				<g>
					<g>
						<g>
							<g>
								<path class="st9" d="M1463.2,447.5c-3.1-8.1-7.4-19.2-12.1-31.4c-4.8-12.2-9.2-23.4-12.2-31.4c-1.6-4-2.8-7.2-3.7-9.5
									c-0.4-1.1-0.8-1.9-1-2.5c-0.1-0.3-0.2-0.5-0.3-0.6c-0.1-0.2-0.1-0.2-0.1-0.2s0,0.1,0.1,0.3c0.1,0.2,0.2,0.4,0.3,0.7
									c0.2,0.6,0.5,1.5,1,2.6c0.9,2.3,2.1,5.6,3.6,9.6c3.1,8.1,7.4,19.2,12.1,31.4c4.8,12.2,9.2,23.4,12.2,31.4"/>
							</g>
						</g>
					</g>
				</g>
				<g>
					<g>
						<g>
							<g>
								<path class="st9" d="M1450.4,389.6c0,0-0.1,0.2-0.3,0.5c-0.2,0.3-0.3,0.8-0.5,1.5c-0.4,1.2-1,2.9-1.6,4.8
									c-0.5,1.8-1,3.5-1.5,4.8c-0.2,0.5-0.3,1-0.4,1.5c-0.1,0.3-0.2,0.5-0.2,0.5s0.1-0.2,0.3-0.5c0.2-0.3,0.3-0.8,0.5-1.5
									c0.4-1.2,1-2.9,1.6-4.8c0.5-1.8,1.1-3.5,1.5-4.8c0.2-0.5,0.3-1,0.4-1.5C1450.4,389.8,1450.4,389.6,1450.4,389.6z"/>
							</g>
						</g>
					</g>
				</g>
				<g>
					<g>
						<g>
							<g>
								<path class="st9" d="M1445.4,403.3c0-0.1-3.2-1.4-7.4-3.1c-4.1-1.6-7.4-2.9-7.5-2.8c0,0.1,3.2,1.4,7.4,3.1
									C1442,402.2,1445.3,403.4,1445.4,403.3z"/>
							</g>
						</g>
					</g>
				</g>
				<g>
					<g>
						<g>
							<g>
								<path class="st9" d="M1453.5,421.8c0,0-0.2-0.1-0.5-0.1c-0.4-0.1-0.9-0.1-1.5-0.1c-1.2-0.1-3.1-0.3-4.9-0.5
									c-1.9-0.3-3.7-0.5-4.9-0.7c-0.6-0.1-1-0.2-1.5-0.3c-0.3-0.1-0.5-0.1-0.5-0.1s0.2,0.1,0.5,0.2s0.9,0.2,1.5,0.3
									c1.2,0.3,3,0.5,4.9,0.8s3.7,0.3,5,0.4c0.6,0,1.1,0.1,1.5,0.1C1453.3,421.8,1453.5,421.8,1453.5,421.8z"/>
							</g>
						</g>
					</g>
				</g>
				<g>
					<g>
						<g>
							<g>
								<path class="st9" d="M1460.7,410.4c0,0-0.2,0.2-0.3,0.4s-0.5,0.6-0.8,1.1c-0.7,1-1.6,2.4-2.6,3.9c-1,1.6-1.9,3-2.5,3.9
									c-0.3,0.5-0.6,1-0.8,1.2c-0.2,0.3-0.3,0.4-0.3,0.4s0.2-0.2,0.3-0.4c0.2-0.3,0.5-0.6,0.8-1.1c0.7-1,1.6-2.4,2.6-3.9
									c1-1.6,1.9-3,2.5-3.9c0.3-0.5,0.6-1,0.8-1.2C1460.6,410.6,1460.7,410.4,1460.7,410.4z"/>
							</g>
						</g>
					</g>
				</g>
				<g>
					<g>
						<g>
							<g>
								<path class="st9" d="M1469.9,425.8c0,0-0.2,0.2-0.4,0.5c-0.3,0.4-0.6,0.9-1,1.5c-0.9,1.2-2.1,3.1-3.4,5.1
									c-1.3,1.9-2.5,3.8-3.3,5.1c-0.4,0.6-0.7,1.1-1,1.6c-0.3,0.3-0.3,0.6-0.3,0.6s0.2-0.2,0.4-0.5c0.3-0.4,0.6-0.9,1-1.5
									c0.9-1.2,2.1-3.1,3.4-5.1c1.3-1.9,2.5-3.8,3.3-5.1c0.4-0.6,0.7-1.1,1-1.6C1469.8,426,1469.9,425.8,1469.9,425.8z"/>
							</g>
						</g>
					</g>
				</g>
				<g>
					<g>
						<g>
							<g>
								<path class="st9" d="M1460.5,439.7c0,0-0.3-0.1-0.7-0.1c-0.5-0.1-1.1-0.2-1.9-0.2c-1.6-0.2-3.8-0.4-6.2-0.9
									c-2.4-0.3-4.6-0.8-6.2-1c-0.8-0.2-1.4-0.3-1.8-0.3c-0.4-0.1-0.7-0.1-0.7-0.1s0.3,0.1,0.6,0.2c0.4,0.1,1,0.3,1.8,0.4
									c1.6,0.3,3.8,0.8,6.2,1.1s4.7,0.6,6.3,0.8c0.8,0.1,1.5,0.1,1.9,0.2C1460.3,439.7,1460.5,439.7,1460.5,439.7z"/>
							</g>
						</g>
					</g>
				</g>
			</g>
			<g class="st10">
				<g>
					<g>
						<g>
							<path class="st11" d="M1450.2,351.6c0,0.1,0.6,0.2,1.4,0.2s1.4-0.1,1.4-0.2s-0.6-0.2-1.4-0.2
								C1450.8,351.5,1450.2,351.5,1450.2,351.6z"/>
						</g>
					</g>
				</g>
				<g>
					<g>
						<g>
							<path class="st11" d="M1444.5,351.6c0,0.1,0.6,0.2,1.4,0.2s1.4-0.1,1.4-0.2s-0.6-0.2-1.4-0.2
								C1445.1,351.5,1444.5,351.5,1444.5,351.6z"/>
						</g>
					</g>
				</g>
				<g>
					<g>
						<g>
							<path class="st11" d="M1438.8,351.6c0,0.1,0.6,0.2,1.4,0.2s1.4-0.1,1.4-0.2s-0.6-0.2-1.4-0.2S1438.8,351.5,1438.8,351.6z"/>
						</g>
					</g>
				</g>
				<g>
					<g>
						<g>
							<path class="st11" d="M1433.1,351.6c0,0.1,0.6,0.2,1.4,0.2s1.4-0.1,1.4-0.2s-0.6-0.2-1.4-0.2
								C1433.8,351.5,1433.1,351.5,1433.1,351.6z"/>
						</g>
					</g>
				</g>
				<g>
					<g>
						<g>
							<path class="st11" d="M1427.5,351.6c0,0.1,0.6,0.2,1.4,0.2s1.4-0.1,1.4-0.2s-0.6-0.2-1.4-0.2S1427.5,351.5,1427.5,351.6z"/>
						</g>
					</g>
				</g>
				<g>
					<g>
						<g>
							<path class="st11" d="M1421.8,351.6c0,0.1,0.6,0.2,1.4,0.2s1.4-0.1,1.4-0.2s-0.6-0.2-1.4-0.2
								C1422.4,351.5,1421.8,351.5,1421.8,351.6z"/>
						</g>
					</g>
				</g>
				<g>
					<g>
						<g>
							<path class="st11" d="M1416.1,351.6c0,0.1,0.6,0.2,1.4,0.2s1.4-0.1,1.4-0.2s-0.6-0.2-1.4-0.2S1416.1,351.5,1416.1,351.6z"/>
						</g>
					</g>
				</g>
				<g>
					<g>
						<g>
							<path class="st11" d="M1410.5,351.6c0,0.1,0.6,0.2,1.4,0.2s1.4-0.1,1.4-0.2s-0.6-0.2-1.4-0.2S1410.5,351.5,1410.5,351.6z"/>
						</g>
					</g>
				</g>
				<g>
					<g>
						<g>
							<path class="st11" d="M1404.9,351.6c0,0.1,0.6,0.2,1.4,0.2s1.4-0.1,1.4-0.2s-0.6-0.2-1.4-0.2
								C1405.5,351.5,1404.9,351.5,1404.9,351.6z"/>
						</g>
					</g>
				</g>
				<g>
					<g>
						<g>
							<path class="st11" d="M1399.2,351.6c0,0.1,0.6,0.2,1.4,0.2s1.4-0.1,1.4-0.2s-0.6-0.2-1.4-0.2
								C1399.8,351.5,1399.2,351.5,1399.2,351.6z"/>
						</g>
					</g>
				</g>
				<g>
					<g>
						<g>
							<path class="st11" d="M1393.6,351.6c0,0.1,0.6,0.2,1.4,0.2s1.4-0.1,1.4-0.2s-0.6-0.2-1.4-0.2
								C1394.2,351.5,1393.6,351.5,1393.6,351.6z"/>
						</g>
					</g>
				</g>
				<g>
					<g>
						<g>
							<path class="st11" d="M1387.9,351.6c0,0.1,0.6,0.2,1.4,0.2s1.4-0.1,1.4-0.2s-0.6-0.2-1.4-0.2
								C1388.5,351.5,1387.9,351.5,1387.9,351.6z"/>
						</g>
					</g>
				</g>
				<g>
					<g>
						<g>
							<path class="st11" d="M1382.2,351.6c0,0.1,0.6,0.2,1.4,0.2s1.4-0.1,1.4-0.2s-0.6-0.2-1.4-0.2
								C1382.8,351.5,1382.2,351.5,1382.2,351.6z"/>
						</g>
					</g>
				</g>
				<g>
					<g>
						<g>
							<path class="st11" d="M1376.5,351.6c0,0.1,0.6,0.2,1.4,0.2s1.4-0.1,1.4-0.2s-0.6-0.2-1.4-0.2
								C1377.2,351.5,1376.5,351.5,1376.5,351.6z"/>
						</g>
					</g>
				</g>
				<g>
					<g>
						<g>
							<path class="st11" d="M1370.9,351.6c0,0.1,0.6,0.2,1.4,0.2s1.4-0.1,1.4-0.2s-0.6-0.2-1.4-0.2
								C1371.6,351.5,1370.9,351.5,1370.9,351.6z"/>
						</g>
					</g>
				</g>
				<g>
					<g>
						<g>
							<path class="st11" d="M1365.2,351.6c0,0.1,0.6,0.2,1.4,0.2s1.4-0.1,1.4-0.2s-0.6-0.2-1.4-0.2S1365.2,351.5,1365.2,351.6z"/>
						</g>
					</g>
				</g>
				<g>
					<g>
						<g>
							<path class="st11" d="M1359.5,351.6c0,0.1,0.6,0.2,1.4,0.2s1.4-0.1,1.4-0.2s-0.6-0.2-1.4-0.2
								C1360.2,351.5,1359.5,351.5,1359.5,351.6z"/>
						</g>
					</g>
				</g>
				<g>
					<g>
						<g>
							<path class="st11" d="M1353.9,351.6c0,0.1,0.6,0.2,1.4,0.2s1.4-0.1,1.4-0.2s-0.6-0.2-1.4-0.2
								C1354.5,351.5,1353.9,351.5,1353.9,351.6z"/>
						</g>
					</g>
				</g>
				<g>
					<g>
						<g>
							<path class="st11" d="M1348.2,351.6c0,0.1,0.6,0.2,1.4,0.2s1.4-0.1,1.4-0.2s-0.6-0.2-1.4-0.2
								C1348.9,351.5,1348.2,351.5,1348.2,351.6z"/>
						</g>
					</g>
				</g>
				<g>
					<g>
						<g>
							<path class="st11" d="M1342.6,351.6c0,0.1,0.6,0.2,1.4,0.2s1.4-0.1,1.4-0.2s-0.6-0.2-1.4-0.2
								C1343.2,351.5,1342.6,351.5,1342.6,351.6z"/>
						</g>
					</g>
				</g>
				<g>
					<g>
						<g>
							<path class="st11" d="M1337,351.6c0,0.1,0.6,0.2,1.4,0.2s1.4-0.1,1.4-0.2s-0.6-0.2-1.4-0.2
								C1337.6,351.5,1337,351.5,1337,351.6z"/>
						</g>
					</g>
				</g>
				<g>
					<g>
						<g>
							<path class="st11" d="M1331.3,351.6c0,0.1,0.6,0.2,1.4,0.2s1.4-0.1,1.4-0.2s-0.6-0.2-1.4-0.2
								C1331.9,351.5,1331.3,351.5,1331.3,351.6z"/>
						</g>
					</g>
				</g>
				<g>
					<g>
						<g>
							<path class="st11" d="M1325.6,351.6c0,0.1,0.6,0.2,1.4,0.2s1.4-0.1,1.4-0.2s-0.6-0.2-1.4-0.2
								C1326.2,351.5,1325.6,351.5,1325.6,351.6z"/>
						</g>
					</g>
				</g>
				<g>
					<g>
						<g>
							<path class="st11" d="M1324.2,356.1c0.1,0,0.2-0.6,0.2-1.5c0-0.8-0.1-1.5-0.2-1.5s-0.2,0.6-0.2,1.5
								C1324,355.4,1324.1,356.1,1324.2,356.1z"/>
						</g>
					</g>
				</g>
				<g>
					<g>
						<g>
							<path class="st11" d="M1324.2,362c0.1,0,0.2-0.6,0.2-1.5c0-0.8-0.1-1.5-0.2-1.5s-0.2,0.6-0.2,1.5
								C1324,361.3,1324.1,362,1324.2,362z"/>
						</g>
					</g>
				</g>
				<g>
					<g>
						<g>
							<path class="st11" d="M1324.2,367.9c0.1,0,0.2-0.6,0.2-1.5c0-0.8-0.1-1.5-0.2-1.5s-0.2,0.6-0.2,1.5
								C1324,367.2,1324.1,367.9,1324.2,367.9z"/>
						</g>
					</g>
				</g>
				<g>
					<g>
						<g>
							<path class="st11" d="M1324.2,374c0.1,0,0.2-0.6,0.2-1.5c0-0.8-0.1-1.5-0.2-1.5s-0.2,0.6-0.2,1.5
								C1324,373.3,1324.1,374,1324.2,374z"/>
						</g>
					</g>
				</g>
				<g>
					<g>
						<g>
							<path class="st11" d="M1324.2,379.9c0.1,0,0.2-0.6,0.2-1.5c0-0.8-0.1-1.5-0.2-1.5s-0.2,0.6-0.2,1.5
								C1324,379.1,1324.1,379.9,1324.2,379.9z"/>
						</g>
					</g>
				</g>
				<g>
					<g>
						<g>
							<path class="st11" d="M1323.1,384.7c0,0.1,0.4,0.2,1.1,0.2h0.2v-0.2c0-0.1,0-0.2,0-0.3c0-0.8-0.1-1.5-0.2-1.5
								s-0.2,0.6-0.2,1.5c0,0.1,0,0.2,0,0.3l0.2-0.2C1323.5,384.5,1323.1,384.6,1323.1,384.7z"/>
						</g>
					</g>
				</g>
				<g>
					<g>
						<g>
							<path class="st11" d="M1317.4,384.7c0,0.1,0.6,0.2,1.4,0.2s1.4-0.1,1.4-0.2s-0.6-0.2-1.4-0.2S1317.4,384.6,1317.4,384.7z"/>
						</g>
					</g>
				</g>
				<g>
					<g>
						<g>
							<path class="st11" d="M1311.7,384.7c0,0.1,0.6,0.2,1.4,0.2s1.4-0.1,1.4-0.2s-0.6-0.2-1.4-0.2S1311.7,384.6,1311.7,384.7z"/>
						</g>
					</g>
				</g>
				<g>
					<g>
						<g>
							<path class="st11" d="M1306.1,384.7c0,0.1,0.6,0.2,1.4,0.2s1.4-0.1,1.4-0.2s-0.6-0.2-1.4-0.2
								C1306.7,384.5,1306.1,384.6,1306.1,384.7z"/>
						</g>
					</g>
				</g>
				<g>
					<g>
						<g>
							<path class="st11" d="M1300.4,384.7c0,0.1,0.6,0.2,1.4,0.2s1.4-0.1,1.4-0.2s-0.6-0.2-1.4-0.2S1300.4,384.6,1300.4,384.7z"/>
						</g>
					</g>
				</g>
				<g>
					<g>
						<g>
							<path class="st11" d="M1294.7,384.7c0,0.1,0.6,0.2,1.4,0.2s1.4-0.1,1.4-0.2s-0.6-0.2-1.4-0.2
								C1295.4,384.5,1294.7,384.6,1294.7,384.7z"/>
						</g>
					</g>
				</g>
				<g>
					<g>
						<g>
							<path class="st11" d="M1289.1,384.7c0,0.1,0.6,0.2,1.4,0.2s1.4-0.1,1.4-0.2s-0.6-0.2-1.4-0.2
								C1289.8,384.5,1289.1,384.6,1289.1,384.7z"/>
						</g>
					</g>
				</g>
				<g>
					<g>
						<g>
							<path class="st11" d="M1283.5,384.7c0,0.1,0.6,0.2,1.4,0.2s1.4-0.1,1.4-0.2s-0.6-0.2-1.4-0.2S1283.5,384.6,1283.5,384.7z"/>
						</g>
					</g>
				</g>
				<g>
					<g>
						<g>
							<path class="st11" d="M1277.8,384.7c0,0.1,0.6,0.2,1.4,0.2s1.4-0.1,1.4-0.2s-0.6-0.2-1.4-0.2S1277.8,384.6,1277.8,384.7z"/>
						</g>
					</g>
				</g>
				<g>
					<g>
						<g>
							<path class="st11" d="M1275.6,388.3c0.1,0,0.2-0.6,0.2-1.5c0-0.8-0.1-1.5-0.2-1.5s-0.2,0.6-0.2,1.5
								C1275.5,387.6,1275.5,388.3,1275.6,388.3z"/>
						</g>
					</g>
				</g>
				<g>
					<g>
						<g>
							<path class="st11" d="M1275.6,394.3c0.1,0,0.2-0.6,0.2-1.5c0-0.8-0.1-1.5-0.2-1.5s-0.2,0.6-0.2,1.5
								C1275.5,393.6,1275.5,394.3,1275.6,394.3z"/>
						</g>
					</g>
				</g>
				<g>
					<g>
						<g>
							<path class="st11" d="M1275.6,400.2c0.1,0,0.2-0.6,0.2-1.5c0-0.8-0.1-1.5-0.2-1.5s-0.2,0.6-0.2,1.5
								C1275.5,399.5,1275.5,400.2,1275.6,400.2z"/>
						</g>
					</g>
				</g>
				<g>
					<g>
						<g>
							<path class="st11" d="M1275.6,406.1c0.1,0,0.2-0.6,0.2-1.5c0-0.8-0.1-1.5-0.2-1.5s-0.2,0.6-0.2,1.5
								C1275.5,405.4,1275.5,406.1,1275.6,406.1z"/>
						</g>
					</g>
				</g>
				<g>
					<g>
						<g>
							<path class="st11" d="M1275.6,412.2c0.1,0,0.2-0.6,0.2-1.5c0-0.8-0.1-1.5-0.2-1.5s-0.2,0.6-0.2,1.5
								C1275.5,411.5,1275.5,412.2,1275.6,412.2z"/>
						</g>
					</g>
				</g>
				<g>
					<g>
						<g>
							<path class="st11" d="M1275.6,418.1c0.1,0,0.2-0.6,0.2-1.5c0-0.8-0.1-1.5-0.2-1.5s-0.2,0.6-0.2,1.5
								C1275.5,417.4,1275.5,418.1,1275.6,418.1z"/>
						</g>
					</g>
				</g>
				<g>
					<g>
						<g>
							<path class="st11" d="M1275.6,424c0.1,0,0.2-0.6,0.2-1.5c0-0.8-0.1-1.5-0.2-1.5s-0.2,0.6-0.2,1.5
								C1275.5,423.4,1275.5,424,1275.6,424z"/>
						</g>
					</g>
				</g>
				<g>
					<g>
						<g>
							<path class="st11" d="M1275.6,429.9c0.1,0,0.2-0.6,0.2-1.5c0-0.8-0.1-1.5-0.2-1.5s-0.2,0.6-0.2,1.5
								C1275.5,429.3,1275.5,429.9,1275.6,429.9z"/>
						</g>
					</g>
				</g>
				<g>
					<g>
						<g>
							<path class="st11" d="M1275.6,436c0.1,0,0.2-0.6,0.2-1.5c0-0.8-0.1-1.5-0.2-1.5s-0.2,0.6-0.2,1.5
								C1275.5,435.3,1275.5,436,1275.6,436z"/>
						</g>
					</g>
				</g>
				<g>
					<g>
						<g>
							<path class="st11" d="M1275.6,441.9c0.1,0,0.2-0.6,0.2-1.5c0-0.8-0.1-1.5-0.2-1.5s-0.2,0.6-0.2,1.5
								C1275.5,441.3,1275.5,441.9,1275.6,441.9z"/>
						</g>
					</g>
				</g>
				<g>
					<g>
						<g>
							<path class="st11" d="M1275.6,447.8c0.1,0,0.2-0.6,0.2-1.5c0-0.8-0.1-1.5-0.2-1.5s-0.2,0.6-0.2,1.5
								C1275.5,447.2,1275.5,447.8,1275.6,447.8z"/>
						</g>
					</g>
				</g>
			</g>
			<g>
				<g>
					<g>
						<path class="st12" d="M1265.3,462.4c0-12.8,11.1-23,23.7-20.5c8,1.6,14.3,8.5,15.7,16.8c0.9,5.2-0.2,10.2-2.4,14.3l0,0
							l-0.1,0.1c-0.8,1.4-1.7,2.3-2.7,3.8L1288,493c-1.5,2-4.4,2-5.8,0l-11.4-15.9c0,0-2.1-2.7-2.9-4l-0.1-0.1l0,0
							C1266.2,469.8,1265.3,466.2,1265.3,462.4z M1285.1,471.5c4.8,0,8.8-4.1,8.8-9.2s-3.9-9.2-8.8-9.2c-4.8,0-8.8,4.1-8.8,9.2
							C1276.4,467.4,1280.3,471.5,1285.1,471.5z"/>
					</g>
				</g>
			</g>
			<g>
				<g class="st13">
					<g>
						<path class="st11" d="M1410.7,402.6v24.6c0,0.5-0.4,1-0.9,1h-49c-0.5,0-0.9-0.4-0.9-1l0.1-9.1c0-0.2,0.1-0.4,0.2-0.5l7.1-9.9
							c0.2-0.3,0.4-0.4,0.7-0.4l8.1-0.1c0.5,0,0.9-0.4,0.9-1v-3.8c0-0.5,0.4-1,0.9-1h32C1410.4,401.8,1410.7,402.1,1410.7,402.6z"/>
					</g>
				</g>
				<g>
					<g>
						<path class="st8" d="M1374.6,409.4v7.8c0,0.3-0.3,0.5-0.5,0.5l-10.8-0.2c-0.4,0-0.6-0.5-0.4-0.9l5.1-7.8
							c0.1-0.2,0.3-0.3,0.4-0.3l5.8,0.2C1374.5,408.9,1374.6,409.2,1374.6,409.4z"/>
					</g>
				</g>
				<g>
					<g>
						<ellipse class="st8" cx="1399.5" cy="429.6" rx="5.2" ry="5.5"/>
					</g>
				</g>
				<g>
					<g>
						<path class="st12" d="M1396.4,429.6c0,1.7,1.4,3.2,3.1,3.2s3.1-1.5,3.1-3.2s-1.4-3.2-3.1-3.2
							C1397.7,426.4,1396.4,427.8,1396.4,429.6z"/>
					</g>
				</g>
				<g>
					<g>
						<g>
							<path class="st8" d="M1377,428.3c0.2,0,0.3-6,0.3-13.3s-0.1-13.3-0.3-13.3c-0.2,0-0.3,6-0.3,13.3
								C1376.8,422.4,1376.9,428.3,1377,428.3z"/>
						</g>
					</g>
				</g>
				<g>
					<g>
						<g>
							<ellipse class="st8" cx="1371.1" cy="429.6" rx="5.2" ry="5.5"/>
						</g>
					</g>
					<g>
						<g>
							<path class="st14" d="M1367.9,429.6c0,1.7,1.4,3.2,3.1,3.2s3.1-1.5,3.1-3.2s-1.4-3.2-3.1-3.2S1367.9,427.8,1367.9,429.6z"/>
						</g>
					</g>
				</g>
				<g>
					<g>
						<g>
							<path class="st8" d="M1371,419.5c0,0.2,0.8,0.3,1.7,0.3c0.9,0,1.7-0.1,1.7-0.3s-0.8-0.3-1.7-0.3
								C1371.7,419.2,1371,419.4,1371,419.5z"/>
						</g>
					</g>
				</g>
			</g>
		</g>
	</g>
	<g>
		<path id="path378" class="st15" d="M1704.4,376.6h-95.7c-1.3,0-2.4-1.1-2.4-2.4v-92.7c0-1.3,1.1-2.4,2.4-2.4h95.7
			c1.3,0,2.4,1.1,2.4,2.4v92.7C1706.8,375.5,1705.8,376.6,1704.4,376.6"/>
		<path id="path380" class="st16" d="M1700.3,372.4h-87.4c-1.2,0-2.2-1-2.2-2.2v-84.7c0-1.2,1-2.2,2.2-2.2h87.4c1.2,0,2.2,1,2.2,2.2
			v84.7C1702.5,371.4,1701.5,372.4,1700.3,372.4"/>
		<path id="path382" class="st17" d="M1654.5,292.2c0-1.1,0.9-2.1,2.1-2.1s2.1,0.9,2.1,2.1s-0.9,2.1-2.1,2.1
			C1655.4,294.3,1654.5,293.4,1654.5,292.2"/>
		<path id="path384" class="st17" d="M1671.3,295.2c0.6-1,1.8-1.4,2.8-0.8s1.4,1.8,0.8,2.8s-1.8,1.4-2.8,0.8
			C1671.1,297.4,1670.7,296.2,1671.3,295.2"/>
		<path id="path386" class="st17" d="M1685.7,306.6c1-0.6,2.3-0.3,2.9,0.6c0.6,1,0.3,2.3-0.6,2.9c-1,0.6-2.3,0.3-2.9-0.6
			C1684.5,308.5,1684.7,307.2,1685.7,306.6"/>
		<path id="path388" class="st17" d="M1692.8,324.3c1.1,0,2.1,0.9,2.1,2.1s-0.9,2.1-2.1,2.1s-2.1-0.9-2.1-2.1
			C1690.7,325.2,1691.7,324.3,1692.8,324.3"/>
		<path id="path390" class="st17" d="M1689.2,344.8c0.8,0.8,0.8,2.1,0,2.9s-2.1,0.8-2.9,0s-0.8-2.1,0-2.9S1688.4,344,1689.2,344.8"
			/>
		<path id="path392" class="st17" d="M1676.1,358c0.8,0.8,0.8,2.1,0,2.9s-2.1,0.8-2.9,0s-0.8-2.1,0-2.9
			C1674,357.1,1675.3,357.1,1676.1,358"/>
		<path id="path394" class="st17" d="M1654.5,364.7c0-1.1,0.9-2.1,2.1-2.1s2.1,0.9,2.1,2.1s-0.9,2.1-2.1,2.1
			C1655.4,366.8,1654.5,365.9,1654.5,364.7"/>
		<path id="path396" class="st17" d="M1641.8,295.2c-0.6-1-1.8-1.4-2.8-0.8s-1.4,1.8-0.8,2.8s1.8,1.4,2.8,0.8
			S1642.3,296.2,1641.8,295.2"/>
		<path id="path398" class="st17" d="M1627.4,306.6c-1-0.6-2.3-0.3-2.9,0.6c-0.6,1-0.3,2.3,0.6,2.9c1,0.6,2.3,0.3,2.9-0.6
			C1628.6,308.5,1628.3,307.2,1627.4,306.6"/>
		<path id="path400" class="st17" d="M1620.2,324.3c-1.1,0-2.1,0.9-2.1,2.1s0.9,2.1,2.1,2.1s2.1-0.9,2.1-2.1
			C1622.3,325.2,1621.4,324.3,1620.2,324.3"/>
		<path id="path402" class="st17" d="M1623.9,344.8c-0.8,0.8-0.8,2.1,0,2.9s2.1,0.8,2.9,0s0.8-2.1,0-2.9S1624.7,344,1623.9,344.8"/>
		<path id="path404" class="st17" d="M1637,358c-0.8,0.8-0.8,2.1,0,2.9s2.1,0.8,2.9,0s0.8-2.1,0-2.9
			C1639.1,357.1,1637.8,357.1,1637,358"/>
		<path id="path406" class="st17" d="M1656,326.4c0-1.1,0.9-2.1,2.1-2.1s2.1,0.9,2.1,2.1s-0.9,2.1-2.1,2.1S1656,327.5,1656,326.4"/>
		<path id="path408" class="st17" d="M1658.4,326.4h-0.6v-26h0.6V326.4"/>
		<path id="path410" class="st17" d="M1658.4,327l-1.1-1.3l13.8-10.8l1.1,1.3L1658.4,327"/>
		<path id="path412" class="st18" d="M1897.4,627.9h-627.3c-0.1,0-0.2-0.1-0.2-0.2v-5.1c0-0.1,0.1-0.2,0.2-0.2h627.3
			c0.1,0,0.2,0.1,0.2,0.2v5.1C1897.6,627.8,1897.5,627.9,1897.4,627.9"/>
		<path id="path414" class="st19" d="M1297,478.5h-9.3L1299,622h22.5L1297,478.5"/>
		<path id="path416" class="st20" d="M1481.2,436.6l-2,0.4c-8.9,1.8-17.6-4-19.3-12.8l-2.1-10.4c-1.8-8.9,4-17.6,12.8-19.3l2-0.4
			c8.9-1.8,17.6,4,19.3,12.8l2.1,10.4C1495.8,426.1,1490,434.8,1481.2,436.6"/>
		<path id="path418" class="st19" d="M1287.8,478.5c0,0,50.6-23.7,119.9-7.9l-110.6,7.9H1287.8"/>
		<g id="g420">
			<g>
				<g>
					<g>
						<defs>
							<path id="SVGID_2_" d="M1321.6,623.4L1297,478.5c0,0,77.5-26,137.6,0l35.8,144L1321.6,623.4z"/>
						</defs>
						<clipPath id="SVGID_3_">
							<use xlink:href="#SVGID_2_"  style="overflow:visible;"/>
						</clipPath>
						<g id="g422" class="st21">
							
								<linearGradient id="path434_1_" gradientUnits="userSpaceOnUse" x1="-0.812" y1="801.96" x2="-0.5827" y2="801.96" gradientTransform="matrix(756.3719 0 0 -756.3719 1911.1732 607125.1875)">
								<stop  offset="0" style="stop-color:#F1CC52"/>
								<stop  offset="1" style="stop-color:#FF6935"/>
							</linearGradient>
							<path id="path434" class="st22" d="M1321.6,623.4L1297,478.5c0,0,77.5-26,137.6,0l35.8,144L1321.6,623.4"/>
						</g>
					</g>
				</g>
			</g>
		</g>
		<path id="path436" class="st23" d="M1857.4,578.5c-1.4,15.7-10.3,20.6-14.2,20.2c-3.9-0.4-26.7-9.1-27.2-5.9
			c-0.5,3.2,13.2,13.6,22.9,14.1c0,0-18.2,20-30.2,14.3c-12.1-5.8-13.1-15-20.6-18.4s-14-3.4-10.8,0.1c3.1,3.5,16.7,6.9,21,14.5
			c1,1.8,2,3.5,2.8,4.9l-25.4-0.1c-8.1-4-14.9-9.5-15.4-15.5c0-0.5-0.1-0.9-0.1-1.3c-0.8-9.2-0.8-9.2-0.8-9.2s-13.1-15.2-6.3-27.9
			c1.1-2.1,2.8-4.1,5.2-6c0,0,12.2-7.4,22.1-6.8c0,0-7.7,12.9-9.8,20.6c-0.8,2.7-0.8,4.8,0.3,5.4c1.3,0.7,3-1.3,4.7-4.4
			c4.3-7.8,9.1-23,9.1-23s7.3-0.7,15.6-0.8c3.7,0,7.7,0,11.2,0.3c3.9,0.3,7.4,1,9.7,2.1c0,0-0.5,0.4-1.3,1.1c-1.2,1-3.2,2.7-5.4,4.7
			c-6.6,5.8-15.1,14-11.9,14.7c2.6,0.6,10.7-4.2,17.9-9c6.7-4.4,12.7-8.9,12.7-8.9S1858.8,562.8,1857.4,578.5"/>
		<path id="path438" class="st19" d="M1844.7,578.9c0,0-70-2.7-85.5,17.3c0,0-3.4,10.2-13.9,19.6l-1.6,4.5c0,0,12.1-12.8,16.5-13.6
			C1760.2,606.7,1753.4,581.9,1844.7,578.9"/>
		<path id="path440" class="st19" d="M1748.3,615.7c-0.6,0.7-1.5,1.6-2.8,2.7l0,0c-0.4,0.4-0.9,0.9-1.3,1.3
			c-0.6,0.7-1.3,1.5-1.9,2.3h-3.3c3.4-4.1,6.3-6.3,6.3-6.3l0,0C1745.6,615.6,1751.6,612,1748.3,615.7"/>
		<path id="path442" class="st24" d="M1682.9,570.2c0,0,28.2-15.8,15.1-37.3c0,0-10.5-13.2-21.8-16.6c0,0,6,32,0,32.8
			s-4.1-36.1-4.1-36.1s-29.7-14.3-41.4-13.2c0,0,18.4,31.3,12.4,30.5s-26.7-32.4-26.7-32.4s-30.5-5.6-35.4,12.4
			c-4.9,18.1,3,27.1,7.5,28.2c4.5,1.1,33.5,0.8,32.8,4.5c-0.8,3.8-20.3,9.8-31.3,6.4c0,0,12,29.7,27.9,28.2
			c15.8-1.5,20.7-11.3,30.5-12c9.8-0.8,16.9,1.9,12,4.5s-21.5,0.9-29.4,7.6c-7.9,6.7-14.3,10.9,0.4,13.9s41,1.1,46.3-10.2
			C1682.9,570.2,1682.9,570.2,1682.9,570.2"/>
		<path id="path444" class="st25" d="M1594.7,516c0,0,79.1,25.6,88.1,54.2c0,0-0.4,12.8,7.5,27.5v5.6c0,0-8.3-19.2-12.8-21.8
			C1677.6,581.5,1695.3,556.6,1594.7,516"/>
		<path id="path446" class="st26" d="M1697.7,622.1h-4.5c-0.1-6.5-0.9-13.9-3.1-19.5l0,0c-0.3-0.7-0.6-1.4-0.9-2l0,0
			c-0.9-1.8-1.6-3.2-2-4.2l0,0c-2.3-5.7,3.2,1.3,3.2,1.3S1697,607.8,1697.7,622.1"/>
		<path id="path448" class="st24" d="M1727.8,548.4c0,0-37.2-20.8-19.9-49.1c0,0,13.9-17.4,28.8-21.8c0,0-7.9,42.2,0,43.2
			s5.5-47.6,5.5-47.6s39.2-18.9,54.6-17.4c0,0-24.3,41.2-16.4,40.2s35.2-42.7,35.2-42.7s40.2-7.4,46.7,16.4s-4,35.7-9.9,37.2
			c-6,1.5-44.2,1-43.2,6c1,5,26.8,12.9,41.2,8.4c0,0-15.9,39.2-36.7,37.2c-20.8-2-27.3-14.9-40.2-15.9c-12.9-1-22.3,2.5-15.9,6
			c6.5,3.5,28.3,1.1,38.7,10c10.4,8.9,18.9,14.3-0.5,18.3s-54.1,1.5-61-13.4C1727.8,548.4,1727.8,548.4,1727.8,548.4"/>
		<path id="path450" class="st27" d="M1843.9,476.9c0,0-104.2,33.8-116.1,71.5c0,0,0.5,16.9-9.9,36.2v7.4c0,0,10.9-25.3,16.9-28.8
			C1734.7,563.3,1711.4,530.5,1843.9,476.9"/>
		<path id="path452" class="st26" d="M1722.1,582.9L1722.1,582.9c-0.5,1.3-1.4,3.1-2.6,5.5l0,0c-0.4,0.8-0.8,1.7-1.2,2.6l0,0
			c-3.6,8.9-4.3,21.3-4.1,31h-6c-0.7-21.7,9.7-37.5,9.7-37.5l0,0C1718,584.4,1725.1,575.5,1722.1,582.9"/>
		<path id="path454" class="st15" d="M1542.5,622.5h-141.6c-2.1-5.1-3.9-10.5-5.5-16.1c-4-14.1-6.7-29.7-8.3-44.9
			c0-0.2,0-0.4-0.1-0.6c-2.9-26.4-2.9-51.9-2.5-67.1c0.2-8.8,0.6-14.3,0.6-14.5l0,0c0.3-0.1,0.6-0.3,0.9-0.4
			c7.5-3.2,14.7-5.9,21.6-8.2h0.1c5.8-2,11.4-3.7,16.8-5.2c9.4-2.6,18.2-4.5,26.4-5.8c9.6-1.5,18.3-2.2,26-2.4c0.4,0,0.7,0,1,0
			c2.1,0,4,0,6,0c19.4,0.4,32.3,4.3,38.8,6.8c0.9,0.4,1.7,0.7,2.3,1c0.1,0,0.2,0.1,0.3,0.1c0.7,0.3,1.3,0.6,1.7,0.8
			c0,0,0.1,0.1,0.2,0.1c0.2,0.1,0.4,0.2,0.6,0.3l10.2,107.3L1542.5,622.5"/>
		<path id="path456" class="st15" d="M1683.5,599.3c-14.2,6.6-98.6,12.1-106.7,9.8c-4.2-1.2-21.6-16.5-39.1-35.4l0,0
			c-16.6-17.8-33.3-38.8-38.9-53.9c-11.6-31-1.6-58.6-1.6-58.6s21.5-0.1,30.3,5.2c8.8,5.3,59,97.7,65.7,100.2s86.2,7,95.3,11.3
			C1688.6,577.8,1697.7,592.7,1683.5,599.3"/>
		<path id="path458" class="st28" d="M1477.8,460.9v5.2c0,0,1.4,16.3-18.7,18.8c-20.1,2.4-35.4-6.3-34.8-18.9
			c1.8-9.8,3.8-16.5,3.9-24.5c0-3-0.2-6.2-0.7-9.8l39-0.8l11.5,1.9L1477.8,460.9"/>
		<path id="path460" class="st29" d="M1477.9,432.7l-0.1,28.3c-4.1,1.9-8.8,3.1-14,3.1c-17.9,0-35.8-28.8-36.3-32.4L1477.9,432.7"/>
		<path id="path462" class="st28" d="M1480.2,446.4c0,0-49.9,10.2-55.8-21s-16.2-50.9,15.4-58.7c31.6-7.8,40.1,2.9,44.6,12.9
			C1488.9,389.5,1493,443,1480.2,446.4"/>
		<path id="path464" class="st30" d="M1494.1,356.4c0,0-13.9-1.1-30.4-8.2c-13.3-5.8-30.1,0.6-35.6,3.5c0.1-0.9,0.5-2.1,1.3-3.3
			c0,0-2.5,1.7-2.8,4.2c-0.3,0.2-0.4,0.3-0.3,0.4c0,0-2.8-0.5-4.6,0.3c0,0,1.3-0.2,1.7,0.6c0,0.1,0.1,0.2,0.2,0.2
			c-20.8,10.1-22.6,42.9-15.9,50.5c8.1,9.1,17.8,29.7,17.8,29.7s3.5-4.9,2-12.9s5.5-8.1,14.3-11.7c8.8-3.7,1.4-13.9,9.1-20.1
			s35.9-2.6,35.5-7.4C1496.8,378.4,1494.1,357.5,1494.1,356.4"/>
		<path id="path466" class="st31" d="M1400.9,622.5c-2.1-5.1-3.9-10.5-5.5-16.1c-4-14.1-6.7-29.7-8.3-44.9c0-0.2,0-0.4-0.1-0.6
			c0.1,0,0.3,0.3,0.4,0.2c5.5-6.7,20.6-14,38.8,12.7c3.6,5.3,19.6,42.6,22.1,48.8h-47.4"/>
		<path id="path468" class="st28" d="M1415.7,622.5c-0.4-2.4,0-5.4,1.9-9.2c0,0,2.3-1.5,5.4-3.3c4.6-2.6,10.9-5.8,13.8-5.3
			c0.5,0.1,1.2,0.2,2,0.4c6.8,1.6,22.6,6.5,25,9.4c2,2.4,4.7,5.3,6.5,7.9L1415.7,622.5"/>
		<path id="path470" class="st15" d="M1426.1,622.5h-133.4c-0.4-1.7-0.4-3.3,0.1-4.5c4-10.1,11.7-26.6,20.7-44.4
			c6.6-13.1,13.8-26.8,20.6-39c9.4-17,18.1-31.3,23.2-37.1c4-4.6,9.1-8.5,14.4-11.6c4.5-2.7,9.1-4.9,13.4-6.7l0,0
			c0.3-0.1,0.6-0.3,0.9-0.4c9.3-3.8,16.7-5.4,16.7-5.4s0.1,4.2,0.1,10.7c0,18.8-0.7,56.7-6.7,65.9c-1.7,2.6-4.8,6.5-8.7,11
			c-0.1,0.1-0.2,0.3-0.3,0.4c-2.1,2.5-4.4,5.1-6.9,7.9c-13.9,15.6-31.6,33.9-33.7,36.1c-0.1,0.1-0.2,0.2-0.2,0.2h0.3l37.4,0.5
			l11.5,0.2l23.8,0.3c1.6,0.7,2.9,1.9,3.9,3.3C1425.3,613.3,1426,618.2,1426.1,622.5"/>
		<path id="path472" class="st31" d="M1683.5,599.3c-14.2,6.6-98.6,12.1-106.7,9.8c-4.2-1.2-21.6-16.5-39.1-35.4
			c0.9,0.1,8.9-13.2,45.4,18.7c0,0,9.6,4.3,35.6,1.9C1644.8,591.9,1678.2,591,1683.5,599.3"/>
		<path id="path474" class="st19" d="M1600.7,622.2h-96.5l0,0c0-4.2,3.4-7.7,7.7-7.7h88.8V622.2"/>
		<path id="path476" class="st19" d="M1600.4,517.1h149.1l-35.8,105h-150.1L1600.4,517.1"/>
		<g id="g478">
			<g>
				<g>
					<g>
						<defs>
							<polygon id="SVGID_4_" points="1751.7,517.1 1715.9,622.2 1565.8,622.2 1602.6,517.1 							"/>
						</defs>
						<clipPath id="SVGID_5_">
							<use xlink:href="#SVGID_4_"  style="overflow:visible;"/>
						</clipPath>
						<g id="g480" class="st32">
							
								<linearGradient id="path492_1_" gradientUnits="userSpaceOnUse" x1="-1.8721" y1="801.93" x2="-1.6429" y2="801.93" gradientTransform="matrix(810.9146 0 0 -810.9146 3083.9465 650866.375)">
								<stop  offset="0" style="stop-color:#F1CC52"/>
								<stop  offset="1" style="stop-color:#FF6935"/>
							</linearGradient>
							<path id="path492" class="st33" d="M1751.7,517.1l-35.8,105.1h-150.1l36.7-105.1H1751.7"/>
						</g>
					</g>
				</g>
			</g>
		</g>
		<path id="path494" class="st0" d="M1671.3,568.7c-0.9,4-4.9,7.3-8.9,7.3s-6.5-3.3-5.6-7.3s4.9-7.3,8.9-7.3
			C1669.7,561.4,1672.2,564.7,1671.3,568.7"/>
		<path id="path496" class="st19" d="M1751.7,517.1l-35.8,105.1h-69.8l83.6-105.1H1751.7"/>
		<path id="path498" class="st20" d="M1439,436.6l-2,0.4c-8.9,1.8-17.6-4-19.3-12.8l-2.1-10.4c-1.8-8.9,4-17.6,12.8-19.3l2-0.4
			c8.9-1.8,17.6,4,19.3,12.8l2.1,10.4C1453.6,426.1,1447.8,434.8,1439,436.6"/>
		<path id="path500" class="st20" d="M1423.5,399.2c-1.3-2.4-3.3-21.7,2-37.1c2.6-7.4,6.7-11.7,11.9-14.6c1.9-1,4-1.6,6.1-1.6
			l5.2,0.1c-17.3,7.3-21.3,46.4-19.9,50.5c0-0.1-0.1-0.2-0.1-0.3L1423.5,399.2"/>
		<path id="path502" class="st20" d="M1473.8,439.8c-29,0-43.3-22.9-43.5-23.1l2.6-1.6l-1.3,0.8l1.3-0.8
			c0.1,0.2,13.6,21.7,40.9,21.7c0.2,0,0.4,0,0.5,0v3C1474.2,439.8,1474,439.8,1473.8,439.8"/>
		<path id="path504" class="st25" d="M1434.3,426.4l-1,0.2c-4.4,0.9-8.7-2-9.6-6.4l-1-5.2c-0.9-4.4,2-8.7,6.4-9.6l1-0.2
			c4.4-0.9,8.7,2,9.6,6.4l1,5.2C1441.6,421.2,1438.7,425.5,1434.3,426.4"/>
		<path id="path506" class="st20" d="M1477.4,440.9h-2.7c-1.4,0-2.5-1.1-2.5-2.5l0,0c0-1.4,1.1-2.5,2.5-2.5h2.7
			c1.4,0,2.5,1.1,2.5,2.5l0,0C1480,439.7,1478.8,440.9,1477.4,440.9"/>
	</g>
</g>
</svg>
