<?xml version="1.0" encoding="utf-8"?>
<!-- Generator: Adobe Illustrator 24.1.1, SVG Export Plug-In . SVG Version: 6.00 Build 0)  -->
<svg version="1.1" id="Layer_1" xmlns="http://www.w3.org/2000/svg" xmlns:xlink="http://www.w3.org/1999/xlink" x="0px" y="0px"
	 viewBox="0 0 1920 800" style="enable-background:new 0 0 1920 800;" xml:space="preserve">
<style type="text/css">
	.st0{fill:#FFFFFF;}
	.st1{fill:url(#SVGID_1_);}
	.st2{fill:#241B52;}
	.st3{fill:#FFDE69;}
	.st4{fill:#522879;}
	.st5{fill:#2E3552;}
	.st6{fill:#E58033;}
	.st7{fill:#122544;}
	.st8{clip-path:url(#SVGID_3_);}
	.st9{fill:url(#path434_1_);}
	.st10{fill:#423191;}
	.st11{fill:#582E60;}
	.st12{fill:#522B73;}
	.st13{fill:#FF753C;}
	.st14{fill:#7545A3;}
	.st15{fill:#EA9E6A;}
	.st16{fill:#D88D59;}
	.st17{fill:#726669;}
	.st18{fill:#161338;}
	.st19{clip-path:url(#SVGID_5_);}
	.st20{fill:url(#path492_1_);}
</style>
<g>
	<rect x="-2.8" y="0.8" class="st0" width="1923" height="796"/>
	
		<linearGradient id="SVGID_1_" gradientUnits="userSpaceOnUse" x1="1033.9001" y1="399.66" x2="1919.7001" y2="399.66" gradientTransform="matrix(1 0 0 1 1 -2.01)">
		<stop  offset="0" style="stop-color:#FAE5E7"/>
		<stop  offset="1" style="stop-color:#ECEEFA"/>
	</linearGradient>
	<path class="st1" d="M1547.3,793.5c0,0,202.4-12.9,372.4-107.5l1-683.2l-885.8-1c0,0,437.2,187.8,185.5,518.2
		c-18.8,24.4-30.7,53.5-34.5,84.1c-8.9,77.6,31.9,194.1,361,189L1547.3,793.5z"/>
	<g>
		<path id="path378" class="st2" d="M1703.4,376.6h-95.7c-1.3,0-2.4-1.1-2.4-2.4v-92.7c0-1.3,1.1-2.4,2.4-2.4h95.7
			c1.3,0,2.4,1.1,2.4,2.4v92.7C1705.8,375.5,1704.8,376.6,1703.4,376.6"/>
		<path id="path380" class="st3" d="M1699.3,372.4h-87.4c-1.2,0-2.2-1-2.2-2.2v-84.7c0-1.2,1-2.2,2.2-2.2h87.4c1.2,0,2.2,1,2.2,2.2
			v84.7C1701.5,371.4,1700.5,372.4,1699.3,372.4"/>
		<path id="path382" class="st4" d="M1653.5,292.2c0-1.1,0.9-2.1,2.1-2.1c1.2,0,2.1,0.9,2.1,2.1c0,1.2-0.9,2.1-2.1,2.1
			C1654.4,294.3,1653.5,293.4,1653.5,292.2"/>
		<path id="path384" class="st4" d="M1670.3,295.2c0.6-1,1.8-1.4,2.8-0.8c1,0.6,1.4,1.8,0.8,2.8s-1.8,1.4-2.8,0.8
			C1670.1,297.4,1669.7,296.2,1670.3,295.2"/>
		<path id="path386" class="st4" d="M1684.7,306.6c1-0.6,2.3-0.3,2.9,0.6c0.6,1,0.3,2.3-0.6,2.9c-1,0.6-2.3,0.3-2.9-0.6
			C1683.5,308.5,1683.7,307.2,1684.7,306.6"/>
		<path id="path388" class="st4" d="M1691.8,324.3c1.1,0,2.1,0.9,2.1,2.1c0,1.2-0.9,2.1-2.1,2.1c-1.2,0-2.1-0.9-2.1-2.1
			C1689.7,325.2,1690.7,324.3,1691.8,324.3"/>
		<path id="path390" class="st4" d="M1688.2,344.8c0.8,0.8,0.8,2.1,0,2.9c-0.8,0.8-2.1,0.8-2.9,0c-0.8-0.8-0.8-2.1,0-2.9
			C1686.1,344,1687.4,344,1688.2,344.8"/>
		<path id="path392" class="st4" d="M1675.1,358c0.8,0.8,0.8,2.1,0,2.9c-0.8,0.8-2.1,0.8-2.9,0c-0.8-0.8-0.8-2.1,0-2.9
			C1673,357.1,1674.3,357.1,1675.1,358"/>
		<path id="path394" class="st4" d="M1653.5,364.7c0-1.1,0.9-2.1,2.1-2.1c1.2,0,2.1,0.9,2.1,2.1c0,1.2-0.9,2.1-2.1,2.1
			C1654.4,366.8,1653.5,365.9,1653.5,364.7"/>
		<path id="path396" class="st4" d="M1640.8,295.2c-0.6-1-1.8-1.4-2.8-0.8c-1,0.6-1.4,1.8-0.8,2.8c0.6,1,1.8,1.4,2.8,0.8
			C1641,297.4,1641.3,296.2,1640.8,295.2"/>
		<path id="path398" class="st4" d="M1626.4,306.6c-1-0.6-2.3-0.3-2.9,0.6c-0.6,1-0.3,2.3,0.6,2.9c1,0.6,2.3,0.3,2.9-0.6
			C1627.6,308.5,1627.3,307.2,1626.4,306.6"/>
		<path id="path400" class="st4" d="M1619.2,324.3c-1.1,0-2.1,0.9-2.1,2.1c0,1.2,0.9,2.1,2.1,2.1s2.1-0.9,2.1-2.1
			C1621.3,325.2,1620.4,324.3,1619.2,324.3"/>
		<path id="path402" class="st4" d="M1622.9,344.8c-0.8,0.8-0.8,2.1,0,2.9c0.8,0.8,2.1,0.8,2.9,0c0.8-0.8,0.8-2.1,0-2.9
			C1625,344,1623.7,344,1622.9,344.8"/>
		<path id="path404" class="st4" d="M1636,358c-0.8,0.8-0.8,2.1,0,2.9c0.8,0.8,2.1,0.8,2.9,0c0.8-0.8,0.8-2.1,0-2.9
			C1638.1,357.1,1636.8,357.1,1636,358"/>
		<path id="path406" class="st4" d="M1655,326.4c0-1.1,0.9-2.1,2.1-2.1c1.2,0,2.1,0.9,2.1,2.1c0,1.2-0.9,2.1-2.1,2.1
			C1655.9,328.5,1655,327.5,1655,326.4"/>
		<path id="path408" class="st4" d="M1657.4,326.4h-0.6v-26h0.6V326.4"/>
		<path id="path410" class="st4" d="M1657.4,327l-1.1-1.3l13.8-10.8l1.1,1.3L1657.4,327"/>
		<path id="path412" class="st5" d="M1896.4,627.9h-627.3c-0.1,0-0.2-0.1-0.2-0.2v-5.1c0-0.1,0.1-0.2,0.2-0.2h627.3
			c0.1,0,0.2,0.1,0.2,0.2v5.1C1896.6,627.8,1896.5,627.9,1896.4,627.9"/>
		<path id="path414" class="st6" d="M1296,478.5h-9.3l11.3,143.5h22.5L1296,478.5"/>
		<path id="path416" class="st7" d="M1480.2,436.6l-2,0.4c-8.9,1.8-17.6-4-19.3-12.8l-2.1-10.4c-1.8-8.9,4-17.6,12.8-19.3l2-0.4
			c8.9-1.8,17.6,4,19.3,12.8l2.1,10.4C1494.8,426.1,1489,434.8,1480.2,436.6"/>
		<path id="path418" class="st6" d="M1286.8,478.5c0,0,50.6-23.7,119.9-7.9l-110.6,7.9H1286.8"/>
		<g id="g420">
			<g>
				<defs>
					<path id="SVGID_2_" d="M1320.6,623.4L1296,478.5c0,0,77.5-26,137.6,0l35.8,144L1320.6,623.4z"/>
				</defs>
				<clipPath id="SVGID_3_">
					<use xlink:href="#SVGID_2_"  style="overflow:visible;"/>
				</clipPath>
				<g id="g422" class="st8">
					
						<linearGradient id="path434_1_" gradientUnits="userSpaceOnUse" x1="-0.8133" y1="801.96" x2="-0.5841" y2="801.96" gradientTransform="matrix(756.3719 0 0 -756.3719 1911.1732 607125.1875)">
						<stop  offset="0" style="stop-color:#F1CC52"/>
						<stop  offset="1" style="stop-color:#FF6935"/>
					</linearGradient>
					<path id="path434" class="st9" d="M1320.6,623.4L1296,478.5c0,0,77.5-26,137.6,0l35.8,144L1320.6,623.4"/>
				</g>
			</g>
		</g>
		<path id="path436" class="st10" d="M1856.4,578.5c-1.4,15.7-10.3,20.6-14.2,20.2c-3.9-0.4-26.7-9.1-27.2-5.9
			c-0.5,3.2,13.2,13.6,22.9,14.1c0,0-18.2,20-30.2,14.3c-12.1-5.8-13.1-15-20.6-18.4c-7.5-3.4-14-3.4-10.8,0.1
			c3.1,3.5,16.7,6.9,21,14.5c1,1.8,2,3.5,2.8,4.9l-25.4-0.1c-8.1-4-14.9-9.5-15.4-15.5c0-0.5-0.1-0.9-0.1-1.3
			c-0.8-9.2-0.8-9.2-0.8-9.2s-13.1-15.2-6.3-27.9c1.1-2.1,2.8-4.1,5.2-6c0,0,12.2-7.4,22.1-6.8c0,0-7.7,12.9-9.8,20.6
			c-0.8,2.7-0.8,4.8,0.3,5.4c1.3,0.7,3-1.3,4.7-4.4c4.3-7.8,9.1-23,9.1-23s7.3-0.7,15.6-0.8c3.7,0,7.7,0,11.2,0.3
			c3.9,0.3,7.4,1,9.7,2.1c0,0-0.5,0.4-1.3,1.1c-1.2,1-3.2,2.7-5.4,4.7c-6.6,5.8-15.1,14-11.9,14.7c2.6,0.6,10.7-4.2,17.9-9
			c6.7-4.4,12.7-8.9,12.7-8.9S1857.8,562.8,1856.4,578.5"/>
		<path id="path438" class="st6" d="M1843.7,578.9c0,0-70-2.7-85.5,17.3c0,0-3.4,10.2-13.9,19.6l-1.6,4.5c0,0,12.1-12.8,16.5-13.6
			C1759.2,606.7,1752.4,581.9,1843.7,578.9"/>
		<path id="path440" class="st6" d="M1747.3,615.7c-0.6,0.7-1.5,1.6-2.8,2.7l0,0c-0.4,0.4-0.9,0.9-1.3,1.3c-0.6,0.7-1.3,1.5-1.9,2.3
			l-3.3,0c3.4-4.1,6.3-6.3,6.3-6.3s0,0,0,0C1744.6,615.6,1750.6,612,1747.3,615.7"/>
		<path id="path442" class="st11" d="M1681.9,570.2c0,0,28.2-15.8,15.1-37.3c0,0-10.5-13.2-21.8-16.6c0,0,6,32,0,32.8
			c-6,0.8-4.1-36.1-4.1-36.1s-29.7-14.3-41.4-13.2c0,0,18.4,31.3,12.4,30.5c-6-0.8-26.7-32.4-26.7-32.4s-30.5-5.6-35.4,12.4
			c-4.9,18.1,3,27.1,7.5,28.2c4.5,1.1,33.5,0.8,32.8,4.5c-0.8,3.8-20.3,9.8-31.3,6.4c0,0,12,29.7,27.9,28.2
			c15.8-1.5,20.7-11.3,30.5-12c9.8-0.8,16.9,1.9,12,4.5c-4.9,2.6-21.5,0.9-29.4,7.6c-7.9,6.7-14.3,10.9,0.4,13.9s41,1.1,46.3-10.2
			C1681.9,570.2,1681.9,570.2,1681.9,570.2"/>
		<path id="path444" class="st12" d="M1593.7,516c0,0,79.1,25.6,88.1,54.2c0,0-0.4,12.8,7.5,27.5v5.6c0,0-8.3-19.2-12.8-21.8
			C1676.6,581.5,1694.3,556.6,1593.7,516"/>
		<path id="path446" class="st13" d="M1696.7,622.1l-4.5,0c-0.1-6.5-0.9-13.9-3.1-19.5c0,0,0,0,0,0c-0.3-0.7-0.6-1.4-0.9-2
			c0,0,0,0,0,0c-0.9-1.8-1.6-3.2-2-4.2l0,0c-2.3-5.7,3.2,1.3,3.2,1.3S1696,607.8,1696.7,622.1"/>
		<path id="path448" class="st11" d="M1726.8,548.4c0,0-37.2-20.8-19.9-49.1c0,0,13.9-17.4,28.8-21.8c0,0-7.9,42.2,0,43.2
			c7.9,1,5.5-47.6,5.5-47.6s39.2-18.9,54.6-17.4c0,0-24.3,41.2-16.4,40.2c7.9-1,35.2-42.7,35.2-42.7s40.2-7.4,46.7,16.4
			c6.5,23.8-4,35.7-9.9,37.2c-6,1.5-44.2,1-43.2,6c1,5,26.8,12.9,41.2,8.4c0,0-15.9,39.2-36.7,37.2c-20.8-2-27.3-14.9-40.2-15.9
			c-12.9-1-22.3,2.5-15.9,6c6.5,3.5,28.3,1.1,38.7,10c10.4,8.9,18.9,14.3-0.5,18.3s-54.1,1.5-61-13.4
			C1726.8,548.4,1726.8,548.4,1726.8,548.4"/>
		<path id="path450" class="st14" d="M1842.9,476.9c0,0-104.2,33.8-116.1,71.5c0,0,0.5,16.9-9.9,36.2v7.4c0,0,10.9-25.3,16.9-28.8
			C1733.7,563.3,1710.4,530.5,1842.9,476.9"/>
		<path id="path452" class="st13" d="M1721.1,582.9C1721.1,582.9,1721.1,582.9,1721.1,582.9c-0.5,1.3-1.4,3.1-2.6,5.5c0,0,0,0,0,0
			c-0.4,0.8-0.8,1.7-1.2,2.6c0,0,0,0,0,0c-3.6,8.9-4.3,21.3-4.1,31l-6,0c-0.7-21.7,9.7-37.5,9.7-37.5s0,0,0,0
			C1717,584.4,1724.1,575.5,1721.1,582.9"/>
		<path id="path454" class="st2" d="M1541.5,622.5h-141.6c-2.1-5.1-3.9-10.5-5.5-16.1c-4-14.1-6.7-29.7-8.3-44.9
			c0-0.2,0-0.4-0.1-0.6c-2.9-26.4-2.9-51.9-2.5-67.1c0.2-8.8,0.6-14.3,0.6-14.5v0c0.3-0.1,0.6-0.3,0.9-0.4
			c7.5-3.2,14.7-5.9,21.6-8.2c0,0,0.1,0,0.1,0c5.8-2,11.4-3.7,16.8-5.2c9.4-2.6,18.2-4.5,26.4-5.8c9.6-1.5,18.3-2.2,26-2.4
			c0.4,0,0.7,0,1,0c2.1,0,4,0,6,0c19.4,0.4,32.3,4.3,38.8,6.8c0.9,0.4,1.7,0.7,2.3,1c0.1,0,0.2,0.1,0.3,0.1c0.7,0.3,1.3,0.6,1.7,0.8
			c0,0,0.1,0.1,0.2,0.1c0.2,0.1,0.4,0.2,0.6,0.3l10.2,107.3L1541.5,622.5"/>
		<path id="path456" class="st2" d="M1682.5,599.3c-14.2,6.6-98.6,12.1-106.7,9.8c-4.2-1.2-21.6-16.5-39.1-35.4c0,0,0,0,0,0
			c-16.6-17.8-33.3-38.8-38.9-53.9c-11.6-31-1.6-58.6-1.6-58.6s21.5-0.1,30.3,5.2c8.8,5.3,59,97.7,65.7,100.2
			c6.7,2.5,86.2,7,95.3,11.3C1687.6,577.8,1696.7,592.7,1682.5,599.3"/>
		<path id="path458" class="st15" d="M1476.8,460.9l0,5.2c0,0,1.4,16.3-18.7,18.8c-20.1,2.4-35.4-6.3-34.8-18.9
			c1.8-9.8,3.8-16.5,3.9-24.5c0-3-0.2-6.2-0.7-9.8l39-0.8l11.5,1.9L1476.8,460.9"/>
		<path id="path460" class="st16" d="M1476.9,432.7l-0.1,28.3c-4.1,1.9-8.8,3.1-14,3.1c-17.9,0-35.8-28.8-36.3-32.4L1476.9,432.7"/>
		<path id="path462" class="st15" d="M1479.2,446.4c0,0-49.9,10.2-55.8-21c-5.9-31.2-16.2-50.9,15.4-58.7
			c31.6-7.8,40.1,2.9,44.6,12.9C1487.9,389.5,1492,443,1479.2,446.4"/>
		<path id="path464" class="st17" d="M1493.1,356.4c0,0-13.9-1.1-30.4-8.2c-13.3-5.8-30.1,0.6-35.6,3.5c0.1-0.9,0.5-2.1,1.3-3.3
			c0,0-2.5,1.7-2.8,4.2c-0.3,0.2-0.4,0.3-0.3,0.4c0,0-2.8-0.5-4.6,0.3c0,0,1.3-0.2,1.7,0.6c0,0.1,0.1,0.2,0.2,0.2
			c-20.8,10.1-22.6,42.9-15.9,50.5c8.1,9.1,17.8,29.7,17.8,29.7s3.5-4.9,2-12.9c-1.5-8,5.5-8.1,14.3-11.7c8.8-3.7,1.4-13.9,9.1-20.1
			c7.7-6.2,35.9-2.6,35.5-7.4C1495.8,378.4,1493.1,357.5,1493.1,356.4"/>
		<path id="path466" class="st18" d="M1399.9,622.5c-2.1-5.1-3.9-10.5-5.5-16.1c-4-14.1-6.7-29.7-8.3-44.9c0-0.2,0-0.4-0.1-0.6
			c0.1,0,0.3,0.3,0.4,0.2c5.5-6.7,20.6-14,38.8,12.7c3.6,5.3,19.6,42.6,22.1,48.8H1399.9"/>
		<path id="path468" class="st15" d="M1414.7,622.5c-0.4-2.4,0-5.4,1.9-9.2c0,0,2.3-1.5,5.4-3.3c4.6-2.6,10.9-5.8,13.8-5.3
			c0.5,0.1,1.2,0.2,2,0.4c6.8,1.6,22.6,6.5,25,9.4c2,2.4,4.7,5.3,6.5,7.9H1414.7"/>
		<path id="path470" class="st2" d="M1425.1,622.5h-133.4c-0.4-1.7-0.4-3.3,0.1-4.5c4-10.1,11.7-26.6,20.7-44.4
			c6.6-13.1,13.8-26.8,20.6-39c9.4-17,18.1-31.3,23.2-37.1c4-4.6,9.1-8.5,14.4-11.6c4.5-2.7,9.1-4.9,13.4-6.7v0
			c0.3-0.1,0.6-0.3,0.9-0.4c9.3-3.8,16.7-5.4,16.7-5.4s0.1,4.2,0.1,10.7c0,18.8-0.7,56.7-6.7,65.9c-1.7,2.6-4.8,6.5-8.7,11
			c-0.1,0.1-0.2,0.3-0.3,0.4c-2.1,2.5-4.4,5.1-6.9,7.9c-13.9,15.6-31.6,33.9-33.7,36.1c-0.1,0.1-0.2,0.2-0.2,0.2h0.3l37.4,0.5
			l11.5,0.2l23.8,0.3c1.6,0.7,2.9,1.9,3.9,3.3C1424.3,613.3,1425,618.2,1425.1,622.5"/>
		<path id="path472" class="st18" d="M1682.5,599.3c-14.2,6.6-98.6,12.1-106.7,9.8c-4.2-1.2-21.6-16.5-39.1-35.4
			c0.9,0.1,8.9-13.2,45.4,18.7c0,0,9.6,4.3,35.6,1.9C1643.8,591.9,1677.2,591,1682.5,599.3"/>
		<path id="path474" class="st6" d="M1599.7,622.2h-96.5l0,0c0-4.2,3.4-7.7,7.7-7.7h88.8V622.2"/>
		<path id="path476" class="st6" d="M1599.4,517.1h149.1l-35.8,105h-150.1L1599.4,517.1"/>
		<g id="g478">
			<g>
				<defs>
					<polygon id="SVGID_4_" points="1750.7,517.1 1714.9,622.2 1564.8,622.2 1601.6,517.1 					"/>
				</defs>
				<clipPath id="SVGID_5_">
					<use xlink:href="#SVGID_4_"  style="overflow:visible;"/>
				</clipPath>
				<g id="g480" class="st19">
					
						<linearGradient id="path492_1_" gradientUnits="userSpaceOnUse" x1="-1.8733" y1="801.9299" x2="-1.6441" y2="801.9299" gradientTransform="matrix(810.9146 0 0 -810.9146 3083.9465 650866.375)">
						<stop  offset="0" style="stop-color:#F1CC52"/>
						<stop  offset="1" style="stop-color:#FF6935"/>
					</linearGradient>
					<path id="path492" class="st20" d="M1750.7,517.1l-35.8,105.1h-150.1l36.7-105.1H1750.7"/>
				</g>
			</g>
		</g>
		<path id="path494" class="st0" d="M1670.3,568.7c-0.9,4-4.9,7.3-8.9,7.3c-4,0-6.5-3.3-5.6-7.3c0.9-4,4.9-7.3,8.9-7.3
			C1668.7,561.4,1671.2,564.7,1670.3,568.7"/>
		<path id="path496" class="st6" d="M1750.7,517.1l-35.8,105.1h-69.8l83.6-105.1H1750.7"/>
		<path id="path498" class="st7" d="M1438,436.6l-2,0.4c-8.9,1.8-17.6-4-19.3-12.8l-2.1-10.4c-1.8-8.9,4-17.6,12.8-19.3l2-0.4
			c8.9-1.8,17.6,4,19.3,12.8l2.1,10.4C1452.6,426.1,1446.8,434.8,1438,436.6"/>
		<path id="path500" class="st7" d="M1422.5,399.2c-1.3-2.4-3.3-21.7,2-37.1c2.6-7.4,6.7-11.7,11.9-14.6c1.9-1,4-1.6,6.1-1.6
			l5.2,0.1c-17.3,7.3-21.3,46.4-19.9,50.5c0-0.1-0.1-0.2-0.1-0.3L1422.5,399.2"/>
		<path id="path502" class="st7" d="M1472.8,439.8c-29,0-43.3-22.9-43.5-23.1l2.6-1.6l-1.3,0.8l1.3-0.8c0.1,0.2,13.6,21.7,40.9,21.7
			c0.2,0,0.4,0,0.5,0l0,3C1473.2,439.8,1473,439.8,1472.8,439.8"/>
		<path id="path504" class="st12" d="M1433.3,426.4l-1,0.2c-4.4,0.9-8.7-2-9.6-6.4l-1-5.2c-0.9-4.4,2-8.7,6.4-9.6l1-0.2
			c4.4-0.9,8.7,2,9.6,6.4l1,5.2C1440.6,421.2,1437.7,425.5,1433.3,426.4"/>
		<path id="path506" class="st7" d="M1476.4,440.9h-2.7c-1.4,0-2.5-1.1-2.5-2.5l0,0c0-1.4,1.1-2.5,2.5-2.5h2.7
			c1.4,0,2.5,1.1,2.5,2.5l0,0C1479,439.7,1477.8,440.9,1476.4,440.9"/>
	</g>
</g>
</svg>
