<?xml version="1.0" encoding="utf-8"?>
<!-- Generator: Adobe Illustrator 24.1.1, SVG Export Plug-In . SVG Version: 6.00 Build 0)  -->
<svg version="1.1" id="Layer_1" xmlns="http://www.w3.org/2000/svg" xmlns:xlink="http://www.w3.org/1999/xlink" x="0px" y="0px"
	 viewBox="0 0 1920 800" style="enable-background:new 0 0 1920 800;" xml:space="preserve">
<style type="text/css">
	.st0{fill:#469BAF;}
	.st1{fill:#C9C9C9;}
	.st2{fill:#CACACA;}
	.st3{fill:#FEFEFE;stroke:#93918D;stroke-miterlimit:10;}
	.st4{fill:#5F5F5E;}
	.st5{fill:#EF920C;}
	.st6{fill:#67CA35;}
	.st7{fill:#FFA500;}
	.st8{fill:#68CA37;}
	.st9{fill:#369708;}
	.st10{fill:#0F65C5;}
	.st11{fill:#07C5F6;}
	.st12{fill:#FEFEFE;}
	.st13{fill:#C6DEF3;}
	.st14{fill:#DCDCDC;}
	.st15{fill:#DBDCDC;}
	.st16{fill:#0665C8;}
	.st17{fill:#808080;}
	.st18{fill:#D85F09;}
	.st19{fill:#E7E7E7;}
	.st20{fill:#0976D5;}
	.st21{fill:none;stroke:#FFA500;stroke-miterlimit:10;}
	.st22{opacity:0.75;fill:url(#SVGID_1_);enable-background:new    ;}
</style>
<rect class="st0" width="1920" height="800"/>
<path class="st1" d="M1497.6,561.1c0-19.9,0.1-39.9-0.1-59.9c0-2.9,0.7-3.8,3.7-3.8c7.6,0.2,7.6,0,7.6,7.8c0,18.7,0,37.3,0,55.9
	C1505.1,561.1,1501.4,561.1,1497.6,561.1z"/>
<path class="st2" d="M1452.6,561.1c0-19.9,0.1-39.9-0.1-59.9c0-2.9,0.7-3.8,3.8-3.8c7,0.2,7,0,7,7.1c0,18.9,0,37.7,0,56.6
	C1459.6,561.1,1456.2,561.1,1452.6,561.1z"/>
<path class="st3" d="M1336,308.1c-78.7,0-157.5,0-236.3,0c-5.7,0-8.6-2.9-8.6-8.5c0-14.2,0.1-28.4,0.1-42.6c0-2.6,2.7-5.5,5.5-5.7
	c1.1-0.1,2.2-0.1,3.3-0.1c82.5,0,165,0,247.6,0c2.3,0,4.6-0.4,6.9-0.5c-3.5,6.8-7.2,13.3-10.3,20.3
	C1338.9,282.7,1336.8,295.2,1336,308.1z M1107.2,299.9c2.2-4.7,2.2-33.8,0-37.9C1107.2,275,1107.2,287,1107.2,299.9z"/>
<path class="st4" d="M1336,308.1c0.9-12.8,3-25.4,8.2-37.3c3-7,6.8-13.5,10.3-20.3c4.2-5.1,8-10.5,12.6-15.2
	c25-25.8,55.8-37.4,91.4-34.1c30.5,2.7,55.6,16.5,75.3,39.9c12.7,15.1,20.5,32.5,24.2,51.7c0.5,6.4,1,12.9,1.5,19.4
	c0.1,0.6,0.3,1.3,0.4,1.9c-0.3,2-0.4,4-0.7,6c-1.3,20.9-8,39.8-20,56.9c-1,1.3-2,2.7-2.8,3.9c4.8,4.9,9.5,9.7,14.1,14.6
	c2.7,3.6,3,7.7,2.7,12c-2.6,2.9-5.1,5.8-7.9,8.5c-4.1,4-8.5,4.5-13.5,1.6c-0.6-0.4-1.3-0.5-2.1-0.7c-4.6-5.1-9.2-10.3-13-14.6
	c-9.9,5.1-18.7,10.7-28.2,14.5c-30.6,12-60.8,10.5-90.4-3.8c-0.8-0.4-1.6-0.6-2.4-1v0.1c-0.9-0.4-1.8-1-2.7-1.4
	c-2.1-1.3-4.1-2.6-6.3-3.9c-6.3-5.1-12.6-10.1-18.9-15.2c-0.1-2.5-1.7-3.7-3.9-4c-2.6-3.7-5.4-7.2-7.9-10.9
	c-13.9-20-20.6-42.2-20-66.5C1336,309.4,1336,308.7,1336,308.1z M1447.8,216.3c0-2.1,0-4.2,0.1-6.3c0.1-1.8-0.6-2.5-2.5-2.6
	c-10.1-0.4-20,1.3-29.6,4.4c-10.5,3.4-20.2,8.7-29.3,15.1c-14.3,10-24.9,23-32.9,38c-5.2,9.8-8.5,20.5-10,31.8
	c-1.6,12.2-1.6,24.1,0.5,36.1c2.3,12.9,7.3,24.8,14.3,35.8c5.5,8.8,11.9,16.8,20,23.4c7.5,6.1,15.2,11.6,24,15.8
	c11.2,5.4,23,8,35,10c9,1.5,9.7,0.9,9.7-8c0-0.4,0-0.6,0-1c6.2-0.6,12.3-0.7,18.4-1.9c22.7-4.3,41.4-15.6,56.1-33.3
	c12.3-14.7,19.5-31.7,21.4-50.9c0.3-0.4,0.6-1,0.6-1.4c-0.1-6.5-0.2-13-0.4-19.5c-0.3-1.1-0.5-2.1-0.7-3.2
	c-6.6-37.3-27.7-62.7-62.8-76.6C1469.6,218,1458.8,216.8,1447.8,216.3z"/>
<path class="st5" d="M1553.3,407.4c0.4-4.3,0.1-8.4-2.7-12c5.8-3.6,8.4-3.4,13,1.2c24.9,25.2,49.9,50.4,74.9,75.6
	c8.3,8.3,16.9,16.4,24.9,25c7,7.5,10.6,16.3,7.7,26.8c-2.9,0.4-5.8,0.6-8.6,0.9c3.3,3.5,3.5,4.9,0.4,7.1c0-0.1,0.4-0.3,0.7-0.4
	c-0.5-0.7-1.2-1.5-1.7-2.2c-0.4,0.4-0.8,0.8-1.3,1.3c0.6,0.5,1.3,1.1,2.2,1.4c0.3,0.7,0.4,1.6,0.4,2.5l0,0c-2.9,0-5.8,0-9.1,0
	c-0.9,2.2-3,1.6-5.5,0.6c1-1.4,1.9-2.7,2.7-3.9c1.3-0.2,2.7-0.4,4-0.6c0.6,0.4,1.3,0.9,2.5,1.7c-0.3-1.6-0.4-2.3-0.5-3
	c0-1.8,0-3.6,0-5.3c0.5-1.6,1.2-3.2,1.7-5c-1.8-0.8-3.5-1.5-5.1-2.2c-1.3-1.2-2.6-2.2-3.8-3.5c-7.6-7.5-15.1-15.1-22.6-22.7
	c-11.3-11.3-22.4-22.6-33.7-34c-11.5-11.6-23.1-23.3-34.7-34.9c-1.6-1.6-3.8-2.5-5.8-3.8c-0.9-0.4-1.7-0.9-2.6-1.3
	c0.8-0.4,1.5-0.6,2.9-1.2c-0.9-0.8-1.7-1.5-1.7-1.5C1552.4,411.5,1552.8,409.5,1553.3,407.4z M1660.2,524.5
	c-0.2-0.1-0.3-0.2-0.4-0.3l-0.2,0.2c0.1,0.2,0.2,0.3,0.3,0.4C1660,524.8,1660.1,524.7,1660.2,524.5z"/>
<path class="st6" d="M1192.2,375.7c2.1,5.3,4.1,10.5,6.3,16.3c-3.3,0.6-6.1,1.3-8.8,1.8c-9.6,1.4-19.1,2.9-28.7,4.1
	c-1.1,0.2-2.9-1-3.5-2.1c-5.7-11.3-14.8-17.3-27.4-17.9c-2.3-0.1-3.6-0.8-4.1-3.2c-2.1-8.6-4.6-17.2-6.8-25.7
	c-0.9-3.4-1.2-7-1.7-10.5c6.8-0.1,13.7-0.1,20.5-0.2c2,0.3,4,0.6,6,0.9c3.5,1.1,7.1,2.1,10.5,3.2c4.6,2.3,9.1,4.6,13.7,6.9
	c0.3,0.2,0.5,0.4,0.8,0.6l0,0c0.3,0.2,0.5,0.4,0.8,0.6l0,0c0.3,0.2,0.4,0.4,0.7,0.6l0,0c1.7,1.3,3.4,2.8,5.2,4.1
	c2.4,2.4,4.8,4.8,7.2,7.2c1.2,1.3,2.2,2.6,3.4,3.9c1.3,2,2.7,3.9,3.9,5.9c0.2,0.3,0.4,0.5,0.6,0.8h-0.1
	C1191.4,374,1191.8,374.8,1192.2,375.7z"/>
<path class="st7" d="M1106.2,432.6c2.6,1.7,5,3.8,7.8,5.2c8.9,4.6,18.1,4.7,27.3,1.1c2.1-0.8,2.9-0.3,4.1,1.2
	c7.2,8.9,14.4,17.9,21.7,26.7c2,2.3,0.2,3.2-1.3,4c-13.7,8-28.4,11.3-44.3,9.8c-17.2-1.5-31.5-8.8-43.7-20.8
	c-0.7-0.7-1.3-1.8-1.8-2.7c0.3-0.5,0.4-1.3,0.9-1.7c4.3-3.4,8.7-6.7,13-10.1C1095.4,441.1,1100.7,436.8,1106.2,432.6z"/>
<path class="st8" d="M1693.1,384.1c-4.7,0.1-9.6,0.4-14.3,0.2c-0.8-0.1-2-3-1.9-4.6c0.1-3.6-0.8-5.5-4.7-5.9
	c-1.7-0.2-2.7,0.1-3.5,1.5c-0.4,0.9-1.1,1.7-1.6,2.5c-2.1,3.3-2.9,3.6-6.4,1.7c-2.9-1.6-5.6-3.3-8.4-5c-2.1-1.3-2.6-2.9-1.2-4.9
	c0.3-0.4,0.5-1,0.8-1.4c2.1-3.3,1-7-2.7-8.1c-1.1-0.4-2.7,0.5-3.8,1.2c-5.1,2.9-5.3,2.9-8.1-1.9c-1.3-2.2-2.7-4.6-3.9-6.9
	c-1.3-2.4-1.1-4.4,1.5-5.8c0.4-0.2,0.7-0.5,1.2-0.7c2.6-1.3,4.4-2.9,2.4-6.1c-0.4-0.7-0.4-1.7-0.7-2.9c-2.1,0-4.1,0-6.2,0
	c-2.7,0-4.1-1.2-3.9-4c0.2-3.3,0.1-6.6,0-9.9c-0.1-2.8,1-4.2,3.8-4.1c0.9,0,1.8,0,2.7,0c3.4,0,5.9-4.2,4.2-7.1
	c-0.4-0.8-1.4-1.3-2.2-1.8c-4.3-2.3-5.7-3.8-2.2-8.7c1.5-2.1,2.9-4.4,4-6.8c1.2-2.6,2.8-2.5,4.7-1.5c1.8,0.8,3.5,1.8,6.1,3
	c0.5-0.8,1-1.9,1.8-2.6c2.1-1.9,2.5-3.7,1-6.2c-2.9-4.6-2.5-5.5,2.1-8.2c2.2-1.3,4.6-2.7,6.8-4c2.3-1.3,4.1-1.1,5.5,1.4
	c0.4,0.5,0.8,1.1,1,1.7c1.3,4.4,4.6,2.2,7.1,2c2.7-0.3,1.5-2.7,1.8-4.3c0.2-0.9,0-1.8,0.1-2.7c0.2-2.3,1-3.9,3.9-3.6
	c2.3,0.3,4.6,0.1,7,0.1c0,6.6,0,13.2,0,19.8c-2.8,0.3-5.5,0.4-8.2,0.9c-20.2,4.2-34.1,23.5-29.3,45.1c3.8,17.1,19.2,28.9,37.4,28.8
	c0,6.5,0,13,0,19.8C1688.7,384.1,1690.9,384.1,1693.1,384.1z"/>
<path class="st7" d="M1589,285.8c0.2-1,0.3-2,0.7-2.9c1.1-2.2,0.7-3.9-1.3-5.5c-2-1.4-3.8-1.9-6.1-0.4c-4.6,2.9-5.5,2.5-7.9-2.5
	c-0.2-0.4-0.4-0.8-0.6-1.2c-2.4-4.4-2.4-4.4,2.1-6.9c2.1-1.2,3.7-2.2,3.4-5c-0.4-2.9-2.1-4.1-4.6-4.8c-4.7-1.4-4.7-1.5-3.3-6.4
	c0.3-1,0.4-2,0.7-2.9c0.6-2.6,2.1-3.8,4.8-2.9c1.4,0.4,3,1,4.5,0.7c3.5-0.5,4.8-4.4,3-7.8c-2.4-4.6-2.2-5.3,2.4-7.7
	c0.3-0.2,0.5-0.4,0.9-0.4c5.9-3.3,5.1-2,7.7,2.6c1.3,2.4,3.1,2.3,5.2,2.3c2.1-0.1,3.4-1.2,4-3.2c1.7-6,1.7-6,7.9-4
	c4.7,1.4,4.5,1.4,3.8,6.4c-0.3,1.9,0.7,4.3,1.9,5.8c1.4,2,3.6,1.9,5.9,0.5c3.9-2.2,4-2.1,7,1.9c0.3,0.4,0.8,0.5,1,0.9
	c2.2,4.4,3.5,5.1-1.7,8c-1.6,0.9-3.2,1.5-3.1,4c0.1,4.3,0.4,4.9,5.5,6.1c2.7,0.6,3.7,1.8,2.8,4.4c-0.3,0.7-0.3,1.5-0.4,2.2
	c-1.8,6.1-1.7,5.9-8,4.6c-1.3-0.3-3.4,0.6-4.6,1.6c-1.5,1.3-2.4,3.2-1,5.3c0.4,0.7,1.2,1.3,1.5,2.1c0.9,2.1,1.3,4-1.4,5.2
	c-1.7,0.7-3.2,1.8-4.8,2.8c-1.7,1.1-3.1,0.8-4.2-0.9c-0.6-1-1.1-2.3-2-3c-1.2-1-2.7-2.1-3.9-2.1c-1.5,0.2-3.5,1.3-4.1,2.6
	c-2.9,5.8-2.8,5.9-9.5,4.3C1590.7,289.1,1588.6,288.9,1589,285.8z M1603.2,248.4c-6.1,0.1-10.2,4-10.2,9.9c0,6,4.3,10.2,10.4,10.2
	c5.9-0.1,10.3-4.4,10.1-10.2C1613.3,252.6,1608.4,247.5,1603.2,248.4z"/>
<path class="st9" d="M1693.1,384.1c-2.1,0-4.4,0-6.7,0c0-6.7,0-13.2,0-19.8l0,0c13.6-0.3,24-6.4,30.8-17.8
	c8.7-14.5,7.5-29.2-2.7-42.8c-2.9-3.9-6.3-8-12-8.5c-2.1-3.8-5.9-4-9.6-4.6c-2.2-0.4-4.5-0.8-6.7-1.3l0,0c0-6.6,0-13.2,0-19.8
	c1.1,0,2.2,0,3.3-0.1c2.7-0.2,3.8,1.1,3.8,3.7c0,0.4,0,0.9,0,1.3c0.1,4.9,1.4,6.4,6.3,6.1c0.7,0,1.5-1,2-1.8c3.8-6.5,4-6.5,10.5-2.5
	c1.7,1.1,3.4,2.1,5.2,2.9c2.8,1.3,2.9,3.3,1.5,5.7c-0.2,0.3-0.4,0.5-0.5,0.9c-2.1,3.6-1.3,7,2.6,8.3c1.1,0.4,2.9-0.6,4.1-1.3
	c4.7-2.6,5.5-2.4,8,2.3c1.2,2.2,2.5,4.4,3.8,6.6c1.3,2.4,1.2,4.4-1.5,5.7c-0.4,0.2-0.8,0.4-1.2,0.6c-3.2,1.9-4,5.6-1.7,8.6
	c0.4,0.4,1.1,0.6,1.7,0.7c1.2,0.1,2.4,0.1,3.7,0c3.9,0,4.6,0.5,4.6,4.6c0,2.7,0,5.3,0,8c0,4.7-0.7,5.6-5.3,5.3
	c-3.5-0.3-4.9,1-5.5,4.4c-0.4,2.3-0.1,3.4,2.1,4.6c5.6,2.8,5.6,3.4,2.4,8.9c-1.2,2-2.1,4.1-3.3,6.1c-1.3,2.3-3.1,3.3-5.7,1.8
	c-1.6-1-3.3-1.8-5-2.7c-0.4,0.4-0.9,0.8-1.3,1.2c-3.9,3.7-3.9,3.7-1.3,8.4c2,3.4,1.8,4.3-1.6,6.3c-2.6,1.6-5.3,3.1-8,4.6
	c-2.1,1.2-3.9,1.2-5.5-1.1c-1.2-1.7-2-4.1-3.6-4.7c-1.5-0.6-3.8,0.7-5.6,1.2c-0.4,0.9-1.3,1.7-1.3,2.6c-0.3,2.1-0.2,4.1-0.2,6.2
	c-0.1,0.2-0.2,0.4-0.4,0.4l-0.2,0.2C1693.4,383.9,1693.2,384,1693.1,384.1z"/>
<path class="st7" d="M1071.5,451.5c-2.8-4.5-6-8.8-8.2-13.5c-5.9-12.5-7.2-25.7-5.2-39.2c0.8-5.1,2.4-10.1,3.7-15.5
	c1.5,0.4,2.4,0.4,3.1,0.7c10.3,5.2,20.6,10.4,30.7,15.7c1,0.5,2.1,2.2,1.9,3.2c-1.6,8.2,0,15.9,3.9,23.1c0.2,0.4,0.3,0.8,0.4,1.3
	c0,0.2,0,0.5-0.1,0.6c-7.2,5.9-14.5,11.9-21.8,17.7C1077.2,447.8,1074.3,449.5,1071.5,451.5z"/>
<path class="st10" d="M1364,387.4c2.2,0.4,3.8,1.5,3.9,4c-5.5,6.2-10.8,12.3-16.4,18.3c-1.8,1.9-2.6,3.5-2.1,6.1
	c0.3,1.1-0.2,2.4-0.4,3.6c-1.3,1.6-2.5,3.2-3.8,4.8c-1.3,0.5-2.7,1.1-4,1.6v-0.1c-2.2-0.9-4.7-1.3-6.5-2.8c-1.5-1.3-2.9-3.6-3.1-5.5
	c-0.3-2.5-1.3-3.6-3.4-4.6c-11.1-5.2-22-10.5-33-15.9c-2-1-3.8-1.6-5.8-0.4c-0.9,0.5-2.2,1-3.1,0.7c-3.2-0.8-5,0.9-6.9,3
	c-14.9,17.9-29.9,35.7-45,53.5c-0.2,0.3-0.3,0.5-0.4,0.9c-0.4,1.3-1.3,2.7-1.2,3.9c0.2,5.2-3.2,9-8.6,9.9c-3.7,0.6-9.2-3.8-9.4-7.9
	c0-0.9-0.6-2.2-1.4-2.7c-5-3-10.1-5.8-15.1-8.8c-2.6-1.4-5.2-2.8-7.9-4.2c1-2,2-3.9,2.9-5.9c7.1,4.2,14.2,8.5,21.4,12.5
	c1,0.5,2.5,0.4,3.8,0.3c2.7-0.3,5.3-0.7,7.9-1.2c1.3-0.3,2.9-0.4,3.6-1.3c15.6-18.3,31.1-36.7,46.5-55.1c0.6-0.7,0.8-2.1,0.6-3.1
	c-1.2-5.6,1.7-10.8,6.8-11.6c5.7-1,10,2.4,10.9,8.7c0.2,1,0.7,2.2,1.5,2.6c7.8,3.8,15.7,7.4,23.6,11.1c3.6,1.7,7.2,3.4,10.8,5.2
	c1.8,1.6,3.4,2.2,5.8,0.8c1.4-0.9,3.7-1,5.4-0.5c2.5,0.5,3.8-0.4,5.3-2.1c5.1-5.7,10.3-11.4,15.4-17.1
	C1363,388,1363.6,387.7,1364,387.4z"/>
<path class="st5" d="M1553.3,407.4c-0.4,2.1-0.9,4.1-1.4,6.6c0,0,0.8,0.7,1.7,1.5c-1.3,0.5-2.1,0.9-2.9,1.2c0.9,0.4,1.7,0.9,2.6,1.3
	c-3.1,3.2-6.3,6.4-10,10.2c3.8,3.7,8,7.4,12,11.3c10.3,10.2,20.5,20.5,30.7,30.7c2,2,3.9,3.8,5.8,5.7c4.6,4.7,9.3,9.5,13.9,14.2
	c4,4.2,8,8.4,12.1,12.5c2.9,2.9,5.9,5.5,8.8,8.2c5.5,5.4,10.7,11,16.4,16.1c2.2,2,5.5,2.9,8.3,4.3c-0.8,1.3-1.7,2.4-2.7,3.9
	c2.5,1,4.6,1.6,5.5-0.6c3.3,0,6.3,0,9.1,0c-4.5,3.6-9.7,3.9-14.9,3.1c-8.8-1.3-15.4-6.3-21.3-12.8c-6-6.7-12.8-12.7-19.1-19.1
	c-11.3-11.3-22.5-22.9-33.9-34.2c-9.8-9.9-19.8-19.7-29.8-29.5c-4.8-4.7-9.6-9.6-14.3-14.5c-3-3.1-3-7.2-0.1-11
	c0.7,0.3,1.4,0.4,2.1,0.7c5,2.9,9.3,2.5,13.5-1.6C1548.2,413.3,1550.7,410.2,1553.3,407.4z"/>
<path class="st11" d="M1193.5,439.5c-1,2-2,3.9-2.9,5.9c-3.7,5.1-7.3,10.2-11.3,15.8c-4.6-5.5-8.4-10.2-12.2-14.8
	c-3.6-4.4-7.1-8.8-10.8-13.2c-1.9-2.2-3.3-4.4-0.5-7c0.4-0.4,0.4-1,0.4-1.5c1.5-1.5,3.1-2.9,1.9-5.5c0.7-1.4,1.9-2.9,2.1-4.5
	c0.3-2.9,1.5-4.2,4.5-4.6c11.1-1.5,22.2-3.3,33.2-5c3-0.4,2.9,1.7,2.9,3.5c-0.2,4.2-0.2,8.5-1.2,12.5
	C1197.8,427.4,1195.5,433.5,1193.5,439.5z"/>
<path class="st10" d="M1559.3,320.1c0.3-2,0.4-4,0.7-6c5.9,1.3,11.8,2.6,17.7,3.9c1.7,0.4,2.9,0.5,4.2-1.3c2.8-3.8,6.6-4.5,11.2-2.8
	c1,0.4,2.7,0.3,3.4-0.4c3.6-2.8,7-5.7,10.4-8.7c0.8-0.8,1.7-1.5,2.5-2.3c0.3-0.2,0.5-0.4,0.8-0.5c5.7-4.6,11.4-9.3,17.1-13.9
	c15.9-13.2,31.9-26.4,47.8-39.6c1.8-1.3,3.6-2.7,5.4-4l0,0c3.8-3.1,7.1-6.6,11.3-9.3c2.9-2,4.6-3.8,3.8-7.3
	c0.4-4.2,6.5-7.3,11.2-5.7c5.3,1.8,7.7,6.7,5.7,11.8c-1.8,4.8-7.5,7.2-12.2,4.8c-2-1-2.8-0.5-4.2,0.7
	c-18.7,15.5-37.4,30.9-56.2,46.3c-13.1,10.8-26.3,21.6-39.3,32.6c-1.2,1-2,2.8-2.2,4.3c-0.7,3.7-3.3,7.1-6.6,7.9
	c-4,1-7.2-0.4-9.9-3.5c-1.2-1.3-2.9-2.7-4.6-3.1C1571.2,322.5,1565.2,321.4,1559.3,320.1z"/>
<path class="st10" d="M1157.9,419.2c1.3,2.4-0.3,3.9-1.9,5.5c-5-2.9-10-6.1-15.1-8.8c-1.2-0.6-2.9-0.2-4.4-0.1
	c-2.7,0.2-5.3,0.5-8,0.8c-1.5,0.2-3.4-0.1-4.4,0.7c-6.1,4.7-11.9,9.7-17.8,14.7c-0.2,0.1-0.2,0.4-0.3,0.6
	c-5.4,4.2-10.7,8.5-16.2,12.7c-4.3,3.4-8.8,6.7-13,10.1c-0.4,0.4-0.6,1.2-0.9,1.7c-0.8,0.5-1.5,1.1-2.3,1.6
	c-2.9,2.1-5.8,4.2-8.5,6.4c-6.7,5.5-13.3,11-19.9,16.4c-2.6,2-5.4,3.8-7.8,6.1c-0.8,0.8-1.1,2.6-1,3.9c0.4,4.2-1,7.7-4.4,9.6
	c-3.2,1.8-6.4,1.9-9.6-0.4c-3.5-2.6-4.7-6.6-3.4-10.5c1.3-3.8,5.1-6.3,9.3-5.8c2.4,0.4,4-0.4,5.6-1.8c11.5-9.4,23.1-18.7,34.5-28.1
	c1.1-0.9,1.9-2.1,2.8-3.1c2.8-2,5.6-3.8,8.3-5.9c7.3-5.8,14.6-11.8,21.8-17.7c0.1-0.1,0.1-0.4,0.1-0.6c5.6-4.4,11.2-8.7,16.8-13
	c2.6-2,4.5-3.9,4.5-7.7c0-4.1,4-7.2,8-7.4c4.9-0.2,8.1,2.3,9.5,6.9c0.4,1.4,1.6,3,2.9,3.9C1148.1,413.3,1153,416.2,1157.9,419.2z"/>
<path class="st12" d="M1068.7,371.3c8.3-13.9,20-23.1,35-28.8c0.4,0.5,0.9,0.9,1,1.3c3,11.5,6.2,23.1,9,34.6c0.3,1-0.5,2.6-1.4,3.4
	c-2.3,2.1-4.8,4.2-7.4,6c-0.9,0.6-2.6,0.7-3.5,0.3c-9-4.5-18-9.1-26.9-13.8C1072.6,373.4,1070.6,372.4,1068.7,371.3z"/>
<path class="st1" d="M1386.8,406.6c2.1,1.3,4.1,2.6,6.3,3.9c0.9,0.4,1.8,1,2.7,1.4v-0.1c0.2,23.7,0.4,47.4,0.5,71
	c0,5.3,0,5.3-5.3,5.3c-0.8,0-1.5-0.1-2.3,0c-2.7,0.3-3.8-0.7-3.8-3.6c0.1-24.9,0-49.8,0.1-74.7
	C1385.1,408.9,1386.3,407.7,1386.8,406.6z"/>
<path class="st1" d="M1345.3,424.3c1.3-1.6,2.5-3.2,3.8-4.8c0.6-0.2,1.3-0.4,2.2-0.8c0,15.4,0,30.7,0,46c0,6.4,0,12.8,0,19.2
	c0,3.8-0.6,4.4-4.5,4.4c-8-0.1-6.7,1-6.7-6.5c-0.1-17.1-0.1-34.1,0-51.3c0-1.5,0.8-3,1.3-4.6v0.1
	C1342.7,425.7,1344.9,426.9,1345.3,424.3z"/>
<path class="st2" d="M1373.1,454.8c0,10-0.1,20,0.1,30.1c0,2.7-0.8,3.5-3.4,3.4c-8.7-0.3-7.1,1.2-7.2-7.1c-0.1-18.8,0-37.4-0.1-56.2
	c0-2.9,0.8-3.8,3.8-3.8c6.9,0.2,6.9,0,6.9,7.1C1373.1,437.2,1373.1,446,1373.1,454.8z"/>
<path class="st1" d="M1305.6,459.4c0,8.5-0.1,17,0.1,25.5c0,2.6-0.7,3.4-3.4,3.4c-8,0-8,0.1-8-8c0-15.6,0.1-31.3-0.1-46.9
	c0-3.1,1-4.2,4.1-4.2c7.1,0.2,7.1,0,7.1,7.1C1305.7,444,1305.6,451.7,1305.6,459.4z"/>
<path class="st1" d="M1520.1,524.9c0-8,0.1-15.9-0.1-23.8c-0.1-2.6,0.6-3.7,3.5-3.7c7.9,0.1,7.9,0,7.9,7.9c0,14.3-0.1,28.7,0.1,43
	c0,3.2-1.2,4.3-4.2,4.2c-8-0.2-7.1,0.7-7.1-7.1C1520.1,538.6,1520.1,531.7,1520.1,524.9z"/>
<path class="st2" d="M1418.2,526.8c0,8.6-0.1,17.2,0.1,25.8c0,2.4-0.7,3.3-3.2,3.2c-8.9-0.3-7.4,1.2-7.4-7.1
	c-0.1-15.9,0-31.7-0.1-47.6c0-2.7,0.8-3.7,3.6-3.6c7.1,0.1,7.1,0,7.1,7.2C1418.2,512,1418.2,519.4,1418.2,526.8z"/>
<path class="st1" d="M1385,523.4c0-7.6,0.1-15.2-0.1-22.8c0-2.5,0.8-3.2,3.2-3.2c8,0,8-0.1,8,8c0,13.5-0.1,26.9,0.1,40.4
	c0,2.9-1.3,3.8-3.8,4c-7.5,0.5-7.5,0.6-7.5-6.8C1385,536.5,1385,530,1385,523.4z"/>
<path class="st1" d="M1323.2,435.2c0.9,0,1.8,0,2.7,0c2.3-0.1,2.9,0.7,2.6,3.2c-0.4,3.7-0.3,7.5-0.3,11.3c0,11.4-0.1,23,0.1,34.4
	c0,3.2-1,4.2-4.2,4.2c-6.5-0.2-6.5,0-6.5-6.4c0-13.7,0-27.3,0-41C1317.5,435.2,1317.5,435.2,1323.2,435.2z"/>
<path class="st2" d="M1283.1,462.1c0,7.7-0.1,15.5,0,23.1c0,2.3-0.8,3.2-3,3c-1-0.1-2,0-2.9,0c-5,0-5.4-0.4-5.3-5.5
	c0.3-14.3,0.5-28.6,0.5-42.9c0-3.2,0.9-4.2,4.1-4c7.7,0.4,6.5-1,6.6,6.8C1283.1,449.1,1283.1,455.6,1283.1,462.1z"/>
<path class="st1" d="M1475.1,519.3c0-6.3,0.1-12.6,0-18.9c0-2.3,0.7-3,3-3c8.3-0.1,8.3-0.2,8.3,8c0,10.8-0.1,21.6,0.1,32.4
	c0,2.9-0.8,4.2-3.9,4c-7.1-0.3-7.4,1.3-7.3-7.3C1475.2,529.4,1475.1,524.4,1475.1,519.3z"/>
<path class="st1" d="M1230.1,200.1c-22.2,0-44.3,0-66.5,0c-0.9,0-1.8,0.2-2.6-0.1s-1.4-1-2.1-1.5c0.7-0.5,1.3-1.3,2.1-1.6
	c0.8-0.3,1.7-0.1,2.6-0.1c44.7,0,89.4,0,134.1,0.1c1.6,0,4.1-1.2,4.5,1.7c0,0.4-2.8,1.4-4.3,1.4
	C1275.1,200.2,1252.6,200.1,1230.1,200.1z"/>
<path class="st1" d="M1159.5,236c-0.4-1.7-0.8-3.5,2.4-2.8c1.3,0.3,2.6,0.2,3.9,0.2c43.9,0,87.8,0,131.6,0.1c1.4,0,2.9,0.8,4.3,1.3
	c-1.4,0.4-2.9,1.3-4.3,1.3c-41.2,0.1-82.5,0.1-123.7,0.1C1169.3,236,1164.5,236,1159.5,236z"/>
<path class="st1" d="M1302.4,337.8c-0.8,0.4-1.5,1.1-2.3,1.3s-1.8,0.1-2.6,0.1c-45,0-89.8,0-134.8,0c-1.3,0-2.5-0.6-3.8-1
	c1.3-0.5,2.5-1.5,3.8-1.5c45.5-0.1,90.9-0.1,136.4-0.1c1,0,2,0.1,2.9,0.2C1302,337.1,1302.2,337.5,1302.4,337.8z"/>
<path class="st2" d="M1418.2,471.6c0,4.5-0.1,9,0,13.5c0,2.2-0.9,3.1-3.1,3.1c-8.5-0.1-7.4,0.7-7.5-7c0-7.7,0.1-15.4,0-23.1
	c0-2.2,0.6-3.1,3-3c9.2,0.3,7.4-1.2,7.6,7.3C1418.3,465.4,1418.2,468.5,1418.2,471.6z"/>
<path class="st2" d="M1222,226c-19.7,0-39.3,0-58.9-0.1c-1.3,0-2.8-0.9-4.1-1.4c1.3-0.4,2.8-1.1,4.1-1.1c39.4-0.1,78.8-0.1,118.2,0
	c1.3,0,2.8,0.9,4.1,1.4c-1.3,0.4-2.8,1.2-4.1,1.2C1261.5,226,1241.8,226,1222,226z"/>
<path class="st1" d="M1284.8,329.3c-1.4,0-2.6,0-3.7,0c-39.3,0-78.7,0-118.1-0.1c-1.4,0-2.8-0.9-4.2-1.4c1.3-0.4,2.7-1.2,4.1-1.2
	c39.2-0.1,78.5-0.1,117.7,0C1282.3,326.7,1284.4,326.1,1284.8,329.3z"/>
<path class="st1" d="M1284.8,190c-1.2,0.1-2.2,0.3-3.4,0.3c-39.5,0-79,0-118.5,0c-0.8,0-1.6,0.1-2.3-0.1c-0.4-0.2-1.2-0.8-1.2-1.3
	s0.7-1,1.3-1.2c0.6-0.2,1.3-0.1,2-0.1c39.5,0,79,0,118.5,0c1.3,0,2.6,0.6,3.9,1C1285,189.1,1284.9,189.6,1284.8,190z"/>
<path class="st1" d="M1430.1,510.8c0-3.7,0.1-7.2,0-10.9c-0.1-3.2,2.4-2.8,3.9-2.3c2.4,0.7,6.8-2.7,7.1,2.2c0.5,7.1,0.3,14.3,0,21.4
	c0,0.9-1.4,2.4-2.4,2.6c-8.7,1.5-8.7,1.4-8.7-7.4C1430.1,514.5,1430.1,512.6,1430.1,510.8z"/>
<path class="st2" d="M1126.2,224.7c0-3.6,0.1-7.1,0-10.5c-0.1-2,0.7-2.8,2.7-2.7c7.2,0.1,14.6,0.1,21.8,0c2.1,0,2.7,0.8,2.7,2.8
	c-0.1,7.1-0.1,14.3,0,21.5c0,2.5-1.3,3.6-3.7,3.6c-6.6,0-13.2,0-19.8,0c-2.5,0-3.7-1.2-3.6-3.6
	C1126.2,231.9,1126.2,228.4,1126.2,224.7z M1129.5,225c0,2.8,0.1,5.5,0,8.2c-0.1,2,0.7,2.8,2.7,2.7c5.3-0.1,10.5-0.1,15.8,0
	c2.3,0,2.7-0.9,2.5-3c-0.4-5.2-0.6-10.4-0.3-15.5c0.3-2.9-0.8-3.4-2.9-3.4c-5.2-0.1-10.4-0.1-15.6,0.1c-0.8,0-2.1,1.4-2.2,2.2
	C1129.3,219.2,1129.5,222.1,1129.5,225z"/>
<path class="st2" d="M1153.3,189.4c0,3.6,0,7.1,0,10.6c0,2.1-0.6,3.2-3.4,3c-6.3-0.4-12.6-0.2-18.9-0.2c-4.4,0-4.8-0.4-4.9-5
	c0-6.1,0.1-12.2,0-18.2c-0.1-3.1,1.4-4.6,4.4-4.6c6.2-0.1,12.3-0.1,18.5,0c2.9,0,4.6,1.3,4.4,4.7
	C1153.1,183,1153.3,186.2,1153.3,189.4z M1150.5,178.3c-6.7,0-12.9-0.1-19,0.1c-0.7,0-2,1.4-2,2.1c-0.2,5.7-0.2,11.4,0,17.2
	c0,0.8,1.4,2.2,2.2,2.2c5.4,0.2,10.8,0.1,16.2,0.1c2.2,0,2.6-1.2,2.6-3.2C1150.4,190.9,1150.5,184.9,1150.5,178.3z"/>
<path class="st1" d="M1192.2,375.7c-0.4-0.9-0.9-1.7-1.4-2.6c1.7-0.3,3.5-0.8,5.2-0.8c34-0.1,68,0,102,0c0.4,0,1-0.2,1.3,0
	c1,0.5,1.9,1.3,2.9,2c-1,0.4-2,1.3-2.9,1.3c-35.2-0.2-70.3-0.4-105.5-0.6C1193.2,374.9,1192.8,375.5,1192.2,375.7z"/>
<path class="st2" d="M1186.4,366.4c-1.2-1.3-2.2-2.6-3.4-3.9c33,0,66-0.1,98.9,0c1.3,0,2.5,0.7,3.8,1.1c0,0.4-0.1,0.8-0.1,1.3
	c-1.3,0.1-2.6,0.4-3.9,0.4c-28.2,0-56.2,0-84.4,0c-2.9,0-5.6-0.1-8.5,0.1C1187.9,365.2,1187.2,366,1186.4,366.4z"/>
<path class="st1" d="M1542.7,508.3c0-2.8,0.1-5.5,0-8.2c-0.1-2.1,0.8-2.7,2.8-2.7c10.5,0.3,8.3-1.5,8.6,8c0.1,3.5-0.1,7.1,0,10.5
	c0.1,2.4-1,3.2-3.3,3.3c-8,0.2-8,0.3-8-7.7C1542.7,510.6,1542.7,509.5,1542.7,508.3z"/>
<path class="st1" d="M1138,338.4c-6.8,0.1-13.7,0.1-20.5,0.2c1.8-0.4,3.6-1.3,5.3-1.2c2.7,0.1,3.5-0.9,3.4-3.5
	c-0.2-5.3,0-10.5-0.1-15.9c0-2.4,0.9-3.3,3.3-3.3c6.9,0.1,13.7,0.1,20.6,0c1.8,0,2.8,0.5,2.9,2.3c0.2,3.7,0.4,7.2,0.4,10.9
	c0.1,3.4-0.1,6.9,0.1,10.3c0.1,1.4,0.8,2.9,1.3,4.3c-3.5-1.1-7.1-2.1-10.5-3.2c2.1,0,4.1,0,6,0c0-6.3-0.1-12.6,0-19
	c0-2.1-0.6-2.9-2.9-2.9c-5.1,0.1-10.1,0.1-15.2,0c-1.8,0-2.6,0.6-2.6,2.5c0.1,4.9,0.1,9.9,0,14.8c0,1.9,0.7,2.5,2.5,2.6
	C1134,337.4,1136,338,1138,338.4z"/>
<path class="st1" d="M1430.1,471.8c2.9-0.3,5.2-0.4,7.6-0.7c2.1-0.3,3.6,0.4,3.6,2.7c0.1,3.8,0.2,7.7-0.1,11.5
	c-0.1,1-1.1,2.5-1.9,2.7c-2.6,0.4-5.3,0.3-7.9,0.2c-0.4,0-1.3-1-1.3-1.5C1430.1,481.5,1430.1,476.4,1430.1,471.8z"/>
<path class="st2" d="M1184.7,175.6c7.4,0,14.7-0.1,22.2,0.1c1.1,0,2.2,0.7,3.3,1.2c-1.2,0.7-2.3,1.9-3.5,2c-2.9,0.3-5.7,0.1-8.6,0.1
	c-11.6,0-23.1,0-34.8,0c-0.8,0-1.6,0.2-2.3-0.1c-0.8-0.3-1.4-1-2.2-1.5c0.7-0.5,1.3-1.3,2.1-1.6c0.6-0.3,1.5-0.1,2.3-0.1
	C1170.3,175.6,1177.4,175.6,1184.7,175.6z"/>
<path class="st1" d="M1260.6,481.1c-0.1,8,0.9,7-7.3,7.2c-3.1,0.1-4.3-1.1-3.9-4c0-0.4,0-0.6,0-1c0-8.2,0-8.1,7.8-9.5
	c2.4-0.4,3.6,0.4,3.5,2.9C1260.5,478.1,1260.6,479.7,1260.6,481.1z"/>
<path class="st1" d="M1209.9,212.1c0.9,2.6-0.9,2.7-2.8,2.7c-13.2,0-26.5,0-39.6,0c-2,0-4,0.2-5.9-0.1c-1-0.2-1.9-1.2-2.9-1.8
	c1-0.4,2-0.8,2.9-0.9c1.2-0.1,2.4,0.2,3.6,0.2c10.8,0,21.5,0,32.4,0C1201.7,212.1,1205.7,212.1,1209.9,212.1z"/>
<path class="st2" d="M1209.9,317.3c-1.3,0.3-2.6,0.7-3.8,0.7c-13.9,0.1-28,0.1-41.9,0c-1.8,0-3.5-0.5-5.7-0.9
	C1161,315,1206.9,314.7,1209.9,317.3z"/>
<path class="st1" d="M1373.1,504.1c-0.1,7,0.8,6-6.3,6c-4.4,0-4.4,0-4.4-4.2c0-0.4,0-0.6,0-1c0.2-8.6-1.5-7.1,7.5-7.4
	c2.6-0.1,3.3,1,3.1,3.3C1373,501.8,1373.1,502.9,1373.1,504.1z"/>
<path class="st1" d="M1175.7,355.3c-1.7-1.3-3.4-2.8-5.2-4.1c4.6,0,9.2,0,13.9,0c7.2,0,14.6,0,21.8,0c1.8,0,3.6,0.1,3.9,2.9
	c-0.9,0.2-1.6,0.4-2.4,0.4c-10.1-0.1-20.2-0.2-30.4-0.2C1176.8,354.2,1176.3,354.9,1175.7,355.3z"/>
<path class="st13" d="M1198.4,449.5c5.1,2.9,10.2,5.7,15.1,8.8c0.7,0.4,1.3,1.7,1.4,2.7c0.2,4.1,5.6,8.5,9.4,7.9
	c5.4-0.9,8.7-4.7,8.6-9.9c0-1.3,0.8-2.6,1.2-3.9c0,1.3-0.2,2.4,0.1,3.7c1.6,8.8-9.3,13.9-16,10c-2.2-1.3-4-2.9-3.8-5.9
	c0.1-2.1-0.6-2.9-2.7-3.8c-4.1-2-8-4.5-11.8-6.9C1199,451.6,1198.9,450.4,1198.4,449.5z"/>
<path class="st13" d="M1045.3,481.5c6.6-5.5,13.2-11,19.9-16.4c2.8-2.2,5.7-4.3,8.5-6.4c-1.5,1.8-2.8,3.9-4.5,5.5
	c-6.1,5.1-12.2,10-18.5,14.8C1049.3,480.2,1047.2,480.7,1045.3,481.5z"/>
<path class="st5" d="M1663.2,531.9c2.9-2.1,2.7-3.5-0.6-7c2.8-0.3,5.7-0.6,8.6-0.9c-1.2,4.6-3.3,8.5-8,10.6
	C1663.2,533.7,1663.2,532.8,1663.2,531.9z"/>
<path class="st13" d="M1330.8,407.4c-3.6-1.7-7.2-3.4-10.8-5.2c3.4,1.2,6.8,2.2,10.2,3.5C1330.5,405.8,1330.5,406.7,1330.8,407.4z"
	/>
<path class="st8" d="M1694.2,383.1c0-2.1-0.1-4.1,0.2-6.2c0.1-0.9,0.9-1.7,1.3-2.6c-0.3,1.8-0.4,3.7-0.8,5.5
	C1694.8,381,1694.4,382.1,1694.2,383.1z"/>
<polygon class="st8" points="1693.7,383.7 1693.8,383.6 1693.9,383.8 "/>
<path class="st1" d="M1169.1,349.9c-0.3-0.2-0.5-0.4-0.8-0.6C1168.6,349.5,1168.8,349.7,1169.1,349.9z"/>
<path class="st1" d="M1169.8,350.5c-0.3-0.2-0.5-0.4-0.8-0.6C1169.4,350.2,1169.5,350.3,1169.8,350.5z"/>
<path class="st1" d="M1170.5,351.1c-0.3-0.2-0.4-0.4-0.7-0.6C1170.1,350.7,1170.3,350.9,1170.5,351.1z"/>
<path class="st1" d="M1191,373.1c-0.2-0.3-0.4-0.5-0.6-0.8C1190.6,372.6,1190.7,372.9,1191,373.1z"/>
<path class="st2" d="M1107.2,299.9c0-13,0-24.9,0-37.9C1109.4,266.2,1109.4,295.2,1107.2,299.9z"/>
<path class="st14" d="M1543.2,322.6c-1.9,19.1-9,36.1-21.4,50.9c-14.7,17.7-33.4,29-56.1,33.3c-6,1.2-12.2,1.3-18.4,1.9
	c-15.8-0.7-31.1-3.7-44.9-11.9c-5.9-3.5-11.3-7.9-16.8-11.9c1-1.3,2.1-2.5,2.9-3.9c1.4-2.7,3-1.6,4.7-0.4c2.7,2,5.2,4.4,8,6
	c4.9,2.9,10.1,5.4,15.2,8c0.5,0.3,1.3-0.1,2.5-0.2c-0.5-0.8-0.7-1.4-1.1-1.6c-3.5-1.4-6.1-3.7-8.5-6.5c-3.5-4-7.4-7.7-11-11.6
	c-1.1-1.2-1.7-2.5,0-4.3c3.8-3.8,7.2-7.8,10.6-11.8c0.7-0.8,0.9-2.1,1.3-3.2c0.2-0.4,0.3-0.8,0.5-1.1c12.2-13.3,24.2-26.7,36.5-39.9
	c0.8-0.9,2.7-1.4,3.9-1.3c6.6,1,12.5-0.4,17.3-5.2c1.6-1.6,2.9-1.8,4.9-1.3c15.8,3.8,31.7,7.5,47.5,11.2
	C1528.4,319.4,1535.8,321,1543.2,322.6z"/>
<path class="st15" d="M1447.8,216.3c10.9,0.5,21.8,1.7,32.1,5.7c35.1,13.9,56.3,39.2,62.8,76.6c0.2,1.1,0.4,2.1,0.7,3.2
	c-0.9,0.2-2,0.8-2.8,0.6c-21.8-5-43.5-10.1-65.2-15.3c-1.3-0.3-2.7-1.4-3.4-2.6c-4.7-8-13.8-12-22.7-9.3
	c-8.1,2.5-14.3,9.7-13.9,19.4c0.1,2.4-0.6,4.1-2.2,5.9c-10.6,11.6-21.1,23.3-31.7,34.9c-4.8,5.3-9.7,10.4-14.7,15.6
	c-3.6-4.1-4.1-9.5-5.1-14.4c-1-5.2-0.6-10.6-0.9-16c4.9-0.2,9.8-0.4,14.8-0.6c11.3-0.4,18.6-11.1,18.4-20
	c-0.3-15.4-0.1-30.8-0.1-46.2c10-7.2,20.3-13.9,32.8-16.2c4.8-0.8,9.7-2.2,14.5-2.2c9.4,0,18.9,0.7,28.2,1.2
	c0.4,0.4,0.8,0.7,1.3,1.1c0.2-0.3,0.3-0.4,0.4-0.7c-0.5-0.2-1.1-0.3-1.7-0.4c-0.4-0.5-0.8-1.3-1.4-1.6c-2.3-1.2-4.7-2.1-7.1-3.2
	c-9.9-4.5-20.3-6.5-31.1-7.1c-3.8-0.2-7.7,0.2-11.4,0.6c-4.7,0.6-9.5,1.2-14,2.5c-8.8,2.6-17.2,6-24.8,11.3
	c-4.2-0.2-8.4-0.4-12.6-0.6c0.2-0.3,0.4-0.5,0.6-0.8c13.9-11,29.6-18,47.2-20.4C1439.1,216.8,1443.6,216.6,1447.8,216.3z"/>
<path class="st16" d="M1387.1,351.1c4.9-5.2,9.8-10.3,14.7-15.6c10.6-11.6,21.1-23.3,31.7-34.9c1.6-1.8,2.3-3.5,2.2-5.9
	c-0.4-9.7,5.6-16.9,13.9-19.4c8.9-2.8,17.9,1.3,22.7,9.3c0.7,1.2,2.1,2.2,3.4,2.6c21.7,5.2,43.5,10.3,65.2,15.3
	c0.8,0.2,1.9-0.4,2.8-0.6c0.1,6.5,0.3,13,0.4,19.5c0,0.4-0.4,1-0.6,1.4c-7.4-1.6-14.8-3.2-22.3-4.9c-15.9-3.7-31.7-7.4-47.5-11.2
	c-2-0.4-3.4-0.3-4.9,1.3c-4.7,4.7-10.7,6.2-17.3,5.2c-1.3-0.2-3,0.4-3.9,1.3c-12.2,13.2-24.3,26.6-36.5,39.9
	c-0.3,0.3-0.4,0.7-0.5,1.1c-2.9,3.1-5.7,6.3-8.6,9.4c-0.3,0.3-0.4,0.4-0.7,0.7c-0.5,0.3-1.1,0.5-1.6,0.8c-0.3,0.3-0.5,0.5-0.8,0.8
	h0.1c-0.7,0.2-1.4,0.4-2.1,0.5c-1.2-0.5-2.8-0.8-3.3-1.7c-1.7-2.9-3.4-5.9-4.4-9c-0.7-2.4-1.5-3.4-3.9-2.5
	C1385.5,353.3,1386.3,352.1,1387.1,351.1z M1398.5,365.4l-0.3-0.2v0.3L1398.5,365.4z"/>
<path class="st17" d="M1447.8,216.3c-4.4,0.4-8.8,0.5-13,1.2c-17.6,2.4-33.2,9.4-47.2,20.4c-0.3,0.2-0.4,0.5-0.6,0.8
	c-0.6,0.4-1.3,0.9-1.9,1.3c-23.9,21.4-34.9,48-33,80c1.3,18.2,7.6,34.7,18.3,49.4c0.1,0.4,0.1,1,0.4,1.3c2.7,3.2,5.3,6.6,8.2,9.6
	c1.4,1.4,3.5,2.2,5.2,3.4c0.4,0.5,1,1,1.4,1.5c5.6,4,11,8.4,16.8,11.9c13.8,8.2,29,11.2,44.9,11.9c0,0.4,0,0.6,0,1
	c0,8.9-0.7,9.6-9.7,8c-12.1-2.1-23.9-4.7-35-10c-8.8-4.2-16.5-9.7-24-15.8c-8.1-6.6-14.5-14.7-20-23.4c-6.9-11.1-12-23-14.3-35.8
	c-2.1-12-2.1-24-0.5-36.1c1.5-11.3,4.7-22,10-31.8c8-15,18.7-28,32.9-38c9.2-6.4,18.9-11.7,29.3-15.1c9.6-3.1,19.4-4.7,29.6-4.4
	c1.9,0.1,2.6,0.8,2.5,2.6C1447.9,212.1,1447.9,214.1,1447.8,216.3z"/>
<path class="st14" d="M1395.7,412c-0.9-0.4-1.8-1-2.7-1.4C1394,411,1394.8,411.6,1395.7,412z"/>
<path class="st7" d="M1651.2,531.3c-2.8-1.3-6.1-2.2-8.3-4.3c-5.7-5.1-10.9-10.7-16.4-16.1c-2.9-2.8-5.9-5.4-8.8-8.2
	c-4.1-4.1-8-8.4-12.1-12.5c-4.6-4.7-9.3-9.5-13.9-14.2c-1.9-2-3.9-3.8-5.8-5.7c-10.3-10.2-20.5-20.5-30.7-30.7
	c-3.9-3.9-8.1-7.7-12-11.3c3.7-3.8,6.9-7,10-10.2c2,1.3,4.2,2.1,5.8,3.8c11.6,11.5,23.1,23.2,34.7,34.9c11.3,11.3,22.4,22.6,33.7,34
	c7.5,7.6,15.1,15.1,22.6,22.7c1.3,1.3,2.5,2.3,3.8,3.5c1.1,2.4,2.2,4.8,3.3,7.2c0,1.8,0,3.6,0,5.3c-0.6,0.4-1.3,0.9-2,1.3
	C1653.9,530.9,1652.6,531,1651.2,531.3z"/>
<path class="st5" d="M1657.2,524c-1.1-2.4-2.2-4.8-3.3-7.2c1.6,0.7,3.2,1.4,5.1,2.2C1658.4,520.8,1657.9,522.4,1657.2,524z"/>
<path class="st5" d="M1662.6,532.2c-0.6-0.5-1.3-1.1-2-1.6c0.4-0.4,0.8-0.8,1.3-1.3c0.5,0.7,1.2,1.5,1.7,2.2
	C1663.2,531.9,1663,532,1662.6,532.2z"/>
<path class="st5" d="M1655.3,530.6c0.6-0.4,1.3-0.9,2-1.3c0.1,0.7,0.3,1.4,0.5,3C1656.6,531.5,1655.9,531,1655.3,530.6z"/>
<path class="st18" d="M1660.2,524.5c-0.1,0.1-0.3,0.3-0.4,0.4c-0.1-0.2-0.2-0.3-0.3-0.4c0,0,0.2-0.3,0.2-0.2
	C1659.9,524.3,1660.1,524.4,1660.2,524.5z"/>
<path class="st14" d="M1138,338.4c-2.1-0.4-4-1-6.1-1.1c-1.8-0.1-2.5-0.7-2.5-2.6c0.1-4.9,0.1-9.9,0-14.8c0-1.9,0.7-2.5,2.6-2.5
	c5.1,0.1,10.1,0.1,15.2,0c2.1-0.1,2.9,0.8,2.9,2.9c-0.1,6.3,0,12.7,0,19c-1.9,0-3.9,0-6,0C1142,338.9,1140.1,338.6,1138,338.4z"/>
<path class="st9" d="M1686.4,364.4c-18.2,0.2-33.7-11.6-37.4-28.8c-4.8-21.7,9.1-40.9,29.3-45.1c2.7-0.5,5.5-0.6,8.2-0.9l0,0
	c0,2.4,0,4.8-0.1,7.2c-13.1-0.3-22.8,5.5-28.6,17.2c-9.1,18.6,2.9,40.6,23.3,43.4C1686.5,358.7,1686.5,358.7,1686.4,364.4
	L1686.4,364.4z"/>
<path class="st8" d="M1686.3,296.8c0-2.4,0-4.8,0.1-7.2c2.2,0.4,4.5,0.8,6.7,1.3c0.6,1.9,0.4,3-2.1,2.8c-0.4-0.4-0.8-0.7-1.2-1.1
	c-0.2,0.3-0.3,0.4-0.4,0.7c0.5,0.2,1.1,0.3,1.6,0.4c-0.1,0.8-0.2,1.6-0.3,2.3c3,1.3,6.9-7.2,8.7,1.3c1.2-0.6,2.1-1.3,3.1-1.8
	c5.6,0.4,9,4.6,12,8.5c10.1,13.6,11.3,28.2,2.7,42.8c-6.8,11.3-17.2,17.5-30.8,17.8c0.1-5.6,0.1-5.6-5.4-7c0.8,0,1.5-0.1,2.3-0.1
	c14.1,0.5,24.3-5.5,29.9-18.6c4.2-9.7,3.2-19.1-2.4-28C1705.1,301.9,1696.9,297.2,1686.3,296.8z"/>
<path class="st6" d="M1702.5,295.4c-1,0.6-2.1,1.2-3.1,1.8c-1.8-8.6-5.6,0-8.7-1.3c0.1-0.7,0.2-1.5,0.3-2.3l0,0
	c2.4,0.4,2.6-0.9,2.1-2.8C1696.6,291.4,1700.5,291.6,1702.5,295.4z"/>
<path class="st14" d="M1345.3,424.3c-0.4,2.7-2.5,1.3-4,1.6C1342.7,425.3,1344,424.8,1345.3,424.3z"/>
<path class="st13" d="M1606.9,305c0.8-0.8,1.7-1.5,2.5-2.3C1608.6,303.5,1607.8,304.3,1606.9,305z"/>
<path class="st14" d="M1129.5,225c0-2.9-0.2-5.7,0.1-8.6c0.1-0.8,1.4-2.2,2.2-2.2c5.2-0.2,10.4-0.2,15.6-0.1c2.1,0,3.1,0.5,2.9,3.4
	c-0.4,5.1-0.1,10.3,0.3,15.5c0.2,2.1-0.3,3-2.5,3c-5.3-0.1-10.5-0.1-15.8,0c-2,0-2.8-0.7-2.7-2.7
	C1129.5,230.5,1129.5,227.7,1129.5,225z"/>
<path class="st14" d="M1150.5,178.3c0,6.6-0.1,12.6,0.1,18.6c0,2.1-0.4,3.2-2.6,3.2c-5.4,0-10.8,0.1-16.2-0.1
	c-0.8,0-2.2-1.4-2.2-2.2c-0.2-5.7-0.2-11.4,0-17.2c0-0.8,1.3-2.1,2-2.1C1137.6,178.2,1143.8,178.3,1150.5,178.3z"/>
<path class="st19" d="M1385.6,385.1c-0.4-0.5-1-1-1.4-1.5c2-2.1,3.9-4.3,5.9-6.5c2.9-3.3,5.6-6.6,8.4-9.9h-0.1
	c0.3-0.3,0.5-0.5,0.8-0.7c0.5-0.3,1.1-0.5,1.6-0.8c0.3-0.3,0.4-0.4,0.7-0.7c2.9-3.1,5.7-6.3,8.6-9.4c-0.4,1.1-0.5,2.3-1.3,3.2
	c-3.5,4-6.9,8-10.6,11.8c-1.7,1.7-1.1,3.1,0,4.3c3.6,3.9,7.6,7.6,11,11.6c2.4,2.9,5.1,5.2,8.5,6.5c0.4,0.2,0.5,0.8,1.1,1.6
	c-1.1,0.1-2,0.4-2.5,0.2c-5.1-2.6-10.3-5.1-15.2-8c-2.9-1.7-5.4-4-8-6c-1.6-1.3-3.3-2.2-4.7,0.4
	C1387.7,382.6,1386.6,383.8,1385.6,385.1z"/>
<path class="st19" d="M1414.2,253.8c-2.1-4.6-4.1-9.5-9-12c-1.8-0.9-3.7-1.8-5.5-2.6c7.6-5.3,16.1-8.7,24.8-11.3
	c4.6-1.3,9.3-1.9,14-2.5c3.8-0.4,7.7-0.8,11.4-0.6c10.7,0.4,21.2,2.6,31.1,7.1c2.4,1.1,4.8,2.1,7.1,3.2c0.6,0.3,1,1.1,1.4,1.6l0,0
	c-9.4-0.4-18.9-1.3-28.2-1.2c-4.8,0-9.7,1.4-14.5,2.2C1434.4,239.9,1424.2,246.6,1414.2,253.8z"/>
<path class="st19" d="M1361.2,320c6.6,0.2,13.2,0.4,19.8,0.5c0.3,5.4-0.1,10.8,0.9,16c1,4.9,1.5,10.3,5.1,14.4
	c-0.8,1.2-1.6,2.3-2.4,3.5c-1,1.3-2,2.5-2.9,3.8c-0.3,0.3-0.4,0.5-0.7,0.8v-0.1c-0.9,0.9-1.8,1.8-2.7,2.7l0,0
	c-1.3,1-2.5,1.9-3.8,2.9c0.5-1.3,1.1-2.8,1.3-3.3c-1.1-1-2-1.6-2.6-2.4s-1-1.9-1.5-2.9c-2.1-4.2-4.3-8.2-6.3-12.5
	c-0.8-1.8-0.8-4-1.6-5.8C1361.3,331.9,1361.1,326,1361.2,320z"/>
<path class="st19" d="M1489.7,236.6c0.5,0.2,1.1,0.3,1.7,0.4c-0.2,0.3-0.3,0.4-0.4,0.7C1490.5,237.3,1490.1,236.9,1489.7,236.6
	L1489.7,236.6z"/>
<path class="st20" d="M1381.7,358.3c1-1.3,2-2.5,2.9-3.8c2.5-0.9,3.2,0.1,3.9,2.5c1,3.1,2.7,6.2,4.4,9c0.5,0.9,2.1,1.2,3.3,1.7
	c-1.3,1.7-2.6,3.4-4,5c-1.3,1.4-2.7,3.7-4.2,3.8c-1.3,0.2-3.3-1.8-4.4-3.3c-2.5-3.5-7.4-6-5.4-11.6l0,0c2,0.2,2.9-0.6,2.7-2.7v0.1
	C1381.3,358.8,1381.4,358.6,1381.7,358.3z"/>
<path class="st10" d="M1378.4,361.6c-2.1,5.6,2.9,8.1,5.4,11.6c1.1,1.5,3,3.5,4.4,3.3c1.5-0.2,2.9-2.4,4.2-3.8c1.4-1.6,2.7-3.3,4-5
	c0.7-0.2,1.4-0.4,2.1-0.5c-2.8,3.3-5.5,6.6-8.4,9.9c-1.9,2.2-3.9,4.4-5.9,6.5c-1.8-1.1-3.8-2-5.2-3.4c-2.9-3-5.5-6.3-8.2-9.6
	c-0.3-0.3-0.2-0.8-0.4-1.3l0.1-0.2l-0.1-0.2c1.2-1.3,2.3-2.5,3.6-3.8l-0.2-0.1c0.2-0.3,0.4-0.5,0.6-0.8v0.1
	C1375.8,363.5,1377.1,362.6,1378.4,361.6z"/>
<polygon class="st10" points="1398.5,365.4 1398.2,365.5 1398.2,365.3 "/>
<path class="st10" d="M1399.2,366.4c-0.3,0.3-0.5,0.5-0.8,0.7C1398.7,367,1399,366.7,1399.2,366.4z"/>
<path class="st14" d="M1401.5,364.9c-0.3,0.3-0.4,0.4-0.7,0.7C1401.1,365.4,1401.3,365.2,1401.5,364.9z"/>
<path class="st14" d="M1361.2,320c-0.1,6,0.2,11.9,2.7,17.6c0.8,1.8,0.8,4,1.6,5.8c2,4.2,4.1,8.3,6.3,12.5c0.4,1,0.9,2,1.5,2.9
	c0.6,0.8,1.4,1.4,2.6,2.4c-0.2,0.5-0.7,2-1.3,3.3v-0.1c-0.2,0.3-0.4,0.5-0.6,0.8l0.2,0.1c-2.5,0-3.5,1.5-3.5,3.8l0.1,0.2l-0.1,0.2
	c-10.7-14.7-17-31.2-18.3-49.4C1355.2,320,1358.2,320,1361.2,320z"/>
<path class="st6" d="M1691,293.5c-0.5-0.2-1.1-0.3-1.6-0.4c0.2-0.3,0.3-0.4,0.4-0.7C1690.2,292.8,1690.6,293.1,1691,293.5
	L1691,293.5z"/>
<path class="st10" d="M1381,358.9c0.3,2.1-0.6,2.9-2.7,2.7C1379.2,360.8,1380.1,359.8,1381,358.9z"/>
<path class="st10" d="M1381.7,358.3c-0.3,0.3-0.4,0.5-0.7,0.8C1381.3,358.8,1381.4,358.6,1381.7,358.3z"/>
<path class="st19" d="M1370.5,369.1c0.1-2.3,1-3.8,3.5-3.8C1372.9,366.5,1371.7,367.9,1370.5,369.1z"/>
<path class="st19" d="M1373.9,365.3c0.2-0.3,0.4-0.5,0.6-0.8C1374.4,364.6,1374.1,364.9,1373.9,365.3z"/>
<g>
	<path class="st21" d="M1031.2,393.5h-62.9c-1.3,0-2.3-1-2.3-2.3v-68.9c0-1.3,1-2.3,2.3-2.3h62.9c1.3,0,2.3,1,2.3,2.3v68.9
		C1033.4,392.5,1032.5,393.5,1031.2,393.5z"/>
	<path class="st21" d="M1031,331.6h-62.9c-1.3,0-2.3-1-2.3-2.3v-7.5c0-1.3,1-2.3,2.3-2.3h62.9c1.3,0,2.3,1,2.3,2.3v7.5
		C1033.3,330.6,1032.3,331.6,1031,331.6z"/>
	<path class="st21" d="M1031,348.8h-62.9c-1.3,0-2.3-1-2.3-2.3v-13.1c0-1.3,1-2.3,2.3-2.3h62.9c1.3,0,2.3,1,2.3,2.3v13.1
		C1033.3,347.8,1032.3,348.8,1031,348.8z"/>
	<path class="st21" d="M982.4,393.2h-15c-0.9,0.6-1.7-0.1-1.7-1.1v-41.5c0-0.9,0.8-1.7,1.7-1.7h15c0.9,0,1.7,0.8,1.7,1.7v41.6
		C984.1,393.1,983.4,393.9,982.4,393.2z"/>
	<line class="st21" x1="992.1" y1="356.8" x2="1023.9" y2="356.8"/>
	<line class="st21" x1="991.6" y1="364.9" x2="1023.3" y2="364.9"/>
	<line class="st21" x1="991.2" y1="373.4" x2="1023" y2="373.4"/>
	<line class="st21" x1="990.7" y1="381.5" x2="1022.4" y2="381.5"/>
	<line class="st21" x1="979.3" y1="338.4" x2="1000.5" y2="338.4"/>
	<line class="st21" x1="978.7" y1="343.2" x2="1010.6" y2="343.2"/>
	<circle class="st21" cx="972.8" cy="340.9" r="4.6"/>
</g>
<g>
	<path class="st21" d="M1165.6,561.6h-41.3c-1.3,0-2.3-1-2.3-2.3v-45.4c0-1.3,1-2.3,2.3-2.3h41.3c1.3,0,2.3,1,2.3,2.3v45.4
		C1167.9,560.6,1166.9,561.6,1165.6,561.6z"/>
	<path class="st21" d="M1165.5,519.6h-41.4c-1.3,0-2.3-1-2.3-2.3v-3.6c0-1.3,1-2.3,2.3-2.3h41.3c1.3,0,2.3,1,2.3,2.3v3.6
		C1167.8,518.5,1166.8,519.6,1165.5,519.6z"/>
	<path class="st21" d="M1165.5,531.3h-41.4c-1.3,0-2.3-1-2.3-2.3v-7.5c0-1.3,1-2.3,2.3-2.3h41.3c1.3,0,2.3,1,2.3,2.3v7.5
		C1167.8,530.2,1166.8,531.3,1165.5,531.3z"/>
	<path class="st21" d="M1133.3,561.4h-10.2c-0.6,0.4-1.2-0.1-1.2-0.7v-28.2c0-0.6,0.5-1.2,1.2-1.2h10.2c0.6,0,1.2,0.5,1.2,1.2v28.2
		C1134.3,561.3,1133.9,561.9,1133.3,561.4z"/>
	<line class="st21" x1="1139.8" y1="536.7" x2="1161.4" y2="536.7"/>
	<line class="st21" x1="1139.4" y1="542.2" x2="1161.1" y2="542.2"/>
	<line class="st21" x1="1139.2" y1="548" x2="1160.8" y2="548"/>
	<line class="st21" x1="1138.8" y1="553.6" x2="1160.4" y2="553.6"/>
	<line class="st21" x1="1131" y1="524.2" x2="1145.5" y2="524.2"/>
	<line class="st21" x1="1130.8" y1="527.5" x2="1152.3" y2="527.5"/>
	<circle class="st21" cx="1126.7" cy="525.9" r="3.1"/>
</g>
<g>
	<path class="st21" d="M1643.6,419h-25.5c-1.3,0-2.3-1-2.3-2.3v-28.1c0-1.3,1-2.3,2.3-2.3h25.5c1.3,0,2.3,1,2.3,2.3v28.2
		C1646,418,1644.9,419,1643.6,419z"/>
	<path class="st21" d="M1643.6,391.5h-25.5c-1.3,0-2.3-1-2.3-2.3v-0.8c0-1.3,1-2.3,2.3-2.3h25.5c1.3,0,2.3,1,2.3,2.3v0.8
		C1645.9,390.5,1644.9,391.5,1643.6,391.5z"/>
	<path class="st21" d="M1643.6,399.1h-25.5c-1.3,0-2.3-1-2.3-2.3v-3.3c0-1.3,1-2.3,2.3-2.3h25.5c1.3,0,2.3,1,2.3,2.3v3.3
		C1645.9,398.1,1644.9,399.1,1643.6,399.1z"/>
	<path class="st21" d="M1623.3,418.9h-6.7c-0.4,0.3-0.7,0-0.7-0.4V400c0-0.4,0.4-0.7,0.7-0.7h6.7c0.4,0,0.7,0.4,0.7,0.7v18.5
		C1624,418.8,1623.7,419.2,1623.3,418.9z"/>
	<line class="st21" x1="1627.6" y1="402.6" x2="1641.7" y2="402.6"/>
	<line class="st21" x1="1627.4" y1="406.3" x2="1641.5" y2="406.3"/>
	<line class="st21" x1="1627.1" y1="410" x2="1641.3" y2="410"/>
	<line class="st21" x1="1626.9" y1="413.7" x2="1641.1" y2="413.7"/>
	<line class="st21" x1="1621.8" y1="394.5" x2="1631.3" y2="394.5"/>
	<line class="st21" x1="1621.7" y1="396.6" x2="1635.8" y2="396.6"/>
	<circle class="st21" cx="1619" cy="395.6" r="2.1"/>
</g>
<linearGradient id="SVGID_1_" gradientUnits="userSpaceOnUse" x1="1" y1="402.078" x2="1920.9999" y2="402.078" gradientTransform="matrix(1 0 0 -1 0 800)">
	<stop  offset="2.033214e-07" style="stop-color:#CD8708;stop-opacity:0.75"/>
	<stop  offset="0.1597" style="stop-color:#C98508;stop-opacity:0.6302"/>
	<stop  offset="0.3017" style="stop-color:#BF7E08;stop-opacity:0.5237"/>
	<stop  offset="0.4369" style="stop-color:#AC7207;stop-opacity:0.4223"/>
	<stop  offset="0.568" style="stop-color:#936106;stop-opacity:0.324"/>
	<stop  offset="0.6962" style="stop-color:#724B05;stop-opacity:0.2279"/>
	<stop  offset="0.8221" style="stop-color:#493104;stop-opacity:0.1335"/>
	<stop  offset="0.9438" style="stop-color:#1A1203;stop-opacity:4.212701e-02"/>
	<stop  offset="1" style="stop-color:#020202;stop-opacity:0"/>
</linearGradient>
<rect x="1" y="-2.1" class="st22" width="1920" height="800"/>
</svg>
