<?xml version="1.0" encoding="utf-8"?>
<!-- Generator: Adobe Illustrator 24.1.1, SVG Export Plug-In . SVG Version: 6.00 Build 0)  -->
<svg version="1.1" id="Layer_1" xmlns="http://www.w3.org/2000/svg" xmlns:xlink="http://www.w3.org/1999/xlink" x="0px" y="0px"
	 viewBox="0 0 1920 800" style="enable-background:new 0 0 1920 800;" xml:space="preserve">
<style type="text/css">
	.st0{fill:#FFFFFF;}
	.st1{fill:url(#SVGID_1_);}
	.st2{fill:#C9C9C9;}
	.st3{fill:#CACACA;}
	.st4{fill:#FEFEFE;stroke:#93918D;stroke-miterlimit:10;}
	.st5{fill:#5F5F5E;}
	.st6{fill:#EF920C;}
	.st7{fill:#67CA35;}
	.st8{fill:#FFA500;}
	.st9{fill:#68CA37;}
	.st10{fill:#369708;}
	.st11{fill:#0F65C5;}
	.st12{fill:#07C5F6;}
	.st13{fill:#FEFEFE;}
	.st14{fill:#C6DEF3;}
	.st15{fill:#DCDCDC;}
	.st16{fill:#DBDCDC;}
	.st17{fill:#0665C8;}
	.st18{fill:#808080;}
	.st19{fill:#D85F09;}
	.st20{fill:#E7E7E7;}
	.st21{fill:#0976D5;}
	.st22{fill:none;stroke:#FFA500;stroke-miterlimit:10;}
</style>
<g>
	<rect x="-2.8" y="0.8" class="st0" width="1923" height="796"/>
	
		<linearGradient id="SVGID_1_" gradientUnits="userSpaceOnUse" x1="1033.9946" y1="400.3312" x2="1919.75" y2="400.3312" gradientTransform="matrix(1 0 0 -1 1 797.99)">
		<stop  offset="0" style="stop-color:#FAE5E7"/>
		<stop  offset="1" style="stop-color:#ECEEFA"/>
	</linearGradient>
	<path class="st1" d="M1547.3,793.5c0,0,202.4-12.9,372.4-107.5l1-683.2l-885.8-1c0,0,437.2,187.8,185.5,518.2
		c-18.8,24.4-30.7,53.5-34.5,84.1c-8.9,77.6,31.9,194.1,361,189L1547.3,793.5z"/>
</g>
<g>
	<path class="st2" d="M1702.1,588.3c0-14.7,0.1-29.4-0.1-44.1c0-2.1,0.5-2.8,2.7-2.8c5.6,0.1,5.6,0,5.6,5.7c0,13.8,0,27.5,0,41.2
		C1707.7,588.3,1704.9,588.3,1702.1,588.3z"/>
	<path class="st3" d="M1669,588.3c0-14.7,0.1-29.4-0.1-44.1c0-2.1,0.5-2.8,2.8-2.8c5.2,0.1,5.2,0,5.2,5.2c0,13.9,0,27.8,0,41.7
		C1674.2,588.3,1671.7,588.3,1669,588.3z"/>
	<path class="st4" d="M1583.2,402c-57.9,0-116,0-174,0c-4.2,0-6.3-2.1-6.3-6.3c0-10.5,0.1-20.9,0.1-31.4c0-1.9,2-4,4-4.2
		c0.8-0.1,1.6-0.1,2.4-0.1c60.7,0,121.5,0,182.3,0c1.7,0,3.4-0.3,5.1-0.4c-2.6,5-5.3,9.8-7.6,14.9
		C1585.3,383.3,1583.7,392.5,1583.2,402z M1414.7,395.9c1.6-3.5,1.6-24.9,0-27.9C1414.7,377.6,1414.7,386.4,1414.7,395.9z"/>
	<path class="st5" d="M1583.2,402c0.7-9.4,2.2-18.7,6-27.5c2.2-5.2,5-9.9,7.6-14.9c3.1-3.8,5.9-7.7,9.3-11.2
		c18.4-19,41.1-27.5,67.3-25.1c22.5,2,40.9,12.1,55.4,29.4c9.4,11.1,15.1,23.9,17.8,38.1c0.4,4.7,0.7,9.5,1.1,14.3
		c0.1,0.4,0.2,1,0.3,1.4c-0.2,1.5-0.3,2.9-0.5,4.4c-1,15.4-5.9,29.3-14.7,41.9c-0.7,1-1.5,2-2.1,2.9c3.5,3.6,7,7.1,10.4,10.8
		c2,2.7,2.2,5.7,2,8.8c-1.9,2.1-3.8,4.3-5.8,6.3c-3,2.9-6.3,3.3-9.9,1.2c-0.4-0.3-1-0.4-1.5-0.5c-3.4-3.8-6.8-7.6-9.6-10.8
		c-7.3,3.8-13.8,7.9-20.8,10.7c-22.5,8.8-44.8,7.7-66.6-2.8c-0.6-0.3-1.2-0.4-1.8-0.7v0.1c-0.7-0.3-1.3-0.7-2-1
		c-1.5-1-3-1.9-4.6-2.9c-4.6-3.8-9.3-7.4-13.9-11.2c-0.1-1.8-1.3-2.7-2.9-2.9c-1.9-2.7-4-5.3-5.8-8c-10.2-14.7-15.2-31.1-14.7-49
		C1583.2,402.9,1583.2,402.4,1583.2,402z M1665.5,334.4c0-1.5,0-3.1,0.1-4.6c0.1-1.3-0.4-1.8-1.8-1.9c-7.4-0.3-14.7,1-21.8,3.2
		c-7.7,2.5-14.9,6.4-21.6,11.1c-10.5,7.4-18.3,16.9-24.2,28c-3.8,7.2-6.3,15.1-7.4,23.4c-1.2,9-1.2,17.7,0.4,26.6
		c1.7,9.5,5.4,18.3,10.5,26.4c4,6.5,8.8,12.4,14.7,17.2c5.5,4.5,11.2,8.5,17.7,11.6c8.2,4,16.9,5.9,25.8,7.4
		c6.6,1.1,7.1,0.7,7.1-5.9c0-0.3,0-0.4,0-0.7c4.6-0.4,9.1-0.5,13.5-1.4c16.7-3.2,30.5-11.5,41.3-24.5c9.1-10.8,14.4-23.3,15.8-37.5
		c0.2-0.3,0.4-0.7,0.4-1c-0.1-4.8-0.1-9.6-0.3-14.4c-0.2-0.8-0.4-1.5-0.5-2.4c-4.9-27.5-20.4-46.2-46.2-56.4
		C1681.5,335.6,1673.6,334.8,1665.5,334.4z"/>
	<path class="st6" d="M1743.2,475.1c0.3-3.2,0.1-6.2-2-8.8c4.3-2.7,6.2-2.5,9.6,0.9c18.3,18.6,36.7,37.1,55.2,55.7
		c6.1,6.1,12.4,12.1,18.3,18.4c5.2,5.5,7.8,12,5.7,19.7c-2.1,0.3-4.3,0.4-6.3,0.7c2.4,2.6,2.6,3.6,0.3,5.2c0-0.1,0.3-0.2,0.5-0.3
		c-0.4-0.5-0.9-1.1-1.3-1.6c-0.3,0.3-0.6,0.6-1,1c0.4,0.4,1,0.8,1.6,1c0.2,0.5,0.3,1.2,0.3,1.8l0,0c-2.1,0-4.3,0-6.7,0
		c-0.7,1.6-2.2,1.2-4,0.4c0.7-1,1.4-2,2-2.9c1-0.1,2-0.3,2.9-0.4c0.4,0.3,1,0.7,1.8,1.3c-0.2-1.2-0.3-1.7-0.4-2.2c0-1.3,0-2.7,0-3.9
		c0.4-1.2,0.9-2.4,1.3-3.7c-1.3-0.6-2.6-1.1-3.8-1.6c-1-0.9-1.9-1.6-2.8-2.6c-5.6-5.5-11.1-11.1-16.6-16.7
		c-8.3-8.3-16.5-16.6-24.8-25c-8.5-8.5-17-17.2-25.6-25.7c-1.2-1.2-2.8-1.8-4.3-2.8c-0.7-0.3-1.3-0.7-1.9-1c0.6-0.3,1.1-0.4,2.1-0.9
		c-0.7-0.6-1.3-1.1-1.3-1.1C1742.5,478.1,1742.8,476.6,1743.2,475.1z M1821.9,561.3c-0.1-0.1-0.2-0.1-0.3-0.2l-0.1,0.1
		c0.1,0.1,0.1,0.2,0.2,0.3C1821.7,561.5,1821.8,561.5,1821.9,561.3z"/>
	<path class="st7" d="M1477.3,451.8c1.5,3.9,3,7.7,4.6,12c-2.4,0.4-4.5,1-6.5,1.3c-7.1,1-14.1,2.1-21.1,3c-0.8,0.1-2.1-0.7-2.6-1.5
		c-4.2-8.3-10.9-12.7-20.2-13.2c-1.7-0.1-2.7-0.6-3-2.4c-1.5-6.3-3.4-12.7-5-18.9c-0.7-2.5-0.9-5.2-1.3-7.7c5-0.1,10.1-0.1,15.1-0.1
		c1.5,0.2,2.9,0.4,4.4,0.7c2.6,0.8,5.2,1.5,7.7,2.4c3.4,1.7,6.7,3.4,10.1,5.1c0.2,0.1,0.4,0.3,0.6,0.4l0,0c0.2,0.1,0.4,0.3,0.6,0.4
		l0,0c0.2,0.1,0.3,0.3,0.5,0.4l0,0c1.3,1,2.5,2.1,3.8,3c1.8,1.8,3.5,3.5,5.3,5.3c0.9,1,1.6,1.9,2.5,2.9c1,1.5,2,2.9,2.9,4.3
		c0.1,0.2,0.3,0.4,0.4,0.6h-0.1C1476.7,450.5,1477,451.1,1477.3,451.8z"/>
	<path class="st8" d="M1414,493.7c1.9,1.3,3.7,2.8,5.7,3.8c6.6,3.4,13.3,3.5,20.1,0.8c1.5-0.6,2.1-0.2,3,0.9
		c5.3,6.6,10.6,13.2,16,19.7c1.5,1.7,0.1,2.4-1,2.9c-10.1,5.9-20.9,8.3-32.6,7.2c-12.7-1.1-23.2-6.5-32.2-15.3c-0.5-0.5-1-1.3-1.3-2
		c0.2-0.4,0.3-1,0.7-1.3c3.2-2.5,6.4-4.9,9.6-7.4C1406,499.9,1409.9,496.7,1414,493.7z"/>
	<path class="st9" d="M1846.1,457.9c-3.5,0.1-7.1,0.3-10.5,0.1c-0.6-0.1-1.5-2.2-1.4-3.4c0.1-2.7-0.6-4-3.5-4.3
		c-1.3-0.1-2,0.1-2.6,1.1c-0.3,0.7-0.8,1.3-1.2,1.8c-1.5,2.4-2.1,2.7-4.7,1.3c-2.1-1.2-4.1-2.4-6.2-3.7c-1.5-1-1.9-2.1-0.9-3.6
		c0.2-0.3,0.4-0.7,0.6-1c1.5-2.4,0.7-5.2-2-6c-0.8-0.3-2,0.4-2.8,0.9c-3.8,2.1-3.9,2.1-6-1.4c-1-1.6-2-3.4-2.9-5.1
		c-1-1.8-0.8-3.2,1.1-4.3c0.3-0.1,0.5-0.4,0.9-0.5c1.9-1,3.2-2.1,1.8-4.5c-0.3-0.5-0.3-1.3-0.5-2.1c-1.5,0-3,0-4.6,0
		c-2,0-3-0.9-2.9-2.9c0.1-2.4,0.1-4.9,0-7.3c-0.1-2.1,0.7-3.1,2.8-3c0.7,0,1.3,0,2,0c2.5,0,4.3-3.1,3.1-5.2c-0.3-0.6-1-1-1.6-1.3
		c-3.2-1.7-4.2-2.8-1.6-6.4c1.1-1.5,2.1-3.2,2.9-5c0.9-1.9,2.1-1.8,3.5-1.1c1.3,0.6,2.6,1.3,4.5,2.2c0.4-0.6,0.7-1.4,1.3-1.9
		c1.5-1.4,1.8-2.7,0.7-4.6c-2.1-3.4-1.8-4,1.5-6c1.6-1,3.4-2,5-2.9c1.7-1,3-0.8,4,1c0.3,0.4,0.6,0.8,0.7,1.3c1,3.2,3.4,1.6,5.2,1.5
		c2-0.2,1.1-2,1.3-3.2c0.1-0.7,0-1.3,0.1-2c0.1-1.7,0.7-2.9,2.9-2.7c1.7,0.2,3.4,0.1,5.2,0.1c0,4.9,0,9.7,0,14.6
		c-2.1,0.2-4,0.3-6,0.7c-14.9,3.1-25.1,17.3-21.6,33.2c2.8,12.6,14.1,21.3,27.5,21.2c0,4.8,0,9.6,0,14.6
		C1842.9,457.9,1844.5,457.9,1846.1,457.9z"/>
	<path class="st8" d="M1769.4,385.6c0.1-0.7,0.2-1.5,0.5-2.1c0.8-1.6,0.5-2.9-1-4c-1.5-1-2.8-1.4-4.5-0.3c-3.4,2.1-4,1.8-5.8-1.8
		c-0.1-0.3-0.3-0.6-0.4-0.9c-1.8-3.2-1.8-3.2,1.5-5.1c1.5-0.9,2.7-1.6,2.5-3.7c-0.3-2.1-1.5-3-3.4-3.5c-3.5-1-3.5-1.1-2.4-4.7
		c0.2-0.7,0.3-1.5,0.5-2.1c0.4-1.9,1.5-2.8,3.5-2.1c1,0.3,2.2,0.7,3.3,0.5c2.6-0.4,3.5-3.2,2.2-5.7c-1.8-3.4-1.6-3.9,1.8-5.7
		c0.2-0.1,0.4-0.3,0.7-0.3c4.3-2.4,3.8-1.5,5.7,1.9c1,1.8,2.3,1.7,3.8,1.7c1.5-0.1,2.5-0.9,2.9-2.4c1.3-4.4,1.3-4.4,5.8-2.9
		c3.5,1,3.3,1,2.8,4.7c-0.2,1.4,0.5,3.2,1.4,4.3c1,1.5,2.7,1.4,4.3,0.4c2.9-1.6,2.9-1.5,5.2,1.4c0.2,0.3,0.6,0.4,0.7,0.7
		c1.6,3.2,2.6,3.8-1.3,5.9c-1.2,0.7-2.4,1.1-2.3,2.9c0.1,3.2,0.3,3.6,4,4.5c2,0.4,2.7,1.3,2.1,3.2c-0.2,0.5-0.2,1.1-0.3,1.6
		c-1.3,4.5-1.3,4.3-5.9,3.4c-1-0.2-2.5,0.4-3.4,1.2c-1.1,1-1.8,2.4-0.7,3.9c0.3,0.5,0.9,1,1.1,1.5c0.7,1.5,1,2.9-1,3.8
		c-1.3,0.5-2.4,1.3-3.5,2.1c-1.3,0.8-2.3,0.6-3.1-0.7c-0.4-0.7-0.8-1.7-1.5-2.2c-0.9-0.7-2-1.5-2.9-1.5c-1.1,0.1-2.6,1-3,1.9
		c-2.1,4.3-2.1,4.3-7,3.2C1770.7,388,1769.2,387.8,1769.4,385.6z M1779.9,358c-4.5,0.1-7.5,2.9-7.5,7.3c0,4.4,3.2,7.5,7.7,7.5
		c4.3-0.1,7.6-3.2,7.4-7.5C1787.3,361.1,1783.7,357.4,1779.9,358z"/>
	<path class="st10" d="M1846.1,457.9c-1.5,0-3.2,0-4.9,0c0-4.9,0-9.7,0-14.6l0,0c10-0.2,17.7-4.7,22.7-13.1
		c6.4-10.7,5.5-21.5-2-31.5c-2.1-2.9-4.6-5.9-8.8-6.3c-1.5-2.8-4.3-2.9-7.1-3.4c-1.6-0.3-3.3-0.6-4.9-1l0,0c0-4.9,0-9.7,0-14.6
		c0.8,0,1.6,0,2.4-0.1c2-0.1,2.8,0.8,2.8,2.7c0,0.3,0,0.7,0,1c0.1,3.6,1,4.7,4.6,4.5c0.5,0,1.1-0.7,1.5-1.3c2.8-4.8,2.9-4.8,7.7-1.8
		c1.3,0.8,2.5,1.5,3.8,2.1c2.1,1,2.1,2.4,1.1,4.2c-0.1,0.2-0.3,0.4-0.4,0.7c-1.5,2.7-1,5.2,1.9,6.1c0.8,0.3,2.1-0.4,3-1
		c3.5-1.9,4-1.8,5.9,1.7c0.9,1.6,1.8,3.2,2.8,4.9c1,1.8,0.9,3.2-1.1,4.2c-0.3,0.1-0.6,0.3-0.9,0.4c-2.4,1.4-2.9,4.1-1.3,6.3
		c0.3,0.3,0.8,0.4,1.3,0.5c0.9,0.1,1.8,0.1,2.7,0c2.9,0,3.4,0.4,3.4,3.4c0,2,0,3.9,0,5.9c0,3.5-0.5,4.1-3.9,3.9
		c-2.6-0.2-3.6,0.7-4,3.2c-0.3,1.7-0.1,2.5,1.5,3.4c4.1,2.1,4.1,2.5,1.8,6.6c-0.9,1.5-1.5,3-2.4,4.5c-1,1.7-2.3,2.4-4.2,1.3
		c-1.2-0.7-2.4-1.3-3.7-2c-0.3,0.3-0.7,0.6-1,0.9c-2.9,2.7-2.9,2.7-1,6.2c1.5,2.5,1.3,3.2-1.2,4.6c-1.9,1.2-3.9,2.3-5.9,3.4
		c-1.5,0.9-2.9,0.9-4-0.8c-0.9-1.3-1.5-3-2.7-3.5c-1.1-0.4-2.8,0.5-4.1,0.9c-0.3,0.7-1,1.3-1,1.9c-0.2,1.5-0.1,3-0.1,4.6
		c-0.1,0.1-0.1,0.3-0.3,0.3l-0.1,0.1C1846.3,457.8,1846.2,457.9,1846.1,457.9z"/>
	<path class="st8" d="M1388.4,507.6c-2.1-3.3-4.4-6.5-6-9.9c-4.3-9.2-5.3-18.9-3.8-28.9c0.6-3.8,1.8-7.4,2.7-11.4
		c1.1,0.3,1.8,0.3,2.3,0.5c7.6,3.8,15.2,7.7,22.6,11.6c0.7,0.4,1.5,1.6,1.4,2.4c-1.2,6,0,11.7,2.9,17c0.1,0.3,0.2,0.6,0.3,1
		c0,0.1,0,0.4-0.1,0.4c-5.3,4.3-10.7,8.8-16.1,13C1392.6,504.8,1390.5,506.1,1388.4,507.6z"/>
	<path class="st11" d="M1603.8,460.4c1.6,0.3,2.8,1.1,2.9,2.9c-4,4.6-8,9.1-12.1,13.5c-1.3,1.4-1.9,2.6-1.5,4.5
		c0.2,0.8-0.1,1.8-0.3,2.7c-1,1.2-1.8,2.4-2.8,3.5c-1,0.4-2,0.8-2.9,1.2v-0.1c-1.6-0.7-3.5-1-4.8-2.1c-1.1-1-2.1-2.7-2.3-4
		c-0.2-1.8-1-2.7-2.5-3.4c-8.2-3.8-16.2-7.7-24.3-11.7c-1.5-0.7-2.8-1.2-4.3-0.3c-0.7,0.4-1.6,0.7-2.3,0.5c-2.4-0.6-3.7,0.7-5.1,2.2
		c-11,13.2-22,26.3-33.1,39.4c-0.1,0.2-0.2,0.4-0.3,0.7c-0.3,1-1,2-0.9,2.9c0.1,3.8-2.4,6.6-6.3,7.3c-2.7,0.4-6.8-2.8-6.9-5.8
		c0-0.7-0.4-1.6-1-2c-3.7-2.2-7.4-4.3-11.1-6.5c-1.9-1-3.8-2.1-5.8-3.1c0.7-1.5,1.5-2.9,2.1-4.3c5.2,3.1,10.5,6.3,15.8,9.2
		c0.7,0.4,1.8,0.3,2.8,0.2c2-0.2,3.9-0.5,5.8-0.9c1-0.2,2.1-0.3,2.7-1c11.5-13.5,22.9-27,34.2-40.6c0.4-0.5,0.6-1.5,0.4-2.3
		c-0.9-4.1,1.3-8,5-8.5c4.2-0.7,7.4,1.8,8,6.4c0.1,0.7,0.5,1.6,1.1,1.9c5.7,2.8,11.6,5.4,17.4,8.2c2.7,1.3,5.3,2.5,8,3.8
		c1.3,1.2,2.5,1.6,4.3,0.6c1-0.7,2.7-0.7,4-0.4c1.8,0.4,2.8-0.3,3.9-1.5c3.8-4.2,7.6-8.4,11.3-12.6
		C1603,460.8,1603.5,460.6,1603.8,460.4z"/>
	<path class="st6" d="M1743.2,475.1c-0.3,1.5-0.7,3-1,4.9c0,0,0.6,0.5,1.3,1.1c-1,0.4-1.5,0.7-2.1,0.9c0.7,0.3,1.3,0.7,1.9,1
		c-2.3,2.4-4.6,4.7-7.4,7.5c2.8,2.7,5.9,5.4,8.8,8.3c7.6,7.5,15.1,15.1,22.6,22.6c1.5,1.5,2.9,2.8,4.3,4.2c3.4,3.5,6.8,7,10.2,10.5
		c2.9,3.1,5.9,6.2,8.9,9.2c2.1,2.1,4.3,4,6.5,6c4,4,7.9,8.1,12.1,11.9c1.6,1.5,4,2.1,6.1,3.2c-0.6,1-1.3,1.8-2,2.9
		c1.8,0.7,3.4,1.2,4-0.4c2.4,0,4.6,0,6.7,0c-3.3,2.7-7.1,2.9-11,2.3c-6.5-1-11.3-4.6-15.7-9.4c-4.4-4.9-9.4-9.4-14.1-14.1
		c-8.3-8.3-16.6-16.9-25-25.2c-7.2-7.3-14.6-14.5-21.9-21.7c-3.5-3.5-7.1-7.1-10.5-10.7c-2.2-2.3-2.2-5.3-0.1-8.1
		c0.5,0.2,1,0.3,1.5,0.5c3.7,2.1,6.8,1.8,9.9-1.2C1739.4,479.4,1741.2,477.2,1743.2,475.1z"/>
	<path class="st12" d="M1478.2,498.7c-0.7,1.5-1.5,2.9-2.1,4.3c-2.7,3.8-5.4,7.5-8.3,11.6c-3.4-4-6.2-7.5-9-10.9
		c-2.7-3.2-5.2-6.5-8-9.7c-1.4-1.6-2.4-3.2-0.4-5.2c0.3-0.3,0.3-0.7,0.3-1.1c1.1-1.1,2.3-2.1,1.4-4c0.5-1,1.4-2.1,1.5-3.3
		c0.2-2.1,1.1-3.1,3.3-3.4c8.2-1.1,16.3-2.4,24.4-3.7c2.2-0.3,2.1,1.3,2.1,2.6c-0.1,3.1-0.1,6.3-0.9,9.2
		C1481.4,489.8,1479.7,494.3,1478.2,498.7z"/>
	<path class="st11" d="M1747.6,410.8c0.2-1.5,0.3-2.9,0.5-4.4c4.3,1,8.7,1.9,13,2.9c1.3,0.3,2.1,0.4,3.1-1c2.1-2.8,4.9-3.3,8.2-2.1
		c0.7,0.3,2,0.2,2.5-0.3c2.7-2.1,5.2-4.2,7.7-6.4c0.6-0.6,1.3-1.1,1.8-1.7c0.2-0.1,0.4-0.3,0.6-0.4c4.2-3.4,8.4-6.8,12.6-10.2
		c11.7-9.7,23.5-19.4,35.2-29.2c1.3-1,2.7-2,4-2.9l0,0c2.8-2.3,5.2-4.9,8.3-6.8c2.1-1.5,3.4-2.8,2.8-5.4c0.3-3.1,4.8-5.4,8.2-4.2
		c3.9,1.3,5.7,4.9,4.2,8.7c-1.3,3.5-5.5,5.3-9,3.5c-1.5-0.7-2.1-0.4-3.1,0.5c-13.8,11.4-27.5,22.8-41.4,34.1
		c-9.6,8-19.4,15.9-28.9,24c-0.9,0.7-1.5,2.1-1.6,3.2c-0.5,2.7-2.4,5.2-4.9,5.8c-2.9,0.7-5.3-0.3-7.3-2.6c-0.9-1-2.1-2-3.4-2.3
		C1756.3,412.6,1751.9,411.8,1747.6,410.8z"/>
	<path class="st11" d="M1452,483.8c1,1.8-0.2,2.9-1.4,4c-3.7-2.1-7.4-4.5-11.1-6.5c-0.9-0.4-2.1-0.1-3.2-0.1c-2,0.1-3.9,0.4-5.9,0.6
		c-1.1,0.1-2.5-0.1-3.2,0.5c-4.5,3.5-8.8,7.1-13.1,10.8c-0.1,0.1-0.1,0.3-0.2,0.4c-4,3.1-7.9,6.3-11.9,9.4c-3.2,2.5-6.5,4.9-9.6,7.4
		c-0.3,0.3-0.4,0.9-0.7,1.3c-0.6,0.4-1.1,0.8-1.7,1.2c-2.1,1.5-4.3,3.1-6.3,4.7c-4.9,4-9.8,8.1-14.7,12.1c-1.9,1.5-4,2.8-5.7,4.5
		c-0.6,0.6-0.8,1.9-0.7,2.9c0.3,3.1-0.7,5.7-3.2,7.1c-2.4,1.3-4.7,1.4-7.1-0.3c-2.6-1.9-3.5-4.9-2.5-7.7c1-2.8,3.8-4.6,6.8-4.3
		c1.8,0.3,2.9-0.3,4.1-1.3c8.5-6.9,17-13.8,25.4-20.7c0.8-0.7,1.4-1.5,2.1-2.3c2.1-1.5,4.1-2.8,6.1-4.3c5.4-4.3,10.8-8.7,16.1-13
		c0.1-0.1,0.1-0.3,0.1-0.4c4.1-3.2,8.2-6.4,12.4-9.6c1.9-1.5,3.3-2.9,3.3-5.7c0-3,2.9-5.3,5.9-5.4c3.6-0.1,6,1.7,7,5.1
		c0.3,1,1.2,2.2,2.1,2.9C1444.8,479.4,1448.4,481.6,1452,483.8z"/>
	<path class="st13" d="M1386.3,448.5c6.1-10.2,14.7-17,25.8-21.2c0.3,0.4,0.7,0.7,0.7,1c2.2,8.5,4.6,17,6.6,25.5
		c0.2,0.7-0.4,1.9-1,2.5c-1.7,1.5-3.5,3.1-5.4,4.4c-0.7,0.4-1.9,0.5-2.6,0.2c-6.6-3.3-13.3-6.7-19.8-10.2
		C1389.2,450.1,1387.7,449.3,1386.3,448.5z"/>
	<path class="st2" d="M1620.6,474.5c1.5,1,3,1.9,4.6,2.9c0.7,0.3,1.3,0.7,2,1v-0.1c0.1,17.5,0.3,34.9,0.4,52.3c0,3.9,0,3.9-3.9,3.9
		c-0.6,0-1.1-0.1-1.7,0c-2,0.2-2.8-0.5-2.8-2.7c0.1-18.3,0-36.7,0.1-55C1619.3,476.2,1620.2,475.3,1620.6,474.5z"/>
	<path class="st2" d="M1590,487.5c1-1.2,1.8-2.4,2.8-3.5c0.4-0.1,1-0.3,1.6-0.6c0,11.3,0,22.6,0,33.9c0,4.7,0,9.4,0,14.1
		c0,2.8-0.4,3.2-3.3,3.2c-5.9-0.1-4.9,0.7-4.9-4.8c-0.1-12.6-0.1-25.1,0-37.8c0-1.1,0.6-2.2,1-3.4v0.1
		C1588.1,488.6,1589.7,489.5,1590,487.5z"/>
	<path class="st3" d="M1610.5,510c0,7.4-0.1,14.7,0.1,22.2c0,2-0.6,2.6-2.5,2.5c-6.4-0.2-5.2,0.9-5.3-5.2c-0.1-13.8,0-27.5-0.1-41.4
		c0-2.1,0.6-2.8,2.8-2.8c5.1,0.1,5.1,0,5.1,5.2C1610.5,497,1610.5,503.5,1610.5,510z"/>
	<path class="st2" d="M1560.8,513.4c0,6.3-0.1,12.5,0.1,18.8c0,1.9-0.5,2.5-2.5,2.5c-5.9,0-5.9,0.1-5.9-5.9c0-11.5,0.1-23-0.1-34.5
		c0-2.3,0.7-3.1,3-3.1c5.2,0.1,5.2,0,5.2,5.2C1560.8,502.1,1560.8,507.7,1560.8,513.4z"/>
	<path class="st2" d="M1718.7,561.6c0-5.9,0.1-11.7-0.1-17.5c-0.1-1.9,0.4-2.7,2.6-2.7c5.8,0.1,5.8,0,5.8,5.8
		c0,10.5-0.1,21.1,0.1,31.7c0,2.4-0.9,3.2-3.1,3.1c-5.9-0.1-5.2,0.5-5.2-5.2C1718.7,571.7,1718.7,566.6,1718.7,561.6z"/>
	<path class="st3" d="M1643.7,563c0,6.3-0.1,12.7,0.1,19c0,1.8-0.5,2.4-2.4,2.4c-6.6-0.2-5.4,0.9-5.4-5.2c-0.1-11.7,0-23.3-0.1-35
		c0-2,0.6-2.7,2.7-2.7c5.2,0.1,5.2,0,5.2,5.3C1643.7,552.1,1643.7,557.6,1643.7,563z"/>
	<path class="st2" d="M1619.2,560.5c0-5.6,0.1-11.2-0.1-16.8c0-1.8,0.6-2.4,2.4-2.4c5.9,0,5.9-0.1,5.9,5.9c0,9.9-0.1,19.8,0.1,29.7
		c0,2.1-1,2.8-2.8,2.9c-5.5,0.4-5.5,0.4-5.5-5C1619.2,570.2,1619.2,565.4,1619.2,560.5z"/>
	<path class="st2" d="M1573.7,495.6c0.7,0,1.3,0,2,0c1.7-0.1,2.1,0.5,1.9,2.4c-0.3,2.7-0.2,5.5-0.2,8.3c0,8.4-0.1,16.9,0.1,25.3
		c0,2.4-0.7,3.1-3.1,3.1c-4.8-0.1-4.8,0-4.8-4.7c0-10.1,0-20.1,0-30.2C1569.5,495.6,1569.5,495.6,1573.7,495.6z"/>
	<path class="st3" d="M1544.2,515.4c0,5.7-0.1,11.4,0,17c0,1.7-0.6,2.4-2.2,2.2c-0.7-0.1-1.5,0-2.1,0c-3.7,0-4-0.3-3.9-4
		c0.2-10.5,0.4-21.1,0.4-31.6c0-2.4,0.7-3.1,3-2.9c5.7,0.3,4.8-0.7,4.9,5C1544.2,505.8,1544.2,510.6,1544.2,515.4z"/>
	<path class="st2" d="M1685.6,557.5c0-4.6,0.1-9.3,0-13.9c0-1.7,0.5-2.2,2.2-2.2c6.1-0.1,6.1-0.1,6.1,5.9c0,8-0.1,15.9,0.1,23.9
		c0,2.1-0.6,3.1-2.9,2.9c-5.2-0.2-5.4,1-5.4-5.4C1685.7,564.9,1685.6,561.3,1685.6,557.5z"/>
	<path class="st2" d="M1505.2,322.5c-16.3,0-32.6,0-49,0c-0.7,0-1.3,0.1-1.9-0.1c-0.6-0.2-1-0.7-1.5-1.1c0.5-0.4,1-1,1.5-1.2
		c0.6-0.2,1.3-0.1,1.9-0.1c32.9,0,65.8,0,98.7,0.1c1.2,0,3-0.9,3.3,1.3c0,0.3-2.1,1-3.2,1C1538.3,322.5,1521.8,322.5,1505.2,322.5z"
		/>
	<path class="st2" d="M1453.2,348.9c-0.3-1.3-0.6-2.6,1.8-2.1c1,0.2,1.9,0.1,2.9,0.1c32.3,0,64.6,0,96.9,0.1c1,0,2.1,0.6,3.2,1
		c-1,0.3-2.1,1-3.2,1c-30.3,0.1-60.7,0.1-91.1,0.1C1460.4,348.9,1456.9,348.9,1453.2,348.9z"/>
	<path class="st2" d="M1558.4,423.9c-0.6,0.3-1.1,0.8-1.7,1c-0.6,0.1-1.3,0.1-1.9,0.1c-33.1,0-66.1,0-99.3,0c-1,0-1.8-0.4-2.8-0.7
		c1-0.4,1.8-1.1,2.8-1.1c33.5-0.1,66.9-0.1,100.4-0.1c0.7,0,1.5,0.1,2.1,0.1C1558.1,423.3,1558.3,423.6,1558.4,423.9z"/>
	<path class="st3" d="M1643.7,522.4c0,3.3-0.1,6.6,0,9.9c0,1.6-0.7,2.3-2.3,2.3c-6.3-0.1-5.4,0.5-5.5-5.2c0-5.7,0.1-11.3,0-17
		c0-1.6,0.4-2.3,2.2-2.2c6.8,0.2,5.4-0.9,5.6,5.4C1643.8,517.8,1643.7,520.1,1643.7,522.4z"/>
	<path class="st3" d="M1499.2,341.5c-14.5,0-28.9,0-43.4-0.1c-1,0-2.1-0.7-3-1c1-0.3,2.1-0.8,3-0.8c29-0.1,58-0.1,87,0
		c1,0,2.1,0.7,3,1c-1,0.3-2.1,0.9-3,0.9C1528.3,341.5,1513.8,341.5,1499.2,341.5z"/>
	<path class="st2" d="M1545.5,417.6c-1,0-1.9,0-2.7,0c-28.9,0-57.9,0-87-0.1c-1,0-2.1-0.7-3.1-1c1-0.3,2-0.9,3-0.9
		c28.9-0.1,57.8-0.1,86.7,0C1543.6,415.7,1545.2,415.2,1545.5,417.6z"/>
	<path class="st2" d="M1545.5,315c-0.9,0.1-1.6,0.2-2.5,0.2c-29.1,0-58.2,0-87.3,0c-0.6,0-1.2,0.1-1.7-0.1c-0.3-0.1-0.9-0.6-0.9-1
		c0-0.4,0.5-0.7,1-0.9c0.4-0.1,1-0.1,1.5-0.1c29.1,0,58.2,0,87.3,0c1,0,1.9,0.4,2.9,0.7C1545.6,314.4,1545.5,314.7,1545.5,315z"/>
	<path class="st2" d="M1652.4,551.2c0-2.7,0.1-5.3,0-8c-0.1-2.4,1.8-2.1,2.9-1.7c1.8,0.5,5-2,5.2,1.6c0.4,5.2,0.2,10.5,0,15.8
		c0,0.7-1,1.8-1.8,1.9c-6.4,1.1-6.4,1-6.4-5.4C1652.4,554,1652.4,552.6,1652.4,551.2z"/>
	<path class="st3" d="M1428.7,340.6c0-2.7,0.1-5.2,0-7.7c-0.1-1.5,0.5-2.1,2-2c5.3,0.1,10.8,0.1,16.1,0c1.5,0,2,0.6,2,2.1
		c-0.1,5.2-0.1,10.5,0,15.8c0,1.8-1,2.7-2.7,2.7c-4.9,0-9.7,0-14.6,0c-1.8,0-2.7-0.9-2.7-2.7
		C1428.7,345.9,1428.7,343.3,1428.7,340.6z M1431.1,340.8c0,2.1,0.1,4,0,6c-0.1,1.5,0.5,2.1,2,2c3.9-0.1,7.7-0.1,11.6,0
		c1.7,0,2-0.7,1.8-2.2c-0.3-3.8-0.4-7.7-0.2-11.4c0.2-2.1-0.6-2.5-2.1-2.5c-3.8-0.1-7.7-0.1-11.5,0.1c-0.6,0-1.5,1-1.6,1.6
		C1431,336.5,1431.1,338.7,1431.1,340.8z"/>
	<path class="st3" d="M1448.6,314.6c0,2.7,0,5.2,0,7.8c0,1.5-0.4,2.4-2.5,2.2c-4.6-0.3-9.3-0.1-13.9-0.1c-3.2,0-3.5-0.3-3.6-3.7
		c0-4.5,0.1-9,0-13.4c-0.1-2.3,1-3.4,3.2-3.4c4.6-0.1,9.1-0.1,13.6,0c2.1,0,3.4,1,3.2,3.5C1448.5,309.9,1448.6,312.2,1448.6,314.6z
		 M1446.6,306.4c-4.9,0-9.5-0.1-14,0.1c-0.5,0-1.5,1-1.5,1.5c-0.1,4.2-0.1,8.4,0,12.7c0,0.6,1,1.6,1.6,1.6c4,0.1,8,0.1,11.9,0.1
		c1.6,0,1.9-0.9,1.9-2.4C1446.5,315.7,1446.6,311.3,1446.6,306.4z"/>
	<path class="st2" d="M1477.3,451.8c-0.3-0.7-0.7-1.3-1-1.9c1.3-0.2,2.6-0.6,3.8-0.6c25-0.1,50.1,0,75.1,0c0.3,0,0.7-0.1,1,0
		c0.7,0.4,1.4,1,2.1,1.5c-0.7,0.3-1.5,1-2.1,1c-25.9-0.1-51.8-0.3-77.7-0.4C1478,451.2,1477.7,451.6,1477.3,451.8z"/>
	<path class="st3" d="M1473,444.9c-0.9-1-1.6-1.9-2.5-2.9c24.3,0,48.6-0.1,72.8,0c1,0,1.8,0.5,2.8,0.8c0,0.3-0.1,0.6-0.1,1
		c-1,0.1-1.9,0.3-2.9,0.3c-20.8,0-41.4,0-62.1,0c-2.1,0-4.1-0.1-6.3,0.1C1474.1,444,1473.6,444.6,1473,444.9z"/>
	<path class="st2" d="M1735.4,549.4c0-2.1,0.1-4,0-6c-0.1-1.5,0.6-2,2.1-2c7.7,0.2,6.1-1.1,6.3,5.9c0.1,2.6-0.1,5.2,0,7.7
		c0.1,1.8-0.7,2.4-2.4,2.4c-5.9,0.1-5.9,0.2-5.9-5.7C1735.4,551.1,1735.4,550.3,1735.4,549.4z"/>
	<path class="st2" d="M1437.4,424.3c-5,0.1-10.1,0.1-15.1,0.1c1.3-0.3,2.7-1,3.9-0.9c2,0.1,2.6-0.7,2.5-2.6c-0.1-3.9,0-7.7-0.1-11.7
		c0-1.8,0.7-2.4,2.4-2.4c5.1,0.1,10.1,0.1,15.2,0c1.3,0,2.1,0.4,2.1,1.7c0.1,2.7,0.3,5.3,0.3,8c0.1,2.5-0.1,5.1,0.1,7.6
		c0.1,1,0.6,2.1,1,3.2c-2.6-0.8-5.2-1.5-7.7-2.4c1.5,0,3,0,4.4,0c0-4.6-0.1-9.3,0-14c0-1.5-0.4-2.1-2.1-2.1c-3.8,0.1-7.4,0.1-11.2,0
		c-1.3,0-1.9,0.4-1.9,1.8c0.1,3.6,0.1,7.3,0,10.9c0,1.4,0.5,1.8,1.8,1.9C1434.4,423.6,1435.9,424,1437.4,424.3z"/>
	<path class="st2" d="M1652.4,522.5c2.1-0.2,3.8-0.3,5.6-0.5c1.5-0.2,2.7,0.3,2.7,2c0.1,2.8,0.1,5.7-0.1,8.5c-0.1,0.7-0.8,1.8-1.4,2
		c-1.9,0.3-3.9,0.2-5.8,0.1c-0.3,0-1-0.7-1-1.1C1652.4,529.7,1652.4,525.9,1652.4,522.5z"/>
	<path class="st3" d="M1471.8,304.4c5.4,0,10.8-0.1,16.3,0.1c0.8,0,1.6,0.5,2.4,0.9c-0.9,0.5-1.7,1.4-2.6,1.5
		c-2.1,0.2-4.2,0.1-6.3,0.1c-8.5,0-17,0-25.6,0c-0.6,0-1.2,0.1-1.7-0.1c-0.6-0.2-1-0.7-1.6-1.1c0.5-0.4,1-1,1.5-1.2
		c0.4-0.2,1.1-0.1,1.7-0.1C1461.2,304.4,1466.4,304.4,1471.8,304.4z"/>
	<path class="st2" d="M1527.6,529.4c-0.1,5.9,0.7,5.2-5.4,5.3c-2.3,0.1-3.2-0.8-2.9-2.9c0-0.3,0-0.4,0-0.7c0-6,0-6,5.7-7
		c1.8-0.3,2.7,0.3,2.6,2.1C1527.6,527.2,1527.6,528.3,1527.6,529.4z"/>
	<path class="st2" d="M1490.3,331.3c0.7,1.9-0.7,2-2.1,2c-9.7,0-19.5,0-29.2,0c-1.5,0-2.9,0.1-4.3-0.1c-0.7-0.1-1.4-0.9-2.1-1.3
		c0.7-0.3,1.5-0.6,2.1-0.7c0.9-0.1,1.8,0.1,2.7,0.1c8,0,15.8,0,23.9,0C1484.3,331.3,1487.2,331.3,1490.3,331.3z"/>
	<path class="st3" d="M1490.3,408.8c-1,0.2-1.9,0.5-2.8,0.5c-10.2,0.1-20.6,0.1-30.9,0c-1.3,0-2.6-0.4-4.2-0.7
		C1454.3,407.1,1488.1,406.8,1490.3,408.8z"/>
	<path class="st2" d="M1610.5,546.3c-0.1,5.2,0.6,4.4-4.6,4.4c-3.2,0-3.2,0-3.2-3.1c0-0.3,0-0.4,0-0.7c0.1-6.3-1.1-5.2,5.5-5.4
		c1.9-0.1,2.4,0.7,2.3,2.4C1610.4,544.6,1610.5,545.4,1610.5,546.3z"/>
	<path class="st2" d="M1465.1,436.7c-1.3-1-2.5-2.1-3.8-3c3.4,0,6.8,0,10.2,0c5.3,0,10.8,0,16.1,0c1.3,0,2.7,0.1,2.9,2.1
		c-0.7,0.1-1.2,0.3-1.8,0.3c-7.4-0.1-14.9-0.1-22.4-0.1C1465.9,435.9,1465.6,436.4,1465.1,436.7z"/>
	<path class="st14" d="M1481.8,506.1c3.8,2.1,7.5,4.2,11.1,6.5c0.5,0.3,1,1.3,1,2c0.1,3,4.1,6.3,6.9,5.8c4-0.7,6.4-3.5,6.3-7.3
		c0-1,0.6-1.9,0.9-2.9c0,1-0.1,1.8,0.1,2.7c1.2,6.5-6.8,10.2-11.8,7.4c-1.6-1-2.9-2.1-2.8-4.3c0.1-1.5-0.4-2.1-2-2.8
		c-3-1.5-5.9-3.3-8.7-5.1C1482.3,507.6,1482.2,506.8,1481.8,506.1z"/>
	<path class="st14" d="M1369.1,529.7c4.9-4,9.7-8.1,14.7-12.1c2.1-1.6,4.2-3.2,6.3-4.7c-1.1,1.3-2.1,2.9-3.3,4
		c-4.5,3.8-9,7.4-13.6,10.9C1372.1,528.7,1370.5,529.1,1369.1,529.7z"/>
	<path class="st6" d="M1824.1,566.8c2.1-1.5,2-2.6-0.4-5.2c2.1-0.2,4.2-0.4,6.3-0.7c-0.9,3.4-2.4,6.3-5.9,7.8
		C1824.1,568.1,1824.1,567.4,1824.1,566.8z"/>
	<path class="st14" d="M1579.3,475.1c-2.7-1.3-5.3-2.5-8-3.8c2.5,0.9,5,1.6,7.5,2.6C1579.1,473.9,1579.1,474.6,1579.3,475.1z"/>
	<path class="st9" d="M1846.9,457.2c0-1.5-0.1-3,0.1-4.6c0.1-0.7,0.7-1.3,1-1.9c-0.2,1.3-0.3,2.7-0.6,4
		C1847.4,455.7,1847.1,456.5,1846.9,457.2z"/>
	<polygon class="st9" points="1846.5,457.7 1846.6,457.6 1846.7,457.7 	"/>
	<path class="st2" d="M1460.3,432.8c-0.2-0.1-0.4-0.3-0.6-0.4C1459.9,432.5,1460,432.6,1460.3,432.8z"/>
	<path class="st2" d="M1460.8,433.2c-0.2-0.1-0.4-0.3-0.6-0.4C1460.5,433,1460.6,433.1,1460.8,433.2z"/>
	<path class="st2" d="M1461.3,433.6c-0.2-0.1-0.3-0.3-0.5-0.4C1461,433.4,1461.2,433.5,1461.3,433.6z"/>
	<path class="st2" d="M1476.4,449.8c-0.1-0.2-0.3-0.4-0.4-0.6C1476.1,449.5,1476.2,449.7,1476.4,449.8z"/>
	<path class="st3" d="M1414.7,395.9c0-9.6,0-18.3,0-27.9C1416.3,371.1,1416.3,392.5,1414.7,395.9z"/>
	<path class="st15" d="M1735.7,412.7c-1.4,14.1-6.6,26.6-15.8,37.5c-10.8,13-24.6,21.4-41.3,24.5c-4.4,0.9-9,1-13.5,1.4
		c-11.6-0.5-22.9-2.7-33.1-8.8c-4.3-2.6-8.3-5.8-12.4-8.8c0.7-1,1.5-1.8,2.1-2.9c1-2,2.2-1.2,3.5-0.3c2,1.5,3.8,3.2,5.9,4.4
		c3.6,2.1,7.4,4,11.2,5.9c0.4,0.2,1-0.1,1.8-0.1c-0.4-0.6-0.5-1-0.8-1.2c-2.6-1-4.5-2.7-6.3-4.8c-2.6-2.9-5.4-5.7-8.1-8.5
		c-0.8-0.9-1.3-1.8,0-3.2c2.8-2.8,5.3-5.7,7.8-8.7c0.5-0.6,0.7-1.5,1-2.4c0.1-0.3,0.2-0.6,0.4-0.8c9-9.8,17.8-19.7,26.9-29.4
		c0.6-0.7,2-1,2.9-1c4.9,0.7,9.2-0.3,12.7-3.8c1.2-1.2,2.1-1.3,3.6-1c11.6,2.8,23.3,5.5,35,8.2
		C1724.8,410.3,1730.3,411.5,1735.7,412.7z"/>
	<path class="st16" d="M1665.5,334.4c8,0.4,16.1,1.3,23.6,4.2c25.8,10.2,41.5,28.9,46.2,56.4c0.1,0.8,0.3,1.5,0.5,2.4
		c-0.7,0.1-1.5,0.6-2.1,0.4c-16.1-3.7-32-7.4-48-11.3c-1-0.2-2-1-2.5-1.9c-3.5-5.9-10.2-8.8-16.7-6.8c-6,1.8-10.5,7.1-10.2,14.3
		c0.1,1.8-0.4,3-1.6,4.3c-7.8,8.5-15.5,17.2-23.3,25.7c-3.5,3.9-7.1,7.7-10.8,11.5c-2.7-3-3-7-3.8-10.6c-0.7-3.8-0.4-7.8-0.7-11.8
		c3.6-0.1,7.2-0.3,10.9-0.4c8.3-0.3,13.7-8.2,13.5-14.7c-0.2-11.3-0.1-22.7-0.1-34c7.4-5.3,14.9-10.2,24.2-11.9
		c3.5-0.6,7.1-1.6,10.7-1.6c6.9,0,13.9,0.5,20.8,0.9c0.3,0.3,0.6,0.5,1,0.8c0.1-0.2,0.2-0.3,0.3-0.5c-0.4-0.1-0.8-0.2-1.3-0.3
		c-0.3-0.4-0.6-1-1-1.2c-1.7-0.9-3.5-1.5-5.2-2.4c-7.3-3.3-14.9-4.8-22.9-5.2c-2.8-0.1-5.7,0.1-8.4,0.4c-3.5,0.4-7,0.9-10.3,1.8
		c-6.5,1.9-12.7,4.4-18.3,8.3c-3.1-0.1-6.2-0.3-9.3-0.4c0.1-0.2,0.3-0.4,0.4-0.6c10.2-8.1,21.8-13.3,34.8-15
		C1659.1,334.8,1662.4,334.6,1665.5,334.4z"/>
	<path class="st17" d="M1620.8,433.6c3.6-3.8,7.2-7.6,10.8-11.5c7.8-8.5,15.5-17.2,23.3-25.7c1.2-1.3,1.7-2.6,1.6-4.3
		c-0.3-7.1,4.1-12.4,10.2-14.3c6.6-2.1,13.2,1,16.7,6.8c0.5,0.9,1.5,1.6,2.5,1.9c16,3.8,32,7.6,48,11.3c0.6,0.1,1.4-0.3,2.1-0.4
		c0.1,4.8,0.2,9.6,0.3,14.4c0,0.3-0.3,0.7-0.4,1c-5.4-1.2-10.9-2.4-16.4-3.6c-11.7-2.7-23.3-5.4-35-8.2c-1.5-0.3-2.5-0.2-3.6,1
		c-3.5,3.5-7.9,4.6-12.7,3.8c-1-0.1-2.2,0.3-2.9,1c-9,9.7-17.9,19.6-26.9,29.4c-0.2,0.2-0.3,0.5-0.4,0.8c-2.1,2.3-4.2,4.6-6.3,6.9
		c-0.2,0.2-0.3,0.3-0.5,0.5c-0.4,0.2-0.8,0.4-1.2,0.6c-0.2,0.2-0.4,0.4-0.6,0.6h0.1c-0.5,0.1-1,0.3-1.5,0.4
		c-0.9-0.4-2.1-0.6-2.4-1.3c-1.3-2.1-2.5-4.3-3.2-6.6c-0.5-1.8-1.1-2.5-2.9-1.8C1619.6,435.3,1620.2,434.4,1620.8,433.6z
		 M1629.2,444.2l-0.2-0.1v0.2L1629.2,444.2z"/>
	<path class="st18" d="M1665.5,334.4c-3.2,0.3-6.5,0.4-9.6,0.9c-13,1.8-24.4,6.9-34.8,15c-0.2,0.1-0.3,0.4-0.4,0.6
		c-0.4,0.3-1,0.7-1.4,1c-17.6,15.8-25.7,35.3-24.3,58.9c1,13.4,5.6,25.6,13.5,36.4c0.1,0.3,0.1,0.7,0.3,1c2,2.4,3.9,4.9,6,7.1
		c1,1,2.6,1.6,3.8,2.5c0.3,0.4,0.7,0.7,1,1.1c4.1,2.9,8.1,6.2,12.4,8.8c10.2,6,21.4,8.2,33.1,8.8c0,0.3,0,0.4,0,0.7
		c0,6.6-0.5,7.1-7.1,5.9c-8.9-1.5-17.6-3.5-25.8-7.4c-6.5-3.1-12.1-7.1-17.7-11.6c-6-4.9-10.7-10.8-14.7-17.2
		c-5.1-8.2-8.8-16.9-10.5-26.4c-1.5-8.8-1.5-17.7-0.4-26.6c1.1-8.3,3.5-16.2,7.4-23.4c5.9-11,13.8-20.6,24.2-28
		c6.8-4.7,13.9-8.6,21.6-11.1c7.1-2.3,14.3-3.5,21.8-3.2c1.4,0.1,1.9,0.6,1.8,1.9C1665.6,331.3,1665.6,332.8,1665.5,334.4z"/>
	<path class="st15" d="M1627.1,478.5c-0.7-0.3-1.3-0.7-2-1C1625.9,477.8,1626.5,478.2,1627.1,478.5z"/>
	<path class="st8" d="M1815.2,566.3c-2.1-1-4.5-1.6-6.1-3.2c-4.2-3.8-8-7.9-12.1-11.9c-2.1-2.1-4.3-4-6.5-6c-3-3-5.9-6.2-8.9-9.2
		c-3.4-3.5-6.8-7-10.2-10.5c-1.4-1.5-2.9-2.8-4.3-4.2c-7.6-7.5-15.1-15.1-22.6-22.6c-2.9-2.9-6-5.7-8.8-8.3c2.7-2.8,5.1-5.2,7.4-7.5
		c1.5,1,3.1,1.5,4.3,2.8c8.5,8.5,17,17.1,25.6,25.7c8.3,8.3,16.5,16.6,24.8,25c5.5,5.6,11.1,11.1,16.6,16.7c1,1,1.8,1.7,2.8,2.6
		c0.8,1.8,1.6,3.5,2.4,5.3c0,1.3,0,2.7,0,3.9c-0.4,0.3-1,0.7-1.5,1C1817.2,566,1816.3,566.1,1815.2,566.3z"/>
	<path class="st6" d="M1819.7,561c-0.8-1.8-1.6-3.5-2.4-5.3c1.2,0.5,2.4,1,3.8,1.6C1820.5,558.6,1820.2,559.8,1819.7,561z"/>
	<path class="st6" d="M1823.6,567c-0.4-0.4-1-0.8-1.5-1.2c0.3-0.3,0.6-0.6,1-1c0.4,0.5,0.9,1.1,1.3,1.6
		C1824.1,566.8,1823.9,566.8,1823.6,567z"/>
	<path class="st6" d="M1818.3,565.8c0.4-0.3,1-0.7,1.5-1c0.1,0.5,0.2,1,0.4,2.2C1819.2,566.5,1818.7,566.1,1818.3,565.8z"/>
	<path class="st19" d="M1821.9,561.3c-0.1,0.1-0.2,0.2-0.3,0.3c-0.1-0.1-0.1-0.2-0.2-0.3c0,0,0.1-0.2,0.1-0.1
		C1821.7,561.2,1821.8,561.3,1821.9,561.3z"/>
	<path class="st15" d="M1437.4,424.3c-1.5-0.3-2.9-0.7-4.5-0.8c-1.3-0.1-1.8-0.5-1.8-1.9c0.1-3.6,0.1-7.3,0-10.9
		c0-1.4,0.5-1.8,1.9-1.8c3.8,0.1,7.4,0.1,11.2,0c1.5-0.1,2.1,0.6,2.1,2.1c-0.1,4.6,0,9.4,0,14c-1.4,0-2.9,0-4.4,0
		C1440.3,424.7,1438.9,424.4,1437.4,424.3z"/>
	<path class="st10" d="M1841.2,443.4c-13.4,0.1-24.8-8.5-27.5-21.2c-3.5-16,6.7-30.1,21.6-33.2c2-0.4,4-0.4,6-0.7l0,0
		c0,1.8,0,3.5-0.1,5.3c-9.6-0.2-16.8,4-21.1,12.7c-6.7,13.7,2.1,29.9,17.2,32C1841.2,439.2,1841.2,439.2,1841.2,443.4L1841.2,443.4z
		"/>
	<path class="st9" d="M1841.1,393.7c0-1.8,0-3.5,0.1-5.3c1.6,0.3,3.3,0.6,4.9,1c0.4,1.4,0.3,2.2-1.5,2.1c-0.3-0.3-0.6-0.5-0.9-0.8
		c-0.1,0.2-0.2,0.3-0.3,0.5c0.4,0.1,0.8,0.2,1.2,0.3c-0.1,0.6-0.1,1.2-0.2,1.7c2.2,1,5.1-5.3,6.4,1c0.9-0.4,1.5-1,2.3-1.3
		c4.1,0.3,6.6,3.4,8.8,6.3c7.4,10,8.3,20.8,2,31.5c-5,8.3-12.7,12.9-22.7,13.1c0.1-4.1,0.1-4.1-4-5.2c0.6,0,1.1-0.1,1.7-0.1
		c10.4,0.4,17.9-4,22-13.7c3.1-7.1,2.4-14.1-1.8-20.6C1854.9,397.4,1848.9,394,1841.1,393.7z"/>
	<path class="st7" d="M1853,392.6c-0.7,0.4-1.5,0.9-2.3,1.3c-1.3-6.3-4.1,0-6.4-1c0.1-0.5,0.1-1.1,0.2-1.7l0,0
		c1.8,0.3,1.9-0.7,1.5-2.1C1848.7,389.7,1851.5,389.8,1853,392.6z"/>
	<path class="st15" d="M1590,487.5c-0.3,2-1.8,1-2.9,1.2C1588.1,488.3,1589.1,487.9,1590,487.5z"/>
	<path class="st14" d="M1782.6,399.7c0.6-0.6,1.3-1.1,1.8-1.7C1783.9,398.6,1783.3,399.2,1782.6,399.7z"/>
	<path class="st15" d="M1431.1,340.8c0-2.1-0.1-4.2,0.1-6.3c0.1-0.6,1-1.6,1.6-1.6c3.8-0.1,7.7-0.1,11.5-0.1c1.5,0,2.3,0.4,2.1,2.5
		c-0.3,3.8-0.1,7.6,0.2,11.4c0.1,1.5-0.2,2.2-1.8,2.2c-3.9-0.1-7.7-0.1-11.6,0c-1.5,0-2.1-0.5-2-2
		C1431.1,344.8,1431.1,342.8,1431.1,340.8z"/>
	<path class="st15" d="M1446.6,306.4c0,4.9-0.1,9.3,0.1,13.7c0,1.5-0.3,2.4-1.9,2.4c-4,0-8,0.1-11.9-0.1c-0.6,0-1.6-1-1.6-1.6
		c-0.1-4.2-0.1-8.4,0-12.7c0-0.6,1-1.5,1.5-1.5C1437.1,306.3,1441.6,306.4,1446.6,306.4z"/>
	<path class="st20" d="M1619.7,458.7c-0.3-0.4-0.7-0.7-1-1.1c1.5-1.5,2.9-3.2,4.3-4.8c2.1-2.4,4.1-4.9,6.2-7.3h-0.1
		c0.2-0.2,0.4-0.4,0.6-0.5c0.4-0.2,0.8-0.4,1.2-0.6c0.2-0.2,0.3-0.3,0.5-0.5c2.1-2.3,4.2-4.6,6.3-6.9c-0.3,0.8-0.4,1.7-1,2.4
		c-2.6,2.9-5.1,5.9-7.8,8.7c-1.3,1.3-0.8,2.3,0,3.2c2.7,2.9,5.6,5.6,8.1,8.5c1.8,2.1,3.8,3.8,6.3,4.8c0.3,0.1,0.4,0.6,0.8,1.2
		c-0.8,0.1-1.5,0.3-1.8,0.1c-3.8-1.9-7.6-3.8-11.2-5.9c-2.1-1.3-4-2.9-5.9-4.4c-1.2-1-2.4-1.6-3.5,0.3
		C1621.2,456.8,1620.4,457.7,1619.7,458.7z"/>
	<path class="st20" d="M1640.7,362c-1.5-3.4-3-7-6.6-8.8c-1.3-0.7-2.7-1.3-4-1.9c5.6-3.9,11.9-6.4,18.3-8.3c3.4-1,6.8-1.4,10.3-1.8
		c2.8-0.3,5.7-0.6,8.4-0.4c7.9,0.3,15.6,1.9,22.9,5.2c1.8,0.8,3.5,1.5,5.2,2.4c0.4,0.2,0.7,0.8,1,1.2l0,0c-6.9-0.3-13.9-1-20.8-0.9
		c-3.5,0-7.1,1-10.7,1.6C1655.6,351.8,1648.1,356.7,1640.7,362z"/>
	<path class="st20" d="M1601.7,410.7c4.9,0.1,9.7,0.3,14.6,0.4c0.2,4-0.1,8,0.7,11.8c0.7,3.6,1.1,7.6,3.8,10.6
		c-0.6,0.9-1.2,1.7-1.8,2.6c-0.7,1-1.5,1.8-2.1,2.8c-0.2,0.2-0.3,0.4-0.5,0.6v-0.1c-0.7,0.7-1.3,1.3-2,2l0,0c-1,0.7-1.8,1.4-2.8,2.1
		c0.4-1,0.8-2.1,1-2.4c-0.8-0.7-1.5-1.2-1.9-1.8s-0.7-1.4-1.1-2.1c-1.5-3.1-3.2-6-4.6-9.2c-0.6-1.3-0.6-2.9-1.2-4.3
		C1601.8,419.5,1601.6,415.2,1601.7,410.7z"/>
	<path class="st20" d="M1696.3,349.3c0.4,0.1,0.8,0.2,1.3,0.3c-0.1,0.2-0.2,0.3-0.3,0.5C1696.9,349.9,1696.6,349.6,1696.3,349.3
		L1696.3,349.3z"/>
	<path class="st21" d="M1616.8,438.9c0.7-1,1.5-1.8,2.1-2.8c1.8-0.7,2.4,0.1,2.9,1.8c0.7,2.3,2,4.6,3.2,6.6c0.4,0.7,1.5,0.9,2.4,1.3
		c-1,1.3-1.9,2.5-2.9,3.7c-1,1-2,2.7-3.1,2.8c-1,0.1-2.4-1.3-3.2-2.4c-1.8-2.6-5.4-4.4-4-8.5l0,0c1.5,0.1,2.1-0.4,2-2v0.1
		C1616.5,439.3,1616.6,439.2,1616.8,438.9z"/>
	<path class="st11" d="M1614.4,441.4c-1.5,4.1,2.1,6,4,8.5c0.8,1.1,2.2,2.6,3.2,2.4c1.1-0.1,2.1-1.8,3.1-2.8c1-1.2,2-2.4,2.9-3.7
		c0.5-0.1,1-0.3,1.5-0.4c-2.1,2.4-4,4.9-6.2,7.3c-1.4,1.6-2.9,3.2-4.3,4.8c-1.3-0.8-2.8-1.5-3.8-2.5c-2.1-2.2-4-4.6-6-7.1
		c-0.2-0.2-0.1-0.6-0.3-1l0.1-0.1l-0.1-0.1c0.9-1,1.7-1.8,2.7-2.8l-0.1-0.1c0.1-0.2,0.3-0.4,0.4-0.6v0.1
		C1612.5,442.8,1613.4,442.1,1614.4,441.4z"/>
	<polygon class="st11" points="1629.2,444.2 1629,444.2 1629,444.1 	"/>
	<path class="st11" d="M1629.7,444.9c-0.2,0.2-0.4,0.4-0.6,0.5C1629.3,445.4,1629.5,445.1,1629.7,444.9z"/>
	<path class="st15" d="M1631.4,443.8c-0.2,0.2-0.3,0.3-0.5,0.5C1631.1,444.2,1631.2,444,1631.4,443.8z"/>
	<path class="st15" d="M1601.7,410.7c-0.1,4.4,0.1,8.8,2,13c0.6,1.3,0.6,2.9,1.2,4.3c1.5,3.1,3,6.1,4.6,9.2c0.3,0.7,0.7,1.5,1.1,2.1
		c0.4,0.6,1,1,1.9,1.8c-0.1,0.4-0.5,1.5-1,2.4v-0.1c-0.1,0.2-0.3,0.4-0.4,0.6l0.1,0.1c-1.8,0-2.6,1.1-2.6,2.8l0.1,0.1l-0.1,0.1
		c-7.9-10.8-12.5-23-13.5-36.4C1597.3,410.7,1599.5,410.7,1601.7,410.7z"/>
	<path class="st7" d="M1844.6,391.2c-0.4-0.1-0.8-0.2-1.2-0.3c0.1-0.2,0.2-0.3,0.3-0.5C1844,390.7,1844.3,390.9,1844.6,391.2
		L1844.6,391.2z"/>
	<path class="st11" d="M1616.3,439.4c0.2,1.5-0.4,2.1-2,2C1615,440.8,1615.6,440.1,1616.3,439.4z"/>
	<path class="st11" d="M1616.8,438.9c-0.2,0.2-0.3,0.4-0.5,0.6C1616.5,439.3,1616.6,439.2,1616.8,438.9z"/>
	<path class="st20" d="M1608.6,446.9c0.1-1.7,0.7-2.8,2.6-2.8C1610.3,445,1609.4,446,1608.6,446.9z"/>
	<path class="st20" d="M1611.1,444.1c0.1-0.2,0.3-0.4,0.4-0.6C1611.4,443.6,1611.2,443.8,1611.1,444.1z"/>
	<g>
		<path class="st22" d="M1358.7,464.9h-46.3c-1,0-1.7-0.7-1.7-1.7v-50.7c0-1,0.7-1.7,1.7-1.7h46.3c1,0,1.7,0.7,1.7,1.7v50.7
			C1360.3,464.1,1359.7,464.9,1358.7,464.9z"/>
		<path class="st22" d="M1358.6,419.3h-46.3c-1,0-1.7-0.7-1.7-1.7v-5.5c0-1,0.7-1.7,1.7-1.7h46.3c1,0,1.7,0.7,1.7,1.7v5.5
			C1360.3,418.6,1359.5,419.3,1358.6,419.3z"/>
		<path class="st22" d="M1358.6,432h-46.3c-1,0-1.7-0.7-1.7-1.7v-9.6c0-1,0.7-1.7,1.7-1.7h46.3c1,0,1.7,0.7,1.7,1.7v9.6
			C1360.3,431.2,1359.5,432,1358.6,432z"/>
		<path class="st22" d="M1322.8,464.6h-11c-0.7,0.4-1.3-0.1-1.3-0.8v-30.6c0-0.7,0.6-1.3,1.3-1.3h11c0.7,0,1.3,0.6,1.3,1.3v30.6
			C1324,464.6,1323.5,465.2,1322.8,464.6z"/>
		<line class="st22" x1="1329.9" y1="437.8" x2="1353.4" y2="437.8"/>
		<line class="st22" x1="1329.6" y1="443.8" x2="1352.9" y2="443.8"/>
		<line class="st22" x1="1329.3" y1="450.1" x2="1352.7" y2="450.1"/>
		<line class="st22" x1="1328.9" y1="456" x2="1352.2" y2="456"/>
		<line class="st22" x1="1320.5" y1="424.3" x2="1336.1" y2="424.3"/>
		<line class="st22" x1="1320.1" y1="427.8" x2="1343.6" y2="427.8"/>
		<circle class="st22" cx="1315.7" cy="426.1" r="3.4"/>
	</g>
	<g>
		<path class="st22" d="M1457.7,588.6h-30.4c-1,0-1.7-0.7-1.7-1.7v-33.4c0-1,0.7-1.7,1.7-1.7h30.4c1,0,1.7,0.7,1.7,1.7v33.4
			C1459.4,587.9,1458.6,588.6,1457.7,588.6z"/>
		<path class="st22" d="M1457.6,557.7h-30.5c-1,0-1.7-0.7-1.7-1.7v-2.7c0-1,0.7-1.7,1.7-1.7h30.4c1,0,1.7,0.7,1.7,1.7v2.7
			C1459.3,556.9,1458.6,557.7,1457.6,557.7z"/>
		<path class="st22" d="M1457.6,566.3h-30.5c-1,0-1.7-0.7-1.7-1.7v-5.5c0-1,0.7-1.7,1.7-1.7h30.4c1,0,1.7,0.7,1.7,1.7v5.5
			C1459.3,565.5,1458.6,566.3,1457.6,566.3z"/>
		<path class="st22" d="M1433.9,588.5h-7.5c-0.4,0.3-0.9-0.1-0.9-0.5v-20.8c0-0.4,0.4-0.9,0.9-0.9h7.5c0.4,0,0.9,0.4,0.9,0.9V588
			C1434.6,588.4,1434.3,588.9,1433.9,588.5z"/>
		<line class="st22" x1="1438.7" y1="570.3" x2="1454.6" y2="570.3"/>
		<line class="st22" x1="1438.4" y1="574.4" x2="1454.4" y2="574.4"/>
		<line class="st22" x1="1438.3" y1="578.6" x2="1454.2" y2="578.6"/>
		<line class="st22" x1="1438" y1="582.8" x2="1453.9" y2="582.8"/>
		<line class="st22" x1="1432.2" y1="561.1" x2="1442.9" y2="561.1"/>
		<line class="st22" x1="1432.1" y1="563.5" x2="1447.9" y2="563.5"/>
		<circle class="st22" cx="1429" cy="562.4" r="2.3"/>
	</g>
	<g>
		<path class="st22" d="M1809.7,483.6h-18.8c-1,0-1.7-0.7-1.7-1.7v-20.7c0-1,0.7-1.7,1.7-1.7h18.8c1,0,1.7,0.7,1.7,1.7V482
			C1811.4,482.9,1810.6,483.6,1809.7,483.6z"/>
		<path class="st22" d="M1809.7,463.4h-18.8c-1,0-1.7-0.7-1.7-1.7v-0.6c0-1,0.7-1.7,1.7-1.7h18.8c1,0,1.7,0.7,1.7,1.7v0.6
			C1811.3,462.7,1810.6,463.4,1809.7,463.4z"/>
		<path class="st22" d="M1809.7,469h-18.8c-1,0-1.7-0.7-1.7-1.7v-2.4c0-1,0.7-1.7,1.7-1.7h18.8c1,0,1.7,0.7,1.7,1.7v2.4
			C1811.3,468.3,1810.6,469,1809.7,469z"/>
		<path class="st22" d="M1794.7,483.6h-4.9c-0.3,0.2-0.5,0-0.5-0.3v-13.6c0-0.3,0.3-0.5,0.5-0.5h4.9c0.3,0,0.5,0.3,0.5,0.5v13.6
			C1795.2,483.5,1795,483.8,1794.7,483.6z"/>
		<line class="st22" x1="1797.9" y1="471.6" x2="1808.3" y2="471.6"/>
		<line class="st22" x1="1797.7" y1="474.3" x2="1808.1" y2="474.3"/>
		<line class="st22" x1="1797.5" y1="477" x2="1808" y2="477"/>
		<line class="st22" x1="1797.4" y1="479.7" x2="1807.8" y2="479.7"/>
		<line class="st22" x1="1793.6" y1="465.6" x2="1800.6" y2="465.6"/>
		<line class="st22" x1="1793.5" y1="467.1" x2="1803.9" y2="467.1"/>
		<circle class="st22" cx="1791.5" cy="466.4" r="1.5"/>
	</g>
</g>
</svg>
