<?xml version="1.0" encoding="utf-8"?>
<!-- Generator: Adobe Illustrator 24.1.1, SVG Export Plug-In . SVG Version: 6.00 Build 0)  -->
<svg version="1.1" id="Layer_1" xmlns="http://www.w3.org/2000/svg" xmlns:xlink="http://www.w3.org/1999/xlink" x="0px" y="0px"
	 viewBox="0 0 1920 1080" style="enable-background:new 0 0 1920 1080;" xml:space="preserve">
<style type="text/css">
	.st0{fill:#9EA0A4;}
	.st1{fill:#606164;}
	.st2{fill:#868F8E;}
	.st3{fill:#C0BEC2;}
	.st4{fill:#DFDFDF;}
	.st5{fill:#FDFDFD;}
	.st6{fill:#B3B4B4;}
	.st7{fill:#8C959D;}
	.st8{fill:#989498;}
	.st9{fill:#AFABAF;}
	.st10{opacity:0.81;}
	.st11{fill-rule:evenodd;clip-rule:evenodd;fill:#F9A003;}
	.st12{fill-rule:evenodd;clip-rule:evenodd;fill:#FFFFFF;}
	.st13{opacity:0.2;}
	.st14{fill:#F9A003;}
	.st15{opacity:0.3;}
	.st16{opacity:0.5;}
	.st17{opacity:0.6;}
	.st18{fill:#F9A003;stroke:#F9A003;stroke-width:0.5;stroke-miterlimit:10;}
</style>
<g>
	<path class="st0" d="M1292,867.6c-1.6,2.3-4.1,4.4-4.8,7c-1.2,4.5-4.2,6.1-8,5.8c-5.3-0.5-10.6-2-15.9-2.7c-1.3-0.2-3,0.9-4.1,1.8
		c-3.9,3-7.5,4.1-12.3,1.4c-2.3-1.3-5.9-0.4-8.4-1.6c-3.5-1.6-6.3-4.5-9.7-6.4c-3.2-1.8-6.8-3.1-10.3-4.6c0,2.9,0.7,5.9-0.1,6.4
		c-1.6,1-4.1,0.8-6.3,0.7c-2.2-0.1-4.4-0.5-6.6-1c-1.8-0.5-3.6-1.3-5.4-2c1.1-1.8,2-3.8,3.5-5.2c1.1-1,2.9-1.2,4.4-1.8
		c1.9-10.2-9-12.7-10.9-20.6c-0.7,0.4-1.4,0.7-2.1,1.1c0.7,1.9,1.4,3.8,2.4,6.4c-2.7,0.8-5.5,1.6-8.2,2.4c0-19.2-0.1-38.3,0.1-57.5
		c0-2.7,0.9-5.8,2.4-7.9c16.6-22.7,33.5-45.1,50.2-67.7c5.1-7,9.7-14.4,14.6-21.6c1.6-0.6,3.9-2.2,4.8-1.6c5.9,3.4,11.4,7.3,17.1,11
		c1.4,0.9,2.9,2.1,4.5,2.4c9.9,1.7,20.1,1.7,29.3,7c2.3,1.4,6.2,0.7,9.2,0.2c8.5-1.4,17-3.5,25.6-4.4c1.8-0.2,5.3,3.8,5.8,6.3
		c1.3,6.4,2.2,11.9,7.9,16.8c3.7,3.2,4.1,10.2,6.2,15.3c0.9,2.2,2.1,4.7,4,6.1c3.1,2.3,6.6,3.9,10.1,5.5c3.2,1.4,2.2,3.3,1,5.3
		c-0.3,0.5-0.7,1-1,1.5c-0.1,0.4-0.2,0.7-0.3,1.1c0.2-0.2,0.4-0.5,0.6-0.7c0.5-0.4,0.9-0.7,1.4-1.1c7.1-0.5,14.5,0.8,18.8,6.2
		c5.9,7.3,13.8,7.6,21.4,9.6c2.1,5,4.6,9.9,6.3,15.1c5.3,15.8,9.6,32,15.9,47.4c2.9,7.1,8.5,14.2,14.9,18.4c5.2,3.4,13.5,4.2,20,3.1
		c9.3-1.5,16.5,0.5,24.1,5.3c6.8,4.3,10.8,2.8,17.5-2.2c3-2.3,7.6-2.5,11.6-3.2c1.9-0.4,4,0.5,6,0.4c3-0.1,6-0.7,9.1-1
		c-1,3.2-1.9,6.4-2.9,9.6c-6.9,1.8-10.2,7.1-12.6,13.1c-4,10.2-11,16.9-22.9,20.6c3.3,0.9,5.1,1.4,6.9,1.9c0.2,0.5,0.5,0.9,0.7,1.4
		c-1.8,0.6-3.5,1.7-5.3,1.9c-13.3,1.3-24.4,6.9-32.9,17.2c-1.9,2.3-2.8,5.5-4.2,8.3c0.4,0.6,0.9,1.1,1.3,1.7c4.2-1,8.3-2,13.2-3.1
		c1,1.3,2.3,3.2,4,5.5c-5.5,2.4-10.5,4.2-15,6.7c-2.6,1.4-4.4,4.1-6.8,6c-1.3,1-3,2.1-4.6,2.1c-8,0.2-13.7,3.2-18.5,10.3
		c-3.5,5.1-7.8,11.1-14.7,13.1c-1.6,0-3.3,0-4.9,0c-4.8-9.7,6.3-5.7,8.6-9.8c-0.5-0.9-1.3-1.8-1.6-2.9c-1.5-4.7-4-9.2,1.5-13.6
		c5.1-4.1,6-9.5,2.5-15.7c-3-5.3-3.4-10.9-0.8-16.9c0.9-2.1-0.9-6-2.4-8.5c-1.3-2.1-3.9-3.4-5.9-5c0.3-0.6,0.6-1.1,0.9-1.7
		c3.5,2.2,7.2,4.2,10.5,6.7c5.2,3.9,11.3,3.4,17,3.4c4.5,0,2.8-3.7,0.7-6.5c1.6-0.4,2.9-0.8,4.3-1.2c-0.2-0.8-0.2-1.3-0.4-1.5
		c-8.7-6.3-17.4-12.5-26.2-18.7c-0.7-0.5-2.2-1-2.7-0.7c-7.7,4.7-16,2.1-24,2.6c-7,0.4-13.9,2.6-21,3c-3.2,0.2-6.6-1.9-9.9-2.6
		c-2.1-0.4-4.3-0.1-7.1-0.1c-0.4-2.3-0.8-4.8-1.2-7.7c-4.5,1.8-5.4-0.7-5.3-4.8c0-1.4-1.2-3.8-2.5-4.2c-4.8-1.8-6.4-5.2-5.8-10.9
		c-2.5,0.7-4.5,0.8-6.1,1.7c-6,3.2-11.2,1.4-14.4-3.7c-5.1-8.2-11.2-11.3-20.9-8.4c-3.7,1.1-8.4-1-12.6-1.5
		c-1.3-0.1-2.6,0.3-3.9,0.5c-1.2,1.2-2.4,2.4-3.6,3.6c0,0,0,0.1,0,0.1C1295.2,863.2,1293.6,865.4,1292,867.6z M1510,914.7
		c-0.3-0.4-0.6-0.7-0.9-1.1c-0.7,0.6-1.4,1.2-2.1,1.9c0.2,0.3,0.4,0.5,0.6,0.8C1508.5,915.8,1509.2,915.2,1510,914.7z"/>
	<path class="st1" d="M1189.1,187.2c-1.2-1.8-2.4-3.7-3.7-5.7c4.3-3.3,8.7-6.5,13.6-10.3c-1.4-0.6-2.5-1-4.4-1.8
		c2.4-2.2,4.5-4,6.6-5.9c-0.1-0.4-0.3-0.8-0.4-1.2c-1.8,0.5-3.6,0.9-6.7,1.7c0.8-4.4,1.6-8.3,2.3-12.2c-4.7,3.4-5.1,8.1-4.6,13
		c0.6,5.4-2.6,10-9.4,12.1c1.7-2.4,2.9-4.1,4.9-7c-3.5,1-5.7,1.6-8,2.3c1.1,8.1,0.4,8.6-8.9,6.5c3.2-5.3,6.5-10.5,9.7-15.8
		c-2.1,1-4.8,2.2-7.6,3.5c-0.3-1.5-0.6-2.7-0.6-2.7c-4.2,2.7-8.3,5.2-12.3,7.8c-1.5-0.3-2.9-0.6-6.1-1.3c2.6-1.3,3.7-1.9,5.5-2.8
		c-1.6-1.7-3-3.2-5.1-5.5c-0.1,0.4,0.3-0.8,0.8-2.7c-2.1,0.5-3.7,0.9-5.3,1.3c-0.4-0.5-0.9-1-1.3-1.5c3-3.2,6.1-6.3,9.9-10.3
		c2.9,0.2,7.3,0.6,11.6,1c0.1-0.5,0.2-1,0.4-1.5c-2.5-1-4.9-2-7.3-2.9c0.4-2.4,0.9-4.9,1.6-8.6c3.9,3,7.6,5.8,11.3,8.7
		c0.3-0.3,0.6-0.6,0.9-0.8c-0.5-0.8-0.9-1.6-1.5-2.6c1.8,0.2,3.5,0.4,5.2,0.6c0.1-0.4,0.2-0.8,0.3-1.2c-2-0.9-4.2-1.5-5.9-2.8
		c-1-0.7-1.9-2.4-1.8-3.6c0.1-1.2,1.4-2.3,2.2-3.5c0.5,0,1,0,1.5,0c-0.2-0.3-0.3-0.7-0.5-1c-5.2-2.8,1.9-5.5-1.3-9
		c4,0.5,6.5,0.9,9,1.2c0.4,0.4,0.8,0.9,1.1,1.3c1.2,0.8,2.3,1.5,3.5,2.3c0.2-0.4,0.5-0.8,0.7-1.2c-1-0.8-2.1-1.6-3.1-2.3
		c-0.4-0.3-0.8-0.7-1.1-1c-1-2-2-4-3-6.1c3,0.6,6,1.2,9.1,1.8c0.2,0.3,0.5,0.5,0.8,0.7c0.6,0.2,1.3,0.4,1.9,0.6
		c-0.2-0.5-0.5-1-0.7-1.5c-0.3-0.5-0.7-1-1-1.4c0.4-1.4,0.8-2.8,1.1-4.3c1.2,0.6,2.5,1.3,3.7,1.9c0.6,0.4,1.2,0.8,1.8,1.2
		c-0.2-0.8-0.4-1.6-0.6-2.5c-0.2-0.8-0.4-1.5-0.6-2.2c3.3-0.8,6.5-1.5,10.1-2.3c0,2.4,0,4.6,0,6.5c2.8-3.4,5.6-6.8,8.4-10.2
		c0.4,0,0.8,0,1.2,0c1.1,2.2,2.2,4.3,3.6,7c1.6-1.8,2.6-2.9,3.6-4.1c5.8,1.8,6.5,7.4,5.6,11c-1.7,7.1-4.1,14.6-12.7,17.4
		c1.3,2.6,2.7,5.3,4.7,9.2c2.6-4,5-7.7,8-12.4c0,10.6,0,19.6,0,29.3c-1.2-0.2-2.4-0.5-3.6-0.7c-0.6,0-1.3,0-1.9,0
		c0.3,0.4,0.6,0.9,0.9,1.3c1.5,0.9,3,1.9,4.7,3c-1,1.1-2.1,2.4-3.3,3.7c-1.3,0.1-2.6,0.2-4,0.4c0.2,0.8,0.3,1.5,0.5,2.3
		c1.5-0.6,2.9-1.1,4.4-1.7c3.3,1.7,3.6,6.8,0.7,11.1c-3.3-0.5-6.6-1-9.9-1.3c-0.4,0-0.9,1.1-1.8,2.3c3.5,0.6,6.2,1.2,9.6,1.8
		c-2.8,4.8-5.6,7.6-10.9,7.9c-1.9,0.1-3.6,3.3-5.4,5.1c0.7,0.7,1.5,1.4,2.2,2.1c0,1.8,0,3.6,0,5.2c1.3-1,4.8,4.3,5-1.4
		c5-0.8,9.5-0.5,12.3,5.3c-1.9,0.9-3.6,1.6-6.2,2.8c3,1.2,5.4,2.1,8.9,3.5c-2.9,1.8-4.6,2.8-7.2,4.4c2.3,0.7,3.8,1.1,6.5,1.9
		c-3.9,2.7-7,4.9-10,6.9c3,1.3,5.1,8.1,3.3,11.6c-2.6,5.1-8.1,5.4-15.8,0.6c0.1,3.2,0.3,6.1,0.4,9.6c2-0.8,4-2,6.1-2.5
		c2.1-0.5,4.4-0.5,6.4-0.7c1.7,1.9,3.3,3.7,5.2,5.9c1.2-1.9,1.9-3,3.5-5.5c1.5,4.3,2.6,7.6,3.2,9.4c-4.2,5.8-7.6,10.4-11.9,16.4
		c-0.3-2.6-0.7-3.8-0.6-4.9c0.5-3.3-0.3-5.2-4.1-4.9c-0.9,0.1-1.9-0.7-2.9-1.1c-1.8-0.6-4.4-2-5.1-1.4c-1.5,1.3-2,3.8-2.7,5.4
		c-2.4,0.9-4.9,2-8.1,3.3c1.6,1.4,2.7,2.4,3.8,3.5c-5,5-12.3-5.5-16.7,3.5c-1.2-3.2-2.1-5.7-3.3-8.8c-0.9,3.2-1.6,5.6-2.5,8.4
		c-6.9-6.4-4.5-12.4,7.1-19.3c-2.2-2.9-4.4-5.7-6.5-8.6c-1-1.5-1.8-3.2-2.6-4.8c2.4-0.7,4.7-1.9,7.1-1.8c1.4,0.1,3.1,2,3.8,3.6
		c2.8,5.9,6.4,8.2,12.2,3.4c0.9-4.4,1.8-9,2.7-13.7c-0.6-0.2-1.3-0.4-1.9-0.5c-1.2,4-2.5,8-3.9,12.4c-6.9-7.1-7.8-10.8-4-14.8
		c-0.8-1.2-1.8-2.4-2.4-3.7c-0.6-1.3-1-2.8-1.8-5.4c-0.9,5.3-1.5,9-2.2,12.8c-0.5,0-1,0.1-1.5,0.1c-0.7-1.1-1.4-2.3-2.3-3.7
		c-1,1.3-2,2.5-2.9,3.7c-0.5,0-0.9-0.1-1.4-0.1c0-4.3-0.8-8.8,0.2-12.9c1.5-6.3,8-7,20.4-1.8c-2-2.7-3-4-3.8-5
		c1-1.2,2.3-2.7,3.6-4.2c-0.2-0.6-0.4-1.2-0.6-1.8c-5.2,6.1-8.1,1.2-11.4-1.3c-1.7-1.3-3.2-2.9-4.8-4.3c0,0,0.1,0.1,0.1,0.1
		c-2.2-2.6-4.3-5.1-6.9-8.2c0.2-0.4,0.9-1.4,0.9-1.4c-1.5-2.7-2.6-4.8-3.8-7c3-0.6,5.9-1.7,8.8-1.5c1.9,0.2,3.7,2.3,5.5,3.5
		c1.2,1.4,2.4,2.7,3.6,4.1c4.4,5.1,7.6,4.7,11.7-2.5c-5.5,4.5-9,2.9-11.7-1.9C1190.8,187.8,1189.8,187.6,1189.1,187.2z"/>
	<path class="st2" d="M1816.3,652.8c-1.8,0.8-3.6,1.6-5.1,2.3c-1.7-3-3.3-5.7-4.8-8.4c-0.9,0.8-1.7,1.7-2.6,2.5
		c-0.7,2.9-1.3,5.8-2,8.8c-0.6-0.1-1.3-0.1-1.9-0.2c-1.1-3.5-1.5-7.5-3.4-10.5c-1.8-2.7-5.3-4.3-8.1-6.4c-0.8,0.6-1.7,1.1-2.5,1.7
		c0.7,3.2,1.4,6.4,2,9.6c0.6,0.1,1.1,0.2,1.7,0.3c-1.6,1.4-3.2,2.9-5.1,4.6c0.5,4.8,4.6,10.3-1.2,14.8c-1.4,1.1-3.3,1.5-4.9,2.2
		c0.3-1.7,0.5-3.4,0.9-5.1c0.4-1.6,1.2-3.2,1.4-4.8c0.3-3,0.3-6.1,0.4-9.3c-5.2-0.8-6.6,0.5-5.4,7.6c-1.4,0.3-3,1.2-4.4,0.9
		c-6.6-1.3-11.2,2.6-16,5.9c-5.3,3.6-10.8,6.9-15.9,10.8c-2.8,2.2-4.8,5.5-7.4,8c-1.6,1.5-3.8,2.4-5.7,3.6c-1.3-2.2-3.3-4.2-3.7-6.5
		c-0.6-3.5-0.2-7.2-0.2-11.3c-1.9,1.2-3.7,2.4-5.5,3.6c-0.5-0.4-0.9-0.7-1.4-1.1c1.1-1.9,2.2-3.8,2.8-4.8c0-4.4,0-8,0-12.9
		c-0.1-0.1-2.1-1.3-2.2-2.6c-1.2-18.4-14.5-35.8-4.5-55.4c3.7,0.1,5,1.3,5.7,5.5c1.9,10.8,5,21.5,8.7,32.4c0.7-9.7,2.6-18,13-19.1
		c1.2,2.5,1.9,6.6,3.8,7.1c2,0.6,5.1-2,8.5-3.6c0.3,0.3,1.5,1.4,3.1,2.9c2-7.4,6.2-12.3,13.2-14.4c3-0.9,6-0.8,5.7,2.9
		c-0.6,7.2,3.4,9.6,9.7,10.5c0.1-1.2-0.2-2.6,0.3-3.8c0.7-1.4,1.9-2.6,2.9-3.9c0.8,1.6,2.6,4,2.1,4.6c-4.7,6.5,0.7,11.2,2.5,16.5
		c0.3,0.8,1.8,1.1,2.8,1.7c0.4-1,1.2-1.9,1.3-2.9c0.1-4.4,0.1-8.8,0.9-13.2c4,3.9,1.1,10.5,7.6,14.1c0.4-3.2,0.6-5.5,1-8.5
		c8.1,3.2,5.5,13.4,11.8,17.1C1816.3,648.7,1816.3,650.8,1816.3,652.8z"/>
	<path class="st3" d="M691.7,658.9c1.9-0.2,3.8-0.3,6.6-0.5c-6.9,11.2-12.7,14.4-21.3,12.8c0-3.7,0-7.3,0-11
		c1.5-2.5,2.9-5.2,4.7-7.6c2-2.6,4.2-3.2,6.1,0.3C689,655,690.4,656.9,691.7,658.9c-0.3,0.5-0.7,0.9,0,0.1
		C691.4,660.1,691.6,659.5,691.7,658.9z M688.9,663.1c-0.1-0.5-0.1-1-0.2-1.5c-1.3,0.1-2.6,0.3-3.9,0.4c0.1,0.5,0.1,1,0.2,1.5
		C686.3,663.4,687.6,663.3,688.9,663.1z"/>
	<path class="st4" d="M677,673.6c1.2,0,2.5-0.3,3.6,0c2.4,0.6,4.7,1.4,7,2.2c-1.4,1.8-3.2,3.4-4,5.4c-1,2.4-1.6,5.2-1.5,7.8
		c0.1,3.1,1.2,6.2,1.9,9.4c-0.5,0.3-1.1,0.6-1.6,0.9c-1-2-2.1-4.1-3-6.2c-0.9-1.9-1.6-4-2.4-5.9c0-0.8,0-1.6,0-2.4
		c0-1.2,0-2.5,0-3.7C677,678.5,677,676.1,677,673.6z"/>
	<path class="st5" d="M677,681c0,1.2,0,2.5,0,3.7C677,683.4,677,682.2,677,681z"/>
	<path class="st6" d="M1545.5,879.4c1-3.2,1.9-6.4,2.9-9.6c-3,0.4-6,0.9-9.1,1c-2,0.1-4.1-0.8-6-0.4c-4,0.7-8.6,1-11.6,3.2
		c-6.6,5-10.6,6.5-17.5,2.2c-7.6-4.8-14.8-6.9-24.1-5.3c-6.5,1.1-14.8,0.3-20-3.1c-6.3-4.2-11.9-11.3-14.9-18.4
		c-6.3-15.4-10.6-31.6-15.9-47.4c-1.7-5.2-4.2-10.1-6.3-15.1c-0.8-2.7-1.5-5.4-2.3-8.1c0.4-0.5,0.7-0.9,1.1-1.4
		c2.6,1.5,5.2,2.9,9.3,5.3c-1.8-4.3-3.2-7.8-4.7-11.3c-0.5,0.2-1.1,0.3-1.6,0.5c0.6-1.9,1.5-3.8,1.6-5.8c0.3-4.7-0.3-8.3-3.6-12.9
		c-4.3-6-13.5-9.2-12.9-19.1c0.2-2.5-3.6-6.1-6.4-7.8c-6.1-3.7-7.6-8.8-2.9-14.3c3.2-3.7,7.5-6.5,9.7-10.7
		c3.4-6.3,6.3-13.2,7.6-20.2c1.2-6.3,4.1-10.3,10.9-13.1c-8.7-3.7-12.9-9.3-16.6-16.3c-5.3-10.1-12.7-18.8-25-21.4
		c-2.7-0.6-5.6-1.6-7.9-3c-4.6-2.9-3.6-7.7-2.6-11.8c2.2-8.1,3.3-16.3,2.1-23c-5.7-6.3-10.4-11.7-16.4-18.4
		c0.4-4.7,1.1-11.7,1.7-18.8c0.5,0-0.4-0.2-1,0.1c-2.6,1.2-5.3,4.1-8,0.6c-3.2-4-5.8-8.2-3.5-14c1.6-4.1,4.4-4.8,8-5.2
		c6.8-0.9,13.8,0.7,20.6-2.7c3.9-1.9,6.7-3.5,9-7.2c1.1-1.7,4.3-3.7,6-3.2c6.6,1.6,12.9,4,19.3,6.2c0.5,0.2,0.8,1.3,1.1,2
		c-0.1,0.3-0.3,0.6-0.4,0.9c0.2-0.2,0.4-0.5,0.6-0.7c1-0.9,2-1.7,4-3.5c-0.6,2.9-0.9,4.5-1.2,6.2c6,4.8,12.4,2.6,18.5,1
		c5-1.3,9.3,1.1,12,5.7c2.7,4.7,4.4,10.4,10,13.3c1.6,0.8,1.8,3.9,3.1,5.6c1.3,1.6,3.3,2.6,4.7,4.1c1.6,1.7,2.8,3.8,3.4,4.6
		c-2,4-3.4,6.9-5.1,10.3c2.5,0,4.7,0,7,0c-0.3-0.5-0.6-0.9-0.9-1.4c3.3-2.9,6.6-5.9,10-8.5c1-0.7,2.9-1,4-0.5c5,1.9,10,4,14.8,6
		c2-3.8,4.1-7.5,6-11.3c0.5-1,0.9-2.4,0.6-3.3c-1.8-4.5,0.6-5.4,4.3-5.4c0.3-3.6,1.1-7.1,0.8-10.5c-0.3-3.3-1.6-6.6-2.8-10.8
		c-1.2-0.4-3.6-1.3-5.2-1.8c-0.1-3-0.4-5.2-0.3-7.5c0-0.8,0.9-1.5,1.4-2.3c1.4,1.6,2.8,3.1,4.1,4.7c0.9,1.1,1.9,3.3,2.4,3.2
		c6-1.6,7.5,4.1,10.1,6.8c3.2,3.3,4.9,3,7.7,0.3c1.1-1.1,2.6-1.8,4-2.7c0.3,0.4,0.7,0.8,1,1.2c-0.8,1.9-1.7,3.9-1.9,4.5
		c1,2.9,1.8,4.6,2.1,6.4c0.3,2.3,0.1,4.7,0.1,7.8c14.1-2.9,16.9,7.5,20.9,16.2c3.3,7.2,5.5,15.3,15.2,16.7c0.6,0.1,1,1.5,1.6,2.2
		c2.1,2.4,4.2,4.7,6.3,7.1c2.2,2.5,5,4.8,6.5,7.7c1.5,3,1.8,6.7,2.6,10.1c-4,1.1-8.1,1.9-12,3.4c-2.4,0.9-4.4,2.7-6.6,3.9
		c-2,1.1-4.2,2.6-6.3,2.7c-4.8,0.1-9.6-0.6-15.7-1.1c2.8,3.5,4.9,6.2,7.5,9.4c-2.4,0.6-4,1.1-5.5,1.5c1.5,2,3.1,4,4.1,5.3
		c5.2,1.9,9.9,3.5,15,5.4c-0.1,0.6-0.4,1.7-0.7,2.8c-2.6,9.4,1.7,15.8,11.3,16.8c0.8,0.1,1.9,0.8,2.3,1.6c2.5,4.5,6.7,4.7,11.1,4.5
		c5.5-0.3,11.1-0.7,15.1,4.3c0.3,0.4,1.4,0.1,2.4,0.2c-4.7-11.3-4.7-11.3-1.1-12.7c1.2,2.2,1.8,5.3,3.4,6c1.6,0.6,4.5-0.8,6.3-2.2
		c15.8-12.2,31.4-24.5,47.1-36.8c7.6-6,15.3-11.8,23-17.8c-0.2,1.9-0.1,3.9-0.7,5.7c-1.1,3.2-3.3,6.1-3.8,9.3
		c-1.2,7.8-1.7,15.8-2.7,23.7c-0.2,1.2-1.2,2.5-2,3.5c-3.3,3.9-6.7,7.7-10.1,11.4c-0.5,0.5-1.2,1.2-1.9,1.2
		c-9.2,0-15.3,5.4-21.4,11.5c-3,3-7.7,4.2-11.3,6.7c-5.9,4-11.6,8.5-17.5,12.6c-2.7,1.9-6.9,2.9-8.2,5.4c-2.4,4.5-5.1,10-2.2,15.1
		c3,5.3,1,7.5-3,10.9c-3.2,2.7-5.5,7.3-6.5,11.4c-1.5,6.2-5,12.5-1.9,19.3c0.4,0.9-0.7,2.7-1.5,3.7c-6.5,8-12.3,16.3-14.4,26.6
		c-0.5,2.2-0.9,4.6-0.7,6.8c0.4,7.4,1,14.8,1.5,22.4c0.2-0.2,1.6-0.7,1.6-1.3c0.7-9.5,0.9-19,2-28.4c0.5-4,2-8.5,4.6-11.4
		c6.9-7.9,13.2-15.7,15.2-26.5c0.7-3.6,3.5-6.8,5.7-10c4.9-7.2,9.5-14.7,15-21.4c5.3-6.5,12.3-10.5,21-11.1c2.7-0.2,6.1-1.3,5.6,3.6
		c0,0.2-0.1,0.4,0,0.5c2,1.5,5.8,3.3,5.6,4.3c-1.1,5.2-2.7,10.4-5.1,15.2c-0.8,1.6-4.4,1.6-6.3,2.9c-4.3,3.1-8.4,6.5-12.6,9.8
		c-0.3,4.6-2.8,7.4-7.2,7.3c-5.8-0.2-9,2.6-10.9,7.5c1.3,2.5,2.5,5,3.8,7.5c-1.4,3.6-1.4,8.6-7.8,6.2c-1-0.4-3.1,1.3-4.1,2.6
		c-3.7,4.5-7.7,9-10.6,14c-1.7,3-2.6,7.1-2.2,10.5c1.1,9,3.1,17.9,4.8,26.8c0.3,1.5,1.1,3,1.4,4.5c0.7,3.6,1.4,7.3,1.7,11
		c0.3,2.9,0.1,5.9,0.1,9.2c-4,1.2-8.1,1.9-7.8,8.3c0.1,1.6-7.5,3.6-11.6,5.3c-0.6,0.3-1.7-0.4-2.2,0c-10,7.7-22,10.7-33.6,14.9
		C1546.2,880.2,1545.8,879.6,1545.5,879.4z M1520.3,539.6c0-0.1,0-0.3-0.1-0.4c-0.1-0.1-0.3-0.1-0.5-0.1c0,0.2,0.1,0.4,0.1,0.7
		C1520,539.7,1520.1,539.7,1520.3,539.6z"/>
	<path class="st7" d="M940.9,379c-0.7,2.5-1.3,5-2.2,8.7c-0.7,0.6-2.5,2.1-4.4,3.7c7.1,5.4,8.9,5.2,13.4-1.2
		c0.6-0.8,1.7-1.8,2.6-1.9c5-0.4,11.9,5.8,12.2,10.9c-2.1,5.9-4.7,11.7-6.3,17.8c-0.8,2.9-0.9,6.8,0.5,9.2
		c15.2,26,30.8,51.8,46.4,77.6c1.1,1.9,3.4,4.1,5.3,4.3c11,1.2,17.7,7.5,22.9,16.8c1.6,2.9,5.3,5.7,8.6,6.6c18.2,5,36.5,9.6,55,13.8
		c6.2,1.4,7.6,4.8,7.4,10.4c-0.9,19.9-1.6,39.8-2.4,59.7c-0.2,5.9-0.7,11.8-1.1,17.6c-16.1-1.2-32.2-2-48.3-3.7
		c-15-1.6-29.9-4-44.9-6c-26.8-6.9-53.7-13.8-80.4-20.8c-9.6-2.5-19-5.7-28.4-8.6c-12.3-4.9-24.7-9.7-36.9-14.9
		c-1.9-0.8-3.2-3.1-4.7-4.7c0.6-1.3,1.5-2.5,1.7-3.8c0.3-1.9,0.8-5.1-0.1-5.7c-2.1-1.4-5.4-2.6-7.6-2c-9.8,2.7-17.6-4-15.1-13.7
		c2.1-8.2,1.5-15.4-4.3-22.2c-2.5-2.9-4-7-5.2-10.8c-2.9-9.4,2.8-16.7,6.4-24.5c1.1-2.4,1.6-5.3,1.9-8c0.4-3.3-0.8-7.2,0.5-10
		c3.1-6.4,2.2-10.5-4.4-13.6c-1.4-0.7-3.1-4.2-2.6-4.9c4.2-5.6,6.2-11.7,6.1-18.6c0-0.6,1.4-1.3,2.2-2c4.1-3.3,3.9-6.7,0.6-10.4
		c-1.2-1.3-2.3-2.7-2.3-2.7c3.1-7.2,6.1-13.1,8.1-19.2c0.6-1.9-1-5.3-2.7-6.9c-3.5-3.4-7.7-6.1-10.5-8.1c2-5.9,5-10.6,4.7-14.9
		c-0.4-5.8,2.1-8.4,6-11.4c2.7-2.1,4.6-5.1,6.9-7.8c7.6-0.5,3.3,6.4,5.4,9c2.2-1,4.3-1.9,6.3-2.8c0.3,2.4,0.5,4.8,0.8,7.2
		c0.1,1.1,0.3,2.2,0.4,3.3c1.3-0.3,3.6-0.4,3.7-0.9c1.6-9.6,9.5-9.5,16.4-10.9c4.2-0.8,8.6-1.2,12.9-1.2c5.3,0,10.6,0.6,18,1
		c-2.4,1.9-3.3,3.3-4.4,3.5c-5.3,0.6-10.8,0.3-16,1.4c-7.5,1.7-14.8,4.3-22.1,6.8c-0.5,0.2-0.5,2.1-0.8,3.6c2.5,0,4.6,0,6.9,0
		c0.2-3.2,0.6-5.1,5.3-5c3.9,0.1,7.8-1.9,11.5,1c0.4,0.3,1.4,0.1,2.1-0.1c5.2-1.7,10.3-3.5,16.6-5.7c-1.1,3.5-1.5,5-2,6.5
		c0.4,0.3,0.7,0.6,1.1,1c5.1-3.9,10.2-7.9,16.3-12.6c0.2,3.8,0.7,8.2,0.7,12.5c0,4.2-1,8.5-0.6,12.7c0.2,2.2,2.4,4.2,3.6,6
		c3.2-4.7,5.7-8.8,8.7-12.5c0.4-0.4,3,1,4.6,1.5C940.5,378.5,940.7,378.8,940.9,379z"/>
	<path class="st3" d="M854.8,574.4c1.6,1.6,2.8,3.9,4.7,4.7c12.2,5.1,24.6,9.9,36.9,14.9c-15.5,42.4-30.8,84.8-46.8,127
		c-2.6,6.8-0.6,12.3,1.7,17.9c1.3,3.1,4.5,5.7,7.4,7.8c4.5,3.2,6.5,7.3,5.4,12.5c-2.1,10.4-1.8,11.7,7.2,17.7
		c3.2,2.2,5.3,4.3,3.4,8.5c-0.4,0.8,0.2,3,0.7,3.1c9.1,2.1,9.8,7.4,8.7,15.9c-1,8.2-2.3,15.3-9.5,19.8c-4.1,2.6-4.9,5.5-3.2,9.7
		c1.1,2.6,2,5.3,2.9,8c-12.8-3-25.8-5.4-38.3-9.2c-25.5-7.7-50.7-16.2-76.1-24.3c-0.7-0.2-1.4-0.7-2.6-1.3c1.2-1.3,2.5-2.1,2.8-3.2
		c0.6-1.8,1.1-4,0.6-5.7c-0.2-0.7-3-0.6-4.5-1.2c-2.1-0.8-4.1-2-6.1-2.9c0-0.6-0.1-1.3-0.1-1.9c2.4-0.8,4.8-1.5,7.2-2.3
		c-0.9-0.9-1.7-1.7-2.6-2.6c-12.5-2.9-12.6-3-4-14.8c-7-3.6-13.8-7.1-21.7-11.1c2.7-0.5,4.2-0.7,5.7-1c0-0.4,0.1-0.8,0-1.1
		c-3.1-4.7-6.4-9.1-12.7-9.8c-0.8-0.1-1.4-1.5-2.1-2.3c0,0-0.1,0.1-0.1,0.1c0.5-0.8,1.6-1.9,1.4-2.3c-3.6-6-0.7-9.7,4.2-12.9
		c0.2-0.1,0.1-0.7,0.2-1.5c-1.7,0-3.4,0-6.8,0c2.9-4.7,5.4-8.5,8.1-12.9c-0.6-1.2-2-3.6-3.4-6.2c8.3-4.8,1.8-10.4,1.4-15.7l0,0
		c0.1-2.1,0.3-4.2,0.4-6.7c2.7,1.6,4.9,2.9,7.1,4.1c-4.6-5.2-3.3-9,2.6-12.2c-0.4-0.5-0.9-1-1.3-1.5c-3.2,0.9-6.5,1.6-9.6,2.8
		c-2.3,0.9-4.4,2.9-5.4-1.2c-0.1-0.8-0.1-1.6-0.2-2.5c-2.1-10.6,0.2-19.2,9.7-24.6c3-1.7,5.6-4,8.3-6.1c0.7-0.5,1.5-2.1,1.2-2.5
		c-3.7-5,0.5-7,3.1-10c1.1-1.2,1.1-4.3,0.3-6c-2.3-4.7-4.7-9.5-7.9-13.5c-4.1-5.2-3.5-11.2-2.6-16.5c2.6-14.9,4.9-29.7,1-44.8
		c-1.1-4.3-0.3-9.1-0.6-13.7c-0.2-3.2,0-8.7-1.3-9.1c-3.5-1.2-7.8-0.6-11.6,0c-4.7,0.8-9.3,2.3-14.2,3.6c-0.6-7.5-1.3-13.4-1.4-19.3
		c-0.1-5.5-2.9-11.5,3-16.9c-2.7-1.4-5-2.6-7.6-3.9c0.4-1,1-2.4,1.1-2.7c-3.1-3.2-7.3-5.6-7.9-8.6c-0.9-4.8-4.8-10.8,2-14.8
		c0.9,1.3,1.4,2.9,2.6,3.8c20.3,15.2,40.1,31.1,61.2,45.1c27.4,18.2,55.8,34.9,83.9,51.8C844.7,572.1,850,572.8,854.8,574.4z"/>
	<path class="st1" d="M1098.5,633.1c0.4-5.9,0.8-11.8,1.1-17.6c0.8-19.9,1.5-39.8,2.4-59.7c0.3-5.6-1.2-9-7.4-10.4
		c-18.4-4.2-36.7-8.9-55-13.8c-3.3-0.9-7-3.6-8.6-6.6c-5.1-9.3-11.8-15.6-22.9-16.8c-1.9-0.2-4.1-2.4-5.3-4.3
		c-15.6-25.8-31.1-51.6-46.4-77.6c-1.4-2.4-1.2-6.3-0.5-9.2c1.6-6.1,4.1-11.9,6.3-17.8c8.4,9.9,17.1,19.5,28.5,26.1
		c1.1,0.6,2.8,0.1,4.2,0.2c1.1,0.1,2.4,0,3.3,0.6c6.4,4.3,8.7,10.8,9.7,18.7c-6-0.6-11.9-2-14.3,5.1c5.9,8.3,33.6,14.7,46,10.3
		c2.4,3.8,4.7,7.8,7.5,11.4c2.5,3.3,5.5,6.1,8.4,9.1c-0.4,0.5-0.8,1-1.2,1.6c-1.6-0.2-3.1-0.4-5.3-0.7c3.4,7.1,6.6,13.8,9.8,20.5
		c0.7-0.3,1.4-0.5,2.1-0.8c-1-2.3-1.9-4.6-3-6.8c-2.1-4.1-1-5.9,3.9-5.4c-1.2-6-1.9-12-3.7-17.6c-2-5.9,1-7.9,5.5-9.9
		c3.7-1.6,7.3-3.4,10.5-5.6c1.4-0.9,1.9-3.1,3.3-5.4c-7.1-1.5-9.9,11.7-17.8,2.4c0,2.7,0,4,0,6c-1.9-0.8-3.9-1.1-5-2.2
		c-1.1-1.1-1.7-3.1-1.6-4.7c0-1.2,1.3-3,2.4-3.3c6.2-1.7,12.4-3.4,18.7-4.2c1.2-0.1,4.5,4.2,4.2,6c-0.8,4.6,0.6,7.4,4.4,9.6
		c0.5,0.3,1,0.8,1.2,1.4c1.5,6.6,6,5.2,10.4,3.9c3.5,7.8,11.9,12.7,22.2,8.6c2.4-0.9,5.4-0.2,8.2-0.1c2.9,0.1,5.9,0,8.8,0.4
		c1.8,0.3,3.4,1.5,5.2,2c2.2,0.6,4.6,0.9,6.9,0.9c0.3,0,1.4-3.4,0.7-4.3c-1.2-1.8-3.5-4.4-5.1-4.2c-4.8,0.6-6-2.1-7.5-6.6
		c3.2-1.3,6.8-4.2,9.5-3.5c2.7,0.7,4.4,4.9,6.7,7.7c0,0,0.9-1,1.8-1.9c0.5,0.1,1.1,0.2,1.6,0.3c-0.4,4.4-1.5,8.8-1,13.1
		c0.3,2.5-0.8,7.3,5.1,7.1c1.2,0,2.5,3.8,4.7,7.5c-4-1-6.5-1.6-10.8-2.6c2.2,3,3.5,4.7,4.6,6.4c3.8,5.7,0.5,13.4-6,15.2
		c-1.5,0.4-2.3,3.5-3,5.6c9.8-4.3,15.3-10.8,13.3-20.6c3.1-5.6,5.9-10.5,8.7-15.5c-0.4-0.4-0.7-0.7-1.1-1.1
		c-1.6,1.1-3.2,2.3-4.7,3.4c-1.2-2.5-2.8-4.9-3.6-7.5c-1.2-3.6-0.7-6.2,2.8-9.3c6.5-5.8,12.1-12.8,14-21.8c0.1-0.5-0.4-1.1-0.8-2.2
		c-1.6,2.2-3,4.1-4.4,6c-0.6-0.3-1.1-0.6-1.7-0.8c1.6-5.3,3.1-10.6,4.6-15.6c-4.5-1.7-9.6-3.2-14.2-5.6c-8.4-4.4-9.9-10-5.5-18.6
		c0.5-0.9,0.8-1.8,1.4-3.3c-5.6-0.2-5.7-3.9-5.3-7.7c0.4-3.6,0.6-7.6,7.3-6.6c-6.1-6.6,0.7-9.7,1.9-13.6
		c11.1,6.6,18.2,15.9,16.7,30.5c1-0.8,1.5-1.3,2.1-1.7c0.5-0.3,1-0.6,1.1-0.7c2.3,2.9,4.4,5.6,7.1,9.1c-1.5-0.2-2.8-0.7-3.7-0.4
		c-0.9,0.3-1.4,1.6-2,2.5c5.7,3.2-0.1,6-0.7,10.7c3.1,0.2,6.2-0.1,9,0.8c3.4,1,6.6,2.9,9.9,4.5c-0.2,0.5-0.4,1-0.5,1.5
		c-1.3-0.2-2.6-0.3-3.8-0.5c-0.8-0.2-1.6-0.3-2.4-0.5c-0.1,0.2-0.2,0.5-0.2,0.7c0.6,0.3,1.1,0.6,1.7,0.9c2.2,4.2,4.4,8.4,6.4,12.8
		c1.3,2.8,2,5.8,3,8.7c0.9-0.1,1.7-0.1,2.6-0.2c0.8-7.8,1.6-15.6,2.4-23.6c9.4,4.2,12.9,8.7,15.1,18.7c-1.1,0-2.2,0-3.5,0
		c-1.2,11.8,9,17.5,13.7,26.1c5-4.5,7.1-23.7,6.6-39.1c1.4-3.2,2.8-6.4,4.2-9.6c-7.7-3.6-9.6-6.9-9.5-16.6
		c6.7-0.4,13.5-0.8,21.4-1.2c-1.5,1.9-2.3,3-3.4,4.4c2.2,0.6,3.9,1,6,1.6c-0.8,1-1.5,1.8-2.2,2.7c0.1,0.4,0.2,0.8,0.3,1.1
		c3.6-1.2,7.3-2.4,10.9-3.6c0.3,0.5,0.7,1,1,1.4c-1,2.1-2,4.2-3.3,6.9c1.9,0.4,3.7,0.7,5.6,1.1c0.6,5.8-2.1,8.6-9.5,8.8
		c6,6.6,10.4,12.1,15.6,16.8c3.8,3.4,5.1,7.5,3.2,11.4c-3,6.1-7.2,11.6-11.6,18.4c-2.4-4.1-4.4-7.4-6.6-11.2c-0.4,0.5-1,1.2-1.8,2.1
		c-2.3-1.4-4.6-2.8-7-4.3c-0.4,0.4-0.7,0.8-1.1,1.2c5.3,4.9,10.5,9.8,15.8,14.7c-0.4,0.5-0.8,1.1-1.3,1.6c-2-0.9-4.1-1.8-6.8-3
		c-0.2,1.6-0.3,2.8-0.7,5.7c-3.4-2.2-6.1-4-10-6.6c-2.2,0.7-6.1,2-9.9,3.2c-0.1,0.6-0.2,1.3-0.3,1.9c3.2,1.7,6.4,3.3,9.9,5.1
		c-1.7,5.2-3.2,10.4-5,15.5c-2.8,7.7-4.6,8.1-11.5,3.7c-5.1-3.2-10.6-5.9-16.1-8.9c-1.4,1.8-2.6,3.3-3.4,4.3
		c3.9,2.8,7.4,6.3,11.7,8.1c3.9,1.6,8.6,2.1,12.8,1.7c8-0.8,9.2,0.3,6.6,8.1c-1.7,5-3.5,9.9-5,14.9c-1.8,5.9-6.2,8.4-11.7,8.4
		c-1.6,0-3.2-3.5-5.3-6.2c0,5.5,0,10.4,0,15.8c-10.6,3.7-20.1-1.4-30-3.2c-2.3-0.4-4.7,0.2-7.1,0.3c0,0.7,0,1.5,0,2.2
		c5.7,0.8,11.4,1.6,18.3,2.6c-2.3,2-3.6,3.2-5,4.4c0.3,0.4,0.5,0.8,0.8,1.2c2.6-1.6,5.3-3.2,8-4.9c1.6,0.9,3.6,2.7,5.9,3.1
		c5.6,1,7.4,5.5,6.3,9.4c-0.8,2.7-5.3,4.6-8.4,6.5c-1.8,1.1-4.2,1.4-7.6,2.4c2.6,1.9,3.7,2.8,5.1,3.9c-3.1,0.6-5.9,1.1-9.8,1.8
		c2.4,2.1,3.6,3.2,4.9,4.3c-0.1,0.2-0.1,0.4-0.2,0.5c-6.4,3.3-7.1,10.5-10.7,15.7c-3.1,4.4-5.5,9.4-7,14.5c-1,3.5,0.3,7.6,0.6,11.4
		c-2.2-0.1-4.4-0.4-6.6-0.4c-27.1,0.5-54.2,1.1-81.3,1.6C1098.6,633.7,1098.6,633.4,1098.5,633.1z"/>
	<path class="st8" d="M874.5,842c-1-2.7-1.8-5.4-2.9-8c-1.7-4.2-0.9-7.1,3.2-9.7c7.2-4.5,8.4-11.6,9.5-19.8
		c1.1-8.5,0.4-13.9-8.7-15.9c-0.5-0.1-1.1-2.3-0.7-3.1c1.8-4.2-0.2-6.3-3.4-8.5c-9-6.1-9.3-7.3-7.2-17.7c1.1-5.3-0.9-9.3-5.4-12.5
		c-2.9-2.1-6.2-4.7-7.4-7.8c-2.3-5.6-4.3-11.1-1.7-17.9c15.9-42.2,31.2-84.6,46.8-127c9.5,2.9,18.9,6,28.4,8.6
		c26.8,7.1,53.6,13.9,80.4,20.8c-2.5,14.7-5,29.5-7.6,44.2c-4.7,26.3-9.7,52.5-14.4,78.8c-4.6,25.5-9,51-13.4,76.5
		c-2.1,11.9-4.1,23.9-6.1,35.9c-19.3-3.1-38.6-6-57.8-9.5C895.3,847.4,884.9,844.4,874.5,842z"/>
	<path class="st4" d="M1098.5,634c27.1-0.6,54.2-1.1,81.3-1.6c2.2,0,4.4,0.3,6.6,0.4c-0.5,0.3-1.5,0.8-1.4,1
		c1.4,6.1-2.1,11-3.5,16.5c-1.5,5.6,5.4,12.6,11.1,11.8c8.5-1,10.8,0.9,14.1,8.4c2.9,6.7,2,14.8,8.2,20.5c1.6,1.5,0,6.3-0.1,9.6
		c0,1.5,0.2,2.9,0.4,5.1c5.7-3.4,10.8-6.5,15.8-9.5c4.2-2.5,8.3-3.5,13.1-0.9c2.3,1.3,5.5,0.9,8.2,1.7c1.6,0.5,2.9,1.9,4.3,2.9
		c-4.8,7.2-9.4,14.6-14.6,21.6c-16.7,22.6-33.6,45.1-50.2,67.7c-1.5,2.1-2.4,5.2-2.4,7.9c-0.2,19.2-0.1,38.3-0.1,57.5
		c0,0.9-0.1,1.9,0.1,2.8c0.5,2,2.3,4.6,1.6,5.8c-1.3,2.2-3.9,4.8-6.2,4.9c-12.8,0.8-25.6,1.3-38.4,1.3c-13.4,0-26.8-0.8-40.2-1
		c-5.5-0.1-10.9,0.7-16.4,1.1c0.4-3.6,1-7.2,1.1-10.9c0.9-26.6,1.7-53.2,2.6-79.8c0.7-21.5,1.7-43,2.4-64.5
		C1096.8,687.6,1097.6,660.8,1098.5,634z"/>
	<path class="st9" d="M1098.5,634c-0.8,26.8-1.6,53.6-2.6,80.4c-0.7,21.5-1.7,43-2.4,64.5c-0.9,26.6-1.7,53.2-2.6,79.8
		c-0.1,3.6-0.7,7.3-1.1,10.9c-20.3-1.1-40.6-1.9-60.8-3.5c-20.2-1.6-40.4-4.1-60.5-6.2c-1.6-0.2-3.1-0.7-4.7-1.1
		c2-12,4.1-23.9,6.1-35.9c4.5-25.5,8.9-51,13.4-76.5c4.7-26.3,9.7-52.5,14.4-78.8c2.7-14.7,5.1-29.5,7.6-44.2c15,2,29.9,4.5,44.9,6
		c16.1,1.7,32.2,2.5,48.3,3.7C1098.6,633.4,1098.6,633.7,1098.5,634z"/>
	<path class="st1" d="M1296.3,337.3c1.2-0.6,2.3-1.2,4.1-2.1c0,2.9,0,5.1,0,7.3c2.6-0.5,4.8-0.9,7-1.3c2.3-7.5,6.9-9.7,11.8-5.5
		c1.1,0.9,1.3,3.8,0.8,5.4c-0.9,2.5-2.9,4.6-4.8,7.5c10.4,3.4,8.4-5.5,11-9.9c7.4,6.3-2.9,11.8-0.7,17.3c0.6,0.1,1.3,0.3,1.9,0.4
		c1.6-4.6,3.2-9.1,4.8-13.7c0.4,0.1,0.8,0.2,1.2,0.4c-0.2,1.9-0.4,3.8-0.5,5.7c0.4,0.4,0.8,0.8,1.2,1.2c2.1-8,5.9-12.7,15.1-8.2
		c-1.6,2.7-3.1,5.4-4.7,8c-0.6,2.2-1.2,4.3-1.8,6.5c0.6,0.2,1.2,0.3,1.8,0.5c0.4-1.9,0.9-3.7,1.3-5.6c1-0.6,2-1.2,3.8-2.2
		c0,2.7,0,4.7,0,6.7c0.7,0.1,1.5,0.2,2.2,0.2c0.5-3.6,0.9-7.2,1.5-11.8c4.2-0.5,7.4,2.2,9.7,5.7c-2.3,3.4-4.4,6.3-6.5,9.3
		c6.5,3.9,11.4-6.8,17.9-0.2c-2.9,5.8-9.6,11.4-3.1,19.3c2.7-0.7,5.8-1.5,10.8-2.7c-2.7,4.6-4.5,7.7-6.3,10.9
		c0.4,0.4,0.8,0.8,1.2,1.2c2.6-2.5,5.2-5,9-8.7c2.6,0.9,6.6,2.4,10.7,3.8c0.4,0.6,0.9,1.1,1.3,1.7c0.2-0.1,0.5-0.2,0.7-0.4
		c-0.3-0.8-0.6-1.6-0.9-2.4c1.2-2.7,2.3-5.3,4.1-9.6c1.1,3.3,1.5,4.7,2,6.2c7.2-4.2,10.3-2.4,12.5,8.1c3.1-3.2,5.7-5.9,8.6-8.8
		c0.5,2.2,1.1,4.7,1.9,8.1c3.1-4,5-2.1,7.3,2.8c0-5,0-8,0-11.6c4.1,0.8,7.7,1.5,12.7,2.6c-2.6,1.7-3.7,2.5-4.9,3.3
		c1.9,1.3,3.7,2.5,6.6,4.5c-3.1,1.3-5.1,2.1-8.5,3.5c3.1,1.5,5.6,2.7,7.8,3.8c0.4,3.2,0.9,6.8,1.5,11.3c-1.6,0.7-4,1.8-6.5,2.9
		c3.3,4.6,6.5,9.2,10,14.3c-4.7,0-8.6,0-12.5,0c0,0.5-0.1,1-0.1,1.6c-5.3-2.9-10.6-5.8-15.9-8.6c0.2-0.6,0.5-1.2,0.7-1.7
		c-0.9,1-1.8,2-3.8,4.4c-0.5-4.6-0.9-8-1.2-11.3c-0.4,0-0.8,0-1.1,0c-0.3,1.7,0,3.9-1,4.8c-1.1,1.1-3.7,1.8-5.1,1.3
		c-2.7-1-5-2.9-8.8-5.3c0.6,3.6,0.9,5.8,1.3,8.3c-1.9,0-3.9,0-5.8,0c-0.2,0.4-0.4,0.9-0.5,1.3c4,1.8,7.9,3.5,13.5,5.9
		c-3.5,1.9-5.9,3.2-8.5,4.7c2,1.6,4.2,3.4,6.7,5.5c2.4-6.2,6.3-1.5,8.1,0.2c5.4,5.2,10.8,6.5,17.8,4c1.2-0.4,3.5,2,5,3.6
		c2.1,0.7,6.7-3.7,5.9,3.4c-0.1,0.6,2.9,2.1,4.5,2.2c1.6,0,3.3-1.3,5.1-2.1c0.1,3.5-0.8,7.1,4.9,7.2c1.4,0,2.8,4.7,4.1,7.2l0.1-0.1
		c-1.6-1.3-3.2-2.7-4.8-4c-0.3,6.8,3.3,11,7.4,14c-2.5,1.5-5.1,3-7.8,4.6c-2.5,0-5.8,0-9.1,0c-0.1,0.5-0.1,1-0.2,1.5
		c-1.6-1.8-3.1-3.5-4.9-5.5c-5.8,5.3-10.7,0.8-15.8-1.1c-0.4-0.1-0.8-0.3-1.2-0.4c0.1,0.4,0.2,0.8,0.4,1.3c-1.1,0.6-2.1,1.6-3.3,1.7
		c-2.7,0.3-5.4,0.1-8.1,0.1c-0.2,0.8-0.4,1.6-0.7,2.4c4.9,2.7,9.6,6,14.8,7.8c6.4,2.3,13.3,3.2,19.9,5.1c3.9,1.1,7.8,2.5,11.4,4.5
		c1.6,0.9,2.3,3.5,3.8,6.2c-3.5,0.4-6.4,0.5-9.3,1.1c-7.6,1.5-15.2,3.8-22.8,4.6c-3.3,0.3-6.9-2.4-10.4-3.5
		c-1.4-0.5-2.8-0.6-4.3-0.8c-7.8-1.3-16.6,1.4-22.9-5.1c1.5-2.2,2.9-4.4,4.4-6.8c-3.7-1.2-6.5-2-9.6-3c-0.6,1-1.2,2.1-1.2,2.2
		c-10.1,1-18-7.9-28-3.7c-0.6-1.2-1.2-2.3-1.7-3.5c-0.6,0.3-1.1,0.7-1.7,1c0.8,1.2,1.6,2.4,2.4,3.6c1.4,1.3,2.9,2.6,5.8,5.2
		c-5.1,0.6-8.3,1-11.7,1.4c-2.4,7.6-7.7,11.7-15.6,11.7c-7.2,0.1-11.9-7.6-9.1-14.2c1.2-2.7,1.9-5.7,3.2-9.7
		c4.6-1.1,11.4-1.2,16.4-4.3c4.6-2.8,7.4-8.8,11-13.3c1,0.2,1.9,0.3,2.9,0.5c-3.4-2.1-6.6-4.6-10.2-6.1c-3.6-1.5-4.9-3.1-2.9-6.8
		c1.1-2.1,1.4-4.7,2.4-6.9c1-2.5,2.3-4.9,3-6.3c-0.4-3.2-0.7-6.1-1.1-9c-0.3-2.2-0.1-5-1.4-6.4c-4.1-4.7-8.8-8.9-13.3-13.3
		c-0.3-0.3-0.7-0.7-1-0.7c-6.4,1.1-10.2-1.5-11.9-7.8c-0.2,1.5-0.3,3-0.5,4.5c-4-1.6-8.1-4.9-11.4-4.2c-2.8,0.6-4.6,5.7-7.1,9.2
		c-1.1-2.2-2.2-4.2-3.4-6.5c1.4-0.7,2.8-1.2,3.8-2c1-0.8,2.6-2.2,2.4-3c-0.3-1.3-1.7-2.7-2.9-3.3c-2.2-0.9-4.8-1-7-1.9
		c-1.8-0.8-3-2.7-4.8-3.5c-1.8-0.8-3.9-0.8-6.1-1.1c-1.7-1.7-4-5.6-6.2-5.6c-3.5,0-7.4-4.8-11.8,0.1c1.5,0.6,2.3,0.7,2.8,1.1
		c1.9,1.8,3.7,3.6,5.6,5.5c-2,1.4-3.9,3.5-6.1,3.9c-2.7,0.6-5.7-0.7-8.5-0.3c-2.9,0.3-5.6,2.3-8.4,2.3c-3.1,0-6.1-1.5-9.2-2.4
		c-0.2,0.6-0.4,1.1-0.6,1.7c2.2,0.8,4.5,1.5,6.7,2.6c1.9,0.9,3.6,2.1,5.6,3.3c-6.7,0.9-12.2,1.9-17.8,2.3c-2.2,0.2-4.6-0.8-6.9-1
		c-1.5-0.1-3.3-0.2-4.4,0.5c-0.7,0.4-0.3,2.5-0.4,3.8c-5.1,0.3-7.2-1.7-8-8.6c-3.5,2.2-6.9,4.3-10.1,6.3c-5.6-3.5-12.8-6-13.5-15.2
		c5.1,0,10.1,0,16.2,0c-5.7-7.7-12.3-3.2-17.8-4.5c-1.8-0.4-4.8-0.9-5-1.8c-1.3-5.1-1.8-10.3-2.6-15.5c0-0.2,0.3-0.5,0.2-0.6
		c-5.6-6.4-0.4-13.1-0.4-19.6c0-8.1,2.7-15.6,8.6-21.5c4.2-4.2,9-5.2,13.5-2.8c-1.5,6.8-2.9,13.1-4.4,19.4c-1,4.4-1.3,8.5,3.4,11.1
		c0.5,0.2,0.9,1,0.9,1.5c-0.7,11,7.1,16,16.8,21.8c-2.2,1.3-3.8,2.3-5.3,3.2c-1,0.4-2,0.7-2.9,1.1c0.5,0.6,1,1.1,1.6,1.7
		c0.9-0.5,1.7-1,2.6-1.6c2-1.4,5.9-3.2,5.7-4.2c-0.7-3.5,0.1-8.5-5.8-9.3c-2.3-0.3-4.4-2.5-6.8-4c0.9-2.4,1.6-4.4,2.4-6.8
		c2.8,1.6,5.2,3,7.7,4.4c0.2-0.3,0.4-0.6,0.6-0.9c-1.8-2.7-3.7-5.3-5.9-8.6c-3.4,1.1-6.5,1.2-8-4.2c-1.2-4.8-1.6-8.5,3.2-11.2
		c-1.1-1.3-2.1-2.4-3.2-3.7c2.9-1.6,5.5-3,8.4-4.5c-0.8-0.9-1.7-1.9-2.8-3.2c1.6-1.4,3.1-2.7,4.6-4.1c5.5-5.1,8.2-4.7,11.7,1.7
		c0.7,1.2,1.3,2.9,2.4,3.4c8,4.3,10.7,10.3,6.5,18.8c-0.2,0.5-0.1,1.2-0.1,0.8c2.4,3.5,4.2,6.3,7,10.4c0.4-5.3,0.8-9.3,1-12.9
		c2-0.5,3.7-0.9,6.2-1.6c-0.7,9.2,5.6,9,13.7,8.3c-4.1-3.1-7.4-5.6-11.6-8.7c4.3,0,7.6,0,10.9,0c0.1-0.4,0.1-0.9,0.2-1.3
		c-2.3-0.6-4.7-1-6.9-1.9c-1.6-0.6-4.1-2-4-3c0.1-1.7,1.4-3.8,2.9-4.8c1.9-1.2,4.4-1.6,6.7-2c2.7-0.4,5.5-0.8,8.1-0.2
		c2.4,0.6,4.4,2.4,6.7,3.7c-3,3.8-5.2,6.6-7.4,9.4c0.7,0.6,1.3,1.1,2,1.7c0.6-1.5,1.2-3,1.8-4.4c0.4,0.3,0.9,0.5,1.3,0.8
		c0.4,2,0.7,4,1.1,6c0.5,0,0.9,0,1.4,0.1c0.1-2-0.2-4.2,0.5-6c0.7-1.9,2.1-4.7,3.5-4.9c3.8-0.5,3.9,2.5,3.4,5.4
		c-4.1,2.3-5.6,4.5,0,6.8c0.4,0.3,0.8,0.7,1.1,1c0-0.7,0-1.3,0-2C1296.3,340.6,1296.3,339,1296.3,337.3z M1221.5,379.9
		c-1,1.1-2.1,2.3-3.1,3.4c0.5,0.4,0.9,0.8,1.4,1.2c0.9-1.1,1.8-2.2,2.8-3.2c0.3-0.6,0.5-1.1,0.8-1.7
		C1222.7,379.7,1222.1,379.8,1221.5,379.9z M1330.8,353.8c-0.5,0.1-1,0.2-1.4,0.4c0.4,1.9,0.8,3.8,1.3,5.8c0.5-0.1,1.1-0.3,1.6-0.4
		C1331.8,357.6,1331.3,355.7,1330.8,353.8z M1297.2,347.6c0.3,0,0.5,0,0.8,0c-0.1-0.6-0.2-1.2-0.3-1.8c0,0-0.3,0-0.3,0
		C1297.3,346.3,1297.2,346.9,1297.2,347.6z M1404.1,426.7c-0.3-0.5-0.6-0.9-0.9-1.4c-0.3,0.2-0.8,0.5-0.8,0.7c0.2,0.5,0.5,1,0.8,1.4
		C1403.4,427.2,1403.7,427,1404.1,426.7z"/>
	<path class="st6" d="M854.8,574.4c-4.8-1.6-10-2.3-14.2-4.8c-28.1-17-56.5-33.7-83.9-51.8c-21.1-14-40.9-29.9-61.2-45.1
		c-1.2-0.9-1.8-2.5-2.6-3.8c13-14.3,26-28.6,38.9-43c22.5-25.2,44.9-50.4,67.4-75.6c8.1-9.1,16.2-18.3,24.5-27.2
		c4.7-5.1,11.3-3.4,13.3,3.5c0.7,2.7,1,5.8,0.5,8.5c-1.4,7.8,2.3,13.1,7.5,18c-2.3,2.6-4.2,5.7-6.9,7.8c-3.8,3-6.4,5.7-6,11.4
		c0.3,4.4-2.7,9-4.7,14.9c2.7,2.1,6.9,4.7,10.5,8.1c1.7,1.6,3.3,5,2.7,6.9c-2,6.2-5,12.1-8.1,19.2c0,0,1.1,1.4,2.3,2.7
		c3.3,3.7,3.5,7.2-0.6,10.4c-0.8,0.6-2.2,1.3-2.2,2c0,6.9-1.9,13-6.1,18.6c-0.5,0.7,1.2,4.2,2.6,4.9c6.6,3.1,7.4,7.2,4.4,13.6
		c-1.3,2.8-0.2,6.7-0.5,10c-0.3,2.7-0.7,5.5-1.9,8c-3.6,7.8-9.3,15.2-6.4,24.5c1.2,3.8,2.7,7.9,5.2,10.8c5.8,6.8,6.4,13.9,4.3,22.2
		c-2.5,9.8,5.3,16.4,15.1,13.7c2.3-0.6,5.5,0.6,7.6,2c0.9,0.6,0.4,3.8,0.1,5.7C856.3,571.9,855.4,573.1,854.8,574.4z"/>
	<path class="st2" d="M1688.6,611.2c-7.7,5.9-15.4,11.8-23,17.8c-15.7,12.3-31.3,24.6-47.1,36.8c-1.7,1.3-4.7,2.8-6.3,2.2
		c-1.6-0.7-2.3-3.8-3.4-6c-3.6,1.4-3.6,1.4,1.1,12.7c-0.9-0.1-2,0.2-2.4-0.2c-4-5.1-9.6-4.6-15.1-4.3c-4.4,0.2-8.6,0-11.1-4.5
		c-0.4-0.7-1.5-1.5-2.3-1.6c-9.6-1-13.9-7.4-11.3-16.8c0.3-1.1,0.5-2.2,0.7-2.8c-5.1-1.8-9.8-3.5-15-5.4c-1-1.3-2.6-3.4-4.1-5.3
		c1.5-0.4,3.2-0.8,5.5-1.5c-2.5-3.2-4.7-5.8-7.5-9.4c6.1,0.5,10.9,1.2,15.7,1.1c2.1,0,4.3-1.6,6.3-2.7c2.3-1.2,4.3-3,6.6-3.9
		c3.9-1.4,8-2.3,12-3.4c-0.8-3.4-1.1-7.1-2.6-10.1c-1.5-2.9-4.3-5.2-6.5-7.7c-2.1-2.4-4.3-4.7-6.3-7.1c-0.6-0.7-1-2.1-1.6-2.2
		c-9.7-1.5-11.9-9.5-15.2-16.7c-4-8.7-6.8-19.1-20.9-16.2c0-3.1,0.2-5.5-0.1-7.8c-0.2-1.8-1.1-3.5-2.1-6.4c0.3-0.6,1.1-2.6,1.9-4.5
		c-0.3-0.4-0.7-0.8-1-1.2c-1.3,0.9-2.9,1.6-4,2.7c-2.8,2.8-4.5,3-7.7-0.3c-2.6-2.7-4.1-8.4-10.1-6.8c-0.5,0.1-1.5-2.1-2.4-3.2
		c-1.3-1.6-2.7-3.1-4.1-4.7c-0.2-1.4-0.3-2.9-0.7-6.1c9.4,5,17.4,9.4,25.5,13.5c2.3,1.2,5.1,1.3,7.4,2.3c2.5,1.1,4.7,2.9,7.4,4.7
		c6.4-4.1,3,4,4.8,6.1c17.2,0,30.5,7.3,39.6,22c-0.1,0.4-0.2,0.9-0.3,1.3c0.2-0.3,0.5-0.5,0.7-0.8c3-1.1,6.1-3.1,9.1-2.9
		c3.3,0.2,6.5,2.3,8.6,4.2c1.3,2.4,2.4,5,4,7.2c0.3,0.4,2.5-0.4,4.1-0.8c0.8-1.5,2.3-4.2,3.7-6.8c0.5,0.1,0.9,0.2,1.4,0.3
		c0.3,2,0.7,4,1.1,6.4c1.4-3.5,2.6-6.7,3.9-9.8c7.6,4.4,9.6,3.8,13.8-4.8c0.3,1.4,0.5,2.5,0.8,3.9c3.1-1.4,6.1-2.7,10.2-4.5
		c-0.8,3.2-1.1,5.5-2.1,7.5c-0.9,1.9-2.7,3.4-3.3,5.8c6-3.9,11.6-6.5,16.7-2.5c1.3,3.6,2.2,5.9,3.5,9.4c1.3-4.8,1.6-9.8,3-10.2
		c5-1.2,10.3-0.9,15.5-0.6c0.6,0,1,3.8,1.6,6.3c0.5-0.1,1.7-0.3,3-0.6c0.3,3.2,0.6,6.1,0.9,9.6c3.2-1.6,5.8-2.8,8.3-4.1
		c0.3,0.4,0.5,0.9,0.8,1.3c-1.7,1.3-3.5,2.5-5.4,3.9c0.4,0.3,0.7,0.8,1,0.7c7.8-1,8-1,7.3,6.6c-0.4,4.5-1.4,9.1-2.6,13.5
		c-0.3,1.1-2.2,1.8-3.4,2.7C1693,608,1690.8,609.6,1688.6,611.2z M1636.8,603.9c0.6,0.2,1.2,0.4,1.7,0.6c2.1-8.9,4.1-17.9,6.2-26.8
		c-0.4-0.1-0.8-0.2-1.2-0.3c-3.6,6.6-7.3,13.2-11.1,20.2C1638.4,596.7,1637,600.7,1636.8,603.9z"/>
	<path class="st1" d="M1053.1,361.3c4.7-1.8,4.6-4.4,1.3-7.6c0.4-1.2,0.8-2.4,1.2-3.6c1.8,1.8,4.2,3.3,5.4,5.5
		c1.8,3.3,4.6,7.9,3.6,10.5c-2,4.9,1.6,8.1,1.5,12.1c0,0.7,1.7,1.5,2.8,1.9c0.4,0.1,1.6-0.8,1.6-1.4c0.5-2.9,1-5.8,0.9-8.7
		c-0.3-7.8-0.8-15.6-1.3-23.4c0-0.6,0.3-1.2,0.7-2.5c4.5,2.1,9,3.8,13.1,6.2c9.2,5.4,6.3,14,5.5,22.1c-0.2,1.8,0.5,3.8,1.2,5.6
		c2.1,4.8,2.7,9.6,0.4,14.6c-2.5,5.3,2.4,8.5,4.8,11.4c3.5,4.1,8.8,6.7,13.5,9.7c7.2,4.5,9.1,8.3,6.1,14.5c-1.2-1.9-2.1-3.4-3.3-5.3
		c-0.7,1.3-1.2,2.5-2.2,4.4c-1-2-1.7-3.3-2.8-5.5c-1.4,2-3.4,3.6-3.5,5.3c-0.2,4.3-2.3,2.7-4.3,2c-0.7-0.5-1.5-1.1-2.2-1.6
		c0.4,0.9,0.8,1.8,1.1,2.7c0.2,3,0.4,6,0.6,9.5c1.1-1.8,1.8-3.6,3-5c1.1-1.3,2.6-2.2,3.6-3c1.5,2.9,2.8,5.2,3.9,7.6
		c0.3,0.8,0.2,2.1-0.2,2.8c-1.2,2-12.7,4.9-15,3.9c-3.9-1.8-8-2.9-11.6-5.9c-2.3-1.9-6.6-1.3-10.5-1.9c0-0.8,0.1-2-0.2-3
		c-0.5-1.4-1.1-3.5-2.1-3.8c-1.1-0.4-3,0.6-4.2,1.5c-3.3,2.6-6.1,6.4-9.8,8.1c-9.1,4.2-18.6,4.3-28.2,0.8c-1.1-0.4-2.5,0-3.8,0.2
		c-2.9,0.5-5.8,1.1-10.6,2c1.2-7.7,2.2-13.9,3.5-21.5c-3.8-0.4-8.7-1.5-13.5-1.1c-4.3,0.4-6.7-0.7-8.1-4.5c-2-5.5-3.7-11-5.5-16.2
		c4.3-0.7,8.1-1.5,12-1.9c1.7-0.2,3.8-0.1,5.2,0.7c8.8,5.6,18.6,8,28.8,9.2c8,1.8,8,1.8,9.7-6.2c0.2-1,0.3-2,0.5-3
		C1048.2,386.8,1050.6,374.1,1053.1,361.3z"/>
	<path class="st7" d="M1053.1,361.3c-2.4,12.7-4.9,25.5-7.3,38.2c-0.2,1-0.3,2-0.5,3c-1.7,7.9-1.7,7.9-9.7,6.2c-0.9-2-1.6-4.2-2.8-6
		c-1.5-2.3-3.5-4.3-5.4-6.4c-0.6-0.7-1.6-2-1.9-1.9c-4.8,2-8.5-4.6-14.3-0.8c-4.6,3.1-20.1-6.5-21.5-12.5c-0.4-1.6,1.4-4.9,3-5.6
		c2.6-1.2,5.9-0.8,8.9-1.3c3.3-0.5,6.5-1.1,9.8-1.7c0-0.5-0.1-1-0.1-1.5c-2.8-1-5.6-2-7.6-2.7c-3.2,0.9-5.9,1.6-8.5,2.3
		c-0.3-0.7-0.6-1.5-0.8-2.2c1.9-1.3,3.7-2.5,6.1-4.2c-3.9-1.7-7.3-3.3-9.5-4.3c3.9-4.6,7.9-8.6,11.1-13.1c3.7-5.2,6.6-10.2,14.8-8.8
		c3.3,0.6,7.4-3.3,11.7-5.5c1.7,0.6,4.4,1.6,7.1,2.6c-0.9,3.2-1.9,6.5-3.1,10.4c-1.1,0.6-2.8,1.5-5.4,2.9c6.6,4.7,9.5-2.7,15.5-2.7
		c1.6,4.5,3.4,9.6,5.2,14.7C1048.8,360.6,1050.9,361,1053.1,361.3z"/>
	<path class="st7" d="M1002.9,307.2c6.1-4.2,8.7-3.7,11.4,2.2c2.3,5.2,4.1,10.6,6.3,15.9c1.2,3,0.3,4.6-2.7,5.4
		c-2.9,0.8-5.9,1.6-8.7,2.7c-6.8,2.6-12.9,5.9-19,10.1c-5.9,4-8.5,8.3-11,14.1c-0.7,1.6-5.4,3.2-6.6,2.4c-3.2-2.2-5.3-0.5-7.9,0.5
		c-6.6,2.5-8.6,1.2-8.1-5.8c0.6-8.5-2.8-15.1-8.9-21.8c4.9-4.9,12-9,14.6-15.1c2.7-6.2,8.2-9.1,11.1-14.4c1.3-2.3,0.2-5.9,0.5-8.8
		c0.2-2.2,0.9-4.3,1.5-7.3c6.3,1.6,12.3,3.1,18.3,4.7c0.5,0.1,0.9,0.8,1.2,1.3C997.6,297.8,1000.2,302.5,1002.9,307.2z"/>
	<path class="st4" d="M1618.2,766.9c-1.3-2.5-2.5-5-3.8-7.5c2-5,5.1-7.7,10.9-7.5c4.4,0.2,7-2.7,7.2-7.3c1.7-0.5,3.8-0.5,5.1-1.5
		c4.7-3.5,9.1-2.3,14.4,0.9c0.8-2,1.5-4.1,2.5-6c0.6-1.1,1.7-2.6,2.7-2.7c1-0.1,3,1.2,3.2,2.1c0.7,4.1,0.9,8.2,1.4,13.1
		c0.6-0.1,2.8-0.6,3.9-0.8c6.1,3.5,11.6,6.8,17.2,9.8c0.8,0.4,2.6-1.3,3.9-1.3c2.3-0.1,4.6,0.2,6.9,0.4c-1.2,2.7-2.4,5.4-3.6,8.1
		c-2.7,4.2-7,8.1-7.9,12.7c-1.8,8.5-9.5,11.9-13.7,18.1c-1,1.4-5.4,1.9-7.3,0.9c-5.4-2.8-11-5.8-15.1-10.1c-4-4.2-5.9-10.4-9.4-15.2
		C1632.3,766.8,1625.8,764.7,1618.2,766.9z"/>
	<path class="st1" d="M1185.2,295.9c0.1-1.2,0.2-2.3,0.3-3.2c5.5,0.8,11,1.7,17.6,2.7c-1.4-2.4-2.1-3.7-2.9-5.1
		c5.8-3.7,11.3-7.7,17.3-10.9c1.9-1,4.8-0.3,7.2-0.2c2,0.1,4.2-0.1,5.9,0.7c7.2,3.4,7.4,4.5,3.8,12.9c1.7-0.1,3.3-0.3,6-0.5
		c-4,4.4-3.3,9.5-8.5,13c-6.8,4.7-9.1,0.4-12.8-3.9c0.9,8.1,0.7,7.3-7.3,8.9c-6.3,1.2-12.2,4.7-19,7.5c-0.7-2.9-1.3-5.3-2.1-8.5
		c-1.4,1-3,1.7-3.7,2.8c-3.3,5.4-5.5,5.7-9.6,0.9c-0.5-0.6-0.8-1.3-1.7-2.9c-0.3,2.8-0.6,4.4-0.8,6.4c-1.1-0.5-2.2-0.6-2.5-1.1
		c-2.7-5.9-6.9-10.8-6.9-18.2c-0.1-6.1-3.3-12.2-4.9-17.4c-5,0.9-9.6,3.2-11.8,1.8c-3.8-2.6-8.1-5.9-8.7-11.7
		c-0.5-4.3,2-4.9,4.9-5.2c5.4-0.4,11.6,5.2,12.1,10.5c10.7-5,10.7-5,15.1-1.8c-1.7,0.3-3.3,0.6-4.9,0.9c0,0.4,0,0.8-0.1,1.1
		c4.1,0.7,8.1,1.4,12.2,2.1c-0.1,0.8-0.1,1.6-0.2,2.4c-3.4,0-6.8,0-11.7,0c2.4,1.7,3.7,2.7,5,3.6c-0.7,1.5-1.4,3-2.1,4.6
		c0.2,0.3,0.5,0.5,0.7,0.8c1.7-1.1,3.4-2.3,5.2-3.5c1.8,1.1,3.6,2.3,4.1,2.6c1.1,3.5,1.8,5.8,2.5,8
		C1183.7,296.2,1184.5,296,1185.2,295.9z"/>
	<path class="st1" d="M1259.3,540.7c-5.3-13.9-5.7-27.1-5.4-41.6c5,2.1,7.7,3.4,7.8,8.1c0,2,2.6,3.9,4.7,6.8c1-3.1,1.6-4.7,2.4-7.2
		c3.4,4.4,6.7,5.1,11.6,4.1c4.7-0.9,9.9,1,14.8,2.1c1.5,0.3,3.5,1.8,4,3.2c2.3,6.8,6.5,5.7,10.8,3.4c2.1,1.6,4,3.1,5.8,4.4
		c-1.3,12.6-10.9,7.8-18.5,7.9c1.2-7.3-6.6-2.8-10.5-6.5c-0.2,4.5,0.1,9-0.8,13.3c-0.7,3.4-3,6.5-5.2,11c2.6,5.5-3.9,7.4-8.4,12.4
		c-1.9-5.2-3.5-9.3-5.2-13.9c-4.5,2.2-8.8,4.3-13.3,6.5C1249.6,547.6,1255.6,544.2,1259.3,540.7z"/>
	<path class="st3" d="M1690.3,766.6c1.2-2.7,2.4-5.4,3.6-8.1c1.8-0.1,3.8-0.7,5.4-0.1c3.4,1.1,6.1,2,7.7-2.5c0.4-1,2.7-2.4,3.4-2.1
		c6.6,2.8,7.3-2.4,9.5-5c2.8-1.1,5.5-2.8,8.4-3.2c1.7-0.2,3.7,1.6,5.6,2.5c-0.4,0.4-0.9,0.8-1.3,1.1c0.6-0.2,1.1-0.4,1.7-0.6
		c1,0.1,1.9,0.1,2.8,0.2c-4.4,8.2-8.5,16.2-12.9,24c-0.9,1.6-3.3,2.3-4.6,3.7c-2.7,3.2-5.1,6.8-7.8,10c-1.1,1.3-2.7,2.9-4.1,2.9
		c-4.5-0.1-6.2,2.6-5.4,6c1.8,7.7-3.2,13.4-4.9,20.1c-0.5,1.9-9.8,5.8-11.6,4.9c-1.9-1-4.3-2.5-4.7-4.2c-1.9-7.4-2-14.8,2.8-21.5
		c4.6-6.4,8.7-13.2,13.3-20c0.8,0.3,2.1,0.7,3.5,1.2c0.2-1.9,0.3-3.5,0.5-5.2c0.4-0.4,0.7-0.9,1.1-1.3c0.5-0.2,1.1-0.4,1.6-0.6
		c-0.1-0.2-0.3-0.5-0.4-0.7c-0.5,0.4-1,0.7-1.5,1.1c-0.4,0.4-0.9,0.8-1.3,1.1c-3.7,2.5-7.5,5-11.8,8
		C1689.5,774.5,1689.9,770.5,1690.3,766.6z"/>
	<path class="st1" d="M1168.5,232c-3.2,7-6.8,7-13.4,0c1.1-1,2.2-1.9,4.2-3.6c-3.4,0-5.7,0-7.9,0c0.3-0.4,0.6-0.8,0.9-1.3
		c-1.5-2-3.1-3.9-5.6-7.2c5-1.9,9.8-3.7,14.6-5.5c-0.1-0.5-0.2-0.9-0.3-1.4c-1.9,0.1-3.8,0.2-6.1,0.3c1.1-0.9,2-1.5,2.8-2.1
		c-0.1-0.5-0.3-1.1-0.4-1.6c-4.9,1.1-9.8,2.3-16.1,3.7c-0.1-0.5-1.3-2.6-0.8-3.9c0.8-1.7,2.9-2.9,4.7-5.2c-9.6,5.8-7.2-5.1-11.4-6.3
		c2.3-4.8,8.8,4.5,9.8-3.5c-2.8-0.7-5.4-1.3-9.3-2.2c2.4-1.1,3.7-1.7,5-2.3c-0.6-1.4-1.1-2.7-2-4.9c3.2,0.5,5.4,0.9,7.7,1.2
		c0.2-0.3,0.4-0.7,0.6-1c-1.8-1.4-3.6-2.7-5.2-4.3c-1.2-1.1-2.1-2.6-3.2-3.9c1.2-0.7,2.5-1.4,3.7-2.2c1.6-1,3.1-2,5.2-3.4
		c-1.9-0.9-3.2-1.6-4.8-2.3c0.6-0.7,1.1-1.5,1.2-1.4c2.3,1,5.2,1.6,6.7,3.4c2.6,3.1,3.7,7.5,6.5,10.2c2.4,2.3,6.3,3.1,9.5,4.6
		c0,0,0.2-0.3,0.3-0.4c-0.2,0.1-0.5,0.2-0.5,0.4c-0.4,6.9,10.7,8.5,7.4,16.8c3.7,0.3,7.1,0.5,10.5,0.7c0,0-0.1-0.1-0.1-0.1
		c-2.2,5.5-4.5,11-6.9,17.1c-1-1.9-1.7-3.4-2.3-4.7c0,6.2,0,12.4,0,20.1c-1.8-2.2-2.8-3.4-3.8-4.6c-0.2-0.5-0.5-1-0.7-1.5
		c-0.6-0.8-1.1-1.6-1.7-2.4c-0.3,0.1-0.5,0.3-0.8,0.4c0.4,1,0.7,2,1.1,3C1168,231.1,1168.3,231.5,1168.5,232z"/>
	<path class="st1" d="M1124.2,330.5c3.9,4.3,7.8,4.7,12.6,1c4.2-3.2,4.7,1.3,6.7,3.7c-1.7,1.2-3.1,2.2-4.7,3.4
		c0.8,0.9,1.6,1.7,1.7,1.9c-2,3.7-3.9,7.2-5.7,10.6c-0.2,0.3-0.4,0.6-0.6,0.9c0.5,0,1,0,1.4-0.1c4.5-3.9,5.7-2.4,7.3,6.1
		c1.3-0.3,2.6-0.6,3.8-0.8c2.5,5.4,1.4,18.9-1.7,21.8c-4.5,4.1-6.1,3.7-9.4-2.2c0,1.9,0.2,3.8,0,5.6c-0.3,2.3-0.9,4.5-1.3,6.7
		c-1.9-1.4-4.3-2.4-5.7-4.2c-4.2-5.5-7.3-11.9-12.2-16.6c-2.4-2.3-4.9-4.6-7.4-7c-5.1-4.7-2.9-8.4,0.4-13.7
		c2.7,3.8,4.9,6.9,7.1,10.1c5.2-1.5,7.2-5.8,4.8-10.4c1-0.9,1.9-1.7,2.8-2.6c-1.2-0.4-2.5-1.4-3.6-1.2c-4.9,0.8-6.1-0.3-5.6-6.2
		c1.8,0.8,3.5,1.5,6.8,3c-2-3.2-3-4.9-4.1-6.7c2-0.9,4-1.9,6.1-2.8C1123.9,330.9,1124.1,330.7,1124.2,330.5z"/>
	<path class="st3" d="M713.2,781.8c4.1-5.4,4.3-9.4-1.3-12.8c-1.1-0.7-1.2-3.2-2-5.6c-1.5-0.8-4-2.2-8-4.4c3-2.6,5.6-4.7,9.1-7.7
		c-6.5,0.8-10.1-0.6-7.2-8.2c3,2,6,3.5,8.4,5.6c6.1,5.3,11.3,11.9,17.9,16.2c7.6,5,7.5,12.5,7.6,19.3c0.1,5.4,1.8,8.9,5.1,12.2
		c3.3,3.2,6.2,6.4,4.5,11.7c-0.5,1.7,1,3.9,1.1,5.9c0.1,1.8,0.1,4.8-0.8,5.1c-1.7,0.7-4.8,0.9-6-0.2c-5.3-4.8-10.2-10.1-15.6-15.6
		c2.5-2,3.8-3,5.4-4.3c-2.8-0.7-5.4-0.9-7.7-1.9c-1.4-0.6-3.6-2.6-3.4-3.5C721.9,787.6,719,784.2,713.2,781.8z"/>
	<path class="st7" d="M1061.7,310.9c-2.1,1.7-4.1,3.8-6.5,5c-2.6,1.3-5.7,1.7-8.9,2.7c-2.7-1.4-6-3.1-9-4.6c1.3-2.9,2.4-5.3,3.6-7.9
		c5.7-0.5,12-1.1,18.3-1.7c-4.6-6.1-9.7-0.8-15.6-1.3c1.8-2.4,3.1-4,5.6-7.2c-3.2,0.7-5.3,0.7-6.7,1.6c-3,1.9-5.6,3.5-8.6,0.2
		c-0.6-0.6-1.8-0.5-2.7-0.9c-2-1-3.9-2-5.9-3c1.6-1.8,3.2-3.6,5-5.3c0.5-0.5,1.5-0.6,2.2-0.9c-4.2-6,2.3-4.4,4.2-6.2
		c-0.7-1.1-1.3-2.2-1.9-3.1c2-3.5,8.9-2,7.5-8.2c11.7,0.6,16.3,4.9,17.1,15.6c1.5,0.3,3,0.7,4.6,1c-0.7,1.6-1.5,3.1-2.5,5.3
		c0.8,0.4,2.3,1.2,3.9,1.9C1064.1,299.5,1062.9,305.2,1061.7,310.9z"/>
	<path class="st1" d="M1162.8,356.5c5.8,6.8,5.8,6.8,1,17.7c-3.6-1.3-7.7-2-6.7-7.5c0.1-0.4,0-0.9-0.2-1.2c-7.3-8.3-3.8-18.6-6-28.4
		c1.8-0.2,3.1-0.3,5.3-0.6c-1.6-1.9-2.6-3.1-3.7-4.4c5.4-8.3,14.1-9.5,18.8-3.5c4.2-0.9,8.2-1.7,13.5-2.8c-1.2,4.2-2.1,6.6-2.6,9.1
		c-1,4.7-2.2,9.3-2.6,14c-0.5,6.3-2.3,8.1-8.6,7.5C1168.6,356.3,1166.2,356.5,1162.8,356.5z M1157.1,337.3c-0.4-0.2-0.9-0.4-1.3-0.5
		c-0.1,0-0.5,0.8-0.4,0.9c0.3,0.3,0.8,0.5,1.2,0.8C1156.8,338.2,1156.9,337.9,1157.1,337.3z"/>
	<path class="st1" d="M1061.7,310.9c1.2-5.7,2.4-11.4,3.6-17.1c2,0.7,4,1.4,6.5,2.3c3.4-4,3.3-8.6,0.4-13c-2-3-2.5-5,0.4-7.8
		c1.8-1.7,2.3-4.8,3.5-7.7c4.1,0.8,6.1,2.6,4.4,7.8c-1,3.1-0.2,6.8-0.2,11.4c-0.1,0.1-1.5,1.1-3.6,2.6c3.2,2.1,5.8,3.8,8.4,5.5
		c0.4-0.4,0.8-0.8,1.2-1.3c-0.4-1.6-0.8-3.2-1.6-6.5c3.8,1.5,7.1,1.9,8.7,3.8c1,1.2,0,4.7-0.8,6.9c-1.7,4.6-3.8,9.1-5.9,13.8
		c-6.1-0.8-11.1-1.4-17-2.2C1068,310.7,1066.1,316.3,1061.7,310.9z"/>
	<path class="st1" d="M1136.1,299.5c-0.1,2.4-0.3,4.9-0.4,7.3c0,0.7,0.6,1.5,0.4,2.2c-2.2,7.2-8.6,1.8-12.4,4
		c-0.7-1.9-1.9-3.8-1.8-5.7c0.1-3.1,1-6.1,1.6-9.5c-4.5,0.8-9.9,1.8-15.2,2.8c-0.2-0.6-0.5-1.3-0.7-1.9c2.7-1.7,5.5-3.4,9.3-5.7
		c0-3.4-5.7-7.8-2.5-14.7c3.3,5.4,5.9,9.7,8.5,14c0.7-0.4,1.5-0.7,2.2-1.1c-1.7-3.7-3.6-7.4-5.2-11.2c-0.4-0.9-0.6-2.8,0-3.2
		c1-0.8,2.7-1.3,3.8-1c1.4,0.5,2.4,2,3.9,3.4c0.8-1.6,1.6-3,2.5-4.5C1139.5,280.8,1134.9,291,1136.1,299.5z"/>
	<path class="st7" d="M1039.1,245.9c1.4-2.2,2.4-3.7,3.7-5.6c3.3,4.1,7.1,6.8,0.7,10.1c-1.1,0.6-0.5,3.7-1.5,5
		c-3.1,4.1-6.7,8-10.9,12.9c-2.7-8-5.4-11.2-9.7-2.2c-1.1,2.2-5.1,3-8.4,4.7c-0.2-2.7-0.3-4.6-0.5-7.2c-1.2,1-2.1,1.8-2.6,2.3
		c-2.4-1.1-4.6-2.1-7.3-3.2c-0.2-5,1.6-7.6,8-8.4c4.3-0.5,8.4-4.4,12.3-7.1C1027.9,243.9,1032.5,239.2,1039.1,245.9z"/>
	<path class="st1" d="M1137,428c0.2-2.4,0.3-4.9,0.5-7.3c0.6-0.2,1.2-0.4,1.8-0.6c2.9,7.1,12.8,7.5,13.8,16.8c0.3,2.6,4.6,4.7,7.1,7
		c-1.6,1.6-3.4,3.8-5.5,5.7c-1,0.9-2.6,2.3-3.3,2c-6.2-2.3-12.3-4.9-18.4-7.5c-0.6-0.3-0.9-1.4-1.5-1.7c-1.5-0.6-3.1-0.9-4.6-1.4
		c1.5-1.3,3.3-2.3,4.4-3.9c1.4-1.9,2.2-4.2,3.3-6.3c0.4-0.7,0.9-1.2,1.4-1.8c0.4,0.3,0.9,0.6,1.3,0.9
		C1137.2,429.3,1137.1,428.7,1137,428z"/>
	<path class="st1" d="M1239.3,312.8c5.6-2.1,10.2-4.1,14.9-5.3c2.1-0.5,5-0.1,6.9,1c4.9,3,9.4,6.7,14,10.1c-0.1,0.6-0.3,1.2-0.4,1.8
		c-2.8,0.8-5.7,1.4-8.4,2.4c-2.7,1.1-5.7,2.2-7.7,4.1c-3.8,3.6-6.5,3.5-9.6-0.8c-1.5-2.1-4.2-3.4-5.7-5.5
		C1241.5,318.2,1240.5,315.3,1239.3,312.8z"/>
	<path class="st1" d="M1114.6,220.5c2.6,2.3,5,4.1,6.8,6.2c1.4,1.6,2.4,3.6,3.1,5.6c1,2.7,1.7,5.5,2.1,8.3c0.3,2.2,0.4,4.6-0.1,6.8
		c-0.2,0.7-2.9,1.8-3.5,1.3c-1.5-1-2.9-2.7-3.5-4.4c-2.4-6.7-9.6-9.9-16.7-6.5c-0.7-1.9-1.4-3.7-2.5-6.5c3.1,0.5,4.9,0.8,7.4,1.2
		c-0.7-3.7-1.4-7.1-2.1-10.7c-1.2,0.6-2.1,1-2.9,1.5c-0.6-0.2-1.1-0.4-1.7-0.6c1.2-3.2,2-8.9,3.5-9c5.6-0.6,6.5,4,5.5,9.5
		C1112.2,221.9,1113.5,221.2,1114.6,220.5z"/>
	<path class="st3" d="M1725.8,713.5c1.9,2.5,4.3,4.8,5.5,7.6c1.3,3,2.1,4.3,5.6,2.8c4.9-2.1,7,0,6.3,5.2c-0.7,5.1-1.6,9.9-6.8,12.7
		c-5.9,3.3-11.6,0.4-12-6.3c-0.4-6.9-0.8-13.9-1.2-20.8C1724,714.3,1724.9,713.9,1725.8,713.5z"/>
	<path class="st1" d="M1311.5,421.8c1.7-3,3-6.4,5.3-8.9c3-3.3,7.7-2,9.8,2c1.2,2.3,2.6,4.6,3.8,6.9c3.3,6.6,0.1,13.9-7.1,15.8
		c-3.3,0.9-8.4-3.1-9.8-8.1c-0.6-2.3-0.7-4.8-1-7.2C1312.1,422.3,1311.8,422.1,1311.5,421.8z"/>
	<path class="st6" d="M1642.5,699.1c5.1-8.6,31.4-13.1,40.3-6.9C1670.6,703.2,1656.4,698.9,1642.5,699.1z"/>
	<path class="st1" d="M1163.4,316.7c-0.3,0.3-1.1,1.8-2.3,2.3c-1.9,0.8-4.3,1.6-6.2,1.1c-2.3-0.6-4.2-2.5-6.2-4
		c-3.5-2.5-7.4-5-2.2-9.6c0.4-0.4,0.6-1,0.9-1.6c1.4-2.9,1.1-8.2,5.7-6.9c3.3,1,6.3,4.7,8.3,7.9
		C1162.9,308.6,1162.7,312.3,1163.4,316.7z"/>
	<path class="st1" d="M1680.8,739.2c1.4,2.3,2.8,4.6,3.9,6.3c9.3-1.7,18.7-1.9,24-11.2c0,5,0.2,8.9-0.1,12.7
		c-0.1,1.2-2.3,3.4-2.7,3.2c-5.3-2.3-10,2.9-15.4,0.9c-3.4-1.3-7.3-1.3-11.1-1.9c0-3.4,0-6.5,0-9.6
		C1679.9,739.5,1680.3,739.3,1680.8,739.2z"/>
	<path class="st1" d="M1304.7,545.7c4.8,5.5,0.9,9.7-0.5,13.7c-1.3,3.8-4.4,7-7.3,11.5c-2.5-2.8-4.9-4.2-5.2-6
		c-0.5-3.6-1.4-8.6,0.5-10.9C1295.2,550.4,1300.3,548.5,1304.7,545.7z"/>
	<path class="st1" d="M1136.9,247.6c-0.8-1.5-1.7-3.1-2.6-4.6c1.1-0.6,2.1-1.1,3.1-1.7c-0.3-0.6-0.4-1.1-0.7-1.2
		c-4.4-1.4-6.7-4.3-6.1-9c0.2-1.8,0.9-3.5,1.3-5.2c1.7,0.7,3.6,1.3,5.2,2.3c2.3,1.4,5.1,2.8,6.2,4.9c1.5,2.8,2.3,6.4,2,9.5
		c-0.1,1.6-3.1,3.2-5,4.4C1139.5,247.6,1138.1,247.4,1136.9,247.6z"/>
	<path class="st7" d="M1079.7,242.2c-1.9,0.7-3.8,1.4-5.6,2.1c2.8,7.1,2,8.1-5.6,8.8c-4,0.4-6.5-0.9-6.7-5c-0.2-4,0.3-8.2,5.7-8.2
		c3.9,0,7.8,0.6,11.7,0.9C1079.4,241.3,1079.6,241.8,1079.7,242.2z"/>
	<path class="st1" d="M1081.8,333.8c3.6,0,8.2-1.3,10.6,0.4c2.3,1.6,2.5,6.4,2.9,9.8c0.1,0.5-4.9,2.8-5.6,2.1
		c-3.1-3-5.6-6.7-8.3-10.2C1081.5,335.2,1081.6,334.5,1081.8,333.8z"/>
	<path class="st9" d="M1400.2,904.8c1-0.6,1.9-1.4,2.9-1.6c4.9-1.1,9.9-2.4,14.9-3c3-0.4,7.1-1.4,8.2,3.2c0.2,1.1-2.1,3.9-3.3,3.9
		c-7.5-0.1-15.1-0.7-22.6-1.1C1400.3,905.7,1400.2,905.3,1400.2,904.8z"/>
	<path class="st4" d="M718.5,678.5c0.1,0.8,0.1,1.6,0.2,2.5c-0.8,2.2-1.5,4.4-2.2,6.5c-6.7,0.8-10.2-2.7-9.6-8.5
		c0.2-2.4,4.4-4.4,6.5-6.4C715.6,675.3,717,676.9,718.5,678.5z"/>
	<path class="st1" d="M1155.6,247.9c-0.4,7.5-4.8,8.8-10,8.2c-1.6-0.2-2.9-2.2-4.4-3.4c1.3-1.3,2.4-3.3,4-3.6
		C1148.4,248.3,1151.8,248.3,1155.6,247.9z"/>
	<path class="st3" d="M724.8,695.7c-1.1,3.1-2.2,6.3-3.1,8.8c-3.5,0-5.9,0-9.8,0c3.2-5.1,6.6-10.4,9.8-15.4
		C722.7,691.4,723.8,693.5,724.8,695.7C724.8,695.7,724.8,695.7,724.8,695.7z"/>
	<path class="st4" d="M1159.6,171.5c4.1-2.6,8.1-5.1,12.3-7.8c0,0.1,0.3,1.3,0.6,2.7c2.8-1.3,5.5-2.5,7.6-3.5
		c-3.2,5.3-6.5,10.5-9.7,15.8c-0.7-0.4-1.4-0.8-2.1-1.2c0.4-1.9,0.7-3.8,1.1-5.9c-3.4,0.6-6.3,1.2-9.2,1.8
		C1160,172.7,1159.8,172.1,1159.6,171.5z"/>
	<path class="st1" d="M1391.8,755.4c-4.1-0.2-8.2-0.1-12.3-0.7c-1-0.1-2.8-2.6-2.5-3.3c0.6-1.4,2.6-3.5,3.5-3.3
		c4.2,1,8.2,2.8,12.3,4.2C1392.5,753.4,1392.1,754.4,1391.8,755.4z"/>
	<path class="st0" d="M884.7,345.1c-4.4,3.6-6.3,12.6-15.1,7.4C872.4,346.2,879.7,342.7,884.7,345.1z"/>
	<path class="st0" d="M1017.8,277.3c4-2,8-4.1,12-6.1c0.5,0.6,1.1,1.2,1.6,1.8c-2.9,3.3-5.5,6.8-8.8,9.6c-0.6,0.5-3.8-1.9-5.7-3
		C1017.2,278.9,1017.5,278.1,1017.8,277.3z"/>
	<path class="st2" d="M1217.3,202.3c-0.2,5.7-3.7,0.4-5,1.4c0-1.6,0-3.4,0-5.2c6.8-4.9,10.9-5.4,15.4-0.6c-4.7,0-8.3,0-13.1,0
		C1215.9,200,1216.6,201.1,1217.3,202.3z"/>
	<path class="st1" d="M1342.3,414.4c-8.7,4.7-8.7,4.7-12.7-0.3C1333.2,410.3,1338.2,410.2,1342.3,414.4z"/>
	<path class="st1" d="M1174.5,254.5c-2.2,1.7-3.4,2.7-4.7,3.7c-1.6-2.1-3.5-4.2-4.8-6.5c-0.2-0.4,1.6-2.1,2.6-3.2
		C1169.6,250.3,1171.6,252.1,1174.5,254.5z"/>
	<path class="st0" d="M1075.2,232.4c-3.5-0.7-7-1.4-10.5-2.2c-0.2-0.5-0.4-1.1-0.6-1.6c4.2-1.4,8.3-2.8,12.5-4.2
		C1076.1,227.1,1075.7,229.8,1075.2,232.4z"/>
	<path class="st1" d="M1099.3,262.5c-1.3-4.4-2.5-8.8-3.8-13.2c0.7-0.3,1.4-0.6,2.1-0.8c1.7,4.3,3.5,8.5,5.2,12.8
		C1101.6,261.7,1100.5,262.1,1099.3,262.5z"/>
	<path class="st1" d="M1337.6,520.1c2.8,0.2,5.6,0.4,8.3,0.9c0.3,0.1,0.1,2.6,0.2,4.1c-2.9-0.3-5.9-0.7-8.8-1
		C1337.4,522.7,1337.5,521.4,1337.6,520.1z"/>
	<path class="st7" d="M1055.6,350.2c-0.4,1.2-0.8,2.4-1.2,3.6c-1.5-2.4-3.3-4.8-4.3-7.4c-0.2-0.5,3.3-2.2,5-3.4
		c0.3,1.6,0.7,3.3,0.9,4.9C1056.1,348.6,1055.7,349.4,1055.6,350.2z"/>
	<path class="st1" d="M1160.2,173.3c2.9-0.6,5.8-1.1,9.2-1.8c-0.4,2.2-0.8,4.1-1.1,5.9C1164.1,180.3,1161.9,179.1,1160.2,173.3z"/>
	<path class="st1" d="M1232,438.5c1.3,3.4,2.5,6.2,3.3,9c0.2,0.8-0.6,2.2-1.3,2.9c-0.3,0.3-2.2-0.3-2.4-0.8
		C1230.2,446.3,1227.2,442.9,1232,438.5z"/>
	<path class="st1" d="M1075.2,232.4c0.4-2.7,0.9-5.3,1.3-8c1.9,2,5.5,3.9,5.5,5.9C1082,236,1077.7,232.1,1075.2,232.4z"/>
	<path class="st2" d="M1127.5,206c-1.7-1.5-3.5-2.9-5-4.5c-0.7-0.8-1.6-2-1.4-2.8c0.2-0.9,1.5-2.2,2.4-2.2c1.1,0,2.9,0.7,3.4,1.6
		c1.1,2.2,1.5,4.8,2.2,7.2C1128.5,205.5,1128,205.7,1127.5,206z"/>
	<path class="st2" d="M1265.8,490.6c4.3,1.8,10.8-0.4,12.3,8.5c-5-2.5-9.1-4.6-13.3-6.7C1265.2,491.7,1265.5,491.1,1265.8,490.6z"/>
	<path class="st1" d="M1291.9,398.3c-0.5,3.8-0.9,7.6-1.7,11.4c-0.1,0.6-1.9,1-2.9,1.4c-0.4-1-1.3-2.3-1.1-3.1
		c1.1-3.4,2.5-6.7,3.8-10C1290.6,398.1,1291.2,398.2,1291.9,398.3z"/>
	<path class="st4" d="M1189.1,187.2c0.7,0.4,1.7,0.6,2.1,1.2c2.7,4.8,6.2,6.3,11.7,1.9c-4.1,7.3-7.3,7.7-11.7,2.5
		c-1.2-1.4-2.4-2.7-3.6-4.1C1188.1,188.2,1188.6,187.7,1189.1,187.2z"/>
	<path class="st1" d="M1136.7,323c-0.4,6.1-3.4,7.8-8,7.2c-0.4-0.6-0.8-1.3-1.2-1.9C1130.6,326.5,1133.6,324.7,1136.7,323z"/>
	<path class="st0" d="M1055.4,245c-1.3-2.7-2.5-4.4-2.9-6.3c-0.2-0.8,1.5-1.9,2.3-2.8c1.3,1.8,2.8,3.5,3.8,5.4
		C1058.8,241.6,1057.1,243,1055.4,245z"/>
	<path class="st0" d="M866.2,347.9c-1,2.4-2,4.8-3,7.1c-1.2-1.1-3.6-2.8-3.4-3.3c0.9-2,2.6-3.7,4-5.4
		C864.6,346.9,865.4,347.4,866.2,347.9z"/>
	<path class="st2" d="M1386.5,690.7c-0.3-4.6-0.6-9.1-1-13.7C1389.9,678,1390.6,683.1,1386.5,690.7z"/>
	<path class="st3" d="M1296.8,860.9c1.2-1.2,2.4-2.4,3.6-3.6c1.3,3.8,3.4,7.6-1.1,10.1C1298.4,865.2,1297.6,863.1,1296.8,860.9z"/>
	<path class="st3" d="M1292,867.6c1.6-2.2,3.1-4.4,4.7-6.7c-0.6,3.5-1.1,7-2,12C1293.3,870.1,1292.7,868.9,1292,867.6z"/>
	<path class="st7" d="M940.2,378.3c0.2-1.1,0.4-2.2,0.7-3.2c0.6,0.1,1.2,0.3,1.8,0.4c-0.6,1.2-1.2,2.4-1.8,3.6
		C940.7,378.8,940.5,378.5,940.2,378.3z"/>
	<path class="st1" d="M1123.7,331.1c-0.2-0.4-0.3-0.8-0.5-1.3c0.3,0.2,0.7,0.5,1,0.7C1124.1,330.7,1123.9,330.9,1123.7,331.1z"/>
	<path class="st1" d="M1465.8,459.3c0.4,0.1,0.8,0.1,1.2,0.2c-0.1,0.2-0.1,0.3-0.2,0.5c-0.3-0.3-0.6-0.6-0.9-0.8L1465.8,459.3z"/>
	<path class="st3" d="M719.9,747.1c-0.2-0.2-0.4-0.3-0.6-0.5c0.1,0,0.3,0,0.3,0.1C719.8,746.8,719.8,747,719.9,747.1
		C719.8,747.2,719.9,747.1,719.9,747.1z"/>
	<path class="st5" d="M1510,914.7c-0.8,0.5-1.6,1-2.3,1.5c-0.2-0.3-0.4-0.5-0.6-0.8c0.7-0.6,1.4-1.2,2.1-1.9
		C1509.4,914,1509.7,914.4,1510,914.7z"/>
	<path class="st5" d="M1381.1,771.4c0.3-0.5,0.7-1,1-1.5c0.2,0.2,0.5,0.5,0.7,0.8c-0.5,0.4-0.9,0.7-1.4,1.1L1381.1,771.4z"/>
	<path class="st5" d="M1381.5,771.7c-0.2,0.2-0.4,0.5-0.6,0.7c0.1-0.4,0.2-0.7,0.3-1.1C1381.1,771.4,1381.5,771.7,1381.5,771.7z"/>
	<path class="st5" d="M1227.8,169.6c-1.5,0.6-2.9,1.1-4.4,1.7c-0.2-0.8-0.3-1.5-0.5-2.3c1.3-0.1,2.6-0.2,4-0.4
		C1227.1,169,1227.4,169.3,1227.8,169.6z"/>
	<path class="st5" d="M1186,122.7c1,0.8,2.1,1.6,3.1,2.4c-0.2,0.4-0.5,0.8-0.7,1.2c-1.2-0.8-2.3-1.5-3.5-2.3
		C1185.3,123.6,1185.7,123.2,1186,122.7z"/>
	<path class="st5" d="M1198,112.2c0.2,0.8,0.4,1.6,0.6,2.5c-0.6-0.4-1.2-0.8-1.8-1.2C1197.2,113,1197.6,112.6,1198,112.2z"/>
	<path class="st5" d="M1193,117.2c0.2,0.5,0.5,1,0.7,1.5c-0.6-0.2-1.3-0.4-1.9-0.6C1192.2,117.8,1192.6,117.5,1193,117.2z"/>
	<path class="st5" d="M1191.8,118.2c-0.3-0.2-0.6-0.4-0.8-0.7c0.3-0.5,0.7-1.1,1-1.6c0.3,0.5,0.7,0.9,1,1.4
		C1192.6,117.5,1192.2,117.8,1191.8,118.2z"/>
	<path class="st5" d="M1225.4,162c-0.3-0.4-0.6-0.9-0.9-1.3c0.6,0,1.3,0,1.9,0C1226.1,161.1,1225.7,161.6,1225.4,162z"/>
	<path class="st5" d="M1176.1,130.5c0.2,0.3,0.3,0.7,0.5,1c-0.5,0-1,0-1.5,0C1175.4,131.2,1175.7,130.8,1176.1,130.5z"/>
	<path class="st5" d="M1184.9,121.7c0.4,0.3,0.8,0.7,1.1,1c-0.4,0.4-0.7,0.9-1.1,1.3c-0.4-0.4-0.8-0.9-1.2-1.3
		C1184.2,122.4,1184.5,122,1184.9,121.7z"/>
	<path class="st5" d="M688.9,663.1c-1.3,0.1-2.6,0.3-3.9,0.4c-0.1-0.5-0.1-1-0.2-1.5c1.3-0.1,2.6-0.3,3.9-0.4
		C688.7,662.1,688.8,662.6,688.9,663.1z"/>
	<path class="st5" d="M691.7,658.9c-0.1,0.6-0.2,1.2,0,0.1C691,659.8,691.3,659.4,691.7,658.9C691.7,658.9,691.7,658.9,691.7,658.9z
		"/>
	<path class="st2" d="M1520.3,539.6c-0.2,0.1-0.3,0.1-0.5,0.2c0-0.2-0.1-0.4-0.1-0.7c0.2,0,0.4,0,0.5,0.1
		C1520.3,539.3,1520.2,539.5,1520.3,539.6z"/>
	<path class="st5" d="M1415.8,531.6c-0.2,0.2-0.4,0.5-0.6,0.7c0.1-0.3,0.3-0.6,0.4-0.9C1415.6,531.4,1415.8,531.6,1415.8,531.6z"/>
	<path class="st5" d="M1193.6,433.9c-0.6-0.3-1.1-0.6-1.7-0.9c0.1-0.2,0.2-0.5,0.2-0.7c0.8,0.2,1.6,0.3,2.4,0.5
		C1194.2,433.2,1193.9,433.5,1193.6,433.9z"/>
	<path class="st5" d="M1295.3,343.2c-5.5-2.3-4.1-4.6,0-6.8c0.3,0.3,0.6,0.6,1,0.9c0,1.7,0.1,3.3,0.1,5
		C1296,342.6,1295.6,342.9,1295.3,343.2z"/>
	<path class="st5" d="M1345.5,351.2c-0.4,1.9-0.9,3.7-1.3,5.6c-0.6-0.2-1.2-0.3-1.8-0.5c0.6-2.2,1.2-4.3,1.8-6.5
		C1344.6,350.3,1345.1,350.7,1345.5,351.2z"/>
	<path class="st5" d="M1330.8,353.8c0.5,1.9,1,3.8,1.5,5.7c-0.5,0.1-1.1,0.3-1.6,0.4c-0.4-1.9-0.8-3.8-1.3-5.8
		C1329.8,354.1,1330.3,353.9,1330.8,353.8z"/>
	<path class="st5" d="M1222.5,381.2c-0.9,1.1-1.8,2.2-2.8,3.2c-0.5-0.4-0.9-0.8-1.4-1.2c1-1.1,2.1-2.3,3.1-3.4
		C1221.8,380.3,1222.2,380.8,1222.5,381.2z"/>
	<path class="st5" d="M1362.3,483.2c-0.8-1.2-1.6-2.4-2.4-3.6c0.6-0.3,1.1-0.7,1.7-1c0.6,1.2,1.2,2.3,1.7,3.5
		C1363.1,482.5,1362.7,482.9,1362.3,483.2z"/>
	<path class="st5" d="M1297.2,347.6c0.1-0.6,0.1-1.2,0.2-1.8c0,0,0.3,0,0.3,0c0.1,0.6,0.2,1.2,0.3,1.8
		C1297.7,347.5,1297.4,347.5,1297.2,347.6z"/>
	<path class="st5" d="M1397.7,381.7c0.3,0.8,0.6,1.6,0.9,2.4c-0.2,0.1-0.5,0.2-0.7,0.4c-0.4-0.6-0.9-1.2-1.3-1.7
		C1396.9,382.4,1397.3,382.1,1397.7,381.7z"/>
	<path class="st5" d="M1404.1,426.7c-0.4,0.3-0.7,0.5-0.9,0.8c-0.3-0.5-0.6-0.9-0.8-1.4c0-0.1,0.5-0.5,0.8-0.7
		C1403.5,425.8,1403.8,426.2,1404.1,426.7z"/>
	<path class="st5" d="M1226.3,377.7c-0.9,0.5-1.7,1-2.6,1.6c-0.5-0.6-1-1.1-1.6-1.7c1-0.4,2-0.7,2.9-1.1
		C1225.5,376.8,1225.9,377.3,1226.3,377.7z"/>
	<path class="st5" d="M1296.4,342.3c0,0.7,0,1.3,0,2c-0.4-0.3-0.8-0.7-1.1-1C1295.6,342.9,1296,342.6,1296.4,342.3z"/>
	<path class="st5" d="M1221.5,379.9c0.6-0.1,1.2-0.2,1.8-0.3c-0.3,0.6-0.5,1.1-0.8,1.7C1222.2,380.8,1221.8,380.3,1221.5,379.9z"/>
	<path class="st5" d="M1429.9,469.6c-0.1-0.4-0.2-0.8-0.4-1.3c0.4,0.1,0.8,0.3,1.2,0.4C1430.4,469,1430.1,469.3,1429.9,469.6z"/>
	<path class="st5" d="M1636.8,603.9c0.2-3.2,1.6-7.2-4.3-6.3c3.9-7,7.5-13.6,11.1-20.2c0.4,0.1,0.8,0.2,1.2,0.3
		c-2.1,8.9-4.1,17.9-6.2,26.8C1637.9,604.3,1637.4,604.1,1636.8,603.9z"/>
	<path class="st5" d="M1589.7,564.7c-0.2,0.3-0.5,0.5-0.7,0.8c0.1-0.4,0.2-0.9,0.3-1.3C1589.4,564.4,1589.6,564.5,1589.7,564.7z"/>
	<path class="st5" d="M1098.2,430.1c-0.4-0.9-0.8-1.8-1.1-2.7c0.7,0.5,1.5,1.1,2.2,1.6C1098.9,429.4,1098.5,429.7,1098.2,430.1z"/>
	<path class="st5" d="M1734.4,748.6c-0.6,0.2-1.1,0.4-1.7,0.6c0.4-0.4,0.9-0.8,1.3-1.1C1734.1,748.2,1734.2,748.4,1734.4,748.6z"/>
	<path class="st5" d="M1702.2,769.1c0.5-0.4,1-0.7,1.5-1.1c0.1,0.2,0.3,0.5,0.4,0.7c-0.5,0.2-1.1,0.4-1.6,0.6
		C1702.5,769.3,1702.2,769.1,1702.2,769.1z"/>
	<path class="st5" d="M1702.5,769.3c-0.4,0.4-0.7,0.9-1.1,1.3c0,0-0.4-0.4-0.4-0.4c0.4-0.4,0.9-0.8,1.3-1.1
		C1702.2,769.1,1702.5,769.3,1702.5,769.3z"/>
	<path class="st5" d="M1167.8,230.6c-0.4-1-0.7-2-1.1-3c0.3-0.1,0.5-0.3,0.8-0.4c0.6,0.8,1.1,1.6,1.7,2.4
		C1168.7,229.9,1168.3,230.2,1167.8,230.6z"/>
	<path class="st5" d="M1168.5,232c-0.2-0.5-0.5-1-0.7-1.5c0.5-0.3,0.9-0.7,1.4-1c0.2,0.5,0.5,1,0.7,1.5
		C1169.4,231.3,1169,231.7,1168.5,232z"/>
	<path class="st5" d="M1135.7,352c-0.5,0-1,0-1.4,0.1c0.2-0.3,0.4-0.6,0.6-0.9C1135.1,351.4,1135.4,351.7,1135.7,352z"/>
	<path class="st5" d="M1157.1,337.3c-0.2,0.5-0.4,0.9-0.5,1.2c-0.4-0.3-0.9-0.4-1.2-0.8c-0.1-0.1,0.3-0.9,0.4-0.9
		C1156.3,336.9,1156.7,337.2,1157.1,337.3z"/>
	<path class="st5" d="M1137,428c0.1,0.6,0.2,1.3,0.3,1.9c-0.4-0.3-0.9-0.6-1.3-0.9C1136.3,428.7,1136.6,428.4,1137,428z"/>
</g>
<rect y="1" class="st10" width="1920" height="1080"/>
<g>
	<g>
		<g id="svg_2">
			<path class="st11" d="M866.6,602.6c-0.8-3.8-2.1-6.9-3.8-9.8c-1.2-2.2-2.6-4.1-3.9-6.2c-0.4-0.7-0.8-1.4-1.2-2.2
				c-0.8-1.4-1.5-3.1-1.5-5.3c0-2.1,0.7-3.8,1.5-5.2c1.5-2.3,3.9-4.2,7.2-4.7c2.7-0.4,5.2,0.3,7,1.3c1.5,0.9,2.6,2,3.4,3.3
				c0.9,1.4,1.5,3.1,1.6,5.2c0,1.1-0.2,2.1-0.4,3c-0.3,0.9-0.7,1.6-1,2.3c-0.7,1.5-1.6,2.9-2.5,4.2
				C870.2,592.7,867.7,596.9,866.6,602.6z"/>
		</g>
		<circle id="svg_4" class="st12" cx="866.6" cy="579.1" r="3.6"/>
	</g>
	<g class="st13">
		<ellipse class="st14" cx="866.9" cy="605.8" rx="12" ry="8"/>
	</g>
	<g class="st15">
		<ellipse class="st14" cx="866.9" cy="604.9" rx="9.9" ry="6.9"/>
	</g>
	<g class="st16">
		<ellipse class="st14" cx="866.8" cy="603.8" rx="8.1" ry="5.6"/>
	</g>
	<g class="st17">
		<ellipse class="st14" cx="867" cy="602.9" rx="6.5" ry="4.5"/>
	</g>
	<g>
		<ellipse class="st14" cx="867.1" cy="602" rx="4.7" ry="3.2"/>
	</g>
</g>
<g>
	<g>
		<g id="svg_2_1_">
			<path class="st11" d="M865.6,798.6c-0.8-3.8-2.1-6.9-3.8-9.8c-1.2-2.2-2.6-4.1-3.9-6.2c-0.4-0.7-0.8-1.4-1.2-2.2
				c-0.8-1.4-1.5-3.1-1.5-5.3c0-2.1,0.7-3.8,1.5-5.2c1.5-2.3,3.9-4.2,7.2-4.7c2.7-0.4,5.2,0.3,7,1.3c1.5,0.9,2.6,2,3.4,3.3
				c0.9,1.4,1.5,3.1,1.6,5.2c0,1.1-0.2,2.1-0.4,3c-0.3,0.9-0.7,1.6-1,2.3c-0.7,1.5-1.6,2.9-2.5,4.2
				C869.2,788.7,866.7,792.9,865.6,798.6z"/>
		</g>
		<circle id="svg_4_1_" class="st12" cx="865.6" cy="775.1" r="3.6"/>
	</g>
	<g class="st13">
		<ellipse class="st14" cx="865.9" cy="801.8" rx="12" ry="8"/>
	</g>
	<g class="st15">
		<ellipse class="st14" cx="865.9" cy="800.9" rx="9.9" ry="6.9"/>
	</g>
	<g class="st16">
		<ellipse class="st14" cx="865.8" cy="799.8" rx="8.1" ry="5.6"/>
	</g>
	<g class="st17">
		<ellipse class="st14" cx="866" cy="798.9" rx="6.5" ry="4.5"/>
	</g>
	<g>
		<ellipse class="st14" cx="866.1" cy="798" rx="4.7" ry="3.2"/>
	</g>
</g>
<g>
	<g>
		<g id="svg_2_3_">
			<path class="st11" d="M745.6,711.6c-0.8-3.8-2.1-6.9-3.8-9.8c-1.2-2.2-2.6-4.1-3.9-6.2c-0.4-0.7-0.8-1.4-1.2-2.2
				c-0.8-1.4-1.5-3.1-1.5-5.3c0-2.1,0.7-3.8,1.5-5.2c1.5-2.3,3.9-4.2,7.2-4.7c2.7-0.4,5.2,0.3,7,1.3c1.5,0.9,2.6,2,3.4,3.3
				c0.9,1.4,1.5,3.1,1.6,5.2c0,1.1-0.2,2.1-0.4,3c-0.3,0.9-0.7,1.6-1,2.3c-0.7,1.5-1.6,2.9-2.5,4.2
				C749.2,701.7,746.7,705.9,745.6,711.6z"/>
		</g>
		<circle id="svg_4_2_" class="st12" cx="745.6" cy="688.1" r="3.6"/>
	</g>
	<g class="st13">
		<ellipse class="st14" cx="745.9" cy="714.8" rx="12" ry="8"/>
	</g>
	<g class="st15">
		<ellipse class="st14" cx="745.9" cy="713.9" rx="9.9" ry="6.9"/>
	</g>
	<g class="st16">
		<ellipse class="st14" cx="745.8" cy="712.8" rx="8.1" ry="5.6"/>
	</g>
	<g class="st17">
		<ellipse class="st14" cx="746" cy="711.9" rx="6.5" ry="4.5"/>
	</g>
	<g>
		<ellipse class="st14" cx="746.1" cy="711" rx="4.7" ry="3.2"/>
	</g>
</g>
<line class="st18" x1="861.5" y1="607.5" x2="753.5" y2="712.5"/>
<line class="st18" x1="855.5" y1="800.5" x2="753.9" y2="715.8"/>
</svg>
