<svg xmlns="http://www.w3.org/2000/svg" xmlns:xlink="http://www.w3.org/1999/xlink" viewBox="0 0 1920 1080"><defs><style>.cls-1{fill:none;}.cls-2{isolation:isolate;}.cls-3{fill:#d1ebff;}.cls-4{fill:#3f92d1;}.cls-5{fill:#0fbab8;}.cls-6{fill:#92b4d1;opacity:0.2;}.cls-24,.cls-33,.cls-7{fill:#fff;}.cls-20,.cls-31,.cls-8{fill:#a8cff0;}.cls-9{fill:#03336e;}.cls-10{fill:#084c94;}.cls-11{clip-path:url(#clip-path);}.cls-12{opacity:0.8;}.cls-13{fill:#fc0;}.cls-14,.cls-17,.cls-25{fill:#2672ab;}.cls-14,.cls-27{opacity:0.3;}.cls-15{fill:#ffd70f;}.cls-16,.cls-26{fill:#f0f8ff;}.cls-18,.cls-22,.cls-27,.cls-30{fill:#72b5e8;}.cls-19{fill:url(#linear-gradient);}.cls-20,.cls-25,.cls-30,.cls-33{opacity:0.5;}.cls-21{fill:url(#linear-gradient-2);}.cls-22,.cls-26{opacity:0.7;}.cls-23{fill:#001a46;}.cls-24{mix-blend-mode:color-dodge;}.cls-28{fill:#ffde17;}.cls-29,.cls-34{fill:#d62d69;}.cls-31,.cls-34{mix-blend-mode:multiply;}.cls-32{fill:#f76195;}</style><clipPath id="clip-path" transform="translate(0.14 0.19)"><polygon class="cls-1" points="1258.26 674.01 1418.64 766.61 1418.64 471.88 1258.26 379.28 1258.26 674.01"/></clipPath><linearGradient id="linear-gradient" x1="8844.26" y1="9683.41" x2="8819.52" y2="9730.56" gradientTransform="translate(10346.59 10184.29) rotate(180)" gradientUnits="userSpaceOnUse"><stop offset="0" stop-color="#afb6e5"/><stop offset="0.14" stop-color="#b6bce8"/><stop offset="0.35" stop-color="#c8cdf1"/><stop offset="0.58" stop-color="#e5e9ff"/><stop offset="0.95" stop-color="#f5f4fc"/><stop offset="1" stop-color="#f7f6fb"/></linearGradient><linearGradient id="linear-gradient-2" x1="6289.47" y1="9541.45" x2="6228.9" y2="9656.89" gradientTransform="matrix(1, 0, 0, -1, -4528.76, 10184.29)" xlink:href="#linear-gradient"/></defs><g class="cls-2"><g id="Layer_1" data-name="Layer 1"><rect class="cls-3" width="1920" height="1080"/><path class="cls-4" d="M1614.37,588.52c0,3,4.11,5.35,9.18,5.35s9.18-2.4,9.18-5.35-4.11-5.34-9.18-5.34S1614.37,585.57,1614.37,588.52Z" transform="translate(0.14 0.19)"/><polygon class="cls-5" points="1643.35 466.98 1649.96 471.39 1654.36 463.9 1643.35 466.98"/><path class="cls-6" d="M1429.81,799.81l26-14.64c6.77-3.91,5.92-10.73-1.9-15.25l-141.08-80.41c-7.81-4.51-19.64-5-26.41-1.09l-26,14.64c-6.77,3.91-5.92,10.74,1.9,15.25l141.07,80.41C1411.21,803.23,1423,803.72,1429.81,799.81Z" transform="translate(0.14 0.19)"/><path class="cls-4" d="M1415.87,791.45l-130-75.07c-14.67-8.47-26.56-31.19-26.56-50.74V319.36c0-9.94-8.17-12.14-3.22-15.71.19-.14,11.61-5.33,11.82-5.41,5.33-2,11-2.95,18,1.05l130,75.07c14.67,8.46,26.56,31.18,26.56,50.74V771.37c0,10.39-3.36,17.8-8.7,21.19-.32.2-14.08,6.74-14.43,6.86C1414.56,801,1422.29,795.15,1415.87,791.45Z" transform="translate(0.14 0.19)"/><path class="cls-7" d="M1405.77,796.07l-130-75.07c-14.67-8.47-26.56-31.19-26.56-50.74V324c0-19.56,11.89-28.54,26.56-20.08l130,75.07c14.67,8.47,26.56,31.19,26.56,50.75V776C1432.33,795.55,1420.44,804.54,1405.77,796.07Z" transform="translate(0.14 0.19)"/><path class="cls-8" d="M1403.46,797.32l-130-75.07c-14.67-8.47-26.56-31.19-26.56-50.74V325.23c0-19.56,11.89-28.54,26.56-20.08l130,75.07c14.67,8.47,26.56,31.19,26.56,50.75V777.24C1430,796.8,1418.13,805.79,1403.46,797.32Z" transform="translate(0.14 0.19)"/><path class="cls-9" d="M1412.36,793.57a16.49,16.49,0,0,1-8.15-2.5L1274.87,716.4c-12.23-7.06-22.18-26.17-22.18-42.59V327.11c0-11.06,4.65-18.21,11.85-18.21a16.52,16.52,0,0,1,8.15,2.5L1402,386.07c12.24,7.06,22.19,26.17,22.19,42.59v346.7C1424.21,786.42,1419.56,793.57,1412.36,793.57Z" transform="translate(0.14 0.19)"/><path class="cls-10" d="M1255.67,675.92V331c0-14.35,8.73-20.94,19.49-14.73l126.58,73.08c10.76,6.21,19.48,22.88,19.48,37.23v345c0,14.35-8.72,20.94-19.48,14.73l-126.58-73.08C1264.4,706.94,1255.67,690.27,1255.67,675.92Z" transform="translate(0.14 0.19)"/><polygon class="cls-3" points="1258.4 674.2 1418.78 766.79 1418.78 472.06 1258.4 379.47 1258.4 674.2"/><path class="cls-7" d="M1390.43,408l16.06,9.27c.61.36,1.11.07,1.11-.63a2.46,2.46,0,0,0-1.11-1.91l-16.06-9.27c-.61-.35-1.11-.07-1.11.63A2.43,2.43,0,0,0,1390.43,408Zm16.06,12.45-16.06-9.27c-.61-.35-1.11-.07-1.11.63a2.44,2.44,0,0,0,1.11,1.91l16.06,9.27c.61.35,1.11.07,1.11-.63A2.44,2.44,0,0,0,1406.49,420.48Zm0,5.72-16.06-9.27c-.61-.35-1.11-.07-1.11.63a2.44,2.44,0,0,0,1.11,1.91l16.06,9.27c.61.35,1.11.07,1.11-.63A2.44,2.44,0,0,0,1406.49,426.2Z" transform="translate(0.14 0.19)"/><path class="cls-7" d="M1292.05,352.58c0,1.69-1.19,2.38-2.67,1.52a5.86,5.86,0,0,1-2.67-4.61c0-1.69,1.19-2.37,2.67-1.52A5.88,5.88,0,0,1,1292.05,352.58Z" transform="translate(0.14 0.19)"/><path class="cls-7" d="M1284,347.89c0,1.7-1.2,2.38-2.67,1.53a5.89,5.89,0,0,1-2.68-4.61c0-1.7,1.2-2.38,2.68-1.53A5.91,5.91,0,0,1,1284,347.89Z" transform="translate(0.14 0.19)"/><path class="cls-7" d="M1275.92,343.21c0,1.69-1.19,2.37-2.67,1.52a5.88,5.88,0,0,1-2.67-4.61c0-1.69,1.19-2.38,2.67-1.52A5.86,5.86,0,0,1,1275.92,343.21Z" transform="translate(0.14 0.19)"/><g class="cls-11"><g class="cls-12"><path class="cls-4" d="M1387.25,502.83l42.45,24.82v-4.44l-42.45-24.83V432.32l-3.85-2.22v66.06l-12.71-7.34-11.92-30.94-110.88-64v4.44l24.23,14v42.86l-24.23-14v4.44l24.23,14v39.58l-24.23-14v4.44L1276,505.85v-44l83,47.93v37.52l-10.32-6-35.73,10.78-65-37.56V519l43.79,25.29V602l-43.79,19.49v4.21l45.28-20.16L1333.25,674l-37.86,29.33,3.6,2.07,64.12-49.67,20.29,11.61v84.52h3.85V669.56l42.14,24.54.31-.55v-3.7l-42.45-24.73v-56.7l42.45,24.82v-4.45L1387.25,604V568l42.45,24.83V588.4l-42.45-24.82V526.07l42.45,24.82v-4.44l-42.45-24.83Zm-91.73,43.65,16.22,9.36.72.41,35.73-10.78,10.8,6.24v36l-15.27-8.81-48.2,21.46Zm87.88,116.44-20.6-11.8-26.48,20.51L1296.71,604l46.78-20.83,15.5,9v.12h.21l24.2,14Zm0-61.16-20.56-11.87v-36l20.56,11.87Zm0-40.4-20.56-11.87V512l20.56,11.87Zm0-42-107.43-62V414.52l79.7,46,11.92,30.93,15.81,9.13Z" transform="translate(0.14 0.19)"/><polygon class="cls-13" points="1341.53 630.1 1341.53 583.22 1323.35 550.73 1323.35 464.75 1315.66 460.31 1315.66 552.66 1333.84 585.15 1333.84 631.88 1341.53 630.1"/></g><path class="cls-13" d="M1327.66,464c0,5.8-4.1,8.14-9.16,5.22s-9.17-10-9.17-15.81,4.11-8.14,9.17-5.22S1327.66,458.2,1327.66,464Z" transform="translate(0.14 0.19)"/><path class="cls-13" d="M1346.13,634.8c0,5.81-4.11,8.15-9.17,5.23s-9.16-10-9.16-15.81,4.1-8.14,9.16-5.22S1346.13,629,1346.13,634.8Z" transform="translate(0.14 0.19)"/></g><path class="cls-14" d="M1338.87,606.76c0,17.8-19.76,34.15-19.76,34.15s-19.75-39.16-19.75-57c0-12.51,8.85-17.56,19.75-11.26S1338.87,594.24,1338.87,606.76Z" transform="translate(0.14 0.19)"/><path class="cls-15" d="M1308.66,377.24a14.41,14.41,0,0,1,1.13-6.32,10.76,10.76,0,0,1,4.07-4.08,12.4,12.4,0,0,0,4-3.71,8.77,8.77,0,0,0,1.11-4.57,8.62,8.62,0,0,0-.68-3.79,5,5,0,0,0-2-2.1q-2.7-1.56-2.7,2.18v4.07l-4.91-2.84v-3.69q0-4.61,2-5.93t5.77.86a15,15,0,0,1,5.77,5.8,16.84,16.84,0,0,1,2,8.23,11.62,11.62,0,0,1-1.44,5.94,14.46,14.46,0,0,1-5,4.72,10.13,10.13,0,0,0-3.12,2.78,6.26,6.26,0,0,0-.8,3.31v.81l9.88,5.7V390l-15-8.68Z" transform="translate(0.14 0.19)"/><path class="cls-15" d="M1336.36,390.46l-9.93-5.73v-5.42l9.46-20.2,5.67,3.28V388l2.46,1.42v5.43l-2.46-1.42v6.89l-5.2-3Zm0-5.42V370.23l-.1-.05-5.1,11.86Z" transform="translate(0.14 0.19)"/><path class="cls-15" d="M1352.62,380.63l4.49,2.6-13,30.44-4.49-2.6Z" transform="translate(0.14 0.19)"/><path class="cls-15" d="M1367,403.73l-10.49-6.06v-5.42l15.6,9v5.2L1364,434.53l-5.3-3Z" transform="translate(0.14 0.19)"/><polygon class="cls-8" points="1642.06 399.53 1642.06 551.89 1677.26 531.65 1677.26 379.29 1642.06 399.53"/><path class="cls-10" d="M1673.77,385.08l-3.38,2.08v3.91l3.38-2.08Zm-6.17,3.56-3.39,2.07v3.92l3.39-2.08Zm-6.18,3.56-3.38,2.07v3.91l3.38-2.08Zm-15.73,9.19v3.91l3.38-2.08v-3.91Zm9.56-5.63-3.39,2.07v3.91l3.39-2.08Z" transform="translate(0.14 0.19)"/><path class="cls-10" d="M1673.77,392.44l-3.38,2.08v3.91l3.38-2.08ZM1667.6,396l-3.39,2.07V402l3.39-2.07Zm-6.18,3.56-3.38,2.07v3.91l3.38-2.08Zm-15.73,9.19v3.91l3.38-2.08v-3.91Zm9.56-5.64-3.39,2.08v3.91l3.39-2.08Z" transform="translate(0.14 0.19)"/><path class="cls-10" d="M1673.77,399.8l-3.38,2.08v3.91l3.38-2.08Zm-6.17,3.56-3.39,2.07v3.91l3.39-2.08Zm-6.18,3.56L1658,409v3.91l3.38-2.08Zm-15.73,9.19V420l3.38-2.08V414Zm9.56-5.64-3.39,2.08v3.91l3.39-2.08Z" transform="translate(0.14 0.19)"/><path class="cls-10" d="M1673.77,407.16l-3.38,2.08v3.91l3.38-2.08Zm-6.17,3.56-3.39,2.07v3.91l3.39-2.08Zm-6.18,3.56-3.38,2.07v3.91l3.38-2.08Zm-15.73,9.19v3.91l3.38-2.08v-3.91Zm9.56-5.64-3.39,2.08v3.91l3.39-2.08Z" transform="translate(0.14 0.19)"/><path class="cls-10" d="M1673.77,414.52l-3.38,2.07v3.91l3.38-2.07Zm-6.17,3.56-3.39,2.07v3.91l3.39-2.08Zm-6.18,3.55-3.38,2.08v3.91l3.38-2.08Zm-15.73,9.2v3.91l3.38-2.08v-3.91Zm9.56-5.64-3.39,2.08v3.91l3.39-2.08Z" transform="translate(0.14 0.19)"/><path class="cls-10" d="M1673.77,421.88l-3.38,2.07v3.91l3.38-2.08Zm-6.17,3.56-3.39,2.07v3.91l3.39-2.08Zm-6.18,3.55-3.38,2.08V435l3.38-2.08Zm-15.73,9.2v3.91l3.38-2.08v-3.91Zm9.56-5.64-3.39,2.08v3.91l3.39-2.08Z" transform="translate(0.14 0.19)"/><path class="cls-10" d="M1673.77,429.24l-3.38,2.07v3.91l3.38-2.08Zm-6.17,3.56-3.39,2.07v3.91l3.39-2.08Zm-6.18,3.55-3.38,2.08v3.91l3.38-2.08Zm-15.73,9.2v3.91l3.38-2.08v-3.91Zm9.56-5.64-3.39,2.08v3.91l3.39-2.08Z" transform="translate(0.14 0.19)"/><path class="cls-10" d="M1673.77,436.6l-3.38,2.07v3.91l3.38-2.08Zm-6.17,3.55-3.39,2.08v3.91l3.39-2.08Zm-6.18,3.56-3.38,2.08v3.91l3.38-2.08Zm-15.73,9.2v3.91l3.38-2.08v-3.91Zm9.56-5.64-3.39,2.08v3.91l3.39-2.08Z" transform="translate(0.14 0.19)"/><path class="cls-10" d="M1673.77,444l-3.38,2.07v3.91l3.38-2.08Zm-6.17,3.55-3.39,2.08v3.91l3.39-2.08Zm-6.18,3.56-3.38,2.08v3.91l3.38-2.08Zm-15.73,9.19v3.92l3.38-2.08v-3.91Zm9.56-5.63-3.39,2.08v3.91l3.39-2.08Z" transform="translate(0.14 0.19)"/><path class="cls-10" d="M1673.77,451.32l-3.38,2.07v3.91l3.38-2.08Zm-6.17,3.55-3.39,2.08v3.91l3.39-2.08Zm-6.18,3.56-3.38,2.08v3.91l3.38-2.08Zm-15.73,9.19v3.91l3.38-2.08v-3.9Zm9.56-5.63-3.39,2.08V468l3.39-2.08Z" transform="translate(0.14 0.19)"/><path class="cls-10" d="M1673.77,458.67l-3.38,2.08v3.91l3.38-2.08Zm-6.17,3.56-3.39,2.08v3.91l3.39-2.08Zm-6.18,3.56-3.38,2.08v3.91l3.38-2.08ZM1645.69,475v3.91l3.38-2.08v-3.9Zm9.56-5.63-3.39,2.08v3.91l3.39-2.08Z" transform="translate(0.14 0.19)"/><path class="cls-10" d="M1673.77,466l-3.38,2.08V472l3.38-2.08Zm-6.17,3.56-3.39,2.08v3.91l3.39-2.08Zm-6.18,3.56-3.38,2.08v3.91l3.38-2.08Zm-15.73,9.19v3.91l3.38-2.08v-3.9Zm9.56-5.63-3.39,2.07v3.92l3.39-2.08Z" transform="translate(0.14 0.19)"/><path class="cls-10" d="M1673.77,473.39l-3.38,2.08v3.91l3.38-2.08ZM1667.6,477l-3.39,2.08v3.91l3.39-2.08Zm-6.18,3.56-3.38,2.08v3.91l3.38-2.08Zm-15.73,9.19v3.91l3.38-2.08v-3.9Zm9.56-5.63-3.39,2.07v3.91l3.39-2.07Z" transform="translate(0.14 0.19)"/><path class="cls-10" d="M1673.77,480.75l-3.38,2.08v3.91l3.38-2.08Zm-6.17,3.56-3.39,2.08v3.91l3.39-2.08Zm-6.18,3.56L1658,490v3.91l3.38-2.08Zm-15.73,9.19V501l3.38-2.08V495Zm9.56-5.63-3.39,2.07v3.91l3.39-2.08Z" transform="translate(0.14 0.19)"/><path class="cls-10" d="M1673.77,488.11l-3.38,2.08v3.91l3.38-2.08Zm-6.17,3.56-3.39,2.08v3.91l3.39-2.08Zm-6.18,3.56L1658,497.3v3.92l3.38-2.08Zm-15.73,9.19v3.91l3.38-2.08v-3.9Zm9.56-5.63-3.39,2.07v3.91l3.39-2.08Z" transform="translate(0.14 0.19)"/><path class="cls-10" d="M1673.77,495.47l-3.38,2.08v3.91l3.38-2.08ZM1667.6,499l-3.39,2.08V505l3.39-2.08Zm-6.18,3.56-3.38,2.07v3.91l3.38-2.07Zm-15.73,9.19v3.91l3.38-2.08V509.7Zm9.56-5.63-3.39,2.07v3.91l3.39-2.08Z" transform="translate(0.14 0.19)"/><path class="cls-10" d="M1673.77,502.83l-3.38,2.08v3.91l3.38-2.08Zm-6.17,3.56-3.39,2.08v3.91l3.39-2.08Zm-6.18,3.56L1658,512v3.91l3.38-2.08Zm-15.73,9.19v3.91l3.38-2.08v-3.91Zm9.56-5.63-3.39,2.07v3.91l3.39-2.08Z" transform="translate(0.14 0.19)"/><path class="cls-10" d="M1673.77,510.19l-3.38,2.08v3.91l3.38-2.08Zm-6.17,3.56-3.39,2.08v3.91l3.39-2.08Zm-6.18,3.56-3.38,2.07v3.91l3.38-2.08Zm-15.73,9.19v3.91l3.38-2.08v-3.91Zm9.56-5.63-3.39,2.07v3.91l3.39-2.08Z" transform="translate(0.14 0.19)"/><path class="cls-10" d="M1673.77,517.55l-3.38,2.08v3.91l3.38-2.08Zm-6.17,3.56-3.39,2.07v3.91l3.39-2.07Zm-6.18,3.56-3.38,2.07v3.91l3.38-2.08Zm-15.73,9.19v3.91l3.38-2.08v-3.91Zm9.56-5.64-3.39,2.08v3.91l3.39-2.08Z" transform="translate(0.14 0.19)"/><path class="cls-10" d="M1673.77,524.91l-3.38,2.08v3.91l3.38-2.08Zm-6.17,3.56-3.39,2.07v3.91l3.39-2.08Zm-6.18,3.56L1658,534.1V538l3.38-2.08Zm-15.73,9.19v3.91l3.38-2.08v-3.91Zm9.56-5.64-3.39,2.08v3.91l3.39-2.08Z" transform="translate(0.14 0.19)"/><polygon class="cls-16" points="1607.37 379.32 1642.08 399.53 1677.26 379.29 1642.51 359.06 1607.37 379.32"/><polygon class="cls-3" points="1642.08 399.53 1642.08 551.89 1607.37 531.66 1607.37 379.32 1642.08 399.53"/><path class="cls-17" d="M1635.1,399.31v3.91l3.38,2.08v-3.91Zm-6.17.35,3.38,2.08v-3.91l-3.38-2.07ZM1610.4,389l3.39,2.08v-3.91l-3.39-2.08Zm6.18,3.56,3.38,2.08v-3.92l-3.38-2.07Zm6.17,3.55,3.39,2.08v-3.91l-3.39-2.07Z" transform="translate(0.14 0.19)"/><path class="cls-17" d="M1635.1,406.67v3.91l3.38,2.08v-3.91Zm-6.17.35,3.38,2.08v-3.91l-3.38-2.08Zm-18.53-10.67,3.39,2.08v-3.91l-3.39-2.08Zm6.18,3.56L1620,402v-3.91l-3.38-2.07Zm6.17,3.55,3.39,2.08v-3.91l-3.39-2.07Z" transform="translate(0.14 0.19)"/><path class="cls-17" d="M1635.1,414v3.91l3.38,2.08v-3.91Zm-6.17.35,3.38,2.08v-3.91l-3.38-2.08Zm-18.53-10.67,3.39,2.08v-3.91l-3.39-2.08Zm6.18,3.55,3.38,2.08v-3.91l-3.38-2.07Zm6.17,3.56,3.39,2.08V409l-3.39-2.07Z" transform="translate(0.14 0.19)"/><path class="cls-17" d="M1635.1,421.39v3.91l3.38,2.08v-3.91Zm-6.17.35,3.38,2.08v-3.91l-3.38-2.08Zm-18.53-10.67,3.39,2.08v-3.91l-3.39-2.08Zm6.18,3.55,3.38,2.08v-3.91l-3.38-2.07Zm6.17,3.56,3.39,2.08v-3.91l-3.39-2.07Z" transform="translate(0.14 0.19)"/><path class="cls-17" d="M1635.1,428.75v3.91l3.38,2.08v-3.91Zm-6.17.35,3.38,2.08v-3.91l-3.38-2.08Zm-18.53-10.67,3.39,2.07v-3.91l-3.39-2.07Zm6.18,3.55,3.38,2.08v-3.91l-3.38-2.07Zm6.17,3.56,3.39,2.08v-3.91l-3.39-2.08Z" transform="translate(0.14 0.19)"/><path class="cls-17" d="M1635.1,436.11V440l3.38,2.08v-3.91Zm-6.17.35,3.38,2.08v-3.91l-3.38-2.08Zm-18.53-10.68,3.39,2.08V424l-3.39-2.07Zm6.18,3.56,3.38,2.08v-3.91l-3.38-2.07Zm6.17,3.56,3.39,2.08v-3.91l-3.39-2.08Z" transform="translate(0.14 0.19)"/><path class="cls-17" d="M1635.1,443.47v3.91l3.38,2.08v-3.91Zm-6.17.35,3.38,2.08V442l-3.38-2.08Zm-18.53-10.68,3.39,2.08v-3.91l-3.39-2.07Zm6.18,3.56,3.38,2.08v-3.91l-3.38-2.07Zm6.17,3.56,3.39,2.08v-3.91l-3.39-2.08Z" transform="translate(0.14 0.19)"/><path class="cls-17" d="M1635.1,450.83v3.91l3.38,2.08v-3.91Zm-6.17.35,3.38,2.08v-3.91l-3.38-2.08ZM1610.4,440.5l3.39,2.08v-3.91l-3.39-2.07Zm6.18,3.56,3.38,2.08v-3.91l-3.38-2.08Zm6.17,3.56,3.39,2.08v-3.91l-3.39-2.08Z" transform="translate(0.14 0.19)"/><path class="cls-17" d="M1635.1,458.19v3.91l3.38,2.08v-3.92Zm-6.17.35,3.38,2.08v-3.91l-3.38-2.08Zm-18.53-10.68,3.39,2.08V446L1610.4,444Zm6.18,3.56,3.38,2.08v-3.91l-3.38-2.08Zm6.17,3.56,3.39,2.08v-3.91l-3.39-2.08Z" transform="translate(0.14 0.19)"/><path class="cls-17" d="M1635.1,465.55v3.9l3.38,2.08v-3.91Zm-6.17.35,3.38,2.08v-3.91l-3.38-2.08Zm-18.53-10.68,3.39,2.08v-3.91l-3.39-2.07Zm6.18,3.56,3.38,2.08V457l-3.38-2.08Zm6.17,3.56,3.39,2.08v-3.91l-3.39-2.08Z" transform="translate(0.14 0.19)"/><path class="cls-17" d="M1635.1,472.91v3.9l3.38,2.08V475Zm-6.17.35,3.38,2.08v-3.91l-3.38-2.08Zm-18.53-10.68,3.39,2.08v-3.91l-3.39-2.08Zm6.18,3.56,3.38,2.08v-3.91l-3.38-2.08Zm6.17,3.56,3.39,2.08v-3.91l-3.39-2.08Z" transform="translate(0.14 0.19)"/><path class="cls-17" d="M1635.1,480.27v3.9l3.38,2.08v-3.91Zm-6.17.35,3.38,2.08v-3.92l-3.38-2.07Zm-18.53-10.68,3.39,2.08v-3.91L1610.4,466Zm6.18,3.56,3.38,2.08v-3.91l-3.38-2.08Zm6.17,3.56,3.39,2.08v-3.91l-3.39-2.08Z" transform="translate(0.14 0.19)"/><path class="cls-17" d="M1635.1,487.63v3.9l3.38,2.08V489.7Zm-6.17.35,3.38,2.07v-3.91l-3.38-2.07ZM1610.4,477.3l3.39,2.08v-3.91l-3.39-2.08Zm6.18,3.56,3.38,2.08V479l-3.38-2.08Zm6.17,3.56,3.39,2.08v-3.91l-3.39-2.08Z" transform="translate(0.14 0.19)"/><path class="cls-17" d="M1635.1,495v3.9l3.38,2.08v-3.91Zm-6.17.34,3.38,2.08V493.5l-3.38-2.07Zm-18.53-10.67,3.39,2.08v-3.91l-3.39-2.08Zm6.18,3.56,3.38,2.08v-3.91l-3.38-2.08Zm6.17,3.56,3.39,2.08V490l-3.39-2.08Z" transform="translate(0.14 0.19)"/><path class="cls-17" d="M1635.1,502.35v3.9l3.38,2.08v-3.91Zm-6.17.34,3.38,2.08v-3.91l-3.38-2.07ZM1610.4,492l3.39,2.08v-3.91l-3.39-2.08Zm6.18,3.56,3.38,2.08v-3.91l-3.38-2.08Zm6.17,3.56,3.39,2.08V497.3l-3.39-2.07Z" transform="translate(0.14 0.19)"/><path class="cls-17" d="M1635.1,509.7v3.91l3.38,2.08v-3.91Zm-6.17.35,3.38,2.08v-3.91l-3.38-2.07Zm-18.53-10.67,3.39,2.08v-3.91l-3.39-2.08Zm6.18,3.56L1620,505v-3.91l-3.38-2.08Zm6.17,3.56,3.39,2.07v-3.91l-3.39-2.07Z" transform="translate(0.14 0.19)"/><path class="cls-17" d="M1635.1,517.06V521l3.38,2.08v-3.91Zm-6.17.35,3.38,2.08v-3.91l-3.38-2.07Zm-18.53-10.67,3.39,2.08v-3.91l-3.39-2.08Zm6.18,3.56,3.38,2.08v-3.91l-3.38-2.08Zm6.17,3.55,3.39,2.08V512l-3.39-2.07Z" transform="translate(0.14 0.19)"/><path class="cls-17" d="M1635.1,524.42v3.91l3.38,2.08V526.5Zm-6.17.35,3.38,2.08v-3.91l-3.38-2.07ZM1610.4,514.1l3.39,2.08v-3.91l-3.39-2.08Zm6.18,3.56,3.38,2.08v-3.91l-3.38-2.08Zm6.17,3.55,3.39,2.08v-3.91l-3.39-2.07Z" transform="translate(0.14 0.19)"/><path class="cls-17" d="M1635.1,531.78v3.91l3.38,2.08v-3.91Zm-6.17.35,3.38,2.08V530.3l-3.38-2.08Zm-18.53-10.67,3.39,2.08v-3.91l-3.39-2.08Zm6.18,3.56,3.38,2.07v-3.91l-3.38-2.07Zm6.17,3.55,3.39,2.08v-3.91l-3.39-2.07Z" transform="translate(0.14 0.19)"/><path class="cls-17" d="M1635.1,539.14v3.91l3.38,2.08v-3.91Zm-6.17.35,3.38,2.08v-3.91l-3.38-2.08Zm-18.53-10.67,3.39,2.08V527l-3.39-2.08Zm6.18,3.55,3.38,2.08v-3.91l-3.38-2.07Zm6.17,3.56,3.39,2.08V534.1l-3.39-2.07Z" transform="translate(0.14 0.19)"/><polygon class="cls-8" points="1642.11 388.76 1642.11 392.75 1665.15 379.5 1665.15 375.51 1642.11 388.76"/><polygon class="cls-3" points="1642.12 388.76 1642.12 392.75 1619.39 379.5 1619.39 375.53 1642.12 388.76"/><polygon class="cls-17" points="1642.11 388.76 1642.11 389.75 1665.15 376.5 1665.15 375.51 1642.11 388.76"/><polygon class="cls-4" points="1642.12 388.76 1642.12 389.75 1619.39 376.5 1619.39 375.53 1642.12 388.76"/><polygon class="cls-16" points="1619.39 375.53 1642.12 388.76 1665.15 375.51 1642.4 362.26 1619.39 375.53"/><polygon class="cls-8" points="1642.19 374.9 1642.19 382.13 1653.6 375.57 1653.6 368.34 1642.19 374.9"/><polygon class="cls-3" points="1642.19 374.9 1642.19 382.13 1630.95 375.57 1630.95 368.35 1642.19 374.9"/><polygon class="cls-17" points="1642.19 375.8 1642.19 378.51 1653.6 371.95 1653.6 369.24 1642.19 375.8"/><polygon class="cls-4" points="1642.19 375.8 1642.19 378.51 1630.95 371.95 1630.95 369.25 1642.19 375.8"/><polygon class="cls-16" points="1630.95 368.35 1642.19 374.9 1653.6 368.34 1642.34 361.78 1630.95 368.35"/><polygon class="cls-17" points="1588.95 373.81 1588.95 583.7 1627.03 561.8 1627.03 351.91 1588.95 373.81"/><polygon class="cls-4" points="1588.97 373.81 1588.97 583.7 1551.42 561.81 1551.42 351.94 1588.97 373.81"/><polygon class="cls-8" points="1588.95 373.81 1588.95 382.7 1627.03 360.81 1627.03 351.91 1588.95 373.81"/><polygon class="cls-3" points="1588.97 373.81 1588.97 382.7 1551.42 360.81 1551.42 351.94 1588.97 373.81"/><polygon class="cls-16" points="1551.42 351.94 1588.97 373.81 1627.03 351.91 1589.44 330.02 1551.42 351.94"/><polygon class="cls-18" points="1618.58 372.94 1622.68 370.55 1622.68 560.31 1618.58 562.7 1618.58 372.94"/><polygon class="cls-10" points="1620.93 371.57 1620.93 559.65 1618.58 561.02 1618.58 562.7 1622.68 560.31 1622.68 370.55 1620.93 371.57"/><polygon class="cls-18" points="1610.11 377.39 1614.21 375.01 1614.21 564.76 1610.11 567.15 1610.11 377.39"/><polygon class="cls-10" points="1612.46 376.03 1612.46 564.1 1610.11 565.47 1610.11 567.15 1614.21 564.76 1614.21 375.01 1612.46 376.03"/><polygon class="cls-18" points="1601.64 381.85 1605.74 379.46 1605.74 569.22 1601.64 571.61 1601.64 381.85"/><polygon class="cls-10" points="1603.99 380.48 1603.99 568.56 1601.64 569.93 1601.64 571.61 1605.74 569.22 1605.74 379.46 1603.99 380.48"/><polygon class="cls-18" points="1593.17 386.3 1597.27 383.91 1597.27 573.67 1593.17 576.06 1593.17 386.3"/><polygon class="cls-10" points="1595.52 384.93 1595.52 573.01 1593.17 574.38 1593.17 576.06 1597.27 573.67 1597.27 383.91 1595.52 384.93"/><polygon class="cls-8" points="1559.88 372.94 1555.78 370.55 1555.78 560.31 1559.88 562.7 1559.88 372.94"/><polygon class="cls-17" points="1557.53 371.57 1557.53 559.65 1559.88 561.02 1559.88 562.7 1555.78 560.31 1555.78 370.55 1557.53 371.57"/><polygon class="cls-8" points="1568.35 377.39 1564.25 375.01 1564.25 564.76 1568.35 567.15 1568.35 377.39"/><polygon class="cls-17" points="1566.01 376.03 1566.01 564.1 1568.35 565.47 1568.35 567.15 1564.25 564.76 1564.25 375.01 1566.01 376.03"/><polygon class="cls-8" points="1576.82 381.85 1572.72 379.46 1572.72 569.22 1576.82 571.61 1576.82 381.85"/><polygon class="cls-17" points="1574.47 380.48 1574.47 568.56 1576.82 569.93 1576.82 571.61 1572.72 569.22 1572.72 379.46 1574.47 380.48"/><polygon class="cls-8" points="1585.29 386.3 1581.19 383.91 1581.19 573.67 1585.29 576.06 1585.29 386.3"/><polygon class="cls-17" points="1582.94 384.93 1582.94 573.01 1585.29 574.38 1585.29 576.06 1581.19 573.67 1581.19 383.91 1582.94 384.93"/><polygon class="cls-8" points="1589.06 349.53 1589.06 366.71 1612.78 353.07 1612.78 335.89 1589.06 349.53"/><polygon class="cls-3" points="1589.07 349.53 1589.07 366.71 1565.67 353.07 1565.67 335.9 1589.07 349.53"/><polygon class="cls-4" points="1572.28 342.95 1569.06 341.05 1569.06 352.19 1572.28 354.1 1572.28 342.95"/><polygon class="cls-4" points="1578.67 346.7 1575.49 344.83 1575.49 355.97 1578.67 357.84 1578.67 346.7"/><polygon class="cls-4" points="1585.07 350.45 1581.92 348.62 1581.92 359.75 1585.07 361.59 1585.07 350.45"/><polygon class="cls-17" points="1606.04 342.78 1609.14 341.05 1609.14 352.19 1606.04 353.92 1606.04 342.78"/><polygon class="cls-17" points="1599.58 346.61 1602.73 344.83 1602.73 355.97 1599.58 357.75 1599.58 346.61"/><polygon class="cls-17" points="1593.13 350.45 1596.33 348.62 1596.33 359.75 1593.13 361.59 1593.13 350.45"/><polygon class="cls-16" points="1565.67 335.9 1589.07 349.53 1612.78 335.89 1589.36 322.25 1565.67 335.9"/><polygon class="cls-8" points="1589.14 338.15 1589.14 343.16 1601.42 336.1 1601.42 331.09 1589.14 338.15"/><polygon class="cls-3" points="1589.14 338.15 1589.14 343.16 1577.03 336.1 1577.03 331.1 1589.14 338.15"/><polygon class="cls-16" points="1577.03 331.1 1589.14 338.15 1601.42 331.09 1589.3 324.03 1577.03 331.1"/><polygon class="cls-8" points="1589.19 316.73 1589.19 334.29 1594.64 331.15 1589.19 316.73"/><polygon class="cls-3" points="1589.19 316.73 1589.19 334.29 1583.81 331.15 1589.19 316.73"/><polygon class="cls-8" points="1525.39 482.96 1525.39 620.05 1562.13 598.93 1562.13 461.84 1525.39 482.96"/><polygon class="cls-3" points="1525.42 482.96 1525.42 620.05 1489.19 598.94 1489.19 461.87 1525.42 482.96"/><polygon class="cls-16" points="1489.19 461.87 1525.42 482.96 1562.13 461.84 1525.87 440.72 1489.19 461.87"/><path class="cls-4" d="M1492.36,495.42l3.54,2.17v-6.52l-3.54-2.17Zm6.45,3.71,3.53,2.17v-6.52l-3.53-2.16Zm6.44,3.71,3.53,2.17V498.5l-3.53-2.17Z" transform="translate(0.14 0.19)"/><path class="cls-4" d="M1492.36,485.32l3.54,2.18V481l-3.54-2.17Zm6.45,3.72,3.53,2.17v-6.52l-3.53-2.17Zm6.44,3.71,3.53,2.17v-6.51l-3.53-2.17Z" transform="translate(0.14 0.19)"/><path class="cls-4" d="M1492.36,475.23l3.54,2.17v-6.51l-3.54-2.17Zm6.45,3.72,3.53,2.17V474.6l-3.53-2.17Zm6.44,3.71,3.53,2.17v-6.52l-3.53-2.16Z" transform="translate(0.14 0.19)"/><path class="cls-4" d="M1492.36,508.49l3.54,2.17v-9.88l-3.54-2.17Zm6.45,3.71,3.53,2.17v-9.88l-3.53-2.17Zm6.44,3.71,3.53,2.17V508.2l-3.53-2.16Z" transform="translate(0.14 0.19)"/><path class="cls-4" d="M1492.36,524.92l3.54,2.17V513.84l-3.54-2.16Zm6.45,3.71,3.53,2.17V517.56l-3.53-2.17Zm6.44,3.72,3.53,2.17V521.27l-3.53-2.17Z" transform="translate(0.14 0.19)"/><path class="cls-4" d="M1492.36,545.28l3.54,2.17V530.84l-3.54-2.17Zm6.45,3.71,3.53,2.17V534.55l-3.53-2.17Zm6.44,3.71,3.53,2.17v-16.6l-3.53-2.17Z" transform="translate(0.14 0.19)"/><polygon class="cls-4" points="1513.82 480.09 1513.82 613.1 1518.91 616.23 1518.91 483.22 1513.82 480.09"/><polygon class="cls-4" points="1492.51 596.54 1496.04 598.71 1496.04 551.94 1492.51 549.77 1492.51 596.54"/><polygon class="cls-4" points="1498.95 600.26 1502.48 602.43 1502.48 555.66 1498.95 553.49 1498.95 600.26"/><polygon class="cls-4" points="1505.39 603.97 1508.93 606.14 1508.93 559.37 1505.39 557.2 1505.39 603.97"/><polygon class="cls-10" points="1502.48 480.7 1499.58 478.92 1499.58 473 1498.95 472.62 1498.95 479.13 1502.48 481.3 1502.48 480.7"/><polygon class="cls-10" points="1502.48 500.89 1499.58 499.11 1499.58 493.19 1498.95 492.8 1498.95 499.32 1502.48 501.49 1502.48 500.89"/><polygon class="cls-10" points="1502.48 490.8 1499.58 489.01 1499.58 483.1 1498.95 482.71 1498.95 489.22 1502.48 491.39 1502.48 490.8"/><polygon class="cls-10" points="1508.93 554.46 1506.02 552.68 1506.02 536.67 1505.39 536.28 1505.39 552.89 1508.93 555.06 1508.93 554.46"/><polygon class="cls-10" points="1502.48 513.96 1499.58 512.18 1499.58 502.89 1498.95 502.51 1498.95 512.38 1502.48 514.56 1502.48 513.96"/><polygon class="cls-10" points="1508.93 517.67 1506.02 515.89 1506.02 506.61 1505.39 506.22 1505.39 516.1 1508.93 518.27 1508.93 517.67"/><polygon class="cls-10" points="1508.93 504.6 1506.02 502.82 1506.02 496.9 1505.39 496.52 1505.39 503.03 1508.93 505.2 1508.93 504.6"/><polygon class="cls-10" points="1508.93 494.51 1506.02 492.73 1506.02 486.81 1505.39 486.42 1505.39 492.94 1508.93 495.11 1508.93 494.51"/><polygon class="cls-10" points="1508.93 534.11 1506.02 532.32 1506.02 519.68 1505.39 519.29 1505.39 532.53 1508.93 534.7 1508.93 534.11"/><polygon class="cls-10" points="1502.48 530.39 1499.58 528.61 1499.58 515.96 1498.95 515.58 1498.95 528.82 1502.48 530.99 1502.48 530.39"/><polygon class="cls-10" points="1508.93 484.42 1506.02 482.63 1506.02 476.72 1505.39 476.33 1505.39 482.85 1508.93 485.01 1508.93 484.42"/><polygon class="cls-10" points="1499.58 600.05 1499.58 553.88 1498.95 553.49 1498.95 600.26 1502.48 602.43 1502.48 601.83 1499.58 600.05"/><polygon class="cls-10" points="1496.04 547.04 1493.14 545.25 1493.14 529.24 1492.51 528.86 1492.51 545.46 1496.04 547.63 1496.04 547.04"/><polygon class="cls-10" points="1502.48 550.75 1499.58 548.97 1499.58 532.96 1498.95 532.57 1498.95 549.18 1502.48 551.35 1502.48 550.75"/><polygon class="cls-10" points="1506.02 603.76 1506.02 557.59 1505.39 557.2 1505.39 603.97 1508.93 606.14 1508.93 605.54 1506.02 603.76"/><polygon class="cls-10" points="1514.45 612.88 1514.45 480.48 1513.82 480.09 1513.82 613.1 1518.91 616.23 1518.91 615.63 1514.45 612.88"/><polygon class="cls-10" points="1493.14 596.33 1493.14 550.16 1492.51 549.77 1492.51 596.54 1496.04 598.71 1496.04 598.12 1493.14 596.33"/><polygon class="cls-10" points="1496.04 526.68 1493.14 524.89 1493.14 512.25 1492.51 511.86 1492.51 525.11 1496.04 527.27 1496.04 526.68"/><polygon class="cls-10" points="1496.04 487.08 1493.14 485.3 1493.14 479.38 1492.51 479 1492.51 485.51 1496.04 487.68 1496.04 487.08"/><polygon class="cls-10" points="1496.04 476.99 1493.14 475.21 1493.14 469.29 1492.51 468.9 1492.51 475.42 1496.04 477.59 1496.04 476.99"/><polygon class="cls-10" points="1496.04 510.25 1493.14 508.46 1493.14 499.18 1492.51 498.79 1492.51 508.67 1496.04 510.84 1496.04 510.25"/><polygon class="cls-10" points="1496.04 497.18 1493.14 495.39 1493.14 489.48 1492.51 489.09 1492.51 495.6 1496.04 497.77 1496.04 497.18"/><path class="cls-17" d="M1558.5,488.9l-3.53,2.17v6.52l3.53-2.17Zm-6.45,3.72-3.53,2.16v6.52l3.53-2.17Zm-6.44,3.71-3.53,2.17V505l3.53-2.17Zm-16.42,9.6v6.51l3.53-2.17v-6.51Zm10-5.89-3.53,2.17v6.52l3.53-2.17Z" transform="translate(0.14 0.19)"/><path class="cls-17" d="M1558.5,478.81,1555,481v6.52l3.53-2.18Zm-6.45,3.71-3.53,2.17v6.52l3.53-2.17Zm-6.44,3.72-3.53,2.17v6.51l3.53-2.17Zm-16.42,9.59v6.52l3.53-2.17v-6.51Zm10-5.88-3.53,2.17v6.52l3.53-2.17Z" transform="translate(0.14 0.19)"/><path class="cls-17" d="M1558.5,468.72l-3.53,2.17v6.51l3.53-2.17Zm-6.45,3.71-3.53,2.17v6.52l3.53-2.17Zm-6.44,3.72-3.53,2.16v6.52l3.53-2.17Zm-16.42,9.59v6.52l3.53-2.17v-6.52Zm10-5.88-3.53,2.17v6.51l3.53-2.17Z" transform="translate(0.14 0.19)"/><path class="cls-17" d="M1558.5,498.61l-3.53,2.17v9.88l3.53-2.17Zm-6.45,3.71-3.53,2.17v9.88l3.53-2.17Zm-6.44,3.72-3.53,2.16v9.88l3.53-2.17Zm-16.42,9.59v9.88l3.53-2.17v-9.88Zm10-5.88-3.53,2.17v9.88l3.53-2.17Z" transform="translate(0.14 0.19)"/><path class="cls-17" d="M1558.5,511.68l-3.53,2.16v13.25l3.53-2.17Zm-6.45,3.71-3.53,2.17V530.8l3.53-2.17Zm-6.44,3.71-3.53,2.17v13.25l3.53-2.17Zm-16.42,9.6v13.24l3.53-2.17V526.53Zm10-5.88-3.53,2.17v13.24l3.53-2.17Z" transform="translate(0.14 0.19)"/><path class="cls-17" d="M1558.5,528.67l-3.53,2.17v16.61l3.53-2.17Zm-6.45,3.71-3.53,2.17v16.61l3.53-2.17Zm-6.44,3.72-3.53,2.17v16.6l3.53-2.17Zm-16.42,9.59V562.3l3.53-2.17v-16.6Zm10-5.88-3.53,2.17v16.61l3.53-2.17Z" transform="translate(0.14 0.19)"/><path class="cls-17" d="M1558.5,549.59l-3.53,2.17v46.77l3.53-2.17Zm-6.45,3.71-3.53,2.17v46.77l3.53-2.17Zm-6.44,3.72-3.53,2.16V606l3.53-2.17Zm-16.42,9.59v46.77l3.53-2.17V564.44Zm10-5.88-3.53,2.17v46.77l3.53-2.17Z" transform="translate(0.14 0.19)"/><polygon class="cls-10" points="1538.58 506.64 1535.78 508.36 1535.78 508.91 1539.31 506.74 1539.31 500.23 1538.58 500.68 1538.58 506.64"/><polygon class="cls-10" points="1538.58 556.5 1535.78 558.22 1535.78 558.77 1539.31 556.6 1539.31 540 1538.58 540.45 1538.58 556.5"/><polygon class="cls-10" points="1538.58 496.55 1535.78 498.27 1535.78 498.82 1539.31 496.65 1539.31 490.14 1538.58 490.59 1538.58 496.55"/><polygon class="cls-10" points="1538.58 519.71 1535.78 521.43 1535.78 521.98 1539.31 519.81 1539.31 509.94 1538.58 510.38 1538.58 519.71"/><polygon class="cls-10" points="1538.58 536.14 1535.78 537.86 1535.78 538.42 1539.31 536.25 1539.31 523 1538.58 523.45 1538.58 536.14"/><polygon class="cls-10" points="1538.58 486.45 1535.78 488.17 1535.78 488.73 1539.31 486.56 1539.31 480.05 1538.58 480.5 1538.58 486.45"/><polygon class="cls-10" points="1545.02 552.78 1542.22 554.5 1542.22 555.06 1545.75 552.89 1545.75 536.28 1545.02 536.73 1545.02 552.78"/><polygon class="cls-10" points="1545.02 603.87 1542.22 605.59 1542.22 606.14 1545.75 603.97 1545.75 557.2 1545.02 557.65 1545.02 603.87"/><polygon class="cls-10" points="1532.13 523.42 1529.34 525.14 1529.34 525.7 1532.87 523.53 1532.87 513.65 1532.13 514.1 1532.13 523.42"/><polygon class="cls-10" points="1532.13 539.86 1529.34 541.57 1529.34 542.13 1532.87 539.96 1532.87 526.72 1532.13 527.17 1532.13 539.86"/><polygon class="cls-10" points="1532.13 560.21 1529.34 561.93 1529.34 562.49 1532.87 560.32 1532.87 543.71 1532.13 544.16 1532.13 560.21"/><polygon class="cls-10" points="1538.58 607.58 1535.78 609.3 1535.78 609.86 1539.31 607.68 1539.31 560.92 1538.58 561.37 1538.58 607.58"/><polygon class="cls-10" points="1532.13 611.29 1529.34 613.01 1529.34 613.57 1532.87 611.4 1532.87 564.63 1532.13 565.08 1532.13 611.29"/><polygon class="cls-10" points="1545.02 532.43 1542.22 534.15 1542.22 534.7 1545.75 532.53 1545.75 519.29 1545.02 519.74 1545.02 532.43"/><polygon class="cls-10" points="1532.13 490.17 1529.34 491.89 1529.34 492.44 1532.87 490.27 1532.87 483.76 1532.13 484.21 1532.13 490.17"/><polygon class="cls-10" points="1532.13 500.26 1529.34 501.98 1529.34 502.54 1532.87 500.37 1532.87 493.85 1532.13 494.3 1532.13 500.26"/><polygon class="cls-10" points="1532.13 510.35 1529.34 512.07 1529.34 512.63 1532.87 510.46 1532.87 503.94 1532.13 504.39 1532.13 510.35"/><polygon class="cls-10" points="1557.91 508.57 1555.11 510.29 1555.11 510.84 1558.64 508.67 1558.64 498.79 1557.91 499.25 1557.91 508.57"/><polygon class="cls-10" points="1557.91 525 1555.11 526.72 1555.11 527.27 1558.64 525.11 1558.64 511.86 1557.91 512.31 1557.91 525"/><polygon class="cls-10" points="1545.02 515.99 1542.22 517.71 1542.22 518.27 1545.75 516.1 1545.75 506.22 1545.02 506.67 1545.02 515.99"/><polygon class="cls-10" points="1557.91 545.36 1555.11 547.08 1555.11 547.63 1558.64 545.46 1558.64 528.86 1557.91 529.31 1557.91 545.36"/><polygon class="cls-10" points="1551.46 479.03 1548.67 480.75 1548.67 481.3 1552.2 479.13 1552.2 472.62 1551.46 473.07 1551.46 479.03"/><polygon class="cls-10" points="1557.91 469.36 1557.91 475.31 1555.11 477.03 1555.11 477.59 1558.64 475.42 1558.64 468.9 1557.91 469.36"/><polygon class="cls-10" points="1551.46 489.12 1548.67 490.84 1548.67 491.39 1552.2 489.22 1552.2 482.71 1551.46 483.16 1551.46 489.12"/><polygon class="cls-10" points="1557.91 495.5 1555.11 497.22 1555.11 497.77 1558.64 495.6 1558.64 489.09 1557.91 489.54 1557.91 495.5"/><polygon class="cls-10" points="1557.91 485.41 1555.11 487.13 1555.11 487.68 1558.64 485.51 1558.64 479 1557.91 479.45 1557.91 485.41"/><polygon class="cls-10" points="1557.91 596.44 1555.11 598.16 1555.11 598.71 1558.64 596.54 1558.64 549.77 1557.91 550.23 1557.91 596.44"/><polygon class="cls-10" points="1545.02 492.83 1542.22 494.55 1542.22 495.11 1545.75 492.94 1545.75 486.42 1545.02 486.87 1545.02 492.83"/><polygon class="cls-10" points="1551.46 600.15 1548.67 601.87 1548.67 602.43 1552.2 600.26 1552.2 553.49 1551.46 553.94 1551.46 600.15"/><polygon class="cls-10" points="1551.46 499.21 1548.67 500.93 1548.67 501.49 1552.2 499.32 1552.2 492.8 1551.46 493.25 1551.46 499.21"/><polygon class="cls-10" points="1545.02 502.93 1542.22 504.64 1542.22 505.2 1545.75 503.03 1545.75 496.52 1545.02 496.97 1545.02 502.93"/><polygon class="cls-10" points="1545.02 482.74 1542.22 484.46 1542.22 485.01 1545.75 482.85 1545.75 476.33 1545.02 476.78 1545.02 482.74"/><polygon class="cls-10" points="1551.46 512.28 1548.67 514 1548.67 514.56 1552.2 512.38 1552.2 502.51 1551.46 502.96 1551.46 512.28"/><polygon class="cls-10" points="1551.46 528.71 1548.67 530.43 1548.67 530.99 1552.2 528.82 1552.2 515.58 1551.46 516.03 1551.46 528.71"/><polygon class="cls-10" points="1551.46 549.07 1548.67 550.79 1548.67 551.35 1552.2 549.18 1552.2 532.57 1551.46 533.02 1551.46 549.07"/><polygon class="cls-8" points="1525.41 473.05 1525.41 477.91 1553.52 461.75 1553.52 456.89 1525.41 473.05"/><polygon class="cls-3" points="1525.43 473.05 1525.43 477.91 1497.72 461.75 1497.72 456.91 1525.43 473.05"/><polygon class="cls-16" points="1497.72 456.91 1525.43 473.05 1553.52 456.89 1525.78 440.74 1497.72 456.91"/><polygon class="cls-19" points="1547.52 457.11 1525.34 444.19 1503.14 456.98 1525.34 469.9 1547.52 457.11"/><polygon class="cls-18" points="1525.35 448.01 1525.35 444.2 1525.34 444.19 1503.14 456.98 1506.44 458.9 1525.35 448.01"/><polygon class="cls-8" points="1525.34 448.01 1544.22 459 1547.52 457.11 1525.34 444.19 1525.34 448.01"/><polygon class="cls-3" points="1506.59 458.81 1525.2 469.66 1544.07 458.8 1525.43 447.95 1506.59 458.81"/><polygon class="cls-17" points="1762.38 561.11 1705.77 594.01 1705.77 466.53 1762.38 433.8 1762.38 561.11"/><polygon class="cls-4" points="1663.19 442.11 1705.78 466.53 1705.78 594.01 1663.19 569.58 1663.19 442.11"/><polygon class="cls-20" points="1663.19 566.34 1705.78 590.76 1705.78 594.01 1663.19 569.58 1663.19 566.34"/><polygon class="cls-18" points="1719.8 409.45 1762.38 433.8 1705.77 466.53 1663.19 442.12 1719.8 409.45"/><polygon class="cls-8" points="1759.51 574.98 1755.81 577.43 1755.81 438.51 1759.51 436.31 1759.51 574.98"/><polygon class="cls-3" points="1745.11 571.19 1745.11 443.88 1716.04 426.89 1716.04 415.27 1755.83 438.51 1755.83 577.43 1745.09 571.2 1745.11 571.19"/><polygon class="cls-10" points="1751.62 575.14 1720.38 593.27 1720.38 457.08 1751.62 439.16 1751.62 575.14"/><polygon class="cls-17" points="1719.9 420.61 1751.62 439.16 1714.71 460.41 1682.98 441.79 1719.9 420.61"/><polygon class="cls-8" points="1689.29 435.55 1689.29 435.54 1720.3 417.68 1720.3 420.91 1692.22 437.25 1689.29 435.55"/><polygon class="cls-9" points="1747.39 441.73 1747.88 441.47 1747.88 577.41 1747.39 577.66 1747.39 441.73"/><polygon class="cls-9" points="1743.17 444.15 1743.65 443.89 1743.65 579.83 1743.17 580.08 1743.17 444.15"/><polygon class="cls-9" points="1738.95 446.56 1739.43 446.31 1739.43 582.24 1738.95 582.5 1738.95 446.56"/><polygon class="cls-9" points="1734.73 448.98 1735.21 448.72 1735.21 584.66 1734.73 584.91 1734.73 448.98"/><polygon class="cls-9" points="1730.51 451.39 1730.99 451.14 1730.99 587.07 1730.51 587.33 1730.51 451.39"/><polygon class="cls-9" points="1726.29 453.81 1726.78 453.55 1726.78 589.49 1726.29 589.74 1726.29 453.81"/><polygon class="cls-9" points="1722.07 456.23 1722.56 455.97 1722.56 591.9 1722.07 592.16 1722.07 456.23"/><polygon class="cls-4" points="1747.39 441.59 1747.88 441.33 1717.03 422.84 1716.55 423.09 1747.39 441.59"/><polygon class="cls-4" points="1743.17 444.01 1743.65 443.75 1712.81 425.25 1712.33 425.51 1743.17 444.01"/><polygon class="cls-4" points="1738.95 446.42 1739.43 446.17 1708.59 427.67 1708.11 427.92 1738.95 446.42"/><polygon class="cls-4" points="1734.73 448.84 1735.21 448.58 1704.37 430.08 1703.88 430.34 1734.73 448.84"/><polygon class="cls-4" points="1730.51 451.25 1730.99 451 1700.15 432.5 1699.66 432.76 1730.51 451.25"/><polygon class="cls-4" points="1726.29 453.67 1726.78 453.42 1695.93 434.92 1695.44 435.17 1726.29 453.67"/><polygon class="cls-4" points="1722.07 456.09 1722.56 455.83 1691.71 437.33 1691.22 437.59 1722.07 456.09"/><polygon class="cls-9" points="1751.64 558.09 1751.64 559.11 1718.72 577.93 1718.72 576.91 1751.64 558.09"/><polygon class="cls-8" points="1724.73 594.9 1720.72 597.54 1720.72 458.62 1724.73 456.2 1724.73 594.9"/><polygon class="cls-3" points="1710.02 591.3 1710.02 463.99 1680.95 446.99 1680.95 435.38 1720.74 458.62 1720.74 597.54 1710 591.31 1710.02 591.3"/><polygon class="cls-16" points="1680.95 435.39 1719.74 413.13 1759.51 436.28 1755.81 438.51 1720.22 417.71 1689.26 435.54 1724.73 456.2 1720.72 458.62 1680.95 435.39"/><polygon class="cls-3" points="1720.51 655.57 1656.65 618.97 1656.65 527.09 1720.51 563.7 1720.51 655.57"/><polygon class="cls-8" points="1752.63 636.84 1720.49 655.57 1720.49 563.7 1752.63 544.98 1752.63 636.84"/><polygon class="cls-16" points="1752.63 544.98 1720.49 563.7 1656.65 527.09 1688.83 508.36 1752.63 544.98"/><polygon class="cls-17" points="1726.85 565.74 1720.7 569.28 1656.65 532.21 1656.65 535.51 1720.7 572.57 1726.85 569.04 1726.85 565.74"/><polygon class="cls-17" points="1726.85 574.11 1720.7 577.65 1656.65 540.58 1656.65 543.87 1720.7 580.94 1726.85 577.4 1726.85 574.11"/><polygon class="cls-17" points="1726.85 582.48 1720.7 586.01 1656.65 548.95 1656.65 552.24 1720.7 589.3 1726.85 585.77 1726.85 582.48"/><polygon class="cls-17" points="1726.85 590.84 1720.7 594.38 1656.65 557.31 1656.65 560.6 1720.7 597.67 1726.85 594.13 1726.85 590.84"/><polygon class="cls-17" points="1726.85 599.21 1720.7 602.74 1656.65 565.68 1656.65 568.97 1720.7 606.04 1726.85 602.5 1726.85 599.21"/><polygon class="cls-17" points="1726.85 607.57 1720.7 611.11 1656.65 574.04 1656.65 577.34 1720.7 614.4 1726.85 610.87 1726.85 607.57"/><polygon class="cls-17" points="1726.85 615.94 1720.7 619.48 1656.65 582.41 1656.65 585.7 1720.7 622.77 1726.85 619.23 1726.85 615.94"/><polygon class="cls-17" points="1726.85 624.3 1720.7 627.84 1656.65 590.77 1656.65 594.07 1720.7 631.13 1726.85 627.6 1726.85 624.3"/><polygon class="cls-17" points="1726.85 632.67 1720.7 636.21 1656.65 599.14 1656.65 602.43 1720.7 639.5 1726.85 635.96 1726.85 632.67"/><polygon class="cls-17" points="1726.85 641.04 1720.7 644.57 1656.65 607.5 1656.65 610.8 1720.7 647.87 1726.85 644.33 1726.85 641.04"/><polygon class="cls-10" points="1726.85 567.9 1720.7 571.44 1656.65 534.37 1656.65 535.51 1720.7 572.57 1726.85 569.04 1726.85 567.9"/><polygon class="cls-10" points="1726.85 576.27 1720.7 579.81 1656.65 542.74 1656.65 543.87 1720.7 580.94 1726.85 577.4 1726.85 576.27"/><polygon class="cls-10" points="1726.85 584.63 1720.7 588.17 1656.65 551.1 1656.65 552.24 1720.7 589.3 1726.85 585.77 1726.85 584.63"/><polygon class="cls-10" points="1726.85 593 1720.7 596.54 1656.65 559.47 1656.65 560.6 1720.7 597.67 1726.85 594.13 1726.85 593"/><polygon class="cls-10" points="1726.85 601.37 1720.7 604.9 1656.65 567.84 1656.65 568.97 1720.7 606.04 1726.85 602.5 1726.85 601.37"/><polygon class="cls-10" points="1726.85 609.73 1720.7 613.27 1656.65 576.2 1656.65 577.34 1720.7 614.4 1726.85 610.87 1726.85 609.73"/><polygon class="cls-10" points="1726.85 618.1 1720.7 621.63 1656.65 584.57 1656.65 585.7 1720.7 622.77 1726.85 619.23 1726.85 618.1"/><polygon class="cls-10" points="1726.85 626.46 1720.7 630 1656.65 592.93 1656.65 594.07 1720.7 631.13 1726.85 627.6 1726.85 626.46"/><polygon class="cls-10" points="1726.85 634.83 1720.7 638.37 1656.65 601.3 1656.65 602.43 1720.7 639.5 1726.85 635.96 1726.85 634.83"/><polygon class="cls-10" points="1726.85 643.2 1720.7 646.73 1656.65 609.66 1656.65 610.8 1720.7 647.87 1726.85 644.33 1726.85 643.2"/><polygon class="cls-21" points="1663.9 526.78 1688.87 512.21 1744.9 544.27 1719.91 558.86 1663.9 526.78"/><polygon class="cls-8" points="1688.86 515.13 1688.86 512.21 1688.87 512.21 1744.9 544.27 1742.38 545.74 1688.86 515.13"/><polygon class="cls-18" points="1688.87 515.13 1666.42 528.24 1663.9 526.78 1688.87 512.21 1688.87 515.13"/><polygon class="cls-3" points="1742.27 545.68 1720.02 558.67 1666.53 528.08 1688.8 515.08 1742.27 545.68"/><path class="cls-4" d="M1541.25,683.42a1,1,0,0,1-.51-.14l-3.55-2a1,1,0,0,1,1-1.77l3.55,2a1,1,0,0,1,.38,1.4A1,1,0,0,1,1541.25,683.42Zm-8.87-5.1a1,1,0,0,1-.51-.13l-3.55-2.05a1,1,0,1,1,1-1.77l3.55,2a1,1,0,0,1-.51,1.91Zm-8.87-5.1a.94.94,0,0,1-.51-.14l-3.55-2a1,1,0,0,1,1-1.78l3.55,2a1,1,0,0,1-.51,1.91Zm-8.86-5.12a1,1,0,0,1-.57-.17,9.42,9.42,0,0,1-3.07-3.36,1,1,0,0,1,1.81-1,7.29,7.29,0,0,0,2.4,2.63,1,1,0,0,1-.57,1.87Zm-3.52-9-.23,0a1,1,0,0,1-.77-1.23,9.43,9.43,0,0,1,2-4.06,1,1,0,0,1,1.55,1.34,7.39,7.39,0,0,0-1.61,3.18A1,1,0,0,1,1511.13,659.15Zm6.86-7.07a1,1,0,0,1-.89-.51,1,1,0,0,1,.37-1.4l3.54-2.06a1,1,0,0,1,1,1.77l-3.54,2.06A1.06,1.06,0,0,1,1518,652.08Zm8.84-5.16a1,1,0,0,1-.89-.5,1,1,0,0,1,.37-1.4l3.54-2.06a1,1,0,1,1,1,1.76l-3.54,2.06A1,1,0,0,1,1526.83,646.92Zm8.84-5.15a1,1,0,0,1-.52-1.9l3.54-2.07a1,1,0,0,1,1.4.37,1,1,0,0,1-.37,1.4l-3.53,2.06A1,1,0,0,1,1535.67,641.77Zm8.84-5.15a1,1,0,0,1-.88-.51,1,1,0,0,1,.36-1.4l3.54-2.06a1,1,0,0,1,1,1.77l-3.53,2.06A1,1,0,0,1,1544.51,636.62Zm8.84-5.15a1,1,0,0,1-.51-1.91l3.53-2.06a1,1,0,0,1,1,1.77l-3.54,2.06A1.07,1.07,0,0,1,1553.35,631.47Zm8.84-5.15a1,1,0,0,1-.51-1.91l3.53-2.06a1,1,0,0,1,1,1.77l-3.54,2.06A1.07,1.07,0,0,1,1562.19,626.32Zm8.85-5.15a1,1,0,0,1-.89-.51,1,1,0,0,1,.37-1.4l3.54-2.06a1,1,0,1,1,1,1.76l-3.54,2.07A1.06,1.06,0,0,1,1571,621.17Zm8.84-5.16a1,1,0,0,1-.89-.5,1,1,0,0,1,.37-1.4l3.54-2.06a1,1,0,1,1,1,1.76l-3.54,2.06A1,1,0,0,1,1579.88,616Zm8.84-5.15a1,1,0,0,1-.88-.51,1,1,0,0,1,.36-1.4l3.54-2.06a1,1,0,0,1,1,1.77l-3.54,2.06A1,1,0,0,1,1588.72,610.86Zm8.84-5.15a1,1,0,0,1-.51-1.91l3.53-2.06a1,1,0,0,1,1,1.77l-3.53,2.06A1.1,1.1,0,0,1,1597.56,605.71Zm8.84-5.15a1,1,0,0,1-.51-1.91l3.53-2.06a1,1,0,1,1,1,1.76l-3.53,2.07A1.07,1.07,0,0,1,1606.4,600.56Zm8.85-5.16a1,1,0,0,1-.52-1.9l3.54-2.06a1,1,0,0,1,1,1.76l-3.54,2.06A1,1,0,0,1,1615.25,595.4Zm8.84-5.15a1,1,0,0,1-.89-.51,1,1,0,0,1,.37-1.4l.61-.35a1,1,0,1,1,1,1.77l-.61.35A1,1,0,0,1,1624.09,590.25Z" transform="translate(0.14 0.19)"/><path class="cls-4" d="M1417,843h0a26,26,0,0,1-4.23-.5,1,1,0,0,1,.41-2,23,23,0,0,0,3.89.46,1,1,0,0,1,0,2Zm6.1-.56a1,1,0,0,1-.22-2,22.83,22.83,0,0,0,3.74-1.16,1.05,1.05,0,0,1,1.34.57,1,1,0,0,1-.57,1.33,25.92,25.92,0,0,1-4.07,1.26A.78.78,0,0,1,1423.1,842.44Zm-15.95-1.89a1,1,0,0,1-.45-.1c-.49-.24-1-.49-1.44-.76l-2.2-1.25a1,1,0,1,1,1-1.78l2.2,1.25c.43.25.88.48,1.32.7a1,1,0,0,1-.44,1.94Zm25.29-2.17a1,1,0,0,1-.89-.51,1,1,0,0,1,.38-1.4l3.54-2a1,1,0,0,1,1.4.37,1,1,0,0,1-.38,1.4l-3.54,2A1,1,0,0,1,1432.44,838.38Zm-34.21-2.85a1,1,0,0,1-.51-.13l-3.55-2a1,1,0,0,1-.39-1.39,1,1,0,0,1,1.4-.39l3.56,2a1,1,0,0,1,.38,1.4A1,1,0,0,1,1398.23,835.53Zm43.07-2.27a1,1,0,0,1-.51-1.91l3.54-2a1,1,0,0,1,1.4.37,1,1,0,0,1-.38,1.4l-3.54,2A1,1,0,0,1,1441.3,833.26Zm-52-2.79a1.06,1.06,0,0,1-.51-.14l-3.55-2a1,1,0,1,1,1-1.78l3.55,2a1,1,0,0,1-.5,1.92Zm60.82-2.32a1,1,0,0,1-.51-1.91l3.54-2a1,1,0,1,1,1,1.77l-3.55,2A1.06,1.06,0,0,1,1450.16,828.15Zm-69.71-2.75a1,1,0,0,1-.51-.13l-3.56-2a1,1,0,0,1,1-1.78l3.55,2a1,1,0,0,1-.5,1.91ZM1459,823a1,1,0,0,1-.51-1.91l3.55-2a1,1,0,0,1,1.39.38,1,1,0,0,1-.37,1.39l-3.55,2A1,1,0,0,1,1459,823Zm-87.46-2.69a1,1,0,0,1-.51-.14l-3.56-2a1,1,0,0,1-.38-1.39,1,1,0,0,1,1.4-.38l3.55,2a1,1,0,0,1-.5,1.92Zm96.32-2.43a1,1,0,0,1-.88-.51,1,1,0,0,1,.37-1.4l3.55-2a1,1,0,0,1,1.39.38,1,1,0,0,1-.37,1.39l-3.55,2A1,1,0,0,1,1467.88,817.91Zm-105.21-2.64a1,1,0,0,1-.51-.14l-3.56-2a1,1,0,0,1-.38-1.4,1,1,0,0,1,1.39-.38l3.56,2a1,1,0,0,1-.5,1.91Zm114.08-2.48a1,1,0,0,1-.89-.51,1,1,0,0,1,.37-1.4l3.55-2a1,1,0,0,1,1,1.78l-3.54,2A1,1,0,0,1,1476.75,812.79Zm-123-2.59a1,1,0,0,1-.5-.13l-3.56-2a1,1,0,0,1-.38-1.4,1,1,0,0,1,1.4-.38l3.55,2a1,1,0,0,1,.38,1.4A1,1,0,0,1,1353.77,810.2Zm131.84-2.53a1,1,0,0,1-.89-.51,1,1,0,0,1,.37-1.4l3.55-2a1,1,0,1,1,1,1.77l-3.54,2A1,1,0,0,1,1485.61,807.67Zm-140.73-2.53a1,1,0,0,1-.5-.14l-3.56-2a1,1,0,0,1-.38-1.4,1,1,0,0,1,1.39-.38l3.56,2a1,1,0,0,1-.51,1.92Zm149.59-2.59a1,1,0,0,1-.51-1.9l3.54-2a1,1,0,1,1,1,1.77l-3.54,2A1,1,0,0,1,1494.47,802.55ZM1336,800.07a1,1,0,0,1-.51-.13l-3.55-2a1,1,0,0,1,1-1.78l3.56,2a1,1,0,0,1,.38,1.39A1,1,0,0,1,1336,800.07Zm167.34-2.63a1,1,0,0,1-.89-.51,1,1,0,0,1,.38-1.4l1-.59a1,1,0,1,1,1,1.77l-1,.59A1,1,0,0,1,1503.33,797.44ZM1327.1,795a1,1,0,0,1-.5-.13l-3.56-2a1,1,0,0,1-.39-1.39,1,1,0,0,1,1.4-.39l3.56,2a1,1,0,0,1,.38,1.4A1,1,0,0,1,1327.1,795Zm-8.89-5.06a1.06,1.06,0,0,1-.51-.14l-3.55-2a1,1,0,1,1,1-1.78l3.56,2a1,1,0,0,1-.51,1.92Zm-8.89-5.07a1,1,0,0,1-.51-.13l-1.37-.79a7.5,7.5,0,0,1-2.2-1.87,1,1,0,0,1,1.61-1.27,5.27,5.27,0,0,0,1.6,1.36l1.37.79a1,1,0,0,1,.39,1.39A1,1,0,0,1,1309.32,784.87Zm-4.37-8.21a1.45,1.45,0,0,1-.29,0,1,1,0,0,1-.69-1.27,7.27,7.27,0,0,1,2.67-3.83,1,1,0,1,1,1.22,1.64,5.3,5.3,0,0,0-1.93,2.76A1,1,0,0,1,1305,776.66Zm7.59-6.41a1,1,0,0,1-.88-.51,1,1,0,0,1,.37-1.4l3.55-2.05a1,1,0,0,1,1.39.38,1,1,0,0,1-.37,1.39l-3.54,2.05A1,1,0,0,1,1312.54,770.25Zm8.86-5.12a1,1,0,0,1-.88-.51,1,1,0,0,1,.37-1.4l3.54-2.05a1,1,0,1,1,1,1.77l-3.55,2A1,1,0,0,1,1321.4,765.13Z" transform="translate(0.14 0.19)"/><path class="cls-3" d="M1509.47,729.47l-.42,6.5a1.3,1.3,0,0,1-2,1l-4.11-2.53a1.27,1.27,0,0,1-.61-1.27l.83-6.47a1.3,1.3,0,0,1,2-.91l3.7,2.5A1.31,1.31,0,0,1,1509.47,729.47Z" transform="translate(0.14 0.19)"/><path class="cls-22" d="M1508.34,736.88l.42-6.5a1.3,1.3,0,0,0-.56-1.16l-3.7-2.5a1.28,1.28,0,0,0-1.28-.09,1.29,1.29,0,0,1,2-.82l3.7,2.5a1.31,1.31,0,0,1,.57,1.16l-.42,6.5a1.28,1.28,0,0,1-.74,1.08A1,1,0,0,0,1508.34,736.88Z" transform="translate(0.14 0.19)"/><path class="cls-6" d="M1687.11,727.55l-119.86,69.22a51,51,0,0,1-50.81-.12l-21.56-12.44a3.28,3.28,0,0,1,0-5.68l143-83.44a3.27,3.27,0,0,1,3.3,0l46,26.77A3.28,3.28,0,0,1,1687.11,727.55Z" transform="translate(0.14 0.19)"/><polygon class="cls-9" points="1572.79 780.36 1555.88 770.53 1573.58 767.31 1572.79 780.36"/><polygon class="cls-9" points="1668.39 726.42 1651.48 716.59 1669.18 713.37 1668.39 726.42"/><path class="cls-10" d="M1641.27,733.94c0,3.16,1.08,5.4,2.86,6.48l5.64,3.27c1.85,1,.67-1.31,3.47-2.93,5.63-3.25,10.19-11.12,10.19-17.58,0-3.2,3-3.22,1.15-4.29l-6-3.32c-1.84-1-4.35-.81-7.12.79C1645.83,719.61,1641.27,727.48,1641.27,733.94Z" transform="translate(0.14 0.19)"/><path class="cls-9" d="M1647.17,737.3c0,6.46,4.56,9.06,10.2,5.81s10.19-11.13,10.19-17.59-4.56-9.06-10.19-5.81S1647.17,730.83,1647.17,737.3Z" transform="translate(0.14 0.19)"/><path class="cls-17" d="M1656.88,719.47c2.7-1.56,5.15-1.77,7-.86a8,8,0,0,0-6.09,1.2c-5.63,3.25-10.2,11.12-10.2,17.58,0,3.37,1.24,5.68,3.22,6.67-2.49-.69-4.1-3.17-4.1-7C1646.68,730.59,1651.25,722.72,1656.88,719.47Z" transform="translate(0.14 0.19)"/><path class="cls-23" d="M1649.18,736.11c0,5,3.51,7,7.85,4.48s7.85-8.57,7.85-13.55-3.52-7-7.85-4.47S1649.18,731.13,1649.18,736.11Zm5.18-3.14v.29a1.41,1.41,0,0,1-.33.87l-2.44,3c-.36.45-.83.51-.94.11a6.66,6.66,0,0,1-.24-1.86,9.8,9.8,0,0,1,.24-2.13c.11-.53.58-1,.94-1l2.44.21C1654.24,732.5,1654.37,732.69,1654.36,733Zm-2-4a15.26,15.26,0,0,1,3-3.72c.41-.36.82-.24.82.25v3.22a1.4,1.4,0,0,1-.35.87l-.22.27a.83.83,0,0,1-.67.4l-2.44-.21C1652.11,730,1652,729.46,1652.33,728.94Zm6.39-5.68a3.88,3.88,0,0,1,3,.26c.3.18.22.79-.14,1.25l-2.44,3a.8.8,0,0,1-.67.37h-.22c-.21,0-.34-.2-.34-.48v-3.22A1.36,1.36,0,0,1,1658.72,723.26Zm4.69,2.64a7.07,7.07,0,0,1,.23,1.86,10.59,10.59,0,0,1-.23,2.13c-.11.53-.58,1-1,1l-2.43-.2c-.21,0-.35-.2-.33-.49v-.29a1.36,1.36,0,0,1,.33-.87l2.43-3C1662.83,725.55,1663.3,725.49,1663.41,725.9Zm-1.69,8.31a14.64,14.64,0,0,1-3,3.72c-.41.37-.81.24-.81-.24v-3.22a1.5,1.5,0,0,1,.34-.88l.22-.27a.85.85,0,0,1,.67-.4l2.44.21C1661.94,733.16,1662,733.69,1661.72,734.21Zm-6.39,5.68a3.84,3.84,0,0,1-3-.26c-.29-.17-.22-.79.14-1.24l2.44-3a.83.83,0,0,1,.67-.38l.22,0c.22,0,.35.19.35.47v3.22A1.36,1.36,0,0,1,1655.33,739.89Z" transform="translate(0.14 0.19)"/><path class="cls-3" d="M1649.66,736.31c0,5,3.52,7,7.86,4.47s7.85-8.56,7.85-13.54-3.52-7-7.85-4.48S1649.66,731.33,1649.66,736.31Zm5.19-3.14c0,.05,0,.1,0,.14s0,.1,0,.15a1.37,1.37,0,0,1-.33.86l-2.44,3c-.36.46-.83.52-.95.11a7.07,7.07,0,0,1-.23-1.86,10.51,10.51,0,0,1,.23-2.13c.12-.53.59-1,.95-1l2.44.2C1654.73,732.7,1654.86,732.88,1654.85,733.17Zm-2-4a15.08,15.08,0,0,1,3-3.72c.41-.37.82-.24.82.24v3.22a1.45,1.45,0,0,1-.35.88l-.22.27a.86.86,0,0,1-.67.4l-2.44-.21C1652.6,730.19,1652.53,729.65,1652.82,729.14Zm6.39-5.68a3.84,3.84,0,0,1,3,.26c.3.17.22.79-.14,1.24l-2.44,3a.83.83,0,0,1-.67.38l-.22,0c-.21,0-.34-.19-.34-.47v-3.22A1.35,1.35,0,0,1,1659.21,723.46Zm4.69,2.63a7.07,7.07,0,0,1,.23,1.86,10.43,10.43,0,0,1-.23,2.13c-.11.53-.58,1-1,1l-2.44-.21c-.2,0-.34-.2-.33-.48a.76.76,0,0,0,0-.15.61.61,0,0,0,0-.14,1.48,1.48,0,0,1,.33-.87l2.44-3C1663.32,725.75,1663.79,725.69,1663.9,726.09Zm-1.69,8.32a15,15,0,0,1-3,3.72c-.41.36-.81.24-.81-.25v-3.22a1.44,1.44,0,0,1,.34-.87l.22-.27a.83.83,0,0,1,.67-.4l2.44.21C1662.43,733.36,1662.51,733.89,1662.21,734.41Zm-6.39,5.68a3.89,3.89,0,0,1-3-.26c-.29-.18-.22-.79.14-1.25l2.44-3a.83.83,0,0,1,.67-.38.78.78,0,0,0,.22,0c.22,0,.35.2.35.48v3.22A1.37,1.37,0,0,1,1655.82,740.09Z" transform="translate(0.14 0.19)"/><path class="cls-10" d="M1544.54,789.4c0,3.16,1.09,5.39,2.86,6.47,0,0,5.59,3.24,5.65,3.27,1.84,1,.66-1.3,3.46-2.92,5.63-3.25,10.2-11.12,10.2-17.59,0-3.19,3-3.22,1.14-4.28l-6-3.32c-1.83-1-4.34-.81-7.11.78C1549.11,775.06,1544.54,782.94,1544.54,789.4Z" transform="translate(0.14 0.19)"/><path class="cls-9" d="M1550.45,792.75c0,6.46,4.56,9.06,10.19,5.81s10.2-11.12,10.2-17.58-4.57-9.07-10.2-5.81S1550.45,786.29,1550.45,792.75Z" transform="translate(0.14 0.19)"/><path class="cls-17" d="M1560.15,774.92c2.7-1.56,5.15-1.77,7-.86a8.06,8.06,0,0,0-6.1,1.2c-5.63,3.25-10.19,11.13-10.19,17.59,0,3.36,1.24,5.68,3.22,6.67-2.49-.7-4.1-3.17-4.1-7C1550,786,1554.52,778.17,1560.15,774.92Z" transform="translate(0.14 0.19)"/><path class="cls-23" d="M1552.45,791.57c0,5,3.52,7,7.85,4.47s7.85-8.56,7.85-13.54-3.51-7-7.85-4.48S1552.45,786.59,1552.45,791.57Zm5.18-3.14v.29a1.31,1.31,0,0,1-.33.86l-2.43,3c-.37.46-.84.51-.95.11a7.07,7.07,0,0,1-.23-1.86,10.51,10.51,0,0,1,.23-2.13c.11-.53.58-1,.95-1l2.43.2C1557.51,788,1557.65,788.14,1557.63,788.43Zm-2-4a14.64,14.64,0,0,1,3-3.72c.41-.37.81-.24.81.24v3.22a1.45,1.45,0,0,1-.35.88l-.21.27a.88.88,0,0,1-.68.4l-2.43-.21C1555.38,785.45,1555.31,784.91,1555.61,784.4Zm6.39-5.68a3.84,3.84,0,0,1,3,.26c.29.17.22.79-.15,1.24l-2.43,3a.83.83,0,0,1-.67.38l-.22,0c-.22,0-.35-.19-.35-.47v-3.22A1.36,1.36,0,0,1,1562,778.72Zm4.68,2.63a7,7,0,0,1,.24,1.86,10.54,10.54,0,0,1-.24,2.13c-.11.53-.58,1-.94,1l-2.44-.21c-.21,0-.34-.2-.33-.48v-.29a1.41,1.41,0,0,1,.33-.87l2.44-3C1566.1,781,1566.57,781,1566.68,781.35Zm-1.68,8.32a15.26,15.26,0,0,1-3,3.72c-.41.36-.82.24-.82-.25v-3.22a1.4,1.4,0,0,1,.35-.87l.22-.27a.83.83,0,0,1,.67-.4l2.43.21C1565.22,788.62,1565.29,789.15,1565,789.67Zm-6.39,5.68a3.88,3.88,0,0,1-3-.26c-.3-.18-.23-.79.14-1.25l2.43-3a.85.85,0,0,1,.68-.38.75.75,0,0,0,.21,0c.22,0,.35.2.35.48v3.22A1.38,1.38,0,0,1,1558.61,795.35Z" transform="translate(0.14 0.19)"/><path class="cls-3" d="M1552.94,791.76c0,5,3.52,7,7.85,4.48s7.85-8.57,7.85-13.55-3.51-7-7.85-4.47S1552.94,786.79,1552.94,791.76Zm5.18-3.14v.29a1.39,1.39,0,0,1-.33.87l-2.43,3c-.37.45-.84.51-.95.11a7.07,7.07,0,0,1-.23-1.86,10.51,10.51,0,0,1,.23-2.13c.11-.53.58-1,.95-1l2.43.21C1558,788.16,1558.13,788.34,1558.12,788.62Zm-2-4a14.81,14.81,0,0,1,3-3.72c.41-.36.81-.24.81.25v3.22a1.4,1.4,0,0,1-.35.87l-.21.27a.86.86,0,0,1-.68.4l-2.43-.21C1555.87,785.64,1555.8,785.11,1556.1,784.59Zm6.39-5.68a3.89,3.89,0,0,1,3,.26c.29.18.22.8-.15,1.25l-2.43,3a.83.83,0,0,1-.67.38.82.82,0,0,0-.22,0c-.22,0-.35-.2-.35-.48V780.1A1.39,1.39,0,0,1,1562.49,778.91Zm4.68,2.64a7,7,0,0,1,.24,1.86,10.54,10.54,0,0,1-.24,2.13c-.11.53-.58,1-.94,1l-2.44-.21c-.21,0-.34-.2-.33-.49v-.29a1.39,1.39,0,0,1,.33-.86l2.44-3C1566.59,781.2,1567.06,781.15,1567.17,781.55Zm-1.68,8.31a14.9,14.9,0,0,1-3,3.72c-.41.37-.82.24-.82-.24v-3.22a1.45,1.45,0,0,1,.35-.88l.22-.27a.89.89,0,0,1,.67-.4l2.43.21C1565.71,788.81,1565.78,789.35,1565.49,789.86Zm-6.39,5.68a3.83,3.83,0,0,1-3-.26c-.3-.17-.23-.79.14-1.24l2.43-3a.83.83,0,0,1,.68-.38l.21,0c.22,0,.35.19.35.47v3.22A1.35,1.35,0,0,1,1559.1,795.54Z" transform="translate(0.14 0.19)"/><path class="cls-3" d="M1494.46,756.71l39.3-60.77a6.61,6.61,0,0,1,2.24-2.13l104.8-60.33a6.58,6.58,0,0,1,6.46-.07l29.55,16.18a6.59,6.59,0,0,1,3,3.37l9,19.23a6.62,6.62,0,0,1,.46,2.28l.68,35.44a6.59,6.59,0,0,1-3.34,5.87l-18.49,10.48a17.77,17.77,0,0,0,.26-3c0-7.31-5.16-10.26-11.54-6.58s-11.53,12.59-11.53,19.9a12.44,12.44,0,0,0,.22,2.44l-72.88,41.11a14.8,14.8,0,0,0,.07-1.48c0-7.31-5.16-10.26-11.54-6.58s-11.53,12.59-11.53,19.9a11.09,11.09,0,0,0,0,1.17l-4.32,2.44a6.6,6.6,0,0,1-6.18.18L1497.07,775a6.61,6.61,0,0,1-3.67-5.92v-8.76A6.64,6.64,0,0,1,1494.46,756.71Z" transform="translate(0.14 0.19)"/><path class="cls-8" d="M1542.13,777.67l5.76-17.62L1571.66,715a10.18,10.18,0,0,1,4.12-4.4l103-59.29a6.85,6.85,0,0,1,1,1.66l9,19.23a6.62,6.62,0,0,1,.46,2.28l.68,35.44a6.59,6.59,0,0,1-3.34,5.87l-18.49,10.48a17.77,17.77,0,0,0,.26-3c0-7.31-5.16-10.26-11.54-6.58s-11.53,12.59-11.53,19.9a12.44,12.44,0,0,0,.22,2.44l-72.88,41.11a14.8,14.8,0,0,0,.07-1.48c0-7.31-5.16-10.26-11.54-6.58s-11.53,12.59-11.53,19.9a11.09,11.09,0,0,0,0,1.17l-4.32,2.44a6.56,6.56,0,0,1-4.41.75V782.59A11.05,11.05,0,0,1,1542.13,777.67Z" transform="translate(0.14 0.19)"/><path class="cls-24" d="M1540.82,777.53l5.75-17.62,23.77-45.07a10.29,10.29,0,0,1,4.12-4.4l103-59.29c.35.45-.22.74,0,1.27l-102,58.7a10.18,10.18,0,0,0-4.12,4.4l-23.77,45.06-5.76,17.62a11.05,11.05,0,0,0-1.16,4.92v13c-.63.07-.41.26-1,.14V782.44A10.88,10.88,0,0,1,1540.82,777.53Z" transform="translate(0.14 0.19)"/><path class="cls-9" d="M1555.85,732l-10-3.64a71.25,71.25,0,0,1-18.32-9.86l-2.66-2a2.56,2.56,0,0,0-3.65.63L1507.35,738a2.55,2.55,0,0,0,.7,3.53l7.06,4.73a80,80,0,0,0,17.54,8.85l11,4a2.55,2.55,0,0,0,3.17-1.32l10.42-22.24A2.56,2.56,0,0,0,1555.85,732Z" transform="translate(0.14 0.19)"/><path class="cls-10" d="M1554.43,732.54l-9.57-3.47a68.17,68.17,0,0,1-17.46-9.4l-2.53-1.89a2.44,2.44,0,0,0-3.48.61l-13.18,19.84a2.44,2.44,0,0,0,.67,3.37l6.72,4.5a75.82,75.82,0,0,0,16.72,8.43l10.53,3.78a2.43,2.43,0,0,0,3-1.26l9.93-21.2A2.43,2.43,0,0,0,1554.43,732.54Z" transform="translate(0.14 0.19)"/><path class="cls-23" d="M1577.94,726.26l-.59,19.55a1.39,1.39,0,0,1-.71,1.18l-23.49,13.45v-3.31l12-26.32,10.7-5.84A1.42,1.42,0,0,1,1577.94,726.26Z" transform="translate(0.14 0.19)"/><polygon class="cls-9" points="1576.83 725.92 1576.24 745.73 1559.17 755.61 1559.63 745.81 1565.66 732.02 1576.83 725.92"/><path class="cls-17" d="M1550.76,785l-8.59,4.6a12.4,12.4,0,0,1-10,.33l-6.54-2.61c-10.18-4.08-19.61-10.42-28.49-16.17l-4.13-3.31-1.32.09.19,8.77,1.32,1.3a121.24,121.24,0,0,0,39,20.71h0a12.39,12.39,0,0,0,9.7-1l8.29-4.86Z" transform="translate(0.14 0.19)"/><path class="cls-7" d="M1542.8,781h0a7.8,7.8,0,0,1-7.38.4h0a3.66,3.66,0,0,0-5.07,2.26l-1.16,3.91,6,2.37a7.75,7.75,0,0,0,6.19-.21l1.68-.79Z" transform="translate(0.14 0.19)"/><path class="cls-17" d="M1542.8,781h0a8.75,8.75,0,0,1-.83.37l.21,6.49-1.67.8a7.82,7.82,0,0,1-6.2.2l-4.92-1.94-.2.65,6,2.37a7.75,7.75,0,0,0,6.19-.21l1.68-.79Z" transform="translate(0.14 0.19)"/><path class="cls-16" d="M1540.16,782a7.84,7.84,0,0,1-4.74-.61h0a3.66,3.66,0,0,0-5.07,2.26l-1.16,3.91,7-.33C1542.94,785.78,1541.08,781.79,1540.16,782Z" transform="translate(0.14 0.19)"/><path class="cls-17" d="M1497.42,765.26,1498,771s-4.87-3-5.16-4.19.19-8.34.19-8.34l1.41,1.7h0A7,7,0,0,1,1497.42,765.26Z" transform="translate(0.14 0.19)"/><path class="cls-7" d="M1497.42,765.26,1498,771s-3.86-3.94-4.15-5.11-.82-7.42-.82-7.42l1.41,1.7h0A7,7,0,0,1,1497.42,765.26Z" transform="translate(0.14 0.19)"/><path class="cls-9" d="M1507.35,738l1.39-2.09a2.83,2.83,0,0,0,1.23,2l7.93,5.32a90,90,0,0,0,19.73,9.95l9.75,3.49-.51,1.09a2.55,2.55,0,0,1-3.17,1.32l-11-4a80,80,0,0,1-17.54-8.85l-7.06-4.73A2.55,2.55,0,0,1,1507.35,738Z" transform="translate(0.14 0.19)"/><path class="cls-25" d="M1510.85,734.26l10.54-15.87a2.44,2.44,0,0,1,3.48-.61l2.53,1.89a68.17,68.17,0,0,0,17.46,9.4l9.57,3.47a2.41,2.41,0,0,1,1.47,3,80.47,80.47,0,0,1-20.45,2.49A75.19,75.19,0,0,1,1510.85,734.26Z" transform="translate(0.14 0.19)"/><polygon class="cls-26" points="1569.48 711.32 1538.91 693.91 1643.62 634.11 1674.18 651.21 1569.48 711.32"/><path class="cls-3" d="M1567.7,753.05l-.65,7.75a1.74,1.74,0,0,1-2.43,1.45l-8.43-2.54a1.76,1.76,0,0,1-1-1.85l2.78-7.25a1.73,1.73,0,0,1,2.25-1.41l6.31,2A1.73,1.73,0,0,1,1567.7,753.05Z" transform="translate(0.14 0.19)"/><path class="cls-22" d="M1565.42,761.74l.65-7.75a1.74,1.74,0,0,0-1.19-1.8l-6.31-2.05a2.26,2.26,0,0,0-.44-.08,1.73,1.73,0,0,1,2.07-.86l6.31,2a1.73,1.73,0,0,1,1.19,1.8l-.65,7.75a1.73,1.73,0,0,1-1.83,1.58A1.66,1.66,0,0,0,1565.42,761.74Z" transform="translate(0.14 0.19)"/><path class="cls-27" d="M1568.78,771l80-45.88a23.45,23.45,0,0,0-3.5,11.5,12.44,12.44,0,0,0,.22,2.44l-72.88,41.11a14.8,14.8,0,0,0,.07-1.48C1572.72,774.72,1571.19,772,1568.78,771Z" transform="translate(0.14 0.19)"/><path class="cls-27" d="M1668.38,723.3c0-3.7-1.32-6.28-3.46-7.45l24.87-14.31.16,8.37a6.59,6.59,0,0,1-3.34,5.87l-18.49,10.48A17.77,17.77,0,0,0,1668.38,723.3Z" transform="translate(0.14 0.19)"/><path class="cls-3" d="M1647.94,726.79c.28-.56.55-1.13.87-1.67l-80,45.88a6.44,6.44,0,0,1,1,.59Z" transform="translate(0.14 0.19)"/><path class="cls-3" d="M1689.79,702.72l.14,7.36c0-.06,0-.11,0-.17l-.16-8.37-24.87,14.31a5,5,0,0,1,.86.68Z" transform="translate(0.14 0.19)"/><path class="cls-9" d="M1550.54,785.89,1542,790.5a12.44,12.44,0,0,1-10,.33l-6.54-2.62a121.39,121.39,0,0,1-28.49-16.16l-5.26-4.25v7.88a4,4,0,0,0,1.49,3.11l.7.56c12.32,8.12,23.72,14.88,38.12,20.26h0a12.44,12.44,0,0,0,9.7-1l8.29-4.86Z" transform="translate(0.14 0.19)"/><path class="cls-13" d="M1531.44,783.79l2.08,4.4s6.33-3.91,5.7-5.27S1531.44,783.79,1531.44,783.79Z" transform="translate(0.14 0.19)"/><path class="cls-28" d="M1534.19,786.91c0,1.11-.78,1.56-1.75,1a3.88,3.88,0,0,1-1.75-3c0-1.1.79-1.55,1.75-1A3.85,3.85,0,0,1,1534.19,786.91Z" transform="translate(0.14 0.19)"/><path class="cls-13" d="M1535.75,784.67l1.65,3.5s5-3.11,4.53-4.19S1535.75,784.67,1535.75,784.67Z" transform="translate(0.14 0.19)"/><path class="cls-28" d="M1537.94,787.15c0,.88-.63,1.24-1.39.8a3.08,3.08,0,0,1-1.4-2.4c0-.88.63-1.24,1.4-.8A3.1,3.1,0,0,1,1537.94,787.15Z" transform="translate(0.14 0.19)"/><path class="cls-13" d="M1493.93,764.53l1.42,3s2.42-1.84,2-2.76S1493.93,764.53,1493.93,764.53Z" transform="translate(0.14 0.19)"/><path class="cls-28" d="M1495.81,766.66c0,.76-.53,1.06-1.19.68a2.63,2.63,0,0,1-1.2-2.06c0-.76.54-1.06,1.2-.68A2.62,2.62,0,0,1,1495.81,766.66Z" transform="translate(0.14 0.19)"/><path class="cls-13" d="M1493.36,762.05l1,2.19s1.77-1.34,1.46-2S1493.36,762.05,1493.36,762.05Z" transform="translate(0.14 0.19)"/><path class="cls-28" d="M1494.73,763.61c0,.55-.39.77-.87.49a1.91,1.91,0,0,1-.88-1.5c0-.55.39-.78.88-.5A1.93,1.93,0,0,1,1494.73,763.61Z" transform="translate(0.14 0.19)"/><path class="cls-29" d="M1538.87,782.18a8.32,8.32,0,0,0,3.19-.82l.23,7.21-1.39.66a7.15,7.15,0,0,1-2.73.69Z" transform="translate(0.14 0.19)"/><path class="cls-9" d="M1528.38,779.94l-.85,2.25A3.26,3.26,0,0,1,1523,784c-3.12-1.54-7.94-4-12-6.39-4.49-2.66-8.18-5.07-10.06-6.32a3.28,3.28,0,0,1-1.44-2.53l-.24-4.14a.92.92,0,0,1,1.42-.83c2.63,1.75,8.16,5.37,12.88,8,5.25,3,12,6,14.26,7A.92.92,0,0,1,1528.38,779.94Z" transform="translate(0.14 0.19)"/><path class="cls-23" d="M1500.16,763.62a.94.94,0,0,0-.1.48l.24,4.14a3.28,3.28,0,0,0,1.44,2.53c1.89,1.25,5.57,3.66,10.06,6.32,4,2.39,8.84,4.85,12,6.4a3.22,3.22,0,0,0,2.87,0,3.22,3.22,0,0,1-3.6.48c-3.12-1.54-7.94-4-12-6.39-4.49-2.66-8.18-5.07-10.06-6.32a3.28,3.28,0,0,1-1.44-2.53l-.24-4.14A.92.92,0,0,1,1500.16,763.62Z" transform="translate(0.14 0.19)"/><path class="cls-26" d="M1504.91,742.92s-8,11.71-7.41,14.24,13,10.36,19.68,13.38,18.72,8.52,21.55,6.57S1544,761,1544,761a159.89,159.89,0,0,1-23-8.27C1509.46,747.49,1504.91,742.92,1504.91,742.92Z" transform="translate(0.14 0.19)"/><path class="cls-9" d="M1508.33,745.81l.07-.11a.89.89,0,0,1,1.38-.12l.21.16,5,3.38a56.57,56.57,0,0,0,12.54,6.33l5.48,2a.69.69,0,0,1,.4,1h0a1.62,1.62,0,0,1-2,.83l-7-2.51a50.75,50.75,0,0,1-11.15-5.63l-4.49-3A1.61,1.61,0,0,1,1508.33,745.81Z" transform="translate(0.14 0.19)"/><path class="cls-9" d="M1690.62,702.28l-4.73,2.47v11.91h0a8.26,8.26,0,0,0,4.9-7.77Z" transform="translate(0.14 0.19)"/><polygon class="cls-30" points="1567.25 724.8 1681.9 658.85 1682.34 659.61 1607.39 702.72 1607.39 748.62 1606.52 749.09 1606.52 703.22 1580.78 718.03 1580.78 764.12 1579.9 764.59 1579.9 718.53 1567.69 725.56 1567.25 724.8"/><path class="cls-22" d="M1571.87,755.32c0,1.47,1,2.06,2.31,1.32a5.08,5.08,0,0,0,2.31-4c0-1.47-1-2.06-2.31-1.32A5.1,5.1,0,0,0,1571.87,755.32Z" transform="translate(0.14 0.19)"/><path class="cls-18" d="M1571.9,755.22c-.5,1,.42,1.19,2,.36a9.88,9.88,0,0,0,3.88-3.33c.5-1-.42-1.19-2-.37A9.89,9.89,0,0,0,1571.9,755.22Z" transform="translate(0.14 0.19)"/><path class="cls-22" d="M1583.28,749.17c0,1.47,1,2.06,2.31,1.32a5.08,5.08,0,0,0,2.31-4c0-1.47-1-2.06-2.31-1.32A5.1,5.1,0,0,0,1583.28,749.17Z" transform="translate(0.14 0.19)"/><path class="cls-18" d="M1583.31,749.07c-.5,1,.41,1.19,2,.36a9.84,9.84,0,0,0,3.87-3.33c.51-1-.41-1.19-2-.37A9.89,9.89,0,0,0,1583.31,749.07Z" transform="translate(0.14 0.19)"/><path class="cls-3" d="M1571.9,754.83c-.5,1,.42,1.18,2,.36a9.88,9.88,0,0,0,3.88-3.33c.5-1-.42-1.19-2-.37A9.89,9.89,0,0,0,1571.9,754.83Z" transform="translate(0.14 0.19)"/><path class="cls-3" d="M1583.31,748.68c-.5,1,.41,1.18,2,.36a9.84,9.84,0,0,0,3.87-3.33c.51-1-.41-1.19-2-.37A9.89,9.89,0,0,0,1583.31,748.68Z" transform="translate(0.14 0.19)"/><polygon class="cls-29" points="1678.55 689.9 1678.55 692.24 1674.12 694.87 1674.12 692.48 1678.55 689.9"/><polygon class="cls-29" points="1671.76 693.74 1671.76 696.08 1667.33 698.71 1667.33 696.32 1671.76 693.74"/><polygon class="cls-29" points="1664.97 697.58 1664.97 699.92 1660.53 702.55 1660.53 700.16 1664.97 697.58"/><polygon class="cls-29" points="1658.18 701.42 1658.18 703.76 1653.74 706.39 1653.74 704 1658.18 701.42"/><polygon class="cls-29" points="1651.39 705.26 1651.39 707.6 1646.95 710.23 1646.95 707.84 1651.39 705.26"/><polygon class="cls-29" points="1644.6 709.1 1644.6 711.44 1640.16 714.07 1640.16 711.68 1644.6 709.1"/><polygon class="cls-29" points="1637.8 712.94 1637.8 715.28 1633.37 717.91 1633.37 715.52 1637.8 712.94"/><polygon class="cls-29" points="1631.01 716.78 1631.01 719.12 1626.58 721.75 1626.58 719.36 1631.01 716.78"/><polygon class="cls-29" points="1624.22 720.62 1624.22 722.96 1619.78 725.59 1619.78 723.2 1624.22 720.62"/><polygon class="cls-29" points="1617.43 724.46 1617.43 726.8 1612.99 729.43 1612.99 727.04 1617.43 724.46"/><path class="cls-29" d="M1612,704.71l4.09-2.36c1.33-.77,2.33-.93,3-.5s1,1.45,1,3v9.89a8.6,8.6,0,0,1-1,4.19,7.74,7.74,0,0,1-3,2.95l-4.09,2.37Zm4,14.44a2.63,2.63,0,0,0,1-1,3.43,3.43,0,0,0,.36-1.66V706.29c0-.67-.12-1.09-.36-1.25s-.57-.12-1,.13l-1.36.79v14Z" transform="translate(0.14 0.19)"/><path class="cls-29" d="M1621.92,699l7.3-4.21v2.79l-4.62,2.67v5.17l3.67-2.12v2.79l-3.67,2.13v6l4.62-2.68v2.8l-7.3,4.22Z" transform="translate(0.14 0.19)"/><path class="cls-29" d="M1630.76,693.9l2.68-1.55v16.77l4.41-2.54v2.79l-7.09,4.09Z" transform="translate(0.14 0.19)"/><path class="cls-29" d="M1639.14,689.06l2.68-1.54v19.56l-2.68,1.55Z" transform="translate(0.14 0.19)"/><path class="cls-29" d="M1643.11,686.77l2.7-1.56,1.75,14.16,0,0,1.76-16.19,2.46-1.42-2.59,21-3.55,2.05Z" transform="translate(0.14 0.19)"/><path class="cls-29" d="M1653.12,681l7.3-4.22v2.8l-4.63,2.67v5.17l3.68-2.12v2.79l-3.68,2.13v6l4.63-2.67v2.8l-7.3,4.22Z" transform="translate(0.14 0.19)"/><path class="cls-29" d="M1662,675.89l4-2.29c1.38-.8,2.38-1,3-.64s1,1.32,1,2.84V677a6.74,6.74,0,0,1-1.76,4.87v0a1.1,1.1,0,0,1,1.38.58,5.92,5.92,0,0,1,.4,2.53v3.44c0,.56,0,1,0,1.33a2.44,2.44,0,0,0,.24.87l-2.73,1.58a3.7,3.7,0,0,1-.19-.78c0-.26,0-.76,0-1.48v-3.58c0-.89-.13-1.45-.38-1.65s-.68-.14-1.3.22l-.93.53v8.39l-2.67,1.54Zm3.65,6.27a3.14,3.14,0,0,0,1.2-1.17,3.63,3.63,0,0,0,.41-1.82v-1.51q0-1.06-.33-1.35c-.22-.19-.57-.15-1,.12l-1.22.71v5.59Z" transform="translate(0.14 0.19)"/><path class="cls-29" d="M1673.84,680.26l-3.24-9.36,2.85-1.65,1.83,6.13,0,0,1.82-8.24,2.61-1.5-3.24,13.1V687l-2.68,1.55Z" transform="translate(0.14 0.19)"/><path class="cls-31" d="M1584.27,743a1.63,1.63,0,0,1-1.62-1.63V724.07a4.22,4.22,0,0,1,2.1-3.65l17-9.74a1.66,1.66,0,0,1,.81-.21,1.63,1.63,0,0,1,1.63,1.62v17.27A4.23,4.23,0,0,1,1602,733l-17,9.74A1.67,1.67,0,0,1,1584.27,743Zm18.25-31.59a.65.65,0,0,0-.36.1l-17,9.73a3.32,3.32,0,0,0-1.65,2.87v17.26a.72.72,0,0,0,1.08.63l17-9.73a3.33,3.33,0,0,0,1.66-2.87V712.09A.73.73,0,0,0,1602.52,711.37Z" transform="translate(0.14 0.19)"/><path class="cls-26" d="M1584.27,743a1.58,1.58,0,0,1-.81-.23l.45-.78a.71.71,0,0,0,.72,0l17-9.73a3.33,3.33,0,0,0,1.66-2.87V712.09a.72.72,0,0,0-.46-.67l.33-.84a1.62,1.62,0,0,1,1,1.51v17.27A4.23,4.23,0,0,1,1602,733l-17,9.74A1.74,1.74,0,0,1,1584.27,743Z" transform="translate(0.14 0.19)"/><polygon class="cls-4" points="1313.26 762.42 1323.09 769.34 1330.19 759.15 1313.26 762.42"/><path class="cls-29" d="M1274.48,512.61c-11.89-6.87-22.55-7.07-29.93-1.93l-8.54,4,1,5.49a38.55,38.55,0,0,0-2.88,15.43c0,17.5,9.35,45.1,19,69l10.11,52.78,11.14-5.58s40.31-33.36,40.31-69.68C1314.79,556.59,1296.75,525.46,1274.48,512.61Z" transform="translate(0.14 0.19)"/><path class="cls-32" d="M1303.64,587.71c0,36.32-40.3,69.68-40.3,69.68S1223,577.48,1223,541.16c0-25.54,18-35.83,40.31-23S1303.64,562.16,1303.64,587.71Z" transform="translate(0.14 0.19)"/><path class="cls-33" d="M1265.89,516.79c-11.63-6.71-22.07-7.06-29.43-2.27,7.14-3.23,16.54-2.31,26.88,3.66,22.26,12.86,40.3,44,40.3,69.53,0,31.12-29.57,60-38,67.7.17.35.29.58.29.58s40.31-33.36,40.31-69.68C1306.2,560.77,1288.15,529.64,1265.89,516.79Z" transform="translate(0.14 0.19)"/><ellipse class="cls-7" cx="1263.34" cy="564.43" rx="11.94" ry="20.69" transform="matrix(0.86, -0.5, 0.5, 0.86, -112.03, 714.93)"/><path class="cls-34" d="M1267.87,579.18c-8.11-4.68-14.68-16-14.68-25.31,0-3.68,1-6.47,2.79-8.24-4.37.39-7.32,4.11-7.32,10.33,0,9.3,6.57,20.63,14.68,25.31,4.89,2.83,9.22,2.57,11.88-.12A12.67,12.67,0,0,1,1267.87,579.18Z" transform="translate(0.14 0.19)"/><path class="cls-8" d="M1208.49,551.61a1,1,0,0,1-1-.84c-.12-.69-.24-1.37-.34-2a1,1,0,0,1,2-.31c.1.67.21,1.33.33,2a1,1,0,0,1-.82,1.18Z" transform="translate(0.14 0.19)"/><path class="cls-8" d="M1207.41,543.25a1,1,0,0,1-1-1c-.11-1.45-.18-2.89-.2-4.32a1,1,0,0,1,1-1,1,1,0,0,1,1,1c0,1.39.09,2.79.19,4.2a1,1,0,0,1-.94,1.09Zm0-10.64h-.09a1,1,0,0,1-.93-1.11c.13-1.47.31-2.92.54-4.31a1,1,0,0,1,2,.34c-.22,1.33-.4,2.73-.52,4.15A1,1,0,0,1,1207.43,532.61Zm2-10.43a1.17,1.17,0,0,1-.32,0,1,1,0,0,1-.66-1.29,38,38,0,0,1,1.58-4.08,1,1,0,0,1,1.35-.51,1,1,0,0,1,.51,1.36,33.81,33.81,0,0,0-1.49,3.85A1,1,0,0,1,1209.46,522.18Zm4.74-9.47a1,1,0,0,1-.6-.2,1,1,0,0,1-.22-1.43,27.44,27.44,0,0,1,2.91-3.33,1,1,0,1,1,1.42,1.47,25.73,25.73,0,0,0-2.68,3.08A1,1,0,0,1,1214.2,512.71Zm7.91-7a1,1,0,0,1-.49-1.92,25.29,25.29,0,0,1,4.05-1.79,1,1,0,0,1,.66,1.94,23,23,0,0,0-3.72,1.64A1,1,0,0,1,1222.11,505.72Z" transform="translate(0.14 0.19)"/><path class="cls-8" d="M1232.29,502.72a1,1,0,0,1-.08-2c.69-.06,1.39-.09,2.11-.1a1.05,1.05,0,0,1,1,1,1,1,0,0,1-1,1c-.66,0-1.32,0-2,.09Z" transform="translate(0.14 0.19)"/><path class="cls-8" d="M1200,512.38a1.07,1.07,0,0,1-.39-.07A1,1,0,0,1,1199,511q.4-1,.84-1.92a1,1,0,0,1,1.36-.5,1,1,0,0,1,.5,1.36c-.28.6-.55,1.21-.81,1.84A1,1,0,0,1,1200,512.38Z" transform="translate(0.14 0.19)"/><path class="cls-8" d="M1203.11,506.17a1,1,0,0,1-.87-1.56c.59-1,1.22-1.9,1.87-2.79a1,1,0,1,1,1.65,1.21c-.62.84-1.21,1.73-1.78,2.65A1,1,0,0,1,1203.11,506.17Zm5-6.47a1,1,0,0,1-.72-.29,1,1,0,0,1,0-1.44,33.31,33.31,0,0,1,2.47-2.3,1,1,0,0,1,1.32,1.56,31.39,31.39,0,0,0-2.32,2.16A1,1,0,0,1,1208.1,499.7Z" transform="translate(0.14 0.19)"/><path class="cls-8" d="M1214.46,494.6a1,1,0,0,1-.54-1.9c.6-.37,1.21-.71,1.83-1a1,1,0,0,1,1.38.42,1,1,0,0,1-.42,1.39c-.58.3-1.16.63-1.72,1A.94.94,0,0,1,1214.46,494.6Z" transform="translate(0.14 0.19)"/><path class="cls-8" d="M1774.83,451.75a1,1,0,0,1-1-1v-1.54a1,1,0,1,1,2,0v1.54A1,1,0,0,1,1774.83,451.75Zm0-7.68a1,1,0,0,1-1-1V439a1,1,0,0,1,2,0v4.1A1,1,0,0,1,1774.83,444.07Zm-.12-10.23a1,1,0,0,1-1-.9,15.27,15.27,0,0,0-.92-3.71,1,1,0,0,1,.59-1.33,1,1,0,0,1,1.32.59,17.41,17.41,0,0,1,1,4.21,1,1,0,0,1-.89,1.13Zm-4.2-9.15a1,1,0,0,1-.75-.33,14.76,14.76,0,0,0-2.92-2.48,1,1,0,0,1,1.13-1.72,17.77,17.77,0,0,1,3.3,2.82,1,1,0,0,1-.07,1.44A1,1,0,0,1,1770.51,424.69Zm-8.37-5.8a1,1,0,0,1-.53-.15l-3.51-2.09a1,1,0,0,1,1-1.76l3.52,2.1a1,1,0,0,1-.52,1.9Z" transform="translate(0.14 0.19)"/></g></g></svg>