<svg id="Layer_1" data-name="Layer 1" xmlns="http://www.w3.org/2000/svg" viewBox="0 0 84 84"><path d="M58.63,15.56c0-1.72,0-3.26,0-4.81a7.36,7.36,0,0,1,.16-1.62,6.29,6.29,0,0,1,6.92-4.72,6.19,6.19,0,0,1,5.49,6.09q0,9,0,18.07a1.53,1.53,0,0,0,.45,1.14c3.58,3.87,7.13,7.75,10.71,11.61a4.89,4.89,0,0,1,1.17,5.54,5.32,5.32,0,0,1-4.88,3.38c-1.49.1-3,0-4.48,0a8.69,8.69,0,0,0-.89,0,2.32,2.32,0,0,0-2.14,2.38q0,7.51,0,15v11a5.43,5.43,0,0,1-5.38,5.51q-4.23.12-8.48,0a5.41,5.41,0,0,1-5.36-5.51c0-7.35,0-14.69,0-22a2.56,2.56,0,0,0-2.69-2.63H36a2.57,2.57,0,0,0-2.72,2.66c.05,7.32,0,14.65,0,22a5.44,5.44,0,0,1-5.51,5.56c-3.17.06-6.33.06-9.5,0a5.46,5.46,0,0,1-5.54-5.59c0-8.61,0-17.22,0-25.83a2.56,2.56,0,0,0-2.69-2.63c-1.57,0-3.15,0-4.72,0A5.43,5.43,0,0,1,0,44.63,5.18,5.18,0,0,1,1.49,41.3L16.88,24.63,37.39,2.41a6.05,6.05,0,0,1,9.12,0Q52.26,8.63,58,14.86Zm3.16,8-.73-.77Q52.68,13.7,44.28,4.62a3.73,3.73,0,0,0-1.48-1,2.9,2.9,0,0,0-3.2,1q-14,15.2-28,30.37-3.94,4.26-7.87,8.53a2,2,0,0,0,.7,3.39,3.55,3.55,0,0,0,1.38.29c1.41,0,2.82,0,4.24,0a5.68,5.68,0,0,1,5.86,5.74c-.09,8.55,0,17.1,0,25.65a2.45,2.45,0,0,0,2.73,2.67q4.39,0,8.78,0a2.47,2.47,0,0,0,2.77-2.7c0-7.31.05-14.62,0-21.92A5.6,5.6,0,0,1,35.77,51q6.81,0,13.62,0a5.61,5.61,0,0,1,5.68,5.61c-.08,7.34,0,14.69,0,22a2.42,2.42,0,0,0,2.55,2.56q3.91,0,7.83,0A2.4,2.4,0,0,0,68,78.7c0-8.59,0-17.18,0-25.77a5.66,5.66,0,0,1,5.88-5.73c1.51,0,3,0,4.54,0a2.36,2.36,0,0,0,2.24-1.48A2,2,0,0,0,80,43.38C76.19,39.24,72.38,35.09,68.55,31a1.69,1.69,0,0,1-.5-1.24c0-5.48,0-11,0-16.44,0-.95,0-1.9,0-2.85a3.14,3.14,0,1,0-6.27.34c0,4,0,8,0,12Z" transform="translate(0.06 -0.34)"/></svg>