<?xml version="1.0" encoding="utf-8"?>
<!-- Generator: Adobe Illustrator 24.1.1, SVG Export Plug-In . SVG Version: 6.00 Build 0)  -->
<svg version="1.1" id="Layer_1" xmlns="http://www.w3.org/2000/svg" xmlns:xlink="http://www.w3.org/1999/xlink" x="0px" y="0px"
	 viewBox="0 0 75.4 79.3" style="enable-background:new 0 0 75.4 79.3;" xml:space="preserve">
<style type="text/css">
	.st0{fill:#FEA503;}
</style>
<g>
	<path class="st0" d="M0,18c0.6-0.6,1.3-1.1,2.1-1.5c11.3-5.3,22.7-10.7,34-16c1-0.5,2.2-0.5,3.2,0c11.5,5.4,23,10.8,34.5,16.2
		c1.1,0.4,1.7,1.4,1.7,2.6c-0.1,11.5-2.1,22.7-7.4,33C62.7,63,54.1,71.9,43.4,77.4c-1.4,0.7-2.8,1.3-4.2,1.9H36
		c-0.1-0.1-0.3-0.2-0.5-0.3c-5.7-2.1-10.9-5.4-15.4-9.7C7.9,57.9,2,43.5,0.4,27.2c-0.1-0.9-0.3-1.7-0.4-2.6L0,18z M71.2,21.6
		c-0.1-0.7,0.4-1.5-0.8-2c-10.7-5-21.3-10-32-15c-0.5-0.3-1-0.3-1.5,0c-10.7,5-21.3,10.1-32,15.1c-0.5,0.1-0.9,0.7-0.7,1.2
		c0.5,4.4,0.6,8.9,1.4,13.2C7.8,46.3,13.1,57,22.3,65.6c4.1,3.9,8.9,7,14.1,9.3c0.8,0.4,1.7,0.4,2.4,0.1c8.8-3.8,16.3-10,21.7-18
		C67.8,46.3,70.7,34.4,71.2,21.6z"/>
	<path class="st0" d="M35.6,42.8l4.8-5.5l8-9.3c0.7-0.9,2-1.2,2.9-0.5s1.2,2,0.5,2.9c-0.1,0.1-0.2,0.2-0.2,0.3
		c-4.8,5.5-9.6,11-14.3,16.5c-0.6,0.9-1.9,1.1-2.8,0.5c-0.2-0.1-0.3-0.3-0.4-0.4c-2.7-2.7-5.5-5.4-8.2-8.1c-0.8-0.8-0.8-2.2,0-3
		s2.2-0.8,3,0l0,0C31,38.3,33.3,40.5,35.6,42.8z"/>
</g>
</svg>
