<svg id="Layer_1" data-name="Layer 1" xmlns="http://www.w3.org/2000/svg" viewBox="0 0 75.39 79.25"><defs><style>.cls-1{fill:#fea503;}.cls-2{fill:#fefefd;}</style></defs><path class="cls-1" d="M4.62,21.12a12.78,12.78,0,0,1,2.09-1.54q17-8,34-16a3.33,3.33,0,0,1,3.17,0q17.2,8.16,34.46,16.23A2.57,2.57,0,0,1,80,22.37c-.09,11.54-2.14,22.65-7.41,33A56,56,0,0,1,48,80.5c-1.36.7-2.81,1.25-4.22,1.87H40.61a2.32,2.32,0,0,0-.46-.31A44.83,44.83,0,0,1,24.8,72.38C12.51,61,6.6,46.66,5,30.27c-.09-.87-.26-1.73-.39-2.59Zm71.17,3.62c-.11-.66.36-1.47-.76-2q-16-7.44-32-15a1.55,1.55,0,0,0-1.48,0q-16,7.56-32,15.07A1,1,0,0,0,8.81,24c.47,4.41.65,8.87,1.43,13.22,2.21,12.21,7.49,22.89,16.65,31.46A47,47,0,0,0,41,77.93a2.85,2.85,0,0,0,2.44.06A49.94,49.94,0,0,0,65.11,60C72.41,49.44,75.3,37.49,75.79,24.74Z" transform="translate(-4.62 -3.12)"/><path class="cls-2" d="M4.62,27.68c.13.86.3,1.72.39,2.59C6.6,46.66,12.51,61,24.8,72.38a44.83,44.83,0,0,0,15.35,9.68,2.32,2.32,0,0,1,.46.31h-36Z" transform="translate(-4.62 -3.12)"/><path class="cls-1" d="M40.22,45.92,45,40.46,53,31.15a2.1,2.1,0,1,1,3.17,2.73Q49,42.13,41.82,50.34a2,2,0,0,1-3.22.08q-4.1-4.05-8.15-8.15a2.1,2.1,0,1,1,3-3C35.65,41.46,37.87,43.64,40.22,45.92Z" transform="translate(-4.62 -3.12)"/></svg>