<?xml version="1.0" encoding="utf-8"?>
<!-- Generator: Adobe Illustrator 24.1.1, SVG Export Plug-In . SVG Version: 6.00 Build 0)  -->
<svg version="1.1" id="Layer_1" xmlns="http://www.w3.org/2000/svg" xmlns:xlink="http://www.w3.org/1999/xlink" x="0px" y="0px"
	 viewBox="0 0 58.3 58.2" style="enable-background:new 0 0 58.3 58.2;" xml:space="preserve">
<style type="text/css">
	.st0{fill:#FFFFFF;}
	.st1{fill:#6D529C;}
	.st2{fill:#F19062;}
	.st3{fill:#E22D45;}
	.st4{fill:#61569F;}
	.st5{fill:#E73F44;}
	.st6{fill:#894B97;}
	.st7{fill:#7B4E9A;}
	.st8{fill:#A04593;}
	.st9{fill:#934895;}
	.st10{fill:#A9428F;}
	.st11{fill:#F5A15F;}
	.st12{fill:#D43157;}
	.st13{fill:#C4366A;}
	.st14{fill:#B23D82;}
	.st15{fill:#EA5348;}
	.st16{fill:#B83D7C;}
	.st17{fill:#C03B73;}
	.st18{fill:#DD2E4C;}
	.st19{fill:#EC5F4A;}
	.st20{fill:#EE724C;}
	.st21{fill:#F1834F;}
	.st22{fill:#CD3562;}
	.st23{fill:#844B97;}
</style>
<circle class="st0" cx="29.1" cy="29.4" r="29"/>
<g>
	<path class="st0" d="M24.2,32.6L24.2,32.6L24.2,32.6z"/>
	<path class="st0" d="M25.5,31.3c-0.1,0-0.2,0-0.3,0.1c-0.5,0-1,0-1.5,0c-0.3,0-0.6-0.2-0.6-0.6c0,0,0,0,0-0.1c0-0.5,0-1,0-1.5
		c0-0.3,0.2-0.5,0.4-0.6c0,0,0,0.1,0,0.1c0,0,0,0.1,0.1,0.1c-0.2,0-0.3,0.2-0.3,0.4c0,0.5,0,1,0,1.5c0,0.2,0.1,0.4,0.3,0.4
		c0,0,0,0,0.1,0h1.5c0,0,0.1,0,0.1,0c0,0,0,0,0,0.1L25.5,31.3z"/>
	<path class="st0" d="M25.5,31.3l-0.1-0.1c0,0,0,0,0-0.1c0.2-0.1,0.2-0.2,0.2-0.4c0-0.5,0-1,0-1.5c0-0.2-0.1-0.4-0.3-0.4
		c0,0,0,0-0.1,0h-1.6c0,0,0-0.1-0.1-0.1c0,0,0-0.1,0-0.1c0.1,0,0.1,0,0.2,0c0.5,0,1,0,1.5,0c0.3,0,0.6,0.2,0.6,0.6c0,0,0,0,0,0
		c0,0.5,0,1,0,1.5C25.8,31,25.7,31.2,25.5,31.3z"/>
	<path class="st0" d="M24.9,30.4c-0.3,0.3-0.7,0.3-1,0c-0.1-0.1-0.1-0.2-0.2-0.3c-0.1-0.3,0-0.7,0.3-0.8l0.1,0
		c0,0.1,0.1,0.1,0.1,0.2c0,0-0.1,0-0.1,0.1C24,29.7,24,29.8,24,30c0,0.2,0.1,0.3,0.3,0.4c0.2,0.1,0.4,0,0.5-0.1L24.9,30.4z"/>
	<path class="st0" d="M24.9,30.4l-0.1-0.2c0,0,0,0,0,0c0.2-0.2,0.1-0.5-0.1-0.7c0,0,0,0,0,0c-0.1-0.1-0.3-0.1-0.4,0
		c0-0.1-0.1-0.1-0.1-0.2c0.3-0.1,0.6-0.1,0.8,0.2C25.2,29.8,25.2,30.2,24.9,30.4z"/>
	<path class="st0" d="M25.2,29.4c-0.1,0-0.2-0.1-0.2-0.2c0-0.1,0.1-0.2,0.2-0.2c0.1,0,0.2,0.1,0.2,0.2c0,0,0,0,0,0
		C25.4,29.3,25.3,29.4,25.2,29.4z"/>
	<path class="st1" d="M34.3,18.3c0.7,0,1.4,0.1,2,0.1c0.1,0.2,0.1,0.4,0.2,0.6c0.9,1.3,1.9,2.7,2.9,4c0.1,0.1,0.3,0.2,0.4,0.3
		c0,0.7,0,1.5,0,2.2c-0.2-0.2-0.4-0.3-0.6-0.5c-0.4-0.4-0.8-0.9-1.2-1.4c0-0.2,0-0.4,0-0.6c0-1.8-0.9-2.8-2.7-3
		c-0.1-0.2-0.1-0.3-0.2-0.5C34.9,19.2,34.6,18.8,34.3,18.3z"/>
	<path class="st2" d="M24,39.9c-0.8,0.1-1.7,0.1-2.4-0.3c-0.1-0.2-0.1-0.4-0.2-0.6c-0.8-1.1-1.5-2.2-2.3-3.3
		c-0.1-0.2-0.4-0.3-0.6-0.5c0-0.5,0-0.9,0-1.4c0.1,0.1,0.3,0.2,0.4,0.3c0.3,0.4,0.7,0.9,1,1.4c0.1,0.1,0.3,0.2,0.5,0.3
		c0.4,1.4,1.3,2.2,2.8,2.3c0.1,0.2,0.2,0.5,0.3,0.7C23.5,39.1,23.7,39.5,24,39.9z"/>
	<path class="st3" d="M18.4,24.1c-0.1-1-0.1-2,0.3-3c0.2,0.2,0.4,0.4,0.6,0.6c0.3,0.3,0.6,0.6,0.9,0.9c0,0.9,0,1.8,0,2.7
		c0,0.2,0,0.5-0.1,0.7c-0.2-0.2-0.5-0.4-0.7-0.6C19.2,25,18.8,24.6,18.4,24.1z"/>
	<path class="st4" d="M39.8,23.3c-0.1-0.1-0.3-0.1-0.4-0.3c-1-1.3-1.9-2.7-2.9-4c-0.1-0.2-0.1-0.4-0.2-0.6
		C38.5,18.9,40.1,20.9,39.8,23.3z"/>
	<path class="st5" d="M18.4,24.1c0.4,0.4,0.7,0.9,1.1,1.3c0.2,0.2,0.4,0.4,0.7,0.6c0,1,0,2.1,0,3.1c0,0-0.1,0-0.1,0.1
		c-0.2-0.3-0.4-0.6-0.6-0.9c-0.3-0.4-0.6-0.7-1-1.1C18.4,26.2,18.4,25.2,18.4,24.1z"/>
	<path class="st6" d="M39.8,28.4c0,0.9,0,1.8,0,2.7c-0.3-0.2-0.5-0.4-0.7-0.7c-0.4-0.4-0.7-0.8-1-1.2c0-0.9,0-1.9,0-2.8
		c0.1,0.1,0.3,0.2,0.4,0.3c0.3,0.4,0.7,0.9,1,1.4C39.5,28.3,39.7,28.3,39.8,28.4z"/>
	<path class="st7" d="M39.8,28.4c-0.1-0.1-0.3-0.1-0.4-0.2c-0.3-0.4-0.7-0.9-1-1.4c-0.1-0.1-0.3-0.2-0.4-0.3c0-0.9,0-1.8,0-2.7
		c0.4,0.5,0.8,0.9,1.2,1.4c0.2,0.2,0.4,0.3,0.6,0.5C39.8,26.5,39.8,27.4,39.8,28.4z"/>
	<path class="st8" d="M39.8,33.8c0,0.8-0.1,1.7-0.1,2.5c-0.2-0.2-0.5-0.5-0.7-0.7c-0.3-0.4-0.7-0.7-1-1.1c0-0.9,0-1.8,0-2.6
		c0.1,0.1,0.3,0.2,0.4,0.3c0.3,0.3,0.5,0.7,0.7,1.1C39.4,33.4,39.6,33.6,39.8,33.8z"/>
	<path class="st9" d="M39.8,33.8c-0.2-0.2-0.5-0.4-0.7-0.6c-0.3-0.3-0.5-0.7-0.7-1.1c-0.1-0.1-0.3-0.2-0.4-0.3c0-0.8,0-1.7,0-2.5
		c0.3,0.4,0.7,0.8,1,1.2c0.2,0.2,0.5,0.4,0.7,0.7C39.8,32,39.8,32.9,39.8,33.8z"/>
	<path class="st10" d="M25.7,18.3c0.8,0,1.7,0,2.5,0c0.2,0.3,0.4,0.7,0.6,1c0.1,0.3,0.2,0.5,0.4,0.8c-0.8,0-1.6,0-2.4,0
		c-0.1-0.2-0.1-0.4-0.2-0.5C26.2,19.2,25.9,18.8,25.7,18.3z"/>
	<path class="st11" d="M18.4,35.3c0.2,0.2,0.4,0.3,0.6,0.5c0.8,1.1,1.6,2.2,2.3,3.3c0.1,0.2,0.1,0.4,0.2,0.6
		C19.7,39.2,18.2,37.1,18.4,35.3z"/>
	<path class="st12" d="M20.2,22.6c-0.3-0.3-0.6-0.6-0.9-0.9c-0.2-0.2-0.4-0.4-0.6-0.6c0.3-0.7,0.7-1.4,1.4-1.8
		c0.4,0.5,0.7,0.9,1.1,1.4C20.7,21.3,20.3,21.9,20.2,22.6z"/>
	<path class="st10" d="M38,34.5c0.3,0.4,0.6,0.8,1,1.1c0.2,0.2,0.5,0.5,0.7,0.7c-0.1,0.8-0.4,1.4-1,2c-0.2-0.3-0.4-0.7-0.7-1
		c-0.1-0.2-0.3-0.3-0.5-0.4C38,36.1,38,35.3,38,34.5z"/>
	<path class="st13" d="M37.2,39.4c-0.7,0.4-1.4,0.5-2.1,0.5c-0.1-0.2-0.1-0.3-0.2-0.5c-0.2-0.4-0.5-0.9-0.7-1.3
		c0.7-0.1,1.4-0.1,2-0.2C36.6,38.4,36.9,38.9,37.2,39.4z"/>
	<path class="st7" d="M34.3,18.3c0.3,0.4,0.6,0.9,0.8,1.3c0.1,0.1,0.1,0.3,0.2,0.5c-0.7,0-1.5,0-2.2,0c-0.1-0.2-0.2-0.5-0.3-0.7
		c-0.2-0.4-0.4-0.7-0.6-1.1C32.9,18.3,33.6,18.3,34.3,18.3z"/>
	<path class="st12" d="M34.2,38.1c0.2,0.4,0.5,0.9,0.7,1.3c0.1,0.2,0.1,0.3,0.2,0.5c-0.7,0-1.4,0-2,0c-0.1-0.2-0.2-0.4-0.3-0.6
		c-0.2-0.4-0.5-0.8-0.7-1.2C32.8,38.1,33.5,38.1,34.2,38.1z"/>
	<path class="st14" d="M25.7,18.3c0.3,0.4,0.6,0.8,0.8,1.3c0.1,0.2,0.1,0.4,0.2,0.6c-0.7,0-1.4,0-2.1,0c-0.1-0.2-0.1-0.4-0.2-0.6
		c-0.3-0.4-0.5-0.8-0.8-1.3C24.2,18.3,25,18.3,25.7,18.3z"/>
	<path class="st15" d="M18.4,27.3c0.3,0.4,0.7,0.7,1,1.1c0.2,0.3,0.4,0.6,0.6,0.9c0,0,0.1,0,0.1-0.1c0-1,0-2.1,0-3.1
		c0-0.2,0-0.5,0.1-0.7c0,1.9,0,3.7,0,5.6c-0.2-0.1-0.4-0.3-0.6-0.4c-0.3-0.4-0.6-0.9-1-1.3c0-0.1-0.2-0.1-0.3-0.1
		C18.4,28.5,18.4,27.9,18.4,27.3z"/>
	<path class="st16" d="M37.2,39.4c-0.3-0.5-0.7-1-1-1.5c0.5-0.4,0.9-0.8,1.4-1.1c0.2,0.1,0.4,0.3,0.5,0.4c0.2,0.3,0.4,0.7,0.7,1
		C38.3,38.7,37.8,39,37.2,39.4z"/>
	<path class="st9" d="M29.1,20.1c-0.1-0.3-0.2-0.5-0.4-0.8c-0.2-0.3-0.4-0.7-0.6-1c0.7,0,1.4,0,2,0c0.1,0.2,0.2,0.4,0.3,0.6
		c0.2,0.4,0.4,0.8,0.6,1.2C30.5,20.1,29.8,20.1,29.1,20.1z"/>
	<path class="st3" d="M31.2,39.9c-0.4,0-0.8,0-1.2,0c-0.1,0-0.1,0-0.2,0c-0.1,0-0.2,0-0.2,0c-0.4-0.6-0.9-1.2-1.3-1.8
		c0.7,0,1.4,0,2,0c0.2,0.4,0.4,0.7,0.6,1.1C31,39.4,31.1,39.7,31.2,39.9z"/>
	<path class="st6" d="M31.2,20.1c-0.2-0.4-0.4-0.8-0.6-1.2c-0.1-0.2-0.2-0.4-0.3-0.6c0.6,0,1.3,0,1.9,0c0.2,0.4,0.4,0.7,0.6,1.1
		c0.1,0.2,0.2,0.5,0.3,0.7C32.4,20.1,31.8,20.1,31.2,20.1z"/>
	<path class="st17" d="M23.5,18.3c0.3,0.4,0.6,0.8,0.8,1.3c0.1,0.2,0.1,0.4,0.2,0.6c-0.6,0-1.3,0-1.9,0c-0.1-0.2-0.1-0.4-0.2-0.5
		c-0.2-0.4-0.4-0.8-0.6-1.1C22.4,18.4,23,18.4,23.5,18.3z"/>
	<path class="st18" d="M31.2,39.9c-0.1-0.2-0.2-0.5-0.3-0.7c-0.2-0.4-0.4-0.7-0.6-1.1c0.6,0,1.1,0,1.7,0c0.2,0.4,0.5,0.8,0.7,1.2
		c0.1,0.2,0.2,0.4,0.3,0.6C32.5,39.9,31.9,39.9,31.2,39.9z"/>
	<path class="st19" d="M18.4,29.1c0.1,0,0.2,0,0.3,0.1c0.3,0.4,0.6,0.9,1,1.3c0.1,0.2,0.4,0.3,0.6,0.4c0,0.6,0,1.2,0,1.8
		c-0.3-0.3-0.5-0.5-0.8-0.8c-0.3-0.4-0.7-0.7-1-1.1C18.4,30.2,18.4,29.7,18.4,29.1z"/>
	<path class="st13" d="M21.8,18.5c0.2,0.4,0.4,0.8,0.6,1.1c0.1,0.2,0.1,0.4,0.2,0.5c-0.5,0.2-1,0.4-1.4,0.6
		c-0.4-0.5-0.7-0.9-1.1-1.4C20.7,19.1,21.2,18.8,21.8,18.5z"/>
	<path class="st20" d="M18.4,30.8c0.3,0.4,0.7,0.7,1,1.1c0.3,0.3,0.5,0.5,0.8,0.8c0,0.5,0,1.1,0,1.6c-0.1-0.1-0.3-0.2-0.4-0.3
		c-0.3-0.3-0.5-0.7-0.8-1.1c-0.2-0.2-0.4-0.4-0.6-0.6C18.4,31.9,18.4,31.4,18.4,30.8z"/>
	<path class="st21" d="M18.4,32.4c0.2,0.2,0.4,0.4,0.6,0.6c0.3,0.3,0.5,0.7,0.8,1.1c0.1,0.1,0.3,0.2,0.4,0.3c0,0.5,0,0.9,0,1.4
		c-0.2-0.1-0.4-0.2-0.5-0.3c-0.4-0.4-0.7-0.9-1-1.4c-0.1-0.1-0.2-0.2-0.4-0.3C18.4,33.4,18.4,32.9,18.4,32.4z"/>
	<path class="st5" d="M28.3,38.1c0.4,0.6,0.9,1.2,1.3,1.8c-0.6,0-1.2,0-1.8,0c-0.1-0.2-0.2-0.5-0.3-0.7c-0.2-0.4-0.4-0.7-0.6-1.1
		C27.4,38.1,27.8,38.1,28.3,38.1z"/>
	<path class="st15" d="M26.9,38.1c0.2,0.4,0.4,0.7,0.6,1.1c0.1,0.2,0.2,0.5,0.3,0.7c-0.4,0-0.9,0-1.3,0c-0.1-0.2-0.2-0.4-0.3-0.6
		c-0.2-0.4-0.5-0.8-0.7-1.2C25.9,38.1,26.4,38.1,26.9,38.1z"/>
	<path class="st19" d="M25.5,38.1c0.2,0.4,0.5,0.8,0.7,1.2c0.1,0.2,0.2,0.4,0.3,0.6c-0.4,0-0.9,0-1.3,0c-0.1-0.2-0.2-0.5-0.3-0.7
		c-0.2-0.4-0.4-0.7-0.6-1.1C24.7,38.1,25.1,38.1,25.5,38.1z"/>
	<path class="st20" d="M24.2,38.1c0.2,0.4,0.4,0.7,0.6,1.1c0.1,0.2,0.2,0.5,0.3,0.7c-0.4,0-0.8,0-1.2,0c-0.2-0.4-0.4-0.8-0.6-1.1
		c-0.1-0.2-0.2-0.4-0.3-0.7C23.4,38.1,23.8,38.1,24.2,38.1z"/>
	<path class="st15" d="M29.8,39.9c0.1,0,0.1,0,0.2,0C30,39.9,29.9,39.9,29.8,39.9z"/>
	<path class="st10" d="M34.7,29c-0.1,0.6-0.1,1.2-0.2,1.7c-0.1-0.1-0.3-0.1-0.4-0.2c-0.3-0.3-0.5-0.7-0.8-1
		c-0.1-0.1-0.3-0.2-0.5-0.3c-0.1-1.8-1-3.1-2.7-3.7c-0.1-0.2-0.1-0.5-0.3-0.7c-0.2-0.4-0.5-0.9-0.8-1.3c0.6,0.1,1.2,0.2,1.8,0.3
		c0.1,0.2,0.1,0.4,0.2,0.5c1,1.4,2,2.9,3.1,4.3C34.4,28.8,34.6,28.9,34.7,29z"/>
	<path class="st18" d="M28.6,34.7c-0.5-0.1-0.9-0.2-1.4-0.3c-0.1-0.2-0.1-0.4-0.2-0.6c-1-1.4-2-2.8-3-4.2c-0.1-0.1-0.3-0.2-0.5-0.2
		c0.1-0.5,0.1-1.1,0.2-1.6c0.2,0.2,0.4,0.3,0.6,0.5c0.4,0.4,0.7,0.8,1.1,1.2c0.2,1.4,1,2.5,2.2,3.2c0.1,0.2,0.2,0.5,0.3,0.7
		C28.1,33.8,28.4,34.2,28.6,34.7z"/>
	<path class="st3" d="M23.6,29.3c0.2,0.1,0.4,0.1,0.5,0.2c1,1.4,2,2.8,3,4.2c0.1,0.2,0.1,0.4,0.2,0.6C25.2,33.8,23.5,31.4,23.6,29.3
		z"/>
	<path class="st8" d="M34.7,29c-0.1-0.1-0.3-0.2-0.4-0.3c-1-1.4-2.1-2.9-3.1-4.3c-0.1-0.1-0.1-0.3-0.2-0.5
		C33.3,24.7,34.8,26.8,34.7,29z"/>
	<path class="st14" d="M29.2,23.5c0.3,0.4,0.5,0.9,0.8,1.3c0.1,0.2,0.2,0.4,0.3,0.7c-0.7,0-1.4,0-2.1,0C28,25.3,28,25.1,27.9,25
		c-0.2-0.4-0.5-0.8-0.7-1.1C27.9,23.8,28.5,23.6,29.2,23.5z"/>
	<path class="st17" d="M27.2,23.9c0.2,0.4,0.5,0.7,0.7,1.1c0.1,0.2,0.1,0.3,0.2,0.5c-0.5,0.3-1.1,0.6-1.6,1
		c-0.1-0.2-0.1-0.3-0.2-0.5c-0.2-0.4-0.5-0.7-0.7-1.1C26.1,24.5,26.6,24.2,27.2,23.9z"/>
	<path class="st14" d="M32.9,29.2c0.2,0.1,0.4,0.2,0.5,0.3c0.3,0.3,0.5,0.7,0.8,1c0.1,0.1,0.2,0.1,0.4,0.2c-0.3,0.6-0.6,1.2-0.9,1.7
		c-0.4-0.5-0.8-1-1.2-1.5C32.6,30.4,32.7,29.8,32.9,29.2z"/>
	<path class="st22" d="M25.5,24.9c0.2,0.4,0.5,0.7,0.7,1.1c0.1,0.1,0.1,0.3,0.2,0.5c-0.3,0.4-0.6,0.8-0.9,1.3
		c-0.2-0.2-0.4-0.4-0.6-0.7c-0.2-0.3-0.5-0.5-0.7-0.8C24.7,25.8,25.1,25.3,25.5,24.9z"/>
	<path class="st12" d="M24.3,26.3c0.2,0.3,0.5,0.5,0.7,0.8c0.2,0.2,0.4,0.4,0.6,0.7c-0.1,0.6-0.2,1.1-0.3,1.7
		c-0.4-0.4-0.7-0.8-1.1-1.2c-0.2-0.2-0.4-0.3-0.6-0.5C23.9,27.2,24.1,26.7,24.3,26.3z"/>
	<path class="st12" d="M28.6,34.7c-0.2-0.5-0.5-0.9-0.7-1.4c-0.1-0.2-0.2-0.5-0.3-0.7c0.5,0.1,1.1,0.2,1.6,0.3
		c0.1,0.2,0.2,0.5,0.3,0.7c0.2,0.3,0.4,0.6,0.6,1C29.6,34.6,29.1,34.6,28.6,34.7z"/>
	<path class="st17" d="M32.4,31c0.4,0.5,0.8,1,1.2,1.5c-0.4,0.4-0.7,0.7-1.1,1.1c-0.1-0.1-0.2-0.3-0.3-0.4c-0.3-0.3-0.6-0.6-0.9-0.9
		C31.7,31.8,32,31.4,32.4,31z"/>
	<path class="st23" d="M34.5,22.1c0.7-0.4,1.3-0.2,1.7,0.4c0.4,0.6,0.3,1.3-0.3,1.8c-0.2-0.2-0.4-0.4-0.5-0.6
		C35.1,23.1,34.8,22.6,34.5,22.1z"/>
	<path class="st6" d="M34.5,22.1c0.3,0.5,0.6,1,0.9,1.5c0.1,0.2,0.4,0.4,0.5,0.6c-0.6,0.5-1.4,0.4-1.9-0.3
		C33.6,23.3,33.8,22.5,34.5,22.1z"/>
	<path class="st22" d="M30.1,34.6c-0.2-0.3-0.4-0.6-0.6-1c-0.1-0.2-0.2-0.5-0.3-0.7c0.4-0.1,0.8-0.2,1.2-0.2
		c0.2,0.3,0.3,0.5,0.5,0.8c0.1,0.3,0.2,0.5,0.3,0.8C30.9,34.4,30.5,34.5,30.1,34.6z"/>
	<path class="st13" d="M31.3,34.3c-0.1-0.3-0.2-0.5-0.3-0.8c-0.1-0.3-0.3-0.5-0.5-0.8c0.3-0.2,0.6-0.3,0.8-0.5
		c0.3,0.3,0.6,0.6,0.9,0.9c0.1,0.1,0.2,0.3,0.3,0.4C32.1,33.8,31.7,34,31.3,34.3z"/>
</g>
</svg>
