<svg id="Layer_1" data-name="Layer 1" xmlns="http://www.w3.org/2000/svg" viewBox="0 0 58.26 58.2"><defs><style>.cls-1{fill:#fff;}</style></defs><path class="cls-1" d="M30.72,58a27.76,27.76,0,0,1-11.56-1.69,28.48,28.48,0,0,1-15.87-14A28.36,28.36,0,0,1,.56,23.43,28.29,28.29,0,0,1,9.35,7.58,28.52,28.52,0,0,1,31.54-.07l.31.05V2.57A27.21,27.21,0,0,0,19.73,4.19a26.07,26.07,0,0,0-9.22,5.87A33.52,33.52,0,0,0,7,14.35a22.63,22.63,0,0,0-3.12,6.4,26.49,26.49,0,0,0,.49,17.74,25.72,25.72,0,0,0,5.13,8.3,28.24,28.24,0,0,0,4,3.53A25.3,25.3,0,0,0,24.32,55c.92.17,1.85.31,2.77.47l.16.07a1.49,1.49,0,0,1,.4-.11h3.08Z" transform="translate(0 0.16)"/><path class="cls-1" d="M30.72,58c0-.86,0-1.72,0-2.59,1-.13,2-.24,3-.4a23.48,23.48,0,0,0,6.53-2A26.09,26.09,0,0,0,53.44,39.32,26.39,26.39,0,0,0,47.77,10.2a26.82,26.82,0,0,0-9.45-6.08,29.91,29.91,0,0,0-6.47-1.55V0a26.77,26.77,0,0,1,7.93,1.88,26.29,26.29,0,0,1,8.08,4.85,39,39,0,0,1,4,4.18,26.5,26.5,0,0,1,2.9,4.24,28.42,28.42,0,0,1,1.65,24,28.22,28.22,0,0,1-9.91,13.22A29.2,29.2,0,0,1,31.23,58,4.34,4.34,0,0,1,30.72,58Z" transform="translate(0 0.16)"/><path class="cls-1" d="M27.09,55.42l.16.07Z" transform="translate(0 0.16)"/><path class="cls-1" d="M39.07,41.85a13.65,13.65,0,0,1-2.56.51c-4.93,0-9.87,0-14.8,0a5.68,5.68,0,0,1-5.93-5.94q0-7.62,0-15.24a5.54,5.54,0,0,1,4.38-5.48c.12.29.21.6.35.89s.44.81.66,1.22a3.51,3.51,0,0,0-3.07,3.74c.06,4.95,0,9.91,0,14.87a3.35,3.35,0,0,0,3.65,3.63H36.47a14.09,14.09,0,0,0,1.44-.16c.1.2.19.41.31.6Z" transform="translate(0 0.16)"/><path class="cls-1" d="M39.07,41.85l-.85-1.37c-.12-.19-.21-.4-.31-.6a3.73,3.73,0,0,0,2.26-3.83c0-4.85,0-9.7,0-14.55a3.41,3.41,0,0,0-3.7-3.68H21.15c-.22-.41-.46-.81-.66-1.22s-.23-.6-.35-.89a14.93,14.93,0,0,1,1.62-.2c4.89,0,9.78,0,14.67,0a5.82,5.82,0,0,1,6,6c-.09,5,0,10.11,0,15.17A5.42,5.42,0,0,1,39.07,41.85Z" transform="translate(0 0.16)"/><path class="cls-1" d="M34,33.86a6.94,6.94,0,0,1-11.46-2.53,6.8,6.8,0,0,1,2.71-8.14l.79-.47c.45.61.9,1.23,1.36,1.84a9,9,0,0,0-1.12.68,4.45,4.45,0,0,0-1.79,4.25,4.4,4.4,0,0,0,3,3.79,4.58,4.58,0,0,0,5.1-1.21Z" transform="translate(0 0.16)"/><path class="cls-1" d="M34,33.86l-1.42-1.79c.11-.16.22-.31.32-.47A4.61,4.61,0,0,0,31.56,25a4.75,4.75,0,0,0-4.15-.42c-.46-.61-.91-1.23-1.36-1.84a6.86,6.86,0,0,1,8.34,1.67A7,7,0,0,1,34,33.86Z" transform="translate(0 0.16)"/><path class="cls-1" d="M36.6,23.25a1.64,1.64,0,1,1,1.62-1.65A1.65,1.65,0,0,1,36.6,23.25Z" transform="translate(0 0.16)"/></svg>