<svg id="Layer_1" data-name="Layer 1" xmlns="http://www.w3.org/2000/svg" viewBox="0 0 58.05 58.04"><defs><style>.cls-1{fill:orange;}</style></defs><path class="cls-1" d="M29.86,58A27.83,27.83,0,0,1,16.67,55.3,29,29,0,0,1,28.8,0h.56V2.61c-1.91.19-3.85.23-5.73.61A25,25,0,0,0,11.3,9.47a32.66,32.66,0,0,0-3.79,4.18A27.88,27.88,0,0,0,5.1,17.82a20.4,20.4,0,0,0-1.2,3,24.16,24.16,0,0,0-1.16,10.8,38.68,38.68,0,0,0,1.33,6.2,25.56,25.56,0,0,0,2.1,4.42A22.59,22.59,0,0,0,9.58,47a25,25,0,0,0,5.89,4.69A33.24,33.24,0,0,0,19,53.44a30.14,30.14,0,0,0,3.57,1.24,21,21,0,0,0,2.37.43l2,.33h2.8Z" transform="translate(-0.01 0.01)"/><path class="cls-1" d="M29.86,58V55.43h.5A26.32,26.32,0,0,0,40.22,53a26,26,0,0,0,10.6-9.13,25.4,25.4,0,0,0,4.53-13.51,25.89,25.89,0,0,0-7.74-20,26.31,26.31,0,0,0-8-5.49A27.22,27.22,0,0,0,29.36,2.61V0a27,27,0,0,1,8.69,1.44,27.07,27.07,0,0,1,9.7,5.45A34.51,34.51,0,0,1,51.64,11a25.86,25.86,0,0,1,2.88,4.23,28.4,28.4,0,0,1,1.53,24.24,27.58,27.58,0,0,1-6.64,10.15A29.09,29.09,0,0,1,30.74,58C30.45,58,30.15,58,29.86,58Z" transform="translate(-0.01 0.01)"/><path class="cls-1" d="M27,55.44h0Z" transform="translate(-0.01 0.01)"/><path class="cls-1" d="M38.78,42a12.46,12.46,0,0,1-2.25.45H21.46a5.65,5.65,0,0,1-5.74-5.56V21.3a5.55,5.55,0,0,1,4.34-5.48c.11.26.2.52.33.77.22.45.45.89.68,1.34A3.5,3.5,0,0,0,18,21.65c.06,4.94,0,9.87,0,14.81a3.35,3.35,0,0,0,3,3.64,3.21,3.21,0,0,0,.62,0H36.34c.48,0,1-.08,1.43-.15.11.26.21.52.34.78S38.58,41.54,38.78,42Z" transform="translate(-0.01 0.01)"/><path class="cls-1" d="M21.07,17.94c-.23-.45-.46-.89-.68-1.34-.13-.25-.22-.51-.33-.77a12.41,12.41,0,0,1,1.61-.19H36.3a5.81,5.81,0,0,1,6,5.61v.39c-.09,5.05,0,10.09,0,15.13a5.5,5.5,0,0,1-3.51,5.17c-.22-.42-.45-.83-.67-1.24s-.23-.52-.34-.78A3.7,3.7,0,0,0,40,36.1V21.6A3.4,3.4,0,0,0,37,17.92a2.91,2.91,0,0,0-.59,0Z" transform="translate(-0.01 0.01)"/><path class="cls-1" d="M24.67,23.64a6.91,6.91,0,0,1,10,9.42,13,13,0,0,1-1.47,1.5,5.21,5.21,0,0,0-.41-.52l-1.13-1.22a4.54,4.54,0,0,0,1.83-5,4.45,4.45,0,0,0-3.91-3.4,4.87,4.87,0,0,0-3.53,1Z" transform="translate(-0.01 0.01)"/><path class="cls-1" d="M31.66,32.82,32.75,34a5.21,5.21,0,0,1,.41.52,6.88,6.88,0,0,1-9.66-1.26,6.7,6.7,0,0,1-1-1.91,6.77,6.77,0,0,1,2.21-7.75L26,25.37c-.17.18-.35.36-.51.55a4.4,4.4,0,0,0-1.12,3.65,4.64,4.64,0,0,0,7.25,3.25Z" transform="translate(-0.01 0.01)"/><path class="cls-1" d="M36.46,23.36a1.63,1.63,0,1,1,1.63-1.63A1.67,1.67,0,0,1,36.46,23.36Z" transform="translate(-0.01 0.01)"/><path class="cls-1" d="M31.66,32.82a4.64,4.64,0,0,1-7.25-3.25A4.4,4.4,0,0,1,25.58,26c.16-.19.34-.37.51-.55a4.87,4.87,0,0,1,3.53-1,4.47,4.47,0,0,1,3.92,3.47A4.55,4.55,0,0,1,31.66,32.82Z" transform="translate(-0.01 0.01)"/></svg>