<svg id="Layer_1" data-name="Layer 1" xmlns="http://www.w3.org/2000/svg" viewBox="0 0 58.06 58.03"><defs><style>.cls-1{fill:#fff;}</style></defs><path class="cls-1" d="M32.28,61.19a27.93,27.93,0,0,1-13.19-2.71A29.05,29.05,0,0,1,2.53,34.62,29,29,0,0,1,15.65,7.87,28.86,28.86,0,0,1,31.22,3.18a5.24,5.24,0,0,1,.56,0V5.79c-1.91.19-3.85.23-5.73.61a25,25,0,0,0-12.33,6.25,32.66,32.66,0,0,0-3.79,4.18A28.05,28.05,0,0,0,7.52,21a20.4,20.4,0,0,0-1.2,3A24.2,24.2,0,0,0,5.16,34.8,38.09,38.09,0,0,0,6.49,41a25.49,25.49,0,0,0,2.1,4.42A22.88,22.88,0,0,0,12,50.18a24.94,24.94,0,0,0,5.89,4.69,33.24,33.24,0,0,0,3.54,1.75A31.2,31.2,0,0,0,25,57.86a20.23,20.23,0,0,0,2.37.43l2,.33,0,0h0l2.8,0Z" transform="translate(-2.42 -3.18)"/><path class="cls-1" d="M32.28,61.19V58.61l.5,0a26.36,26.36,0,0,0,9.86-2.48A26,26,0,0,0,53.24,47a25.37,25.37,0,0,0,4.53-13.51,25.88,25.88,0,0,0-7.74-20A26.29,26.29,0,0,0,42,8,27.27,27.27,0,0,0,31.78,5.79V3.2a27,27,0,0,1,8.69,1.44,27.14,27.14,0,0,1,9.7,5.45,35.34,35.34,0,0,1,3.89,4.13,25.66,25.66,0,0,1,2.88,4.23,28.4,28.4,0,0,1,1.53,24.24,27.62,27.62,0,0,1-6.64,10.15,29.07,29.07,0,0,1-18.67,8.35C32.87,61.21,32.57,61.19,32.28,61.19Z" transform="translate(-2.42 -3.18)"/><path class="cls-1" d="M29.42,58.62l.06,0h0Z" transform="translate(-2.42 -3.18)"/><path class="cls-1" d="M41.2,45.14a12.81,12.81,0,0,1-2.25.45c-5,0-10.05,0-15.07,0a5.65,5.65,0,0,1-5.74-5.79c0-5.1,0-10.21,0-15.32A5.54,5.54,0,0,1,22.48,19c.11.26.2.52.33.77.22.45.45.89.68,1.34a3.5,3.5,0,0,0-3.06,3.72c.06,4.94,0,9.87,0,14.81a3.35,3.35,0,0,0,3.65,3.64q7.34,0,14.68,0a13.87,13.87,0,0,0,1.43-.15c.11.26.21.52.34.78C40.75,44.31,41,44.72,41.2,45.14Z" transform="translate(-2.42 -3.18)"/><path class="cls-1" d="M23.49,21.12c-.23-.45-.46-.89-.68-1.34-.13-.25-.22-.51-.33-.77a12.61,12.61,0,0,1,1.61-.19c4.88,0,9.75,0,14.63,0a5.81,5.81,0,0,1,6,6c-.09,5.05,0,10.09,0,15.13a5.5,5.5,0,0,1-3.51,5.17c-.22-.42-.45-.83-.67-1.24-.13-.26-.23-.52-.34-.78a3.7,3.7,0,0,0,2.26-3.82c0-4.83,0-9.67,0-14.5a3.4,3.4,0,0,0-3.68-3.68Z" transform="translate(-2.42 -3.18)"/><path class="cls-1" d="M27.09,26.82a6.91,6.91,0,0,1,10,9.42,13.85,13.85,0,0,1-1.47,1.5,5.21,5.21,0,0,0-.41-.52L34.08,36a4.54,4.54,0,0,0,1.83-5A4.46,4.46,0,0,0,32,27.6a4.84,4.84,0,0,0-3.53,1Z" transform="translate(-2.42 -3.18)"/><path class="cls-1" d="M34.08,36l1.09,1.19a5.21,5.21,0,0,1,.41.52,6.89,6.89,0,0,1-10.7-3.17,6.78,6.78,0,0,1,2.21-7.75l1.37,1.76c-.17.18-.35.36-.51.55a4.4,4.4,0,0,0-1.12,3.65A4.64,4.64,0,0,0,34.08,36Z" transform="translate(-2.42 -3.18)"/><path class="cls-1" d="M38.88,26.54a1.63,1.63,0,1,1,1.63-1.63A1.67,1.67,0,0,1,38.88,26.54Z" transform="translate(-2.42 -3.18)"/><path class="cls-1" d="M34.08,36a4.64,4.64,0,0,1-7.25-3.25A4.4,4.4,0,0,1,28,29.13c.16-.19.34-.37.51-.55a4.84,4.84,0,0,1,3.53-1,4.46,4.46,0,0,1,3.92,3.47A4.54,4.54,0,0,1,34.08,36Z" transform="translate(-2.42 -3.18)"/></svg>