<svg id="Layer_1" data-name="Layer 1" xmlns="http://www.w3.org/2000/svg" viewBox="0 0 69.78 62.67"><defs><style>.cls-1,.cls-4{fill:#737373;}.cls-2{fill:orange;}.cls-3{fill:none;stroke:#737373;stroke-miterlimit:10;stroke-width:0.25px;}.cls-4{font-size:2.05px;font-family:MyriadPro-Regular, Myriad Pro;}.cls-5{letter-spacing:-0.01em;}.cls-6{letter-spacing:-0.02em;}.cls-7{letter-spacing:0em;}.cls-8{letter-spacing:0em;}</style></defs><path class="cls-1" d="M9.2,24.5V55.3a1.1,1.1,0,0,0,.6,1l29,13.6a1.15,1.15,0,0,0,1.6-1l.3-32.6a1,1,0,0,0-.7-1l-8.8-3.5a1.08,1.08,0,0,0-1.5,1v6.4a2.49,2.49,0,0,1-4.4,1.6l-.3-.2a2.63,2.63,0,0,0-2.9-.7h0a2.5,2.5,0,0,1-3.5-2.3l-.1-10.1a1.2,1.2,0,0,0-.7-1l-7.1-3A1.08,1.08,0,0,0,9.2,24.5Z" transform="translate(-8.69 -10.5)"/><path class="cls-1" d="M44.8,35.4,72,23.5a1.08,1.08,0,0,1,1.5,1V55.2a1.1,1.1,0,0,1-.6,1l-27,13.6a1.11,1.11,0,0,1-1.6-1l-.1-32.5A1,1,0,0,1,44.8,35.4Z" transform="translate(-8.69 -10.5)"/><path class="cls-1" d="M42.6,32.5,69.4,20.8c.4-.2.4-.7,0-.8L61,17.1h-.3L33.3,27.9a.42.42,0,0,0,0,.8l8.9,3.8C42.3,32.6,42.4,32.6,42.6,32.5Z" transform="translate(-8.69 -10.5)"/><path class="cls-2" d="M27.6,38.3l.5-9.4a.87.87,0,0,1,.6-.8L57.9,16.4,51.4,14,21.1,25.6a.87.87,0,0,0-.6.9l.1,10.4a1,1,0,0,0,1.3.9l1.6-.6a1.16,1.16,0,0,1,1,.2L26,38.9A.92.92,0,0,0,27.6,38.3Z" transform="translate(-8.69 -10.5)"/><path class="cls-1" d="M20.9,23.6l26.5-10a.59.59,0,0,0,0-1.1l-5.7-2h-.4L13.9,19.6a.52.52,0,0,0,0,1l6.6,2.8C20.6,23.7,20.7,23.7,20.9,23.6Z" transform="translate(-8.69 -10.5)"/><line class="cls-3" x1="0.06" y1="48.16" x2="27.16" y2="61.57"/><line class="cls-3" x1="0.13" y1="48.2" x2="0.95" y2="50.07"/><line class="cls-3" x1="0.13" y1="48.2" x2="2.2" y2="47.89"/><line class="cls-3" x1="27.1" y1="61.55" x2="25.45" y2="61.89"/><line class="cls-3" x1="27.1" y1="61.55" x2="26.43" y2="60.04"/><text class="cls-4" transform="matrix(0.89, 0.45, -0.45, 0.89, 7.39, 54.43)"><tspan class="cls-5">L</tspan><tspan x="0.94" y="0">ength</tspan></text><line class="cls-3" x1="38.31" y1="62.15" x2="65.04" y2="48.02"/><line class="cls-3" x1="38.38" y1="62.11" x2="40.38" y2="62.54"/><line class="cls-3" x1="38.38" y1="62.11" x2="39.34" y2="60.25"/><line class="cls-3" x1="64.98" y1="48.06" x2="64.29" y2="49.59"/><line class="cls-3" x1="64.98" y1="48.06" x2="63.38" y2="47.72"/><text class="cls-4" transform="matrix(0.89, -0.46, 0.46, 0.89, 49.62, 58.82)"><tspan class="cls-6">W</tspan><tspan x="1.7" y="0">idth</tspan></text><line class="cls-3" x1="67.11" y1="13.92" x2="67.06" y2="44.15"/><line class="cls-3" x1="67.12" y1="14" x2="65.93" y2="15.58"/><line class="cls-3" x1="67.12" y1="14" x2="68.19" y2="15.7"/><line class="cls-3" x1="67.05" y1="44.08" x2="66.13" y2="42.76"/><line class="cls-3" x1="67.05" y1="44.08" x2="68" y2="42.81"/><text class="cls-4" transform="translate(69.26 32.87) rotate(-90.94)">Heig<tspan class="cls-7" x="3.99" y="0">h</tspan><tspan class="cls-8" x="5.13" y="0">t</tspan></text></svg>