<svg id="Layer_1" data-name="Layer 1" xmlns="http://www.w3.org/2000/svg" xmlns:xlink="http://www.w3.org/1999/xlink" viewBox="0 0 63.36 62.66"><defs><style>.cls-1{fill:url(#linear-gradient);}.cls-2,.cls-5,.cls-6,.cls-7,.cls-8{fill:#737373;}.cls-3{fill:orange;}.cls-4{fill:none;stroke:#737373;stroke-miterlimit:10;stroke-width:0.25px;}.cls-5,.cls-6,.cls-7,.cls-8{isolation:isolate;font-family:ArialMT, Arial;}.cls-5,.cls-6{font-size:1.27px;}.cls-5{letter-spacing:-0.09em;}.cls-7,.cls-8{font-size:1.27px;}.cls-7{letter-spacing:-0.02em;}</style><linearGradient id="linear-gradient" x1="15.97" y1="4.12" x2="47.39" y2="58.54" gradientUnits="userSpaceOnUse"><stop offset="0" stop-color="#c4c4c4"/><stop offset="0.08" stop-color="#d5d5d5"/><stop offset="0.18" stop-color="#e6e6e6"/><stop offset="0.32" stop-color="#f2f2f2"/><stop offset="0.5" stop-color="#f9f9f9"/><stop offset="1" stop-color="#fbfbfb"/></linearGradient></defs><ellipse class="cls-1" cx="31.68" cy="31.33" rx="31.68" ry="31.33"/><path class="cls-2" d="M10.51,20.67v19.1a.65.65,0,0,0,.37.62l18,8.43a.72.72,0,0,0,.94-.37.7.7,0,0,0,.05-.25L30,28a.62.62,0,0,0-.44-.62L24.15,25.2a.67.67,0,0,0-.88.36h0a.58.58,0,0,0-.05.26v4a1.55,1.55,0,0,1-2.73,1l-.19-.12a1.63,1.63,0,0,0-1.8-.44h0a1.55,1.55,0,0,1-2-.8,1.68,1.68,0,0,1-.13-.62l-.06-6.27a.75.75,0,0,0-.43-.62l-4.4-1.86a.67.67,0,0,0-.88.36h0A.43.43,0,0,0,10.51,20.67Z"/><path class="cls-2" d="M32.58,27.43l16.87-7.38a.67.67,0,0,1,.87.36.58.58,0,0,1,.06.26v19a.71.71,0,0,1-.38.62L33.26,48.76a.69.69,0,0,1-.92-.31.67.67,0,0,1-.07-.31L32.21,28A.61.61,0,0,1,32.58,27.43Z"/><path class="cls-2" d="M31.22,25.63l16.61-7.25c.25-.13.25-.44,0-.5l-5.2-1.8h-.19l-17,6.7a.26.26,0,0,0-.17.33h0a.29.29,0,0,0,.17.17L31,25.63C31,25.69,31.09,25.69,31.22,25.63Z"/><path class="cls-3" d="M21.91,29.23l.31-5.83a.55.55,0,0,1,.38-.5l18.1-7.25-4-1.49L17.88,21.35a.54.54,0,0,0-.37.56l.06,6.45a.63.63,0,0,0,.66.59h.15l1-.37a.73.73,0,0,1,.62.12l.93.93a.57.57,0,0,0,1-.37Z"/><path class="cls-2" d="M17.76,20.11l16.43-6.2a.36.36,0,0,0,.22-.46.37.37,0,0,0-.22-.22L30.66,12h-.25l-17,5.64a.31.31,0,0,0-.22.39h0a.31.31,0,0,0,.22.22L17.51,20C17.57,20.18,17.64,20.18,17.76,20.11Z"/><line class="cls-4" x1="10.23" y1="41.85" x2="27.03" y2="50.17"/><line class="cls-4" x1="10.27" y1="41.88" x2="10.78" y2="43.04"/><line class="cls-4" x1="10.27" y1="41.88" x2="11.55" y2="41.69"/><line class="cls-4" x1="26.99" y1="50.16" x2="25.97" y2="50.37"/><line class="cls-4" x1="26.99" y1="50.16" x2="26.58" y2="49.22"/><text class="cls-5" transform="matrix(0.89, 0.45, -0.45, 0.89, 14.77, 45.74)">L</text><text class="cls-6" transform="matrix(0.89, 0.45, -0.45, 0.89, 15.29, 46)">ength</text><line class="cls-4" x1="33.94" y1="50.53" x2="50.52" y2="41.77"/><line class="cls-4" x1="33.99" y1="50.5" x2="35.23" y2="50.77"/><line class="cls-4" x1="33.99" y1="50.5" x2="34.58" y2="49.35"/><line class="cls-4" x1="50.48" y1="41.79" x2="50.05" y2="42.74"/><line class="cls-4" x1="50.48" y1="41.79" x2="49.49" y2="41.58"/><text class="cls-7" transform="translate(40.96 48.46) rotate(-27.33)">W</text><text class="cls-8" transform="translate(41.9 47.98) rotate(-27.33)">idth</text><line class="cls-4" x1="51.8" y1="20.62" x2="51.77" y2="39.37"/><line class="cls-4" x1="51.81" y1="20.67" x2="51.07" y2="21.65"/><line class="cls-4" x1="51.81" y1="20.67" x2="52.47" y2="21.73"/><line class="cls-4" x1="51.77" y1="39.32" x2="51.19" y2="38.51"/><line class="cls-4" x1="51.77" y1="39.32" x2="52.35" y2="38.54"/><text class="cls-8" transform="translate(53.14 32.37) rotate(-90.94)">Heig</text><text class="cls-8" transform="translate(53.1 29.9) rotate(-90.94)">h</text><text class="cls-8" transform="translate(53.08 29.19) rotate(-90.94)">t</text></svg>