<?xml version="1.0" encoding="utf-8"?>
<!-- Generator: Adobe Illustrator 24.1.1, SVG Export Plug-In . SVG Version: 6.00 Build 0)  -->
<svg version="1.1" id="Layer_1" xmlns="http://www.w3.org/2000/svg" xmlns:xlink="http://www.w3.org/1999/xlink" x="0px" y="0px"
	 viewBox="0 0 84 84" style="enable-background:new 0 0 84 84;" xml:space="preserve">
<style type="text/css">
	.st0{fill:#FFA500;}
	.st1{fill:none;stroke:#FFA500;stroke-miterlimit:10;}
	.st2{fill:#FFFFFF;stroke:#FFA500;stroke-miterlimit:10;}
</style>
<g>
	<g>
		<path class="st0" d="M60.7,26l-2.5-0.5l-16.8-3.4c-1.6-0.3-3.3-0.6-4.9-1c-0.2,0-0.3,0-0.3,0.2c-0.7,2-1.4,3.9-2.2,5.9
			c-1.6,4.3-3.1,8.6-4.7,12.9l-1.7,4.7c-0.4,1-1.5,1.5-2.4,1.1c-1-0.4-1.5-1.5-1.1-2.4c2.4-6.6,4.8-13.3,7.3-19.9
			c0.6-1.8,1.3-3.5,1.9-5.3c0.2-0.7,0.9-1.3,1.6-1.4c0.1,0,0.3,0,0.4,0l14.9,3l13.4,2.7c1,0.2,1.8,1.1,1.6,2.2
			c0,0.1-0.1,0.3-0.1,0.4c-2,6.1-4,12.2-6.1,18.3c-1.5,4.3-3,8.6-4.8,12.8c-0.8,1.9-1.7,3.8-2.9,5.5c-1.5,2.2-3.8,3.8-6.4,4.4
			c-0.6,0.1-1.3,0.2-2,0.3c-2.2,0.3-4.1-0.5-6.1-1.3c-5-2.3-10-4.6-15.1-6.8c-1-0.4-1.9-0.9-2.8-1.6c-1.7-1.4-2.8-3.5-3.1-5.7
			c-0.2-1.6-0.1-3.3,0.3-4.8l0.1-0.2l1.3,0.5L32,52.2l5.8,2.4c0.2,0,0.3,0.2,0.2,0.4c-0.1,1.6,0.1,3.3,0.8,4.8
			c1,2.1,2.7,2.9,4.8,2.7c2-0.2,3.4-1.3,4.5-2.8c1.2-1.8,2.2-3.7,3-5.8c2.1-5.1,3.9-10.3,5.6-15.5c1.4-4,2.7-8.1,4-12.1
			C60.7,26.2,60.7,26.1,60.7,26z"/>
		<path class="st0" d="M51.2,41.8c0,1.1-0.8,1.9-1.9,1.9c-0.2,0-0.4,0-0.6-0.1c-2-0.6-4-1.3-5.9-1.9c-0.8-0.3-1.6-0.5-2.4-0.8
			c-1-0.3-1.6-1.4-1.3-2.4c0.2-0.5,0.6-1,1.1-1.2c0.4-0.2,0.8-0.2,1.2,0c2.8,0.9,5.7,1.8,8.5,2.7C50.6,40.2,51.2,41,51.2,41.8z"/>
		<path class="st0" d="M46.1,51.5c-0.2,0-0.4-0.1-0.6-0.1c-2.8-0.9-5.5-1.8-8.3-2.7c-1-0.3-1.6-1.4-1.3-2.4c0.2-0.6,0.7-1.1,1.3-1.3
			c0.3-0.1,0.7-0.1,1.1,0l8.4,2.7c1,0.3,1.5,1.2,1.3,2.2C47.8,50.8,47,51.4,46.1,51.5z"/>
		<path class="st0" d="M54.6,33.5c0,1-0.8,1.9-1.9,1.9c-0.2,0-0.4,0-0.5-0.1c-2.4-0.6-4.7-1.3-7-1.9c-0.5-0.1-1-0.3-1.5-0.4
			c-0.8-0.3-1.4-1.1-1.3-2c0.1-1,0.9-1.8,1.9-1.7c0.1,0,0.2,0,0.3,0.1c2.8,0.8,5.7,1.5,8.5,2.3C54,31.9,54.6,32.6,54.6,33.5z"/>
		<path class="st0" d="M40.6,29.5c0,1.1-0.9,1.9-2,1.9c-0.1,0-0.1,0-0.2,0c-0.2,0-0.5-0.1-0.7-0.1c-1-0.2-1.7-1-1.6-2
			c0.1-1,0.9-1.8,2-1.8c0.4,0,0.8,0.1,1.2,0.2C40.1,27.9,40.6,28.7,40.6,29.5z"/>
		<path class="st0" d="M37.9,37.5c0,1.1-0.9,1.9-1.9,1.9c-0.1,0-0.3,0-0.4-0.1c-0.2,0-0.4-0.1-0.6-0.2c-1-0.3-1.6-1.3-1.4-2.3
			s1.3-1.6,2.3-1.4c0.1,0,0.3,0.1,0.4,0.1C37.2,35.7,37.9,36.5,37.9,37.5z"/>
		<path class="st0" d="M34.8,44.8c0,1.1-0.9,1.9-1.9,1.9c-0.2,0-0.4,0-0.5-0.1l-0.5-0.1c-1-0.3-1.6-1.3-1.4-2.3s1.3-1.6,2.3-1.4
			l0.5,0.1C34.2,43.1,34.8,43.9,34.8,44.8z"/>
	</g>
	<circle class="st1" cx="42" cy="42" r="41.3"/>
	<g>
		<circle class="st2" cx="14.1" cy="14" r="13.4"/>
		<g>
			<path d="M16.7,22.2h-3.2V9.8c-1.2,1.1-2.6,1.9-4.2,2.5v-3C10,9,11,8.4,12,7.7S13.7,6,14,5h2.6V22.2z"/>
		</g>
	</g>
</g>
</svg>
