<?xml version="1.0" encoding="utf-8"?>
<!-- Generator: Adobe Illustrator 24.1.1, SVG Export Plug-In . SVG Version: 6.00 Build 0)  -->
<svg version="1.1" id="Layer_1" xmlns="http://www.w3.org/2000/svg" xmlns:xlink="http://www.w3.org/1999/xlink" x="0px" y="0px"
	 viewBox="0 0 84 84" style="enable-background:new 0 0 84 84;" xml:space="preserve">
<style type="text/css">
	.st0{fill:#20C6ED;}
	.st1{fill:#FFFFFF;stroke:#FFFFFF;stroke-width:0.5;stroke-miterlimit:10;}
	.st2{font-family:'ArialMT';}
	.st3{font-size:8.3533px;}
	.st4{fill:none;stroke:#FFFFFF;stroke-miterlimit:10;}
	.st5{fill:#FFFFFF;}
	.st6{fill:#FFA500;stroke:#000000;stroke-miterlimit:10;}
	.st7{fill:none;stroke:#000000;stroke-miterlimit:10;}
	.st8{opacity:0.59;fill:#7C7A77;}
	.st9{opacity:0.59;}
</style>
<g>
	<circle class="st0" cx="41.9" cy="41.8" r="41.8"/>
	<text transform="matrix(1 0 0 1 11.8706 30.106)" class="st1 st2 st3">+</text>
	<line class="st4" x1="10.1" y1="27.2" x2="3.2" y2="27"/>
	<line class="st4" x1="18.4" y1="27.1" x2="26.5" y2="27.1"/>
	<line class="st4" x1="14.3" y1="23.4" x2="14.4" y2="10.3"/>
	<line class="st4" x1="14.4" y1="31.4" x2="14.4" y2="44.4"/>
	<circle class="st5" cx="17.7" cy="58.6" r="11.4"/>
	<path class="st6" d="M28.2,44.2l-1-18.9c0,0,0.7-2.9,3.4-1.3c0.9,0.6,1.6,1.5,2,2.5l3.5,8.7l-2,2l20.2-19.3c0.5-0.5,1.3-0.8,2-0.7
		c1.2,0.1,2.8,0.6,2.8,2.8c0,0.7-0.3,1.4-0.8,1.9l-7.3,7.3c0,0,6,0,4,5c0,0,5,0,4,5c0,0,7,0,4,6L46.5,61.7l-6.4,6.4
		c-0.6,0.6-1.4,0.6-2,0l-15.9-15c-0.6-0.5-0.6-1.4-0.1-2L28.2,44.2z"/>
	<line class="st7" x1="59" y1="43.2" x2="56" y2="46.2"/>
	<line class="st7" x1="56" y1="39.2" x2="53.1" y2="42.2"/>
	<line class="st7" x1="51.1" y1="34.2" x2="48.1" y2="37.2"/>
	<line class="st7" x1="47.1" y1="30.2" x2="44.1" y2="33.2"/>
	<line class="st7" x1="28.2" y1="44.2" x2="46.6" y2="62.1"/>
	<line class="st7" x1="48.1" y1="16.3" x2="43.1" y2="21.3"/>
	<line class="st7" x1="39.1" y1="12.3" x2="39.1" y2="15.3"/>
	<line class="st7" x1="39.1" y1="16.3" x2="39.1" y2="20.3"/>
	<line class="st7" x1="31.1" y1="14.3" x2="33.1" y2="18.3"/>
	<line class="st7" x1="34.1" y1="20.3" x2="35.1" y2="22.3"/>
	<circle class="st7" cx="38.6" cy="61.6" r="2"/>
	<path class="st8" d="M55.5,18.8l2,2C58.9,16.8,54.5,19.1,55.5,18.8z"/>
	<path class="st9" d="M72.2,12.7c16.1,16.6,15.7,43.1-0.9,59.1s-43.1,15.7-59.1-0.9"/>
</g>
</svg>
