<svg id="Layer_1" data-name="Layer 1" xmlns="http://www.w3.org/2000/svg" viewBox="0 0 83.52 83.71"><defs><style>.cls-1{fill:#f04f9d;}</style></defs><path class="cls-1" d="M76.45,15.47l-4.24-.85L43.83,8.93c-2.77-.56-5.55-1.1-8.32-1.68-.36-.07-.47,0-.58.34q-1.82,5-3.65,10-4,11-8,21.88l-2.91,8a3.23,3.23,0,1,1-6.08-2.2Q20.44,28.41,26.6,11.54q1.65-4.5,3.29-9A3.3,3.3,0,0,1,32.61.25a2.3,2.3,0,0,1,.74,0l25.18,5L81.24,9.77a3.24,3.24,0,0,1,2.57,4.32c-3.43,10.33-6.82,20.67-10.33,31C71,52.34,68.38,59.59,65.41,66.7A48.91,48.91,0,0,1,60.5,76a17.07,17.07,0,0,1-10.8,7.4c-1.09.22-2.22.3-3.33.43-3.69.45-7-.77-10.28-2.25Q23.32,75.77,10.55,70a19,19,0,0,1-4.68-2.67,14.63,14.63,0,0,1-5.22-9.6,23.33,23.33,0,0,1,.49-8.2l.09-.27,2.2.88L27.85,60l9.77,4a.52.52,0,0,1,.38.62,17.72,17.72,0,0,0,1.3,8.08c1.61,3.6,4.53,4.9,8.18,4.6,3.37-.29,5.74-2.13,7.58-4.8a50.34,50.34,0,0,0,5-9.76c3.49-8.64,6.58-17.42,9.56-26.25,2.29-6.8,4.49-13.64,6.72-20.46C76.35,15.84,76.39,15.69,76.45,15.47Z" transform="translate(-0.48 -0.22)"/><path class="cls-1" d="M60.29,42.33A3.23,3.23,0,0,1,56,45.39c-3.35-1.08-6.7-2.19-10.05-3.29-1.34-.44-2.68-.86-4-1.32a3.24,3.24,0,0,1-.29-6.08,2.87,2.87,0,0,1,2-.08Q50.86,36.93,58,39.24A3.23,3.23,0,0,1,60.29,42.33Z" transform="translate(-0.48 -0.22)"/><path class="cls-1" d="M51.68,58.67c-.35-.08-.72-.12-1.06-.23q-7-2.3-14-4.61a3.24,3.24,0,0,1,0-6.19,3,3,0,0,1,1.82,0l14.16,4.6A3.24,3.24,0,0,1,54.88,56,3.37,3.37,0,0,1,51.68,58.67Z" transform="translate(-0.48 -0.22)"/><path class="cls-1" d="M66,28.31a3.21,3.21,0,0,1-4.09,3.13c-4-1.08-7.93-2.19-11.89-3.3-.85-.24-1.72-.44-2.56-.72a3.21,3.21,0,0,1-2.19-3.31,3.12,3.12,0,0,1,3.88-2.85q7.2,1.92,14.38,3.9A3.2,3.2,0,0,1,66,28.31Z" transform="translate(-0.48 -0.22)"/><path class="cls-1" d="M42.34,21.54a3.26,3.26,0,0,1-3.65,3.18q-.59-.07-1.17-.18a3.28,3.28,0,0,1-2.77-3.47,3.24,3.24,0,0,1,3.35-3,8,8,0,0,1,2,.32A3.18,3.18,0,0,1,42.34,21.54Z" transform="translate(-0.48 -0.22)"/><path class="cls-1" d="M37.72,35a3.25,3.25,0,0,1-4,3.11c-.37-.08-.74-.17-1.1-.27a3.21,3.21,0,0,1,1.62-6.22c.23.06.46.1.7.14A3.24,3.24,0,0,1,37.72,35Z" transform="translate(-0.48 -0.22)"/><path class="cls-1" d="M32.54,47.42a3.24,3.24,0,0,1-4.17,3.1l-.83-.19a3.23,3.23,0,0,1-2.36-3.91A3.2,3.2,0,0,1,29,44.07l.89.18A3.24,3.24,0,0,1,32.54,47.42Z" transform="translate(-0.48 -0.22)"/></svg>