<?xml version="1.0" encoding="utf-8"?>
<!-- Generator: Adobe Illustrator 24.1.1, SVG Export Plug-In . SVG Version: 6.00 Build 0)  -->
<svg version="1.1" id="Layer_1" xmlns="http://www.w3.org/2000/svg" xmlns:xlink="http://www.w3.org/1999/xlink" x="0px" y="0px"
	 viewBox="0 0 84 84" style="enable-background:new 0 0 84 84;" xml:space="preserve">
<style type="text/css">
	.st0{fill:#FFA500;}
	.st1{fill:#57565C;}
	.st2{fill:#FFDAAA;}
	.st3{fill:#A0815C;}
	.st4{fill:#FFDA44;}
	.st5{fill:#241B51;}
</style>
<g>
	<g>
		<g>
			<path class="st0" d="M52.7,61v16.3c0,3-2.4,5.4-5.4,5.4H14.8c-3,0-5.4-2.4-5.4-5.4V6.8c0-3,2.4-5.4,5.4-5.4h32.5
				c3,0,5.4,2.4,5.4,5.4v6.8"/>
			<path class="st1" d="M37.8,6.8H24.3l-1.4-5.4h16.3L37.8,6.8z"/>
		</g>
		<path class="st2" d="M28.3,63.5l1,1l2.6-2.6c0.5-0.5,1.2-0.8,1.9-0.8L50.7,61c0.7,0,1.4-0.3,1.9-0.8l21.1-21.1
			c1.1-1.1,1.1-2.8,0-3.8c0,0,0,0,0,0l-1.9-1.9c-1.1-1.1-2.8-1.1-3.8,0c0,0,0,0,0,0l-9.5,9.5c-0.2-1.2-1.3-2-2.7-2.2l-20.5-0.2
			c-0.8,0.1-1,0.6-1.5,1.1l-4,3.2l-1.5,1.5"/>
		<path class="st3" d="M60.6,40.6h-4.8H37.8v-0.2V13.5h27.1v22.8"/>
		<path class="st4" d="M55.4,27.1l-4.1-2.7l-4.1,2.7V13.5h8.1V27.1z"/>
	</g>
	<g>
		<path d="M24.3,75.9h-9.5c-0.7,0-1.4,0.6-1.4,1.4c0,0.7,0.6,1.4,1.4,1.4h9.5c0.7,0,1.4-0.6,1.4-1.4C25.6,76.5,25,75.9,24.3,75.9z"
			/>
		<path d="M29.5,75.9h-1.4c-0.7,0-1.4,0.6-1.4,1.4c0,0.7,0.6,1.4,1.4,1.4h1.4c0.7,0,1.4-0.6,1.4-1.4C30.9,76.5,30.3,75.9,29.5,75.9z
			"/>
		<path class="st5" d="M74.6,34.3l-1.9-1.9c-1.6-1.6-4.2-1.6-5.7,0l-0.7,0.7V13.5c0-0.7-0.6-1.4-1.4-1.4H54.1V6.8
			C54.1,3,51,0,47.3,0H14.8C11,0,8,3,8,6.8v70.5C8,81,11,84,14.8,84h32.5c3.7,0,6.8-3,6.8-6.8V61c0-0.1,0-0.2,0-0.3L74.6,40
			C76.2,38.4,76.2,35.9,74.6,34.3z M54.7,28.2c0.2,0.1,0.5,0.2,0.8,0.2c0.7,0,1.4-0.6,1.4-1.4V14.9h6.8v20.9l-3.5,3.5H56
			c0,0-0.1,0-0.1,0l-16.7-0.1V14.9h6.8v12.2c0,0.7,0.6,1.4,1.4,1.4c0.3,0,0.5-0.1,0.7-0.2l3.3-2.2L54.7,28.2z M54.1,14.9v9.7l-2-1.3
			c-0.5-0.3-1-0.3-1.5,0l-2,1.3v-9.7H54.1z M51.4,77.2c0,2.2-1.8,4.1-4.1,4.1H14.8c-2.2,0-4.1-1.8-4.1-4.1V6.8
			c0-2.2,1.8-4.1,4.1-4.1h7.1l1.1,4.4c0.2,0.6,0.7,1,1.3,1h13.5c0.6,0,1.2-0.4,1.3-1l1.1-4.4h7.1c2.2,0,4.1,1.8,4.1,4.1v5.4H37.8
			c-0.7,0-1.4,0.6-1.4,1.4v25.6l-1.1,0c-0.1,0-0.2,0-0.3,0c-1,0.2-1.6,0.8-2,1.2c-0.1,0.1-0.1,0.2-0.2,0.2l-3.2,2.6V24.4
			c0-0.7-0.6-1.4-1.4-1.4c-0.7,0-1.4,0.6-1.4,1.4v46.1c0,0.7,0.6,1.4,1.4,1.4c0.7,0,1.4-0.6,1.4-1.4v-4.7c0.2-0.1,0.4-0.2,0.6-0.3
			l2.6-2.6c0.3-0.3,0.6-0.4,0.9-0.4l16.9-0.1c0.2,0,0.4,0,0.6-0.1V77.2z M72.7,38.1L51.6,59.2c-0.2,0.3-0.6,0.4-0.9,0.4l-16.9,0.1
			c-1.1,0-2.1,0.4-2.8,1.2l-1.2,1.2V46.8l1-1l4-3.2c0,0,0.1-0.1,0.1-0.1c0.1-0.1,0.3-0.3,0.4-0.4c0.2-0.2,0.3-0.3,0.3-0.3l1.7,0
			c0.2,0.1,0.4,0.2,0.6,0.2h18c0.3,0.1,1,0.3,1.3,0.8c0,0.1,0,0.2,0,0.3c0,0.1,0,0.2,0,0.3v2.7c0,0.7-0.6,1.4-1.4,1.4H43.6
			c-0.7,0-1.4,0.6-1.4,1.4s0.6,1.4,1.4,1.4h12.2c2.2,0,4.1-1.8,4.1-4.1v-2.7l6-6l0,0l3-3c0.5-0.5,1.4-0.5,1.9,0l1.9,1.9
			C73.3,36.7,73.3,37.6,72.7,38.1L72.7,38.1z"/>
	</g>
</g>
</svg>
