<?xml version="1.0" encoding="utf-8"?>
<!-- Generator: Adobe Illustrator 24.1.1, SVG Export Plug-In . SVG Version: 6.00 Build 0)  -->
<svg version="1.1" id="Layer_1" xmlns="http://www.w3.org/2000/svg" xmlns:xlink="http://www.w3.org/1999/xlink" x="0px" y="0px"
	 viewBox="0 0 84 84" style="enable-background:new 0 0 84 84;" xml:space="preserve">
<style type="text/css">
	.st0{fill:#FFA500;}
	.st1{opacity:0.1;fill:#FFA500;}
</style>
<g>
	<path class="st0" d="M74.7,39.2c-0.8,20.5-18,36.5-38.6,35.6C15.2,73.8-0.3,56.5,0.7,36c1-20,18.5-35.8,38.6-34.8
		C59.6,2.2,75.7,19.5,74.7,39.2z M32.1,45.3c-0.8-0.8-1.3-1.2-1.8-1.6c-1.9-1.8-3.8-3.6-5.8-5.4c-1-0.9-2.1-1-3.2-0.1
		c-1.1,0.9-1.4,2-0.6,3.2c0.3,0.5,0.6,1,1,1.4c2.8,3.6,5.5,7.3,8.4,10.9c1.4,1.7,1.9,3.5,1.8,5.6c-3.3,0.4-3.3,0.4-3.3,3.8
		c0,0.4,0,0.8,0,1.2c0,2.8,0,2.8,2.8,2.8c6.5,0,12.9,0,19.4,0c4.3,0,4.3,0.7,4.2-4.3c0-3.7-0.2-3.3-3.1-3.4c-0.1,0-0.2-0.1-0.5-0.3
		c0.1-1,0.2-2.1,0.5-3.1c0.3-1.2,1.1-2.4,1.1-3.6c0.2-4.4,0.4-8.7,0.3-13.1c0-2.3-2.4-3.2-4.2-1.9c-0.3,0.2-0.5,0.4-0.9,0.7
		c-0.9-3.3-2.2-3.7-4.8-2.1c-0.8-0.8-1.4-2-2.3-2.3c-0.9-0.2-2.1,0.4-3.2,0.7c0-3.2,0-6.7,0-10.2c0-2-1.2-3.1-3-3.1
		c-1.7,0-2.7,1.1-2.8,3c0,1.7,0,3.3,0,5C32.1,34.3,32.1,39.5,32.1,45.3z M30.7,32c0-2.7,0-5.4,0-8.1c0-1.7,0.8-3,2.3-3.7
		c1.5-0.7,3-0.6,4.4,0.3c1.4,0.9,1.8,2.2,1.8,3.8c0,2.6,0,5.2,0,7.9c5.8-2.3,8.8-7.9,7.6-13.7c-1.1-5.5-6.5-9.7-12.1-9.4
		c-5.9,0.3-10.9,4.7-11.6,10.3C22.4,25,25.6,30.4,30.7,32z"/>
	<path class="st1" d="M72.8,25C79.1,31.3,84,39.9,84,49.5C84,68.6,68.6,84,49.5,84c-10,0-19-5.3-25.3-12C24.2,72,78.4,85,72.8,25"/>
</g>
</svg>
