<svg id="Layer_1" data-name="Layer 1" xmlns="http://www.w3.org/2000/svg" viewBox="0 0 84 84"><path d="M44.94,84H39.06c-1.41-.2-2.83-.38-4.24-.62A42,42,0,0,1,1.06,51.32C.6,49.22.35,47.07,0,44.94V38.43c.2-1.23.39-2.47.61-3.7A42,42,0,0,1,32.67,1.06C34.78.59,36.93.35,39.06,0h5.88a4.2,4.2,0,0,0,.7.17A39.35,39.35,0,0,1,61.76,5q17.46,9.65,21.43,29.22c.37,1.88.54,3.79.81,5.69v4.83c-.21,1.44-.38,2.89-.62,4.33A42,42,0,0,1,50.09,83.2C48.38,83.52,46.66,83.73,44.94,84Zm-3-6.55A35.44,35.44,0,1,0,6.56,40.88,35.46,35.46,0,0,0,41.93,77.45Z" transform="translate(0 0)"/><path d="M42,63H34.24V31.56H42v4.86l.35.26a7.82,7.82,0,0,1,.76-1,13.1,13.1,0,0,1,12-3.91,9.38,9.38,0,0,1,7.73,8.07,15,15,0,0,1,.22,2.6c0,6.44,0,12.88,0,19.32v1.2H55.15v-1.2c0-5.43,0-10.85,0-16.28a6.82,6.82,0,0,0-5.83-6.17c-3.42-.3-6.73,2-7.28,5a4.87,4.87,0,0,0,0,.94V63Z" transform="translate(0 0)"/><path d="M21.08,31.54h7.76V63H21.08Z" transform="translate(0 0)"/><path d="M24.92,28.85a3.92,3.92,0,0,1-3.9-4,3.93,3.93,0,0,1,7.85.06A3.92,3.92,0,0,1,24.92,28.85Z" transform="translate(0 0)"/></svg>