<svg id="Layer_1" data-name="Layer 1" xmlns="http://www.w3.org/2000/svg" viewBox="0 0 69.15 118"><defs><style>.cls-1{fill:orange;}</style></defs><rect class="cls-1" x="8" y="111" width="53" height="7"/><path class="cls-1" d="M663,253.17v-4.31a13.21,13.21,0,0,0,.32-1.49,34.45,34.45,0,0,1,25-30.05c2-.57,4.14-.89,6.21-1.32h6.23a6.16,6.16,0,0,0,1.09.32c17.9,2.06,31.28,18.16,30.26,36.23a78.1,78.1,0,0,1-4.69,22.24c-6.39,17.71-16.06,33.59-27.08,48.71-.83,1.13-1.7,2.23-2.67,3.5-.54-.67-1-1.14-1.34-1.65a226.39,226.39,0,0,1-18.51-28.6c-5.62-10.36-10.48-21.05-13-32.64C664,260.51,663.58,256.82,663,253.17Zm34.57-20.75A18.58,18.58,0,0,0,679,251.13a18.67,18.67,0,1,0,18.61-18.71Z" transform="translate(-663 -216)"/></svg>