<svg id="Layer_1" data-name="Layer 1" xmlns="http://www.w3.org/2000/svg" viewBox="0 0 333.57 163.69"><defs><style>.cls-1{fill:#fff;}</style></defs><path class="cls-1" d="M203.36,190.71c-2.19-3.83-4.11-7.23-6.6-11.62L258,183.28c-7.08,19.37-13.81,37.77-21,57.47L229,230c-15.71,10.19-31.66,20-46.83,30.84-3.22,2.3-3.64,8.5-5.57,13.43-12.94-.89-25.94-11-29.24-24.05s2-24.37,15.42-33.18S189.66,199.61,203.36,190.71Z" transform="translate(-146.43 -179.09)"/><path class="cls-1" d="M218,249.88c15.34.72,28.16,10.36,31.74,23.09,3.68,13.09-1.33,25.07-14.29,33.57q-24.21,15.87-48.59,31.5c-12.59,8.07-26.27,5.65-33.93-5.8-7.5-11.22-4.19-25.15,8.22-33.33q25.52-16.8,51.3-33.21C218.39,261.93,221.22,257.34,218,249.88Z" transform="translate(-146.43 -179.09)"/><path class="cls-1" d="M310.26,258.83v49.53a9.37,9.37,0,0,1-9.37,9.38h-9.74a9.38,9.38,0,0,1-9.38-9.38V258.83a9.38,9.38,0,0,0-9.38-9.38h-3.07a9.37,9.37,0,0,1-9.38-9.37v-8.76a9.38,9.38,0,0,1,9.38-9.38h53.32a9.38,9.38,0,0,1,9.38,9.38v8.76a9.37,9.37,0,0,1-9.38,9.37h-3A9.38,9.38,0,0,0,310.26,258.83Z" transform="translate(-146.43 -179.09)"/><path class="cls-1" d="M372.18,273.77v17.06a4.11,4.11,0,0,1-4.1,4.1h0A4.11,4.11,0,0,0,364,299v14.6a4.11,4.11,0,0,1-4.11,4.1H339.58a4.1,4.1,0,0,1-4.1-4.1V256.82q0-17.69,9.65-27.47t27.12-9.79q16.85,0,24.92,8.87t8.07,27.41v57.8a4.11,4.11,0,0,1-4.11,4.1H380.85a4.11,4.11,0,0,1-4.11-4.1v-55.9c0-3.75-.44-6.34-1.33-7.79s-2.48-2.18-4.77-2.18q-6.67,0-6.67,10v7.82a4.11,4.11,0,0,0,4.11,4.11h0A4.1,4.1,0,0,1,372.18,273.77Z" transform="translate(-146.43 -179.09)"/><path class="cls-1" d="M442.17,280.26V263.55a4.46,4.46,0,0,1,3.41-4.39q5.22-1.14,5.22-6.27,0-6-6.59-6t-6.67,8.28v58.18a4.42,4.42,0,0,1-4.42,4.42H413.47a4.42,4.42,0,0,1-4.42-4.42V258.09a51.52,51.52,0,0,1,1.86-15.2,30.34,30.34,0,0,1,6.35-11,35.68,35.68,0,0,1,12.63-9,38.81,38.81,0,0,1,15.65-3.3q14.59,0,24.53,9.82T480,253.74q0,14.1-8.91,22.88-8.14,8.07-24.57,8.07h0A4.43,4.43,0,0,1,442.17,280.26Z" transform="translate(-146.43 -179.09)"/></svg>