<?xml version="1.0" encoding="utf-8"?>
<!-- Generator: Adobe Illustrator 24.1.1, SVG Export Plug-In . SVG Version: 6.00 Build 0)  -->
<svg version="1.1" id="Layer_1" xmlns="http://www.w3.org/2000/svg" xmlns:xlink="http://www.w3.org/1999/xlink" x="0px" y="0px"
	 viewBox="0 0 81 81" style="enable-background:new 0 0 81 81;" xml:space="preserve">
<style type="text/css">
	.st0{fill:#FEA501;}
</style>
<path class="st0" d="M58.1,81c-1-0.3-2-0.5-3.1-0.8c-10.8-3.1-17-14.4-13.9-25.1s14.4-17,25.1-13.9C74,43.4,79.7,50,80.8,57.9
	c0,0.1,0.1,0.3,0.2,0.4v5.1c-0.1,0.4-0.3,0.7-0.4,1.1c-1.8,8-6.5,13.2-14.3,15.7c-1,0.3-2.1,0.6-3.1,0.8H58.1z M78,60.7
	c0-9.6-7.7-17.4-17.3-17.4S43.3,51,43.3,60.6C43.3,70.2,51,78,60.6,78C70.2,78.1,78,70.4,78,60.8C78,60.8,78,60.7,78,60.7z"/>
<path class="st0" d="M0,35v-23C-0.2,5.6,4.8,0.2,11.2,0c0.3,0,0.5,0,0.8,0h32.6C51-0.2,56.4,4.8,56.6,11.2c0,0.3,0,0.5,0,0.8
	c0,8.4,0,16.8,0,25.2c0.1,0.9-0.4,1.7-1.2,2c-0.7,0.4-1.5,0.2-2-0.4c-0.4-0.5-0.6-1.2-0.6-1.8c0-8.3,0-16.6,0-24.9
	c0.1-2.7-1.1-5.2-3.3-6.8c-1.3-0.9-2.9-1.4-4.5-1.4H11.6c-4.3,0-7.8,3.5-7.8,7.7c0,0,0,0,0,0.1c0,15.3,0.1,30.6,0,46
	c0,4.5,2.9,8.9,8.8,8.8c8.2-0.1,16.4,0,24.6,0c1.1-0.1,2,0.6,2.2,1.7c0,0.1,0,0.1,0,0.2c0,1.1-0.9,2-2,2c0,0-0.1,0-0.1,0
	c-0.2,0-0.4,0-0.6,0H12.1C5.7,70.6,0.3,65.6,0,59.2c0-0.3,0-0.7,0-1V35z"/>
<path class="st0" d="M28.3,42.4c-5.3,0-10.6,0-16,0c-0.9,0.1-1.8-0.4-2.1-1.2c-0.4-1,0-2.1,1-2.5c0.1,0,0.2-0.1,0.4-0.1
	c0.4-0.1,0.8-0.1,1.2-0.1h31.8c1.1-0.1,2,0.7,2.1,1.7c0.1,1.1-0.7,2-1.7,2.1c-0.1,0-0.3,0-0.4,0H28.3z"/>
<path class="st0" d="M28.4,34.9h-16c-1.5,0-2.3-0.7-2.3-1.9s0.8-1.9,2.2-1.9h32.1c0.9,0,1.8,0.2,2,1.2c0.2,0.7,0.1,1.4-0.3,2
	c-0.5,0.4-1.1,0.7-1.8,0.7C39,34.9,33.7,34.9,28.4,34.9z"/>
<path class="st0" d="M28.2,27.3h-16c-1.1,0.1-2-0.6-2.2-1.7c0-0.2,0-0.5,0-0.7c0.2-0.8,0.8-1.4,1.6-1.5c0.3,0,0.7,0,1,0H44
	c0.3,0,0.6,0,0.9,0c1.1,0.1,1.8,1,1.7,2.1c-0.1,1-0.9,1.7-1.8,1.7c-0.7,0-1.5,0-2.2,0L28.2,27.3z"/>
<path class="st0" d="M25.3,50H12.4c-1.5,0-2.3-0.7-2.3-2c0-0.9,0.7-1.8,1.6-1.9c0.2,0,0.4,0,0.6,0h26c0.8-0.1,1.6,0.3,2.1,1
	c0.5,0.9,0.2,2.1-0.7,2.6c-0.3,0.2-0.6,0.3-1,0.2c-1.3,0.1-2.7,0-4,0L25.3,50z"/>
<path class="st0" d="M23.9,57.5H12.1c-0.9,0.1-1.8-0.5-2-1.4c-0.3-0.8,0.1-1.8,0.8-2.2c0.4-0.2,0.8-0.3,1.3-0.3c7.9,0,15.7,0,23.6,0
	c1.1-0.1,2,0.6,2.2,1.7c0,0.1,0,0.2,0,0.3c0,1-0.8,1.9-1.8,1.9c-0.1,0-0.2,0-0.3,0C31.9,57.5,27.9,57.5,23.9,57.5z"/>
<path class="st0" d="M28.4,12.2h4.8c1.1-0.1,2,0.6,2.1,1.7c0,0.1,0,0.1,0,0.2c0,1.1-1,2-2.1,1.9c0,0,0,0-0.1,0h-9.7
	c-1.1,0.1-2-0.7-2.1-1.7s0.7-2,1.7-2.1c0.1,0,0.3,0,0.4,0H28.4z"/>
<path class="st0" d="M62.2,55.4v1.2c0,4.1,0,8.2,0,12.2c0,0.4,0,0.9-0.2,1.2c-0.3,0.4-0.8,0.7-1.4,0.8c-0.4,0-0.9-0.5-1.2-0.9
	c-0.2-0.4-0.2-0.8-0.1-1.2v-13l-0.3-0.1c-1.3,1.3-2.6,2.7-3.9,4c-1.1,1.2-1.9,1.3-2.7,0.6s-0.5-1.5,0.6-2.7c2.1-2.1,4.2-4.2,6.3-6.3
	c1.1-1.1,1.7-1.1,2.9,0l6.5,6.5l0.3,0.3c0.6,0.5,0.7,1.4,0.2,2c0,0.1-0.1,0.1-0.1,0.2c-0.5,0.6-1.5,0.6-2,0c0,0-0.1-0.1-0.1-0.1
	c-1.3-1.3-2.6-2.6-3.9-3.8C62.8,56,62.5,55.8,62.2,55.4z"/>
</svg>
