<svg id="Layer_1" data-name="Layer 1" xmlns="http://www.w3.org/2000/svg" viewBox="0 0 80.99 80.99"><defs><style>.cls-1{fill:#fea501;}.cls-2{fill:#fefefd;}</style></defs><path class="cls-1" d="M60.12,83.1c-1-.27-2-.52-3.06-.81A20.3,20.3,0,1,1,82.81,60a1.51,1.51,0,0,0,.19.41v5.06a10.69,10.69,0,0,0-.36,1.09Q80,78.53,68.33,82.28c-1,.33-2.1.55-3.15.82ZM80.05,62.81A17.37,17.37,0,1,0,62.59,80.15,17.33,17.33,0,0,0,80.05,62.81Z" transform="translate(-2.01 -2.11)"/><path class="cls-2" d="M65.18,83.1c1-.27,2.12-.49,3.15-.82Q80,78.51,82.64,66.57A10.69,10.69,0,0,1,83,65.48V83.1Z" transform="translate(-2.01 -2.11)"/><path class="cls-1" d="M2,37.16v-23A11.63,11.63,0,0,1,14,2.11h32.6a11.63,11.63,0,0,1,12.06,12q0,12.6,0,25.2a2,2,0,0,1-1.18,2,1.6,1.6,0,0,1-2-.38,3.22,3.22,0,0,1-.62-1.82c0-8.3,0-16.6,0-24.9a8,8,0,0,0-3.27-6.83A7.53,7.53,0,0,0,47.05,6H13.65a7.75,7.75,0,0,0-7.76,7.8c0,15.32.09,30.64,0,46,0,4.54,2.85,8.85,8.84,8.77,8.2-.1,16.4,0,24.6,0a1.94,1.94,0,0,1,2.18,1.87,2,2,0,0,1-2.12,2c-.21,0-.41,0-.61,0H14.13A11.66,11.66,0,0,1,2,60.24Z" transform="translate(-2.01 -2.11)"/><path class="cls-1" d="M30.31,44.54c-5.33,0-10.65,0-16,0a2,2,0,0,1-2.12-1.22,1.89,1.89,0,0,1,1.37-2.59,6,6,0,0,1,1.2-.07H46.55a1.95,1.95,0,1,1,0,3.88Z" transform="translate(-2.01 -2.11)"/><path class="cls-1" d="M30.36,37h-16c-1.51,0-2.3-.68-2.28-1.93s.83-1.91,2.23-1.91H46.4c.92,0,1.79.23,2,1.15a2.66,2.66,0,0,1-.31,2,2.46,2.46,0,0,1-1.77.66C41,37,35.69,37,30.36,37Z" transform="translate(-2.01 -2.11)"/><path class="cls-1" d="M30.25,29.44h-16a1.94,1.94,0,0,1-2.13-2.38,1.81,1.81,0,0,1,1.61-1.46,6.77,6.77,0,0,1,1,0H46a6.85,6.85,0,0,1,.91,0,1.92,1.92,0,0,1-.08,3.83c-.74,0-1.48,0-2.22,0Z" transform="translate(-2.01 -2.11)"/><path class="cls-1" d="M27.32,52.12H14.38c-1.47,0-2.29-.74-2.28-2a1.85,1.85,0,0,1,1.63-1.87c.2,0,.4,0,.61,0h26a2.08,2.08,0,0,1,2.06,1,1.93,1.93,0,0,1-1.72,2.88c-1.34.06-2.69,0-4,0Z" transform="translate(-2.01 -2.11)"/><path class="cls-1" d="M25.9,59.64H14.16a1.85,1.85,0,0,1-2-1.38A1.77,1.77,0,0,1,13,56.08a2.57,2.57,0,0,1,1.25-.3q11.79,0,23.58,0A1.92,1.92,0,0,1,40,57.7a1.88,1.88,0,0,1-2.12,1.93C33.86,59.65,29.88,59.64,25.9,59.64Z" transform="translate(-2.01 -2.11)"/><path class="cls-1" d="M30.46,14.26h4.75a1.93,1.93,0,0,1,2.14,1.91,2,2,0,0,1-2.13,1.93H25.51a1.93,1.93,0,1,1,0-3.84Z" transform="translate(-2.01 -2.11)"/><path class="cls-1" d="M64.17,57.55V58.7q0,6.12,0,12.24c0,.39,0,.92-.17,1.16a2.28,2.28,0,0,1-1.4.85c-.42,0-.93-.53-1.23-.94a2.24,2.24,0,0,1-.14-1.18v-13l-.28-.13c-1.3,1.34-2.6,2.68-3.92,4-1.14,1.16-1.92,1.32-2.66.58s-.54-1.54.59-2.67q3.13-3.15,6.29-6.29c1.14-1.14,1.73-1.13,2.88,0l6.51,6.51.28.29A1.45,1.45,0,0,1,71,62.31a1.43,1.43,0,0,1-2.15-.1c-1.3-1.27-2.58-2.57-3.87-3.85C64.79,58.13,64.55,57.91,64.17,57.55Z" transform="translate(-2.01 -2.11)"/></svg>