<svg id="Layer_1" data-name="Layer 1" xmlns="http://www.w3.org/2000/svg" xmlns:xlink="http://www.w3.org/1999/xlink" viewBox="0 0 1223.74 689.12"><defs><style>.cls-1{fill:#151515;}.cls-2,.cls-4,.cls-7{fill:none;stroke-miterlimit:10;stroke-width:2px;}.cls-2{stroke:#0e6ea5;}.cls-14,.cls-3{fill:#0e6ea5;}.cls-4{stroke:#109589;}.cls-13,.cls-5{fill:#109589;}.cls-6{fill:url(#linear-gradient);}.cls-7{stroke:#f80;}.cls-17,.cls-8{fill:#f80;}.cls-9{fill:url(#linear-gradient-2);}.cls-10{fill:#fff;}.cls-11{fill:url(#linear-gradient-3);}.cls-12{fill:url(#linear-gradient-4);}.cls-13,.cls-14,.cls-17{font-size:88.46px;font-family:Arial-Black, Arial;font-weight:800;}.cls-15{fill:url(#linear-gradient-5);}.cls-16{fill:url(#linear-gradient-6);}</style><linearGradient id="linear-gradient" x1="381.8" y1="336" x2="381.8" y2="258.33" gradientUnits="userSpaceOnUse"><stop offset="0" stop-opacity="0"/><stop offset="0.46" stop-color="#040404" stop-opacity="0.01"/><stop offset="0.63" stop-color="#111" stop-opacity="0.05"/><stop offset="0.74" stop-color="#292929" stop-opacity="0.11"/><stop offset="0.84" stop-color="#4b4b4b" stop-opacity="0.21"/><stop offset="0.92" stop-color="#767676" stop-opacity="0.33"/><stop offset="0.99" stop-color="#ababab" stop-opacity="0.48"/><stop offset="1" stop-color="#b3b3b3" stop-opacity="0.5"/></linearGradient><linearGradient id="linear-gradient-2" x1="837.86" y1="336.66" x2="837.86" y2="258.99" xlink:href="#linear-gradient"/><linearGradient id="linear-gradient-3" x1="831.2" y1="635.03" x2="831.2" y2="557.36" gradientTransform="translate(-92.5 28.5)" xlink:href="#linear-gradient"/><linearGradient id="linear-gradient-4" x1="832.36" y1="843.98" x2="832.36" y2="766.31" gradientTransform="translate(-436.62 -179.3)" xlink:href="#linear-gradient"/><linearGradient id="linear-gradient-5" x1="831.78" y1="-164.72" x2="831.78" y2="-242.39" gradientTransform="translate(706.66 828.83)" xlink:href="#linear-gradient"/><linearGradient id="linear-gradient-6" x1="831.78" y1="1643.73" x2="831.78" y2="1566.06" gradientTransform="translate(363.71 -978.46)" xlink:href="#linear-gradient"/></defs><path class="cls-1" d="M928.24,160.84c-4,0-8.14,0-12.23,0-3.18,0-5-1.05-5-4.69,0-25.48-.14-51-.13-76.44a5.76,5.76,0,0,1,1.66-3.58q8.58-8.82,17.42-17.38a6.39,6.39,0,0,1,4-1.67q24.63-.16,49.27,0a5.75,5.75,0,0,1,3.63,1.51q9,8.66,17.74,17.6a6.79,6.79,0,0,1,1.61,4c.23,3.16.07,6.34.07,10.43,7.51,0,14.53.18,21.54,0,13.14-.42,23.42,12.07,24,23.52.68,14.06.52,28.16.72,42.24,0,3-1.46,4.49-4.45,4.5-.9,0-1.8.08-2.69,0-4.15-.41-7.24,0-9.29,4.81s-7,7-12.46,6.61c-5.3-.36-9.41-3-11.47-7.79-1.26-2.93-2.9-3.6-5.78-3.59-15.26.09-30.53,0-45.8,0-2.78,0-4.58.53-5.83,3.51-2.16,5.15-6.53,7.8-12.14,8-5.85.17-10-2.77-12.7-7.77C929.31,163.44,928.86,162.23,928.24,160.84Zm-10.25-7a79.37,79.37,0,0,0,8.64-.1,5.33,5.33,0,0,0,3.5-2c6.15-9.35,18.06-9.56,24.12-.14,1.29,2,2.67,2.32,4.69,2.31,12.44-.08,24.87-.08,37.31-.13,1,0,2-.17,2.89-.26V83H918Zm126.67-.29c0-13.6.53-26.9-.23-40.13a16.27,16.27,0,0,0-11.28-14.78c-8.66-2.93-17.65-1.15-26.55-1.52v56.4c2.94.65,4.62.11,6.31-2.47,5.31-8.12,16.73-8.87,22.14-1.14C1037.86,153.89,1040.81,154.15,1044.66,153.53Zm-50.3-77.81c-4.06-4-7.48-7.38-10.94-10.72a2.78,2.78,0,0,0-1.67-.81c-6.62,0-13.24,0-19.9,0V75.72ZM954.11,64.18c-6.38,0-12.5,0-18.61,0a2.77,2.77,0,0,0-1.71.69c-3.59,3.31-7.12,6.69-10.67,10l.69.78h30.3Zm70.47,87.52a6.81,6.81,0,1,0-.2,13.61,6.69,6.69,0,0,0,6.88-6.69A6.78,6.78,0,0,0,1024.58,151.7Zm-75.48,6.71a7.07,7.07,0,0,0-7-6.75,7.15,7.15,0,0,0-6.59,6.78,6.81,6.81,0,1,0,13.61,0Z" transform="translate(-356 -57)"/><path class="cls-1" d="M879,121.73c-6.66,0-13.33-.08-20,0-2.43,0-4.25-.74-4.28-3.2s1.5-3.9,4.2-3.89c12.94.08,25.89.11,38.83.17.89,0,2-.17,2.63.28a28.63,28.63,0,0,1,3.41,3.38c-1.22,1-2.4,3-3.66,3-7,.3-14.09.14-21.14.14Z" transform="translate(-356 -57)"/><path class="cls-1" d="M886.31,140.94H873.63c-2.34,0-4-1.21-3.5-3.4.32-1.38,2.23-3.35,3.47-3.39,8.45-.27,16.9-.15,25.36,0,2.35,0,5,.44,4.81,3.62-.14,2.81-2.44,3.23-4.79,3.22H886.31Z" transform="translate(-356 -57)"/><path class="cls-1" d="M887,102.63c-4.22,0-8.45,0-12.67,0-2.3,0-4-.74-4.3-3.31-.27-2.81,1.62-3.53,3.87-3.55,8.57-.1,17.14-.16,25.71-.13,2.2,0,4.25.8,4.23,3.42,0,2.88-2.19,3.41-4.56,3.41H887Z" transform="translate(-356 -57)"/><line class="cls-2" x1="609.61" y1="182.04" x2="609.61" y2="448.04"/><circle class="cls-3" cx="609.45" cy="173.83" r="10.5"/><polyline class="cls-4" points="545 177 545 257 217.5 257.5 217.5 441.5"/><circle class="cls-5" cx="544.5" cy="174.5" r="10.5"/><rect class="cls-6" x="218.61" y="258.33" width="326.39" height="77.67"/><polyline class="cls-7" points="678.61 181.03 678.61 256.04 999 256.54 998 442.54"/><circle class="cls-8" cx="678.45" cy="174.83" r="10.5"/><rect class="cls-9" x="678.72" y="258.99" width="318.28" height="77.67"/><rect class="cls-10" y="449" width="424" height="237"/><rect class="cls-11" x="619.01" y="585.86" width="239.39" height="77.67" transform="translate(1007.4 -171.01) rotate(90)"/><rect class="cls-12" x="276.05" y="587.02" width="239.39" height="77.67" transform="translate(-586.11 964.6) rotate(-90)"/><text class="cls-13" transform="translate(189.89 552.88) scale(0.85 1)">A</text><path d="M521.38,650.6l1.76-.16a3.89,3.89,0,0,0,.59,1.74,3.12,3.12,0,0,0,1.42,1.1,5.38,5.38,0,0,0,2.17.42,5.28,5.28,0,0,0,1.89-.31,2.68,2.68,0,0,0,1.22-.88,2,2,0,0,0,.4-1.21,1.83,1.83,0,0,0-.39-1.16,2.78,2.78,0,0,0-1.27-.83,23.86,23.86,0,0,0-2.52-.69,13,13,0,0,1-2.73-.89,3.85,3.85,0,0,1-1.51-1.31,3.24,3.24,0,0,1-.49-1.76,3.66,3.66,0,0,1,.6-2,3.78,3.78,0,0,1,1.78-1.41,6.75,6.75,0,0,1,2.59-.48,7.07,7.07,0,0,1,2.78.51,4,4,0,0,1,1.85,1.49,4.22,4.22,0,0,1,.69,2.22l-1.79.14a3,3,0,0,0-1-2,3.87,3.87,0,0,0-2.47-.68,4,4,0,0,0-2.47.62,1.88,1.88,0,0,0-.78,1.5,1.57,1.57,0,0,0,.55,1.25,7.33,7.33,0,0,0,2.82,1,19.93,19.93,0,0,1,3.13.9,4.27,4.27,0,0,1,1.83,1.45,3.51,3.51,0,0,1,.58,2,3.87,3.87,0,0,1-.64,2.13,4.28,4.28,0,0,1-1.86,1.55,6.45,6.45,0,0,1-2.72.55,8,8,0,0,1-3.22-.56,4.5,4.5,0,0,1-2-1.68A4.74,4.74,0,0,1,521.38,650.6Z" transform="translate(-356 -57)"/><path d="M535,659.07V644.9h1.58v1.33a3.85,3.85,0,0,1,1.26-1.17,3.49,3.49,0,0,1,1.71-.39,4.05,4.05,0,0,1,2.32.67,4.14,4.14,0,0,1,1.51,1.91,7.39,7.39,0,0,1-.05,5.52,4.29,4.29,0,0,1-3.9,2.6,3.32,3.32,0,0,1-1.56-.36,3.59,3.59,0,0,1-1.13-.93v5Zm1.57-9a4.47,4.47,0,0,0,.8,2.92,2.47,2.47,0,0,0,1.94,1,2.52,2.52,0,0,0,2-1,4.68,4.68,0,0,0,.83-3,4.51,4.51,0,0,0-.81-2.93,2.41,2.41,0,0,0-1.92-1,2.48,2.48,0,0,0-2,1A4.65,4.65,0,0,0,536.54,650.08Z" transform="translate(-356 -57)"/><path d="M553,651.84l1.79.22a4.3,4.3,0,0,1-1.57,2.44,5.33,5.33,0,0,1-6.5-.51,5.44,5.44,0,0,1-1.31-3.88,5.65,5.65,0,0,1,1.33-4,4.51,4.51,0,0,1,3.45-1.42,4.39,4.39,0,0,1,3.36,1.39,5.57,5.57,0,0,1,1.3,3.94c0,.1,0,.26,0,.46h-7.64a3.94,3.94,0,0,0,1,2.59,2.82,2.82,0,0,0,2.14.9,2.64,2.64,0,0,0,1.63-.51A3.31,3.31,0,0,0,553,651.84Zm-5.7-2.8H553a3.47,3.47,0,0,0-.66-1.94,2.66,2.66,0,0,0-2.15-1,2.76,2.76,0,0,0-2,.8A3.22,3.22,0,0,0,547.27,649Z" transform="translate(-356 -57)"/><path d="M563.63,651.39l1.71.22a4.47,4.47,0,0,1-1.44,2.77,4.19,4.19,0,0,1-2.83,1,4.38,4.38,0,0,1-3.38-1.37,5.59,5.59,0,0,1-1.28-3.94,7.26,7.26,0,0,1,.55-2.91,3.86,3.86,0,0,1,1.68-1.86,4.87,4.87,0,0,1,2.44-.62,4.28,4.28,0,0,1,2.73.84,3.85,3.85,0,0,1,1.36,2.4l-1.69.26a2.81,2.81,0,0,0-.85-1.56,2.24,2.24,0,0,0-1.48-.52A2.7,2.7,0,0,0,559,647a4.46,4.46,0,0,0-.82,3,4.59,4.59,0,0,0,.79,3,2.58,2.58,0,0,0,2.06.94,2.44,2.44,0,0,0,1.71-.63A3.09,3.09,0,0,0,563.63,651.39Z" transform="translate(-356 -57)"/><path d="M566.83,643v-2h1.74v2Zm0,12.14V644.9h1.74v10.24Z" transform="translate(-356 -57)"/><path d="M571.63,655.14v-8.89h-1.54V644.9h1.54v-1.09a4.91,4.91,0,0,1,.18-1.54,2.23,2.23,0,0,1,.88-1.09,3.17,3.17,0,0,1,1.77-.42,8.93,8.93,0,0,1,1.62.17l-.26,1.52a5.33,5.33,0,0,0-1-.1,1.5,1.5,0,0,0-1.12.34,1.8,1.8,0,0,0-.33,1.26v.95h2v1.35h-2v8.89Z" transform="translate(-356 -57)"/><path d="M576.62,659.09l-.19-1.63a4,4,0,0,0,1,.15,1.89,1.89,0,0,0,.93-.19,1.63,1.63,0,0,0,.57-.54,9.64,9.64,0,0,0,.53-1.3l.15-.42-3.89-10.26h1.88l2.13,5.93c.27.75.52,1.54.74,2.37.2-.79.44-1.57.71-2.33l2.19-6h1.74l-3.9,10.42a19.37,19.37,0,0,1-1,2.32,3.48,3.48,0,0,1-1.06,1.26,2.5,2.5,0,0,1-1.43.4A3.53,3.53,0,0,1,576.62,659.09Z" transform="translate(-356 -57)"/><path d="M592,659.09l-.19-1.63a4,4,0,0,0,1,.15,1.92,1.92,0,0,0,.93-.19,1.53,1.53,0,0,0,.56-.54,8.41,8.41,0,0,0,.53-1.3c0-.09.09-.23.16-.42l-3.89-10.26H593l2.14,5.93c.27.75.52,1.54.74,2.37.2-.79.44-1.57.71-2.33l2.19-6h1.74l-3.9,10.42a21.25,21.25,0,0,1-1,2.32,3.58,3.58,0,0,1-1.06,1.26,2.5,2.5,0,0,1-1.43.4A3.48,3.48,0,0,1,592,659.09Z" transform="translate(-356 -57)"/><path d="M601.3,650a5.28,5.28,0,0,1,1.58-4.22,4.74,4.74,0,0,1,3.22-1.13,4.59,4.59,0,0,1,3.45,1.38,5.25,5.25,0,0,1,1.35,3.83,6.74,6.74,0,0,1-.6,3.11,4.23,4.23,0,0,1-1.72,1.76,5.13,5.13,0,0,1-2.48.62,4.62,4.62,0,0,1-3.48-1.38A5.52,5.52,0,0,1,601.3,650Zm1.78,0a4.4,4.4,0,0,0,.86,3,2.75,2.75,0,0,0,2.16,1,2.73,2.73,0,0,0,2.15-1,4.46,4.46,0,0,0,.86-3,4.25,4.25,0,0,0-.86-2.88,2.86,2.86,0,0,0-4.31,0A4.35,4.35,0,0,0,603.08,650Z" transform="translate(-356 -57)"/><path d="M619.65,655.14v-1.5a3.78,3.78,0,0,1-3.26,1.73,4.18,4.18,0,0,1-1.69-.34,3,3,0,0,1-1.17-.88,3.3,3.3,0,0,1-.53-1.28,9,9,0,0,1-.11-1.63V644.9h1.74v5.68a10.28,10.28,0,0,0,.1,1.83,1.84,1.84,0,0,0,.7,1.08,2.14,2.14,0,0,0,1.31.39,3,3,0,0,0,1.47-.4,2.27,2.27,0,0,0,1-1.09,5.49,5.49,0,0,0,.28-2V644.9h1.74v10.24Z" transform="translate(-356 -57)"/><path d="M623.9,655.14V644.9h1.56v1.55a4.19,4.19,0,0,1,1.11-1.44,1.91,1.91,0,0,1,1.11-.34,3.42,3.42,0,0,1,1.79.55l-.6,1.62a2.43,2.43,0,0,0-1.28-.38,1.63,1.63,0,0,0-1,.34,1.91,1.91,0,0,0-.65,1,6.87,6.87,0,0,0-.28,2v5.36Z" transform="translate(-356 -57)"/><path d="M550.25,666.7v-2H552v2Zm0,12.15V668.6H552v10.25Z" transform="translate(-356 -57)"/><path d="M558.42,677.3l.25,1.53a6.58,6.58,0,0,1-1.31.15,3,3,0,0,1-1.47-.3,1.66,1.66,0,0,1-.73-.78,6.31,6.31,0,0,1-.21-2V670h-1.27V668.6H555v-2.53l1.73-1v3.57h1.74V670h-1.74v6a3.06,3.06,0,0,0,.09.95.75.75,0,0,0,.3.34,1.16,1.16,0,0,0,.59.12A6.28,6.28,0,0,0,558.42,677.3Z" transform="translate(-356 -57)"/><path d="M567.13,675.55l1.8.22a4.4,4.4,0,0,1-1.58,2.44,5.32,5.32,0,0,1-6.49-.51,5.42,5.42,0,0,1-1.32-3.89,5.64,5.64,0,0,1,1.33-4,4.52,4.52,0,0,1,3.46-1.43,4.38,4.38,0,0,1,3.35,1.4,5.56,5.56,0,0,1,1.3,3.94v.46h-7.65a3.94,3.94,0,0,0,1,2.58,2.84,2.84,0,0,0,2.14.9,2.61,2.61,0,0,0,1.63-.5A3.29,3.29,0,0,0,567.13,675.55Zm-5.7-2.81h5.72a3.5,3.5,0,0,0-.65-1.94,2.67,2.67,0,0,0-2.16-1,2.79,2.79,0,0,0-2,.8A3.19,3.19,0,0,0,561.43,672.74Z" transform="translate(-356 -57)"/><path d="M571.11,678.85V668.6h1.55V670a3.61,3.61,0,0,1,3.11-1.67,3.31,3.31,0,0,1,1.86.48,2.48,2.48,0,0,1,1,1.32,3.67,3.67,0,0,1,3.16-1.8,3.11,3.11,0,0,1,2.35.85,3.63,3.63,0,0,1,.82,2.6v7h-1.73V672.4a4.49,4.49,0,0,0-.17-1.5,1.38,1.38,0,0,0-.61-.74,1.88,1.88,0,0,0-1-.28,2.44,2.44,0,0,0-1.8.72,3.18,3.18,0,0,0-.71,2.3v6h-1.74v-6.66a2.92,2.92,0,0,0-.42-1.73,1.6,1.6,0,0,0-1.39-.58,2.61,2.61,0,0,0-1.36.38,2.26,2.26,0,0,0-.9,1.13,6.54,6.54,0,0,0-.28,2.14v5.32Z" transform="translate(-356 -57)"/><path d="M586.87,675.79l1.72-.27a2.35,2.35,0,0,0,.8,1.58,2.8,2.8,0,0,0,1.85.55,2.71,2.71,0,0,0,1.77-.48,1.46,1.46,0,0,0,.58-1.15,1,1,0,0,0-.51-.92,7.4,7.4,0,0,0-1.77-.59,15.19,15.19,0,0,1-2.65-.84,2.55,2.55,0,0,1-1.12-1,2.71,2.71,0,0,1-.07-2.64,2.77,2.77,0,0,1,.86-1,3.53,3.53,0,0,1,1.1-.51,5.23,5.23,0,0,1,1.5-.21,6,6,0,0,1,2.12.35,2.81,2.81,0,0,1,1.34.94,3.67,3.67,0,0,1,.6,1.59l-1.7.23a1.84,1.84,0,0,0-.67-1.24,2.47,2.47,0,0,0-1.56-.44,2.79,2.79,0,0,0-1.71.4,1.14,1.14,0,0,0-.51.92,1,1,0,0,0,.21.61,1.45,1.45,0,0,0,.67.46q.25.1,1.53.45a20.15,20.15,0,0,1,2.57.8,2.6,2.6,0,0,1,1.14.91,2.54,2.54,0,0,1,.42,1.49,2.88,2.88,0,0,1-.51,1.63,3.22,3.22,0,0,1-1.46,1.19,5.34,5.34,0,0,1-2.16.42,4.81,4.81,0,0,1-3-.83A3.82,3.82,0,0,1,586.87,675.79Z" transform="translate(-356 -57)"/><rect class="cls-10" x="421.86" y="449.79" width="377.14" height="237"/><text class="cls-14" transform="translate(581.98 549.49) scale(0.85 1)">B</text><path d="M902.72,651l1.77-.16a3.77,3.77,0,0,0,.58,1.74,3.12,3.12,0,0,0,1.42,1.1,5.42,5.42,0,0,0,2.17.42,5.2,5.2,0,0,0,1.89-.31,2.63,2.63,0,0,0,1.22-.88,2,2,0,0,0,.4-1.21,1.82,1.82,0,0,0-.38-1.16,2.82,2.82,0,0,0-1.28-.83A22.72,22.72,0,0,0,908,649a13,13,0,0,1-2.73-.89,3.78,3.78,0,0,1-1.51-1.31,3.25,3.25,0,0,1-.5-1.76,3.59,3.59,0,0,1,.61-2,3.75,3.75,0,0,1,1.77-1.41,6.8,6.8,0,0,1,2.6-.48,7,7,0,0,1,2.77.51,3.93,3.93,0,0,1,1.85,1.49,4.22,4.22,0,0,1,.69,2.22l-1.79.14a2.92,2.92,0,0,0-1-2,3.86,3.86,0,0,0-2.46-.68,4,4,0,0,0-2.48.62,1.88,1.88,0,0,0-.78,1.5,1.61,1.61,0,0,0,.55,1.25,7.4,7.4,0,0,0,2.83,1,20.28,20.28,0,0,1,3.13.9,4.24,4.24,0,0,1,1.82,1.45,3.52,3.52,0,0,1,.59,2,3.88,3.88,0,0,1-.65,2.13,4.28,4.28,0,0,1-1.86,1.55,6.42,6.42,0,0,1-2.72.55,8,8,0,0,1-3.22-.56,4.48,4.48,0,0,1-2-1.68A4.75,4.75,0,0,1,902.72,651Z" transform="translate(-356 -57)"/><path d="M923.33,652.22l1.79.22a4.35,4.35,0,0,1-1.57,2.44,4.75,4.75,0,0,1-2.94.87,4.7,4.7,0,0,1-3.56-1.38,5.4,5.4,0,0,1-1.32-3.88,5.7,5.7,0,0,1,1.33-4,4.52,4.52,0,0,1,3.46-1.42,4.39,4.39,0,0,1,3.36,1.39,5.62,5.62,0,0,1,1.3,3.94c0,.1,0,.26,0,.46h-7.64a3.93,3.93,0,0,0,1,2.59,2.85,2.85,0,0,0,2.14.9,2.62,2.62,0,0,0,1.63-.51A3.32,3.32,0,0,0,923.33,652.22Zm-5.71-2.8h5.72a3.4,3.4,0,0,0-.65-1.94,2.66,2.66,0,0,0-2.15-1,2.76,2.76,0,0,0-2,.8A3.18,3.18,0,0,0,917.62,649.42Z" transform="translate(-356 -57)"/><path d="M927.26,655.52V641.38H929v14.14Z" transform="translate(-356 -57)"/><path d="M938.7,652.22l1.8.22a4.36,4.36,0,0,1-1.58,2.44,5.32,5.32,0,0,1-6.49-.51,5.4,5.4,0,0,1-1.32-3.88,5.65,5.65,0,0,1,1.33-4,4.51,4.51,0,0,1,3.45-1.42,4.39,4.39,0,0,1,3.36,1.39,5.57,5.57,0,0,1,1.3,3.94c0,.1,0,.26,0,.46H932.9a4,4,0,0,0,1,2.59,2.84,2.84,0,0,0,2.14.9,2.62,2.62,0,0,0,1.63-.51A3.25,3.25,0,0,0,938.7,652.22Zm-5.7-2.8h5.72a3.47,3.47,0,0,0-.66-1.94,2.66,2.66,0,0,0-2.15-1,2.79,2.79,0,0,0-2,.8A3.22,3.22,0,0,0,933,649.42Z" transform="translate(-356 -57)"/><path d="M949.36,651.77l1.71.22a4.45,4.45,0,0,1-1.43,2.76,4.18,4.18,0,0,1-2.84,1,4.43,4.43,0,0,1-3.38-1.37,5.59,5.59,0,0,1-1.27-3.94,7.09,7.09,0,0,1,.55-2.91,3.8,3.8,0,0,1,1.67-1.86,4.89,4.89,0,0,1,2.44-.62,4.24,4.24,0,0,1,2.73.84,3.85,3.85,0,0,1,1.36,2.4l-1.68.26a2.82,2.82,0,0,0-.86-1.56,2.24,2.24,0,0,0-1.48-.52,2.72,2.72,0,0,0-2.13.94,4.46,4.46,0,0,0-.82,3,4.59,4.59,0,0,0,.79,3,2.6,2.6,0,0,0,2.07.94,2.4,2.4,0,0,0,1.7-.63A3.09,3.09,0,0,0,949.36,651.77Z" transform="translate(-356 -57)"/><path d="M956.34,654l.26,1.53a6.06,6.06,0,0,1-1.32.16,2.92,2.92,0,0,1-1.46-.3,1.71,1.71,0,0,1-.74-.79,6.27,6.27,0,0,1-.21-2.05v-5.89H951.6v-1.35h1.27v-2.54l1.73-1v3.58h1.74v1.35H954.6v6a3.06,3.06,0,0,0,.09,1,.71.71,0,0,0,.3.34,1.2,1.2,0,0,0,.59.13A6.45,6.45,0,0,0,956.34,654Z" transform="translate(-356 -57)"/><path d="M970.22,654.26a6.93,6.93,0,0,1-1.86,1.16,5.49,5.49,0,0,1-1.92.33,3.71,3.71,0,0,1-2.59-.82,2.88,2.88,0,0,1-.56-3.48,2.7,2.7,0,0,1,.89-1,4.32,4.32,0,0,1,1.25-.57,11.84,11.84,0,0,1,1.55-.26,16.08,16.08,0,0,0,3.09-.6c0-.24,0-.39,0-.45a1.92,1.92,0,0,0-.49-1.5,2.91,2.91,0,0,0-2-.59,3.11,3.11,0,0,0-1.81.43,2.67,2.67,0,0,0-.86,1.52l-1.7-.23a4.32,4.32,0,0,1,.76-1.76,3.35,3.35,0,0,1,1.54-1,6.85,6.85,0,0,1,2.32-.36,6.26,6.26,0,0,1,2.13.3,2.88,2.88,0,0,1,1.21.78,2.68,2.68,0,0,1,.54,1.18,9.47,9.47,0,0,1,.09,1.6v2.32a23.45,23.45,0,0,0,.11,3.06,3.71,3.71,0,0,0,.44,1.23h-1.82A3.64,3.64,0,0,1,970.22,654.26Zm-.15-3.88a12.48,12.48,0,0,1-2.83.66,6.46,6.46,0,0,0-1.52.34,1.53,1.53,0,0,0-.68.57,1.51,1.51,0,0,0,.28,2,2.25,2.25,0,0,0,1.54.46,3.48,3.48,0,0,0,1.78-.44,2.61,2.61,0,0,0,1.15-1.2,4.11,4.11,0,0,0,.28-1.73Z" transform="translate(-356 -57)"/><path d="M986.69,651.77l1.71.22a4.4,4.4,0,0,1-1.43,2.76,4.17,4.17,0,0,1-2.83,1,4.44,4.44,0,0,1-3.39-1.37,5.59,5.59,0,0,1-1.27-3.94,7.09,7.09,0,0,1,.55-2.91,3.8,3.8,0,0,1,1.67-1.86,4.9,4.9,0,0,1,2.45-.62,4.28,4.28,0,0,1,2.73.84,3.89,3.89,0,0,1,1.36,2.4l-1.69.26a2.82,2.82,0,0,0-.86-1.56,2.23,2.23,0,0,0-1.48-.52,2.72,2.72,0,0,0-2.13.94,4.51,4.51,0,0,0-.82,3,4.64,4.64,0,0,0,.79,3,2.6,2.6,0,0,0,2.07.94,2.4,2.4,0,0,0,1.7-.63A3.09,3.09,0,0,0,986.69,651.77Z" transform="translate(-356 -57)"/><path d="M996.57,654.26a6.64,6.64,0,0,1-1.86,1.16,5.44,5.44,0,0,1-1.91.33,3.74,3.74,0,0,1-2.6-.82,2.93,2.93,0,0,1-.56-3.48,2.81,2.81,0,0,1,.9-1,4.2,4.2,0,0,1,1.25-.57,11.62,11.62,0,0,1,1.54-.26,16.38,16.38,0,0,0,3.1-.6c0-.24,0-.39,0-.45a1.92,1.92,0,0,0-.5-1.5,2.9,2.9,0,0,0-2-.59,3.11,3.11,0,0,0-1.81.43,2.68,2.68,0,0,0-.87,1.52l-1.69-.23a4.07,4.07,0,0,1,.76-1.76,3.27,3.27,0,0,1,1.53-1,6.91,6.91,0,0,1,2.33-.36,6.34,6.34,0,0,1,2.13.3,2.78,2.78,0,0,1,1.2.78,2.68,2.68,0,0,1,.54,1.18,9.47,9.47,0,0,1,.09,1.6v2.32a25.53,25.53,0,0,0,.11,3.06,3.94,3.94,0,0,0,.44,1.23h-1.81A3.64,3.64,0,0,1,996.57,654.26Zm-.14-3.88a12.59,12.59,0,0,1-2.84.66,6.34,6.34,0,0,0-1.51.34,1.5,1.5,0,0,0-.69.57,1.54,1.54,0,0,0,.28,2,2.28,2.28,0,0,0,1.54.46A3.52,3.52,0,0,0,995,654a2.72,2.72,0,0,0,1.15-1.2,4.28,4.28,0,0,0,.28-1.73Z" transform="translate(-356 -57)"/><path d="M1000.85,655.52V645.28h1.57v1.55a4.07,4.07,0,0,1,1.1-1.44,1.94,1.94,0,0,1,1.11-.34,3.39,3.39,0,0,1,1.79.55l-.6,1.62a2.39,2.39,0,0,0-1.27-.38,1.63,1.63,0,0,0-1,.34,1.85,1.85,0,0,0-.65,1,6.87,6.87,0,0,0-.29,2v5.36Z" transform="translate(-356 -57)"/><path d="M1007.43,655.52V645.28H1009v1.55a4.07,4.07,0,0,1,1.1-1.44,1.94,1.94,0,0,1,1.11-.34,3.42,3.42,0,0,1,1.79.55l-.6,1.62a2.39,2.39,0,0,0-1.27-.38,1.68,1.68,0,0,0-1,.34,1.9,1.9,0,0,0-.64,1,6.55,6.55,0,0,0-.29,2v5.36Z" transform="translate(-356 -57)"/><path d="M1014,643.38v-2h1.74v2Zm0,12.14V645.28h1.74v10.24Z" transform="translate(-356 -57)"/><path d="M1025.43,652.22l1.8.22a4.36,4.36,0,0,1-1.58,2.44,5.32,5.32,0,0,1-6.49-.51,5.4,5.4,0,0,1-1.32-3.88,5.65,5.65,0,0,1,1.33-4,4.52,4.52,0,0,1,3.46-1.42,4.37,4.37,0,0,1,3.35,1.39,5.58,5.58,0,0,1,1.31,3.94c0,.1,0,.26,0,.46h-7.65a4,4,0,0,0,1,2.59,2.84,2.84,0,0,0,2.14.9,2.62,2.62,0,0,0,1.63-.51A3.25,3.25,0,0,0,1025.43,652.22Zm-5.7-2.8h5.72a3.4,3.4,0,0,0-.65-1.94,2.68,2.68,0,0,0-2.16-1,2.79,2.79,0,0,0-2,.8A3.22,3.22,0,0,0,1019.73,649.42Z" transform="translate(-356 -57)"/><path d="M1029.39,655.52V645.28H1031v1.55a4.32,4.32,0,0,1,1.1-1.44,1.94,1.94,0,0,1,1.12-.34,3.39,3.39,0,0,1,1.78.55l-.59,1.62a2.43,2.43,0,0,0-1.28-.38,1.63,1.63,0,0,0-1,.34,1.91,1.91,0,0,0-.65,1,6.87,6.87,0,0,0-.29,2v5.36Z" transform="translate(-356 -57)"/><path d="M920,679.23v-8.9h-1.54V669H920v-1.09a4.84,4.84,0,0,1,.18-1.53,2.18,2.18,0,0,1,.88-1.09,3.17,3.17,0,0,1,1.77-.42,8.12,8.12,0,0,1,1.62.17l-.26,1.51a6.22,6.22,0,0,0-1-.09,1.5,1.5,0,0,0-1.12.34,1.8,1.8,0,0,0-.33,1.26V669h2v1.35h-2v8.9Z" transform="translate(-356 -57)"/><path d="M925.07,679.23V669h1.56v1.56a4.19,4.19,0,0,1,1.11-1.44,2,2,0,0,1,1.11-.35,3.43,3.43,0,0,1,1.79.56l-.6,1.61a2.5,2.5,0,0,0-1.27-.37,1.68,1.68,0,0,0-1,.34,1.85,1.85,0,0,0-.64,1,6.55,6.55,0,0,0-.29,2v5.36Z" transform="translate(-356 -57)"/><path d="M931,674.11a5.3,5.3,0,0,1,1.58-4.22,4.79,4.79,0,0,1,3.23-1.14,4.56,4.56,0,0,1,3.45,1.39,5.26,5.26,0,0,1,1.34,3.82,6.83,6.83,0,0,1-.59,3.11,4.14,4.14,0,0,1-1.73,1.76,5,5,0,0,1-2.47.63,4.59,4.59,0,0,1-3.48-1.38A5.52,5.52,0,0,1,931,674.11Zm1.79,0a4.3,4.3,0,0,0,.86,2.94,2.86,2.86,0,0,0,4.31,0,4.49,4.49,0,0,0,.86-3,4.2,4.2,0,0,0-.87-2.88,2.86,2.86,0,0,0-4.3,0A4.31,4.31,0,0,0,932.81,674.11Z" transform="translate(-356 -57)"/><path d="M942.66,679.23V669h1.55v1.44a3.61,3.61,0,0,1,3.11-1.67,3.31,3.31,0,0,1,1.86.48,2.48,2.48,0,0,1,1,1.32,3.67,3.67,0,0,1,3.16-1.8,3.11,3.11,0,0,1,2.35.85,3.63,3.63,0,0,1,.82,2.6v7h-1.73v-6.45a4.77,4.77,0,0,0-.17-1.5,1.38,1.38,0,0,0-.61-.74,1.88,1.88,0,0,0-1-.28,2.44,2.44,0,0,0-1.8.72,3.18,3.18,0,0,0-.71,2.3v6h-1.74v-6.66a2.92,2.92,0,0,0-.42-1.73,1.6,1.6,0,0,0-1.39-.58,2.61,2.61,0,0,0-1.36.38,2.26,2.26,0,0,0-.9,1.13,6.54,6.54,0,0,0-.28,2.14v5.32Z" transform="translate(-356 -57)"/><path d="M968.39,677.68l.25,1.53a6.5,6.5,0,0,1-1.31.15,2.92,2.92,0,0,1-1.46-.3,1.64,1.64,0,0,1-.74-.78,6.31,6.31,0,0,1-.21-2v-5.9h-1.27V669h1.27v-2.53l1.73-1V669h1.74v1.35h-1.74v6a3.06,3.06,0,0,0,.09.95.75.75,0,0,0,.3.34,1.18,1.18,0,0,0,.59.12A6.28,6.28,0,0,0,968.39,677.68Z" transform="translate(-356 -57)"/><path d="M970.09,679.23V665.09h1.74v5.07a3.87,3.87,0,0,1,3.06-1.41,4.13,4.13,0,0,1,2,.45,2.62,2.62,0,0,1,1.2,1.24,5.72,5.72,0,0,1,.37,2.3v6.49H976.7v-6.49a2.68,2.68,0,0,0-.57-1.9,2.09,2.09,0,0,0-1.59-.59,2.76,2.76,0,0,0-1.45.4,2.25,2.25,0,0,0-1,1.08,4.87,4.87,0,0,0-.29,1.89v5.61Z" transform="translate(-356 -57)"/><path d="M988.09,675.93l1.8.22a4.4,4.4,0,0,1-1.58,2.44,5.32,5.32,0,0,1-6.49-.51,5.42,5.42,0,0,1-1.32-3.89,5.64,5.64,0,0,1,1.33-4,4.52,4.52,0,0,1,3.45-1.43,4.4,4.4,0,0,1,3.36,1.4,5.56,5.56,0,0,1,1.3,3.94c0,.1,0,.25,0,.46h-7.64a3.94,3.94,0,0,0,1,2.58,2.84,2.84,0,0,0,2.14.9,2.61,2.61,0,0,0,1.63-.5A3.29,3.29,0,0,0,988.09,675.93Zm-5.7-2.81h5.72a3.58,3.58,0,0,0-.65-1.94,2.68,2.68,0,0,0-2.16-1,2.79,2.79,0,0,0-2,.8A3.19,3.19,0,0,0,982.39,673.12Z" transform="translate(-356 -57)"/><path d="M997.52,679.23V665.09h1.73v14.14Z" transform="translate(-356 -57)"/><path d="M1002,667.08v-2h1.74v2Zm0,12.15V669h1.74v10.25Z" transform="translate(-356 -57)"/><path d="M1011.7,667.88a3.66,3.66,0,0,1,.22-1.34,2.51,2.51,0,0,1,.63-.94,2.68,2.68,0,0,1,1-.57,4.28,4.28,0,0,1,1.29-.18,7,7,0,0,1,1,.08,7.08,7.08,0,0,1,.87.2,5.62,5.62,0,0,1,.82.28V669h1.75v1.35h-1.75v6a3.06,3.06,0,0,0,.09.95.75.75,0,0,0,.3.34,1.21,1.21,0,0,0,.59.12h.34l.43-.05.25,1.53a6.51,6.51,0,0,1-1.32.15,2.92,2.92,0,0,1-1.46-.3,1.66,1.66,0,0,1-.73-.78,5.87,5.87,0,0,1-.22-2v-5.9h-1.27V669h1.27v-2.75l-.41-.07a3.67,3.67,0,0,0-.61,0,1.68,1.68,0,0,0-1.32.49,2.23,2.23,0,0,0-.44,1.54,8,8,0,0,0,.05.87q.06.4.15.78c.06.25.13.49.2.72l.2.64-1.67.37a2,2,0,0,0-.25-.53,1.53,1.53,0,0,0-.42-.42,1.87,1.87,0,0,0-.62-.29,3.28,3.28,0,0,0-.88-.1,5.39,5.39,0,0,0-.8.06,2.53,2.53,0,0,0-.72.21,1.31,1.31,0,0,0-.5.4,1,1,0,0,0-.19.65.89.89,0,0,0,.25.66,1.86,1.86,0,0,0,.62.41l.52.16,1,.29a17.17,17.17,0,0,1,2.56.81,2.53,2.53,0,0,1,1.15.9,2.5,2.5,0,0,1,.42,1.49,2.87,2.87,0,0,1-.52,1.64,3.18,3.18,0,0,1-1.45,1.18,5.27,5.27,0,0,1-2.16.42,4.86,4.86,0,0,1-3-.83,3.86,3.86,0,0,1-1.33-2.46l1.71-.27a2.45,2.45,0,0,0,.81,1.59,2.81,2.81,0,0,0,1.85.54,2.75,2.75,0,0,0,1.77-.48,1.46,1.46,0,0,0,.58-1.15,1,1,0,0,0-.51-.92,7.9,7.9,0,0,0-1.77-.59,16.24,16.24,0,0,1-2.66-.83,2.6,2.6,0,0,1-1.11-1,2.54,2.54,0,0,1-.38-1.38,2.64,2.64,0,0,1,.31-1.31,2.74,2.74,0,0,1,.84-.92,3.66,3.66,0,0,1,1.2-.54,5.47,5.47,0,0,1,1.42-.18,7.08,7.08,0,0,1,1.13.1,4.55,4.55,0,0,1,1,.31,6,6,0,0,1-.14-.61A4.83,4.83,0,0,1,1011.7,667.88Z" transform="translate(-356 -57)"/><rect class="cls-10" x="799.74" y="449.58" width="424" height="237"/><rect class="cls-15" x="1418.75" y="586.44" width="239.39" height="77.67" transform="translate(1807.72 -970.17) rotate(90)"/><rect class="cls-16" x="1075.8" y="587.59" width="239.39" height="77.67" transform="translate(213.06 1764.92) rotate(-90)"/><text class="cls-17" transform="translate(970.98 545.49) scale(0.85 1)">C</text><path d="M1318,653.52V641.05h-4.66v-1.67h11.2v1.67h-4.67v12.47Z" transform="translate(-356 -57)"/><path d="M1325.45,653.52V643.28H1327v1.55a4.19,4.19,0,0,1,1.11-1.44,1.94,1.94,0,0,1,1.11-.34,3.42,3.42,0,0,1,1.79.55l-.6,1.62a2.43,2.43,0,0,0-1.28-.38,1.65,1.65,0,0,0-1,.34,1.84,1.84,0,0,0-.64,1,6.55,6.55,0,0,0-.29,2v5.36Z" transform="translate(-356 -57)"/><path d="M1338.73,652.26a6.74,6.74,0,0,1-1.85,1.16,5.53,5.53,0,0,1-1.92.33,3.71,3.71,0,0,1-2.59-.82,2.7,2.7,0,0,1-.91-2.11,2.76,2.76,0,0,1,.34-1.37,2.81,2.81,0,0,1,.9-1,4.32,4.32,0,0,1,1.25-.57,11.62,11.62,0,0,1,1.54-.26,16.22,16.22,0,0,0,3.1-.6c0-.24,0-.39,0-.45a2,2,0,0,0-.49-1.5,2.94,2.94,0,0,0-2-.59,3.11,3.11,0,0,0-1.81.43,2.62,2.62,0,0,0-.86,1.52l-1.7-.23a4.19,4.19,0,0,1,.76-1.76,3.37,3.37,0,0,1,1.53-1,6.91,6.91,0,0,1,2.33-.36,6.34,6.34,0,0,1,2.13.3,2.88,2.88,0,0,1,1.21.78,2.92,2.92,0,0,1,.54,1.18,9.79,9.79,0,0,1,.08,1.6v2.32a22.75,22.75,0,0,0,.12,3.06,3.92,3.92,0,0,0,.43,1.23h-1.81A3.88,3.88,0,0,1,1338.73,652.26Zm-.14-3.88a12.59,12.59,0,0,1-2.84.66,6.34,6.34,0,0,0-1.51.34,1.5,1.5,0,0,0-.69.57,1.53,1.53,0,0,0,.29,2,2.25,2.25,0,0,0,1.54.46,3.51,3.51,0,0,0,1.78-.44,2.72,2.72,0,0,0,1.15-1.2,4.11,4.11,0,0,0,.28-1.73Z" transform="translate(-356 -57)"/><path d="M1349.72,649.77l1.71.22a4.45,4.45,0,0,1-1.43,2.76,4.17,4.17,0,0,1-2.83,1,4.44,4.44,0,0,1-3.39-1.37,5.59,5.59,0,0,1-1.28-3.94,7.09,7.09,0,0,1,.56-2.91,3.8,3.8,0,0,1,1.67-1.86,4.89,4.89,0,0,1,2.44-.62,4.24,4.24,0,0,1,2.73.84,3.85,3.85,0,0,1,1.36,2.4l-1.68.26a2.82,2.82,0,0,0-.86-1.56,2.24,2.24,0,0,0-1.48-.52,2.72,2.72,0,0,0-2.13.94,4.46,4.46,0,0,0-.82,3,4.59,4.59,0,0,0,.79,3,2.6,2.6,0,0,0,2.07.94,2.4,2.4,0,0,0,1.7-.63A3.09,3.09,0,0,0,1349.72,649.77Z" transform="translate(-356 -57)"/><path d="M1352.92,653.52V639.38h1.74v8.06l4.11-4.16H1361l-3.92,3.8,4.31,6.44h-2.14l-3.39-5.24-1.22,1.18v4.06Z" transform="translate(-356 -57)"/><path d="M1368.2,657.47l-.19-1.63a4,4,0,0,0,1,.15,1.89,1.89,0,0,0,.93-.19,1.63,1.63,0,0,0,.57-.54,8.41,8.41,0,0,0,.53-1.3l.15-.42-3.88-10.26h1.87l2.13,5.93c.28.75.52,1.54.74,2.37a23.26,23.26,0,0,1,.72-2.33l2.19-6h1.73l-3.89,10.42a20.74,20.74,0,0,1-1,2.32,3.48,3.48,0,0,1-1.06,1.26,2.48,2.48,0,0,1-1.43.4A3.58,3.58,0,0,1,1368.2,657.47Z" transform="translate(-356 -57)"/><path d="M1377.51,648.4a5.31,5.31,0,0,1,1.58-4.22,4.79,4.79,0,0,1,3.23-1.13,4.6,4.6,0,0,1,3.45,1.38,5.28,5.28,0,0,1,1.34,3.82,6.9,6.9,0,0,1-.59,3.12,4.25,4.25,0,0,1-1.73,1.76,5.12,5.12,0,0,1-2.47.62,4.59,4.59,0,0,1-3.48-1.38A5.48,5.48,0,0,1,1377.51,648.4Zm1.79,0a4.35,4.35,0,0,0,.86,3,2.85,2.85,0,0,0,4.31,0,4.46,4.46,0,0,0,.86-3,4.2,4.2,0,0,0-.87-2.88,2.85,2.85,0,0,0-4.3,0A4.3,4.3,0,0,0,1379.3,648.4Z" transform="translate(-356 -57)"/><path d="M1395.86,653.52V652a3.76,3.76,0,0,1-3.25,1.73,4.12,4.12,0,0,1-1.69-.34,2.82,2.82,0,0,1-1.17-.88,3.3,3.3,0,0,1-.54-1.28,9.2,9.2,0,0,1-.1-1.63v-6.34h1.73V649a10,10,0,0,0,.11,1.83,1.82,1.82,0,0,0,.69,1.08,2.19,2.19,0,0,0,1.32.39,2.89,2.89,0,0,0,1.46-.4,2.22,2.22,0,0,0,1-1.09,5.45,5.45,0,0,0,.29-2v-5.49h1.73v10.24Z" transform="translate(-356 -57)"/><path d="M1400.11,653.52V643.28h1.57v1.55a4.19,4.19,0,0,1,1.1-1.44,1.94,1.94,0,0,1,1.12-.34,3.39,3.39,0,0,1,1.78.55l-.6,1.62a2.39,2.39,0,0,0-1.27-.38,1.63,1.63,0,0,0-1,.34,1.85,1.85,0,0,0-.65,1,6.87,6.87,0,0,0-.29,2v5.36Z" transform="translate(-356 -57)"/><path d="M1340.93,672.11a5.3,5.3,0,0,1,1.58-4.22,4.79,4.79,0,0,1,3.23-1.14,4.57,4.57,0,0,1,3.45,1.39,5.26,5.26,0,0,1,1.34,3.82,6.83,6.83,0,0,1-.59,3.11,4.14,4.14,0,0,1-1.73,1.76,5,5,0,0,1-2.47.63,4.59,4.59,0,0,1-3.48-1.38A5.52,5.52,0,0,1,1340.93,672.11Zm1.79,0a4.3,4.3,0,0,0,.86,2.94,2.86,2.86,0,0,0,4.31,0,4.49,4.49,0,0,0,.86-3,4.2,4.2,0,0,0-.87-2.88,2.86,2.86,0,0,0-4.3,0A4.31,4.31,0,0,0,1342.72,672.11Z" transform="translate(-356 -57)"/><path d="M1352.55,677.23V667h1.56v1.56a4.32,4.32,0,0,1,1.1-1.44,2,2,0,0,1,1.12-.35,3.4,3.4,0,0,1,1.78.56l-.6,1.61a2.44,2.44,0,0,0-1.27-.37,1.63,1.63,0,0,0-1,.34,1.87,1.87,0,0,0-.65,1,6.87,6.87,0,0,0-.29,2v5.36Z" transform="translate(-356 -57)"/><path d="M1365.79,677.23v-1.29a3.19,3.19,0,0,1-2.86,1.52,4.12,4.12,0,0,1-2.26-.67,4.55,4.55,0,0,1-1.59-1.89,6.63,6.63,0,0,1-.56-2.78,7.34,7.34,0,0,1,.51-2.79,4,4,0,0,1,1.53-1.91,4.09,4.09,0,0,1,2.29-.67,3.41,3.41,0,0,1,1.65.39,3.54,3.54,0,0,1,1.18,1v-5.07h1.72v14.14Zm-5.49-5.11a4.46,4.46,0,0,0,.83,2.94,2.51,2.51,0,0,0,2,1,2.45,2.45,0,0,0,1.93-.93,4.24,4.24,0,0,0,.8-2.84,4.84,4.84,0,0,0-.81-3.09,2.51,2.51,0,0,0-2-1,2.4,2.4,0,0,0-1.93.94A4.69,4.69,0,0,0,1360.3,672.12Z" transform="translate(-356 -57)"/><path d="M1377.15,673.93l1.79.22a4.38,4.38,0,0,1-1.57,2.44,5.33,5.33,0,0,1-6.5-.51,5.42,5.42,0,0,1-1.32-3.89,5.69,5.69,0,0,1,1.33-4,4.52,4.52,0,0,1,3.46-1.43,4.4,4.4,0,0,1,3.36,1.4,5.6,5.6,0,0,1,1.3,3.94c0,.1,0,.25,0,.46h-7.64a3.88,3.88,0,0,0,1,2.58,2.85,2.85,0,0,0,2.14.9,2.64,2.64,0,0,0,1.64-.5A3.44,3.44,0,0,0,1377.15,673.93Zm-5.71-2.81h5.73a3.5,3.5,0,0,0-.66-1.94,2.65,2.65,0,0,0-2.15-1,2.76,2.76,0,0,0-2,.8A3.15,3.15,0,0,0,1371.44,671.12Z" transform="translate(-356 -57)"/><path d="M1381.1,677.23V667h1.56v1.56a4.19,4.19,0,0,1,1.11-1.44,2,2,0,0,1,1.11-.35,3.43,3.43,0,0,1,1.79.56l-.6,1.61a2.51,2.51,0,0,0-1.28-.37,1.67,1.67,0,0,0-1,.34,1.8,1.8,0,0,0-.64,1,6.55,6.55,0,0,0-.29,2v5.36Z" transform="translate(-356 -57)"/></svg>