<svg id="Layer_1" data-name="Layer 1" xmlns="http://www.w3.org/2000/svg" viewBox="0 0 116.53 124.53"><defs><style>.cls-1{fill:orange;}</style></defs><g id="call"><path class="cls-1" d="M553.77,343c9.07,19.38,24.61,35.29,42.73,45.67l14.25-15.23c1.94-2.07,4.53-2.76,6.47-1.38a63.75,63.75,0,0,0,23.31,4.15c3.88,0,6.47,2.77,6.47,6.92v23.52c0,4.15-2.59,6.92-6.47,6.92-60.86,0-110.06-52.58-110.06-117.61,0-4.15,2.59-6.92,6.47-6.92H559.6c3.89,0,6.48,2.77,6.48,6.92a83.19,83.19,0,0,0,3.88,24.9,9,9,0,0,1-1.3,6.92Z" transform="translate(-530.47 -289)"/></g></svg>