<?xml version="1.0" encoding="utf-8"?>
<!-- Generator: Adobe Illustrator 24.1.1, SVG Export Plug-In . SVG Version: 6.00 Build 0)  -->
<svg version="1.1" id="Layer_1" xmlns="http://www.w3.org/2000/svg" xmlns:xlink="http://www.w3.org/1999/xlink" x="0px" y="0px"
	 viewBox="0 0 1920 798.8" style="enable-background:new 0 0 1920 798.8;" xml:space="preserve">
<style type="text/css">
	.st0{fill:#29292B;}
	.st1{fill:#0E1319;}
	.st2{fill:#EACCB4;}
	.st3{fill:#F4F4F4;}
	.st4{fill:#565656;}
	.st5{fill:#FFA500;}
	.st6{fill:#FCFCFC;}
	.st7{fill:url(#SVGID_1_);}
</style>
<g>
	<path class="st0" d="M1818,208.4c2.4-1.4,4.6-3,7.1-4c14.2-6.2,28.5-12.2,42.7-18.3c10-4.3,20.1-8.6,30.1-12.8
		c6.8-2.9,13.6-5.7,20.4-8.6v99.6c-4.7,1.7-9.5,3.3-14.1,5.1c-9,3.6-18,7.4-26.9,11c-5.4,2.2-10.9,4.4-16.3,6.5
		c-1.5,0.5-3.1,1-4.7,1.3c0-1.9,0-3.8,0-5.7c-0.2-2.4,0-4.9-0.6-7.3c-5.8-22.6-16.4-43.7-31.2-61.7c-0.6-0.7-1.4-1.3-2.1-1.8
		L1818,208.4z M1904.4,260.6c0-2.8-2.2-5.1-5-5.2c-2.7,0-4.9,2.2-4.9,4.9c0,2.8,2.2,5,5,5C1902,265.3,1904.2,263.3,1904.4,260.6
		L1904.4,260.6z M1887.1,267.8c0.1-2.8-2.1-5.1-4.9-5.2c-2.8-0.1-5.1,2.1-5.2,4.9l0,0c-0.1,2.7,2,5,4.7,5.1c2.7,0.3,5.1-1.8,5.4-4.5
		C1887.1,268,1887.1,267.9,1887.1,267.8L1887.1,267.8z"/>
	<path class="st1" d="M1736.2,459.7c0-15.2-0.1-30.3-0.1-45.5c-0.1-30.7-0.1-61.4-0.1-92.1l11.6-6.3c0,4.8-0.1,9.6-0.1,14.5
		c0,85.4,0,170.8-0.1,256.2c0,3.1-0.8,6.2-2.2,9c-2.1,3.8-6.3,4.5-10.5,4.5c-38.6,0-77.2,0-115.8,0h-72.7c-8.8,0-12.6-3.8-12.6-12.7
		c0-38,0-76,0-114c0-2.4,0.1-28.2,0.2-30.6c6.1-0.1,4.6,20.2,4.6,14.2c0-4.7-1.9-10.6-1.9-15.3c0-1.9,2-18.8,1.8-9.6
		c0,2.8,0.2,8.3,0.2,10.3c0,3.9-0.2,7.7,0.1,11.6c0.3,3.8-1.1,6.1-4.8,6.9c-0.2-2.3-0.3-4.7-0.2-7c0.2-1.2,0.8-2.2,1.7-2.9
		c2-1.6,2.1-2.7,0.2-4.5c-1-0.9-1.7-2.2-1.9-3.5c-0.1-45.8-0.1-91.7,0-137.5c0-7.1,3.5-10.9,10.6-11.5c1.1-0.1,2.1,0,3.2,0
		c35.6,0,71.2,0,106.8,0c6.9,0,13.8,0.4,20.7,0.5c1.2,0,2.3-0.1,3.5-0.3l0.7-0.4l17.7,0.4l1.4-0.4l1,0.2l0.3,0.1l17,0.3l2-0.8
		l11.1,0.8l0.2,0.6l-33.9,18.9l-8.7,0.2c0.1-3.1,0.2-6.3,0.1-9.4c-0.1-3-1.4-4.7-4.7-3.9c-0.9-0.5-1.8-1.4-2.7-1.4
		c-26.3-0.1-52.6-0.1-78.9,0c-0.9,0-1.8,0.9-2.7,1.3c-3.5-0.4-4.8,1.3-4.8,4.6c0.1,2.8,0,5.5,0.1,8.3H1545v273.6h191.1v-4
		c0-26.5,0-52.9,0-79.4c0-12.3,0.1-24.7,0.1-37"/>
	<path class="st2" d="M1698.2,293.8l-1.4,0.4h-15.6c1.2-4.8,2.1-8.9,3.1-12.9c-3.5-0.1-4.8,1.3-4.7,4.5c0.1,2.7-0.3,5.4-0.4,8.1
		l-0.7,0.4h-20.4c0.4-8,0.7-15.5,1.3-22.9c0.3-3.7,2.6-6.5,6-8.2c8.6-4.2,17.3-8.4,25.8-12.8c5.2-2.7,10.2-5.6,15.3-8.5
		c10.3-6,21.3-8,33.2-6.8c12.5,1.3,25.1,2.1,37.7,3c7.6,1.1,15.2,2.3,22.8,0c2.5-1.5,5.1-2.9,7.4-4.6c2.5-1.9,3.8-0.6,4.9,1.5
		c1.3,2.4,2.7,4.9,4.1,7.3c5.9,10.1,9.5,21.2,12.3,32.5c0.6,2.2-0.2,3.8-2.5,4.7c-1.4,0.6-2.6,1.7-3.9,2.6c-1.2,0.4-2.5,0.5-3.5,1.1
		c-5.5,4-11.1,7.8-16.3,12.2c-12.1,10.6-26.5,16-42,18.9c-4.2,0.8-8.6,1.1-12.9,1.6l-11.5,6.2l-4,2c-9.7,4.9-19.2,10.4-29.2,14.7
		c-4.9,2.2-10.2,5.8-16.3,2.6l-4.3-1.4l-1-3.2c5.4,3.7,10.9,4.2,15.8-0.6c1.4-1.4,2.5-4.2,2-6c-0.9-4.1-5.8-8.5-7.8-7.5
		c-3.4,1.6-6.5,3.6-9.2,6.1c-1,0.9-0.6,3.5-0.8,5.3c-0.1,0.9,0,1.9,0,2.8c-0.5-1.1-1.5-2.3-1.3-3.3c0.4-3.2,1.3-6.3,2-9.4l5.2-4.2
		l8.9-5.9l33.9-18.9l-0.2-0.6l-11.1-0.8c-0.4-3.4-0.8-6.8-1.3-10.3l-0.8,0.1v10.4l-17,0.2l-0.3-0.1v-6.6h-0.3L1698.2,293.8z
		 M1735.7,290.4c4.1-4.2,3-9.8-2.4-12.7C1734.1,282,1734.9,286,1735.7,290.4L1735.7,290.4z"/>
	<path class="st3" d="M1822.2,282c1.3-0.9,2.5-2,3.9-2.6c2.3-0.9,3.1-2.4,2.5-4.7c-2.8-11.3-6.4-22.3-12.3-32.5
		c-1.4-2.4-2.7-4.9-4.1-7.3c-1.2-2.1-2.4-3.4-4.9-1.5c-2.3,1.7-4.9,3.1-7.4,4.6c-0.3-0.7-0.5-1.4-0.8-2.1c-0.4-1.6-0.8-3.2-1.1-4.8
		c-0.8-5.1,0.3-7.1,4.9-9.4c3.6-1.8,7.3-3.7,10.9-5.6l8.5-4.4c0.8,0.5,1.5,1.1,2.1,1.8c14.8,18.1,25.4,39.1,31.2,61.7
		c0.6,2.3,0.4,4.9,0.6,7.3l-7.9,3.9c-4.1,2-8.1,4-12.3,5.9c-0.9,0.4-2.4,0.7-3.2,0.3C1828.3,290.1,1824.3,287,1822.2,282z"/>
	<path class="st4" d="M1822.3,211.7l-8.5,4.4c0.2-1.8,0.1-3.8,0.8-5.5c0.5-1.1,2.2-1.6,3.3-2.3L1822.3,211.7z"/>
	<path class="st4" d="M1848.4,286.4l7.9-3.9c0,1.9,0,3.8,0,5.7l0,0l-0.6,0.6C1852.8,289.2,1850.3,288.7,1848.4,286.4z"/>
	<path class="st0" d="M1855.7,288.8l0.6-0.6L1855.7,288.8z"/>
	<path class="st5" d="M1904.4,260.6c-0.1,2.8-2.5,4.9-5.2,4.7c-2.7-0.1-4.7-2.3-4.7-5c0.1-2.7,2.3-4.9,4.9-4.9
		C1902.2,255.5,1904.4,257.8,1904.4,260.6z M1900.2,261.9l1.2,0.6l-0.4-1.3c0.2-0.8,0.4-1.7,0.5-2.4h-4.2v4L1900.2,261.9z"/>
	<path class="st5" d="M1887.1,267.8c-0.1,2.7-2.4,4.9-5.1,4.8c-0.1,0-0.2,0-0.3,0c-2.7-0.1-4.8-2.4-4.7-5.1c0.1-2.8,2.4-5,5.2-4.9
		C1885,262.7,1887.2,265,1887.1,267.8L1887.1,267.8z M1884.2,265.8h-4.2v3.8h4.2V265.8z"/>
	<path class="st3" d="M1598.3,300.8c0.9-0.5,1.8-1.3,2.7-1.3c26.3-0.1,52.6-0.1,78.9,0c0.9,0,1.8,0.9,2.7,1.4l-0.2,2
		c-0.9,0.5-1.8,1.4-2.6,1.4c-26.2,0.1-52.4,0.1-78.6,0c-0.9,0-1.8-0.8-2.7-1.2C1598.4,302.3,1598.4,301.5,1598.3,300.8z"/>
	<path class="st4" d="M1598.3,300.8c0,0.7,0.1,1.5,0.1,2.3c-2-0.5-2.8,0.4-2.7,2.3c0.1,2.8,0,5.5,0.1,8.3c-0.1,1.9-0.2,3.7-0.4,5.6
		c-0.3,3,1.1,3.8,3.9,3.8c8.2-0.1,16.4-0.1,24.6,0c1.3,0.1,2.5,0.3,3.8,0.6c2.3,0.5,4.6,1.4,7,1.6c4.1,0.3,8.2,0.1,12.3,0.1
		c1.2,0,2.7,0.1,3.4-0.5c2.8-2.6,6.1-2,9.3-2.1c5.8-0.1,11.5,0,17.2-0.1c9-0.2,8.6,1.5,8.4-8.9c0-2.6-0.1-5.3-0.1-7.9
		c0-1.8-0.6-3.2-2.8-2.9l0.2-2c3.3-0.7,4.7,1,4.7,3.9c0.1,3.1-0.1,6.3-0.1,9.4l-0.1,5.7l-5.2,4.2c-8.6,0-17.1,0-25.7,0
		c-0.7-0.1-1.4,0.1-2,0.4c-7.4,4.6-15.5,1.3-23.3,2.3c-9.8-4.4-20.1-1.5-30.1-2.1c-6.4-0.4-6.8-0.5-6.8-6.8c0-1.4-0.1-2.8-0.2-4.2
		c0-2.8,0-5.5-0.1-8.3C1593.5,302.1,1594.9,300.4,1598.3,300.8z"/>
	<path class="st6" d="M1687.1,319.9l0.1-5.7l8.7-0.2L1687.1,319.9z"/>
	<path class="st4" d="M1716.5,293.9c0,0.2,0,0.4,0,0.5l-17-0.3L1716.5,293.9z"/>
	<path class="st3" d="M1681.2,336.9c0-0.9,0-1.9,0-2.8c0.2-1.8-0.3-4.4,0.8-5.3c2.8-2.5,5.9-4.5,9.2-6.1c2-1,6.9,3.5,7.8,7.5
		c0.4,1.8-0.7,4.6-2,6C1692,341.1,1686.6,340.6,1681.2,336.9L1681.2,336.9z"/>
	<path class="st0" d="M1686.5,341.6l-2.4,1.6c0.8,0.7,1.6,1.6,2.5,2c1.4,0.5,3,0.5,4.4,1.1c2.5,1,3.8,3.8,2.8,6.3
		c-0.2,0.5-0.5,1-0.9,1.5c-3.2,3.5-10.5,2.5-13.3-2.7c2,0.5,3.4,0.9,4.7,1.2c1.1,0.3,2.3,0.8,3.3,0.6s1.7-1.1,2.6-1.8
		c-0.7-0.7-1.5-1.2-2.3-1.8c-0.8-0.3-1.6-0.5-2.4-0.6c-5.4-1.3-6.5-4.2-3.4-8.9L1686.5,341.6z"/>
	<path class="st4" d="M1900.2,261.9l-2.9,0.8v-4h4.2c-0.2,0.7-0.3,1.6-0.5,2.4C1900.7,261.4,1900.5,261.6,1900.2,261.9z"/>
	<path class="st4" d="M1901,261.1l0.4,1.3l-1.2-0.6L1901,261.1z"/>
	<path class="st4" d="M1884.2,265.8v3.8h-4.2v-3.8H1884.2z"/>
	<path class="st4" d="M1664.6,392.4h49c1.1,0,2.2-0.2,3.1,0.1c0.8,0.3,1.8,1.4,1.8,2.1c-0.2,1.1-0.8,2-1.7,2.6
		c-0.8,0.5-2.1,0.2-3.1,0.2H1615c-0.9,0-2.1,0.2-2.8-0.2c-0.9-0.6-1.5-1.6-1.6-2.6c0-0.7,1-1.7,1.8-2c0.8-0.4,1.8-0.1,2.8-0.1
		H1664.6z"/>
	<path class="st4" d="M1661.7,505.8h47.2c1.9,0,4.1-0.3,4,2.6s-2.3,2.5-4.1,2.5c-31.4,0-62.8,0-94.1,0c-0.5,0-1.1,0.2-1.4,0
		c-1-0.7-1.9-1.6-2.8-2.4c1-0.9,1.9-2.5,2.9-2.5c6.1-0.2,12.2-0.1,18.3-0.1L1661.7,505.8z"/>
	<path class="st4" d="M1659.7,550.3h42.3c0.8,0,1.8-0.3,2.4,0.1c1,0.7,1.9,1.4,2.7,2.3c-0.9,0.9-1.6,2-2.7,2.6
		c-0.7,0.4-1.8,0.1-2.8,0.1h-85.1c-0.8,0-1.8,0.3-2.4-0.1c-1-0.7-1.9-1.6-2.8-2.5c0.9-0.8,1.7-2,2.8-2.4s2.3-0.1,3.5-0.1H1659.7z"/>
	<path class="st4" d="M1563.2,567.7V536h31.7v31.7H1563.2z M1567.5,540.2v23.4h23.3v-23.5L1567.5,540.2z"/>
	<path class="st4" d="M1662.7,567c-15.6,0-31.2,0-46.9,0c-1.9,0-4.5,0.6-4.4-2.5c0.1-3,2.6-2.4,4.5-2.4c31.3,0,62.5,0,93.8,0
		c1.3,0,2.7,0.4,3.8,1.1c0.4,0.3,0.5,2.1,0,2.5c-0.8,0.8-1.9,1.2-3,1.3c-7.3,0.1-14.6,0-21.9,0L1662.7,567z"/>
	<path class="st4" d="M1660.6,369.3h44.8c0.9,0,2-0.3,2.8,0.1c0.9,0.5,1.9,1.5,1.9,2.3c-0.2,1-0.9,1.9-1.9,2.4
		c-1,0.4-2.3,0.1-3.5,0.1h-89.6c-0.8,0-1.9,0.3-2.4-0.1c-0.9-0.6-2-1.6-2.1-2.6c-0.1-0.6,1.2-1.8,2-2.2c0.8-0.4,1.8-0.1,2.8-0.1
		C1630.5,369.3,1645.6,369.3,1660.6,369.3z"/>
	<path class="st4" d="M1653.6,487.7h-37.7c-0.9,0-2.1,0.3-2.8-0.1c-1-0.6-1.8-1.7-2.6-2.6c0.8-0.9,1.6-1.6,2.5-2.3
		c0.5-0.3,1.4-0.1,2.1-0.1h76.9c1.1,0,2.3-0.2,3.1,0.2c0.9,0.5,1.6,1.4,1.8,2.5c0.1,0.7-0.9,1.7-1.7,2.2c-0.6,0.4-1.6,0.1-2.4,0.1
		L1653.6,487.7L1653.6,487.7z"/>
	<path class="st4" d="M1562.2,511.6v-31.8h31.8v31.8H1562.2z M1566.5,483.8v23.6h23.4v-23.6H1566.5z"/>
	<path class="st4" d="M1562.3,367.9h31.8v31.6h-31.8V367.9z M1590,372h-23.7v23.4h23.6L1590,372z"/>
	<path class="st4" d="M1562,455.5v-31.5h32.4v32h-12.1l-9.5-0.1h-0.8C1568.7,455.4,1565.4,455.8,1562,455.5z M1590,427.9h-23.6v23.6
		h23.6V427.9z"/>
	<path class="st4" d="M1658.3,499.2h-43c-1.1,0-2.3,0.2-3.1-0.2c-1.2-0.5-1.8-2-1.3-3.2c0.3-0.6,0.8-1.1,1.5-1.4
		c0.9-0.4,2.1-0.2,3.1-0.2h87.1c1.7,0,3.4,0.1,3.5,2.4c0,2.4-1.5,2.6-3.3,2.6c-1.8,0-3.8,0-5.7,0L1658.3,499.2z"/>
	<path class="st4" d="M1655.1,538.8c12.6,0,25.2,0,37.7,0c0.9,0,2-0.3,2.8,0.1c1,0.5,2.2,1.6,2.3,2.4c0,0.8-1.3,2-2.3,2.4
		c-1.3,0.4-2.8,0.1-4.2,0.1h-75.2c-0.9,0-2,0.3-2.8-0.1c-0.9-0.5-1.9-1.5-1.9-2.4c0-0.8,1.1-1.9,1.9-2.4c0.7-0.4,1.8-0.2,2.8-0.2
		L1655.1,538.8z"/>
	<path class="st4" d="M1654.4,443.6l-38.7-0.1c-0.9,0-2,0.3-2.8-0.1c-0.9-0.5-2.1-1.6-2.2-2.4c0-0.9,1.3-1.9,2.2-2.4
		c0.7-0.4,1.8-0.1,2.8-0.1l53.5-0.1h19.8c1.5,0.1,3,0.1,4.6,0.2c1.7,0,3.4-0.1,3.4,2.4c0,2.4-1.7,2.7-3.6,2.6c-7.1,0-14.3,0-21.4,0
		c-4.2,0-8.4,0.1-12.6,0.1L1654.4,443.6z"/>
	<path class="st4" d="M1652.3,385.7c-12.6,0-25.2,0-37.7,0c-1.9,0-4.1,0.4-4-2.6c0.1-2.7,2.1-2.4,3.8-2.4h75.8
		c1.8,0,3.8-0.1,3.8,2.5s-1.8,2.5-3.7,2.5C1677.7,385.7,1665,385.7,1652.3,385.7z"/>
	<path class="st4" d="M1684.7,455.2l-2.1-0.1l-7.8,0.1l-2.8-0.1l-14.3-0.1"/>
	<path class="st4" d="M1616.1,455c-2.1,0.3-4.1,0.8-5.4-1.1c-0.7-2.9,0.5-4.1,3.5-4c5.8,0.1,11.7-0.1,17.6-0.1h9.9l28.3,0.1h17
		l1.9,0.1c1.7,1.6,1.8,3.3,0.2,5l-2.1,0.2"/>
	<path class="st4" d="M1644,454.8l-3.8,0.4h-7.8l-6.4-0.2"/>
	<path class="st4" d="M1654.3,455.2h-7"/>
	<path class="st4" d="M1669.2,432.1l-52.2-0.2c-1.4,0-2.9,0.2-4.2-0.2c-0.9-0.3-2.1-1.6-2.1-2.4s1.3-1.8,2.3-2.3
		c0.6-0.4,1.6-0.1,2.4-0.1l60.3-0.1c-1.5,1.7-3.1,3.4-4.6,5.1L1669.2,432.1z"/>
	<path class="st0" d="M1586.9,333.4c3.6,0,6.9-0.1,10.2,0c4.1,0.2,6.6,2.9,6.6,6.8s-2.6,6.4-6.7,6.7c-1.9,0.1-3.7,0-5.9,0v8.7h-4.1
		V333.4z M1591,336v8.2c2.7-0.7,5.3-1.5,7.9-2.4c0.4-0.2,0.4-2.9,0-3.1C1596.3,337.6,1593.7,336.7,1591,336L1591,336z"/>
	<path class="st4" d="M1675.4,426.9c9.9,0,24.1,0,34.1,0c1.8,0,4.4-0.8,4.5,2.4c0.1,3.1-2.4,2.6-4.3,2.6c-6.9,0.1-13.8,0.2-20.7,0.2
		c-4.7,0-13.6,0-18.3-0.1"/>
	<path class="st0" d="M1678.3,348.1h-12.1c1.4,2.1,2,4.1,3.3,4.6c1.2,0.5,3.1-0.6,4.7-1.1c1.2-0.3,2.3-0.7,3.9-1.1
		c-1.7,4.7-5.2,6.5-9.4,5.5c-3.9-1-6.2-5.3-5.4-10.2c0.8-4.7,3.9-7.2,8.7-6.8C1676,339.3,1678.3,342.4,1678.3,348.1z M1674.2,345.3
		c0.1-2.5-1.3-3.9-3.3-3.6c-1.5,0.2-2.7,1.7-4.1,2.6l0.6,1H1674.2z"/>
	<path class="st0" d="M1620.5,347.3c0,5.2-3,8.7-7.6,8.8c-4.6,0.1-7.8-3.2-7.9-8.5c-0.1-5,3-8.6,7.6-8.8S1620.5,342.1,1620.5,347.3z
		 M1616.5,347.4c-0.1-0.6,0.2-1.7-0.3-2.4c-0.9-1.2-2.1-2.9-3.3-2.9c-1.2,0-2.5,1.6-3.4,2.8c-0.5,0.6-0.3,1.8-0.3,2.7
		c0,2.6,0.5,5.3,3.8,5.3C1616.1,352.9,1616.3,350.3,1616.5,347.4L1616.5,347.4z"/>
	<path class="st0" d="M1652.4,345.1c-1-0.6-2-1.1-3-1.7c-0.3-0.2-0.5-0.8-0.7-0.8c-1.4,0-3.1-0.3-4,0.4c-2,1.5-2,7.5,0,8.7
		c1,0.6,2.9,0.2,4.2-0.3c1.2-0.4,2.2-1.4,3.6-1.7c-0.1,3.7-1.8,5.8-5.1,6.2c-3.4,0.4-5.9-1-7.3-4.2c-2.6-5.8,0.5-12.5,5.9-12.9
		C1650,338.6,1651.9,340.1,1652.4,345.1z"/>
	<path class="st0" d="M1627.4,355.7l-3.3,0.2v-22.3h3.3V355.7z"/>
	<path class="st0" d="M1635.8,339.4v16.3l-3.6,0.2v-16.5H1635.8z"/>
	<path class="st0" d="M1659.7,355.7h-3.5v-16.3h3.5V355.7z"/>
	<path class="st4" d="M1655.8,333.5h4v3.8h-3.7C1655.9,336,1655.9,334.9,1655.8,333.5z"/>
	<path class="st4" d="M1636,337.3h-3.8v-3.8h3.6C1635.9,334.6,1636,335.8,1636,337.3z"/>
	<path class="st2" d="M1572.9,458.1l-0.8-2.4h0.8L1572.9,458.1z"/>
	<path class="st3" d="M1691.4,453.5c-0.1-0.2-0.2-0.4-0.2-0.6c0-0.1,0.3-0.1,0.4-0.2c0,0.1,0.1,0.2,0.1,0.3
		C1691.6,453.1,1691.5,453.3,1691.4,453.5z"/>
	<path class="st3" d="M1694.1,452.3c-0.1,0-0.2,0.1-0.2,0.1c-0.1,0-0.1-0.1-0.2-0.2L1694.1,452.3z"/>
	<path class="st1" d="M1595.8,313.7c0-2.8,0-5.5-0.1-8.3c0-2,0.8-2.8,2.7-2.3c0.9,0.4,1.8,1.2,2.7,1.2c26.2,0.1,52.4,0.1,78.6,0
		c0.9,0,1.8-0.9,2.6-1.4c2.2-0.3,2.8,1.1,2.8,2.9c0.1,2.6,0.1,5.3,0.1,7.9L1595.8,313.7z"/>
	<path class="st6" d="M1595.8,313.7l89.6,0c0.2,10.4,0.6,8.6-8.4,8.9c-5.7,0.2-11.5,0.1-17.2,0.1c-3.2,0-6.5-0.6-9.3,2.1
		c-0.7,0.7-2.2,0.5-3.4,0.5c-4.1,0.1-8.2,0.2-12.3-0.1c-2.3-0.2-4.6-1.1-7-1.6c-1.2-0.3-2.5-0.5-3.8-0.6c-8.2-0.1-16.4-0.1-24.6,0
		c-2.8,0-4.2-0.8-3.9-3.8C1595.6,317.4,1595.7,315.6,1595.8,313.7z"/>
	<path class="st6" d="M1567.5,540.2h23.3v23.4h-23.3V540.2z"/>
	<path class="st6" d="M1566.5,483.8h23.4v23.6h-23.4V483.8z"/>
	<path class="st3" d="M1590,372v23.4h-23.7V372H1590z M1587.4,379.2c-0.6-0.6-1.1-1.4-1.7-1.5c-1-0.2-2.4-0.3-3.1,0.2
		c-1.5,1.3-2.9,2.7-4.1,4.2c-1.4,1.7-2.8,2.4-4.6,0.4c-1.2-1.3-2.5-1.6-3.8,0c-1.3,1.6-0.9,2.9,0.8,4c1.4,0.9,2.6,1.9,3.8,3.1
		c1.4,1.3,2.6,1.2,3.9-0.2c2.5-2.9,5.1-5.7,7.7-8.6C1586.6,380.4,1586.9,379.9,1587.4,379.2z"/>
	<path class="st3" d="M1590,427.9v23.6h-23.6v-23.6H1590z M1568.3,440.3c2.4,2.1,4.3,3.6,6,5.4c1.7,1.8,2.9,1.6,4.3-0.1
		c2.4-2.8,4.9-5.7,7.5-8.4c1.3-1.4,1-2.8-0.5-3.4c-1.1-0.4-2.4-0.3-3.4,0.3c-1.4,1-2.3,2.6-3.4,4c-1.6,1.9-3.2,2.8-5.2,0.5
		c-0.5-0.5-1-0.9-1.6-1.2L1568.3,440.3z"/>
	<path class="st6" d="M1686.1,455l0.7,0.1"/>
	<path class="st3" d="M1591,336c2.7,0.7,5.3,1.6,7.9,2.6c0.4,0.2,0.4,2.9,0,3.1c-2.6,1-5.2,1.8-7.9,2.4L1591,336z"/>
	<path class="st3" d="M1674.2,345.3h-6.9l-0.6-1c1.4-0.9,2.7-2.4,4.1-2.6C1672.9,341.4,1674.4,342.8,1674.2,345.3z"/>
	<path class="st3" d="M1616.5,347.4c-0.2,2.8-0.4,5.5-3.6,5.5c-3.3,0-3.8-2.7-3.8-5.3c0-0.9-0.2-2.1,0.3-2.7
		c0.9-1.2,2.3-2.8,3.4-2.8c1.2,0,2.4,1.7,3.3,2.9C1616.7,345.7,1616.5,346.9,1616.5,347.4z"/>
	<path class="st5" d="M1587.4,379.2c-0.5,0.7-0.8,1.2-1.2,1.6c-2.5,2.9-5.1,5.7-7.7,8.6c-1.3,1.5-2.4,1.5-3.9,0.2
		c-1.2-1.1-2.5-2.1-3.8-3.1c-1.7-1.1-2.1-2.3-0.8-4c1.3-1.7,2.6-1.4,3.8,0c1.8,2,3.2,1.3,4.6-0.4c1.2-1.5,2.6-3,4.1-4.2
		c0.7-0.5,2.1-0.4,3.1-0.2C1586.3,377.8,1586.8,378.7,1587.4,379.2z"/>
	<path class="st5" d="M1568.3,440.3l3.6-3c0.6,0.3,1.1,0.7,1.6,1.2c2,2.3,3.6,1.4,5.2-0.5c1.1-1.4,2.1-2.9,3.4-4
		c1-0.6,2.3-0.7,3.4-0.3c1.5,0.7,1.8,2,0.5,3.4c-2.5,2.8-5,5.6-7.5,8.4c-1.5,1.7-2.7,1.8-4.3,0.1
		C1572.7,443.9,1570.7,442.3,1568.3,440.3z"/>
	<path class="st1" d="M1533.7,454"/>
</g>
<linearGradient id="SVGID_1_" gradientUnits="userSpaceOnUse" x1="0.6809" y1="398.9149" x2="1920.6809" y2="398.9149">
	<stop  offset="1.936395e-07" style="stop-color:#FFA500"/>
	<stop  offset="1" style="stop-color:#FFA500;stop-opacity:0"/>
</linearGradient>
<rect x="0.7" y="-0.5" class="st7" width="1920" height="798.8"/>
</svg>
