<svg id="Layer_1" data-name="Layer 1" xmlns="http://www.w3.org/2000/svg" viewBox="0 0 1920 798.85"><defs><style>.cls-1{fill:#29292b;}.cls-2{fill:#0e1319;}.cls-3{fill:#eaccb4;}.cls-4{fill:#f4f4f4;}.cls-5{fill:#565656;}.cls-6{fill:orange;}.cls-7{fill:#fcfcfc;}.cls-8{opacity:0.7;}</style></defs><path class="cls-1" d="M1778,63.07c3.34-1.93,6.53-4.2,10-5.73,20.1-8.74,40.28-17.3,60.44-25.91q21.3-9.1,42.6-18.17c9.61-4.08,19.26-8.08,28.89-12.11V142c-6.68,2.4-13.44,4.61-20,7.24-12.75,5.09-25.4,10.43-38.12,15.62q-11.5,4.71-23.09,9.22a68.23,68.23,0,0,1-6.65,1.88q0-4,0-8c-.25-3.45,0-7-.83-10.34a227,227,0,0,0-44.16-87.32,20.72,20.72,0,0,0-3-2.51Zm122.22,73.86a7.27,7.27,0,0,0-7.14-7.3,7.09,7.09,0,0,0-7,6.91,7.06,7.06,0,0,0,14.11.39Zm-24.41,10.15a7.14,7.14,0,0,0-14.28-.4,6.93,6.93,0,0,0,6.66,7.15A7,7,0,0,0,1875.83,147.08Z" transform="translate(0 -1.15)"/><path class="cls-2" d="M1662.28,418.63q-.08-32.19-.14-64.37Q1662,289.13,1662,224l16.36-8.89c0,6.83-.13,13.65-.13,20.47q0,181.28-.13,362.54a27.25,27.25,0,0,1-3.16,12.68c-3,5.44-8.86,6.42-14.8,6.42q-81.9-.06-163.8,0H1393.46c-12.5,0-17.87-5.39-17.87-18q0-80.64,0-161.29c0-3.42.21-39.84.32-43.26,8.58-.15,6.5,28.64,6.55,20.05,0-6.62-2.63-15-2.62-21.59,0-2.64,2.81-26.55,2.55-13.56-.07,3.94.26,11.76.26,14.63,0,5.46-.31,10.94.09,16.38s-1.53,8.57-6.74,9.82a89.28,89.28,0,0,1-.28-9.93,6.49,6.49,0,0,1,2.35-4.16c2.9-2.21,3-3.89.23-6.33a7.7,7.7,0,0,1-2.62-5q-.18-97.29-.07-194.57c0-10,5-15.41,15-16.34,1.49-.14,3-.06,4.49-.06q75.59,0,151.17,0c9.78,0,19.55.54,29.33.77a42.69,42.69,0,0,0,4.9-.45l1-.52,25,.58,2-.57,1.45.24.43.18,24.12.47,2.87-1.1,15.75,1.13.24.89-48,26.71-12.32.32c.08-4.44.3-8.89.2-13.33-.08-4.22-2-6.59-6.66-5.57-1.29-.68-2.59-1.94-3.88-1.94q-55.8-.17-111.61,0c-1.26,0-2.52,1.22-3.78,1.87-4.94-.61-6.86,1.85-6.75,6.53.1,3.9.06,7.82.08,11.73h-68.84V599h270.42V593.3q0-56.14,0-112.3c0-17.46.1-34.93.15-52.39" transform="translate(0 -1.15)"/><path class="cls-3" d="M1608.44,183.93l-2,.57h-22.07c1.63-6.86,3-12.54,4.36-18.31-5-.09-6.85,1.85-6.68,6.31.14,3.79-.39,7.61-.63,11.42l-1,.52h-28.92c.61-11.35,1-21.91,1.83-32.42.44-5.28,3.66-9.16,8.48-11.55,12.17-6,24.41-11.89,36.49-18.09,7.34-3.76,14.49-7.89,21.6-12.07,14.58-8.55,30.15-11.36,46.95-9.58,17.72,1.89,35.54,2.91,53.33,4.31,10.73,1.55,21.46,3.22,32.2,0,3.51-2.15,7.21-4.06,10.5-6.51,3.58-2.67,5.32-.87,6.95,2.1,1.9,3.46,3.75,7,5.75,10.36,8.4,14.34,13.42,29.94,17.37,46,.79,3.18-.31,5.32-3.59,6.58-2,.78-3.67,2.42-5.49,3.68-1.64.51-3.57.64-4.89,1.59-7.76,5.64-15.77,11-23,17.32-17.17,15-37.51,22.65-59.47,26.75-6,1.12-12.15,1.54-18.22,2.27L1662,224l-5.73,2.9c-13.73,7-27.2,14.65-41.31,20.83-7,3.08-14.49,8.15-23,3.73l-6.06-2.05-1.44-4.58c7.68,5.26,15.44,6,22.35-.9,2-1.95,3.47-6,2.9-8.52-1.29-5.79-8.16-12-11-10.68a54.86,54.86,0,0,0-13.08,8.61c-1.45,1.31-.85,4.94-1.09,7.52-.12,1.32,0,2.66,0,4-.68-1.56-2.1-3.22-1.9-4.66.61-4.5,1.84-8.92,2.83-13.37l7.39-6,12.53-8.36,48-26.71-.24-.89-15.75-1.13q-.88-7.26-1.78-14.52l-1.16.17v14.68l-24,.3-.43-.18v-9.32l-.36,0Zm53.11-4.88c5.83-5.93,4.25-13.84-3.38-17.9C1659.3,167.14,1660.37,172.82,1661.55,179.05Z" transform="translate(0 -1.15)"/><path class="cls-4" d="M1783.89,167.19c1.82-1.26,3.49-2.9,5.49-3.68,3.28-1.26,4.38-3.4,3.59-6.58-4-16-9-31.61-17.37-45.95-2-3.4-3.85-6.9-5.75-10.36-1.63-3-3.37-4.77-6.95-2.1-3.29,2.45-7,4.36-10.5,6.51-.37-1-.73-2-1.09-3-.51-2.25-1.16-4.48-1.49-6.76-1.08-7.27.48-10.06,7-13.31,5.16-2.58,10.27-5.28,15.39-7.93l12-6.27a20.72,20.72,0,0,1,3,2.51,227,227,0,0,1,44.16,87.32c.86,3.3.58,6.89.83,10.34L1821,173.41c-5.79,2.82-11.53,5.72-17.39,8.38-1.32.6-3.36,1-4.5.36C1792.55,178.72,1786.92,174.23,1783.89,167.19Z" transform="translate(0 -1.15)"/><path class="cls-5" d="M1784.15,67.78l-12,6.27c.31-2.6.11-5.43,1.12-7.73.66-1.49,3.09-2.2,4.72-3.25Z" transform="translate(0 -1.15)"/><path class="cls-5" d="M1821,173.41l11.15-5.46q0,4,0,8l0,0-.84.89C1827.29,177.37,1823.69,176.74,1821,173.41Z" transform="translate(0 -1.15)"/><path class="cls-1" d="M1831.28,176.8l.84-.89Z" transform="translate(0 -1.15)"/><path class="cls-6" d="M1900.24,136.93a7.06,7.06,0,0,1-14.11-.39,7.09,7.09,0,0,1,7-6.91A7.27,7.27,0,0,1,1900.24,136.93Zm-5.91,1.77,1.73.8-.63-1.89c.25-1.18.5-2.35.72-3.4h-5.94v5.64Z" transform="translate(0 -1.15)"/><path class="cls-6" d="M1875.83,147.08a7,7,0,0,1-7.62,6.75,6.93,6.93,0,0,1-6.66-7.15,7.14,7.14,0,0,1,14.28.4Zm-4.12-2.8h-6v5.32h6Z" transform="translate(0 -1.15)"/><path class="cls-4" d="M1467.22,193.78c1.26-.65,2.52-1.87,3.78-1.87q55.8-.15,111.61,0c1.29,0,2.59,1.26,3.88,1.94l-.3,2.87c-1.24.69-2.48,2-3.72,2q-55.63.15-111.27,0c-1.26,0-2.53-1.13-3.79-1.73C1467.34,195.9,1467.28,194.84,1467.22,193.78Z" transform="translate(0 -1.15)"/><path class="cls-5" d="M1467.22,193.78c.06,1.06.12,2.12.19,3.19-2.8-.66-4,.53-3.89,3.32.09,3.93.06,7.85.08,11.78-.16,2.63-.24,5.28-.5,7.9-.42,4.21,1.53,5.41,5.56,5.34,11.61-.21,23.24-.1,34.85,0a25.59,25.59,0,0,1,5.33.83c3.3.72,6.55,2,9.87,2.24,5.79.38,11.62.17,17.43.09,1.63,0,3.83.18,4.8-.74,3.9-3.72,8.59-2.89,13.16-2.94,8.14-.08,16.27,0,24.4-.21,12.79-.35,12.2,2.14,11.89-12.55-.07-3.73-.11-7.45-.21-11.18-.06-2.58-.82-4.53-4-4.09l.3-2.87c4.63-1,6.58,1.35,6.66,5.57.1,4.44-.12,8.89-.2,13.33l-.21,8-7.39,6q-18.18,0-36.35.06a5.86,5.86,0,0,0-2.89.52c-10.49,6.52-22,1.86-33,3.23-13.83-6.18-28.42-2.12-42.64-3-9-.56-9.67-.7-9.66-9.64,0-2-.16-4-.24-6,0-3.91,0-7.83-.08-11.73C1460.36,195.63,1462.28,193.17,1467.22,193.78Z" transform="translate(0 -1.15)"/><path class="cls-7" d="M1592.74,220.81l.21-8,12.32-.32Z" transform="translate(0 -1.15)"/><path class="cls-5" d="M1634.37,184.05c0,.26.05.51.07.77l-24.12-.47Z" transform="translate(0 -1.15)"/><path class="cls-4" d="M1584.42,244.86c0-1.33-.07-2.67,0-4,.24-2.58-.36-6.21,1.09-7.52a54.86,54.86,0,0,1,13.08-8.61c2.85-1.36,9.72,4.89,11,10.68.57,2.56-.94,6.57-2.9,8.52-6.91,6.89-14.67,6.16-22.35.9Z" transform="translate(0 -1.15)"/><path class="cls-1" d="M1591.9,251.47l-3.41,2.28c1.18,1,2.22,2.27,3.56,2.79,2,.77,4.26.77,6.27,1.49a6.89,6.89,0,0,1,2.67,11c-4.47,5-14.9,3.56-18.8-3.82,2.84.73,4.76,1.25,6.7,1.7,1.57.37,3.24,1.11,4.72.85s2.46-1.61,3.68-2.48a22.32,22.32,0,0,0-3.31-2.48,15.07,15.07,0,0,0-3.37-.78c-7.6-1.81-9.17-6-4.77-12.64Z" transform="translate(0 -1.15)"/><path class="cls-5" d="M1894.33,138.71l-4.12,1.14v-5.64h5.94c-.22,1-.47,2.22-.72,3.4C1895.06,138,1894.69,138.34,1894.33,138.71Z" transform="translate(0 -1.15)"/><path class="cls-5" d="M1895.43,137.61l.63,1.89-1.73-.8Z" transform="translate(0 -1.15)"/><path class="cls-5" d="M1871.71,144.28v5.32h-6v-5.32Z" transform="translate(0 -1.15)"/><path class="cls-5" d="M1561,323.44h69.31c1.5,0,3.15-.32,4.44.21,1.12.46,2.59,2,2.53,2.92a5.17,5.17,0,0,1-2.36,3.62c-1.16.65-2.92.3-4.41.3H1490.84c-1.33,0-3,.33-3.9-.3a5.57,5.57,0,0,1-2.33-3.7c0-1,1.46-2.37,2.59-2.89s2.61-.16,3.94-.16Z" transform="translate(0 -1.15)"/><path class="cls-5" d="M1556.91,483.89h66.84c2.65,0,5.74-.46,5.66,3.64s-3.25,3.47-5.83,3.47q-66.6,0-133.2,0c-.66,0-1.51.25-2-.06-1.4-1-2.66-2.23-4-3.36,1.37-1.25,2.7-3.52,4.12-3.57,8.63-.33,17.29-.16,25.93-.16Z" transform="translate(0 -1.15)"/><path class="cls-5" d="M1554,546.87h59.91c1.16,0,2.54-.39,3.44.09a21.46,21.46,0,0,1,3.76,3.22c-1.24,1.28-2.3,2.86-3.77,3.72-1,.59-2.6.18-3.93.18H1493.05c-1.16,0-2.57.4-3.44-.11a25,25,0,0,1-3.92-3.53c1.29-1.19,2.4-2.8,3.92-3.43s3.28-.14,4.94-.14Z" transform="translate(0 -1.15)"/><path class="cls-5" d="M1417.54,571.49V526.61h44.82v44.88Zm6-39v33.17h33V532.45Z" transform="translate(0 -1.15)"/><path class="cls-5" d="M1558.26,570.45q-33.16,0-66.32,0c-2.71,0-6.34.82-6.18-3.57.15-4.2,3.7-3.45,6.43-3.45q66.33,0,132.65.07a11.08,11.08,0,0,1,5.4,1.55c.59.36.7,2.93.07,3.57a6.53,6.53,0,0,1-4.23,1.79c-10.3.14-20.61.06-30.92.06Z" transform="translate(0 -1.15)"/><path class="cls-5" d="M1555.37,290.66h63.41c1.33,0,2.89-.39,3.93.17,1.21.65,2.71,2.15,2.71,3.27a4.75,4.75,0,0,1-2.63,3.38c-1.41.61-3.26.21-4.93.21l-126.82,0c-1.17,0-2.62.4-3.43-.14-1.29-.87-2.77-2.29-3-3.66-.13-.91,1.64-2.48,2.88-3.1,1.07-.54,2.61-.15,3.94-.15Q1523.41,290.65,1555.37,290.66Z" transform="translate(0 -1.15)"/><path class="cls-5" d="M1545.44,458.29h-53.39c-1.33,0-2.92.43-3.92-.15-1.46-.84-2.49-2.41-3.7-3.67a24.52,24.52,0,0,1,3.58-3.28c.72-.45,1.94-.08,2.94-.08h108.76c1.5,0,3.23-.35,4.42.28a5.21,5.21,0,0,1,2.48,3.52c.08,1-1.3,2.45-2.38,3.12-.86.52-2.26.2-3.42.2h-55.37Z" transform="translate(0 -1.15)"/><path class="cls-5" d="M1416.11,492.1V447.16h45.05V492.1Zm6-39.34v33.46h33.1V452.76Z" transform="translate(0 -1.15)"/><path class="cls-5" d="M1416.22,288.69h45V333.4h-45Zm39.26,5.82H1422v33.06h33.45Z" transform="translate(0 -1.15)"/><path class="cls-5" d="M1415.78,412.63V368h45.86v45.25h-17.09l-13.41-.1-1.08,0C1425.3,412.6,1420.54,413.12,1415.78,412.63Zm39.66-39h-33.37V407h33.37Z" transform="translate(0 -1.15)"/><path class="cls-5" d="M1552,474.5H1491.1c-1.49,0-3.2.31-4.4-.32a3.47,3.47,0,0,1,.28-6.48c1.26-.57,2.93-.23,4.43-.23h123.21c2.46,0,4.86.09,4.91,3.44s-2.11,3.69-4.71,3.63-5.33,0-8,0Z" transform="translate(0 -1.15)"/><path class="cls-5" d="M1547.47,530.57q26.7,0,53.41,0c1.33,0,2.89-.41,3.93.15,1.37.73,3.18,2.22,3.21,3.41s-1.83,2.89-3.19,3.33c-1.81.58-3.95.16-5.94.16H1492.56c-1.33,0-2.89.41-3.93-.15-1.22-.67-2.75-2.19-2.75-3.33s1.53-2.66,2.75-3.34c1-.58,2.6-.22,3.93-.22Z" transform="translate(0 -1.15)"/><path class="cls-5" d="M1546.46,395.78l-54.76-.21c-1.33,0-2.9.44-3.92-.13-1.33-.73-3-2.25-3.07-3.46s1.78-2.63,3.11-3.33c1-.55,2.6-.13,3.93-.13l75.67-.21h28c2.15.08,4.29.21,6.44.22,2.42,0,4.87-.09,4.88,3.33s-2.44,3.75-5.12,3.74q-15.15-.06-30.3,0c-6,0-11.91.1-17.87.15Z" transform="translate(0 -1.15)"/><path class="cls-5" d="M1543.49,313.91q-26.7,0-53.4,0c-2.62,0-5.74.56-5.63-3.63.11-3.75,2.93-3.41,5.43-3.41H1597.2c2.6,0,5.31-.11,5.41,3.48s-2.6,3.59-5.22,3.59Q1570.45,313.89,1543.49,313.91Z" transform="translate(0 -1.15)"/><path class="cls-5" d="M1589.37,412.31l-2.91-.12-11.07.08-3.91-.08-20.17-.19" transform="translate(0 -1.15)"/><path class="cls-5" d="M1492.35,412c-3,.45-5.8,1.17-7.6-1.54-.92-4.11.66-5.75,4.92-5.69,8.27.13,16.56-.1,24.84-.18l14,0,40,.08h24l2.67.08c2.42,2.25,2.57,4.62.35,7.11l-3,.34" transform="translate(0 -1.15)"/><path class="cls-5" d="M1531.82,411.72l-5.34.54-11,0-9-.3" transform="translate(0 -1.15)"/><path class="cls-5" d="M1546.42,412.25l-9.89,0" transform="translate(0 -1.15)"/><path class="cls-5" d="M1567.45,379.59l-73.82-.25c-2,0-4.14.31-5.93-.32-1.32-.47-3-2.27-3-3.43s1.88-2.52,3.22-3.28c.88-.5,2.28-.09,3.44-.09l85.31-.16q-3.27,3.63-6.53,7.27Z" transform="translate(0 -1.15)"/><path class="cls-1" d="M1451,239.9c5.1,0,9.75-.19,14.38,0,5.86.31,9.36,4.09,9.32,9.57s-3.64,9.1-9.49,9.44c-2.63.15-5.27,0-8.39,0v12.34H1451Zm5.82,3.64v11.54a106.75,106.75,0,0,0,11.13-3.46c.58-.24.63-4.1.06-4.35A109.26,109.26,0,0,0,1456.77,243.54Z" transform="translate(0 -1.15)"/><path class="cls-5" d="M1576.22,372.23c14.07,0,34.15-.06,48.22,0,2.58,0,6.27-1.11,6.38,3.33s-3.38,3.66-6.13,3.69c-9.77.13-19.53.22-29.29.33-6.63,0-19.26-.07-25.89-.11" transform="translate(0 -1.15)"/><path class="cls-1" d="M1580.32,260.7h-17.14c2,2.92,2.9,5.8,4.64,6.44s4.37-.88,6.6-1.49c1.65-.45,3.28-.95,5.53-1.62-2.37,6.7-7.3,9.25-13.23,7.72-5.58-1.43-8.75-7.48-7.57-14.43,1.14-6.71,5.58-10.17,12.28-9.56C1577.14,248.27,1580.31,252.61,1580.32,260.7Zm-5.74-3.94c.21-3.59-1.85-5.47-4.73-5.09-2.06.27-3.89,2.35-5.82,3.62l.81,1.47Z" transform="translate(0 -1.15)"/><path class="cls-1" d="M1498.59,259.61c.07,7.3-4.22,12.26-10.73,12.43s-11-4.58-11.14-12c-.15-7.14,4.27-12.23,10.77-12.38S1498.53,252.26,1498.59,259.61Zm-5.66.18c-.08-.78.22-2.42-.46-3.35-1.24-1.7-3-4.1-4.64-4.13s-3.55,2.25-4.86,3.91c-.69.87-.48,2.56-.46,3.87,0,3.73.75,7.49,5.36,7.49C1492.3,267.57,1492.69,263.8,1492.93,259.79Z" transform="translate(0 -1.15)"/><path class="cls-1" d="M1543.7,256.52c-1.42-.78-2.86-1.53-4.24-2.37-.4-.24-.65-1.08-1-1.07-1.94.06-4.41-.42-5.7.58-2.81,2.17-2.78,10.57.06,12.3,1.42.86,4.07.24,6-.36,1.7-.55,3.11-2,5.09-2.47-.12,5.23-2.48,8.2-7.25,8.81s-8.35-1.36-10.35-5.93c-3.62-8.26.67-17.68,8.36-18.28C1540.28,247.3,1543,249.33,1543.7,256.52Z" transform="translate(0 -1.15)"/><path class="cls-1" d="M1508.38,271.45l-4.64.22V240.11h4.64Z" transform="translate(0 -1.15)"/><path class="cls-1" d="M1520.23,248.36v23.06l-5.07.23V248.36Z" transform="translate(0 -1.15)"/><path class="cls-1" d="M1554,271.44h-5V248.37h5Z" transform="translate(0 -1.15)"/><path class="cls-5" d="M1548.49,240h5.63v5.31h-5.3C1548.72,243.64,1548.62,242.07,1548.49,240Z" transform="translate(0 -1.15)"/><path class="cls-5" d="M1520.56,245.43h-5.41V240h5.14C1520.38,241.68,1520.46,243.27,1520.56,245.43Z" transform="translate(0 -1.15)"/><path class="cls-3" d="M1431.23,416.42l-1.17-3.33,1.08,0Z" transform="translate(0 -1.15)"/><path class="cls-4" d="M1598.86,409.78a2.84,2.84,0,0,1-.29-.83c0-.1.36-.21.56-.32,0,.14.19.31.15.42A5,5,0,0,1,1598.86,409.78Z" transform="translate(0 -1.15)"/><path class="cls-4" d="M1602.72,408.16c-.11.07-.23.19-.34.18s-.2-.16-.3-.24Z" transform="translate(0 -1.15)"/><path class="cls-2" d="M1463.6,212.07c0-3.93,0-7.85-.08-11.78-.06-2.79,1.09-4,3.89-3.32,1.26.6,2.53,1.73,3.79,1.73q55.63.15,111.27,0c1.24,0,2.48-1.27,3.72-2,3.17-.44,3.93,1.51,4,4.09.1,3.73.14,7.45.21,11.18Z" transform="translate(0 -1.15)"/><path class="cls-7" d="M1463.6,212.07l126.79-.06c.31,14.69.9,12.2-11.89,12.55-8.13.22-16.26.13-24.4.21-4.57,0-9.26-.78-13.16,2.94-1,.92-3.17.72-4.8.74-5.81.08-11.64.29-17.43-.09-3.32-.22-6.57-1.52-9.87-2.24a25.59,25.59,0,0,0-5.33-.83c-11.61-.08-23.24-.19-34.85,0-4,.07-6-1.13-5.56-5.34C1463.36,217.35,1463.44,214.7,1463.6,212.07Z" transform="translate(0 -1.15)"/><path class="cls-7" d="M1423.55,532.45h33v33.17h-33Z" transform="translate(0 -1.15)"/><path class="cls-7" d="M1422.11,452.76h33.1v33.46h-33.1Z" transform="translate(0 -1.15)"/><path class="cls-4" d="M1455.48,294.51v33.06H1422V294.51Zm-3.72,10.28c-.88-.81-1.58-2-2.47-2.17-1.42-.28-3.38-.41-4.37.35a42,42,0,0,0-5.83,6c-2,2.37-4,3.36-6.51.55-1.7-1.9-3.59-2.23-5.39.05s-1.26,4.1,1.16,5.7a44.74,44.74,0,0,1,5.41,4.32c2,1.83,3.7,1.71,5.48-.35,3.56-4.1,7.23-8.12,10.83-12.19C1450.6,306.45,1451,305.76,1451.76,304.79Z" transform="translate(0 -1.15)"/><path class="cls-4" d="M1455.44,373.66V407h-33.37V373.66Zm-30.68,17.45c3.35,2.94,6.13,5.06,8.52,7.57s4.06,2.23,6.13-.16c3.46-4,7-8,10.57-11.88,1.8-2,1.44-3.92-.69-4.84a5.73,5.73,0,0,0-4.87.46c-1.94,1.44-3.3,3.68-4.88,5.6-2.22,2.7-4.52,4-7.32.67a12.14,12.14,0,0,0-2.32-1.72Z" transform="translate(0 -1.15)"/><path class="cls-7" d="M1591.43,412l1,.19" transform="translate(0 -1.15)"/><path class="cls-4" d="M1456.77,243.54a109.26,109.26,0,0,1,11.19,3.73c.57.25.52,4.11-.06,4.35a106.75,106.75,0,0,1-11.13,3.46Z" transform="translate(0 -1.15)"/><path class="cls-4" d="M1574.58,256.76h-9.74l-.81-1.47c1.93-1.27,3.76-3.35,5.82-3.62C1572.73,251.29,1574.79,253.17,1574.58,256.76Z" transform="translate(0 -1.15)"/><path class="cls-4" d="M1492.93,259.79c-.24,4-.63,7.78-5.06,7.79-4.61,0-5.31-3.76-5.36-7.49,0-1.31-.23-3,.46-3.87,1.31-1.66,3.23-3.94,4.86-3.91s3.4,2.43,4.64,4.13C1493.15,257.37,1492.85,259,1492.93,259.79Z" transform="translate(0 -1.15)"/><path class="cls-6" d="M1451.76,304.79c-.72,1-1.16,1.66-1.69,2.27-3.6,4.07-7.27,8.09-10.83,12.19-1.78,2.06-3.45,2.18-5.48.35a44.74,44.74,0,0,0-5.41-4.32c-2.42-1.6-3-3.31-1.16-5.7s3.69-1.95,5.39-.05c2.51,2.81,4.46,1.82,6.51-.55a42,42,0,0,1,5.83-6c1-.76,2.95-.63,4.37-.35C1450.18,302.79,1450.88,304,1451.76,304.79Z" transform="translate(0 -1.15)"/><path class="cls-6" d="M1424.76,391.11l5.14-4.3a12.14,12.14,0,0,1,2.32,1.72c2.8,3.32,5.1,2,7.32-.67,1.58-1.92,2.94-4.16,4.88-5.6a5.73,5.73,0,0,1,4.87-.46c2.13.92,2.49,2.86.69,4.84-3.57,3.92-7.11,7.87-10.57,11.88-2.07,2.39-3.82,2.57-6.13.16S1428.11,394.05,1424.76,391.11Z" transform="translate(0 -1.15)"/><path class="cls-2" d="M1375.71,410.5" transform="translate(0 -1.15)"/><rect class="cls-8" width="1920" height="798.85"/></svg>