<svg id="Layer_1" data-name="Layer 1" xmlns="http://www.w3.org/2000/svg" viewBox="0 0 740.71 498"><defs><style>.cls-1{fill:#f6f5fa;}.cls-2{fill:#a6a5b3;}.cls-3{fill:none;stroke:#fff;stroke-miterlimit:10;stroke-width:4px;}</style></defs><rect class="cls-1" x="1.69" y="13.18" width="720.13" height="484.82"/><ellipse class="cls-2" cx="706.33" cy="10.93" rx="0.83" ry="0.67"/><ellipse class="cls-2" cx="697.69" cy="10.9" rx="0.83" ry="0.67"/><ellipse class="cls-2" cx="702.14" cy="10.9" rx="0.83" ry="0.67"/><ellipse class="cls-2" cx="725.79" cy="10.9" rx="0.83" ry="0.67"/><ellipse class="cls-2" cx="721.06" cy="10.9" rx="0.83" ry="0.67"/><ellipse class="cls-2" cx="716.05" cy="10.9" rx="0.83" ry="0.67"/><ellipse class="cls-2" cx="711.32" cy="10.9" rx="0.83" ry="0.67"/><ellipse class="cls-2" cx="725.71" cy="18.1" rx="0.83" ry="0.67"/><ellipse class="cls-2" cx="725.84" cy="14.27" rx="0.83" ry="0.67"/><ellipse class="cls-2" cx="725.71" cy="33.35" rx="0.83" ry="0.67"/><ellipse class="cls-2" cx="725.78" cy="29.87" rx="0.83" ry="0.67"/><ellipse class="cls-2" cx="725.86" cy="26.17" rx="0.83" ry="0.67"/><ellipse class="cls-2" cx="725.95" cy="22.01" rx="0.83" ry="0.67"/><ellipse class="cls-2" cx="710.98" cy="7.56" rx="0.83" ry="0.67"/><ellipse class="cls-2" cx="702.05" cy="7.52" rx="0.83" ry="0.67"/><ellipse class="cls-2" cx="706.23" cy="7.52" rx="0.83" ry="0.67"/><ellipse class="cls-2" cx="730.15" cy="7.52" rx="0.83" ry="0.67"/><ellipse class="cls-2" cx="725.7" cy="7.52" rx="0.83" ry="0.67"/><ellipse class="cls-2" cx="720.97" cy="7.52" rx="0.83" ry="0.67"/><ellipse class="cls-2" cx="715.96" cy="7.52" rx="0.83" ry="0.67"/><ellipse class="cls-2" cx="730.08" cy="14.5" rx="0.83" ry="0.67"/><ellipse class="cls-2" cx="730.2" cy="11.01" rx="0.83" ry="0.67"/><ellipse class="cls-2" cx="730.07" cy="29.87" rx="0.83" ry="0.67"/><ellipse class="cls-2" cx="730.15" cy="26.28" rx="0.83" ry="0.67"/><ellipse class="cls-2" cx="730.23" cy="22.01" rx="0.83" ry="0.67"/><ellipse class="cls-2" cx="730.32" cy="18.3" rx="0.83" ry="0.67"/><ellipse class="cls-2" cx="715.75" cy="4.08" rx="0.83" ry="0.67"/><ellipse class="cls-2" cx="706.13" cy="4.04" rx="0.83" ry="0.67"/><ellipse class="cls-2" cx="710.86" cy="4.04" rx="0.83" ry="0.67"/><ellipse class="cls-2" cx="735.34" cy="4.04" rx="0.83" ry="0.67"/><ellipse class="cls-2" cx="730.61" cy="4.04" rx="0.83" ry="0.67"/><ellipse class="cls-2" cx="725.75" cy="4.04" rx="0.83" ry="0.67"/><ellipse class="cls-2" cx="720.88" cy="4.04" rx="0.83" ry="0.67"/><ellipse class="cls-2" cx="735.27" cy="11.25" rx="0.83" ry="0.67"/><ellipse class="cls-2" cx="735.39" cy="7.41" rx="0.83" ry="0.67"/><ellipse class="cls-2" cx="735.26" cy="26.5" rx="0.83" ry="0.67"/><ellipse class="cls-2" cx="735.34" cy="23.02" rx="0.83" ry="0.67"/><ellipse class="cls-2" cx="735.42" cy="19.32" rx="0.83" ry="0.67"/><ellipse class="cls-2" cx="735.51" cy="15.16" rx="0.83" ry="0.67"/><ellipse class="cls-2" cx="720.67" cy="0.71" rx="0.83" ry="0.67"/><ellipse class="cls-2" cx="710.77" cy="0.67" rx="0.83" ry="0.67"/><ellipse class="cls-2" cx="715.64" cy="0.67" rx="0.83" ry="0.67"/><ellipse class="cls-2" cx="739.71" cy="0.67" rx="0.83" ry="0.67"/><ellipse class="cls-2" cx="735.26" cy="0.67" rx="0.83" ry="0.67"/><ellipse class="cls-2" cx="730.53" cy="0.67" rx="0.83" ry="0.67"/><ellipse class="cls-2" cx="725.38" cy="0.67" rx="0.83" ry="0.67"/><ellipse class="cls-2" cx="739.64" cy="7.65" rx="0.83" ry="0.67"/><ellipse class="cls-2" cx="739.76" cy="4.16" rx="0.83" ry="0.67"/><ellipse class="cls-2" cx="739.63" cy="23.02" rx="0.83" ry="0.67"/><ellipse class="cls-2" cx="739.71" cy="19.42" rx="0.83" ry="0.67"/><ellipse class="cls-2" cx="739.78" cy="15.16" rx="0.83" ry="0.67"/><ellipse class="cls-2" cx="739.87" cy="11.45" rx="0.83" ry="0.67"/><ellipse class="cls-2" cx="729.96" cy="33.24" rx="0.83" ry="0.67"/><ellipse class="cls-2" cx="735.3" cy="29.87" rx="0.83" ry="0.67"/><ellipse class="cls-2" cx="735.19" cy="33.24" rx="0.83" ry="0.67"/><ellipse class="cls-2" cx="739.72" cy="26.61" rx="0.83" ry="0.67"/><ellipse class="cls-2" cx="739.76" cy="29.98" rx="0.83" ry="0.67"/><ellipse class="cls-2" cx="739.64" cy="33.35" rx="0.83" ry="0.67"/><ellipse class="cls-2" cx="697.69" cy="7.53" rx="0.83" ry="0.67"/><ellipse class="cls-2" cx="702.09" cy="4.04" rx="0.83" ry="0.67"/><ellipse class="cls-2" cx="697.73" cy="4.05" rx="0.83" ry="0.67"/><ellipse class="cls-2" cx="706.2" cy="0.68" rx="0.83" ry="0.67"/><ellipse class="cls-2" cx="702.16" cy="0.68" rx="0.83" ry="0.67"/><ellipse class="cls-2" cx="697.8" cy="0.68" rx="0.83" ry="0.67"/><path class="cls-3" d="M.26,522.12s41.12,4.39,64-39.47,138.6-138.88,240.65-16.08S349,681.47,349,681.47" transform="translate(1.91 -369.24)"/><path class="cls-3" d="M-.5,474.61s230-229.52,365.54,0" transform="translate(1.91 -369.24)"/><path class="cls-3" d="M389.41,745.06s95.95,144.73,330.5-153.5" transform="translate(1.91 -369.24)"/><ellipse class="cls-2" cx="725.63" cy="43.14" rx="0.83" ry="0.67"/><ellipse class="cls-2" cx="725.7" cy="39.66" rx="0.83" ry="0.67"/><ellipse class="cls-2" cx="725.78" cy="35.96" rx="0.83" ry="0.67"/><ellipse class="cls-2" cx="730" cy="39.66" rx="0.83" ry="0.67"/><ellipse class="cls-2" cx="730.07" cy="36.07" rx="0.83" ry="0.67"/><ellipse class="cls-2" cx="735.19" cy="36.29" rx="0.83" ry="0.67"/><ellipse class="cls-2" cx="729.88" cy="43.03" rx="0.83" ry="0.67"/><ellipse class="cls-2" cx="735.23" cy="39.66" rx="0.83" ry="0.67"/><ellipse class="cls-2" cx="735.11" cy="43.03" rx="0.83" ry="0.67"/><ellipse class="cls-2" cx="739.64" cy="36.4" rx="0.83" ry="0.67"/><ellipse class="cls-2" cx="739.68" cy="39.77" rx="0.83" ry="0.67"/><ellipse class="cls-2" cx="739.56" cy="43.15" rx="0.83" ry="0.67"/></svg>