<?xml version="1.0" encoding="utf-8"?>
<!-- Generator: Adobe Illustrator 24.1.1, SVG Export Plug-In . SVG Version: 6.00 Build 0)  -->
<svg version="1.1" id="Layer_1" xmlns="http://www.w3.org/2000/svg" xmlns:xlink="http://www.w3.org/1999/xlink" x="0px" y="0px"
	 viewBox="0 0 82.6 81.9" style="enable-background:new 0 0 82.6 81.9;" xml:space="preserve">
<style type="text/css">
	.st0{opacity:0.26;fill:none;stroke:#5F5F5F;stroke-width:0.25;stroke-miterlimit:10;enable-background:new    ;}
	.st1{font-family:'ArialMT';}
	.st2{font-size:7.1412px;}
	.st3{fill:#434444;}
	.st4{font-size:2.7955px;}
	.st5{fill:#7B7B7B;}
	.st6{fill:#448AFF;}
	.st7{fill:none;stroke:#5F5F5F;stroke-width:0.25;stroke-miterlimit:10;}
	.st8{fill:none;stroke:#FFA500;stroke-width:0.25;stroke-miterlimit:10;}
	.st9{fill:#FFA500;}
	.st10{font-size:3.3099px;}
	.st11{fill:#FFFFFF;}
	.st12{font-size:2.6991px;}
	.st13{font-size:2.5401px;}
	.st14{fill:#AFACAC;}
</style>
<rect x="1.4" y="2.9" class="st0" width="77.4" height="76"/>
<line class="st0" x1="1.4" y1="17.5" x2="78.8" y2="17.7"/>
<line class="st0" x1="1.6" y1="32.7" x2="79" y2="32.9"/>
<line class="st0" x1="1.6" y1="48.1" x2="79" y2="48.2"/>
<line class="st0" x1="1.6" y1="63.4" x2="79" y2="63.6"/>
<text transform="matrix(1 0 0 1 5.5669 12.3159)" class="st1 st2">Select a carrier </text>
<text transform="matrix(1 0 0 1 16.1797 22.0718)" class="st3 st1 st4">Carrier A</text>
<text transform="matrix(1 0 0 1 16.1797 25.4718)" class="st5 st1 st4">Company</text>
<text transform="matrix(1 0 0 1 16.1797 28.7719)" class="st5 st1 st4">Read </text>
<text transform="matrix(1 0 0 1 22.5797 28.7719)" class="st6 st1 st4">more</text>
<text transform="matrix(1 0 0 1 28.7797 28.7719)" class="st5 st1 st4"> about this carrier</text>
<circle class="st7" cx="8.8" cy="24.4" r="4.9"/>
<path class="st8" d="M75.2,30.7H61.7c-0.3,0-0.5-0.2-0.5-0.5V25c0-0.3,0.2-0.5,0.5-0.5h13.6c0.3,0,0.5,0.2,0.5,0.5v5.2
	C75.8,30.4,75.5,30.7,75.2,30.7z"/>
<text transform="matrix(1 0 0 1 63.9111 28.6426)" class="st9 st1 st10">Select</text>
<circle class="st6" cx="71.2" cy="20.8" r="1.6"/>
<text transform="matrix(1.104 0 0 1 70.9131 21.7754)" class="st11 st1 st12">i</text>
<text transform="matrix(1 0 0 1 63.4521 21.5293)" class="st5 st1 st13">$105</text>
<g>
	<path d="M8,25.1l-0.5,1.5H6.8l1.6-4.8h0.8l1.6,4.8h-0.7l-0.5-1.5C9.6,25.1,8,25.1,8,25.1z M9.5,24.6L9,23.2
		c-0.1-0.3-0.2-0.6-0.3-0.9l0,0c-0.1,0.3-0.2,0.6-0.2,0.9L8,24.6H9.5z"/>
</g>
<text transform="matrix(1 0 0 1 16.1514 37.2358)" class="st3 st1 st4">Carrier B</text>
<text transform="matrix(1 0 0 1 16.1514 40.6357)" class="st5 st1 st4">Company</text>
<text transform="matrix(1 0 0 1 16.1514 43.9358)" class="st5 st1 st4">Read </text>
<text transform="matrix(1 0 0 1 22.5514 43.9358)" class="st6 st1 st4">more</text>
<text transform="matrix(1 0 0 1 28.7514 43.9358)" class="st5 st1 st4"> about this carrier</text>
<circle class="st7" cx="8.8" cy="39.6" r="4.9"/>
<path class="st8" d="M75.2,45.8H61.6c-0.3,0-0.5-0.2-0.5-0.5v-5.2c0-0.3,0.2-0.5,0.5-0.5h13.6c0.3,0,0.5,0.2,0.5,0.5v5.2
	C75.7,45.6,75.5,45.8,75.2,45.8z"/>
<text transform="matrix(1 0 0 1 63.8828 43.8066)" class="st9 st1 st10">Select</text>
<circle class="st6" cx="71.2" cy="36" r="1.6"/>
<text transform="matrix(1.104 0 0 1 70.8848 36.9395)" class="st11 st1 st12">i</text>
<text transform="matrix(1 0 0 1 63.4238 36.6934)" class="st5 st1 st13">$128</text>
<g>
	<path d="M7.2,37.3c0.3-0.1,0.7-0.1,1.1-0.1c0.6,0,1,0.1,1.3,0.4c0.3,0.2,0.4,0.5,0.4,0.9c0,0.5-0.3,0.9-0.8,1.1l0,0
		c0.5,0.1,1,0.5,1,1.2c0,0.4-0.2,0.7-0.4,1C9.5,42,9,42.1,8.2,42.1c-0.4,0-0.8,0-1-0.1V37.3z M7.9,39.3h0.6c0.7,0,1-0.3,1-0.8
		c0-0.6-0.4-0.8-1.1-0.8c-0.3,0-0.5,0-0.6,0v1.6H7.9z M7.9,41.6c0.1,0,0.3,0,0.5,0c0.6,0,1.2-0.2,1.2-0.9S9,39.8,8.4,39.8H7.9V41.6z
		"/>
</g>
<text transform="matrix(1 0 0 1 16.1514 52.708)" class="st3 st1 st4">Carrier C</text>
<text transform="matrix(1 0 0 1 16.1514 56.108)" class="st5 st1 st4">Company</text>
<text transform="matrix(1 0 0 1 16.1514 59.408)" class="st5 st1 st4">Read </text>
<text transform="matrix(1 0 0 1 22.5514 59.408)" class="st6 st1 st4">more</text>
<text transform="matrix(1 0 0 1 28.7514 59.408)" class="st5 st1 st4"> about this carrier</text>
<circle class="st7" cx="8.8" cy="55" r="4.9"/>
<path class="st8" d="M75.2,61.3H61.6c-0.3,0-0.5-0.2-0.5-0.5v-5.2c0-0.3,0.2-0.5,0.5-0.5h13.6c0.3,0,0.5,0.2,0.5,0.5v5.2
	C75.7,61,75.5,61.3,75.2,61.3z"/>
<text transform="matrix(1 0 0 1 63.8828 59.2783)" class="st9 st1 st10">Select</text>
<circle class="st6" cx="71.2" cy="51.5" r="1.6"/>
<text transform="matrix(1.104 0 0 1 70.8848 52.4111)" class="st11 st1 st12">i</text>
<text transform="matrix(1 0 0 1 63.4238 52.165)" class="st5 st1 st13">$156</text>
<g>
	<path d="M10,57.4c-0.2,0.1-0.7,0.2-1.3,0.2c-1.4,0-2.4-0.9-2.4-2.4s1-2.5,2.5-2.5c0.6,0,1,0.1,1.1,0.2l-0.2,0.5
		c-0.2-0.1-0.6-0.2-1-0.2c-1.1,0-1.9,0.7-1.9,2c0,1.2,0.7,1.9,1.9,1.9c0.4,0,0.8-0.1,1-0.2L10,57.4z"/>
</g>
<text transform="matrix(1 0 0 1 16.1514 67.9561)" class="st3 st1 st4">Carrier D</text>
<text transform="matrix(1 0 0 1 16.1514 71.3561)" class="st5 st1 st4">Company</text>
<text transform="matrix(1 0 0 1 16.1514 74.6561)" class="st5 st1 st4">Read </text>
<text transform="matrix(1 0 0 1 22.5514 74.6561)" class="st6 st1 st4">more</text>
<text transform="matrix(1 0 0 1 28.7514 74.6561)" class="st5 st1 st4"> about this carrier</text>
<circle class="st7" cx="8.8" cy="70.3" r="4.9"/>
<path class="st8" d="M75.2,76.5H61.6c-0.3,0-0.5-0.2-0.5-0.5v-5.2c0-0.3,0.2-0.5,0.5-0.5h13.6c0.3,0,0.5,0.2,0.5,0.5V76
	C75.7,76.3,75.5,76.5,75.2,76.5z"/>
<text transform="matrix(1 0 0 1 63.8828 74.5264)" class="st9 st1 st10">Select</text>
<circle class="st6" cx="71.2" cy="66.7" r="1.6"/>
<text transform="matrix(1.104 0 0 1 70.8848 67.6602)" class="st11 st1 st12">i</text>
<text transform="matrix(1 0 0 1 63.4238 67.4131)" class="st5 st1 st13">$192</text>
<g>
	<path d="M7.1,67.7c0.4-0.1,0.8-0.1,1.3-0.1c0.9,0,1.5,0.2,2,0.6c0.4,0.4,0.7,0.9,0.7,1.7c0,0.8-0.2,1.4-0.7,1.9s-1.2,0.7-2.1,0.7
		c-0.4,0-0.8,0-1.1-0.1L7.1,67.7L7.1,67.7z M7.8,72c0.2,0,0.4,0,0.6,0c1.3,0,2.1-0.7,2.1-2c0-1.1-0.6-1.9-2-1.9
		c-0.3,0-0.6,0-0.7,0.1V72z"/>
</g>
<g>
	<path class="st14" d="M75,33.9c-0.3-0.5-0.6-0.9-0.9-1.4c-0.7-1.1-1.4-2.2-2.1-3.3c-0.2-0.4-0.5-0.7-0.7-1.1
		c-0.3-0.5-0.2-1.1,0.3-1.4c0.4-0.3,1-0.1,1.3,0.3c0.7,1,1.4,2,2.1,3c0,0,0,0.1,0.1,0.1c0.1-0.4,0.3-0.7,0.6-0.9
		c0.3-0.2,0.7-0.2,1.1,0c0.2-0.3,0.4-0.6,0.8-0.7s0.7-0.1,1,0.1l0.1-0.1c0.3-0.4,0.8-0.5,1.3-0.2c0.2,0.1,0.3,0.2,0.5,0.4
		c0.7,1,1.4,2.1,2.1,3.1c0.3,0.4,0.4,0.9,0.4,1.4c0,0.6-0.2,1.2-0.6,1.7c-1.2,1.7-2.9,2.5-5,2.3c-0.9-0.1-1.8-0.4-2.6-0.7
		c-0.6-0.2-1.2-0.4-1.9-0.6c-0.2-0.1-0.3-0.1-0.5-0.1s-0.4,0-0.6-0.1s-0.3-0.3-0.3-0.5c0-0.3,0.1-0.5,0.3-0.7c0.4-0.5,1-0.6,1.6-0.7
		c0.4-0.1,0.8,0,1.2,0.1C74.7,33.8,74.8,33.8,75,33.9z"/>
</g>
</svg>
