<?xml version="1.0" encoding="utf-8"?>
<!-- Generator: Adobe Illustrator 24.1.1, SVG Export Plug-In . SVG Version: 6.00 Build 0)  -->
<svg version="1.1" id="Layer_1" xmlns="http://www.w3.org/2000/svg" xmlns:xlink="http://www.w3.org/1999/xlink" x="0px" y="0px"
	 viewBox="0 0 84 84" style="enable-background:new 0 0 84 84;" xml:space="preserve">
<style type="text/css">
	.st0{fill:#FFA500;}
	.st1{opacity:0.1;fill:#FFA500;enable-background:new    ;}
	.st2{fill:#F2D497;enable-background:new    ;}
	.st3{fill:#F2D497;stroke:#F2D497;stroke-miterlimit:10;enable-background:new    ;}
</style>
<g>
	<g>
		<path class="st0" d="M7.8,76.2c1-1.4,1.9-2.6,2.8-3.8c1.4-1.9,2.5-4,2-6.4c-0.1-0.7-0.4-1.5-0.9-2c-2.8-3.3-5.5-6.6-7.4-10.5
			C-6.6,31.4,6.8,5.2,31.1,0.7c20.5-3.8,40.3,9.6,44.2,29.8c3.7,19.3-7.9,37.6-27,42.9c-7.2,2-14.3,1.8-21.4-0.4
			c-2.2-0.7-4.2-0.6-6.2,0.3c-3.9,1.8-8,2.5-12.2,3C8.4,76.2,8.2,76.2,7.8,76.2z M49.7,32.5c0.1-0.4,0.1-0.6,0.2-0.8
			c0.5-1.8,1.1-3.5,1.6-5.3c0.3-1.3,0.5-2.6,0.5-3.9c-0.1-2.9-2.6-5.1-5.4-5c-0.9,0-1.4,0.4-1.5,1.3C45,19.4,45,20,44.9,20.6
			c-0.4,3.3-1.5,6.3-4.1,8.7c-1.3,1.2-2.3,2.6-3.4,3.9c-0.5,0.6-1,1.2-1.6,1.6c-1.1,0.6-2.2,1.1-3.4,1.6c-1.1,0.4-1.8,1-1.8,2.2
			c0,0.4-0.1,0.7-0.1,1.1c0,5.2,0,10.4,0,15.6c0,0.3,0.1,0.7,0.1,0.9c1.7,0.2,3.3,0.3,4.9,0.5c5.2,0.7,10.4,1.4,15.6,2
			c4.8,0.5,7.2-1.9,7-6.6c0-0.3,0.2-0.6,0.4-0.8c1.2-1.3,1.7-2.8,1.2-4.4c-0.3-1-0.1-1.7,0.4-2.4c0.6-0.9,0.9-1.9,0.5-2.9
			c-0.5-1-0.2-1.4,0.7-2c1.7-1.2,2.2-3.2,1.5-4.9s-2.3-2.8-4.4-2.6C55.4,32.2,52.6,32.3,49.7,32.5z M28.5,48.2c0-2.5,0-5,0-7.5
			c0-2-1.7-4.4-3.7-4.9c-1.8-0.5-3.6-0.9-5.4-1.3c-2.3-0.4-3.9,0.8-4.3,3c-0.1,0.9-0.3,1.7-0.4,2.6c-0.8,4.3-1.2,8.6-0.7,13
			c0.3,2.7,1.5,3.8,4.2,4.1c3.2,0.4,6.3,0.2,9.5-0.3c0.6-0.1,0.8-0.3,0.8-0.9C28.5,53.4,28.5,50.8,28.5,48.2z"/>
		<path class="st1" d="M73,25c6.3,6.2,11.2,14.9,11.2,24.5C84.2,68.6,68.7,84,49.7,84c-10,0-19-5.3-25.3-12C24.4,72,78.6,85,73,25"
			/>
	</g>
	<g>
		<path class="st2" d="M32.1,6.3c0,0-3.7,10.1,8.5,8c0,0-10.4,0-8.7,9.3c0,0,2.7-11.1-9.4-7C22.5,16.6,32.3,17.5,32.1,6.3z"/>
		<path class="st2" d="M36,6.8c0,0,2.5,4.5,6.9,0c0,0-4.5,3.2,0,5.7c0,0-3.3-4.5-6.9,0.6C36,13.1,40.6,10.4,36,6.8z"/>
		<path class="st2" d="M35.4,17.2c0,0,2.5,4.5,6.9,0c0,0-4.5,3.2,0,5.7c0,0-3.3-4.5-6.9,0.6C35.4,23.5,40,20.8,35.4,17.2z"/>
		<path class="st2" d="M22.4,18.2c0,0,2.5,4.5,6.9,0c0,0-4.5,3.2,0,5.7c0,0-3.3-4.5-6.9,0.6C22.4,24.5,27,21.8,22.4,18.2z"/>
		<line class="st3" x1="20.4" y1="4.4" x2="29.2" y2="11.4"/>
		<line class="st3" x1="21.1" y1="16.1" x2="7" y2="16.3"/>
	</g>
</g>
</svg>
