<?xml version="1.0" encoding="utf-8"?>
<!-- Generator: Adobe Illustrator 24.1.1, SVG Export Plug-In . SVG Version: 6.00 Build 0)  -->
<svg version="1.1" id="Layer_1" xmlns="http://www.w3.org/2000/svg" xmlns:xlink="http://www.w3.org/1999/xlink" x="0px" y="0px"
	 viewBox="0 0 82.6 81.9" style="enable-background:new 0 0 82.6 81.9;" xml:space="preserve">
<style type="text/css">
	.st0{fill:none;stroke:#FFA500;stroke-width:2;stroke-miterlimit:10;}
	.st1{fill:#FFA500;}
</style>
<circle class="st0" cx="18.9" cy="15.6" r="8.7"/>
<g>
	<path d="M13.1,12.3l1-0.3c0.5-0.1,1,0,1.3,0.4l2.9,3.7c0.5,0.6,1.4,0.6,2,0L32.5,1.6c0.2-0.2,0.4-0.3,0.6-0.4l0,0
		c1.1-0.3,2,1,1.3,2L22.3,19.7c-0.2,0.2-0.4,0.4-0.7,0.5l-2.1,0.6c-0.4,0.1-0.9,0-1.2-0.3l-5.7-6C11.8,13.7,12.1,12.6,13.1,12.3z"/>
</g>
<circle class="st0" cx="18" cy="43.9" r="8.7"/>
<circle class="st0" cx="18" cy="71.9" r="8.7"/>
<path class="st1" d="M74.9,14.9h-35c-0.3,0-0.5-0.2-0.5-0.5l0,0c0-0.3,0.2-0.5,0.5-0.5h34.9c0.3,0,0.5,0.2,0.5,0.5l0,0
	C75.4,14.7,75.1,14.9,74.9,14.9z"/>
<path class="st1" d="M74.9,18.4h-35c-0.3,0-0.5-0.2-0.5-0.5l0,0c0-0.3,0.2-0.5,0.5-0.5h34.9c0.3,0,0.5,0.2,0.5,0.5l0,0
	C75.4,18.2,75.1,18.4,74.9,18.4z"/>
<path class="st1" d="M75.2,43.1h-35c-0.3,0-0.5-0.2-0.5-0.5l0,0c0-0.3,0.2-0.5,0.5-0.5h34.9c0.3,0,0.5,0.2,0.5,0.5l0,0
	C75.7,42.9,75.4,43.1,75.2,43.1z"/>
<path class="st1" d="M75.2,46.6h-35c-0.3,0-0.5-0.2-0.5-0.5l0,0c0-0.3,0.2-0.5,0.5-0.5h34.9c0.3,0,0.5,0.2,0.5,0.5l0,0
	C75.7,46.4,75.4,46.6,75.2,46.6z"/>
<path class="st1" d="M75.2,71.1h-35c-0.3,0-0.5-0.2-0.5-0.5l0,0c0-0.3,0.2-0.5,0.5-0.5h34.9c0.3,0,0.5,0.2,0.5,0.5l0,0
	C75.7,70.9,75.4,71.1,75.2,71.1z"/>
<path class="st1" d="M75.2,74.6h-35c-0.3,0-0.5-0.2-0.5-0.5l0,0c0-0.3,0.2-0.5,0.5-0.5h34.9c0.3,0,0.5,0.2,0.5,0.5l0,0
	C75.7,74.4,75.4,74.6,75.2,74.6z"/>
</svg>
