<?xml version="1.0" encoding="utf-8"?>
<!-- Generator: Adobe Illustrator 24.1.1, SVG Export Plug-In . SVG Version: 6.00 Build 0)  -->
<svg version="1.1" id="Layer_1" xmlns="http://www.w3.org/2000/svg" xmlns:xlink="http://www.w3.org/1999/xlink" x="0px" y="0px"
	 viewBox="0 0 62.4 63.8" style="enable-background:new 0 0 62.4 63.8;" xml:space="preserve">
<style type="text/css">
	.st0{fill:#737373;}
	.st1{fill:#FFA500;}
</style>
<path class="st0" d="M49,48l-3.3,3.3l-5.4,5.4c-0.6,0.6-1.3,1.2-1.9,1.8c-0.4,0.4-0.8,0.8-1.2,1.3c-0.1,0.1-0.2,0.1-0.3,0.1
	l-4.7-1.5c-1.3-0.4-2.6-0.8-3.8-1.3c-0.6-0.2-1.1-0.5-1.6-0.8L19,52c-0.9-0.5-1.8-1-2.8-1.5c-0.3-0.1-0.5-0.2-0.8-0.4
	c-1.1-0.7-1.4-2.1-0.8-3.2c0.6-0.9,1.7-1.3,2.7-1l6.5,2.1c0.3,0.1,0.5,0.1,0.7-0.2c0.2-0.2,0.1-0.5-0.1-0.7
	c-0.6-0.7-1.3-1.3-1.9-1.9L19.3,42l-6.9-7c-0.7-0.7-1.3-1.3-2-2c-0.8-0.9-0.7-2.3,0.2-3.1c0.8-0.7,2.1-0.7,2.9,0L27.6,44l0.2,0.2
	c0.2,0.2,0.5,0.2,0.7,0l0,0c0.2-0.2,0.2-0.5,0-0.7l0,0l-1-1l-6.3-6.3c-0.7-0.7-0.9-1.8-0.4-2.7s1.5-1.3,2.5-1.1
	c0.4,0.1,0.7,0.3,1,0.6c2.4,2.4,4.8,4.8,7.2,7.2l0.2,0.2c0.2,0.2,0.5,0.2,0.7,0l0,0c0.2-0.2,0.2-0.5,0-0.7l0,0l-1.8-1.8l-4.4-4.4
	c-0.8-0.9-0.8-2.3,0.1-3.1c0.8-0.7,1.9-0.8,2.8-0.2c0.5,0.4,0.9,0.8,1.3,1.2L32,33l3.9,3.9c0.2,0.2,0.4,0.3,0.6,0.2
	c0.2-0.1,0.3-0.3,0.3-0.5s-0.1-0.3-0.2-0.5c-1-1-2-2-3-3L32,31.5c-0.6-0.6-0.7-1.4-0.4-2.1c0.4-0.8,1.2-1.2,2.1-1.1
	c0.5,0.1,0.9,0.4,1.3,0.7l9.5,9.6c1,1,1.7,2.2,2.2,3.6c0.7,1.8,1.5,3.7,2.2,5.5C48.9,47.8,49,47.8,49,48z"/>
<path class="st0" d="M53.4,34.1c-2.1,0-4.2,0-6.3,0c-1.2,0.1-2.3-0.8-2.6-2c0-0.2-0.1-0.4-0.1-0.6c0-4.2,0-8.3,0-12.5
	c-0.1-1,0.4-1.9,1.3-2.5c0.4-0.2,0.8-0.3,1.2-0.4h13c1.4,0,2.4,1.2,2.4,2.5c0,4.3,0,8.6,0,12.9c0,1.4-1.1,2.5-2.5,2.5c0,0,0,0-0.1,0
	C57.7,34.1,55.5,34.1,53.4,34.1z M54,24.4l-2-2c-0.5-0.5-0.9-0.9-1.4-1.4c-0.3-0.3-0.8-0.3-0.9,0.1c-0.1,0.2,0,0.5,0.2,0.6
	c0.7,0.7,1.3,1.3,2,2l1.4,1.4l-0.2,0.2c-1.1,1.1-2.1,2.1-3.2,3.2c-0.2,0.2-0.3,0.5-0.1,0.7l0,0c0.2,0.2,0.5,0.2,0.7,0
	c0,0,0,0,0.1-0.1c0.8-0.8,1.6-1.6,2.4-2.4c0.3-0.3,0.7-0.7,1-1l1.1,1.2l2.2,2.2c0.1,0.2,0.3,0.3,0.5,0.2c0.2,0,0.4-0.2,0.4-0.4
	c0.1-0.2,0-0.4-0.2-0.6l-2.4-2.4c-0.3-0.3-0.7-0.6-1-1l0.1-0.1c1.1-1.1,2.2-2.2,3.3-3.3c0.2-0.2,0.3-0.5,0.1-0.7c0,0,0,0-0.1-0.1
	c-0.2-0.2-0.5-0.2-0.8,0.1l-1.6,1.6C55.1,23.2,54.5,23.8,54,24.4z"/>
<path class="st0" d="M17.9,32.8l-1.6-1.6l-2.1-2.1c-1.3-1.3-3.3-1.3-4.6,0s-1.3,3.3,0,4.6l0,0c0.1,0.1,0.2,0.1,0.3,0.2V34H9.7
	c-2.4,0-4.7,0-7,0c-1.1,0.1-2-0.6-2.4-1.6c-0.1-0.3-0.2-0.7-0.2-1c0-1.9,0-3.8,0-5.6v-7.1c0-1.4,1-2.6,2.4-2.6c0.1,0,0.1,0,0.2,0
	h12.6c1.4-0.1,2.6,1,2.6,2.4c0,0.1,0,0.2,0,0.2V32.8L17.9,32.8z M7.6,23.8l-0.2-0.3c-0.5-0.6-1-1.2-1.6-1.8c-0.8-0.7-2.1-0.8-2.9,0
	C2,22.5,2,23.8,2.8,24.6c0,0,0,0,0.1,0.1C3.9,25.9,5,27,6,28.2c0.7,0.9,2,1.1,2.9,0.4c0.2-0.1,0.3-0.3,0.4-0.4
	c1.1-1.3,2.3-2.7,3.4-4c0.7-0.8,1.4-1.5,2-2.4c0.7-0.9,0.5-2.1-0.4-2.8l0,0c-0.9-0.7-2.1-0.6-2.9,0.3l-2.5,3
	C8.5,22.7,8,23.2,7.6,23.8z"/>
<path class="st0" d="M31.9,25.1l3-3l0.4-0.4c0.2-0.2,0.2-0.5,0-0.7s-0.5-0.2-0.7,0l0,0l-2.1,2.1c-0.5,0.4-0.9,0.9-1.4,1.4
	c-0.3-0.3-0.6-0.7-0.9-1c-0.8-0.8-1.6-1.6-2.4-2.4c-0.1-0.1-0.3-0.2-0.5-0.2s-0.4,0.1-0.4,0.3c-0.1,0.2,0,0.4,0.2,0.6l3,3
	c0.1,0.1,0.2,0.2,0.4,0.4l-2,2.1c-0.5,0.4-0.9,0.9-1.3,1.3c-0.2,0.2-0.4,0.4-0.7,0.5c-1,0.5-1.7,1.5-1.8,2.6v0.2c0,0,0,0,0,0.1
	c-0.7-0.4-1.5-0.6-2.3-0.4V18.8c0-1.4,1.1-2.6,2.5-2.6H25h12.7c1.4,0,2.6,1.1,2.6,2.5v0.1v14c-0.1-0.1-0.1-0.1-0.2-0.2L36,28.4
	c-0.1-0.2-0.3-0.3-0.4-0.4c-0.3-0.3-0.6-0.5-1-0.6c-0.1,0-0.3-0.1-0.4-0.2L31.9,25.1z"/>
<path class="st1" d="M39.6,63.8l-2.4-2.4L50.5,48l2.4,2.4L39.6,63.8z"/>
<path class="st0" d="M34.8,6.3c0.7,0.5,1.2,1.2,1.4,2.1c0.4,2-0.8,3.9-2.7,4.3c-0.2,0.1-0.4,0.1-0.7,0.1c-1.7,0-3.3,0-5,0
	c-0.3,0-0.5-0.2-0.6-0.5c0,0,0,0,0-0.1s0-0.3,0-0.4V1.1c0-0.5,0.2-0.7,0.7-0.7h4.3c1.9,0,3.5,1.5,3.6,3.4c0,0.1,0,0.2,0,0.3
	C35.7,5,35.4,5.8,34.8,6.3z M28.3,11.8h0.2c1.4,0,2.9,0,4.3,0c1.1,0,2-0.7,2.3-1.7c0.4-1,0.1-2-0.7-2.7C34.1,7.1,33.7,7,33.3,7
	c-1.6,0-3.2,0-4.8,0h-0.3L28.3,11.8z M28.3,1.5v4.4h5c0.2,0,0.4-0.1,0.6-0.2c0.2-0.2,0.4-0.5,0.6-0.8c0.6-1.2,0.1-2.7-1.1-3.3
	c-0.3-0.2-0.7-0.2-1.1-0.2h-3.7L28.3,1.5z"/>
<path class="st0" d="M14.3,12.3c0,0.2-0.2,0.5-0.4,0.5c-0.3,0-0.5-0.1-0.6-0.4c-0.5-1.3-1-2.7-1.5-4c0-0.2-0.2-0.3-0.4-0.3
	c-1.6,0-3.1,0-4.7,0c-0.2,0-0.3,0.1-0.3,0.2l-1.5,4c-0.1,0.2-0.3,0.4-0.5,0.4c-0.3,0-0.5-0.2-0.5-0.5c0-0.1,0-0.2,0.1-0.3l0.9-2.3
	L8,1.2c0.1-0.5,0.6-0.9,1.2-0.8l0,0C9.6,0.5,9.9,0.7,10,1.1L11.9,6c0.8,2,1.5,4,2.3,5.9C14.2,12,14.3,12.1,14.3,12.3z M11.2,7.1
	L9,1.5L6.8,7.1H11.2z"/>
<path class="st0" d="M48,6.3c-0.1,2.8,2,5.3,4.8,5.7c0.9,0.1,1.8,0,2.7-0.4c0.5-0.2,0.9-0.5,1.3-0.8c0.2-0.2,0.6-0.2,0.8,0
	s0.1,0.6-0.1,0.7c0,0,0,0-0.1,0c-2.8,2.2-6.9,1.7-9.1-1.1s-1.7-6.9,1.1-9.1c0.7-0.6,1.6-1,2.5-1.2c2-0.5,4,0,5.6,1.3
	c0.2,0.2,0.3,0.5,0.1,0.7l0,0c-0.2,0.2-0.5,0.3-0.7,0.1c0,0,0,0-0.1-0.1c-0.6-0.5-1.3-0.8-2-1c-2.8-0.6-5.8,1.1-6.6,4
	c-0.1,0.2-0.1,0.4-0.1,0.6C48,5.9,48,6.1,48,6.3z"/>
<path class="st0" d="M31.2,25.9l1.5,1.5c-1.2,0.3-2.1,1.4-2.3,2.6c-0.5-0.6-1.2-1.1-2-1.3L31.2,25.9z"/>
<path class="st1" d="M7.7,28c-0.3,0-0.7-0.1-0.9-0.4L3.6,24c-0.4-0.4-0.4-1.1,0-1.5s1.1-0.4,1.5,0l0.1,0.1l2,2.3
	c0.2,0.3,0.5,0.3,0.7,0.2C8,25,8,24.9,8.1,24.8l4.1-4.9c0.4-0.4,1-0.5,1.5-0.1s0.5,1,0.1,1.5c-1.1,1.3-2.2,2.5-3.3,3.9
	c-0.6,0.8-1.3,1.5-1.9,2.3C8.4,27.7,8.1,27.9,7.7,28z"/>
</svg>
