<svg id="Layer_1" data-name="Layer 1" xmlns="http://www.w3.org/2000/svg" viewBox="0 0 82.58 81.95"><defs><style>.cls-1{fill:#448aff;}.cls-2{fill:#5f5f5f;}.cls-3{fill:orange;}</style></defs><path class="cls-1" d="M84,46.15a13,13,0,0,1-2.62,1.77C73,51.05,64.67,54.1,56.32,57.17c-2.2.8-4.41,1.57-6.59,2.42-1.7.67-2.75.12-3.39-1.52Q40.6,43.43,34.81,28.8c-.72-1.8-.1-2.82,1.67-3.46q15.95-5.84,31.86-11.75c1.89-.71,3-.21,3.69,1.65,3.75,9.64,7.56,19.24,11.34,28.86C83.56,44.59,83.68,45.1,84,46.15ZM50.76,32.63c4-1.55,7.69-2.94,11.33-4.51.42-.19.73-1.57.48-2.12a2.26,2.26,0,0,0-1.92-1q-5.46,1.77-10.77,3.95A2.36,2.36,0,0,0,49.16,31C49.29,31.59,50.15,32,50.76,32.63Z" transform="translate(-1.42 -1.45)"/><path class="cls-2" d="M33.58,79.28c1.14.06,1.91.13,2.68.13h43c.67,0,1.5-.2,2,.1C82,80,83,80.79,83,81.44s-1.07,1.37-1.82,1.82c-.44.26-1.17.07-1.78.07q-37.14,0-74.29,0c-1.51,0-3.63.48-3.69-1.84-.06-2.49,2.13-2,3.73-2.06,6.64,0,13.28,0,19.93,0,.71,0,1.43-.07,2.37-.12" transform="translate(-1.42 -1.45)"/><path class="cls-3" d="M45.39,65.22l25.93-9.54c2.9-1.07,5.81-2.11,8.71-3.2,1.29-.49,2.47-.51,3,1s-.42,2.23-1.69,2.7Q63.41,62.75,45.47,69.37c-2.21.82-2.95-.5-3.63-2.22Q32.21,42.61,22.53,18.09C21.12,14.5,19.65,11,18.34,7.33,17.79,5.8,17,5.5,15.47,5.78,11.21,6.56,7.61,8.24,5,11.88c-.46.64-1.85.62-2.81.9-.11-1-.64-2.23-.25-3C4.57,4.84,13.29.58,18.81,1.6A4.12,4.12,0,0,1,21.1,4c4.59,11.41,9.07,22.86,13.58,34.3q4.84,12.33,9.71,24.64C44.66,63.6,45,64.28,45.39,65.22Z" transform="translate(-1.42 -1.45)"/><circle class="cls-3" cx="29.66" cy="68.36" r="9.49"/></svg>