<?xml version="1.0" encoding="utf-8"?>
<!-- Generator: Adobe Illustrator 24.1.1, SVG Export Plug-In . SVG Version: 6.00 Build 0)  -->
<svg version="1.1" id="Layer_1" xmlns="http://www.w3.org/2000/svg" xmlns:xlink="http://www.w3.org/1999/xlink" x="0px" y="0px"
	 viewBox="0 0 84 84" style="enable-background:new 0 0 84 84;" xml:space="preserve">
<style type="text/css">
	.st0{fill:#FFA500;}
	.st1{fill:none;stroke:#FFA500;stroke-miterlimit:10;}
	.st2{fill:#FFFFFF;stroke:#FFA500;stroke-miterlimit:10;}
</style>
<g>
	<g>
		<path class="st0" d="M64.5,66.5c-0.4,0-0.7,0.1-1,0.1c-13.6,0-27.4,0-41,0c-0.9,0-1.8-0.2-2.6-0.5c-1.2-0.6-2-2-2.1-3.5
			c-0.4-3.5-0.6-7.1-1-10.9l5.1-0.9c5.2-0.8,10.4-1.6,15.5-2.5c3.5-0.6,6.3-3.1,9.1-5.7c5.1-4.8,11.3-7.5,17.7-7.5
			c1.2,0,2.8,0.1,3.5,1c1.3,1.7,1.4,4.1,0.8,6.4c-0.3,0.9-0.6,1.7-1,2.4c-1.6,3.3-3.2,6.5-3.8,10.3c-0.5,3.4-0.3,7,0.6,10.3
			C64.3,65.8,64.4,66.1,64.5,66.5z M18.2,56.8l10.3-1.6c2.3-0.4,4.6-0.9,6.9-1.1c3.9-0.4,7-2.7,10-5.5c5.1-4.9,11.2-7.7,17.7-7.9
			c1.5-0.1,3,0,4.4,0c0.4-3.1-0.4-4.3-2.7-4.3c-3.7,0-7.3,0.8-10.7,2.4c-3.1,1.4-5.7,3.7-8.3,6c-2.3,2.1-4.7,4.1-7.6,4.6
			c-4.9,0.9-9.9,1.6-14.9,2.4l-5.4,0.9L18.2,56.8z M59.3,62.7c0.1-0.5,0.1-0.6,0.1-0.8c0-0.2,0-0.4-0.1-0.6
			c-0.6-3.1-0.2-6.3,1.1-9.1c0.9-1.9,1.8-3.9,2.7-5.7c0.5-0.9,0.8-1.8-0.2-2.5c-0.9-0.6-1.6-0.1-1.9,1c-0.9,2.6-1.7,5.3-2.4,7.9
			C57.8,56.2,58.3,59.3,59.3,62.7z"/>
		<path class="st0" d="M21.6,47.7v-7.1c0-2.1,0.1-4.1,0-6.2c-0.1-1.3,0.1-2.3,1.5-2v-3h3.5c0-0.8,0.1-1.6,0.2-2.4
			c0.1-0.3,0.3-0.6,0.6-0.7c0.2-0.1,0.5,0.3,0.5,0.6c0.3,1.7,0.6,3.5,1,5.4l1.2,0.3v13.8L21.6,47.7z M23,40.6V43h2.6l-0.1-2.4H23z
			 M26.2,35.9v2.4h2.5v-2.4H26.2z"/>
		<path class="st0" d="M47.4,25.9c0,2.2,0,4.1,0,6c-0.1,0.3-0.2,0.4-0.3,0.6c-2.1,1-4.2,1.9-6.6,3c0-2.1,0-4,0-5.9
			c0-0.3,0.2-0.5,0.4-0.7C43,28,45.1,27,47.4,25.9z"/>
		<path class="st0" d="M47.4,17.7c0,2.1,0,3.9,0,5.7c-0.1,0.4-0.3,0.7-0.5,0.9c-2,1-4.1,1.9-6.4,3c0-2.1,0-4.1,0-6.1
			c0-0.2,0.3-0.5,0.5-0.6C43.1,19.7,45.1,18.7,47.4,17.7z"/>
		<path class="st0" d="M38.9,21.5c0,2.1,0,4,0,5.9c0,0.3-0.2,0.5-0.4,0.7c-2.1,1-4.2,2-6.6,3.1c0-2.1,0-4,0-5.9
			c0.1-0.3,0.2-0.5,0.4-0.7C34.5,23.6,36.6,22.6,38.9,21.5z"/>
		<path class="st0" d="M56,21.9c0,2.1,0,4,0,5.8c0,0.3-0.2,0.6-0.4,0.8c-2,0.9-4,1.8-6,2.7c-0.1,0.1-0.2-0.1-0.5-0.1
			c0-1.8,0-3.6,0-5.4c0.1-0.3,0.2-0.6,0.4-0.8C51.5,23.8,53.6,22.9,56,21.9z"/>
		<path class="st0" d="M32,39.6c0-2.1,0-4,0-5.8c0.1-0.3,0.2-0.6,0.4-0.8c2-1,4.1-1.9,6.4-3c0,2.2,0,4.1,0,6c0,0.2-0.1,0.4-0.2,0.5
			C36.5,37.5,34.4,38.5,32,39.6z"/>
		<path class="st0" d="M32,46c0-1.5,0-2.7,0-3.9c0-0.3,0.1-0.7,0.3-0.8c2.1-1,4.3-2,6.7-3.1c0,2.1,0.1,4-0.1,5.8
			c0,0.4-0.7,0.9-1.1,1C35.9,45.4,34,45.7,32,46z"/>
		<path class="st0" d="M17.4,48.3v-4c0-2.6,0.1-5.3-0.1-7.9c-0.1-1.6,0.3-2.4,1.6-2.7c0.4-0.1,0.8-0.3,1.1-0.5c0,0.8,0,1.4,0,2
			c0,3.5-0.1,7.1,0.1,10.6c0.1,1.6-0.2,2.5-1.7,2.3C18.1,48.2,17.8,48.2,17.4,48.3z"/>
		<path class="st0" d="M47.3,34.2c0.3,2.1,0.4,3.9-1.4,5.1c-1.8,1.2-3.4,2.8-5.4,4.6c0-2.4,0-4.4,0-6.3c0-0.2,0.3-0.5,0.5-0.5
			C43.1,36.2,45.1,35.2,47.3,34.2z"/>
		<path class="st0" d="M56,30c0,1.1,0,1.9,0,2.7c0,0.3-0.2,0.5-0.4,0.7c-2.2,1-4.4,2-6.6,3C49,36.4,49,36.4,49,36.3
			c-0.1-3-0.1-3,2.1-4.1C52.6,31.5,54.1,30.9,56,30z"/>
		<path class="st0" d="M57.4,21.8h5.1v6.3c-1.5,0-3.1,0-4.6,0c-0.2,0-0.5-0.5-0.5-0.8C57.4,25.5,57.4,23.7,57.4,21.8z M61.4,26.7
			v-3.5h-2.8C58.2,27.4,58.2,27.1,61.4,26.7z"/>
		<path class="st0" d="M57.5,32.9v-2.8h5.1v2c-0.4-0.1-0.7-0.2-1-0.3c-0.6-0.2-1.2-0.3-1.8-0.4c-0.8-0.1-1.3,0-1.4,1.1
			C58.3,32.7,57.8,32.8,57.5,32.9z"/>
	</g>
	<circle class="st1" cx="42" cy="42.1" r="41.5"/>
	<g>
		<circle class="st2" cx="13.8" cy="13.9" r="13.4"/>
		<g>
			<path d="M19.1,18.7v3H7.7c0.1-1.2,0.5-2.2,1.1-3.3c0.6-1,1.9-2.4,3.7-4.1c1.5-1.4,2.4-2.3,2.7-2.8c0.5-0.7,0.7-1.3,0.7-2
				c0-0.7-0.2-1.3-0.6-1.7c-0.4-0.4-0.9-0.6-1.6-0.6c-0.7,0-1.2,0.2-1.6,0.6C11.6,8.3,11.4,9,11.3,10L8,9.6c0.2-1.8,0.8-3.1,1.8-3.9
				c1-0.8,2.3-1.2,3.8-1.2c1.7,0,3,0.5,4,1.4c1,0.9,1.4,2,1.4,3.4c0,0.8-0.1,1.5-0.4,2.2c-0.3,0.7-0.7,1.4-1.3,2.2
				c-0.4,0.5-1.1,1.2-2.1,2.2c-1,0.9-1.7,1.6-2,1.9c-0.3,0.3-0.5,0.6-0.7,0.9H19.1z"/>
		</g>
	</g>
</g>
</svg>
