<svg id="Layer_1" data-name="Layer 1" xmlns="http://www.w3.org/2000/svg" xmlns:xlink="http://www.w3.org/1999/xlink" viewBox="0 0 63.36 62.66"><defs><style>.cls-1{fill:url(#linear-gradient);}.cls-2{fill:#737373;}.cls-3{fill:orange;}</style><linearGradient id="linear-gradient" x1="15.97" y1="4.12" x2="47.39" y2="58.54" gradientUnits="userSpaceOnUse"><stop offset="0" stop-color="#c4c4c4"/><stop offset="0.08" stop-color="#d5d5d5"/><stop offset="0.18" stop-color="#e6e6e6"/><stop offset="0.32" stop-color="#f2f2f2"/><stop offset="0.5" stop-color="#f9f9f9"/><stop offset="1" stop-color="#fbfbfb"/></linearGradient></defs><ellipse class="cls-1" cx="31.68" cy="31.33" rx="31.68" ry="31.33"/><path class="cls-2" d="M43.32,42l-2.16,2.08-3.53,3.41c-.39.38-.85.76-1.24,1.14a10.2,10.2,0,0,0-.79.82.23.23,0,0,1-.19.07l-3.08-1c-.85-.25-1.7-.51-2.48-.82a5.1,5.1,0,0,1-1.05-.51l-5.09-2.72c-.59-.31-1.18-.63-1.84-.94a2.11,2.11,0,0,1-.52-.26,1.49,1.49,0,0,1-.52-2,1.6,1.6,0,0,1,1.76-.63L26.84,42c.2.06.33.06.46-.13a.29.29,0,0,0,0-.42l0,0c-.4-.44-.85-.82-1.25-1.2l-2.09-2-4.51-4.42-1.31-1.26a1.37,1.37,0,0,1,.06-1.94l.07-.06a1.53,1.53,0,0,1,1.9,0l9.22,8.91.13.13a.34.34,0,0,0,.46,0h0a.31.31,0,0,0,0-.44h0l-.66-.63-4.12-4a1.43,1.43,0,0,1-.26-1.71,1.51,1.51,0,0,1,1.64-.69,1.31,1.31,0,0,1,.65.38L31.88,37l.13.12a.32.32,0,0,0,.45,0h0a.3.3,0,0,0,0-.42l0,0h0l-1.18-1.14L28.41,32.8a1.36,1.36,0,0,1,0-1.92.3.3,0,0,1,.08-.08,1.53,1.53,0,0,1,1.83-.12,10.24,10.24,0,0,1,.85.76l1,1L34.75,35c.13.13.26.19.4.13a.34.34,0,0,0,.19-.32.61.61,0,0,0-.13-.31l-2-1.9-1-1A1.16,1.16,0,0,1,32,30.27a1.33,1.33,0,0,1,1.38-.69,2.16,2.16,0,0,1,.85.44l6.21,6.07a6,6,0,0,1,1.43,2.27c.46,1.14,1,2.34,1.44,3.48C43.25,41.91,43.32,41.91,43.32,42Z" transform="translate(-0.06 0.27)"/><path class="cls-2" d="M46.19,33.25H42.08A1.65,1.65,0,0,1,40.38,32c0-.13-.07-.25-.07-.38v-7.9a1.66,1.66,0,0,1,.85-1.58,3.55,3.55,0,0,1,.78-.25h8.5A1.58,1.58,0,0,1,52,23.46v8.15a1.59,1.59,0,0,1-1.6,1.58h-.1C49,33.25,47.57,33.25,46.19,33.25Zm.4-6.13-1.31-1.26L44.36,25c-.19-.19-.52-.19-.58.07a.3.3,0,0,0,.13.38l1.3,1.26.92.89-.13.12-2.09,2c-.13.13-.2.32-.07.45h0a.34.34,0,0,0,.46,0l.06-.07,1.57-1.51.66-.64.72.76,1.43,1.39a.24.24,0,0,0,.33.13h0a.27.27,0,0,0,.26-.25c.07-.13,0-.26-.13-.38l-1.57-1.52a5.52,5.52,0,0,1-.65-.63l.06-.06L49.2,25.3c.13-.13.2-.32.07-.44l-.07-.07c-.13-.12-.33-.12-.52.07l-1,1A11,11,0,0,1,46.59,27.12Z" transform="translate(-0.06 0.27)"/><path class="cls-2" d="M23,32.43l-1-1L20.63,30.1a2.16,2.16,0,0,0-3,0,2,2,0,0,0-.08,2.83l.08.08h0c.07.06.13.06.2.13v.06H13.05a1.56,1.56,0,0,1-1.57-1,2.28,2.28,0,0,1-.13-.63v-8a1.59,1.59,0,0,1,1.54-1.64h8.4A1.57,1.57,0,0,1,23,23.33v9.1Zm-6.74-5.69-.13-.19c-.31-.39-.65-.77-1-1.13a1.43,1.43,0,0,0-1.9,0,1.23,1.23,0,0,0-.18,1.72l.11.11.07.06c.65.76,1.37,1.46,2,2.21a1.38,1.38,0,0,0,1.89.26,1.07,1.07,0,0,0,.26-.26L19.59,27a15.58,15.58,0,0,0,1.3-1.52,1.21,1.21,0,0,0-.17-1.7l-.09-.07h0a1.38,1.38,0,0,0-1.89.19L17.1,25.8a6.33,6.33,0,0,0-.85.94Z" transform="translate(-0.06 0.27)"/><path class="cls-2" d="M32.14,27.57l2-1.9.26-.25a.31.31,0,0,0,0-.44h0a.34.34,0,0,0-.46,0h0L32.53,26.3a9.56,9.56,0,0,0-.91.89c-.2-.19-.4-.45-.59-.64L29.46,25a.51.51,0,0,0-.33-.13c-.13,0-.26.06-.26.19a.46.46,0,0,0,.13.38l2,1.9.26.25L29.92,29a8.23,8.23,0,0,0-.85.82,1.29,1.29,0,0,1-.46.31,2.09,2.09,0,0,0-1.18,1.65V32a2.08,2.08,0,0,0-1.5-.26V23.58a1.65,1.65,0,0,1,1.63-1.64h8.37a1.65,1.65,0,0,1,1.7,1.58v8.91l-.13-.13-2.68-2.65c-.07-.13-.2-.19-.26-.25a1.37,1.37,0,0,0-.66-.4.5.5,0,0,1-.26-.13Z" transform="translate(-0.06 0.27)"/><path class="cls-3" d="M37.17,52,35.6,50.5,44.3,42l1.57,1.51Z" transform="translate(-0.06 0.27)"/><path class="cls-2" d="M34,15.68A2.22,2.22,0,0,1,35,17a2.27,2.27,0,0,1-1.72,2.71h-.05a1.14,1.14,0,0,1-.45.06H29.46a.4.4,0,0,1-.39-.31V12.4c0-.32.13-.44.45-.44h2.81a2.33,2.33,0,0,1,2.36,2.14v.19A2,2,0,0,1,34,15.68Zm-4.24,3.48H32.7a1.55,1.55,0,0,0,1.5-1.07,1.43,1.43,0,0,0-.46-1.71,1,1,0,0,0-.72-.25h-3.3Zm0-6.51v2.78H33a.93.93,0,0,0,.4-.12,4.91,4.91,0,0,0,.39-.51,1.55,1.55,0,0,0-.7-2.08h0a1.48,1.48,0,0,0-.72-.12H30Z" transform="translate(-0.06 0.27)"/><path class="cls-2" d="M20.63,19.48c0,.12-.13.31-.26.31a.35.35,0,0,1-.39-.25c-.33-.82-.65-1.71-1-2.53,0-.12-.13-.19-.26-.19H15.66c-.13,0-.19.07-.19.13l-1,2.53a.47.47,0,0,1-.33.25.31.31,0,0,1-.33-.29v0a.23.23,0,0,1,.07-.19l.59-1.45,2-5.31a.68.68,0,0,1,.79-.5h0a.61.61,0,0,1,.52.44L19,15.49c.53,1.27,1,2.53,1.51,3.73A.45.45,0,0,1,20.63,19.48Zm-2-3.29-1.44-3.54-1.44,3.54Z" transform="translate(-0.06 0.27)"/><path class="cls-2" d="M42.66,15.68a3.61,3.61,0,0,0,3.14,3.61A3.46,3.46,0,0,0,47.57,19a4,4,0,0,0,.85-.5.4.4,0,0,1,.52,0,.3.3,0,0,1,0,.42l0,0h-.06a4.36,4.36,0,0,1-6-.69,4,4,0,0,1,.55-5.63l.17-.13a4,4,0,0,1,1.63-.75,4.23,4.23,0,0,1,3.66.82c.13.12.2.31.07.44h0a.33.33,0,0,1-.46.06V13a3.39,3.39,0,0,0-1.31-.63,3.73,3.73,0,0,0-4.32,2.53.82.82,0,0,0-.06.38A.68.68,0,0,0,42.66,15.68Z" transform="translate(-0.06 0.27)"/><path class="cls-2" d="M31.68,28.07l1,.95a2.07,2.07,0,0,0-1.5,1.64,2.56,2.56,0,0,0-1.31-.82Z" transform="translate(-0.06 0.27)"/><path class="cls-3" d="M16.32,29.4a.73.73,0,0,1-.59-.26l-2.09-2.27a.68.68,0,0,1,0-.95.74.74,0,0,1,1,0l.06.07L16,27.44a.37.37,0,0,0,.46.13c.06-.07.06-.13.13-.19l2.68-3.1a.72.72,0,0,1,1-.06.61.61,0,0,1,.15.85l-.08.09c-.72.83-1.44,1.58-2.16,2.47-.39.5-.85.95-1.24,1.45A1.32,1.32,0,0,1,16.32,29.4Z" transform="translate(-0.06 0.27)"/></svg>