<svg id="Layer_1" data-name="Layer 1" xmlns="http://www.w3.org/2000/svg" viewBox="0 0 72.86 84"><defs><style>.cls-1{fill:#39559f;}.cls-2{fill:#fff;}</style></defs><path class="cls-1" d="M17.89,0a3.45,3.45,0,0,1,2.23,2.5q8.29,28.31,16.63,56.61c.07.24.12.47.17.66l-5.17,1.89Q23.64,34,15.44,6.19c-2,.58-4,1.17-5.93,1.72a4.23,4.23,0,0,1-1.44.21A2.74,2.74,0,0,1,5.59,5.77,2.68,2.68,0,0,1,7.42,2.82C9.26,2.21,11.13,1.71,13,1.15L16.74,0Z" transform="translate(-5.57)"/><path class="cls-1" d="M38.23,84a26.26,26.26,0,0,1-2.91-1,9.35,9.35,0,0,1,4.43-17.75,9.37,9.37,0,0,1,1.41,18.59c-.22,0-.42.11-.63.16Zm1.24-5.55a3.83,3.83,0,0,0,3.84-3.86,3.91,3.91,0,0,0-3.88-3.85,3.86,3.86,0,0,0-3.83,3.88A3.8,3.8,0,0,0,39.47,78.45Z" transform="translate(-5.57)"/><path class="cls-1" d="M47.52,62.91a4.55,4.55,0,0,1-4.38-3.47c-.93-3-1.81-6.07-2.7-9.11Q38,42.05,35.58,33.76c-.9-3.09.31-5.36,3.39-6.27L64.5,20a4.54,4.54,0,0,1,6.11,3.3q3.81,12.88,7.57,25.77A4.49,4.49,0,0,1,75,55Q62,58.86,49,62.64A13.07,13.07,0,0,1,47.52,62.91Z" transform="translate(-5.57)"/><path class="cls-1" d="M54.42,73.05,52.88,67.8l6.67-2c4.25-1.25,8.48-2.51,12.74-3.71A4.59,4.59,0,0,1,74.37,62a2.55,2.55,0,0,1,2,2.51,2.68,2.68,0,0,1-2,2.75C72,68,69.6,68.62,67.24,69.31L55.07,72.88Z" transform="translate(-5.57)"/><path class="cls-2" d="M39.47,78.45a3.8,3.8,0,0,1-3.87-3.83,3.86,3.86,0,0,1,3.83-3.88,3.91,3.91,0,0,1,3.88,3.85A3.83,3.83,0,0,1,39.47,78.45ZM41,74.62a1.6,1.6,0,1,0-3.19,0,1.6,1.6,0,1,0,3.19,0Z" transform="translate(-5.57)"/><path class="cls-1" d="M41,74.62A1.6,1.6,0,1,1,39.45,73,1.58,1.58,0,0,1,41,74.62Z" transform="translate(-5.57)"/></svg>