<?xml version="1.0" encoding="utf-8"?>
<!-- Generator: Adobe Illustrator 24.1.1, SVG Export Plug-In . SVG Version: 6.00 Build 0)  -->
<svg version="1.1" id="Layer_1" xmlns="http://www.w3.org/2000/svg" xmlns:xlink="http://www.w3.org/1999/xlink" x="0px" y="0px"
	 viewBox="0 0 84 84" style="enable-background:new 0 0 84 84;" xml:space="preserve">
<style type="text/css">
	.st0{fill:#191F33;}
	.st1{fill:#AF176A;}
	.st2{fill:#555554;}
	.st3{fill:#E2D5C0;}
	.st4{fill:#FAF9F1;}
	.st5{fill:#444954;}
	.st6{fill:#404040;}
	.st7{fill:#F9F9F8;}
	.st8{fill:#FDFDFD;}
	.st9{fill:#545554;}
	.st10{fill:#E9F2EA;}
	.st11{fill:#8722BC;}
	.st12{fill:#FBFBF9;}
	.st13{fill:#565655;}
	.st14{fill:#7A7258;}
	.st15{fill:#FFA500;}
	.st16{fill:#505050;}
	.st17{fill:#5B5B59;}
	.st18{fill:#575757;}
	.st19{fill:#DCDCDC;}
	.st20{fill:#F7F7F7;}
	.st21{fill:#F6F6F6;}
	.st22{fill:#F0D565;}
</style>
<g>
	<circle class="st0" cx="42" cy="42" r="42"/>
	<path class="st1" d="M0.1,42c0-23.2,18.8-42,42-42c12.3,0,23.3,5.3,31,13.7"/>
	<path class="st2" d="M26.2,24.3c0-0.9,0-1.9,0.1-2.8c0.2-1.5,1.4-2.5,3-2.5c5.1,0,10.1,0,15.2,0c1,0,2,0,3,0.1
		c1.4,0.2,2.4,1.4,2.4,2.8c0,0.8,0,1.6,0.1,2.5c0,0.2-0.1,0.4-0.1,0.6c0,6.8,0,13.5,0,20.3c-0.5,0-1,0-1.5,0c0-6.7,0-13.5,0-20.3
		c-1.5,0-3,0-4.4,0c0-0.5,0-1,0-1.4c-2,0-4,0-5.9,0c0,0.5,0,1,0,1.4c-3.3,0-6.6,0-9.9,0c-0.2,0-0.3,0-0.5,0.1
		c-0.1,0.1-0.2,0.2-0.2,0.3c0,2.4,0,4.8,0,7.2c0,1.7,0,3.4,0,5.1c0,0.4-0.1,0.5-0.5,0.5c-0.3,0-0.5,0.1-0.8,0.1c0,0,0-0.1,0-0.1
		C26.2,33.5,26.2,28.9,26.2,24.3z M36.4,21.7c0.2,0.3,0.3,0.7,0.4,0.7c0.8,0.1,1.6,0,2.5,0c0.1,0,0.2-0.2,0.2-0.4
		c0-0.1-0.1-0.3-0.2-0.3C38.4,21.7,37.5,21.7,36.4,21.7z"/>
	<path class="st2" d="M26.2,58c0-2.6,0-5.3,0-7.9c0.5,0,1,0,1.5,0c0,2.4,0,4.9,0,7.3c6.9,0,13.8,0,20.7,0c0-3.8,0-7.6,0-11.4
		c0.5,0,1,0,1.5,0c0,3.8,0,7.7,0,11.5c0,0.1,0,0.2,0,0.3c0,0.8,0,1.7,0,2.5c0,1.7-1.3,3-3,3c-5.9,0-11.7,0-17.6,0
		c-1.8,0-3.1-1.2-3.1-3.1C26.2,59.5,26.2,58.8,26.2,58z M38,61.8c0.9,0,1.5-0.6,1.5-1.5c0-0.7-0.8-1.5-1.5-1.4
		c-0.9,0.1-1.5,0.6-1.5,1.5C36.6,61.2,37.2,61.8,38,61.8z"/>
	<path class="st3" d="M58.1,46c-1.3,0-2.6,0-3.9,0c0-0.3,0-0.5,0-0.8c1.4,0,2.7,0,4.1,0c0.6,0,1.2,0,1.8,0c0.2,0.7,0.2,0.8-0.5,0.8
		C59.1,46,58.6,46,58.1,46z"/>
	<path class="st3" d="M48.3,46c0,3.8,0,7.6,0,11.4c-6.9,0-13.7,0-20.7,0c0-2.4,0-4.9,0-7.3c0.3,0,0.6,0,1,0c0.4,0,0.7,0.1,0.9,0.4
		c0.3,0.3,0.6,0.7,1,1c0,0,0.1,0,0.1,0c0-0.4,0-0.9,0-1.3c0.4,0,0.7,0,1,0c0.3,0,0.5-0.1,0.5-0.4c0-1.7,0-3.3,0-5c0-0.1,0-0.3,0-0.5
		c-1.5,0-3,0-4.4,0c0-1,0-2,0-2.9c1.4,0,2.9,0,4.3,0c0,0,0.1,0,0.1,0c1,0,1.9,0,2.9,0c0-1,0-1.9,0-2.9c-1,0-2,0-2.9,0
		c-0.2,0-0.4,0-0.5,0c-1.3,0-2.6,0-3.9,0c0,0,0,0,0-0.1c0,0,0-0.1,0-0.1c0-3,0-5.9,0-8.9c0-1.4,0-2.8,0-4.2c0.2,0,0.3-0.1,0.5-0.1
		c3.3,0,6.6,0,9.9,0c0,1.3,0,2.6,0,4c0,0.3,0.1,0.5,0.4,0.5c1.7,0,3.4,0,5.1,0c0.1,0,0.2,0,0.4,0c0-1.5,0-2.9,0-4.4
		c1.5,0,2.9,0,4.4,0c0,6.8,0,13.5,0,20.3c-0.2,0-0.3,0-0.5,0c-4.1,0-8.2,0-12.2,0c-0.2,0-0.3,0-0.5,0C34.9,46,34.9,46,35.6,46
		c1,0,1.9,0,2.9,0C41.8,46,45.1,46,48.3,46z M46.8,32.4c-0.1,0-0.2,0-0.4-0.1c-0.1,0-0.2,0-0.3,0c-0.5,0-1,0-1.4,0
		c-2.2,0-4.3,0-6.5,0c-0.1,0-0.2,0.1-0.3,0.1c0,2.9,0,5.7,0,8.6c0.1,0.1,0.3,0.1,0.4,0.1c2.6,0,5.2,0,7.8,0c0.2,0,0.3,0,0.5,0
		c0-0.1,0.1-0.2,0.1-0.3C46.9,38.1,46.8,35.2,46.8,32.4z M45.4,48.6c-2,0-3.9,0-5.9,0c0,2,0,3.9,0,5.9c2,0,3.9,0,5.9,0
		C45.4,52.5,45.4,50.6,45.4,48.6z M35,35.2c0-0.1,0.1-0.1,0.1-0.1c0-1.3,0-2.7,0-4c0-0.3-0.2-0.3-0.4-0.3c-1.2,0-2.4,0-3.7,0
		c-0.3,0-0.4,0.1-0.4,0.4c0,1.2,0,2.4,0,3.7c0,0.1,0,0.2,0,0.3C32.2,35.2,33.6,35.2,35,35.2z"/>
	<path class="st4" d="M48.3,46c-3.3,0-6.6,0-9.8,0c-1,0-1.9,0-2.9,0c-0.7,0-0.7,0-0.5-0.8c0.1,0,0.3,0,0.5,0c4.1,0,8.2,0,12.2,0
		c0.2,0,0.3,0,0.5,0c0.5,0,1,0,1.5,0c1,0,2,0,3,0c0,0.3,0,0.5,0,0.8c-1,0-2,0-3,0C49.3,46,48.8,46,48.3,46z"/>
	<path class="st5" d="M27.7,25c0,1.4,0,2.8,0,4.2c0,3,0,5.9,0,8.9c0,0,0,0,0,0c0,0,0,0,0,0.1c0,0,0,0,0,0.1c-0.5,0-1,0-1.5,0
		c0,0,0,0,0,0c0.3,0,0.5-0.1,0.8-0.1c0.4,0,0.5-0.1,0.5-0.5c0-1.7,0-3.4,0-5.1c0-2.4,0-4.8,0-7.2C27.5,25.2,27.6,25.1,27.7,25z"/>
	<path class="st6" d="M36.4,21.7c1.1,0,2,0,2.9,0c0.1,0,0.2,0.2,0.2,0.3c0,0.1-0.1,0.4-0.2,0.4c-0.8,0-2,0.1-2.8,0
		c-0.1,0-0.2-0.2-0.2-0.3C36.3,21.9,36.3,21.8,36.4,21.7z"/>
	<path class="st7" d="M27.7,44.1c1.5,0,2.9,0,4.4,0c0,0.2,0,0.3,0,0.5c0,1.7,0,3.3,0,5c0,0.4-0.1,0.5-0.5,0.4c-0.3,0-0.6,0-1,0
		c0,0.5,0,0.9,0,1.3c0,0-0.1,0-0.1,0c-0.3-0.3-0.7-0.6-1-1c-0.3-0.3-0.5-0.4-0.9-0.4c-0.3,0-0.6,0-1,0c-0.5,0-1,0-1.5,0
		c-1,0-1.9,0-2.9,0c0-2,0-3.9,0-6c1,0,1.9,0,2.9,0C26.7,44.1,27.2,44.1,27.7,44.1z M27.7,48c0.9,0,1.7,0,2.6,0
		c0.1,0,0.2-0.1,0.4-0.2c-0.1-0.1-0.2-0.2-0.3-0.2c-1.7,0-3.5,0-5.2,0c-0.1,0-0.2,0.1-0.3,0.2c0.1,0.1,0.2,0.2,0.3,0.2
		C25.9,48,26.8,48,27.7,48z M27.7,46.5c0.9,0,1.7,0,2.6,0c0.1,0,0.2-0.1,0.3-0.2c-0.1-0.1-0.2-0.2-0.3-0.2c-1.7,0-3.5,0-5.2,0
		c-0.1,0-0.2,0.1-0.3,0.2c0.1,0.1,0.2,0.2,0.3,0.2C25.9,46.5,26.8,46.5,27.7,46.5z M24.7,47.1c0,0,0.1,0.1,0.1,0.1
		c0.2,0,0.5,0,0.7,0c1.6,0,3.2,0,4.9,0c0.1,0,0.2-0.1,0.3-0.2c-0.1-0.1-0.2-0.2-0.2-0.2c-1.8,0-3.6,0-5.4,0
		C24.9,46.9,24.8,47.1,24.7,47.1z"/>
	<path class="st8" d="M24.7,41.2c-1.9,0-3.8,0-5.8,0c0-0.1-0.1-2-0.1-2.9c0,0,0-0.1,0-0.1c0,0,0.1,0,0.1,0c1.5,0,3,0,4.5,0
		c0.9,0,1.8,0,2.8,0c0.5,0,1,0,1.5,0c1.3,0,2.6,0,3.9,0c0.2,0,0.4,0,0.5,0c0,0.9,0,1.9,0,2.8c0,0-0.1,0.1-0.1,0.1
		c-1.4,0-2.9,0-4.3,0 M21.7,39.2c-0.2,0.3-0.3,0.4-0.3,0.6c0,0.1,0.3,0.4,0.3,0.3c0.2,0,0.4-0.2,0.4-0.4
		C22.2,39.6,21.9,39.4,21.7,39.2z M20.8,39.7c-0.3-0.2-0.4-0.4-0.5-0.4c-0.1,0-0.3,0.2-0.4,0.3c0.1,0.1,0.2,0.3,0.4,0.4
		C20.4,40.1,20.6,39.9,20.8,39.7z M23.8,39.7c-0.2-0.2-0.4-0.4-0.5-0.4c-0.1,0-0.4,0.2-0.4,0.4c0,0.1,0.2,0.3,0.4,0.4
		C23.4,40.1,23.5,39.9,23.8,39.7z M24.7,39.1c-0.2,0.3-0.3,0.4-0.3,0.6c0,0.1,0.2,0.3,0.3,0.4c0.1-0.1,0.3-0.2,0.3-0.4
		C25.1,39.6,24.9,39.4,24.7,39.1z M26.7,39.7c-0.3-0.1-0.4-0.3-0.6-0.3c-0.1,0-0.3,0.3-0.3,0.3c0.1,0.2,0.2,0.3,0.4,0.4
		C26.4,40.1,26.5,39.9,26.7,39.7z"/>
	<path class="st9" d="M26.1,41.2c0.5,0,1,0,1.5,0c0,1,0,2,0,2.9c-0.5,0-1,0-1.5,0c0-0.9,0-1.8,0-2.8C26.2,41.3,26.1,41.3,26.1,41.2z
		"/>
	<path class="st10" d="M18.8,38.3C18.8,38.4,18.9,38.3,18.8,38.3C18.9,38.3,18.8,38.4,18.8,38.3z"/>
	<path class="st6" d="M38,61.8c-0.9,0-1.4-0.6-1.4-1.5c0-0.8,0.6-1.4,1.5-1.5c0.6,0,1.5,0.8,1.5,1.4C39.5,61.2,38.9,61.8,38,61.8z"
		/>
	<path class="st11" d="M55.8,42.6c-1.5,0-3,0-4.5,0c0-0.5,0-0.9,0-1.4c0-0.9,0-1.8,0-2.7c0-0.3,0.1-0.4,0.4-0.4c1.2,0,2.5,0,3.7,0
		c0.2,0,0.4,0,0.4,0.3C55.8,39.9,55.8,41.2,55.8,42.6z M53.6,41.4c0.3-0.4,0.5-0.7,0.8-1c0.2-0.2,0.3-0.5,0-0.8
		c-0.3-0.3-0.5-0.1-0.8,0.1c-0.2-0.2-0.4-0.4-0.7-0.2c-0.3,0.2-0.2,0.5-0.1,0.8C53,40.7,53.3,41,53.6,41.4z"/>
	<path class="st2" d="M46.2,32.3c0.1,0,0.2,0,0.3,0c0.1,0,0.2,0.1,0.3,0.1c0,2.7,0,5.4,0,8.2c0,0.3-0.1,0.4-0.4,0.4
		c-2.6,0-5.1,0-7.7,0c-0.3,0-0.4-0.1-0.4-0.4c0-2.7,0-5.4,0-8.2c2.5,0,5,0,7.6,0C45.9,32.4,46,32.4,46.2,32.3z M42.6,39.6
		c0.1-0.3,0.2-0.6,0.4-0.7c0.4-0.2,0.3,0.4,0.7,0.4c0.1-0.1,0.3-0.2,0.4-0.2c0-0.3-0.1-0.6-0.1-0.8c0.2-0.4,0.5,0.1,0.8,0
		c0.1-0.1,0.2-0.3,0.2-0.4c-0.2-0.3-0.3-0.5-0.4-0.7c0.2-0.1,0.4-0.2,0.7-0.4c0-0.1,0-0.3,0-0.4c-0.3-0.1-0.6-0.2-0.7-0.4
		c-0.2-0.4,0.4-0.4,0.4-0.7c-0.1-0.1-0.2-0.3-0.2-0.4c-0.3,0-0.7,0.1-0.8,0c-0.1-0.1,0-0.5,0-0.8c-0.1,0-0.2-0.1-0.3-0.2
		c-0.2,0.2-0.4,0.4-0.6,0.4c-0.5,0-0.2-0.5-0.4-0.7c-0.2,0-0.4,0-0.5,0c-0.2,0.3-0.3,0.5-0.4,0.7c-0.2-0.1-0.4-0.3-0.7-0.4
		c-0.1,0.1-0.3,0.2-0.4,0.2c0,0.3,0.2,0.6,0.1,0.7c-0.2,0.4-0.5-0.1-0.8,0c-0.1,0.1-0.2,0.3-0.2,0.4c0.2,0.3,0.4,0.5,0.4,0.7
		c0,0.5-0.5,0.1-0.7,0.3c0,0.2,0,0.4,0,0.5c0.3,0.2,0.5,0.3,0.7,0.4c-0.1,0.2-0.3,0.4-0.4,0.7c0.1,0.1,0.1,0.2,0.2,0.3
		c0,0,0.1,0,0.1,0c0.2,0,0.5-0.1,0.7,0c0.4,0.2-0.1,0.5-0.1,0.8c0.1,0.1,0.3,0.2,0.4,0.2c0.3-0.2,0.5-0.3,0.7-0.4
		c0.1,0.2,0.2,0.4,0.4,0.7C42.3,39.6,42.5,39.6,42.6,39.6z"/>
	<path class="st12" d="M35,35.2c-1.4,0-2.8,0-4.3,0c0-0.1,0-0.2,0-0.3c0-1.2,0-2.4,0-3.7c0-0.3,0.1-0.4,0.4-0.4c1.2,0,2.4,0,3.7,0
		c0.2,0,0.4,0,0.4,0.3c0,1.3,0,2.7,0,4C35.1,35.2,35,35.2,35,35.2z M31.8,34.7c0.2-0.2,0.3-0.4,0.5-0.6c0.2-0.2,0.3-0.4,0.5-0.6
		c0.7,0.2,1.1,0.1,1.4-0.3c0.3-0.4,0.2-0.9-0.1-1.3c-0.3-0.3-0.8-0.4-1.2-0.2c-0.5,0.3-0.6,0.7-0.4,1.5c-0.4,0.3-0.7,0.7-1.1,1
		C31.4,34.4,31.5,34.5,31.8,34.7z"/>
	<path class="st13" d="M32.1,41.1c0-0.9,0-1.9,0-2.8c1,0,1.9,0,2.9,0c0,1,0,1.9,0,2.9C34.1,41.2,33.1,41.2,32.1,41.1
		C32.1,41.1,32.1,41.1,32.1,41.1z"/>
	<path class="st5" d="M38.2,32.4c0,2.7,0,5.4,0,8.2c0,0.3,0.1,0.4,0.4,0.4c2.6,0,5.1,0,7.7,0c0.3,0,0.4-0.1,0.4-0.4
		c0-2.7,0-5.4,0-8.2c0,0,0.1,0,0.1,0c0,2.8,0,5.6,0,8.5c0,0.1-0.1,0.2-0.1,0.3c-0.2,0-0.3-0.1-0.5-0.1c-2.7,0-5.5,0-8.2,0
		c0-2.9,0-5.7,0-8.6C38.1,32.4,38.1,32.4,38.2,32.4z"/>
	<path class="st14" d="M38,41.1c2.7,0,5.5,0,8.2,0c0.2,0,0.3,0.1,0.5,0.1c-0.2,0-0.3,0-0.5,0c-2.6,0-5.2,0-7.8,0
		C38.3,41.2,38.2,41.1,38,41.1z"/>
	<path class="st14" d="M38.2,32.4c0,0-0.1,0-0.1,0c0.1,0,0.2-0.1,0.3-0.1c2.2,0,4.3,0,6.5,0c0.5,0,1,0,1.4,0c-0.2,0-0.3,0.1-0.5,0.1
		C43.2,32.4,40.7,32.4,38.2,32.4z"/>
	<path class="st14" d="M46.8,32.4c0,0-0.1,0-0.1,0c-0.1,0-0.2-0.1-0.3-0.1C46.6,32.4,46.7,32.4,46.8,32.4z"/>
	<path class="st10" d="M32.1,41.1C32.1,41.1,32.1,41.1,32.1,41.1C32.1,41.2,32,41.2,32.1,41.1C32,41.1,32.1,41.1,32.1,41.1z"/>
	<path class="st2" d="M27.6,38.2C27.6,38.1,27.6,38.1,27.6,38.2C27.6,38.1,27.6,38.1,27.6,38.2C27.6,38.1,27.6,38.1,27.6,38.2z"/>
	<path class="st15" d="M40.9,28.2c-0.4-0.7-0.7-1.4-1.1-2.2c-0.2-0.4,0.1-0.9,0.5-1.2c0.4-0.3,0.9-0.3,1.3,0
		c0.4,0.3,0.7,0.7,0.5,1.2c-0.3,0.7-0.7,1.4-1,2.2C41.1,28.2,41,28.2,40.9,28.2z M41.5,26c0-0.1,0-0.1,0-0.2
		c-0.2-0.1-0.3-0.3-0.5-0.3c-0.2,0-0.4,0.3-0.4,0.4c0,0.2,0.2,0.4,0.4,0.4C41.2,26.3,41.4,26.1,41.5,26z"/>
	<path class="st16" d="M27.7,48c-0.9,0-1.7,0-2.6,0c-0.1,0-0.2-0.1-0.3-0.2c0.1-0.1,0.2-0.2,0.3-0.2c1.7,0,3.5,0,5.2,0
		c0.1,0,0.2,0.1,0.3,0.2c-0.1,0.1-0.2,0.2-0.4,0.2C29.4,48,28.5,48,27.7,48z"/>
	<path class="st17" d="M27.7,46.5c-0.9,0-1.8,0-2.6,0c-0.1,0-0.2-0.1-0.3-0.2c0.1-0.1,0.2-0.2,0.3-0.2c1.7,0,3.5,0,5.2,0
		c0.1,0,0.2,0.1,0.3,0.2c-0.1,0.1-0.2,0.2-0.3,0.2C29.4,46.5,28.6,46.5,27.7,46.5z"/>
	<path class="st18" d="M24.7,47.1c0.1-0.1,0.2-0.2,0.3-0.2c1.8,0,3.6,0,5.4,0c0.1,0,0.2,0.1,0.2,0.2c-0.1,0.1-0.2,0.2-0.3,0.2
		c-1.6,0-3.2,0-4.9,0c-0.2,0-0.5,0-0.7,0C24.8,47.2,24.7,47.2,24.7,47.1z"/>
	<path class="st19" d="M21.7,39.2c0.2,0.3,0.4,0.4,0.4,0.5c0,0.1-0.2,0.3-0.4,0.4c-0.1,0-0.3-0.2-0.3-0.3
		C21.4,39.6,21.6,39.4,21.7,39.2z"/>
	<path class="st19" d="M20.8,39.7c-0.3,0.2-0.4,0.4-0.5,0.3c-0.2,0-0.3-0.2-0.4-0.4c0.1-0.1,0.3-0.3,0.4-0.3
		C20.5,39.4,20.6,39.5,20.8,39.7z"/>
	<path class="st19" d="M23.8,39.7c-0.2,0.2-0.4,0.4-0.5,0.4c-0.1,0-0.4-0.2-0.4-0.4c0-0.1,0.2-0.3,0.4-0.4
		C23.4,39.3,23.5,39.5,23.8,39.7z"/>
	<path class="st19" d="M24.7,39.1c0.2,0.3,0.4,0.4,0.4,0.6c0,0.1-0.2,0.2-0.3,0.4c-0.1-0.1-0.3-0.2-0.3-0.4
		C24.4,39.6,24.6,39.4,24.7,39.1z"/>
	<path class="st19" d="M26.7,39.7c-0.2,0.2-0.4,0.4-0.5,0.4c-0.2,0-0.3-0.2-0.4-0.4c0-0.1,0.2-0.3,0.3-0.3
		C26.3,39.4,26.5,39.5,26.7,39.7z"/>
	<path class="st20" d="M42.6,39.6c-0.1,0-0.3,0-0.4,0c-0.1-0.3-0.3-0.5-0.4-0.7c-0.2,0.1-0.4,0.3-0.7,0.4c-0.1,0-0.2-0.1-0.4-0.2
		c-0.1-0.3,0.4-0.6,0.1-0.8c-0.2-0.1-0.5,0-0.7,0c0,0-0.1,0-0.1,0c-0.1-0.2-0.2-0.3-0.2-0.3c0.2-0.3,0.3-0.5,0.4-0.7
		c-0.2-0.1-0.4-0.2-0.7-0.4c0-0.1,0-0.3,0-0.5c0.2-0.2,0.7,0.1,0.7-0.3c0-0.2-0.2-0.4-0.4-0.7c0-0.1,0.1-0.2,0.2-0.4
		c0.3-0.1,0.6,0.5,0.8,0c0.1-0.2,0-0.4-0.1-0.7c0.1-0.1,0.3-0.2,0.4-0.2c0.3,0.2,0.5,0.3,0.7,0.4c0.1-0.2,0.3-0.4,0.4-0.7
		c0.1,0,0.3,0,0.5,0c0.2,0.2-0.1,0.7,0.4,0.7c0.2,0,0.4-0.3,0.6-0.4c0.1,0.1,0.3,0.2,0.3,0.2c0,0.3-0.1,0.7,0,0.8
		c0.1,0.1,0.5,0,0.8,0c0,0.1,0.1,0.2,0.2,0.4c-0.1,0.3-0.7,0.3-0.4,0.7c0.1,0.2,0.4,0.2,0.7,0.4c0,0.1,0,0.3,0,0.4
		c-0.3,0.2-0.5,0.3-0.7,0.4c0.1,0.2,0.3,0.4,0.4,0.7c0,0.1-0.1,0.3-0.2,0.4c-0.3,0.1-0.6-0.4-0.8,0c-0.1,0.2,0,0.4,0.1,0.8
		c-0.1,0-0.2,0.1-0.4,0.2c-0.3-0.1-0.3-0.7-0.7-0.4C42.8,39.1,42.8,39.4,42.6,39.6z M41.3,36.8c0,0.6,0.5,1.1,1.1,1.1
		c0.6,0,1.1-0.5,1.1-1.1c0-0.6-0.5-1.2-1.1-1.1C41.8,35.6,41.3,36.1,41.3,36.8z"/>
	<path class="st20" d="M42.3,52.6c-0.3,0-0.7,0-1,0c-0.3,0-0.6-0.1-0.6-0.4c0-0.2,0.2-0.4,0.3-0.6c0.1-0.1,0.2-0.2,0.2-0.4
		c0.3-0.8,1.2-1,1.8-0.4c0.1,0.1,0.3,0.2,0.4,0.2c0.4,0.1,0.7,0.4,0.7,0.8c0,0.4-0.3,0.8-0.8,0.8C43,52.6,42.7,52.6,42.3,52.6
		C42.3,52.6,42.3,52.6,42.3,52.6z"/>
	<path class="st17" d="M31.8,34.7c-0.2-0.2-0.3-0.3-0.5-0.4c0.4-0.4,0.7-0.7,1.1-1c-0.2-0.8-0.1-1.2,0.4-1.5
		c0.4-0.2,0.9-0.1,1.2,0.2c0.3,0.3,0.4,0.9,0.1,1.3c-0.3,0.5-0.7,0.6-1.4,0.3c-0.2,0.2-0.3,0.4-0.5,0.6
		C32.1,34.3,31.9,34.5,31.8,34.7z M33.3,32c-0.3,0-0.6,0.3-0.7,0.6c0,0.3,0.3,0.6,0.6,0.7c0.4,0,0.7-0.3,0.7-0.7
		C33.9,32.3,33.6,32,33.3,32z"/>
	<path class="st21" d="M41.5,26c-0.2,0.1-0.4,0.3-0.5,0.3c-0.2,0-0.4-0.3-0.4-0.4c0-0.1,0.3-0.4,0.4-0.4c0.2,0,0.3,0.2,0.5,0.3
		C41.5,25.8,41.5,25.9,41.5,26z"/>
	<path class="st18" d="M41.3,36.8c0-0.6,0.5-1.1,1.1-1.1c0.6,0,1.2,0.5,1.1,1.1c0,0.6-0.5,1.1-1.1,1.1
		C41.8,37.9,41.3,37.4,41.3,36.8z"/>
	<path class="st22" d="M33.3,32c0.3,0,0.6,0.3,0.6,0.6c0,0.4-0.3,0.7-0.7,0.7c-0.3,0-0.6-0.3-0.6-0.7C32.6,32.3,32.9,32,33.3,32z"/>
</g>
</svg>
