<?xml version="1.0" encoding="utf-8"?>
<!-- Generator: Adobe Illustrator 24.1.1, SVG Export Plug-In . SVG Version: 6.00 Build 0)  -->
<svg version="1.1" id="Layer_1" xmlns="http://www.w3.org/2000/svg" xmlns:xlink="http://www.w3.org/1999/xlink" x="0px" y="0px"
	 viewBox="0 0 84 84" style="enable-background:new 0 0 84 84;" xml:space="preserve">
<style type="text/css">
	.st0{fill:#F9BA8F;}
	.st1{fill:#FD995B;}
	.st2{fill:#FFA500;}
	.st3{fill:#241B51;}
	.st4{fill:#F79A54;}
	.st5{fill:#FCAD6D;}
</style>
<g>
	<path class="st0" d="M70.9,61.5c-0.3-1.2-0.5-2.5-0.4-3.8l0.6-5.8c0.3-3.7-0.3-7.3-1.9-10.7c-4.3-8.5-3.3-9.2-3.5-17.6
		c0-1.7-1.4-3.1-3.2-3.1c-1.8,0-3.2,1.4-3.2,3.1c0,34.5,0.1,31.9-0.2,32.9v4.5c0,3.8-3.2,6.9-7.1,6.9c-2.6,0-11.6,0-17.7,0
		c2.7,3.7,6.4,6.5,10.7,8.3c0,0,0.1,0,0.1,0c3.3,1.4,7.1,4.1,7.7,7.5L53,84c8.8-1,16.7-4.8,22.7-10.4L70.9,61.5z"/>
	<g>
		<path class="st1" d="M71.4,63.1c-1.3,8.6-8.9,15.2-18.1,15.2c-1.6,0-3.1-0.2-4.6-0.6c2.4,1.4,4.6,3.6,5.1,6l0.1,0.2
			c8.4-0.9,16-4.6,21.8-10L71.4,63.1z"/>
	</g>
</g>
<g>
	<g>
		<path class="st2" d="M58.9,50.3v13.4c0,2.5-2,4.5-4.5,4.5H27.6c-2.5,0-4.5-2-4.5-4.5V5.6c0-2.5,2-4.5,4.5-4.5h26.9
			c2.5,0,4.5,2,4.5,4.5v44.6"/>
		<g>
			<path class="st3" d="M35.4,62.7h-7.8c-0.6,0-1.1,0.5-1.1,1.1c0,0.6,0.5,1.1,1.1,1.1h7.8c0.6,0,1.1-0.5,1.1-1.1
				C36.5,63.2,36,62.7,35.4,62.7z"/>
			<path class="st3" d="M39.8,62.7h-1.1c-0.6,0-1.1,0.5-1.1,1.1c0,0.6,0.5,1.1,1.1,1.1h1.1c0.6,0,1.1-0.5,1.1-1.1
				C40.9,63.2,40.4,62.7,39.8,62.7z"/>
			<path class="st3" d="M60,10.1V5.6C60,2.5,57.5,0,54.4,0H27.6C24.5,0,22,2.5,22,5.6v58.2c0,3.1,2.5,5.6,5.6,5.6h26.9
				c3.1,0,5.6-2.5,5.6-5.6V50.3c0-0.1,0-0.2,0-0.3 M57.8,63.8c0,1.9-1.5,3.4-3.4,3.4H27.6c-1.9,0-3.4-1.5-3.4-3.4V5.6
				c0-1.9,1.5-3.4,3.4-3.4h5.8l0.9,3.6c0.1,0.5,0.6,0.8,1.1,0.8h11.2c0.5,0,1-0.3,1.1-0.8l0.9-3.6h5.8c1.9,0,3.4,1.5,3.4,3.4v4.5
				V63.8z"/>
		</g>
	</g>
	<g>
		<g>
			<path class="st4" d="M32.8,18.2h-4.1c-1.1,0-2-0.9-2-2V12c0-1.1,0.9-2,2-2h4.1c1.1,0,2,0.9,2,2v4.1
				C34.8,17.2,33.9,18.2,32.8,18.2z"/>
			<path class="st5" d="M43.1,18.2H39c-1.1,0-2-0.9-2-2V12c0-1.1,0.9-2,2-2h4.1c1.1,0,2,0.9,2,2v4.1C45.1,17.2,44.2,18.2,43.1,18.2z
				"/>
			<path class="st0" d="M53.3,18.2h-4.1c-1.1,0-2-0.9-2-2V12c0-1.1,0.9-2,2-2h4.1c1.1,0,2,0.9,2,2v4.1
				C55.3,17.2,54.4,18.2,53.3,18.2z"/>
		</g>
		<g>
			<path class="st0" d="M32.9,28.7h-4.1c-1.1,0-2-0.9-2-2v-4.1c0-1.1,0.9-2,2-2h4.1c1.1,0,2,0.9,2,2v4.1
				C35,27.8,34.1,28.7,32.9,28.7z"/>
			<path class="st5" d="M43.2,28.7h-4.1c-1.1,0-2-0.9-2-2v-4.1c0-1.1,0.9-2,2-2h4.1c1.1,0,2,0.9,2,2v4.1
				C45.3,27.8,44.4,28.7,43.2,28.7z"/>
			<path class="st4" d="M53.4,28.7h-4.1c-1.1,0-2-0.9-2-2v-4.1c0-1.1,0.9-2,2-2h4.1c1.1,0,2,0.9,2,2v4.1
				C55.5,27.8,54.6,28.7,53.4,28.7z"/>
		</g>
		<g>
			<path class="st4" d="M32.8,39.5h-4.1c-1.1,0-2-0.9-2-2v-4.1c0-1.1,0.9-2,2-2h4.1c1.1,0,2,0.9,2,2v4.1
				C34.8,38.5,33.9,39.5,32.8,39.5z"/>
			<path class="st5" d="M43,39.5h-4.1c-1.1,0-2-0.9-2-2v-4.1c0-1.1,0.9-2,2-2H43c1.1,0,2,0.9,2,2v4.1C45.1,38.5,44.2,39.5,43,39.5z"
				/>
			<path class="st0" d="M53.3,39.5h-4.1c-1.1,0-2-0.9-2-2v-4.1c0-1.1,0.9-2,2-2h4.1c1.1,0,2,0.9,2,2v4.1
				C55.3,38.5,54.4,39.5,53.3,39.5z"/>
		</g>
	</g>
</g>
<g>
	<path class="st0" d="M22.3,15l-1.1-1c-1.7-1.6-4.3-1.5-5.9,0.2c-1.6,1.7-1.5,4.3,0.2,5.9l6.8,6.3V15z"/>
	<path class="st5" d="M17.7,17c-1-1-1.5-2.3-1.3-3.6c-0.4,0.2-0.8,0.5-1.2,0.9c-1.6,1.7-1.5,4.3,0.2,5.9l6.8,6.3v-5.2L17.7,17z"/>
	<path class="st0" d="M28.4,37.1c-1.4,1.5-3.7,1.6-5.2,0.2l-6.1-5.7c-1.5-1.4-1.6-3.7-0.2-5.2c1.4-1.5,3.7-1.6,5.2-0.2l6.1,5.7
		C29.7,33.3,29.7,35.6,28.4,37.1z"/>
	<path class="st5" d="M25.7,34.7L19.6,29c-1-1-1.4-2.4-1.1-3.6c-0.6,0.2-1.2,0.5-1.7,1c-1.4,1.5-1.3,3.8,0.2,5.2l6.1,5.7
		c1.5,1.4,3.8,1.3,5.2-0.2c0.4-0.5,0.7-1,0.9-1.6C28,35.9,26.7,35.6,25.7,34.7L25.7,34.7z"/>
	<g>
		<path class="st0" d="M28.4,57.1c-1.4,1.5-3.7,1.6-5.2,0.2l-6.1-5.7c-1.5-1.4-1.6-3.7-0.2-5.2c1.4-1.5,3.7-1.6,5.2-0.2l6.1,5.7
			C29.7,53.3,29.7,55.6,28.4,57.1z"/>
	</g>
	<path class="st5" d="M25.7,54.7L19.6,49c-1-1-1.4-2.4-1.1-3.6c-0.6,0.2-1.2,0.5-1.7,1c-1.4,1.5-1.3,3.8,0.2,5.2l6.1,5.7
		c1.5,1.4,3.8,1.3,5.2-0.2c0.4-0.5,0.7-1,0.9-1.6C28,55.8,26.7,55.6,25.7,54.7z"/>
	<path class="st0" d="M28.4,47.1c-1.4,1.5-3.7,1.6-5.2,0.2l-6.1-5.7c-1.5-1.4-1.6-3.7-0.2-5.2c1.4-1.5,3.7-1.6,5.2-0.2l6.1,5.7
		C29.7,43.3,29.7,45.6,28.4,47.1z"/>
	<path class="st5" d="M25.7,44.7L19.6,39c-1-1-1.4-2.4-1.1-3.6c-0.6,0.2-1.2,0.5-1.7,1c-1.4,1.5-1.3,3.8,0.2,5.2l6.1,5.7
		c1.5,1.4,3.8,1.3,5.2-0.2c0.4-0.5,0.7-1,0.9-1.6C28,45.9,26.7,45.6,25.7,44.7z"/>
</g>
</svg>
