<?xml version="1.0" encoding="utf-8"?>
<!-- Generator: Adobe Illustrator 24.1.1, SVG Export Plug-In . SVG Version: 6.00 Build 0)  -->
<svg version="1.1" id="Layer_1" xmlns="http://www.w3.org/2000/svg" xmlns:xlink="http://www.w3.org/1999/xlink" x="0px" y="0px"
	 viewBox="0 0 1920 800" style="enable-background:new 0 0 1920 800;" xml:space="preserve">
<style type="text/css">
	.st0{fill:#B4DCBF;}
	.st1{fill:#353535;}
	.st2{fill:#595B5C;}
	.st3{fill:#E58F05;}
	.st4{fill:#5B200D;}
	.st5{fill:#BB9064;}
	.st6{fill:#997253;}
	.st7{fill:#B8C9BC;}
	.st8{fill:#DCBB8F;}
	.st9{fill:#B42238;}
	.st10{fill:#E5CEAB;}
	.st11{fill:#9FBDA4;}
	.st12{fill:#FFA500;}
	.st13{fill:#875F4B;}
	.st14{fill:#B5C6BC;}
	.st15{fill:#F2C1B1;}
	.st16{fill:#CBDFD2;}
	.st17{fill:#ACBD81;}
	.st18{fill:#D3E9DA;}
	.st19{fill:#FCFCFC;}
	.st20{fill:#E0DCD6;}
	.st21{fill:#A3DEF8;}
	.st22{fill:#C6DF94;}
	.st23{fill:#F0F0F2;}
	.st24{fill:#FDFDFD;}
	.st25{opacity:0.75;enable-background:new    ;}
</style>
<g>
	<path class="st0" d="M1095,318.2c0-3.2,0.1-6.5-0.1-9.7c-0.1-1.1-0.6-2.5-1.4-3.2c-2.3-1.9-4-3.9-3.9-7.1c0-0.9-1.2-1.9-1.8-2.9
		c-0.1-5.6-0.1-11.1-0.1-16.7c0-0.2,0-0.4,0-0.7c0-0.4,0-0.8,0-1.2c-0.1-0.4-0.3-0.9-0.5-1.3c-0.2-0.1-0.4-0.1-0.6-0.1
		c-0.3-0.5-0.5-1.1-0.8-1.6c1-2,2-4,3-6c1.1-2.2,1.4-4.6,0.6-7.1c-1.2,1.1-2,2.5-2.9,3.7c-1.7,2.1-3.6,4.2-5.4,6.3
		c-1.2-0.4-2.5-0.9-3.7-1.3c0.5-2.4,1.5-4.3,4-5.4c0.6-0.2,0.8-1.6,1.2-2.3c0.8-1.6,1.4-3.3,2.5-4.7c1.5-1.9,3.4-3.4,5.1-5.1
		c1.4-1.3,2.9-2.4,1.2-4.7c-0.4-0.5,0.7-2.5,1.6-3.3c2.2-2.1,5.4-3,5.6-7c0-1,3.1-2.2,4.9-2.8c11.2-3.5,21.2-8.9,29.5-16.9
		c0.4-0.4,0.6-0.7,1.4-1.7c-2,0-3.5,0.2-4.9-0.1c-0.9-0.2-2.2-0.8-2.5-1.6c-0.3-0.6,0.5-1.9,1.2-2.5c3.1-2.5,6.4-4.8,9.5-7.4
		c3-2.5,3.2-4.7,0.8-7.9c-1.2-1.6-2.7-2.9-4.2-4.2c-0.8-0.7-9-3.6-10.3-3.8c-1-0.2-2-0.2-2.8-0.7c-3.4-1.8-6.7-0.8-10.2-0.7
		c-3.7,0.1-7.5-1.2-11.1-2.3c-4.8-1.4-9.5-3-14.4-4.6c0.2-2.6,2.5-2.6,4-2.6c2.9,0,5.8,0.5,8.6,0.8c1.4,0.1,2.7,0.2,3.9,0.4
		c-0.5-2.4-1-4.5-1.4-6.6c-0.7-3.3,0.7-5.3,4.3-5.1c3.8,0.2,7.6,1.1,11.3,1.7c1.4,0.2,2.8,0.6,4.5,0.1c-0.4-0.4-0.6-1-1.1-1.2
		c-2.5-1.1-5.2-1.7-3.5-5.3c0.1-0.3-0.6-1-0.9-1.6c0-0.2,0-0.4,0-0.6l0,0c0.6,0,1.2,0,1.9,0.1c0.5,0.6,1.1,1.6,1.4,1.6
		c4.9-1.2,8.9,0.2,11.7,3.7c1.3-1.7,2.2-3.6,3.7-4.6c2.7-1.8,5.8-0.6,8.7,0.1c5.5,1.3,11.1,2.3,16.6,3.7c4.1,1.1,8.2,2.3,11.1,5.8
		c1.1,1.3,2.7,2.6,4.2,3.2c4.1,1.4,6.7,4,8.5,7.5c1.6,3.2,4.4,5,7.6,5.7c12.1,2.9,21.3,10.1,29.5,18.5c0.7,0.7,0.8,2,1.2,3
		c0.4,1.1,0.8,2.1,1.1,3.1c2-2.1,3.7-3.8,5.4-5.6c0.1-0.1,0.1-0.2,0.1-0.2c-0.6-6.1,4.3-3.2,6.9-3.8c0.4,0.2,0.8,0.4,1.2,0.6
		c3.4,1.1,6.7,2,10,3.2c0.8,0.3,1.7,1.2,2.1,2c1,2.4,2.3,3,5,2.2c1.9-0.6,4.3-0.4,6.2,0.2s2.6,2.2,0.6,3.8c-2.2,1.8-5.2,3-4.9,6.7
		c0.1,0.3-1.5,1-2.3,1.1c-3,0.4-6.1,0.6-9.8,1c3,1.6,5.2,3.6,8.6,2.2c1-0.4,2.3-0.1,3.6-0.1c3.4,0.1,4,0.9,3.2,4.3
		c0.8-0.7,1.9-1.4,2.3-2.4c0.8-2.3,2.5-2.9,4.7-3.2c4.1-0.7,8.2-1.9,12.3-2c2.7-0.1,5.4,0.9,8.1,1.7c0.6,0.2,1.4,1.6,1.2,2.2
		c-0.2,0.6-1.4,1.3-2.1,1.4c-1.6,0.3-3.2,0.4-4.8,0.4c-4.2,0-7.6,1.2-9,5.5c-0.3,1.1-1.2,1.9-2.3,3.6c2.1,0.4,3.6,0.8,5.2,1.1
		c1.7,0.3,3.7,0.1,5.3,0.7c1.1,0.4,1.9,1.8,2.7,2.7c-1.2,1-2.3,2-3.5,3c-0.3,0.2-1,0.1-1.6,0.2c-3.3,0.7-6.7,0.4-9.5,3.5
		s-7.5,3.2-11.7,2.2c-0.8-0.2-1.9-1.2-1.8-1.7c0.3-1.4,1-2.8,1.9-5c-1.7-0.4-3.9-1.6-6.2-1.5c-6.7,0.1-13.5,0.5-20.2,1.2
		c-2.5,0.2-4.9,1.4-7.1,2.5c-0.6,0.2-0.8,1.9-0.6,2.7c0.6,2.8,1.5,5.5,2.5,8.2c0.3,0.7,1,1.2,1.7,1.7c2.7,2,2.8,3.5,0.5,5.8
		c-1,1-1.8,2-3,3.4c1-0.1,2.3,0.2,3-0.3c4-3.2,8.7-3.2,13.5-3c3,0.1,5.4-0.6,7.5-3.2c1.5-1.8,4.5-2.8,7-3.5c3.2-0.9,6.7-1.7,10-1.8
		c3.6-0.2,8.2,3.8,8.7,7.2c0.2,1.1-0.6,2.5-1.2,3.7c-0.5,0.9-1.6,1.7-3,3.2c2.1,0.4,3.6,0.4,4.9,0.9c2,0.7,4.9,1.2,5.7,2.7
		c1.3,2.2,0.5,5-2.1,6.8c-1,0.7-2.3,1.5-2.7,2.5c-0.6,1.2-0.9,2.9-0.5,4.1c0.9,2.5,0.8,4.3-1.7,6.1c-3.4,2.3-6.4,5.2-9.8,7.5
		c-2.1,1.4-4.7,2.4-7.2,3c-1.9,0.5-3.7,0.2-4.3-2.4c-0.3-1.4-2.3-2.4-3.5-3.4c-1.9-1.6-1.7-2.9,0.6-3.5c2.5-0.6,5.1-0.8,7.6-1.2
		c1-0.1,2.1-0.2,3.2-0.4c0-0.2,0-0.5,0-0.7c-3.1-0.7-6.5-0.9-9.4-2.1c-2.9-1.2-5.4-3.4-8.6-4.9c1,2.5,0.5,4-1.6,5.3
		c-0.7,0.4-1,2.4-0.6,3.2c1.5,2.7-0.3,3.4-2.3,3.2c-4.6-0.4-9.1-1.4-13.7-2.1c-0.6-0.1-1.4-0.6-1.6-1c-1.4-3.3-4.4-3-7.1-2.9
		c-7.1,0.2-14.3,0.8-21.4,1.1c-1.7,0.1-3.4-0.4-5.1-0.3c-1.9,0.1-3.8,0.7-5.8,1.1c-1.9-0.7-3.8-1.4-5.6-2c-2.3-1.2-4.7-2.5-7.1-3.7
		c-2.6-3.3-4.8-3.7-8.4-1.8c-5.2,2.8-10.4,5.4-15.7,8.1c-0.5-1.1-0.9-2.1-1.4-3.2c0-0.2,0-0.4,0-0.6c1.2-0.6,2.3-1.2,3.8-2
		c-1.3-1-2.3-1.7-3.2-2.4c0-0.6,0-1.2-0.1-1.9c0-0.2,0-0.5,0-0.7c0-11.2,0.1-22.3-0.1-33.4c0-1.1-0.7-2.1-1.1-3.2
		c-1.9-1.2-4-2.4-5.9-3.6c-1.9-1.1-3.8-2.1-5.8-3.2c-2.1-2.9-4.6-3.7-7.5-2.1c-5.4,2.8-10.8,5.6-16,8.6c-3.8,2.1-7.3,4.5-11,6.8
		c-0.2,0.4-0.6,0.9-0.6,1.4c-0.1,12.3-0.1,24.5,0.1,36.8c0,0.8,0.7,2,1.5,2.4c5.2,3,10.6,5.8,16,8.7c0.2,0.1,0.5,0.2,0.6,0.4
		c0,0.4,0,0.7,0.1,1.2c-1.9,0.6-3.7,1.2-5.6,1.8c-0.8,0.2-1.7,0.4-3.6,0.8c2.2,1.4,3.6,2.4,5.2,3.4c-0.5,0.7-1,1.4-1.6,2.1
		c0.6,0.3,1.2,0.6,2.1,1.1c-1,0.6-1.7,0.9-2.5,1.4c-1.2,0.1-2.5-0.2-3.4,0.3C1101.6,314.1,1098.3,316.2,1095,318.2z"/>
	<path class="st1" d="M1556.7,375.6c12.4-3.4,24.8-4,36.7,0.9c6.7,2.7,12.9,6.6,19.3,10c1,0.6,2.1,1,3.2,1.6h0.1
		c0.5,0.4,1,0.7,1.6,1.1c0.4,0.2,0.7,0.4,1.1,0.6c0.6,0.4,1.4,0.7,2,1.1c3.3,1.8,6.5,3.7,9.8,5.5c19.7,10.9,39.5,21.9,59.2,32.8
		c2.1,1.1,4.1,2.2,6.1,3.5c5.3,3.2,8.8,7.5,8.8,13.8c-0.1,1.1-0.3,2-0.5,3.1c-2.9,2.8-5.4,6.2-8.9,8.2
		c-11.9,7.1-24.1,13.8-36.3,20.6c-12.7,7.1-25.5,14-38.3,21.1c-17.1,9.5-34.1,19.1-51.3,28.6c-14.5,8.1-29,16.1-43.5,24.2
		c-11.6,6.4-23.2,13-34.9,19.5c-12.9,7.2-26,14-38.8,21.6c-13.2,7.9-27.2,9.6-42.1,6.5c-7.9-1.6-14.3-6.2-21.1-9.9
		c-9.6-5.1-18.9-10.7-28.4-15.9c-9.2-5.1-18.5-10-27.7-15.1c-6.4-3.5-12.8-7.1-19.2-10.7c-4.7-2.7-9.5-5.2-13.9-8.2
		c-2.3-1.6-4-4.1-6-6.2c-1.6-8.3,2.4-13.8,9.7-17.8c33.2-18.4,66.3-36.9,99.5-55.3c0.8-0.5,1.7-1,2.5-1.4c1.6-0.9,3.2-1.9,4.9-2.9
		c2.6-1.4,5.2-2.9,7.8-4.3c1-0.4,1.9-0.9,2.9-1.4c11.3-6.3,22.6-12.5,33.9-18.8c0.6,1.6,1.4,3,2,4.6c-13.5,7.5-27.2,15-40.7,22.5
		c-7.4,4.2-14.8,8.4-22.1,12.6c-3.6,2-7.3,3.9-10.9,5.9c-5.1,2.8-10,5.5-15,8.3c-9.3,5.2-18.5,10.4-27.7,15.6
		c-3.9,2.1-7.7,4.3-11.6,6.4c-4.9,2.7-9.7,5.2-14.6,7.9c-2.3,1.3-2.3,2.5-0.1,3.9c2.3,1.4,4.8,2.7,7.3,4.1c10,5.5,20,10.9,30,16.3
		c8.2,4.5,16.4,9.1,24.6,13.6c2.3,1.4,4.7,2.7,7.1,4c2.2,1.2,4.4,2.4,6.7,3.6c2.9,1.6,5.8,3.2,8.7,4.8c5.6,3.1,11.1,6.2,16.7,9.3
		c8.6,4.8,17,9.7,25.7,14.2c1.8,0.9,4.9,1.2,6.7,0.2c12.1-6.4,24-13.3,36-20c4.5-2.5,9.1-5,13.6-7.6c0.8-0.4,1.6-0.7,2.3-1.1
		c19.6-10.9,39.1-21.7,58.7-32.6c10.8-6,21.5-12.1,32.3-18.2c3-1.7,6.1-3.3,9.1-5c5.6-3.2,11.2-6.3,16.8-9.4c3.6-2,7.1-4,10.8-6
		c1.2-0.6,2.5-1.2,3.7-1.9c16.5-9.1,33-18.3,49.4-27.5c1.9-1.1,3.6-2.7,5.3-4.1c-1.9-1.3-3.9-2.7-5.8-4c-3.4-1.9-6.8-3.8-10.2-5.6
		c-1-0.6-2.1-1.2-3.1-1.7c-12.1-6.7-24-13.4-36.1-20.1c-0.2-0.1-0.5-0.2-0.6-0.3c-0.3-0.2-0.6-0.4-1-0.6c-6.5-3.6-13-7.2-19.5-10.8
		c-3.4-1.9-6.8-3.7-10.2-5.5c-2.2-1.4-4.4-2.7-6.7-4c-0.1-3.3-0.5-6.8-0.5-10.1c0-2.2-0.6-3.8-2.9-4.2c-2.4-0.3-5.1-0.9-7.3,2.4
		c2.2-0.2,3.7-0.6,5.2-0.6c2.1,0,3.1,1.1,2.5,3.4c-1.2,0.1-2.5-0.2-3.5,0.2c-1.4,0.7-2.6,1.9-3.9,2.9c-3-1.5-6-3-9-4.5
		c-3.8-2.1-7.6-4.2-11.5-6.3c-1.1-0.6-2.2-1.2-3.2-1.9c-2.5-1.6-5.1-2.2-7.8-0.7c-3.4,1.7-6.6,3.7-9.9,5.6
		c-6.8,3.7-13.6,7.5-20.4,11.2c-0.7-1.6-1.4-3.2-2.1-4.7c6-3.3,12.1-6.8,18.1-10.1c0.3-0.1,0.5-0.2,0.8-0.4h-0.1
		c0.5-0.2,0.8-0.5,1.3-0.7l0.1,0.1c0.8-0.4,1.6-0.9,2.4-1.3C1545.8,381.1,1551.2,378.4,1556.7,375.6z M1377.7,572.5
		c0.1-0.1,0.1-0.2,0.1-0.4c0.3,0,0.6,0.1,1,0c2.4-0.3,5.3-0.2,6.2-3c0.9-3-1.7-4-4-5.2c-7.6-4.2-15.2-8.5-22.9-12.6
		c-3.2-1.7-6.7-1.9-9.9-0.4c-1.3,0.6-2.7,2-3,3.3c-0.2,0.9,1.3,2.5,2.4,3.2c8,4.6,16.1,9.1,24.3,13.5
		C1373.7,571.6,1375.7,571.9,1377.7,572.5z M1644.6,418.5c-0.3-0.4-0.4-0.7-0.6-0.9c-9.3-5.2-18.5-10.4-27.9-15.5
		c-1.7-0.9-3.8-0.9-5.3,1.4c1,0.7,1.9,1.4,2.9,2c6.1,3.5,12.2,6.9,18.3,10.4c2.6,1.4,5.2,2.8,7.9,4.1
		C1641.8,420.8,1643.5,420.5,1644.6,418.5z M1649.8,425.4c1-1.1,1.7-1.8,2.5-2.5c-1.1-0.6-2.2-1.7-3.2-1.7c-1,0.1-2,1.3-3,2
		C1647.2,423.8,1648.3,424.4,1649.8,425.4z"/>
	<path class="st0" d="M1294.3,368.4c1.5,0,3-0.1,4.5-0.1c0.6,0.6,1.3,1.2,1.9,1.9l0,0c0.3,1.4,0.6,2.7,1,4.7
		c0.8-1.2,1.2-1.7,1.6-2.2c0.2,4.8,0.5,9.5,0.6,14.3c-1.8,0.8-1.9,1.6-0.1,2.5c0,1.7,0,3.3,0,5c-0.3-0.6-0.6-1.2-0.9-1.8
		c-0.2,0.1-0.5,0.2-0.6,0.4c0.6,0.9,1.2,1.8,1.7,2.7c-1.3,0.6-2.6,1.2-3.9,1.9c-1.4-2.2-2.8-1.3-4.1,0.3c1.4-0.1,2.8-0.2,4.1-0.3
		c-1.7,2-5.3,3.2-3.2,6.8c-0.5,0.3-1.1,0.6-1.6,0.9c1,0.1,1.9,0.2,2.9,0.3c2.4,1.1,4.7,2,7.1,3.1c0.6,0.2,1.3,0.4,1.9,0.6
		c2.8,0.4,5.6,0.8,8.4,1.2c-1.1,0.9-2.2,1.9-3.7,3.2c4.5,0,8.2,0,12.6,0c-1.6-1.4-2.7-2.3-3.8-3.2c0.8-0.2,1.6-0.4,2.5-0.6
		c5.3-0.6,10.4-1.9,15-4.3c4.8-0.2,2.9-3.6,3.1-6c-0.2-0.6-0.5-1.3-0.6-1.9c0.1-0.1,0.1-0.2,0.1-0.3c-0.1,0.1-0.1,0.2-0.2,0.2
		c-0.6-0.2-1.2-0.5-1.7-0.8c0.2-0.3,0.4-0.7,0.6-1c-3.4-0.9-3.6-3.3-2.5-6.4c-0.3-0.2-0.6-0.3-1-0.5c-2.1,0.9-4.3,1.7-6.4,2.6
		c-0.1,0-0.2-0.1-0.3-0.2c0-0.6-0.1-1.3-0.1-1.9c0.1-5.1,0.1-10.3,0.2-15.5c0.9-0.2,2-0.7,2.8-0.4c6.9,1.9,11.5,6.5,14.9,12.2
		c1.7,3,2.4,6.5,3.2,9.9c0.6,2.4,1.8,3,4.2,3.2c2.3,0.2,4.8,0.6,6.6,1.7c3.6,2.2,6.7,5,10,7.4c0.5,3.3,0.8,6.6,1.3,9.9
		c-2.3,0.9-4.7,1.4-6.8,2.6c-1.2,0.7-1.9,2.4-2.9,3.6c-0.7,0.1-1.6,0-2.1,0.4c-2.1,1.7-4.1,3.7-6.3,5.5c-2.8,2.2-5.6,4.3-8.5,6.4
		c-0.8,0.6-1.7,1.2-2.7,1.9c-3.4,2.7-6.7,5.3-10.2,7.9c-0.3,0.2-1.4-0.4-2-0.9c-0.7-0.6-8.9-1.6-9.6-0.9c-0.4,0.4-0.6,1.1-0.7,1.6
		c-0.1,0.9-0.1,1.9-0.1,2.8c0.2,2.2-0.6,3.1-3.1,3.3c-1.5,0.1-2.9,1.3-4.3,2.2c-0.7,0.4-1.3,1.7-1.8,1.6c-4-0.2-5.8,2.5-7.8,4.8
		c-0.6,0.7-1.2,1.4-1.9,2c-1.6,1.4-3.2,2.2-5.3,0.4c-2.9-2.4-5.8-4.5-8.8-6.8c-1.7-1.2-3.3-2.5-5-3.7c-3.5-2.4-5.4-6.1-10-7.7
		c-3-1.1-5.5-4.3-8.4-6.4c-3.5-2.5-6.8-5.3-10.8-7.1c1.6-0.8,3.2-1.7,4.9-2.4c2.2-0.9,4.5-1.5,6.7-2.2c0-0.4,0-0.7,0-1.1
		c-1.7-1-3.4-1.9-5.1-2.9c-1.9-1.2-4-2.2-2.8-5.1c0.1-0.4-0.8-1.7-1.4-1.8c-5.2-1.2-10-3.2-14.3-6.2c-0.2-0.1-0.3-0.2-0.5-0.3
		c-10.5-3-7.8-4.5-8.2-12c-0.1-2.1,0.1-4.3-0.1-6.4c-0.1-3.2,2.3-4.6,4.5-6c6.1-3.9,12.2-7.7,18.5-11.2c2.4-1.4,5.3-2.1,8.2-2.5
		c6-1.1,12.1-1.7,18.1-2.5c0.6,0.6,1.2,1.7,1.9,1.8c2.8,0.2,5.6,0.2,8.4,0C1293.1,370.6,1293.7,369.2,1294.3,368.4z M1301.6,384.9
		c-2.9,3.2-2.4,9.1,0,10C1301.6,391.6,1301.6,388.2,1301.6,384.9z M1298.4,407.5c-0.2,0.2-0.4,0.3-0.6,0.5c0.3,0.3,0.5,0.7,0.8,0.9
		c0,0,0.4-0.3,0.6-0.4C1298.9,408.1,1298.7,407.8,1298.4,407.5z M1296.2,408.7c-0.4-0.2-0.6-0.5-0.8-0.5c-0.1-0.1-0.3,0.2-0.5,0.2
		c0.1,0.2,0.3,0.6,0.5,0.6C1295.4,409.1,1295.7,408.9,1296.2,408.7z"/>
	<path class="st0" d="M1410.3,456.2c-1.6,0.9-3.2,1.9-4.9,2.9c-1-0.3-1.9-0.9-2.9-0.9c-1.6-0.2-3.2-0.2-4.9,0
		c-10.2,1-20-1.8-30.1-2.8c-2.7-0.3-5.5-0.9-8.2-1.6c-2.9-0.7-3.6-2.5-1.9-4.8c1.8-2.4,3.6-4.9,5.9-6.9c4-3.4,5.3-8.1,7.3-12.4
		c0.2,0,0.5,0,0.6,0c7.7,1.9,15.5,2.5,23.2,0.6c2.7-0.7,5.4-1.9,7.8-3.3c2.5-1.5,2.2-4.1-0.2-5.8c-0.8-0.6-1.5-1.3-2.2-1.9
		c-0.1-1.6-0.2-3.2-0.3-4.8c-1-0.9-2-1.7-3-2.5c-0.9-3.3-1.8-6.6-2.7-9.9c2.3-0.3,4.7-0.6,6.9-0.9c-0.1-2-0.3-4-0.4-6.4
		c7.5,2.2,12.2,8.4,19.5,9.8c0.5-6.1-7.1-5-8.5-9.2c0.2-0.4,0.3-0.7,0.5-1.1c3.6,0.9,7.2,1.7,10.8,2.6c0.1-0.4,0.2-0.7,0.3-1.1
		c-0.9-0.4-1.9-0.7-2.8-1.1c-2.7-1.2-5.4-2.4-8.2-3.4c-1.4-0.5-2.9-0.9-4.3-0.9c-2.5-0.1-5.6,1.1-7.5,0.1c-3.2-1.7-5.9-1.4-8.9-0.6
		c-1.8-1.6-3-3.5-2.7-6c1.2-7.9,2.3-15.9,3.5-23.8c2.2-3.7,5.4-7,5.2-11.7c1.7,0.1,3.5,0,5.1,0.4c1,0.2,2.1,1.3,2.3,2.2
		c0.2,0.6-0.9,1.7-1.7,2.2c-3.3,2.2-3.2,2.4-0.3,5.1c4.5,4.2,9.1,5.1,15.3,3.3c5.2-1.5,10.8-1.5,16.5-2.2c-0.2-0.4-0.5-1-0.9-1.4
		c-2.3-2.5-2-3.8,1.3-5c5.1-1.9,10.2-3.6,15.9-2.9c0.8,0.1,1.6-0.1,2.5-0.2c0.1-0.4,0.1-0.7,0.2-1.1c-1.2-0.2-2.5-0.6-3.8-0.5
		c-4.6,0.3-9.2,0.6-13.7,1.2c-1.6,0.2-3.8,0.9-4.4,2c-2,3.7-5.8,4.1-9.1,5.2c-2.7,0.9-5.6,1.2-8.5,1.7c-1.2,0.2-2.5,0.5-3.5,0.1
		c-2-0.7-3.8-1.9-5.7-2.9c0.9-1.5,1.8-3,2.8-4.5c0.6-1,1.4-1.9,2.4-3.2c-2.9-0.7-5.3-1-7.5-1.8c-1.3-0.4-2.3-1.6-3.5-2.4
		c0.8-0.9,1.6-2.1,2.6-2.9c1.7-1.3,3.8-2.3,5.6-3.6c2.9-2.1,6.3-2.2,9.3-1.3c5.2,1.6,10.2,0.4,15.4,0.2c3.6-0.1,7.3-0.6,10.9-1.1
		c2.4-0.3,4.9-1.4,7.2-1.1c5.1,0.6,10,1.9,15,2.9c2.2,0.4,4.4,0.8,6.6,1.4c1.4,0.4,3,0.7,4.1,1.7c4.1,3.5,8.9,6.4,10.7,11.8
		c0.5,1.4,1.2,2.6,1.8,3.9c1.1,2.4,1.2,4.4-1.7,5.6c-1.1-0.4-2.1-0.9-3.2-1.4c-9.2-3.8-18.2-4.6-26.7,1.9c-3,2-6.5,3.7-9.1,6.2
		c-5,4.8-6.2,11.2-6.4,17.7c-0.3,8.4,1.6,16.6,4.7,24.4c-0.6-0.1-1.3-0.1-1.9-0.2c-5.1-1.1-7.2-0.2-9,4.4c-1.2,3.1-3.1,5.4-6.1,7.1
		c-0.8,0.5-1.9,2.1-1.7,2.4c0.7,1,1.9,2.2,3,2.3c1.7,0.1,3.5-0.6,5.1-1.2c2-0.8,3.9-2,6-3.2c-0.3-4,0.2-8.1,5-10.4
		c2.9,6.9,5.9,13.9,8.8,20.9c-11.3,6.3-22.6,12.5-33.9,18.8c-0.9,0.5-1.9,0.9-2.9,1.4c-1.3-1-3.4-1.7-3.7-2.9
		c-0.8-2.7-2.7-3.8-5-4.8c-4-1.8-4.9-3.3-4.1-7.5c0.1-0.7,0.1-1.6,0.1-2.3c-0.3-0.1-0.6-0.1-0.9-0.2c-1.5,2.7-3,5.3-4.4,8
		c-0.1,0.3,0.8,1.6,1.5,1.7c1.9,0.6,4,0.9,6,1.2c3.2,0.6,4.6,2.6,3.8,5.2C1410.8,452.3,1410.7,454.3,1410.3,456.2z"/>
	<path class="st0" d="M1277,484.8c-0.3,0-0.5,0-0.7,0c-8-2-14.5,2.4-21.7,4.1c-3.7,0.9-7.6,1.3-11.3,2c-3.4,0.7-6.8,1.4-10.1,2.4
		c-6.9,2.1-13.7,0.9-20.4-0.2c-5.8-1-11.5-2.7-17.1-4.4c-1.4-0.4-3-2.1-3.1-3.3c-0.1-1,1.9-2.2,3.1-3.2c1.7-1.4,4.3-2.2,5.1-3.9
		c2.7-6.2,8.8-9.2,13-14c1.5-1.7,2.5-3.9,3.9-5.7c1.2-1.6,2.5-3.6,4.3-4.3c3.2-1.3,6.8-2,10.3-2.5c4.3-0.5,7.4-2.5,9.8-5.6
		c2.9-3.9,5.6-8,8.6-11.9c0.8-1.1,2-2,3-3c4,1.8,7.3,4.5,10.8,7.1c2.9,2.1,5.4,5.3,8.4,6.4c4.6,1.6,6.5,5.4,10,7.7
		c1.7,1.2,3.4,2.5,5,3.7c3,2.2,6,4.4,8.8,6.8c2.1,1.7,3.7,0.9,5.3-0.4c0.7-0.6,1.4-1.3,1.9-2c2.1-2.4,3.8-5.1,7.8-4.8
		c0.6,0.1,1.1-1.2,1.8-1.6c1.4-0.8,2.8-2,4.3-2.2c2.5-0.2,3.2-1.1,3.1-3.3c-0.1-0.9-0.1-1.9,0.1-2.8c0.1-0.6,0.3-1.2,0.7-1.6
		c0.6-0.6,8.9,0.4,9.6,0.9c0.6,0.4,1.7,1.1,2,0.9c3.4-2.5,6.8-5.3,10.2-7.9c0.8-0.7,1.7-1.2,2.7-1.9c2.9-2.1,5.7-4.2,8.5-6.4
		c2.1-1.7,4.1-3.7,6.3-5.5c0.5-0.4,1.4-0.3,2.1-0.4c0,2.5,1.7,3.2,3.9,3.7c0,0.2,0,0.4,0,0.6c-0.4,0.4-1,0.7-1.1,1.1
		c-0.5,5.3-5,8.4-7.5,12.6c-1.9,3.2-3.2,6.9-4.2,10.5c-0.3,0.8,1.2,2.5,2.2,3.1c2.3,1.2,5.1,1.8,7.4,3c1.2,0.6,2.7,1.9,2.7,2.9
		c0,1-1.5,2.5-2.7,2.9c-2.4,0.9-4.9,1.4-7.5,1.7c-7.5,1-15.1,1.8-22.9,2.7"/>
	<path class="st0" d="M1288,479.5c1.4-0.9,3-1.6,4.5-1.9c0.4-0.1,1.2,1.8,1.8,2.7c-1.5,1.1-3,2.1-4.5,3.2c-3,0.2-6.2,0.5-9.2,0.7
		c-1.6-1.5-3-3-4.7-4.4c-0.6-0.6-1.6-0.9-2.3-1.3"/>
	<path class="st0" d="M1300.8,474.9c0.1,0.4,0.1,0.8,0.1,1.2c-0.9,1.1-1.7,2.1-2.7,3.2c-0.4-0.1-0.8-0.1-1.2-0.1
		c-1.1-3.2-3.6-4.5-6.9-3.4"/>
	<path class="st0" d="M1307,465.3"/>
	<path class="st0" d="M1328.6,463.7c1,0.7,1.6,2,2.1,3.2c0.7,1.6-0.1,2.2-1.7,2.4c-3.9,0.6-7.1,0.1-9.1-3.7c-0.7-1.4-1.9-2.5-3-3.6"
		/>
	<path class="st0" d="M1314.4,281c2.4-6.8,6.5-11.5,15.1-11.2c-1.4-3.2,0.3-4.7,2.5-5.2c2.1-0.5,4.3-0.1,6.8-0.1
		c-0.6-1-1.1-1.9-1.3-2.3c3-3.1,5.8-5.9,8.5-8.7c1.6-1.6,1.6-3.2-0.1-4.6c-3-2.3-6-4.5-9.2-6.4c-1.7-1.1-3.2-1.7-2.3-4
		c0.6-1.7-1.6-4.2,1.4-5.1c1.7-0.5,3.8-0.6,5.6-0.4c1.7,0.2,3.4,1.3,5.2,1.7c2.8,0.6,5.6,1.1,8.4,1c6.5-0.3,12.5,0.9,17.9,4.6
		c1,0.6,2.7,0.9,3.8,0.6c3.8-1.4,7.1-0.8,10,1.5c3.3,2.6,6.9,3.8,11.2,4.1c1.7,0.1,3.6,1.3,5.2,2.2c2.1,1.1,4,2.7,6.1,3.7
		c6.7,2.8,13.7,4.9,20.2,8.1c3.7,1.8,6.7,5,9.9,7.6c0.5,0.4,0.3,1.7,0.1,2.4c-0.4,1.1-1.1,2-1.6,3c1.5,0.7,2.9,1.6,4.5,2.1
		c2.1,0.7,4.3,1.1,6.3,2c0.9,0.4,1.2,1.9,1.7,2.9c-1,0.4-1.9,1.1-2.9,1.2c-8.2,0.7-16.5,1.3-24.7,1.9c-1.9,0.1-2.5,0.8-2.9,2.5
		c-0.8,4.2-4.5,5.7-8.2,3.4c-2.1-1.3-3.9-1.2-6-0.2c-3.9,2-8,3.5-12.5,2.7c-0.9,4.5-1.1,5-5.8,4.5c-6.7-0.7-13.5-0.7-20-3.7
		c-4.9-2.2-11-2.1-16.6-3.1c-2.1-0.4-4-1.1-6.1-1.5c-1.9-0.4-3.8-1-5.6-0.7c-4.1,0.6-8.2,1.7-12.2,2.5c-0.8-1-2.2-2-2.2-3
		c-0.1-3.1-2.2-4.3-4.6-5.2C1318.3,281.1,1316.2,281.2,1314.4,281z"/>
	<path class="st0" d="M1020.9,388.6c-0.3-0.1-0.3-0.7-0.5-1.1c4.6-2.2,9.3-4.4,13.9-6.7c3.2-1.6,6.4-3.3,9.5-5.1
		c1.2-0.7,2.1-1.6,3.2-2.4c2,0.9,4,1.7,6,2.6c0.9,1.5,2,1.8,3.7,0.9c5.1-2.9,10.4-5.6,15.9-8.6c-0.8-1.2-1.5-2-2.1-2.9
		c0-1.9-0.1-3.8-0.1-5.6c1.5-1.6,2.8-3.6,4.6-4.7c2.3-1.4,1.9-2.2,0.5-3.7c-1.5-1.5-2.9-3-4.8-5.1c2.8-0.5,4.7-0.8,7.6-1.3
		c-2.3-1.4-3.9-2.2-5.3-3.2c-2-1.3-3.9-2.7-5.8-4.2c3.2-1.5,6.5-3,9.7-4.5c0,2.2-0.1,4.3,0.2,6.4c0.1,1.1,0.8,2.4,1.7,2.9
		c13.3,7.4,26.8,14.8,40.2,22.1c2,1.6,3.8,1.6,6.1,0.2c4.3-2.6,8.9-4.9,13.3-7.4c2.7-1.5,5.2-3,8.2-4.7c-1-0.7-1.7-1.2-2.3-1.7
		c1.6-1.2,3.2-2.5,4.7-3.7c0.8,0.6,1.6,1.3,2.3,1.9c-0.1,0.4-0.1,0.7-0.1,0.7c-4.9,1.6-2.9,5.4-3,8.5c-1.7,1.1-3.4,2.3-5.2,3.4
		c0.8,1.2,1.4,2,1.9,2.8c-1.2,0.2-2.4,0.6-4,0.9c2,1.2,3.3,2.1,4.7,2.9c-1.7,0.2-3.4,0.4-4.8,0.7c2.7,1.6,5.4,3.2,8.2,4.9
		c-0.1,2.8,0.1,5.6-0.2,8.3c-0.5,4.3,0.1,8.1,5,9.9c-5.1,1.4-10.1,2.9-15.2,4c-3,0.7-6.1,0.9-9.1,1.3c-0.2,0-0.3,0-0.5,0
		c0-1.1,0-2.1,0-3.1c0-2.7,0-5.3-0.1-7.9c-0.3-0.2-0.5-0.5-0.8-0.7c-0.3-0.4-0.5-0.9-0.9-1.1c-11.9-6.6-24-13.1-35.8-19.9
		c-3.8-2.2-6.7-1.9-9.8,0.7c-2.2,1.4-4.3,2.9-6.5,4.2c-1.7,1-3.5,2-5.2,3c-0.3,1.8-0.6,3.7-0.6,5.5c-0.1,7.8,0,7.8,7.2,11.7
		c9.1,5,18.1,10.2,27.3,15.3c-1.5,0-3.2,0.4-4.5-0.1c-5.3-1.9-10.2-1.9-15.9-0.1c-7.1,2.4-14.8,3.2-22.3,4.4
		c-3.4,0.5-7,0.1-10.5,0.1c-0.3,0-0.6,0-1-0.1c-2.4-0.7-6.2-0.4-8.3,0.5c-3,1.3-6.1,2-9.4,0.8c-1.3-0.4-2.8-0.7-4.1-0.6
		c-4.8,0.5-9.5,1.2-14.3,1.9c-1.1,0.2-2.1,0.9-3.2,1.4c-2,0.8-4,1.6-6,2.2c-1,0.4-2.7,0.2-3.2,0.9c-2.8,3.8-7.1,4.1-11.1,4.5
		c-3.2,0.4-5.1,1-5.5,4.6c-0.5,5.2-6.7,7.8-11.5,5c-4.1-2.4-4.7-3.4-3.6-8c0.5-2,0.6-4.2,1.6-6c0.8-1.7,2.3-3.3,3.8-4.7
		c2.4-2.1,4.9-4.4,7.7-5.9c9.6-5,19.4-9.5,29.1-14.3c0.6-0.2,1-0.7,1.6-1.1c0.8,0,1.7,0,2.6-0.1c1.3-0.2,2.5-0.4,3.8-0.7
		c3-0.2,3.9,1.1,3.1,3.5c-2,0.4-4,0.6-5.6,1.3"/>
	<path class="st2" d="M1293.8,533.7c1.9,2.1,3.6,4.6,6,6.2c4.4,3,9.2,5.6,13.9,8.2c6.4,3.6,12.8,7.2,19.2,10.7
		c9.2,5,18.5,10,27.7,15.1c9.5,5.3,18.9,10.8,28.4,15.9c6.8,3.7,13.2,8.2,21.1,9.9c15,3.1,28.8,1.4,42.1-6.5
		c12.7-7.6,25.8-14.4,38.8-21.6c11.6-6.4,23.3-13,34.9-19.5c14.5-8.1,29-16.1,43.5-24.2c17.1-9.5,34.1-19.1,51.3-28.6
		c12.8-7.1,25.6-14,38.3-21.1c12.2-6.8,24.4-13.5,36.3-20.6c3.4-2,6-5.5,8.9-8.2c0.9,4.4-0.2,8.2-3.2,11.7c-2.7,1.9-5.2,4-8,5.7
		c-3.1,1.9-6.4,3.5-9.7,5.3c-3,1.9-6,3.7-9,5.5c-4.7,2.6-9.4,5.2-14.1,7.9c-7.8,4.3-15.5,8.6-23.3,12.8c-2.6,1.4-5.2,2.9-7.8,4.3
		c-3.4,1.9-6.9,3.7-10.3,5.6c-2.5,1.3-5.1,2.6-7.5,4c-5.8,3.3-11.5,6.6-17.2,9.9c-1.4,0.6-2.7,1.2-4,1.9
		c-19.8,11-39.5,21.9-59.3,32.9c-9.2,5.1-18.3,10.4-27.5,15.6c-1.7,0.9-3.4,1.9-5.1,2.8c-6.9,3.8-13.8,7.6-20.7,11.4
		c-7.2,3.9-14.6,7.6-21.5,11.9c-11.3,7-23.2,11.2-36.8,9.9c-3.4-0.3-6.8-0.8-10.2-1.2c-4-1.9-8.2-3.4-12.1-5.5
		c-31.4-17.2-62.7-34.6-94-52C1296.5,546.3,1292.5,541.3,1293.8,533.7z"/>
	<path class="st0" d="M1295,216c4.4,4.5,9.7,6.4,16.3,4.2c-1.5-0.4-3.1-0.6-4.5-1.2c-1.2-0.6-2.3-1.4-3-2.4
		c-0.2-0.3,1.2-1.6,1.8-2.4c0.2-0.2,0.7-0.3,0.8-0.5c1.3-6.7,6.8-4.2,10.9-4.3c3.4-0.1,5.6,2.2,6.8,5.5c4.2-3.7,8.5-2.2,12.6-0.9
		c10.8,3.5,21.1,7.9,30.6,14.1c2.1,1.4,4.1,3,6,4.7c0.8,0.7,1.2,1.9,1.8,2.9c-1.2,0.5-2.5,1.5-3.6,1.4c-3.6-0.4-7.1-1.4-10.8-1.9
		c-9.1-1.2-18.2-2.5-27.3-3.5c-3.4-0.4-7.2-0.9-10.4,0c-2.7,0.7-4.9,0.8-7.3-0.1c-0.8-0.3-1.6-0.4-2.5-0.5c-2.1-4.2-10.6-8.7-15-6.9
		c5.5,2.5,10.2,4.7,15,6.8c0.1,1.9-1,2.6-2.8,2.5c-1.4-0.1-2.9-0.3-4.9-0.6c1.9,2.3,3.4,4.1,4.9,6c-1.8,3.3-1.4,5.1,1.9,7.1
		c2,1.2,2.3,4.9-0.3,6.7c-3,2.2-3.8,4.3-2.9,7.8c0.8,3-3.2,5.7-7.4,4.4c-3.8-1.2-6.5,0.1-9.6,1.3c-7.1,2.7-13.2,1-17.6-4.8
		c-0.6-0.8-0.9-2.2-0.6-3.2c0.7-2.4-0.4-3.7-2.1-5c-0.7-0.6-1-1.6-1.6-2.4c0.9-0.4,1.8-1.2,2.7-1.2c1.2-0.1,2.7,0,3.8,0.5
		c4.1,1.8,8.2,2.5,11.9,0.6c-1.1-0.9-2.5-2-3.8-3.2c1.4-0.7,2.9-1.5,4.3-2.2c0.6-0.3,1.3-0.6,2.5-1.2c-1.1-0.9-1.9-1.7-2.8-2.4
		c-3-2-6.2-3.8-8.8-6.2c-1.2-1.1-2-3.2-2.1-4.8c0-0.8,2.2-2.2,3.6-2.3c4.5-0.4,9.1-0.4,13.7-0.6c0.2,1.2,0.4,2.4,0.6,3.5
		c2.1,0.2,4.1,0.4,6.2,0.5c0.1-0.4,0.3-0.7,0.4-1.1c-2.4-1-4.7-2-7.1-3c-0.8-0.7-1.7-1.4-2.4-2.2c-1-1.1-2.8-3-2.5-3.5
		c1.6-2.4,0.5-4-0.8-5.8c-1.1-1.4-0.1-2.4,1.2-2.1C1292.1,214.4,1293.5,215.4,1295,216L1295,216z"/>
	<path class="st0" d="M1674.2,477.6c3-1.9,6-3.7,9.1-5.5c0.5,1.1,1.2,2.2,1.5,3.4c0.3,1.7,0.4,3.6,0.5,4.8c2.3-1.4,4.6-2.9,7-4.2
		c4.6-2.5,9.2-5.1,13.9-7.6c3.8,5,9.3,7.7,15.2,9.8c1.3,0.4,2.8,1,3.6,1.9c5.4,5.7,10.6,11.5,15.9,17.3c1.8,1.9,4,3.5,5.6,5.6
		c1,1.2,1.8,3.2,1.6,4.5c-0.2,1-2.3,2.2-3.6,2.4c-4.6,0.9-8.9-0.6-12.9-2.7c-1.1-0.6-1.7-2.1-2.5-3.2c-0.5-0.6-0.8-1.7-1.4-1.7
		c-0.6-0.1-1.6,0.5-2.1,1.1c-4.3,5-5.7,5.1-11.8,3.1c-2.7-0.9-5.6-1.2-8.5-1.2c-3.8,0.1-7.3-0.4-10.5-2.4c-4-2.4-7.6-1.2-10.6,1.2
		c-3.1,2.5-6.7,3.5-10.6,4.1c-5.6,0.9-11.1,2.1-16.8,3.1c-2.3,0.4-4.5,0.5-6.9,0.7c-0.1-0.4-0.3-0.8-0.5-1.2c1-0.6,2-1.5,3.2-1.7
		c4.7-1,7.8-3.7,10.2-7.5c3-5,8.4-5.6,13.5-6.4c2.5-0.4,4.9-1,7.6-1.6c-2.8-3.5-5.7-4-9.4-3.2c-2.5,0.5-5.2-0.1-7.8-0.1
		c3.8-2.1,7.5-4.2,11.6-6.4C1674.7,482.8,1674.5,480.2,1674.2,477.6z M1683.1,476c-2.3,1.6-6.5-0.8-6.5,3.8c0,0.6,2.1,1.7,3.2,1.8
		C1682.7,481.7,1683.7,480.1,1683.1,476z"/>
	<path class="st0" d="M1486.6,590.7c3-0.2,6.2-0.4,9.7-0.7c-0.4,1.1-0.4,1.9-0.8,2.4c-3.8,3.8-5.1,9.4-10,12.3
		c-0.5,0.3-1.2,0.9-1.2,1.4c-0.2,4.7-2.4,8.5-5.3,12c-1,1.2-1.9,2.9-3.2,3.5c-12.5,5-25.7,7.8-39.1,7.9c-7.3,0-14.7-2.6-19.4-9.1
		c-1-1.5-1.4-3,0.4-4c2.5-1.4,1.7-2.9,0.5-4.5c6.6,0.4,13.3,1.3,19.9,0.9c4.8-0.3,9.7-1.8,14.2-3.7c6-2.5,11.5-5.8,17.2-9
		c3.4-1.9,6.5-4.2,9.7-6.3C1481.5,592.8,1484,591.7,1486.6,590.7z"/>
	<path class="st0" d="M1329.6,351.6c4.4-0.2,7.7,2.1,11.2,4.2c1.4,0.9,3.4,1.4,5,1.2c2.8-0.1,3.2-1.6,2.1-4c-0.6-1.2-1-3.7-0.5-4.1
		c1.4-0.9,3.6-1.5,5.2-1.2c4.7,0.8,9.3,2.2,13.9,3.3c0.1-0.2,0.1-0.6,0.2-0.8c-3.8-1.1-7.7-2.2-11.5-3.5c-0.7-0.2-1.2-1.2-1.7-1.8
		c0.6-0.4,1.2-1.1,1.9-1.3c2.9-0.9,6-1.7,8.9-2.6c2.9-0.9,4.7-2.7,5.4-5.6c0.9-3.9,4.3-6.2,7.8-4c-3.7,4.7-5.1,9.6-3,15.4
		c1.1,3,1,6.3,1.2,9.5c0.1,1.4-0.3,2.7-0.5,4.1c-0.5,1.6-0.5,3.5-1.6,4.5c-2.8,3-1.8,5.5,0.3,8.2c0.2,3.3,0.4,6.7,0.5,10
		c-3.6,5.1-11.8,5.6-16.7,4.2c-1.1-0.3-1.7-2-2.6-3.1c1.1-0.6,2.1-1.3,3.3-1.6c1-0.2,2.1-0.1,3.2,0.1c2.5,0.6,2.6-0.8,2.3-2.4
		c-0.2-1.2-0.8-2.4-1-3.5c-0.2-0.9-0.3-2,0.1-2.7c1.5-2.6,1.2-3.3-1.8-3.8c-3.1-0.5-6.5-0.2-8.9-2.8c-0.4-0.4-1.4-0.4-2.1-0.3
		c-6.9,0.6-13.9,1.2-20.7,1.8C1329.6,363.2,1329.6,357.4,1329.6,351.6z"/>
	<path class="st3" d="M1494.6,465.7c3.8-4.3,7.6-8.7,11.3-13.2c1.7-2,3.4-4.2,4.8-6.4c1.7-2.8,3.9-5.7,4.3-8.8
		c0.6-4.8,2.4-9.7,0.3-14.8c-1.5-3.8-1.6-8.2-2.8-12.2c-2.5-8.6-6.7-16.4-12.1-23.6c-5.4-7.4-11.9-14-20-18.8
		c-4.3-2.5-8.6-5-13.7-5.7c-3.4-0.4-6.9-0.4-10.4-0.5c8.4-6.4,17.4-5.7,26.7-1.9c0.8,0.3,1.6,0.7,2.3,1c1.4,0.7,3.5,1.9,4.9,2.7
		c12.6,8.7,21.4,20.2,27.9,33.5c0.8,2,2.1,5.3,2.9,7.3c2.4,7.6,4,15.3,3.3,23.3c-0.5,5.3-1.9,10.2-5.5,14.5
		c-6.1,7.3-11.9,14.8-17.9,22.2c-1.4,1.5-2.7,2.9-4,4.4"/>
	<path class="st4" d="M1329.6,351.6c0,5.8,0,11.6,0,17.4c0,1.6,0,3.3,0,4.9c-0.1,5.1-0.1,10.3-0.2,15.5c0,0.6,0.1,1.3,0.1,1.9
		c0.1,0.1,0.1,0.2,0.3,0.2c-0.1,0.3-0.1,0.7-0.1,1c-2.1,0.2-4.3,0.4-6.5,0.6c-0.4-2.5-0.5-5.1-1.2-7.6c-1.4-5.1-3.1-10-1-15.4
		c0.2-0.6,0.1-1.2,0.1-1.9c-0.5-5.2-1-10.4-1.5-16.3c-0.3,1.6-0.5,2.5-0.7,3.5c-1.4,7.8-2.9,15.6-4.1,23.4c-1,6.4-1.9,12.7-2.8,19.1
		c-2.2,2.7-4.8,1.2-7.3,0.7c0-1.1,0-2-0.1-3.1c-0.2-0.2-0.3-0.5-0.5-0.7c0-0.2-0.1-0.4-0.1-0.6c0-1.7,0-3.3,0-5
		c0-0.8,0.1-1.7,0.1-2.5c-0.2-4.8-0.5-9.5-0.6-14.3c0.3-0.4,0.5-0.7,0.8-1.1c0.5-1.2,0.9-2.5,1.3-3.7c0.6-1.4,1.8-2.8,1.8-4.2
		c0-4.7-0.6-9.4-0.6-14.1c0-2.7,0.6-5.4,1-8.1c7.5,1.6,14.5,0.6,20.9-3.7c0.1,0.5,0.1,0.9,0.1,1.4c-0.1,0-0.1,0.1-0.3,0.1
		c0.1,0.1,0.2,0.2,0.3,0.2C1329.1,343.6,1329.3,347.6,1329.6,351.6z"/>
	<path class="st5" d="M1086.6,275.3c0.2,0,0.5,0.1,0.6,0.1c0.1,0.4,0.3,0.9,0.5,1.3c0,0.4,0,0.8,0,1.2c-0.1,0.1-0.2,0.1-0.1,0.2
		c0,0.2,0.1,0.3,0.1,0.5c0.1,5.6,0.1,11.1,0.1,16.7c0,6.4-0.1,12.8-0.1,19.2c-4.1,2.2-8.1,4.5-12.2,6.8c0-4,0-8.1,0-12.3
		c-5.6,1.7-5.9,2-5.9,6.4c0,3.2,0,6.4,0,9.5c-3.7,2-7.4,4.2-11.1,6.2c-0.3-0.1-0.6-0.2-1-0.4c-0.1-1.4-0.2-2.7-0.2-4
		c0-11.7-0.1-23.4-0.1-35.2c3.7-2,7.4-4.2,11-6.2c0.4,0,0.8,0,1.2,0c0,4,0,8.1,0,12.3c5.8-2,5.9-2.2,5.9-7.1c0-2-0.3-4.2,0.1-6.1
		c0.3-1.5,1.3-3.2,2.6-4.1C1080.8,278.5,1083.8,277,1086.6,275.3z"/>
	<path class="st6" d="M1057.4,291.6c0,11.7,0,23.4,0.1,35.2c0,1.4,0.1,2.7,0.2,4c-4-2-7.8-4-11.8-6c0-3.3-0.1-6.6-0.1-9.9
		c0-3.8-1.7-5.4-6.4-5.8c0,2.4,0.1,4.7,0,6.9c-0.1,1.6-0.5,3-0.7,4.6c-3.2-1.7-6.4-3.3-9.5-5.1c-0.6-0.4-1.4-1.4-1.4-2.2
		c-0.1-12.3-0.1-24.6,0-36.8c0-0.4,0.4-0.9,0.6-1.4c3.9,2.3,7.8,4.6,11.7,6.9l-0.1,0.1c0,3.3,0,6.7,0,10c0.1,3,1.9,4.7,5.8,5
		c0-4,0-8,0-12C1049.6,287.4,1053.5,289.5,1057.4,291.6z"/>
	<path class="st7" d="M1503.2,572.6c9.1-5.2,18.3-10.5,27.5-15.6c19.7-11,39.5-21.9,59.3-32.9c1.3-0.7,2.7-1.3,4-1.9
		c0.8,0.2,1.9,0.9,2.5,0.7c4.4-1.9,9.1-3.4,12.9-6.1c3.6-2.5,6.9-2.7,10.8-1.6c-1.9,1.3-3.6,2.9-5.6,4c-17.1,9.5-34.2,19-51.3,28.5
		c-15.7,8.7-31.4,17.5-47,26.3c-1.1,0.6-2.4,0.9-3.6,1.4C1510.3,571.6,1506.5,573.1,1503.2,572.6z"/>
	<path class="st8" d="M1148.8,373.9c-2.8-1.7-5.5-3.3-8.2-4.9c1.4-0.2,3.1-0.4,4.8-0.7c0.7,0.3,1.5,0.6,2.2,0.9
		c0.3-0.3,0.5-0.6,0.8-0.9c-1.2-1.2-2.5-2.5-3.6-3.8c-0.6-0.8-1.1-1.6-1.9-2.8c1.7-1.2,3.5-2.3,5.2-3.4c4.9-2.5,9.8-5.1,14.6-7.6
		c2.3-1.2,4.5-2.4,6.7-3.7c2.3-1.3,4.1-1.5,5.7,1c0.9,1.4,2.1,2.5,3.6,4.2c1.8-1.2,3.5-2.6,5.4-3.7c1-0.6,2.7-1.4,3.4-1.1
		c5.5,2.9,10.9,6,16.7,9.3c-2.3,1.9-4,3.4-6.5,5.5c2.9,0,4.9,0,6.8,0c0.1,0.2,0.2,0.4,0.3,0.6c-2.7,1.6-5.4,3.2-8.2,4.8
		c-6.2,3.3-12.6,6.5-18.6,10.2c-3.4,2-6.5,1.6-10.9,1.3c2.1-1.3,3.4-2.2,4.7-3c2.2-1.4,4.5-2.7,6.7-4c5.9-3,11.7-6.1,18.2-9.4
		c-6.2-3.5-11.5-6.4-16.8-9.4c-0.3-0.2-1.1,0.4-1.7,0.6c-1.3,0.4-2.7,0.6-3.9,1.2c-5.3,2.9-10.6,5.8-15.8,8.7c-3,1.7-6,3.3-9.5,5.3
		c2.4,1.4,4.2,2.4,6,3.4c3.5,2.1,7,4.2,10.5,6.3c-5,0.2-9.5-0.7-13.5-3.7C1151.1,374.6,1149.9,374.3,1148.8,373.9z"/>
	<path class="st0" d="M1517.8,396.5c-6.3-12.8-14.8-23.9-26.8-32.4c2.6-4.8,5.8-5.9,9.5-2.9c1,0.8,1.6,2.1,2.3,3.2
		c8.2-0.7,8.9-0.4,8.7,4c5.4-0.3,9.4,2.7,12.8,6.7c2.7-5.1,4.8-5.3,8.1-1.6c1.9,2.2,4.3,4.2,5.8,6.6c0.7,1.2-0.2,3.3-0.3,5.1
		l-0.1-0.1c-0.5,0.2-0.8,0.5-1.3,0.7h0.1c-0.3-0.1-0.6-0.1-0.9-0.1c0.1,0.2,0.1,0.4,0.1,0.5C1530,389.7,1523.9,393.1,1517.8,396.5z"
		/>
	<path class="st9" d="M1374.6,383.2c-0.2-3.3-0.4-6.7-0.5-10c0.8-0.1,1.6-0.1,1.8-0.1c0.1-1.8-0.1-3.3,0.5-4.5
		c1.3-3,3.1-5.8,4.5-8.8c1.2-2.5,3-5.2,2.8-7.7c-0.5-5.4-1.9-10.7-3.1-16.1c-0.2-0.9-1.8-2.1-2.6-2c-1,0.1-2.2,1.4-2.5,2.4
		c-0.4,1.3-0.1,2.9,0.2,4.3c0.6,3,1.4,6,2.3,9c1.2,4.2-0.5,7.6-2.6,10.9c0.2-1.4,0.6-2.7,0.5-4.1c-0.3-3.2-0.2-6.6-1.2-9.5
		c-2.1-5.9-0.7-10.8,3-15.4c1.5-0.9,3-1.8,4.5-2.7c0.4,0.9,0.8,1.9,1.2,2.8c1.2,3.5,3.4,6.2,7.1,8.6c1.4-2.9,2.5-5.6,3.8-8.2h0.3
		c-0.3,2.2-0.1,4.7-0.9,6.6c-2.9,7-2.9,14-1,21.1c-1.2,7.9-2.3,15.9-3.5,23.8c-1.9,0.9-3.8,1.7-5.7,2.7c-0.3,0.1-0.5,0.1-0.7,0.2
		c-2.3,0.2-4.6,0.4-6.9,0.6C1375.2,385.6,1374.8,384.4,1374.6,383.2z"/>
	<path class="st5" d="M1178.5,372.2c-2.3,1.4-4.5,2.7-6.7,4c-1.3,0.8-2.6,1.7-4.7,3c4.4,0.2,7.6,0.7,10.9-1.3
		c6-3.7,12.4-6.8,18.6-10.2c0,5.1,0,10.3,0,15.4c-3.3,1.6-6.7,3.2-9.8,5c-6.2,3.5-12.4,7.1-18.6,10.7c-0.4-0.1-0.8-0.1-1.2-0.1
		c0-5.5,0-11-0.1-16.5c0-1.1-0.8-2.2-1.2-3.2c-3.5-2.1-7-4.2-10.5-6.3c-1.8-1.1-3.6-2-6-3.4c3.5-1.9,6.5-3.6,9.5-5.3
		c5.2-2.9,10.5-5.9,15.8-8.7c1.2-0.6,2.6-0.8,3.9-1.2C1178.4,360,1178.4,366.1,1178.5,372.2z M1191.2,373.1
		c-0.2,0.2-0.5,0.4-0.6,0.6c-0.5,0.2-0.8,0.4-1.3,0.6c-0.4,0.2-0.8,0.5-1.2,0.7c-1.3,0.7-2.6,1.3-3.2,1.6c0.3,2.7,0.5,4.8,0.9,7.9
		c-2.3-1.1-3.5-1.7-4-1.9c-1,1.5-1.9,2.7-3.1,4.3c0-2.9,0-4.8,0-6.8c-0.3-0.1-0.6-0.2-0.8-0.3c-0.5,1.1-1.2,2.2-1.3,3.4
		c-0.3,2.2-0.1,4.5-0.2,6.8c-1.3,0.6-2.5,0.7-2.3-1.1c0.2-2.3,0.6-4.5,1-6.8c-6.5,2.4-7.8,5.1-5.8,12.5c0.4,0.4,0.8,0.7,1.2,1.1
		c0.3-0.9,0.6-1.7,1-2.5l0,0c1.8-1,3.6-1.9,5.4-2.9c3.9-2,7.7-4.1,11.6-6.1c7.1-2.5,8.7-5.5,6.4-12.9c-1,0.5-1.9,0.9-2.7,1.4
		C1191.7,372.7,1191.4,372.9,1191.2,373.1z"/>
	<path class="st8" d="M1067,337.5c1.9,1.4,3.8,2.8,5.8,4.2c1.4,1,3,1.8,5.3,3.2c-2.9,0.5-4.8,0.9-7.6,1.3c1.9,2,3.3,3.6,4.8,5.1
		c1.5,1.5,1.9,2.4-0.5,3.7c-1.9,1.1-3.1,3.1-4.6,4.7c-0.9-0.2-2-0.8-2.7-0.5c-2.4,1.1-4.7,2.5-6.9,3.8c-1.7,1.1-2.8,0.9-4-0.8
		c-1.3-1.8-3-3.4-4.5-5.1c-1.2,1.2-2.7,2.2-3.6,3.5c-1.6,2.3-2.9,2.2-5.2,0.9c-2.9-1.7-6-2.9-9.1-4.2c-0.9-0.7-1.7-1.6-2.7-2.1
		c-3.4-1.9-3.4-1.9-0.8-4.9c0.8-0.9,1.5-1.7,2.2-2.6c0.1-0.1,0-0.4,0-1.1c-2.3,0.2-4.5,0.4-6.8,0.5c7.9-4.8,15.2-11,25.3-10.5
		c-5.4,3.1-10.7,6.2-16.6,9.5c1.7,1.1,3,2.1,4.5,2.9c4.2,2.2,8.4,4.3,12.6,6.5c1.8-0.7,3.8-1.4,5.5-2.3c4-2.2,8-4.5,12.3-6.9
		c-5.9-3.5-11.2-6.6-16.6-9.8c3.3-1.8,6.6-2.6,10.1-0.3C1064.5,336.9,1065.9,337.1,1067,337.5z"/>
	<path class="st6" d="M1103.4,404.8c-9.1-5.1-18.1-10.2-27.3-15.3c-7.1-3.9-7.3-3.8-7.2-11.7c0-1.8,0.5-3.7,0.6-5.5
		c13.8,7.6,27.6,15.2,41.4,22.8c-0.1,4.3-0.2,8.6-0.3,12.8c-0.1,0.1-0.1,0.2-0.1,0.4C1108.1,407.3,1105.8,406.1,1103.4,404.8z"/>
	<path class="st8" d="M1129.9,324.9c2,0.9,4.1,1.6,6,2.7c4.1,2.3,8.2,4.8,12.2,7.3c-2.7,1.6-5.4,3.3-8.2,4.9c-1.9,1.1-3,2.2-2.9,4.6
		c0.2,3.8-1.7,5.7-6.2,6.3c-0.1-1.8-0.3-3.5-0.5-5.6c-4.1,2.2-7.8,4.2-11.6,6.1c-1.6-0.9-3.2-1.8-4.7-2.6c-4.4-2.3-8.8-4.6-13.3-6.9
		c0-0.2-0.1-0.4-0.1-0.6c3.4-1.7,6.7-3.6,10.2-5.1c0.9-0.4,2.4-0.6,3.3-0.1c4.4,2.1,8.7,4.3,13,6.7c4,2.2,5.8,2,9.1-1.7
		c-4.6-2.4-9.2-4.8-13.7-7.3c-0.8-0.5-1.8-1.2-2.1-2c-0.1-0.4,0.9-1.5,1.6-1.9C1124.6,328,1127.3,326.5,1129.9,324.9z"/>
	<path class="st5" d="M1194.6,344.4c-0.2,0-0.3-0.1-0.5-0.2c-0.3-1.2-0.6-2.4-0.6-3.5c-0.1-5.4-0.1-10.8-0.1-16.2
		c2.3-1.1,4.6-2.2,6.8-3.3c7.5-4.1,15-8.2,22.5-12.3c0.3,0,0.5-0.1,0.7-0.1c0.1,6.6,0.3,13.3,0.4,19.9c-2.1,1-4.3,1.9-6.3,3
		C1209.7,335.8,1202.1,340.2,1194.6,344.4z M1201.7,328.4c-0.8,0.5-1.7,1-2.6,1.5c-3.6,0.3-0.8,3.4-2.3,4.9
		c-0.5,0.6,0.8,2.9,1.3,4.3c0.9-0.7,1.9-1.4,2.8-2c0.1-0.1,0.2-0.1,0.3-0.2c0.7-0.4,1.4-0.8,2.1-1.2c0.5-0.2,0.8-0.4,1.3-0.7
		c0.7-0.4,1.4-0.7,2.2-1.1c-0.3-0.1-0.6-0.2-0.8-0.2c0.2-2.4,0.5-4.9,0.6-7.3c1,0.7,1.9,1.5,3.6,2.8c-0.2-1.9-0.3-3-0.5-4.3
		c0.6-0.2,1.4-0.4,2.5-0.8c0,2.2,0,4.2,0,6.1c7.3-0.8,10-5,7.7-12.2c-4.7,2.7-9.2,5.3-13.7,8c-1,0.5-2.1,0.9-3,1.4
		C1202.7,327.8,1202.2,328.1,1201.7,328.4z"/>
	<path class="st10" d="M1129.9,324.9c-2.6,1.6-5.2,3-7.8,4.7c-0.7,0.4-1.8,1.5-1.6,1.9c0.3,0.8,1.2,1.6,2.1,2
		c4.5,2.5,9.1,4.8,13.7,7.3c-3.4,3.8-5.2,4-9.1,1.7c-4.2-2.4-8.6-4.6-13-6.7c-0.8-0.4-2.3-0.3-3.3,0.1c-3.4,1.6-6.8,3.4-10.2,5.1
		c-1.9-0.9-3.8-1.8-5.6-2.7c-0.2-0.3-0.3-0.7-0.5-1c4.3-1.2,7.8-3.6,12.2-6.1c-3.6-2-6.5-3.5-9.3-5.1c-2.6-1.6-5.1-3.2-7.6-4.9
		c1.7-0.9,3.4-1.7,5.1-2.6c5.3,2.8,10.6,5.6,16,8.3c0.7,0.4,1.8,1,2.3,0.7c3.7-2,7.3-4.3,10.9-6.5
		C1126,322.5,1127.9,323.7,1129.9,324.9z"/>
	<path class="st11" d="M1478.9,593.8c-3.2,2.1-6.3,4.4-9.7,6.3c-5.6,3.2-11.2,6.4-17.2,9c-4.5,1.9-9.4,3.4-14.2,3.7
		c-6.6,0.4-13.3-0.6-19.9-0.9c-2.7-0.9-5.4-1.8-8-2.8c-0.5-0.2-0.6-1.1-1-1.7c3.4,0.4,6.8,0.9,10.2,1.2c13.6,1.2,25.5-2.9,36.8-9.9
		c6.9-4.3,14.3-7.9,21.5-11.9c0,0.8,0.3,1.9-0.1,2.4C1475.6,591.6,1476.2,593,1478.9,593.8z"/>
	<path class="st3" d="M1323.8,299.2c2.7,0.8,4.4,2.5,4.9,5.2c0.2,4,0.4,7.9,0.6,11.9c-0.6,0.6-1.3,1.2-1.9,1.7
		c-0.1,3.3-0.2,6.6-0.3,9.9c-4.8-2-8.2-5.2-11.3-9.3c-3.1-4.2-5-9.7-10.7-11.8c2.7-2.2,5.2-4.5,7.9-6.8c1.6,1.7,3.2,3.4,5.9,1.9
		C1320.6,301.1,1322.2,300.2,1323.8,299.2z"/>
	<path class="st5" d="M1181.7,292.7c0,4.2,0,8.2,0,12.4c-9.7,5.4-19.4,10.8-29,16.2c-0.2-0.1-0.5-0.1-0.6-0.2c0-4.3,0-8.6,0-12.8
		c7.1-4,14.3-8,21.4-11.8C1176,295,1178.9,294,1181.7,292.7z"/>
	<path class="st10" d="M1069.7,285.4c-0.4,0-0.8,0-1.2,0c-0.5-0.4-0.9-0.9-1.4-1.2c-2.3-1.2-4.7-2.4-7.1-3.6c-1.2-2.3-2.7-2-4.7-0.9
		c-3.2,1.9-6.4,3.5-9.7,5.3c-1.9-0.9-3.8-1.7-5.8-2.5l0.1-0.1c0.6-0.6,1.3-1.2,2-1.7c2.8-1.7,5.6-3.3,8.5-5c0-0.4-0.1-0.7-0.1-1.1
		c-3.8-1.8-7.5-3.5-11.2-5.3c2.4-1.4,4.8-2.8,7.2-4.2c0.7,0.6,1.4,1.2,2.2,1.8c7.4,5.4,15,4.7,19.9-1.9c2.4,1.4,4.8,2.9,7.1,4.3
		c-3.8,1.9-7.5,3.7-11.3,5.5c0,0.4,0.1,0.8,0.1,1.2c1.4,0.4,2.9,0.9,4.3,1.4c2.1,1,4.1,2,6.2,2.9c-0.6,1-1,2.2-1.8,3
		C1072.1,284.1,1070.8,284.6,1069.7,285.4z"/>
	<path class="st4" d="M1393.9,331.9c-1.2,2.7-2.4,5.3-3.8,8.2c-3.7-2.4-5.9-5.1-7.1-8.6c-0.3-0.9-0.8-1.9-1.2-2.8
		c-1.6-5.1-3.1-10.3-4.7-15.4c4.5-6.8,10.4-6.9,14.8-0.1c0.2,0.2,0.4,0.6,0.5,0.8l-0.1,0.1C1394.2,320,1395.3,325.8,1393.9,331.9z"
		/>
	<path class="st5" d="M1118.8,351.2c3.8-2,7.5-4,11.6-6.1c0.2,2,0.3,3.8,0.5,5.6c4.4-0.7,6.4-2.5,6.2-6.3c-0.1-2.4,1-3.5,2.9-4.6
		c2.8-1.6,5.4-3.2,8.2-4.9c0.3,2.6,0.5,5.2,0.6,7.8c0.1,1.6,0.1,3.1,0.1,4.7c-1.6,1.2-3.2,2.5-4.7,3.7c-2.1,1.1-4.3,2.1-6.5,3.2
		c-6.2,3.3-12.4,6.6-18.7,9.9C1118.9,359.8,1118.8,355.5,1118.8,351.2z"/>
	<path class="st6" d="M1118.8,351.2c0.1,4.3,0.1,8.6,0.1,12.8c0,0.2-0.1,0.3-0.1,0.5c-13.4-7.4-26.9-14.7-40.2-22.1
		c-0.9-0.5-1.6-1.9-1.7-2.9c-0.3-2.1-0.1-4.3-0.2-6.4c0.3-1.6,0.5-3.2,0.7-4.8c5.7,3.1,11.4,6.2,17.1,9.3c0.2,0.3,0.3,0.7,0.5,1
		c-0.2,0.6-0.3,1.1-0.5,1.7c-2.7-1.4-5.4-2.7-8.8-4.4c0.6,3.4-0.5,6.1,1.2,8.6c0.2-0.7,0-1.4,0-2.1c0-0.9,0.2-1.7,0.3-2.5
		c0.8,0.1,1.7,0.3,2.6,0.4c0.8,0.1,1.7,0.2,2.9,0.3c0,2.1-0.1,4.3,0.1,6.5c0,0.3,1,0.6,1.6,0.9c0.5,0.4,0.8,0.8,1.3,1.2
		c6.9,3.9,13.7,7.8,20.7,11.8c1.7-7.6,0-10-8.4-12.6c0,1.4,0,2.7,0,3.8c-1.8-0.9-3.5-1.7-5.2-2.5c-0.3,0.2-0.6,0.4-0.8,0.6
		c0.3-1.6,0.7-3.2,1.1-5.2c-0.3-0.1-1.1-0.4-2-0.7c-0.1-0.9-0.1-1.7-0.1-2.6c4.4,2.3,8.9,4.5,13.3,6.9
		C1115.6,349.5,1117.2,350.3,1118.8,351.2z"/>
	<path class="st7" d="M1636.8,498.3c7.8-4.3,15.5-8.6,23.3-12.8c-0.6,3.1,3.2,3,4,5c-1.4,1.1-2.5,2.4-4,3.3
		c-11.7,6.6-23.3,13-35.1,19.5c-0.5,0.3-1.2,0.4-1.8,0.6c-1.5-1.9-3-3.7-4.5-5.6c3.4-1.9,6.9-3.7,10.3-5.6
		C1634,504.3,1636.8,502.8,1636.8,498.3z"/>
	<path class="st6" d="M1193.3,324.5c0.1,5.4,0,10.8,0.1,16.2c0,1.2,0.5,2.4,0.6,3.5c-2.3-1.1-4.7-2-6.9-3.1
		c-3.3-1.7-6.6-3.5-9.7-5.5c-0.8-0.5-1.6-1.7-1.7-2.6c-0.1-6,0.1-12,0.1-17.9c1.9,1.1,3.8,2.1,5.8,3.2c0,0.9,0.1,1.9,0.1,2.8
		c0,4.4,0.4,4.9,5.2,6c0.6-1.7,1.2-3.4,1.8-5.1C1190.2,322.8,1191.8,323.7,1193.3,324.5z"/>
	<path class="st6" d="M1165.5,378.9c0.4,1.1,1.2,2.2,1.2,3.2c0.1,5.5,0.1,11,0.1,16.5c-3.2-1.7-6.5-3.3-9.8-5
		c-1.1-0.6-2.3-1.1-3.4-1.6c-5-1.8-5.4-5.5-5-9.9c0.3-2.7,0.1-5.5,0.2-8.3c1,0.4,2.3,0.7,3.2,1.4
		C1156.1,378.2,1160.6,379.2,1165.5,378.9z"/>
	<path class="st0" d="M1561.9,368.8c-5.7-1.2-10.7-2.4-15.7-3.2c-4.2-0.7-8.5-1.3-12.8-1.5c-2.5-0.1-5.2,0.4-5.4,3.9
		c-0.1,1.7-3.3,2.3-4.9,1c-0.7-0.6-1.3-1.4-1.9-2c-2.7-2.7-2.1-6.1,1.7-7c4-1,8.2-1.7,12.3-2c4-0.2,8,0,11.9,0.6
		c2.1,0.3,3.8,2.2,5.9,2.9c3,1.1,6.2,1.7,9.3,2.5c1.5,0.4,3.8,0.1,3.2,2.4C1565.1,367.4,1563.1,368,1561.9,368.8z"/>
	<path class="st0" d="M1512.5,576.3c1.3,1.4,2.6,2.7,3.9,4c3,3.1,3.4,5.3,1.5,9.2c-0.6,1.4-0.9,2.9-1.4,4.3
		c-0.5,1.2-0.9,3.2-1.6,3.3c-1.7,0.2-4.1,0.2-5.4-0.8c-1.6-1.2-2.1-3.7-3.4-5.3c-0.6-0.9-1.8-2.1-2.8-2.1c-3.4,0-6.8,0.1-8.8-3.2
		c0-0.2,0-0.4,0-0.6c0.8-0.2,1.7-0.4,2.4-0.7C1502.1,581.7,1507.3,579,1512.5,576.3z"/>
	<path class="st12" d="M1305.2,306.9c5.7,2.1,7.6,7.6,10.7,11.8c3,4.1,6.5,7.4,11.3,9.3c1.9,1.1,3.9,2.2,5.8,3.3
		c-0.6,1.2-1.2,2.4-1.7,3.5c-0.8,0.1-1.6,0.1-2.5,0.1c-1-0.6-2-1.4-3.1-1.7c-4.7-1.6-9.7-2.8-12.9-7c-1.3-1.7-2.7-3.5-4.1-5.1
		c-0.3-0.3-1.1-0.2-1.7-0.2c-1.4-2.7-3.2-5.4-3.8-8.2C1302.8,310.8,1304.5,308.8,1305.2,306.9z"/>
	<path class="st8" d="M1124.1,321.3c-3.6,2.2-7.2,4.5-10.9,6.5c-0.5,0.2-1.6-0.4-2.3-0.7c-5.3-2.7-10.7-5.5-16-8.3
		c0-0.2,0-0.4,0-0.6c3.4-2,6.6-4,10-5.8c0.9-0.5,2.3-0.2,3.4-0.3C1113.7,315.1,1118.9,318.2,1124.1,321.3z"/>
	<path class="st0" d="M1496.8,320.3c0.3,2.8-1.4,4.1-3.6,4.7c-3.8,0.8-7.1-1.2-8.4-4.9c-1.3,0.4-2.5,0.8-3.9,1.1
		c-2.5,0.6-5.1,0.2-6.2-2c-0.7-1.4-0.1-3.6,0.1-5.4c0.1-0.9,0.8-1.7,1.2-2.5c1.7-4.4,3.6-5.1,8.4-3.4c2.8,1.1,5.2,3,8.7,1.9
		c2-0.6,2.9,1.1,3,3.2c-1.5,0.4-2.9,0.7-4.3,1c-2.5,0.6-4.7,1.4-4.1,4.5c0.6,3,3.1,3.1,5.5,2.9
		C1494.4,321.1,1495.5,320.6,1496.8,320.3z"/>
	<path class="st8" d="M1094.6,337.4c-5.7-3.1-11.4-6.2-17.1-9.3c4.1-2.3,8.2-4.5,12.4-6.8c2.5,1.6,5.1,3.3,7.6,4.9
		c2.8,1.7,5.7,3.2,9.3,5.1C1102.3,333.9,1098.8,336.3,1094.6,337.4z"/>
	<path class="st0" d="M1571,354.1c-2.9-0.9-5.1-1.6-7.3-2.3c-2.9-1-5.8-1.9-8.6-3.1c-4.8-2.2-9.5-4.7-14.3-7.1
		c-0.8-0.4-1.6-1.2-2.1-1.9c-1.2-1.9-0.1-3.7,2.1-3.5c3.5,0.3,6.9,0.8,9.4,3.8c1,1.2,3.6,1.1,5.5,1.7c2.3,0.7,4.6,1.4,6.8,2.4
		c3,1.3,6,2.8,8.9,4.2c1.6,0.7,4.3,0.7,3.6,3C1574.7,352.5,1572.4,353.2,1571,354.1z"/>
	<path class="st0" d="M1250,196.2c-1.5-0.4-3.2-0.8-4.7-1.5c-0.8-0.3-1.3-1.2-1.9-1.9c0.7-0.6,1.5-1.6,2.1-1.6
		c5.1,0.7,10.1,1.4,15,2.7c2.4,0.7,1.7,2.4-0.1,3.2c0.9,1.7,1.6,3.3,2.5,4.7c0.4,0.6,1.6,0.8,2.4,0.8c1.4,0,2.7-0.4,4.1-0.4
		c2.3,0.1,4.5,3.8,3.4,5.7c-0.3,0.4-1,1-1.5,1c-2.7-0.3-5.5-0.6-8.2-1.3c-2.3-0.6-4.3-2.5-6.7-2.7c-4.2-0.4-5.5-3.3-7.1-6.2
		C1249.1,198.2,1249.7,197.3,1250,196.2z"/>
	<path class="st3" d="M1307,320.8c0.6,0.1,1.4-0.1,1.7,0.2c1.4,1.7,2.8,3.4,4.1,5.1c3.2,4.3,8.2,5.4,12.9,7c1.1,0.4,2.1,1.2,3.1,1.7
		c-0.1,0.2-0.2,0.4-0.3,0.6c-2.9,3.5-7.1,4.2-11.2,4.6c-3,0.3-6.2-0.4-9.2-0.6c-0.3-1.2-0.7-2.5-0.7-3.8
		C1307.2,330.7,1307.1,325.7,1307,320.8z"/>
	<path class="st6" d="M1151.9,308.3c0,4.3,0,8.6,0,12.8c-4.3-2.2-8.7-4.4-13-6.6c-4.6-1.6-6-4.7-5.2-9.1c0.4-2.4,0.5-4.7,0.8-7.1
		c1.7,1.2,3.5,2.4,5.2,3.7c0,1.1-0.1,2-0.1,3.1c0,3.6,1.2,4.8,5.8,5.5c0-1.9,0-3.6,0-5.4c0.5,0,0.9,0,1.3-0.1
		C1148.5,306.2,1150.2,307.2,1151.9,308.3z"/>
	<path class="st8" d="M1181.7,318.3c-1.9-1.1-3.8-2.1-5.8-3.2c3.7-2.2,7.3-4.5,11.1-6.7c5.6-3.2,11.3-6.3,17-9.4
		c3.2-1.7,4.7,1.2,6.9,2.4c-1.9,1.2-3.8,2.6-5.8,3.8c-7.6,4.4-15.2,8.7-22.8,13C1182,318.2,1181.9,318.2,1181.7,318.3z"/>
	<path class="st8" d="M1139.7,302c-1.7-1.2-3.5-2.4-5.2-3.7c2.7-1.7,5.4-3.4,8.2-5.1c0.8-0.5,1.5-1.1,2.3-1.6
		c5.2-2.7,10.5-5.3,15.7-8.1c3.6-1.9,5.7-1.6,8.4,1.8c-8.1,4.5-16.3,9.1-24.3,13.7c-1.4,0.8-2.5,2.1-3.7,3.2
		C1140.5,302,1140.1,302,1139.7,302z"/>
	<path class="st8" d="M1151.9,308.3c-1.7-1.1-3.4-2.1-5.1-3.2c1.4-1.1,2.7-2.3,4.2-3.2c5.1-2.9,10.1-5.7,15.3-8.4
		c3.2-1.7,6.5-3,9.7-4.6c1.9,0.7,3.8,1.4,5.6,2c0,0.6,0.1,1.2,0.1,1.7c-2.8,1.2-5.6,2.2-8.3,3.7
		C1166.2,300.3,1159,304.3,1151.9,308.3z"/>
	<path class="st6" d="M1034.4,357.3c3,1.4,6.2,2.5,9.1,4.2c2.3,1.3,3.7,1.4,5.2-0.9c0.9-1.4,2.4-2.4,3.6-3.5c0,3.5-0.1,7.1,0,10.7
		c0.1,2.5,0.5,5,0.7,7.5c0,0.2,0,0.4,0.1,0.6c-2-0.9-4-1.7-6-2.6c-3.4-1.9-6.7-4-10.2-5.7c-1.9-0.9-2.5-2.2-2.4-4.2
		C1034.6,361.4,1034.4,359.3,1034.4,357.3z"/>
	<path class="st10" d="M1182.2,318.2c7.6-4.3,15.2-8.7,22.8-13c2-1.2,3.9-2.5,5.8-3.8c1.9,1.2,4,2.4,5.9,3.6
		c-1.8,1.1-3.6,2.2-5.4,3.3c-7.5,4.4-15.1,8.7-22.7,13.1C1186.5,320.3,1184.4,319.3,1182.2,318.2z"/>
	<path class="st5" d="M1349.8,333.4c-2.6,1.4-5.3,2.5-7.8,4.1c-1.7,1.1-3,1.2-4.5-0.1c1.2-1.7,4.1-2.8,2.1-5.6
		c0-2.4-0.1-4.8-0.1-7.3c3.6-2,7.3-3.8,10.8-5.9c3.2-1.8,6.3-3.7,9.4-5.6c0.4,0.9,1,1.7,1,2.6c0.1,2.2-0.2,4.5,0.1,6.8
		c0.5,3.6-0.8,5.9-4.5,6.9C1354.3,330.7,1352.1,332,1349.8,333.4z M1342.8,334.8c4.4-2.4,8.7-4.8,13.1-7.1c3.5-1.9,4.1-3.7,2.4-7.8
		c-4,2.2-7.9,4.4-11.9,6.6C1341.9,328.8,1341.6,329.4,1342.8,334.8z"/>
	<path class="st8" d="M1188.7,321.4c7.6-4.3,15.1-8.7,22.7-13.1c1.8-1.1,3.6-2.2,5.4-3.3c1.9,1.1,3.9,2,5.9,3.1
		c0,0.2-0.1,0.4-0.1,0.7c-7.5,4.1-15,8.2-22.5,12.3c-2.2,1.2-4.5,2.2-6.8,3.3c-1.5-0.9-3-1.7-4.5-2.5
		C1188.7,321.8,1188.7,321.6,1188.7,321.4z"/>
	<path class="st0" d="M1630.4,396.2c-3.3-1.8-6.5-3.7-9.8-5.5c0.7-0.3,1.4-0.7,2.1-1c-0.1-0.2-0.1-0.4-0.1-0.6
		c-1.3,0.2-2.6,0.4-4,0.6c-0.4-0.2-0.7-0.4-1.1-0.6c-0.5-0.4-1-0.7-1.6-1.1h-0.1c-1.1-1.9-2.3-3.7-3.3-5.6c-0.6-1.3-0.9-2.7-1.4-4.2
		c1.6-0.4,3.1-0.9,4.7-1c1.1-0.1,2.3,0.4,3.4,0.6c6,1.5,7.1,2.6,7.6,8.4c0.1,1.1-1,2.2-1.4,3c1.7,0.9,4.1,1.7,6,3
		C1631.9,392.7,1630.8,394.9,1630.4,396.2z"/>
	<path class="st13" d="M1053.4,336.6c5.4,3.2,10.7,6.3,16.6,9.8c-4.3,2.4-8.3,4.7-12.3,6.9c-1.7,0.9-3.7,1.6-5.5,2.3
		c0-6.3,0.1-12.5,0.1-18.8C1052.6,336.6,1053,336.6,1053.4,336.6z"/>
	<path class="st11" d="M1706,468.6c-4.6,2.5-9.3,5-13.9,7.6c-2.3,1.3-4.6,2.7-7,4.2c-0.1-1.2-0.1-3-0.5-4.8c-0.3-1.2-1-2.3-1.5-3.4
		c3.2-1.7,6.5-3.3,9.7-5.3c2.8-1.7,5.3-3.8,8-5.7c1.8,1.9,3.6,3.8,5.4,5.8C1706.2,467.5,1706.2,468,1706,468.6z"/>
	<path class="st5" d="M1052.2,336.6c0,6.3-0.1,12.5-0.1,18.8c-4.2-2.2-8.5-4.3-12.6-6.5c-1.4-0.7-2.7-1.7-4.5-2.9
		c5.8-3.3,11.2-6.4,16.6-9.5C1051.8,336.6,1052,336.6,1052.2,336.6z"/>
	<path class="st0" d="M1236.1,201.7c-0.4-0.2-0.8-0.4-1.2-0.6c-2.1-0.4-4.3-0.9-6.5-1.2c-2.2-0.3-4.5-0.2-6.7-0.7
		c-1.1-0.2-1.9-1.5-2.9-2.3c1-1.1,1.8-2.8,3-3.2c3.2-1,6.5-1.4,9.8-1.9c2.7-0.4,5.1,0.1,6.7,2.6c0.6,0.9,2,1.4,3.1,2
		c1,0.6,2.1,1,3,1.7c0.6,0.4,0.8,1.2,1.2,1.9c-0.7,0.3-1.4,0.9-2.2,0.9C1241,201.3,1238.5,201.5,1236.1,201.7z"/>
	<path class="st7" d="M1494.4,585.1c0,0.2,0,0.4,0,0.6c-2.6,1.7-5.2,3.3-7.8,5c-2.6,1.1-5.1,2-7.7,3.1c-2.7-0.8-3.3-2.2-1.6-4.5
		c0.4-0.6,0.1-1.6,0.1-2.4c6.9-3.8,13.8-7.6,20.7-11.4c1.4,2.6,0.9,4.3-2.4,4.9c-1.1,0.2-2.1,1.1-3,1.5
		C1493.5,583.2,1494,584.1,1494.4,585.1z"/>
	<path class="st0" d="M1392.1,313.2c-4.4-6.8-10.4-6.8-14.8,0.1c-2-0.9-4.1-1.7-6-2.8c-0.8-0.4-1.8-1.8-1.6-2.2
		c1.4-2.3,2.7-4.8,4.8-6.6c1.8-1.6,6.9,0.1,8.9,1.7c1.9,1.5,4.3,2.6,6.7,3.3c5.2,1.7,5.8,3.2,2.4,7.3l0.1-0.1
		C1392.5,313.8,1392.3,313.4,1392.1,313.2z"/>
	<path class="st8" d="M1069.7,285.4c1.2-0.7,2.5-1.3,3.4-2.2c0.8-0.8,1.2-2,1.8-3c2.9-1.7,5.9-3.5,9.1-5.5c-1.7-0.9-3-1.9-4.4-2.4
		c-1-0.4-2.5-0.9-3.1-0.5c-2.7,1.7-5.2,3.6-7.8,5.5c-1.4-0.4-2.9-0.9-4.3-1.4c0-0.4-0.1-0.8-0.1-1.2c3.8-1.9,7.5-3.7,11.3-5.5
		c0.6,0.1,1.2,0.1,1.9,0.2c1.2,0.4,2.5,0.9,3.7,1.3c1.6,1.1,3,2.2,4.6,3.2c0.3,0.5,0.5,1.1,0.8,1.6c-2.9,1.7-5.8,3.2-8.4,5.1
		c-1.2,0.9-2.3,2.6-2.6,4.1c-0.5,2-0.1,4.1-0.1,6.1c0,4.8-0.1,5-5.9,7.1C1069.7,293.4,1069.7,289.4,1069.7,285.4z"/>
	<path class="st8" d="M1039.2,269c3.8,1.8,7.5,3.5,11.2,5.3c0,0.4,0.1,0.7,0.1,1.1c-2.9,1.7-5.6,3.3-8.5,5c-0.8,0.4-1.4,1.1-2,1.7
		c-3.9-2.3-7.8-4.6-11.7-6.9C1031.8,273.2,1035.5,271.2,1039.2,269z"/>
	<path class="st8" d="M1068.5,264.8c-4.9,6.5-12.5,7.2-19.9,1.9c-0.8-0.6-1.5-1.2-2.2-1.8c3.3-1.9,6.5-3.8,9.9-5.5
		c1-0.4,2.7-0.1,3.8,0.4c2.2,0.9,4.3,2.2,6.4,3.3c0.3,0.4,0.6,0.7,0.8,1.1C1067.6,264.4,1068.1,264.6,1068.5,264.8z"/>
	<path class="st12" d="M1314.4,281c1.9,0.2,3.9,0.1,5.6,0.7c2.4,0.8,4.5,2.1,4.6,5.2c0,1.1,1.4,2,2.2,3c1.1,2.1-0.3,2.9-2.1,3.5
		c-2.5-0.6-5-1.2-7.5-1.9c-2.3-1.1-4.5-2.2-6.7-3.4C1311.2,285.4,1310.4,282.1,1314.4,281z"/>
	<path class="st7" d="M1706.3,466.9c-1.8-1.9-3.6-3.8-5.4-5.8c2.9-3.4,4-7.3,3.1-11.7c0.1-1.1,0.3-2,0.5-3.1
		c5.4,1.1,9.9,9.4,6.1,15.9C1709.5,464,1707.8,465.3,1706.3,466.9z"/>
	<path class="st11" d="M1664.2,490.5c-0.9-2-4.6-1.9-4-5c4.7-2.6,9.4-5.2,14.1-7.9c0.3,2.6,0.5,5.2,4.1,6.3
		c-4.1,2.3-7.9,4.4-11.6,6.4C1665.8,490.5,1665,490.5,1664.2,490.5z"/>
	<path class="st11" d="M1494.4,585.1c-0.5-0.9-1-1.9-1.6-3.2c0.8-0.4,1.9-1.3,3-1.5c3.3-0.6,3.7-2.4,2.4-4.9
		c1.7-0.9,3.4-1.9,5.1-2.8c3.2,0.4,7.1-1.1,9.4,2.6c-0.1,0.4-0.1,0.7-0.2,1.1c-5.2,2.7-10.4,5.4-15.6,8
		C1496.1,584.7,1495.3,584.8,1494.4,585.1z"/>
	<path class="st14" d="M1114.4,301.4c0-0.4,0-0.7-0.1-1.2c1.6-0.9,3.2-1.9,4.9-2.9c6.8-3.7,13.6-7.3,20.3-10.9
		c1.3,0.4,2.6,0.9,3.9,1.3c0,0.2,0,0.4,0,0.6c-4.5,2.4-8.9,4.8-13.3,7.1c-3.4,1.9-6.7,3.9-10.3,5.5
		C1118.3,301.8,1116.2,301.4,1114.4,301.4z"/>
	<path class="st7" d="M1058.5,331.1c3.7-2,7.4-4.2,11.1-6.2c1.9-1.2,4-2.5,5.9-3.7c4.1-2.2,8.1-4.5,12.2-6.8
		c0.8,0.6,1.6,1.3,2.7,2.2c-0.8,0.6-1.6,1.3-2.5,1.8c-8.4,4.7-16.8,9.4-25.2,14C1060.9,333.3,1059.4,333.2,1058.5,331.1z"/>
	<path class="st15" d="M1392.3,359.6c-1.9-7.1-1.9-14.1,1-21.1c0.8-2,0.6-4.4,0.9-6.6c1.1,5.3,2.1,10.7,3.2,16.1
		C1397.6,352.6,1394.5,355.9,1392.3,359.6z"/>
	<path class="st14" d="M1152.6,321.3c9.7-5.4,19.4-10.8,29-16.2c0.8,0.3,1.6,0.6,2.9,1.2c-0.9,0.7-1.6,1.4-2.3,1.8
		c-8.6,4.7-17.2,9.3-25.7,14c-0.6,0.3-1,1-1.4,1.6C1154.2,322.9,1153.4,322.1,1152.6,321.3z"/>
	<path class="st14" d="M1194.6,344.4c7.6-4.3,15.1-8.6,22.7-12.8c2-1.1,4.2-2,6.3-3c0.6,0.2,1.4,0.4,3,0.8c-3.4,2.1-6.1,3.9-8.9,5.5
		c-6.4,3.6-12.8,7.1-19.2,10.7C1197,346.4,1195.4,346.4,1194.6,344.4z"/>
	<path class="st11" d="M1618.7,508.3c1.5,1.9,3,3.7,4.5,5.6c-1,0.4-2.1,0.9-3.1,1.4c-3.9-1.1-7.2-0.9-10.8,1.6
		c-3.8,2.7-8.5,4.2-12.9,6.1c-0.6,0.2-1.6-0.4-2.5-0.7c5.8-3.3,11.5-6.6,17.2-9.9C1613.7,510.9,1616.2,509.6,1618.7,508.3z"/>
	<path class="st8" d="M1327.5,318.2c0.6-0.6,1.3-1.2,1.9-1.7c1.6-1,3.2-2,4.8-3c3.2-1.7,6.5-3.2,9.6-5c4.3-2.5,4.3-2.6,8.3,0.5
		c-6,3.3-12.1,6.6-18.1,9.9c-0.6,0.4-1,1.2-1.4,1.9c-0.5-0.2-0.8-0.4-1.3-0.6C1330,319.5,1328.7,318.8,1327.5,318.2z"/>
	<path class="st10" d="M1332.5,320.6c0.5-0.6,0.8-1.6,1.4-1.9c6-3.3,12.1-6.6,18.1-9.9c1.7,0.8,3.4,1.6,5.2,2.4
		c-6.9,3.7-13.9,7.4-20.7,11.2C1335.2,321.8,1333.9,321.3,1332.5,320.6z"/>
	<path class="st0" d="M1285,215.5c1.6,1.2,3,2.4,5.1,4.1c-3.7,0.9-6,0.8-8.2-1.3c-1.4-1.4-3.5-2.2-4.8-3.7c-1.2-1.6-2.8-3.8-2.5-5.3
		c0.5-2,2.9-1.2,4.6-0.5c1.6,0.7,3.2,1.1,4.8,1.7C1287.7,212,1287.8,212.8,1285,215.5z"/>
	<path class="st0" d="M1357.7,334.2c2.1,0.2,4.3,0.2,6.4,0.8c1.1,0.3,1.9,1.7,2.8,2.7c-0.8,0.6-1.7,1.5-2.7,1.9
		c-3.8,1.6-7.9,2.1-11.9,1.1c-1.2-0.3-2.2-1.6-3.3-2.5c1.1-0.8,2.1-1.7,3.4-2.4c0.9-0.5,2-0.6,3-0.9c0.4,0,0.8,0,1.2-0.1
		c0.3-0.2,0.6-0.4,0.8-0.6C1357.4,334.2,1357.5,334.2,1357.7,334.2z"/>
	<path class="st8" d="M1336.5,322.4c6.9-3.7,13.9-7.4,20.7-11.2c0.8,0.6,1.7,1.2,2.6,1.8c-3.1,1.9-6.2,3.8-9.4,5.6
		c-3.6,2-7.2,3.9-10.8,5.9c-1-0.5-2.1-1-3.1-1.5C1336.5,322.8,1336.5,322.6,1336.5,322.4z"/>
	<path class="st15" d="M1317.4,291.5c2.5,0.6,5,1.2,7.5,1.9c-0.3,2-0.6,3.9-1,5.9c-1.6,0.9-3.2,1.8-4.8,2.7
		c-2.7,1.6-4.3-0.2-5.9-1.9c0-1.4,0-2.9,0-4.2c0.5-1.3,0.8-2.6,1.1-3.4C1315.3,292.1,1316.4,291.8,1317.4,291.5z"/>
	<path class="st0" d="M1266.5,221.9c-5.4-0.4-6.3-1.2-5.9-5c0.2-1.9,1.4-2.7,3-1.9c2.1,1,3.8,0.8,5.8-0.1c1-0.4,2.5-0.6,3.4-0.1
		c1.2,0.6,2.5,1.6,3,2.7c0.2,0.4-1.1,2.2-2.1,2.5C1271.6,220.9,1269,221.4,1266.5,221.9z"/>
	<path class="st5" d="M1038.6,320.8c0.3-1.6,0.6-3,0.7-4.6c0.1-2.3,0-4.7,0-6.9c4.7,0.4,6.4,2,6.4,5.8c0,3.3,0,6.6,0.1,9.9
		C1043.4,323.4,1041,322.1,1038.6,320.8z"/>
	<path class="st0" d="M1537.3,596.8c-2.8,2.7-1.6,4.6,1,6.5c0.6,0.5,0.9,2,0.8,2.9c-0.2,1.4-0.9,2.8-1.4,4.2
		c-1.2-0.7-2.5-1.5-3.8-2.1c-4.1-2-1.6-6-2.9-9C1530.3,597.7,1533.9,596.2,1537.3,596.8z"/>
	<path class="st0" d="M1414.4,634.1c-0.8-0.1-1.8,0.1-2.5-0.2c-1-0.4-1.8-1.3-2.7-2c0.6-0.7,1.2-1.4,1.9-2c3.8-3.1,7.8-2.9,11.9-0.5
		c0.6,0.4,1.2,1.1,1.4,1.8c0.1,0.3-0.9,1.1-1.5,1.2c-2.8,0.7-5.6,1.4-8.4,2C1414.4,634.3,1414.4,634.2,1414.4,634.1z"/>
	<path class="st16" d="M1021.9,394.7c-2.1,1.4-5.7-0.1-5.8,3.8c0,1.8,1.6,2.4,3.2,2C1022.2,399.8,1023,398.1,1021.9,394.7z"/>
	<path class="st0" d="M1152.6,321.3c0.8,0.8,1.7,1.6,2.5,2.4c-0.3,0.6-0.5,1.7-0.7,1.7c-1.4,0.1-3.8,0.1-3.9-0.4
		c-0.9-3.6-4.4-2.6-6.6-3.7c-2.7-1.4-5.2-3-8.3-4.8c1.7-1.1,2.5-1.5,3.3-2c4.3,2.2,8.7,4.4,13,6.6
		C1152.1,321.2,1152.4,321.3,1152.6,321.3z"/>
	<path class="st14" d="M1110.5,408.6c0.1-0.1,0.1-0.3,0.1-0.4c5.9-3.1,11.8-6.2,17.6-9.3c0.3-0.2,0.3-0.9,0.5-1.4c0.2,0,0.3,0,0.5,0
		c0.5,1.1,1,2.1,1.7,3.5c-2.9,1.7-5.9,3.4-8.9,5.1c-1.6,0.9-3.2,1.6-4.7,2.6C1115,410.3,1112.8,410.5,1110.5,408.6z"/>
	<path class="st0" d="M1287.7,202.3c3.4-0.2,4.9,2.1,6.4,4.2c0.5,0.6-0.1,2.4-0.7,3c-0.6,0.6-2.5,1-3.2,0.6
		c-1.9-1.2-3.9-2.7-5.2-4.4C1283.6,203.6,1284.9,202.3,1287.7,202.3z"/>
	<path class="st0" d="M1556.7,375.6c-5.4,2.7-10.8,5.5-16.2,8.2c-0.1-4.7,3.1-6.7,7.1-7.9c2.3-0.7,4.7-1.1,7.1-1.4
		C1555.2,374.5,1555.9,375.3,1556.7,375.6z"/>
	<path class="st0" d="M1265.6,195.4c3.9,0.7,7.8,1.5,11.7,2.4c0.5,0.1,1.2,1.1,1.2,1.6c-0.1,0.6-0.8,1.4-1.4,1.5
		c-3,0.1-6.1,0.5-8.9-0.2c-1.4-0.3-2.3-2.7-3.4-4.2C1265.1,196.1,1265.4,195.8,1265.6,195.4z"/>
	<path class="st0" d="M1521.4,589.7c1.1,0.1,2.2,0.1,3.2,0.4c2.2,0.6,4.2,1.1,6.3-0.6c0.6-0.6,3.2-0.2,3.5,0.3
		c0.7,1.3,0.6,3,0.8,4.5c-1.2,0-2.5,0.1-3.8-0.1c-1.9-0.2-3.9-0.6-5.7-1.2c-1.6-0.4-3.2-1.2-4.7-1.8
		C1521.1,590.8,1521.2,590.2,1521.4,589.7z"/>
	<path class="st0" d="M1497.8,312.9c3,2,5.7,3.8,8.3,5.6c0.6,0.4,0.7,1.3,1.1,2c-0.6,0.2-1.2,0.6-1.9,0.7c-0.6,0.1-1.3,0-1.9,0.1
		c-5.6,0.4-5.8,0.3-5.7-5.3C1497.7,315,1497.8,314,1497.8,312.9z"/>
	<path class="st0" d="M1295.1,216c-0.2-0.7-0.2-1.5-0.6-2c-1.4-2-0.5-3.3,1.4-4.2c1.9-1,3.6-0.6,4.6,1.2c0.6,1.1,0.9,2.3,1,3.5
		c0.1,2.5-1,3.1-3.4,2.2C1297.1,216.3,1296,216.2,1295.1,216C1295,216,1295.1,216,1295.1,216z"/>
	<path class="st1" d="M1308.1,339.5c3,0.2,6.2,0.9,9.2,0.6c4.1-0.4,8.4-1.1,11.2-4.6c0.1,0.8,0.1,1.6,0.2,2.4
		c-6.4,4.3-13.4,5.2-20.9,3.7C1307.9,340.8,1308,340.2,1308.1,339.5z"/>
	<path class="st15" d="M1339.7,331.8c2,2.9-1,3.9-2.1,5.6c-2.1-0.9-4.1-1.7-6.3-2.5c0.6-1.2,1.2-2.4,1.7-3.5
		C1335.2,331.5,1337.4,331.6,1339.7,331.8z"/>
	<path class="st0" d="M1515.9,630.9c-3.2-0.1-3.7-1.9-4-3.7c-0.3-2.2,1.3-2.4,3.1-2.5c2.7-0.2,3.5,1.7,3.6,3.4
		C1518.8,628.9,1516.9,630,1515.9,630.9z"/>
	<path class="st12" d="M1334.1,313.4c-1.6,1-3.2,2-4.8,3c-0.2-4-0.4-7.9-0.6-11.9c1.4,2.2,2.8,4.3,4.1,6.5
		C1333.4,311.8,1333.7,312.6,1334.1,313.4z"/>
	<path class="st0" d="M1294.3,368.4c-0.6,0.8-1.2,2.2-2,2.3c-2.8,0.3-5.6,0.2-8.4,0c-0.7-0.1-1.3-1.2-1.9-1.8
		C1286.2,368.7,1290.3,368.6,1294.3,368.4z"/>
	<path class="st0" d="M1734.8,484.1c5.2-1.5,7.3-0.9,9.3,2.7C1741.6,488.5,1736.5,487.1,1734.8,484.1z"/>
	<path class="st14" d="M1366.9,428.3c0-0.2,0-0.4,0-0.6c1.2-2.4,1.6-5.3,5-6.6c0.1,1.1,0.1,1.9,0.2,2.8c0,0.9,0.1,1.7,0.1,2.5
		c-0.2,1.1-0.5,2-0.6,3.1c-0.2,0-0.5,0-0.6,0C1369.5,429.2,1368.2,428.8,1366.9,428.3z"/>
	<path class="st15" d="M1357.7,334.2c-0.1,0-0.3,0-0.4,0c-0.3,0.2-0.6,0.4-0.8,0.6c-0.4,0-0.8,0-1.2,0.1c-1.8-0.5-3.6-1-5.4-1.5
		c2.2-1.4,4.5-2.7,6.7-4C1357.2,330.9,1359.1,332.2,1357.7,334.2z"/>
	<path class="st13" d="M1317.4,291.5c-1,0.3-2.1,0.6-3.2,1c-0.3,0.8-0.6,2.1-1.1,3.4c-2.5-2.1-2.9-4.8-2.5-7.8
		C1312.9,289.3,1315.1,290.4,1317.4,291.5z"/>
	<path class="st0" d="M1536.4,621c-1.5,1.9-2.5,3.5-3.9,4.8c-0.4,0.4-1.7,0.4-2.3,0.1c-0.5-0.3-0.8-1.4-0.6-2
		C1530.2,621.3,1532.5,620.2,1536.4,621z"/>
	<path class="st0" d="M995.9,430.3c2.7-0.9,5-1.4,6.9,0.7c0.4,0.4,0.7,1.4,0.5,1.9c-0.3,0.5-1.2,1-1.8,0.9
		C999.2,433.8,997.1,433.2,995.9,430.3z"/>
	<path class="st0" d="M1741.7,519.2c-1.3-1.9-2.2-3.2-2.9-4.6c-0.1-0.1,1.9-1.4,2.1-1.3c1.3,1,2.4,2.2,3.4,3.5
		C1744.3,516.9,1743,518,1741.7,519.2z"/>
	<path class="st0" d="M1418.4,308.4c-1.9-0.1-3.7-0.1-5.6-0.4c-0.5-0.1-1-1-1-1.6c-0.1-0.4,0.7-1.1,1.2-1.2c2.1-0.3,4.3-0.4,5.6,1.7
		C1418.5,307.5,1418.5,307.9,1418.4,308.4z"/>
	<path class="st0" d="M1687.1,512.4c-1.2,1.2-1.9,1.8-2.7,2.4c-0.7-0.9-1.9-1.6-2.1-2.5c-0.1-0.5,1.2-1.7,2-1.9
		C1685,510.2,1685.8,511.4,1687.1,512.4z"/>
	<path class="st0" d="M1305.5,367.9c-0.5,1.2-0.9,2.5-1.3,3.7c-1.1-0.5-2.2-0.9-3.3-1.4l0,0c-0.2-0.8-0.5-1.6-0.6-2.5
		C1302,367.8,1303.7,367.9,1305.5,367.9z"/>
	<path class="st0" d="M1300.2,367.7c0.2,0.8,0.5,1.6,0.6,2.5c-0.6-0.6-1.3-1.2-1.9-1.9C1299.3,368.1,1299.8,367.9,1300.2,367.7z"/>
	<path class="st10" d="M1067.2,264.1c-0.3-0.4-0.6-0.7-0.8-1.1C1066.6,263.5,1067,263.8,1067.2,264.1z"/>
	<path class="st1" d="M1328.9,339.7c-0.1-0.1-0.2-0.2-0.3-0.2c0.1,0,0.1-0.1,0.3-0.1l0.1,0.2L1328.9,339.7z"/>
	<path class="st17" d="M1222.5,308.8c0-0.2,0.1-0.4,0.1-0.7c0.2,0.2,0.4,0.4,0.6,0.6C1223,308.7,1222.7,308.8,1222.5,308.8z"/>
	<path class="st5" d="M1139.6,286.5c-6.8,3.7-13.6,7.3-20.3,10.9c-1.7,0.9-3.3,1.9-4.9,2.9c-0.2-0.1-0.5-0.2-0.6-0.4
		c0-2.7,0.1-5.3,0.1-7.9c0-10.5,0-21,0-31.4c6.7-3.6,13.3-7.1,20-10.8c3.1-1.7,6.2-3.6,9.2-5.4c0.4,1.1,1.1,2.1,1.1,3.2
		c0.1,11.2,0.1,22.3,0.1,33.4c-0.1,0.1-0.2,0.2-0.2,0.2c0,0.2,0.1,0.3,0.2,0.5c0,0.6,0,1.2,0.1,1.9
		C1142.6,284.5,1141.2,285.5,1139.6,286.5z"/>
	<path class="st6" d="M1113.7,260.6c0,10.5,0,21,0,31.4c0,2.7-0.1,5.3-0.1,7.9c-5.3-2.9-10.7-5.7-16-8.7c-0.8-0.4-1.5-1.6-1.5-2.4
		c-0.1-12.3-0.1-24.5-0.1-36.8c0-0.4,0.4-0.9,0.6-1.4c1.7,1.2,3.6,2.4,5.3,3.7c0,3-0.1,6-0.1,8.9c0,4.7,0.3,5,5.9,6.8
		c0-3.2-0.1-6.2,0.1-9.2c0.1-0.9,0.8-1.9,1.2-2.7C1110.7,258.9,1112.2,259.7,1113.7,260.6z"/>
	<path class="st8" d="M1102.1,254.4c-1.7-1.2-3.6-2.4-5.3-3.7c3.6-2.2,7.3-4.7,11-6.8c5.2-3,10.6-5.8,16-8.6
		c2.9-1.5,5.4-0.7,7.5,2.1c-0.4,0.4-0.6,0.9-1.1,1.1c-6.7,3.6-13.4,7.1-20.1,10.8c-2.6,1.4-4.9,3.2-7.4,4.9
		C1102.5,254.4,1102.3,254.4,1102.1,254.4z"/>
	<path class="st10" d="M1102.7,254.3c2.5-1.6,4.8-3.5,7.4-4.9c6.6-3.7,13.4-7.2,20.1-10.8c0.5-0.2,0.7-0.7,1.1-1.1
		c1.9,1.1,3.8,2.1,5.8,3.2c-3.7,2.2-7.3,4.5-11.1,6.6c-6,3.3-12.1,6.4-18.2,9.7C1106.1,256.1,1104.4,255.2,1102.7,254.3z"/>
	<path class="st8" d="M1107.8,257c6.1-3.2,12.2-6.4,18.2-9.7c3.8-2,7.4-4.4,11.1-6.6c1.9,1.2,4,2.4,5.9,3.6c-3,1.8-6.1,3.7-9.2,5.4
		c-6.7,3.7-13.3,7.2-20,10.8c-1.5-0.8-3-1.7-4.5-2.5C1108.8,257.7,1108.2,257.3,1107.8,257z"/>
	<path class="st10" d="M1176,289c-3.2,1.5-6.5,2.9-9.7,4.6c-5.1,2.7-10.2,5.5-15.3,8.4c-1.6,0.9-2.9,2.1-4.2,3.2
		c-0.5,0-0.9,0-1.3,0.1c-1.6-1-3-2-4.6-3c1.2-1.1,2.3-2.4,3.7-3.2c8-4.7,16.2-9.1,24.3-13.7C1171.2,286.5,1173.6,287.7,1176,289z"/>
	<path class="st18" d="M1200.9,238.9c-1.6,2.7-2.8,4.4-3.5,6.3c-0.1,0.4,1.6,2,2.6,2.2c1.7,0.3,4.5-3,4-4.7
		C1203.8,241.6,1202.5,240.8,1200.9,238.9z"/>
	<path class="st18" d="M1085.8,273.8c-1.6-1.1-3-2.2-4.6-3.2c1.8-2.1,3.6-4.1,5.4-6.3c1-1.2,1.7-2.5,2.9-3.7
		c0.8,2.5,0.5,4.8-0.6,7.1C1087.9,269.7,1086.9,271.7,1085.8,273.8z"/>
	<path class="st11" d="M1139.6,286.5c1.5-1,3-2,4.5-3c1,0.7,1.9,1.4,3.2,2.4c-1.5,0.7-2.7,1.4-3.8,2
		C1142.2,287.4,1140.9,287,1139.6,286.5z"/>
	<path class="st8" d="M1087.7,276.7c-0.1-0.4-0.3-0.9-0.5-1.3C1087.4,275.8,1087.6,276.2,1087.7,276.7z"/>
	<path class="st11" d="M1144.1,281.6c-0.1-0.2-0.1-0.3-0.2-0.5c0-0.1,0.1-0.1,0.2-0.2C1144.1,281.2,1144.1,281.4,1144.1,281.6z"/>
	<path class="st8" d="M1087.7,278.5c-0.1-0.2-0.1-0.3-0.1-0.5c0-0.1,0.1-0.1,0.1-0.2C1087.7,278.1,1087.7,278.3,1087.7,278.5z"/>
	<path class="st19" d="M1496.8,468.6c1.4-1.5,2.7-2.9,4-4.4c1,0.4,2,0.8,2.9,1.3c5.4,2.7,11.1,5,16.3,8.1c5.5,3.3,8.9,8.3,9.4,14.8
		c0.2,2.9,1.9,3.5,4.5,3.2c4.3-0.5,8.6-0.7,12.8-1.2c5.8-0.7,11.5-1.7,17.2-2.6c-4.4-6.1-8.7-11.7-12.6-17.5c-6-9-9.1-19-8.9-29.5
		c0.4-13.8,6.6-25.6,16.7-35.4c4.3-4.2,9.1-7.9,13.6-11.8c3,1.5,6,3,9,4.5c0.3,0.3,0.5,0.6,0.8,0.9c-0.5,0.4-0.8,0.9-1.4,1.3
		c-7.5,5.3-14,11.5-18.8,19.3c-7.3,11.9-8.5,24.4-3.8,37.4c5.4,14.9,15.9,26.4,27.6,37.1c4.3,3.9,8.7,7.6,13,11.5
		c-3,1.7-6.1,3.3-9.1,5c-6.1-5.1-12.2-10.3-18.4-15.4c-0.5-0.4-1.6-0.6-2.3-0.4c-13.5,2.4-27,4.5-40.8,4.7c-0.8,0-1.8,0.3-2.3,0.9
		c-6.5,8.6-16.1,12.4-26.3,15c-3,0.8-3.9,2.1-3.8,4.9c0.3,14.1,0.5,28.2,0.6,42.3c-4.5,2.5-9.1,5-13.6,7.6c0-1.7-0.2-3.3,0.1-5
		c0.5-3.2-1-4-4.1-3.9c-12.7,0.3-25.3-0.3-37.7-3.1c-10.1-2.3-20-5.3-30.1-7.9l0,0c0-4.8-0.3-5-5.3-5c-2.3,0-4.7,0.1-7.1,0.1
		c-1.4-0.1-2.7,0-4.1-0.2c-2.1-0.3-4.1-0.7-5.7,1.3c-4.5,2.5-9,5-13.5,7.6c-8.2-4.5-16.4-9.1-24.6-13.6c-0.5-1.1-0.7-2.4-1.4-3.3
		c-4.9-7-9.8-14-14.8-20.9c-2-2.7-4.3-5.3-6.4-8c3.9-2.1,7.7-4.3,11.6-6.4c0.3,0.9,0.4,1.8,0.9,2.5c1.7,2.6,3.5,5.1,5.3,7.7
		c7.5,10.5,15,21.1,22.4,31.6c1.1,1.6,2.1,1.8,4,0.7c7.3-4.3,14.8-8.4,22.2-12.5c12.9-7.1,25.9-14.2,38.8-21.3
		c2.1-1.1,4.1-2.4,6.4-3.7c-1.3-1.2-2.2-2-3.2-2.9c-3.8-3-6.2-7-6.5-11.6c-0.3-3-1.4-4-4.2-4.1c-0.8-0.1-1.7-0.3-2.5-0.6
		c-10.8-2.5-21.5-5-32.3-7.5c-2.9-0.7-5.6-1.6-8.4-2.4c3.6-2,7.3-3.9,10.9-5.9c0.8,0.5,1.6,1.2,2.4,1.4c11.3,2.6,22.6,5.1,33.9,7.6
		c1,0.2,2.7-0.2,3.4-1c5.8-6.4,12.8-11.2,21.5-13.5c4.2-1.1,8.4-2.3,12.6-3.5c1.1,2.6,2.2,5.2,3.3,7.9c-7.1,0.6-13.6,2.9-19.5,6.7
		c-9.1,6.1-10.6,15.4-3,22.5c2.5,2.4,5.5,4.3,8.7,5.7c9.8,4.4,20.3,5.5,30.9,4.1c9.1-1.2,17.6-3.7,24.2-10.4
		c5.2-5.3,5.5-12.3,0.5-17.9c-3.2-3.6-7.1-6.2-11.9-7.6c-0.3-0.2-0.5-0.3-0.7-0.5c-0.4-0.1-0.8-0.1-1.1-0.2
		c-1.3-0.6-2.6-1.2-3.8-1.7C1495.9,470.2,1496.3,469.4,1496.8,468.6z M1403.9,537.5c0.1,0.4,0.1,0.7,0.1,1.1
		c8.8,2.9,17.6,6,26.5,8.6c11.5,3.3,23.4,5.4,35.4,6.2c5.1,0.4,10.3-0.2,15.5-0.5c0.7-0.1,1.9-1.2,1.9-1.8c0.1-10.5,0.1-21.1,0-31.6
		c0-0.7-1.1-1.7-1.8-1.9c-2.4-0.4-4.9-0.6-7.4-0.7c-7.5-0.3-14.6-1.8-21.6-4.4c-1-0.4-2.6-0.4-3.6,0.1c-2.5,1-4.8,2.4-7.1,3.6
		c-8.5,4.7-16.9,9.3-25.3,14C1412.2,532.6,1408.1,535.1,1403.9,537.5z"/>
	<path class="st20" d="M1383.1,477.4c2.8,0.8,5.6,1.7,8.4,2.4c10.8,2.5,21.5,5,32.3,7.5c0.8,0.2,1.7,0.5,2.5,0.6
		c2.8,0.1,4,1.1,4.2,4.1c0.3,4.6,2.8,8.6,6.5,11.6c1,0.8,1.9,1.7,3.2,2.9c-2.3,1.4-4.3,2.6-6.4,3.7c-12.9,7.1-25.9,14.2-38.8,21.3
		c-7.5,4.1-14.8,8.2-22.2,12.5c-1.8,1.1-2.9,0.9-4-0.7c-7.5-10.5-15-21.1-22.4-31.6c-1.8-2.5-3.6-5.1-5.3-7.7
		c-0.5-0.7-0.6-1.7-0.9-2.5c9.3-5.2,18.5-10.4,27.7-15.6C1373,482.9,1378.1,480.2,1383.1,477.4z"/>
	<path class="st20" d="M1572.9,393.4c-4.5,3.9-9.3,7.6-13.6,11.8c-10.1,9.8-16.3,21.6-16.7,35.4c-0.3,10.5,2.9,20.6,8.9,29.5
		c3.9,5.9,8.2,11.5,12.6,17.5c-5.7,0.9-11.5,1.9-17.2,2.6c-4.3,0.6-8.6,0.7-12.8,1.2c-2.7,0.3-4.3-0.2-4.5-3.2
		c-0.5-6.4-3.9-11.4-9.4-14.8c-5.1-3.1-10.8-5.4-16.3-8.1c-1-0.4-1.9-0.9-2.9-1.3c6-7.4,11.8-14.9,17.9-22.2c3.6-4.3,5-9.2,5.5-14.5
		c0.8-9.1-1.4-17.8-4.3-26.4c6.8-3.7,13.6-7.5,20.4-11.2c0.5,0.1,1,0.3,1.4,0.2c6.3-0.2,12.2-3.4,18.7-2c0.2,0.1,0.5-0.7,0.8-1.2
		C1565.2,389.1,1569,391.3,1572.9,393.4z"/>
	<path class="st20" d="M1497,562.1c-0.2-14.1-0.3-28.2-0.6-42.3c-0.1-2.9,0.8-4.2,3.8-4.9c10.2-2.6,19.7-6.4,26.3-15
		c0.4-0.6,1.5-0.9,2.3-0.9c13.8-0.1,27.3-2.2,40.8-4.7c0.7-0.1,1.8,0,2.3,0.4c6.2,5.1,12.2,10.2,18.4,15.4
		c-10.8,6.1-21.5,12.2-32.3,18.2c-19.6,10.9-39.1,21.8-58.7,32.6C1498.6,561.5,1497.8,561.8,1497,562.1z"/>
	<path class="st12" d="M1483.4,482.2c-4.2,2.4-5.4,2.1-7.9-1.7c-1.4-3.3-2.9-6.7-4.3-10c-1.1-2.6-2.2-5.2-3.3-7.9
		c-3.7-8.7-7.3-17.4-11-26.1c-0.6-1.6-1.4-3-2-4.6c-2.9-6.9-5.9-13.9-8.8-20.9c-0.1-0.4-0.3-0.7-0.5-1.1c-3.2-7.9-5.1-15.9-4.7-24.4
		c0.3-6.4,1.4-12.8,6.4-17.7c2.6-2.5,6-4.2,9.1-6.2c3.5,0.1,7,0.1,10.4,0.5c5.1,0.7,9.4,3.2,13.7,5.7c8.2,4.8,14.6,11.4,20,18.8
		c5.3,7.3,9.5,15.1,12.1,23.6c1.2,4,1.3,8.3,2.8,12.2c2,5.1,0.3,10-0.3,14.8c-0.4,3-2.6,6-4.3,8.8c-1.4,2.3-3.1,4.4-4.8,6.4
		c-3.7,4.5-7.5,8.9-11.3,13.2L1483.4,482.2 M1456.7,376.7L1456.7,376.7c-4.7,3.4-6.2,8.4-6.2,13.4c0.1,20.7,9.7,36.7,27.5,48.2
		c4.7,3.1,10.2,4.9,16.2,3.3c3.8-0.6,6.9-2.5,8.5-5.6c1.6-3.2,3.3-6.8,3.4-10.1c0.2-21.8-10-38.4-29.2-49.7
		c-5.2-3.1-11.2-4.3-17.3-1.5C1458.6,375.4,1457.6,376.1,1456.7,376.7z"/>
	<path class="st21" d="M1599.4,505.2c-4.3-3.8-8.7-7.6-13-11.5c-11.7-10.7-22.2-22.1-27.6-37.1c-4.7-13-3.6-25.5,3.8-37.4
		c4.8-7.8,11.3-14,18.8-19.3c0.5-0.4,0.9-0.9,1.4-1.3c0.4,0.2,0.8,0.3,1.2,0.5c1.5,0.7,3,1.4,4.4,2.2c1.3,0.8,2.6,1.6,3.9,2.4
		c2.2,1.4,4.4,2.7,6.7,4c-0.6,0.7-1.1,1.4-1.7,2c-3.2,3.2-6.7,6.1-9.6,9.5c-7.9,9.6-10.2,20.5-6.7,32.3c3.2,11,10,20.3,18.2,28.4
		c5.5,5.5,11.5,10.5,17.4,15.7C1610.6,499,1605,502.1,1599.4,505.2z"/>
	<path class="st22" d="M1629.5,424.7c0.2,0.1,0.5,0.2,0.7,0.3c0.1,0.6,0.1,1.6,0.5,1.9c3.9,2.4,7.8,4.7,11.7,6.8
		c6.3,3.4,12.6,6.6,18.9,10.1c0.8,0.4,1,1.7,1.5,2.5c-2.8,1.6-5.4,3.3-8.4,4.6c-13.4,6.1-27,12.2-40.4,18.2
		c-0.9,0.4-2.7,0.3-3.3-0.2c-5.6-5.3-9.7-11.5-11.3-18.9c-2.6-12.2,2.1-22.2,10.4-31.1c1.3-1.4,3-1.8,4.9-0.7c4,2.2,8,4.4,12,6.6
		c0.2,0,0.3,0,0.5,0.1c0.5,0,0.9,0,1.4,0.1C1628.8,424.7,1629.2,424.7,1629.5,424.7z"/>
	<path class="st19" d="M1616.2,495.8c-5.8-5.2-11.8-10.2-17.4-15.7c-8.2-8.1-14.9-17.4-18.2-28.4c-3.5-11.8-1.2-22.7,6.7-32.3
		c2.9-3.5,6.4-6.4,9.6-9.5c0.6-0.6,1.2-1.4,1.7-2c3.4,1.9,6.8,3.7,10.2,5.5c-3.4,3.5-7.2,6.8-10.3,10.5c-6.2,7.4-7.5,15.9-5.4,25
		c1.9,8.6,7.1,15.6,12.4,22.6c2.3,2.9,4.5,3,7.7,1.7c13.5-6,27.2-11.7,40.7-17.8c5.3-2.4,10.2-5.7,15.2-8.6
		c3.4,1.9,6.8,3.8,10.2,5.6c-4.9,2.4-9.8,5-14.8,7.3c-8,3.9-15.9,7.9-24.1,11.5c-7.6,3.3-15.4,6.1-23.1,9.3
		c-0.5,0.2-1.2,1.6-1.1,1.7c3.4,2.7,5.6,6.9,10.5,7.7C1623.3,491.8,1619.8,493.8,1616.2,495.8z"/>
	<path class="st20" d="M1411.6,549.8c10,2.7,20,5.7,30.1,7.9c12.4,2.8,25,3.4,37.7,3.1c3.2-0.1,4.6,0.7,4.1,3.9
		c-0.3,1.6-0.1,3.3-0.1,5c-12,6.7-23.9,13.6-36,20c-1.7,0.9-4.9,0.7-6.7-0.2c-8.7-4.5-17.2-9.4-25.7-14.2c1.4-0.5,3-0.7,4-1.6
		c2.6-2.3,4.9-4.8,7.3-7.4c1.4-1.6,2.7-3.2,4.5-5.4c-6.8-2-13-3.7-19.2-5.5c0-0.2-0.1-0.4-0.1-0.6
		C1411.5,553.1,1411.6,551.5,1411.6,549.8z"/>
	<path class="st20" d="M1456.9,436.4c3.7,8.7,7.3,17.4,11,26.1c-4.2,1.2-8.4,2.4-12.6,3.5c-8.7,2.3-15.7,7-21.5,13.5
		c-0.6,0.7-2.4,1.2-3.4,1c-11.3-2.4-22.6-5-33.9-7.6c-0.8-0.2-1.6-0.9-2.4-1.4c7.4-4.2,14.7-8.4,22.1-12.6
		C1429.6,451.4,1443.3,443.9,1456.9,436.4z"/>
	<path class="st20" d="M1627,489.8c-4.9-0.7-7.1-5-10.5-7.7c-0.1-0.1,0.6-1.4,1.1-1.7c7.6-3.2,15.5-6,23.1-9.3
		c8.2-3.6,16.1-7.6,24.1-11.5c4.9-2.4,9.8-4.9,14.8-7.3c1.9,1.3,3.9,2.7,5.8,4c-1.7,1.4-3.4,3-5.3,4.1
		c-16.4,9.2-32.9,18.4-49.4,27.5C1629.4,488.7,1628.2,489.2,1627,489.8z"/>
	<path class="st20" d="M1669.3,446.7c-5.1,2.9-9.9,6.1-15.2,8.6c-13.5,6.1-27.2,11.8-40.7,17.8c-3.2,1.4-5.4,1.2-7.7-1.7
		c-5.4-6.9-10.5-14-12.4-22.6c-2.1-9.1-0.7-17.7,5.4-25c3.1-3.7,6.9-7,10.3-10.5c6.5,3.6,13,7.2,19.5,10.8c0,0.2,0.1,0.4,0.1,0.6
		c-0.5,0-0.9,0-1.4-0.1c-0.2,0-0.3,0-0.5-0.1c-4-2.2-8-4.3-12-6.6c-1.9-1.1-3.6-0.7-4.9,0.7c-8.3,8.9-13,18.9-10.4,31.1
		c1.6,7.4,5.7,13.6,11.3,18.9c0.6,0.6,2.4,0.7,3.3,0.2c13.5-6,27-12,40.4-18.2c2.9-1.3,5.6-3,8.4-4.6c2.3,2.4,2.2-1.1,3.5-1.3
		C1667.3,445.6,1668.3,446.2,1669.3,446.7z"/>
	<path class="st20" d="M1328.7,507.8c2.1,2.7,4.4,5.2,6.4,8c5,6.9,9.9,13.9,14.8,20.9c0.6,1,1,2.2,1.4,3.3c-10-5.5-20-10.9-30-16.3
		c-2.5-1.3-4.9-2.6-7.3-4.1c-2.2-1.4-2.2-2.6,0.1-3.9C1319,513,1323.8,510.4,1328.7,507.8z"/>
	<path class="st2" d="M1377.7,572.5c-1.9-0.6-4-0.9-5.8-1.8c-8.2-4.4-16.3-8.9-24.3-13.5c-1.1-0.6-2.6-2.2-2.4-3.2
		c0.3-1.2,1.7-2.7,3-3.3c3.3-1.5,6.7-1.3,9.9,0.4c7.6,4.2,15.2,8.5,22.9,12.6c2.2,1.2,4.9,2.2,4,5.2c-0.8,2.8-3.8,2.7-6.2,3
		c-0.3,0.1-0.6,0-1,0C1377.7,572.2,1377.7,572.4,1377.7,572.5z"/>
	<path class="st7" d="M1411.6,555.4c6.2,1.8,12.4,3.5,19.2,5.5c-1.7,2.1-3,3.8-4.5,5.4c-2.3,2.5-4.7,5.1-7.3,7.4
		c-1,0.9-2.7,1.1-4,1.6c-5.6-3.1-21.5-12.4-27-15.5c3.4-0.1-1.4-12.6,2.1-12.5"/>
	<path class="st2" d="M1644.6,418.5c-1,1.9-2.7,2.2-4.6,1.4c-2.7-1.2-5.3-2.6-7.9-4.1c-6.2-3.4-12.2-6.9-18.3-10.4
		c-1-0.6-1.9-1.2-2.9-2c1.6-2.2,3.6-2.3,5.3-1.4c9.3,5.1,18.6,10.3,27.9,15.5C1644.2,417.8,1644.3,418.2,1644.6,418.5z"/>
	<path class="st18" d="M1410.3,456.2c0.3-2,0.5-4,1.1-6c0.8-2.6-0.6-4.7-3.8-5.2c-2-0.4-4-0.7-6-1.2c-0.6-0.2-1.6-1.4-1.5-1.7
		c1.4-2.7,2.9-5.3,4.4-8c0.3,0.1,0.6,0.1,0.9,0.2c-0.1,0.7,0,1.6-0.1,2.3c-0.8,4.2,0,5.7,4.1,7.5c2.2,1,4.2,2.2,5,4.8
		c0.3,1.2,2.4,2,3.7,2.9C1415.5,453.4,1412.9,454.8,1410.3,456.2z"/>
	<path class="st20" d="M1389.7,550.5c-0.1,0.4-0.1,0.8-0.1,1.2c-2.2,2-4.3,4-6.5,6c-2.3-1.4-4.7-2.7-7.1-4c4.5-2.5,9-5,13.5-7.6
		C1389.5,547.5,1389.6,549,1389.7,550.5z"/>
	<path class="st16" d="M1666.2,445c-1.2,0.2-1.2,3.7-3.5,1.3c-0.5-0.9-0.8-2.1-1.5-2.5c-6.2-3.5-12.6-6.7-18.9-10.1
		c-4-2.2-7.9-4.5-11.7-6.8c-0.4-0.2-0.3-1.2-0.5-1.9C1642.2,431.6,1654.2,438.3,1666.2,445z"/>
	<path class="st23" d="M1561.4,387c-0.3,0.4-0.6,1.2-0.8,1.2c-6.5-1.4-12.4,1.8-18.7,2c-0.5,0-1-0.2-1.4-0.2
		c3.3-1.9,6.5-3.8,9.9-5.6c2.7-1.4,5.4-0.8,7.8,0.7C1559.2,385.8,1560.3,386.4,1561.4,387z"/>
	<path class="st2" d="M1583.8,399.3c-0.4-0.2-0.8-0.3-1.2-0.5c-0.3-0.3-0.5-0.6-0.8-0.9c1.3-1,2.5-2.2,3.9-2.9
		c1-0.4,2.3-0.2,3.5-0.2c0.6-2.4-0.5-3.4-2.5-3.4c-1.5,0-3,0.3-5.2,0.6c2.3-3.3,5-2.7,7.3-2.4c2.2,0.3,2.9,2,2.9,4.2
		c0,3.3,0.3,6.8,0.5,10.1c-1.3-0.8-2.6-1.6-3.9-2.4c0.3-1.4,0.5-2.9,0.8-4.3c-1.6,0.4-3.3,0.9-4.9,1.3
		C1583.9,398.4,1583.9,398.9,1583.8,399.3z"/>
	<path class="st7" d="M1383,557.6c2.2-2,4.3-4,6.5-6c0.1,3.2,0.1,6.3,0.1,9.5C1387.5,560,1385.3,558.8,1383,557.6z"/>
	<path class="st2" d="M1649.8,425.4c-1.6-1-2.7-1.6-3.8-2.3c1-0.7,2-1.9,3-2c1-0.1,2.1,1.1,3.2,1.7
		C1651.7,423.6,1650.9,424.4,1649.8,425.4z"/>
	<path class="st18" d="M1618.5,389.7c1.3-0.2,2.6-0.4,4-0.6c0.1,0.2,0.1,0.4,0.1,0.6c-0.7,0.3-1.4,0.7-2.1,1
		C1619.9,390.4,1619.2,390.1,1618.5,389.7z"/>
	<path class="st18" d="M1615.9,388c0.5,0.4,1,0.7,1.6,1.1C1616.9,388.7,1616.4,388.4,1615.9,388z"/>
	<path class="st18" d="M1536.7,385.9c0.5-0.2,0.8-0.5,1.3-0.7C1537.5,385.4,1537.1,385.7,1536.7,385.9z"/>
	<path class="st18" d="M1536,386.4c-0.1-0.2-0.1-0.4-0.1-0.5c0.3,0.1,0.6,0.1,0.9,0.1C1536.5,386,1536.2,386.2,1536,386.4z"/>
	<path class="st16" d="M1628.5,424.7c0-0.2-0.1-0.4-0.1-0.6c0.3,0.2,0.6,0.4,1,0.6C1629.2,424.7,1628.8,424.7,1628.5,424.7z"/>
	<path class="st18" d="M1374.6,383.2c0.3,1.2,0.6,2.4,0.8,3.6c0,0.4,0,0.9,0,1.3c-1,1-2.1,2-3.1,3c-0.7,0.8-2.1,2.1-1.9,2.4
		c0.8,1.2,2,2.3,3.2,3.1c0.7,0.4,1.9,0.1,2.9,0.1c0.3,4.3,0.5,8.7,0.7,13.1c-1.9-0.6-3.8-1.3-5.8-1.9c-3.3-2.5-6.5-5.3-10-7.4
		c-1.9-1.1-4.3-1.6-6.6-1.7c-2.4-0.2-3.7-0.9-4.2-3.2c-0.8-3.3-1.5-6.9-3.2-9.9c-3.4-5.7-8-10.3-14.9-12.2c-0.8-0.2-1.9,0.2-2.8,0.4
		c0-1.6,0-3.3,0-4.9c6.9-0.6,13.9-1.2,20.7-1.8c0.7-0.1,1.7-0.1,2.1,0.3c2.5,2.5,5.8,2.2,8.9,2.8c3,0.5,3.3,1.2,1.8,3.8
		c-0.4,0.7-0.3,1.9-0.1,2.7c0.2,1.2,0.8,2.4,1,3.5c0.3,1.6,0.1,3-2.3,2.4c-1-0.2-2.2-0.4-3.2-0.1c-1.2,0.3-2.2,1.1-3.3,1.6
		c0.8,1.1,1.5,2.8,2.6,3.1C1362.7,388.8,1370.9,388.3,1374.6,383.2z M1358,370.9c-2.5,1.3-4.9,2.5-7.2,3.9c-0.2,0.1,0.2,2,0.7,2.3
		c3.2,1.3,5.8-0.1,8.2-2.1c0.6-0.6,1.4-1.8,1.2-2.5C1360.6,371.8,1359.3,371.5,1358,370.9z M1368.3,396.7c-0.4,0.5-0.8,0.9-1.2,1.4
		c1.5,1.2,2.9,2.5,4.5,3.5c0.3,0.2,1.4-0.2,1.9-0.6c0.2-0.2,0-1.3-0.4-1.6C1371.7,398.4,1370,397.6,1368.3,396.7z"/>
	<path class="st11" d="M1304.6,395.5c0,1.1,0,2,0.1,3.1c-1,2-2.1,4.1,0.6,5.5c2.2,1.1,4.5,2.2,6.9,2.9c1.9,0.6,4.1,0.9,6.2,0.9
		c1,0,2.1-1,3.2-1.5c-0.8-0.9-1.5-1.8-2.4-2.6c-2.1-2-4.4-3.9-6.6-5.9c0.1-0.9,0.3-1.9,0.4-3.1c3.3,0,6.5,0,9.8,0
		c0.8,1.1,1.6,2.8,2.6,3c4.7,0.9,9.6,1.4,14.4,2.1c-0.5,1.9-0.8,3.7-1.3,5.5c-4.7,2.5-9.7,3.8-15,4.3c-0.8,0.1-1.6,0.4-2.5,0.6
		c-1.7,0-3.4,0-5.2,0c-2.8-0.4-5.6-0.8-8.4-1.2c-0.6-0.2-1.3-0.4-1.9-0.6c-2.4-1.1-4.7-2-7.1-3.1c-0.5-0.4-0.8-0.8-1.3-1.2
		c-2.1-3.7,1.5-4.8,3.2-6.8l0,0c1.3-0.6,2.6-1.2,3.9-1.9v-0.1C1304.3,395.6,1304.5,395.6,1304.6,395.5z"/>
	<path class="st6" d="M1339.7,400c-4.8-0.7-9.7-1.2-14.4-2.1c-1-0.2-1.7-1.9-2.6-3c0.2-0.6,0.3-1.2,0.5-1.9c2.1-0.2,4.3-0.4,6.5-0.6
		c3.1,1.4,6.3,2.9,9.4,4.3c0.6,0.2,1.2,0.5,1.7,0.8l0.1,0.1c0.2,0.6,0.5,1.3,0.6,1.9C1340.9,399.7,1340.3,399.8,1339.7,400z"/>
	<path class="st11" d="M1372,424c-0.1-0.9-0.1-1.7-0.2-2.8c-3.4,1.3-3.8,4.2-5,6.6c-2.1-0.4-3.9-1.2-3.9-3.7c1-1.2,1.6-2.9,2.9-3.6
		c2.1-1.2,4.5-1.8,6.8-2.6c1,0,2.1,0,3.2,0c-0.7,1.6-1.4,3-2.1,4.6C1373.2,422.9,1372.6,423.4,1372,424z"/>
	<path class="st0" d="M1375.9,417.9c-1,0-2.1,0-3.2,0c-0.5-3.3-0.8-6.6-1.3-9.9c1.9,0.6,3.8,1.3,5.8,1.9
		C1376.8,412.5,1376.3,415.2,1375.9,417.9z"/>
	<path class="st0" d="M1339.1,396.8c-3.1-1.4-6.3-2.9-9.4-4.3c0.1-0.3,0.1-0.7,0.1-1c2.1-0.9,4.3-1.7,6.4-2.6c0.3,0.2,0.6,0.3,1,0.5
		c-1.1,3-0.9,5.5,2.5,6.4C1339.4,396.1,1339.3,396.4,1339.1,396.8z"/>
	<path class="st0" d="M1315.7,410.4c1.7,0,3.4,0,5.2,0c1.1,0.9,2.1,1.8,3.8,3.2c-4.5,0-8.2,0-12.6,0
		C1313.5,412.3,1314.6,411.3,1315.7,410.4z"/>
	<path class="st0" d="M1301.6,384.9c0,3.3,0,6.7,0,10C1299.3,393.9,1298.7,388,1301.6,384.9z"/>
	<path class="st0" d="M1339.7,400c0.6-0.1,1.2-0.3,1.8-0.4c-0.3,2.4,1.6,5.8-3.1,6C1338.8,403.7,1339.3,401.8,1339.7,400z"/>
	<path class="st0" d="M1300.8,370.2c1.1,0.5,2.2,0.9,3.3,1.4c-0.3,0.4-0.5,0.7-0.8,1.1c-0.3,0.5-0.7,1-1.6,2.2
		C1301.4,372.9,1301.2,371.5,1300.8,370.2z"/>
	<path class="st0" d="M1300.2,397.5c-1.4,0.1-2.8,0.2-4.1,0.3C1297.5,396.2,1298.8,395.2,1300.2,397.5L1300.2,397.5z"/>
	<path class="st0" d="M1297,404.2c0.5,0.4,0.8,0.8,1.3,1.2c-1-0.1-1.9-0.2-2.9-0.3C1295.9,404.8,1296.4,404.5,1297,404.2z"/>
	<path class="st0" d="M1304.1,386.9c0,0.8-0.1,1.7-0.1,2.5C1302.2,388.5,1302.2,387.7,1304.1,386.9z"/>
	<path class="st0" d="M1304,394.3c0.1,0.2,0.1,0.4,0.1,0.6c0,0.2,0,0.5,0,0.7v0.1c-0.6-0.9-1.2-1.8-1.7-2.7c0.2-0.1,0.5-0.2,0.6-0.4
		C1303.4,393.1,1303.7,393.7,1304,394.3z"/>
	<path class="st0" d="M1298.4,407.5c0.3,0.3,0.5,0.7,0.8,1c-0.2,0.1-0.6,0.4-0.6,0.4c-0.3-0.3-0.6-0.6-0.8-0.9
		C1298,407.8,1298.2,407.6,1298.4,407.5z"/>
	<path class="st0" d="M1305.4,408.6c0.6,0.2,1.3,0.4,1.9,0.6C1306.7,408.9,1306.1,408.7,1305.4,408.6z"/>
	<path class="st0" d="M1296.2,408.7c-0.5,0.2-0.8,0.4-1,0.4s-0.3-0.4-0.5-0.6c0.2-0.1,0.4-0.3,0.5-0.2
		C1295.6,408.2,1295.8,408.4,1296.2,408.7z"/>
	<path class="st6" d="M1329.5,391.3c0-0.6-0.1-1.3-0.1-1.9C1329.5,390,1329.5,390.6,1329.5,391.3z"/>
	<path class="st0" d="M1340.8,397.5c0.1-0.1,0.1-0.2,0.2-0.2C1340.9,397.4,1340.9,397.5,1340.8,397.5
		C1340.9,397.6,1340.8,397.5,1340.8,397.5z"/>
	<path class="st11" d="M1371.4,429.6c0.2-1.1,0.5-2,0.6-3.1c4,0.8,5.8-1.8,7.7-4.3c0.3,1.2,0.6,2.4,1,4.3c0.8-2.9,1.4-5,2-7.2
		c0.1-0.7,0.2-1.4,0.3-2c3.2,0.2,6.4,0.4,9.6,0.6c0.1,0.1,0.3,0.2,0.3,0.3c-0.8,1.4-1.7,2.7-2.6,4.2c2.9,0.9,4.9,0.5,6.4-1.7
		c0.4-0.6,1.1-1,1.7-1.5c0.2,1,0.4,2,0.5,3c0.3,0,0.5-0.1,0.7-0.1c0.1-1,0.2-1.9,0.3-2.9c0.7,0.7,1.4,1.4,2.2,1.9
		c2.5,1.7,2.7,4.3,0.2,5.8c-2.4,1.4-5.1,2.7-7.8,3.3C1386.9,432.1,1379.1,431.5,1371.4,429.6z"/>
	<path class="st18" d="M1391.5,389.5c3-0.8,5.8-1,8.9,0.6c1.9,1,5-0.1,7.5-0.1c1.4,0.1,2.9,0.4,4.3,0.9c2.8,1.1,5.5,2.3,8.2,3.4
		c0.9,0.4,1.9,0.7,2.8,1.1c-0.1,0.4-0.2,0.7-0.3,1.1c-3.6-0.9-7.2-1.7-10.8-2.6c-0.2,0.4-0.3,0.7-0.5,1.1c1.3,4.2,8.9,3,8.5,9.2
		c-7.3-1.3-12.1-7.6-19.5-9.8c0.1,2.4,0.3,4.5,0.4,6.4c-2.3,0.3-4.6,0.6-6.9,0.9c-0.2-0.4-0.4-0.9-0.6-1.3c0.9,0.1,1.9,0.4,2.8,0.2
		c1.8-0.5,3.7-1.5,2.9-3.6c-0.3-0.8-2.3-1.1-3.5-1.5c-0.7-0.2-1.5,0.1-2.2,0.1c-0.2-0.4-0.4-0.8-0.5-1.2c1.7-0.3,3.5-0.6,5.2-0.9
		c0.1-1.1,0.3-2.1,0.5-3.7c-2.3,0.3-4.4,0.6-6.4,0.9C1391.9,390.2,1391.7,389.8,1391.5,389.5z"/>
	<path class="st15" d="M1391.5,389.5c0.2,0.4,0.4,0.8,0.6,1.2c0.3,1.2,0.5,2.5,0.7,3.8c0.2,0.4,0.4,0.8,0.5,1.2
		c0,1.6,0.1,3.2,0.1,4.8c0.2,0.4,0.4,0.9,0.6,1.3c0.9,3.3,1.8,6.6,2.7,9.9c-1.2,2.1-2.5,4.2-3.7,6.3c-0.1-0.1-0.2-0.2-0.3-0.3
		c0.6-2.1,1.7-4.3-0.6-6.1c-0.6-2-1.4-4.1-2-6.1c-0.4-1.1-0.8-2.3-1.2-3.4c-1.9-5.3-3.9-10.7-5.8-16c1.9-0.9,3.8-1.7,5.7-2.7
		C1388.6,385.9,1389.7,387.8,1391.5,389.5z"/>
	<path class="st18" d="M1445.5,409.8c0.1,0.4,0.3,0.7,0.5,1.1c-4.8,2.3-5.3,6.4-5,10.4c-2.2,1.2-4,2.3-6,3.2
		c-1.6,0.7-3.4,1.3-5.1,1.2c-1.1-0.1-2.3-1.3-3-2.3c-0.2-0.3,0.9-1.9,1.7-2.4c2.9-1.7,4.9-4,6.1-7.1c1.9-4.6,4-5.5,9-4.4
		C1444.2,409.7,1444.9,409.7,1445.5,409.8z"/>
	<path class="st9" d="M1393,418c1.2-2.1,2.5-4.2,3.7-6.3c1,0.9,2,1.7,3,2.5c-0.5,1.6-0.8,3.2-1.3,4.8c-0.6,0.5-1.3,0.9-1.7,1.5
		c-1.5,2.2-3.4,2.7-6.4,1.7C1391.4,420.7,1392.2,419.4,1393,418z"/>
	<path class="st4" d="M1398.5,419.1c0.4-1.6,0.8-3.2,1.3-4.8c0.1,1.6,0.2,3.2,0.3,4.8c-0.1,1-0.2,1.9-0.3,2.9
		c-0.3,0-0.5,0.1-0.7,0.1C1398.9,421.1,1398.7,420.1,1398.5,419.1z"/>
	<path class="st8" d="M1081.4,365.3c3.1-2.6,6-2.9,9.8-0.7c11.8,6.8,23.9,13.3,35.8,19.9c0.4,0.2,0.6,0.7,0.9,1.1
		c-1.9,2-6,2.4-5.3,6.7c0.5,3.5-1.4,5-5.7,5.3c0-1.7,0-3.5,0-5.1c1.7-1.2,3.3-2.4,5.4-3.9c-8.8-4.9-17.2-9.5-25.5-14.3
		C1091.7,371.4,1086.5,368.3,1081.4,365.3z"/>
	<path class="st10" d="M1081.4,365.3c5.2,3,10.3,6.2,15.6,9.2c8.3,4.7,16.7,9.3,25.5,14.3c-2.1,1.5-3.8,2.7-5.4,3.9
		c-0.6,0-1.3-0.1-1.9-0.1c-1-1.1-1.7-2.4-2.9-3c-7.6-4.3-15.2-8.4-22.9-12.5c-4.8-2.5-9.7-5-14.5-7.4
		C1077,368.1,1079.2,366.6,1081.4,365.3z"/>
	<path class="st8" d="M1074.9,369.5c4.8,2.5,9.7,4.9,14.5,7.4c7.6,4.1,15.3,8.2,22.9,12.5c1.2,0.7,1.9,2,2.9,3
		c-1.4,0.9-2.7,1.9-4,2.9c-13.8-7.6-27.6-15.2-41.4-22.8C1071.4,371.5,1073.1,370.5,1074.9,369.5z"/>
	<path class="st5" d="M1111,395.3c1.4-0.9,2.7-1.9,4-2.9c0.6,0,1.3,0.1,1.9,0.1c0,1.7,0,3.4,0,5.1c4.3-0.4,6.3-1.9,5.7-5.3
		c-0.6-4.3,3.3-4.7,5.3-6.7c0.3,0.2,0.5,0.5,0.8,0.7c0,2.7,0,5.3,0.1,7.9c0,1.1,0,2.1,0,3.1c-0.1,0.5-0.1,1.2-0.5,1.4
		c-5.8,3.2-11.7,6.2-17.6,9.3C1110.8,403.8,1110.9,399.6,1111,395.3z"/>
	<path class="st5" d="M1053,375.3c-0.3-2.5-0.6-5-0.7-7.5c-0.1-3.5,0-7.1,0-10.7c1.5,1.7,3.2,3.3,4.5,5.1c1.2,1.7,2.3,1.9,4,0.8
		c2.3-1.4,4.5-2.7,6.9-3.8c0.6-0.3,1.7,0.3,2.7,0.5c0,1.9,0.1,3.8,0.1,5.6C1064.6,368.6,1058.8,371.9,1053,375.3z"/>
	<path class="st11" d="M1118.9,364.5c0.1-0.2,0.1-0.3,0.1-0.5c6.2-3.3,12.4-6.6,18.7-9.9c2.1-1.1,4.3-2.1,6.5-3.2
		c0.6,0.5,1.3,0.9,2.3,1.7c-2.9,1.7-5.5,3.2-8.2,4.7c-4.5,2.5-9,4.7-13.3,7.4C1122.7,366.1,1120.8,366.1,1118.9,364.5z"/>
	<path class="st11" d="M1053,375.3c5.8-3.3,11.7-6.6,17.5-10c0.6,0.9,1.3,1.8,2.1,2.9c-5.5,3-10.8,5.7-15.9,8.6
		c-1.7,0.9-2.8,0.6-3.7-0.9C1053,375.7,1052.9,375.4,1053,375.3z"/>
	<path class="st16" d="M1144.8,364.6c1.2,1.2,2.5,2.5,3.6,3.8c-0.3,0.3-0.5,0.6-0.8,0.9c-0.7-0.3-1.5-0.6-2.2-0.9
		c-1.4-0.8-2.7-1.7-4.7-2.9C1142.4,365.1,1143.6,364.8,1144.8,364.6z"/>
	<path class="st18" d="M1015.3,390.6c1-2.4,1.7-2.5,3.8-0.7C1017.8,390.1,1016.6,390.4,1015.3,390.6z"/>
	<path class="st14" d="M1128.8,394.3c0-2.7,0-5.3-0.1-7.9C1128.7,389,1128.7,391.6,1128.8,394.3z"/>
	<path class="st11" d="M1636.8,498.3c0,4.5-2.8,6.1-7.8,4.3C1631.6,501.2,1634.2,499.8,1636.8,498.3z"/>
	<path class="st18" d="M1313.1,230.8c-4.7-2.2-9.5-4.3-15-6.8C1302.6,222.2,1311.1,226.7,1313.1,230.8
		C1313.1,230.9,1313.1,230.8,1313.1,230.8z"/>
	<path class="st18" d="M1295,227.8c2.4,1,4.7,2,7.1,3c-0.1,0.4-0.3,0.7-0.4,1.1c-2-0.2-4-0.3-6.2-0.5
		C1295.4,230,1295.2,228.9,1295,227.8C1295,227.7,1295,227.8,1295,227.8z"/>
	<path class="st11" d="M1683.1,476c0.5,4.1-0.5,5.7-3.3,5.6c-1.2,0-3.2-1.2-3.2-1.8C1676.6,475.1,1680.8,477.6,1683.1,476z"/>
	<path class="st15" d="M1375.3,360.4c2.2-3.3,3.9-6.8,2.6-10.9c-0.9-3-1.6-6-2.3-9c-0.3-1.4-0.6-2.9-0.2-4.3c0.3-1,1.5-2.2,2.5-2.4
		c0.8-0.1,2.3,1.2,2.6,2c1.3,5.3,2.7,10.7,3.1,16.1c0.2,2.5-1.6,5.2-2.8,7.7c-1.4,3-3.2,5.8-4.5,8.8c-0.5,1.2-0.3,2.7-0.5,4.5
		c-0.2,0-1,0.1-1.8,0.1c-2.1-2.7-3-5.2-0.3-8.2C1374.8,363.9,1374.8,361.9,1375.3,360.4z"/>
	<path class="st0" d="M1323.2,393.1c-0.2,0.6-0.3,1.2-0.5,1.9c-3.2,0-6.4,0-9.8,0c-0.1,1.2-0.3,2.2-0.4,3.1
		c-0.2-0.1-0.4-0.1-0.6-0.1c0.9-6.4,1.7-12.8,2.8-19.1c1.3-7.8,2.7-15.6,4.1-23.4c0.2-0.9,0.4-1.9,0.7-3.5c0.5,6,1,11.1,1.5,16.3
		c0.1,0.6,0.2,1.3-0.1,1.9c-2.1,5.3-0.3,10.3,1,15.4C1322.7,387.9,1322.9,390.5,1323.2,393.1z"/>
	<path class="st6" d="M1312,398c0.2,0,0.4,0,0.6,0.1c2.2,2,4.5,3.9,6.6,5.9c0.8,0.8,1.6,1.7,2.4,2.6c-1,0.6-2.1,1.5-3.2,1.5
		c-2.1,0-4.2-0.4-6.2-0.9c-2.3-0.7-4.7-1.7-6.9-2.9c-2.8-1.5-1.7-3.5-0.6-5.5C1307.2,399.2,1309.8,400.6,1312,398z"/>
	<path class="st0" d="M1304.1,395.6c0-0.2,0-0.5,0-0.7c0.2,0.2,0.3,0.4,0.5,0.7C1304.5,395.6,1304.3,395.6,1304.1,395.6z"/>
	<path class="st8" d="M1045.6,284.9c3.2-1.7,6.5-3.4,9.7-5.3c2-1.2,3.6-1.4,4.7,0.9c-1,0.8-2.1,1.6-2.9,2.2c0.8,1.7,1.6,3.3,2.6,5.2
		c2.2-1.1,4.8-2.5,7.4-3.8c0.5,0.4,0.9,0.9,1.4,1.2c-3.7,2-7.4,4.2-11,6.2c-3.9-2-7.8-4.1-11.7-6.2
		C1045.7,285.2,1045.6,285,1045.6,284.9z"/>
	<path class="st8" d="M1075.6,321.1c-1.9,1.2-4,2.5-5.9,3.7c0-3.2,0-6.4,0-9.5c0-4.4,0.3-4.8,5.9-6.4
		C1075.6,313.1,1075.6,317.1,1075.6,321.1z"/>
	<path class="st5" d="M1045.6,284.9c0.1,0.2,0.1,0.4,0.1,0.6c0,4,0,8,0,12c-3.9-0.2-5.8-1.9-5.8-5c-0.1-3.3,0-6.7,0-10
		C1041.8,283.1,1043.7,284,1045.6,284.9z"/>
	<path class="st18" d="M1570.8,579.2c0.1,0.1,0.2,0.2,0.3,0.4c-0.1,0.1-0.3,0.2-0.5,0.2l-0.2-0.2
		C1570.6,579.5,1570.7,579.4,1570.8,579.2z"/>
	<path class="st13" d="M1178.5,372.2c-0.1-6.1-0.1-12.2-0.2-18.2c0.6-0.2,1.4-0.8,1.7-0.6c5.3,2.9,10.6,5.9,16.8,9.4
		C1190.2,366.1,1184.3,369.1,1178.5,372.2z"/>
	<path class="st15" d="M1375.9,417.9c0.5-2.7,0.8-5.3,1.3-8c-0.3-4.3-0.5-8.7-0.7-13.1c-0.4-2.9-0.7-5.8-1.1-8.7c0-0.4,0-0.9,0-1.3
		c2.3-0.2,4.6-0.4,6.9-0.6c-0.2,1.6-0.9,3.2-0.5,4.5c1.6,4.3,0.7,8.5,0.6,12.8c-0.2,1.1-0.4,2.1-0.6,3.2c0,1-0.1,2-0.1,3
		c0,1.4-0.1,2.9-0.1,4.3c0.1,0.5,0.3,1.1,0.5,1.6c-1.1,0.9-2.2,1.8-3.4,2.7c-1.7,1.4-3.4,2.7-5.1,4
		C1374.5,420.9,1375.2,419.4,1375.9,417.9z"/>
	<path class="st0" d="M1382.5,403.6c0.1-4.3,1-8.6-0.6-12.8c-0.5-1.3,0.3-3,0.5-4.5c0.3-0.1,0.5-0.1,0.7-0.2
		c1.9,5.3,3.9,10.7,5.8,16c0.4,1.1,0.8,2.3,1.2,3.4C1387.6,404.8,1385.1,404.2,1382.5,403.6z"/>
	<path class="st13" d="M1176.4,389.9c0.1-2.2-0.1-4.5,0.2-6.8c0.1-1.2,0.8-2.3,1.3-3.4c0.3,0.1,0.6,0.2,0.8,0.3c0,2,0,4,0,6.8
		c1.2-1.7,2-2.9,3.1-4.3c0.4,0.2,1.7,0.8,4,1.9c-0.3-3-0.6-5.2-0.9-7.9c0.5-0.2,1.9-0.9,3.2-1.6c0.1,0.1,0.2,0.2,0.3,0.4
		c-0.1,2.8-0.2,5.5-0.3,8.3c0.1,0.1,0.2,0.3,0.3,0.4c-3.9,2-7.7,4.1-11.6,6.1C1176.7,390.1,1176.5,390,1176.4,389.9z"/>
	<path class="st13" d="M1171.4,393.1c-0.3,0.9-0.6,1.7-1,2.5c-0.4-0.4-0.8-0.7-1.2-1.1c-2-7.4-0.7-10,5.8-12.5
		c-0.3,2.2-0.8,4.5-1,6.8c-0.1,1.8,1.1,1.7,2.3,1.1c0.1,0.1,0.2,0.2,0.3,0.2C1175,391.1,1173.2,392.1,1171.4,393.1
		c1.4-2.7,1.2-5.1-1.1-7.6c-0.4,2.4-0.5,4.8-0.3,7.1C1169.9,392.8,1170.8,393,1171.4,393.1z"/>
	<path class="st13" d="M1192,372.5c0.9-0.4,1.8-0.9,2.7-1.4c2.3,7.4,0.8,10.4-6.4,12.9c-0.1-0.1-0.2-0.3-0.3-0.4
		c3.1-2,4.4-5.1,5-8.5c0.3,1.4,0.6,2.8,1,4.2c0.1-0.1,0.3-0.1,0.4-0.1c0-2.2,0-4.4,0-6.8c-0.8,0.2-1.4,0.4-2,0.6
		C1192.2,372.8,1192.1,372.7,1192,372.5z"/>
	<path class="st13" d="M1189.2,374.3c0.5-0.2,0.8-0.4,1.3-0.6c0.1,0.1,0.2,0.2,0.3,0.3c-0.4,0.2-0.8,0.5-1.2,0.7
		C1189.5,374.6,1189.4,374.4,1189.2,374.3z"/>
	<path class="st13" d="M1188,374.9c0.4-0.2,0.8-0.5,1.2-0.7c0.1,0.2,0.3,0.3,0.4,0.5c-0.5,0.2-0.9,0.4-1.3,0.6
		C1188.2,375.2,1188.1,375.1,1188,374.9z"/>
	<path class="st13" d="M1190.5,373.7c0.2-0.2,0.5-0.4,0.6-0.6c0.1,0.1,0.3,0.2,0.4,0.4c-0.3,0.2-0.5,0.4-0.8,0.5
		C1190.8,373.9,1190.7,373.8,1190.5,373.7z"/>
	<path class="st13" d="M1191.2,373.1c0.3-0.2,0.5-0.4,0.7-0.6c0.1,0.2,0.3,0.3,0.4,0.5c-0.3,0.2-0.5,0.3-0.7,0.5
		C1191.5,373.3,1191.4,373.2,1191.2,373.1z"/>
	<path class="st5" d="M1094.5,340.2c0.2-0.6,0.3-1.1,0.5-1.7c1.9,0.9,3.8,1.8,5.6,2.7c0.1,0.2,0.1,0.4,0.1,0.6
		c0.1,0.9,0.1,1.7,0.1,2.6c-0.3,1.4-0.6,2.8-0.9,4.3c-1.5-1.2-2.4-2-3.3-2.7c-0.7-0.4-1.4-0.7-2.1-1.1
		C1094.6,343.3,1094.6,341.7,1094.5,340.2z"/>
	<path class="st13" d="M1206.2,326c4.5-2.7,9.1-5.3,13.7-8c2.3,7.1-0.5,11.3-7.7,12.2c0-2,0-3.9,0-6.1c-1.1,0.3-1.8,0.6-2.5,0.8
		c0.1,1.4,0.3,2.5,0.5,4.3c-1.7-1.3-2.7-2-3.6-2.9C1206.4,326.3,1206.3,326.2,1206.2,326z"/>
	<path class="st6" d="M1201.2,336.9c-0.1,0.1-0.2,0.1-0.3,0.2c-0.9,0.7-1.9,1.4-2.8,2c-0.5-1.5-1.9-3.7-1.3-4.3
		c1.4-1.5-1.3-4.7,2.3-4.9c0.5,1.7,1.1,3.3,1.6,5C1201,335.5,1201,336.2,1201.2,336.9z"/>
	<path class="st13" d="M1203.1,327.5c1-0.5,2.1-0.9,3-1.4c0.1,0.1,0.3,0.2,0.4,0.4c-0.2,2.4-0.5,4.9-0.6,7.3
		c0.3,0.1,0.6,0.2,0.8,0.2c-0.7,0.4-1.4,0.7-2.2,1.1c-0.1-0.1-0.3-0.2-0.4-0.4c-0.1-1.6,1.3-3.7-1.7-4.1l-0.1-0.1
		C1203.9,329.7,1205.2,328.9,1203.1,327.5z"/>
	<path class="st13" d="M1201.2,336.9c-0.1-0.7-0.3-1.4-0.5-2c-0.5-1.7-1-3.3-1.6-5c0.8-0.5,1.7-1,2.6-1.5c0.3,0.7,0.5,1.4,0.7,2.1
		l0.1,0.1c-0.1,1.6-2.1,3.4,0.5,4.8c0.1,0.1,0.2,0.2,0.3,0.4C1202.6,336.1,1201.9,336.5,1201.2,336.9z"/>
	<path class="st6" d="M1202.4,330.6c-0.3-0.7-0.5-1.4-0.7-2.1c0.5-0.3,0.9-0.6,1.4-1C1205.2,328.9,1203.9,329.7,1202.4,330.6z"/>
	<path class="st13" d="M1204.5,335.1c-0.5,0.2-0.8,0.4-1.3,0.7c-0.1-0.1-0.2-0.2-0.3-0.4c0.4-0.2,0.8-0.4,1.2-0.7
		C1204.3,334.8,1204.4,335,1204.5,335.1z"/>
	<path class="st6" d="M1339.7,331.8c-2.3-0.1-4.5-0.3-6.7-0.4c-1.9-1.1-3.9-2.2-5.8-3.3c0.1-3.3,0.2-6.6,0.3-9.9
		c1.2,0.6,2.5,1.3,3.8,1.9c-0.1,3-0.3,6,4.1,6.3c0.4-1.1,0.8-2.2,1.1-3.3c1,0.5,2.1,1,3.1,1.5C1339.6,327,1339.6,329.4,1339.7,331.8
		z"/>
	<path class="st6" d="M1068.6,277.2c2.6-1.9,5.1-3.8,7.8-5.5c0.6-0.4,2.1,0.1,3.1,0.5c1.4,0.6,2.7,1.5,4.4,2.4
		c-3.2,1.9-6.2,3.7-9.1,5.5C1072.8,279.2,1070.7,278.2,1068.6,277.2z"/>
	<path class="st13" d="M1067,284.1c-2.6,1.4-5.2,2.7-7.4,3.8c-1-1.9-1.7-3.5-2.6-5.2c0.8-0.6,1.9-1.4,2.9-2.2
		C1062.4,281.7,1064.7,282.9,1067,284.1z"/>
	<path class="st18" d="M1392.1,313.2c0.2,0.2,0.4,0.6,0.5,0.8C1392.5,313.8,1392.3,313.4,1392.1,313.2z"/>
	<path class="st1" d="M1096.8,345.9c0.9,0.7,1.8,1.5,3.3,2.7c0.3-1.6,0.6-2.9,0.9-4.3c0.8,0.3,1.7,0.6,2,0.7c-0.4,2-0.8,3.6-1.1,5.2
		c0.3-0.2,0.6-0.4,0.8-0.6c1.7,0.8,3.4,1.6,5.2,2.5c0-1.1,0-2.5,0-3.8c8.4,2.5,10.2,5,8.4,12.6c-7-4-13.9-7.9-20.7-11.8l0,0
		C1096,348,1096.4,347,1096.8,345.9z"/>
	<path class="st1" d="M1094.5,340.2c0.1,1.6,0.1,3.1,0.1,4.7c-0.1,1-0.2,2-0.3,3l0,0c-0.5-0.3-1.5-0.6-1.6-0.9
		c-0.1-2.2-0.1-4.4-0.1-6.5c-1.1-0.1-1.9-0.2-2.9-0.3c-0.8-0.1-1.7-0.2-2.6-0.4c-0.1,0.9-0.3,1.7-0.3,2.5c0,0.7,0.2,1.4,0,2.1
		c-1.7-2.4-0.6-5.2-1.2-8.6C1089.1,337.5,1091.8,338.8,1094.5,340.2z"/>
	<path class="st1" d="M1095.6,349.1c-0.5-0.4-0.8-0.8-1.3-1.2l0,0C1094.8,348.3,1095.2,348.7,1095.6,349.1L1095.6,349.1z"/>
	<path class="st5" d="M1188.7,321.4c0.1,0.2,0.1,0.4,0.1,0.5c-0.6,1.7-1.2,3.4-1.8,5.1c-4.8-1.1-5.2-1.6-5.2-6c0-0.9,0-1.9-0.1-2.8
		c0.2,0,0.4,0,0.6,0C1184.4,319.3,1186.5,320.3,1188.7,321.4z"/>
	<path class="st5" d="M1140.8,302.1c1.6,1,3,2,4.6,3c0,1.7,0,3.5,0,5.4c-4.7-0.7-5.8-1.9-5.8-5.5c0-1.1,0.1-2,0.1-3.1
		C1140.1,302,1140.5,302,1140.8,302.1z"/>
	<path class="st13" d="M1342.8,334.8c-1.2-5.4-0.8-6,3.6-8.4c4-2.1,8-4.3,11.9-6.6c1.7,4,1.1,5.9-2.4,7.8
		C1351.5,330.1,1347.2,332.4,1342.8,334.8z"/>
	<path class="st5" d="M1336.5,323c-0.4,1.1-0.8,2.2-1.1,3.3c-4.4-0.3-4.3-3.3-4.1-6.3c0.5,0.2,0.8,0.4,1.3,0.6
		c1.3,0.6,2.6,1.2,4,1.8C1336.5,322.6,1336.5,322.8,1336.5,323z"/>
	<path class="st18" d="M1356.4,334.8c0.3-0.2,0.6-0.4,0.8-0.6C1357,334.5,1356.7,334.6,1356.4,334.8z"/>
	<path class="st0" d="M1021.9,394.7c1.2,3.3,0.3,5.1-2.5,5.8c-1.7,0.4-3.2-0.2-3.2-2C1016.2,394.7,1019.8,396.2,1021.9,394.7z"/>
	<path class="st9" d="M1373.8,422.4c1.7-1.4,3.4-2.7,5.1-4c1.1-0.9,2.3-1.8,3.4-2.7c0.3,0.5,0.6,1,0.9,1.5c-0.1,0.7-0.2,1.4-0.3,2
		c-1,1-2,1.9-3,2.9c-1.9,2.6-3.8,5.1-7.7,4.3c0-0.9,0-1.7-0.1-2.5C1372.6,423.4,1373.2,422.9,1373.8,422.4z"/>
	<path class="st5" d="M1107.8,257c0.5,0.4,1,0.7,1.4,1.1c-0.5,0.9-1.2,1.8-1.2,2.7c-0.1,3-0.1,6.1-0.1,9.2c-5.6-1.7-5.9-2-5.9-6.8
		c0-3,0.1-6,0.1-8.9c0.2,0,0.4,0,0.6,0C1104.4,255.2,1106.1,256.1,1107.8,257z"/>
	<path class="st0" d="M1186.2,257.8c-2.2,1.6-3.6,2.9-5.3,3.8c-0.3,0.1-2.5-2.2-2.3-2.5c1.1-1.7,2.6-3.2,4-4.7
		C1183.6,255.3,1184.5,256.2,1186.2,257.8z"/>
	<path class="st0" d="M1200.9,238.9c1.6,1.9,2.8,2.7,3.1,3.8c0.5,1.7-2.3,5-4,4.7c-1-0.2-2.7-1.7-2.6-2.2
		C1198.1,243.3,1199.3,241.6,1200.9,238.9z"/>
	<path class="st0" d="M1234.2,219.2c-1.7-1.1-2.7-1.7-3.8-2.4C1233.1,215.6,1233.1,215.6,1234.2,219.2z"/>
	<path class="st22" d="M1493.7,483.5c0.7,1.1,1.4,1,2.1,2.1c1.8,2.8,1.4,5.7-1.2,8c-6.7,6-20,6.1-27.4,1.4c-2.6-1.7-4.5-3.8-4-7.1
		c0.7-4,4.3-5.2,7.3-6.7c1.4-0.7,3.1-0.6,4.7-0.8c-1.4-3.3-2.9-6.7-4.3-10c-7.1,0.6-13.6,2.9-19.5,6.7c-9.1,6.1-10.6,15.4-3,22.5
		c2.5,2.4,5.5,4.3,8.7,5.7c9.8,4.4,20.3,5.5,30.9,4.1c9.1-1.2,17.6-3.7,24.2-10.4c5.2-5.3,5.5-12.3,0.5-17.9
		c-3.2-3.6-7.1-6.2-11.9-7.6c-0.3-0.2-0.5-0.3-0.7-0.5c-0.4-0.1-0.8-0.1-1.1-0.2l-4.6-1.9l-8.4,8.2l7.5,5.5c0-0.6,0-2.5,0-2.5"/>
	<path class="st20" d="M1403.9,537.5c4.1-2.4,8.3-5,12.6-7.3c8.4-4.7,16.9-9.4,25.3-14c2.3-1.3,4.7-2.6,7.1-3.6
		c1-0.4,2.5-0.4,3.6-0.1c6.9,2.6,14.1,4.1,21.6,4.4c2.5,0.1,4.9,0.2,7.4,0.7c0.7,0.1,1.8,1.2,1.8,1.9c0.1,10.5,0.1,21.1,0,31.6
		c0,0.6-1.2,1.7-1.9,1.8c-5.1,0.3-10.4,0.9-15.5,0.5c-12.1-0.8-23.9-2.9-35.4-6.2c-8.9-2.5-17.7-5.6-26.5-8.6
		C1404,538.3,1403.9,537.9,1403.9,537.5z M1415.7,536.7c0.9,0.7,1.2,1.1,1.5,1.2c10.8,3,21.5,6,32.3,9c7.8,2.2,15.8,2.5,23.9,2.5
		c2.3-0.1,3.4-0.8,3.5-3c0.2-7.2,0.4-14.4,0.6-21.6c0.1-2.5-1-3.1-3.4-3.4c-6.2-0.9-12.6-1.5-18.6-3.3c-4.2-1.3-7.3-0.8-10.8,1.3
		c-7.1,4.3-14.3,8.3-21.4,12.5C1420.9,533.2,1418.5,534.9,1415.7,536.7z"/>
	<path class="st20" d="M1411.6,549.8c-4.1-1.6-8.2-3.3-12.4-4.9c2.3,0,4.7-0.1,7.1-0.1C1411.3,544.8,1411.6,545,1411.6,549.8z"/>
	<path class="st10" d="M1501.1,473.5c-0.3-0.2-0.5-0.3-0.7-0.5C1500.5,473.2,1500.8,473.3,1501.1,473.5z"/>
	<path class="st24" d="M1459.5,374.8c6.1-2.8,12.1-1.6,17.3,1.5c19.2,11.3,29.4,27.9,29.2,49.7c0,3.4-1.7,7-3.4,10.1s-4.7,5-8.5,5.6
		c-1.9-0.5-3.8-0.9-5.6-1.5c-3.4-1.2-7.1-2-9.8-3.9c-14.1-9.8-23.1-22.8-25.6-39.4c-0.8-4.8-1.4-10.1,1.6-14.9
		c1-1.6,1.2-3.5,1.8-5.2l0.1-0.1C1457.6,376.1,1458.6,375.4,1459.5,374.8z"/>
	<path class="st17" d="M1488,480.1l-1.4-1.1c-1.3,0.7-2.3,2.3-3.6,3c-4.2,2.4-5.1,2.2-7.6-1.7c-1.6,0.2-3.4,0.1-4.7,0.8
		c-3,1.6-6.6,2.8-7.3,6.7c-0.6,3.3,1.4,5.5,4,7.1c7.3,4.7,20.7,4.5,27.4-1.4c2.5-2.2,3-5.2,1.2-8c0,0-2.2-4.8-9.3-6.6"/>
	<path class="st20" d="M1456.6,376.7c-0.6,1.7-0.8,3.7-1.8,5.2c-3,4.8-2.3,10-1.6,14.9c2.5,16.6,11.5,29.6,25.6,39.4
		c2.8,1.9,6.5,2.7,9.8,3.9c1.8,0.6,3.7,1,5.6,1.5c-6,1.6-11.5-0.2-16.2-3.3c-17.8-11.5-27.4-27.5-27.5-48.2
		C1450.5,385.1,1451.9,380.1,1456.6,376.7z"/>
	<path class="st20" d="M1459.5,374.8c-1,0.6-1.9,1.3-2.9,1.9C1457.6,376.1,1458.6,375.4,1459.5,374.8z"/>
	<path class="st1" d="M1583.8,399.3c0.1-0.3,0.1-0.8,0.3-0.9c1.6-0.5,3.3-0.9,4.9-1.3c-0.3,1.4-0.5,2.9-0.8,4.3
		C1586.8,400.7,1585.3,400,1583.8,399.3z"/>
	<path class="st16" d="M1626.7,424.7c0.2,0,0.3,0,0.5,0.1C1627,424.7,1626.8,424.7,1626.7,424.7z"/>
	<path class="st0" d="M1358,370.9c1.2,0.6,2.6,0.9,2.8,1.6c0.2,0.7-0.5,1.9-1.2,2.5c-2.3,2-4.9,3.4-8.2,2.1
		c-0.5-0.2-0.9-2.2-0.7-2.3C1353.1,373.3,1355.6,372.2,1358,370.9z"/>
	<path class="st0" d="M1375.4,388.1c0.4,2.9,0.7,5.8,1.1,8.7c-1,0-2.1,0.2-2.9-0.1c-1.3-0.8-2.5-1.9-3.2-3.1
		c-0.2-0.3,1.2-1.7,1.9-2.4C1373.3,390.1,1374.4,389.1,1375.4,388.1z"/>
	<path class="st0" d="M1368.3,396.7c1.6,0.9,3.3,1.7,4.8,2.8c0.3,0.2,0.6,1.4,0.4,1.6c-0.5,0.4-1.6,0.9-1.9,0.6
		c-1.6-1.1-3-2.4-4.5-3.5C1367.6,397.6,1368,397.1,1368.3,396.7z"/>
	<path class="st0" d="M1383.1,417.2c-0.3-0.5-0.6-1-0.9-1.5c-0.1-0.5-0.3-1.1-0.5-1.6c3.4-0.8,6.9-1.7,10.4-2.5
		c2.2,1.9,1.1,4,0.6,6.1C1389.5,417.6,1386.4,417.4,1383.1,417.2z"/>
	<path class="st4" d="M1379.8,422.1c1-1,2-1.9,3-2.9c-0.6,2.2-1.2,4.3-2,7.2C1380.4,424.6,1380.1,423.4,1379.8,422.1z"/>
	<path class="st7" d="M1393.4,400.5c0-1.6-0.1-3.2-0.1-4.8c0.8-0.1,1.6-0.2,2.2-0.1c1.2,0.3,3.2,0.6,3.5,1.5c0.8,2.1-1,3.1-2.9,3.6
		C1395.4,400.9,1394.4,400.6,1393.4,400.5z"/>
	<path class="st0" d="M1392.8,394.4c-0.3-1.2-0.5-2.5-0.7-3.8c2-0.2,4.1-0.6,6.4-0.9c-0.2,1.6-0.3,2.6-0.5,3.7
		C1396.3,393.8,1394.6,394.1,1392.8,394.4z"/>
	<path class="st18" d="M1392.2,411.7c-3.4,0.8-6.9,1.7-10.4,2.5c0-1.4,0.1-2.9,0.1-4.3c1.4-0.1,2.9-0.1,4.3-0.2
		c0.1-0.4,0.2-0.8,0.3-1.2c-1.5-0.6-3-1.1-4.5-1.6c0.2-1.1,0.4-2.1,0.6-3.2c2.5,0.6,5.1,1.2,7.6,1.9
		C1390.8,407.6,1391.5,409.6,1392.2,411.7z"/>
	<path class="st0" d="M1381.9,406.8c1.5,0.6,3,1.1,4.5,1.6c-0.1,0.4-0.2,0.8-0.3,1.2c-1.4,0.1-2.9,0.1-4.3,0.2
		C1381.9,408.8,1381.9,407.8,1381.9,406.8z"/>
	<path class="st5" d="M1191.6,373.5c0.3-0.2,0.5-0.3,0.7-0.5c0.6-0.2,1.2-0.3,2.1-0.6c0,2.4,0,4.6,0,6.8c-0.1,0.1-0.3,0.1-0.4,0.1
		c-0.3-1.4-0.6-2.8-1-4.2c-0.6,3.4-1.8,6.4-5,8.5c0.1-2.8,0.2-5.5,0.3-8.3c0.5-0.2,0.9-0.4,1.3-0.6c0.4-0.2,0.8-0.5,1.2-0.7
		C1191.1,373.8,1191.4,373.6,1191.6,373.5z M1189.9,378c-0.3,0-0.6,0-1,0.1c0.1,0.8,0.1,1.6,0.2,2.4c0.3,0,0.5-0.1,0.7-0.1
		C1189.9,379.6,1189.9,378.8,1189.9,378z"/>
	<path class="st5" d="M1171.4,393.1c-0.5-0.1-1.4-0.2-1.4-0.4c-0.1-2.4-0.1-4.8,0.3-7.1C1172.5,387.9,1172.8,390.4,1171.4,393.1
		C1171.4,393.1,1171.4,393.1,1171.4,393.1z"/>
	<path class="st6" d="M1095.6,349.1c-0.5-0.4-0.8-0.8-1.3-1.2c0.1-1,0.2-2,0.3-3c0.7,0.4,1.4,0.7,2.1,1.1
		C1096.4,347,1096,348,1095.6,349.1z"/>
	<path class="st5" d="M1204.1,334.6c-0.4,0.2-0.8,0.4-1.2,0.7c-2.5-1.4-0.6-3.2-0.5-4.8C1205.5,331.1,1204,333.2,1204.1,334.6z"/>
	<path class="st22" d="M1415.7,536.7c2.7-1.7,5.2-3.5,7.8-5c7.1-4.2,14.4-8.2,21.4-12.5c3.5-2.1,6.5-2.7,10.8-1.3
		c6,1.9,12.4,2.5,18.6,3.3c2.3,0.3,3.5,0.9,3.4,3.4c-0.3,7.2-0.5,14.4-0.6,21.6c-0.1,2.2-1.2,3-3.5,3c-8.1,0.1-16.1-0.3-23.9-2.5
		c-10.8-3-21.6-6-32.3-9C1416.9,537.7,1416.6,537.3,1415.7,536.7z"/>
	<path class="st10" d="M1490.6,477.3c-0.2,0.2-0.5,0.4-0.6,0.7C1490.1,477.7,1490.4,477.5,1490.6,477.3z"/>
	<path class="st13" d="M1189.9,378c0,0.8,0,1.6,0,2.4c-0.3,0-0.5,0.1-0.7,0.1c-0.1-0.8-0.1-1.6-0.2-2.4
		C1189.2,378,1189.6,378,1189.9,378z"/>
	<polygon class="st3" points="1483.8,481.5 1494.4,465.4 1497,468.5 1484,481.5 	"/>
</g>
<rect x="0.6" y="-0.3" class="st25" width="1920" height="800"/>
</svg>
