<?xml version="1.0" encoding="utf-8"?>
<!-- Generator: Adobe Illustrator 24.1.1, SVG Export Plug-In . SVG Version: 6.00 Build 0)  -->
<svg version="1.1" id="Layer_1" xmlns="http://www.w3.org/2000/svg" xmlns:xlink="http://www.w3.org/1999/xlink" x="0px" y="0px"
	 viewBox="0 0 1920 800" style="enable-background:new 0 0 1920 800;" xml:space="preserve">
<style type="text/css">
	.st0{fill:#FFFFFF;}
	.st1{fill:url(#SVGID_1_);}
	.st2{fill:#8CD334;}
	.st3{fill:#E0D4D7;}
	.st4{fill:#F3FFFF;}
	.st5{clip-path:url(#SVGID_3_);}
	.st6{clip-path:url(#SVGID_5_);}
	.st7{fill:#7595C2;}
	.st8{fill:#FC008B;}
	.st9{fill:#FCC13F;}
	.st10{fill:#EFEFEF;}
	.st11{fill:#7271B3;}
	.st12{fill:#F68A6C;}
	.st13{fill:#FFA500;}
	.st14{fill:#2D2861;}
	.st15{fill:#ADEFF7;}
	.st16{fill:#352E73;}
	.st17{fill:#74A8E6;}
	.st18{fill:#76C6ED;}
	.st19{fill:#FEE2BF;}
	.st20{fill:#D6007E;}
	.st21{fill:#F7A491;}
	.st22{fill:#F8A492;}
	.st23{fill:#E5910C;}
	.st24{fill:#FE875E;}
</style>
<g>
	<rect x="0" class="st0" width="1919.5" height="800"/>
	
		<linearGradient id="SVGID_1_" gradientUnits="userSpaceOnUse" x1="1032.9625" y1="399.8844" x2="1917.1001" y2="399.8844" gradientTransform="matrix(1 0 0 1 2.89 -1.01)">
		<stop  offset="0" style="stop-color:#FAE5E7"/>
		<stop  offset="1" style="stop-color:#ECEEFA"/>
	</linearGradient>
	<path class="st1" d="M1547.2,796.7c0,0,202.1-13,371.7-108.1L1920,2l-884.1-1c0,0,436.4,188.8,185.2,520.8
		c-18.8,24.6-30.7,53.8-34.4,84.6c-8.8,78,31.9,195.1,360.3,190L1547.2,796.7z"/>
	<path id="path350" class="st2" d="M1355.9,422.6l-2.5,4.6l-7.7-3.2l-4.4,6.2l-6.2-1.4l-0.7,3.1l8.2,1.9l4.2-5.9l8,3.3l3.7-6.9
		L1355.9,422.6"/>
	<path id="path352" class="st3" d="M1868.4,667.3h-72V438h72V667.3"/>
	<path id="path354" class="st4" d="M1856.4,481.4h-18v-28.8h18V481.4"/>
	<path id="path356" class="st4" d="M1856.6,521.1h-18v-28.7h18V521.1"/>
	<path id="path358" class="st4" d="M1856.9,560.8h-18v-28.7h18V560.8"/>
	<path id="path360" class="st4" d="M1857.1,600.6h-18v-28.7h18V600.6"/>
	<path id="path362" class="st4" d="M1857.3,640.3h-18v-28.7h18V640.3"/>
	<path id="path364" class="st3" d="M1717,667.3h-72V542.4h72V667.3"/>
	<g>
		<defs>
			<rect id="SVGID_2_" x="1691.2" y="330.9" width="118.8" height="336.5"/>
		</defs>
		<clipPath id="SVGID_3_">
			<use xlink:href="#SVGID_2_"  style="overflow:visible;"/>
		</clipPath>
		<g class="st5">
			<g id="g368">
				<path id="path382" class="st3" d="M1810,667.3h-118.8V330.9H1810V667.3"/>
			</g>
		</g>
	</g>
	<path id="path384" class="st0" d="M1734.7,362.7h-27.4v-12.2h27.4V362.7"/>
	<path id="path386" class="st0" d="M1777.5,362.7h-27.4v-12.2h27.4V362.7"/>
	<g id="g388">
		<g>
			<defs>
				<rect id="SVGID_4_" x="1324.8" y="586.2" width="76" height="81.3"/>
			</defs>
			<clipPath id="SVGID_5_">
				<use xlink:href="#SVGID_4_"  style="overflow:visible;"/>
			</clipPath>
			<g class="st6">
				<g id="g390">
					<path id="path404" class="st3" d="M1400.8,667.5h-76v-81.3h76V667.5"/>
				</g>
			</g>
		</g>
	</g>
	<path id="path406" class="st0" d="M1345.7,602.3h-11.2V591h11.2V602.3"/>
	<path id="path408" class="st0" d="M1361.9,602.3h-11.2V591h11.2V602.3"/>
	<path id="path410" class="st0" d="M1345.7,618.1h-11.2v-11.3h11.2V618.1"/>
	<path id="path412" class="st0" d="M1361.9,618.1h-11.2v-11.3h11.2V618.1"/>
	<path id="path414" class="st0" d="M1346.6,636.2h-11.2v-11.4h11.2V636.2"/>
	<path id="path416" class="st0" d="M1362.8,636.2h-11.2v-11.4h11.2V636.2"/>
	<path id="path418" class="st0" d="M1346.6,652h-11.2v-11.3h11.2V652"/>
	<path id="path420" class="st0" d="M1362.8,652h-11.2v-11.3h11.2V652"/>
	<path id="path422" class="st7" d="M1332.1,667.3h-72V562.2h72V667.3"/>
	<path id="path424" class="st0" d="M1277.1,579.1h-11.2v-11.3h11.2V579.1"/>
	<path id="path426" class="st0" d="M1293.2,579.1H1282v-11.3h11.2V579.1"/>
	<path id="path428" class="st0" d="M1277.1,595h-11.2v-11.3h11.2V595"/>
	<path id="path430" class="st0" d="M1293.2,595H1282v-11.3h11.2V595"/>
	<path id="path432" class="st0" d="M1276.2,612.5h-11.2v-11.3h11.2V612.5"/>
	<path id="path434" class="st0" d="M1292.3,612.5h-11.2v-11.3h11.2V612.5"/>
	<path id="path436" class="st0" d="M1276.2,628.4h-11.2v-11.3h11.2V628.4"/>
	<path id="path438" class="st0" d="M1292.3,628.4h-11.2v-11.3h11.2V628.4"/>
	<path id="path440" class="st8" d="M1483.4,310.1l-22.7,15.5c-2.3,1.6-5.4,1-6.9-1.3c0,0,0,0,0-0.1l-15.4-22.9
		c-1.5-2.3-0.9-5.5,1.4-7l22.7-15.5c2.3-1.6,5.4-1,6.9,1.3c0,0,0,0,0,0.1l15.4,22.9C1486.2,305.4,1485.6,308.6,1483.4,310.1"/>
	<path id="path442" class="st0" d="M1472,293.9c4,5.9,2.4,14-3.4,18s-13.9,2.5-17.8-3.5c-4-5.9-2.4-14,3.4-18c0,0,0,0,0,0
		C1460,286.5,1468,288,1472,293.9"/>
	<path id="path444" class="st8" d="M1457.1,295.8l5.3,5.8c0.4,0.4,0.4,1.1-0.1,1.5c-0.4,0.4-1.1,0.4-1.5-0.1
		c-0.1-0.1-0.1-0.1-0.2-0.2L1457.1,295.8"/>
	<path id="path446" class="st8" d="M1461.1,301.7l8-4.5l-6.9,5.9c-0.4,0.3-0.9,0.3-1.3-0.1c0,0,0,0,0,0c-0.3-0.4-0.3-0.9,0.1-1.3
		L1461.1,301.7"/>
	<path id="path448" class="st2" d="M1617.6,280l-1.5,3.9l3.2,1.9l-2,4.3l4.5,0.9l-2,4.9l3.9,1.3l-1.1,4.8l-2,0.1l0.8-3.6l-4.1-1.4
		l1.9-4.7l-4.6-0.9l2.2-4.8l-3.2-1.9l1.4-3.6l-2.5-0.8l1.1-1.7L1617.6,280"/>
	<path id="path450" class="st9" d="M1305.9,438.7c2.9,7.6-0.9,16-8.4,18.9c-7.5,2.9-15.9-0.9-18.8-8.5c-2.9-7.6,0.9-16,8.4-18.9
		C1294.6,427.3,1303,431.1,1305.9,438.7C1305.9,438.7,1305.9,438.7,1305.9,438.7"/>
	<path id="path452" class="st10" d="M1285.9,448.8c1.5,4,6,6.1,10,4.5c4-1.5,6-6.1,4.5-10.1L1285.9,448.8"/>
	<path id="path454" class="st11" d="M1374,337.4l-4.2-2.7l3.6-7.2l-5.6-4.7l1.8-5.9l-3-0.9l-2.4,7.8l5.3,4.5l-3.8,7.5l6.3,4.1
		L1374,337.4"/>
	<path id="path456" class="st9" d="M1763,297.7l5.8,3.3c0,0,10.4-1.3,11.8-3.1c1.4-1.8,2.6-6.7,4-6.5c2.4,0.2,4.1,2.2,4,4.6
		c0,2.5-4.9,8.8-4.5,9.7c0.2,0.5,3.5,2.5,6,3.9c1.6,1,2.5,2.7,2.4,4.6l0,0c-0.1,1.3-1,2.3-2.2,2.5l-1.9,0.3l0.2,2
		c0.2,1.5-0.9,2.8-2.3,3l-1.5,0.2l0.2,1.2c0.3,1.5-0.7,2.9-2.2,3.2c-0.1,0-0.1,0-0.2,0l-1.3,0.1v0.3c-0.1,1.4-1.1,2.5-2.5,2.6
		l-1.3,0.1l-15.4-8.7c-1.4-0.8-2.7-1.9-3.7-3.3l-4.9-4c-0.5-0.4-0.7-1.2-0.3-1.8l8-13.7C1761.5,297.6,1762.4,297.4,1763,297.7"/>
	<path id="path458" class="st8" d="M1522.2,299.1l-4.3-0.4l-0.6,4l-4.3-0.2l-1,3.8l-3.2,0.4l0.2,1.6l4.3-0.5l1-3.6l4.4,0.2l0.6-3.9
		l3.9,0.3L1522.2,299.1"/>
	<path id="path460" class="st9" d="M1423.9,337.4l-5.3,1.6l-1.7,5.3c0,0.3-0.3,0.5-0.6,0.4c-0.2,0-0.3-0.1-0.4-0.3l-3.2-4.5
		l-5.5,0.1c-0.3,0-0.5-0.2-0.6-0.5c0-0.1,0-0.2,0.1-0.3l3.4-4.4l-1.7-5.3c-0.1-0.3,0.1-0.6,0.3-0.7c0.1,0,0.2,0,0.3,0l5.2,1.8
		l4.4-3.3c0.2-0.2,0.6-0.1,0.7,0.1c0.1,0.1,0.1,0.2,0.1,0.3l-0.1,5.5l4.5,3.2c0.3,0.2,0.3,0.5,0.2,0.8
		C1424.2,337.3,1424.1,337.4,1423.9,337.4"/>
	<path id="path462" class="st9" d="M1315.2,500.6l-5.3,1.6l-1.6,5.3c-0.1,0.3-0.4,0.5-0.7,0.4c-0.1,0-0.3-0.1-0.3-0.2l-3.2-4.5
		l-5.5,0.1c-0.3,0-0.5-0.2-0.5-0.5c0-0.1,0-0.2,0.1-0.3l3.3-4.4l-1.8-5.3c-0.1-0.3,0.1-0.6,0.3-0.7c0.1,0,0.2,0,0.3,0l5.2,1.8
		l4.4-3.3c0.2-0.2,0.6-0.1,0.8,0.1c0.1,0.1,0.1,0.2,0.1,0.3l-0.1,5.5l4.5,3.2c0.2,0.2,0.3,0.5,0.1,0.8
		C1315.4,500.5,1315.3,500.6,1315.2,500.6"/>
	<path id="path464" class="st12" d="M1401.3,521.8h74.3V441h-36.8c-20.7,0-37.5,16.9-37.5,37.7c0,0,0,0,0,0V521.8"/>
	<path id="path466" class="st13" d="M1487.7,635.7h-122.5l-1.7-88.6c0-1.5,0.2-3.1,0.7-4.5l25.3-72.3c2.2-5.8,7.7-9.5,13.8-9.4h84.5
		V635.7"/>
	<path id="path468" class="st14" d="M1363.4,635.7h6.7c3.2,0,5.8-2.6,5.8-5.9v-18.2c0-3.3-2.6-5.9-5.8-5.9c0,0,0,0,0,0h-6.7V635.7"
		/>
	<path id="path470" class="st14" d="M1354.2,511.3h-3.9v-13.7c0-11.3,9.1-20.4,20.2-20.4h32.9v3.9h-32.9c-9,0-16.3,7.4-16.4,16.5
		V511.3"/>
	<path id="path472" class="st14" d="M1351,539.5h3.5c5,0,9-4,9-9v-18.8c0-5-4-9-9-9h-3.4c-5,0-9,4-9,9v18.8
		C1342,535.5,1346,539.5,1351,539.5"/>
	<path id="path474" class="st15" d="M1345.5,531.2V511c0-2.7,2.1-4.8,4.8-4.8l0,0h4.8c2.6,0,4.8,2.2,4.8,4.8v0v20.2
		c0,2.7-2.1,4.8-4.8,4.8c0,0,0,0,0,0h-4.8C1347.6,536,1345.5,533.9,1345.5,531.2C1345.5,531.2,1345.5,531.2,1345.5,531.2"/>
	<path id="path476" class="st14" d="M1390.5,542.9h63.8c4,0,7.2-3.2,7.2-7.2c0,0,0,0,0,0v-52.9c0-4-3.2-7.2-7.2-7.2h-47.7
		c-3.1,0-5.9,2.1-6.8,5.1l-16.1,52.9c-1.2,3.8,1,7.8,4.8,9C1389.1,542.8,1389.8,542.9,1390.5,542.9"/>
	<path id="path478" class="st16" d="M1392.5,504.6l-8.8,28.9c-1.2,3.8,1,7.8,4.8,9c0.7,0.2,1.4,0.3,2.1,0.3h63.8
		c4,0,7.2-3.2,7.2-7.2c0,0,0,0,0,0v-31H1392.5"/>
	<path id="path480" class="st16" d="M1382.3,634.2c0,19.8,15.9,35.8,35.5,35.8c19.6,0,35.5-16,35.5-35.8c0-19.8-15.9-35.8-35.5-35.8
		l0,0C1398.2,598.4,1382.3,614.4,1382.3,634.2"/>
	<path id="path482" class="st16" d="M1704.8,633.6c0,19.5,15.2,35.2,34,35.2s34-15.8,34-35.2s-15.2-35.2-34-35.2
		S1704.8,614.2,1704.8,633.6"/>
	<path id="path484" class="st17" d="M1487.6,586.7h348c6.6,0,12-5.4,12-12.1V370.7c0-6.7-5.4-12.1-12-12.1h-348
		c-6.6,0-12,5.4-12,12.1v203.8C1475.7,581.2,1481,586.6,1487.6,586.7"/>
	<path id="path486" class="st11" d="M1837.5,577.4c0.4,0,0.8-0.4,0.8-0.8v0V368.7c0-0.4-0.3-0.8-0.8-0.8l0,0h-175.7v209.4H1837.5"/>
	<path id="path488" class="st16" d="M1837.5,423.5c0.4,0,0.8-0.1,0.8-0.2v-55.2c0-0.1-0.3-0.2-0.8-0.2h-175.7v55.6H1837.5"/>
	<path id="path490" class="st18" d="M1485.7,358.6h166.9v228h-166.9c-5.5,0-10-4.5-10-10.1V368.7
		C1475.7,363.2,1480.1,358.7,1485.7,358.6"/>
	<path id="path492" class="st9" d="M1745.2,577.4h74.9v-62.8h-74.9V577.4"/>
	<path id="path494" class="st19" d="M1661.9,577.4h94.5v-75.1h-94.5V577.4"/>
	<path id="path496" class="st9" d="M1661.9,502.2h80.6v-71.5h-80.6V502.2"/>
	<path id="path498" class="st11" d="M1490.7,635.7h332.7v-49.1h-332.7c-6.2,0-11.1,5-11.1,11.2l0,0v26.6
		C1479.5,630.7,1484.5,635.7,1490.7,635.7L1490.7,635.7"/>
	<path id="path500" class="st18" d="M1820.1,593.3h-162.5v36.6h162.5V593.3"/>
	<path id="path502" class="st8" d="M1662.9,621.7h46.9v-14.5h-46.9V621.7"/>
	<path id="path504" class="st20" d="M1662.9,621.7h28.3v-14.5h-28.3V621.7"/>
	<path id="path506" class="st8" d="M1762.7,621.7h46.9v-14.5h-46.9V621.7"/>
	<path id="path508" class="st20" d="M1788.3,621.7h21.3v-14.5h-21.3V621.7"/>
	<path id="path510" class="st16" d="M1593.6,633.6c0,19.5,15.2,35.2,34,35.2s34-15.8,34-35.2s-15.2-35.2-34-35.2
		S1593.6,614.2,1593.6,633.6"/>
	<path id="path512" class="st14" d="M1583,632.7c0,20.6,15.2,37.3,34,37.3c18.8,0,34-16.7,34-37.3s-15.2-37.3-34-37.3
		S1583,612.1,1583,632.7"/>
	<path id="path514" class="st14" d="M1377.9,633.5c0,20.1,15.2,36.5,34,36.5s34-16.3,34-36.5s-15.2-36.5-34-36.5
		S1377.9,613.4,1377.9,633.5"/>
	<path id="path516" class="st11" d="M1395.2,632.7c0,10.1,7.5,18.4,16.7,18.4s16.7-8.2,16.7-18.4s-7.5-18.3-16.7-18.3
		S1395.2,622.5,1395.2,632.7"/>
	<path id="path518" class="st11" d="M1600.3,632.7c0,10.1,7.5,18.4,16.7,18.4s16.7-8.2,16.7-18.4s-7.5-18.3-16.7-18.3
		S1600.3,622.5,1600.3,632.7"/>
	<path id="path520" class="st11" d="M1763.8,409.1h-31.6c0,4.5,3.6,8.2,8.1,8.2l0,0h15.4C1760.2,417.2,1763.8,413.6,1763.8,409.1
		C1763.8,409.1,1763.8,409.1,1763.8,409.1L1763.8,409.1"/>
	<path id="path522" class="st21" d="M1554.8,648.1c0,0,2.7,2.6,2.7,3.6s0.2,11.4-0.8,12.4s-4.3,1.7-3.3,2.8
		c0.8,0.8,6.7,0.7,10.7,0.4c1.1-0.1,2.6-9.5,3.1-10.9c0.7-2,3.1-6.4,2.5-7.8c-0.3-0.7-2.5-2.2-4.5-3.5c-1.6-1.2-3-2.7-4.1-4.4
		L1554.8,648.1"/>
	<path id="path524" class="st21" d="M1519.2,654.6l2.4,6.9c0.2,1.1,0.9,3.8,0.9,4.8c0,3.7-16.4-3.2-12.7-4.8
		c0.8-0.6,1.4-1.6,1.5-2.6c0.2-1.9-1.4-4.4-1.4-4.4L1519.2,654.6"/>
	<path id="path526" class="st14" d="M1496.5,524.2l-6,15.5c0,0-3.9,37-1.6,59.1c1,9.3,21.4,58.8,21.4,58.8l10.2-1.5l-13.6-58.7
		l5-22.5l7.1-44.4L1496.5,524.2"/>
	<path id="path528" class="st16" d="M1524.5,525.1l5.1,17.3l7.8,52.1l26.2,48.7c0,0-4,6.1-8.2,7l-37.2-49.2l-20.2-61.7l0.7-13.7
		L1524.5,525.1"/>
	<path id="path530" class="st22" d="M1466.3,540.7c3.7-1.5,3.8-0.8,4.3-1c0.5-0.2,5-7,5-7s13.1-20,13.8-21.1l4-24.6l12.6-1.3
		c0,0-5.1,26.6-5.6,28c-0.5,1.3-21.4,26.2-23.1,28.5c0,0-1.1,3.5-1.9,5.7c-0.7,1.6-1.7,3.1-2.8,4.4c-0.9,1.4-2,2.7-3.2,3.8
		c-1.7,1.6-0.8-0.7-0.8-0.7s2.7-3.6,2.4-3.8c-0.3-0.2-1.6,1.9-3.5,3.7c-0.5,0.5-1,0.9-1.4,1.3c-1.2,1.1-2.2,0.7-1.1-0.7
		c0.5-0.6,1-1.2,1.5-1.7c0.5-0.5,0.9-1.1,1.3-1.7c0.5-0.6,0.9-1.2,1.4-1.8c-0.1,0,0-0.3-0.6,0.1c-0.9,1-1.8,2-2.7,2.9
		c-0.6,0.4-1.7,1.4-1.7,1.4c-0.7,0.5-1.4,0.9-2.1,1.3c-0.6-0.5,0.6-1.9,1.4-2.5c0.5-0.6,1-1.1,1.6-1.6c0,0,2-2.6,1.7-2.9
		c-0.3-0.3-6.4,5-6.9,4.5c-0.5-0.5,1.3-2.1,1.3-2.1s1.1-0.9,1.5-1.3s1.6-1.7,1.6-1.7s3.8-4.7,3.4-4.9c-0.6-0.3-1.2-0.4-1.9-0.3
		c-0.3,0.2-0.8,0.9-1.1,1.1c-0.4,0.2-0.9,0.1-1.2-0.2c-0.3-0.4,1-2,1-2C1464.9,541.7,1465.6,541.1,1466.3,540.7"/>
	<path id="path532" class="st23" d="M1490.8,494.5l14.5,1.5c0,0,0.7-12.1,0.7-17.9c0-7-1-15.8-1.8-15.6c-2.3,0.6-5.1,1.6-6.9,4.2
		C1490.8,475.8,1490.8,494.5,1490.8,494.5"/>
	<path id="path534" class="st14" d="M1565,645.1c0,0-5.6,17.3-8,18.1c-0.6,0.2-4.2,1.1-4.8,2.5v0.1c-0.1,0.8,0.4,1.5,1.2,1.7
		c0.1,0,0.2,0,0.3,0h11.4c0,0,1.6-7.8,2.3-11.2c0,0,3.4-8.3,3-9.1C1569.9,646.5,1565.1,645,1565,645.1"/>
	<path id="path536" class="st14" d="M1523.4,667.5l-1.8-6c0,0-4,1.7-6,1.4c-2-0.4-3.9-0.8-5.8-1.4c-7.9,2.6-14.3,3.9-13.2,6H1523.4"
		/>
	<path id="path538" class="st24" d="M1472.1,542.6c-1.2,1.2-2.9,1.7-4.6,1.3c1.4,1,3.4,0.6,4.3-0.9
		C1471.9,542.9,1472,542.7,1472.1,542.6"/>
	<path id="path540" class="st13" d="M1522.7,461.8c0,0,7.7,1.1,9.7,2.6c2.3,1.7,9.3,9.5,9.3,9.5s-14.6,42.2-14.1,49.7
		c0.6,7.5,2.2,18.6,2.2,18.6s-28.4,1.8-39.2-2.5c0,0,3.4-17,3.4-21.5s1.9-49.1,3.3-51.5c1.4-2.3,4.1-3.7,9.3-4.8
		C1511.7,460.8,1522.7,461.8,1522.7,461.8"/>
	<path id="path542" class="st21" d="M1520.6,449.7l1.9,12.5c0,0-5.7,6.6-9.8,5.3c-3.5-1.1-2.6-6-2.6-6s1.9-7,1.3-10.6
		C1510.8,447.3,1520.6,449.7,1520.6,449.7"/>
	<path id="path544" class="st24" d="M1511.4,450.9c-0.6-3.5,9.2-1.2,9.2-1.2l0.2,1c-0.2,0.6-0.6,1.2-1.1,1.7
		c-2.3,2.3-5.3,3.7-8.5,3.9C1511.5,454.5,1511.6,452.7,1511.4,450.9"/>
	<path id="path546" class="st21" d="M1522.2,432c0.3-0.1,2.2,14.3-1.5,18.2c-3.7,3.9-10.8,5.2-13.4,2.1c-2.8-3.4-2.7-18.9,3-22.9
		C1516,425.4,1522.2,432,1522.2,432"/>
	<path id="path548" class="st16" d="M1512.5,421.7c3.2,0.7,6.1,2.3,8.3,4.7c2,0.2,4.7,1.3,7.5,6c3.5,5.7,0.9,12.1-3.1,15.2
		c-4,3.1-4,6.7-4,6.7l-0.6-1.8c-0.5-1.4-0.7-2.9-0.5-4.4c0.1-0.9,0.3-1.8,0.7-2.6c1-2.1-2.1-3.5-2.9-5.2c-0.7-1.3-0.7-4.4-1.7-6.6
		l-1.2-1.7c0,0-2.8-2.2-5.6-1.6C1506.4,431.1,1506.8,420.6,1512.5,421.7"/>
	<path id="path550" class="st21" d="M1518.1,442.8c0,1.8,0.8,3.2,1.8,3.2s1.9-1.4,1.9-3.1c0-1.7-0.8-3.2-1.8-3.2
		C1518.9,439.7,1518.1,441.1,1518.1,442.8"/>
	<path id="path552" class="st19" d="M1570.3,560.4h-57.4v-50.1h57.4V560.4"/>
	<path id="path554" class="st12" d="M1534.6,560.4h-21.7v-50.1h21.7V560.4"/>
	<path id="path556" class="st22" d="M1556.1,552.9c-0.6-2.4-1.8-6-1.8-6c0.1-3.1,2.8-37.8,2.5-39.3c-0.4-1.5-12-27.5-12-27.5
		l-9.8,9.3l11.3,23.6c0.1,1.4,1,27,1,27s0.5,7.9,0.1,8.4c-1.2,1.4-2.2,2.8-3.1,4.4c-0.4,0.9-0.7,1.9-0.7,2.8c0,0-0.1,2.2,0.4,2.4
		c0.5,0.1,1-0.1,1.2-0.6c0.2-0.4,0.1-1.3,0.2-1.7c0.5-0.5,1.1-0.8,1.8-0.9c0.3,0,0.3,2.7,0.1,5.2c0,1,0.7,1.9,1.7,2.1
		c0.4,0.1,0.7-0.3,1.1,0.2c0.7,0.2,1.5,0.1,2.2-0.1c0.8,0.3,1.7,0.3,2.6,0l0.3-0.1c0.7-0.2,1.2-0.8,1.2-1.5c0-0.7,0-1.3,0-2
		C1556.4,557.8,1556.8,555.3,1556.1,552.9"/>
	<path id="path558" class="st13" d="M1551.2,489l-12.8,10.1c0,0-5.7-5.5-8.5-11.5c-2.8-6-2-24.8,1.1-23.9
		C1537.8,465.4,1551.2,489,1551.2,489"/>
	<path id="path560" class="st12" d="M1396.3,567.8h-16.7v-7.4h24.1C1403.7,564.5,1400.4,567.8,1396.3,567.8L1396.3,567.8"/>
	<path id="path562" class="st19" d="M1880.5,667.5h-636.6c-1.7,0-3,0.5-3,1.2l0,0c0,0.7,1.3,1.2,3,1.2h636.6c1.7,0,3-0.5,3-1.2l0,0
		C1883.5,668.1,1882.1,667.5,1880.5,667.5"/>
	<path id="path564" class="st8" d="M1583.5,294.5c0,0.9-3.9,1.6-8.8,1.6s-8.8-0.7-8.8-1.6c0-0.9,3.9-1.5,8.8-1.5
		S1583.5,293.6,1583.5,294.5"/>
	<path id="path566" class="st8" d="M1574.7,277.1c-1.7,0-3.1-1.4-3.1-3.1s1.4-3.1,3.1-3.1c1.7,0,3.1,1.4,3.1,3.1c0,0,0,0,0,0
		C1577.8,275.7,1576.4,277.1,1574.7,277.1z M1574.7,266.9c-4,0-7.2,2.9-7.2,6.5c0,3.6,7.2,21.1,7.2,21.1s7.2-17.5,7.2-21.1
		S1578.7,266.9,1574.7,266.9"/>
	<path id="path568" class="st19" d="M1362,357.7l-31.8,19l24.4,5.6L1362,357.7z"/>
	<path id="path570" class="st19" d="M1356.9,386.1l-28.5-6.5l11.7,19.9l36.6-21.8l-11.4-19.3L1356.9,386.1"/>
	<path id="path572" class="st2" d="M1694.5,284.8c-3.1,6.8-8.3,10.8-15.7,11.6c-7.4,0.8-13.3-2.1-18.2-7.5l-3,2.1
		c-0.4-5.2-0.8-10.2-1.2-15.4l13.8,6.6l-3.1,2.1c2.6,5.1,7.8,8.2,13.4,8C1686.5,292.2,1691,289.5,1694.5,284.8"/>
	<path id="path574" class="st2" d="M1656.8,267.1c1.5-5.7,8.6-11.1,15.7-11.7c7.3-0.7,13.2,2.1,18.1,7.6l3-2.1
		c0.4,5.2,0.8,10.2,1.2,15.3l-13.8-6.6c0.9-0.6,1.7-1.2,2.6-1.8c0.5-0.3,0.5-0.6,0.2-1C1677.9,257,1663.7,256.9,1656.8,267.1"/>
	<path id="path576" class="st4" d="M1523.7,485.5h-10.8v-6.3h10.8V485.5"/>
	<path id="path578" class="st2" d="M1523.7,261.4l-7.8,6.6l7.8,7.9V261.4z"/>
	<path id="path580" class="st11" d="M1753.2,280.2l-21.3,7l8.1-16.6L1753.2,280.2z"/>
</g>
</svg>
