<?xml version="1.0" encoding="utf-8"?>
<!-- Generator: Adobe Illustrator 24.1.1, SVG Export Plug-In . SVG Version: 6.00 Build 0)  -->
<svg version="1.1" id="Layer_1" xmlns="http://www.w3.org/2000/svg" xmlns:xlink="http://www.w3.org/1999/xlink" x="0px" y="0px"
	 viewBox="0 0 1920 800" style="enable-background:new 0 0 1920 800;" xml:space="preserve">
<style type="text/css">
	.st0{fill:#FFFFFF;}
	.st1{fill:url(#SVGID_1_);}
	.st2{opacity:0.44;fill-rule:evenodd;clip-rule:evenodd;fill:#C4CDD3;enable-background:new    ;}
	.st3{fill-rule:evenodd;clip-rule:evenodd;fill:#EC1C24;}
	.st4{fill-rule:evenodd;clip-rule:evenodd;fill:#FFFFFF;}
	.st5{fill:#F48120;}
	.st6{fill-rule:evenodd;clip-rule:evenodd;fill:#C4CDD3;}
	.st7{fill-rule:evenodd;clip-rule:evenodd;fill:#F48120;}
	.st8{fill:#ECECEC;}
	.st9{fill:#E1E1E1;}
	.st10{enable-background:new    ;}
	.st11{fill:#C4CDD3;}
	.st12{fill:#F5F5F5;}
	.st13{opacity:0.44;enable-background:new    ;}
	.st14{fill:#FAFAFA;}
	.st15{fill:#E0D4D7;}
	.st16{fill:#F3FFFF;}
	.st17{clip-path:url(#SVGID_3_);}
	.st18{clip-path:url(#SVGID_5_);}
	.st19{fill:#7595C2;}
	.st20{fill:#F68A6C;}
	.st21{fill:#FFA500;}
	.st22{fill:#2D2861;}
	.st23{fill:#ADEFF7;}
	.st24{fill:#352E73;}
	.st25{fill:#74A8E6;}
	.st26{fill:#7271B3;}
	.st27{fill:#76C6ED;}
	.st28{fill:#FCC13F;}
	.st29{fill:#FEE2BF;}
	.st30{fill:#FC008B;}
	.st31{fill:#D6007E;}
	.st32{fill:#F7A491;}
	.st33{fill:#F8A492;}
	.st34{fill:#E5910C;}
	.st35{fill:#FE875E;}
</style>
<rect class="st0" width="1919.5" height="800"/>
<linearGradient id="SVGID_1_" gradientUnits="userSpaceOnUse" x1="1034.6586" y1="400.594" x2="1918.7585" y2="400.594" gradientTransform="matrix(1 0 0 -1 2.89 798.99)">
	<stop  offset="0" style="stop-color:#FAE5E7"/>
	<stop  offset="1" style="stop-color:#ECEEFA"/>
</linearGradient>
<path class="st1" d="M1548.8,796.2c0,0,202.1-13,371.7-108.1l1.1-686.6l-884.1-1c0,0,436.4,188.8,185.2,520.8
	c-18.8,24.6-30.7,53.8-34.4,84.6c-8.8,78,31.9,195.1,360.3,190L1548.8,796.2z"/>
<g>
	<g>
		<g>
			<path id="path380" class="st2" d="M1468.4,135.2c0-0.2,0-0.3,0-0.5c0.7,0,1.4,0,2.1,0c0,0.2,0,0.3,0,0.5
				C1469.8,135.2,1469.1,135.2,1468.4,135.2z M1482.6,135.5c-2.4-0.4-1.2-0.9,0.3-0.6C1483,135.3,1483,135.4,1482.6,135.5z
				 M1374.8,137.3c-1.3-0.6,2.8-1,2.9-1C1379.3,136.9,1375.4,137.1,1374.8,137.3z M1690.4,137.3c-0.5-0.5-0.2-0.7,0.4-0.7
				C1690.8,137.1,1690.9,137.3,1690.4,137.3z M1398.7,137.3c0-0.9,2.4-1,2.4-0.3C1400.3,137.1,1399.6,137.3,1398.7,137.3z
				 M1397.7,137.5c0-0.5,0.5-0.6,0.6-0.2C1398,137.5,1398,137.5,1397.7,137.5z M1636.6,138.9c-1.4-0.7,0.5-1.2,1.2-1.3
				C1639,138.1,1637,138.8,1636.6,138.9z M1626,138.9c-1-0.3-4.5-0.7-4.5-1.4c0.3-0.5,5.4-1.2,6.6-0.5c0.9,0.1,1.4-0.2,1.4,0.7
				C1627.4,138,1627.5,138.9,1626,138.9z M1649.5,139.4c-1.7-0.2-1.8-0.9,0-1c1.6-0.9-1-1.1-1.6-0.5c-0.4,2.1-1.4,0.6-2.7,0.6
				c-1.7,0.5-1.4,0.6-2.1-0.5c-0.9-0.2-3.3,0.2-3.3-0.8c1.2-1.7,4.5-0.7,6.1-1.6c1.7-0.1,3.3-0.8,5.1-0.8c1.5,1.4-4.5,1-1.8,1.9
				c1.8,0.2,1.5,0.6,3.4-0.3c1.3,0,2.5,0.4,2.8-0.9c0.7-0.3,4.4-0.6,4.5,0.2c-1.2,1.6,3.2,0,3.3,1.6c-0.6,0.9-7.4,1-6-0.5
				c0.2,0,0.5-0.1,0.7-0.1c0-1.4-3.2,0.3-4,0.7C1651.1,137.4,1651.7,138.6,1649.5,139.4L1649.5,139.4z M1632.3,139.4
				c-2.5-1.7,3.5-1.2,2.2-0.1C1633.8,139.3,1633.1,139.3,1632.3,139.4z M1356.7,139.4c-0.6-0.7-0.1-1.6-1.2-1.6
				c-1.3,0.6-7.3-0.3-7.3-1.6c2-0.1,4.4,0.4,6.4,0.7c0.7,0,4.4-0.6,4.4,0.3C1357.2,138.3,1358.5,139.3,1356.7,139.4L1356.7,139.4z
				 M1333.1,139.8c-0.5-0.3-1-0.6-1.4-0.9C1330.4,136.9,1335,139.3,1333.1,139.8z M1685.6,140.2c-0.5-0.1-1.2-0.2-1.3-0.7
				c0.5-0.6,4.3-0.2,2.6,0.7C1686.4,140.2,1686,140.2,1685.6,140.2z M1361.4,140.8c-0.7-0.6-2.9-1.7-0.6-1.4
				C1361.6,139.9,1363.3,140.8,1361.4,140.8z M1729.2,141.9c-0.4-1-5.8-0.9-6.4-0.9c-2.2-0.6-1.8-2.1-3.8-1.2c-1.5,0-2.8,0.2-4-0.7
				c0.1-1,2-0.2,2.8-0.6c0-0.8,0-1.5,0.9-2c1.7,0.1,9.3-1.2,9.4,1.2c-0.8,1.3,0.2,0.7,1.2,0.7c1.4,0.9,2,1.2,2.1,2.8
				C1730.6,141.3,1729.5,141.2,1729.2,141.9L1729.2,141.9z M1311,142.6c-0.6-0.1-1.3-0.2-2-0.2c-1.3-0.5-4.4,0.7-4.3-0.8
				c0.6-0.2,7.7-1.8,7.7,0.7C1312,142.6,1311.5,142.6,1311,142.6z M1496.2,143.5c-1.1-0.7,1.1-1.6,0.4-0.2
				C1496.5,143.4,1496.3,143.4,1496.2,143.5z M1327.6,143.7c-1-0.1-2.2-0.6-0.6-0.8c0-1.8-5.3,0.5-5.3-1.3c1.9-2.7,3.1-0.4,5.4-1.3
				c0.9,0,7.5,1.1,5,2.8c-1,0-2.4-0.6-3.1,0.3C1328.5,143.6,1328.1,143.7,1327.6,143.7L1327.6,143.7z M1302.9,143.7
				c-0.6-0.3-1.4-0.5-1.4-1.2C1302.5,141.9,1305.2,142.7,1302.9,143.7z M1360.4,143.8c-1.4-0.6-2-1.5-3.6-1c-3.1,0-0.3-1.4,1.1-1.4
				c3.1,2,1.6,0.8,4.2,0.8C1364.5,143.8,1361.7,143.8,1360.4,143.8L1360.4,143.8z M1368,144.1c0-0.2,0-0.3-0.1-0.5
				C1368.3,143.6,1368.2,144,1368,144.1z M1710.3,144.6c-0.9-1.3,1.4-1.1,0.4-0.1C1710.6,144.6,1710.5,144.6,1710.3,144.6z
				 M1351.9,144.6c-1.2-0.9-3.1-1.9-0.7-2.1c0.7-0.3,3.2-0.2,3.2,0.5C1353.6,143.9,1353.3,144.5,1351.9,144.6z M1321.2,144.6
				c-0.5-0.3-1-0.7-1.4-1C1318.7,141.8,1323.3,144,1321.2,144.6z M1829,145.6c-0.9-1,2.5-1.6,2.4-0.2
				C1830.6,145.4,1829.8,145.5,1829,145.6z M1727,145.6c-1-0.6,0.1-1.6,0.6-0.4C1727.6,145.7,1727.4,145.6,1727,145.6z
				 M1723.9,145.6c-0.9-0.7,1.6-2.6,1.6-1.3C1725.3,145.7,1725.4,145.6,1723.9,145.6z M1322.7,146.4c-1.7-2.5,3.3-1.6,2.7-0.4
				C1324.5,146.2,1323.7,146.3,1322.7,146.4z M1296.6,147c-1.8-1.1,3.6-1.7,1.7-0.9C1298.3,146.5,1297.1,146.9,1296.6,147z
				 M1802.9,148.1c-0.1-2.4,2.1-1.6,0.5-0.1C1803.2,148,1803,148,1802.9,148.1z M1344,148.3c-3.1-0.8-2.1-1.7,0.3-0.7
				C1344.5,148.2,1344.5,148.3,1344,148.3z M1696.1,148.4c-0.3-0.3-0.2-0.9-0.6-1.3c-2.2-0.6,3.5-2.1,3.4-0.2
				c-1.4,0.5-2-0.4-2.3,1.4C1696.5,148.4,1696.5,148.4,1696.1,148.4L1696.1,148.4z M1302.8,148.4c0.2-0.1,0.5-0.1,0.6-0.1
				C1303.5,147.6,1302.1,148,1302.8,148.4z M1488.3,148.5c-2.4-1,0.6-1.4,0.6-0.2C1488.7,148.4,1488.5,148.5,1488.3,148.5z
				 M1495.7,148.6c-1.2-0.7,0.5-2,0.4-0.2C1496,148.4,1495.9,148.5,1495.7,148.6z M1490.6,148.8c0-0.3-0.2-0.6,0.3-0.4
				C1491,148.8,1491,148.8,1490.6,148.8z M1332.2,148.8c0.9-0.1,1-0.1,3.3-0.5c1.3-1,1.1-2.9-0.6-3.1c-1.5-0.8-6.3-0.5-7.9,0.3
				c-0.3,0.5-1.4,1.4-1.5,1.4c-0.4,1.6,3.6,0.1,4.4,1.2C1330.6,148.5,1331.4,148.7,1332.2,148.8L1332.2,148.8z M1322.7,148.8
				c0.6-0.2,1.2-0.3,1.6-0.8C1323,145.9,1321.8,148.2,1322.7,148.8z M1811.6,149.1c-1.4-0.4-5.3,0.6-5.3-1.8
				c0.8-1.5,3.1-1.4,4.5-1.4c3.4,1.8,2.6-0.4,5.8,0.5c1,0.4,8.8,0.2,5,2.1C1818.2,149.1,1815,148.9,1811.6,149.1L1811.6,149.1z
				 M1831.1,149.2c-0.6-0.1-8-0.5-6.1-2c2.8,0,5.5,0.6,8.3,0.3C1835.4,148.7,1831.9,149.2,1831.1,149.2z M1690.4,149.6
				c-1-0.6,0.6-1.3,0.6-0.3C1690.6,149.5,1690.6,149.5,1690.4,149.6z M1303.7,149.8c1.8-0.1,3.6-0.2,5.4-0.1c3.7-1.3,7.6,0,11.1-1.7
				c0.9-1.6-2.4-1.2-3.1-1.2c-2.4,0.9-3.5-3.3-3.8-0.1c-0.5,1-2.2,0.5-3.2,0.3c-0.6,0.2-0.9,0.5-1.6,0.3c-0.7-1.6-3.4-1.4-5-1.6
				c0.1-0.7,1.2-0.7,0.3-1.4c-2-0.2-2.1-0.2-2.4,1.4c-2.9-0.3-1.6-2.8-4-2c-1.2-0.1-2.3-0.2-3.5-0.3c-0.6,0.9-2,0.8-3,1.1
				c-1.6,1-4.3,0-5.8,1.4c0,2.2,3.7,0.1,5.1,0.7c1.4,0,2.8-1,4.1-1.4c3.2,0-2.3,2.4-0.1,2.4c1.4-0.5,1.3-1.5,1.3,0.3
				c1.3,0.9,5.1,0.2,6.7,0.3C1302.3,149.4,1302.6,149.4,1303.7,149.8z M1701.5,150c-0.9-0.4,0.1-1.8,0.1-0.1
				C1701.6,149.9,1701.6,149.9,1701.5,150z M1763.9,150.2c-0.4-0.5-0.1-1.2,0.4-0.6C1764.3,150,1764.4,150.2,1763.9,150.2z
				 M1804.4,151c-1-0.5-1-0.5-1.4-0.6C1802.8,148.4,1806.3,150.7,1804.4,151z M1704.8,151.7c-1.3-1,0.6-1.2,0.6-0.1
				C1705.2,151.7,1705.2,151.7,1704.8,151.7z M1371.5,153.5c1-0.2-0.2-1.2-0.2-0.3C1371.3,153.3,1371.4,153.4,1371.5,153.5z
				 M1375.2,154.2c0.2-0.1,0.4-0.1,0.6-0.1c1.4-1.6-0.1-1.3-1.7-1.3C1371.3,153.3,1374.1,153.7,1375.2,154.2L1375.2,154.2z
				 M1315.5,154.6c0.1-0.1,0.2-0.1,0.3-0.1C1315.6,153.7,1314.9,154.2,1315.5,154.6z M1696.1,154.8c-0.6-0.3-2.1-0.5-2.2-1.1
				C1695.1,153.7,1700,154.6,1696.1,154.8z M1333.9,155.7c0.5-0.1,0.9-0.3,1.3-0.6c1.8,0,3.5,0,2.3-2c0-0.6,1.1-1.4-0.2-1.4
				c-0.5,0.7-2-0.1-0.7-0.3c1.2-2.2-4.9-1.1-5.4-1.1c-0.6,3.2-3.2,1.3-5,1.9c-1.2,1.5,3.6,1.8,4.3,2.1
				C1331.6,154.9,1332.7,155.4,1333.9,155.7L1333.9,155.7z M1638.2,156c-0.1-0.2-0.2-0.3-0.3-0.5
				C1638.1,154.9,1639.4,155.6,1638.2,156z M1853.5,157c-1.7-0.9,1-1.4,0.4-0.2C1853.8,156.9,1853.6,157,1853.5,157z M1643.5,157.1
				c-3-0.4-5.9,0.2-7.9-2c-2.5-0.6-0.2-1.4,1-1.6c1.6-0.8,2.8-1.4,3.1-3c1-0.2,4.8-0.1,4.8-1.4c-2.8-0.9,1.9-1.3,2.4-1.5
				c1.5-1.2,2.1-0.9,4.1-1c1.4-0.2,2.2-0.8,3.5-1c2.7,0.4,5.8,0,8.5-0.1c1.4-0.6,7.4-3.1,5.8,0.5c-0.1,0.1-0.2,0.1-0.3,0.2
				c-4.8,0-9.9,1.3-14.7,1.7c-1.8,0.3-1.3,1.8-3.5,1.3c-0.7,0-1.2-0.1-1.7,0.3c-0.3,1.7-3.3,2.3-4.8,2.7c-3.9,2.1,3.6,3.7,2.6,4.7
				C1645.5,157,1644.5,157,1643.5,157.1L1643.5,157.1z M1857,157.2c-0.8-0.9-1.7,0.6-1.3-0.9C1856.1,156.3,1858.8,157,1857,157.2z
				 M1697.4,157.4c-0.8-0.8-0.1-1.2,0.7-1.8C1698.6,155.7,1698.3,157.2,1697.4,157.4z M1482.7,157.4c-1-0.3-2.9-1.4-0.6-1.6
				C1482.6,156.1,1484.2,157.2,1482.7,157.4z M1478.8,157.4c-1.3-0.3-2.8-0.5-4.1-0.3c0-1.3,7.8-0.7,5,0.3
				C1479.4,157.4,1479.1,157.4,1478.8,157.4L1478.8,157.4z M1301.3,157.4c0.9,0,1.7,0,2.6,0c0-0.2,0-0.3,0-0.5c-0.9,0-1.7,0-2.6,0
				C1301.3,157,1301.3,157.2,1301.3,157.4z M1330.4,157.6c0.3-0.1,0.4-0.1,0.5-0.5C1330.4,155.8,1329.6,157,1330.4,157.6z
				 M1374.1,158.3c1.4-0.1,1-0.8-0.2-0.7C1374,158,1374,158,1374.1,158.3z M1649.5,158.6c-2.5-1.2-0.3-2,0.6-0.7
				C1650.1,158.5,1650,158.5,1649.5,158.6z M1364.9,158.6c0.6,0,0.3-0.5,1.2-0.2C1367.5,158.4,1364.9,157.4,1364.9,158.6z
				 M1317.9,160c0.5-0.2,0.4-0.5-0.1-0.5C1317.8,159.7,1317.8,159.8,1317.9,160z M1628.3,160.2c-0.7-1.1,2-2.3,1.9-1
				C1629.8,159.9,1629,160.1,1628.3,160.2z M1561.9,161.5c-1.7-1-1.4-1.1,0.3-1.6C1563.8,159.9,1562.8,161.3,1561.9,161.5z
				 M1383,162.1c0.2-0.7,0.9-0.6-0.1-1.2C1381.3,161.2,1382.4,161.6,1383,162.1z M1557.4,162.6c-1.6-1.7,4.8-1.7,2.5-0.6
				C1558.7,162,1558.3,162.5,1557.4,162.6z M1339.4,163.4c0.8-0.1,0.7-0.7,0.7-1.4c0.7-0.9,3.4,0.2,3.3-1.4
				c-0.8,0.1-1.9,0.3-1.4-0.8c0.7-0.6-0.7-0.6-1.2-0.7c-2.8,0,0.3,1.2-1.8,2.2C1338.7,161.8,1339.2,162.9,1339.4,163.4L1339.4,163.4
				z M1316.1,163.7c0.5-0.2-0.4-1.8-0.8-2.1c-1.4-0.2-0.7-0.9-1.4-1.2c-2.2,0.5-7.7,1.9-9.6,0.5c-0.3-0.5-0.5-0.9-0.9-1.2
				c-2.6-0.1-2-0.1-2,2c1.2,1.3,9.7,0.5,11.5-0.3c0.8,0,0.6,0.2,0.7,1C1314.7,162.6,1315.2,163.1,1316.1,163.7L1316.1,163.7z
				 M1389.3,165.1c0.4-0.1,0.4-0.1,0.7-0.2C1390.2,163.7,1388.4,164.3,1389.3,165.1z M1485.1,167.4c-1-0.4,2.1-1.1,2.1-0.2
				C1486.5,167.4,1485.9,167.4,1485.1,167.4z M1552.3,170.7c-0.1-1.2,3-1.2,0.9-0.2C1552.9,170.6,1552.6,170.7,1552.3,170.7z
				 M1493.2,170.8c-1.3-0.1-2.2-0.5-3.5-0.9c-0.6,0-4.5,0.6-3.4-1c2-0.9-2.1-0.5-2.5-0.9c0.7-1.6-1.2-0.5-1.2-1.8
				c0.9-0.1,1.9-0.3,2.1-1.4c1.6-0.3,4.2-0.6,4.5,1.4c0.5,0.3,0.9,0.2,1.4-0.1c1-1.4,4.1-0.6,5.6-0.5c1-0.2,1.6-1,2.6-1.2
				c2.4,1.8,3.5-1,5.4,2c0,1.4,0,1.4-1.3,1.6c-1.1,1-2.7,1.3-4.1,2c-0.6,0-1.3-0.2-2.1-0.2C1495.7,170.6,1494.7,170.7,1493.2,170.8
				L1493.2,170.8z M1366.9,172.3c0.6-0.1,0.6-0.1,0.7-0.2C1367.6,170.6,1365.8,171,1366.9,172.3z M1371.8,174.4
				c0.9-0.1,0.7-1,0.9-1.8C1371.6,171.6,1371.7,174.1,1371.8,174.4z M1401.6,175.1c0.3-0.1,0.3-0.1,0.6-0.3
				C1402.8,173.2,1400.7,174.2,1401.6,175.1z M1395.4,177.2c0.3-0.1,0.5-0.2,0.6-0.3C1395.7,175.1,1394.4,176.5,1395.4,177.2z
				 M1236,177.7c1.2-0.2,1.8-1.7,0.1-0.7C1235.9,177.4,1235.8,177.4,1236,177.7z M1199.6,177.7c0.3-0.1,0.3-0.1,0.5-0.2
				C1200.1,176,1197.3,176.1,1199.6,177.7z M1443.1,177.9c2.6-0.6,2.5-0.8,3.7-3.2c1-1.1-2-2.4-0.5-2.7c0.4,1.3,2,0.5,1.4-0.6
				c-0.9-0.1,2-0.7,2.4-0.9c1.1-1.3-0.1-2-0.1-3.1c0.7-0.7,6-1.6,7-0.7c0.5,0,0.5,0,0.9-0.3c3.3-1.1,5.4-0.9,7.8-3.8
				c2-1,4-0.2,6.3-1c2.9-0.3,5.8-0.7,8.6-1.2c2.6-1.3,5.6-1.5,7.9-3.3c0.1-3.7-2-2.8-4.9-3.8c-0.7-0.1-4.3,0.5-3.7-1.5
				c0.9-0.1,5.9-1.8,5.8,0.2c-0.6,0.4-1.9,0.1-2.5-0.1c-1.8,0.7,3.9,2,4.5,1.7c1-1.3-0.3-1-0.5-1.9c1.6-0.5,0.7,1.3,2.1,0.6
				c1.2-2.8-1-0.6-2.1-2.2c0-1.1,1.3,0.1,1.7,0.1c1.3-0.6,4.7,0.2,4.7-1.1c-0.7-0.1-1.2,0-1.2-0.7c2.4-3.8-4.1-1.9-4.2-3.3
				c1.5-0.3,3.2-0.2,4.7,0.1c1,0.7,1.6,2.4,1.7,0.3c2.9-1.7-3.8-2.9-4.7-3c-1.1,0.3-1.1,0.1-0.6-0.7c2-1.7,2.9-0.4,4.5-0.5
				c0.4,1.4,3.1-0.2,3-1c-1.2-1.2-2.9,2.5-3-0.2c-0.6-0.2-1-0.9-0.6-1.3c2.6,0,3.4-0.2,5.4-1.2c1.7-0.1,8.5-0.7,8.4-2.2
				c-3.3-0.9-7.4-0.5-10.8-0.5c-0.4,0.2-0.4,0.2-1.2,0.9c-1.1-0.1-2.2-0.1-3.3-0.2c-1.3-0.5-2.5,0.2-3.9,0.5
				c-2.5-1.2,2.1-2.1,0.5-2.6c-2-0.3-6.1,0.1-7.7-1.2c-8.5-0.8-18-1.4-26.4,0c-1.6,2-6.9-0.5-9.4,0.5c-1.8-0.1-3.2-0.5-4.8,0.1
				c-3.1,0.1,0.3,1.1,1.4,1.3c2.2,1.7-4.1,0.3-4.3,0.3c-1.4-0.2-8-1.3-8-0.2c0.3,0.3,0.6,0.4,1,0.6c-0.2,1.2-3.5-0.7-4.7-0.1
				c-1.8,1.6-1,0.6-2.8-0.4c-3.9,0-10.1-0.4-13.3,2.2c-0.7,0-2.2-0.2-3.3-0.2c-1,0.2-6,1.6-2.8-0.5c1.1,0,5.8,0.1,5.5-1.5
				c-1-0.3-2-0.3-3.1-0.4c-0.8-0.5-0.8-0.8-1.9-0.5c-4.1,0-8.4-0.5-12.6-0.5c-2.2,0.5-4-0.5-6.1,0.5c-3.9-0.5-7.6-0.3-11.5-0.3
				c-1.3,0.6-1.8,0.5-3.2,0.1c-1.3,0.6-2.5,0.7-3.9,0.7c-0.2,1.6-4.3-0.1-5.1,0.3c-0.3,0.9-1.1,0.7-2,0.7c-2.1-0.6-4.3-0.3-6.3,0.3
				c-1.4-0.1-5.4-1.1-5.4,0.7c-2.1,0.7-6.2-1-5.2,2.5c-0.2,0.9-1.3,0.9-2,1.1c-0.9,1.2,1.6,0.9,2.1,0.9c2.2,1.8,3.7,1.7,6.6,2.3
				c0.2,0.3,0.2,0.3,0.1,0.5c-0.1,0.9,3.2,2,0.5,2.4c-1.8-0.8-3.7,0-5.4-0.5c-0.8-1-1.4-0.5-2.7-0.5c-3.6-0.9,1.2-0.6,2.2-0.6
				c0.9-0.9-2.1-0.7-2.6-2c-0.9-0.6-4-0.9-5.4-0.9c-2.5,2.4,7.7,2.2,2.5,3.6c-2,1.2,1.3,1.2,2.4,1.7c3.3,0,5.1-1.2,6.9,2.6
				c1.8,1.4,5.1-0.3,7,0.6c2.3,0,4.6-0.2,6.9-0.2c1.3,0.5,1.5-0.2,2.8-0.2c1.7,0.7,5.3,1.1,6.6-0.2c1.1-3.3-5.9-2.2-7.4-2.2
				c-1.7,0.5-9.1,1.4-10.1,0.1c0-0.9,0.4-0.7,1.3-0.7c2.2,0.3,3.3-0.7,5.5,0.2c2.1-0.2,4-0.1,6-0.6c1,0.2,1.7,0.2,2.7,0.2
				c1,1.5,2.4,0.1,3.6,1.4c0.7,0,2.5-1.2,2.5-1.9c-2.3-2,2.8-2.5,4-2.5c0.6-0.8-0.6-1.7-1.2-2.2c-2.4-0.5,1.3-0.6,1.8-0.5
				c1.2,0.5,8.9-0.2,9.8-1.2c0.2-1.1,1-0.8,1.9-0.6c1.1,0,5.3-1.4,5.5-0.3c-0.1,0-0.1,0-0.2,0c-0.2,2,4.5,0.9,5.9,0.9
				c0,1.2-4.5,1.4-5.1,1.6c-3.7,0-7.3,0.9-11.1,1c-2,0.7,0.5,1.3,1.2,1.4c0.9,0.9-2,0.2-0.9,1.3c2.7,0.2,5,1.6,7.5,2.4
				c2.9,0,6.1,0.4,8.7-0.5c4.1,0,8.9-0.2,12,2.5c0.6,0.3,2.7,0.4,1.8,1.3c0,1.3,1.6-0.1,2.2,1.3c2.2,1.3-0.7,3.7,1.9,4.4
				c2.6,0,3.9-0.9,6.2,0.6c0.8,0.1,2.1,0,2,0.9c-2.4-0.5-5.5-1.8-7.9-0.3c0.1,1.2,0.9,0.5,1.7,0.8c0,2.4,5.2,3.1,5.2,0.9
				c0.2-0.2,2.1,0.3,2.4,0.4c-0.1,3-4.5,0.6-5.8,2.4c-0.7,2.6-1.8,4,1.6,5.7c0.3,0.5,0.3,0.5,1.1,2.1c1.5,0.7,1.4-1.8,2.9-1.2
				c1.8,1.7-2.5,2.4,0,3.3c1.6,2,2.1,3.2,4.5,4c2,1.4,2.8,0.8,5.5,0.3c0.5-0.5,0.6,0.1,0.3,0.2
				C1439.8,177.5,1441.7,177.1,1443.1,177.9L1443.1,177.9z M1553.7,182.8c-0.1-0.3-0.1-0.3,0-0.5
				C1554.5,182.3,1554.4,182.7,1553.7,182.8z M1224.3,183.1c1.6-0.1,3.6-3.1,1.5-3.3c-0.6,1.7-4.1,1.2-4.1,2.5
				C1222.2,182.7,1223.6,182.9,1224.3,183.1z M1568.4,183.4c-2.4-1.8,1.5-2.3,1.7-3.5C1572.1,179.6,1569.5,183,1568.4,183.4z
				 M1259.7,183.4c0.1-0.1,0.2-0.1,0.4-0.1C1260.8,181.9,1258.3,181.9,1259.7,183.4z M1222.4,184.4c0.3-0.1,0.6-0.1,0.9-0.2
				C1223.2,182.9,1221.6,183.8,1222.4,184.4z M1373.1,184.9c0.3-0.1,0.6-0.1,0.9-0.2c1-1-2.2-1.7-2.1-0.5
				C1372.4,184.5,1372.6,184.5,1373.1,184.9L1373.1,184.9z M1261.5,184.9c1.3,0,0.3-3-0.8-3C1260.7,182.9,1260.6,184.2,1261.5,184.9
				z M1219.7,185.5c0.4,0,0.3,0.1,0.3-0.3C1219.7,185.2,1219.6,185.1,1219.7,185.5z M1554.5,186.9c-0.2-0.3-0.2-0.3-0.2-0.5
				C1554.8,186.4,1555.2,186.8,1554.5,186.9z M1552.7,187.9c-1.2-0.7-1.3-1.6,0.3-0.7C1554.3,187.4,1554.1,187.8,1552.7,187.9z
				 M1554.5,188.5c-0.9-0.9,0.9-0.9,0.9-0.1C1555.1,188.4,1554.8,188.4,1554.5,188.5z M1522.1,188.8c0-0.8,0.1-0.7,0.9-0.7
				C1523,188.8,1522.8,188.7,1522.1,188.8z M1559.8,189c-1.4-0.7-2-1.4-3.5-0.7c-1.8-0.2-0.1-0.6,0.6-1.4c0.2-1,2.1,0.2,3.4-0.3
				c1.7-2,4.5-1,5.5-3.3c0.1-1.4-0.2-0.7-0.8-0.6c0.3-2.9,2.4-2.9,4.5-4.1c0.9-2.6-4.3-2.1-3-4c0.5-0.2,0.3-0.8,0.2-1.2
				c1.4-1.9,3.8-2.1,5.8-3.1c0.9-0.3,1.8-0.3,2.3-1.2c-0.7-3.9,4.5-2,6.2-2.6c3.9,0-1.9,2.8-2.4,3.2c-1.3,0.4-1.8,0.6-2.7,1.6
				c-3.5,1.2-1.1,1.2-1.1,3.7c-0.3,1.1,0.1,1.4,0.1,2.4c1.4,0.2,2.9,0.5,4.3,0.6c1.2-0.7,9.6-2.3,9.5-0.6c-0.9,1.8-8.5-0.6-9.6,1.2
				c-1.2,0.8-3.6,0.5-0.9,2c1.1,0,0.6-1.3,1.9-0.1c2.2,3.9-3.3,1.3-4.4,1.3c-1.3,0.7-1.5,1.1-2.2,2.4c0,2.4,0.8,2.6-1.6,2.8
				c-0.3,0.2-0.6,0.6-0.9,0.8c-3.7-0.4-6.4-0.1-10,1.3C1560.6,188.9,1560.2,188.9,1559.8,189z M1198,189.8c1.2-0.4,1.7-0.7,3.1-0.9
				C1200.8,187.1,1196.8,188.6,1198,189.8z M1195.2,190.3c0.5,0,0.3-0.2,0.3-0.6C1195.2,189.7,1194.7,190.1,1195.2,190.3z
				 M1267.6,191.2c1.4-0.6,0-1,0.1-1.8c1.8-2.3-4.4,1.2-1.6,1.2C1266.9,190.1,1267,190.8,1267.6,191.2z M1193.3,191.7
				c0.2-0.1,0.4-0.1,0.6-0.2C1195.4,190.2,1191.8,190.7,1193.3,191.7z M1191.8,191.7c-0.5-0.9,1-0.7,0.4-0.1
				C1192.1,191.7,1192,191.7,1191.8,191.7z M1188.5,192.4c0-0.2,0-0.3-0.1-0.5C1189,191.9,1189,192.3,1188.5,192.4z M1172.8,193
				c-0.1-0.4-0.1-0.4,0.3-0.5C1173.1,192.8,1173,192.9,1172.8,193z M1186.3,193.1c-1.9-0.5-2.5-2-0.3-0.7
				C1187.6,192.4,1188.2,192.9,1186.3,193.1z M1178.4,193.8c-2.3-1.3,0.3-1.2,1.6-1c2.2-1.2,3.2,0.7,0.2,0.6
				C1179.4,193.1,1179.1,193.6,1178.4,193.8z M1282.1,196.7c0.1,0,0.1,0,0.2,0C1282.4,194.9,1280.7,196.2,1282.1,196.7z
				 M1518.8,197.1c-0.8-0.9,1.2-0.9,0.3-0.1C1519.1,197.1,1518.9,197.1,1518.8,197.1z M1394.8,199c0.4-0.1,0.8-0.1,1.2-0.2
				C1396,197.9,1394.3,198.4,1394.8,199z M1840.4,199.6c-1-0.6,0.2-1.3,0.6-1.8c-0.7-1.7,1.6-0.2,0.3,1.2
				C1841,199.2,1840.7,199.3,1840.4,199.6L1840.4,199.6z M1838.3,201.3c-1-0.2,0.2-1.2,0.9-1.2
				C1839.2,200.8,1839,201.1,1838.3,201.3z M1408.1,201.7c0.6-0.1,0.6-0.1,0.9-0.2C1409.4,200.2,1407.3,200.5,1408.1,201.7z
				 M1285.7,201.9c2.6-0.6-2.1-5.5-2.1-3.2c0.4,0.6,0.6,1.2,1.3,1.4C1285.6,200.7,1285.2,201.3,1285.7,201.9z M1835.8,203.2
				c-0.7-0.9,1.2-1.8,2-1.8C1837.5,202.3,1836.8,203,1835.8,203.2z M1602.8,205.3c-1.9-2.1,0.5-2,2.4-2.1c2.1-0.7,1.3-1,2.5,0.5
				C1607.7,205.8,1604.2,205.2,1602.8,205.3z M1831.1,205.4c-1.2-1.2,3.1-2.5,2.1-1C1832.5,204.9,1832,205.2,1831.1,205.4z
				 M1827.4,206.8c-1.2-1.3,3.7-2.6,2.5-1C1829.1,206.2,1828.4,206.8,1827.4,206.8z M1374.1,210.2c1.2-0.1,2.5,0,3.6-0.5
				c1.9-2.2-2.7-1.8-3.8-1.2C1373.3,209.5,1372.9,209.8,1374.1,210.2z M1365.4,211c1.8-1.2,1-4.9,2.2-6.6c0-0.3-0.1-0.3-0.1-0.6
				c-2.5,0.6-5-1-6.2-3c-1.5-4.7-5.6-1.7-8.2,0.1c-2.6,1.4-6.4,2.1-2.1,3.2c2.5,0,3.8-3.4,6.2-1.1c0.7,0.3,5-0.3,3.9,1.2
				c-2.6,0.7-5.3,2.3-4.3,5.3c1.6,1.2,3.1-2.6,3.9-3.5c1-1.5,3.9-0.9,3.9,0.9C1363.7,209.5,1365.7,208.9,1365.4,211z M1366.8,213.4
				c2-0.5,4.4-0.9,6.1-2.1c0.4-1.2,0.1-1.3-1.1-1c-2.6,0-4.1,1.2-6.1,2.2C1365.7,213,1366.4,213.1,1366.8,213.4L1366.8,213.4z
				 M1608.2,213.8c-1.8-0.4-3.5-1.2-5.2-1.5c-1.5-1.2-1.3-0.3-3-0.3c-1.9-0.7-4.3,0.8-6.1,1.6c-1.8-0.1-6.3-0.1-6.3-2.8
				c0.5-0.9,0.7-1.1,1.6-1.5c0.6-1.7,0.3-2,2-2.6c0.9-1.2,2.4-5,4.2-2.8c1,0.3,3.1-0.4,2.9,0.5c-2.8,1.3,0.5,0.7,0.5,2.5
				c0.5,1.3,3.7-0.5,4.7-0.7c2,0,2.2-0.3,3.7,0.8c2.5,1,4.7,2.4,7.2,3.5C1617.6,214,1610,213.7,1608.2,213.8L1608.2,213.8z
				 M1549.1,218.2c-1.1-0.9-0.4-2.4-1-3.7c0-1.6,1.4-0.1,1.4-1.4c-0.9-1.4-0.6-3.3,1.4-2.9c0.2,1.1,0.1,2.1,0.1,3.2
				C1552.5,215.5,1551.9,218,1549.1,218.2L1549.1,218.2z M1580.6,218.4c-0.9-1.7,1.9-0.9,0.6-0.1
				C1581,218.4,1580.7,218.4,1580.6,218.4z M1378.6,218.6c0.2,0,0.3-0.1,0.5-0.1C1380.1,216.3,1378.1,217.1,1378.6,218.6z
				 M1575,219.5c0-1.1,3.9-0.5,1.8-0.1C1576.2,219.5,1575.6,219.5,1575,219.5z M1635.4,222.3c-1.2-0.3-1.7-0.8-2.5-1.5
				c-4.3-1.2-2.6-2.1-1.4-4.9c0.5-0.5,1.7-0.6,1.2-1.3c-2.1-0.9-3.9-2.6-5.3-4.5c0-1.9,0.2-1.8-1.3-2.8c0-2.9,3.3-2.1,4.8-3.7
				c1.8-0.7,8.9-2.9,7.2,1.2c-1.6,1.1-3.2-0.6-3.9,1.8c-1.7,0.1-2,0.5-0.5,1.3c1,2,1.2,1.7,3.1,2.8c0.5,0.7-0.7,2.1,0.7,2.1
				c1.5-1.8,1.9-0.6,3,0.5c2.9,1.4-2.4,1.1-2.9,1.5c0,1,0.8,1,0.8,1.8c-1,1.5,0.5,0.6,1.2,1.6
				C1639.8,222.1,1639.5,221.8,1635.4,222.3z M1586.1,225c-0.9-1,0.5-2,0.5-0.3C1586.4,224.8,1586.4,224.8,1586.1,225z
				 M1582.1,225.8c-0.9-0.2-1.7-0.5-2.6-0.7c-1.5-1.5,6.3-0.5,4.6,0.6C1583.4,225.7,1582.7,225.8,1582.1,225.8L1582.1,225.8z
				 M1597.4,226.4c-3-1.4,1.7-1.8,2.8-1.8C1601,226,1598.3,226.3,1597.4,226.4z M1796.2,228.9c-0.7-1.4,1.6-1.3,0.5-0.3
				C1796.6,228.9,1796.6,228.9,1796.2,228.9z M1789.4,230.5c-0.3-0.3-0.1-0.6,0.1-0.9C1790.9,228.4,1790.5,230.3,1789.4,230.5z
				 M1569.6,234.2c-2.1-1.1-3.2-1.6-5.5-1.7c-1.2-0.5-1-1.4-1.6-2.2c-2.6-0.4-5.2-1-7.8-1.5c-0.6-1.7-2.4-0.6-2.4-1.7
				c0.8-1.2,2.1-1.4,1.5-3.1c-1.4-1.2,2-2.8-0.9-2.5c-1.7-1.2-2.9-0.5-4.8,0.2c-1.3-0.1-2.4-0.3-3.6-0.3c-2.8,1.1-5.1-0.1-8.1,0.9
				c-2.4,0.1-4.1,1.2-6.3,1.6c-1.6,0.9-2.1,1.6-4.2,0.8c-1.2,0.3-3.7,0.5-4.5-0.8c-0.1-2.2,5-1.6,6-1.6c0.5-0.4,0.9-0.9,1.4-1.3
				c0.9-0.3,3.3-2.2,3.3-3c-1.2-1.9,0.3-2.3,1.6-3.9c1.5-0.3,4-0.7,4.8-2.2c-1.1-4.5,3.7-1.7,5.9-1.7c2.9-1.6,4.8-3.8,7.8-1.5
				c0.6,1.4,1.4,2.5,2.9,3.2c2.5,1.7,7,2.6,8.6,5.3c0.4,4-8.2,0.9-6.9,3.4c1.4,0.7,5.8,3.5,5.8,0.6c-0.4-1.3,0.9-1,1.7-1.3
				c1.9-2,2.6-1.7,0.9-3.5c0-2.8,3.2,0.7,3.8-0.5c0-1.9-3.1-2.1-4.4-2.8c-0.7-1.4-3-1.4-4.5-2.5c-0.3-0.5-0.7-1.4-1.2-2
				c-4.4-1.8-0.6-4.4,0.1-2.8c1.2,1.4,1.8-0.1,2.7,2.2c0.9,0.8,2.7,1.8,3.7,2.5c2,0.3,5.1,0.7,5.1,3.3c-0.7,2.4,2.1,2.9,2.4,4.8
				c0.8,1-0.6,1.3,0.3,1.8c1.4,0,1.6,0,1.9,1.3c1.1,0.9,4.3,2.5,2.7-0.2c0-1.1,1,0.2,1-0.9c-1.3-1.5,2.5,0.1,1.4,1.4
				c0,1.1,1.4-0.3,2.1,0.9c1,0.3,0.5-1.7,2.1-1.9c0.5-0.6,0.5-1-0.4-1c-1.1,0.6-3.2-0.5-3.7-1.7c-0.1,0-5.1-0.1-2.7-1.3
				c0.7-1-1.5-1.2-0.4-1.9c0.6,0.1,3.2,1.7,3.2-0.1c-0.3-0.9,2.5-1.4,2.9,0.2c1.3,1.6-0.5,1.9,1.3,3c-3.4,0.7,1.2,0.9,1.3,2.5
				c-0.6,1.7,0.9,1.3,1.2,2.9c1.3,1.3,0.8-2.5,3.2-0.5c2.6,0.9,2.2-0.9,4-1c2,1.1,3.7,2,5.9,0.7c1.1-1.1,1.8-0.4,3.3-0.4
				c-0.2,2,0.3,3.4-0.7,5.1c-2.8,3.4-1,5.2-6.4,4.8c-2.5-1.2-3.7-0.3-6.3,0.7c-2.1,0-4.2-1.3-6.4-1.3c-1.4,0.4-1-0.1-1.9-0.7
				c-3.8-0.3-6.3-3.1-10.1-0.2c-0.6,1.4,1,2.3-1.2,3.3C1570.2,234.2,1570,234.2,1569.6,234.2L1569.6,234.2z M1791.3,236.2
				c-0.2-0.2-0.2-0.5-0.2-0.8C1791.9,234.3,1792.4,235.8,1791.3,236.2z M1785.5,242.3c0-0.2-0.1-0.3-0.1-0.5
				C1785.9,241.9,1786,242.2,1785.5,242.3z M1788,243.1c-1.1-0.7,0.5-1.9,1-2.4c0-1.3,1.3-2.9,2.7-2.9c0.6,0.7-2.4,2.8-2.4,3.9
				C1788.9,242.2,1788.6,242.6,1788,243.1z M1782.8,245.7c-1.3-1.4,1.4-1.1,0.4-0.1C1783.1,245.7,1782.9,245.7,1782.8,245.7z
				 M1778,246.1c0-0.2,0-0.3-0.1-0.5C1778.4,245.6,1778.4,246,1778,246.1z M1373.2,246.1c0.3-0.1,0.4-0.1,0.6-0.2
				C1373.9,244.1,1370.8,244.5,1373.2,246.1z M1636.1,246.3c-1.3-0.5-0.6-5-2-3.4c-0.4,2.4-1.6,2-1.5-0.1c1-1.4-1.8-2.8-2.8-3.3
				c-2.2-2.6-1.6-4.5,1.8-4.5c1.6,0.7,1.9,2.8,2.9,4c0.5,0.3,1,0.6,1.6,0.9c3,1.2,3.9,3.2,7.1,1.6c1.8,0-1.6,3.9-2.3,4.4
				C1639.2,246.1,1637.7,246.2,1636.1,246.3L1636.1,246.3z M1779.7,246.3c-0.7-1,1.1-0.9,1.6-0.9
				C1781.3,246.4,1780.5,246.3,1779.7,246.3z M1212.1,250.6c0.6,0,0.8-0.1,0.5-0.7C1212,249.8,1212,250.1,1212.1,250.6z
				 M1773.5,250.9c-1.9-2.4-1.3-3.9,0.6-6.2c3.5-1.3,1.4,2.1,1.2,3.9c-0.2,0.6-0.7,0.9-0.7,1.5
				C1775.1,251,1774.5,250.6,1773.5,250.9L1773.5,250.9z M1210.5,250.9c0.4-0.1,0.6,0.1,0.5-0.4
				C1210.6,250.5,1210.6,250.5,1210.5,250.9z M1215.5,252.2c0.2-0.1,0.3-0.1,0.5-0.2C1216,250.5,1213.8,250.9,1215.5,252.2z
				 M1318.3,252.3c0.5-0.1,0.5-0.1,0.6-0.2C1319,249.8,1316.6,250.4,1318.3,252.3z M1775.6,253.6c-0.1-0.1-0.2-0.2-0.2-0.3
				C1775.3,252.1,1777.1,253.4,1775.6,253.6z M1217.6,253.6c2.1-0.7,1.3-0.9-0.3-1.7C1215.9,252,1217.1,253.1,1217.6,253.6z
				 M1379.9,255.1c0.9-0.1,5-0.9,2.2-2c-2.8-0.4-5-2-7.1-3.7c-0.9-0.3-1.8-0.4-2.8-0.4c-2.6-1.6-6.5-1.4-9.2-0.2
				c-1.2,0.9-3.1,2.4,0,2c3.9-2.1,4.7-1.5,8.8,0.6c2,0.1,1.8,0.3,3.3,1.6c2.3,0.7-0.1,1.1,1.2,1.9
				C1377.7,254.9,1378.7,254.7,1379.9,255.1L1379.9,255.1z M1219.7,256.3c0.5-0.1,1.6-0.5,1.6-1.1
				C1219.1,252.3,1218.8,255.4,1219.7,256.3z M1774.1,256.5c-0.4-0.7,0.2-0.9,0.9-0.8C1774.8,256.3,1774.8,256.4,1774.1,256.5z
				 M1395.4,258.5c0.1-0.1,0.3-0.1,0.4-0.2C1395.8,257.1,1394.6,258.1,1395.4,258.5z M1398.3,258.7c4-0.2,0.7-1.5-1.3-1.5
				C1395.8,257.9,1397.7,258.5,1398.3,258.7z M1401.7,259c0.2,0,1.7-2.2,0.6-2.3C1401,258.1,1401.1,257,1401.7,259z M1388.1,259
				c0.5-0.1,1.3-0.1,1.3-0.6c1.4-1,3.4-0.3,5-0.3c1.9-0.7-2.5-2.8-3-3.2c-2.2-0.5-4.7-0.6-6.9-0.4c-0.1,1.3,1.3,0.8,0.4,1.9
				c0.5,2.1-2.3-0.8-2.4,1.3C1384.3,259.1,1385.9,257.4,1388.1,259L1388.1,259z M1376.9,259.4c0.6-0.3,0.9-0.4,1.6-0.4
				c1.6-1.3-2.6-2.1-3.8-1.6C1374.1,258.7,1376.1,259,1376.9,259.4L1376.9,259.4z M1405.5,259.5c0.5,0,0.5-1,0.3-1.4
				C1404.5,257.7,1405.4,258.7,1405.5,259.5z M1407.2,260.7c0.5-0.2,1.1-0.4,0.7-1C1407.8,258.1,1406.9,260.3,1407.2,260.7z
				 M1407.8,262.3c0.2,0,0.3,0,0.5,0C1409.1,260,1407.5,260.9,1407.8,262.3z M1409.2,265c1.3-0.4-0.1-1.3-0.1-2.2
				C1407.9,261.5,1408.5,264.4,1409.2,265z M1409.5,266.8c0.5-0.1,0.4-0.2,0.4-0.7C1409.2,265.1,1408.6,266.6,1409.5,266.8z
				 M1412.5,268.2c0.4-0.3,0.4-0.2,0.4-0.7C1412.4,266.5,1411.3,267.5,1412.5,268.2z M1408.3,269.7c0.1-0.1,0.3-0.2,0.4-0.3
				C1409.8,267.4,1407,269,1408.3,269.7z M1393.3,269.9c0.5-0.1,0.5-0.1,0.6-0.2C1393.8,268.9,1392.4,268.9,1393.3,269.9z
				 M1394.8,270c0.1,0,0.2-0.1,0.3-0.1C1395.1,268.8,1393.9,269.4,1394.8,270z M1398.1,270.5c0.4,0,0.7-0.1,1.2-0.1
				C1399.8,269.5,1397.4,269.6,1398.1,270.5z M1402.4,270.6c1.3-0.1,1.2-0.9-0.4-0.6C1402,270.4,1402.1,270.3,1402.4,270.6z
				 M1400.6,272.2c0.5-0.1,0.3-0.2,0.3-0.7C1400.3,271.5,1400,271.8,1400.6,272.2z M1388.2,275.1c1.4-0.3,0.7-2-0.4-2
				C1387.6,273.8,1387.5,274.6,1388.2,275.1z M1766.9,277.4c-0.1-2.3,3.6-3.6,4.4-5.9c0.3-0.3,1.7-3.2,1.7-1.2c-0.6,0.6-1,0.8-1,1.7
				c1,1-2,1.7-2.5,3.3C1768.7,275.4,1767.7,277.4,1766.9,277.4z M1773,281.1c-0.5-0.6,0.5-1.2,0.5-0.2
				C1773.4,281,1773.4,281,1773,281.1z M1692.9,281.8c-0.2-0.1-0.2-0.1-0.5-0.2c-0.9-1-2-7.3,0.4-7.4c1.7,0.6,3.6,5.1,2.5,6.5
				C1694.5,281.1,1693.9,281.7,1692.9,281.8L1692.9,281.8z M1774.4,281.9c-0.9-0.6,0.7-1.5,0.7-0.2
				C1775,281.8,1775,281.8,1774.4,281.9z M1782.5,282.4c-1.4-1.2-2.6-0.6-2.6-2.8c0.6-2-1.5-0.3-2.5-0.9c-1.1,0-0.7,3.1-1.7,1.8
				c0.1-2.1,1-4.2,3.6-4.2c1.8,1.2,5.2-2.6,2.4-2.6c-1.4,1.6-1.7,0.1-2.8,0.8c0.1,2.3-3.1,0.5-1.6-1c0.1-1.3-0.9-0.4-1.4-0.9
				c0.2-3.6-0.5-2.3,2.4-2c0.3,0.3,0.4,0.9,0.6,1.3c1.2,0.2,1.1,0.2,1.3,1.3c2.2,0.1,0.6-1.4,0-1.2c0.1-1,2.4-2.2-0.1-3.1
				c-0.3,0.3-0.1,0.6-0.1,1c-1.3,1.1-1.4-1.5-1.7-1.8c-0.3-1.6-1.2-0.7-2.6-0.7c-0.3-0.3,0.2-0.6-0.2-0.9c-1.7,0,0.7,2.8-1.3,2.9
				c-2.2-2.2-0.7-2.2-1-4.3c-0.9-0.8-3.1-3.9-0.8-3.9c0.6-2.2-0.2-5.4,3.1-3.8c1.8,0,1-0.2,1,1.5c1.4,2.4-2.5,3.8-1,5
				c2,0-1,1.2,0.6,1.6c1.8-0.7,2.6,1.1,4,0.3c2.1,0-1.6,2.7,2.2,2.7c0.8,0.4,1.5,2.7,0.9,3.2c-1.5,0.1,0.2,2.6,0.3,1.8
				c1.7,0.4,2.1,5.1,1.3,6.4c-0.2,1.1-1.6-1.4-1.6,0.2C1783.4,281.2,1783.8,282.3,1782.5,282.4L1782.5,282.4z M1785.3,286
				c-1.2-0.9-0.1-2.8,0.6-1.8C1785.8,284.9,1786.2,285.9,1785.3,286z M1783.2,286.8c-2.2-1.4,0.7-2,0.4-0.2
				C1783.5,286.7,1783.3,286.8,1783.2,286.8z M1724.6,288.7c-2-0.7-1.2-1.7,0.6-0.6C1725.5,288.7,1725.1,288.7,1724.6,288.7z
				 M1782.8,289c-0.7-0.4-0.6-1.9,0.3-1.7C1783.4,287.8,1783.3,288.6,1782.8,289z M1727.6,292.4c-2.2-2.3-0.4-2.7,0.7-0.8
				C1728.2,292.1,1728.2,292.3,1727.6,292.4z M1790.9,293.4c0.1-0.3,0.1-0.3,0.4-0.3C1791.3,293.5,1791.3,293.4,1790.9,293.4z
				 M1741.1,294.2c-0.3-0.5-0.5-1.4-0.5-2C1741.8,291.4,1742.4,293.9,1741.1,294.2z M1729,294.7c-1.2-1,0.4-2.2,0.4-0.5
				C1729.3,294.6,1729.3,294.6,1729,294.7z M1791.6,295.5c0-0.2-0.1-0.3-0.1-0.5C1792,295.1,1792.1,295.4,1791.6,295.5z
				 M1803.2,295.7c-1.8-0.8,0.3-1.5,0.6,0C1803.6,295.7,1803.4,295.7,1803.2,295.7z M1820.3,295.8c-0.1-0.1-0.1-0.1-0.3-0.2
				C1819.8,293.7,1822.6,295.1,1820.3,295.8z M1831.1,295.9c-1.1-0.7,0.7-1.8,0.7-0.2C1831.6,295.8,1831.4,295.8,1831.1,295.9z
				 M1749.3,296.3c-0.4-0.4,0.3-1,0.3,0C1749.4,296.3,1749.4,296.3,1749.3,296.3z M1787.6,296.8c-1.4-0.3-1-1.1-1.2-2.2
				c-1.6-1.7,0.5-0.7,0.6-2.1c-1-2.6-0.2-2.9,1.7-4.5c1.3,0,0.4,1,0.2,1.7c0.6,0.3,0.8,2.4,0.7,3.1c-2.5,0.1-1.1,0.4-1.1,2
				c-0.5,0.4-1.2-0.2-0.8,0.8C1789,296.1,1788.8,296.7,1787.6,296.8L1787.6,296.8z M1781,297.2c-0.6-0.3-0.9-0.8-0.1-1.2
				c0.2,0,5.8,0.4,3.9,1C1782.5,297,1782.5,297,1781,297.2L1781,297.2z M1825.1,297.3c-1.6-1,3.2-1.4,1.6-0.3
				C1826.2,297.1,1825.7,297.2,1825.1,297.3z M1794.9,298.3c-0.2-0.5-0.1-0.8,0.4-0.7C1795.4,298.2,1795.6,298.2,1794.9,298.3z
				 M1841.2,299.3c0-0.2,0-0.3-0.1-0.5C1841.8,298.9,1841.8,299.2,1841.2,299.3z M1732.6,299.4c-0.3-1.5-4.1-2.6-3.1-4.5
				c0.5-0.1,3.7,3.8,3.8,4.4C1733.1,299.3,1732.8,299.3,1732.6,299.4z M1748.6,299.5c-1.7-1.3,1.2-1.7,0.6-0.2
				C1748.9,299.5,1748.9,299.5,1748.6,299.5z M1788.3,300.6c-2.5-2.5,3.5-2,4.6-1.8C1795.8,300,1788.5,300.5,1788.3,300.6z
				 M1785.6,300.6c-1.3-0.9,0.8-2.9,1.3-0.6C1786.5,300.4,1786.2,300.4,1785.6,300.6z M1778.7,301c-1.3-1.4,0.4-1.3,0.4-0.2
				C1779,300.8,1778.9,301,1778.7,301z M1762.1,301.8c-1.8-1.3-2.9-3.3-5.5-2.2c-3.1,0-3.9-1.3-5.1-3.6c-1.9-1.3-1.1-2.2-2.3-3.7
				c0-3.5,3.3-1.7,5.2-3.7c0.5-1.3,0.6-1.2,2.1-1.2c2.5-0.9,3.1-3.6,5.7-4.5c1.3-1,2.8-3.9,4-3.9c1.3,1.8,2.2,2.4,4.3,3.2
				c1,1.3-1.6,0.7-0.7,2c-0.1,1-2.8,0.6-2.6,2.8c0.4,0.5,0.7,1.4,1.5,1c2.3,0-2.3,1,0.2,1.9c0.3,0.6,1.9,0.9,0.5,1.7
				c-2.3,0-2.2,0.9-2.2,3c-1.2,1.3-1.8,1.6-2,3.3c-0.8,1.6,0.1,1.6,0.1,3.1c-0.9,1.2-1.6-1-2.4,0.6
				C1762.5,301.8,1762.5,301.8,1762.1,301.8L1762.1,301.8z M1830.4,302.4c-1.3-0.7,1.1-1.6,1-0.3
				C1831,302.2,1831,302.2,1830.4,302.4z M1778.9,303.7c-0.1-0.6-0.1-0.7,0.6-0.7C1779.5,303.6,1779.5,303.7,1778.9,303.7z
				 M1736.5,304.1c-1.2-0.7,0.7-1.7,0.6-0.1C1736.9,304,1736.7,304.1,1736.5,304.1z M1770.7,304.4c-1.5-0.5,0.1-1.9,0.4-2.6
				c0-1.8-2.9-3-0.9-4.8c0.4-1.3,0.2-1.8,1.2-3.1c0.3-5.2,4.8-2.8,8.5-2.8c0.9-0.7,2.8-2.8,2.9-0.5c-0.5,0.6-1.6,1-1.7,1.8
				c-1.8,0.3-10.4-1.3-8.5,2c1.9,1.1,1,0.7,2.6-0.3c0.1-0.4-0.5-0.6,0.3-0.8c0.5,0,1,0,1.4,0c0,1.4,2.7-0.3,2.7,2.8
				c-0.7,1-1.8-0.1-2.6-0.1c-1.7,1.1-1,1.2-0.2,2.8c0,0.2,0.2,5.2-1.4,3.2c-0.1-0.6-1.6-5.2-2.6-3.1
				C1773.8,301.6,1774.2,303.8,1770.7,304.4L1770.7,304.4z M1797.7,304.9c-1.9-1.3,1.8-2.9,0.8-0.5
				C1797.9,304.9,1797.9,304.9,1797.7,304.9z M1832.5,305.1c-0.9-0.1-1.6-0.3-2.9-0.5c-1-0.9-2-0.1-2.3-0.9c-0.3-0.2-2,0-1.2-0.8
				c0.3,0,1,0,1,0.5c1.6-0.3,3.7,0.7,4.8-0.9c1.3-0.2,1,1.4,2.4-0.3c1.6-0.8-0.3-1.4,2.4-1.4c1-1.1-4.3-2.5-4.7-2.9
				c-0.1-1.7,2.6,0.5,3.4,0.3c0.8-1.4,0.8,0.7,1.4,1c0.5,0.7,1.7,0.8,0.6-0.2c-0.1-0.9,1.9,0.3,0.7,0.6c-0.1,1.4,2.1-0.2,2.1,1.4
				c-1.2,0.1-1.4-0.5-2.1,0.8c-0.6,0.4-0.6-0.3-1.3-0.2C1836.3,303.8,1834.8,304.9,1832.5,305.1L1832.5,305.1z M1800.6,306.7
				c-1.3-1.1,0.3-4.4,1.4-3.3C1802.2,305.2,1802.3,306.1,1800.6,306.7z M1789.2,306.9c0-0.1,0-0.3-0.1-0.4
				C1789.9,306.4,1789.9,306.8,1789.2,306.9z M1786.9,307.9c-1.3-0.5,0.4-1.3,0.3,0C1787.1,307.9,1787,307.9,1786.9,307.9z
				 M1791.9,309.1c-1.6-1.3,1.1-1.7,0.5-0.1C1792.3,309.1,1792.1,309.1,1791.9,309.1z M1787.8,309.1c-1.4-1.2,0.6-1.5,0.7-0.3
				C1788.3,309,1788.3,309,1787.8,309.1z M1794.3,309.5c-1.3-1.4,2.8-4.2,2.6-2.3C1795.9,307.8,1795.4,308.9,1794.3,309.5z
				 M1764.5,309.9c-1-0.3-0.3-1.2,0.5-1.1C1764.9,309.3,1765,309.8,1764.5,309.9z M1847.3,310.2c-1-0.7-3.1-1.3-1.8-2.8
				c1.3,0,2.1,0.7,0.3-0.6c-2.6-0.9-2.1,0.8-4-2.4c-1-3.5,2,0.6,3.1,1.2c0.9,0.2,3.4,1.2,3.4,2.1c-0.5,1.2,0.6,1.4,0.7,2.5
				C1848.5,310.1,1847.9,310.2,1847.3,310.2L1847.3,310.2z M1760.7,310.2c-2-0.6-4.5-1-6.6-0.7c-2.2-0.6-2.8-1.2-5.4-1.1
				c-1.2-0.2-2.3-0.5-3.5-0.7c-1.2-1.1-2-0.6-3-1.6c0-1,0.4-0.6,1.2-0.7c0.5-0.8-1.4-0.4-1.9-0.4c-1.2-0.9-5.7-4.1-6.2-5.5
				c-2.2-2.1-2.3-5.1-4.9-6.6c-1.1-1.9-1-4.3-3.7-3.2c-1.7,0,0.3-1.2,0.3-1.8c-0.6-1-0.9-1.2-2-1.4c-0.1-0.1-4.8-4.5-2-4.7
				c1.9,1.1,2.1,1.2,4.3,1.2c1.3,1.2,1.9,2.4,3.6,3.2c1.4,1.3,1.6,2.2,3.6,2.4c2.2,0.7,2.9,2.7,5.1,3.7c0.9,1-0.4,2.3,1.2,2.6
				c1.2,1.5,0,2.6,2.4,1.2c0.8-0.2,0.9-0.3,1.4,0.3c0.3,1.3,3.2,3.1,0.1,3.2c-0.6,0.8-0.5,4-0.6,4.8c1.5,0.1,3.1,0.1,4.6,0.4
				c2.1,1.3,3.1,1.4,5.6,0.8c1.8,0,2.4,1.2,4.1,0.5c1,0,3.3,0.7,1.2,1.2c0.1,0.7,4.1,0.6,4.1,2.4c-0.5,0.5-1,0-1.5-0.2
				C1761.5,309.7,1761.4,310.1,1760.7,310.2L1760.7,310.2z M1766.3,310.9c-1-0.5-0.4-1.8,0.6-1.7c1.3,0.8,2.3-0.6,3.5-0.6
				C1771.9,310.5,1767.6,310.7,1766.3,310.9z M1837.8,311.2c-1.1-1.4,0.6-1.8,0.6-0.2C1838.2,311.1,1838,311.2,1837.8,311.2z
				 M1866.4,312.2c0-0.2,0-0.3,0-0.5c0.2,0,0.3,0,0.5,0c0,0.2,0,0.3,0,0.5C1866.7,312.2,1866.5,312.2,1866.4,312.2z M1853.1,312.5
				c-1.7-0.2-1.3-1.5-2.4-1.6c-0.1-1.8,0.5-1.2-1.6-2.9c-0.5-1.1,1.2-0.3,1.6-0.1c0.9,1,3.5,1.6,0.6,2c0.6,1.6,1.2,0.7,2.2,0.4
				c0.3-0.5-0.2-0.9,0-1.4c1.3,0,1.4,2.1,3,2.2c1.4,2.2-3.1-1.3-2.5,0.5C1854.1,312.5,1853.9,312.4,1853.1,312.5L1853.1,312.5z
				 M1775.6,313.6c-0.7-0.3,0.5-1.4,0.4-0.2C1775.9,313.5,1775.8,313.6,1775.6,313.6z M1832.3,313.9c-1.3-0.7-2.5-0.9-4-1
				c-2.8-1-4.1-5.6-7.5-4.3c-0.7,0.6-1,1.5-1.8,2.2c-2.6,1.5-4.8,0.5-6.7-1.4c-1.2-0.6-7.5,1.6-4.4-2c0.5-0.3,0.9-0.5,1-1.1
				c-1.5-4.1-4.7-3.6-7.7-5.1c-0.7-0.2-1.6-0.8-2-0.1c-1.8,0.8-1.8-1.6-3.1-2.2c-0.5-1.4,1.3-1.3-0.9-2.6c-2.6-0.4-1.5-1.8-3.1-2.7
				c0-1.8,3.9-0.2,2,0.3c0,1,2-0.3,2.5-0.5c1.3,0,3.1,0.7,4.1,1.3c0,0.6-0.7,3.1,0.8,2.9c0.3,3.1,3.2,0.3,3-0.7
				c-1-0.3-3.9-0.9-3.5-2.5c1.8-0.6,1.8-0.7,3.7,0.4c0,2.2,1.6,0.6,3.1,0.6c1,0.5,2,1.1,2.9,1.7c3,0.2,12.7,2.5,13.1,6
				c0.7,0.6,5.8,1.4,3.5,3c-2,0.4,0.3,1.6,0.9,2.2c0.5,1.3,0.9,1.6,2.3,1.9c1.3,1.4,0.8,0.3,2.3,0.3c0.8,0.2,2.2,1.3,0.7,1.6
				c-2.9-0.9,1.1,0.6,0.2,1.3C1834,314.1,1832.9,313.9,1832.3,313.9L1832.3,313.9z M1777.9,313.9c-0.6-0.6,1.7-3,2.3-3.5
				c0.9-0.3,2.1,0.1,1.3-1c-1.1-0.5-3.5,0-4.5,0.6c-0.9,0.2-6.1,0.3-3.9,1.3c0.4,0.9,0.9,0.4,0.5,1.6c-0.8,1-6-1.9-2-2
				c1.3-0.5-0.9-2.1,2.4-2.1c2.8,0.7,4.4-0.5,7.3-0.5c2.3,0.3,2.1-0.9,4.2-0.9c2.3,0.7-3.9,1-0.6,1.6c1.2,0,1.5-0.1,1.9-0.1
				c1.2,1.3-4.2,2.6-4.7,3C1780.9,313.2,1779.4,313.5,1777.9,313.9L1777.9,313.9z M1856.3,314.2c-0.5-0.3-1.3-0.6-1.2-1.3
				C1856.2,312.9,1858.7,314,1856.3,314.2z M1864.4,314.5c-0.6-0.6,0-0.9,0.6-0.9C1864.9,314.2,1864.9,314.2,1864.4,314.5z
				 M1839.1,315.5c-0.4-0.2-2.5-2-2.1-2.3c0.9,0.1,0.9,0.2,1.1,0.9C1838.4,314.3,1840.4,315.3,1839.1,315.5z M1840.7,315.6
				c-0.2-0.1-0.2-0.2-0.2-0.5C1841.2,314.3,1841.6,315.5,1840.7,315.6z M1853.4,316.4c-0.3-0.3-0.7-0.5-1.1-0.8
				C1850.7,313.4,1856.5,316.2,1853.4,316.4z M1867.4,320c-1.2-1.6,1-1.1,0.3-0.1C1867.6,319.9,1867.5,320,1867.4,320z
				 M1781.4,321.4c-0.3-0.5-0.1-0.8,0.5-0.7C1782.4,321.2,1781.8,321.3,1781.4,321.4z M1868.6,323.6c-0.2-0.6-1.1-0.6-0.5-1.3
				C1869,320.4,1869.6,323.6,1868.6,323.6z M1866.8,323.9c-0.5-0.5-0.7-0.9-1-1.6C1865.8,321,1869.3,323.2,1866.8,323.9z
				 M1869.2,325.7c-0.6-1.4-2.1,0.5-1.8-1.6c0.4,0.2,1,0.6,1.3,0.2C1868.7,322.7,1870.9,325.5,1869.2,325.7z M1885.6,326.7
				c-0.6-0.6,0.6-2.2,1.6-1.6c0.9,0,2-1.4,2,0.5c-0.9,1.2-2-0.9-2.7,0.6C1885.9,326.7,1885.9,326.7,1885.6,326.7L1885.6,326.7z
				 M1869.3,327.6c0-0.2,0-0.3,0-0.5C1869.7,327.2,1869.9,327.6,1869.3,327.6z M1886.6,329.1c-0.4-0.7,0.2-0.8,0.4-1.4
				c0-2.2,1.7-0.3,3-1.3c0.7-1.5,1.3,1.8-0.1,1.7C1888.9,326.9,1888.1,328.9,1886.6,329.1z M1887.9,330.1c-1-0.4,0.9-1.8,1-0.5
				C1888.5,329.8,1888.3,329.9,1887.9,330.1z M1871.3,331.4c-1.1-0.7-0.6-3.5,0.2-2.1C1871.6,329.9,1872.1,331.2,1871.3,331.4z
				 M1859.7,331.4c-0.7-0.3-0.2-1.2,0.3-0.6C1860,331.2,1860.2,331.4,1859.7,331.4z M1865.3,333.5c-0.1-2.5,2.1-1.2,0.5-0.1
				C1865.6,333.5,1865.4,333.5,1865.3,333.5z M1762.1,333.6c-1.2-0.6,1-1.9,0.3-0.2C1762.3,333.5,1762.2,333.5,1762.1,333.6z
				 M1868.8,335.3c-0.5-0.3-0.5-0.4-0.7-0.9c-2.9-0.1-0.5-3.2-0.2-0.2C1868.8,334.2,1870.2,335,1868.8,335.3z M1866.1,336.8
				c-2.5-1.3-4.3-2-5.5-4.7c-0.1,0-0.1-0.1-0.2-0.1c-0.7-2,3.5,1.9,3.9,2.4C1865,334.7,1868.2,336.2,1866.1,336.8L1866.1,336.8z
				 M1622.3,342.5c-2.4-1-3.2-1.5-3.2-4c-1.8-3.9,1.4-4.5,1.4-8.1c-0.7-1.9-1.1-3.9-0.1-5.8c1.4-1.1,3.4-0.7,4.5-2.1
				c2.2-0.9,2.2-0.8,2.8-3.1c2.1-0.6,1.6-1.2,2.2-2.9c1.5-1.2,2.4,3.9,2.4,4.4c1.3,3-1.3,1.3-1,3.6c0.2,0.4,0.3,0.6,0.3,1.1
				c-2.6,4.7-3.2,10.6-5.2,15.5C1625.2,341.7,1623.7,342.3,1622.3,342.5L1622.3,342.5z M1758.8,343.4c-2.6-2.2,1.4-2.5,0.7-0.1
				C1759.3,343.4,1759.3,343.4,1758.8,343.4z M1415.4,359.9c0.6,0-0.4-1-0.4-0.2C1415.1,359.9,1415.2,359.9,1415.4,359.9z
				 M1571.2,360.4c1.5-0.2,3.1-1,4.7-1.2c2.5-0.8,4.7,0.4,7-0.9c5.6-0.3,13-8,14.9-12.8c0-3.4,0-3.6,3.6-4.5c2.6-1.6,1.8-5.9,0.2-8
				c-1.2-3.1,2.2-2.7,3.7-4.4c0.7-1.2,1.5-1.7,2.7-2.4c2.4-0.5,5.5-2.2,5.5-5c-1.1-2.4-0.4-5.2-0.7-7.8c-1.4-1.6-2.6-3.3-2.1-5.6
				c0-1.1-0.3-2-0.9-2.9c-0.6-1.9,1.4-3.9,2.4-5.4c0.4-1.3,1.4-1.9,2.4-2.7c2.9-3.5,6.2-6.6,10.2-8.9c0.9-1.3,2.5-2.5,3.6-3.9
				c2-3.5,4.7-6.6,5.7-10.5c0.3-0.2,0.6-0.4,0.7-0.7c0-5.6-1.9-1.9-5.6-2c-0.2,0.9-1.8,0.6-2.4,0.5c-1.4,0.6-1.4,0.6-2.5,0.8
				c-1.2-0.8-2.6,1-4,0.3c-0.8-0.8-2.6-1.8-2.6-2.9c1.4-2.4-4.4-5.4-6-5.9c-1.2-1.2-1.1-2.6-1.7-4.1c-1.1-1.8-2.6-2.3-3.6-4.3
				c-0.3-4,0.5-3.8-2.6-6.1c-1.9-2.3-2.7-5.6-4.3-8.2c-0.7-2.2,0.1-1.7,2.1-1.7c1.8,0.9,3.1,3.9,4.1,5.6c1.3,2.7,3.7,2.8,3.9,6.3
				c0.7,2.1,1.4,3.2,3.6,4.2c0.9,0.8,1,2.5,1.8,3.5c2.1,1.3,2.1,3.5,2.2,5.6c1.1,2.9-0.2,5.6,4.8,4.1c2.5-2.2,6.1-1.3,8.6-3.5
				c1.7-0.5,5.6-0.9,5.8-2.8c1.6-2,3.6-1,5.4-2.1c0.8-1.6,1.6-0.7,2.7-1.6c0.9-1.7,1.5-1.2,2.9-2.2c0.5-2.3,2.2-3.6,3.6-5.5
				c0.8-3.6-4.6-3.1-6-4.7c0-0.5-0.9-4.7,0.5-3.9c0.7,3,4.9,1.8,7.3,1.8c2,0.9,9.2,0.6,11.9,0.6c0.3,0.3,0.3,0.3,1.6,2.3
				c1,0.6,4.1,1.6,4.1,2.9c-2.2,0.8,1,2.2,2,3.1c1.5,0.6,5.8-1.7,4.5,1.5c0,0.9,0.2,1.4,0.6,2.2c0.2,3.6,1.3,6.5,3.5,9.5
				c0.2,2.3,0.7,3.5,2.3,5.2c0.3,1.7,0.9,3.9,2.1,5.4c2,1.2,2.2,0,3.6-0.9c3.1-0.5,2.8-2.6,2.4-5c0.4-1.2,1-2.5,1-3.7
				c-0.8-2.9-0.5-3.9,2.2-5.5c2.1-0.3,2-1,3.6-2.5c4.1-2.4,8-5.4,12.2-7.9c1-0.1,2.1-0.2,3.2-0.3c1.7-1.6,2.1,0.9,2.4,2
				c0.7,1,3.5,2.5,3.5,3.5c1.3,2,1.4,2.9,0.7,5.1c0,2.6,4.2,0.7,5.3-0.2c2-3.2,1.6,4.3,1.6,4.7c0.7,1.6,0.5,1.6,0.1,3.1
				c1,1.7-0.5,0.6-0.4,1.7c1.6,0.2,0.5,3.7,1.4,5.1c0.3,2,0.9,2.6,2.8,3.7c0.2,0.6-0.7,1.1-0.1,1.7c1.7,0.2,2.9,5.4,3.6,6.9
				c1.5,0.8,3.5,1.8,4.5,3.1c4.1,0,0-3.1,0-5.2c0.7-2.8-1.8-4.4-3.7-6.2c-2.9-0.7-2-1-2.8-3.7c0-1.4,0.7-1.8-1.4-1.3
				c-1.2-0.4-0.2-2.1,0.2-2.8c0.7-0.6,1.3-5.8,2.4-3.7c-0.1,1.4,1.7,0.5,2.7,1.5c1,1.8,3.1,2,3.3,4c0.6,0.6,1.6-0.3,2.1,0.9
				c0,2.4-0.8,3.4,2.3,1.2c0.8-1,1.6-1.7,2.8-2.4c3.6-1.3,5.4-5.1,3.4-8.5c-0.7-3.2-3.2-3.6-5.1-6c-0.6-2.3-3.1-2.7,0.5-4.7
				c0.3-0.6,0.4-0.8,0.9-1.2c1.4-0.4,1.7-2.3,3.8-1c4,0.4-0.3,3.2-1,3.8c-0.1,3.4,3.5,2.9,4.5,0.2c0.9-1.1,0.4-1.2-0.3-2.1
				c0.5-2.9,3.3-1.9,5.6-3.1c1.6-1.7,3.3-1.4,5.5-1.4c1.1-0.7,2.1-2.2,3.3-3.2c4-1.3,4.3-4.7,7.3-7.2c0.6-1.2,1.1-2.7,1.4-3.9
				c-0.6-0.3-1.8,0.3-1.8-0.5c1.7-1.2,1.1-1.3,1.1-3.1c-2-1.7-1.5-4-4-5.2c-1.2-0.9,0.3-1.8,1-2.7c0.9-0.5,4.9-1.4,4.9-2.4
				c-0.2-0.4-3.3-1.2-4-1.2c-0.8,0.2-3.1,2.3-2.8,0.2c-0.4-1.3-4.4-0.9-2.6-2.3c2.8-0.1,4.8-4.7,7.8-3.5c0.2,1-0.5,1.4-1.2,2.2
				c0,0.9,0.2,0.9-0.5,1.4c0.2,1.3,2.9-0.9,3.9-1.2c2.9-0.8,4.4-1.6,4.4,1.8c-0.4,0.2-2.3,1.4-0.7,1.4c0.8-0.5,1-0.1,1.8,0.3
				c2.5,0,1.7,1.7,1.7,3.3c-0.5,1-2.8,4.4,0.2,2.8c2-0.2,2.7-1.2,4.8-1.2c3.2-3.4-3.5-7.1-2.6-9c1.3-0.6,2.4-1.3,3.5-2.1
				c0.6-1.8,0.7-1.9,2.7-2.5c1.4-1.8,1.9-1.6,4-0.8c1.3,0,2.5-0.4,3.6-1c1.3-1.4,1.3-1.4,1.7-2c2.4-2.2,4.5-2.8,6.3-5.9
				c2-1.2,3-2,3.1-4.3c0.8-1.5,0.5-2.7,1.4-4.2c2.8-2.5,2,3.8,1.6,5c0,1.3,1.2,7.9-1.6,6.6c-1.7,0.1,1,1.4,1,1.4c0,3.1-1.8,2-3,3.5
				c-0.4,0.3-3.1,1.5-1.6,2c2.5-1.2,0.7,4,0.9,4.5c0,1.1-1.8,4.5-2.5,2.5c-0.7-0.8-1.3,0.7-0.1,1.2c-0.5,0.7-1.3,1.2-2.2,1.2
				c0.1-0.9-0.2-1.6-1.3-0.6c-0.4,0.8-1.8,3.6-2.8,3.3c-3.3,0.1-3.9,0.2-5.1,0.2c-1.3,0.9-2.5,1.4-3.9,2.1c-0.9,1.2-1.4,1.6-2.8,1.8
				c-1.2,0.8,0.2,1.9,0.8,2.6c0.5,1.4,0.2,1.8,1.6,2.5c-0.1,1.4-1.2,0.3-0.8,1.5c2.6-0.2,1.3-0.2,1.8-1.8c1.2-0.9,0.7-3.1,2.2-3.3
				c1.2,1.2,1.7-0.3,2.6-0.8c2.1,0.4,1.8-2.2,3.4-0.3c1.3,0.6,2.1-0.9,3.2-1.3c1.6-1.6,4,0.1,5-1.6c0.7-0.2,1.8,1.7,2.5-0.5
				c0.9-1.3,0.3-2.2,1.1-3.7c0-0.7-0.3-1.5,0.2-2c4.6-1.6-1.7-7.4,0.4-8.1c1.5,0,2.9,1.6,4.3,0.5c1.2-2.1,3.9-0.9,5.6-2.6
				c3.2-0.6-2.2-3.7-0.8-1.3c1.6,0.5,0.1,1-0.6,1.4c-1.4-0.5,0.6-1.6-1.3-1.6c-1.7,0.8-6.8-2.4-5.4-3c0.1-0.2,0.2-0.5,0.3-0.7
				c1.1-1.5,1.7,0.7,2.4,0.1c0.8-2.4-3.6-2.5-0.6-5.8c1.2-0.4,3.1,1.7,3.1,0.6c-1.5-2.1-2.4-4.1-3.1-6.5c0.5-1.2,0.1-4.5-1.6-4.5
				c-0.3,0.2-0.4,0.4-0.4,0.8c0.6,1.2,0.1,1-1.1,1c-0.2,0.5-0.2,3.5-1.3,1.8c0-3.3-3.9-3.5-6.4-2.3c-0.9,0.1-0.7-1.6-1.2-1.6
				c-0.9-1.3-3.2,1-3.2-0.4c1.6-0.5,2.9-1.3,4-2.5c1.7-0.8,2.9-1.7,4.6-2.6c1.8-0.4,3.3-2.2,5-3c3.6-0.1,7.2-0.1,10.8,0
				c1.3,0.4,1.8,0.2,2.9-0.6c1.9,0,2.6,0.1,3.5,1.6c1.4,0,10.2,0.5,6.9-2.1c-0.1-0.5,3.2-2.1,4-2.5c1.3-2.4,4.7-0.6,6.7-1
				c0.3,0.3,0.2,1.4,0.2,1.8c1.6,0.7,3.9-1.6,5.9-1.7c1.3-0.4,0.4-1.8,2-1.8c0.5,0.5,0.1,1.6-0.1,2.2c-1.3,1-3.6,1.4-5.1,2.4
				c-2.5,1.2-4.4,3.1-7.1,4c-2.8,0.2-1.8,1.4-4.1,2.5c-1.1,2.8-0.1,5,0.7,7.8c0.7,0.9-0.2,1.8,0.5,2.9c-0.2,1.7-2.2-1-2,1
				c-0.7,2.4,1.2,0.3,2.9-0.2c2.4-1.6,2.4-1.3,3.3-4c0.9-1.5,2.9,0.7,3.2-2.1c1.6-2.1,4.2-0.4,5.4-3.2c1.3-0.5,1.9-1.5,0.8-2.5
				c-0.5-1.4,1.4-2.3-0.9-2.3c-0.9-0.5,1-1.4,1.4-1.6c1.5-2.1,0.5-1.7,3.6-1.7c2.2-0.9,1.8,0.5,4.1-0.8c0.9-1.3,4.8-0.3,5.8,0.7
				c0.6,0,0.6,0,0.8-0.1c0.7-1.3,1.7-1.3,3.2-1.6c2.8-2,5.7-2.1,8.9-3.1c2.4-1.2,6,2.2,5.2-1.6c-1-1.9-2.7-2.6,0.2-2.8
				c1.2-0.5,1.3-4.8,2.9-1.9c1.7,0.8,3.8-0.2,5.5,0.6c0.7,1.7,3.4,1.6,4.9,1.7c2,1.3,0.9-1.8,2.5-2.5c1.3,0.1,2.9,0.2,4.1,0
				c2.4-1.6-1-1.3-2.2-2.4c-1.2-0.5-2.8-0.4-4.1-0.7c-2,0.9-2.3,2.1-3.4-0.6c-1.7-1.4-4.9-1.3-7.1-2.3c-4.1-1.2-7.5-2.1-11.7-2.1
				c-2.5-0.3-5-0.3-7.4-0.5c-2.8-1-0.6,1.5-1.7,2.5c-0.8,0-2.5,0.1-2.5-0.9c2.3-1.4,0.1-1.7-0.7-0.4c-0.9,0.1-1.2-0.7-2.1-0.7
				c-2,0.6-4.7,0.7-6.6,0c-1.6,0.1-3.2,0.2-4.8,0.3c-2.9,0.9-3.5-1.9-6-2.7c-2.8-0.1-5.5-0.2-8.2-0.1c-1.6,0.6-9,0-9.8-2
				c-1.8-0.6-3.3-0.6-5.2-0.6c-3.9-0.8-8.2,0.1-12-1.2c-3.7-0.2,3.6-0.1,4.1-0.1c2.4-0.9-5.1-2.5-6.6-1.7c0.2,1.1-0.6,0.3-0.6,1.5
				c0.5,0.2,1.2,0.1,1.7,0.1c-0.1,0.6-1.6,1.5-2,2.1c-0.2,1.3-1.1,0.9-2.5,0.9c-1.7,1.1-3.3-0.1-5.4-0.2c-2.1,0.8-2.9,0.5-5-0.5
				c-2.1,0-3,2.2-5,2.2c-2.4-0.7-2-2.1-4.6-2.1c-2.3-1.1-0.3-1.1,1-1.9c-0.1-1-2.5-1.5-3.5-1.3c-1.9,1.5-4.5-1.7-6.9,0.3
				c-3.3,1.6-7.4,1.2-10.5-0.3c-1.3-0.1-2.5-0.1-3.7-0.1c-2.8-1.1-6.4,2-7-1.7c-0.7-0.1-1,0.1-1.8,0.1c0-1.3,4.8-0.5,2.7-2.5
				c-1.2-0.5-0.2-2-1.8-1c-1.6-0.4-0.6-0.9-2.2-0.5c-2-1-4.5-0.6-6.7-0.6c-0.6,0.4-1.6,1.4-1.7,0.3c1-1.4,0.8-1.5-0.7-1.4
				c-0.2-0.9,0.6-0.7,1.3-0.9c2.3-1.4-5-1.8-3.4-0.3c0.6,0.2,1.6-0.1,1.6,0.7c-1.4,0-6.7,0-2.9-1.4c-0.1-0.9-2.2-1.8-3.2-1.8
				c-3.7,1.3-0.7-1.8-4.8,0.7c-1.3,0.2-2.1,0.2-3.1,1c-1.2,2.3,3.9,0.6,4.5,0.5c1.4,0.3,2.6,0.3,4,0.1c3.4,0-4.5,1.5-5.2,1.8
				c-1.3,1-1.4,0.9-3.2,1.1c-1.7-0.3-3.5,0.9-5.2,1.4c-2.9,0-6-1.3-8.7,0.1c-2.5,0.3-6.7-0.2-8.7,1.1c-1,0-2.2-0.6-2.8,0.3
				c0,2.4-3.2-0.7-3.2,1.4c0.8,1.1-1.5,1.3-2.2,1.3c-0.5-1.1-3.3-1.6-4.1-0.9c0,2.8-5.1-1.5-3.5,3.5c-0.5,0.3-2-0.1-2.5-0.2
				c-1-0.5,0.4-0.9-0.2-1.6c-1-0.1-3,3.6-3,1.2c-0.6-0.8-1.2-0.1-2.1,0.3c-1.3,1.6-2.8,1.1-3.1-0.9c0.6-0.4,2.1-1,2.1,0
				c1.6,0,1.2-0.4-0.1-0.7c-0.5-1.6-3.1,0.2-4.4,0.2c-0.7,0.7,0.3,0.7,0.9,0.8c2.7,1.5-3.7,1.1-2.5,3.2c1.3,1,1.7,0.9,1.3,2.5
				c0,1.8,1.3,1.4,1.2,2.6c0.9,2.9-2.7,2.3-4.4,4c-3.6,0-0.2-1.8,1.3-2.2c1.7-1.3-1.2-3.8-0.3-6c-0.2-1.2-2-1-0.9-2.2
				c4.4-2.8-3.3-1.8-3.9-2.5c0-1.3-0.3-0.5-1.1-0.1c-1.8,0.3-2.2,1.2-3.3,2.6c-1,0.5-2.9,0.2-3.3,1.5c0,4.4,1,1.8,3.7,3.9
				c1.6,0.2,1.1,1.1-0.1,1.1c-1.8-0.6-3.3-1.2-5.2-1.6c-3.1-1.2-6.6-1.6-9.8-1.6c-3,1.1,1.3,1.8-2.2,2.5c-1.4-0.9-0.7-1.9-2.5-0.5
				c-2.1,0.3-3.7,0.5-5.9,0.5c-0.5,0.2-2.7,1.2-2.9,0.5c0.2-0.3,1.6-1.3,0.5-1.3c-3.3,0.7-6.4,1-9.4,2.2c-1.4,0-3.2,0.2-3.8,1.6
				c-0.9,0.6-3.3,0.5-4.3-0.1c-0.2-1.3,1.8-0.2,2.5-0.9c0-2.4-3.3-1.7-4.8-1.7c-0.7-0.3-2.5-1-1.7,0.5c1.3,0.9,0.7,2.5,0.7,3.9
				c-0.3,0.2-2.4-1-3.2-0.7c-1.4,1.2-4.4,0.9-4.7,2.6c2.2,4-8.3-1.8-5.6,1.2c2.9,2.1-0.5,2-2.1,1c-2.7-0.6-2-0.3-2-3.1
				c-0.9-1.7,3-0.6,4.1-0.4c1.9,0,3.8,0,5.7,0c1-0.5,4.5-1.8,2.5-3.2c-4-1.3-8-2.3-12-3.3c-2.3,0.1-2.6,0.3-4.3-1
				c-2.2,0-2.5,0.1-3.6,0.1c-2-2.4-6.6-3.3-9.4-1.7c-0.2,0-0.5,0-0.7,0c-0.2-1.1-0.9-0.7-1.9-0.5c-1.3,1.3-2.6,0.6-4.3,0.6
				c-2.6,0.9-5.4,0.8-8.2,0.8c-0.6,0.3-0.3,0.9-0.9,1.3c-1.5-0.7-4.1,1.3-1.8,1.3c0.3,1.9-1.9,0.6-2.6,1.6c-0.4,2.5-2.8,1.4-4.7,2.1
				c-2.9,0.4,0.5,2.9-3.2,3c-1.4,1.4-1.2,1.5-3.2,1.5c-1.1,0.6-2.3,2.6-3.4,1.8c-0.6,0-1.4,1.2-1.8,0.5c-0.6,0-0.1,0.8-0.6,1.2
				c-2.1,0.1-2.8,1-4.8,1.1c-2.3,0.9-0.2,2-0.2,1.5c2.9,0,1,0.5-0.5,0.6c-1.5,1.4,2.1,1.8,2.5,2c0.2,1.2-1.7,0.5-2.3,1.3
				c0,3.3,5,3.8,7.3,2.2c1.2-0.7,2.8-0.6,3.5-1.6c1.4-0.6,1.9,2.9,2.2,3.6c1.4,1.7,2.9,2.3-0.2,2.4c-1.2,0.7-1.2,2.4-2.8,0.7
				c0-1.2,1.5-0.3,1.5-1.4c-1.6-0.9-0.1-1.6-0.5-1.8c-0.9-1.6-2.4,0.3-3.9,0.3c-2.8,1.4-0.2,4-0.1,6.1c-1,1.6-3.2,0.1-4.8,0.9
				c-3.3,0.5-3.4,1.7-5.5,3.8c-0.9,1.6-6,1.6-3.7-0.8c1-2.9-2.2-1.3-2.9-2c-0.3-2.6-1.8-2.4-3.5-4c-1-1.7-1.4-1.2-3.4-1.2
				c-1.2-0.8,1.3-0.9,1.8-1.4c1.5-2.9,1.1-2.5-2.4-2.6c0-0.9,2.9-2.3,0.5-2.3c-2.4,1.2-4.5-0.3-4.5,3.2c-0.5,0.1-1.8-0.6-2-1.1
				c2.1-1.9-3.4-0.6-2.1,1.7c1.3,0,0.4-1.8,1.8-0.5c2.2,0.5-0.7,1.3,1.9,1.8c0.3,2-1.7,2.2-3.1,1.7c-2.9,0-2.6,2.5-5.5,1.8
				c-1.6,0.2-0.4,2.1,0.4,2.7c0.5,1.1-0.9,1.3-1.5,1.8c-0.2,3,5.1,0.8,6.5,0.5c2.1,0,2,0,2.9-1.8c0-1.2-2.1-1.6,0.1-2.2
				c1-0.8-0.1-2.4,0.8-2.2c0.3,1,0.5,1,1.6,1.1c2.5-0.6,1.6,0.7,3.3,1.2c1,1.6-3.9,0.2-3.7,2.4c2.6,1-2.4,1-0.7,2.1
				c3.2,0.2,1.6,0.7,0,2.2c-2.5,1.3-0.1,1.1,1.2,0.6c2,0.1,2.7-0.6,5-0.5c1.8-0.2,3.6-0.3,5.4-0.5c1.2-0.5,2.5-0.7,1.6,1
				c-2.6,0.7-3.1,2.3-5.7,0.7c-2.7,0-0.2,3.2-3.1,1.8c-1.3,0-4-0.3-3.7,1.6c0.3,0.2,0.7,0.5,0.9,0.8c1.6,0.1,1.5,0.3,2.6,0.9
				c0.7-0.5,2.1,1.4,3.3,1.8c0.9,0.9,0.1,3.5-0.1,4.5c-1.3,1.7-4.5,0.9-6.6,0.9c-0.8-0.2-6.6-0.9-6.9-0.3c-2.2,1.3-2.5,0.7-1.3,3.7
				c0.2,1.9,0.1,2.3-0.6,4c-2.3,2.7,0.9,1.7,0.9,3.5c-1.8,3.6,2.8,0.2,4.2,2.4c4.1,2.6-3.3,6.2-5.4,7.5c-0.5,0.9-1.7,3.6-1,4.7
				c-0.1,1.1-1.8,2.4-2.6,2.9c-0.9,1.2-2.8,0.9-4.1,1.6c-1.3,2.1-3.5,3.5-3.6,6c-0.1,0.1-0.1,0.2-0.1,0.2c-2,1.6-2,1.3-2.9,3.7
				c-1,1.3-2.4,2.8-1.1,4.4c1.8,1,1.4,3.3,1.5,5.1c-0.3,1.3-0.9,2.2-1,3.5c-0.8,2-2.5,2.3-0.3,3.7c0.3,0.7,0.2,1.6,0.6,2.1
				c1.8,0.5,0.5,0.7-0.1,1.3c0,0.3,1.1,2.2,1.4,2.4c3.7,0,5,3.6,5.8,6.3c0.5,0.2,1.6,1.1,1.8,1.6c2.5,1.3,4.7,2.9,7,4.6
				c3.6,1.3,5-0.5,8.6-0.8c1.9,0,3.4,0.6,5.1,0.6c4.1-1.8,12.9-5.9,14.9,0.2c1,1.4,2.4,0.7,4,0.5c6.2-2.2,4.8,5.5,3.1,8.7
				c-1.2,4.8,5.1,6.3,5.9,10.4c0.2,0.3,0.4,0.6,0.6,0.9c0.2,2.2,2.6,3.6,1.2,5.6c0,2.2,2.3,3.6,1.1,6.2c-2.2,2.5-2.2,2-2.8,5.9
				c-2.3,3.7-0.3,6.3,1.9,9.4c0.6,1.8,1.8,3.2,2.7,4.9c0.1,3.6,0.5,7.3,2.4,10.4c1.4,1.3,5.2,6.4,5.2,8.3c-0.7,1.4-0.7,1.4,0.1,2.8
				C1568.6,360,1569.5,359.6,1571.2,360.4L1571.2,360.4z M1807.5,361.6c-0.3-0.5,0.5-2.4,1-1.4
				C1808.3,360.9,1808.1,361.4,1807.5,361.6z M1882.8,363.1c0.6,0,0.5-0.6-0.1-0.6C1882.7,362.7,1882.7,362.9,1882.8,363.1z
				 M1824.5,368.8c1.2-0.3,2.5-1.7,3.5-2.4c1.2-0.1,3.3,0.2,4-0.7c0-3.8,2.2-7,4.9-9.6c0.7-0.2,1.3-2.6,1.4-3.2
				c0-2.6,1.6-4.7,0.7-7.3c-1.8-1.2,0.8-5.4-1-4.8c-0.7,1-3.7-2.3-4.2-2.9c0-0.9,0.1-1.4-0.8-2c-2.1,0-3.2-3.7-5.1-4.7
				c-1.2-1.2-2.6-0.7-3.3-2.4c-0.2-2.6-1.7-4.2-1.8-7c-1.6-3.2-3.6,0.6-3.7-3.7c-0.4-1.3-1.2-3.6-2.4-4.4c-1,0.1-1.6,3.5-1.6,4.2
				c-0.3,1.5,0.3,10.2-3.5,8.8c-0.9-0.9-0.9-2.1-2.2-1.3c-1.5,0-4.5-2.5-5.8-3.3c-1.6-2.7,3.5-0.2,1.4-2.2c-0.2-0.5-0.1-1,0.5-1.2
				c1.6-2.7-1.7-1.9-0.2-3.6c0.8-2.9-2.5,0.1-1.7,0.7c0.2,2.2-6.3-1.4-7.1-1.4c-1.4,0.5-1,0.7-0.2,1.5c0.1,0.9-1.7,0.5-2.1-0.1
				c1.1-2.6-3.6-0.7-2,0.5c2.1,0,1.8-0.4,0.3,2.3c-1.6,0.8-1.4,1.1-1.7,2.8c-1.3,1.3-2.8-0.5-3.6-1.3c-4-1.4-4,2.8-6.6,2
				c-0.6,0-0.7,0.2-0.5,0.9c1.6,0.7,0.1,1-0.9,1.3c-0.4,1.2-0.3,1.3-1.3,0.5c-2.4-0.1-1,2.9-2.5,3.6c-1.4,2-2.4,2.9-5.1,2.9
				c-1.5,0.5-2.9,1.7-4.5,1.3c-1.4,0.2-4,1.9-5.1,2.9c-2,0.2-1.4,4.1-2.4,5.5c-0.3,0.1-0.5,0.1-0.8,0.4c-0.5,1.3,2.9,6.9,3.7,8.2
				c0.2,0.9,0.4,1.8,0.6,2.7c1.5,2.4,1.8,3.7,0,5.9c0,2.6,4.8,3.1,6.6,2.6c3.9-2.5,6.2-2,10.5-2c1-0.6,1.4-1.6,2.7-2.2
				c2.2-0.8,3.5-0.9,5.7-1.1c2.4-1.1,4.5-1.2,7.1-1.4c3.6,1.7,5.8,0.7,7.8,4.7c0.5,3.7,2.8,0.3,4.5-0.9c1.3-0.3-1.3,2.6-1.3,3.1
				c0.4,0.5,1.5,1.2,2.1,1.5c2.2,0,1.8-1.3,3.3,0.9c0,4.3,5.1,3.5,7.9,4.8c0.7,0,1.4-0.3,2.2-0.6
				C1822.6,367.6,1823,367.7,1824.5,368.8z M1826.5,369.3c0.1,0,0.2-0.1,0.4-0.1C1827.6,368.7,1825.5,368.3,1826.5,369.3z
				 M1819.9,370.8c0.8-0.2,0.7-0.7,0.7-1.4C1820,368.7,1819.2,370.5,1819.9,370.8z M1381.6,377.6c0.2,0,0.4,0,0.6,0
				C1382.3,376.3,1381.1,376.8,1381.6,377.6z M1824.4,377.7c-1.9-1.3-5.6-8.6,0-5.4c0.7,0,3.2-0.5,3.5-1c0-0.4-0.2-1.1-0.2-1.4
				c2.1-1.3,1.4,4.5,1.4,5c-0.6,1,0,1.9-1.6,1.9C1826.5,377.8,1825.8,377.6,1824.4,377.7L1824.4,377.7z M1384.5,379.1
				c0.6-0.4,1.7-5.1,1-5.7c-1.8-0.1,0.2,2.5-1.5,3.1C1383.5,377,1383.8,378.7,1384.5,379.1z M1384.6,380.5c0.1,0,0.3-0.1,0.4-0.1
				C1385,379.7,1384.5,379.5,1384.6,380.5z M1870.1,383.4c-4.5-1.2-7.3-0.7-2-5c0.1-0.2,0.2-0.3,0.4-0.5c3.7-1.1,5.3-2.4,7.4-5.2
				c0.2-1.7,1.3-2.1,2.6-0.9c0.4,0,0.9-1.2,1.2-0.3c1,0.5,2.6,1.6,2.5-0.7c-0.9-0.8-3.7-1.1-2.4-2.6c4-1.7-1-6.1-2.3-8.3
				c0.4-1,4.2,1.2,4.2,2.7c0.7,2.4,1,0.1,2.1,1.3c0.7,1.4,0.9,2,2.5,2.1c5.1-2,3.2,2.2,0.7,2.9c-0.6,0.4-0.5,0.7-0.6,1.4
				c-1.6,2.1-2.5,3.5-5.1,2.6c-1.3,1.3-1.6,2.4-3.2,3.6c0,0.2,0,0.2,0.3,0.8c0,0.9-1.6,0.5-2.4,0.8
				C1873.6,380.2,1874.1,383.2,1870.1,383.4L1870.1,383.4z M1381,390c0.5-0.1,0.5-0.2,0.7-0.6c2.9-1.4,0.3-2.9,0.3-2
				C1381.3,388.4,1381,388.6,1381,390z M1382.1,392.8c0.8-0.2,0.8-1-0.1-0.5C1382,392.4,1382,392.6,1382.1,392.8z M1383.8,395.7
				c0.4-0.1,0.4-0.2,0.4-0.6C1383.6,394.4,1383.1,395.3,1383.8,395.7z M1385.3,396.9c1.7-0.5-0.6-1.4-0.6-0.2
				C1385,396.8,1385.2,396.8,1385.3,396.9z M1389.6,397.1c1.4-0.3,2-3-0.7-1.7C1387.4,396.8,1388.4,396.2,1389.6,397.1z M1402.6,399
				c0.3-0.1,0.6-0.2,0.9-0.3C1403.4,397.5,1401.6,398.7,1402.6,399z M1396.6,401c-1.6-0.5,0.3-0.9-0.5-1.7c-2,0,0.4,1.6-1.5,1.6
				c-1.2-0.5-2.8-0.3-3.4-1.6c-1.5-0.2-4.4-0.2-5.4-1.7c-0.6-0.1-0.9,0.2-1.6,0c-0.7-2-4-3.2-3.9-5.6c0.5-0.6,0.1-2.7,0.1-3.5
				c-1.4-1.1-0.5-2.2,0.3-3.4c0.9-0.4,2.2,0.5,2.6-0.2c-1.2-2-5.6-1.2-2-3.2c0.5-1.7,1.1-1.7-0.6-1.9c0-1.3,2.1-1.7,2.1-2.9
				c-1-1.4,0-2.1,0.6-3.3c0-1.9-0.1-2.1,0.9-3.9c0-2.1-1.7-4.2,0.3-5.6c1.2-2.4,2.8-4.7,2.7-7.4c1-1.5,0.4-2.9,0.4-4.7
				c0.7-1.8-0.1-2.9,0.9-4.4c0.9-3.6,1.2-6.3,1.2-9.8c0.2-1.8,1.4-2.2,0.6-4.2c0-2.8,1-4.3-1.9-5.9c-1-0.8-2.1-2.2-3.4-2.4
				c-2-0.9-5.6-2.5-6.7-4.4c-0.5-2.8-0.6-2.9-2.4-5c-0.9-3.3-3.3-6.4-5.2-9.3c-0.7-0.6-3.2-1.6-2-2.6c0-1.2-1.9-2.8,0.3-3.6
				c0.6-0.5,2.6-2.4,1.4-3c-3.7,0.5-0.6-3.3,0-4.7c0.2-2.9,2-1.1,3-3.2c0.2-2.1,0.9-1.1,2.1-2c0.3-0.5,0.6-0.9,0.9-1.3
				c0-2.4-1.3-13.4-5.8-9.1c-0.8,3.6-1.8,1.3-4.4,0.4c-2.7,0-2.7-2.4-5.2-2.8c-0.9-0.4-1.2-0.8-1.6-1.7c-0.3-4.2-6-5.7-9.5-6.2
				c-3.3-1.2-4.8-3.3-7.7-4.9c-1.3-0.4-2.2,0.4-3.3,1c-2.5,0.1-3.9-0.8-6-1.8c-3.1-0.4-5.2-2.3-8.1-2.9c-1.7-0.9-3.3-2.2-4.8-3.3
				c-0.8-1.2,1.2-3.6,0-4.1c-1.3-3-5-5-7.5-6.9c-0.3-0.8,0.1-1.4-0.4-2.1c-1.3-0.6-1.7-0.8-2.4-2c-2.6-1.3-3.9-2.9-4.9-5.7
				c-0.3-2.6-5.5-3.3-2.6,1c1,0.5,1.9,0.5,2.5,1.4c0.2,3.3,3.5,4.1,4.3,6.9c0.9,1.3,0.5,2.6,2.3,2.5c0.4,0.3,0.7,2.7,0.5,3
				c-1.3,0.3-1.8-0.9-2.5-1.7c-0.5-0.3-0.5-0.3-2.2-1.3c-0.8-0.9-0.3-2.2-1.3-3.2c-1.2-0.6-4.7-1.8-4.6-3.5c1.7-1.8,0.8-1.7-1.3-3.2
				c-1.2-1.4-2.7-3.7-2.9-5.6c-0.7-1-1.7-1.8-2.6-2.6c-2.6-1-7-2.1-7-5.5c0.2-0.5,0.9-1.8,0.1-2.2c-4.2,0-3.3-2.1-5.2-4.8
				c-0.2-1,0.1-2.1-0.1-3.1c-0.9-2.1-0.2-2,0.4-4c0.2-4,0.2-4,0.3-4.9c-0.5-1.5-1.4-4.4-3.3-4.5c-0.3-0.6-2.1-1.2-2.9-1.5
				c-1.6-2.1-1.5-4.8-4.5-5.5c-0.1-1.7,1-1.5-1.5-1.5c-2.1-0.9,0-2.5-3.1-3.1c-0.5-0.5-1.2-1.3-1.8-0.4c0.1,2.7-2.1,0.2-1.3-0.7
				c0-0.7-3.9-3.7-0.6-2.8c1.6,1.8,0.1-1.2-0.3-1.6c-2-1.1-2.6-0.7-4.8-0.7c-0.7,1.4-0.7-0.2-1.2-0.6c-1.8-0.2-2.8-0.7-4.2-1.8
				c-1-1.6-2.8-0.3-4.4-0.6c-2.7-1-5.4,0-8.1-1.3c-0.9,0-1.8,0.3-2.6,0.3c-1-2.2-3.6-1.7-5.2-0.5c-1,1.4-5.8,4.5-5.8,0.9
				c2.4-4.3-3.7,2.9-4.2,3.3c-1.5,0.6-2.9,1.4-4.4,1.9c-1.2,1.3-2.5,1.1-3.9,2.4c-0.7,0.3-2.8,0.1-2.9,1.1c0.4,0.6,0.3,1.6-0.4,0.8
				c0-2.2-1.2-0.2-2.2-0.2c-1-0.2-3.2,0.2-3.5,1.2c-0.8-1.4-3.7,1.2-3.3-0.3c2.4-1.4,4.7-2.5,7.5-2.5c0.1-0.1,0.2-0.1,0.3-0.2
				c1.5-2.4,4.8-0.7,5.5-4c1-1.4-3.5-0.6-4.1-0.7c-1.9-0.8-2.4-0.1-4.6-0.1c-0.6-1,1.3-2.6-0.2-3.6c-1.2,0-2,1.8-3.1,1
				c-0.2-2.2-0.4-1.8-2.7-1.9c-1-0.6-1-0.8-2.2-1c-0.5-0.5,3.2-3.6,4.1-3.6c1.3,0.5,2.6-0.3,4-0.5c2.3,0.3,2.3-2.2,1-2.2
				c-2.9,0.9-6.1,0.8-9.1,0.3c-1.4-0.5-1.3-1.4-2.8-1.7c-1.1-1.3,6.2-2.2,7.2-2.2c0.9,1,1.9,1.2,3.2,0.8c2.4-2.3-0.6-1.5-2.9-2
				c-1.7-1.4-3.1-1.5-5.4-1.9c-1.8-1.8,2.8-1.5,3.4-1.6c0.7-0.2,1.6-0.3,2.4-0.5c3.2-2.8,6.1-1.8,9.8-3c2.2-0.4,4-1.7,6.1-0.5
				c0.8-0.2,0.8-0.2,1.2-0.2c1.5,0.7,5-0.1,5.5,1.3c0.9,0.2,1.7,0.3,2.7,0.2c7.9,0,16.7,0.3,24.4,1.9c2.1,0.9,9.7,2.5,10.4,0.1
				c2-1.4,2.5-1,4.3-0.8c0.9-1.2,1.8-1,3.3-1c1.3,1.5,2.4-1,4.4-0.2c2.4,1.3,3.3,2.8,5.2,0.6c1.6,0.1,1.3,2,3.5,1
				c3.2-0.9,6.7,0.3,10.1,0.5c1.1,1.2,7.7,0.6,3.4,0.1c-1-0.4-1.5-0.9-1.4-2c-0.4-0.6-3.3-1.2-1.5-1.9c-0.1-0.6-3.1-0.8-1.2-1.6
				c0.4-0.3,0.8-0.6,1.2-0.9c0.2-0.6-4.5,0.8-4.7,1c-0.6,1.6-1.2,1.6-2.9,1.7c-3.2,1.3-3.5-0.2-5.9-1.1c-0.5-0.6-1.6-0.4-2.4-0.5
				c-0.4-0.8,1-1.3,1.5-1.8c3.9-0.6-0.9-3.2,2.3-2.9c2.2-0.3,4.6-0.4,6.9,0c1.7,1.8,8.1-1.2,10,1.6c-0.1,0.3,1.7,0.5,2,0.6
				c0.7,1.9,1.4,1,3.1,0.5c1.2,0,1.4,0.1,2.8,0.1c0.1,1.1,5.6,0.8,6.9,0.9c-0.1-0.7-0.4-2.5,0.7-2.5c1.2,0.9,0.7,1.2,2,0
				c1,0,5-0.6,4.1,1.2c-1.8,1.4,0.6,2.8,1.4,4.3c0.9,0.9,1.7,0.1,2.6,0.1c1.6,1,6.3,1.2,2.6,3.6c-0.6,0.7-1.3,2.5-1.5,0.2
				c-0.2,0.1-0.2,0.1-1.1,0.5c-1.3,0-7.3-0.4-3.2,1.1c2-0.1,3.2,0.5,5,0.7c1.8-0.8,3.6,0.6,2.6-2.1c0.1-2.2,2.1,0.8,0.9,1.3
				c0.2,1,6.7,1.7,4-0.5c-0.7-0.1-4.5-0.3-2.7-1.6c2.2-0.2,2.3-1.7,4.4-0.7c4.2,0-1.5-2.8,3.2-3.5c2.4-0.9-0.1-0.9-0.1-2.6
				c1.2-2.9,1.1-2.5,4.4-2.6c1.9,0.3,8.7-0.9,4.8,2c-2.1,0.9-2.6,1-4.8,0.9c-3.7,0-0.2,2.1,0.6,2.9c1.6,3.7,0.2,2.7,5.6,3.3
				c0.4,0.6,0.2,1.4,0.9,1.6c2.3-1.3,2.3-1,4.5,0.5c1.4,1.8,1-0.7,2.5,0.2c2.7,0.4,0.6-5.6-0.5-3.4c-2.7-0.3-6.2-0.4-7-3.6
				c2.1-3,5.9-5.2,9.9-3.9c0.9,1.1-3.2,1.2-2.4,3.3c0,2-0.9,2,2,2c1.6-0.5,0.4-1-0.6-1.3c-3.3-2.8,4.5-3.6,5.5-4
				c2,0.1,3.7,1.2,5,0.1c2.1,0,7-0.6,8,1.7c1.4,1.3,3.1,0.1,3.3,2.3c0.5,0.2,0.7,0,1.2,0c2.4,1.3,0.9,0.7,3,0.1c3.6,0-1,2.6,2.4,2.8
				c0.5-0.2,0.7-0.6,1-1c2.5-1.5,3.5,0.3,4.5,1.9c0,0,6.2,0.3,4.1,1.6c-3.7,0.7,1.4,1.4,2.2,1.6c2.8,0,4.2,1.3,6.6,2.2
				c4.9,0,1.5,1.8-0.9,2c-0.9,0.6-0.9,3.2-2.4,1.5c-1.3-2.9-1.2-1.2-4.2-1.7c-0.8-0.5-3.2-1.4-3.9-0.3c0.2,0.7,2,1.7,2.6,2.2
				c1.4,0.2,6.3,1.6,4.3,4.1c0.5,0.6,0.7,1.8-0.6,1.2c-0.2-0.8-0.2-0.6-0.8-0.2c-2,3.1-6.7-0.4-9.3-0.4c-3.5,1.2-4.5-4.1-7.9-3.1
				c-1.2,0-6.3-0.7-6.1,0.6c2.6,1.3-0.4,1-1.5,1.7c-0.6,0-2.8-0.2-1.8-1.2c2.4-0.5,0.3-4.3,3.5-3.5c0.2,0,5.9,0.5,5.1-0.8
				c-2.4-0.7,3.2-2.3,3.5-2.8c-0.2-0.4-0.5-0.7-0.7-1.2c-0.9-0.7-2.8,0.1-4,0.2c-0.3,0.3-1.2,1.6-1.8,1c0-1.4,2.2-3.3-1.2-2.6
				c-1.2,0-2.3-2.5-3.1-2c-0.3,1.7-2.4,1.1-2,0.2c-0.3-0.7-1.3-0.1-1.8,0.1c-0.8,0-4.3-1.3-4.1-0.3c1.8,0.7,1.4,2.1-0.3,2.5
				c-0.1,1.5,2.8,0.6,0.9,2.7c-1.7,0.6-2.5,1.6-3.9,2.6c-0.8,0.1-1.4-1.6-2-0.1c0.6,0.5,1.2,0.1,1.7,0.6c1.1,0.4,6.1,1.9,5.2,3.7
				c-2,0.2-2.3,0-4.1-0.7c-2.9,0-6.5,3.6-6.5-2c0.6-1.6,1.1-2.8,2.5-1.2c1.1-0.1-1.3-2.8-3.1-1.6c-0.2,0.5-0.5,0.9-0.7,1.4
				c0,2.4-2.4,4.3-4.7,2.9c-1.2,0-3.9,2-4.6,2.5c-0.5,0.2-0.5,0.2-2,0.5c-1.7,1.6-5.5,4.7-3.5,7c3.1,0.1,3.1-0.1,3.7,3
				c0.9,1.3,5.1-0.1,6.5-0.1c1.8,1.1,2.6,2.8,4.8,2.6c1,0.2,1.4,0.8,2.4,1.3c6.6,0.3,6.7-0.5,7.1,5.3c1.4,1.7,4.3,3.1,6.3,1.1
				c0.7-1.5,0.3-3.4-1.1-4.3c-0.3-0.5-0.3-0.7,0.2-1c3.3-0.3,7.6-2,5-5.7c-1.6-0.9-5.2-1.6-2.2-3.5c4.3-1.4-2.8-5.8,4-5.8
				c0.3,0.2,4.7,1.3,3.4,0.1c-0.1-0.9,0.9-0.9,0.8-0.1c2.8,0.5,4.9,2.2,7.7,2.5c0.9,0.2,2,0.3,2,1.3c-1.7,2.6,0.7,2.1,2.1,4.1
				c1.2,0,5.2-0.9,5.9-1.8c0-3.9,2.8-1.3,3.6,0.6c1.8,1,4,3.2,4,5.3c2.2,2.6,1.3,1.8,4.5,2.1c1.6,1,2.9,0,3.1,2
				c1.2,1.2,5.6,1.6,3.7,4.4c-0.9,0.5,0.6,0.5,0.7,1.7c1.3,2.1-1.5,0.3-1.4,1.6c0.6,0.6,1,1.7,1.8,1.7c1-0.7,3.3-1.4,3.2,0.5
				c-1,1-0.4,2.9,1.1,2c1.8,0,0.3,4.5-1.5,2.7c-1.5-2.9-1.7,0.9-3.7-0.7c-0.2-0.3-0.5-0.9-1-0.9c-0.9,0.6-5.9,0.6-6.7-0.3
				c-0.1-0.9,1.6-1.4,2.2-1.8c0.2-0.3,0.2-0.3,1-2.5c2.1-2.4,1.9-2.8-1.2-2.1c-2.7,2.6-5.4,1.4-9,2c-0.6,1.2,3.7,0.9,2,2.2
				c-1,0-4.2-0.1-3.2-1.7c0-1.7-5.8-1.2-6.6,0.4c-1.7,1.6,2.4,0.7,3.1,0.6c0.8,0.2,1.8,0.7,1.6,1.6c-1.2,0.8,0.3,1-0.8,1.8
				c0,0.3,0.9,2.2,1.1,2.5c1.7,0.3,3.2,1.4,5,0.5c0.6,0,0.8,0.3,1.3,0.5c1.2-0.1,2.6-1.5,2.8-0.1c-1.8,1.7-5.4,1.6-7.5,2.5
				c-2.1-0.2-2.5,2.9-4.7,1c-1.5-2,3-2.7,1.7-3.3c-1,0.9-1.9,0.9-3.2,0.9c-0.7,1.7-2.4,1.4-4,1.4c-2.2,1.8-3.9,1.8-4.4,4.7
				c-0.8,1.7-3.9,2.4-5.5,2.5c-0.9,0.6-0.6,3.2-2.2,3.1c-0.1-0.1-0.1-0.1-0.3-1.4c-0.9,0.2,0.3,4.7-1.6,4.6
				c-0.1-0.2-0.1-0.2-0.1-0.9c-0.6-1-2.9-1.8-1.5,0.5c0,1.6,1.8,1.3,0.5,2.7c-0.1,0.5,0.1,0.7,0.2,1.2c-1.4,0.5-0.1,1-0.6,1.7
				c-0.9,0.3-1.9,0.7-2.8,1.1c-4.3,3.7-8.9,4.4-5.4,10.3c0.4,1.3,2.5,6.2,0.2,7.2c-2.8,0-1.9-2.7-3.8-3.7c-1.2-1.5-0.2-2.5-0.9-3.9
				c-2.6-2.4-1.7-1.3-4.6-1.3c-2.1-1.6-5.4-0.9-7.9-0.9c-0.7,0.7,0,1.7-1.3,1.6c-1.6,0.7-2.2,0.6-3.5-0.5c-1.7,0-3.3-0.2-5-0.2
				c-1.9,1-4.3,2.4-6,3.7c-0.9,1.4-0.1,3.2-0.6,4.8c-1.9,3.2-1,7.5,1.5,10.1c0.7,1.3,0.7,1.3,0.9,1.7c2.1,2.5,9.1,1.7,10.6-1.2
				c0.3-4,4.3-3.6,7.5-3.6c1.3,0.9-0.5,2.6-1,3.5c0,2.5-0.7,4.8-2,7c0,1.2,0.9,0.6,1.6,0.4c1.5,0,2.4-1,4-1.2
				c0.3,1.6,3.3,1.5,4.7,2.8c0.6,1.5,0.6,1.7-0.2,3.1c-0.1,2.8-1,6.7,2.6,7.9c0.5,0.9,1.8,1,2.8,1c2.8-1.5,3.7-2.5,6.5,0.3
				c3.8,1.3,3.2-4.7,5.7-4.7c1.3-0.6,1.2-0.6,2.9-0.6c0.6-0.3,5-3.6,4-0.3c-2.6,1.2,1.6,1.6,1.6-0.6c0.8-1.4,1.1-2.1,1.5-0.1
				c0.7,1.2,2.1,0.7,3,1.6c1,1.6,3.3,0.6,5.1,1c3,2.4,1.5-2.5,3.6-0.6c2,0.5,3-1,3.1,1.3c1.6,1.2,1.6-2.4,2.7-0.7
				c0,1.6-0.5,1.1,0.5,2.4c0.6,2.3,4.3,1.5,4.7,4.5c0.7,1,3.2,2.2,4.6,2.3c1.7-0.7,2,0.5,3.6,0.5c0.9-0.8,0.6-0.5,1.5,0.1
				c3.4,0,5,3.2,5.4,5.9c1.2,1.9,1.9,1.7,1.8,4c-1.7,1.5,1,0.6,2,1c1.4,0.2,0.7,0.2,1.3,1.1c2.2,0.1,5.6,0.6,7.4,2.1
				c0.5,2,1,0.9,2.6,0.9c1.2,0.5,1.6,0.9,2.9,0.7c0.6,0.2,1,0.6,1.7,0.6c3.3-1.2,5.6,2.6,8.3,4c1.4,0.2,2.8-0.2,3.2,1.2
				c1.4,2.2,1.4,6.3-1.2,7.7c-1.6,2-2.9,3.8-4.4,5.8c-0.7,0.4-1.6,0.3-2.1,1c0.4,3.2,1.1,7.3-1.3,9.9c-0.1,0.3-0.1,0.3-0.2,2.2
				c-0.7,1.9-2.4,2.7-2.4,4.8c-0.7,0.9-1.4,1-2.1,2.2c-1.6,0.7-3.2-0.7-5.1,0.4c-1.6,1.7-3.1,1.6-5.1,2.5c-2,1.6-2.2,1.1-2.9,3.5
				c0.5,3.9-1.6,4.9-3.1,7.9c-1.3,0.7-2.2-1.4-2.2,0.9c-0.4,0.8-1.3,1-1.9,1.8c-0.5,2.5-2.5,5.2-5.1,6.3c-1.3,0-2.6,0-3.9,0
				c-0.2-0.1-2.6-1.4-2.5-0.3c1.6,1.5,1,0.7,1.1,2.4c0.3,0.2,1,0.6,1.2,0.8c0,4-4.9,4.4-8,5c-2.9,0-2.4,0.1-2.9,2.8
				c-1.7,2.6-3.5,0.7-5.8,0.9c-1.8,1.7,3.4,2.6-0.2,4.6c-2.2,2.1,0.5,2.7-3.5,3.4c-4.8,2.9,4.1,2.9,1.3,5.7c-1.6,0.5-2,0.9-3.2,2.1
				c-0.7,3-4.3,1.5-1.8,5.4c-0.2,0.5-2.8,0.7-1.7,1.2c2.9,0,1.8,1.4,4.3,2.5c1.3,1,2.7,1.1,4.3,1.2c2,1.3-3.6,0.5-3.7,2.5
				C1397.1,401,1397.1,401,1396.6,401L1396.6,401"/>
			<path id="path382_1_" class="st0" d="M1387.5,153.3c4.8,0.1,9.3,2,12.4,5.2c3.1,3.1,5.1,7.4,5.2,12.2c0,0.2,0,0.4,0,0.6
				c0,0.9-0.1,1.8-0.2,2.6c-0.1,0.2-0.1,0.3-0.1,0.5l-0.7,2.5c-0.1,0.2-0.2,0.4-0.2,0.5c-0.1,0.2-0.2,0.4-0.3,0.6c-0.5,1-1,2-1.7,3
				l-5.5,10.9l-7.7,15l-1.4,2.8l-1.4-2.8l-7.7-15l-5.5-10.9c-0.1-0.2-0.2-0.3-0.3-0.5c-0.1-0.2-0.2-0.4-0.3-0.6c-0.6-1-1-2-1.4-3.1
				l-0.6-2.2c-0.2-1-0.3-2-0.3-3.1c0-0.5,0-0.8,0-1.3c0.2-4.6,2.1-8.8,5.2-11.9c3.2-3.2,7.5-5.1,12.4-5.2
				C1387.3,153.3,1387.4,153.3,1387.5,153.3"/>
			<path id="path384_1_" class="st3" d="M1387.4,154.9c8.9,0,16.1,7.3,16.1,16.1c0,1.8-0.3,3.6-0.9,5.2l0,0l0,0
				c-0.5,1.4-1.2,2.8-2,4l-5.6,11l-7.7,15l-7.7-15l-5.6-11c-0.9-1.2-1.5-2.5-2-3.9v-0.1l0,0c-0.6-1.7-0.9-3.4-0.9-5.2
				C1371.3,162.1,1378.5,154.9,1387.4,154.9"/>
			<path id="path386_1_" class="st4" d="M1688.3,203.9c-3.4,0-6.1,2.7-6.1,6.1c0,3.4,2.7,6.1,6.1,6.1s6.1-2.7,6.1-6.1
				C1694.4,206.6,1691.7,203.9,1688.3,203.9z M1688.3,198c6.6,0,12,5.4,12,12c0,1.4-0.2,2.7-0.6,3.9l0,0l0,0c-0.3,1-0.9,2.1-1.5,2.9
				l-4.1,8.2l-5.7,11.1l-5.7-11.1l-4.2-8.2c-0.6-0.9-1.2-1.9-1.5-2.9v-0.1l0,0c-0.4-1.2-0.6-2.5-0.6-3.9
				C1676.3,203.4,1681.7,198,1688.3,198L1688.3,198"/>
			<path id="path388" class="st4" d="M1817.3,329.7c-3.4,0-6.1,2.8-6.1,6.1c0,3.4,2.7,6.1,6.1,6.1s6.1-2.7,6.1-6.1
				C1823.4,332.4,1820.7,329.7,1817.3,329.7z M1817.3,323.8c6.6,0,12,5.4,12,12c0,1.4-0.2,2.7-0.6,3.9l0,0l0,0
				c-0.3,1-0.9,2.1-1.5,2.9l-4.1,8.2l-5.7,11.1l-5.7-11.1l-4.2-8.2c-0.6-0.9-1.2-1.9-1.5-2.9v-0.1l0,0c-0.4-1.2-0.6-2.5-0.6-3.9
				C1805.3,329.2,1810.7,323.8,1817.3,323.8L1817.3,323.8"/>
			<path id="path390" class="st4" d="M1570.1,248c-3.4,0-6.1,2.7-6.1,6.1c0,3.4,2.7,6.1,6.1,6.1c3.4,0,6.1-2.7,6.1-6.1
				C1576.2,250.8,1573.4,248,1570.1,248z M1570.1,242.2c6.6,0,12,5.4,12,12c0,1.4-0.2,2.7-0.6,3.9l0,0l0,0c-0.3,1-0.9,2.1-1.5,2.9
				l-4.1,8.2l-5.7,11.1l-5.7-11.1l-4.2-8.2c-0.6-0.9-1.2-1.9-1.5-2.9v-0.1l0,0c-0.4-1.2-0.6-2.5-0.6-3.9
				C1558,247.5,1563.4,242.2,1570.1,242.2L1570.1,242.2"/>
			<path id="path392" class="st4" d="M1428.1,308c-3.4,0-6.1,2.8-6.1,6.1c0,3.3,2.7,6.1,6.1,6.1s6.1-2.7,6.1-6.1
				S1431.5,308,1428.1,308z M1428.1,302c6.6,0,12,5.4,12,12c0,1.4-0.2,2.7-0.6,3.9l0,0l0,0c-0.3,1-0.9,2.1-1.5,2.9l-4.1,8.2
				l-5.7,11.1l-5.7-11.1l-4.2-8.2c-0.6-0.9-1.2-1.9-1.5-2.9v-0.1l0,0c-0.4-1.2-0.6-2.5-0.6-3.9C1416.2,307.5,1421.5,302,1428.1,302
				L1428.1,302"/>
			<path id="path394" class="st4" d="M1340.7,188.2c-3.4,0-6.1,2.7-6.1,6.1s2.7,6.1,6.1,6.1s6.1-2.7,6.1-6.1
				S1344,188.2,1340.7,188.2z M1340.7,182.2c6.6,0,12,5.4,12,12c0,1.4-0.2,2.7-0.6,3.9l0,0l0,0c-0.3,1-0.9,2.1-1.5,2.9l-4.1,8.2
				l-5.7,11.1l-5.7-11.1l-4.2-8.2c-0.6-0.9-1.2-1.9-1.5-2.9v-0.1l0,0c-0.4-1.2-0.6-2.5-0.6-3.9
				C1328.7,187.6,1334,182.2,1340.7,182.2L1340.7,182.2"/>
			<path id="path396" class="st4" d="M1387.4,161.7c5.2,0,9.3,4.2,9.3,9.3s-4.2,9.3-9.3,9.3c-5.2,0-9.3-4.2-9.3-9.3
				S1382.2,161.7,1387.4,161.7"/>
			<path id="path398" class="st3" d="M1387.4,163.9c3.9,0,7.1,3.2,7.1,7.1c0,3.9-3.2,7.1-7.1,7.1s-7.1-3.2-7.1-7.1
				C1380.3,167.1,1383.5,163.9,1387.4,163.9"/>
			<path id="path400" class="st5" d="M1360.9,231.9L1360.9,231.9L1360.9,231.9c14.3-12.7,30.1-23.8,47.1-33.4
				c17-9.6,35.2-17.5,54.2-23.6c97.9-31.4,217.9-15.1,311,73l-0.6,0.6c-92.8-87.9-212.5-104.2-310.2-72.8c-19,6.1-37.1,14-54.1,23.5
				c-17,9.6-32.8,20.7-46.9,33.3l0,0L1360.9,231.9"/>
			<path id="path402" class="st5" d="M1516.3,230.7c18.7-26.7,43.4-47.4,70.6-60.1c21.4-9.9,44.2-14.9,66.7-13.8
				c22.6,1.1,44.9,8.2,65.1,22.3c21.1,14.8,40,37.3,54.6,68.7l-0.7,0.3c-14.5-31.3-33.3-53.7-54.4-68.4
				c-20.1-14-42.2-21.1-64.7-22.2c-22.4-1.1-45.1,3.9-66.3,13.7c-27.1,12.6-51.7,33.2-70.3,59.8L1516.3,230.7"/>
			<path id="path404_1_" class="st5" d="M1299.9,183.1c9-6.6,18.3-12.4,27.7-17.6c47.4-25.9,99.3-33.7,148-23.2
				c48.8,10.5,94.4,39.6,129.3,87.5c7,9.6,13.5,19.9,19.5,31l-0.7,0.4c-6-11.1-12.6-21.4-19.5-30.9c-34.8-47.8-80.2-76.6-128.8-87.2
				c-48.6-10.5-100.3-2.6-147.5,23.1c-9.4,5.1-18.6,10.9-27.6,17.5L1299.9,183.1"/>
			<path id="path406_1_" class="st2" d="M1245.6,234.5h2.9v3.2h3v1.4v1.3v9.6h1.2v-7.3h16.9v6h11.3l-0.7,1.5c-2.5,0.9-6,3.4-8.5,6.3
				c-0.7,0.9-1.4,1.8-2,2.6h-30.2l-1.7-2.6l-3.2-5.2V250h4.3v-10.5h4.2l1.4-2.8l0.7-1.3L1245.6,234.5"/>
			<path id="path408_1_" class="st6" d="M1508.9,312.1h2.9v3.2h3v1.4v1.3v9.6h1.2v-7.3h16.9v6h11.3l-0.7,1.5c-2.5,0.9-6,3.4-8.5,6.3
				c-0.7,0.9-1.4,1.8-2,2.6h-30.2l-1.7-2.6l-3.2-5.2v-1.3h4.3v-10.5h4.2l1.4-2.8l0.7-1.3L1508.9,312.1"/>
			<path id="path410_1_" class="st6" d="M1827.5,236.6h2.9v3.2h3v1.4v1.3v9.6h1.2v-7.3h16.9v6h11.3l-0.7,1.5c-2.5,0.9-6,3.4-8.5,6.3
				c-0.7,0.9-1.4,1.8-2,2.6h-30.2l-1.7-2.6l-3.2-5.2v-1.3h4.3v-10.5h4.2l1.4-2.8l0.7-1.3L1827.5,236.6"/>
			<path id="path412_1_" class="st2" d="M1334.8,324l16-0.5c2.7-0.1,6.1,0,8.3,0.9c0.2,0.1,0.3,0.1,0.5,0.2c0.1,0.1,0.2,0.1,0.3,0.1
				c0.3,0.2,0.6,0.3,0.9,0.5c1.1,0.7,2.2,1.6,3.4,2.2c0.1,0.1,0.2,0.1,0.3,0.2h0.1c1.7,0.7,1.9,1.6,1.3,2.5
				c-0.2,0.2-0.5,0.5-0.7,0.7c-2.7,1.9-7.4,1.8-11.1,1.7c-3.7-0.1-7.5,0.1-11.2-0.2c-2.8-0.2-5.9-0.8-8.6-1.9
				c-2.2-0.9-4.2-2-5.8-3.4l-1.8-5l-0.9-2.6l-0.3-0.9l2.6-0.1c1.8-0.1,2.5,0.5,2.9,1c0.1,0.1,0.2,0.2,0.2,0.2l2.1,2.3L1334.8,324"/>
			<path id="path414_1_" class="st6" d="M1456.8,198.1l16-0.5c2.7-0.1,6.1,0,8.3,0.9c0.2,0.1,0.3,0.1,0.5,0.2
				c0.1,0.1,0.2,0.1,0.3,0.1c0.3,0.2,0.6,0.3,0.9,0.5c1.1,0.7,2.2,1.6,3.4,2.2c0.1,0.1,0.2,0.1,0.3,0.2h0.1c1.7,0.7,1.9,1.6,1.3,2.5
				c-0.2,0.2-0.5,0.5-0.7,0.7c-2.7,1.9-7.4,1.8-11.1,1.7c-3.7-0.1-7.5,0.1-11.2-0.2c-2.8-0.2-5.9-0.8-8.6-1.9
				c-2.2-0.9-4.2-2-5.8-3.4l-1.8-5l-0.9-2.6l-0.3-0.9l2.6-0.1c1.8-0.1,2.5,0.5,2.9,1c0.1,0.1,0.2,0.2,0.2,0.2l2.1,2.3L1456.8,198.1"
				/>
			<path id="path416_1_" class="st7" d="M1300.2,185.8c1.3,0,2.5-1.1,2.5-2.5s-1.1-2.5-2.5-2.5c-1.4,0-2.5,1.1-2.5,2.5
				C1297.7,184.7,1298.8,185.8,1300.2,185.8"/>
			<path id="path418_1_" class="st7" d="M1361.2,234.6c1.4,0,2.5-1.1,2.5-2.5s-1.1-2.5-2.5-2.5c-1.4,0-2.5,1.1-2.5,2.5
				C1358.7,233.5,1359.8,234.6,1361.2,234.6"/>
			<path id="path420_1_" class="st7" d="M1516.7,233.4c1.4,0,2.5-1.1,2.5-2.5s-1.1-2.5-2.5-2.5c-1.4,0-2.5,1.1-2.5,2.5
				S1515.3,233.4,1516.7,233.4"/>
			<path id="path422_1_" class="st7" d="M1624,263.4c1.4,0,2.5-1.1,2.5-2.5s-1.1-2.5-2.5-2.5c-1.4,0-2.5,1.1-2.5,2.5
				C1621.6,262.2,1622.7,263.4,1624,263.4"/>
			<path id="path424_1_" class="st7" d="M1773,250.6c1.4,0,2.5-1.1,2.5-2.5s-1.1-2.5-2.5-2.5c-1.4,0-2.5,1.1-2.5,2.5
				C1770.6,249.5,1771.7,250.6,1773,250.6"/>
		</g>
		<g>
			<g>
				<g>
					<g>
						<path class="st8" d="M1359.4,375.9c0,0,5.1-2.9,10,9.6c5,12.6,6.6,19.7,6.6,19.7s1.4,2.6,3.1,1.2c1.8-1.5,4.4-6,7.1-4.9
							c2.8,1.1,3.6,4.6,2.6,9.6c-0.9,5-2.6,15.9-2.7,16.9c-0.1,1,0.3,2.5,1.7,1.6c1.4-0.9,9.5-8.9,12.9-4.7
							c3.5,4.3-1.3,17.7-1.8,19.2c-0.5,1.4-0.3,2.1,0.4,2.5c0.6,0.4,3.1-2.5,5.5-4.7c2.4-2.2,5.5-4.3,7.3-1.7s1.7,13-8.9,28.9
							l-5.4,7.1l-8.5-1.2c-18.1-3.7-25-11.1-25.4-14.3c-0.5-3.2,3.2-4,6.4-4.1c3.2-0.2,7,0.2,7.1-0.6c0.2-0.8-0.1-1.4-1.4-2.1
							c-1.3-0.7-13.6-6.9-14-12.4c-0.3-5.5,10.8-5.6,12.4-6.1s0.9-1.8,0.1-2.4s-9.2-7.3-13.2-10.2c-4-2.9-5.8-5.9-4.4-8.8
							c1.3-2.8,6.1-1.4,8.4-1.7c2.3-0.2,1.5-3.1,1.5-3.1s-3.5-6.4-8.2-19c-4.7-12.6,1-14.2,1-14.2"/>
					</g>
				</g>
			</g>
			<g>
				<g>
					<g>
						<g>
							<path class="st9" d="M1397.6,474.2c-3.5-9.3-8.5-22-13.9-36c-5.5-14-10.5-26.8-14-36c-1.8-4.6-3.2-8.3-4.2-10.9
								c-0.5-1.3-0.9-2.2-1.2-2.9c-0.1-0.3-0.2-0.6-0.3-0.7c-0.1-0.2-0.1-0.2-0.1-0.2s0,0.1,0.1,0.3s0.2,0.5,0.3,0.8
								c0.2,0.7,0.6,1.7,1.1,3c1,2.6,2.4,6.4,4.1,11c3.5,9.3,8.5,22,13.9,36c5.5,14,10.5,26.8,14,36"/>
						</g>
					</g>
				</g>
			</g>
			<g>
				<g>
					<g>
						<g>
							<path class="st9" d="M1382.9,407.8c0,0-0.1,0.2-0.3,0.6c-0.2,0.4-0.3,0.9-0.6,1.7c-0.5,1.4-1.2,3.3-1.8,5.5
								c-0.6,2.1-1.2,4-1.7,5.5c-0.2,0.6-0.4,1.2-0.5,1.7c-0.1,0.4-0.2,0.6-0.2,0.6s0.1-0.2,0.3-0.6s0.3-0.9,0.6-1.7
								c0.5-1.4,1.1-3.3,1.8-5.5c0.6-2.1,1.3-4,1.7-5.5c0.2-0.6,0.4-1.2,0.5-1.7C1382.9,408.1,1382.9,407.8,1382.9,407.8z"/>
						</g>
					</g>
				</g>
			</g>
			<g>
				<g>
					<g>
						<g>
							<path class="st9" d="M1377.1,423.6c0-0.1-3.7-1.6-8.5-3.5c-4.7-1.8-8.5-3.3-8.6-3.2c0,0.1,3.7,1.6,8.5,3.5
								C1373.2,422.3,1377,423.7,1377.1,423.6z"/>
						</g>
					</g>
				</g>
			</g>
			<g>
				<g>
					<g>
						<g>
							<path class="st9" d="M1386.4,444.8c0,0-0.2-0.1-0.6-0.1c-0.5-0.1-1-0.1-1.7-0.1c-1.4-0.1-3.5-0.3-5.6-0.6
								c-2.2-0.3-4.2-0.6-5.6-0.8c-0.7-0.1-1.2-0.2-1.7-0.3c-0.4-0.1-0.6-0.1-0.6-0.1c0,0,0.2,0.1,0.6,0.2c0.4,0.1,1,0.2,1.7,0.3
								c1.4,0.3,3.4,0.6,5.6,0.9c2.2,0.3,4.2,0.4,5.7,0.5c0.7,0,1.3,0.1,1.7,0.1C1386.2,444.8,1386.4,444.8,1386.4,444.8z"/>
						</g>
					</g>
				</g>
			</g>
			<g>
				<g>
					<g>
						<g>
							<path class="st9" d="M1394.7,431.7c0,0-0.2,0.2-0.4,0.5c-0.2,0.3-0.6,0.7-0.9,1.3c-0.8,1.2-1.8,2.8-3,4.5
								c-1.2,1.8-2.2,3.4-2.9,4.5c-0.3,0.6-0.7,1.1-0.9,1.4c-0.2,0.3-0.3,0.5-0.3,0.5s0.2-0.2,0.4-0.5c0.2-0.3,0.6-0.7,0.9-1.3
								c0.8-1.2,1.8-2.8,3-4.5c1.2-1.8,2.2-3.4,2.9-4.5c0.3-0.6,0.7-1.1,0.9-1.4C1394.6,431.9,1394.7,431.7,1394.7,431.7z"/>
						</g>
					</g>
				</g>
			</g>
			<g>
				<g>
					<g>
						<g>
							<path class="st9" d="M1405.3,449.3c0,0-0.2,0.2-0.5,0.6c-0.3,0.5-0.7,1-1.2,1.7c-1,1.4-2.4,3.5-3.9,5.8
								c-1.5,2.2-2.9,4.3-3.8,5.9c-0.5,0.7-0.8,1.3-1.2,1.8c-0.3,0.4-0.4,0.7-0.4,0.7s0.2-0.2,0.5-0.6c0.3-0.5,0.7-1,1.2-1.7
								c1-1.4,2.4-3.5,3.9-5.8c1.5-2.2,2.9-4.3,3.8-5.9c0.5-0.7,0.8-1.3,1.2-1.8C1405.1,449.6,1405.3,449.4,1405.3,449.3z"/>
						</g>
					</g>
				</g>
			</g>
			<g>
				<g>
					<g>
						<g>
							<path class="st9" d="M1394.5,465.3c0,0-0.3-0.1-0.8-0.1c-0.6-0.1-1.3-0.2-2.2-0.2c-1.8-0.2-4.4-0.5-7.1-1
								c-2.8-0.4-5.3-0.9-7.1-1.2c-0.9-0.2-1.6-0.3-2.1-0.4c-0.5-0.1-0.8-0.1-0.8-0.1s0.3,0.1,0.7,0.2c0.5,0.1,1.2,0.3,2.1,0.5
								c1.8,0.4,4.3,0.9,7.1,1.3c2.8,0.4,5.4,0.7,7.2,0.9c0.9,0.1,1.7,0.1,2.2,0.2C1394.2,465.3,1394.5,465.3,1394.5,465.3z"/>
						</g>
					</g>
				</g>
			</g>
		</g>
		<g class="st10">
			<g>
				<g>
					<g>
						<path class="st11" d="M1382.6,364.3c0,0.1,0.7,0.2,1.6,0.2c0.9,0,1.6-0.1,1.6-0.2c0-0.1-0.7-0.2-1.6-0.2
							C1383.3,364.1,1382.6,364.2,1382.6,364.3z"/>
					</g>
				</g>
			</g>
			<g>
				<g>
					<g>
						<path class="st11" d="M1376.1,364.3c0,0.1,0.7,0.2,1.6,0.2c0.9,0,1.6-0.1,1.6-0.2c0-0.1-0.7-0.2-1.6-0.2
							C1376.8,364.1,1376.1,364.2,1376.1,364.3z"/>
					</g>
				</g>
			</g>
			<g>
				<g>
					<g>
						<path class="st11" d="M1369.6,364.3c0,0.1,0.7,0.2,1.6,0.2c0.9,0,1.6-0.1,1.6-0.2c0-0.1-0.7-0.2-1.6-0.2
							S1369.6,364.2,1369.6,364.3z"/>
					</g>
				</g>
			</g>
			<g>
				<g>
					<g>
						<path class="st11" d="M1363.1,364.3c0,0.1,0.7,0.2,1.6,0.2c0.9,0,1.6-0.1,1.6-0.2c0-0.1-0.7-0.2-1.6-0.2
							C1363.9,364.1,1363.1,364.2,1363.1,364.3z"/>
					</g>
				</g>
			</g>
			<g>
				<g>
					<g>
						<path class="st11" d="M1356.6,364.3c0,0.1,0.7,0.2,1.6,0.2c0.9,0,1.6-0.1,1.6-0.2c0-0.1-0.7-0.2-1.6-0.2
							S1356.6,364.2,1356.6,364.3z"/>
					</g>
				</g>
			</g>
			<g>
				<g>
					<g>
						<path class="st11" d="M1350.1,364.3c0,0.1,0.7,0.2,1.6,0.2c0.9,0,1.6-0.1,1.6-0.2c0-0.1-0.7-0.2-1.6-0.2
							C1350.8,364.1,1350.1,364.2,1350.1,364.3z"/>
					</g>
				</g>
			</g>
			<g>
				<g>
					<g>
						<path class="st11" d="M1343.6,364.3c0,0.1,0.7,0.2,1.6,0.2c0.9,0,1.6-0.1,1.6-0.2c0-0.1-0.7-0.2-1.6-0.2
							S1343.6,364.2,1343.6,364.3z"/>
					</g>
				</g>
			</g>
			<g>
				<g>
					<g>
						<path class="st11" d="M1337.1,364.3c0,0.1,0.7,0.2,1.6,0.2c0.9,0,1.6-0.1,1.6-0.2c0-0.1-0.7-0.2-1.6-0.2
							S1337.1,364.2,1337.1,364.3z"/>
					</g>
				</g>
			</g>
			<g>
				<g>
					<g>
						<path class="st11" d="M1330.7,364.3c0,0.1,0.7,0.2,1.6,0.2c0.9,0,1.6-0.1,1.6-0.2c0-0.1-0.7-0.2-1.6-0.2
							C1331.4,364.1,1330.7,364.2,1330.7,364.3z"/>
					</g>
				</g>
			</g>
			<g>
				<g>
					<g>
						<path class="st11" d="M1324.2,364.3c0,0.1,0.7,0.2,1.6,0.2c0.9,0,1.6-0.1,1.6-0.2c0-0.1-0.7-0.2-1.6-0.2
							C1324.9,364.1,1324.2,364.2,1324.2,364.3z"/>
					</g>
				</g>
			</g>
			<g>
				<g>
					<g>
						<path class="st11" d="M1317.7,364.3c0,0.1,0.7,0.2,1.6,0.2c0.9,0,1.6-0.1,1.6-0.2c0-0.1-0.7-0.2-1.6-0.2
							C1318.4,364.1,1317.7,364.2,1317.7,364.3z"/>
					</g>
				</g>
			</g>
			<g>
				<g>
					<g>
						<path class="st11" d="M1311.2,364.3c0,0.1,0.7,0.2,1.6,0.2c0.9,0,1.6-0.1,1.6-0.2c0-0.1-0.7-0.2-1.6-0.2
							C1311.9,364.1,1311.2,364.2,1311.2,364.3z"/>
					</g>
				</g>
			</g>
			<g>
				<g>
					<g>
						<path class="st11" d="M1304.7,364.3c0,0.1,0.7,0.2,1.6,0.2c0.9,0,1.6-0.1,1.6-0.2c0-0.1-0.7-0.2-1.6-0.2
							C1305.4,364.1,1304.7,364.2,1304.7,364.3z"/>
					</g>
				</g>
			</g>
			<g>
				<g>
					<g>
						<path class="st11" d="M1298.2,364.3c0,0.1,0.7,0.2,1.6,0.2c0.9,0,1.6-0.1,1.6-0.2c0-0.1-0.7-0.2-1.6-0.2
							S1298.2,364.2,1298.2,364.3z"/>
					</g>
				</g>
			</g>
			<g>
				<g>
					<g>
						<path class="st11" d="M1291.7,364.3c0,0.1,0.7,0.2,1.6,0.2c0.9,0,1.6-0.1,1.6-0.2c0-0.1-0.7-0.2-1.6-0.2
							C1292.5,364.1,1291.7,364.2,1291.7,364.3z"/>
					</g>
				</g>
			</g>
			<g>
				<g>
					<g>
						<path class="st11" d="M1285.2,364.3c0,0.1,0.7,0.2,1.6,0.2c0.9,0,1.6-0.1,1.6-0.2c0-0.1-0.7-0.2-1.6-0.2
							S1285.2,364.2,1285.2,364.3z"/>
					</g>
				</g>
			</g>
			<g>
				<g>
					<g>
						<path class="st11" d="M1278.7,364.3c0,0.1,0.7,0.2,1.6,0.2c0.9,0,1.6-0.1,1.6-0.2c0-0.1-0.7-0.2-1.6-0.2
							C1279.5,364.1,1278.7,364.2,1278.7,364.3z"/>
					</g>
				</g>
			</g>
			<g>
				<g>
					<g>
						<path class="st11" d="M1272.2,364.3c0,0.1,0.7,0.2,1.6,0.2c0.9,0,1.6-0.1,1.6-0.2c0-0.1-0.7-0.2-1.6-0.2
							S1272.2,364.2,1272.2,364.3z"/>
					</g>
				</g>
			</g>
			<g>
				<g>
					<g>
						<path class="st11" d="M1265.7,364.3c0,0.1,0.7,0.2,1.6,0.2c0.9,0,1.6-0.1,1.6-0.2c0-0.1-0.7-0.2-1.6-0.2
							C1266.5,364.1,1265.7,364.2,1265.7,364.3z"/>
					</g>
				</g>
			</g>
			<g>
				<g>
					<g>
						<path class="st11" d="M1259.3,364.3c0,0.1,0.7,0.2,1.6,0.2c0.9,0,1.6-0.1,1.6-0.2c0-0.1-0.7-0.2-1.6-0.2
							C1260,364.1,1259.3,364.2,1259.3,364.3z"/>
					</g>
				</g>
			</g>
			<g>
				<g>
					<g>
						<path class="st11" d="M1252.8,364.3c0,0.1,0.7,0.2,1.6,0.2c0.9,0,1.6-0.1,1.6-0.2c0-0.1-0.7-0.2-1.6-0.2
							C1253.5,364.1,1252.8,364.2,1252.8,364.3z"/>
					</g>
				</g>
			</g>
			<g>
				<g>
					<g>
						<path class="st11" d="M1246.3,364.3c0,0.1,0.7,0.2,1.6,0.2c0.9,0,1.6-0.1,1.6-0.2c0-0.1-0.7-0.2-1.6-0.2
							C1247,364.1,1246.3,364.2,1246.3,364.3z"/>
					</g>
				</g>
			</g>
			<g>
				<g>
					<g>
						<path class="st11" d="M1239.8,364.3c0,0.1,0.7,0.2,1.6,0.2c0.9,0,1.6-0.1,1.6-0.2c0-0.1-0.7-0.2-1.6-0.2
							C1240.5,364.1,1239.8,364.2,1239.8,364.3z"/>
					</g>
				</g>
			</g>
			<g>
				<g>
					<g>
						<path class="st11" d="M1238.2,369.4c0.1,0,0.2-0.7,0.2-1.7c0-0.9-0.1-1.7-0.2-1.7s-0.2,0.7-0.2,1.7
							C1238,368.6,1238.1,369.4,1238.2,369.4z"/>
					</g>
				</g>
			</g>
			<g>
				<g>
					<g>
						<path class="st11" d="M1238.2,376.2c0.1,0,0.2-0.7,0.2-1.7c0-0.9-0.1-1.7-0.2-1.7s-0.2,0.7-0.2,1.7
							C1238,375.4,1238.1,376.2,1238.2,376.2z"/>
					</g>
				</g>
			</g>
			<g>
				<g>
					<g>
						<path class="st11" d="M1238.2,383c0.1,0,0.2-0.7,0.2-1.7c0-0.9-0.1-1.7-0.2-1.7s-0.2,0.7-0.2,1.7
							C1238,382.2,1238.1,383,1238.2,383z"/>
					</g>
				</g>
			</g>
			<g>
				<g>
					<g>
						<path class="st11" d="M1238.2,389.9c0.1,0,0.2-0.7,0.2-1.7c0-0.9-0.1-1.7-0.2-1.7s-0.2,0.7-0.2,1.7
							C1238,389.1,1238.1,389.9,1238.2,389.9z"/>
					</g>
				</g>
			</g>
			<g>
				<g>
					<g>
						<path class="st11" d="M1238.2,396.7c0.1,0,0.2-0.7,0.2-1.7c0-0.9-0.1-1.7-0.2-1.7s-0.2,0.7-0.2,1.7
							C1238,395.8,1238.1,396.7,1238.2,396.7z"/>
					</g>
				</g>
			</g>
			<g>
				<g>
					<g>
						<path class="st11" d="M1236.9,402.2c0,0.1,0.5,0.2,1.3,0.2h0.2v-0.2c0-0.1,0-0.2,0-0.3c0-0.9-0.1-1.7-0.2-1.7
							c-0.1,0-0.2,0.7-0.2,1.7c0,0.1,0,0.2,0,0.3l0.2-0.2C1237.4,402,1236.9,402.1,1236.9,402.2z"/>
					</g>
				</g>
			</g>
			<g>
				<g>
					<g>
						<path class="st11" d="M1230.4,402.2c0,0.1,0.7,0.2,1.6,0.2c0.9,0,1.6-0.1,1.6-0.2c0-0.1-0.7-0.2-1.6-0.2
							C1231.1,402,1230.4,402.1,1230.4,402.2z"/>
					</g>
				</g>
			</g>
			<g>
				<g>
					<g>
						<path class="st11" d="M1223.9,402.2c0,0.1,0.7,0.2,1.6,0.2c0.9,0,1.6-0.1,1.6-0.2c0-0.1-0.7-0.2-1.6-0.2
							S1223.9,402.1,1223.9,402.2z"/>
					</g>
				</g>
			</g>
			<g>
				<g>
					<g>
						<path class="st11" d="M1217.4,402.2c0,0.1,0.7,0.2,1.6,0.2c0.9,0,1.6-0.1,1.6-0.2c0-0.1-0.7-0.2-1.6-0.2
							C1218.1,402,1217.4,402.1,1217.4,402.2z"/>
					</g>
				</g>
			</g>
			<g>
				<g>
					<g>
						<path class="st11" d="M1210.9,402.2c0,0.1,0.7,0.2,1.6,0.2c0.9,0,1.6-0.1,1.6-0.2c0-0.1-0.7-0.2-1.6-0.2
							S1210.9,402.1,1210.9,402.2z"/>
					</g>
				</g>
			</g>
			<g>
				<g>
					<g>
						<path class="st11" d="M1204.4,402.2c0,0.1,0.7,0.2,1.6,0.2c0.9,0,1.6-0.1,1.6-0.2c0-0.1-0.7-0.2-1.6-0.2
							C1205.2,402,1204.4,402.1,1204.4,402.2z"/>
					</g>
				</g>
			</g>
			<g>
				<g>
					<g>
						<path class="st11" d="M1197.9,402.2c0,0.1,0.7,0.2,1.6,0.2c0.9,0,1.6-0.1,1.6-0.2c0-0.1-0.7-0.2-1.6-0.2
							C1198.7,402,1197.9,402.1,1197.9,402.2z"/>
					</g>
				</g>
			</g>
			<g>
				<g>
					<g>
						<path class="st11" d="M1191.5,402.2c0,0.1,0.7,0.2,1.6,0.2c0.9,0,1.6-0.1,1.6-0.2c0-0.1-0.7-0.2-1.6-0.2
							C1192.2,402,1191.5,402.1,1191.5,402.2z"/>
					</g>
				</g>
			</g>
			<g>
				<g>
					<g>
						<path class="st11" d="M1185,402.2c0,0.1,0.7,0.2,1.6,0.2c0.9,0,1.6-0.1,1.6-0.2c0-0.1-0.7-0.2-1.6-0.2
							C1185.7,402,1185,402.1,1185,402.2z"/>
					</g>
				</g>
			</g>
			<g>
				<g>
					<g>
						<path class="st11" d="M1182.4,406.3c0.1,0,0.2-0.7,0.2-1.7c0-0.9-0.1-1.7-0.2-1.7s-0.2,0.7-0.2,1.7
							C1182.3,405.5,1182.3,406.3,1182.4,406.3z"/>
					</g>
				</g>
			</g>
			<g>
				<g>
					<g>
						<path class="st11" d="M1182.4,413.2c0.1,0,0.2-0.7,0.2-1.7c0-0.9-0.1-1.7-0.2-1.7s-0.2,0.7-0.2,1.7
							C1182.3,412.4,1182.3,413.2,1182.4,413.2z"/>
					</g>
				</g>
			</g>
			<g>
				<g>
					<g>
						<path class="st11" d="M1182.4,420c0.1,0,0.2-0.7,0.2-1.7c0-0.9-0.1-1.7-0.2-1.7s-0.2,0.7-0.2,1.7
							C1182.3,419.2,1182.3,420,1182.4,420z"/>
					</g>
				</g>
			</g>
			<g>
				<g>
					<g>
						<path class="st11" d="M1182.4,426.8c0.1,0,0.2-0.7,0.2-1.7c0-0.9-0.1-1.7-0.2-1.7s-0.2,0.7-0.2,1.7
							C1182.3,426,1182.3,426.8,1182.4,426.8z"/>
					</g>
				</g>
			</g>
			<g>
				<g>
					<g>
						<path class="st11" d="M1182.4,433.7c0.1,0,0.2-0.7,0.2-1.7c0-0.9-0.1-1.7-0.2-1.7s-0.2,0.7-0.2,1.7
							C1182.3,432.9,1182.3,433.7,1182.4,433.7z"/>
					</g>
				</g>
			</g>
			<g>
				<g>
					<g>
						<path class="st11" d="M1182.4,440.5c0.1,0,0.2-0.7,0.2-1.7c0-0.9-0.1-1.7-0.2-1.7s-0.2,0.7-0.2,1.7
							C1182.3,439.7,1182.3,440.5,1182.4,440.5z"/>
					</g>
				</g>
			</g>
			<g>
				<g>
					<g>
						<path class="st11" d="M1182.4,447.3c0.1,0,0.2-0.7,0.2-1.7c0-0.9-0.1-1.7-0.2-1.7s-0.2,0.7-0.2,1.7
							C1182.3,446.6,1182.3,447.3,1182.4,447.3z"/>
					</g>
				</g>
			</g>
			<g>
				<g>
					<g>
						<path class="st11" d="M1182.4,454.1c0.1,0,0.2-0.7,0.2-1.7c0-0.9-0.1-1.7-0.2-1.7s-0.2,0.7-0.2,1.7
							C1182.3,453.4,1182.3,454.1,1182.4,454.1z"/>
					</g>
				</g>
			</g>
			<g>
				<g>
					<g>
						<path class="st11" d="M1182.4,461c0.1,0,0.2-0.7,0.2-1.7c0-0.9-0.1-1.7-0.2-1.7s-0.2,0.7-0.2,1.7
							C1182.3,460.2,1182.3,461,1182.4,461z"/>
					</g>
				</g>
			</g>
			<g>
				<g>
					<g>
						<path class="st11" d="M1182.4,467.8c0.1,0,0.2-0.7,0.2-1.7c0-0.9-0.1-1.7-0.2-1.7s-0.2,0.7-0.2,1.7
							C1182.3,467.1,1182.3,467.8,1182.4,467.8z"/>
					</g>
				</g>
			</g>
			<g>
				<g>
					<g>
						<path class="st11" d="M1182.4,474.6c0.1,0,0.2-0.7,0.2-1.7c0-0.9-0.1-1.7-0.2-1.7s-0.2,0.7-0.2,1.7
							C1182.3,473.9,1182.3,474.6,1182.4,474.6z"/>
					</g>
				</g>
			</g>
		</g>
		<g>
			<g>
				<g>
					<path class="st12" d="M1170.6,491.3c0-14.7,12.7-26.4,27.2-23.5c9.2,1.8,16.4,9.7,18,19.3c1,6-0.2,11.7-2.8,16.4l0,0l-0.1,0.1
						c-0.9,1.6-2,2.6-3.1,4.3l-13.2,18.5c-1.7,2.3-5,2.3-6.6,0l-13.1-18.2c0,0-2.4-3.1-3.3-4.6l-0.1-0.1l0,0
						C1171.7,499.8,1170.6,495.7,1170.6,491.3z M1193.4,501.8c5.5,0,10.1-4.7,10.1-10.5c0-5.9-4.5-10.5-10.1-10.5
						c-5.5,0-10.1,4.7-10.1,10.5C1183.4,497,1187.8,501.8,1193.4,501.8z"/>
				</g>
			</g>
		</g>
		<g>
			<g class="st13">
				<g>
					<path class="st11" d="M1337.4,422.8v28.2c0,0.6-0.5,1.1-1,1.1h-56.2c-0.6,0-1-0.5-1-1.1l0.1-10.4c0-0.2,0.1-0.5,0.2-0.6
						l8.1-11.3c0.2-0.3,0.5-0.5,0.8-0.5l9.3-0.1c0.6,0,1-0.5,1-1.1v-4.3c0-0.6,0.5-1.1,1-1.1h36.7
						C1337,421.8,1337.4,422.2,1337.4,422.8z"/>
				</g>
			</g>
			<g>
				<g>
					<path class="st8" d="M1296,430.6v9c0,0.3-0.3,0.6-0.6,0.6l-12.4-0.2c-0.5,0-0.7-0.6-0.5-1l5.8-9c0.1-0.2,0.3-0.3,0.5-0.3
						l6.6,0.2C1295.8,430,1296,430.3,1296,430.6z"/>
				</g>
			</g>
			<g>
				<g>
					<ellipse class="st8" cx="1324.5" cy="453.7" rx="6" ry="6.3"/>
				</g>
			</g>
			<g>
				<g>
					<path class="st12" d="M1321,453.7c0,2,1.6,3.7,3.5,3.7c2,0,3.5-1.7,3.5-3.7c0-2-1.6-3.7-3.5-3.7
						C1322.5,450,1321,451.7,1321,453.7z"/>
				</g>
			</g>
			<g>
				<g>
					<g>
						<path class="st8" d="M1298.7,452.2c0.2,0,0.3-6.9,0.3-15.2c0-8.4-0.1-15.2-0.3-15.2s-0.3,6.9-0.3,15.2
							C1298.5,445.4,1298.6,452.2,1298.7,452.2z"/>
					</g>
				</g>
			</g>
			<g>
				<g>
					<g>
						<ellipse class="st8" cx="1291.9" cy="453.7" rx="6" ry="6.3"/>
					</g>
				</g>
				<g>
					<g>
						<path class="st14" d="M1288.3,453.7c0,2,1.6,3.7,3.5,3.7s3.5-1.7,3.5-3.7c0-2-1.6-3.7-3.5-3.7S1288.3,451.7,1288.3,453.7z"/>
					</g>
				</g>
			</g>
			<g>
				<g>
					<g>
						<path class="st8" d="M1291.8,442.1c0,0.2,0.9,0.3,1.9,0.3c1,0,1.9-0.1,1.9-0.3s-0.9-0.3-1.9-0.3
							C1292.7,441.8,1291.8,442,1291.8,442.1z"/>
					</g>
				</g>
			</g>
		</g>
	</g>
	<g>
		<path id="path352" class="st15" d="M1831.4,653.3h-72V424h72V653.3"/>
		<path id="path354" class="st16" d="M1819.4,467.4h-18v-28.8h18V467.4"/>
		<path id="path356" class="st16" d="M1819.6,507.1h-18v-28.7h18V507.1"/>
		<path id="path358" class="st16" d="M1819.9,546.8h-18v-28.7h18V546.8"/>
		<path id="path360" class="st16" d="M1820.1,586.6h-18v-28.7h18V586.6"/>
		<path id="path362" class="st16" d="M1820.3,626.3h-18v-28.7h18V626.3"/>
		<path id="path364" class="st15" d="M1680,653.3h-72V528.4h72V653.3"/>
		<g>
			<g>
				<defs>
					<rect id="SVGID_2_" x="1654.2" y="316.9" width="118.8" height="336.5"/>
				</defs>
				<clipPath id="SVGID_3_">
					<use xlink:href="#SVGID_2_"  style="overflow:visible;"/>
				</clipPath>
				<g class="st17">
					<g id="g368">
						<path id="path382" class="st15" d="M1773,653.3h-118.8V316.9H1773V653.3"/>
					</g>
				</g>
			</g>
		</g>
		<path id="path384" class="st0" d="M1697.7,348.7h-27.4v-12.2h27.4V348.7"/>
		<path id="path386" class="st0" d="M1740.5,348.7h-27.4v-12.2h27.4V348.7"/>
		<g id="g388">
			<g>
				<g>
					<defs>
						<rect id="SVGID_4_" x="1287.8" y="572.2" width="76" height="81.3"/>
					</defs>
					<clipPath id="SVGID_5_">
						<use xlink:href="#SVGID_4_"  style="overflow:visible;"/>
					</clipPath>
					<g class="st18">
						<g id="g390">
							<path id="path404" class="st15" d="M1363.8,653.5h-76v-81.3h76V653.5"/>
						</g>
					</g>
				</g>
			</g>
		</g>
		<path id="path406" class="st0" d="M1308.7,588.3h-11.2V577h11.2V588.3"/>
		<path id="path408" class="st0" d="M1324.9,588.3h-11.2V577h11.2V588.3"/>
		<path id="path410" class="st0" d="M1308.7,604.1h-11.2v-11.3h11.2V604.1"/>
		<path id="path412" class="st0" d="M1324.9,604.1h-11.2v-11.3h11.2V604.1"/>
		<path id="path414" class="st0" d="M1309.6,622.2h-11.2v-11.4h11.2V622.2"/>
		<path id="path416" class="st0" d="M1325.8,622.2h-11.2v-11.4h11.2V622.2"/>
		<path id="path418" class="st0" d="M1309.6,638h-11.2v-11.3h11.2V638"/>
		<path id="path420" class="st0" d="M1325.8,638h-11.2v-11.3h11.2V638"/>
		<path id="path422" class="st19" d="M1295.1,653.3h-72V548.2h72V653.3"/>
		<path id="path424" class="st0" d="M1240.1,565.1h-11.2v-11.3h11.2V565.1"/>
		<path id="path426" class="st0" d="M1256.2,565.1H1245v-11.3h11.2V565.1"/>
		<path id="path428" class="st0" d="M1240.1,581h-11.2v-11.3h11.2V581"/>
		<path id="path430" class="st0" d="M1256.2,581H1245v-11.3h11.2V581"/>
		<path id="path432" class="st0" d="M1239.2,598.5H1228v-11.3h11.2V598.5"/>
		<path id="path434" class="st0" d="M1255.3,598.5h-11.2v-11.3h11.2V598.5"/>
		<path id="path436" class="st0" d="M1239.2,614.4H1228v-11.3h11.2V614.4"/>
		<path id="path438" class="st0" d="M1255.3,614.4h-11.2v-11.3h11.2V614.4"/>
		<path id="path464" class="st20" d="M1364.3,507.8h74.3V427h-36.8c-20.7,0-37.5,16.9-37.5,37.7l0,0V507.8"/>
		<path id="path466" class="st21" d="M1450.7,621.7h-122.5l-1.7-88.6c0-1.5,0.2-3.1,0.7-4.5l25.3-72.3c2.2-5.8,7.7-9.5,13.8-9.4
			h84.5v174.8"/>
		<path id="path468" class="st22" d="M1326.4,621.7h6.7c3.2,0,5.8-2.6,5.8-5.9v-18.2c0-3.3-2.6-5.9-5.8-5.9l0,0h-6.7V621.7"/>
		<path id="path470" class="st22" d="M1317.2,497.3h-3.9v-13.7c0-11.3,9.1-20.4,20.2-20.4h32.9v3.9h-32.9c-9,0-16.3,7.4-16.4,16.5
			v13.7"/>
		<path id="path472" class="st22" d="M1314,525.5h3.5c5,0,9-4,9-9v-18.8c0-5-4-9-9-9h-3.4c-5,0-9,4-9,9v18.8
			C1305,521.5,1309,525.5,1314,525.5"/>
		<path id="path474" class="st23" d="M1308.5,517.2V497c0-2.7,2.1-4.8,4.8-4.8l0,0h4.8c2.6,0,4.8,2.2,4.8,4.8l0,0v20.2
			c0,2.7-2.1,4.8-4.8,4.8l0,0h-4.8C1310.6,522,1308.5,519.9,1308.5,517.2L1308.5,517.2"/>
		<path id="path476" class="st22" d="M1353.5,528.9h63.8c4,0,7.2-3.2,7.2-7.2l0,0v-52.9c0-4-3.2-7.2-7.2-7.2h-47.7
			c-3.1,0-5.9,2.1-6.8,5.1l-16.1,52.9c-1.2,3.8,1,7.8,4.8,9C1352.1,528.8,1352.8,528.9,1353.5,528.9"/>
		<path id="path478" class="st24" d="M1355.5,490.6l-8.8,28.9c-1.2,3.8,1,7.8,4.8,9c0.7,0.2,1.4,0.3,2.1,0.3h63.8
			c4,0,7.2-3.2,7.2-7.2l0,0v-31L1355.5,490.6"/>
		<path id="path480" class="st24" d="M1345.3,620.2c0,19.8,15.9,35.8,35.5,35.8s35.5-16,35.5-35.8s-15.9-35.8-35.5-35.8l0,0
			C1361.2,584.4,1345.3,600.4,1345.3,620.2"/>
		<path id="path482" class="st24" d="M1667.8,619.6c0,19.5,15.2,35.2,34,35.2s34-15.8,34-35.2s-15.2-35.2-34-35.2
			S1667.8,600.2,1667.8,619.6"/>
		<path id="path484" class="st25" d="M1450.6,572.7h348c6.6,0,12-5.4,12-12.1V356.7c0-6.7-5.4-12.1-12-12.1h-348
			c-6.6,0-12,5.4-12,12.1v203.8C1438.7,567.2,1444,572.6,1450.6,572.7"/>
		<path id="path486" class="st26" d="M1800.5,563.4c0.4,0,0.8-0.4,0.8-0.8l0,0V354.7c0-0.4-0.3-0.8-0.8-0.8l0,0h-175.7v209.4
			L1800.5,563.4"/>
		<path id="path488" class="st24" d="M1800.5,409.5c0.4,0,0.8-0.1,0.8-0.2v-55.2c0-0.1-0.3-0.2-0.8-0.2h-175.7v55.6L1800.5,409.5"/>
		<path id="path490" class="st27" d="M1448.7,344.6h166.9v228h-166.9c-5.5,0-10-4.5-10-10.1V354.7
			C1438.7,349.2,1443.1,344.7,1448.7,344.6"/>
		<path id="path492" class="st28" d="M1708.2,563.4h74.9v-62.8h-74.9V563.4"/>
		<path id="path494" class="st29" d="M1624.9,563.4h94.5v-75.1h-94.5V563.4"/>
		<path id="path496" class="st28" d="M1624.9,488.2h80.6v-71.5h-80.6V488.2"/>
		<path id="path498" class="st26" d="M1453.7,621.7h332.7v-49.1h-332.7c-6.2,0-11.1,5-11.1,11.2l0,0v26.6
			C1442.5,616.7,1447.5,621.7,1453.7,621.7L1453.7,621.7"/>
		<path id="path500" class="st27" d="M1783.1,579.3h-162.5v36.6h162.5V579.3"/>
		<path id="path502" class="st30" d="M1625.9,607.7h46.9v-14.5h-46.9V607.7"/>
		<path id="path504" class="st31" d="M1625.9,607.7h28.3v-14.5h-28.3V607.7"/>
		<path id="path506" class="st30" d="M1725.7,607.7h46.9v-14.5h-46.9V607.7"/>
		<path id="path508" class="st31" d="M1751.3,607.7h21.3v-14.5h-21.3V607.7"/>
		<path id="path510" class="st24" d="M1556.6,619.6c0,19.5,15.2,35.2,34,35.2s34-15.8,34-35.2s-15.2-35.2-34-35.2
			S1556.6,600.2,1556.6,619.6"/>
		<path id="path512" class="st22" d="M1546,618.7c0,20.6,15.2,37.3,34,37.3s34-16.7,34-37.3s-15.2-37.3-34-37.3
			S1546,598.1,1546,618.7"/>
		<path id="path514" class="st22" d="M1340.9,619.5c0,20.1,15.2,36.5,34,36.5s34-16.3,34-36.5s-15.2-36.5-34-36.5
			S1340.9,599.4,1340.9,619.5"/>
		<path id="path516" class="st26" d="M1358.2,618.7c0,10.1,7.5,18.4,16.7,18.4s16.7-8.2,16.7-18.4s-7.5-18.3-16.7-18.3
			S1358.2,608.5,1358.2,618.7"/>
		<path id="path518" class="st26" d="M1563.3,618.7c0,10.1,7.5,18.4,16.7,18.4s16.7-8.2,16.7-18.4s-7.5-18.3-16.7-18.3
			S1563.3,608.5,1563.3,618.7"/>
		<path id="path520" class="st26" d="M1726.8,395.1h-31.6c0,4.5,3.6,8.2,8.1,8.2l0,0h15.4C1723.2,403.2,1726.8,399.6,1726.8,395.1
			L1726.8,395.1L1726.8,395.1"/>
		<path id="path522" class="st32" d="M1517.8,634.1c0,0,2.7,2.6,2.7,3.6s0.2,11.4-0.8,12.4s-4.3,1.7-3.3,2.8
			c0.8,0.8,6.7,0.7,10.7,0.4c1.1-0.1,2.6-9.5,3.1-10.9c0.7-2,3.1-6.4,2.5-7.8c-0.3-0.7-2.5-2.2-4.5-3.5c-1.6-1.2-3-2.7-4.1-4.4
			L1517.8,634.1"/>
		<path id="path524" class="st32" d="M1482.2,640.6l2.4,6.9c0.2,1.1,0.9,3.8,0.9,4.8c0,3.7-16.4-3.2-12.7-4.8
			c0.8-0.6,1.4-1.6,1.5-2.6c0.2-1.9-1.4-4.4-1.4-4.4L1482.2,640.6"/>
		<path id="path526" class="st22" d="M1459.5,510.2l-6,15.5c0,0-3.9,37-1.6,59.1c1,9.3,21.4,58.8,21.4,58.8l10.2-1.5l-13.6-58.7
			l5-22.5l7.1-44.4L1459.5,510.2"/>
		<path id="path528" class="st24" d="M1487.5,511.1l5.1,17.3l7.8,52.1l26.2,48.7c0,0-4,6.1-8.2,7l-37.2-49.2l-20.2-61.7l0.7-13.7
			L1487.5,511.1"/>
		<path id="path530" class="st33" d="M1429.3,526.7c3.7-1.5,3.8-0.8,4.3-1s5-7,5-7s13.1-20,13.8-21.1l4-24.6l12.6-1.3
			c0,0-5.1,26.6-5.6,28c-0.5,1.3-21.4,26.2-23.1,28.5c0,0-1.1,3.5-1.9,5.7c-0.7,1.6-1.7,3.1-2.8,4.4c-0.9,1.4-2,2.7-3.2,3.8
			c-1.7,1.6-0.8-0.7-0.8-0.7s2.7-3.6,2.4-3.8c-0.3-0.2-1.6,1.9-3.5,3.7c-0.5,0.5-1,0.9-1.4,1.3c-1.2,1.1-2.2,0.7-1.1-0.7
			c0.5-0.6,1-1.2,1.5-1.7s0.9-1.1,1.3-1.7c0.5-0.6,0.9-1.2,1.4-1.8c-0.1,0,0-0.3-0.6,0.1c-0.9,1-1.8,2-2.7,2.9
			c-0.6,0.4-1.7,1.4-1.7,1.4c-0.7,0.5-1.4,0.9-2.1,1.3c-0.6-0.5,0.6-1.9,1.4-2.5c0.5-0.6,1-1.1,1.6-1.6c0,0,2-2.6,1.7-2.9
			c-0.3-0.3-6.4,5-6.9,4.5s1.3-2.1,1.3-2.1s1.1-0.9,1.5-1.3s1.6-1.7,1.6-1.7s3.8-4.7,3.4-4.9c-0.6-0.3-1.2-0.4-1.9-0.3
			c-0.3,0.2-0.8,0.9-1.1,1.1c-0.4,0.2-0.9,0.1-1.2-0.2c-0.3-0.4,1-2,1-2C1427.9,527.7,1428.6,527.1,1429.3,526.7"/>
		<path id="path532" class="st34" d="M1453.8,480.5l14.5,1.5c0,0,0.7-12.1,0.7-17.9c0-7-1-15.8-1.8-15.6c-2.3,0.6-5.1,1.6-6.9,4.2
			C1453.8,461.8,1453.8,480.5,1453.8,480.5"/>
		<path id="path534" class="st22" d="M1528,631.1c0,0-5.6,17.3-8,18.1c-0.6,0.2-4.2,1.1-4.8,2.5v0.1c-0.1,0.8,0.4,1.5,1.2,1.7
			c0.1,0,0.2,0,0.3,0h11.4c0,0,1.6-7.8,2.3-11.2c0,0,3.4-8.3,3-9.1C1532.9,632.5,1528.1,631,1528,631.1"/>
		<path id="path536" class="st22" d="M1486.4,653.5l-1.8-6c0,0-4,1.7-6,1.4c-2-0.4-3.9-0.8-5.8-1.4c-7.9,2.6-14.3,3.9-13.2,6H1486.4
			"/>
		<path id="path538" class="st35" d="M1435.1,528.6c-1.2,1.2-2.9,1.7-4.6,1.3c1.4,1,3.4,0.6,4.3-0.9
			C1434.9,528.9,1435,528.7,1435.1,528.6"/>
		<path id="path540" class="st21" d="M1485.7,447.8c0,0,7.7,1.1,9.7,2.6c2.3,1.7,9.3,9.5,9.3,9.5s-14.6,42.2-14.1,49.7
			c0.6,7.5,2.2,18.6,2.2,18.6s-28.4,1.8-39.2-2.5c0,0,3.4-17,3.4-21.5s1.9-49.1,3.3-51.5c1.4-2.3,4.1-3.7,9.3-4.8
			C1474.7,446.8,1485.7,447.8,1485.7,447.8"/>
		<path id="path542" class="st32" d="M1483.6,435.7l1.9,12.5c0,0-5.7,6.6-9.8,5.3c-3.5-1.1-2.6-6-2.6-6s1.9-7,1.3-10.6
			S1483.6,435.7,1483.6,435.7"/>
		<path id="path544" class="st35" d="M1474.4,436.9c-0.6-3.5,9.2-1.2,9.2-1.2l0.2,1c-0.2,0.6-0.6,1.2-1.1,1.7
			c-2.3,2.3-5.3,3.7-8.5,3.9C1474.5,440.5,1474.6,438.7,1474.4,436.9"/>
		<path id="path546" class="st32" d="M1485.2,418c0.3-0.1,2.2,14.3-1.5,18.2c-3.7,3.9-10.8,5.2-13.4,2.1c-2.8-3.4-2.7-18.9,3-22.9
			C1479,411.4,1485.2,418,1485.2,418"/>
		<path id="path548" class="st24" d="M1475.5,407.7c3.2,0.7,6.1,2.3,8.3,4.7c2,0.2,4.7,1.3,7.5,6c3.5,5.7,0.9,12.1-3.1,15.2
			s-4,6.7-4,6.7l-0.6-1.8c-0.5-1.4-0.7-2.9-0.5-4.4c0.1-0.9,0.3-1.8,0.7-2.6c1-2.1-2.1-3.5-2.9-5.2c-0.7-1.3-0.7-4.4-1.7-6.6
			l-1.2-1.7c0,0-2.8-2.2-5.6-1.6C1469.4,417.1,1469.8,406.6,1475.5,407.7"/>
		<path id="path550" class="st32" d="M1481.1,428.8c0,1.8,0.8,3.2,1.8,3.2s1.9-1.4,1.9-3.1s-0.8-3.2-1.8-3.2
			C1481.9,425.7,1481.1,427.1,1481.1,428.8"/>
		<path id="path552" class="st29" d="M1533.3,546.4h-57.4v-50.1h57.4V546.4"/>
		<path id="path554" class="st20" d="M1497.6,546.4h-21.7v-50.1h21.7V546.4"/>
		<path id="path556" class="st33" d="M1519.1,538.9c-0.6-2.4-1.8-6-1.8-6c0.1-3.1,2.8-37.8,2.5-39.3c-0.4-1.5-12-27.5-12-27.5
			l-9.8,9.3l11.3,23.6c0.1,1.4,1,27,1,27s0.5,7.9,0.1,8.4c-1.2,1.4-2.2,2.8-3.1,4.4c-0.4,0.9-0.7,1.9-0.7,2.8c0,0-0.1,2.2,0.4,2.4
			c0.5,0.1,1-0.1,1.2-0.6c0.2-0.4,0.1-1.3,0.2-1.7c0.5-0.5,1.1-0.8,1.8-0.9c0.3,0,0.3,2.7,0.1,5.2c0,1,0.7,1.9,1.7,2.1
			c0.4,0.1,0.7-0.3,1.1,0.2c0.7,0.2,1.5,0.1,2.2-0.1c0.8,0.3,1.7,0.3,2.6,0l0.3-0.1c0.7-0.2,1.2-0.8,1.2-1.5s0-1.3,0-2
			C1519.4,543.8,1519.8,541.3,1519.1,538.9"/>
		<path id="path558" class="st21" d="M1514.2,475l-12.8,10.1c0,0-5.7-5.5-8.5-11.5s-2-24.8,1.1-23.9
			C1500.8,451.4,1514.2,475,1514.2,475"/>
		<path id="path560" class="st20" d="M1359.3,553.8h-16.7v-7.4h24.1C1366.7,550.5,1363.4,553.8,1359.3,553.8L1359.3,553.8"/>
		<path id="path562" class="st29" d="M1843.5,653.5h-636.6c-1.7,0-3,0.5-3,1.2l0,0c0,0.7,1.3,1.2,3,1.2h636.6c1.7,0,3-0.5,3-1.2l0,0
			C1846.5,654.1,1845.1,653.5,1843.5,653.5"/>
		<path id="path576" class="st16" d="M1486.7,471.5h-10.8v-6.3h10.8V471.5"/>
	</g>
</g>
</svg>
