<svg id="Layer_1" data-name="Layer 1" xmlns="http://www.w3.org/2000/svg" viewBox="0 0 84 84"><path d="M-.2,38.54V15.94c0-1.45.2-1.74,1.53-2.2Q21,6.84,40.74,0a3.48,3.48,0,0,1,2.07,0q19.8,6.87,39.57,13.81c1.15.4,1.4.76,1.4,2q0,22.73,0,45.46a2,2,0,0,1-1.22,2Q63.28,73.41,44,83.54a2,2,0,0,1-2,0Q21.53,73.41,1,63.29a2,2,0,0,1-1.17-2C-.19,53.72-.2,46.13-.2,38.54ZM44.49,79.78c.42-.19.65-.29.88-.41q17.4-9.12,34.8-18.22a1.27,1.27,0,0,0,.7-1.36q0-20.48,0-40.94c0-.32,0-.63,0-1.05-.38.15-.65.24-.91.36Q62.61,26.1,45.29,34a1.23,1.23,0,0,0-.81,1.35q0,21.69,0,43.38ZM2.72,17.68v1.06q0,20.52,0,41a1.28,1.28,0,0,0,.8,1.38q18.59,9.13,37.14,18.3c.25.13.51.23.84.37,0-.36,0-.63,0-.89q0-21.83,0-43.66a1.09,1.09,0,0,0-.77-1.18C36.85,32.42,32.93,30.71,29,29c-.25-.11-.51-.2-.89-.34V29.9q0,7,0,14c0,.81-.14,1.52-.93,1.86s-1.37-.06-1.9-.65C23.88,43.55,22.42,42,21,40.4A1.14,1.14,0,0,0,19.55,40c-.94.37-1.91.65-2.87,1-1.62.53-2.39-.07-2.39-1.89,0-5.12,0-10.24,0-15.36,0-.85-.24-1.25-1-1.49s-1.54-.66-2.31-1ZM78.16,15.6c-.51-.2-.76-.32-1-.41-3.35-1.17-6.7-2.31-10-3.52a2.85,2.85,0,0,0-2.29.08Q48.22,18.85,31.6,25.89c-.27.12-.54.26-.93.45.31.16.48.27.66.34,3.71,1.61,7.41,3.23,11.13,4.79a1.62,1.62,0,0,0,1.2-.07Q57.1,25.28,70.52,19.1Zm-72.6-.1c.4.21.57.31.75.38,2.94,1.28,5.88,2.57,8.84,3.8a2,2,0,0,0,1.36,0Q33,13,49.51,6.36c.28-.11.55-.25,1-.45l-1.23-.47c-2.2-.77-4.4-1.57-6.61-2.28a2.92,2.92,0,0,0-1.73,0Q28,7.63,15.05,12.18Zm14.27,6.15c.4.22.62.35.85.45,1.75.75,3.49,1.54,5.27,2.23a2.07,2.07,0,0,0,1.43,0q16.68-7,33.33-14.14c.23-.1.44-.22.85-.44-2.07-.72-3.92-1.4-5.8-2a2.46,2.46,0,0,0-1.54,0Q42,12.65,29.89,17.58ZM17.29,24V37.53c.91-.29,1.75-.48,2.53-.82a2,2,0,0,1,2.59.71c.85,1,1.84,1.78,2.72,2.62,0,.07,0,0,0-.16,0-4,0-8,0-11.93,0-.54-.27-.71-.66-.88-1.81-.76-3.61-1.55-5.42-2.33Z" transform="translate(0.21 0.18)"/></svg>