<svg id="Layer_1" data-name="Layer 1" xmlns="http://www.w3.org/2000/svg" xmlns:xlink="http://www.w3.org/1999/xlink" viewBox="0 0 1923.5 795.99"><defs><style>.cls-1{fill:none;}.cls-2{fill:#fff;}.cls-3{fill:url(#linear-gradient);}.cls-4{fill:#8cd334;}.cls-5{fill:#e0d4d7;}.cls-6{fill:#f3ffff;}.cls-7{clip-path:url(#clip-path);}.cls-8{clip-path:url(#clip-path-2);}.cls-9{fill:#7595c2;}.cls-10{fill:#fc008b;}.cls-11{fill:#fcc13f;}.cls-12{fill:#efefef;}.cls-13{fill:#7271b3;}.cls-14{fill:#f68a6c;}.cls-15{fill:orange;}.cls-16{fill:#2d2861;}.cls-17{fill:#adeff7;}.cls-18{fill:#352e73;}.cls-19{fill:#74a8e6;}.cls-20{fill:#76c6ed;}.cls-21{fill:#fee2bf;}.cls-22{fill:#d6007e;}.cls-23{fill:#f7a491;}.cls-24{fill:#f8a492;}.cls-25{fill:#e5910c;}.cls-26{fill:#fe875e;}</style><linearGradient id="linear-gradient" x1="1034.85" y1="402.12" x2="1920.61" y2="402.12" gradientTransform="matrix(1, 0, 0, -1, 1, 799.99)" gradientUnits="userSpaceOnUse"><stop offset="0" stop-color="#fae5e7"/><stop offset="1" stop-color="#eceefa"/></linearGradient><clipPath id="clip-path" transform="translate(1.89 -1)"><rect class="cls-1" x="1692.42" y="330.23" width="119" height="334.8"/></clipPath><clipPath id="clip-path-2" transform="translate(1.89 -1)"><rect class="cls-1" x="1325.28" y="584.29" width="76.15" height="80.91"/></clipPath></defs><rect class="cls-2" width="1923" height="795.99"/><path class="cls-3" d="M1548.17,793.75s202.43-12.9,372.42-107.53l1-683.24L1035.85,2s437.21,187.82,185.51,518.19a171.71,171.71,0,0,0-34.47,84.14c-8.86,77.56,31.93,194.11,361,189Z" transform="translate(1.89 -1)"/><path id="path350" class="cls-4" d="M1356.51,421.45l-2.46,4.54-7.73-3.15-4.41,6.19-6.17-1.41-.71,3.13,8.26,1.88,4.17-5.86,8,3.27,3.7-6.83-2.69-1.76" transform="translate(1.89 -1)"/><path id="path352" class="cls-5" d="M1869.9,665h-72.11V436.8h72.11V665" transform="translate(1.89 -1)"/><path id="path354" class="cls-6" d="M1857.87,480h-18V451.38h18V480" transform="translate(1.89 -1)"/><path id="path356" class="cls-6" d="M1858.1,519.5h-18V490.91h18V519.5" transform="translate(1.89 -1)"/><path id="path358" class="cls-6" d="M1858.34,559h-18V530.44h18V559" transform="translate(1.89 -1)"/><path id="path360" class="cls-6" d="M1858.57,598.56h-18V570h18v28.59" transform="translate(1.89 -1)"/><path id="path362" class="cls-6" d="M1858.81,638.1h-18V609.5h18v28.6" transform="translate(1.89 -1)"/><path id="path364" class="cls-5" d="M1718.24,665h-72.11V540.72h72.11V665" transform="translate(1.89 -1)"/><g class="cls-7"><g id="g368"><path id="path382" class="cls-5" d="M1811.42,665h-119V330.23h119V665" transform="translate(1.89 -1)"/></g></g><path id="path384" class="cls-2" d="M1736,361.9h-27.43V349.79H1736V361.9" transform="translate(1.89 -1)"/><path id="path386" class="cls-2" d="M1778.86,361.9h-27.43V349.79h27.43V361.9" transform="translate(1.89 -1)"/><g id="g388"><g class="cls-8"><g id="g390"><path id="path404" class="cls-5" d="M1401.43,665.2h-76.15V584.29h76.15V665.2" transform="translate(1.89 -1)"/></g></g></g><path id="path406" class="cls-2" d="M1346.3,600.27h-11.25V589h11.25v11.25" transform="translate(1.89 -1)"/><path id="path408" class="cls-2" d="M1362.47,600.27h-11.24V589h11.24v11.25" transform="translate(1.89 -1)"/><path id="path410" class="cls-2" d="M1346.3,616.05h-11.25V604.8h11.25v11.25" transform="translate(1.89 -1)"/><path id="path412" class="cls-2" d="M1362.47,616.05h-11.24V604.8h11.24v11.25" transform="translate(1.89 -1)"/><path id="path414" class="cls-2" d="M1347.18,634h-11.24V622.7h11.24V634" transform="translate(1.89 -1)"/><path id="path416" class="cls-2" d="M1363.35,634h-11.24V622.7h11.24V634" transform="translate(1.89 -1)"/><path id="path418" class="cls-2" d="M1347.18,649.73h-11.24V638.48h11.24v11.25" transform="translate(1.89 -1)"/><path id="path420" class="cls-2" d="M1363.35,649.73h-11.24V638.48h11.24v11.25" transform="translate(1.89 -1)"/><path id="path422" class="cls-9" d="M1332.68,665h-72.11V560.43h72.11V665" transform="translate(1.89 -1)"/><path id="path424" class="cls-2" d="M1277.52,577.24h-11.25V566h11.25v11.25" transform="translate(1.89 -1)"/><path id="path426" class="cls-2" d="M1293.7,577.24h-11.25V566h11.25v11.25" transform="translate(1.89 -1)"/><path id="path428" class="cls-2" d="M1277.52,593h-11.25V581.77h11.25V593" transform="translate(1.89 -1)"/><path id="path430" class="cls-2" d="M1293.7,593h-11.25V581.77h11.25V593" transform="translate(1.89 -1)"/><path id="path432" class="cls-2" d="M1276.59,610.46h-11.25V599.22h11.25v11.24" transform="translate(1.89 -1)"/><path id="path434" class="cls-2" d="M1292.77,610.46h-11.25V599.22h11.25v11.24" transform="translate(1.89 -1)"/><path id="path436" class="cls-2" d="M1276.59,626.24h-11.25V615h11.25v11.24" transform="translate(1.89 -1)"/><path id="path438" class="cls-2" d="M1292.77,626.24h-11.25V615h11.25v11.24" transform="translate(1.89 -1)"/><path id="path440" class="cls-10" d="M1484.17,309.57,1461.43,325a5,5,0,0,1-7-1.36L1439,300.86a5.06,5.06,0,0,1,1.36-7l22.73-15.38a5,5,0,0,1,7,1.35l15.38,22.74a5.05,5.05,0,0,1-1.35,7" transform="translate(1.89 -1)"/><path id="path442" class="cls-2" d="M1472.74,293.44a12.87,12.87,0,1,1-17.87-3.44,12.87,12.87,0,0,1,17.87,3.44" transform="translate(1.89 -1)"/><path id="path444" class="cls-10" d="M1457.85,295.36l5.28,5.76a1,1,0,0,1-1.53,1.4,1.53,1.53,0,0,1-.16-.22l-3.59-6.94" transform="translate(1.89 -1)"/><path id="path446" class="cls-10" d="M1461.87,301.16l8-4.45-6.95,5.91a.89.89,0,0,1-1.26-.1.9.9,0,0,1,.1-1.26l.15-.1" transform="translate(1.89 -1)"/><path id="path448" class="cls-4" d="M1618.68,279.6l-1.47,3.85,3.25,1.92-2,4.3,4.51.91-2,4.9,3.89,1.32-1.12,4.79-2,.12.82-3.58-4.1-1.4,1.94-4.71-4.58-.92,2.2-4.75-3.18-1.87,1.37-3.58-2.51-.76,1.12-1.74,3.91,1.2" transform="translate(1.89 -1)"/><path id="path450" class="cls-11" d="M1306.38,437.47a14.57,14.57,0,1,1-18.81-8.42,14.56,14.56,0,0,1,18.81,8.42" transform="translate(1.89 -1)"/><path id="path452" class="cls-12" d="M1286.31,447.59a7.79,7.79,0,0,0,14.56-5.55l-14.56,5.55" transform="translate(1.89 -1)"/><path id="path454" class="cls-13" d="M1374.59,336.73l-4.18-2.72,3.63-7.2-5.62-4.71,1.83-5.84-3-.92-2.45,7.8,5.32,4.47-3.76,7.49,6.28,4.08,1.9-2.45" transform="translate(1.89 -1)"/><path id="path456" class="cls-11" d="M1764.29,297.24l5.79,3.26s10.45-1.25,11.81-3.06,2.6-6.62,4-6.48a4.33,4.33,0,0,1,4,4.58c0,2.51-4.92,8.79-4.51,9.64.25.53,3.53,2.5,6,3.9a5,5,0,0,1,2.43,4.53h0a2.71,2.71,0,0,1-2.23,2.53l-1.92.34.21,1.95a2.71,2.71,0,0,1-2.33,3l-1.47.19.23,1.21a2.72,2.72,0,0,1-2.41,3.18l-1.28.11v.33a2.7,2.7,0,0,1-2.52,2.59l-1.26.08-15.42-8.69a11.92,11.92,0,0,1-3.71-3.25l-4.91-4a1.4,1.4,0,0,1-.32-1.78l8-13.63a1.39,1.39,0,0,1,1.87-.53" transform="translate(1.89 -1)"/><path id="path458" class="cls-10" d="M1523.05,298.6l-4.32-.35-.6,4-4.27-.16-1,3.76-3.22.4.2,1.63,4.31-.54,1-3.56,4.45.16.58-3.93,3.93.31-1-1.73" transform="translate(1.89 -1)"/><path id="path460" class="cls-11" d="M1424.65,336.67l-5.27,1.62-1.66,5.26a.53.53,0,0,1-1,.14l-3.17-4.51-5.51.06a.54.54,0,0,1-.44-.87L1411,334l-1.75-5.23a.54.54,0,0,1,.68-.68l5.22,1.78,4.43-3.28a.53.53,0,0,1,.85.44l-.08,5.52,4.49,3.19a.55.55,0,0,1-.15,1" transform="translate(1.89 -1)"/><path id="path462" class="cls-11" d="M1315.7,499.11l-5.27,1.62-1.65,5.26a.55.55,0,0,1-1,.15l-3.17-4.52-5.51.06a.54.54,0,0,1-.43-.86l3.31-4.41-1.76-5.23a.54.54,0,0,1,.69-.68l5.21,1.79,4.43-3.29a.54.54,0,0,1,.86.44l-.09,5.52,4.49,3.2a.54.54,0,0,1-.15.95" transform="translate(1.89 -1)"/><path id="path464" class="cls-14" d="M1402,520.17h74.46v-80.4h-36.88A37.57,37.57,0,0,0,1402,477.34v42.83" transform="translate(1.89 -1)"/><path id="path466" class="cls-15" d="M1488.49,633.53H1365.73L1364,545.41a12.88,12.88,0,0,1,.72-4.51L1390.05,469a14.51,14.51,0,0,1,13.83-9.36h84.61V633.53" transform="translate(1.89 -1)"/><path id="path468" class="cls-16" d="M1364,633.53h6.7a5.86,5.86,0,0,0,5.86-5.86V609.52a5.86,5.86,0,0,0-5.86-5.87H1364v29.88" transform="translate(1.89 -1)"/><path id="path470" class="cls-16" d="M1354.78,509.76h-3.89V496.15a20.3,20.3,0,0,1,20.28-20.28h33v3.89h-33a16.41,16.41,0,0,0-16.39,16.39v13.61" transform="translate(1.89 -1)"/><path id="path472" class="cls-16" d="M1351.54,537.82H1355a9,9,0,0,0,9-9V510.13a9,9,0,0,0-9-9h-3.42a9,9,0,0,0-9,9v18.71a9,9,0,0,0,9,9" transform="translate(1.89 -1)"/><path id="path474" class="cls-17" d="M1346.05,529.52V509.44a4.8,4.8,0,0,1,4.8-4.8h4.8a4.8,4.8,0,0,1,4.8,4.8v20.08a4.8,4.8,0,0,1-4.8,4.81h-4.8a4.8,4.8,0,0,1-4.8-4.81" transform="translate(1.89 -1)"/><path id="path476" class="cls-16" d="M1391.16,541.15h63.95a7.17,7.17,0,0,0,7.17-7.18V481.38a7.18,7.18,0,0,0-7.17-7.18h-47.83a7.17,7.17,0,0,0-6.86,5.08l-16.13,52.59a7.18,7.18,0,0,0,6.87,9.28" transform="translate(1.89 -1)"/><path id="path478" class="cls-18" d="M1393.11,503.1l-8.82,28.77a7.18,7.18,0,0,0,6.87,9.28h63.95a7.17,7.17,0,0,0,7.17-7.18V503.1h-69.17" transform="translate(1.89 -1)"/><path id="path480" class="cls-18" d="M1382.89,632a35.61,35.61,0,1,0,35.61-35.61A35.61,35.61,0,0,0,1382.89,632" transform="translate(1.89 -1)"/><path id="path482" class="cls-18" d="M1706,631.47c0,19.36,15.27,35.06,34.1,35.06s34.1-15.7,34.1-35.06-15.27-35.06-34.1-35.06S1706,612.1,1706,631.47" transform="translate(1.89 -1)"/><path id="path484" class="cls-19" d="M1488.45,584.72h348.61a12,12,0,0,0,12-12V369.87a12,12,0,0,0-12-12h-348.6a12,12,0,0,0-12,12V572.69a12,12,0,0,0,12,12" transform="translate(1.89 -1)"/><path id="path486" class="cls-13" d="M1839,575.46a.78.78,0,0,0,.78-.78V367.88a.78.78,0,0,0-.78-.78H1663V575.46H1839" transform="translate(1.89 -1)"/><path id="path488" class="cls-18" d="M1839,422.35c.43,0,.78-.09.78-.21v-54.9c0-.11-.35-.2-.78-.2H1663v55.31H1839" transform="translate(1.89 -1)"/><path id="path490" class="cls-20" d="M1486.47,357.84h167.22V584.72H1486.47a10,10,0,0,1-10-10V367.88a10,10,0,0,1,10-10" transform="translate(1.89 -1)"/><path id="path492" class="cls-11" d="M1746.49,575.46h75V513h-75v62.51" transform="translate(1.89 -1)"/><path id="path494" class="cls-21" d="M1663,575.46h94.65V500.72H1663v74.74" transform="translate(1.89 -1)"/><path id="path496" class="cls-11" d="M1663,500.72h80.76V429.6H1663v71.12" transform="translate(1.89 -1)"/><path id="path498" class="cls-13" d="M1491.49,633.53h333.35V584.72H1491.49a11.17,11.17,0,0,0-11.17,11.17v26.47a11.17,11.17,0,0,0,11.17,11.17" transform="translate(1.89 -1)"/><path id="path500" class="cls-20" d="M1821.5,591.3H1658.69v36.39H1821.5V591.3" transform="translate(1.89 -1)"/><path id="path502" class="cls-10" d="M1664.06,619.54h47V605.09h-47v14.45" transform="translate(1.89 -1)"/><path id="path504" class="cls-22" d="M1664.06,619.54h28.38V605.09h-28.38v14.45" transform="translate(1.89 -1)"/><path id="path506" class="cls-10" d="M1764,619.54h47V605.09h-47v14.45" transform="translate(1.89 -1)"/><path id="path508" class="cls-22" d="M1789.7,619.54H1811V605.09h-21.3v14.45" transform="translate(1.89 -1)"/><path id="path510" class="cls-18" d="M1594.56,631.47c0,19.36,15.26,35.06,34.1,35.06s34.1-15.7,34.1-35.06-15.27-35.06-34.1-35.06-34.1,15.69-34.1,35.06" transform="translate(1.89 -1)"/><path id="path512" class="cls-16" d="M1584,630.5c0,20.51,15.26,37.13,34.1,37.13s34.1-16.62,34.1-37.13-15.27-37.12-34.1-37.12S1584,610,1584,630.5" transform="translate(1.89 -1)"/><path id="path514" class="cls-16" d="M1378.53,631.35c0,20,15.26,36.28,34.1,36.28s34.1-16.24,34.1-36.28-15.27-36.29-34.1-36.29-34.1,16.25-34.1,36.29" transform="translate(1.89 -1)"/><path id="path516" class="cls-13" d="M1395.86,630.5c0,10.09,7.51,18.26,16.77,18.26s16.76-8.17,16.76-18.26-7.5-18.25-16.76-18.25-16.77,8.17-16.77,18.25" transform="translate(1.89 -1)"/><path id="path518" class="cls-13" d="M1601.36,630.5c0,10.09,7.51,18.26,16.77,18.26s16.76-8.17,16.76-18.26-7.5-18.25-16.76-18.25-16.77,8.17-16.77,18.25" transform="translate(1.89 -1)"/><path id="path520" class="cls-13" d="M1765.15,408h-31.68a8.15,8.15,0,0,0,8.15,8.15H1757a8.15,8.15,0,0,0,8.15-8.15h0" transform="translate(1.89 -1)"/><path id="path522" class="cls-23" d="M1555.72,645.88s2.67,2.63,2.73,3.6.24,11.34-.85,12.31-4.29,1.65-3.26,2.74c.78.82,6.76.65,10.72.43,1.15-.06,2.6-9.42,3.06-10.8.67-2,3.07-6.33,2.46-7.73-.29-.68-2.48-2.22-4.47-3.52a18.34,18.34,0,0,1-4.09-4.42l-6.3,7.39" transform="translate(1.89 -1)"/><path id="path524" class="cls-23" d="M1520.05,652.35l2.39,6.86c.18,1.08.87,3.76.87,4.74,0,3.7-16.45-3.14-12.76-4.78a3.93,3.93,0,0,0,1.49-2.59c.17-1.94-1.39-4.37-1.39-4.37l9.4.14" transform="translate(1.89 -1)"/><path id="path526" class="cls-16" d="M1497.35,522.61l-6,15.43s-3.88,36.81-1.62,58.84c1,9.22,21.43,58.55,21.43,58.55l10.18-1.45-13.63-58.42,5-22.34,7.1-44.16-22.51-6.45" transform="translate(1.89 -1)"/><path id="path528" class="cls-18" d="M1525.41,523.42l5.1,17.17,7.77,51.84,26.29,48.5s-4,6.06-8.2,7l-37.3-49-20.22-61.35.71-13.63,25.85-.53" transform="translate(1.89 -1)"/><path id="path530" class="cls-24" d="M1467.12,538.94c3.69-1.48,3.8-.8,4.26-1s5-7,5-7,13.15-19.9,13.83-21l4-24.48,12.6-1.34s-5.07,26.51-5.57,27.85-21.41,26.11-23.18,28.36c0,0-1.13,3.47-1.91,5.63a19.63,19.63,0,0,1-2.78,4.41,20.59,20.59,0,0,1-3.22,3.8c-1.73,1.63-.83-.72-.83-.72s2.69-3.6,2.37-3.76-1.6,1.92-3.51,3.73c-.48.47-1,.93-1.42,1.34-1.18,1.1-2.18.68-1.13-.67a15.76,15.76,0,0,1,1.53-1.74,13.26,13.26,0,0,0,1.35-1.71,17.87,17.87,0,0,0,1.37-1.78c-.08,0,0-.34-.59.14a38.57,38.57,0,0,1-2.75,2.88c-.58.44-1.72,1.43-1.72,1.43a16.12,16.12,0,0,1-2.13,1.3c-.59-.53.58-1.94,1.43-2.44a11.27,11.27,0,0,1,1.62-1.6s2-2.6,1.67-2.9-6.37,5-6.92,4.46,1.31-2.13,1.31-2.13,1.14-.93,1.5-1.26,1.57-1.68,1.57-1.68,3.81-4.66,3.44-4.91a2.75,2.75,0,0,0-1.89-.32c-.34.2-.76.9-1.09,1.11a1,1,0,0,1-1.24-.22c-.29-.4,1-2,1-2a6.44,6.44,0,0,1,2.08-1.74" transform="translate(1.89 -1)"/><path id="path532" class="cls-25" d="M1491.66,493l14.5,1.5s.67-12,.67-17.8c0-7-1-15.72-1.83-15.49-2.32.64-5.06,1.58-6.93,4.18-6.48,9-6.41,27.61-6.41,27.61" transform="translate(1.89 -1)"/><path id="path534" class="cls-16" d="M1566,642.84s-5.62,17.2-8,18c-.64.23-4.24,1.14-4.82,2.51l0,.12a1.43,1.43,0,0,0,1.43,1.68H1566s1.62-7.73,2.26-11.13c0,0,3.39-8.3,3-9.05s-5.25-2.18-5.25-2.18" transform="translate(1.89 -1)"/><path id="path536" class="cls-16" d="M1524.25,665.17l-1.84-6s-4,1.69-6,1.41a58.68,58.68,0,0,1-5.84-1.41c-7.89,2.63-14.36,3.91-13.19,6h26.85" transform="translate(1.89 -1)"/><path id="path538" class="cls-26" d="M1472.86,540.84a5,5,0,0,1-4.56,1.29,3.11,3.11,0,0,0,4.56-1.29" transform="translate(1.89 -1)"/><path id="path540" class="cls-15" d="M1523.56,460.44s7.68,1.07,9.7,2.55c2.27,1.67,9.32,9.47,9.32,9.47s-14.67,42-14.1,49.49,2.17,18.55,2.17,18.55-28.48,1.8-39.27-2.46c0,0,3.41-16.94,3.41-21.39s1.92-48.9,3.28-51.23,4.1-3.65,9.31-4.79,16.18-.19,16.18-.19" transform="translate(1.89 -1)"/><path id="path542" class="cls-23" d="M1521.46,448.45l1.9,12.44s-5.71,6.59-9.86,5.31c-3.47-1.08-2.56-6-2.56-6s1.9-7,1.33-10.56,9.19-1.22,9.19-1.22" transform="translate(1.89 -1)"/><path id="path544" class="cls-26" d="M1512.27,449.67c-.57-3.52,9.19-1.22,9.19-1.22l.16,1a5.84,5.84,0,0,1-1.06,1.73,12.92,12.92,0,0,1-8.53,3.84,19.37,19.37,0,0,0,.24-5.38" transform="translate(1.89 -1)"/><path id="path546" class="cls-23" d="M1523.07,430.84c.27-.09,2.21,14.18-1.47,18.1s-10.83,5.21-13.39,2.12c-2.84-3.42-2.7-18.76,3-22.8s11.85,2.58,11.85,2.58" transform="translate(1.89 -1)"/><path id="path548" class="cls-18" d="M1513.39,420.63a15.93,15.93,0,0,1,8.33,4.72c2,.23,4.73,1.33,7.54,6,3.46,5.69.9,12-3.12,15.08s-4,6.66-4,6.66l-.64-1.84a10.37,10.37,0,0,1-.51-4.35,8.55,8.55,0,0,1,.66-2.62c1-2.06-2.08-3.44-2.94-5.15-.66-1.33-.69-4.35-1.73-6.54l-1.24-1.67s-2.85-2.21-5.65-1.58-2.39-9.81,3.27-8.67" transform="translate(1.89 -1)"/><path id="path550" class="cls-23" d="M1518.93,441.62c0,1.75.77,3.17,1.78,3.19s1.86-1.38,1.88-3.12-.76-3.17-1.78-3.19-1.85,1.38-1.88,3.12" transform="translate(1.89 -1)"/><path id="path552" class="cls-21" d="M1571.26,558.6h-57.49V508.73h57.49V558.6" transform="translate(1.89 -1)"/><path id="path554" class="cls-14" d="M1535.49,558.6h-21.72V508.73h21.72V558.6" transform="translate(1.89 -1)"/><path id="path556" class="cls-24" d="M1557.07,551.11c-.64-2.34-1.77-6-1.77-6,.14-3.06,2.84-37.65,2.46-39.12s-12-27.38-12-27.38l-9.8,9.23,11.34,23.5c.09,1.37,1,26.83,1,26.83s.46,7.84.14,8.4a29.51,29.51,0,0,0-3.09,4.38,7.11,7.11,0,0,0-.71,2.82s-.07,2.18.41,2.34a1,1,0,0,0,1.17-.6c.16-.39.09-1.26.25-1.65a3,3,0,0,1,1.79-.94c.28,0,.27,2.66.12,5.2a2,2,0,0,0,1.67,2.06c.43.08.66-.31,1.12.15a3.94,3.94,0,0,0,2.17-.09,4.15,4.15,0,0,0,2.56,0l.31-.07a1.59,1.59,0,0,0,1.22-1.48,15,15,0,0,0,0-2c-.08-.69.33-3.21-.31-5.56" transform="translate(1.89 -1)"/><path id="path558" class="cls-15" d="M1552.1,487.52l-12.83,10s-5.67-5.44-8.52-11.45-2-24.63,1.08-23.8c6.86,1.84,20.27,25.23,20.27,25.23" transform="translate(1.89 -1)"/><path id="path560" class="cls-14" d="M1396.94,566h-16.71V558.6h24.1a7.39,7.39,0,0,1-7.39,7.39" transform="translate(1.89 -1)"/><path id="path562" class="cls-21" d="M1882,665.2h-637.8c-1.67,0-3,.54-3,1.21h0c0,.68,1.35,1.22,3,1.22H1882c1.67,0,3-.54,3-1.22h0c0-.67-1.35-1.21-3-1.21" transform="translate(1.89 -1)"/><path id="path564" class="cls-10" d="M1584.47,294c0,.85-3.93,1.55-8.79,1.55s-8.78-.7-8.78-1.55,3.93-1.54,8.78-1.54,8.79.69,8.79,1.54" transform="translate(1.89 -1)"/><path id="path566" class="cls-10" d="M1575.68,276.73a3.07,3.07,0,1,1,3.07-3.07A3.08,3.08,0,0,1,1575.68,276.73Zm0-10.21c-4,0-7.23,2.89-7.23,6.46s7.23,21,7.23,21,7.24-17.45,7.24-21-3.24-6.46-7.24-6.46" transform="translate(1.89 -1)"/><path id="path568" class="cls-21" d="M1362.62,356.88l-31.9,18.87,24.44,5.54Z" transform="translate(1.89 -1)"/><path id="path570" class="cls-21" d="M1357.45,385.21l-28.59-6.47,11.7,19.78,36.71-21.72-11.39-19.24-8.43,27.65" transform="translate(1.89 -1)"/><path id="path572" class="cls-4" d="M1695.69,284.41c-3.1,6.74-8.32,10.72-15.7,11.5s-13.3-2.1-18.19-7.51l-3,2.05c-.4-5.13-.81-10.17-1.21-15.28l13.84,6.59-3.07,2.13a14.67,14.67,0,0,0,13.43,8c5.89-.11,10.43-2.82,13.91-7.46" transform="translate(1.89 -1)"/><path id="path574" class="cls-4" d="M1657.9,266.73c1.5-5.68,8.61-11,15.7-11.69,7.32-.7,13.27,2.12,18.18,7.54l3-2.06c.41,5.13.81,10.16,1.22,15.27l-13.83-6.59c.89-.61,1.71-1.22,2.58-1.76.5-.31.49-.56.2-1-5.89-9.74-20.12-9.84-27,.33" transform="translate(1.89 -1)"/><path id="path576" class="cls-6" d="M1524.63,484.1h-10.86v-6.22h10.86v6.22" transform="translate(1.89 -1)"/><path id="path578" class="cls-4" d="M1524.63,261.05l-7.81,6.59,7.81,7.83Z" transform="translate(1.89 -1)"/><path id="path580" class="cls-13" d="M1754.5,279.83l-21.29,7,8.07-16.47Z" transform="translate(1.89 -1)"/></svg>