<svg id="Layer_1" data-name="Layer 1" xmlns="http://www.w3.org/2000/svg" viewBox="0 0 84 84"><path d="M37.92,83.72H13A13.15,13.15,0,0,1,.21,74.09,18.84,18.84,0,0,1,0,66.65C1.82,53,8.82,42.93,21.32,37.25,34.43,31.3,47,33,58.71,41.4a2.49,2.49,0,0,0,1.83.49A20.94,20.94,0,1,1,65,83.53c-3.89.34-7.82.17-11.74.18-5.11,0-10.22,0-15.33,0ZM53.2,44c-.2-.14-.31-.23-.43-.3a30.94,30.94,0,0,0-20.7-4.24A31.52,31.52,0,0,0,5,70.49a7.79,7.79,0,0,0,7.9,8q17.45,0,34.91,0c.27,0,.54,0,.89,0C37.77,68.66,40.12,50.82,53.2,44Zm9.54,3A15.76,15.76,0,1,0,78.49,62.7,15.79,15.79,0,0,0,62.74,47Z" transform="translate(0.26 0.26)"/><path d="M20.78,15.46A15.73,15.73,0,1,1,36.46,31.25,15.77,15.77,0,0,1,20.78,15.46Zm5.26,0A10.48,10.48,0,1,0,36.56,5,10.5,10.5,0,0,0,26,15.49Z" transform="translate(0.26 0.26)"/><path d="M60.1,60.09c0-1.8,0-3.45,0-5.1a2.63,2.63,0,1,1,5.25,0c0,1.65,0,3.3,0,5.09.75,0,1.43,0,2.12,0,1.07,0,2.15-.05,3.22,0a2.61,2.61,0,0,1,0,5.22c-1.34.06-2.67,0-4,0H65.42c0,.35,0,.66,0,1,0,1.4,0,2.79,0,4.18a2.63,2.63,0,1,1-5.25,0c0-.84,0-1.68,0-2.53V65.35c-1.73,0-3.37,0-5,0a2.65,2.65,0,0,1-2.67-1.71,2.62,2.62,0,0,1,2.53-3.54c1.34-.05,2.67,0,4,0Z" transform="translate(0.26 0.26)"/></svg>