<?xml version="1.0" encoding="utf-8"?>
<!-- Generator: Adobe Illustrator 24.1.1, SVG Export Plug-In . SVG Version: 6.00 Build 0)  -->
<svg version="1.1" id="Layer_1" xmlns="http://www.w3.org/2000/svg" xmlns:xlink="http://www.w3.org/1999/xlink" x="0px" y="0px"
	 viewBox="0 0 84 84" style="enable-background:new 0 0 84 84;" xml:space="preserve">
<style type="text/css">
	.st0{opacity:0.1;fill:#FFA500;}
	.st1{fill:#FFA500;}
</style>
<path class="st0" d="M72.8,25.3C79.1,31.5,84,40.2,84,49.8c0,19.1-15.4,34.5-34.5,34.5c-10,0-19-5.3-25.3-12
	C24.2,72.2,78.4,85.3,72.8,25.3"/>
<path class="st1" d="M75.1,37.6C75.2,58.2,58.4,75,37.7,75.1C17,75.1,0.3,58.5,0.1,37.8C0,17.2,16.8,0.3,37.5,0.2
	C58.2,0.1,75,16.9,75.1,37.6z M21.8,43.4c4.8,3.4,9.6,6.7,14.4,10.1c6.3-9.6,12.5-19.2,18.7-28.8c-2.5-1.5-4.8-2.9-7.2-4.3
	c-4.3,7.2-8.6,14.4-13,21.6c-2.9-2-5.7-3.8-8.6-5.7C24.6,38.6,23.2,41,21.8,43.4z M38.9,72.2c0-3.4,0-6.7,0-10c-0.9,0-1.8,0-2.6,0
	c0,3.4,0,6.7,0,10C37.2,72.2,38,72.2,38.9,72.2z M38.9,13.1c0-3.4,0-6.6,0-9.9c-0.9,0-1.8,0-2.7,0c0,3.3,0,6.6,0,9.9
	C37.2,13.1,38,13.1,38.9,13.1z M10.2,39c0-1,0-1.9,0-2.8c-2.4,0-4.7,0-7,0c0,1,0,1.8,0,2.8C5.5,39,7.8,39,10.2,39z M72.1,39
	c0-1,0-1.8,0-2.8c-2.4,0-4.7,0-7.1,0c0,0.9,0,1.8,0,2.8C67.4,39,69.7,39,72.1,39z M6.9,53.7c0.5,0.9,1,1.7,1.4,2.5
	c1.3-0.8,2.4-1.4,3.7-2.2c-0.5-0.8-0.9-1.6-1.4-2.5C9.4,52.3,8.3,52.9,6.9,53.7z M68.3,53.7c-1.3-0.8-2.5-1.4-3.8-2.1
	c-0.5,0.9-0.9,1.7-1.4,2.5c1.3,0.8,2.5,1.4,3.7,2.1C67.3,55.3,67.8,54.6,68.3,53.7z M21.6,7c-0.9,0.5-1.7,1-2.5,1.5
	c0.8,1.3,1.5,2.5,2.2,3.7c0.9-0.5,1.6-1,2.5-1.4C23,9.4,22.3,8.3,21.6,7z M53.6,7c-0.8,1.3-1.4,2.5-2.1,3.7c0.9,0.5,1.7,1,2.5,1.4
	c0.8-1.3,1.4-2.5,2.1-3.7C55.2,7.9,54.5,7.5,53.6,7z M8.4,19.1c-0.5,0.9-1,1.7-1.4,2.5c1.3,0.8,2.5,1.4,3.7,2.1
	c0.5-0.9,0.9-1.7,1.4-2.5C10.8,20.5,9.7,19.8,8.4,19.1z M64.5,23.8c1.3-0.7,2.4-1.4,3.7-2.2c-0.5-0.9-1-1.7-1.5-2.5
	c-1.3,0.8-2.4,1.4-3.7,2.2C63.6,22.2,64,22.9,64.5,23.8z M23.7,64.6c-0.9-0.5-1.7-1-2.5-1.4c-0.7,1.3-1.4,2.5-2.1,3.7
	c0.9,0.5,1.7,1,2.5,1.4C22.3,67,23,65.9,23.7,64.6z M56.1,66.9c-0.7-1.3-1.4-2.5-2.1-3.7c-0.8,0.5-1.6,1-2.5,1.5
	c0.7,1.3,1.4,2.5,2.1,3.7C54.5,67.8,55.3,67.4,56.1,66.9z"/>
<path class="st1" d="M73.8,25.3"/>
</svg>
