<?xml version="1.0" encoding="utf-8"?>
<!-- Generator: Adobe Illustrator 24.1.1, SVG Export Plug-In . SVG Version: 6.00 Build 0)  -->
<svg version="1.1" id="Layer_1" xmlns="http://www.w3.org/2000/svg" xmlns:xlink="http://www.w3.org/1999/xlink" x="0px" y="0px"
	 viewBox="0 0 84 84" style="enable-background:new 0 0 84 84;" xml:space="preserve">
<style type="text/css">
	.st0{fill:#FFA500;}
	.st1{fill:none;stroke:#FFA500;stroke-miterlimit:10;}
	.st2{fill:#FFFFFF;stroke:#FFA500;stroke-miterlimit:10;}
</style>
<g>
	<g>
		<path class="st0" d="M33.1,26.1v12.3c0.2,0,0.4,0,0.6,0c2,0,3.9,0,5.8,0c0.3-0.1,0.7,0.1,0.7,0.5c2.3,5.9,8.1,9.6,14.4,9.2
			c1.6-0.1,3.2-0.5,4.7-1.2c0.2-0.2,0.6-0.1,0.8,0.1c0.4,0.5,0.9,1,1.4,1.5l0.5-0.4c0.7,0.9,1.4,1.9,2.2,2.7
			c0.5,0.6,0.8,1.3,0.7,2.1c-0.1,1.7,0,3.4,0,5.1c0.1,2.4-1.8,4.4-4.2,4.5c-0.1,0-0.2,0-0.4,0H27.7c-1.7,0-3.4,0-5,0
			c-2.4,0.1-4.4-1.8-4.5-4.1c0-0.1,0-0.3,0-0.4c0-9.1,0-18.2,0-27.4c-0.1-2.4,1.7-4.4,4.1-4.5c0.1,0,0.3,0,0.4,0c3.3,0,6.7,0,10,0
			C32.8,26,32.9,26.1,33.1,26.1z M50,58.5h8.9c1,0,1.4-0.4,1.4-1.4c0-2.2,0-4.3,0-6.4c0-1-0.4-1.4-1.4-1.4H41.1
			c-1,0-1.5,0.4-1.5,1.4V57c0,1.1,0.4,1.5,1.5,1.5L50,58.5z M33.1,58v-6.4l1.2-0.1l-2.5-4l-2.5,4.1h1.4V58H33.1z M24.3,58h2.4v-6.4
			l1.3-0.1l-2.5-4L23,51.5h1.3V58z"/>
		<path class="st0" d="M62.4,45.4L62,45.7L61.7,46l-1.4-1.6c-3.3,2.1-7.4,2.5-11.1,1.1c-2.8-1-5.1-2.9-6.6-5.5
			c-3.5-6-1.5-13.8,4.6-17.3s13.8-1.5,17.3,4.6c2.4,4.1,2.3,9.2-0.3,13.2l1.5,1.3l-0.7,0.7l0.6,0.5l9,7.3c1,0.8,1.5,2.1,1.2,3.4
			c-0.2,1.2-1.1,2.2-2.3,2.5c-1.2,0.4-2.6,0-3.4-1c-1.5-1.8-3-3.7-4.5-5.5C64.7,48.2,63.5,46.8,62.4,45.4z M63,33.5
			c0-5.2-4.1-9.4-9.3-9.5c-5.3,0-9.5,4.2-9.6,9.5c0.1,5.2,4.5,9.3,9.7,9.2C58.9,42.6,62.9,38.5,63,33.5L63,33.5z"/>
		<path class="st0" d="M39.5,36.5H35V26.1h6.2C39.3,29.2,38.7,32.9,39.5,36.5z"/>
		<path class="st0" d="M49.5,57.1h-1.3v-6.4h1.3V57.1z"/>
		<path class="st0" d="M54.4,57.1h-1.3v-6.5h1.3V57.1z"/>
		<path class="st0" d="M44.3,50.7h1.3v6.4h-1.3V50.7z"/>
		<path class="st0" d="M42,50.7h0.7v6.4H42V50.7z"/>
		<path class="st0" d="M52.6,57.1h-0.7v-6.4h0.7V57.1z"/>
		<path class="st0" d="M55.5,57.1h-0.6v-6.4h0.6V57.1z"/>
		<path class="st0" d="M56.7,57.1H56v-6.4h0.6V57.1z"/>
		<path class="st0" d="M43.7,57.1h-0.7v-6.4h0.7V57.1z"/>
		<path class="st0" d="M47.7,57.1h-0.6v-6.4h0.6V57.1z"/>
		<path class="st0" d="M51.4,57.1h-0.7v-6.4h0.7V57.1z"/>
		<path class="st0" d="M57.9,57.1h-0.7v-6.4h0.7V57.1z"/>
	</g>
	<circle class="st1" cx="42.1" cy="42" r="41.5"/>
	<g>
		<circle class="st2" cx="13.5" cy="13.4" r="12.9"/>
		<g>
			<path d="M7.9,17.2l3.1-0.4c0.1,0.8,0.4,1.4,0.8,1.8c0.4,0.4,0.9,0.6,1.6,0.6c0.7,0,1.2-0.2,1.7-0.7c0.4-0.5,0.7-1.2,0.7-2
				c0-0.8-0.2-1.4-0.6-1.9c-0.4-0.5-1-0.7-1.6-0.7c-0.4,0-0.9,0.1-1.5,0.2l0.3-2.6c0.9,0,1.5-0.2,2-0.6c0.5-0.4,0.7-0.9,0.7-1.6
				c0-0.6-0.2-1-0.5-1.3c-0.3-0.3-0.8-0.5-1.3-0.5c-0.5,0-1,0.2-1.4,0.6c-0.4,0.4-0.6,0.9-0.7,1.6L8.2,9.3c0.2-1,0.5-1.8,0.9-2.4
				c0.4-0.6,1-1.1,1.7-1.4C11.5,5.2,12.3,5,13.3,5c1.6,0,2.8,0.5,3.7,1.5c0.8,0.8,1.2,1.7,1.2,2.8c0,1.5-0.8,2.6-2.4,3.5
				c0.9,0.2,1.7,0.7,2.3,1.4c0.6,0.7,0.9,1.6,0.9,2.6c0,1.5-0.5,2.7-1.6,3.7c-1.1,1-2.4,1.5-4,1.5c-1.5,0-2.7-0.4-3.7-1.3
				C8.6,19.7,8.1,18.6,7.9,17.2z"/>
		</g>
	</g>
</g>
</svg>
