<?xml version="1.0" encoding="utf-8"?>
<!-- Generator: Adobe Illustrator 24.1.1, SVG Export Plug-In . SVG Version: 6.00 Build 0)  -->
<svg version="1.1" id="Layer_1" xmlns="http://www.w3.org/2000/svg" xmlns:xlink="http://www.w3.org/1999/xlink" x="0px" y="0px"
	 viewBox="0 0 84 83.8" style="enable-background:new 0 0 84 83.8;" xml:space="preserve">
<style type="text/css">
	.st0{fill:#FEFEFE;}
	.st1{opacity:0.8;fill:#FFA500;}
	.st2{opacity:0.9;fill:#FFA500;}
	.st3{fill:#FFA500;}
	.st4{fill:none;stroke:#FFA500;stroke-width:2;stroke-miterlimit:10;}
</style>
<g>
	<path class="st0" d="M3.9,0.8L3.9,0.8L3.9,0.8z"/>
	<path class="st0" d="M84,0.9C84,0.8,83.9,0.8,84,0.9C83.9,0.8,84,0.8,84,0.9z"/>
	<path class="st0" d="M3.9,69.6L3.9,69.6L3.9,69.6z"/>
	<path class="st1" d="M21,33.9c0.6-0.3,1.1-0.7,1.7-1c4.4-2.6,8.8-4.6,13.2-7.3c0.2-0.1,0.3-0.1,0.5,0c4.9,2.9,9.7,5.2,14.6,8.1
		c0.1,0.1,0.2,0.1,0.3,0.2c-0.7,0.4-1.4,0.8-2.1,1.2c-4.3,2.5-8.5,5-12.8,7.6c-0.1,0.1-0.2,0.1-0.4,0c-4.9-2.9-9.8-5.8-14.7-8.7
		C21.1,34,21.1,34,21,33.9z"/>
	<path class="st2" d="M37.5,61.4c0-0.1,0-0.2,0-0.3c0-5.3,0-10.7,0-16c0-0.2,0.1-0.3,0.2-0.4c4.8-2.8,9.6-5.6,14.4-8.5
		c0.1,0,0.1-0.1,0.3-0.1c0,0.1,0,0.2,0,0.3c0,5.4,0,10.8,0,16.2c0,0.2-0.1,0.4-0.3,0.5c-4.8,2.7-9.5,5.4-14.3,8.2
		C37.7,61.3,37.6,61.3,37.5,61.4z"/>
	<path class="st3" d="M19.8,36.1c1.1,0.6,2.1,1.2,3,1.8c3.9,2.3,7.7,4.5,11.6,6.8c0.1,0.1,0.2,0.2,0.2,0.4c0,5.4,0,10.8,0,16.2
		c0,0,0,0.1,0,0.2c-0.1,0-0.2-0.1-0.2-0.1c-4.8-2.7-9.6-5.5-14.4-8.2c-0.1-0.1-0.2-0.2-0.2-0.3c0-5.5,0-10.9,0-16.4
		C19.8,36.2,19.8,36.2,19.8,36.1z"/>
	<circle class="st4" cx="36.7" cy="44.4" r="32.4"/>
	<path class="st3" d="M75.5,80.6l-1.6,1.6c-0.6,0.6-1.5,0.6-2,0L58.6,68.9l3.6-3.6l13.3,13.3C76.1,79.1,76.1,80,75.5,80.6z"/>
</g>
</svg>
