<?xml version="1.0" encoding="utf-8"?>
<!-- Generator: Adobe Illustrator 24.1.1, SVG Export Plug-In . SVG Version: 6.00 Build 0)  -->
<svg version="1.1" id="Layer_1" xmlns="http://www.w3.org/2000/svg" xmlns:xlink="http://www.w3.org/1999/xlink" x="0px" y="0px"
	 viewBox="0 0 84 84" style="enable-background:new 0 0 84 84;" xml:space="preserve">
<style type="text/css">
	.st0{fill:#68C044;}
	.st1{fill:#ED2061;}
	.st2{fill:#C71E54;}
	.st3{fill:#EEF0F5;}
	.st4{fill:#DAE1EA;}
	.st5{fill:#241B51;}
	.st6{fill:#FFA500;}
</style>
<g>
	<g>
		<path class="st0" d="M19.9,10h22.5c0.7,0,1.2-0.5,1.2-1.2s-0.5-1.2-1.2-1.2H19.9c-4.3,0-7.8,3.5-7.8,7.8v12.6l-1-1
			c-0.5-0.5-1.3-0.5-1.7,0c-0.5,0.5-0.5,1.3,0,1.7l3.1,3.1c0.2,0.2,0.6,0.4,0.9,0.4s0.6-0.1,0.9-0.4l3.1-3.1c0.5-0.5,0.5-1.3,0-1.7
			c-0.5-0.5-1.3-0.5-1.7,0l-1,1V15.3C14.5,12.4,16.9,10,19.9,10z"/>
		<path class="st1" d="M67.9,51.7l-3.1-3.1c-0.5-0.5-1.3-0.5-1.7,0L60,51.7c-0.5,0.5-0.5,1.3,0,1.7c0.5,0.5,1.3,0.5,1.7,0l1-1v17.8
			c0,3-2.4,5.3-5.4,5.3H30.5c-0.7,0-1.2,0.5-1.2,1.2s0.5,1.2,1.2,1.2h26.8c4.3,0,7.8-3.5,7.8-7.8V52.4l1,1c0.2,0.2,0.6,0.4,0.9,0.4
			c0.3,0,0.6-0.1,0.9-0.4C68.4,53,68.4,52.2,67.9,51.7z"/>
	</g>
	<g>
		<path class="st1" d="M84,20.6c0,8.9-5.9,16.7-14.4,19.2l-4.8,4.8C64.6,44.9,64.3,45,64,45c0,0,0,0-0.1,0c-0.3,0-0.6-0.1-0.9-0.4
			l-4.8-4.8c-8.5-2.5-14.4-10.3-14.4-19.2c0-10.2,7.7-18.7,17.6-19.9c0.8-0.1,1.6-0.1,2.4-0.1C75,0.6,84,9.6,84,20.6L84,20.6z"/>
		<path class="st2" d="M84,20.6c0,8.9-5.9,16.7-14.4,19.2l-4.8,4.8C64.6,44.9,64.3,45,64,45l0.7-5.2c8.5-2.5,14.4-10.3,14.4-19.2
			c0-10.2-7.7-18.7-17.6-19.9c0.8-0.1,1.6-0.1,2.4-0.1C75,0.6,84,9.6,84,20.6L84,20.6z"/>
		<path class="st3" d="M75.4,20.6c0,6.3-5.2,11.5-11.5,11.5c-0.8,0-1.7-0.1-2.4-0.3c-5.2-1.1-9-5.7-9-11.2c0-5.5,3.9-10.1,9-11.2
			c0.8-0.2,1.6-0.3,2.4-0.3C70.3,9.2,75.4,14.3,75.4,20.6z"/>
		<path class="st4" d="M75.4,20.6c0,6.3-5.2,11.5-11.5,11.5c-0.8,0-1.7-0.1-2.4-0.3c5.2-1.1,9-5.7,9-11.2c0-5.5-3.9-10.1-9-11.2
			c0.8-0.2,1.6-0.3,2.4-0.3C70.3,9.2,75.4,14.3,75.4,20.6z"/>
	</g>
</g>
<path class="st5" d="M23.2,37h-8.3l-0.8-3.3H24L23.2,37z"/>
<g>
	<path class="st6" d="M27.2,70v9.9c0,1.8-1.5,3.3-3.3,3.3H4.1c-1.8,0-3.3-1.5-3.3-3.3V37c0-1.8,1.5-3.3,3.3-3.3h19.8
		c1.8,0,3.3,1.5,3.3,3.3v32.9"/>
	<g>
		<path class="st5" d="M9.9,79H4.1c-0.5,0-0.8,0.4-0.8,0.8c0,0.5,0.4,0.8,0.8,0.8h5.8c0.5,0,0.8-0.4,0.8-0.8
			C10.7,79.4,10.4,79,9.9,79z"/>
		<path class="st5" d="M13.1,79h-0.8c-0.5,0-0.8,0.4-0.8,0.8c0,0.5,0.4,0.8,0.8,0.8h0.8c0.5,0,0.8-0.4,0.8-0.8
			C13.9,79.4,13.6,79,13.1,79z"/>
		<path class="st5" d="M28.1,40.3V37c0-2.3-1.8-4.1-4.1-4.1H4.1C1.8,32.8,0,34.7,0,37v42.9C0,82.2,1.8,84,4.1,84h19.8
			c2.3,0,4.1-1.8,4.1-4.1V70c0-0.1,0-0.1,0-0.2 M26.4,79.9c0,1.4-1.1,2.5-2.5,2.5H4.1c-1.4,0-2.5-1.1-2.5-2.5V37
			c0-1.4,1.1-2.5,2.5-2.5h4.3l0.7,2.7c0.1,0.4,0.4,0.6,0.8,0.6h8.3c0.4,0,0.7-0.3,0.8-0.6l0.7-2.7h4.3c1.4,0,2.5,1.1,2.5,2.5v3.3
			V79.9z"/>
	</g>
</g>
</svg>
