<?xml version="1.0" encoding="utf-8"?>
<!-- Generator: Adobe Illustrator 24.1.1, SVG Export Plug-In . SVG Version: 6.00 Build 0)  -->
<svg version="1.1" id="Layer_1" xmlns="http://www.w3.org/2000/svg" xmlns:xlink="http://www.w3.org/1999/xlink" x="0px" y="0px"
	 viewBox="0 0 84 84" style="enable-background:new 0 0 84 84;" xml:space="preserve">
<style type="text/css">
	.st0{fill:#FFA500;}
	.st1{fill:#40494C;}
	.st2{fill:#DA0304;}
	.st3{fill:#AE0404;}
	.st4{fill:#FCA703;}
	.st5{fill:#FA0101;}
	.st6{fill:#F40302;}
	.st7{fill:#E6E5E5;}
	.st8{fill:#313131;}
	.st9{fill:#858F90;}
	.st10{fill:#080909;}
	.st11{fill:#8A0102;}
	.st12{fill:#989898;}
	.st13{fill:#397786;}
	.st14{fill:#255C6F;}
	.st15{fill:#F50101;}
	.st16{fill:#BBBBBB;}
	.st17{fill:#111224;}
	.st18{fill:#F2D497;}
	.st19{fill:none;stroke:#F2D497;stroke-miterlimit:10;}
	.st20{fill:#FFFFFF;}
	.st21{fill:#B7B6B3;}
	.st22{fill:#2DCFEA;}
	.st23{fill:#FDFDFD;}
</style>
<g>
	<path class="st0" d="M42,0.2C19.8,0.2,1.6,17.4,0.1,39.3c0.5-0.5,1-0.9,1.5-1.4c0.1-0.1,0.2-0.2,0.3-0.4c0-0.1-0.1-0.3,0-0.4
		c0-0.1,0.2-0.1,0.3-0.1c0.1,0,0.2,0,0.3,0.1c0.5-0.5,1.1-1,1.6-1.4c-0.1-0.5,0-0.5,0.5-0.5c0.6-0.5,1.2-1.1,1.7-1.6
		c0-0.1,0-0.1,0-0.2c0,0,0,0,0-0.1c0-0.3,0.1-0.4,0.4-0.3c0.1,0,0.2,0,0.2,0C7.5,32.5,8,32,8.6,31.5c0.1,0,0.1,0,0.2,0
		c0.1,0.1,0.2,0.1,0.4,0.2c1.9,0.6,3.7,1.2,5.6,1.8c6.7,2.1,13.5,4.3,20.2,6.4c0.1,0,0.3,0.1,0.4,0.2c0.1,0,0.3,0,0.4,0.1
		c0.5,0.4,1,0.8,1.4,1.2c1.8,2,3.5,4.1,5.3,6.2c0.2,0.2,0.4,0.4,0.6,0.5c1.7,1.2,3.4,2.3,5.1,3.5c0.4,0.3,0.7,0.6,1,0.9
		c0.3,0,0.6,0.2,0.7,0.4c0.3,0.5,0.6,1,0.9,1.5c0.1,0.3,0.1,0.6,0.2,0.9c0.1,0.1,0.3,0.3,0.4,0.4c0.2,1.1,0.5,2.1,0.7,3.2
		c-0.1,0.4-0.2,0.8-0.4,1.2c-0.2,0.2-0.4,0.4-0.6,0.6c-1.6,1.5-3.2,3-4.9,4.4c-1.7,1.5-3.4,3.1-5.1,4.6c-0.5,0.4-1,0.7-1.6,0.6
		c-0.5-0.1-1-0.2-1.4-0.3c-0.6-0.2-1.1-0.3-1.7-0.5c-0.3,0.2-0.5,0.5-0.8,0.7c-0.6,0.7-1.4,0.9-2.2,0.7c-2-0.6-3.3-1.9-4-3.9l0,0
		c-0.3,0-0.6-0.1-0.9-0.1c-0.1,0-0.3-0.1-0.4-0.1c-0.7-0.2-1.4-0.4-2.2-0.6c-0.9-0.3-1.8-0.6-2.7-0.8c-0.2-0.1-0.4-0.1-0.5-0.2
		c-0.2-0.8-0.4-1.7-0.5-2.5h0c0.2,0.8,0.4,1.7,0.5,2.5c-1.6-0.5-3.2-1-4.7-1.5c-2.2-0.7-4.4-1.4-6.6-2.1c-0.1,0-0.2-0.1-0.3-0.1
		c-0.2,0-0.4,0-0.6,0c-0.3,0.3-0.7,0.6-1,0.9c-0.6,0.7-1.3,0.8-2.1,0.6c-1-0.2-2-0.9-2.7-1.7c6.9,13.6,21.1,23,37.4,23
		c23.2,0,42-18.8,42-42C84,19,65.2,0.2,42,0.2z"/>
	<path d="M79.1,61.6c-6.8,13.9-20.2,22.6-36.9,22.6c-16.9,0-31.4-9.9-38.1-24.1"/>
	<g>
		
			<image style="overflow:visible;" width="252" height="200" xlink:href="../../../../shipbay files/images/track-order.png"  transform="matrix(2.887286e-02 -6.346757e-03 6.346757e-03 2.887286e-02 19.0313 58.8993)">
		</image>
		<path class="st0" d="M7.6,45.2c0.1,0,0.1,0.1,0.2,0.1c0.4,0.1,0.8,0.3,1.2,0.4c-0.4-0.1-0.8-0.3-1.2-0.4
			C7.7,45.3,7.7,45.2,7.6,45.2z"/>
		<path class="st0" d="M24,50.3c0.2-0.2,0.4-0.5,0.7-0.7C24.4,49.8,24.2,50.1,24,50.3L24,50.3z"/>
		<path class="st0" d="M43.7,49.6c-0.5-0.3-0.9-0.6-1.4-0.9c0-0.1-0.1-0.3-0.1-0.4c0,0.1,0.1,0.3,0.1,0.4
			C42.8,49,43.2,49.3,43.7,49.6z"/>
		<path class="st0" d="M31.8,46.8c-0.7,0.7-1.5,1.3-2.2,2c-0.8,0.7-1.6,1.5-2.5,2.2c0.8-0.7,1.6-1.5,2.5-2.2
			C30.3,48.1,31,47.5,31.8,46.8z"/>
		<path class="st0" d="M25.6,63.7c-1.1-0.3-2.2-0.7-3.3-1c-0.1,0-0.2-0.1-0.3-0.1c0.1,0,0.2,0.1,0.3,0.1
			C23.4,63,24.5,63.4,25.6,63.7z"/>
		<path class="st0" d="M36.5,42.5c-1,0.9-2.1,1.9-3.1,2.9c-0.5,0.5-1.1,1-1.6,1.5c0.5-0.5,1.1-1,1.6-1.5
			C34.4,44.4,35.4,43.4,36.5,42.5z"/>
		<path class="st0" d="M35.4,55.8c-0.9,0.6-1.8,1.2-2.6,1.9C33.6,57,34.5,56.4,35.4,55.8L35.4,55.8z"/>
		<path class="st0" d="M31.4,64c0.1,0,0.3,0.1,0.4,0.1C31.6,64.1,31.5,64.1,31.4,64c-0.4-0.4-1-0.3-1.5-0.1
			C30.4,63.7,31,63.7,31.4,64z"/>
		<path class="st0" d="M30.9,66.9c-0.1-0.2-0.3-0.3-0.4-0.5C30.6,66.6,30.7,66.7,30.9,66.9C30.9,66.9,30.9,66.9,30.9,66.9z"/>
		<path class="st0" d="M34,69.8c-0.1,0.1-0.1,0.1-0.2,0.2C33.9,69.9,34,69.9,34,69.8c0.2-0.1,0.3-0.3,0.4-0.5
			C34.4,69.5,34.3,69.7,34,69.8z"/>
		<path class="st0" d="M42.1,49.3c0.1-0.1,0.1-0.2,0.2-0.3C42.2,49.1,42.2,49.2,42.1,49.3c-0.1,0.1-0.1,0.2-0.2,0.2
			C42,49.4,42,49.4,42.1,49.3z"/>
		<path class="st0" d="M40.3,62.1c0.1,0,0.1,0,0.2,0C40.4,62.1,40.3,62.1,40.3,62.1L40.3,62.1z"/>
		<path class="st0" d="M31.8,66.5c0.2,0,0.4,0,0.6,0.1C32.2,66.6,32,66.5,31.8,66.5z"/>
		<path class="st0" d="M11.8,46.6c0.9,0.3,1.7,0.5,2.6,0.8C13.6,47.1,12.7,46.8,11.8,46.6L11.8,46.6z"/>
		<path class="st0" d="M19,48.8c-1.5-0.5-3-1-4.6-1.5C16,47.9,17.5,48.3,19,48.8c0.2,0,0.4,0,0.6,0.1C19.4,48.8,19.2,48.9,19,48.8z"
			/>
		<path class="st0" d="M11.9,58.9c-0.1,0.1-0.1,0.2-0.1,0.2C11.8,59.1,11.9,59,11.9,58.9c0.1,0,0.2,0,0.3-0.1
			C12.1,58.9,12,58.9,11.9,58.9z"/>
		<path class="st0" d="M29.1,56.7c0.1,0.1,0.2,0.1,0.2,0.2C29.3,56.8,29.2,56.8,29.1,56.7L29.1,56.7z"/>
		<path class="st0" d="M27.4,57.4c0-0.1-0.1-0.2-0.2-0.3C27.3,57.3,27.4,57.3,27.4,57.4z"/>
		<path class="st0" d="M21.5,61.9c0.1,0,0.2,0,0.3,0c0,0,0,0,0.1,0c0,0,0,0-0.1,0C21.8,61.8,21.6,61.9,21.5,61.9z"/>
		<path class="st0" d="M22,61.3c0,0.1,0,0.2,0,0.2C22,61.5,22,61.4,22,61.3z"/>
		<path class="st0" d="M32.4,57.7c0.1,0,0.2,0.1,0.3,0.1c0,0,0.1,0.1,0.1,0.2c0-0.1-0.1-0.1-0.1-0.2C32.6,57.8,32.5,57.8,32.4,57.7z
			"/>
		<path class="st0" d="M26.8,63.7c0,0.1,0,0.1-0.1,0.2C26.7,63.8,26.7,63.7,26.8,63.7L26.8,63.7z"/>
		<path class="st0" d="M30.5,60.7c-0.1-0.3-0.1-0.6-0.2-1c0,0,0,0,0,0C30.3,60.1,30.4,60.4,30.5,60.7z"/>
		<path class="st0" d="M38.4,62.6c-0.2,0.1-0.5,0.2-0.7,0.3c-0.1-0.2-0.2-0.3-0.3-0.5c0.1,0.2,0.2,0.3,0.3,0.5
			C37.9,62.8,38.1,62.7,38.4,62.6z"/>
		<path class="st0" d="M30.8,57.5L30.8,57.5c0,0.3,0.1,0.5,0.1,0.8C30.8,58.1,30.8,57.8,30.8,57.5z"/>
		<path class="st0" d="M42.3,48.9L42.3,48.9c0.5,0.3,1.1,0.7,1.6,1C43.4,49.6,42.8,49.3,42.3,48.9z"/>
		<path class="st0" d="M38.7,51.5c-0.2-0.1-0.4-0.2-0.6-0.2C38.3,51.3,38.5,51.4,38.7,51.5c0.9-0.6,1.8-1.2,2.6-1.8
			C40.4,50.3,39.6,50.9,38.7,51.5z"/>
		<path class="st0" d="M20.6,50.5c0.1,0,0.2,0,0.3,0C20.8,50.4,20.7,50.5,20.6,50.5c0.3,1.4,0.6,2.9,0.9,4.3
			C21.2,53.4,20.9,51.9,20.6,50.5z"/>
		<path class="st0" d="M4.9,58.9c-0.1-0.2-0.2-0.4-0.3-0.7C4.7,58.5,4.8,58.7,4.9,58.9C4.9,58.9,4.9,58.9,4.9,58.9z"/>
		<path class="st0" d="M48.2,57.6c0.1,0,0.2-0.1,0.2-0.1C48.3,57.5,48.3,57.5,48.2,57.6c-0.6,0.6-1.2,1.2-1.9,1.8
			C46.9,58.8,47.5,58.2,48.2,57.6z"/>
		<path class="st0" d="M0.6,49.2L0.6,49.2C0.6,49.2,0.6,49.2,0.6,49.2C0.6,49.2,0.6,49.2,0.6,49.2z"/>
		<path class="st1" d="M48.4,57.4c-0.1,0.1-0.2,0.1-0.2,0.1c-0.6,0.6-1.2,1.2-1.9,1.8c-1.1,1-2.2,2-3.3,3c-0.3,0.3-0.7,0.6-1.1,0.8
			c0,0.1-0.1,0.2-0.1,0.3c-0.8,0.7-1.6,1.5-2.4,2.2c-0.4,0.4-1,0.7-1.6,0.6c-0.8-0.2-1.6-0.5-2.4-0.8c-0.3-0.1-0.5-0.5-0.7-0.7
			c-1.1-1.1-2.5-1.8-4.1-2c-1.2-0.1-1.9,0.4-2.2,1.6c-0.2,0.9-0.1,1.7,0.1,2.6c0.3,0,0.6,0.1,0.9,0.1c0-0.2-0.1-0.4-0.1-0.6
			c-0.1-0.6-0.1-1.2,0.1-1.8c0.1-0.3,0.3-0.6,0.6-0.7c0.5-0.3,1.1-0.3,1.5,0.1c0.1,0,0.3,0.1,0.4,0.1s0.3,0.1,0.4,0.1
			c1.8,0.9,2.9,2.4,3.6,4.3c0.1,0.3,0.3,0.7,0.5,1c0.6,0.2,1.1,0.4,1.7,0.5c0.5,0.1,1,0.3,1.4,0.3c0.6,0.1,1.2-0.2,1.6-0.6
			c1.7-1.5,3.4-3.1,5.1-4.6c1.6-1.5,3.3-3,4.9-4.4c0.2-0.2,0.4-0.4,0.6-0.6c0.1-0.4,0.2-0.8,0.4-1.2c-0.2-1.1-0.5-2.1-0.7-3.2
			c-0.1-0.1-0.3-0.3-0.4-0.4c-0.1,0.1-0.2,0.1-0.3,0.2C49.8,56.1,49.1,56.8,48.4,57.4z M43.6,62.7c1.3-1.2,2.6-2.4,4-3.7
			c0.1,0.6,0.3,1.2,0.4,1.8c0,0.1-0.1,0.2-0.1,0.2c-1.3,1.2-2.6,2.4-3.9,3.5c0,0-0.1,0-0.2,0.1c-0.1-0.6-0.3-1.1-0.4-1.6
			C43.4,62.9,43.5,62.8,43.6,62.7z M50.9,59c0.2,0.5,0.1,0.9-0.1,1.2c-0.2,0.3-0.5,0.7-0.8,0.9c-1.7,1.5-3.4,3.1-5,4.6
			c-1,0.9-2.1,1.8-3.1,2.8c-0.4,0.4-0.9,0.4-1.4,0.1C43.9,65.4,47.4,62.3,50.9,59z"/>
		<path class="st2" d="M14.6,35.6c1.2,0.4,2.4,0.8,3.7,1.2c0.9,0.3,1.9,0.6,2.8,0.9c0.8,0.2,1.5,0.5,2.3,0.7c0.7,0.2,1.4,0.4,2,0.6
			c1.2,0.4,2.4,0.8,3.6,1.2c1.2,0.4,2.3,0.7,3.5,1.1c0.3,0.1,0.7,0.2,1.1,0.3c0.6-0.5,1.2-1,1.7-1.5c-0.1-0.1-0.3-0.2-0.4-0.2
			c-6.7-2.1-13.5-4.3-20.2-6.4c-1.9-0.6-3.7-1.2-5.6-1.8c-0.1,0-0.3-0.1-0.4-0.2c-0.1,0-0.1,0-0.2,0C8,32,7.5,32.5,6.9,33.1
			c0,0-0.1,0-0.2,0c1.4,0.4,2.8,0.9,4.2,1.3C12.2,34.8,13.4,35.2,14.6,35.6z"/>
		<path class="st3" d="M12.2,59.5c-0.2-0.1-0.4-0.1-0.4-0.3c0-0.1,0-0.1,0.1-0.2c0.1,0,0.2,0,0.3-0.1s0.2,0,0.2,0
			c2.4,0.7,4.8,1.5,7.2,2.3c0.7,0.2,1.5,0.5,2.2,0.7c-0.2-1.1-0.5-2.3-0.7-3.4c-0.7-3.2-1.4-6.3-2.1-9.5c-1.5-0.5-3-1-4.6-1.5
			c-0.9-0.3-1.7-0.5-2.6-0.8c1.2,1.7,2.4,3.3,3.5,5c1.7,2.4,3.4,4.7,5.1,7.2c-0.2,0-0.2,0-0.3-0.1c-6.3-2-12.6-4-18.9-6
			c0.3,1.1,0.6,2.2,1,3.3c0,0,0.1-0.1,0.1-0.1c0.4-1.1,1.3-1.4,2.4-1.2c2.6,0.4,4.4,2,5.4,4.3c0.3,0.6,0.5,1.3,0.7,2
			c0,0.1,0,0.3,0,0.4c0.1,0,0.2,0.1,0.3,0.1c2.2,0.7,4.4,1.4,6.6,2.1c1.6,0.5,3.2,1,4.7,1.5c-0.2-0.8-0.4-1.7-0.5-2.5
			c-1.6-0.5-3.2-1-4.8-1.5C15.5,60.5,13.9,60,12.2,59.5z"/>
		<path class="st2" d="M11.8,46.6c0.9,0.3,1.7,0.5,2.6,0.8c1.5,0.5,3,1,4.6,1.5c0.2,0,0.4,0,0.6,0.1c1.3,0.4,2.6,0.8,3.9,1.2
			c0.2,0.1,0.3,0.1,0.5,0.2c0.2-0.2,0.4-0.5,0.7-0.7c0.5-0.4,0.9-0.8,1.4-1.2c-0.1-0.1-0.2-0.2-0.3-0.2c-2.4-0.8-4.9-1.6-7.3-2.3
			c-1.6-0.5-3.1-1-4.7-1.5c-1.4-0.4-2.8-0.9-4.2-1.3c-0.7-0.2-1.3-0.4-2-0.6c-1.2-0.4-2.4-0.8-3.7-1.2c-1.2-0.4-2.3-0.7-3.5-1.1
			c-0.1,0-0.2-0.1-0.3-0.1C0,40.8,0,41.5,0,42.2c0,0.2,0,0.4,0,0.6c1.2,0.4,2.3,0.7,3.5,1.1c1.3,0.4,2.6,0.8,3.9,1.2
			c0.1,0,0.1,0.1,0.2,0.1c0.1,0,0.1,0.1,0.2,0.1c0.4,0.1,0.8,0.3,1.2,0.4c0.5,0.1,0.9,0.3,1.4,0.4C10.9,46.3,11.4,46.4,11.8,46.6z"
			/>
		<path class="st3" d="M13.1,53.1c0.1,0,0.2,0,0.4,0.1c-0.7-1-1.4-1.9-2-2.8C10.3,48.7,9,47,7.8,45.3c-0.1,0-0.1-0.1-0.2-0.1
			c-0.1,0-0.1-0.1-0.2-0.1c-1.3-0.4-2.6-0.8-3.9-1.2c-1.2-0.4-2.3-0.7-3.5-1.1c0,2.2,0.2,4.3,0.6,6.4c0,0,0,0,0,0
			C4.8,50.5,9,51.8,13.1,53.1z M1.1,44.8C2.4,45.2,3.7,45.6,5,46c0.1,0,0.3,0.2,0.3,0.3c0.1,0.4,0.2,0.8,0.3,1.2c0,0,0,0,0,0
			c0.1,0.4,0.2,0.8,0.3,1.2c0.1,0.3,0,0.4-0.3,0.3c-1.3-0.4-2.7-0.8-4-1.3c-0.1,0-0.3-0.2-0.3-0.3c-0.2-0.8-0.4-1.6-0.5-2.4
			C0.7,44.8,0.8,44.7,1.1,44.8z"/>
		<path class="st2" d="M0.1,39.3c-0.1,0.1-0.1,0.1-0.2,0.2c0.1,0,0.1,0,0.2,0C0.1,39.4,0.1,39.3,0.1,39.3z"/>
		<path class="st2" d="M3.6,40.6c1.9,0.6,3.7,1.2,5.6,1.8c1.2,0.4,2.5,0.8,3.7,1.1c1.2,0.4,2.4,0.8,3.6,1.2c1.8,0.6,3.7,1.1,5.5,1.7
			c1.4,0.4,2.7,0.9,4.1,1.4c0.1,0,0.2,0,0.3,0.1c0.2-0.2,0.5-0.4,0.7-0.6c0.5-0.4,0.9-0.8,1.3-1.3c-0.8-0.3-1.6-0.5-2.4-0.8
			c-1.1-0.3-2.1-0.7-3.2-1c-1.1-0.4-2.3-0.7-3.4-1.1c-1.3-0.4-2.6-0.8-3.9-1.2c-1.5-0.5-3-0.9-4.5-1.4c-1-0.3-2-0.6-2.9-1
			c-2-0.6-4-1.2-6-1.9c-0.1,0-0.2-0.1-0.3-0.2c-0.1,0.1-0.2,0.2-0.3,0.4c-0.5,0.5-1,0.9-1.5,1.4c0,0.1,0,0.1,0,0.2
			C1.3,39.8,2.5,40.2,3.6,40.6z"/>
		<path class="st2" d="M8.5,36.4c1.5,0.5,3.1,1,4.6,1.5c1.1,0.3,2.2,0.7,3.3,1.1c1.7,0.5,3.4,1.1,5.1,1.6c1.2,0.4,2.5,0.8,3.7,1.2
			c1.4,0.4,2.8,0.9,4.2,1.3c0.6,0.2,1.2,0.4,1.8,0.6c0.3-0.3,0.6-0.6,1-0.8c0.3-0.2,0.5-0.5,0.8-0.7c-0.5-0.2-1-0.4-1.4-0.5
			c-0.7-0.2-1.3-0.4-2-0.6c-1.5-0.5-3.1-1-4.6-1.5c-1.1-0.3-2.1-0.7-3.2-1c-1.3-0.4-2.7-0.8-4-1.2c-1-0.3-2.1-0.7-3.1-1
			c-1.5-0.5-3.1-1-4.6-1.5c-1.2-0.4-2.4-0.8-3.6-1.1c-0.6,0.5-1.2,1.1-1.7,1.6c0.9,0.3,1.8,0.6,2.7,0.8C7.7,36.2,8.1,36.3,8.5,36.4z
			"/>
		<path class="st2" d="M7.7,38.7c2,0.6,4,1.2,5.9,1.9c1.2,0.4,2.4,0.8,3.6,1.2c1,0.3,2,0.6,3,0.9c1.3,0.4,2.5,0.8,3.8,1.2
			c1.1,0.4,2.3,0.7,3.4,1.1c0.5,0.2,1,0.4,1.5,0.5c0.5-0.4,1-0.8,1.5-1.3c0,0,0-0.1,0.1-0.2c-1.1-0.4-2.3-0.8-3.4-1.1
			c-1.2-0.4-2.4-0.7-3.5-1.1c-1.3-0.4-2.6-0.9-3.9-1.3c-1.1-0.3-2.2-0.7-3.3-1c-1.9-0.6-3.7-1.2-5.6-1.8c-1.5-0.5-3-0.9-4.4-1.4
			c-0.8-0.2-1.5-0.5-2.3-0.8c-0.5,0.5-1.1,1-1.6,1.4c0.6,0.2,1.3,0.4,1.9,0.6C5.5,38.1,6.6,38.4,7.7,38.7z"/>
		<path class="st4" d="M20.5,58.7c-1.7-2.4-3.4-4.8-5.1-7.2c-1.2-1.7-2.4-3.3-3.5-5h0l0,0c-0.5-0.1-1-0.3-1.5-0.4
			c2.4,3.4,4.7,6.7,7.2,10.2c-1.2-0.4-2.2-0.7-3.3-1C9.8,53.9,5.4,52.5,0.9,51c0.1,0.6,0.2,1.1,0.4,1.6c6.3,2,12.6,4,18.9,6
			C20.3,58.7,20.4,58.7,20.5,58.7z"/>
		<path class="st4" d="M15.4,51.5c-1.2-1.7-2.4-3.3-3.5-5h0C13,48.2,14.2,49.9,15.4,51.5z"/>
		<path class="st3" d="M17.6,56.3c-2.4-3.4-4.8-6.8-7.2-10.2C9.9,46,9.4,45.9,9,45.7c0.9,1.3,1.8,2.5,2.7,3.8
			c1.2,1.6,2.4,3.2,3.5,4.8c0.1,0.1,0.1,0.2,0.3,0.4c-0.7-0.2-1.3-0.4-1.8-0.6C9.3,52.8,5,51.4,0.8,50.1c0.1,0.3,0.1,0.7,0.2,1
			c4.4,1.4,8.9,2.8,13.3,4.2C15.3,55.6,16.4,55.9,17.6,56.3z"/>
		<path class="st1" d="M10.2,59c-1.1-2.4-2.8-3.9-5.4-4.3c-1.1-0.2-1.9,0.1-2.4,1.2c0,0,0,0.1-0.1,0.1c0.3,0.8,0.6,1.6,0.9,2.4
			c-0.1-0.7-0.1-1.3,0.2-1.9c0.2-0.6,0.7-0.9,1.3-0.8c0.1,0,0.2,0,0.3,0.1c0.1,0,0.2,0.1,0.3,0.1c0.3,0.1,0.5,0.2,0.8,0.3
			c0.3,0.1,0.5,0.2,0.7,0.4c1.6,1,2.5,2.5,3,4.2c0.1,0.2,0.3,0.4,0.5,0.6c0.2,0,0.4,0,0.6,0c0-0.1,0-0.3,0-0.4
			C10.7,60.3,10.5,59.7,10.2,59z"/>
		<path class="st4" d="M13.6,54.2c0.6,0.2,1.2,0.4,1.8,0.6c-0.1-0.2-0.2-0.3-0.3-0.4c-1.2-1.6-2.4-3.2-3.5-4.8
			C10.8,48.2,9.9,47,9,45.7c-0.4-0.1-0.8-0.3-1.2-0.4c1.2,1.7,2.5,3.4,3.7,5.2c0.7,0.9,1.3,1.8,2,2.8c-0.2,0-0.3-0.1-0.4-0.1
			c-4.2-1.3-8.3-2.6-12.5-4c0,0,0,0,0,0c0.1,0.3,0.1,0.6,0.2,0.9C5,51.4,9.3,52.8,13.6,54.2z"/>
		<path class="st5" d="M14.5,36.2c1,0.3,2.1,0.7,3.1,1c1.3,0.4,2.7,0.8,4,1.2c1.1,0.3,2.1,0.7,3.2,1c1.5,0.5,3.1,1,4.6,1.5
			c0.7,0.2,1.3,0.4,2,0.6c0.5,0.2,1,0.4,1.4,0.5c0.6,0.1,0.8-0.1,0.7-0.6c-0.4-0.1-0.7-0.2-1.1-0.3c-1.2-0.4-2.3-0.7-3.5-1.1
			c-1.2-0.4-2.4-0.8-3.6-1.2c-0.7-0.2-1.4-0.4-2-0.6c-0.8-0.2-1.5-0.5-2.3-0.7c-0.9-0.3-1.9-0.6-2.8-0.9c-1.2-0.4-2.4-0.8-3.7-1.2
			c-1.2-0.4-2.5-0.7-3.7-1.1c-1.4-0.4-2.8-0.9-4.2-1.3c-0.3-0.1-0.4,0-0.4,0.3c0,0,0,0,0,0c0,0,0,0,0,0c0,0.1,0,0.1,0,0.2
			c1.2,0.4,2.4,0.8,3.6,1.1C11.5,35.2,13,35.7,14.5,36.2z"/>
		<path class="st5" d="M3.8,41.3c1.2,0.4,2.4,0.8,3.7,1.2c0.7,0.2,1.3,0.4,2,0.6c1.4,0.4,2.8,0.9,4.2,1.3c1.6,0.5,3.1,1,4.7,1.5
			c2.4,0.8,4.9,1.6,7.3,2.3c0.1,0,0.2,0.1,0.3,0.2c0.5,0.1,0.7-0.2,0.4-0.6c-0.1,0-0.2,0-0.3-0.1c-1.4-0.4-2.7-0.9-4.1-1.4
			c-1.8-0.6-3.7-1.1-5.5-1.7c-1.2-0.4-2.4-0.8-3.6-1.2c-1.2-0.4-2.5-0.8-3.7-1.1c-1.9-0.6-3.7-1.2-5.6-1.8c-1.2-0.4-2.4-0.8-3.5-1.1
			c0,0.2,0,0.4,0,0.6c0.1,0,0.2,0.1,0.3,0.1C1.5,40.6,2.7,40.9,3.8,41.3z"/>
		<path class="st5" d="M8.2,39.5c1,0.3,2,0.6,2.9,1c1.5,0.5,3,0.9,4.5,1.4c1.3,0.4,2.6,0.8,3.9,1.2c1.1,0.4,2.3,0.7,3.4,1.1
			c1.1,0.3,2.1,0.7,3.2,1c0.8,0.3,1.6,0.5,2.4,0.8c0.6,0,0.6,0,0.5-0.4c-0.5-0.2-1-0.4-1.5-0.5c-1.1-0.4-2.3-0.7-3.4-1.1
			c-1.3-0.4-2.5-0.8-3.8-1.2c-1-0.3-2-0.6-3-0.9c-1.2-0.4-2.4-0.8-3.6-1.2c-2-0.6-4-1.2-5.9-1.9c-1.1-0.3-2.2-0.7-3.3-1
			c-0.6-0.2-1.3-0.4-1.9-0.6c-0.1,0-0.2-0.1-0.3-0.1c-0.1,0-0.3,0-0.3,0.1c0,0.1,0,0.2,0,0.4c0.1,0.1,0.2,0.1,0.3,0.2
			C4.2,38.3,6.2,38.9,8.2,39.5z"/>
		<path class="st5" d="M10.8,37.8c1.9,0.6,3.7,1.2,5.6,1.8c1.1,0.3,2.2,0.7,3.3,1c1.3,0.4,2.6,0.9,3.9,1.3c1.2,0.4,2.4,0.7,3.5,1.1
			c1.1,0.4,2.3,0.7,3.4,1.1c0.1,0,0.1,0,0.2,0c0.2,0,0.3,0,0.5,0c0-0.2,0-0.3,0-0.5l0,0c-0.6-0.2-1.2-0.4-1.8-0.6
			c-1.4-0.4-2.8-0.8-4.2-1.3c-1.3-0.4-2.5-0.8-3.7-1.2c-1.7-0.5-3.4-1.1-5.1-1.6c-1.1-0.3-2.2-0.7-3.3-1.1c-1.5-0.5-3.1-1-4.6-1.5
			c-0.4-0.1-0.8-0.3-1.2-0.4c-0.9-0.3-1.8-0.6-2.7-0.8c-0.5-0.1-0.6,0-0.5,0.5c0.8,0.3,1.5,0.5,2.3,0.8C7.8,36.9,9.3,37.3,10.8,37.8
			z"/>
		<path class="st5" d="M29.4,43.1c0.6,0.2,1.2,0.4,1.8,0.6l0,0v0C30.6,43.4,30,43.2,29.4,43.1z"/>
		<path class="st2" d="M6.3,33.4C6.3,33.4,6.3,33.4,6.3,33.4C6.3,33.4,6.3,33.4,6.3,33.4C6.3,33.4,6.3,33.4,6.3,33.4z"/>
		<path class="st6" d="M32.9,42.1c-0.3,0.2-0.5,0.5-0.8,0.7c-0.3,0.3-0.6,0.6-1,0.8c0,0.2,0,0.3,0,0.5c-0.2,0-0.3,0-0.5,0
			c-0.1,0-0.1,0-0.2,0c0,0.1,0,0.2-0.1,0.2c-0.5,0.4-1,0.8-1.5,1.3c0.1,0.5,0.1,0.5-0.5,0.4c-0.4,0.4-0.9,0.9-1.3,1.3
			c-0.2,0.2-0.5,0.4-0.7,0.6c0.3,0.4,0.1,0.7-0.4,0.6c-0.5,0.4-0.9,0.8-1.4,1.2c-0.2,0.2-0.5,0.4-0.7,0.7c0.6,0.3,1.1,0.7,1.6,1.1
			c0.5,0.4,0.9,0.9,1.3,1.4c1.2,1.4,2.4,2.8,3.7,4.3c0.1,0.1,0.2,0.3,0.3,0.5l0,0c0,0,0,0,0,0c0.4,0.3,0.9,0.7,1.3,1
			c0.4,0.3,0.9,0.7,1.4,1c1.2,0.8,2.4,1.6,3.5,2.4c0.1,0.1,0.2,0.2,0.3,0.4c0.1,0.2,0.2,0.3,0.3,0.5c0.2-0.1,0.5-0.2,0.7-0.3
			c0-0.5-0.3-0.8-0.6-1c-1.6-1.2-3.2-2.3-4.8-3.4c0,0-0.1-0.1-0.1-0.1c0-0.1-0.1-0.1-0.1-0.2c-0.1,0-0.2-0.1-0.3-0.1
			c-0.2-0.1-0.5-0.2-0.7-0.4c-1.5-1.8-3.1-3.6-4.6-5.4c-0.2-0.3-0.3-0.6-0.1-0.9c0.8-0.7,1.6-1.5,2.5-2.2c0.7-0.7,1.5-1.3,2.2-2
			c0.5-0.5,1.1-1,1.6-1.5c1-1,2.1-1.9,3.1-2.9c0.3-0.2,0.6-0.2,0.8,0.1c1.4,1.7,2.8,3.4,4.2,5c0.2,0.2,0.4,0.5,0.6,0.7c0,0,0,0,0,0
			c0,0,0,0,0,0c0,0.1,0.1,0.3,0.1,0.4c0.5,0.3,0.9,0.6,1.4,0.9c1.4,0.9,2.8,1.8,4.1,2.7c0.3,0.2,0.5,0.5,0.8,0.8
			c0.2-0.2,0.3-0.5,0.5-0.7c-0.3-0.3-0.6-0.6-1-0.9c-1.7-1.2-3.4-2.4-5.1-3.5c-0.2-0.1-0.4-0.3-0.6-0.5c-1.8-2.1-3.5-4.1-5.3-6.2
			c-0.4-0.5-0.9-0.8-1.4-1.2C35.7,40,35.5,40,35.4,40c-0.6,0.5-1.2,1-1.7,1.5C33.7,42,33.5,42.2,32.9,42.1z"/>
		<path class="st6" d="M31.2,43.6L31.2,43.6c0.3-0.3,0.6-0.6,1-0.8C31.9,43.1,31.5,43.3,31.2,43.6z"/>
		<path class="st7" d="M48.5,53.4c-0.2,0.7-0.4,1.3-0.6,2c0,0.2,0,0.5,0,0.7c0,0.2,0.1,0.4,0.1,0.5c0,0.1,0,0.2,0.1,0.2
			c0,0,0,0.1,0,0.1c0,0,0,0.1,0,0.1c0,0.2,0.1,0.3,0.1,0.5c0.1,0,0.2-0.1,0.2-0.1c0.7-0.7,1.4-1.3,2.1-2c0.1-0.1,0.2-0.1,0.3-0.2
			c0-0.3,0-0.6-0.2-0.9c-0.3-0.5-0.6-1-0.9-1.5c-0.2-0.3-0.4-0.4-0.7-0.4c-0.2,0.2-0.3,0.5-0.5,0.7C48.6,53.2,48.5,53.3,48.5,53.4z"
			/>
		<path class="st3" d="M28.3,64.4c0.3-1.1,1-1.7,2.2-1.6c1.6,0.2,2.9,0.9,4.1,2c0.2,0.2,0.4,0.6,0.7,0.7c0.8,0.3,1.6,0.5,2.4,0.8
			c-0.1-0.8-0.3-1.6-0.4-2.4c0-0.3,0.2-0.7,0.3-1c-0.1-0.2-0.2-0.3-0.3-0.5c-0.1-0.2-0.2-0.3-0.3-0.4c-1.2-0.8-2.4-1.6-3.5-2.4
			c-0.5-0.3-0.9-0.7-1.4-1c-0.4-0.3-0.9-0.7-1.3-1c0,0.3,0.1,0.5,0.1,0.8c0,0.1,0,0.3,0.1,0.4c0,0.1,0,0.1,0.1,0.2s0,0.1,0,0.2
			c0,0.2,0.1,0.5,0,0.6c-0.1,0.1-0.4,0.1-0.6,0.2c0.1,0.4,0.2,0.9,0.3,1.3c0.1,0.4,0.2,0.9,0.3,1.3c-0.2,0-0.3,0-0.4,0
			c-1.7-0.2-2.7,0.6-2.8,2.3c0,0.7,0.1,1.4,0.1,2.1c0.1,0,0.3,0.1,0.4,0.1C28.2,66.1,28.1,65.2,28.3,64.4z"/>
		<path class="st3" d="M30.8,57.5C30.8,57.5,30.8,57.5,30.8,57.5c0.4,0.3,0.9,0.7,1.3,1C31.7,58.2,31.2,57.9,30.8,57.5z"/>
		<path class="st8" d="M34.8,67.3c-0.7-1.1-1.8-1.9-3.1-2.3c-0.4-0.1-0.9-0.1-1.5-0.2c0.4-0.3,0.7-0.5,1.1-0.8
			c-0.4-0.4-1-0.3-1.5-0.1c-0.3,0.2-0.5,0.4-0.6,0.7c-0.2,0.6-0.2,1.2-0.1,1.8c0,0.2,0.1,0.4,0.1,0.6h0l0,0c0.6,2,1.9,3.3,4,3.9
			c0.9,0.2,1.6,0,2.2-0.7c0-0.4,0-0.7,0-1.1C35.5,68.5,35.2,67.9,34.8,67.3z M34.4,69.3c-0.1,0.2-0.2,0.4-0.4,0.5
			c-0.1,0.1-0.1,0.1-0.2,0.2c-0.2,0.1-0.5,0.1-0.7,0c-1.3-0.2-2.7-1.4-2.9-2.7c-0.1-0.3-0.1-0.6,0.2-0.9c0.3-0.5,0.7-0.5,1.2-0.5
			c1.3,0.2,2.6,1.5,2.8,2.8C34.5,68.9,34.5,69.1,34.4,69.3z"/>
		<path class="st8" d="M29.2,66.5c0,0.2,0.1,0.4,0.1,0.6h0C29.2,66.9,29.2,66.7,29.2,66.5z"/>
		<path class="st8" d="M41.8,68.5c1-0.9,2.1-1.8,3.1-2.8c1.7-1.5,3.4-3.1,5-4.6c0.3-0.3,0.6-0.6,0.8-0.9c0.2-0.3,0.3-0.7,0.1-1.2
			c-3.5,3.2-7,6.4-10.5,9.6C40.9,68.9,41.4,68.9,41.8,68.5z"/>
		<path class="st7" d="M37.3,63.9c0.1,0.8,0.3,1.6,0.4,2.4c0.6,0.1,1.1-0.1,1.6-0.6c0.8-0.7,1.6-1.5,2.4-2.2
			c0.1-0.1,0.1-0.2,0.1-0.3c-0.1-0.1-0.2-0.2-0.3-0.3c-0.1-0.1-0.1-0.1-0.2-0.2c-0.1-0.1-0.2-0.2-0.3-0.3c-0.2-0.1-0.4-0.2-0.6-0.2
			c-0.1,0-0.1,0-0.2,0c0,0,0,0,0,0c-0.6,0.1-1.1,0.2-1.7,0.3c-0.1,0-0.1,0.1-0.2,0.1c-0.2,0.1-0.5,0.2-0.7,0.3
			C37.5,63.2,37.3,63.6,37.3,63.9z"/>
		<path class="st9" d="M44,64.6c1.3-1.2,2.6-2.4,3.9-3.5C48,61,48,60.9,48,60.8c-0.1-0.6-0.2-1.1-0.4-1.8c-1.4,1.3-2.7,2.5-4,3.7
			c-0.1,0.1-0.2,0.2-0.2,0.3c0.1,0.5,0.2,1.1,0.4,1.6C43.9,64.7,44,64.6,44,64.6z"/>
		<path class="st10" d="M32.2,64.3c-0.1-0.1-0.2-0.1-0.4-0.1c-0.1,0-0.3-0.1-0.4-0.1c-0.4,0.3-0.7,0.5-1.1,0.8c0.5,0.1,1,0,1.5,0.2
			c1.3,0.4,2.3,1.2,3.1,2.3c0.4,0.6,0.7,1.2,0.6,1.8c0,0.4,0,0.7,0,1.1c0.3-0.2,0.5-0.5,0.8-0.7c-0.2-0.3-0.3-0.7-0.5-1
			C35.1,66.7,33.9,65.2,32.2,64.3z"/>
		<path class="st8" d="M44.9,59.9c-1,0.9-2,1.8-3,2.7c-0.1,0.1-0.2,0.2-0.4,0.2c0.1,0.1,0.2,0.2,0.3,0.3c0.4-0.3,0.8-0.5,1.1-0.8
			c1.1-1,2.2-2,3.3-3c0.6-0.6,1.3-1.2,1.9-1.8c0-0.2-0.1-0.3-0.1-0.5c-0.7,0.6-1.4,1.2-2.1,1.9C45.6,59.3,45.3,59.6,44.9,59.9z"/>
		<path class="st8" d="M3.3,58.8c0.2,0.9,0.6,1.7,1.3,2.4c-0.5-0.9-0.9-1.8-1.3-2.8C3.3,58.5,3.3,58.7,3.3,58.8z"/>
		<path class="st8" d="M7.3,62.9c0.8,0.2,1.6,0.1,2.1-0.6c0.4-1.4,0-2.6-1-3.6c-0.9-1-2.1-1.8-3.5-1.8c-0.1,0-0.2,0-0.4,0
			c-0.1,0-0.2,0.1-0.4,0.1c0.4-0.4,0.8-0.7,1.2-1.1c-0.1,0-0.2-0.1-0.3-0.1c-0.1,0-0.2-0.1-0.3-0.1c-0.6-0.1-1.1,0.2-1.3,0.8
			c-0.3,0.6-0.2,1.3-0.2,1.9c0.4,0.9,0.8,1.9,1.3,2.8C5.3,62,6.3,62.7,7.3,62.9z M4.6,58.2c0.2-0.3,0.6-0.4,0.9-0.4c1.4,0,3,1.6,3,3
			c0,0.3,0,0.7-0.4,0.9C7.9,62,7.5,62,7.2,62c-1.3-0.1-2.7-1.4-2.9-2.7C4.3,58.9,4.3,58.5,4.6,58.2z"/>
		<path class="st8" d="M5.1,55.8c0.1,0,0.2,0.1,0.3,0.1c0,0,0,0,0,0C5.3,55.8,5.2,55.8,5.1,55.8z"/>
		<path class="st10" d="M6.9,56.5c-0.2-0.1-0.5-0.3-0.7-0.4c-0.3-0.1-0.5-0.2-0.8-0.3c0,0,0,0,0,0c-0.4,0.4-0.8,0.7-1.2,1.1
			c0.2,0,0.3,0,0.4-0.1c0.1,0,0.2,0,0.4,0c1.5,0,2.6,0.8,3.5,1.8c0.9,1,1.4,2.2,1,3.6c0.3-0.3,0.7-0.6,1-0.9
			c-0.2-0.2-0.4-0.4-0.5-0.6C9.4,59,8.4,57.6,6.9,56.5z"/>
		<path class="st10" d="M6.1,56.2c-0.3-0.1-0.5-0.2-0.8-0.3c0,0,0,0,0,0c0,0,0,0,0,0C5.6,56,5.9,56.1,6.1,56.2z"/>
		<path class="st11" d="M27.8,64.8c0.1-1.7,1.1-2.5,2.8-2.3c0.1,0,0.2,0,0.4,0c-0.1-0.5-0.2-0.9-0.3-1.3c-0.1-0.4-0.2-0.9-0.3-1.3
			c-0.1,0-0.1,0-0.2,0c0.1,0.3,0.1,0.6,0.2,1c0.1,0.5,0.2,1,0.3,1.5c-0.3,0-0.5,0-0.7,0c-1.5,0-2.3,0.8-2.5,2.2
			c-0.1,0.7,0,1.4,0,2.1c-0.4-0.1-0.9-0.3-1.4-0.4c-0.8-0.2-1.5-0.4-2.3-0.7c-0.3-0.1-0.7-0.2-1-0.4c-0.1-0.1-0.2-0.2-0.2-0.3
			c-0.2-0.7-0.3-1.4-0.4-2c-0.1,0-0.2-0.1-0.3-0.1c0.2,0.8,0.4,1.7,0.5,2.5c0.2,0.1,0.4,0.2,0.5,0.2c0.9,0.3,1.8,0.6,2.7,0.8
			c0.7,0.2,1.4,0.4,2.2,0.6C27.9,66.1,27.8,65.4,27.8,64.8z"/>
		<path class="st11" d="M30.7,61.1c-0.1-0.4-0.2-0.9-0.3-1.3l0,0C30.5,60.3,30.6,60.7,30.7,61.1z"/>
		<path class="st1" d="M25.6,63.7c0.2,0.1,0.5,0.1,0.7,0.2c0.2,0.1,0.3,0,0.4-0.1c0,0,0-0.1,0.1-0.2c-0.2-0.1-0.4-0.2-0.6-0.3
			c-0.2-0.1-0.4-0.2-0.6-0.2c-1.1-0.4-2.1-0.7-3.2-1c-0.1,0-0.2-0.1-0.3-0.2c0,0,0-0.1-0.1-0.1c0,0,0,0,0,0c0,0,0,0-0.1,0
			c0,0,0,0-0.1,0c-0.1,0-0.2,0.1-0.3,0c-1.4-0.4-2.8-0.9-4.3-1.3c-1.6-0.5-3.3-1-4.9-1.5c-0.1,0-0.3,0-0.4-0.1
			c-0.1,0.1-0.1,0.2-0.1,0.2c0,0.2,0.2,0.3,0.4,0.3c1.7,0.5,3.3,1.1,5,1.6c1.6,0.5,3.2,1,4.8,1.5v0h0c0.1,0,0.2,0.1,0.3,0.1
			C23.4,63,24.5,63.4,25.6,63.7z"/>
		<path class="st1" d="M17.2,61c1.6,0.5,3.2,1,4.8,1.5v0C20.4,62.1,18.8,61.6,17.2,61z"/>
		<path class="st11" d="M23.5,50.1c-1.3-0.4-2.6-0.8-3.9-1.2c-0.2-0.1-0.4,0-0.6-0.1c0.7,3.2,1.4,6.3,2.1,9.5
			c0.2,1.1,0.5,2.3,0.7,3.4c0,0,0,0,0,0.1c0,0,0,0,0.1,0c0,0,0,0,0.1,0c0-0.1,0-0.2,0-0.3s0-0.2,0-0.2c-0.9-3.9-1.7-7.9-2.6-11.8
			c0-0.1-0.1-0.3-0.1-0.4c0.7,0.2,1.3,0.4,1.9,0.6c0.5,0.2,1.1,0.3,1.6,0.5c1.1,0.3,2,0.8,2.8,1.6c0.6,0.7,1.2,1.4,1.8,2
			c0.8,0.9,1.7,1.9,2.5,2.8c0.4,0.5,0.8,1,0.7,1.7c0.1,0.1,0.2,0.3,0.3,0.4c0-0.1,0-0.3-0.1-0.4c0-0.3-0.1-0.5-0.1-0.8
			c-0.1-0.2-0.1-0.4-0.3-0.5c-1.2-1.4-2.5-2.8-3.7-4.3c-0.4-0.5-0.8-1-1.3-1.4c-0.5-0.4-1-0.8-1.6-1.1l0,0h0
			C23.8,50.2,23.7,50.1,23.5,50.1z"/>
		<path class="st11" d="M25.6,51.4c-0.5-0.4-1-0.8-1.6-1.1l0,0C24.6,50.6,25.1,50.9,25.6,51.4z"/>
		<path class="st11" d="M30.9,58.8c0-0.1,0-0.3-0.1-0.4C30.9,58.5,30.9,58.6,30.9,58.8L30.9,58.8z"/>
		<path class="st11" d="M21.9,61.8C22,61.8,22,61.8,21.9,61.8C22,61.8,22,61.8,21.9,61.8L21.9,61.8C22,61.8,22,61.8,21.9,61.8z"/>
		<path class="st12" d="M21.8,61.8c-0.7-0.2-1.5-0.4-2.2-0.7c-2.4-0.8-4.8-1.5-7.2-2.3c-0.1,0-0.2,0-0.2,0s-0.2,0.1-0.3,0.1
			c0.1,0,0.3,0,0.4,0.1c1.6,0.5,3.3,1,4.9,1.5c1.4,0.4,2.8,0.9,4.3,1.3C21.6,61.9,21.8,61.8,21.8,61.8
			C21.8,61.8,21.8,61.8,21.8,61.8z"/>
		<path class="st4" d="M1.3,47.5c0,0.1,0.2,0.3,0.3,0.3c1.3,0.4,2.7,0.8,4,1.3c0.3,0.1,0.4,0,0.3-0.3c-0.1-0.4-0.2-0.8-0.3-1.2
			c0,0,0,0,0,0c-0.1-0.4-0.2-0.8-0.3-1.2c0-0.1-0.2-0.3-0.3-0.3c-1.3-0.4-2.6-0.8-3.9-1.2c-0.3-0.1-0.4,0-0.4,0.3
			C0.9,46,1.1,46.8,1.3,47.5z M4.3,46.2C4.3,46.3,4.3,46.3,4.3,46.2c-0.4,0.2-0.7,0.3-1.1,0.4c-0.1,0-0.2-0.1-0.3-0.1
			c-0.4-0.3-0.7-0.6-1-1C2.7,45.7,3.5,46,4.3,46.2z M2.5,46.6c0.3,0.3,0.7,0.4,1.1,0.3c0.4-0.2,0.8-0.2,1.3-0.3
			c0.1,0.6,0.3,1.3,0.5,2.1c-1-0.3-1.9-0.7-2.8-0.9c-0.7-0.2-1.1-0.5-1.2-1.3c0-0.3-0.1-0.6-0.1-0.9C1.7,45.9,2.2,46.3,2.5,46.6z"/>
		<path class="st13" d="M33.5,52.9c0.8,0.2,1.6,0.5,2.5,0.7c0.8-0.6,1.6-1.3,2.4-1.9c0.1-0.1,0.2-0.2,0.4-0.3
			c-0.2-0.1-0.4-0.2-0.6-0.2c-0.2-0.1-0.4-0.1-0.6-0.2c-2.2-0.6-4.5-1.3-6.7-1.9c-0.4-0.1-0.8-0.2-1.3-0.4c-0.8,0.7-1.6,1.5-2.5,2.2
			c0.1,0.1,0.3,0.2,0.4,0.2C29.5,51.8,31.5,52.4,33.5,52.9z"/>
		<path class="st14" d="M35.4,55.8c-0.2-0.1-0.4-0.1-0.5-0.1c-0.2,0-0.3,0.1-0.5,0.3c-0.7,0.5-1.4,0.9-2,1.4c-0.1,0-0.2,0.1-0.3,0.1
			c1.4-1.3,3.1-2.4,4.7-3.4c-0.2-0.1-0.4-0.1-0.5-0.2c-0.1,0-0.2-0.1-0.2-0.1l0,0c-0.8-0.2-1.6-0.5-2.5-0.7c-2-0.6-4-1.1-5.9-1.7
			c-0.2,0-0.3-0.2-0.4-0.2c-0.3,0.3-0.2,0.6,0.1,0.9c1.5,1.8,3.1,3.6,4.6,5.4c0.2,0.2,0.4,0.3,0.7,0.4c0.1,0,0.2-0.1,0.3-0.1
			C33.6,57,34.5,56.4,35.4,55.8z"/>
		<path class="st14" d="M33.5,52.9c0.8,0.2,1.6,0.5,2.5,0.7l0,0c0,0,0,0,0,0C35.1,53.4,34.3,53.2,33.5,52.9z"/>
		<path class="st14" d="M30.8,49.2c2.2,0.6,4.5,1.2,6.7,1.9c0.2,0.1,0.4,0.1,0.6,0.2c0.2,0.1,0.4,0.2,0.6,0.2
			c0.9-0.6,1.8-1.2,2.6-1.8c0,0,0.1-0.1,0.1-0.1c-1-0.3-2-0.5-3-0.8c-1.1-0.3-2.2-0.6-3.4-0.9c-1-0.3-2.1-0.6-3.1-0.9
			c-0.1,0-0.1-0.1-0.1-0.1c-0.7,0.7-1.5,1.3-2.2,2C30,48.9,30.4,49,30.8,49.2z"/>
		<path class="st13" d="M35,47.8c1.1,0.3,2.2,0.6,3.4,0.9c1,0.3,2,0.5,3,0.8c0.2-0.1,0.5-0.2,0.7-0.3c0.1-0.1,0.1-0.2,0.2-0.3v0l0,0
			c0-0.1,0-0.2,0-0.2c0-0.1-0.1-0.3-0.1-0.4c0,0,0,0,0-0.1c-0.2-0.2-0.4-0.5-0.6-0.7c-0.8-0.2-1.6-0.4-2.4-0.6
			c-1.2-0.3-2.4-0.7-3.6-1c-0.7-0.2-1.5-0.4-2.2-0.6c-0.5,0.5-1.1,1-1.6,1.5c0,0,0.1,0.1,0.1,0.1C32.9,47.2,34,47.5,35,47.8z"/>
		<path class="st13" d="M38.4,48.8c1,0.3,2,0.5,3,0.8l0,0C40.4,49.3,39.4,49,38.4,48.8z"/>
		<path class="st14" d="M35.6,45.9c1.2,0.3,2.4,0.7,3.6,1c0.8,0.2,1.6,0.4,2.4,0.6c-1.4-1.7-2.8-3.4-4.2-5c-0.2-0.3-0.5-0.3-0.8-0.1
			c-1,0.9-2.1,1.9-3.1,2.9C34.1,45.5,34.8,45.7,35.6,45.9z"/>
		<path class="st2" d="M42.3,48.9c0.5,0.3,1.1,0.7,1.6,1c1.2,0.8,2.4,1.6,3.6,2.4c0.3,0.2,0.6,0.6,0.9,0.9c0-0.1,0.1-0.2,0.1-0.3
			c-0.3-0.3-0.5-0.5-0.8-0.8c-1.4-0.9-2.7-1.8-4.1-2.7c-0.5-0.3-0.9-0.6-1.4-0.9C42.3,48.8,42.3,48.9,42.3,48.9z"/>
		<path class="st2" d="M42.3,48.9L42.3,48.9c0-0.1,0-0.2,0-0.2C42.3,48.8,42.3,48.9,42.3,48.9z"/>
		<path class="st2" d="M37.5,61.2c-1.4-1-2.7-2-4.1-3c-0.2-0.1-0.5-0.2-0.7-0.4c0,0,0,0,0,0c0,0,0.1,0.1,0.1,0.2
			c0,0.1,0.1,0.1,0.1,0.1c1.6,1.1,3.2,2.3,4.8,3.4c0.3,0.2,0.6,0.5,0.6,1c0.1,0,0.1-0.1,0.2-0.1C38.5,61.8,38,61.5,37.5,61.2z"/>
		<path class="st2" d="M32.7,57.9c0-0.1,0-0.1,0-0.2c-0.1,0-0.2,0.1-0.3,0.1C32.5,57.8,32.6,57.8,32.7,57.9
			C32.7,57.9,32.7,57.9,32.7,57.9z"/>
		<path class="st2" d="M42.2,48.3C42.2,48.3,42.2,48.3,42.2,48.3C42.2,48.3,42.2,48.3,42.2,48.3C42.2,48.3,42.2,48.3,42.2,48.3z"/>
		<path class="st15" d="M47.6,52.4c-1.2-0.8-2.4-1.6-3.6-2.4c-0.5-0.4-1.1-0.7-1.6-1c-0.1,0.1-0.1,0.2-0.2,0.3
			c-0.1,0.1-0.1,0.2-0.2,0.2c0,0-0.1,0.1-0.1,0.1c-0.3,0.4-0.6,0.7-0.9,1.1c-0.2,0.2-0.4,0.4-0.5,0.6c-0.1,0.1-0.2,0.2-0.3,0.3
			c-0.6,0.5-1.1,1.1-1.7,1.6c0,0,0,0,0,0c-0.3,0.3-0.5,0.5-0.8,0.8c-0.2,0.2-0.5,0.4-0.7,0.7c-0.1,0.1-0.2,0.3-0.3,0.4
			c-0.3,0.2-0.7,0.5-1,0.7c-0.9,0.6-1.8,1.2-2.6,1.9c0,0.1,0,0.1,0,0.2c0.2,0.1,0.5,0.2,0.7,0.4c1.4,1,2.7,2,4.1,3
			c0.5,0.3,1,0.6,1.1,1.3c0.6-0.1,1.1-0.2,1.7-0.3l0,0c0,0,0,0,0,0l0,0c0.1,0,0.1,0,0.2,0c0.9-0.8,1.8-1.6,2.7-2.5
			c1.6-1.4,3.2-2.9,4.8-4.3c0.2-0.7,0.4-1.3,0.6-2C48.2,53,47.9,52.7,47.6,52.4z M36.3,57.1c-0.1,0.1-0.3-0.1-0.5-0.1
			c0,0,0-0.1,0-0.1c0.4-0.3,0.7-0.7,1.1-0.9c0.1-0.1,0.3,0,0.5,0.1c0,0.1,0,0.1,0,0.2C37.1,56.5,36.7,56.8,36.3,57.1z M42.3,51.7
			c-0.3,0.3-0.5,0.5-0.9,0.8c-0.1,0.1-0.3,0-0.5,0c0-0.1,0-0.1,0-0.2c0.4-0.3,0.7-0.6,1.1-0.9c0.1-0.1,0.3,0,0.4,0
			C42.4,51.4,42.4,51.6,42.3,51.7z"/>
		<polygon class="st15" points="40.3,62.1 40.3,62.1 40.3,62.1 		"/>
		<path class="st1" d="M40.4,62.1c0.2,0.1,0.4,0.2,0.6,0.2c0.2-0.2,0.4-0.5,0.6-0.7c1.5-1.3,2.9-2.6,4.4-4c0.6-0.5,1.2-1,1.7-1.6
			c0,0,0.1,0,0.2,0c0-0.2,0-0.5,0-0.7c-1.6,1.4-3.2,2.9-4.8,4.3C42.2,60.5,41.3,61.3,40.4,62.1z"/>
		<path class="st8" d="M46,57.7c-1.5,1.3-2.9,2.6-4.4,4c-0.2,0.2-0.4,0.5-0.6,0.7c0.1,0.1,0.2,0.2,0.3,0.3c0.1-0.1,0.1-0.2,0.2-0.3
			c1.5-1.3,3-2.7,4.5-4c0.6-0.5,1.1-1,1.7-1.5c0.1-0.1,0.2-0.1,0.3-0.2v0c0-0.2-0.1-0.4-0.1-0.5c-0.1,0-0.1,0-0.2,0
			C47.1,56.6,46.6,57.2,46,57.7z"/>
		<path class="st8" d="M48,56.6L48,56.6c0-0.2-0.1-0.4-0.1-0.5C47.9,56.3,47.9,56.5,48,56.6L48,56.6z"/>
		<path class="st1" d="M47.7,56.8c-0.6,0.5-1.1,1-1.7,1.5c-1.5,1.3-3,2.7-4.5,4c-0.1,0.1-0.1,0.2-0.2,0.3c0.1,0.1,0.1,0.1,0.2,0.2
			c0.1-0.1,0.3-0.1,0.4-0.2c1-0.9,2-1.8,3-2.7c0.3-0.3,0.7-0.6,1-0.9c0.7-0.6,1.4-1.2,2.1-1.9c0,0,0-0.1,0-0.1c0,0,0-0.1,0-0.1
			c0-0.1,0-0.2-0.1-0.2C47.9,56.7,47.8,56.7,47.7,56.8z"/>
		<path class="st1" d="M48,56.9c0-0.1,0-0.2-0.1-0.2l0,0C48,56.7,48,56.8,48,56.9z"/>
		<path class="st8" d="M30.9,58.8c-0.1-0.1-0.2-0.3-0.3-0.4c-0.4-0.5-0.8-1-1.3-1.5c-0.1-0.1-0.2-0.1-0.2-0.2
			c0.1,0.4,0.2,0.7,0.2,1.1c0.1,0.4,0.2,0.8,0.3,1.2c-0.4-0.3-0.7-0.4-0.8-0.9c-0.1-0.5-0.2-1.1-0.4-1.6c-0.1-0.4-0.2-0.4-0.5-0.2
			c-0.1,0.1-0.3,0.3-0.4,0.4c-0.1,0.1-0.3,0.3-0.4,0.4c0,0,0,0,0.1,0.1c0.1,0.1,0.2,0.2,0.2,0.3c0.2,0.7,0.3,1.3,0.4,2
			c0.5,0.1,1.1,0.1,1.6,0.2c0.3,0,0.5,0.1,0.8,0.2c0,0,0,0,0,0c0,0,0,0,0,0c0.1,0,0.1,0,0.2,0c0,0,0,0,0,0c0.2-0.1,0.5,0,0.6-0.2
			c0.1-0.1,0-0.4,0-0.6c0-0.1,0-0.1,0-0.2S31,58.8,30.9,58.8L30.9,58.8z"/>
		<path class="st8" d="M30.9,58.8c0,0.1,0,0.1,0.1,0.2C31,58.9,31,58.8,30.9,58.8L30.9,58.8L30.9,58.8z"/>
		<path class="st8" d="M30.3,59.8C30.3,59.8,30.3,59.8,30.3,59.8c0.1,0,0.1,0,0.2,0l0,0c0,0,0,0,0,0C30.4,59.8,30.3,59.8,30.3,59.8z
			"/>
		<path class="st16" d="M31.7,65.9c-0.5-0.1-0.9,0-1.2,0.5c0.1,0.2,0.3,0.3,0.4,0.5c0.3-0.2,0.6-0.3,0.9-0.4c0.2,0,0.4,0,0.6,0.1
			c0.3,0.1,0.6,0.3,0.9,0.7c0.4,0.4,0.5,0.8,0.6,1.4c0,0.3-0.2,0.6-0.4,0.8c0.2,0.1,0.4,0.3,0.6,0.4c0.2-0.1,0.3-0.3,0.4-0.5
			c0.1-0.2,0-0.4,0-0.6C34.3,67.4,33,66.1,31.7,65.9z"/>
		<path class="st9" d="M33.5,69.4c-1.3,0-2.3-0.8-2.6-1.9c0-0.2,0-0.4,0-0.6c-0.1-0.2-0.3-0.3-0.4-0.5c-0.3,0.2-0.2,0.6-0.2,0.9
			c0.2,1.3,1.6,2.6,2.9,2.7c0.2,0,0.5,0.1,0.7,0c0.1,0,0.1-0.1,0.2-0.2C33.8,69.7,33.6,69.5,33.5,69.4z"/>
		<path class="st16" d="M5.7,58.4c0.1,0,0.2,0,0.3,0c0.7,0.2,1.3,0.6,1.6,1.4C8,60.5,8,60.9,7.6,61.3c0.2,0.1,0.4,0.3,0.6,0.4
			c0.3-0.2,0.4-0.5,0.4-0.9c0-1.4-1.6-3-3-3c-0.4,0-0.7,0.1-0.9,0.4c0.1,0.2,0.2,0.4,0.3,0.7C5.2,58.7,5.4,58.5,5.7,58.4z"/>
		<path class="st9" d="M7.2,62c0.3,0,0.7,0.1,0.9-0.2c-0.2-0.1-0.4-0.3-0.6-0.4c-1.5,0.1-2.5-0.9-2.6-2.4c-0.1-0.2-0.2-0.4-0.3-0.7
			c-0.3,0.3-0.3,0.7-0.3,1C4.6,60.5,6,61.8,7.2,62z"/>
		<path class="st3" d="M29.5,59.6c-0.5-0.1-1.1-0.1-1.6-0.2c-0.3,0-0.4-0.2-0.4-0.3c0-0.1,0-0.2-0.1-0.3c-0.2-0.1-0.4-0.1-0.6-0.2
			c-0.6-0.2-1.1-0.5-1.6-1.1c-0.4-0.5-1.1-0.6-1.7-0.8c-0.5-0.2-1-0.3-1.4-0.4c-0.6-0.2-0.9-0.5-1-1.1c-0.3-1.3-0.6-2.5-0.8-3.8
			c-0.1-0.3-0.1-0.7,0.3-0.9c0.1,0,0.2,0,0.3,0c0.1,0,0.2,0,0.3,0c0.9,0.3,1.9,0.6,2.8,0.9c0.7,0.2,1.3,0.7,1.8,1.3
			c1.1,1.4,2.2,2.7,3.3,4c0.1,0.1,0.2,0.1,0.2,0.2c0.4,0.5,0.8,1,1.3,1.5c0.1-0.7-0.3-1.2-0.7-1.7c-0.8-0.9-1.7-1.9-2.5-2.8
			c-0.6-0.7-1.2-1.4-1.8-2c-0.8-0.8-1.7-1.3-2.8-1.6c-0.5-0.1-1.1-0.3-1.6-0.5c-0.6-0.2-1.3-0.4-1.9-0.6c0,0.2,0.1,0.3,0.1,0.4
			c0.9,3.9,1.7,7.9,2.6,11.8c0,0.1,0,0.2,0,0.2c0,0.1,0,0.2,0,0.3c0,0,0,0.1,0.1,0.1c0.1,0,0.2,0,0.3,0c1.3,0.4,2.7,0.8,4,1.3
			c0.2,0.1,0.4,0.1,0.3,0.4c0,0.1,0,0.1-0.1,0.2c-0.1,0.1-0.2,0.2-0.4,0.1c-0.2-0.1-0.5-0.1-0.7-0.2c-1.1-0.3-2.2-0.7-3.3-1
			c0.1,0.7,0.3,1.4,0.4,2c0,0.1,0.1,0.3,0.2,0.3c0.3,0.2,0.7,0.3,1,0.4c0.8,0.2,1.5,0.5,2.3,0.7c0.5,0.1,1,0.3,1.4,0.4
			c0-0.7-0.1-1.4,0-2.1c0.2-1.4,1-2.1,2.5-2.2c0.2,0,0.4,0,0.7,0c-0.1-0.5-0.2-1-0.3-1.5c-0.1-0.3-0.1-0.6-0.2-1
			C30,59.7,29.8,59.6,29.5,59.6z M23.1,57.8c-0.5-0.1-0.9-0.3-1.3-0.4c-0.1,0-0.2-0.2-0.2-0.4c0.6,0.2,1.3,0.1,1.6,0.7
			C23.2,57.7,23.1,57.8,23.1,57.8z"/>
		<path class="st3" d="M22,61.5c0,0.1,0,0.2,0,0.3l0,0C22,61.7,22,61.6,22,61.5z"/>
		<path class="st12" d="M26.4,63.2c-1.3-0.4-2.7-0.8-4-1.3c-0.1,0-0.2,0-0.3,0c0.1,0.1,0.2,0.2,0.3,0.2c1.1,0.3,2.1,0.7,3.2,1
			c0.2,0.1,0.4,0.2,0.6,0.2c0.2,0.1,0.4,0.2,0.6,0.3c0,0,0,0,0,0h0C26.8,63.4,26.6,63.3,26.4,63.2z"/>
		<path class="st12" d="M26.2,63.4c0.2,0.1,0.4,0.2,0.6,0.3c0,0,0,0,0,0C26.6,63.6,26.4,63.5,26.2,63.4z"/>
		<path class="st3" d="M2.6,47.8c0.9,0.2,1.9,0.6,2.8,0.9c-0.2-0.8-0.3-1.4-0.5-2.1c-0.4,0.1-0.9,0.1-1.3,0.3
			c-0.5,0.2-0.8,0.1-1.1-0.3c-0.4-0.4-0.8-0.7-1.2-1c0,0.3,0.1,0.6,0.1,0.9C1.5,47.3,1.8,47.6,2.6,47.8z"/>
		<path class="st3" d="M3.2,46.6c0.4-0.1,0.7-0.2,1.1-0.3c0,0,0-0.1,0-0.1c-0.8-0.2-1.6-0.5-2.4-0.7c0.3,0.4,0.7,0.7,1,1
			C3,46.5,3.2,46.6,3.2,46.6z"/>
		<path class="st8" d="M38.8,51.8c0.2-0.1,0.4-0.1,0.5-0.1c0.2,0,0.5,0,0.7-0.1l0,0c0.1-0.1,0.2-0.2,0.3-0.3
			c0.2-0.2,0.4-0.4,0.5-0.6c-0.3,0.2-0.6,0.4-0.9,0.6c-0.2,0.1-0.4,0.2-0.6,0.3c0,0,0-0.1-0.1-0.1c0.1-0.1,0.3-0.2,0.4-0.4
			c0.7-0.5,1.4-1,2.1-1.5c0,0,0,0,0,0c0,0,0.1-0.1,0.1-0.1c0.1-0.1,0.1-0.2,0.2-0.2c-0.2,0.1-0.5,0.2-0.7,0.3c0,0,0,0,0,0
			c0,0-0.1,0.1-0.1,0.1c-0.9,0.6-1.8,1.2-2.6,1.8c-0.1,0.1-0.2,0.2-0.4,0.3c-0.8,0.6-1.6,1.3-2.4,1.9c0.1,0,0.2,0.1,0.2,0.1
			c0.7-0.5,1.4-1.1,2.1-1.6C38.4,52,38.6,51.9,38.8,51.8z"/>
		<path class="st8" d="M35.9,53.7C35.9,53.7,35.9,53.7,35.9,53.7c0.8-0.6,1.6-1.3,2.4-1.9C37.5,52.4,36.7,53,35.9,53.7z"/>
		<path class="st8" d="M42.1,49.3c-0.2,0.1-0.5,0.2-0.7,0.3l0,0c0,0,0,0,0,0C41.6,49.5,41.9,49.4,42.1,49.3z"/>
		<path class="st8" d="M40,51.7L40,51.7c0.1-0.1,0.2-0.2,0.3-0.3C40.2,51.5,40.1,51.6,40,51.7L40,51.7z"/>
		<path class="st8" d="M41.8,49.6C41.8,49.6,41.8,49.6,41.8,49.6c0,0,0.1-0.1,0.1-0.1C41.9,49.6,41.8,49.6,41.8,49.6
			C41.8,49.6,41.8,49.6,41.8,49.6z"/>
		<path class="st13" d="M38.3,53.3C38.3,53.3,38.3,53.3,38.3,53.3L38.3,53.3c0.6-0.5,1.1-1.1,1.7-1.6c-0.2,0-0.5,0-0.7,0.1
			c-0.2,0-0.4,0-0.5,0.1c-0.2,0.1-0.3,0.2-0.5,0.3c-0.7,0.5-1.4,1.1-2.1,1.6c0.2,0.1,0.4,0.1,0.5,0.2c0.4-0.2,0.8-0.5,1.2-0.7
			C38,53.2,38.2,53.3,38.3,53.3z"/>
		<path class="st13" d="M38.3,53.3c0.6-0.5,1.1-1.1,1.7-1.6l0,0C39.4,52.2,38.8,52.8,38.3,53.3z"/>
		<path class="st8" d="M36.4,55.1c0.1-0.1,0.2-0.3,0.3-0.4c-0.4,0.2-0.7,0.5-1.1,0.7c-0.1,0.1-0.3,0.1-0.5,0.2c0-0.1,0-0.1-0.1-0.2
			c0.7-0.5,1.4-1,2.1-1.5c0.3-0.2,0.7-0.4,1-0.6c-0.1,0-0.2-0.1-0.3,0c-0.4,0.2-0.8,0.5-1.2,0.7c-1.6,1-3.3,2.1-4.7,3.4
			c0.1,0,0.2,0,0.3-0.1c0.7-0.5,1.4-0.9,2-1.4c0.2-0.1,0.4-0.2,0.5-0.3c0.2,0,0.4,0,0.5,0.1l0,0l0,0C35.7,55.6,36.1,55.3,36.4,55.1z
			"/>
		<path class="st8" d="M34.8,55.7c0.2,0,0.4,0,0.5,0.1l0,0C35.2,55.7,35,55.6,34.8,55.7z"/>
		<polygon class="st8" points="38.3,53.3 38.3,53.3 38.3,53.3 		"/>
		<path class="st2" d="M36.9,55.9c-0.4,0.3-0.7,0.6-1.1,0.9c0,0,0,0.1,0,0.1c0.2,0,0.4,0.2,0.5,0.1c0.4-0.3,0.8-0.6,1.2-1
			c0-0.1,0-0.1,0-0.2C37.2,56,37,55.9,36.9,55.9z"/>
		<path class="st2" d="M42,51.3c-0.4,0.3-0.7,0.6-1.1,0.9c0,0.1,0,0.1,0,0.2c0.2,0,0.4,0.1,0.5,0c0.3-0.2,0.6-0.5,0.9-0.8
			c0.1-0.1,0.1-0.2,0.1-0.3C42.3,51.3,42.1,51.2,42,51.3z"/>
		<path class="st14" d="M39.7,51.1c-0.2,0.1-0.3,0.2-0.4,0.4c0,0,0,0.1,0.1,0.1c0.2-0.1,0.4-0.2,0.6-0.3c0.3-0.2,0.6-0.4,0.9-0.6
			c0.3-0.4,0.6-0.7,0.9-1.1C41.1,50.1,40.4,50.6,39.7,51.1z"/>
		<path class="st14" d="M40.9,50.8c0.3-0.4,0.6-0.7,0.9-1.1c0,0,0,0,0,0C41.5,50,41.2,50.4,40.9,50.8z"/>
		<path class="st14" d="M37.3,53.9c-0.7,0.5-1.4,1-2.1,1.5c0,0.1,0,0.1,0.1,0.2c0.2-0.1,0.3-0.1,0.5-0.2c0.4-0.2,0.7-0.4,1.1-0.7
			c0.2-0.2,0.5-0.4,0.7-0.7C37.4,54,37.3,54,37.3,53.9L37.3,53.9z"/>
		<path class="st14" d="M37.3,53.9L37.3,53.9c-0.7,0.5-1.4,1-2.1,1.5C35.8,54.9,36.6,54.4,37.3,53.9L37.3,53.9z"/>
		<path class="st13" d="M37.3,53.9c0.1,0,0.1,0.1,0.2,0.1c0.3-0.3,0.5-0.5,0.8-0.8c0,0,0,0,0,0C37.9,53.5,37.6,53.7,37.3,53.9z"/>
		<polygon class="st13" points="38.3,53.3 38.3,53.3 38.3,53.3 		"/>
		<path class="st13" d="M38.3,53.3L38.3,53.3c-0.3,0.2-0.7,0.4-1,0.6l0,0C37.6,53.7,37.9,53.5,38.3,53.3z"/>
		<polygon class="st13" points="38.3,53.3 38.3,53.3 38.3,53.3 		"/>
		<path class="st14" d="M25.8,52.7c-0.5-0.6-1.1-1.1-1.8-1.3c-0.9-0.3-1.9-0.6-2.8-0.9c-0.1,0-0.2,0-0.3,0c-0.1,0-0.2,0-0.3,0
			c0.3,1.4,0.6,2.9,0.9,4.3c0.2,0.9,0.9,1.1,1.7,1.3c0.4,0.1,0.8,0.2,1.2,0.3c0.7,0.2,1.2,0.5,1.7,1c0.3,0.5,0.8,0.6,1.4,0.7
			c-0.1-0.4-0.1-0.8-0.2-1.1c0,0,0,0,0,0c0.1-0.1,0.3-0.3,0.4-0.4c0.1-0.1,0.3-0.3,0.4-0.4c0.3-0.2,0.4-0.2,0.5,0.2
			c0.1,0.5,0.3,1.1,0.4,1.6c0.1,0.4,0.4,0.6,0.8,0.9c-0.1-0.4-0.2-0.8-0.3-1.2c-0.1-0.4-0.2-0.7-0.2-1.1l0,0v0
			C28,55.4,26.9,54,25.8,52.7z"/>
		<path class="st14" d="M27.1,57.1L27.1,57.1c0.1-0.1,0.3-0.3,0.4-0.4C27.4,56.8,27.3,57,27.1,57.1C27.1,57.1,27.1,57.1,27.1,57.1z"
			/>
		<path class="st14" d="M29.3,57.8c-0.1-0.4-0.2-0.7-0.2-1.1l0,0C29.2,57.1,29.3,57.4,29.3,57.8z"/>
		<path class="st17" d="M27.3,58.2c0,0.2,0.1,0.3,0.1,0.5l0,0c0.1,0.1,0.1,0.2,0.1,0.3c0,0.2,0.1,0.4,0.4,0.3
			c-0.1-0.7-0.3-1.3-0.4-2c0-0.1-0.1-0.2-0.2-0.3c0,0-0.1,0-0.1-0.1C27.2,57.5,27.2,57.9,27.3,58.2z"/>
		<path class="st17" d="M27.2,57.2C27.2,57.2,27.2,57.1,27.2,57.2L27.2,57.2C27.2,57.1,27.2,57.2,27.2,57.2z"/>
		<path class="st17" d="M27.4,58.8C27.4,58.8,27.4,58.8,27.4,58.8c0.1,0.1,0.1,0.2,0.1,0.3C27.5,59,27.5,58.9,27.4,58.8L27.4,58.8z"
			/>
		<path class="st7" d="M30.9,67.5c0.2,1.1,1.3,1.9,2.6,1.9c0.2-0.2,0.4-0.4,0.4-0.8c-0.1-0.5-0.2-1-0.6-1.4
			c-0.3-0.3-0.6-0.5-0.9-0.7c-0.2-0.1-0.4-0.1-0.6-0.1c-0.3,0-0.6,0.1-0.9,0.4c0,0,0,0,0,0c0,0,0,0,0,0
			C30.9,67.1,30.9,67.3,30.9,67.5z"/>
		<path class="st7" d="M31.8,66.5c-0.3,0-0.6,0.1-0.9,0.4c0,0,0,0,0,0C31.2,66.7,31.5,66.6,31.8,66.5z"/>
		<path class="st7" d="M7.7,59.8c-0.3-0.7-0.9-1.1-1.6-1.4c-0.1,0-0.2-0.1-0.3,0c-0.3,0-0.6,0.2-0.8,0.5l0,0c0,0,0,0,0,0
			c0.1,1.6,1.2,2.6,2.6,2.4C8,60.9,8,60.5,7.7,59.8z"/>
		<path class="st7" d="M5.7,58.4c-0.3,0-0.6,0.2-0.8,0.5l0,0C5.2,58.7,5.4,58.5,5.7,58.4z"/>
		<path class="st8" d="M27.3,58.2c-0.5-0.1-1-0.2-1.4-0.7c-0.4-0.6-1-0.9-1.7-1c-0.4-0.1-0.8-0.2-1.2-0.3c-0.8-0.2-1.5-0.5-1.7-1.3
			c-0.3-1.4-0.6-2.9-0.9-4.3c-0.4,0.2-0.4,0.5-0.3,0.9c0.3,1.3,0.6,2.5,0.8,3.8c0.1,0.6,0.5,0.9,1,1.1c0.5,0.1,1,0.3,1.4,0.4
			c0.6,0.2,1.3,0.3,1.7,0.8c0.4,0.6,1,0.9,1.6,1.1c0.2,0.1,0.4,0.1,0.6,0.2C27.4,58.6,27.3,58.4,27.3,58.2z"/>
		<path class="st8" d="M26.8,58.6c0.2,0.1,0.4,0.1,0.6,0.2c0,0,0,0,0,0C27.2,58.7,27,58.7,26.8,58.6z"/>
		<path class="st1" d="M21.6,57c0,0.2,0.1,0.4,0.2,0.4c0.4,0.2,0.9,0.3,1.3,0.4c0-0.1,0.1-0.1,0.1-0.2C22.8,57.1,22.1,57.2,21.6,57z
			"/>
	</g>
	<g>
		<path class="st18" d="M41,7.1c0,0-5.1,13.9,11.7,11c0,0-14.3,0-11.9,12.8c0,0,3.7-15.2-12.9-9.6C27.8,21.2,41.3,22.4,41,7.1z"/>
		<path class="st18" d="M46.3,7.7c0,0,3.4,6.2,9.5,0c0,0-6.2,4.4,0,7.8c0,0-4.5-6.2-9.5,0.8C46.3,16.4,52.7,12.7,46.3,7.7z"/>
		<path class="st18" d="M45.5,22c0,0,3.4,6.2,9.5,0c0,0-6.2,4.4,0,7.8c0,0-4.5-6.2-9.5,0.8C45.5,30.7,51.8,27,45.5,22z"/>
		<path class="st18" d="M27.7,23.4c0,0,3.4,6.2,9.5,0c0,0-6.2,4.4,0,7.8c0,0-4.5-6.2-9.5,0.8C27.7,32,34,28.3,27.7,23.4z"/>
		<line class="st19" x1="24.9" y1="4.4" x2="37" y2="14.1"/>
		<line class="st19" x1="25.9" y1="20.5" x2="6.5" y2="20.8"/>
	</g>
	<g>
		<g>
			<path class="st20" d="M32.6,33.3c10.5,0,19,8.5,19,19s-8.5,19-19,19s-19-8.5-19-19S22.1,33.3,32.6,33.3 M32.6,28.3
				c-13.3,0-24,10.7-24,24s10.7,24,24,24s24-10.7,24-24S45.9,28.3,32.6,28.3L32.6,28.3z"/>
		</g>
		<g>
			<path class="st20" d="M60.8,77.4L50,68.5l1.5-1.9l10.7,8.8c0.5,0.4,0.5,1.1,0.2,1.5l-0.1,0.2C61.9,77.7,61.2,77.7,60.8,77.4z"/>
		</g>
		<g>
			<path class="st21" d="M32.6,31.8C43.9,31.8,53,41,53,52.2s-9.2,20.4-20.4,20.4s-20.4-9.2-20.4-20.4S21.3,31.8,32.6,31.8
				 M32.6,28.8c-12.9,0-23.4,10.5-23.4,23.4s10.5,23.4,23.4,23.4S56,65.2,56,52.2S45.5,28.8,32.6,28.8L32.6,28.8z"/>
		</g>
	</g>
	<g>
		<path class="st22" d="M27.6,48.2c-0.1,0-0.4-0.9-0.5-0.8c-0.1-0.1-0.1-0.2-0.2-0.3c-0.1-0.2-0.2-0.3-0.3-0.5
			c-0.1-0.2-0.3-0.4-0.4-0.6c0,0,0-0.1-0.1-0.1c0,0,0,0,0,0c-0.1-0.2-0.2-0.4-0.3-0.6c-0.3-0.7-0.5-1.5-0.5-2.3
			c-0.1-1.9,0.6-3.6,1.9-5c0.2-0.2,0.5-0.4,0.7-0.6c0.1,0,0.2,0,0.2-0.1c0.1-0.1,0.2-0.2,0.3-0.2c0.1,0,0.2-0.1,0.2-0.2c0,0,0,0,0,0
			c0.2-0.1,0.3-0.1,0.5-0.2c0,0,0-0.1,0-0.1c0.8-0.4,1.7-0.6,2.6-0.7c1.9-0.1,3.5,0.5,4.9,1.7c1.6,1.4,2.3,3.2,2.2,5.4
			c0,1.1-0.4,2.1-0.9,3.1c0,0,0,0.1-0.1,0.1c-0.2,0.3-0.3,0.5-0.5,0.8c0,0,0,0,0,0c-0.1,0.1-0.1,0.2-0.2,0.3c0,0,0,0,0,0
			c0,0.1-0.1,0.1-0.1,0.2c0,0,0,0,0,0c0,0.1-0.1,0.1-0.1,0.2c-0.1,0.2-0.2,0.3-0.3,0.5c-0.1,0.2-0.3,0.5-0.4,0.7
			c-0.1,0.2-0.2,0.4-0.3,0.6c-0.2,0.4-0.5,0.8-0.7,1.3c-0.3,0.6-0.7,1.1-1,1.7c-0.5,0.9-1,1.7-1.5,2.6c-0.2,0.3-0.3,0.6-0.5,0.9
			c0,0-0.1,0.1-0.1,0.1c0,0-0.1,0-0.1,0c-0.2-0.3-0.3-0.5-0.5-0.8c0-0.1,0-0.2,0-0.4c0,0,0,0,0,0c0,0,0,0.1-0.1,0.1
			c0-0.1-0.1-0.1-0.1-0.2c0,0,0,0,0,0c0,0,0,0,0,0c0-0.1-0.1-0.1-0.1-0.2c-0.1-0.1-0.2-0.3-0.2-0.5c0,0,0,0,0-0.1
			c-0.2-0.1-0.2-0.3-0.3-0.5c0-0.1,0-0.2-0.2-0.2c0,0,0,0,0,0c0,0,0-0.1,0-0.1c0-0.1-0.1-0.2-0.1-0.3c0,0,0,0,0.1,0c0,0,0,0,0,0
			c0,0,0,0,0,0.1c-0.1,0-0.1-0.1-0.2-0.1c-0.1-0.2-0.2-0.4-0.4-0.5c-0.3-0.5-0.6-1-0.9-1.6c-0.3-0.6-0.7-1.2-1-1.8
			C27.9,48.7,27.7,48.4,27.6,48.2C27.6,48.2,27.6,48.2,27.6,48.2 M27.5,47.9c0-0.1-0.1-0.1-0.1-0.2 M29.5,45.6
			c0.1,0.1,0.2,0.2,0.3,0.3c0.9,0.7,2,0.9,3.2,0.7c0.3-0.1,0.6-0.1,0.9-0.3c0.1-0.1,0.3-0.1,0.5-0.2c1.5-0.9,2.2-2.8,1.8-4.4
			c-0.6-2.2-2.8-3.5-5-2.9c-0.9,0.2-1.6,0.8-2.2,1.5c-0.3,0.4-0.6,0.9-0.7,1.5c-0.2,0.9-0.1,1.8,0.3,2.6l0,0
			C28.8,44.8,29.1,45.2,29.5,45.6L29.5,45.6z"/>
		<circle class="st23" cx="32.2" cy="43.1" r="4.6"/>
	</g>
</g>
</svg>
