<svg id="Layer_1" data-name="Layer 1" xmlns="http://www.w3.org/2000/svg" viewBox="0 0 83.07 63.86"><defs><style>.cls-1{fill:#448aff;}.cls-2{fill:#f6f6f6;}.cls-3{fill:none;stroke:orange;stroke-miterlimit:10;stroke-width:5px;}.cls-4{fill:orange;}</style></defs><path class="cls-1" d="M18,47.3c.25.73.5,1.46.76,2.19a2.94,2.94,0,0,1-2.73-1c-.07-.07-.18-.15-.19-.23-.12-.69-.59-.74-1.18-.76a20.49,20.49,0,0,1-2.19-.28c-.32,0-.56,0-.68.36a1.38,1.38,0,0,1-1.29.89c-.68.05-1.38,0-2.07,0a.76.76,0,0,0-.52.1c-.53.49-1,1-1.52,1.54a.77.77,0,0,0-.09.57A2.73,2.73,0,0,1,5,53.51a2.72,2.72,0,0,1-3.32-.57A2.54,2.54,0,0,1,1,50.33,2.48,2.48,0,0,1,4,48.45a1.69,1.69,0,0,0,1.74-.73c.2-.22.39-.52.64-.62.56-.22.56-.63.56-1.09a2.69,2.69,0,0,1,1.24-2.35,2.58,2.58,0,0,1,2.8-.12,1.65,1.65,0,0,1,.74.66c.42.94,1.26.93,2.07,1l1.36.21a.69.69,0,0,0,.83-.32,2.14,2.14,0,0,1,1.5-1c.11.72.23,1.44.35,2.15-.39,0-.25.34-.27.55S17.75,47.27,18,47.3ZM8.87,45.79c.23.55.5.86,1,.67.17-.07.42-.34.39-.44-.09-.27-.33-.69-.47-.68A2.81,2.81,0,0,0,8.87,45.79ZM3.68,50.5c-.39.14-.81.28-.62.77a.72.72,0,0,0,.55.41.8.8,0,0,0,.62-.39C4.46,50.79,4,50.68,3.68,50.5Z" transform="translate(-0.93 -10.36)"/><path class="cls-1" d="M74.56,35.59l-.33-2.08c.44-.12.66-.45.53-.82s-.43-.53-.92-.34c-.17-.72-.35-1.44-.52-2.16h1.09c.14,0,.31,0,.41,0,1,.71,1.65-.17,2.37-.59.41-.23.75-.58,1.15-.83a.58.58,0,0,0,.29-.64A2.58,2.58,0,0,1,80.2,25.5a2.3,2.3,0,0,1,2.75.34,2.62,2.62,0,0,1,.75,3.3,2.26,2.26,0,0,1-1.9,1.33c-.6,0-1.25.19-1.8-.27l-3.15,2.19A2.72,2.72,0,0,1,76,34.93,6.22,6.22,0,0,1,74.56,35.59Zm6.76-8.32a.62.62,0,0,0-.68.66.9.9,0,0,0,.7.71c.28,0,.57-.37.58-.75S81.61,27.34,81.32,27.27Z" transform="translate(-0.93 -10.36)"/><path class="cls-1" d="M22.11,41.41c.76-.53,1.54-1,2.29-1.59.38-.28.74-.61,1.09-.92a.41.41,0,0,0,.13-.26c-.05-.47-.16-.94-.17-1.41a4.83,4.83,0,0,1,.7-2.2,5,5,0,0,1,2.6-2.39,4.35,4.35,0,0,1,3.1-.24A5.08,5.08,0,0,1,34,33.52a7,7,0,0,1,1.28,1.55,4.24,4.24,0,0,1,.55,3c-.13.74.4,1,.81,1.31.92.72,1.86,1.43,2.81,2.11s1.94,1.23,2.81,2,1.31,0,2-.08a6.19,6.19,0,0,1,.92-.23c.6,0,1.21,0,1.82,0a.88.88,0,0,0,.57-.25q1.51-1.8,3-3.64c.83-1,1.64-2.07,2.45-3.13.43-.56.81-1.17,1.24-1.73.31-.4.65-.76,1-1.15a8.85,8.85,0,0,0,1-1.18,1.12,1.12,0,0,0,0-.88,4.92,4.92,0,0,1,.14-4.42,5.21,5.21,0,0,1,3-2.65,5.16,5.16,0,0,1,3.4.08A5.48,5.48,0,0,1,65.06,26a3.56,3.56,0,0,1,.77,1.57c.14.82.7.95,1.31,1.1.25.56.51,1.12.75,1.69s.51,1.22.73,1.84a3.67,3.67,0,0,1,.11.75c-.91-.23-1.82-.49-2.74-.7a1.07,1.07,0,0,0-1.15.38,4.92,4.92,0,0,1-4.49,1.64l-.15,0a1,1,0,0,0-1.25.52,15.94,15.94,0,0,1-1.59,1.82c-.3.37-.53.8-.81,1.19s-.79,1-1.19,1.55Q54,41.06,52.68,42.76c-.57.72-1.16,1.42-1.73,2.13a3.25,3.25,0,0,0-.47.65.78.78,0,0,0,0,.52,4.68,4.68,0,0,1,.37,3.08c-.09.3,0,.68-.14,1a5.61,5.61,0,0,1-1.57,2.24,5.24,5.24,0,0,1-3.55,1.23,5.31,5.31,0,0,1-3.42-1.46,5.12,5.12,0,0,1-1.54-4.53,1,1,0,0,0-.53-1c-1.32-.92-2.63-1.83-4-2.74-.8-.55-1.6-1.11-2.42-1.64a.77.77,0,0,0-.61,0,5.33,5.33,0,0,1-3.41.5,9,9,0,0,1-1.56-.48.61.61,0,0,0-.44.06c-.85.62-1.67,1.27-2.52,1.89-.66.49-1.35,1-2,1.44a2.83,2.83,0,0,0-.24.25,16.53,16.53,0,0,1-.65-3.49A3.91,3.91,0,0,0,22.11,41.41ZM60.85,30.49a1.36,1.36,0,0,0,1.47-1.32A1.54,1.54,0,0,0,61,27.74a1.57,1.57,0,0,0-1.5,1.39C59.44,30,59.9,30.47,60.85,30.49ZM32.09,37.54a1.28,1.28,0,0,0-1.38-1.41,1.34,1.34,0,0,0-1.43,1.38c-.06.76.71,1.28,1.37,1.34A1.41,1.41,0,0,0,32.09,37.54ZM45.77,47c-.87,0-1.28.48-1.27,1.43a1.28,1.28,0,0,0,1.3,1.43,1.56,1.56,0,0,0,1.31-1.51A1.28,1.28,0,0,0,45.77,47Z" transform="translate(-0.93 -10.36)"/><path class="cls-2" d="M73.84,32.35c.49-.19.78-.08.92.34s-.09.7-.53.82C73.79,33.23,74,32.75,73.84,32.35Z" transform="translate(-0.93 -10.36)"/><path class="cls-2" d="M18,47.3c-.25,0-.48-.1-.46-.42s-.12-.51.27-.55Z" transform="translate(-0.93 -10.36)"/><path class="cls-2" d="M8.87,45.79a2.81,2.81,0,0,1,.92-.45c.14,0,.38.41.47.68,0,.1-.22.37-.39.44C9.37,46.65,9.1,46.34,8.87,45.79Z" transform="translate(-0.93 -10.36)"/><path class="cls-2" d="M3.68,50.5c.29.18.78.29.55.79a.8.8,0,0,1-.62.39.72.72,0,0,1-.55-.41C2.87,50.78,3.29,50.64,3.68,50.5Z" transform="translate(-0.93 -10.36)"/><path class="cls-2" d="M81.32,27.27c.29.07.61.17.6.62s-.3.76-.58.75a.9.9,0,0,1-.7-.71A.62.62,0,0,1,81.32,27.27Z" transform="translate(-0.93 -10.36)"/><path class="cls-2" d="M60.85,30.49c-1,0-1.41-.47-1.39-1.36A1.57,1.57,0,0,1,61,27.74a1.54,1.54,0,0,1,1.36,1.43A1.36,1.36,0,0,1,60.85,30.49Z" transform="translate(-0.93 -10.36)"/><path class="cls-2" d="M32.09,37.54a1.41,1.41,0,0,1-1.44,1.31c-.66-.06-1.43-.58-1.37-1.34a1.34,1.34,0,0,1,1.43-1.38A1.28,1.28,0,0,1,32.09,37.54Z" transform="translate(-0.93 -10.36)"/><path class="cls-2" d="M45.77,47a1.28,1.28,0,0,1,1.34,1.35,1.56,1.56,0,0,1-1.31,1.51,1.28,1.28,0,0,1-1.3-1.43C44.49,47.44,44.9,47,45.77,47Z" transform="translate(-0.93 -10.36)"/><circle class="cls-3" cx="45.17" cy="28.82" r="26.32"/><path class="cls-4" d="M67.24,59.23h5a0,0,0,0,1,0,0V73.17a2.11,2.11,0,0,1-2.11,2.11h-1a1.89,1.89,0,0,1-1.89-1.89V59.23a0,0,0,0,1,0,0Z" transform="translate(-27.86 50.47) rotate(-40.16)"/></svg>