<svg id="Layer_1" data-name="Layer 1" xmlns="http://www.w3.org/2000/svg" xmlns:xlink="http://www.w3.org/1999/xlink" viewBox="0 0 63.36 62.66"><defs><style>.cls-1{fill:url(#linear-gradient);}.cls-2{fill:#737373;}.cls-3{fill:orange;}</style><linearGradient id="linear-gradient" x1="15.97" y1="4.12" x2="47.39" y2="58.54" gradientUnits="userSpaceOnUse"><stop offset="0" stop-color="#c4c4c4"/><stop offset="0.08" stop-color="#d5d5d5"/><stop offset="0.18" stop-color="#e6e6e6"/><stop offset="0.32" stop-color="#f2f2f2"/><stop offset="0.5" stop-color="#f9f9f9"/><stop offset="1" stop-color="#fbfbfb"/></linearGradient></defs><ellipse class="cls-1" cx="31.68" cy="31.33" rx="31.68" ry="31.33"/><path class="cls-2" d="M17.78,22.16V35a.45.45,0,0,0,.24.42l12.12,5.68a.48.48,0,0,0,.61-.3l0-.12.12-13.62a.42.42,0,0,0-.29-.42L27,25.21a.44.44,0,0,0-.59.21.5.5,0,0,0-.05.21V28.3a1,1,0,0,1-1.05,1,1.06,1.06,0,0,1-.79-.37l-.13-.08a1.1,1.1,0,0,0-1.21-.3h0a1,1,0,0,1-1.37-.54,1,1,0,0,1-.09-.42l0-4.22a.53.53,0,0,0-.3-.42l-3-1.27a.45.45,0,0,0-.6.2A.4.4,0,0,0,17.78,22.16Z" transform="translate(0 0)"/><path class="cls-2" d="M32.65,26.71l11.37-5a.46.46,0,0,1,.6.23.58.58,0,0,1,0,.19V35a.48.48,0,0,1-.26.42L33.12,41.09a.48.48,0,0,1-.61-.26.41.41,0,0,1,0-.16l0-13.58A.42.42,0,0,1,32.65,26.71Z" transform="translate(0 0)"/><path class="cls-2" d="M31.73,25.5l11.21-4.89c.17-.08.17-.29,0-.33l-3.51-1.21h-.12l-11.48,4.5a.19.19,0,0,0-.14.21.17.17,0,0,0,.14.13l3.72,1.59C31.6,25.56,31.65,25.56,31.73,25.5Z" transform="translate(0 0)"/><path class="cls-3" d="M25.47,27.92,25.68,24a.36.36,0,0,1,.24-.34l12.21-4.89-2.72-1L22.75,22.62a.37.37,0,0,0-.26.37l.05,4.35a.4.4,0,0,0,.4.4.32.32,0,0,0,.14,0l.64-.25a.53.53,0,0,1,.42.09l.64.63a.38.38,0,0,0,.54.06A.41.41,0,0,0,25.47,27.92Z" transform="translate(0 0)"/><path class="cls-2" d="M22.67,21.78,33.74,17.6a.23.23,0,0,0,.13-.32.25.25,0,0,0-.13-.14l-2.38-.83h-.17L19.71,20.13a.22.22,0,0,0-.15.26.22.22,0,0,0,.15.16l2.76,1.17C22.54,21.82,22.58,21.82,22.67,21.78Z" transform="translate(0 0)"/><path class="cls-2" d="M50.49,28.48a20.31,20.31,0,0,1-2.21,8.88c-.12.23-.25.46-.39.68a.35.35,0,0,0,.06.5h0c.89.89,1.77,1.79,2.66,2.67l3.91,3.91c1.59,1.59,3.18,3.19,4.78,4.78a1.77,1.77,0,0,1,0,2.49l0,.06c-1.23,1.27-2.51,2.55-3.77,3.77a4.44,4.44,0,0,0-.37.38,1.83,1.83,0,0,1-2.57.25l-.17-.16L41.17,45.45c-.3-.31-.3-.29-.68-.08a19.48,19.48,0,0,1-6.85,2.26A19.36,19.36,0,0,1,13,35.24a18.92,18.92,0,0,1-1.18-8,18.51,18.51,0,0,1,1.91-7.36,19.63,19.63,0,0,1,7.51-8.08A19.44,19.44,0,0,1,37.13,10.1a19.35,19.35,0,0,1,9.64,7,18.93,18.93,0,0,1,3.45,8.39C50.34,26.48,50.39,27.48,50.49,28.48Zm-19.37-16a16,16,0,1,0,16,16v0A16,16,0,0,0,31.12,12.45Z" transform="translate(0 0)"/></svg>