<svg id="Layer_1" data-name="Layer 1" xmlns="http://www.w3.org/2000/svg" viewBox="0 0 75.47 75.54"><defs><style>.cls-1{fill:#737373;}.cls-2{fill:orange;}</style></defs><path class="cls-1" d="M14.53,25.66V45.85a.71.71,0,0,0,.39.65l19,8.92a.76.76,0,0,0,1-.66l.2-21.37a.64.64,0,0,0-.46-.65L29,30.44a.7.7,0,0,0-1,.66v4.19a1.64,1.64,0,0,1-2.89,1.05l-.2-.13a1.73,1.73,0,0,0-1.9-.46h0a1.64,1.64,0,0,1-2.29-1.51l-.07-6.62a.77.77,0,0,0-.46-.65l-4.65-2A.7.7,0,0,0,14.53,25.66Z" transform="translate(-5.09 -5.24)"/><path class="cls-1" d="M37.86,32.8,55.69,25a.71.71,0,0,1,1,.66V45.78a.73.73,0,0,1-.4.66l-17.7,8.91a.73.73,0,0,1-1-.65l-.07-21.31A.63.63,0,0,1,37.86,32.8Z" transform="translate(-5.09 -5.24)"/><path class="cls-1" d="M36.42,30.9,54,23.23c.26-.13.26-.46,0-.52l-5.51-1.9h-.19l-18,7.07a.27.27,0,0,0,0,.53l5.83,2.49C36.22,31,36.29,31,36.42,30.9Z" transform="translate(-5.09 -5.24)"/><path class="cls-2" d="M26.59,34.7l.33-6.16a.55.55,0,0,1,.39-.52l19.14-7.67-4.26-1.58L22.33,26.38a.57.57,0,0,0-.4.59L22,33.78a.63.63,0,0,0,.85.59l1-.39a.8.8,0,0,1,.66.13l1,1A.61.61,0,0,0,26.59,34.7Z" transform="translate(-5.09 -5.24)"/><path class="cls-1" d="M22.2,25.07l17.37-6.56a.39.39,0,0,0,0-.72l-3.74-1.31h-.26l-18,6a.34.34,0,0,0,0,.66l4.32,1.83C22,25.13,22.07,25.13,22.2,25.07Z" transform="translate(-5.09 -5.24)"/><path class="cls-1" d="M65.84,35.58A31.9,31.9,0,0,1,62.38,49.5c-.19.36-.39.72-.61,1.07a.56.56,0,0,0,.1.8c1.4,1.39,2.78,2.8,4.18,4.19q3.06,3.07,6.13,6.13,3.73,3.75,7.49,7.49a2.77,2.77,0,0,1,0,4c-1.93,2-3.93,4-5.91,5.92-.19.19-.4.38-.58.59a2.86,2.86,0,0,1-4.3.14L51.23,62.19c-.47-.48-.48-.46-1.07-.13a30.3,30.3,0,0,1-10.74,3.55,30.18,30.18,0,0,1-23.85-7.14A30.29,30.29,0,0,1,7,46.17,29.84,29.84,0,0,1,5.15,33.7a29.35,29.35,0,0,1,3-11.53A30.8,30.8,0,0,1,19.93,9.49,29.9,29.9,0,0,1,32,5.44,30.23,30.23,0,0,1,44.88,6.75,30.28,30.28,0,0,1,60,17.73a29.62,29.62,0,0,1,5.42,13.15C65.6,32.43,65.69,34,65.84,35.58ZM35.46,10.43A25.14,25.14,0,1,0,60.58,35.52,25.16,25.16,0,0,0,35.46,10.43Z" transform="translate(-5.09 -5.24)"/></svg>