<svg id="Layer_1" data-name="Layer 1" xmlns="http://www.w3.org/2000/svg" viewBox="0 0 84 83.8"><defs><style>.cls-1{fill:#fff;}.cls-2{fill:#fcfcfc;}.cls-3{fill:#77b6e2;}.cls-4{fill:#ececec;}.cls-5{fill:#ebecec;}.cls-6{fill:#89d588;}.cls-7{fill:#88d587;}.cls-8{fill:#ebebeb;}.cls-9{fill:#eaebeb;}.cls-10{fill:#ebeceb;}.cls-11{fill:#e7eaea;}.cls-12{fill:orange;}.cls-13{fill:#8fd78e;}.cls-14{fill:#d7d6d5;}.cls-15{fill:#fcfbf8;}.cls-16{fill:#464646;}.cls-17{fill:#b78c62;}.cls-18{fill:#c99d71;}.cls-19{fill:#b2865c;}.cls-20,.cls-26,.cls-27,.cls-28,.cls-29{fill:#775532;}.cls-21{fill:#785532;}.cls-22{fill:#795633;}.cls-23{fill:#7a5733;}.cls-24{fill:#815c37;}.cls-25,.cls-26,.cls-27,.cls-28,.cls-29{isolation:isolate;}.cls-26,.cls-27,.cls-28,.cls-29{font-size:1.95px;font-family:ArialMT, Arial;}.cls-26{letter-spacing:-0.06em;}.cls-27{letter-spacing:-0.01em;}.cls-29{letter-spacing:0.02em;}.cls-30{font-size:2.09px;font-family:MyriadPro-Regular, Myriad Pro;}</style></defs><rect class="cls-1" x="0.17" y="0.01" width="83.78" height="83.63"/><path class="cls-2" d="M72.71,83.77H71.9A5.42,5.42,0,0,1,72,83q.81-3.78,1.63-7.58c.07-.36,0-.62-.42-.72-.68-.15-1.32-.4-2-.59l-8.92-2.65-3.38-1c-.32.85-.64,1.61-.89,2.38-.66,1.93-1.28,3.87-1.93,5.8l-1.71,5.16h-.81c.36-1.14.69-2.28,1.08-3.42.73-2.19,1.5-4.38,2.24-6.56l1.21-3.58-4.69-1.4-2-.67c-1.85-.53-3.72-1-5.55-1.59-.6-.19-.8-.06-1.08.44-.94,1.8-1.93,3.57-2.93,5.34C40.94,73.87,40,75.37,39.16,77L36.1,82.4c-.21.45-.41.9-.58,1.37h-.93a2.19,2.19,0,0,1,.16-.57q2-3.75,4.15-7.49,2.51-4.5,5.09-9c.24-.44.16-.68-.33-.83-1.38-.4-2.75-.84-4.14-1.25-1.78-.52-3.57-1-5.36-1.55-1.62-.45-1.13-.68-2.23.76a2.84,2.84,0,0,1-.32.5c-.24.25-.5.47-.75.7V63.73l1.19-1.26-1.24-.21V60.52a12.16,12.16,0,0,1,1.34.4c.6.24.91,0,1.27-.46,1.15-1.62,2.37-3.21,3.55-4.81.64-.87,1.25-1.75,1.91-2.67a1.92,1.92,0,0,0-.41-.19l-6.1-1.46c-.49-.11-1-.17-1.22.43,0,.11-.24.15-.38.22V49.56a1.65,1.65,0,0,0,.41-.28q2.31-2.61,4.6-5.26l1-1.22-6-2.58v-.81a3.13,3.13,0,0,1,.52.16c1.78.78,3.56,1.59,5.35,2.35a1.12,1.12,0,0,0,.93-.08,22.5,22.5,0,0,0,1.74-1.92c.45-.54.84-1.11,1.34-1.76-3.05-.87-5.79-2-7.93-4.23l-.28.15-2,1.2-.49-.5c.48-.32,1-.61,1.44-.94.8-.58.78-.59.34-1.45a8.24,8.24,0,0,1-.3-7.06,19.47,19.47,0,0,1,1.36-2.5c.19-.34.28-.62-.11-.86l-4.84-2.73c-2.26,2-4.53,4.08-6.77,6.12a.78.78,0,0,0-.11.74c.61,1.38,1.28,2.73,1.93,4.08s1.37,2.84,2,4.26H24a.59.59,0,0,0-.05-.19c-1.2-2.51-2.42-5-3.61-7.52-.27-.55-.56-.42-.95-.16l-5.33,3.59-3.69,2.53,1,1.75h-.93c-.16-.29-.35-.56-.5-.85a.52.52,0,0,0-.81-.16Q4.92,36.34.66,39.22a1.87,1.87,0,0,1-.62.19v-.92a1.38,1.38,0,0,0,.39-.09L3,36.7c1.89-1.28,3.78-2.6,5.72-3.79.47-.31.49-.5.19-.93C7,29.21,5.24,26.49,3.46,23.74a.83.83,0,0,0-1.06-.49.72.72,0,0,0-.21.12c-.69.33-1.43.55-2.15.82v-.81a3.26,3.26,0,0,0,.63-.18c1.91-.85,3.81-1.7,5.7-2.58,1.5-.69,3.05-1.37,4.51-2.11,2.69-1.37,5.39-2.73,8-4.16,2.18-1.17,4.34-2.41,6.45-3.69,1.58-.95,3.1-2,4.62-3.06,1.18-.81,2.33-1.68,3.47-2.58A13.71,13.71,0,0,1,38.67,2.2a5.63,5.63,0,0,1,4.54.65c2,1.34,3.12,4.37,1.37,6.57q-3.49,4.39-7.12,8.69a42.61,42.61,0,0,0-5,6.65,8,8,0,0,0-.79,5.14,7.27,7.27,0,0,0,4.07,5.38,44.75,44.75,0,0,0,4.43,1.95c.7.3,1.35.34,1.77-.46.07-.12.21-.18.29-.29l1.7-2.17a1.7,1.7,0,0,0,.38-.26l4.43-5.22,1.61-1.47a.78.78,0,0,0,.25-.07l6.18-4.87,2.55-2,.65.08c-2,1.63-4.07,3.23-6,4.76a41.65,41.65,0,0,0-7.24,6.67c-2.75,3.37-5.64,6.64-8.47,10-.28.35-.49.75-.74,1.13l1.3.39a3.48,3.48,0,0,0-.9.56c-1.68,1.91-3.34,3.84-5,5.78-.21.29-.41.59-.59.89,2.19.46,4.22.91,6.26,1.43A1.14,1.14,0,0,0,40,51.55l5.15-7.08.81.14c-.26.41-.52.81-.8,1.19L40.9,51.59c-.18.25-.34.5-.53.8a4.29,4.29,0,0,0,.63.23l7.75,1.78c1.93.45,1.89.44,2.86-1.36s2-3.62,3-5.43a10.06,10.06,0,0,0,.53-1.38l.94.14c-1,1.79-1.92,3.58-2.89,5.37-.59,1.08-1.2,2.14-1.86,3.3l.9.22c2.58.6,5.17,1.2,7.75,1.83.81.19,1.61.43,2.4.66a2.36,2.36,0,0,1-.17.63.88.88,0,0,1-.28,0c-3-.72-6-1.5-9-2.14-2.24-.48-1.77-1-3,1.24s-2.38,4.25-3.57,6.38c-.18.33-.34.67-.56,1.14l12.86,3.66c-.32,1.12-.32,1.13.77,1.45l3.33,1c1.67.49,3.33,1,5,1.46.2.06.45-.08.69-.12A3.8,3.8,0,0,0,68,72a2.42,2.42,0,0,0-.57-.2c-2.56-.75-5.09-1.52-7.67-2.25-.35-.1-.54-.19-.39-.58l4.83,1.46,9.16,2.67c.66.19.78.11.92-.58.29-1.46.57-2.91.89-4.36.4-1.85.82-3.71,1.22-5.57a3.3,3.3,0,0,0,0-.77L72.88,61l-7.56-1.78c-.83-.21-1.65-.47-2.47-.71l.19-.62,2.26.51,10.5,2.46a6.85,6.85,0,0,0,.91.11l2.22-10.37a6.82,6.82,0,0,0-.71-.19q-4-.72-8-1.41c-1.31-.22-2.62-.4-3.93-.61.12-.4.22-.78-.36-.92.14-.47.25-1,.41-1.43.71-2.14,1.45-4.27,2.18-6.41.19-.56.33-1.14.51-1.73-2.8.4-5.47.77-8.14,1.18a1.47,1.47,0,0,0-.94.45c-.49.74-.88,1.53-1.3,2.31l-2.12,3.91h-.91l3.49-6.35h-.44c-1.77.13-3.53.29-5.3.39H50.46a1.15,1.15,0,0,0-1.27.61,9.9,9.9,0,0,1-.79,1L46.53,44l-.83-.13c.38-.59.75-1.19,1.16-1.77.58-.82,1.19-1.63,1.83-2.48-.23-.08-.46-.14-.69-.2l-4.8-.66c-.41,0-.83-.19-1.19.28-.62.8-1.33,1.55-2,2.32-.35.42-.68.86-1,1.28l-.63-.06,3.52-4.07,5.23-6.12a25.08,25.08,0,0,1,2.64-3c3-2.5,6.1-4.89,9.22-7.32l2.18-1.76-1-.38a6.86,6.86,0,0,1,.81-.71c.82-.64,1.67-1.25,2.48-1.89L70.29,12c.61-.48,1.2-1,1.91-1.58-1.6-.37-3-.71-4.4-1a1,1,0,0,0-.67.15c-1.86,1.12-3.7,2.27-5.56,3.39a5.58,5.58,0,0,1-1,.41c.18-.4.37-.79.54-1.19a4.24,4.24,0,0,0,.5-.18c1.33-.79,2.68-1.55,4-2.4a5.44,5.44,0,0,0,2.23-2c.74-1.42,1.71-2.73,2.56-4.07C71,2.33,71.73,1.17,72.44,0h.94c-.57,1-1.14,1.89-1.7,2.84a.79.79,0,0,0-.12.47c0,.07.25.15.38.16H75a1.21,1.21,0,0,0,.65-.29A20,20,0,0,0,77.07,1.7C77.55,1.16,78,.58,78.45,0h1.06a2.7,2.7,0,0,1-.24.44c-.88,1-1.77,1.92-2.64,2.9a2,2,0,0,1-1.77.81c-1.24,0-2.49,0-3.73.07a.6.6,0,0,0-.45.23c-.62.92-1.22,1.86-1.81,2.79-.26.41-.51.84-.82,1.36,1.66.4,3.17.78,4.71,1.11a1,1,0,0,0,.7-.26c1.33-1,2.65-2,4-3.12s2.43-2,3.66-2.87C82,2.75,83,2.05,84,1.35v2l-1.24.86v.22L83.92,5v.93c-.56-.26-1.1-.56-1.68-.78a.85.85,0,0,0-.7,0C80,6.28,78.4,7.48,76.86,8.69l-8.48,6.64-1.29,1,.06.27c2.57,0,5.09.13,7.67,0a8.61,8.61,0,0,0,3.43-1,41.17,41.17,0,0,0,3.86-2.71c.59-.42,1.2-.8,1.8-1.2v1.6a1.82,1.82,0,0,0-1.72.54A28.51,28.51,0,0,1,79.32,16a10.69,10.69,0,0,1-6.15,1.67c-2.26,0-4.51-.24-6.77-.36a.9.9,0,0,0-.55.15c-1.71,1.32-3.42,2.67-5.09,4-.43.35-.82.76-1.24,1.15a4,4,0,0,0-.68.35l-6.42,5-1.64,1.38a6.31,6.31,0,0,0-.78.58c-.87,1-1.73,2-2.57,3-.51.6-1,1.24-1.48,1.87A21.86,21.86,0,0,0,43.14,38c.79.11,1.4.2,2,.27,1.84.21,3.68.49,5.53.58a51.9,51.9,0,0,0,9.49-.51c1.56-.2,3.13-.36,4.67-.63,2.27-.38,4.53-.78,6.79-1.24,2.94-.61,5.88-1.29,8.82-1.93l3.5-.74v.79a.76.76,0,0,0-.83.67v.07c-.16,1-.44,1.94-.65,2.91-.39,1.89-.76,3.77-1.17,5.65s-.82,3.63-1.2,5.44c0,.17.17.57.32.59,1.17.23,2.35.39,3.53.57v.81l-4.07-.61a5,5,0,0,0-.3.93c-.58,2.63-1.14,5.26-1.72,7.89-.38,1.74-.39,1.74,1.39,2l.25.08,4.47,1v.94l-6.6-1.62c-.26,1.16-.48,2.21-.71,3.27-.54,2.48-1.09,5-1.63,7.44-.11.5,0,.91.59,1a10.61,10.61,0,0,1,1.33.39l7,2v1.68a3.83,3.83,0,0,1-.59-.1l-6-1.81c-.92-.27-1.84-.52-2.8-.78-.39,1.67-.81,3.32-1.16,4.93C73.17,81.25,72.94,82.52,72.71,83.77ZM82.32,35a4.17,4.17,0,0,0-.5,0l-9.08,2a14.26,14.26,0,0,0-2.33.52c-.88.36-.61,1.43-1,2.09a.86.86,0,0,0-.12.3q-1,2.85-1.94,5.71c-.2.58-.34,1.17-.53,1.86,1,.15,1.86.28,2.74.43,3,.54,6,1,8.95,1.66.68.13.81-.11.91-.63l1-4.93ZM40.53,13.34l-.6-.44c-.88-.57-1.76-1.12-2.62-1.69L31.94,7.63a.59.59,0,0,0-.52,0c-.69.44-1.35.93-2,1.37-2,1.3-4.1,2.6-6.18,3.88-.75.46-1.52.88-2.42,1.4l12.7,7.3ZM3.71,22.72c.94,1.36,1.85,2.66,2.73,4,1,1.55,2,3.13,3.05,4.69.46.68.49.67,1.18.19,1.12-.8,2.25-1.56,3.39-2.34,1.7-1.16,3.39-2.33,5.09-3.45.51-.33.4-.65.21-1-.47-.93-.95-1.85-1.4-2.79-.74-1.49-1.45-3.05-2.2-4.51a.61.61,0,0,0-.6-.21,12,12,0,0,0-1.48.73c-2.14,1-4.29,2.11-6.45,3.14Zm30,38.66.72.21,5.87,1.72c1.35.4,2.71.79,4.07,1.24a.71.71,0,0,0,1-.46c.42-.84.9-1.63,1.35-2.45l3.39-6c-.32-.11-.57-.21-.81-.27-2.93-.68-5.86-1.34-8.79-2a1,1,0,0,0-1.19.39ZM41,12.7a2.69,2.69,0,0,0,.32-.27c.94-1.23,1.91-2.44,2.79-3.71a3.71,3.71,0,0,0-.13-4,4.72,4.72,0,0,0-5.4-1.72A14.19,14.19,0,0,0,34.1,5.5c-.56.42-1,.93-1.64,1.48ZM27,18.91c-.13-.17-.16-.24-.21-.27-2.16-1.23-4.31-2.48-6.48-3.69a1,1,0,0,0-.75,0c-.86.4-1.71.84-2.55,1.27s-.73.42-.37,1.17c.64,1.3,1.28,2.62,1.94,3.92s1.14,2.34,1.76,3.59Z"/><path class="cls-3" d="M48.75,28.83,44.32,34a1.7,1.7,0,0,1-.38.26c-1.4-.58-2.82-1.08-4.17-1.75A7.81,7.81,0,0,1,36,28.83a7.21,7.21,0,0,1,.3-6.23,18.73,18.73,0,0,1,5.5-6.52,35.88,35.88,0,0,0,5.69-5.33,6.13,6.13,0,0,0,1.31-6,5.74,5.74,0,0,0-2.36-2.91C45.3,1.15,44.13.61,43,0h9.23a10.43,10.43,0,0,0,1,.93c1.11.86,2.29,1.66,3.39,2.56a3.33,3.33,0,0,0,2.48.77.94.94,0,0,0,.92-1,1,1,0,0,0-.1-.42,4,4,0,0,0-.95-1.36A22.65,22.65,0,0,0,56.79,0h8.42c.16.14.32.31.48.44a3.62,3.62,0,0,1,1.11,5,2.8,2.8,0,0,1-.25.35,11.77,11.77,0,0,1-4.93,3.84,1.5,1.5,0,0,0-.12-.45,3.06,3.06,0,0,0-3.59-2.13,3,3,0,0,0-2.36,3.49,1.36,1.36,0,0,0,0,.17,12.21,12.21,0,0,0,.53,1.58A29.39,29.39,0,0,0,48,17a14.26,14.26,0,0,0-3.8,4.85,4.21,4.21,0,0,0,1.63,5.69A22.64,22.64,0,0,0,48.75,28.83Z"/><path class="cls-4" d="M30.8,65.07c.26-.23.52-.45.76-.7a2.84,2.84,0,0,0,.32-.5c1.1-1.44.61-1.21,2.23-.76q2.69.75,5.36,1.55c1.39.41,2.76.85,4.14,1.25.49.15.57.39.33.83q-2.55,4.49-5.09,9-2.09,3.74-4.15,7.49a2.19,2.19,0,0,0-.16.57H17.44a2.48,2.48,0,0,1,.27-.65c1.46-2,2.94-4,4.39-6,.36-.53.7-1.07,1-1.63h6l1.93.3.07-.19-.66-.87a8.48,8.48,0,0,0,.34-1.65C30.8,70.44,30.79,67.76,30.8,65.07Z"/><path class="cls-5" d="M43,0c1.13.6,2.3,1.14,3.38,1.83a5.71,5.71,0,0,1,2.37,2.91,6.11,6.11,0,0,1-1.3,6,35.88,35.88,0,0,1-5.69,5.33,18.73,18.73,0,0,0-5.5,6.52A7.21,7.21,0,0,0,36,28.83a7.84,7.84,0,0,0,3.82,3.78c1.35.67,2.77,1.17,4.17,1.75l-1.7,2.14c-.08.11-.22.17-.29.29-.42.8-1.07.76-1.77.46a44.75,44.75,0,0,1-4.43-2,7.27,7.27,0,0,1-4.07-5.38,8,8,0,0,1,.79-5.16,43,43,0,0,1,5-6.65q3.6-4.29,7.12-8.69c1.75-2.2.65-5.23-1.37-6.57a5.63,5.63,0,0,0-4.54-.65,13.5,13.5,0,0,0-5.16,2.85C32.35,5.94,31.2,6.81,30,7.62c-1.51,1-3.05,2.09-4.62,3.06C23.29,12,21.13,13.2,19,14.37c-2.65,1.43-5.35,2.79-8,4.16-1.49.74-3,1.42-4.51,2.11L.67,23.2a3.26,3.26,0,0,1-.63.18v-2.7l.15-.15,1.08-.34a83.8,83.8,0,0,0,12.21-5.25A116.39,116.39,0,0,0,25.77,7.26c2.49-1.75,5-3.52,7.5-5.21,1.14-.74,2.38-1.37,3.58-2Z"/><path class="cls-4" d="M35.52,83.77c.16-.46.35-.91.55-1.35L39.13,77c.87-1.56,1.78-3.11,2.65-4.67,1-1.77,2-3.54,2.93-5.34.28-.5.48-.63,1.08-.44,1.83.6,3.7,1,5.55,1.59.71.21,1.39.45,2,.67l4.69,1.4-1.18,3.58c-.74,2.18-1.51,4.37-2.24,6.57-.39,1.13-.72,2.27-1.08,3.41Z"/><path class="cls-3" d="M36.85,0c-1.2.67-2.44,1.27-3.58,2-2.54,1.69-5,3.46-7.5,5.21A117.06,117.06,0,0,1,13.45,15,83.8,83.8,0,0,1,1.24,20.22l-1.08.34V14.73l.61-.17A85.83,85.83,0,0,0,11.32,9c3.57-2,7.12-4.22,10.7-6.31C23.59,1.73,25.21.89,26.81,0Z"/><path class="cls-3" d="M45.91,34.75c.49-.63,1-1.27,1.48-1.87.84-1,1.7-2,2.57-3a5.64,5.64,0,0,1,.78-.58,33.09,33.09,0,0,0,12.07-.13A74.33,74.33,0,0,0,76.58,25.1L84,22.36v6.12c-.23.07-.47.13-.69.21-3.48,1.29-6.94,2.66-10.45,3.84A55.33,55.33,0,0,1,61,35.1a41.69,41.69,0,0,1-8.79.32C50.05,35.21,48,35,45.91,34.75Z"/><path class="cls-4" d="M54.38,83.77l1.71-5.16c.65-1.93,1.27-3.87,1.93-5.8.25-.77.57-1.53.89-2.38l3.38,1,8.92,2.65c.66.19,1.3.44,2,.59.47.1.49.37.42.72Q72.79,79.21,72,83a5.42,5.42,0,0,0-.08.8Z"/><path class="cls-6" d="M52.35,27.93l6.42-5a3.65,3.65,0,0,1,.68-.35A4.35,4.35,0,0,0,63.4,21.3c.7-.7,1.58-1.23,2.34-1.88A2,2,0,0,1,67.42,19c1.1.13,2.21.21,3.31.23,2.89,0,5.79-.12,8.67-.29,1.53-.08,3-.41,4.55-.63v2.94l-.26.07c-4.43,1.72-8.86,3.49-13.32,5.15A34.21,34.21,0,0,1,57,28.83a32.69,32.69,0,0,1-4.17-.59C52.67,28.21,52.51,28,52.35,27.93Z"/><path class="cls-5" d="M45.91,34.75c2,.22,4.14.46,6.22.67A41.43,41.43,0,0,0,61,35.1a55.11,55.11,0,0,0,11.89-2.58c3.51-1.18,7-2.55,10.45-3.84.22-.08.46-.14.69-.21v5.34l-3.5.74c-2.94.64-5.88,1.32-8.82,1.93-2.26.46-4.52.86-6.79,1.24-1.54.27-3.11.43-4.66.63a52.06,52.06,0,0,1-9.5.51c-1.85-.09-3.69-.37-5.53-.58-.61-.07-1.22-.16-2-.27A22.13,22.13,0,0,1,45.91,34.75Z"/><path class="cls-7" d="M.17,0H20.26a2.59,2.59,0,0,1-.41.4C15.4,3.47,10.92,6.52,6.49,9.58A21.41,21.41,0,0,1,.18,12.53Z"/><path class="cls-4" d="M0,39.41a1.87,1.87,0,0,0,.62-.19q4.27-2.88,8.51-5.78c.35-.24.6-.22.81.16s.34.56.5.85a2,2,0,0,0-2.13,1.94c0,.11,0,.22,0,.33v.87l0,11.63a1.57,1.57,0,0,0-.3.12c-1.34.87-2.68,1.71-4,2.63a1.82,1.82,0,0,1-1.9.19A19.19,19.19,0,0,0,0,51.62Z"/><path class="cls-4" d="M0,83.64V70.28a3.4,3.4,0,0,0,.59-.4c1.09-1.16,2.18-2.32,3.25-3.51s2-2.23,3-3.32a20.56,20.56,0,0,1,1.5-1.46v11.6a2.41,2.41,0,0,0,.83,2c-.12.06-.27.08-.35.17-.69.76-1.36,1.51-2,2.28C5.55,79.11,4.32,80.54,3.12,82c-.47.58-.9,1.2-1.36,1.81H.17Z"/><path class="cls-8" d="M16.37,83.77H3.93a2,2,0,0,1,.25-.58c1.36-1.6,2.75-3.18,4.07-4.78.8-.94,1.57-1.91,2.35-2.87H22.11a2.61,2.61,0,0,1-.27.67c-1.44,2-2.91,3.91-4.35,5.88C17.09,82.63,16.75,83.21,16.37,83.77Z"/><path class="cls-4" d="M84,76.16l-7-2a10.61,10.61,0,0,0-1.33-.39c-.63-.13-.71-.54-.59-1,.54-2.49,1.09-5,1.62-7.44.24-1,.46-2.11.72-3.27L84,63.62Z"/><path class="cls-4" d="M84,11.63c-.6.4-1.21.78-1.8,1.2a42.15,42.15,0,0,1-3.9,2.75,8.55,8.55,0,0,1-3.44,1.11c-2.54.17-5.08,0-7.67,0l-.06-.27,1.29-1,8.48-6.63c1.54-1.22,3.05-2.42,4.68-3.59a.85.85,0,0,1,.7,0c.58.22,1.12.52,1.68.78Z"/><path class="cls-4" d="M0,69.07V55.33c.41-.2.81-.39,1.22-.61.66-.34,1.19-1,2.12-.67a14.41,14.41,0,0,0,1.83.58c1,.3,2.08.56,3.12.84v5a2.26,2.26,0,0,0-.26.16c-1.2,1.27-2.41,2.56-3.6,3.92-1,1.09-1.95,2.23-2.95,3.31A16,16,0,0,1,0,69.07Z"/><path class="cls-4" d="M0,24.19c.72-.27,1.46-.49,2.15-.82a.81.81,0,0,1,1.15.16.72.72,0,0,1,.12.21q2.67,4.13,5.42,8.15c.3.43.28.62-.19.93C6.75,34.1,4.86,35.42,3,36.7L.43,38.4a1.38,1.38,0,0,1-.39.09Z"/><path class="cls-4" d="M72.71,83.77c.23-1.25.44-2.52.7-3.77.35-1.61.72-3.22,1.11-4.93,1,.26,1.88.51,2.8.78l6,1.81a3.83,3.83,0,0,0,.59.1v5.88l-.13.13Z"/><path class="cls-9" d="M.18,12.53a21.46,21.46,0,0,0,6.29-3C10.9,6.51,15.38,3.46,19.83.4A2.27,2.27,0,0,0,20.26,0h6.57c-1.6.88-3.22,1.72-4.78,2.64C18.46,4.74,14.92,6.87,11.34,9A86.09,86.09,0,0,1,.77,14.56l-.57.19L0,14.56V12.7Z"/><path class="cls-4" d="M84,62.66l-4.47-1-.21-.08c-1.78-.35-1.77-.35-1.39-2,.58-2.63,1.14-5.26,1.72-7.89a5,5,0,0,1,.3-.93l4.07.61Z"/><path class="cls-4" d="M84,1.31C83,2,82,2.72,81.09,3.44c-1.23.93-2.44,1.95-3.66,2.9s-2.64,2.11-4,3.13a1,1,0,0,1-.69.27c-1.54-.33-3-.71-4.71-1.11.31-.52.56-1,.82-1.36.59-.94,1.23-1.88,1.81-2.8a.64.64,0,0,1,.44-.23c1.24,0,2.49-.12,3.73-.07a2,2,0,0,0,1.78-.82c.87-1,1.76-1.93,2.64-2.9A2.46,2.46,0,0,0,79.53,0H84Z"/><path class="cls-10" d="M84,18.31c-1.52.22-3,.55-4.55.63-2.88.17-5.78.24-8.67.29-1.1,0-2.21-.1-3.31-.23a2,2,0,0,0-1.68.42c-.76.65-1.64,1.18-2.34,1.88a4.35,4.35,0,0,1-3.95,1.28c.42-.39.81-.8,1.24-1.15,1.69-1.35,3.4-2.7,5.09-4a.88.88,0,0,1,.55-.15c2.26.12,4.51.33,6.76.36a10.7,10.7,0,0,0,6.25-1.71,28.51,28.51,0,0,0,2.87-2.14,1.82,1.82,0,0,1,1.72-.54Z"/><path class="cls-5" d="M61.63,9.63a11.88,11.88,0,0,0,4.92-3.84A3.62,3.62,0,0,0,66,.7a2.7,2.7,0,0,0-.34-.25c-.16-.13-.32-.3-.48-.44h7.23c-.71,1.16-1.4,2.32-2.12,3.5-.85,1.37-1.82,2.68-2.56,4.07a5.44,5.44,0,0,1-2.23,2c-1.3.85-2.65,1.61-4,2.4a4.24,4.24,0,0,1-.5.18Z"/><path class="cls-4" d="M84,50.5c-1.18-.18-2.36-.34-3.53-.57-.15,0-.36-.42-.32-.59.38-1.81.81-3.63,1.2-5.44s.78-3.76,1.17-5.65c.21-1,.49-1.93.64-2.91a.76.76,0,0,1,.77-.74H84Z"/><path class="cls-11" d="M52.35,27.93c.16.1.32.28.5.31a32.24,32.24,0,0,0,4.14.59,34.21,34.21,0,0,0,13.38-2.36c4.46-1.66,8.89-3.43,13.32-5.15l.26-.07v1.07l-7.37,2.74a74.33,74.33,0,0,1-13.77,4.08,33.09,33.09,0,0,1-12,.17Z"/><path class="cls-2" d="M8.33,55.45l-3.12-.84A14.41,14.41,0,0,1,3.38,54c-.93-.39-1.46.32-2.12.67-.41.22-.81.41-1.22.61v-.93l1.35-.68v-.26L0,53.17v-1.6a19.19,19.19,0,0,1,2.11.54,1.82,1.82,0,0,0,1.9-.19c1.3-.92,2.64-1.76,4-2.63a1.57,1.57,0,0,1,.3-.12v.93c-.45.27-.9.53-1.34.82-.85.54-1.68,1.1-2.51,1.66v.18l3.83,1.09Z"/><path class="cls-7" d="M56.79,0a22.65,22.65,0,0,1,2.13,1.5,3.88,3.88,0,0,1,.91,1.36,1,1,0,0,1-.41,1.29.88.88,0,0,1-.42.11,3.32,3.32,0,0,1-2.47-.77c-1.1-.9-2.28-1.7-3.4-2.56A11.78,11.78,0,0,1,52.19,0Z"/><path class="cls-2" d="M10.63,75.54c-.78,1-1.55,1.93-2.35,2.87C6.93,80,5.54,81.59,4.21,83.19a2,2,0,0,0-.25.58H1.78c.46-.61.89-1.23,1.36-1.81,1.2-1.45,2.43-2.88,3.66-4.31.67-.77,1.34-1.52,2-2.28.08-.09.23-.11.35-.17Z"/><path class="cls-4" d="M78.47,0c-.46.56-.9,1.14-1.38,1.68a20,20,0,0,1-1.42,1.49,1.21,1.21,0,0,1-.65.29H72c-.14,0-.37-.09-.39-.16a.79.79,0,0,1,.12-.47C72.26,1.89,72.83,1,73.4,0Z"/><path class="cls-2" d="M0,69.07a16.47,16.47,0,0,0,1.48-1.29c1-1.08,2-2.25,2.95-3.27,1.19-1.36,2.4-2.65,3.59-4a1.31,1.31,0,0,1,.27-.12v1.2c-.51.48-1,.95-1.5,1.46-1,1.09-2,2.22-2.95,3.32S1.72,68.72.63,69.88a3.4,3.4,0,0,1-.59.4Z"/><path class="cls-2" d="M16.37,83.77c.38-.56.72-1.14,1.12-1.68,1.44-2,2.91-3.92,4.35-5.88a2.61,2.61,0,0,0,.27-.67h1c-.31.56-.65,1.1-1,1.63-1.45,2-2.93,4-4.39,6a2.48,2.48,0,0,0-.27.65Z"/><path class="cls-2" d="M.18,12.53,0,12.68V.52A2.93,2.93,0,0,1,.17,0Z"/><path class="cls-4" d="M84,5l-1.21-.53V4.2L84,3.35Z"/><path class="cls-4" d="M0,53.17l1.31.27v.26L0,54.38Z"/><path class="cls-2" d="M0,14.56l.16.17v5.83L0,20.68Z"/><path class="cls-2" d="M0,83.64l.13.13Z"/><path class="cls-2" d="M83.82,83.77l.13-.13Z"/><path class="cls-4" d="M82.32,35l-1.91,9.1c-.35,1.64-.69,3.28-1,4.93-.1.52-.23.76-.91.63-3-.6-6-1.11-9-1.65-.88-.16-1.78-.29-2.74-.44.19-.69.33-1.28.53-1.86q1-2.86,1.94-5.71a.86.86,0,0,1,.12-.3c.46-.66.19-1.73,1-2.09a14.26,14.26,0,0,1,2.33-.52l9.08-2A4.4,4.4,0,0,1,82.32,35Z"/><path class="cls-4" d="M66.37,48.36c1.31.21,2.62.39,3.93.61q4,.69,8,1.41a2.78,2.78,0,0,1,.71.19L76.77,60.94a6.85,6.85,0,0,1-.91-.11l-10.5-2.44-2.26-.51c.26-.76.5-1.52.77-2.27Z"/><path class="cls-4" d="M40.53,13.34l-7,8.24L20.78,14.29c.9-.52,1.67-.94,2.41-1.4,2-1.28,4.1-2.58,6.19-3.88.69-.44,1.35-.93,2-1.37a.59.59,0,0,1,.52,0l5.36,3.58c.87.57,1.75,1.12,2.63,1.69Z"/><path class="cls-4" d="M58.72,68.67,45.87,65c.22-.47.38-.81.56-1.14,1.19-2.13,2.39-4.25,3.57-6.38s.75-1.72,3-1.24c3,.64,6,1.42,9,2.14h.26c-.44,1.31-.88,2.6-1.32,3.9Z"/><path class="cls-4" d="M3.71,22.72c1.25-.57,2.4-1,3.53-1.61,2.16-1,4.31-2.09,6.45-3.14.5-.25,1-.54,1.48-.74a.63.63,0,0,1,.6.22c.75,1.49,1.46,3.06,2.2,4.51.45.94.93,1.86,1.4,2.79.19.39.3.71-.21,1-1.73,1.12-3.42,2.29-5.09,3.45-1.14.78-2.27,1.54-3.39,2.33-.69.49-.72.5-1.18-.18-1-1.56-2-3.14-3-4.69C5.56,25.37,4.65,24.07,3.71,22.72Z"/><path class="cls-10" d="M62.91,58.48c.83.24,1.64.5,2.47.71L72.94,61l3.48.82a3.3,3.3,0,0,1,0,.77c-.4,1.86-.82,3.72-1.22,5.57-.32,1.45-.6,2.9-.88,4.36-.15.69-.27.77-.93.58L64.23,70.4,59.4,68.94c.4-1.19.78-2.4,1.2-3.6Q61.73,61.92,62.91,58.48Zm6.17,11.21c.65-1.24,1.36-2.44,1.91-3.73a6.1,6.1,0,0,0,.68-2.78,3.06,3.06,0,0,0-3.46-2.59l-.31.06a3,3,0,0,0-2.21,3.57,3.05,3.05,0,0,0,.17.51c.72,1.76,1.65,3.44,2.48,5.16a.86.86,0,0,0-.39,0,4.26,4.26,0,0,0-.54.41c.16.15.31.39.5.41a6.27,6.27,0,0,0,1.5,0c.23,0,.42-.27.63-.41l-.58-.46a2.47,2.47,0,0,0-.36-.11Z"/><path class="cls-4" d="M24.93,34.45l-2-4.26c-.65-1.36-1.32-2.71-1.93-4.08a.78.78,0,0,1,.11-.74c2.24-2,4.51-4.08,6.77-6.12L32.69,22c.39.24.3.52.11.86a18.68,18.68,0,0,0-1.34,2.49,8.24,8.24,0,0,0,.31,7.06c.44.86.46.87-.33,1.45-.46.33-1,.62-1.45.94a10.62,10.62,0,0,0-1.59-.3C27.24,34.43,26.08,34.45,24.93,34.45Z"/><path class="cls-4" d="M33.73,61.38l5.63-7.7a1,1,0,0,1,1.19-.39c2.93.73,5.86,1.39,8.79,2,.24.06.49.16.81.27l-3.43,6c-.45.82-.93,1.61-1.35,2.45-.23.49-.49.64-1,.46-1.35-.45-2.71-.84-4.07-1.24l-5.87-1.72Z"/><path class="cls-4" d="M62.42,57.75c-.79-.23-1.59-.47-2.4-.66-2.58-.63-5.17-1.23-7.75-1.83l-.9-.22c.66-1.16,1.27-2.22,1.86-3.3,1-1.79,1.92-3.58,2.89-5.37l6,1,3.61.69L65.1,50C64.22,52.59,63.32,55.17,62.42,57.75Z"/><path class="cls-4" d="M55.18,46.23a11.54,11.54,0,0,1-.53,1.38c-1,1.81-2,3.6-3,5.43s-.93,1.81-2.86,1.36l-7.69-1.78a4.29,4.29,0,0,1-.63-.23c.19-.3.35-.55.53-.8,1.4-1.92,2.82-3.85,4.22-5.79.28-.38.54-.78.8-1.19Z"/><path class="cls-10" d="M48.75,28.83a22.19,22.19,0,0,1-2.89-1.33,4.21,4.21,0,0,1-1.63-5.69A14.38,14.38,0,0,1,48,17a29.39,29.39,0,0,1,8.14-4.7c.39.8.8,1.59,1.2,2.4l-1.22.78L52.08,17.9a.49.49,0,0,0-.23.35c0,.11.2.24.32.28.7.19,1.41.37,2.11.54l4.9,1.22.13.12h0l-2.55,2a13.08,13.08,0,0,1-5.19-2.31,6.5,6.5,0,0,0-1-.6,3.16,3.16,0,0,0-4.06,1.89,3,3,0,0,0-.12.43,3.81,3.81,0,0,0,1.13,3c.87.92,1.89,1.7,2.85,2.55Z"/><path class="cls-4" d="M56.63,45.72l2.12-3.91c.42-.78.81-1.57,1.3-2.31A1.47,1.47,0,0,1,61,39c2.65-.41,5.32-.78,8.14-1.18-.18.58-.32,1.17-.51,1.73-.72,2.14-1.47,4.27-2.18,6.41-.16.47-.27,1-.41,1.43l-.72-.08-3.05-.47c-.36-.09-.71-.18-1.08-.25l-4.26-.79-.28-.13Z"/><path class="cls-4" d="M41,12.7,32.47,7c.6-.55,1.08-1,1.64-1.48a14.14,14.14,0,0,1,4.47-2.45,4.73,4.73,0,0,1,5.36,1.72,3.71,3.71,0,0,1,.13,4c-.88,1.27-1.85,2.48-2.79,3.71A2.37,2.37,0,0,1,41,12.7Z"/><path class="cls-4" d="M60.51,13.35a5.58,5.58,0,0,0,1-.41c1.86-1.12,3.7-2.27,5.56-3.39a1,1,0,0,1,.67-.15c1.41.29,2.8.63,4.4,1-.71.59-1.3,1.1-1.91,1.58L63.4,17.38c-.81.64-1.66,1.25-2.48,1.89a5.79,5.79,0,0,0-.66.65l-5.87-1.43L53,18.13l3.51-2.21,1.24-.54.39.67-1,.6a2.09,2.09,0,0,0,2.95,0l-1.13-.44,1.45-2.53.15-.27Z"/><path class="cls-4" d="M24,34.45H11.41l-1-1.75,3.69-2.53,5.33-3.59c.39-.26.68-.39.95.16,1.19,2.51,2.41,5,3.61,7.52A.58.58,0,0,1,24,34.45Z"/><path class="cls-4" d="M45.14,44.47,40,51.55a1.14,1.14,0,0,1-1.38.47c-2-.52-4.07-1-6.25-1.47a10.55,10.55,0,0,1,.59-.89c1.66-1.94,3.32-3.87,5-5.78a3.48,3.48,0,0,1,.9-.56l.52.1Z"/><path class="cls-4" d="M27,18.91l-6.66,6c-.62-1.25-1.19-2.43-1.76-3.59l-1.94-3.92c-.36-.75-.34-.82.37-1.17s1.69-.87,2.55-1.27a1,1,0,0,1,.75,0c2.17,1.22,4.32,2.46,6.48,3.69C26.83,18.64,26.86,18.74,27,18.91Z"/><path class="cls-4" d="M46.61,44c.62-.88,1.24-1.76,1.88-2.64a11,11,0,0,0,.78-1,1.15,1.15,0,0,1,1.27-.61h2.93c1.77-.1,3.53-.26,5.3-.39a3.23,3.23,0,0,1,.44,0l-3.49,6.35-2.8-.55Z"/><path class="cls-4" d="M30.81,60.52V52c.14-.07.33-.11.38-.22.27-.6.73-.54,1.22-.43l6.11,1.46a2.09,2.09,0,0,1,.4.19c-.66.92-1.27,1.8-1.91,2.67-1.18,1.6-2.4,3.19-3.55,4.81-.36.49-.67.7-1.27.46A12.85,12.85,0,0,0,30.81,60.52Z"/><path class="cls-6" d="M50.36,27.39c-1-.85-2-1.63-2.85-2.55a3.81,3.81,0,0,1-1.13-3,3.17,3.17,0,0,1,3.75-2.45l.43.13a6.5,6.5,0,0,1,1,.6,13.08,13.08,0,0,0,5.19,2.31l-6.18,4.88A.86.86,0,0,1,50.36,27.39Z"/><path class="cls-12" d="M46.61,44l6.31,1.14,2.8.51h.91l.28.13,4.27.81c.37.07.72.16,1.08.25l-.12.52-6-1-.94-.14-9.23-1.62-.81-.14-5.77-1-.52-.1-1.28-.39a12.94,12.94,0,0,1,.74-1.13c2.82-3.31,5.71-6.58,8.42-9.91a41.7,41.7,0,0,1,7.2-6.59c2-1.53,4-3.13,6-4.76l-.65-.07h0l-.13-.13-4.9-1.22c-.7-.17-1.41-.35-2.11-.54a.44.44,0,0,1-.32-.27.49.49,0,0,1,.23-.36q2-1.24,4.07-2.46l.38.43L53,18.13l1.41.36,5.87,1.43,1,.38-2.17,1.76c-3.06,2.43-6.21,4.82-9.23,7.32a25.08,25.08,0,0,0-2.64,3L42,38.5l-3.52,4.07.63.06h0l.26.12,6.4,1.12Z"/><path class="cls-4" d="M30.8,39.41V36.78a9.63,9.63,0,0,0-.36-1.5l2-1.2.28-.15c2.14,2.27,4.93,3.36,7.93,4.23-.5.65-.89,1.22-1.34,1.76a21.63,21.63,0,0,1-1.78,1.92,1.12,1.12,0,0,1-.93.08c-1.79-.76-3.57-1.57-5.35-2.35A3.38,3.38,0,0,0,30.8,39.41Z"/><path class="cls-4" d="M45.78,43.87l-6.4-1.12-.26-.12h0c.33-.42.66-.86,1-1.28.65-.77,1.37-1.52,2-2.32.36-.47.78-.33,1.19-.28,1.6.2,3.2.44,4.8.66a6,6,0,0,1,.69.2c-.64.85-1.25,1.66-1.83,2.48C46.53,42.67,46.17,43.28,45.78,43.87Z"/><path class="cls-4" d="M30.81,49.56V40.22l6,2.58-1,1.22c-1.51,1.77-3,3.52-4.54,5.26A1.65,1.65,0,0,1,30.81,49.56Z"/><path class="cls-13" d="M62.15,47.41l.12-.52,3,.47.72.08c.58.14.48.52.36.92l-2.5,7.23c-.27.75-.51,1.51-.77,2.27l-.19.62q-1.19,3.45-2.37,6.86c-.42,1.2-.8,2.41-1.2,3.6-.15.39,0,.48.39.58,2.55.73,5.08,1.5,7.67,2.25A2.42,2.42,0,0,1,68,72a3.3,3.3,0,0,1,.53.46c-.24,0-.49.18-.69.12-1.66-.47-3.32-1-5-1.46l-3.33-1c-1.09-.32-1.09-.33-.77-1.45L61,62.28c.45-1.3.88-2.59,1.32-3.9.06-.2.12-.42.17-.63.9-2.58,1.79-5.15,2.68-7.74l.66-1.91Z"/><path class="cls-4" d="M30.81,63.73V62.26l1.24.21Z"/><path class="cls-8" d="M29.05,75.53l1.39-.75.65.86-.07.19Z"/><path class="cls-4" d="M8.33,50.1v3.75L4.5,52.76v-.18C5.33,52,6.16,51.46,7,50.92,7.43,50.63,7.88,50.37,8.33,50.1Z"/><path class="cls-14" d="M68.31,69.88l.39.29.38-.44.35.16.58.46c-.21.14-.41.38-.63.41a5.38,5.38,0,0,1-1.5,0c-.19,0-.34-.26-.5-.41a4.26,4.26,0,0,1,.54-.41A.86.86,0,0,1,68.31,69.88Z"/><path class="cls-15" d="M57.34,14.69c.14.22.27.45.4.67l-1.24.54-.38-.43Z"/><path class="cls-2" d="M59.2,20.32l.13.13Z"/><path class="cls-2" d="M56.89,45.83l-.28-.13Z"/><path class="cls-14" d="M58.13,16l.41.57.38-.44,1.17.42a2.09,2.09,0,0,1-3,.05Z"/><path class="cls-2" d="M60.37,13.63l.15-.27Z"/><path class="cls-2" d="M39.12,42.63l.26.12Z"/><rect class="cls-16" x="8.6" y="34.45" width="22.07" height="41.09" rx="1.26"/><rect class="cls-1" x="9.18" y="36.6" width="20.88" height="36.67" rx="1.82"/><path class="cls-17" d="M24.55,47.11V52.2H24.5l-1.69,1.09-3.28,1.94-.45.27h0V50h0l.67-.35.61-.33.71-.39.38-.19.42-.24.44-.23.5-.26.45-.25c.14-.07.28-.14.41-.22l.35-.2.31-.18Zm-.63,3.06h0l-.89.49-.86.46a.07.07,0,0,0,0,.09v.41h.07l1-.54.69-.37a.15.15,0,0,0,.09-.16.29.29,0,0,1,0-.13Zm0,1.32h-.08L23,52l-.89.53h0v.22h.05l.68-.4,1-.63h0l.06-.21Zm-1.82.79h.08a4.21,4.21,0,0,1,.51-.29l1.2-.73h0V51h-.06l-1,.53-.75.42h0Z"/><path class="cls-18" d="M19.07,50v5.37H19l-2.44-1.45-1.94-1.15-1-.62v-5h0l.06,0,.21.1.85.45.67.35.28.15v1.23h.08l.07.12H16c.06.08.06.08.15,0s.06,0,.07,0l.1.15h.18l.09.14v-1.2h0l.2.1.76.4.94.49Zm-2.5,2.78h0l-.14-.29-.18.11c.1,0,.1.08.1.16a1.61,1.61,0,0,0,0,.31h0a.46.46,0,0,0,.15.09v-.45Zm-1.24-.16h0a.27.27,0,0,1-.08-.29c.12,0,.13,0,.13-.17v-.13c0-.09,0-.1-.1-.12V52l-.08,0V52a.68.68,0,0,0,0-.14s-.1-.07-.17-.1V52a.37.37,0,0,0,.17.31h0v.19h-.11Zm-1.17-.8h0a.18.18,0,0,0,.08.15h.09v-.08a1,1,0,0,0,0-.24.26.26,0,0,1,.16.09h0l.17.05v-.09a1,1,0,0,0-.35-.45h-.22a.15.15,0,0,0-.14.13h0l.17.11c.08,0,.15,0,.15.16v.14a.11.11,0,0,1,0,.08l-.11,0h0Zm1.77.55h0c.09,0,.08.08.08.14v.32h0l.16.1v-.46h.08L16,52.28Zm0,.48V53l.73.43h0v-.09L16.17,53Zm-1.72-1.61h0v-.07h0A.08.08,0,0,0,14.21,51.26Zm-.05-.09Zm.28.24h0v-.06h0Z"/><path class="cls-19" d="M19.07,50l-.44-.23-.94-.49-.76-.4-.2-.1h0l.45-.22,1-.54,2-1,1.75-.92.12-.07h.06l2.33,1.07h0a.8.8,0,0,0-.16.08l-.3.15-.35.2c-.13.08-.27.15-.41.22l-.45.24-.5.27-.44.23-.42.24-.38.19-.71.39-.61.33L19.1,50Z"/><path class="cls-19" d="M15.68,48.26l-.28-.15-.67-.35-.85-.45-.21-.1-.06,0,.62-.3,4.35-2,.48-.23h.06l1.54.7.54.26-1.1.54-1.48.71-1.27.62Z"/><path class="cls-20" d="M23.92,50.17v.24a.29.29,0,0,0,0,.13.15.15,0,0,1-.09.16l-.7.37-1,.54h-.07v-.35a.07.07,0,0,1,0-.09l.86-.46.89-.49Z"/><path class="cls-20" d="M23.93,51.49v.23h0l-1,.62-.68.4h-.05v-.22h0l.89-.53.83-.49Z"/><path class="cls-20" d="M22.1,52.28V52h0l.75-.42,1-.53h.06v.24h0l-1.2.65a4.21,4.21,0,0,0-.51.29Z"/><path class="cls-12" d="M21.22,45.56l.89.41L22,46,20.24,47l-2,1-1,.55-.44.22h0V50a.71.71,0,0,1-.1-.14c-.05-.06-.05-.06-.11,0h-.07a1.3,1.3,0,0,0-.1-.15h-.21c-.07-.1-.07-.1-.16,0s0,0-.06,0l-.07-.12s0,0-.08,0h0V48.26l1.69-.83,1.27-.62,1.48-.71Z"/><path class="cls-21" d="M14.16,51.84h0l.07.06v-.13c0-.13-.07-.19-.15-.17l-.17-.11h0a.15.15,0,0,1,.14-.13h.22a1.1,1.1,0,0,1,.35.45v.09l-.17,0h0a.21.21,0,0,0-.16-.08.88.88,0,0,1,0,.23v.08a.08.08,0,0,1-.09,0,.18.18,0,0,1-.08-.15Z"/><path class="cls-22" d="M15.33,52.64l-.28-.15h.13v-.21h0a.36.36,0,0,1-.12-.29v-.2c.07,0,.14,0,.17.1l.06.14v.07l.08-.05V52c.09,0,.1,0,.1.12v.13c0,.14,0,.15-.13.17a.29.29,0,0,0,.08.29Z"/><path class="cls-22" d="M15.88,52.39l.16-.1.17.29h-.09V53l-.15-.1h0v-.32c0-.06,0-.12-.08-.14Z"/><path class="cls-20" d="M16.57,52.8h-.06v.44a.46.46,0,0,1-.15-.09h0a1.61,1.61,0,0,1,0-.31c0-.08,0-.14-.1-.16l.18-.11.14.29Z"/><path class="cls-23" d="M15.83,52.87l.27.15.5.3s0,0,0,.08h0L15.87,53S15.81,52.92,15.83,52.87Z"/><path class="cls-24" d="M14.21,51.26Z"/><path class="cls-24" d="M14.16,51.17v.09h0Z"/><path class="cls-24" d="M14.43,51.41h0v0Z"/><polygon class="cls-20" points="16.57 52.8 16.58 52.81 16.57 52.8 16.57 52.8"/><polygon class="cls-22" points="15.34 52.64 15.34 52.65 15.33 52.64 15.34 52.64"/><rect class="cls-12" x="13.01" y="64.93" width="13.35" height="3.26" rx="0.61"/><g class="cls-25"><text class="cls-26" transform="translate(16.07 67.22) scale(1.07 1)">T</text><text class="cls-27" transform="translate(17.01 67.22) scale(1.07 1)">r</text><text class="cls-28" transform="translate(17.68 67.22) scale(1.07 1)">ac</text><text class="cls-29" transform="translate(19.61 67.22) scale(1.07 1)">k</text><text class="cls-28" transform="translate(20.61 67.22) scale(1.07 1)">ing</text></g><path class="cls-12" d="M55.5,10.21V9.83l0-.13a3,3,0,0,1,2.2-2.61L58.28,7h.55l.1,0a3,3,0,0,1,2.67,3.14,7.16,7.16,0,0,1-.42,1.94,16.87,16.87,0,0,1-2.39,4.23l-.23.3-.12-.14A19.38,19.38,0,0,1,56.81,14a10.53,10.53,0,0,1-1.15-2.83C55.59,10.85,55.55,10.53,55.5,10.21Zm3-1.8A1.62,1.62,0,0,0,56.91,10h0a1.65,1.65,0,1,0,1.64-1.62Z"/><text class="cls-30" transform="translate(57.86 10.61)">A</text><path class="cls-13" d="M65.6,63.81v-.38l0-.13a3,3,0,0,1,2.2-2.61l.55-.11h.55l.1,0a3,3,0,0,1,2.67,3.14,7.16,7.16,0,0,1-.42,1.94,16.87,16.87,0,0,1-2.39,4.23l-.23.3-.12-.14a19.38,19.38,0,0,1-1.63-2.49,10.53,10.53,0,0,1-1.15-2.83C65.69,64.45,65.65,64.13,65.6,63.81ZM68.65,62A1.62,1.62,0,0,0,67,63.62h0A1.65,1.65,0,1,0,68.65,62Z"/><text class="cls-30" transform="translate(68.13 64.28)">B</text></svg>