<svg id="Layer_1" data-name="Layer 1" xmlns="http://www.w3.org/2000/svg" viewBox="0 0 84.13 60.37"><defs><style>.cls-1{fill:#059ff5;}</style></defs><path class="cls-1" d="M21.58,19.69V37.6c.32,0,.57,0,.82,0,2.84,0,5.68,0,8.51,0a.93.93,0,0,1,1.07.69A21,21,0,0,0,53,51.66a20.56,20.56,0,0,0,6.88-1.77.81.81,0,0,1,1.1.2c.65.72,1.36,1.4,2.08,2.14l.79-.61c1.06,1.33,2.08,2.7,3.21,4a4.07,4.07,0,0,1,1.09,3.09c-.09,2.46,0,4.93,0,7.4a6.3,6.3,0,0,1-6.57,6.54H13.73c-2.44,0-4.88,0-7.31,0A6.29,6.29,0,0,1-.12,66.06q0-19.9,0-39.83A6.24,6.24,0,0,1,6.4,19.66c4.85,0,9.69,0,14.54,0C21.11,19.65,21.28,19.67,21.58,19.69Zm24.6,47.16H59.09c1.5,0,2.08-.56,2.08-2.07,0-3.13,0-6.25,0-9.38,0-1.5-.59-2.09-2.08-2.09H33.28c-1.46,0-2.11.65-2.11,2.09v9.29c0,1.6.57,2.15,2.19,2.15ZM21.6,66.14V56.77l1.78-.11-3.64-5.85-3.69,5.93h2v9.4Zm-12.8,0h3.44V56.76l1.93-.1-3.64-5.85L6.86,56.72H8.8Z" transform="translate(0.13 -12.28)"/><path class="cls-1" d="M64.21,47.79l-.53.51-.45.39-2-2.27A18.43,18.43,0,0,1,45.1,48a18.07,18.07,0,0,1-9.59-8A18.44,18.44,0,1,1,67,40.63l2.14,1.89-1,1.07.86.7L82.15,54.87a4.81,4.81,0,0,1,1.74,4.92,4.28,4.28,0,0,1-3.33,3.65A4.56,4.56,0,0,1,75.66,62c-2.23-2.66-4.39-5.37-6.57-8.07C67.48,51.89,65.87,49.87,64.21,47.79Zm.9-17.21A13.7,13.7,0,0,0,51.57,16.75,13.9,13.9,0,0,0,37.64,30.54a13.74,13.74,0,0,0,27.47,0Z" transform="translate(0.13 -12.28)"/><path class="cls-1" d="M30.83,34.84H24.27V19.72h9.06A21.28,21.28,0,0,0,30.83,34.84Z" transform="translate(0.13 -12.28)"/><path class="cls-1" d="M45.47,64.85H43.59V55.49h1.88Z" transform="translate(0.13 -12.28)"/><path class="cls-1" d="M52.58,64.85H50.7V55.46h1.88Z" transform="translate(0.13 -12.28)"/><path class="cls-1" d="M37.94,55.46h1.88v9.36H37.94Z" transform="translate(0.13 -12.28)"/><path class="cls-1" d="M34.51,55.47h1v9.36h-1Z" transform="translate(0.13 -12.28)"/><path class="cls-1" d="M50,64.84H49V55.48h1Z" transform="translate(0.13 -12.28)"/><path class="cls-1" d="M54.15,64.85h-.94V55.48h.94Z" transform="translate(0.13 -12.28)"/><path class="cls-1" d="M55.86,64.84h-.94V55.48h.94Z" transform="translate(0.13 -12.28)"/><path class="cls-1" d="M37.06,64.85h-1V55.49h1Z" transform="translate(0.13 -12.28)"/><path class="cls-1" d="M42.82,64.85h-.94V55.49h.94Z" transform="translate(0.13 -12.28)"/><path class="cls-1" d="M48.24,64.85h-1V55.49h1Z" transform="translate(0.13 -12.28)"/><path class="cls-1" d="M57.71,64.85h-1V55.49h1Z" transform="translate(0.13 -12.28)"/></svg>