<svg id="Layer_1" data-name="Layer 1" xmlns="http://www.w3.org/2000/svg" viewBox="0 0 75.57 75.6"><defs><style>.cls-1{fill:#fea605;}.cls-2{fill:#fefefd;}</style></defs><path class="cls-1" d="M44.9,53.25c-6,5.3-12.85,7.29-20.62,5.4a21,21,0,0,1-11.41-7.33,21.75,21.75,0,0,1,1.34-28.65,7.37,7.37,0,0,1-5.31-4,7.09,7.09,0,0,1-.52-5.23,7.36,7.36,0,0,1,8.1-5.19c4.3.7,6.41,3.83,6.12,9.14,8.83-2.48,16.72-.87,22.94,6s7.13,14.81,3.74,23.54a11.68,11.68,0,0,1,8.4-2.06,11.31,11.31,0,0,1,8.05,17.24,11.32,11.32,0,0,1-19.38-.18A12.25,12.25,0,0,1,44.9,53.25ZM10.56,37.56c.14,11.18,8.57,19.58,19.69,19.3a19.08,19.08,0,1,0-19.69-19.3ZM65,56.17A8.94,8.94,0,1,0,56,65h.13A9,9,0,0,0,65,56.17ZM15.4,10.57a4.91,4.91,0,1,0,.44,0ZM45,53.1l-.07.06.07.09.06-.1Z" transform="translate(0 0.01)"/><path class="cls-1" d="M63.47,34.18c4.19-2.39,7.48-2.16,10.19.7A7.31,7.31,0,0,1,66,46.76c-3.52-1.19-5.24-4.19-4.89-8.53-4.08,1.42-7.12.27-8-3a5.31,5.31,0,0,1,3.68-6.56l.46-.11C60.48,27.87,63,30.13,63.47,34.18Zm9.67,5.7A4.87,4.87,0,0,0,68.33,35h0a4.88,4.88,0,1,0,4.86,4.93ZM58.08,36.57a2.84,2.84,0,1,0-2.81-2.89A2.87,2.87,0,0,0,58.08,36.57Z" transform="translate(0 0.01)"/><path class="cls-1" d="M48.77,19.37a7.39,7.39,0,1,1,0,.13Zm7.36-4.74a4.88,4.88,0,1,0,4.82,5,4.89,4.89,0,0,0-4.82-5Z" transform="translate(0 0.01)"/><path class="cls-1" d="M44,0a7.34,7.34,0,1,1-.54,0Zm4.81,7.35A4.91,4.91,0,1,0,39,7.25h0a4.88,4.88,0,0,0,9.75.52c0-.14,0-.29,0-.43Z" transform="translate(0 0.01)"/><path class="cls-1" d="M33.71,69.73c-2-3.48-1.31-6.64,1.67-8.17A5.3,5.3,0,1,1,40.24,71a5.4,5.4,0,0,1-1.18.44c-.28,2.69-1,3.74-2.63,4.11A3.29,3.29,0,0,1,33,74.06C32.16,72.67,32.36,71.44,33.71,69.73Zm4.08-.65A2.84,2.84,0,1,0,35,66.19v.06A2.87,2.87,0,0,0,37.79,69.08Zm-.93,3.3c-.5-.39-.8-.8-1.07-.78a1,1,0,0,0-.73.72,1,1,0,0,0,.69.76C36,73.12,36.34,72.73,36.86,72.38Z" transform="translate(0 0.01)"/><path class="cls-1" d="M14.63,58.12a5.29,5.29,0,1,1-5.31-5.29A5.29,5.29,0,0,1,14.63,58.12ZM9.36,61a2.84,2.84,0,1,0-2.84-2.84A2.84,2.84,0,0,0,9.36,61Z" transform="translate(0 0.01)"/><path class="cls-1" d="M16.25,66.25a5.29,5.29,0,1,1,5.31,5.27A5.29,5.29,0,0,1,16.25,66.25Zm5.33,2.83a2.84,2.84,0,1,0-2.88-2.83,2.84,2.84,0,0,0,2.88,2.83Z" transform="translate(0 0.01)"/><path class="cls-1" d="M34.94,11.33a3.32,3.32,0,1,1-3.6-3.2c.11,0,.23,0,.35,0A3.23,3.23,0,0,1,34.94,11.33Zm-2.09,0c-.58-.34-.92-.71-1.23-.68s-.72.56-.66.75a1.22,1.22,0,0,0,.82.73c.22,0,.56-.41,1.07-.82Z" transform="translate(0 0.01)"/><path class="cls-1" d="M6.5,35.77a3.25,3.25,0,1,1-3.24-3.26h0A3.28,3.28,0,0,1,6.5,35.77Zm-2.11-.09c-.55-.34-.88-.71-1.16-.67s-.52.48-.77.75c.29.26.55.69.88.74S3.89,36.09,4.39,35.68Z" transform="translate(0 0.01)"/><path class="cls-2" d="M45,53.1h.06l-.06.15-.07-.06Z" transform="translate(0 0.01)"/></svg>