<svg id="Layer_1" data-name="Layer 1" xmlns="http://www.w3.org/2000/svg" viewBox="0 0 75.59 75.6"><defs><style>.cls-1{fill:#fea605;}.cls-2{fill:#fefefd;}</style></defs><path class="cls-1" d="M49.9,58c-6,5.3-12.85,7.29-20.62,5.4a21,21,0,0,1-11.41-7.33,21.75,21.75,0,0,1,1.34-28.65,7.37,7.37,0,0,1-5.31-4,7.08,7.08,0,0,1-.52-5.23A7.35,7.35,0,0,1,21.48,13c4.3.7,6.41,3.83,6.12,9.14,8.83-2.48,16.72-.87,22.94,6s7.13,14.81,3.74,23.54a11.68,11.68,0,0,1,8.4-2.06A11.18,11.18,0,0,1,70,53.77a11.3,11.3,0,0,1,.73,13.09,11.33,11.33,0,0,1-19.38-.18A12.23,12.23,0,0,1,49.9,58ZM15.56,42.31c.14,11.18,8.57,19.58,19.69,19.3a19.08,19.08,0,1,0-19.69-19.3ZM70,60.92a8.94,8.94,0,1,0-8.9,8.85A9,9,0,0,0,70,60.92ZM20.4,15.32a4.88,4.88,0,0,0,.06,9.75,4.88,4.88,0,1,0-.06-9.75ZM50,57.85l-.07.06L50,58l.06-.1Z" transform="translate(-5 -4.75)"/><path class="cls-1" d="M68.47,38.93c4.19-2.39,7.48-2.16,10.19.7A7.31,7.31,0,0,1,71,51.51c-3.52-1.19-5.24-4.19-4.89-8.53-4.08,1.42-7.12.27-8-3a5.32,5.32,0,0,1,4.14-6.67C65.48,32.62,68,34.88,68.47,38.93Zm9.67,5.7a4.87,4.87,0,0,0-4.86-4.93,4.88,4.88,0,1,0,4.86,4.93ZM63.08,41.32a2.84,2.84,0,1,0-2.81-2.89A2.88,2.88,0,0,0,63.08,41.32Z" transform="translate(-5 -4.75)"/><path class="cls-1" d="M53.77,24.12a7.31,7.31,0,1,1,7.32,7.45A7.32,7.32,0,0,1,53.77,24.12Zm7.36-4.74a4.88,4.88,0,1,0,4.82,5A4.89,4.89,0,0,0,61.13,19.38Z" transform="translate(-5 -4.75)"/><path class="cls-1" d="M49,4.75a7.32,7.32,0,0,1-.06,14.63A7.32,7.32,0,1,1,49,4.75Zm4.81,7.35A4.88,4.88,0,0,0,44,12a4.88,4.88,0,1,0,9.75.09Z" transform="translate(-5 -4.75)"/><path class="cls-1" d="M38.71,74.48c-2-3.48-1.31-6.64,1.67-8.17a5.3,5.3,0,1,1,3.68,9.86c-.28,2.69-1,3.74-2.63,4.11A3.29,3.29,0,0,1,38,78.81C37.16,77.42,37.36,76.19,38.71,74.48Zm4.08-.65A2.84,2.84,0,1,0,40,71,2.86,2.86,0,0,0,42.79,73.83Zm-.93,3.3c-.5-.39-.8-.8-1.07-.78s-.73.46-.73.72a1,1,0,0,0,.69.76C41,77.87,41.34,77.48,41.86,77.13Z" transform="translate(-5 -4.75)"/><path class="cls-1" d="M19.63,62.87a5.29,5.29,0,1,1-5.31-5.29A5.31,5.31,0,0,1,19.63,62.87Zm-5.27,2.84a2.84,2.84,0,1,0,0-5.68,2.84,2.84,0,0,0,0,5.68Z" transform="translate(-5 -4.75)"/><path class="cls-1" d="M21.25,71a5.29,5.29,0,1,1,5.31,5.27A5.31,5.31,0,0,1,21.25,71Zm5.33,2.83A2.84,2.84,0,1,0,23.7,71,2.85,2.85,0,0,0,26.58,73.83Z" transform="translate(-5 -4.75)"/><path class="cls-1" d="M39.94,16.08a3.26,3.26,0,0,1-3.18,3.29,3.25,3.25,0,1,1-.07-6.49A3.23,3.23,0,0,1,39.94,16.08Zm-2.09,0c-.58-.34-.92-.71-1.23-.68s-.72.56-.66.75a1.22,1.22,0,0,0,.82.73C37,16.89,37.34,16.47,37.85,16.06Z" transform="translate(-5 -4.75)"/><path class="cls-1" d="M11.5,40.52a3.25,3.25,0,1,1-3.21-3.26A3.28,3.28,0,0,1,11.5,40.52Zm-2.11-.09c-.55-.34-.88-.71-1.16-.67s-.52.48-.77.75c.29.26.55.69.88.74S8.89,40.84,9.39,40.43Z" transform="translate(-5 -4.75)"/><path class="cls-2" d="M15.56,42.31a19.09,19.09,0,1,1,19.69,19.3C24.13,61.89,15.7,53.49,15.56,42.31Z" transform="translate(-5 -4.75)"/><path class="cls-2" d="M70,60.92a8.94,8.94,0,1,1-8.94-9A9,9,0,0,1,70,60.92Z" transform="translate(-5 -4.75)"/><path class="cls-2" d="M20.4,15.32a4.88,4.88,0,1,1-4.83,4.85A4.9,4.9,0,0,1,20.4,15.32Z" transform="translate(-5 -4.75)"/><path class="cls-2" d="M50,57.85l.06,0L50,58l-.07-.06Z" transform="translate(-5 -4.75)"/><path class="cls-2" d="M78.14,44.63a4.89,4.89,0,0,1-4.87,4.82,4.88,4.88,0,1,1,0-9.75A4.87,4.87,0,0,1,78.14,44.63Z" transform="translate(-5 -4.75)"/><path class="cls-2" d="M63.08,41.32a2.84,2.84,0,1,1,.08-5.68,2.84,2.84,0,0,1-.08,5.68Z" transform="translate(-5 -4.75)"/><path class="cls-2" d="M61.13,19.38a4.88,4.88,0,1,1-4.92,4.77A4.9,4.9,0,0,1,61.13,19.38Z" transform="translate(-5 -4.75)"/><path class="cls-2" d="M53.76,12.1A4.88,4.88,0,1,1,49,7.19,4.91,4.91,0,0,1,53.76,12.1Z" transform="translate(-5 -4.75)"/><path class="cls-2" d="M42.79,73.83A2.84,2.84,0,1,1,45.63,71,2.87,2.87,0,0,1,42.79,73.83Z" transform="translate(-5 -4.75)"/><path class="cls-2" d="M41.86,77.13c-.52.35-.85.74-1.11.7a1,1,0,0,1-.69-.76c0-.26.45-.69.73-.72S41.36,76.74,41.86,77.13Z" transform="translate(-5 -4.75)"/><path class="cls-2" d="M14.36,65.71a2.84,2.84,0,1,1,2.83-2.86A2.88,2.88,0,0,1,14.36,65.71Z" transform="translate(-5 -4.75)"/><path class="cls-2" d="M26.58,73.83a2.84,2.84,0,0,1-.09-5.67,2.84,2.84,0,1,1,.09,5.67Z" transform="translate(-5 -4.75)"/><path class="cls-2" d="M37.85,16.06c-.51.41-.83.83-1.07.8a1.22,1.22,0,0,1-.82-.73c-.06-.19.4-.73.66-.75S37.27,15.72,37.85,16.06Z" transform="translate(-5 -4.75)"/><path class="cls-2" d="M9.39,40.43c-.5.41-.81.86-1.05.82s-.59-.48-.88-.74c.25-.27.48-.7.77-.75S8.84,40.09,9.39,40.43Z" transform="translate(-5 -4.75)"/></svg>