<svg id="Layer_1" data-name="Layer 1" xmlns="http://www.w3.org/2000/svg" viewBox="0 0 58.02 58.05"><defs><style>.cls-1{fill:#fff;}</style></defs><path class="cls-1" d="M32.84,60.76H29.3l-.14,0A26,26,0,0,1,26,60.33a27.72,27.72,0,0,1-8-2.64A29,29,0,0,1,2,31.92c0-.81,0-1.61.1-2.42a24.78,24.78,0,0,1,.62-4.19,28.5,28.5,0,0,1,8.16-14.45A28.61,28.61,0,0,1,29.69,2.75a28.1,28.1,0,0,1,7.7.65A29.14,29.14,0,0,1,58.78,23.06,26,26,0,0,1,60,29.83a1.21,1.21,0,0,0,.05.18v3.53a1.21,1.21,0,0,0-.05.18c0,.21,0,.41,0,.62a29.21,29.21,0,0,1-.6,3.84A29.08,29.08,0,0,1,43.69,57.9,28.58,28.58,0,0,1,33,60.71Zm-1.77-4.52A24.49,24.49,0,1,0,6.59,31.66,24.51,24.51,0,0,0,31.07,56.24Z" transform="translate(-2.04 -2.71)"/><path class="cls-1" d="M18.18,20.26a16.82,16.82,0,0,0,12.65,6.65c0-.21-.06-.42-.08-.63a6.44,6.44,0,0,1,2.93-6.35,5.61,5.61,0,0,1,7.15.91.54.54,0,0,0,.55.17,9.49,9.49,0,0,0,2.38-.84c.32-.16.63-.34,1-.53a5.88,5.88,0,0,1-.94,1.91,6.87,6.87,0,0,1-1.42,1.53,10,10,0,0,0,3.11-.93c-.06.51-1.42,2.09-2.81,3.26,0,.55,0,1.11,0,1.67a18.32,18.32,0,0,1-5.07,12.34,15.72,15.72,0,0,1-8.84,4.77,16.33,16.33,0,0,1-10.26-1.48c-.57-.28-1.11-.61-1.66-.92a.83.83,0,0,1-.21-.17A9.47,9.47,0,0,0,21,41.26a8.8,8.8,0,0,0,3.81-2.32,6,6,0,0,1-4.31-2.21,4.23,4.23,0,0,1-1-2.18A4.5,4.5,0,0,0,22,34.34,6.32,6.32,0,0,1,18.55,32a6.57,6.57,0,0,1-1.18-3.95,3.72,3.72,0,0,0,2.56.7A6.81,6.81,0,0,1,18.18,20.26Z" transform="translate(-2.04 -2.71)"/></svg>