<?xml version="1.0" encoding="utf-8"?>
<!-- Generator: Adobe Illustrator 24.1.1, SVG Export Plug-In . SVG Version: 6.00 Build 0)  -->
<svg version="1.1" id="Layer_1" xmlns="http://www.w3.org/2000/svg" xmlns:xlink="http://www.w3.org/1999/xlink" x="0px" y="0px"
	 viewBox="0 0 58 58" style="enable-background:new 0 0 58 58;" xml:space="preserve">
<style type="text/css">
	.st0{fill:#FFFFFF;}
	.st1{fill:#34D1F7;}
</style>
<circle class="st0" cx="29" cy="29" r="29"/>
<path class="st1" d="M16.2,17.5c3,4,7.7,6.4,12.7,6.7c0-0.2-0.1-0.4-0.1-0.6c-0.4-2.5,0.8-5,2.9-6.4c2.3-1.5,5.3-1.1,7.1,0.9
	c0.1,0.2,0.3,0.2,0.5,0.2c0.8-0.2,1.6-0.5,2.4-0.8l1-0.5c-0.2,0.7-0.5,1.3-0.9,1.9s-0.9,1.1-1.4,1.5c1.1-0.1,2.1-0.5,3.1-0.9
	c-0.1,0.5-1.4,2.1-2.8,3.3v1.7c-0.1,4.6-1.9,9-5.1,12.3c-2.3,2.5-5.5,4.2-8.8,4.8c-3.5,0.6-7.1,0.1-10.3-1.5
	c-0.6-0.3-1.1-0.6-1.7-0.9c-0.1,0-0.2-0.1-0.2-0.2c1.5,0.2,3,0.1,4.4-0.4c1.4-0.4,2.8-1.2,3.8-2.3c-1.7-0.1-3.3-0.9-4.4-2.2
	c-0.5-0.6-0.9-1.4-1-2.2c0.8,0.2,1.7,0.1,2.5-0.2c-1.4-0.4-2.6-1.2-3.5-2.3c-0.8-1.2-1.2-2.5-1.2-4c0.7,0.5,1.6,0.8,2.6,0.7
	C15.4,24,14.7,20.4,16.2,17.5z"/>
</svg>
