<svg id="Layer_1" data-name="Layer 1" xmlns="http://www.w3.org/2000/svg" viewBox="0 0 83.5 83.5"><path d="M.5,45.17V38.7c.2-1.23.39-2.45.6-3.68A41.75,41.75,0,0,1,33,1.55c2.09-.46,4.23-.7,6.35-1h5.84a4.34,4.34,0,0,0,.69.17,39.15,39.15,0,0,1,16,4.79c11.56,6.39,18.69,16.08,21.29,29.05.38,1.86.55,3.77.81,5.65V45c-.2,1.44-.38,2.88-.62,4.31A41.78,41.78,0,0,1,50.29,83.2c-1.69.32-3.41.54-5.12.8H39.33c-1.41-.2-2.81-.38-4.21-.61A41.71,41.71,0,0,1,1.56,51.52C1.1,49.43.85,47.29.5,45.17ZM42.19,77.49c19.27.07,35.32-15.76,35.27-35a35.23,35.23,0,1,0-35.27,35Z" transform="translate(-0.5 -0.5)"/><path d="M41.56,35.3A32,32,0,0,1,42.3,30a8.24,8.24,0,0,1,10.17-5.7,10.66,10.66,0,0,1,3.41,1.91,1.77,1.77,0,0,0,1.87.41L62,25a28.6,28.6,0,0,1-1.4,2.5c-.52.76-1.17,1.43-2,2.38l4.19-1.28.21.19C62,30,61,31.27,59.81,32.35a2.45,2.45,0,0,0-.87,2c0,8.06-2.77,15-8.87,20.36A23.41,23.41,0,0,1,22.68,57.2c-.29-.17-.57-.37-1.1-.72a14.39,14.39,0,0,0,11.79-3.84,8.7,8.7,0,0,1-4.94-1.92,7.07,7.07,0,0,1-2.78-4.26l3.21-.25L29,46c-4.19-1.44-6.28-4.35-6.42-8.8a14.59,14.59,0,0,0,1.69.64,15,15,0,0,0,1.84.19c-3.64-3.62-4.42-7.58-2.44-12.29A24.27,24.27,0,0,0,41.56,35.3Z" transform="translate(-0.5 -0.5)"/></svg>