<?xml version="1.0" encoding="utf-8"?>
<!-- Generator: Adobe Illustrator 24.1.1, SVG Export Plug-In . SVG Version: 6.00 Build 0)  -->
<svg version="1.1" id="Layer_1" xmlns="http://www.w3.org/2000/svg" xmlns:xlink="http://www.w3.org/1999/xlink" x="0px" y="0px"
	 viewBox="0 0 58 58" style="enable-background:new 0 0 58 58;" xml:space="preserve">
<style type="text/css">
	.st0{fill:#FFFFFF;}
</style>
<path class="st0" d="M30.8,58h-3.7c-1-0.1-2.1-0.2-3.1-0.4c-2.8-0.5-5.5-1.3-8-2.6C6.3,50.1,0.1,40.1,0,29.2c0-0.8,0-1.6,0.1-2.4
	c0.1-1.4,0.3-2.8,0.6-4.2C3.6,9.9,14.6,0.6,27.7,0c2.6-0.1,5.2,0.1,7.7,0.6c10.1,2.3,18.3,9.8,21.4,19.7c0.7,2.2,1.1,4.5,1.3,6.8
	c0,0.1,0,0.1,0,0.2v3.5c0,0.1,0,0.1,0,0.2v0.6c-0.1,1.3-0.3,2.6-0.6,3.8c-2,8.6-7.8,15.9-15.8,19.7c-3.3,1.6-7,2.6-10.7,2.8L30.8,58
	z M29,53.5c13.5,0,24.5-10.9,24.5-24.5S42.6,4.6,29.1,4.6C15.6,4.5,4.6,15.5,4.6,29C4.6,42.5,15.5,53.5,29,53.5
	C29,53.5,29,53.5,29,53.5z"/>
<path class="st0" d="M16.2,17.5c3,4,7.7,6.4,12.7,6.7c0-0.2-0.1-0.4-0.1-0.6c-0.4-2.5,0.8-5,2.9-6.4c2.3-1.5,5.3-1.1,7.1,0.9
	c0.1,0.2,0.3,0.2,0.5,0.2c0.8-0.2,1.6-0.5,2.4-0.8l1-0.5c-0.2,0.7-0.5,1.3-0.9,1.9c-0.4,0.6-0.9,1.1-1.4,1.5
	c1.1-0.1,2.1-0.5,3.1-0.9c-0.1,0.5-1.4,2.1-2.8,3.3v1.7c-0.1,4.6-1.9,9-5.1,12.3c-2.3,2.5-5.5,4.2-8.8,4.8
	c-3.5,0.6-7.1,0.1-10.3-1.5c-0.6-0.3-1.1-0.6-1.7-0.9c-0.1,0-0.2-0.1-0.2-0.2c1.5,0.2,3,0.1,4.4-0.4c1.4-0.4,2.8-1.2,3.8-2.3
	c-1.7-0.1-3.3-0.9-4.4-2.2c-0.5-0.6-0.9-1.4-1-2.2c0.8,0.2,1.7,0.1,2.5-0.2c-1.4-0.4-2.6-1.2-3.5-2.3c-0.8-1.2-1.2-2.5-1.2-4
	c0.7,0.5,1.6,0.8,2.6,0.7C15.4,24,14.7,20.4,16.2,17.5z"/>
</svg>
