<svg id="Layer_1" data-name="Layer 1" xmlns="http://www.w3.org/2000/svg" viewBox="0 0 58.05 58.05"><defs><style>.cls-1{fill:orange;}</style></defs><path class="cls-1" d="M30.8,58.05H27.12A25.8,25.8,0,0,1,24,57.62,27.87,27.87,0,0,1,16,55,29,29,0,0,1,0,29.21a19.59,19.59,0,0,1,.1-2.42A24.78,24.78,0,0,1,.68,22.6,29.06,29.06,0,0,1,27.65,0a28.07,28.07,0,0,1,7.7.65A29.15,29.15,0,0,1,56.74,20.35,26.4,26.4,0,0,1,58,27.12a1.21,1.21,0,0,0,0,.18v3.53A1.21,1.21,0,0,0,58,31v.62a27.86,27.86,0,0,1-.6,3.84A29.09,29.09,0,0,1,41.65,55.19,28.63,28.63,0,0,1,31,58ZM29,53.53A24.49,24.49,0,1,0,4.55,29,24.48,24.48,0,0,0,29,53.53Z" transform="translate(0.04 0)"/><path class="cls-1" d="M16.14,17.55A16.82,16.82,0,0,0,28.79,24.2c0-.21-.06-.42-.08-.63a6.44,6.44,0,0,1,2.93-6.35,5.61,5.61,0,0,1,7.15.91.55.55,0,0,0,.55.17,9.49,9.49,0,0,0,2.38-.84l1-.53a5.68,5.68,0,0,1-.94,1.91,6.66,6.66,0,0,1-1.42,1.53,10,10,0,0,0,3.11-.93c-.06.51-1.42,2.09-2.81,3.26v1.67a18.34,18.34,0,0,1-5.07,12.34,15.75,15.75,0,0,1-8.84,4.77A16.39,16.39,0,0,1,16.49,40c-.57-.28-1.11-.61-1.66-.92a.68.68,0,0,1-.21-.17A9.4,9.4,0,0,0,19,38.55a8.74,8.74,0,0,0,3.81-2.32A6,6,0,0,1,18.46,34a4.21,4.21,0,0,1-1-2.18,4.45,4.45,0,0,0,2.5-.21,6.32,6.32,0,0,1-3.45-2.34,6.56,6.56,0,0,1-1.18-3.95,3.72,3.72,0,0,0,2.56.7A6.81,6.81,0,0,1,16.14,17.55Z" transform="translate(0.04 0)"/></svg>